<?xml version="1.0" encoding="utf-8"?>
<svg xmlns="http://www.w3.org/2000/svg" width="891" height="1002" viewBox="0 0 891 1002">
  <path fill-rule="evenodd" d="M 439.789 2.643 C 436.880 3.850, 430.072 11.353, 408.304 37.341 C 393.028 55.579, 379.707 72.075, 378.702 74 C 377.548 76.209, 377.038 78.791, 377.319 81 C 377.564 82.925, 381.822 95.075, 386.781 108 C 398.319 138.074, 405.203 157.131, 404.706 157.627 C 404.491 157.842, 386.264 154.585, 364.202 150.390 C 334.781 144.794, 323.096 142.947, 320.365 143.459 C 315.584 144.356, 310.506 149.406, 309.087 154.676 C 307.894 159.108, 307.353 156.982, 325.019 217.277 C 329.012 230.905, 332.042 242.291, 331.753 242.581 C 331.463 242.870, 318.463 238.256, 302.863 232.328 C 271.993 220.596, 267.624 219.650, 262.385 223.562 C 260.866 224.696, 258.696 226.865, 257.562 228.383 C 255.173 231.580, 255.008 236.146, 256.301 263.350 C 256.803 273.921, 256.747 280.070, 256.151 279.850 C 255.629 279.658, 239.231 265.367, 219.710 248.094 C 200.190 230.820, 183.157 216.099, 181.859 215.379 C 178.276 213.392, 171.007 213.698, 167.241 215.995 C 165.448 217.088, 163.057 219.448, 161.926 221.241 C 159.962 224.355, 159.899 225.435, 160.519 245.500 C 161.160 266.238, 161.145 266.475, 159.246 264.500 C 158.188 263.400, 149.213 253.500, 139.302 242.500 C 129.391 231.500, 120.380 221.699, 119.278 220.720 C 114.544 216.512, 113.318 216.604, 61.074 225.102 C 8.930 233.584, 7.135 234.041, 3.865 239.681 C 0.005 246.339, 0.005 246.339, 15.180 292.149 C 27.326 328.819, 29.961 335.845, 32.537 338.441 C 35.129 341.052, 41.168 343.330, 73.779 354 C 94.792 360.875, 111.988 366.740, 111.993 367.034 C 111.997 367.328, 110.537 368.417, 108.750 369.454 C 99.750 374.676, 58.064 402.593, 55.165 405.340 C 47.220 412.867, 46.849 421.868, 54.200 428.731 C 55.855 430.278, 63.022 432.764, 77.545 436.830 C 114.366 447.140, 156 459.434, 156 459.997 C 156 460.644, 109.964 485.101, 105.230 486.969 C 98.643 489.568, 94.998 496.845, 96.438 504.521 C 97.108 508.095, 102.295 515, 104.309 515 C 105.212 515, 154.554 540.472, 155.917 541.642 C 156.146 541.839, 156.116 542.217, 155.851 542.482 C 155.308 543.025, 97.959 559.822, 73.584 566.577 C 64.831 569.002, 56.597 571.689, 55.287 572.548 C 50.954 575.387, 48.849 579.956, 49.265 585.615 C 49.905 594.303, 51.899 596.044, 88.058 619.500 C 100.777 627.750, 111.339 634.750, 111.530 635.055 C 111.721 635.360, 94.608 641.343, 73.502 648.351 C 38.341 660.025, 34.878 661.375, 32.161 664.470 C 29.802 667.157, 26.380 676.306, 15.442 709.174 C 6.760 735.263, 1.685 752.020, 1.678 754.622 C 1.662 760.428, 4.644 765.078, 10.017 767.628 C 13.239 769.157, 28.098 771.940, 62.845 777.523 L 111.191 785.291 115.559 783.396 C 119.003 781.901, 124.299 776.649, 140.592 758.567 L 161.257 735.635 160.542 756.067 C 160.100 768.682, 160.197 777.457, 160.796 779 C 162.303 782.887, 166.884 786.892, 171.134 788.036 C 178.893 790.125, 179.924 789.408, 219.410 754.451 C 239.649 736.533, 256.424 722.090, 256.688 722.354 C 256.952 722.619, 256.644 733.005, 256.003 745.435 C 254.865 767.514, 254.887 768.134, 256.919 772.333 C 259.330 777.313, 264.975 781.008, 270.136 780.985 C 271.986 780.976, 286.533 776.047, 302.463 770.031 C 318.393 764.015, 331.631 759.298, 331.882 759.548 C 332.132 759.799, 327.688 775.865, 322.007 795.252 C 307.709 844.039, 307.929 843.144, 309.160 847.689 C 310.944 854.279, 316.834 859, 323.270 859 C 325.122 859, 344.157 855.662, 365.569 851.583 C 386.980 847.503, 404.648 844.314, 404.829 844.496 C 405.276 844.943, 399.779 860.150, 387.372 892.784 C 381.668 907.790, 377 920.967, 377 922.066 C 377 923.165, 377.647 925.613, 378.438 927.507 C 380.086 931.451, 434.072 996.346, 437.661 998.698 C 438.964 999.551, 441.935 1000.453, 444.264 1000.703 C 452.118 1001.545, 454.530 999.328, 483.576 964.561 C 498.252 946.994, 511.099 931.244, 512.126 929.561 C 515.483 924.055, 514.626 920.288, 503.138 890.071 C 490.070 855.699, 486.372 845.286, 487.015 844.680 C 487.282 844.428, 504.825 847.542, 526 851.600 C 547.175 855.658, 566.346 858.983, 568.602 858.989 C 575.931 859.009, 583 851.871, 583 844.453 C 583 842.760, 577.619 822.971, 571.042 800.478 C 564.466 777.985, 559.219 759.448, 559.383 759.283 C 559.547 759.119, 572.866 763.938, 588.980 769.992 C 605.094 776.047, 619.678 780.999, 621.389 780.998 C 625.849 780.996, 631.084 778.053, 633.838 774 L 636.217 770.500 635.525 747.615 C 635.145 735.029, 634.598 724.116, 634.310 723.365 C 634.022 722.614, 634.172 722.005, 634.643 722.011 C 635.114 722.018, 644.950 730.400, 656.500 740.638 C 707.360 785.722, 708.696 786.841, 713.079 788.021 C 720.743 790.085, 729.507 784.710, 731.376 776.798 C 731.727 775.312, 731.555 765.680, 730.994 755.394 C 730.433 745.108, 730.133 736.533, 730.328 736.339 C 730.522 736.145, 740.197 746.544, 751.827 759.449 C 769.446 778.998, 773.618 783.105, 776.836 784.069 C 780.231 785.086, 786.739 784.244, 830.599 777.111 C 868.131 771.007, 881.120 768.540, 883 767.156 C 887.001 764.211, 890 759.048, 890 755.102 C 890 753.121, 883.631 732.375, 875.848 709 C 863.441 671.742, 861.306 666.130, 858.539 663.500 C 855.921 661.012, 848.949 658.401, 817.691 648.204 C 796.961 641.441, 780.015 635.591, 780.033 635.204 C 780.052 634.817, 791.587 627.075, 805.667 618 C 834.543 599.388, 841.373 593.673, 842.465 587.204 C 843.021 583.917, 842.709 582.030, 841.039 578.581 C 838.296 572.915, 835.539 571.182, 825.006 568.502 C 804.609 563.312, 735.015 542.588, 735.723 541.915 C 736.853 540.840, 780.658 517.683, 786.166 515.249 C 793.252 512.117, 796.714 505.098, 794.975 497.388 C 793.819 492.263, 789.957 488.714, 780.625 484.198 C 776.156 482.036, 763.969 475.732, 753.542 470.188 C 736.478 461.115, 734.829 460.016, 737.042 459.183 C 739.236 458.356, 816.858 435.920, 829.592 432.431 C 836.303 430.592, 839.470 427.955, 841.570 422.456 C 843.554 417.261, 842.657 412.377, 838.824 407.504 C 837.188 405.424, 796.352 377.623, 781.337 368.367 C 780.327 367.744, 779.725 367.002, 780 366.719 C 780.275 366.435, 797.295 360.715, 817.821 354.008 C 847.629 344.269, 855.824 341.215, 858.529 338.841 C 861.662 336.090, 862.975 332.640, 876.066 292.763 C 887.737 257.213, 890.124 248.958, 889.682 245.666 C 889.059 241.017, 886.493 237.204, 882.360 234.783 C 880.430 233.653, 862.481 230.315, 829.797 225.008 C 781.611 217.185, 780.051 216.996, 776.208 218.533 C 773.168 219.750, 767.447 225.442, 751.510 243.109 C 740.102 255.755, 730.590 265.924, 730.373 265.706 C 730.155 265.488, 730.446 256.674, 731.019 246.119 C 731.996 228.127, 731.942 226.658, 730.158 222.624 C 727.698 217.063, 722.871 214, 716.566 214 C 713.982 214, 710.980 214.475, 709.895 215.056 C 708.809 215.637, 691.679 230.487, 671.828 248.056 C 651.976 265.625, 635.296 280, 634.760 280 C 634.224 280, 634.022 279.386, 634.310 278.635 C 634.598 277.884, 635.130 266.971, 635.491 254.385 C 636.127 232.282, 636.077 231.387, 634.054 228.192 C 631.887 224.770, 625.250 221.061, 621.225 221.022 C 619.973 221.010, 605.662 226.001, 589.422 232.113 C 573.181 238.226, 559.724 243.057, 559.517 242.850 C 559.309 242.643, 564.508 224.078, 571.070 201.595 C 577.631 179.112, 583 159.380, 583 157.745 C 583 150.994, 575.193 143, 568.600 143 C 567.154 143, 548.345 146.375, 526.801 150.500 C 505.258 154.625, 487.274 158, 486.837 158 C 485.921 158, 487.262 154.235, 502.663 113.561 C 513.593 84.696, 515.115 79.084, 513.301 74.332 C 512.533 72.320, 464.233 14.083, 457.653 7.236 C 453.927 3.358, 448.966 0.936, 445 1.057 C 444.175 1.082, 441.830 1.796, 439.789 2.643 M 429.328 50.750 C 425.527 54.462, 421.404 59.596, 420.164 62.157 C 416.190 70.373, 411.937 86.939, 411.309 96.654 C 410.776 104.909, 410.932 106.153, 412.899 109.336 C 417.476 116.743, 428.083 117.698, 434.253 111.258 C 439.424 105.860, 440.001 102.124, 439.986 74.124 C 439.972 47.721, 439.665 44, 437.503 44 C 436.807 44, 433.129 47.038, 429.328 50.750 M 452.219 45.750 C 451.823 46.712, 451.500 59.663, 451.500 74.529 C 451.500 101.416, 451.513 101.584, 454.006 106.426 C 457.420 113.056, 460.920 115.500, 467 115.500 C 472.690 115.500, 476.568 113.117, 479.318 107.929 C 481.657 103.517, 481.063 94.311, 477.575 80.886 C 473.020 63.355, 471.484 60.291, 462.969 51.750 C 458.719 47.487, 454.724 44, 454.090 44 C 453.456 44, 452.614 44.788, 452.219 45.750 M 424.313 124.786 C 422.463 125.962, 421.147 130.320, 421.727 133.350 C 422.470 137.239, 427.531 142, 430.922 142 C 435.664 142, 439.811 135.262, 438 130.500 C 436.272 125.956, 427.942 122.478, 424.313 124.786 M 460 124.704 C 456.780 125.875, 453 130.415, 453 133.110 C 453 136.815, 457.485 142, 460.689 142 C 464.533 142, 470 136.025, 470 131.823 C 470 125.556, 465.825 122.584, 460 124.704 M 366.149 180.473 C 363.755 184.529, 361.375 184.934, 354.979 182.375 C 352.745 181.481, 350.678 180.989, 350.385 181.282 C 350.092 181.575, 350.586 183.233, 351.483 184.967 C 353.947 189.732, 353.150 195.176, 349.750 196.797 C 348.238 197.519, 347.001 198.647, 347.002 199.305 C 347.006 201.838, 361.974 209.761, 368.426 210.645 C 374.722 211.508, 377.700 210.482, 379.608 206.790 C 381.804 202.544, 380.362 196.213, 374.975 186.455 C 369.550 176.628, 368.741 176.079, 366.149 180.473 M 521.252 178.250 C 517.375 183.129, 511.802 195.518, 511.301 200.374 C 510.793 205.295, 510.991 206.082, 513.323 208.414 C 516.490 211.581, 521.753 211.846, 528.739 209.191 C 534.242 207.100, 545 200.446, 545 199.134 C 545 198.644, 543.644 197.681, 541.987 196.995 C 538.079 195.376, 537.307 192.103, 539.487 186.396 C 540.435 183.911, 540.934 181.600, 540.593 181.260 C 540.253 180.920, 538.390 181.397, 536.454 182.321 C 530.318 185.246, 526.111 184.076, 524.498 178.994 C 523.772 176.706, 522.678 176.455, 521.252 178.250 M 413.764 197.996 C 409.142 199.387, 404.344 202.843, 399.163 208.512 C 393.826 214.351, 385.357 227.703, 384.318 231.913 C 383.967 233.336, 382.829 236.145, 381.789 238.155 C 376.800 247.795, 376.897 268.654, 381.987 280.940 C 387.354 293.891, 394.925 300.857, 406.138 303.160 C 413.944 304.762, 419.292 303.060, 425.019 297.150 C 432.770 289.150, 433.818 280.783, 429.109 264.498 C 427.518 258.999, 425.254 252.292, 424.077 249.593 C 421.454 243.579, 419.627 231.225, 420.534 225.637 C 420.903 223.362, 423.004 218.213, 425.203 214.195 C 429.733 205.917, 430.512 200.579, 427.510 198.384 C 425.457 196.882, 418.147 196.676, 413.764 197.996 M 463.746 198.728 C 461.058 201.698, 461.614 204.870, 466.500 214.445 C 470.753 222.779, 470.999 223.711, 470.974 231.382 C 470.955 237.528, 470.331 241.201, 468.406 246.500 C 460.717 267.668, 458.566 277.441, 459.970 284.840 C 462.199 296.597, 472.597 304.958, 483.268 303.575 C 495.388 302.005, 504.518 293.839, 509.760 279.882 C 511.492 275.272, 513.188 268.777, 513.529 265.450 C 514.373 257.225, 512.393 243.615, 509.435 237.312 C 508.096 234.458, 507 231.582, 507 230.920 C 507 228.598, 495.919 212.185, 490.736 206.830 C 484.346 200.227, 479.369 197.737, 471.496 197.205 C 466.510 196.867, 465.196 197.126, 463.746 198.728 M 102 244.411 C 102 246.760, 96.109 251, 92.847 251 C 90.092 251, 89.861 251.266, 90.025 254.250 C 90.360 260.373, 89.996 261.851, 87.394 264.943 C 84.133 268.819, 84.980 270.085, 92.841 273.083 C 96.748 274.573, 100.977 275.281, 106.500 275.371 L 114.500 275.500 114.837 272.533 C 115.350 268.021, 113.112 258.162, 110.297 252.533 C 106.576 245.094, 102 240.614, 102 244.411 M 785.712 244.766 C 780.988 249.986, 774.391 271.587, 776.486 274.977 C 777.387 276.435, 787.599 276.221, 793.500 274.620 C 799.337 273.036, 806 269.966, 806 268.859 C 806 268.435, 804.847 266.390, 803.439 264.314 C 801.460 261.399, 800.940 259.519, 801.153 256.054 C 801.415 251.801, 801.275 251.536, 798.464 250.957 C 793.916 250.021, 790.998 248.124, 789.977 245.439 C 788.876 242.542, 787.868 242.383, 785.712 244.766 M 68.305 260.028 C 67.702 266.131, 66.986 271.347, 66.714 271.619 C 66.442 271.892, 60.732 268.488, 54.025 264.057 C 47.318 259.626, 41.469 256, 41.026 256 C 40.584 256, 39.215 256.815, 37.984 257.812 C 34.146 260.920, 36.123 263.494, 48.598 271.627 C 54.869 275.716, 60 279.455, 60 279.935 C 60 280.415, 56.428 283.099, 52.061 285.900 C 43.456 291.420, 42.239 292.639, 43.787 294.187 C 45.076 295.476, 53.504 293.096, 62.170 288.996 C 65.652 287.349, 69.682 286.001, 71.128 286.001 C 72.573 286, 74.203 285.438, 74.750 284.750 C 75.316 284.038, 75.691 277.475, 75.622 269.500 C 75.496 254.987, 74.316 249.877, 70.943 249.228 C 69.680 248.984, 69.203 250.934, 68.305 260.028 M 818.619 251.188 C 817.790 252.460, 816.695 255.525, 816.186 258 C 815.243 262.586, 815.397 283.730, 816.380 284.713 C 816.677 285.011, 818.626 285.613, 820.710 286.051 C 822.795 286.490, 828.450 288.487, 833.277 290.490 C 843.312 294.653, 847.255 295.299, 847.762 292.863 C 847.998 291.729, 845.486 289.583, 839.600 285.888 C 829.638 279.636, 829.568 280.047, 842 271.736 C 854.347 263.482, 856.035 261.177, 852.395 257.537 C 850.162 255.305, 848.203 256.132, 836.269 264.347 C 829.111 269.274, 825.692 271.092, 824.960 270.360 C 824.384 269.784, 823.594 264.890, 823.206 259.486 C 822.463 249.144, 821.311 247.061, 818.619 251.188 M 567.725 274.079 C 561.450 275.800, 557.722 284.487, 556.109 301.145 C 554.897 313.671, 555.144 315.594, 558.092 316.529 C 561.599 317.642, 563.875 315.955, 566.637 310.198 C 568.141 307.064, 570.685 302.799, 572.293 300.721 C 575.796 296.190, 579 288.151, 579 283.894 C 579 277.200, 573.572 272.475, 567.725 274.079 M 315.073 276.635 C 313.617 278.486, 313 280.727, 313 284.167 C 313 290.119, 314.646 294.262, 319.955 301.676 C 322.180 304.783, 324 307.823, 324 308.431 C 324 309.038, 325.141 311.215, 326.536 313.268 C 328.252 315.793, 329.830 317, 331.414 317 C 335.729 317, 336.320 314.971, 335.535 302.862 C 334.687 289.767, 333.121 283.848, 329.004 278.164 C 326.249 274.361, 325.604 274, 321.566 274 C 317.981 274, 316.753 274.498, 315.073 276.635 M 126.545 276.250 C 126.330 276.938, 125.655 283.123, 125.045 289.996 C 124.416 297.082, 123.408 303.001, 122.718 303.666 C 121.778 304.572, 118.390 302.950, 107.855 296.549 C 92.166 287.016, 86 285.174, 86 290.020 C 86 291.230, 90.928 295.635, 100.170 302.687 C 107.964 308.634, 114.503 313.994, 114.702 314.597 C 114.902 315.200, 110.100 318.892, 104.032 322.801 C 93.864 329.353, 91.444 331.920, 93.966 333.479 C 95.452 334.397, 105.460 331.206, 116.256 326.370 C 121.622 323.966, 127.328 322, 128.935 322 C 132.771 322, 135.308 319.476, 134.319 316.645 C 133.906 315.465, 133.626 313.375, 133.695 312 C 134.468 296.678, 134.082 286.085, 132.604 282.086 C 130.220 275.635, 127.546 273.058, 126.545 276.250 M 761.253 276.207 C 758.199 279.919, 756.930 288.801, 757.260 304.144 C 757.443 312.607, 757.935 320.087, 758.355 320.765 C 758.775 321.444, 760.467 322, 762.115 322 C 763.764 322, 769.699 323.988, 775.306 326.418 C 789.297 332.482, 796.974 334.650, 798.109 332.857 C 798.582 332.111, 798.976 331.207, 798.985 330.849 C 798.993 330.491, 793.938 326.942, 787.750 322.964 C 781.563 318.985, 776.324 315.577, 776.108 315.390 C 775.548 314.904, 778.897 312.148, 792.498 301.903 C 799.097 296.932, 804.859 292.217, 805.302 291.425 C 806.579 289.142, 805.183 288, 801.114 288 C 798.183 288, 794.807 289.577, 785.923 295.098 C 771.974 303.765, 769.247 305.208, 768.648 304.239 C 767.698 302.703, 766.714 295.473, 766.116 285.638 C 765.620 277.500, 765.189 275.462, 763.908 275.218 C 763.032 275.051, 761.837 275.496, 761.253 276.207 M 216.469 282.099 C 215.879 283.956, 215.297 284.122, 211.401 283.537 C 208.981 283.174, 207 283.152, 207 283.488 C 207 283.824, 207.731 285.513, 208.624 287.240 C 210.176 290.242, 210.154 290.457, 208.124 292.101 C 206.956 293.047, 206 294.107, 206 294.456 C 206 294.806, 208.363 296.192, 211.250 297.536 C 216.872 300.154, 223.841 300.759, 225.800 298.800 C 228.004 296.596, 227.095 291.589, 223.423 285.719 C 219.658 279.699, 217.574 278.615, 216.469 282.099 M 668.998 284.161 C 664.983 289.704, 663.402 295.014, 664.921 297.853 C 665.837 299.564, 666.990 300, 670.600 300 C 678.820 300, 688.488 294.276, 683.500 292.362 C 681.819 291.716, 681.455 287.455, 683 286.500 C 683.550 286.160, 684 285.194, 684 284.353 C 684 283.128, 683.219 282.956, 680.075 283.487 C 676.742 284.050, 675.983 283.838, 675.040 282.075 C 673.450 279.103, 672.400 279.465, 668.998 284.161 M 288.046 285.800 C 286.371 287.475, 285.004 289.893, 285.010 291.173 C 285.032 296.420, 289.786 303.535, 299.809 313.323 C 308.324 321.638, 310.295 323.096, 312.652 322.823 C 314.398 322.620, 315.976 321.535, 316.882 319.914 C 318.213 317.531, 318.086 316.824, 315.268 310.914 C 313.585 307.386, 311.002 301.747, 309.527 298.383 C 306.160 290.701, 299.714 284.152, 294.724 283.343 C 291.602 282.836, 290.665 283.181, 288.046 285.800 M 592.366 284.919 C 587.931 287.623, 584.396 292.634, 580.545 301.674 C 578.712 305.978, 576.492 310.850, 575.612 312.500 C 572.708 317.946, 574.423 323, 579.175 323 C 581.928 323, 599.777 306.067, 603.242 300.168 C 607.432 293.035, 606.931 287.050, 601.928 284.463 C 598.180 282.525, 596.132 282.622, 592.366 284.919 M 72.515 298.970 C 70.762 302.361, 68.691 303.680, 63.392 304.781 L 59.664 305.555 59.582 311.165 C 59.513 315.857, 59.099 317.100, 57.050 318.759 L 54.600 320.742 57.675 322.332 C 63.100 325.137, 72.620 326.082, 81.500 324.697 L 89.500 323.449 89.355 320.247 C 89.150 315.718, 83.898 304.999, 79.495 300.127 C 77.445 297.857, 75.381 296, 74.909 296 C 74.437 296, 73.360 297.337, 72.515 298.970 M 812.552 299.750 C 807.951 304.445, 801.752 316.995, 802.183 320.744 C 802.480 323.322, 802.952 323.578, 809.500 324.711 C 817.040 326.015, 822.476 325.678, 830.750 323.393 C 836.530 321.798, 837.124 320.730, 833.750 317.999 C 831.929 316.524, 831.500 315.166, 831.500 310.883 L 831.500 305.590 827.533 304.765 C 823.339 303.894, 819.423 300.909, 818.450 297.842 C 817.617 295.219, 816.705 295.514, 812.552 299.750 M 193.667 298.667 C 193.300 299.033, 192.994 307.921, 192.986 318.417 C 192.971 339.846, 192.673 342, 189.721 342 C 188.597 342, 178.845 337.298, 168.051 331.552 C 147.958 320.855, 140.024 317.905, 137.340 320.133 C 134.023 322.886, 136.359 325.405, 152.054 336 C 160.609 341.775, 170.944 348.938, 175.020 351.918 L 182.431 357.336 179.965 359.155 C 178.609 360.155, 171.056 365.723, 163.180 371.528 C 155.304 377.332, 149.050 382.626, 149.282 383.291 C 149.551 384.063, 151.741 384.458, 155.344 384.385 C 160.277 384.284, 163.026 383.254, 177.242 376.184 C 186.184 371.737, 196.151 367.428, 199.392 366.607 C 202.633 365.787, 205.781 364.619, 206.388 364.012 C 207.717 362.683, 207.340 324.763, 205.934 318.315 C 203.038 305.043, 196.985 295.348, 193.667 298.667 M 692.680 299.801 C 691.746 300.833, 689.582 305.687, 687.870 310.588 C 684.861 319.202, 684.747 320.152, 684.441 339 C 684.267 349.725, 684.076 359.400, 684.017 360.500 C 683.874 363.161, 687.065 365.615, 691.715 366.419 C 693.797 366.779, 703.504 370.959, 713.288 375.707 C 727.324 382.521, 732.246 384.439, 736.624 384.802 C 741.807 385.232, 742.151 385.124, 741.837 383.177 C 741.619 381.827, 736.072 377.116, 726.080 369.796 C 717.599 363.583, 710.517 358.050, 710.343 357.500 C 710.009 356.443, 724.153 346.113, 742.500 334.014 C 756.352 324.879, 758.457 322.385, 754.228 320.122 C 750.663 318.214, 743.254 320.959, 723.704 331.428 C 712.847 337.243, 703.099 342, 702.041 342 C 700.983 342, 699.760 341.438, 699.323 340.750 C 698.885 340.063, 698.296 330.280, 698.014 319.012 C 697.575 301.501, 697.273 298.480, 695.938 298.225 C 695.080 298.060, 693.613 298.770, 692.680 299.801 M 244.500 315.001 C 243.065 319.521, 237.445 319.877, 231.734 315.811 C 227.817 313.022, 226.775 314.494, 228.646 320.171 C 229.954 324.142, 229.984 325.259, 228.842 327.629 C 228.104 329.161, 226.408 330.672, 225.074 330.985 C 221.067 331.927, 221.604 333.646, 227.192 337.753 C 240.378 347.448, 248.245 349.974, 253.163 346.093 C 258.299 342.040, 257.484 331.844, 250.997 318.993 C 247.897 312.854, 245.624 311.457, 244.500 315.001 M 641.074 317.750 C 631.036 338.265, 633.790 350.409, 647.722 347.067 C 652.402 345.944, 668.975 335.575, 669.735 333.294 C 669.938 332.686, 668.505 331.662, 666.551 331.017 C 662.231 329.591, 661.179 326.520, 662.859 320.238 C 663.503 317.829, 663.784 315.460, 663.484 314.974 C 663.183 314.487, 660.859 315.194, 658.320 316.545 C 652.407 319.688, 651.396 319.635, 648 316 C 646.459 314.350, 644.793 313, 644.298 313 C 643.803 313, 642.353 315.137, 641.074 317.750 M 377.615 328.294 C 371.734 334.175, 375.138 352.108, 383.673 360.211 C 386.614 363.004, 393.675 366, 397.314 366 C 400.577 366, 405.777 361.871, 408.164 357.384 C 410.100 353.746, 410.205 352.910, 409.073 350.177 C 407.659 346.763, 392.013 331.198, 386.803 328.021 C 382.526 325.414, 380.433 325.476, 377.615 328.294 M 505.500 327.556 C 503.850 328.405, 497.887 333.681, 492.250 339.282 C 480.954 350.503, 480.137 352.432, 483.995 358.759 C 488.585 366.289, 495.915 367.584, 504.723 362.422 C 512.167 358.060, 517.721 345.301, 516.661 335 C 515.819 326.816, 511.952 324.237, 505.500 327.556 M 329.327 330.451 C 326.652 332.365, 324.614 338.182, 325.550 341.234 C 325.932 342.480, 327.794 345.413, 329.689 347.750 C 333.492 352.442, 337.469 353.388, 340.529 350.328 C 343.009 347.848, 342.260 334.816, 339.478 332.033 C 336.707 329.262, 332.011 328.530, 329.327 330.451 M 553.763 330.565 C 550.891 332.124, 550.501 333.160, 549.512 341.852 C 548.283 352.665, 554.503 355.518, 561.873 347.522 C 566.450 342.557, 567.236 338.291, 564.537 333.072 C 562.297 328.740, 558.679 327.898, 553.763 330.565 M 263 360.853 C 263 373.905, 262.012 382.781, 260.496 383.363 C 259.819 383.623, 252.614 380.200, 244.486 375.757 C 233.594 369.803, 228.470 367.559, 225.004 367.226 C 221.426 366.883, 220.161 367.137, 219.719 368.290 C 218.833 370.600, 220.412 371.999, 235 381.824 C 242.425 386.825, 249.751 391.948, 251.280 393.209 L 254.061 395.500 242.469 403.827 C 230.742 412.253, 228.857 414.257, 230.819 416.219 C 232.215 417.615, 241.025 414.476, 254.189 407.890 C 259.518 405.224, 265.722 402.748, 267.976 402.388 C 272.782 401.619, 275.269 398.837, 274.039 395.602 C 273.588 394.417, 273.196 387.349, 273.168 379.895 C 273.125 368.663, 272.741 365.244, 270.925 359.922 C 268.357 352.392, 267.413 351, 264.878 351 C 263.168 351, 263 351.881, 263 360.853 M 623.561 353.266 C 619.733 359.109, 618.655 364.398, 618.417 378.500 C 618.288 386.200, 617.874 393.889, 617.498 395.586 C 616.615 399.577, 618.501 401.505, 624.174 402.412 C 626.543 402.791, 632.086 405.053, 636.491 407.438 C 645.633 412.390, 658.705 417.327, 660.673 416.572 C 663.775 415.382, 661.311 412.580, 649.941 404.376 C 635.620 394.041, 634.909 396.450, 656.663 381.603 C 667.409 374.269, 671.500 370.929, 671.500 369.488 C 671.500 367.922, 670.724 367.435, 667.840 367.195 C 664.143 366.887, 659.186 369.093, 639.064 379.998 C 633.815 382.842, 631.315 383.715, 630.564 382.966 C 629.936 382.339, 629.361 375.574, 629.160 366.452 C 628.845 352.095, 628.687 351, 626.933 351 C 625.895 351, 624.378 352.020, 623.561 353.266 M 340.455 357.455 C 337.819 360.090, 337.317 363.797, 339.118 367.316 C 340.963 370.920, 347.280 377, 349.180 377 C 352.077 377, 354.075 372.730, 354.257 366.148 C 354.400 360.996, 354.065 359.698, 352.038 357.541 C 348.844 354.141, 343.806 354.103, 340.455 357.455 M 540.025 356.975 C 537.427 359.573, 536.610 363.138, 537.360 368.611 C 538.605 377.692, 542.240 379.501, 547.684 373.750 C 551.758 369.446, 553 366.849, 553 362.638 C 553 356.211, 544.499 352.501, 540.025 356.975 M 297.400 382.400 C 294.781 385.019, 294 386.635, 294 389.432 C 294 400.310, 303.654 409.820, 320.500 415.538 C 324.900 417.031, 331.589 420.045, 335.363 422.237 C 343.577 427.004, 349.141 428.087, 352.022 425.480 C 355.989 421.890, 354.708 419.139, 342.439 404.909 C 336.081 397.534, 328.994 389.980, 326.689 388.121 C 320.158 382.854, 311.272 379.002, 305.650 379.001 C 301.467 379, 300.332 379.468, 297.400 382.400 M 574.472 382.362 C 570.637 384.211, 565.588 387.474, 563.250 389.612 C 556.418 395.862, 538.021 417.294, 537.373 419.757 C 537.025 421.081, 537.455 423.046, 538.413 424.507 C 541.008 428.468, 545.666 427.849, 556.376 422.120 C 561.394 419.435, 568.545 416.246, 572.266 415.033 C 589.256 409.492, 599.822 397.183, 596.844 386.399 C 594.682 378.569, 585.699 376.948, 574.472 382.362 M 404.440 383.022 C 402.177 385.284, 399.854 386.334, 395.196 387.201 C 389.393 388.280, 388.777 388.211, 386.028 386.179 C 384.407 384.980, 382.838 384, 382.540 384 C 382.243 384, 382 386.597, 382 389.770 C 382 401.596, 388.428 418.204, 398.055 431.250 C 404.591 440.108, 405.649 440.076, 414.692 430.750 C 422.747 422.442, 429.031 413.205, 431.967 405.358 C 435.057 397.100, 434.841 396.378, 429.068 395.695 C 421.873 394.842, 416.891 391.862, 412.138 385.567 C 409.826 382.505, 407.829 380, 407.698 380 C 407.568 380, 406.102 381.360, 404.440 383.022 M 478.998 385.770 C 473.928 392.223, 468.983 395.103, 461.781 395.795 C 456.903 396.264, 456.900 396.267, 457.579 399.382 C 459.511 408.249, 467.200 420.865, 477.160 431.512 C 481.863 436.540, 483.867 438, 486.061 438 C 488.998 438, 491.060 435.546, 499.764 421.695 C 505.502 412.563, 511.534 390.440, 509.636 385.493 C 509.074 384.029, 508.707 384.086, 506.260 386.010 C 503.891 387.874, 502.760 388.075, 498.008 387.482 C 491.712 386.695, 487.524 384.812, 485.748 381.969 C 485.072 380.886, 484.290 380.009, 484.009 380.020 C 483.729 380.031, 481.474 382.618, 478.998 385.770 M 119.716 394.172 C 120.295 399.306, 119.266 400.542, 112.833 402.441 C 107.476 404.023, 106.964 405.535, 111.181 407.320 C 117.611 410.040, 119.229 413.949, 116.534 420.250 C 115.570 422.506, 117.936 422.539, 129.073 420.427 C 146.834 417.057, 152.504 409.992, 144.530 401.165 C 140.695 396.920, 129.231 391.109, 123.059 390.281 L 119.219 389.766 119.716 394.172 M 761.063 392.494 C 752.781 395.569, 746.998 399.653, 744.569 404.143 C 742.929 407.175, 742.820 408.148, 743.846 410.606 C 746.102 416.010, 755.264 419.957, 769.407 421.618 C 775.306 422.311, 775.314 422.309, 774.577 419.906 C 772.739 413.917, 772.795 413.114, 775.208 410.810 C 776.538 409.539, 779.089 407.717, 780.878 406.759 C 784.700 404.713, 784.323 403.471, 779.612 402.587 C 777.737 402.235, 774.986 400.990, 773.498 399.820 C 771.133 397.960, 770.871 397.209, 771.409 393.846 C 771.971 390.328, 771.831 390.004, 769.762 390.052 C 768.518 390.081, 764.604 391.180, 761.063 392.494 M 173.790 395.540 C 173.399 395.933, 173.737 397.524, 174.540 399.077 C 177.714 405.215, 175.693 409.602, 167.864 413.569 C 165.116 414.962, 163.040 416.619, 163.251 417.252 C 163.462 417.886, 165.629 418.913, 168.067 419.536 C 176.975 421.810, 180.088 425.547, 178.201 431.698 C 177.576 433.733, 177.290 435.623, 177.565 435.898 C 179.087 437.420, 196.515 430.871, 203.446 426.173 C 210.573 421.342, 213.235 417.802, 213.362 412.988 C 213.484 408.333, 210.674 404.896, 204 401.537 C 198.130 398.582, 175.278 394.046, 173.790 395.540 M 701.258 397.466 C 689.354 399.938, 682.468 403.111, 679.642 407.424 C 676.038 412.924, 678.635 419.531, 686.713 425.412 C 691.707 429.048, 705.059 434.811, 710.557 435.703 L 713.746 436.221 713.623 430.494 C 713.513 425.388, 713.789 424.548, 716.167 422.750 C 717.635 421.640, 720.987 420.186, 723.617 419.519 C 726.247 418.851, 728.571 417.786, 728.783 417.152 C 728.994 416.519, 727.188 415.152, 724.769 414.115 C 720.055 412.095, 714.978 406.909, 715.035 404.173 C 715.055 403.253, 715.714 401.375, 716.500 400 C 719.819 394.193, 718.261 393.934, 701.258 397.466 M 275.415 415.359 C 270.484 417.606, 268 421.539, 268 427.102 C 268 431.266, 268.471 432.404, 271.411 435.344 C 276.278 440.211, 285.735 444.616, 294.216 445.966 C 298.222 446.603, 307.302 448.244, 314.393 449.611 C 329.108 452.448, 332.345 452.168, 334.569 447.867 C 337.351 442.488, 334.733 438.413, 325.500 433.752 C 322.200 432.086, 315.450 428.154, 310.500 425.014 C 295.899 415.752, 282.591 412.090, 275.415 415.359 M 601.500 415.405 C 594.894 417.037, 588.154 420.107, 582.283 424.159 C 579.653 425.975, 573.003 429.967, 567.507 433.029 C 556.659 439.074, 554.732 441.493, 556.580 446.748 C 558.438 452.029, 561.541 452.488, 576.325 449.667 C 583.571 448.284, 592.649 446.682, 596.498 446.106 C 604.573 444.898, 616.074 439.625, 620.330 435.179 C 625.961 429.298, 624.292 419.771, 616.938 415.827 C 613.058 413.746, 608.699 413.627, 601.500 415.405 M 367.331 440.937 C 362.249 443.244, 360.608 446.039, 361.301 451.205 C 362.400 459.403, 368.323 464.738, 379.269 467.391 C 385.271 468.846, 386.359 468.866, 388.878 467.563 C 392.294 465.797, 394.662 460.773, 393.386 457.999 C 391.746 454.431, 380.643 441.867, 377.858 440.427 C 374.249 438.560, 372.365 438.651, 367.331 440.937 M 515 439.664 C 512.669 440.592, 510.200 442.944, 503.859 450.276 C 497.574 457.544, 496.666 460.650, 499.601 464.841 C 502.210 468.566, 505.026 469.051, 512.650 467.090 C 521.277 464.871, 523.309 463.781, 526.361 459.737 C 529.821 455.152, 531.266 449.310, 529.719 446.161 C 527.348 441.334, 519.502 437.871, 515 439.664 M 251.500 454.084 C 241.375 455.804, 220.582 462.105, 214.630 465.256 C 208.671 468.410, 197.993 478.028, 194.453 483.431 C 191.213 488.376, 192.063 488.500, 229.300 488.500 C 262.869 488.500, 263.592 488.458, 268.488 486.201 C 277.455 482.068, 281 477.250, 281 469.198 C 281 462.918, 278.012 458.272, 272.030 455.250 C 267.259 452.840, 260.934 452.480, 251.500 454.084 M 620.500 454.417 C 614.609 457.047, 609.973 463.859, 610.022 469.815 C 610.060 474.497, 613.596 480.704, 617.815 483.496 C 625.232 488.405, 629.884 488.975, 662.601 488.988 C 690.815 488.999, 699 488.347, 699 486.090 C 699 484.407, 684.627 469.969, 679.988 466.993 C 670.916 461.171, 640.790 452.952, 628.843 453.039 C 625.904 453.061, 622.150 453.681, 620.500 454.417 M 405.514 463.168 C 396.324 470.397, 400.955 482.709, 414.254 486.404 C 424.254 489.183, 425.438 489.230, 428.316 486.966 C 429.792 485.805, 431 483.973, 431 482.894 C 431 480.517, 426.689 471.716, 423.336 467.249 C 418.592 460.927, 410.669 459.113, 405.514 463.168 M 470.633 464.984 C 465.070 470.112, 459.349 481.916, 460.964 484.934 C 463.032 488.796, 465.578 489.315, 473.343 487.458 C 482.005 485.385, 486.230 482.983, 488.950 478.582 C 493.963 470.470, 488.610 461, 479.013 461 C 475.672 461, 474.192 461.703, 470.633 464.984 M 297.500 466.719 C 291.981 468.064, 290.448 473.637, 293.851 479.983 C 298.043 487.799, 305.167 488.987, 311.267 482.886 C 313.740 480.414, 314.128 479.391, 313.599 476.746 C 312.768 472.588, 308.506 468.235, 304.057 466.999 C 302.101 466.456, 300.275 466.061, 300 466.122 C 299.725 466.182, 298.600 466.451, 297.500 466.719 M 586.245 467.493 C 578.558 470.834, 575.563 478.431, 580.250 482.701 C 583.237 485.422, 586.413 487, 588.899 487 C 592.136 487, 597.845 481.290, 599.038 476.859 C 600.454 471.599, 599.505 469.109, 595.436 467.409 C 591.317 465.688, 590.379 465.696, 586.245 467.493 M 196.250 514.081 C 194.463 514.618, 193 515.687, 193 516.456 C 193 518.783, 209.150 534.335, 214.500 537.160 C 219.950 540.037, 236.612 545.050, 249.211 547.603 C 259.575 549.703, 269.928 549.185, 273.718 546.377 C 278.542 542.803, 281 538.216, 281 532.786 C 281 524.649, 276.954 519.332, 268.066 515.785 C 262.780 513.676, 260.918 513.552, 231 513.335 C 212.676 513.201, 198.141 513.514, 196.250 514.081 M 417.284 515.060 C 409.138 517.129, 405.862 518.981, 402.838 523.228 C 399.537 527.864, 399.990 533.362, 404.015 537.515 C 411.691 545.435, 420.396 541.823, 427.893 527.609 C 431.425 520.913, 431.764 517.966, 429.250 515.807 C 426.297 513.271, 424.717 513.172, 417.284 515.060 M 629.801 514.027 C 623.437 515.100, 616.001 519.318, 613.163 523.463 C 607.729 531.403, 610.169 541.670, 618.675 546.655 C 622.921 549.144, 623.668 549.252, 632.829 548.708 C 644.524 548.013, 665.176 542.608, 675.588 537.517 C 681.015 534.863, 684.587 532.060, 690.838 525.549 C 695.327 520.873, 699 516.640, 699 516.142 C 699 513.830, 688.992 513.005, 662.307 513.118 C 647.013 513.182, 632.385 513.592, 629.801 514.027 M 463.239 514.607 C 459.032 516.499, 460.123 522.395, 466.572 532.612 C 468.883 536.273, 471.112 538.360, 474.425 539.964 C 479.882 542.605, 482.628 542.198, 487.258 538.061 C 490.120 535.504, 490.500 534.560, 490.500 530.010 C 490.500 525.260, 490.177 524.555, 486.377 521.010 C 484.109 518.895, 480.509 516.657, 478.377 516.037 C 473.625 514.656, 464.951 513.836, 463.239 514.607 M 299.110 516.396 C 294.206 519.114, 290.345 528.975, 292.765 532.600 C 293.944 534.365, 297.655 536, 300.484 536 C 304.065 536, 308.250 533.680, 311.381 529.959 C 315.638 524.900, 314.658 521.200, 307.982 517.130 C 303.970 514.684, 302.428 514.557, 299.110 516.396 M 585.001 516.123 C 577.214 519.228, 575.657 526.054, 581.483 531.549 C 587.188 536.929, 595.433 537.322, 598.679 532.368 C 600.058 530.263, 600.110 529.312, 599.045 525.755 C 597.633 521.043, 592.125 514.968, 589.350 515.063 C 588.332 515.098, 586.375 515.575, 585.001 516.123 M 376.564 535.533 C 370.741 537.131, 367.325 539.471, 364.274 543.954 C 357.912 553.301, 361.561 561.520, 372.629 562.767 L 377.229 563.286 384.198 555.893 C 394.658 544.795, 395.689 541.689, 390.711 536.250 C 388.322 533.640, 384.219 533.433, 376.564 535.533 M 500.455 536.455 C 496.385 540.524, 497.150 543.891, 504.035 552.209 C 513.113 563.177, 517.094 564.947, 524.633 561.370 C 530.632 558.523, 531.878 552.601, 528.054 545.106 C 525.462 540.026, 521.879 537.542, 514.316 535.582 C 505.957 533.416, 503.328 533.582, 500.455 536.455 M 315 552.606 C 311.425 553.402, 304 554.725, 298.500 555.546 C 286.732 557.303, 275.939 562.028, 271.098 567.541 C 268.620 570.363, 268 571.966, 268 575.549 C 268 579.258, 268.590 580.672, 271.428 583.765 C 274.849 587.492, 274.874 587.500, 282.678 587.398 C 291.873 587.277, 298.616 585, 308.146 578.800 C 311.641 576.526, 318.509 572.378, 323.409 569.582 C 333.417 563.873, 336.596 560.511, 335.629 556.657 C 334.554 552.376, 332.335 550.993, 326.679 551.079 C 323.830 551.123, 318.575 551.810, 315 552.606 M 557.557 553.223 C 555.283 556.469, 555.623 560.714, 558.379 563.470 C 559.688 564.779, 563.625 567.295, 567.129 569.061 C 570.633 570.828, 575.975 573.950, 579 575.998 C 598.936 589.499, 615.914 591.749, 622.040 581.701 C 626.068 575.096, 623.669 568.563, 615.226 563.145 C 609.286 559.333, 600.299 556, 595.961 556 C 594.263 556, 587.443 554.875, 580.806 553.500 C 565.295 550.286, 559.660 550.219, 557.557 553.223 M 401.863 565.750 C 394.340 574.849, 386.898 588.783, 384.025 599.151 C 382.097 606.109, 381.243 618, 382.671 618 C 383.040 618, 384.188 617.235, 385.221 616.300 C 388.815 613.047, 399.367 614.627, 404.573 619.198 L 408.103 622.298 409.782 619.899 C 416.334 610.536, 421.767 607, 429.600 607 L 434.263 607 433.726 602.996 C 433.104 598.360, 427.337 586.542, 422.796 580.597 C 421.074 578.343, 416.942 573.688, 413.612 570.250 C 407.281 563.714, 404.444 562.628, 401.863 565.750 M 477.204 570.700 C 473.730 574.385, 468.887 580.410, 466.441 584.089 C 461.668 591.268, 456.573 603.446, 457.420 605.652 C 457.740 606.487, 459.567 607.008, 462.219 607.022 C 468.026 607.052, 474.152 610.023, 477.623 614.494 C 479.205 616.532, 481.271 619.167, 482.213 620.350 L 483.925 622.500 486.213 619.782 C 489.001 616.468, 492.602 615.061, 499.007 614.782 C 502.518 614.630, 504.425 615.074, 505.871 616.383 C 506.973 617.380, 508.352 617.900, 508.937 617.539 C 511.561 615.917, 508.846 600.681, 503.769 588.545 C 502.608 585.770, 498.780 579.112, 495.261 573.750 C 487.119 561.341, 486.176 561.182, 477.204 570.700 M 177.748 566.585 C 177.427 566.907, 177.623 568.490, 178.186 570.103 C 180.338 576.276, 177.120 580.264, 168.151 582.539 C 162.302 584.022, 161.550 586.366, 166.410 587.970 C 171.884 589.777, 176.006 594.167, 175.968 598.151 C 175.951 599.993, 175.276 602.374, 174.468 603.441 C 172.331 606.266, 172.640 607, 175.965 607 C 181.012 607, 198.711 603.224, 203.218 601.185 C 214.802 595.945, 216.703 587.854, 208.234 579.843 C 203.173 575.056, 198.953 572.670, 189.158 569.058 C 180.744 565.956, 178.799 565.534, 177.748 566.585 M 704 568.425 C 686.928 574.405, 678 581.750, 678 589.815 C 678 596.636, 686.404 601.860, 702.301 604.920 C 708.241 606.064, 714.256 607, 715.667 607 C 718.427 607, 718.438 606.653, 715.875 600.271 C 714.718 597.392, 714.798 596.743, 716.617 594.271 C 717.739 592.747, 720.984 590.234, 723.828 588.687 C 729.671 585.508, 730.223 584.309, 726.250 583.429 C 719.980 582.041, 717.173 580.813, 715.013 578.513 C 713.023 576.396, 712.817 575.440, 713.400 571.042 C 714.196 565.043, 713.895 564.960, 704 568.425 M 335.500 579.987 C 330.550 582.705, 323.480 585.853, 319.790 586.981 C 316.099 588.110, 310.249 590.970, 306.790 593.337 C 298.828 598.783, 294.873 604.270, 294.252 610.725 C 293.851 614.907, 294.156 616.032, 296.425 618.729 C 299.519 622.406, 304.628 624.365, 308.649 623.416 C 314.355 622.070, 325.619 615.425, 330.506 610.522 C 333.260 607.760, 339.672 600.655, 344.756 594.734 C 354.566 583.308, 355.908 580.037, 352.171 576.655 C 349.169 573.938, 344.998 574.772, 335.500 579.987 M 539.116 576.884 C 535.005 580.995, 535.822 582.467, 552.692 601.306 C 563.993 613.927, 571.344 619.625, 580.061 622.520 C 591.729 626.396, 599.878 618.686, 596.420 607.043 C 593.891 598.528, 584.236 591.133, 568.903 585.967 C 565.420 584.794, 559.535 582.031, 555.826 579.827 C 547.416 574.831, 542.105 573.895, 539.116 576.884 M 116 581.441 C 116 582.234, 116.450 583.160, 117 583.500 C 118.262 584.280, 118.297 588.576, 117.061 590.886 C 116.544 591.852, 114.294 593.465, 112.061 594.473 C 107.109 596.706, 106.860 598.564, 111.399 599.415 C 113.268 599.766, 116.001 600.999, 117.472 602.156 C 119.731 603.934, 120.096 604.900, 119.823 608.380 C 119.517 612.281, 119.640 612.491, 122.133 612.328 C 123.581 612.233, 128.174 610.737, 132.340 609.002 C 141.674 605.116, 148 599.434, 148 594.935 C 148 588.137, 143.189 584.708, 129.759 581.937 C 118.573 579.629, 116 579.536, 116 581.441 M 761.938 581.947 C 752.026 584.039, 748.033 585.871, 745.010 589.714 C 739.549 596.658, 747.397 605.116, 764.884 611.132 C 767.870 612.159, 770.732 613, 771.244 613 C 771.779 613, 771.884 611.271, 771.489 608.938 C 770.628 603.837, 772.569 601.389, 778.701 599.845 C 781.084 599.245, 783.267 598.377, 783.552 597.915 C 783.837 597.454, 782.261 596.154, 780.050 595.025 C 774.327 592.106, 772.326 588.751, 773.830 584.595 C 774.473 582.814, 775 581.052, 775 580.679 C 775 579.620, 771.235 579.986, 761.938 581.947 M 230.667 585.667 C 228.709 587.624, 231.145 590.307, 242.028 598.182 L 254.026 606.863 248.263 611.294 C 245.093 613.731, 237.891 618.743, 232.258 622.432 C 220.779 629.949, 218.017 632.808, 220.487 634.614 C 223.225 636.616, 229.520 634.488, 244.056 626.644 C 251.849 622.440, 259.010 619, 259.970 619 C 262.069 619, 263 625.807, 263 641.147 C 263 650.119, 263.168 651, 264.878 651 C 267.453 651, 268.477 649.514, 270.931 642.216 C 272.609 637.228, 273.101 633.002, 273.322 621.716 C 273.476 613.897, 273.950 606.747, 274.378 605.827 C 275.480 603.454, 271.729 600, 268.049 600 C 266.425 600, 260.913 597.805, 255.799 595.122 C 250.684 592.440, 243.211 589.065, 239.190 587.622 C 230.875 584.639, 231.541 584.792, 230.667 585.667 M 651.500 587.897 C 647.650 589.426, 640.346 592.774, 635.270 595.338 C 630.193 597.902, 624.751 600, 623.175 600 C 618.997 600, 616.624 603.039, 617.566 607.183 C 617.980 609.007, 618.387 616.575, 618.468 624 C 618.626 638.340, 620.162 645.171, 624.241 649.678 C 628.131 653.974, 629 651.845, 629 638.018 C 629 623.253, 629.619 619, 631.768 619 C 632.603 619, 639.860 622.545, 647.893 626.879 C 663.003 635.029, 668.950 636.971, 671.050 634.440 C 673.047 632.033, 671.409 630.233, 661.233 623.651 C 648.960 615.712, 638.500 608.047, 638.500 606.992 C 638.500 606.550, 643.538 602.544, 649.695 598.088 C 655.852 593.632, 661.141 589.580, 661.448 589.084 C 662.249 587.788, 660.994 584.989, 659.643 585.058 C 659.014 585.091, 655.350 586.368, 651.500 587.897 M 149.398 618.406 C 149.043 619.330, 148.921 620.239, 149.126 620.427 C 149.332 620.614, 156.700 626.019, 165.500 632.438 C 174.300 638.857, 181.600 644.422, 181.722 644.805 C 181.974 645.595, 166.379 656.814, 148.250 668.884 C 138.221 675.561, 136 677.477, 136 679.452 C 136 685.760, 144.261 683.479, 168.349 670.518 C 179.101 664.733, 188.569 660, 189.390 660 C 190.210 660, 191.246 660.563, 191.691 661.250 C 192.136 661.938, 192.725 671.720, 193 682.988 C 193.444 701.181, 193.689 703.512, 195.189 703.799 C 198.141 704.365, 200.777 700.406, 203.829 690.819 C 206.651 681.955, 206.813 680.488, 207.148 660.787 C 207.546 637.340, 207.615 637.574, 199.889 635.897 C 197.475 635.374, 187.585 631.120, 177.910 626.444 C 159.100 617.354, 150.709 614.989, 149.398 618.406 M 727.500 619.853 C 723.650 621.411, 715.209 625.430, 708.743 628.783 C 702.276 632.136, 694.949 635.185, 692.457 635.559 C 686.937 636.386, 683.961 638.669, 684.057 642 C 684.096 643.375, 684.238 652.825, 684.372 663 C 684.599 680.181, 684.817 682.125, 687.433 690.275 C 690.520 699.886, 693.109 704, 696.073 704 C 697.901 704, 698.003 703.091, 698.058 686.250 C 698.124 665.710, 698.752 660.671, 701.305 660.180 C 702.280 659.992, 712.399 664.789, 723.789 670.840 C 745.449 682.345, 752.320 684.730, 754.890 681.633 C 757.160 678.897, 755.174 676.627, 744.276 669.500 C 729.084 659.565, 710 645.883, 710 644.926 C 710 644.480, 717.222 638.859, 726.049 632.433 C 736.976 624.479, 742 620.232, 741.791 619.125 C 741.280 616.428, 735.199 616.737, 727.500 619.853 M 344.484 628.148 C 337.731 634.078, 336.203 640.294, 340.455 644.545 C 343.069 647.160, 347.661 647.787, 351.022 645.988 C 356.538 643.036, 354.666 625, 348.844 625 C 348.418 625, 346.456 626.417, 344.484 628.148 M 540.770 625.686 C 538.510 626.278, 536.654 633.238, 537.279 638.780 C 537.917 644.441, 540.310 647, 544.966 647 C 553.080 647, 555.656 638.966, 550.031 631.202 C 547.507 627.717, 543.935 624.705, 542.816 625.116 C 542.642 625.180, 541.721 625.436, 540.770 625.686 M 392.500 637.392 C 390.300 638.085, 387.473 639.203, 386.219 639.877 C 379.838 643.308, 373.275 658.982, 374.579 667.676 C 375.494 673.781, 378.139 676.401, 382.646 675.670 C 386.851 674.988, 391.085 671.674, 401.750 660.719 C 410.866 651.355, 411.512 649.539, 407.726 643.922 C 405.397 640.465, 399.574 635.947, 397.602 636.067 C 396.996 636.104, 394.700 636.700, 392.500 637.392 M 490.177 637.683 C 485.805 639.838, 482 645.537, 482 649.932 C 482 653.005, 483.111 654.479, 491.744 662.863 C 502.528 673.337, 506.237 675.991, 510.095 675.996 C 519.677 676.010, 518.770 654.215, 508.735 643.328 C 505.907 640.261, 503.277 638.566, 499.692 637.501 C 493.594 635.690, 494.246 635.678, 490.177 637.683 M 330.839 653.250 C 326.793 657.564, 324.886 662.179, 325.624 665.869 C 327.002 672.760, 333.438 675.107, 338.655 670.621 C 341.099 668.518, 341.468 667.408, 341.826 661.077 C 342.156 655.241, 341.902 653.550, 340.460 651.956 C 337.834 649.054, 334.332 649.525, 330.839 653.250 M 550.887 652.113 C 549.213 653.787, 548.900 654.979, 549.376 657.863 C 549.707 659.863, 549.983 662.983, 549.989 664.795 C 550.003 669.119, 553.793 673, 558 673 C 562.364 673, 566 669.128, 566 664.480 C 566 660.152, 564.783 657.581, 560.684 653.250 C 557.113 649.477, 553.896 649.104, 550.887 652.113 M 243.500 655.109 C 239.436 656.057, 222.952 666.644, 222.247 668.758 C 222.035 669.395, 223.407 670.561, 225.295 671.350 C 229.565 673.134, 230.542 676.397, 228.545 682.195 C 226.699 687.551, 227.774 688.717, 232.116 686.070 C 233.977 684.936, 237.176 684.006, 239.224 684.004 C 242.362 684.001, 243.196 684.478, 244.517 687.033 C 245.379 688.701, 246.559 689.773, 247.138 689.415 C 247.717 689.057, 249.704 685.608, 251.552 681.752 C 260.566 662.943, 257.230 651.905, 243.500 655.109 M 640.308 655.010 C 633.469 657.765, 633.339 667.537, 639.954 681.626 L 644.121 690.500 646.810 687.241 C 650.068 683.293, 654.494 682.906, 659.685 686.114 C 661.566 687.277, 663.369 687.965, 663.691 687.643 C 664.013 687.321, 663.724 685.086, 663.049 682.676 C 661.225 676.160, 661.904 673.791, 666.197 671.693 C 668.230 670.699, 669.679 669.349, 669.417 668.693 C 668.540 666.496, 653.482 656.949, 648.554 655.466 C 643.039 653.806, 643.264 653.819, 640.308 655.010 M 93.698 668.636 C 91.865 670.468, 93.806 672.493, 103.750 679.123 C 109.662 683.065, 114.677 686.439, 114.893 686.621 C 115.741 687.335, 112.187 690.459, 100.097 699.624 C 86.927 709.608, 85.450 711.125, 86.427 713.670 C 87.458 716.357, 93.768 714.294, 104.500 707.762 C 120.513 698.014, 121.782 697.382, 122.965 698.565 C 123.549 699.149, 124.557 705.805, 125.205 713.358 C 126.318 726.331, 126.497 727.073, 128.442 726.794 C 132.877 726.160, 135.879 708.344, 133.838 694.771 C 133.447 692.171, 133.506 688.722, 133.969 687.109 C 135.155 682.971, 132.904 680, 128.583 680 C 126.766 680, 121.443 678.228, 116.754 676.061 C 112.065 673.895, 105.589 671.359, 102.364 670.425 C 99.139 669.492, 96.026 668.551, 95.448 668.333 C 94.869 668.116, 94.082 668.252, 93.698 668.636 M 787.996 670.960 C 783.323 672.499, 776.472 675.162, 772.772 676.879 C 769.072 678.595, 764.797 680.007, 763.272 680.015 C 757.819 680.045, 757.633 680.589, 757.268 697.493 C 756.919 713.687, 758.399 723.427, 761.614 726.095 C 764.721 728.673, 765.670 726.425, 766.361 714.842 C 767.184 701.067, 767.792 698, 769.702 698 C 770.510 698, 776.623 701.382, 783.286 705.516 C 796.283 713.578, 802.186 715.920, 804.555 713.954 C 806.870 712.033, 804.755 709.643, 792.724 700.577 C 786.551 695.925, 780.174 691.029, 778.552 689.696 L 775.605 687.273 787.302 679.482 C 793.736 675.197, 799 671.366, 799 670.968 C 799 670.570, 798.436 669.777, 797.746 669.204 C 796.853 668.463, 794.047 668.968, 787.996 670.960 M 60.799 678.518 C 55.122 680.346, 54.098 681.680, 56.875 683.625 C 59.412 685.402, 60.988 690.686, 59.884 693.715 C 58.941 696.301, 59.268 696.584, 64.278 697.524 C 66.950 698.026, 69.052 699.411, 71.528 702.304 L 75.015 706.378 78.586 702.939 C 82.352 699.313, 90 684.802, 90 681.284 C 90 678.405, 88.023 677.856, 76 677.402 C 68.431 677.115, 64.188 677.427, 60.799 678.518 M 806 677.821 C 801.085 678.774, 800.900 682.151, 805.259 691.329 C 808.443 698.034, 814.620 706.008, 816.618 705.994 C 817.103 705.990, 818.277 704.621, 819.227 702.952 C 820.974 699.884, 826.199 697, 830.013 697 C 831.848 697, 832.013 696.589, 831.431 693.483 C 830.703 689.604, 832.347 684.465, 834.592 683.603 C 836.889 682.722, 836.213 681.162, 832.750 679.359 C 829.229 677.526, 812.486 676.564, 806 677.821 M 308.757 680.822 C 307.249 681.816, 302.176 686.512, 297.484 691.257 C 285.816 703.058, 282.471 710.908, 287.028 715.799 C 291.369 720.460, 297.528 719.841, 302.838 714.210 C 305.963 710.897, 316.248 690.846, 317.613 685.405 C 317.985 683.922, 317.473 682.473, 316.087 681.087 C 313.537 678.537, 312.291 678.492, 308.757 680.822 M 575.655 680.829 C 573.076 683.679, 573.585 685.908, 579.839 699.143 C 586.572 713.392, 591.522 719, 597.368 719 C 602.260 719, 606 715.706, 606 711.395 C 606 707.527, 603.961 702.025, 601.277 698.649 C 597.092 693.386, 580.928 679, 579.199 679 C 578.160 679, 576.565 679.823, 575.655 680.829 M 329.217 685.673 C 328.511 685.957, 326.571 688.889, 324.905 692.189 C 323.239 695.488, 320.517 700.058, 318.855 702.344 C 314.577 708.230, 313 712.499, 313 718.199 C 313 722.342, 313.479 723.633, 315.923 726.077 C 319.515 729.669, 322.888 729.807, 326.790 726.523 C 331.780 722.324, 334.171 715.094, 335.352 700.634 C 336.343 688.496, 336.295 687.689, 334.510 686.384 C 332.548 684.949, 331.402 684.795, 329.217 685.673 M 556.609 686.880 C 555.081 688.568, 555.016 689.870, 555.972 699.630 C 557.374 713.945, 557.751 715.638, 560.809 721.329 C 565.288 729.664, 573.047 731.251, 577.069 724.655 C 580.534 718.972, 578.918 710.775, 572.632 702.143 C 570.773 699.589, 568.242 695.475, 567.009 693 C 562.942 684.837, 560.016 683.115, 556.609 686.880 M 408 698.732 C 395.557 700.622, 387.270 708.066, 381.590 722.456 C 376.832 734.508, 376.998 754.168, 381.945 764.386 C 383.075 766.721, 384 769.214, 384 769.927 C 384 772.445, 394.263 788.171, 399.844 794.203 C 406.803 801.726, 413.216 804.976, 421.128 804.990 C 430.744 805.007, 431.699 800.524, 424.835 787.585 C 420.649 779.695, 420.548 779.283, 420.672 770.500 C 420.773 763.334, 421.348 760.073, 423.493 754.500 C 428.309 741.985, 432.001 727.878, 431.978 722.076 C 431.954 716.042, 429.379 709.112, 425.688 705.153 C 421.553 700.716, 413.700 697.866, 408 698.732 M 478.500 698.507 C 477.950 698.682, 476.251 699.101, 474.725 699.438 C 470.990 700.263, 464.330 706.432, 461.781 711.429 C 457.746 719.339, 459.571 732.851, 467.254 751.934 C 469.681 757.962, 470.391 761.431, 470.748 769 L 471.197 778.500 466.605 787.500 C 459.686 801.060, 460.706 805, 471.132 805 C 482.120 805, 491.813 797.280, 502.067 780.361 C 504.780 775.885, 507 771.777, 507 771.232 C 507 770.687, 508.095 767.825, 509.433 764.871 C 517.854 746.286, 513.177 718.886, 499.350 705.804 C 494.763 701.464, 482.595 697.206, 478.500 698.507 M 212.583 704.013 C 205.894 706.625, 205.185 707.519, 207.995 709.795 C 210.239 711.612, 210.260 711.772, 208.672 714.957 C 206.581 719.147, 207.247 720.159, 211.191 718.783 C 214.062 717.783, 214.531 717.929, 216.539 720.447 L 218.740 723.207 221.303 719.847 C 226.784 712.661, 228.587 705.987, 225.800 703.200 C 224.052 701.452, 218.223 701.811, 212.583 704.013 M 665.655 703.829 C 663.207 706.534, 663.600 708.869, 667.656 715.726 C 671.913 722.921, 673.660 724.026, 675.040 720.394 C 675.932 718.048, 676.360 717.885, 680.008 718.501 C 683.217 719.044, 684 718.876, 684 717.647 C 684 716.806, 683.550 715.840, 683 715.500 C 681.455 714.545, 681.819 710.284, 683.500 709.638 C 686.249 708.584, 685.052 706.932, 679.750 704.464 C 673.428 701.521, 667.967 701.274, 665.655 703.829 M 43.581 708.650 C 43.235 709.550, 43.076 710.383, 43.226 710.501 C 43.377 710.619, 47.251 713.208, 51.837 716.254 L 60.173 721.793 52.837 727.185 C 48.801 730.151, 43.594 733.910, 41.264 735.539 C 38.935 737.167, 36.787 739.224, 36.492 740.109 C 34.885 744.925, 40.420 747.544, 45.018 744.145 C 53.070 738.192, 64.236 731, 65.427 731 C 66.953 731, 67.636 734.068, 68.609 745.296 C 69.163 751.690, 69.572 753.036, 70.884 752.784 C 74.319 752.122, 75.494 747.080, 75.658 732.296 C 75.766 722.563, 75.451 717.800, 74.658 717.165 C 74.021 716.654, 71.925 716.005, 70 715.722 C 68.075 715.439, 62.675 713.636, 58 711.715 C 46.725 707.082, 44.374 706.583, 43.581 708.650 M 841.433 708.488 C 839.196 709.191, 834.171 711.170, 830.265 712.884 C 826.360 714.598, 822.058 716, 820.705 716 C 816.325 716, 815.677 718.060, 815.733 731.795 C 815.791 746.214, 817.268 752.289, 820.845 752.820 C 822.868 753.119, 823.004 752.720, 823.058 746.320 C 823.137 736.975, 824.206 731.584, 826.051 731.229 C 826.888 731.068, 832.056 734.314, 837.536 738.442 C 848.061 746.371, 852.007 747.724, 853.961 744.072 C 854.529 743.012, 854.727 741.453, 854.403 740.607 C 854.078 739.761, 848.905 735.407, 842.906 730.930 C 836.908 726.454, 832 722.445, 832 722.022 C 832 721.598, 835.620 718.876, 840.044 715.971 C 845.082 712.663, 847.977 710.126, 847.794 709.178 C 847.394 707.119, 846.197 706.989, 841.433 708.488 M 100.176 727.048 C 95.471 727.998, 85 732.484, 85 733.550 C 85 733.914, 86.125 735.548, 87.500 737.182 C 88.875 738.816, 90.039 741.131, 90.086 742.327 C 90.449 751.484, 90.392 751.312, 93.083 751.434 C 96.404 751.585, 101.098 754.660, 101.737 757.102 C 103.909 765.408, 114.131 746.310, 114.370 733.500 L 114.500 726.500 109.500 726.338 C 106.750 726.248, 102.554 726.568, 100.176 727.048 M 776.653 727.461 C 775.747 729.822, 777.623 740.918, 780.003 747.274 C 782.148 753.005, 787.625 760.350, 789.080 759.450 C 789.586 759.138, 790 758.060, 790 757.056 C 790 754.692, 794.457 751.794, 798.405 751.592 C 801.475 751.434, 801.497 751.393, 801.176 746.464 C 800.912 742.398, 801.340 740.779, 803.534 737.545 L 806.216 733.593 804.009 731.806 C 800.882 729.274, 792.692 726.977, 784.408 726.308 C 778.290 725.814, 777.225 725.972, 776.653 727.461 M 363.402 792.908 C 357.575 795.006, 347 801.489, 347 802.962 C 347 803.505, 348.350 804.647, 350 805.500 C 352.472 806.778, 353 807.671, 353 810.575 C 353 812.514, 352.292 815.469, 351.426 817.143 C 350.561 818.816, 350.121 820.454, 350.449 820.782 C 350.777 821.110, 353.318 820.561, 356.096 819.562 C 362.069 817.415, 365.560 818.397, 366.593 822.516 C 366.993 824.107, 367.829 824.985, 368.771 824.800 C 371.011 824.360, 379.736 807.288, 380.534 801.782 C 381.164 797.430, 380.982 796.828, 378.186 794.032 C 374.591 790.437, 371.017 790.166, 363.402 792.908 M 515.315 792.007 C 508.423 794.784, 509.999 805.949, 519.381 820.811 C 522.450 825.673, 523.259 825.922, 524.825 822.485 C 526.697 818.377, 530.146 817.402, 535.531 819.459 C 538.056 820.423, 540.352 820.981, 540.635 820.699 C 540.917 820.416, 540.332 817.889, 539.336 815.082 C 537.321 809.411, 537.883 807.419, 542.098 805.283 C 545.714 803.451, 545.051 801.957, 539 798.305 C 528.622 792.041, 520.555 789.896, 515.315 792.007 M 426.514 862.168 C 421.651 865.993, 420.144 872.759, 423.267 876.750 C 425.708 879.870, 435.471 876.725, 437.998 872.005 C 440.247 867.801, 435.644 860, 430.912 860 C 430.009 860, 428.030 860.976, 426.514 862.168 M 455.589 863.077 C 452.830 866.355, 452.285 870.512, 454.282 873.046 C 458.146 877.950, 465.297 879.539, 468.345 876.171 C 472.774 871.277, 467.210 860, 460.366 860 C 459.150 860, 457.028 861.367, 455.589 863.077 M 420.462 887.054 C 418.792 887.545, 416.092 889.340, 414.462 891.042 C 411.594 894.038, 411.500 894.443, 411.513 903.818 C 411.524 911.818, 412.108 915.498, 414.875 925 C 419.268 940.087, 420.962 943.206, 429.131 951.250 C 436.445 958.451, 438.616 959.377, 439.542 955.689 C 439.861 954.418, 439.982 941.256, 439.811 926.439 C 439.504 899.819, 439.470 899.448, 437 895.089 C 432.949 887.940, 427.104 885.100, 420.462 887.054 M 462.500 887.483 C 457.983 889.108, 454.891 892.470, 452.974 897.841 C 451.398 902.257, 450.375 948.807, 451.738 954.069 C 452.227 955.954, 453.279 957.623, 454.078 957.776 C 456.018 958.150, 467.263 947.114, 470.404 941.754 C 473.935 935.729, 479.842 914.462, 480.543 905.252 C 481.026 898.904, 480.804 896.872, 479.316 894.034 C 476.108 887.913, 469.001 885.144, 462.500 887.483"/>
</svg>