<svg id="a" xmlns="http://www.w3.org/2000/svg" width="99.999" height="121.316" viewBox="0 0 99.999 121.316" xmlns:svgjs="http://svgjs.com/svgjs"><path d="M14.667,59.949c0-3.233-2.633-5.867-5.867-5.867s-5.867,2.783-5.867,5.867,2.388,5.621,5.416,5.853c.15.014.3.014.45.014s.3,0,.45-.014c3.015-.232,5.403-2.77,5.416-5.853ZM8.79,63.225c-1.808,0-3.274-1.466-3.274-3.274s1.466-3.274,3.274-3.274,3.274,1.466,3.274,3.274-1.466,3.274-3.274,3.274Z" fill="none"></path><path d="M8.79,56.676c-1.808,0-3.274,1.466-3.274,3.274s1.466,3.274,3.274,3.274,3.274-1.466,3.274-3.274-1.466-3.274-3.274-3.274Z" data-sg-fill="sg-fill-0"></path><path d="M99.91,22.389h0c-.3-3.493-1.351-6.794-3.124-9.823-2.974-5.075-7.736-9.018-13.425-11.078-5.403-1.965-10.928-1.978-15.69-.068-.205-.109-.464-.164-.737-.191-1.078-.068-6.44,1.296-6.317,3.725.068,1.337,1.351,3.029,1.774,3.329.996.669,2.701-.164,3.656-.669,2.142-1.132,3.779-1.637,3.438-2.974,3.82-1.392,8.241-1.31,12.62.286,4.816,1.746,9.018,5.198,11.515,9.482,2.21,3.779,4.202,10.028,1.16,18.323-2.865,7.804-9.469,15.553-19.633,23.044-.546-.055-1.105.068-1.596.382l-17.845,11.324-17.832-11.297c-.45-.286-.969-.423-1.46-.396-10.164-7.49-16.754-15.24-19.619-23.044-3.042-8.295-1.051-14.544,1.16-18.323,2.497-4.284,6.699-7.736,11.515-9.482,4.366-1.583,8.8-1.678,12.62-.286-.341,1.337,1.282,1.842,3.438,2.974.955.505,2.674,1.351,3.656.669.437-.3,1.719-1.992,1.774-3.329.123-2.442-5.253-3.793-6.317-3.725-.273.014-.518.082-.737.191-4.762-1.91-10.287-1.896-15.69.068-5.689,2.06-10.464,6.003-13.425,11.078-1.774,3.029-2.824,6.331-3.124,9.823-.327,3.779.246,7.681,1.692,11.61,3.097,8.418,10.014,16.645,20.601,24.517.055.791.464,1.542,1.187,1.992l18.009,11.419v10.464c0,.696.287,1.337.737,1.801v11.842c0,11.924-9.7,21.625-21.625,21.625s-21.625-9.7-21.625-21.625v-27.491c3.97-.846,6.958-4.38,6.958-8.609,0-4.843-3.943-8.8-8.8-8.8S0,55.092,0,59.949c0,4.216,2.988,7.763,6.958,8.609v27.464c0,13.943,11.351,25.295,25.295,25.295s25.295-11.351,25.295-25.295v-11.842c.45-.464.737-1.091.737-1.801v-10.464l18.009-11.419c.682-.437,1.091-1.132,1.173-1.883,10.669-7.899,17.654-16.167,20.752-24.626,1.446-3.916,2.019-7.818,1.692-11.597ZM8.8,65.816c-.15,0-.3,0-.45-.014-3.029-.232-5.416-2.77-5.416-5.853s2.633-5.867,5.867-5.867,5.867,2.633,5.867,5.867c-.014,3.083-2.401,5.621-5.416,5.853-.15.014-.3.014-.45.014Z" data-sg-fill="sg-fill-0"></path></svg>