<svg id="a" xmlns="http://www.w3.org/2000/svg" width="99.997" height="56.449" viewBox="0 0 99.997 56.449" xmlns:svgjs="http://svgjs.com/svgjs"><path d="M24.628,13.684l2.611-.634c.126-.031.204-.157.173-.285l-.055-.223c-.031-.126-.159-.204-.287-.173l-1.842.446c-.126.031-.254-.045-.285-.173l-.135-.558c-.031-.128.045-.256.173-.287l1.446-.351c.126-.031.204-.157.173-.285l-.055-.221c-.031-.126-.159-.204-.287-.173l-1.446.351c-.126.031-.254-.045-.285-.173l-.112-.456c-.031-.128.045-.256.173-.287l1.785-.434c.126-.031.204-.159.173-.287l-.055-.223c-.031-.126-.157-.204-.285-.173l-2.554.62h.007c-.126.031-.204.159-.173.287l.854,3.52c.031.126.157.204.285.173h.003Z" fill="none"></path><path d="M38.217,10.344c1.011-.057,1.541-.643,1.5-1.344-.038-.665-.489-1.004-1.199-1.104l-.62-.088c-.354-.052-.508-.166-.522-.434-.017-.263.233-.51.672-.539h.059c.358-.021.643.119.755.423.038.102.131.173.24.166l.332-.019c.145-.007.254-.142.221-.282-.152-.629-.712-1.037-1.586-.987-1.004.057-1.514.703-1.479,1.315.033.608.38,1.009,1.118,1.12l.738.109v-.007c.366.057.472.192.487.425.014.263-.199.51-.638.539h-.059c-.52.031-.821-.185-.933-.498-.038-.102-.131-.173-.24-.166l-.328.019c-.147.01-.254.145-.221.287.161.691.705,1.123,1.702,1.066h0Z" fill="none"></path><path d="M12.311,17.156c.052.116.192.171.309.116l1.491-.681c.693-.316.976-.966.719-1.524-.154-.337-.411-.522-.691-.582-.147-.031-.245-.18-.18-.318.112-.242.121-.534-.017-.836-.242-.534-.864-.769-1.583-.442l-1.438.658v-.002c-.116.052-.171.192-.116.309l1.507,3.302h0ZM14.058,15.274c.147.318.005.57-.342.729l-.667.304c-.116.052-.254,0-.309-.116l-.237-.517c-.052-.116,0-.254.116-.309h-.002l.667-.304c.347-.157.629-.104.774.214h0ZM11.928,13.857l.612-.28c.347-.157.601-.093.734.199.135.294.019.532-.328.691l-.612.28c-.116.052-.254,0-.309-.116h-.002l-.211-.465c-.052-.116,0-.254.116-.309Z" fill="none"></path><path d="M9.949,37.06c-1.244,0-2.255,1.011-2.255,2.255s1.011,2.255,2.255,2.255,2.255-1.011,2.255-2.255-1.011-2.255-2.255-2.255Z" fill="none"></path><path d="M8.304,20.719c1.385,0,2.507,1.122,2.507,2.507s-1.122,2.507-2.507,2.507-2.507-1.122-2.507-2.507,1.122-2.507,2.507-2.507Z" fill="none"></path><path d="M6.141,30.036c-.952,0-1.723.774-1.723,1.723s.771,1.723,1.723,1.723,1.723-.774,1.723-1.723-.771-1.723-1.723-1.723Z" fill="none"></path><path d="M64.091,8.637l.316.029c.131.01.244-.085.256-.216l.311-3.61c.01-.131-.085-.245-.216-.256l-.316-.028c-.131-.01-.245.085-.256.216l-.311,3.61c-.01.131.085.245.216.256h0Z" fill="none"></path><path d="M91.258,23.613l.662,1.7c.038.093.107.135.147.152.038.017.119.04.211.005l4.201-1.64c.142-.055.211-.216.157-.358l-.662-1.7c-.038-.093-.107-.135-.147-.152-.024-.012-.064-.024-.112-.024-.031,0-.064.005-.1.019l-4.201,1.64c-.142.055-.211.216-.157.358h0Z" fill="none"></path><path d="M88.849,17.543c.883.496,1.645.285,1.989-.328.328-.582.126-1.111-.418-1.576l-.475-.408c-.273-.233-.339-.411-.209-.646.128-.23.472-.304.854-.09l.052.029c.311.173.477.446.408.76-.021.104.019.216.114.268l.29.161c.126.071.292.017.339-.121.209-.61-.045-1.256-.807-1.683-.878-.491-1.652-.223-1.954.313-.297.529-.221,1.054.342,1.545l.563.491c.28.245.297.415.183.62-.131.228-.444.32-.826.107l-.052-.029c-.453-.256-.593-.598-.52-.923.026-.107-.017-.216-.112-.271l-.285-.159c-.128-.071-.294-.014-.342.123v.005c-.233.667-.005,1.325.864,1.811h.002Z" fill="none"></path><path d="M75.853,11.692l2.516.949c.121.045.259-.017.304-.138l.081-.216c.045-.121-.017-.259-.138-.304l-1.776-.669c-.121-.045-.183-.183-.138-.304l.204-.539c.045-.121.183-.183.304-.138l1.393.525c.121.045.259-.017.304-.138l.081-.216c.045-.121-.017-.259-.138-.304l-1.393-.525c-.121-.045-.183-.183-.138-.304l.166-.441c.045-.121.183-.183.304-.138l1.721.65c.121.045.259-.017.304-.138l.081-.216c.045-.121-.017-.259-.138-.304l-2.462-.928c-.121-.045-.259.017-.304.138l-1.279,3.392h.002c-.045.121.017.259.138.304v.002Z" fill="none"></path><path d="M18.266,39.313l-.942-.444c-1.27-.598-2.792-.05-3.39,1.222l-1.246,2.654c-.598,1.27-.05,2.792,1.222,3.39l.945.444c1.27.598,2.792.05,3.39-1.222h-.002l1.246-2.654c.598-1.27.05-2.792-1.222-3.39h0Z" fill="none"></path><path d="M49.545,5.634l.94-.052c.133-.007.245.093.252.223l.164,2.913c.007.131.121.23.252.223l.313-.017c.131-.007.23-.121.223-.252l-.164-2.913c-.007-.133.093-.244.223-.252l.945-.055c.131-.007.23-.121.223-.252l-.012-.226c-.007-.131-.121-.23-.252-.223l-3.148.178v.002c-.131.007-.23.121-.223.252l.012.225c.007.131.121.23.252.223v.003Z" fill="none"></path><path d="M76.261,42.073c-.245.074-.446.24-.567.465-.121.226-.145.487-.071.731l1.78,5.846c.154.506.691.79,1.196.639l1.113-.339-2.397-7.662s-1.054.32-1.054.32Z" fill="none"></path><path d="M67.276,47.732l-.195-.38-.235-3.117c-.019-.266-.207-.387-.285-.427-.078-.04-.287-.119-.513.021l-2.659,1.643-.422.066-3.038-.741c-.047-.012-.09-.017-.131-.017-.188,0-.313.102-.366.154-.062.064-.202.237-.138.496l.741,3.038-.066.423-1.643,2.661c-.14.226-.062.434-.021.513s.161.266.427.285l3.117.235.38.195,2.022,2.386c.173.202.394.192.482.178.088-.014.301-.071.404-.318l1.187-2.894.301-.301,2.894-1.187c.245-.102.304-.316.318-.404h.002v-.005c.014-.088.024-.311-.178-.482l-2.386-2.022h.001ZM66.631,50.018l-1.5.615-.615,1.5c-.043.107-.14.183-.254.202-.017.005-.036.005-.052.005-.097,0-.19-.04-.254-.116l-1.049-1.237-1.616-.121c-.116-.009-.218-.076-.271-.18-.052-.104-.047-.228.014-.325l.852-1.379-.385-1.574c-.029-.112.005-.233.088-.313.083-.083.202-.116.313-.088l1.574.385,1.379-.852c.1-.062.221-.066.325-.014.104.052.171.154.18.271l.121,1.617v.002l1.237,1.047c.09.074.133.19.114.304-.019.114-.095.211-.202.254v-.003Z" fill="none"></path><path d="M83.301,40.931c-.074-.244-.24-.446-.465-.567-.142-.076-.297-.114-.451-.114-.093,0-.188.014-.28.043l-1.116.339,2.397,7.662,1.056-.32c.245-.074.446-.24.567-.465.121-.228.145-.487.071-.731l-1.78-5.846h0Z" fill="none"></path><path d="M72.791,45.121c-1.244,0-2.255,1.011-2.255,2.255s1.011,2.255,2.255,2.255,2.255-1.011,2.255-2.255-1.011-2.255-2.255-2.255Z" fill="none"></path><path d="M87.453,36.844c-.085-1.427.648-2.697,1.887-3.333.057-1.401.907-2.604,2.241-3.124.615-.242,1.253-.304,1.861-.204-.427-.563-.684-1.263-.684-2.025,0-.717.228-1.379.61-1.925l-.684.266c-.164.064-.332.095-.503.095-.19,0-.377-.038-.555-.116-.339-.15-.598-.42-.734-.764l-.662-1.7c-.135-.344-.126-.722.021-1.059.055-.128.135-.242.223-.344-.078.007-.159.014-.24.019-.131.007-.263.012-.394.012-1.676,0-3.273-.608-4.534-1.733-1.358-1.213-2.165-2.884-2.267-4.702-.04-.698.026-1.384.19-2.041-1.158,1.65-3.031,2.773-5.194,2.896-.131.007-.261.012-.389.012-3.587,0-6.601-2.81-6.805-6.435-.024-.404-.01-.805.038-1.199-.976,2.338-3.221,4.045-5.915,4.197-.131.007-.261.012-.389.012-3.337,0-6.181-2.435-6.722-5.697-.515,3.076-3.102,5.505-6.343,5.687-.131.007-.261.012-.389.012-2.891,0-5.41-1.828-6.385-4.436-.197,1.296-.762,2.511-1.657,3.513-1.213,1.358-2.884,2.165-4.702,2.267-.131.007-.261.012-.389.012-2.613,0-4.923-1.493-6.062-3.705.014,1.697-.593,3.316-1.733,4.591-1.213,1.358-2.884,2.165-4.702,2.267-.131.007-.261.012-.389.012-2.274,0-4.318-1.13-5.562-2.882-.259,3.352-2.967,6.086-6.414,6.281-.131.007-.261.012-.389.012-.439,0-.869-.043-1.287-.123.299.525.47,1.128.47,1.773,0,1.467-.878,2.73-2.136,3.295.596.197,1.139.565,1.569,1.09.888,1.085,1.028,2.521.387,3.736.783,1.137.809,2.583.055,3.762-.252.394-.567.719-.926.971,1.317.375,2.31,1.531,2.433,2.934,1.014-1.381,2.894-1.901,4.501-1.146l.942.444c1.78.836,2.566,2.934,1.806,4.728.453-.228.964-.361,1.505-.361,1.628,0,2.991,1.163,3.297,2.704.94-1.607,2.685-2.692,4.679-2.692,2.689,0,4.925,1.97,5.346,4.543.572-1.037,1.678-1.745,2.946-1.745,1.541,0,2.839,1.042,3.235,2.459.358-.888,1.066-1.588,1.999-1.849.973-.273,2.02-.021,2.839.672.339-1.018,1.104-1.778,2.077-2.051.833-.235,1.716-.09,2.485.406.684.441,1.201,1.118,1.476,1.918.446-1.332,1.704-2.295,3.186-2.295,1.111,0,2.094.541,2.706,1.374l-.104-.425c-.135-.558.026-1.132.432-1.538s.98-.567,1.538-.432l2.813.686,2.464-1.522c.489-.301,1.087-.328,1.597-.066.51.259.843.757.885,1.329l.216,2.886,1.372,1.163c-.069-.268-.109-.546-.109-.833,0-1.854,1.507-3.361,3.361-3.361.809,0,1.552.287,2.134.767l-.361-1.187c-.159-.529-.104-1.087.154-1.574.259-.487.693-.843,1.22-1.004l5.846-1.78c.529-.159,1.087-.104,1.574.154.487.259.843.693,1.004,1.22l.005.007.382,1.253c.37-1.45,1.685-2.528,3.252-2.528.287,0,.567.04.836.109-.809-.603-1.32-1.536-1.384-2.609h-.001Z" fill="none"></path><path d="M98.296,35.871c.703-1.09.377-2.181-.161-2.839s-1.543-1.192-2.751-.722l-.636-.161-.017-.019c-.539-.655-1.211-.893-1.833-.893-.33,0-.646.066-.919.173-.79.309-1.609,1.099-1.533,2.393v.026l-.354.548c-1.211.472-1.588,1.548-1.538,2.395.05.847.551,1.87,1.804,2.198l.413.503c.074,1.303.978,1.994,1.799,2.21.821.216,1.949.059,2.649-1.03l.012-.019.601-.235.024.007c1.253.325,2.189-.323,2.647-1.037v-.002h.002c.458-.717.655-1.837-.166-2.839l-.043-.658h0ZM93.948,38.178c-.952,0-1.723-.772-1.723-1.723s.772-1.723,1.723-1.723,1.723.772,1.723,1.723-.772,1.723-1.723,1.723Z" fill="none"></path><path d="M38.322,46.597c-1.244,0-2.255,1.011-2.255,2.255s1.011,2.255,2.255,2.255,2.255-1.011,2.255-2.255-1.011-2.255-2.255-2.255Z" fill="none"></path><path d="M50.359,46.056c-.498-.323-1.063-.418-1.588-.271-.662.185-1.175.743-1.372,1.491-.088.335-.339.591-.669.684-.33.093-.679.002-.928-.237-.555-.536-1.284-.745-1.946-.56-1.111.313-1.719,1.619-1.355,2.913.173.612.539,1.135,1.033,1.474.021.014.043.031.062.047l4.403,2.844c.173.112.377.145.577.088.197-.057.356-.19.446-.375l2.284-4.719c.007-.026.014-.05.026-.074v.002c.245-.546.285-1.182.114-1.794-.18-.641-.565-1.177-1.085-1.512h-.002Z" fill="none"></path><path d="M30.03,43.794c-2.378,0-4.313,1.935-4.313,4.313s1.935,4.313,4.313,4.313,4.313-1.935,4.313-4.313-1.935-4.313-4.313-4.313ZM31.189,46.894c.266,0,.479.216.479.479s-.214.479-.479.479c-.263,0-.479-.214-.479-.479s.214-.479.479-.479ZM30.726,48.207c.01,0,.017.012.017.024s-.017.024-.017.024c-.009,0-.017-.012-.017-.024s.007-.024.017-.024ZM29.321,46.415c.266,0,.479.214.479.479s-.214.479-.479.479c-.263,0-.479-.214-.479-.479s.214-.479.479-.479ZM31.906,49.289c-.612.411-1.206.617-1.773.617-.221,0-.439-.031-.653-.095-1.279-.38-1.882-1.768-1.908-1.828-.071-.169.007-.363.176-.434s.363.007.434.176c.01.021.515,1.166,1.491,1.453.56.164,1.187.017,1.866-.439h-.002c.152-.102.358-.062.461.09s.062.358-.09.46h-.002Z" fill="none"></path><path d="M93.948,34.732c.952,0,1.723.771,1.723,1.723s-.771,1.723-1.723,1.723-1.723-.771-1.723-1.723.771-1.723,1.723-1.723Z" data-sg-fill="sg-fill-0"></path><path d="M65.482,48.413v-.002l-.121-1.617c-.01-.116-.076-.218-.18-.271-.104-.052-.226-.047-.325.014l-1.379.852-1.574-.385c-.112-.028-.23.005-.313.088-.083.081-.116.202-.088.313l.385,1.574-.852,1.379c-.062.097-.066.221-.014.325.052.104.154.171.271.18l1.616.121,1.049,1.237c.064.076.157.116.254.116.017,0,.036,0,.052-.005.114-.019.211-.095.254-.202l.615-1.5,1.5-.615c.107-.043.183-.14.202-.254.019-.114-.024-.23-.114-.304l-1.237-1.047v.003Z" data-sg-fill="sg-fill-0"></path><path d="M99.423,36.124c.621-1.239.466-2.69-.434-3.791-.423-.515-.952-.885-1.536-1.094,1.192-.517,2.027-1.704,2.027-3.083,0-1.605-1.132-2.951-2.64-3.28l.043-.017c.344-.135.615-.394.764-.733.147-.337.157-.714.021-1.059l-.662-1.7c-.278-.71-1.08-1.063-1.79-.786l-.826.323c1.495-1.336,2.393-3.316,2.269-5.469-.102-1.818-.909-3.489-2.267-4.702-1.36-1.213-3.112-1.825-4.928-1.723-1.818.102-3.489.907-4.702,2.267-.178.199-.342.406-.491.622.161-.648.23-1.334.192-2.034-.102-1.818-.909-3.489-2.267-4.702-1.358-1.213-3.112-1.825-4.928-1.723-1.818.102-3.489.907-4.702,2.267-.517.579-.923,1.227-1.213,1.923.045-.389.062-.786.038-1.192-.102-1.818-.909-3.489-2.267-4.702-1.36-1.213-3.11-1.823-4.928-1.723-3.24.183-5.827,2.611-6.343,5.685-.252-1.529-1.011-2.917-2.184-3.964-1.36-1.213-3.112-1.823-4.928-1.723-3.273.185-5.882,2.661-6.357,5.78-1.018-2.723-3.722-4.596-6.777-4.425-3.639.207-6.459,3.245-6.435,6.851-.377-.734-.89-1.398-1.522-1.965-1.36-1.213-3.112-1.825-4.928-1.723-3.444.195-6.15,2.927-6.414,6.274-.294-.413-.634-.798-1.023-1.144-1.36-1.213-3.11-1.825-4.928-1.723-3.755.211-6.637,3.44-6.426,7.195.1,1.768.869,3.342,2.046,4.491-1.84.166-3.285,1.716-3.285,3.596,0,.84.292,1.614.774,2.229-.463-.019-.938.057-1.401.237-1.313.513-2.141,1.707-2.172,3.088-1.237.608-1.968,1.854-1.887,3.257.083,1.398.952,2.549,2.246,3.01.192,1.365,1.151,2.447,2.511,2.806.301.078.603.119.897.119.472,0,.93-.102,1.353-.29-.271.484-.425,1.04-.425,1.633,0,1.854,1.507,3.361,3.361,3.361.66,0,1.277-.195,1.797-.525l-.059.123c-.857,1.823-.071,4.004,1.752,4.861l.945.444c.501.235,1.028.347,1.548.347,1.073,0,2.11-.477,2.81-1.315.273,1.583,1.65,2.792,3.309,2.792,1.025,0,1.944-.463,2.561-1.189.057,2.939,2.464,5.312,5.414,5.312,2.355,0,4.361-1.51,5.106-3.61.446,1.332,1.704,2.295,3.185,2.295,1.372,0,2.552-.826,3.074-2.008.014.057.024.112.038.169.233.826.724,1.543,1.389,2.027.028.026.057.052.09.074l4.482,2.894c.297.192.639.29.985.29.164,0,.33-.021.489-.066.501-.14.916-.489,1.144-.957l2.321-4.802c.017-.036.031-.071.038-.109.05-.119.09-.24.126-.363.498,1.237,1.707,2.113,3.119,2.113.653,0,1.26-.19,1.776-.513l-.01.014c-.301.489-.328,1.085-.066,1.597.261.513.757.843,1.329.885l2.886.216,1.873,2.208c.313.37.764.577,1.239.577.085,0,.173-.007.261-.021.567-.09,1.035-.461,1.253-.992l1.099-2.68,2.678-1.099c.532-.218.902-.686.992-1.253.012-.078.019-.154.019-.23.529.349,1.163.553,1.842.553,1.517,0,2.801-1.011,3.219-2.395l.335,1.097c.271.89,1.092,1.465,1.977,1.465.199,0,.401-.028.601-.09l5.846-1.78c.527-.161.961-.517,1.22-1.004.259-.487.313-1.044.154-1.574l-.382-1.258c.596.534,1.379.859,2.238.859,1.854,0,3.361-1.507,3.361-3.361,0-.116-.005-.23-.017-.342.287.173.605.309.947.399.311.081.62.121.926.121,1.052,0,2.039-.472,2.72-1.327,1.384.221,2.73-.38,3.501-1.586.767-1.197.752-2.656-.013-3.82l.007-.007ZM95.616,21.614c.036-.014.069-.019.1-.019.047,0,.088.012.112.024.04.017.109.059.147.152l.662,1.7c.055.142-.014.304-.157.358l-4.201,1.64c-.093.036-.173.012-.211-.005-.04-.017-.109-.059-.147-.152l-.662-1.7c-.055-.142.014-.304.157-.358l4.201-1.64h-.001ZM87.985,15.732v-.005c.047-.138.214-.195.342-.123l.285.159c.095.055.138.164.112.271-.074.325.066.667.52.923l.052.029c.382.214.695.121.826-.107.114-.204.097-.375-.183-.62l-.563-.491c-.563-.491-.639-1.016-.342-1.545.301-.536,1.075-.805,1.954-.313.762.427,1.016,1.073.807,1.683-.047.138-.214.192-.339.121l-.29-.161c-.095-.052-.135-.164-.114-.268.069-.313-.097-.586-.408-.76l-.052-.029c-.382-.214-.726-.14-.854.09-.131.235-.064.413.209.646l.475.408c.544.465.745.995.418,1.576-.344.612-1.106.824-1.989.328-.869-.487-1.097-1.144-.864-1.811h-.002ZM76.992,7.996c.045-.121.183-.183.304-.138l2.462.928c.121.045.183.183.138.304l-.081.216c-.045.121-.183.183-.304.138l-1.721-.65c-.121-.045-.259.017-.304.138l-.166.441c-.045.121.017.259.138.304l1.393.525c.121.045.183.183.138.304l-.081.216c-.045.121-.183.183-.304.138l-1.393-.525c-.121-.045-.259.017-.304.138l-.204.539c-.045.121.017.259.138.304l1.776.669c.121.045.183.183.138.304l-.081.216c-.045.121-.183.183-.304.138l-2.516-.949c-.121-.045-.183-.183-.138-.304h-.002l1.279-3.392v-.002ZM64.186,4.77c.012-.131.126-.226.256-.216l.316.028c.131.012.226.126.216.256l-.311,3.61c-.012.131-.126.226-.256.216l-.316-.029c-.131-.012-.226-.126-.216-.256l.311-3.61h0ZM49.504,4.934v-.002l3.148-.178c.131-.007.245.093.252.223l.012.226c.007.131-.093.245-.223.252l-.945.055c-.131.007-.23.119-.223.252l.164,2.913c.007.131-.093.244-.223.252l-.313.017c-.131.007-.245-.093-.252-.223l-.164-2.913c-.007-.131-.119-.23-.252-.223l-.94.052c-.131.007-.245-.093-.252-.223l-.012-.225c-.007-.131.093-.245.223-.252v-.003ZM36.736,8.991l.328-.019c.109-.007.202.064.24.166.112.313.413.529.933.498h.059c.439-.028.653-.275.638-.539-.014-.233-.121-.368-.487-.425v.007l-.738-.109c-.738-.112-1.085-.513-1.118-1.12-.036-.612.475-1.258,1.479-1.315.874-.05,1.434.358,1.586.987.033.14-.076.275-.221.282l-.332.019c-.109.007-.202-.064-.24-.166-.112-.304-.396-.444-.755-.423h-.059c-.439.029-.688.275-.672.539.014.268.169.382.522.434l.62.088c.71.1,1.161.439,1.199,1.104.04.7-.489,1.287-1.5,1.344-.997.057-1.541-.375-1.702-1.066-.033-.142.074-.278.221-.287h0ZM23.662,9.703h-.007l2.554-.62c.128-.031.254.047.285.173l.055.223c.031.128-.047.256-.173.287l-1.785.434c-.128.031-.204.159-.173.287l.112.456c.031.128.159.204.285.173l1.446-.351c.128-.031.256.047.287.173l.055.221c.031.128-.047.254-.173.285l-1.446.351c-.128.031-.204.159-.173.287l.135.558c.031.128.159.204.285.173l1.842-.446c.128-.031.256.047.287.173l.055.223c.031.128-.047.254-.173.285l-2.611.634c-.128.031-.254-.047-.285-.173l-.854-3.52c-.031-.128.047-.256.173-.287h-.003ZM10.92,13.546v.002l1.438-.658c.719-.328,1.341-.093,1.583.442.138.301.128.593.017.836-.064.138.033.287.18.318.28.059.536.244.691.582.256.558-.026,1.208-.719,1.524l-1.491.681c-.116.055-.256,0-.309-.116l-1.507-3.302c-.055-.116,0-.256.116-.309h0ZM8.304,20.719c1.381,0,2.507,1.125,2.507,2.507s-1.125,2.507-2.507,2.507-2.507-1.125-2.507-2.507,1.125-2.507,2.507-2.507ZM6.141,33.483c-.952,0-1.723-.774-1.723-1.723s.771-1.723,1.723-1.723,1.723.774,1.723,1.723-.771,1.723-1.723,1.723ZM9.949,41.57c-1.244,0-2.255-1.011-2.255-2.255s1.011-2.255,2.255-2.255,2.255,1.011,2.255,2.255-1.011,2.255-2.255,2.255ZM19.489,42.702l-1.246,2.654h.002c-.598,1.272-2.12,1.821-3.39,1.222l-.945-.444c-1.272-.598-1.821-2.12-1.222-3.39l1.246-2.654c.598-1.272,2.12-1.821,3.39-1.222l.942.444c1.272.598,1.821,2.12,1.222,3.39h0ZM30.03,52.42c-2.378,0-4.313-1.935-4.313-4.313s1.935-4.313,4.313-4.313,4.313,1.935,4.313,4.313-1.935,4.313-4.313,4.313ZM38.322,51.108c-1.244,0-2.255-1.011-2.255-2.255s1.011-2.255,2.255-2.255,2.255,1.011,2.255,2.255-1.011,2.255-2.255,2.255ZM51.33,49.363v-.002c-.012.024-.019.047-.026.074l-2.284,4.719c-.09.185-.249.318-.446.375-.199.057-.404.024-.577-.088l-4.403-2.844c-.019-.017-.04-.033-.062-.047-.494-.339-.859-.862-1.033-1.474-.363-1.294.244-2.599,1.355-2.913.662-.185,1.391.024,1.946.56.249.24.598.33.928.237.33-.093.582-.349.669-.684.197-.748.71-1.306,1.372-1.491.525-.147,1.09-.052,1.588.271.52.335.904.871,1.085,1.512.171.612.131,1.249-.114,1.794h.002ZM69.84,50.236v.005h-.002c-.014.088-.074.301-.318.404l-2.894,1.187-.301.301-1.187,2.894c-.102.247-.316.304-.404.318s-.309.024-.482-.178l-2.022-2.386-.38-.195-3.117-.235c-.266-.019-.387-.207-.427-.285s-.119-.287.021-.513l1.643-2.661.066-.423-.741-3.038c-.064-.259.076-.432.138-.496.052-.052.178-.154.366-.154.04,0,.083.005.131.017l3.038.741.422-.066,2.659-1.643c.226-.14.434-.062.513-.021.078.04.266.161.285.427l.235,3.117.195.38,2.386,2.022c.202.171.192.394.178.482h-.001ZM72.791,49.631c-1.244,0-2.255-1.011-2.255-2.255s1.011-2.255,2.255-2.255,2.255,1.011,2.255,2.255-1.011,2.255-2.255,2.255ZM78.599,49.755c-.506.152-1.042-.133-1.196-.639l-1.78-5.846c-.074-.245-.05-.506.071-.731s.323-.392.567-.465l1.054-.32,2.397,7.662s-1.113.339-1.113.339ZM85.01,47.509c-.121.226-.323.392-.567.465l-1.056.32-2.397-7.662,1.116-.339c.093-.029.188-.043.28-.043.154,0,.309.038.451.114.226.121.392.323.465.567l1.78,5.846c.074.245.05.503-.071.731h0ZM88.001,39.343c-1.567,0-2.882,1.078-3.252,2.528l-.382-1.253-.005-.007c-.161-.527-.517-.961-1.004-1.22-.487-.259-1.044-.313-1.574-.154l-5.846,1.78c-.527.161-.961.518-1.22,1.004-.259.487-.313,1.044-.154,1.574l.361,1.187c-.582-.479-1.325-.767-2.134-.767-1.854,0-3.361,1.507-3.361,3.361,0,.287.04.565.109.833l-1.372-1.163-.216-2.886c-.043-.572-.375-1.071-.885-1.329-.51-.261-1.109-.235-1.597.066l-2.464,1.522-2.813-.686c-.558-.135-1.132.026-1.538.432s-.567.98-.432,1.538l.104.425c-.612-.833-1.595-1.374-2.706-1.374-1.481,0-2.739.964-3.186,2.295-.275-.8-.793-1.476-1.476-1.918-.769-.496-1.652-.641-2.485-.406-.973.273-1.738,1.033-2.077,2.051-.819-.693-1.866-.945-2.839-.672-.933.261-1.64.961-1.999,1.849-.396-1.417-1.695-2.459-3.235-2.459-1.268,0-2.374.707-2.946,1.745-.42-2.573-2.656-4.543-5.346-4.543-1.994,0-3.739,1.085-4.679,2.692-.306-1.541-1.669-2.704-3.297-2.704-.541,0-1.052.133-1.505.361.76-1.794-.026-3.893-1.806-4.728l-.942-.444c-1.607-.755-3.487-.235-4.501,1.146-.123-1.403-1.116-2.559-2.433-2.934.358-.252.674-.577.926-.971.755-1.18.729-2.625-.055-3.762.641-1.215.501-2.651-.387-3.736-.43-.525-.973-.893-1.569-1.09,1.258-.565,2.136-1.828,2.136-3.295,0-.646-.171-1.249-.47-1.773.418.081.847.123,1.287.123.128,0,.259-.005.389-.012,3.447-.195,6.155-2.929,6.414-6.281,1.244,1.752,3.288,2.882,5.562,2.882.128,0,.259-.005.389-.012,1.818-.102,3.489-.909,4.702-2.267,1.139-1.275,1.747-2.894,1.733-4.591,1.139,2.212,3.449,3.705,6.062,3.705.128,0,.259-.005.389-.012,1.818-.102,3.489-.909,4.702-2.267.895-1.002,1.46-2.217,1.657-3.513.976,2.609,3.494,4.436,6.385,4.436.128,0,.259-.005.389-.012,3.24-.183,5.828-2.611,6.343-5.687.541,3.261,3.385,5.697,6.722,5.697.128,0,.259-.005.389-.012,2.694-.152,4.94-1.859,5.915-4.197-.047.394-.062.795-.038,1.199.204,3.625,3.219,6.435,6.805,6.435.128,0,.259-.005.389-.012,2.162-.123,4.035-1.246,5.194-2.896-.164.658-.23,1.344-.19,2.041.102,1.818.909,3.489,2.267,4.702,1.26,1.125,2.858,1.733,4.534,1.733.13,0,.263-.005.394-.012.081-.005.161-.012.24-.019-.088.102-.169.216-.223.344-.147.337-.157.714-.021,1.059l.662,1.7c.135.344.394.615.734.764.178.078.366.116.555.116.171,0,.339-.031.503-.095l.684-.266c-.382.546-.61,1.208-.61,1.925,0,.762.256,1.462.684,2.025-.608-.1-1.246-.038-1.861.204-1.334.52-2.184,1.723-2.241,3.124-1.239.636-1.973,1.906-1.887,3.333.064,1.073.574,2.006,1.384,2.609-.268-.069-.548-.109-.836-.109h.001ZM98.505,39.367h-.002v.002c-.458.714-1.393,1.362-2.647,1.037l-.024-.007-.601.235-.012.019c-.7,1.09-1.828,1.246-2.649,1.03s-1.726-.907-1.799-2.21l-.413-.503c-1.253-.328-1.754-1.351-1.804-2.198-.05-.847.328-1.923,1.538-2.395l.354-.548v-.026c-.076-1.294.743-2.084,1.533-2.393.273-.107.589-.173.919-.173.622,0,1.294.237,1.833.893l.017.019.636.161c1.208-.47,2.212.064,2.751.722s.864,1.749.161,2.839l.043.658c.821,1.002.624,2.122.166,2.839h0Z" data-sg-fill="sg-fill-0"></path><path d="M12.617,15.364h.002c-.116.055-.169.192-.116.309l.237.517c.055.116.192.169.309.116l.667-.304c.347-.159.489-.411.342-.729-.145-.318-.427-.37-.774-.214l-.667.304h0Z" data-sg-fill="sg-fill-0"></path><path d="M12.023,14.631h.002c.055.116.192.169.309.116l.612-.28c.347-.159.463-.396.328-.691-.133-.292-.387-.356-.734-.199l-.612.28c-.116.055-.169.192-.116.309l.211.465Z" data-sg-fill="sg-fill-0"></path><path d="M31.535,48.739h.002c-.679.456-1.306.603-1.866.439-.976-.287-1.481-1.431-1.491-1.453-.071-.169-.266-.247-.434-.176-.169.071-.247.266-.176.434.026.059.629,1.448,1.908,1.828.214.064.432.095.653.095.567,0,1.161-.206,1.773-.617.152-.102.192-.309.09-.46s-.309-.192-.461-.09h.002Z" data-sg-fill="sg-fill-0"></path><path d="M29.321,46.415c.265,0,.479.214.479.479s-.214.479-.479.479-.479-.214-.479-.479.214-.479.479-.479Z" data-sg-fill="sg-fill-0"></path><path d="M31.189,46.895c.265,0,.479.214.479.479s-.214.479-.479.479-.479-.214-.479-.479.214-.479.479-.479Z" data-sg-fill="sg-fill-0"></path><path d="M30.743,48.231c0-.012-.007-.024-.017-.024-.009,0-.017.012-.017.024s.007.024.017.024c0,0,.017-.012.017-.024Z" data-sg-fill="sg-fill-0"></path></svg>