<svg xmlns="http://www.w3.org/2000/svg" id="a" version="1.1" viewBox="0.0 0.0 100.0 61.77744976668889">
    <g transform="scale(0.23807256451766498)"><path d="M420.04,160.08c-.11-2.2-2.04-3.87-4.17-2.41-15.7,10.81-37.9,17.7-56.82,12.11-6.61-1.96-11.64-5.96-14.2-11.61,8.66-4.9,16.45-11.61,22.3-18.21,4.04-4.56,7.62-9.61,10.59-14.93,3.07-5.49,6.18-11.76,5.91-18.22-.22-5.1-2.91-10.58-8.15-12.03-5.97-1.65-11.84,2.31-16.16,6.01-9.1,7.77-16.11,18.07-20.26,29.27-2.59,6.98-4.62,15.29-4.46,23.26-5.54,1.68-11.3,2.25-17.05,1.23-4.63-.82-8.36-2.6-11.37-5.05,2.58-2.66,5.08-5.4,7.5-8.2,15.17-17.65,27.13-38.45,33.63-60.86,3.08-10.61,6.15-22.63,5.26-33.77-.39-4.92-1.66-10.03-5.4-13.49-4.28-3.96-10.36-4.19-15.62-2.21-11.38,4.29-18.87,17.58-24.85,27.43-6.68,11.01-12.05,22.86-15.54,35.27-2.53,8.99-4.04,18.35-4.16,27.71-.69-.23-1.52-.15-2.42.35-10.22,5.71-18.75,14.25-24.44,24.5-.51.92-1.08,1.99-1.67,3.16-2.83,4-6.03,7.74-9.62,11.12-5.78,5.43-14.02,12.8-22.23,13.75-10.62,1.22-9.62-12.38-8.91-19.19,1.03-9.89,3.96-19.51,8.61-28.29.89-1.75,2.18-5.29-.11-6.61-2.18-1.26-4.89,1.53-5.78,3.21-6.3,12.43-14.25,23.87-23.85,33.99-2.3,2.43-4.72,4.75-7.19,6.99-2.44,2.21-5.21,5-8.58,5.61-6.38,1.15-7.45-6.05-6.87-10.68.8-6.39,2.81-12.8,5.07-18.87,1.05-.99,2.04-1.95,2.93-2.85,4.24-4.23,10.77-11.74,7.04-18.12-.39-.54-.91-.84-1.57-.9-6.58.49-8.9,5.84-11.41,11.18-.83,1.77-1.61,3.56-2.35,5.36-.35.28-.7.57-1.05.85-4.04,3.21-11.18,8.29-16.24,4.3-1.33-1.05-2.05-2.41-2.36-3.93,5.94-10.33,10.04-21.79,11.77-33.18.33-1.02.42-2.08.07-3.1-.22-.64-.58-1.09-1.02-1.37-.05-.04-.11-.07-.17-.1,0,0-.03-.02-.04-.02-.45-.25-1.03-.35-1.75-.22-1.36.24-2.62,1.37-3.53,2.72-6.84,7.77-9.31,16.81-11.85,26.86-.63,2.51-1.25,5.47-1.49,8.46-3.6,5.61-7.88,10.73-12.76,15.03-1.84,1.62-3.67,4.8-2.82,7.33.83,2.48,3.43,1.99,5.05.57,4.35-3.83,8.34-8.19,11.92-12.93,1.3,2.61,3.56,4.62,7.28,5.44,4.79,1.06,9.79-.7,14.4-3.51-.19.64-.37,1.29-.55,1.93-2.28,8.28-7.04,25.22,4.08,29.59,5.81,2.28,11.85-1.5,16.22-5.07,5.24-4.26,10.03-9.24,14.53-14.26,2.52-2.8,4.92-5.71,7.22-8.7-.46,2.62-.82,5.27-1.05,7.95-.77,8.96-1.05,23.4,10.81,24.92,5.36.69,10.87-1.93,15.33-4.6,4.83-2.89,9.43-6.25,13.64-9.99,1.36-1.21,2.66-2.46,3.94-3.74-.19,4.61,1.2,8.71,5.57,10.99,10.25,5.34,21.91-5.55,29.36-11.44,3.39-2.69,6.69-5.5,9.88-8.42,1.58,1.52,3.38,2.86,5.42,4,10.37,5.74,21.75,5.04,32.42.98.35,1.22.77,2.42,1.28,3.58,4.52,10.25,15.48,14.65,26.02,15.66,12.09,1.16,24.75-1.17,35.97-5.65,5.95-2.37,11.55-5.34,16.83-8.98,2.2-1.52,4.16-4.12,4.01-6.95h.03s0-.01,0-.01ZM181.86,126.99s0-.03,0,0h0ZM181.85,127.04s-.02.05-.03.08c0-.11,0-.16.03-.08ZM296.03,106.17c2.87-20.43,12.19-39.64,24.47-56.06,2.76-3.69,5.76-7.76,10.28-9.34,4.45-1.56,9.36-.32,11.8,3.89,4.09,7.07,1.42,17.73-.07,25.2-3.6,18.1-11.2,35.18-21.44,50.49-5.69,8.51-12.3,16.57-19.6,23.95-6.95-10.28-7.15-25.96-5.44-38.13h0ZM277.08,164.54c-3.7,2.49-9.1,5.63-13.4,2.44-4.23-3.14-1.12-10.07.74-14.07,2.05-2.98,3.93-6.08,5.63-9.28,3.99-5.1,9.03-9.35,14.72-12.53.93-.52,1.79-1.33,2.48-2.29.07,1.02.16,2.03.26,3.05.74,6.96,2.48,14.05,6.07,19.91-5.24,4.64-10.75,8.93-16.49,12.78h-.01s0-.01,0-.01ZM349.88,122.94c2.26-3.99,5-7.71,8.19-11,2.92-3,7.64-8.04,12.36-7.06,5.33,1.11,5.58,7.33,4.05,11.39-1.63,4.32-4.26,8.48-6.98,12.2-6.01,8.22-14.69,16.37-24.53,21.45-.35-9.33,2.33-18.89,6.91-26.98h0Z" data-sg-fill="sg-fill-0" />
  <path d="M109.41,118.17c-.73-.19-1.47-.35-2.22-.49,9.02-6.24,17.85-12.83,26.27-19.86,9.26-7.73,18.06-16.18,25.58-25.64,7.44-9.35,14.36-19.97,17.64-31.55,3.13-11.04,1.89-22.82-6.76-31.01C161.27,1.44,149.28-.74,137.74.21c-24.05,1.98-48,11.96-68.9,23.59C44.86,37.15,23.19,54.34,3.04,72.88c-1.81,1.67-3.69,4.76-2.82,7.33.82,2.44,3.45,2.04,5.05.57C37.37,51.25,74.09,24.51,117.02,13.74c11.25-2.82,23.83-5.35,35.18-1.58,9.37,3.11,17.71,10.76,17.99,21.16.28,10.51-6.33,20.86-12.32,29.03-6.23,8.5-13.54,16.09-21.41,23.07-9.1,8.07-18.85,15.41-28.78,22.43-4.95,3.51-10.04,6.87-15.37,9.74,2.02-7.53,3.98-15.08,5.88-22.65,3.9-15.53,7.53-31.13,10.93-46.77.47-2.16-.51-4.53-3.01-4.09-2.61.46-4.44,3.8-4.94,6.11-5.06,23.32-10.68,46.51-16.87,69.55-4.41,1.46-8.63,3.43-12.42,5.68-2.16,1.28-3.78,3.81-3.95,6.32-.14,1.96.74,3.96,3.07,3.46,3.38-.72,6.67-1.71,9.87-2.91-5.72,20.57-11.9,41.02-18.53,61.33-6.8,3.84-13.77,7.4-20.88,10.64-3.98,1.81-5.98,12.15.16,9.35,5.63-2.56,11.27-5.33,16.85-8.28-.45,1.35-.9,2.71-1.36,4.06-5.07,14.93-10.38,29.78-15.92,44.55-.7,1.86-.93,5.11,1.64,5.52,2.53.41,4.82-2.92,5.55-4.85,6.74-17.97,13.13-36.08,19.17-54.3,14.36-8.33,28.02-18.11,39.57-29.57,8.46-8.4,17.66-19.11,18.78-31.5.99-11-6.35-18.43-16.49-21.06h0s0-.01,0-.01ZM110.45,156.64c-8.58,10.58-19.86,18.95-31.09,26.5-2.58,1.74-5.21,3.42-7.85,5.06,6.36-19.74,12.3-39.61,17.82-59.6.48-.24.96-.48,1.43-.73,5.68-.89,11.45-.65,16.74,1.3,4.92,1.82,9.61,5.42,10.31,10.96.77,6.15-3.71,12.02-7.35,16.5h-.01s0,.01,0,.01Z" data-sg-fill="sg-fill-0" />
  <path d="M225.63,109.18c.52,3.51,4.95,1.06,6.02-.44,8.06-11.21,27-14.24,29.68-29.45,1.21-6.85-3.44-13.76-10.84-13.01-3.65.37-6.75,2.56-9.03,5.35-.27.33-.52.66-.77,1-1.09-3.86-2.95-7.68-6.26-9.46-5.11-2.74-10.86,2.31-13.1,6.51-3.25,6.11-1.71,12.93-.23,19.3,1.56,6.73,3.52,13.35,4.53,20.19h0s0,0,0,0ZM228.77,73c2.87.95,4.42,6.73,4.85,9.54-.11,1.63.49,2.98,2.19,3.25,5.47.88,6.78-3.66,9.22-7.37,2.91-4.41,10.93.54,7.23,4.49-3.55,3.79-8.71,6.21-12.96,9.1-2.37,1.62-4.64,3.32-6.74,5.22-1.24-5.94-2.94-11.77-4.19-17.71-.38-1.81-.56-3.63-.85-5.45-.07-.45.15-1.08-.02-1.16.41-.1.89-.05,1.26.07v.02s.01,0,.01,0Z" data-sg-fill="sg-fill-0" />
</g></svg>