<?xml version="1.0" encoding="utf-8"?>
<svg xmlns="http://www.w3.org/2000/svg" width="734" height="1002" viewBox="0 0 734 1002">
  <path fill-rule="evenodd" d="M 698.247 2.142 C 694.258 2.585, 688.408 3.617, 685.247 4.435 C 672.618 7.706, 664.128 9.065, 650.138 10.056 C 626.960 11.697, 623.243 12.745, 600.489 24.051 C 577.690 35.380, 568.978 41.964, 565.231 50.698 C 562.637 56.745, 559.460 74.607, 557.974 91.500 C 557.345 98.650, 555.968 108.433, 554.915 113.239 C 553.862 118.046, 552.997 125.471, 552.993 129.739 C 552.989 134.008, 552.347 146.275, 551.566 157 C 550.785 167.725, 550.142 181.714, 550.136 188.086 C 550.123 201.326, 546.134 224.760, 542.746 231.500 C 537.554 241.827, 519.728 260.091, 510.650 264.386 C 507.760 265.753, 503.169 267.415, 500.447 268.080 C 493.617 269.748, 492.331 270.546, 491.566 273.592 C 491.201 275.046, 491.064 276.397, 491.261 276.594 C 491.458 276.791, 493.968 276.060, 496.839 274.969 C 502.057 272.986, 509.315 273.083, 510.594 275.152 C 511.295 276.287, 506.148 278.438, 497.591 280.588 C 493.903 281.514, 490.055 282.998, 489.040 283.886 C 487.032 285.643, 485.282 293, 486.873 293 C 487.403 293, 491.124 291.425, 495.140 289.500 C 499.157 287.575, 503.837 286, 505.540 286 C 511.823 286, 525.117 280.605, 545.177 269.914 C 553.834 265.300, 548.430 272.480, 537.678 279.878 C 530.714 284.669, 525.573 286.685, 510.780 290.423 C 503.476 292.269, 494.913 294.929, 491.750 296.334 C 486.308 298.753, 486 299.080, 486 302.445 C 486 304.400, 486.275 306, 486.611 306 C 486.946 306, 490.434 304.431, 494.361 302.513 C 498.287 300.595, 507.125 297.426, 514 295.471 C 521.588 293.314, 531.289 289.568, 538.688 285.938 C 549.747 280.513, 551.553 279.231, 558.188 272.090 C 568.205 261.309, 569.261 260.878, 587.976 259.923 C 600.362 259.292, 605.926 258.498, 615.500 255.998 C 622.100 254.274, 631.100 252.240, 635.500 251.477 C 639.900 250.715, 644.573 249.777, 645.884 249.394 C 647.679 248.869, 648.155 249.043, 647.809 250.098 C 647.557 250.869, 643.559 252.557, 638.925 253.849 C 634.291 255.141, 625.714 257.935, 619.864 260.059 C 606.980 264.736, 599.825 265.983, 585.815 265.992 C 579.938 265.997, 573.882 266.474, 572.357 267.054 C 570.832 267.634, 565.515 272.022, 560.542 276.805 C 552.888 284.166, 549.734 286.386, 540 291.261 C 533.474 294.530, 524.391 298.121, 519 299.562 C 505.144 303.268, 494.119 306.863, 489.036 309.332 C 485.328 311.133, 484.420 312.144, 483.674 315.304 C 483.180 317.397, 483.039 319.372, 483.361 319.694 C 483.683 320.016, 488.796 317.564, 494.723 314.245 C 506.095 307.877, 509.789 306.564, 519.500 305.438 C 532.670 303.911, 544.309 298.938, 562.586 287.028 C 575.800 278.418, 582.036 276.379, 599.317 275.021 C 614.550 273.823, 621.861 272.241, 634.205 267.474 C 657.497 258.479, 671.746 249.120, 681.723 236.264 C 686.605 229.973, 697.401 217.164, 705.896 207.585 C 711.814 200.911, 717.128 190.773, 717.355 185.727 C 717.493 182.664, 717.326 182.508, 714.092 182.665 C 712.218 182.755, 706.900 184.705, 702.274 186.997 C 694.188 191.004, 690.452 194.079, 681.416 204.166 C 677.281 208.782, 665.415 217.241, 651.711 225.343 C 630.410 237.937, 607.305 242.285, 594.628 236.086 C 584.537 231.151, 583.318 218.705, 590.802 197 C 592.983 190.675, 595.077 183.925, 595.455 182 C 597.203 173.105, 597.738 172.398, 607.839 165.608 C 613.193 162.010, 620.482 156.544, 624.037 153.462 C 627.591 150.380, 634.282 145.537, 638.904 142.699 C 647.356 137.512, 650.989 133.470, 650.996 129.250 C 651 126.832, 650.175 126.577, 643.500 126.935 C 636.249 127.324, 627.672 130.071, 614.957 136.076 C 602.912 141.765, 597.839 143.027, 593.582 141.393 C 591.070 140.429, 591.715 137.228, 595.750 130.631 L 599.500 124.500 599.500 108 C 599.500 89.307, 599.456 89.454, 607.999 79.500 C 610.831 76.200, 616.885 68.550, 621.452 62.500 C 631.596 49.064, 638.764 42.158, 646.751 38.126 C 655.019 33.952, 673.573 28.493, 684.500 27.020 C 689.450 26.353, 697.325 24.996, 702 24.005 C 706.675 23.015, 714.771 21.891, 719.991 21.508 C 725.211 21.125, 730.274 20.389, 731.241 19.871 C 734.358 18.203, 733.309 14.540, 728.426 10.038 C 720.405 2.645, 712.459 0.566, 698.247 2.142 M 101.406 11.393 C 95.792 15.195, 80.745 31.048, 70.931 43.500 C 53.425 65.711, 52.403 66.731, 38.427 75.930 C 32.232 80.008, 29.738 83.516, 26.612 92.549 C 25.289 96.372, 22.817 102.200, 21.119 105.500 C 19.318 109, 17.589 114.417, 16.970 118.500 C 16.386 122.350, 15.005 128.554, 13.901 132.287 C 12.232 137.928, 11.738 143.824, 10.975 167.224 C 9.709 206.030, 8.836 213.588, 4.391 224.220 C 0.274 234.067, 1.393 239.607, 8.367 243.918 C 12.567 246.514, 15.151 246.529, 22.500 244 C 32.828 240.447, 38.750 241.547, 66.396 252.154 C 88.540 260.651, 90.577 261.171, 116.500 264.942 C 135.331 267.681, 155.509 271.637, 160.250 273.519 C 163.018 274.618, 162.310 272.391, 158.869 269.175 C 156.324 266.796, 154.522 266.125, 149.230 265.583 C 145.650 265.216, 139.646 263.841, 135.888 262.528 C 132.129 261.215, 124.695 259.620, 119.367 258.984 C 114.039 258.348, 105.364 256.548, 100.090 254.985 C 94.815 253.422, 84.875 250.729, 78 249 C 65.906 245.960, 56.197 242.469, 57.159 241.508 C 58.594 240.073, 95.846 246.878, 98.557 249.070 C 100.543 250.676, 111.411 253, 116.960 253.006 C 125.148 253.014, 133.162 254.560, 139.172 257.290 C 145.689 260.251, 151.982 262.351, 152.572 261.762 C 152.812 261.521, 152.533 259.958, 151.950 258.287 C 151.044 255.687, 150.072 255.038, 145.196 253.776 C 131.505 250.232, 117.056 245.420, 117.344 244.500 C 117.803 243.034, 127.728 242.701, 131.369 244.030 C 133.091 244.659, 137.755 245.971, 141.734 246.945 L 148.967 248.717 148.364 246.109 C 147.533 242.519, 145.885 241.437, 139.232 240.110 C 136.079 239.482, 132.825 238.516, 132 237.965 C 130.705 237.099, 130.773 236.754, 132.497 235.440 C 133.999 234.295, 135.798 234.081, 139.747 234.574 C 144.216 235.132, 145 234.986, 145 233.590 C 145 229.739, 132.464 227.409, 120.544 229.046 C 113.208 230.053, 109.522 230.061, 102.418 229.084 C 97.513 228.410, 87.121 227.501, 79.325 227.065 C 62.494 226.124, 59.767 225.013, 56.080 217.601 C 54.140 213.700, 53.574 210.729, 53.225 202.617 C 52.587 187.746, 55.605 152.012, 58.630 138.641 C 60.016 132.513, 61.812 122.100, 62.621 115.500 C 65.121 95.097, 66.358 92.278, 78.779 78.680 C 87.740 68.870, 90.616 64.056, 95.402 50.856 C 97.267 45.710, 101.786 35.438, 105.443 28.028 C 112.802 13.122, 113.590 8.733, 109 8.221 C 107.453 8.049, 104.558 9.258, 101.406 11.393 M 691 12.602 C 687.425 13.303, 682.008 13.904, 678.962 13.938 C 675.282 13.979, 671.954 14.755, 669.044 16.250 C 660.318 20.732, 664.700 21.202, 689.409 18.432 C 711.446 15.962, 716.407 13.210, 701.500 11.726 C 699.300 11.507, 694.575 11.901, 691 12.602 M 465.962 17.546 C 463.775 20.181, 464.734 25.946, 468.377 32.061 C 470.374 35.414, 474.611 46.501, 478.540 58.656 C 482.245 70.120, 487.127 83.550, 489.388 88.500 L 493.500 97.500 493.481 110 C 493.464 121.674, 493.222 123.227, 489.819 133.500 C 486.191 144.455, 480.885 162.555, 476.392 179.301 C 474.818 185.170, 472.592 190.334, 469.713 194.801 C 462.859 205.435, 454.075 222.430, 451.461 230.114 C 448.417 239.063, 441.002 272.825, 440.994 277.768 C 440.986 283.224, 439.152 289, 437.428 289 C 432.387 289, 428.869 255.437, 432.652 243.436 C 434.228 238.435, 434.205 237.698, 432.160 227.348 C 430.982 221.381, 429.537 211.325, 428.951 205 C 428.364 198.675, 426.795 188.775, 425.463 183 C 424.131 177.225, 422.345 168, 421.495 162.500 C 419.539 149.847, 411.519 125.831, 404.466 111.500 C 397.802 97.961, 389.090 86.254, 373.700 70.153 C 359.371 55.163, 339.418 37.143, 336.273 36.354 C 333.845 35.744, 331 37.418, 331 39.457 C 331 40.941, 337.979 51.015, 342.890 56.620 C 344.875 58.886, 349.402 66.311, 352.948 73.120 C 356.494 79.929, 361.532 89.020, 364.142 93.322 C 372.414 106.958, 373.002 110.547, 371.545 138.500 C 370.542 157.734, 371.194 160.744, 380.090 177.893 L 386 189.287 385.999 208.393 C 385.998 218.902, 385.456 238.300, 384.794 251.500 C 384.131 264.700, 383.569 281.800, 383.545 289.500 C 383.484 308.502, 384.021 309.616, 401.241 326.250 C 408.501 333.262, 414.567 339, 414.721 339 C 414.874 339, 415 337.953, 415 336.674 C 415 334.273, 418.722 330, 420.814 330 C 422.444 330, 422.339 331.082, 419.619 342.326 L 417.241 352.153 419.620 353.237 C 423.411 354.964, 426.748 352.891, 427.576 348.296 C 427.953 346.208, 428.626 344.036, 429.072 343.468 C 429.518 342.900, 430.340 338.787, 430.900 334.328 C 431.943 326.007, 436.020 317, 438.743 317 C 439.434 317, 440 317.202, 440 317.449 C 440 319.543, 435.578 339.867, 434.006 345 C 431.536 353.065, 431.533 353.645, 433.963 354.280 C 436.589 354.967, 437.375 353.831, 440.912 344.240 C 445.329 332.259, 447.035 320.501, 448.419 292.500 C 449.246 275.772, 450.095 266.673, 450.985 265 C 451.717 263.625, 454.491 260.053, 457.148 257.062 C 463.005 250.469, 463.722 247.396, 462.089 235.864 C 460.210 222.582, 461.774 219.024, 473.148 210.718 C 477.664 207.420, 480.720 201.285, 481.602 193.750 C 481.973 190.588, 482.633 188, 483.070 188 C 484.543 188, 485.176 192.082, 484.513 197.308 C 483.560 204.825, 479.833 211.884, 474.437 216.392 C 468.135 221.658, 466.619 225.486, 467.961 232.745 C 470.483 246.388, 468.959 252.380, 460.606 261.671 C 458.100 264.458, 455.589 267.951, 455.025 269.434 C 454.461 270.917, 454 278.644, 454 286.605 C 454 312.474, 451.095 330.874, 444.969 343.812 C 441.836 350.427, 441.387 352.021, 442.766 351.616 C 443.720 351.336, 446.172 350.810, 448.216 350.448 C 450.542 350.036, 452.148 349.110, 452.509 347.971 C 452.827 346.970, 454.151 344.582, 455.452 342.665 C 458.683 337.905, 459.991 328.658, 460.993 303.500 C 461.473 291.434, 462.359 281.041, 463.075 279.071 C 463.760 277.185, 467.371 269.760, 471.098 262.571 C 476.608 251.946, 478.348 247.402, 480.399 238.287 C 481.787 232.119, 484.494 223.278, 486.414 218.639 C 488.334 214, 491.022 206.221, 492.386 201.352 C 493.751 196.484, 496.744 185.750, 499.037 177.500 C 501.331 169.250, 505.894 155.581, 509.177 147.124 C 519.039 121.721, 520.951 111.111, 516.998 103.735 C 515.897 101.681, 515.334 100.007, 515.748 100.015 C 517.282 100.047, 518.768 101.593, 520.487 104.944 C 523.634 111.085, 522.176 123.471, 516.005 143 C 513.138 152.075, 508.359 167.825, 505.385 178 C 498.411 201.859, 495.550 210.564, 491.251 221 C 489.326 225.675, 486.240 235.350, 484.395 242.500 C 481.804 252.535, 479.555 258.385, 474.530 268.150 C 467.476 281.858, 466.064 287.471, 466.014 302 C 466 306.125, 465.341 313.775, 464.551 319 C 463.761 324.225, 462.804 330.525, 462.426 333 L 461.739 337.500 465.146 334.270 C 470.325 329.361, 471.955 323.621, 473.491 304.895 C 474.909 287.605, 476.415 282.011, 482.490 271.487 C 483.764 269.280, 485.582 264.780, 486.531 261.487 C 487.480 258.194, 489.282 253.460, 490.535 250.967 C 491.789 248.473, 493.375 243.523, 494.060 239.967 C 494.847 235.886, 497.999 227.965, 502.603 218.500 C 511.820 199.551, 522.130 169.922, 526.034 151.163 C 527.675 143.278, 529.914 133.405, 531.009 129.225 C 532.104 125.044, 532.994 119.121, 532.988 116.062 C 532.969 107.874, 526.802 86.803, 522.140 79 C 521.319 77.625, 518.787 73.575, 516.515 70 C 514.243 66.425, 509.502 58.155, 505.979 51.621 C 499.966 40.469, 498.908 39.137, 488.666 29.830 C 474.660 17.102, 468.912 13.992, 465.962 17.546 M 624.284 25.856 C 614.754 34.249, 611.432 36.016, 603.285 37.027 C 599.791 37.460, 595.827 38.539, 594.476 39.424 C 590.889 41.774, 580.312 54.725, 577.389 60.346 C 571.127 72.388, 568.120 96.159, 569.817 120.214 C 570.967 136.517, 570.527 141.445, 567.187 149.677 C 564.897 155.322, 562.492 168.203, 561.526 180 C 558.878 212.343, 556.204 226.193, 550.027 239.562 C 547.883 244.203, 546.334 248, 546.585 248 C 546.835 248, 549.126 244.776, 551.675 240.835 C 559.520 228.708, 563.673 212.986, 566.461 184.856 C 568.340 165.894, 569.098 161.798, 572.628 151.500 C 575.326 143.631, 575.368 143.141, 575.162 121.482 C 574.932 97.242, 576.558 80.231, 580.119 69.629 C 582.295 63.152, 591.334 49.670, 596.602 45.044 C 598.772 43.139, 601.363 42.077, 605.025 41.591 C 607.933 41.205, 611.705 40.176, 613.406 39.304 C 616.658 37.638, 634 21.229, 634 19.819 C 634 17.915, 631.625 19.390, 624.284 25.856 M 198.955 29.704 C 194.470 34.813, 191.474 41.816, 188.994 52.993 C 187.802 58.361, 185.554 64.879, 183.820 67.993 C 168.658 95.214, 164.652 105.330, 155.048 140.658 C 147.235 169.393, 144.902 186.702, 146.982 200.500 C 148.577 211.079, 158.476 250.085, 160.619 254.235 C 163.712 260.226, 172.248 273.457, 175.305 277 C 176.966 278.925, 180.979 282.193, 184.223 284.263 C 187.467 286.332, 195.606 292.197, 202.310 297.296 C 209.015 302.394, 219.643 309.476, 225.929 313.033 C 239.349 320.626, 249.574 330.005, 255.330 340 C 259.236 346.783, 268.771 359.132, 270.500 359.646 C 271.050 359.809, 272.994 358.704, 274.820 357.190 L 278.141 354.436 274.295 347.968 C 272.179 344.411, 269.785 340.190, 268.974 338.590 C 265.889 332.500, 241.154 311.295, 223.064 299.232 C 203.385 286.109, 193.850 278.720, 186.330 270.760 C 172.653 256.286, 163.310 234.141, 159.471 207.100 C 157.240 191.390, 157.909 174.948, 161.385 160 C 164.585 146.244, 169.570 128.097, 170.368 127.298 C 172.106 125.561, 171.914 128.893, 169.628 140.151 C 164.930 163.290, 163.720 174.414, 164.317 189 C 164.921 203.777, 167.681 221.578, 171.061 232.500 C 176.286 249.382, 186.304 265.182, 198.109 275.161 C 203.586 279.791, 224 293.386, 224 292.404 C 224 291.341, 218.414 284.362, 211.905 277.292 C 208.254 273.328, 204.533 268.535, 203.634 266.641 C 201.913 263.014, 201.377 254, 202.883 254 C 203.368 254, 204.929 256.362, 206.351 259.250 C 207.773 262.137, 213.520 270.125, 219.121 277 C 224.723 283.875, 230.369 291.805, 231.668 294.623 C 233.488 298.570, 235.695 301.021, 241.284 305.302 C 245.274 308.358, 253.578 316.016, 259.739 322.321 C 269.721 332.536, 271.394 334.775, 275.112 342.892 C 277.407 347.901, 279.585 352, 279.951 352 C 280.318 352, 281.383 351.437, 282.318 350.750 C 283.876 349.605, 283.470 348.204, 277.462 334 C 273.856 325.475, 270.194 317.150, 269.324 315.500 C 266.347 309.852, 262.978 297.502, 262.357 289.960 C 261.627 281.101, 263.220 274.485, 268.702 263.599 C 270.647 259.738, 272.879 254.761, 273.662 252.539 C 275.241 248.063, 286.872 230, 288.175 230 C 289.643 230, 289.068 231.915, 285.435 239.128 C 283.475 243.021, 280.499 250.098, 278.821 254.853 C 277.144 259.609, 274.461 266.099, 272.859 269.275 C 268.793 277.335, 266.669 286.236, 267.461 291.887 C 268.337 298.134, 269.515 301.732, 274.638 313.809 C 277.044 319.478, 280.594 328.703, 282.527 334.309 C 284.461 339.914, 286.243 345.060, 286.488 345.744 C 286.833 346.708, 287.502 346.728, 289.466 345.833 C 292.701 344.360, 292.647 343.483, 288.988 338 C 285.430 332.669, 282.513 325.236, 281.530 319 C 281.139 316.525, 279.467 309.100, 277.812 302.500 C 275.460 293.115, 274.911 289.084, 275.294 284 C 275.975 274.951, 281.353 263.579, 288.489 256.097 C 296.981 247.194, 297.033 246.977, 300.961 204 C 301.489 198.225, 302.051 184.725, 302.211 174 L 302.500 154.500 298.823 147 C 296.800 142.875, 291.971 134.606, 288.092 128.623 C 284.212 122.641, 281.300 117.324, 281.619 116.807 C 282.353 115.620, 281.575 114.737, 292.031 128.637 C 302.043 141.947, 306.399 150.004, 307.793 157.788 C 308.988 164.455, 307.653 199.188, 305.576 215.500 C 304.736 222.100, 303.606 231.419, 303.065 236.209 C 301.930 246.271, 300.259 250.001, 292.824 259.065 C 282.187 272.033, 279.059 284.046, 282.375 299.205 C 283.252 303.217, 284.667 311, 285.520 316.500 C 286.658 323.846, 288.109 328.689, 290.988 334.750 C 293.144 339.288, 295.183 343, 295.520 343 C 295.856 343, 297.002 342.534, 298.066 341.965 C 301.081 340.351, 300.637 329.777, 296.862 313.243 C 294.639 303.505, 293.692 296.731, 293.612 290 L 293.500 280.500 300.129 266.500 C 317.016 230.838, 319.725 220.698, 318.685 197.036 C 317.815 177.217, 316.015 155.025, 314.945 150.914 C 314.431 148.941, 312.298 144.666, 310.204 141.414 C 308.110 138.161, 305.017 132.575, 303.332 129 C 299.411 120.685, 292.702 111.595, 281.481 99.395 C 267.515 84.209, 261.229 80.691, 258.888 86.750 C 257.009 91.614, 258.565 97.627, 265.360 111.763 C 271.794 125.148, 272.001 125.829, 273.442 138.319 C 274.305 145.803, 276.082 154.751, 277.711 159.819 C 280.333 167.979, 280.498 169.550, 280.473 186 C 280.447 201.981, 280.205 204.366, 277.685 213.481 C 276.167 218.971, 273.208 226.644, 271.110 230.534 C 267.476 237.271, 264.689 244.884, 260.117 260.559 C 257.758 268.649, 255.035 273.079, 249.868 277.236 C 244.611 281.466, 239.274 281.937, 233.688 278.663 C 226.547 274.478, 220.876 266.997, 208.168 245 C 195.260 222.655, 195.810 224.111, 194.878 209.818 C 194.346 201.666, 192.927 192.194, 191.024 184.104 C 186.312 164.066, 186.084 160.864, 187.595 136.110 C 189.077 111.839, 189.888 105.963, 193.538 93 C 194.854 88.325, 196.840 79.093, 197.949 72.485 C 199.238 64.811, 201.282 57.224, 203.606 51.485 C 211.135 32.892, 208.204 19.170, 198.955 29.704 M 603.500 54.074 C 593.895 58.841, 590.010 62.730, 587 70.593 C 584.855 76.194, 584.724 78.081, 584.470 107 L 584.202 137.500 586.082 133.380 C 588.672 127.704, 590.080 113.332, 589.793 95.500 C 589.576 81.998, 589.773 79.945, 591.774 74.947 C 594.950 67.011, 597.872 63.499, 606.442 57.319 C 613.619 52.143, 615.535 49.936, 612.750 50.052 C 612.063 50.081, 607.900 51.891, 603.500 54.074 M 70.159 67.372 C 68.492 70.326, 63.980 76.138, 60.133 80.287 C 51.486 89.613, 49.886 92.644, 48.937 101.500 C 46.935 120.183, 43.792 146.178, 42.831 152 C 41.129 162.311, 40.710 183.678, 41.895 199.729 C 42.915 213.535, 44.811 227.522, 45.562 226.772 C 45.743 226.590, 46.134 211.286, 46.430 192.763 C 46.888 164.078, 47.329 156.670, 49.405 142.793 C 50.745 133.832, 52.568 120.650, 53.457 113.500 C 54.345 106.350, 55.294 99.078, 55.565 97.340 C 55.842 95.559, 58.943 90.322, 62.671 85.340 C 68.870 77.054, 74.997 66.075, 74.999 63.250 C 75.001 60.579, 73.061 62.231, 70.159 67.372 M 391.476 124.750 C 391.855 125.713, 393.052 130.550, 394.136 135.500 C 397.409 150.446, 408.370 185.090, 413.636 197.132 C 418.561 208.394, 419.254 215.593, 417.971 242.145 C 416.828 265.779, 417.325 274.195, 420.678 288 C 422.152 294.071, 425.730 302.627, 426.467 301.847 C 426.648 301.656, 425.874 297, 424.748 291.500 C 423.015 283.036, 422.755 278.659, 423.049 263 C 423.722 227.196, 423.301 208.833, 421.685 203.500 C 418.489 192.959, 404.162 152.243, 401.803 147 C 400.442 143.975, 398.529 138.575, 397.551 135 C 396.573 131.425, 395.138 127.263, 394.361 125.750 C 392.815 122.740, 390.346 121.884, 391.476 124.750 M 36.514 126.935 C 36.160 128.549, 34.389 133.386, 32.580 137.685 C 30.771 141.983, 28.998 147.525, 28.641 150 C 27.506 157.864, 27.730 202.115, 28.941 209.408 C 30.876 221.057, 32.131 226.037, 32.996 225.503 C 33.451 225.222, 33.577 212.731, 33.276 197.746 C 32.677 167.934, 33.789 150.727, 37.052 139.318 C 39.097 132.167, 39.645 124, 38.079 124 C 37.573 124, 36.869 125.321, 36.514 126.935 M 386.543 149.917 C 385.191 152.532, 385.201 153.335, 386.640 157.667 C 389.208 165.393, 391.890 171, 393.018 171 C 395.172 171, 395.203 167.619, 393.120 159.681 C 391.939 155.182, 390.979 150.488, 390.986 149.250 C 391.006 146.034, 388.344 146.433, 386.543 149.917 M 588.182 154.519 C 582.309 157.070, 578.793 160.213, 576.819 164.676 C 575.106 168.550, 574.912 171.184, 575.085 188.268 C 575.296 209.091, 573.998 219.609, 569.446 233.957 C 568.145 238.059, 567.244 241.578, 567.444 241.777 C 568.023 242.356, 573.634 233.811, 575.312 229.797 C 578.217 222.843, 579.896 210.427, 580.491 191.500 C 580.820 181.050, 581.338 170.785, 581.642 168.689 C 582.207 164.808, 586.144 159.955, 592.500 155.306 C 595.053 153.438, 595.202 153.109, 593.500 153.095 C 592.400 153.086, 590.007 153.727, 588.182 154.519 M 173.053 189.750 C 170.984 197.200, 171.768 204.186, 176 216 C 178.200 222.141, 180 227.832, 180 228.645 C 180 233.859, 190.616 249, 194.272 249 C 195.502 249, 195.106 247.757, 192.491 243.415 C 186.387 233.279, 178.180 207.001, 176.511 192.250 C 176.122 188.813, 175.419 186, 174.949 186 C 174.479 186, 173.625 187.688, 173.053 189.750 M 17.523 210.974 C 15.929 212.736, 15.884 213.303, 17.107 216.224 C 17.860 218.026, 18.519 219.725, 18.570 220 C 19.221 223.496, 20.481 226, 21.589 226 C 23.642 226, 24.294 221.829, 23.015 216.884 C 20.652 207.748, 20.546 207.634, 17.523 210.974 M 404.891 229.750 C 402.861 235.024, 401 247.234, 401 255.290 C 401 268.286, 406.463 289.908, 413.308 304 C 419.095 315.916, 419.195 311.912, 413.605 292.049 C 407.298 269.635, 406.925 266.868, 407.357 245.677 C 407.726 227.553, 407.156 223.869, 404.891 229.750 M 394.486 287.380 C 392.503 292.126, 392.554 292.541, 395.846 298.419 C 397.411 301.214, 398.970 304.637, 399.309 306.027 C 400 308.855, 406.589 317, 408.186 317 C 409.707 317, 408.411 312.676, 403.989 303 C 400.747 295.904, 398.294 288.417, 398.176 285.252 C 398.162 284.866, 397.660 284.387, 397.061 284.187 C 396.462 283.987, 395.303 285.424, 394.486 287.380 M 120.144 297.327 C 118.016 299.890, 116 305.976, 116 309.834 C 116 311.978, 117.129 319.722, 118.508 327.042 C 122.086 346.031, 124.271 349.159, 141.752 360.328 C 158.016 370.720, 163.381 378.445, 171.068 402.537 C 180.967 433.560, 183.575 438.557, 191.819 442.297 C 195.925 444.159, 198.962 444.486, 216.548 444.960 C 239.270 445.572, 241.145 446.125, 242.928 452.746 C 249.640 477.668, 250.251 479, 254.964 479 C 258.935 479, 260.498 480.852, 262.335 487.735 C 265.166 498.338, 264.190 505.883, 257.978 521.396 C 255.250 528.210, 255 529.845, 255 540.894 C 255 551.414, 254.672 553.819, 252.435 559.727 C 248.885 569.098, 249.112 574.927, 253.698 592.188 C 257.210 605.410, 257.494 607.490, 257.423 619.500 C 257.367 628.901, 256.744 635.244, 255.173 642.409 C 251.796 657.809, 252.310 661.263, 259.835 673.738 C 265.394 682.955, 268.415 691.424, 273.481 712 C 282.734 749.576, 283.797 752.946, 289.729 763.500 C 292.820 769, 297.408 776.422, 299.925 779.992 C 311.810 796.857, 313.627 800.674, 314.209 810 C 314.936 821.635, 313.952 820.398, 343 846.205 C 353.708 855.719, 361.679 865.068, 365.493 872.587 C 366.912 875.385, 368.950 882.030, 370.021 887.354 C 373.587 905.084, 381.708 931.244, 391.020 955 C 401.722 982.302, 401.911 982.702, 407.652 990.183 C 412.558 996.575, 416.483 1000, 418.903 1000 C 419.802 1000, 422.759 998.163, 425.476 995.918 C 428.193 993.673, 431.763 991.140, 433.410 990.288 C 435.056 989.437, 438.900 987.047, 441.952 984.979 C 445.003 982.910, 454.925 977.513, 464 972.986 C 482.603 963.705, 493.197 956.826, 497.899 950.976 C 499.659 948.786, 502.920 942.619, 505.145 937.272 C 512.538 919.509, 517.960 913.618, 539.086 900.392 C 554.188 890.938, 562.526 884.415, 570.725 875.642 C 577.927 867.934, 579.229 864.424, 580.976 848 C 582.665 832.113, 583.883 829.301, 593.567 818.928 C 606.854 804.696, 608.533 800.714, 615.001 768.092 C 619.727 744.255, 620.613 736.352, 621.514 710 C 622.241 688.718, 621.453 681.016, 616.347 659.500 C 611.917 640.833, 610.960 637.869, 608.609 635.518 C 606.428 633.337, 605.632 633.239, 589.417 633.167 C 560.578 633.037, 546.999 632.428, 533.149 630.644 C 519.146 628.840, 518.661 628.864, 497 632.405 C 491.775 633.259, 482.537 634.643, 476.472 635.481 C 469.859 636.394, 462.327 638.204, 457.658 640.002 C 453.376 641.651, 448.889 642.988, 447.686 642.973 C 445.724 642.949, 445.858 642.641, 449 639.964 C 453.348 636.260, 463.986 631.001, 467.143 630.996 C 470.883 630.990, 475.987 627.275, 477.619 623.370 C 478.443 621.398, 478.867 619.534, 478.561 619.228 C 478.255 618.922, 473.842 620.101, 468.753 621.848 C 463.664 623.595, 458.643 625.018, 457.595 625.012 C 455.764 625, 455.760 624.923, 457.469 623.034 C 459.201 621.120, 469.235 615.866, 477.697 612.442 C 480.738 611.212, 482.185 609.909, 482.951 607.710 C 483.533 606.041, 483.804 604.470, 483.553 604.219 C 483.302 603.968, 478.930 605.450, 473.837 607.512 C 462.794 611.983, 459 613.143, 459 612.047 C 459 610.521, 466.504 604.448, 470.007 603.138 C 478.119 600.106, 485.232 596.436, 486.085 594.841 C 486.588 593.901, 487 591.716, 487 589.986 C 487 586.961, 486.876 586.868, 483.750 587.543 C 481.962 587.928, 478.925 589.039, 477 590.010 C 475.075 590.981, 471.816 592.239, 469.758 592.805 C 460.661 595.307, 466.883 588.842, 478.750 583.462 C 483.288 581.405, 487 579.626, 487 579.510 C 487 579.394, 486.511 577.894, 485.912 576.178 L 484.825 573.058 477.998 576.779 C 474.243 578.826, 470.807 580.137, 470.362 579.693 C 469.285 578.619, 471.989 573.979, 474.496 572.599 C 479.222 569.996, 482 567.778, 482 566.604 C 482 565.912, 478.310 559.305, 473.801 551.922 C 460.802 530.644, 457.408 523.459, 450.469 502.522 C 444.039 483.118, 443.979 482.837, 445.929 481.179 C 448.968 478.597, 457.820 460.254, 459.026 454.040 C 459.617 450.993, 460.416 446.940, 460.801 445.034 C 461.827 439.947, 465.887 437.718, 477.983 435.601 C 502.983 431.225, 520.087 420.929, 524.998 407.300 C 526.226 403.891, 528 400.405, 528.940 399.555 C 529.879 398.704, 535.093 396.200, 540.525 393.990 C 554.912 388.136, 556.129 386.706, 560.393 370.643 C 562 364.589, 564.409 358.519, 566.636 354.911 C 569.545 350.197, 570.409 347.599, 571.005 341.768 C 571.518 336.760, 572.562 333.101, 574.362 330 C 578.841 322.289, 577.650 318.151, 570.205 315.555 C 560.132 312.042, 551.577 312.540, 533.500 317.693 C 505.516 325.669, 483.892 337.360, 455 360.135 C 445.961 367.259, 440.942 369.363, 432.912 369.390 C 426.823 369.410, 425.270 368.906, 412.412 362.744 C 404.760 359.077, 396.329 355.547, 393.675 354.901 C 385.990 353.028, 377.433 354.350, 365.785 359.209 C 356.997 362.875, 354.481 363.500, 348.500 363.500 C 342.434 363.500, 340.366 362.970, 333 359.526 C 325.124 355.844, 323.876 355.556, 316 355.612 C 305.201 355.687, 294.778 359.092, 274.968 369.016 C 267.168 372.923, 260.640 375.973, 260.460 375.794 C 259.727 375.060, 251.425 362.890, 245.509 353.874 C 242.035 348.580, 237.613 343.044, 235.682 341.571 C 233.752 340.099, 227.071 336.733, 220.836 334.092 C 214.601 331.450, 205.336 327.194, 200.247 324.633 C 179.967 314.428, 169.887 311.149, 155.303 310.013 C 142.022 308.978, 137.366 307.176, 131.042 300.621 C 126.413 295.823, 122.399 294.610, 120.144 297.327 M 153 326.448 C 163.396 328.983, 189.238 337.950, 193.867 340.628 C 199.259 343.749, 205.957 348.688, 207.750 350.864 C 208.483 351.755, 209.009 355.302, 209.022 359.441 C 209.059 371.358, 213.118 377.218, 226.132 384.148 C 234.343 388.520, 238.539 392.769, 239.304 397.489 C 239.931 401.351, 238.948 408.310, 237.042 413.500 C 236.436 415.150, 235.721 417.119, 235.454 417.876 C 235.124 418.805, 234.080 418.086, 232.233 415.661 C 230.730 413.686, 226.073 408.342, 221.884 403.785 C 217.695 399.228, 213.521 394.038, 212.608 392.250 C 209.679 386.513, 207.200 389.314, 209.068 396.251 C 209.873 399.243, 212.230 402.344, 218.165 408.224 C 222.570 412.588, 225.988 416.345, 225.761 416.573 C 224.902 417.431, 208.430 410.838, 206.886 409.017 C 205.998 407.970, 204.503 404.052, 203.563 400.310 C 201.583 392.427, 195.175 377, 193.881 377 C 191.889 377, 193.438 386.673, 197.718 400.966 C 199.112 405.622, 200.758 410.273, 201.376 411.301 C 202.934 413.893, 210.763 417.802, 222 421.599 C 232.346 425.095, 231.569 425.441, 216.642 423.990 C 204.721 422.830, 199.861 420.504, 195.375 413.812 C 193.537 411.069, 191.586 406.207, 190.637 402.003 C 189.168 395.499, 184.574 386.093, 175.823 371.672 C 172.139 365.602, 163.288 356.940, 153 349.337 C 143.983 342.674, 137.570 336.548, 133.802 331 C 132.322 328.820, 132.098 328.745, 132.052 330.412 C 131.943 334.388, 138.429 342.122, 150.471 352.377 C 158.006 358.794, 164.564 365.357, 167.280 369.199 C 173.241 377.633, 183.672 398.326, 184.985 404.325 C 186.407 410.814, 190.101 417.810, 194.161 421.699 C 199.596 426.905, 205.156 428.758, 218.943 429.955 C 226.492 430.610, 231.994 431.564, 232.940 432.382 C 233.798 433.123, 236.250 433.997, 238.388 434.324 C 243.140 435.051, 248.782 438.854, 251.606 443.234 C 265.750 465.165, 265.290 464.840, 279.594 463.039 C 289.694 461.768, 292.126 462.295, 299.610 467.381 C 303.943 470.325, 305.325 469.986, 303.931 466.320 C 301.554 460.067, 283.549 440.616, 276.046 436.195 C 270.852 433.135, 263.326 432.746, 258.416 435.285 C 255.449 436.819, 255.230 436.760, 248.045 432.461 C 244.009 430.045, 240.216 427.905, 239.616 427.705 C 238.894 427.465, 239.449 423.782, 241.263 416.783 C 246.935 394.897, 243.987 385.921, 228.949 379.294 C 223.081 376.708, 217.066 371.402, 215.351 367.298 C 214.608 365.519, 214 361.327, 214 357.982 C 214 354.515, 213.351 350.646, 212.490 348.981 C 210.786 345.686, 201.506 339.037, 193.488 335.366 C 185.727 331.813, 161.571 325.707, 154 325.384 L 147.500 325.107 153 326.448 M 533.500 334.369 C 518.017 341.172, 515.752 342.365, 508.289 347.649 C 500.404 353.230, 494.825 361.017, 491.451 371.146 C 489.235 377.800, 487.930 379.967, 483.525 384.306 C 477.499 390.242, 476.314 392.340, 472.563 403.723 C 470.255 410.728, 469.146 412.580, 465.080 416.223 C 461.075 419.811, 458.871 420.865, 451.403 422.766 C 446.506 424.013, 437.969 427.243, 432.431 429.946 C 414.809 438.544, 405.973 450.602, 405.645 466.500 C 405.509 473.049, 405.645 473.521, 407.750 473.820 C 409.815 474.113, 410.001 473.742, 410.015 469.320 C 410.039 461.888, 410.803 461.268, 417.244 463.457 C 424.259 465.842, 428.899 464.990, 434.001 460.380 C 438.860 455.990, 441.656 450.194, 442.558 442.638 C 443.101 438.095, 443.961 435.975, 446.378 433.223 C 449.739 429.395, 457.073 425.700, 463.500 424.598 C 468.817 423.686, 491.561 417.522, 501.174 414.388 C 512.194 410.796, 516.673 406.518, 523.047 393.499 C 525.834 387.807, 528.831 382.554, 529.708 381.825 C 530.585 381.096, 534.272 378.894, 537.901 376.932 C 546.701 372.174, 550.558 366.592, 555.565 351.367 C 557.681 344.935, 560.444 338.151, 561.706 336.292 C 564.137 332.709, 564.584 331, 563.089 331 C 561.016 331, 556.314 338.240, 550.749 350 C 543.566 365.180, 541.272 368.322, 535.081 371.459 C 527.895 375.101, 524.377 378.503, 521.551 384.546 C 514.528 399.562, 513.893 400.574, 509.350 404 C 506.797 405.925, 503.762 407.883, 502.604 408.352 C 498.540 409.998, 487.648 412.954, 488.569 412.161 C 489.081 411.720, 492.650 409.060, 496.500 406.249 C 506.718 398.791, 511.387 393.515, 515.921 384.306 C 518.140 379.799, 521.585 374.481, 523.578 372.489 C 527.561 368.506, 527.573 367.567, 523.630 368.557 C 519.562 369.578, 513.589 376.086, 509.395 384.068 C 505.735 391.033, 496.374 402, 494.089 402 C 493.493 402, 490.754 403.617, 488.002 405.594 C 485.251 407.570, 483 408.793, 483 408.310 C 483 407.827, 487.279 402.947, 492.508 397.466 C 500.194 389.409, 502.574 386.164, 504.928 380.525 C 506.530 376.689, 507.602 373.165, 507.310 372.693 C 506.518 371.411, 501.202 376.789, 497.285 382.835 C 495.385 385.770, 493.080 388.940, 492.165 389.882 C 491.249 390.823, 487.913 394.410, 484.750 397.853 C 481.587 401.297, 479.010 403.526, 479.022 402.807 C 479.072 399.833, 483.439 392.150, 488.176 386.705 C 490.958 383.506, 494.101 378.607, 495.161 375.819 C 498.194 367.835, 500.795 363.234, 504.793 358.780 C 508.831 354.282, 521.657 345.637, 537.750 336.566 C 547.167 331.258, 549.961 328.925, 546.750 329.048 C 546.063 329.075, 540.100 331.469, 533.500 334.369 M 153 336.768 C 153 339.413, 158.751 345.352, 163.790 347.911 C 166.930 349.506, 170.850 352.245, 172.500 353.998 C 174.150 355.751, 177.188 358.532, 179.250 360.177 C 182.567 362.823, 183 362.947, 183 361.255 C 183 355.833, 173.853 346.760, 161.154 339.585 C 154.752 335.968, 153 335.363, 153 336.768 M 218.293 345.419 C 219.158 350.747, 221.721 353.749, 229.074 358.043 C 232.811 360.226, 236.120 362.802, 236.427 363.768 C 236.733 364.735, 239.666 368.445, 242.945 372.013 C 249.326 378.958, 250.800 378.468, 246.863 370.710 C 242.610 362.330, 238.816 357.984, 230.441 351.899 C 225.749 348.491, 221.465 344.869, 220.920 343.851 C 219.250 340.730, 217.684 341.665, 218.293 345.419 M 542.044 344.486 C 540.144 345.172, 537.897 346.806, 537.052 348.117 C 536.207 349.428, 534.970 350.950, 534.303 351.500 C 533.636 352.050, 532.637 353.722, 532.083 355.215 C 530.786 358.712, 532.258 359.716, 535.534 357.570 C 538.634 355.538, 546 346.277, 546 344.410 C 546 343.635, 545.888 343.054, 545.750 343.119 C 545.612 343.185, 543.945 343.800, 542.044 344.486 M 182.667 345.667 C 181.700 346.633, 181.847 351, 182.847 351 C 183.312 351, 185.372 352.630, 187.424 354.623 C 191.668 358.745, 193.777 358.184, 191.974 353.413 C 189.972 348.116, 184.648 343.685, 182.667 345.667 M 393.009 387.489 C 392.329 388.308, 391.435 388.769, 391.020 388.513 C 389.787 387.750, 386.711 391.804, 387.319 393.390 C 387.808 394.664, 388.537 394.645, 392.941 393.236 C 398.266 391.533, 398.633 391.050, 396.965 387.934 C 395.723 385.614, 394.665 385.494, 393.009 387.489 M 222.053 390.437 C 220.243 392.617, 221.504 396.453, 224.476 397.807 C 225.864 398.440, 227 399.405, 227 399.953 C 227 401.133, 232.950 404.384, 233.713 403.620 C 235.019 402.314, 232.684 398.106, 228.206 393.699 C 223.950 389.511, 223.166 389.095, 222.053 390.437 M 287.027 392.949 C 286.130 394.625, 286.469 395.129, 289.442 396.539 C 294.579 398.977, 297.173 396.276, 293.171 392.655 C 290.732 390.448, 288.304 390.564, 287.027 392.949 M 396.046 403.093 C 393.107 406.750, 392.918 407.347, 394.273 408.701 C 396.119 410.548, 397.550 409.814, 401.923 404.780 C 405.375 400.806, 405.277 399, 401.608 399 C 400.150 399, 398.156 400.467, 396.046 403.093 M 286.667 403.667 C 285.297 405.036, 286.034 409.073, 287.750 409.604 C 288.712 409.902, 290.281 410.563, 291.236 411.073 C 292.191 411.583, 293.804 412, 294.820 412 C 299.382 412, 298.279 408.834, 292.545 405.473 C 287.937 402.773, 287.649 402.684, 286.667 403.667 M 408.437 406.285 C 407.303 406.953, 404.785 408.738, 402.843 410.250 C 400.901 411.762, 398.826 413, 398.234 413 C 396.364 413, 390 421.255, 390 423.680 C 390 424.956, 390.224 426, 390.499 426 C 390.773 426, 394.036 423.545, 397.749 420.544 C 401.462 417.543, 407.747 413.606, 411.716 411.794 C 416.611 409.559, 418.942 407.937, 418.966 406.750 C 418.993 405.347, 418.157 405.007, 414.750 405.035 C 412.413 405.055, 409.572 405.617, 408.437 406.285 M 279 414.205 C 279 416.670, 284.540 421.057, 289.563 422.569 C 292.221 423.369, 294.645 424.409, 294.948 424.881 C 295.490 425.723, 305.424 431, 306.467 431 C 306.760 431, 307 430.410, 307 429.690 C 307 427.085, 300.489 421.810, 292.578 418.006 C 282.686 413.248, 279 412.216, 279 414.205 M 422.270 414.964 C 418.115 416.850, 413.277 421.510, 409.679 427.090 C 408.677 428.644, 405.741 431.435, 403.155 433.293 C 398.088 436.934, 393.251 444.605, 394.299 447.337 C 394.784 448.601, 398.503 445.413, 410.292 433.629 C 418.741 425.183, 426.852 417.488, 428.318 416.527 C 431.117 414.693, 431.055 412.985, 428.191 413.022 C 427.261 413.034, 424.597 413.908, 422.270 414.964 M 279.378 425.456 C 278.435 427.915, 283.297 433.104, 289.476 436.232 C 292.763 437.895, 296.588 440.275, 297.976 441.520 C 309.399 451.761, 310 452.147, 310 449.232 C 310 444.265, 302.558 437.390, 287.709 428.640 C 281.772 425.142, 279.790 424.384, 279.378 425.456 M 340.494 486.389 C 332.237 488.977, 320.114 496.080, 317.934 499.607 C 316.777 501.478, 313.187 505.310, 309.955 508.121 C 306.085 511.487, 303.692 514.472, 302.946 516.866 C 302.323 518.865, 299.831 524.588, 297.409 529.585 C 293.810 537.011, 292.849 540.215, 292.148 547.130 C 291.676 551.782, 290.744 556.610, 290.076 557.859 C 288.498 560.806, 289.535 562.074, 298 567.544 C 318.591 580.851, 340.929 587, 368.676 587 C 376.554 587, 383 587.368, 383 587.817 C 383 589.157, 372.766 591.973, 363.590 593.158 C 351.669 594.697, 339.978 593.052, 323.514 587.520 C 306.781 581.897, 298.267 578.040, 290.310 572.478 C 286.787 570.015, 283.707 568, 283.466 568 C 281.929 568, 276.438 582.071, 273.791 592.793 C 269.577 609.859, 269.432 620.811, 273.251 633.368 C 276.689 644.669, 280.247 650.796, 284.345 652.472 C 290.794 655.109, 303.124 657.084, 325.459 659.057 C 338.087 660.173, 348.624 661.291, 348.876 661.543 C 351.684 664.350, 324.740 666.327, 314.693 664.050 C 312.387 663.527, 306.177 662.918, 300.894 662.697 L 291.287 662.294 293.394 665.537 C 294.975 667.972, 296.478 668.942, 299.424 669.430 C 301.582 669.787, 309.232 672.053, 316.424 674.466 C 323.616 676.878, 331.637 679.161, 334.250 679.539 C 337.348 679.988, 339 680.718, 339 681.638 C 339 685.728, 324.377 686.270, 316.359 682.476 C 311.614 680.232, 303.141 678, 299.364 678 C 298.519 678, 298 679.128, 298 680.964 C 298 683.902, 298.126 683.968, 312.250 688.393 C 320.087 690.849, 328.413 693.411, 330.750 694.087 C 338.454 696.316, 335.172 699.436, 325.316 699.253 C 322.465 699.200, 318.640 698.469, 316.816 697.629 C 314.992 696.789, 310.575 695.596, 307 694.979 C 303.425 694.362, 299.021 692.994, 297.214 691.941 C 294.348 690.270, 293.853 690.221, 293.340 691.556 C 292.600 693.485, 291.861 692.954, 303 698.492 C 317.735 705.818, 323.430 710.894, 315.250 709.411 C 311.133 708.664, 303.790 706.014, 303 704.989 C 302.725 704.632, 299.462 703.177, 295.750 701.755 L 289 699.170 289 701.359 C 289 702.765, 291.860 706.390, 297 711.500 C 304.930 719.383, 306.517 722, 303.368 722 C 301.122 722, 295.318 718.292, 293.499 715.695 C 290.651 711.629, 292.022 715.768, 298.109 729.609 C 305.902 747.332, 306.587 749.290, 309.498 762.186 C 313.026 777.814, 322.471 795.114, 336.894 812.370 C 348.728 826.527, 355.340 835.281, 358.029 840.349 C 360.006 844.076, 361.155 845.126, 363.796 845.621 C 365.609 845.962, 367.382 845.951, 367.735 845.599 C 368.088 845.246, 367.599 841.719, 366.649 837.761 L 364.922 830.564 368.140 826.032 C 375.447 815.743, 377.009 813.026, 381.461 802.857 C 384.024 797.003, 388.590 788.003, 391.608 782.857 C 405.222 759.642, 406.754 751.892, 403.397 723.202 C 402.456 715.168, 401.967 705.126, 402.214 698.927 C 402.623 688.649, 402.757 688.134, 407.019 680.427 C 416.785 662.772, 418.045 659.565, 423.031 639.687 C 431.355 606.495, 430 598.952, 410.621 570.633 L 402.500 558.767 402.744 543.633 C 403.063 523.914, 402.019 520.566, 393.500 513.985 C 388.287 509.959, 387.198 508.510, 385.199 502.947 C 383.933 499.426, 382.214 495.788, 381.377 494.865 C 378.923 492.153, 371.134 489.269, 360.299 487.061 C 348.800 484.718, 346.118 484.627, 340.494 486.389 M 342.734 501.088 C 338.444 502.099, 331.342 505.493, 328.750 507.771 C 327.788 508.618, 327 510.199, 327 511.286 C 327 513.020, 327.459 513.181, 330.750 512.601 C 341.298 510.742, 352.323 510.722, 361.590 512.544 C 372.240 514.638, 374.427 514.034, 372.079 509.648 C 370.512 506.720, 365.291 503.719, 358.068 501.596 C 352.133 499.852, 348.494 499.731, 342.734 501.088 M 321 520.231 C 317.881 521.872, 317.061 526.418, 319.696 527.454 C 320.688 527.844, 324.762 528.416, 328.750 528.726 L 336 529.289 336 532.788 L 336 536.287 327.250 535.659 C 316.978 534.921, 311.217 536.016, 308.642 539.195 C 307.028 541.188, 306.875 542.533, 307.480 549.464 C 308.222 557.968, 309.822 562.273, 312.713 563.542 C 313.696 563.974, 329.711 564.392, 348.303 564.471 C 379.294 564.602, 382.353 564.464, 385.078 562.807 C 386.712 561.812, 388.528 559.762, 389.113 558.250 C 390.677 554.203, 389.687 545.398, 387.310 542.209 C 385.385 539.626, 384.832 539.487, 375.451 539.211 C 365.258 538.913, 362.709 538.038, 363.699 535.177 C 364.747 532.148, 367.300 531, 372.991 531 C 376.076 531, 379.140 530.460, 379.800 529.800 C 381.550 528.050, 381.267 522.466, 379.347 520.872 C 376.956 518.888, 324.646 518.314, 321 520.231 M 290.618 585.554 C 290.235 586.551, 291.684 588.886, 294.654 592.061 C 302.459 600.406, 307.680 602.739, 323.712 605.047 C 328.546 605.743, 333.771 606.946, 335.325 607.720 C 341.322 610.710, 363.163 610.137, 368.139 606.858 C 370.599 605.238, 366.272 603.177, 359.154 602.581 C 341.499 601.101, 308.300 592.572, 298.265 586.939 C 292.256 583.565, 291.438 583.417, 290.618 585.554 M 548 648.300 C 543.875 648.960, 540.608 649.950, 540.741 650.500 C 540.883 651.089, 547.865 651.728, 557.741 652.055 C 567.456 652.377, 575.388 653.097, 576.613 653.767 C 579.514 655.355, 585 661.744, 585 663.535 C 585 664.341, 584.888 664.995, 584.750 664.989 C 584.612 664.983, 582.291 664.308, 579.591 663.489 C 571.248 660.958, 549 662.111, 549 665.073 C 549 666.575, 556.305 667.501, 566.439 667.283 C 571.906 667.165, 576.856 667.440, 577.439 667.894 C 578.023 668.348, 580.593 669.501, 583.151 670.457 C 586.968 671.884, 587.877 672.709, 588.222 675.057 L 588.642 677.918 575.993 677.313 C 567.927 676.927, 562.669 677.086, 561.480 677.751 C 559.766 678.711, 559.876 678.954, 562.842 680.758 C 565.339 682.276, 568.560 682.838, 577.083 683.242 C 583.141 683.529, 588.258 683.930, 588.453 684.132 C 588.649 684.334, 588.965 686.075, 589.155 688 L 589.500 691.500 580.250 691.788 C 575.163 691.946, 571 692.476, 571 692.965 C 571 693.454, 572.237 694.833, 573.750 696.029 C 576.067 697.860, 577.315 698.108, 581.670 697.602 C 589.086 696.740, 590 697.331, 590 702.982 C 590 707.522, 589.851 707.780, 586.875 708.375 C 585.156 708.719, 582.483 709, 580.934 709 C 577.153 709, 576.474 710.474, 579.062 713.062 C 581.180 715.180, 583.101 715.268, 588.651 713.503 C 591.141 712.711, 591.441 713.622, 593.351 727.791 C 594.745 738.136, 594.180 744.156, 590.074 762.684 C 586.931 776.869, 585.578 780.112, 572.621 804.500 C 568.325 812.587, 567.594 814.958, 565.414 827.876 C 563.343 840.146, 562.549 842.848, 559.994 846.323 C 555.768 852.069, 556.122 854.236, 560.585 849.946 C 565.424 845.295, 566.286 843.411, 569.900 829.572 C 573.501 815.788, 576.186 809.498, 582.563 799.905 C 587.782 792.054, 594.175 777.882, 595.828 770.500 C 596.443 767.750, 597.946 758.750, 599.166 750.500 C 601.133 737.209, 601.392 731.341, 601.443 699 L 601.500 662.500 599.061 658.241 C 596.166 653.187, 594.148 651.736, 586.922 649.509 C 579.936 647.357, 558.131 646.679, 548 648.300 M 469.062 752.088 C 467.606 759.489, 463.629 770.514, 457.008 785.500 C 447.808 806.322, 443.376 830.277, 444.333 854 C 444.999 870.499, 447.039 880.834, 452.540 895.576 C 457.735 909.495, 459.497 912.634, 465.954 919.480 C 478.088 932.343, 478.665 934.799, 471.239 941.957 C 468.554 944.545, 464.303 947.357, 461.489 948.406 C 458.745 949.429, 453.809 951.877, 450.519 953.846 C 443.503 958.045, 424.656 972.989, 425.417 973.750 C 425.705 974.038, 431.130 970.869, 437.473 966.709 C 443.816 962.548, 451.592 957.939, 454.753 956.466 C 473.634 947.668, 475.144 946.784, 477.985 942.862 C 484.035 934.510, 482.637 929.261, 470.984 916.566 C 457.856 902.266, 451.272 883.635, 450.286 858 C 449.310 832.612, 452.328 814.900, 463.007 783.320 C 469.991 762.670, 473.154 748.754, 471.288 746.888 C 470.615 746.215, 469.880 747.934, 469.062 752.088 M 471.528 800.750 C 469.155 812.189, 467.407 818.976, 465.595 823.794 C 463.324 829.830, 462.043 839.801, 462.020 851.614 C 461.994 864.676, 463.136 870.382, 468.099 882 C 471.812 890.694, 473.651 893.478, 487.740 911.747 C 489.789 914.404, 490.269 912.425, 488.444 908.843 C 487.507 907.004, 484.323 901.429, 481.368 896.454 C 473.656 883.465, 466.994 865.427, 467.020 857.597 C 467.048 848.854, 469.554 831.507, 471.803 824.500 C 473.015 820.722, 473.991 813.779, 474.440 805.750 C 475.267 790.973, 474.006 788.808, 471.528 800.750 M 499.106 828.578 C 498.563 830.546, 496.939 833.703, 495.497 835.593 C 494.055 837.483, 491.666 841.610, 490.188 844.765 C 487.857 849.738, 487.513 851.699, 487.597 859.526 C 487.752 874.053, 491.639 886.406, 497.961 892.462 C 501.370 895.728, 502.928 895.366, 500.655 891.837 C 498.246 888.097, 495.148 877.857, 493.451 868.026 C 492.008 859.660, 492.014 858.461, 493.527 853.212 C 494.432 850.070, 496.514 845.143, 498.153 842.263 C 501.890 835.693, 503.075 831.624, 502.332 827.908 C 501.547 823.987, 500.302 824.245, 499.106 828.578 M 511.306 853.498 C 509.066 855.067, 507 862.260, 507 868.490 C 507 871.680, 508.441 873.893, 509.699 872.635 C 510.169 872.164, 514.616 860.116, 516.669 853.750 C 517.388 851.520, 514.335 851.377, 511.306 853.498 M 521.396 865.750 C 521.098 866.712, 520.437 868.281, 519.927 869.236 C 518.551 871.813, 518.803 874, 520.474 874 C 521.930 874, 524.090 870.629, 525.441 866.250 C 526.008 864.411, 525.751 864, 524.036 864 C 522.882 864, 521.694 864.788, 521.396 865.750"/>
</svg>