<?xml version="1.0" encoding="utf-8"?>
<svg xmlns="http://www.w3.org/2000/svg" width="1002" height="838" viewBox="0 0 1002 838">
  <path fill-rule="evenodd" d="M 748.716 4.042 C 737.740 6.408, 725.896 9.886, 724.250 11.227 C 723.563 11.787, 723 12.929, 723 13.765 C 723 15.738, 731.372 14.953, 744.360 11.762 C 752.117 9.855, 756.223 9.515, 771.500 9.515 L 789.500 9.514 804.500 15.129 C 812.750 18.217, 826.603 23.518, 835.285 26.910 C 850.470 32.841, 853.511 33.496, 852.398 30.596 C 850.648 26.033, 835.367 19.028, 805.045 8.887 L 784.500 2.016 771 2.082 C 761.737 2.128, 754.743 2.743, 748.716 4.042 M 697.723 17.931 C 690.453 20.284, 680.868 26.490, 674.901 32.708 C 670.202 37.605, 656.640 53.634, 651.736 60.089 C 650.236 62.063, 646.869 64.824, 644.254 66.225 C 638.149 69.495, 622.744 72.988, 614.174 73.044 C 601.374 73.127, 595.094 75.525, 598.575 79 C 602.111 82.530, 634.754 78.946, 645.629 73.834 C 650.509 71.541, 659.153 62.600, 671 47.593 C 683.574 31.665, 687.678 28.170, 699.791 23.075 C 705.490 20.677, 709.918 18.245, 709.714 17.623 C 709.115 15.796, 703.907 15.929, 697.723 17.931 M 226 23.986 C 226 25.078, 227.575 28.940, 229.500 32.569 C 235.265 43.436, 233.767 48.891, 224.058 52.382 C 214.506 55.817, 201.309 52.257, 194.395 44.380 C 189.989 39.361, 188 39.237, 188 43.982 C 188 47.521, 192.010 52.461, 196.876 54.917 C 211.547 62.322, 227.106 61.299, 235.750 52.360 C 242.633 45.242, 241.966 39.470, 232.851 27.250 C 228.818 21.842, 226 20.500, 226 23.986 M 259.777 24.365 C 258.977 25.165, 257.798 28.998, 257.157 32.881 C 256.120 39.157, 256.219 40.809, 258.045 47.721 C 260.726 57.873, 262.234 61.319, 269.741 74.449 C 276.071 85.523, 277.219 89.743, 274.511 91.991 C 271.371 94.597, 259.858 90.025, 245.491 80.465 C 240.931 77.431, 233.893 73.772, 229.850 72.334 C 223.140 69.946, 220.977 69.697, 205 69.471 C 181.756 69.142, 175.531 67.105, 163.569 55.915 C 159.995 52.573, 156.606 50.126, 156.036 50.478 C 152.422 52.711, 158.585 62.003, 167.610 67.928 C 178.310 74.953, 180.205 75.400, 200 75.568 C 209.625 75.650, 219.300 76.219, 221.500 76.832 C 230.337 79.296, 238.665 83.236, 246.869 88.835 C 257.886 96.355, 260.824 97.829, 267.200 99.038 C 276.756 100.850, 282.057 96.993, 281.956 88.300 C 281.896 83.105, 279.979 78.145, 275.174 70.751 C 272.940 67.313, 269.630 61.350, 267.818 57.500 C 264.738 50.951, 264.492 49.635, 264.013 37.080 C 263.492 23.449, 262.793 21.350, 259.777 24.365 M 285.068 34.874 C 283.912 37.034, 283.624 44.857, 284.607 47.418 C 285.360 49.382, 288.359 49.477, 289.928 47.587 C 290.633 46.738, 290.980 43.649, 290.800 39.837 C 290.533 34.196, 290.260 33.466, 288.318 33.189 C 286.940 32.993, 285.742 33.614, 285.068 34.874 M 327.377 41.461 C 326.776 43.027, 331.741 58.540, 341.635 86.007 C 344.311 93.435, 349.248 104.460, 352.607 110.507 C 355.965 116.553, 361.365 126.434, 364.607 132.464 C 371.100 144.544, 375.117 149.102, 383.152 153.508 C 387.749 156.028, 389.553 156.436, 396 156.409 C 403.185 156.379, 404.004 156.120, 415.500 150.251 C 429.458 143.124, 434.814 141.554, 442.180 142.430 C 445.106 142.777, 452.365 143.313, 458.312 143.621 L 469.124 144.180 474.562 138.742 C 477.553 135.751, 480 132.547, 480 131.621 C 480 129.150, 477.314 128.538, 474.742 130.423 C 473.509 131.327, 470.971 133.176, 469.102 134.533 C 464.860 137.613, 459.973 137.724, 450.497 134.956 C 439.187 131.653, 428.005 133.951, 412.786 142.706 C 396.843 151.879, 390.450 151.920, 380.592 142.910 C 376.250 138.942, 373.469 134.594, 364.219 117.315 C 358.090 105.867, 351.939 93.125, 350.551 89 C 349.162 84.875, 344.293 72.278, 339.730 61.007 C 333.917 46.647, 330.920 40.416, 329.714 40.183 C 328.768 40.001, 327.716 40.576, 327.377 41.461 M 856.028 45.246 C 851.368 47.586, 847.424 49.968, 847.264 50.540 C 847.104 51.113, 847.601 52.440, 848.369 53.490 C 849.730 55.351, 849.936 55.327, 856.401 52.580 C 864.906 48.965, 868.197 46.386, 867.804 43.645 C 867.333 40.357, 865.184 40.649, 856.028 45.246 M 731 47.280 C 731 50.845, 731.016 50.858, 736.250 51.502 C 739.138 51.858, 743.750 52.003, 746.500 51.824 C 751.320 51.512, 751.493 51.397, 751.295 48.628 C 751.182 47.049, 750.935 45.602, 750.746 45.413 C 750.557 45.223, 746.037 44.762, 740.701 44.387 L 731 43.705 731 47.280 M 711.102 47.546 C 701.149 51.394, 697.833 53.762, 698.195 56.765 C 698.669 60.704, 701.197 61.703, 704.618 59.303 C 706.203 58.191, 709.975 56.484, 713 55.508 C 720.142 53.206, 721.164 52.300, 720.801 48.593 C 720.415 44.645, 719.002 44.493, 711.102 47.546 M 759.392 47.422 C 757.759 51.676, 764.493 55.245, 774.473 55.415 C 778.557 55.485, 779.512 55.168, 779.817 53.644 C 780.381 50.817, 778.952 49.998, 769.868 47.944 C 759.727 45.650, 760.065 45.667, 759.392 47.422 M 358.326 50.594 C 357.474 52.813, 358.668 67.748, 360.548 78.396 C 361.456 83.538, 363.329 89.656, 364.987 92.896 C 368.613 99.978, 376.865 107.893, 384.799 111.898 L 390.943 115 407.865 115 C 419.344 115, 427.225 115.504, 432.371 116.569 C 441.412 118.438, 445.352 118.191, 445.820 115.723 C 446.076 114.375, 444.507 113.197, 439.329 110.848 C 430.927 107.037, 420.333 106.114, 406.143 107.958 C 397.059 109.138, 396.181 109.088, 391 107.099 C 384.225 104.496, 373.985 94.878, 370.347 87.698 C 368.830 84.703, 366.844 77.468, 365.381 69.604 C 364.040 62.397, 362.487 54.813, 361.931 52.750 C 360.869 48.811, 359.357 47.907, 358.326 50.594 M 791 55.754 C 791 59.348, 792.571 59.966, 801.750 59.986 C 807.679 59.999, 808 59.877, 808 57.607 C 808 54.696, 807.133 54.331, 798.102 53.441 L 791 52.742 791 55.754 M 826.081 54.085 C 822.550 54.542, 819.063 55.146, 818.331 55.427 C 816.486 56.134, 816.656 60.931, 818.551 61.658 C 820.594 62.442, 837.108 60.292, 838.315 59.085 C 838.831 58.569, 838.963 56.988, 838.608 55.573 C 837.889 52.709, 837.272 52.636, 826.081 54.085 M 286.229 57.171 C 284.471 58.929, 284.746 62.844, 286.973 67.750 C 289.013 72.244, 291.676 73.300, 293.976 70.529 C 294.955 69.349, 294.722 67.813, 292.801 62.783 C 290.397 56.487, 288.518 54.882, 286.229 57.171 M 380.472 62.087 C 379.592 64.862, 380.723 70.537, 383.077 75.151 C 385.597 80.091, 395.851 85.919, 404.934 87.575 C 417.967 89.951, 423.646 90.211, 425.349 88.508 C 427.082 86.775, 426.632 84.457, 424.396 83.598 C 423.599 83.293, 419.246 82.744, 414.723 82.379 C 408.021 81.838, 405.102 81.018, 398.944 77.944 C 390.092 73.526, 389.809 73.236, 387.003 65.738 C 384.718 59.630, 381.774 57.985, 380.472 62.087 M 682.225 69.274 C 674.864 76.683, 673.836 78.789, 676.500 81 C 678.297 82.491, 678.943 82.075, 687.250 74.090 C 692.976 68.585, 694.217 65.617, 691.800 63.200 C 691.140 62.540, 690.341 62, 690.025 62 C 689.709 62, 686.199 65.273, 682.225 69.274 M 887.664 67.750 C 887.415 68.162, 886.524 70.825, 885.684 73.666 C 884.235 78.572, 884.256 78.922, 886.110 80.599 C 887.799 82.128, 888.242 82.173, 889.400 80.933 C 891.171 79.036, 893 73.404, 893 69.851 C 893 67.495, 892.576 67, 890.559 67 C 889.216 67, 887.914 67.338, 887.664 67.750 M 727.743 72.980 C 719.311 76.114, 712.399 80.037, 698.500 89.576 C 683.760 99.691, 682.828 100.022, 666.146 101.047 C 651.376 101.954, 638.364 104.677, 631.302 108.339 C 627.869 110.119, 623.650 115.122, 622.565 118.700 C 621.652 121.708, 624.364 126.620, 627.967 128.483 C 632.516 130.835, 648.269 130.513, 657.263 127.885 C 662.816 126.262, 668.689 125.608, 682.500 125.073 C 699.804 124.404, 700.758 124.258, 707.176 121.285 C 710.848 119.584, 716.966 116.178, 720.772 113.716 C 724.577 111.254, 732.789 106.632, 739.021 103.445 C 752.300 96.652, 757.479 92.043, 758.478 86.127 C 759.848 78.020, 757.919 74.635, 750.230 71.655 C 743.943 69.218, 736.719 69.644, 727.743 72.980 M 295.062 77.748 C 292.840 79.548, 292.813 79.738, 294.361 82.731 C 297.459 88.721, 303.853 91.803, 307.201 88.919 L 309.500 86.939 306.552 84.720 C 304.931 83.499, 302.202 81.010, 300.488 79.189 C 297.392 75.898, 297.358 75.889, 295.062 77.748 M 729.121 79.488 C 719.518 83.443, 719.773 83.288, 704.440 94.481 C 690.848 104.402, 685.732 106.508, 673 107.426 C 659.782 108.379, 645.337 110.594, 640.014 112.485 C 635.368 114.135, 630 118.474, 630 120.580 C 630 123.884, 642.685 123.830, 659.112 120.456 C 669.513 118.320, 673.666 117.959, 685 118.206 L 698.500 118.500 707.443 114.224 C 712.362 111.873, 718.676 108.220, 721.474 106.107 C 724.272 103.995, 730.373 100.433, 735.031 98.193 C 745.926 92.954, 750.728 88.965, 751.575 84.454 C 753.307 75.220, 744.312 73.231, 729.121 79.488 M 919.634 81.787 C 912.940 92.391, 911 97.680, 911 105.321 C 911 111.890, 911.321 113.143, 913.924 116.736 C 916.769 120.664, 916.976 120.758, 921.674 120.281 C 928.084 119.629, 935.503 116.183, 940.896 111.351 C 944.846 107.813, 945.172 107.190, 944.111 105.207 C 942.540 102.272, 941.921 102.389, 936.927 106.561 C 931.679 110.945, 928.501 112.628, 923.801 113.510 C 920.611 114.108, 919.962 113.872, 918.453 111.568 C 916.963 109.294, 916.885 108.198, 917.867 103.310 C 918.489 100.209, 920.799 94.393, 922.999 90.384 C 927.514 82.159, 927.606 81.749, 925.429 79.571 C 923.125 77.268, 922.285 77.589, 919.634 81.787 M 654.500 84.355 C 645.401 87.274, 644.500 87.785, 644.500 90.032 C 644.500 92.241, 644.969 92.533, 648.978 92.819 C 654.116 93.184, 666.776 88.748, 667.736 86.246 C 668.351 84.642, 666.994 81.781, 665.429 81.383 C 664.918 81.253, 660 82.590, 654.500 84.355 M 870.189 87.149 C 866.855 88.680, 865.948 89.601, 866.189 91.212 C 866.726 94.810, 869.336 95.603, 873.884 93.552 C 879.477 91.030, 881.671 88.513, 880.016 86.519 C 878.366 84.531, 875.485 84.716, 870.189 87.149 M 125.061 93.452 C 111.210 100.537, 102.240 102.694, 90.546 101.756 C 83.510 101.191, 81.629 101.834, 82.165 104.620 C 82.636 107.063, 88.500 109.002, 97.500 109.688 C 106.407 110.367, 113.372 108.142, 128.336 99.834 C 138.183 94.367, 139.597 93.861, 143.836 94.280 C 146.401 94.534, 152.550 96.476, 157.500 98.596 L 166.500 102.450 185.500 102.574 C 205.059 102.701, 233.159 105.020, 245.500 107.525 C 254.329 109.318, 266.974 115.635, 273.954 121.741 C 286.636 132.835, 293.392 149.763, 305.415 200.572 C 317.486 251.586, 319.680 274.987, 315.065 303.500 C 311.688 324.361, 308.645 332.472, 300.367 342.683 C 296.474 347.485, 291.659 349.595, 274.500 354.016 C 262.892 357.006, 251.563 361.341, 244.029 365.673 C 238.227 369.011, 212.108 389.943, 205.471 396.576 C 202.074 399.971, 198.671 405.045, 195.195 411.903 C 186.999 428.070, 182.419 435.389, 177.998 439.383 C 173.024 443.876, 170.865 444.753, 162.717 445.588 C 151.522 446.735, 137.381 441.671, 112.865 427.736 C 97.789 419.167, 96.149 418.524, 81.682 415.496 C 54.526 409.813, 50.149 407.151, 35.273 387.269 C 26.022 374.905, 22.545 371.615, 14.348 367.467 C 9.679 365.105, 8.294 364.822, 5.184 365.592 C -0.223 366.932, -0.224 369.593, 5.182 371.049 C 15.413 373.804, 19.737 377.663, 33.757 396.558 C 45.932 412.965, 51.918 416.726, 73 421.206 C 88.052 424.405, 95.408 426.917, 103.737 431.703 C 118.464 440.165, 131.339 446.182, 143.213 450.152 C 154.818 454.032, 155.303 454.107, 162.047 453.061 C 175.255 451.011, 182.846 447.508, 187.898 441.129 C 189.533 439.064, 194.130 431.328, 198.112 423.937 C 205.048 411.067, 213.193 399, 214.946 399 C 215.402 399, 220.683 394.350, 226.683 388.668 C 235.400 380.411, 248.100 371, 250.526 371 C 250.756 371, 255.220 368.975, 260.446 366.500 C 265.673 364.025, 270.644 362, 271.493 362 C 274.839 362, 294.779 354.891, 299.012 352.189 C 305.496 348.050, 311.795 340.738, 314.973 333.660 C 317.382 328.296, 320.350 316.301, 323.054 301 C 326.848 279.527, 323.931 239.091, 316.561 211 C 315.191 205.775, 312.194 193.850, 309.903 184.500 C 299.731 142.996, 289.124 121.310, 274.469 112.055 C 256.018 100.402, 242.883 97.278, 206.500 95.890 C 171.609 94.559, 164.792 93.784, 155.620 90.112 C 143.666 85.325, 140.212 85.703, 125.061 93.452 M 625.500 88.934 C 620.763 90.086, 613 93.787, 613 94.894 C 613 97.271, 616.427 97.628, 624.244 96.065 C 632.891 94.337, 635.453 92.456, 633.070 89.584 C 631.667 87.894, 630.270 87.774, 625.500 88.934 M 312.750 94.392 C 309.952 96.516, 310.678 98.481, 315.707 102.400 C 320.687 106.279, 322.604 106.583, 324.373 103.773 C 325.270 102.348, 324.683 101.253, 321.022 97.523 C 316.247 92.657, 315.438 92.351, 312.750 94.392 M 849.500 94.500 C 848.950 94.689, 846.385 95.127, 843.800 95.475 C 838.486 96.190, 836.538 98.966, 839.366 101.794 C 840.794 103.223, 841.640 103.213, 848.662 101.689 C 857.553 99.760, 858.629 99.044, 857.057 96.107 C 856.017 94.164, 852.603 93.438, 849.500 94.500 M 595.108 102.593 C 589.561 107.580, 588.911 109.347, 592.014 111.008 C 593.748 111.935, 594.795 111.362, 599.514 106.898 C 605.459 101.276, 606.598 98, 602.608 98 C 601.174 98, 598.170 99.840, 595.108 102.593 M 810.057 99.923 C 808.871 100.690, 808.831 101.333, 809.832 103.530 C 811.032 106.165, 811.169 106.198, 819.475 105.852 C 828.593 105.471, 831.259 104.224, 829.372 101.222 C 828.511 99.853, 826.567 99.448, 819.894 99.245 C 815.277 99.105, 810.851 99.410, 810.057 99.923 M 780.512 100.876 C 777.241 101.576, 776.095 104.205, 778.040 106.548 C 779.495 108.301, 785.841 108.435, 794.668 106.897 C 801.185 105.762, 801.737 105.245, 799.965 101.934 C 799.069 100.261, 797.889 100.016, 791.215 100.118 C 786.972 100.183, 782.155 100.524, 780.512 100.876 M 755.250 108.929 C 746.863 112.994, 745.664 114.521, 748.571 117.429 C 750.568 119.425, 750.010 119.535, 760 115.182 C 767.945 111.720, 768.500 111.284, 768.500 108.489 C 768.500 104.062, 765.056 104.176, 755.250 108.929 M 864.781 106.078 C 862.735 106.561, 854.651 110.167, 846.816 114.092 C 828.670 123.182, 816.830 128.351, 810.500 129.944 C 807.495 130.701, 797.056 131.317, 784.337 131.488 L 763.175 131.772 754.290 136.456 C 748.562 139.476, 740.982 144.889, 732.953 151.692 C 726.104 157.495, 717.387 164.285, 713.582 166.779 C 707.249 170.931, 695.737 175.567, 694.157 174.602 C 693.795 174.381, 689.225 173.686, 684 173.057 C 676.753 172.185, 671.619 170.760, 662.352 167.049 C 655.671 164.373, 647.646 161.653, 644.518 161.004 C 629.120 157.807, 605.489 165.674, 593.151 178.104 C 584.179 187.143, 581.667 191.776, 581.667 199.279 C 581.667 205.779, 581.597 205.678, 590.982 212.849 C 595.861 216.578, 596.912 220.565, 597.972 239.381 C 598.502 248.796, 599.581 260.100, 600.368 264.500 C 601.156 268.900, 603.007 281.725, 604.482 293 C 607.496 316.038, 614.737 348.880, 618.501 356.584 C 621.528 362.780, 631.770 372.839, 638.530 376.255 C 648.158 381.120, 659.853 381.987, 673.950 378.882 C 681.288 377.266, 689.819 371.272, 702.704 358.681 C 713.909 347.731, 715.322 345.927, 719.976 336.628 C 730.815 314.970, 732.145 299.212, 725.559 270.500 C 722.301 256.297, 721.646 251.608, 721.580 242 C 721.500 230.562, 721.523 230.450, 725.689 221.262 C 731.677 208.056, 736.201 201.772, 745.703 193.465 C 755.838 184.604, 769.924 177.173, 778.207 176.318 L 783.658 175.755 785.922 179.592 C 787.166 181.701, 788.869 186.369, 789.705 189.964 C 794.572 210.894, 795.098 212.314, 799.609 216.699 C 805.338 222.268, 813.931 224.992, 825.855 225.020 C 838.444 225.049, 846.016 226.412, 856.795 230.589 C 868.770 235.228, 873.445 239.333, 878.451 249.598 C 889.334 271.916, 886.552 301.020, 872.072 316.331 C 866.028 322.721, 859.858 325.898, 845.374 330.079 C 829.178 334.754, 805.784 344.422, 797.698 349.781 C 791.521 353.875, 790.080 355.433, 786.815 361.547 C 783.903 367, 782.902 370.208, 782.389 375.726 C 781.782 382.257, 781.947 383.233, 784.347 387.330 C 787.779 393.185, 794.526 399.040, 804.940 405.198 C 809.583 407.943, 814.903 411.350, 816.764 412.770 C 822.797 417.371, 830.166 435.242, 831.496 448.500 C 831.882 452.350, 832.850 457.075, 833.647 459 C 835.263 462.908, 841.916 470.142, 846.500 472.977 C 849.866 475.058, 862.919 478.005, 868.708 477.990 C 877.232 477.968, 889.335 469.264, 896.824 457.770 C 901.579 450.471, 912.956 417.337, 914.947 404.985 C 915.610 400.868, 916.985 394.350, 918.002 390.500 C 919.020 386.650, 920.348 379.450, 920.956 374.500 C 923.966 349.951, 927.495 338.459, 937.996 319 C 946.382 303.462, 951.645 290.828, 952.998 282.987 C 954.998 271.404, 950.901 244.430, 945.917 236.366 C 944.696 234.390, 941.098 230.860, 937.924 228.523 C 927.397 220.773, 914.660 217.023, 898.815 217.008 C 894.588 217.003, 889.979 216.562, 888.573 216.028 C 881.684 213.409, 870.209 198.967, 867.435 189.426 C 864.477 179.251, 867.394 173.535, 881.586 161.695 C 890.742 154.058, 897.147 146.617, 901.108 139.017 C 903.734 133.979, 903.251 128.403, 899.560 121.118 C 893.563 109.284, 878.606 102.816, 864.781 106.078 M 328.474 110.028 C 326.678 112.013, 326.726 112.180, 330.682 117.778 C 335.050 123.958, 336.529 124.796, 339.387 122.706 C 341.164 121.407, 341.167 121.224, 339.469 117.928 C 336.902 112.944, 332.951 108, 331.536 108 C 330.862 108, 329.484 108.913, 328.474 110.028 M 868.500 111.430 C 867.950 111.635, 865.025 112.565, 862 113.496 C 858.975 114.427, 853.339 117.155, 849.476 119.557 C 840.256 125.291, 825.249 132.259, 816.204 135.007 C 808.311 137.404, 799.916 137.841, 777.500 137.022 C 766.761 136.630, 763.978 136.830, 761.500 138.171 C 759.850 139.064, 748.825 147.538, 737 157.002 C 713.899 175.490, 711.220 177.216, 701.947 179.592 C 696.444 181.002, 694.886 180.994, 684.726 179.504 C 677.895 178.502, 670.630 176.686, 666.028 174.829 C 649.552 168.184, 645.511 166.933, 638.645 166.355 C 629.545 165.588, 622.065 167.441, 610.196 173.402 C 596.864 180.097, 589 189.544, 589 198.864 C 589 202.474, 589.398 203.047, 593.919 205.948 C 596.625 207.685, 599.554 210.197, 600.429 211.532 C 603.067 215.559, 604.873 225.642, 605.976 242.505 C 606.552 251.302, 607.685 262.100, 608.495 266.500 C 609.305 270.900, 610.664 280.783, 611.515 288.462 C 614.141 312.169, 615.660 321.298, 620.173 340.500 C 622.634 350.971, 623.574 353.043, 628.403 358.645 C 640.797 373.022, 660.895 376.889, 679.339 368.445 C 685.202 365.761, 697.155 356.061, 706.325 346.545 C 716.679 335.800, 723 318.647, 723 301.295 C 723 292.247, 721.875 286.374, 715.575 262.540 C 713.787 255.776, 713.547 241.965, 715.035 231.500 C 716.114 223.911, 721.307 211.896, 727.620 202.386 C 732.089 195.653, 745.004 184.273, 754.500 178.700 C 778.987 164.332, 791.601 168.121, 797.107 191.500 C 798.273 196.450, 799.620 202.106, 800.100 204.069 C 800.579 206.032, 802.598 209.265, 804.586 211.253 C 810.532 217.199, 813.658 218.163, 828.372 218.592 C 843.018 219.020, 844.748 219.264, 854 222.209 C 872.623 228.137, 880.490 235.779, 887.706 254.951 C 891.137 264.068, 891.746 275.701, 889.541 290.021 C 887.513 303.192, 886.154 307.468, 882.154 313.261 C 874.494 324.357, 864.197 331.350, 849.500 335.436 C 825.446 342.124, 806.012 350.227, 797.840 356.975 C 792.431 361.442, 789 369.012, 789 376.481 C 789 382.510, 789.050 382.617, 794.250 387.671 C 797.138 390.478, 803.775 395.564, 809 398.973 C 814.225 402.382, 820.228 406.820, 822.339 408.836 C 829.585 415.750, 838 436.444, 838 447.346 C 838 453.619, 839.889 457.818, 844.555 461.915 C 850.487 467.122, 858.272 470.254, 866.622 470.790 C 875.388 471.352, 877.879 470.091, 886.761 460.596 C 893.906 452.958, 895.961 448.895, 899.956 434.500 C 906.792 409.872, 908.974 400.489, 912.874 378.952 C 918.599 347.340, 921.153 339.382, 933.559 314.500 C 946.301 288.944, 947.480 284.800, 946.655 268.500 C 945.776 251.155, 942.585 240.729, 936.342 234.803 C 930.932 229.669, 920.529 226.685, 902 224.952 C 895.125 224.309, 888.150 223.215, 886.500 222.520 C 879.043 219.378, 868.163 207.165, 862.488 195.565 C 860.056 190.595, 859.794 189.118, 860.209 182.724 C 860.467 178.751, 861.414 174.082, 862.314 172.348 C 863.213 170.615, 867.899 165.680, 872.725 161.381 C 887.212 148.479, 893.654 141.474, 895.515 136.600 C 897.523 131.342, 897.148 129.182, 893.129 122.857 C 890.839 119.252, 888.733 117.501, 883.707 115.027 C 877.780 112.110, 870.987 110.502, 868.500 111.430 M 207.500 115.697 C 206.400 115.953, 197.404 118.151, 187.509 120.581 C 165.412 126.008, 160.682 126.169, 150.167 121.853 C 143.676 119.188, 141.196 118.700, 134 118.672 C 125.870 118.640, 124.988 118.867, 113.733 123.899 C 103.609 128.425, 100.678 129.281, 92.733 130.035 C 82.860 130.972, 72.392 130.556, 62.177 128.820 C 54.815 127.569, 52.943 128.474, 55.742 131.930 C 58.210 134.977, 66.285 136.971, 79 137.673 C 93.951 138.498, 102.503 136.969, 113.589 131.486 C 123.157 126.755, 132.235 124.452, 137.775 125.351 C 139.597 125.647, 144.654 127.264, 149.012 128.944 C 160.941 133.545, 163.490 133.319, 199.500 124.470 C 214.588 120.762, 225.484 121.204, 235 125.910 C 238.575 127.679, 243.006 130.559, 244.847 132.313 C 249.825 137.053, 256.549 146.814, 260.204 154.607 C 262.983 160.531, 263.492 162.846, 263.828 171.075 C 264.090 177.503, 263.676 183.255, 262.569 188.575 C 260.498 198.527, 259.518 210.619, 260.402 215.331 C 260.775 217.317, 262.227 220.304, 263.629 221.971 C 265.940 224.717, 266.732 225, 272.121 225 C 287.084 225, 292 232.919, 292 257.023 C 292 271.400, 291.517 273.472, 283.986 291.440 C 273.705 315.966, 261.114 327.620, 227.092 344.096 C 220.166 347.450, 211.350 352.558, 207.500 355.448 C 200.553 360.661, 178.133 382.245, 166.099 395.306 C 156.881 405.310, 153.135 407.719, 145.535 408.533 C 135.559 409.602, 127.808 406.592, 115.344 396.809 C 107.348 390.533, 103.694 389.341, 85.317 387.008 C 76.910 385.941, 68.788 384.421, 67.266 383.630 C 65.745 382.840, 59.415 377.537, 53.200 371.846 C 35.611 355.743, 25.290 347.538, 16.370 342.572 C 8.026 337.926, 4 336.888, 4 339.384 C 4 340.145, 9.737 345.052, 16.750 350.288 C 23.762 355.524, 36.197 366.147, 44.382 373.895 C 62.962 391.483, 64.668 392.378, 84.520 394.953 C 102.732 397.316, 104.474 397.887, 114.197 404.683 C 128.658 414.791, 140.017 417.875, 152.105 414.975 C 157.145 413.766, 158.587 412.567, 178.774 392.801 C 205.139 366.986, 214.988 359.515, 237.445 348.295 C 258.233 337.909, 266.082 332.251, 275.654 320.751 C 283.759 311.012, 286.174 306.740, 292.566 290.835 C 298.413 276.287, 299.281 271.097, 298.742 253.917 C 298.236 237.772, 297.340 233.903, 292.710 227.863 C 288.589 222.488, 283.480 219.895, 275.352 219.054 C 271.467 218.652, 268.457 217.802, 267.868 216.941 C 266.670 215.190, 267.469 202.567, 269.478 191.500 C 271.680 179.371, 271.444 165.260, 268.914 157.718 C 265.021 146.117, 260.013 137.951, 251.534 129.377 C 244.296 122.059, 242.674 120.945, 235.165 118.127 C 228.013 115.444, 225.598 115.016, 218.165 115.116 C 213.399 115.180, 208.600 115.441, 207.500 115.697 M 582.108 120.541 C 580.959 122.489, 578.615 124.851, 576.900 125.791 C 575.185 126.731, 572.818 128.260, 571.640 129.189 L 569.500 130.878 571.570 132.981 L 573.639 135.084 578.273 133.097 C 582.771 131.169, 589 124.389, 589 121.421 C 589 119.993, 586.311 117, 585.027 117 C 584.571 117, 583.257 118.593, 582.108 120.541 M 728.250 122.660 C 723.712 125.222, 720 127.648, 720 128.049 C 720 128.450, 720.833 129.807, 721.850 131.063 L 723.700 133.348 730.600 129.591 C 739.484 124.754, 741.067 123.171, 739.936 120.250 C 739.457 119.013, 738.487 118, 737.782 118 C 737.077 118, 732.788 120.097, 728.250 122.660 M 338.634 130.650 C 335.890 132.120, 335.795 132.407, 336.418 137.343 C 337.886 148.966, 337.901 149, 341.552 149 C 343.384 149, 345.165 148.542, 345.511 147.982 C 346.367 146.597, 344 132.363, 342.614 130.562 C 341.644 129.303, 341.128 129.314, 338.634 130.650 M 852 131.288 C 849.001 132.408, 831.181 141.841, 817.355 149.627 C 810.419 153.533, 807.996 157.219, 808.022 163.827 C 808.056 172.679, 812.630 181.177, 819.200 184.595 C 822.729 186.431, 832.334 186.396, 835.935 184.534 C 840.280 182.287, 846.136 175.044, 851.051 165.838 C 853.625 161.017, 858.344 154.425, 862.250 150.194 C 867.814 144.166, 869 142.286, 869 139.496 C 869 132.133, 860.600 128.077, 852 131.288 M 703.500 134.932 C 697.575 137.326, 696.451 138.164, 696.183 140.386 C 695.980 142.069, 696.430 143.228, 697.438 143.614 C 698.960 144.199, 714 137.723, 714 136.484 C 714 135.303, 711.924 132, 711.215 132.052 C 710.822 132.081, 707.350 133.377, 703.500 134.932 M 949.945 138.355 C 937.377 144.093, 921.362 154.643, 915.689 160.923 C 909.899 167.332, 908.685 170.484, 909.258 177.624 C 910.193 189.277, 913.257 191.869, 934 198.560 C 950.400 203.849, 952.593 205.235, 957.589 213.456 C 959.914 217.283, 962.401 222.233, 963.116 224.456 C 964.592 229.046, 976.067 241.315, 980.438 242.976 C 984.272 244.434, 991.002 244.290, 990.992 242.750 C 990.988 242.063, 989.083 240.414, 986.759 239.086 C 978.897 234.594, 971.961 227.085, 968.207 219 C 966.291 214.875, 963.225 209.151, 961.394 206.281 C 957.357 199.952, 952.417 197.241, 933.510 190.978 C 918.029 185.849, 915 183.531, 915 176.809 C 915 170.817, 918.401 166.177, 928.024 159.042 C 937.964 151.672, 944.905 147.699, 953.475 144.473 C 963.140 140.835, 965.767 139.309, 966.536 136.886 C 967.248 134.642, 965.743 133.011, 963 133.055 C 962.175 133.068, 956.300 135.453, 949.945 138.355 M 557.929 139.139 C 550.992 152.738, 550.150 163.966, 556.516 157.985 C 559.452 155.227, 564.277 142.309, 563.831 138.405 C 563.304 133.805, 560.470 134.158, 557.929 139.139 M 839.784 144.250 C 820.083 154.300, 813 159.618, 813 164.361 C 813 171.774, 819.274 178.938, 826.477 179.750 C 830.967 180.256, 831.246 180.125, 835.803 175.367 C 838.386 172.669, 842.750 166.268, 845.500 161.144 C 849.341 153.986, 851.949 150.552, 856.750 146.328 C 860.188 143.305, 863 140.059, 863 139.115 C 863 137.065, 861.122 135, 859.258 135 C 858.521 135, 849.757 139.162, 839.784 144.250 M 637.250 137.706 C 634.723 138.192, 634.387 139.779, 636.266 142.349 C 637.342 143.820, 638.961 144.037, 647.005 143.791 C 655.450 143.532, 656.517 143.290, 656.847 141.566 C 657.461 138.361, 654.272 136.987, 646.559 137.136 C 642.676 137.211, 638.487 137.467, 637.250 137.706 M 666.712 138.621 C 666.320 139.013, 666 140.348, 666 141.589 C 666 143.261, 666.841 144.105, 669.250 144.851 C 677.394 147.372, 684.480 147.920, 686.236 146.164 C 688.123 144.277, 685.978 141.069, 682.190 140.112 C 676.581 138.693, 667.513 137.820, 666.712 138.621 M 188.500 140.674 C 187.400 140.917, 179.075 142.869, 170 145.010 C 154.202 148.738, 152.373 148.951, 127 149.999 C 108.997 150.743, 96.332 150.778, 87.500 150.107 C 54.200 147.580, 42.848 147.835, 42.214 151.125 C 41.506 154.801, 47.921 155.389, 102 156.600 C 138.548 157.419, 152.710 156.316, 174.054 150.987 C 200.650 144.347, 210.309 145.626, 227.001 158.001 C 234.791 163.776, 238.306 168.609, 241.027 177.289 C 245.687 192.153, 241.439 207.881, 229.178 221.160 C 223.260 227.569, 219.096 229.823, 202.628 235.534 C 196.649 237.608, 189.936 240.698, 187.710 242.402 C 185.485 244.106, 180.927 249.325, 177.582 254 C 172.081 261.688, 170.794 262.858, 164.113 266.250 C 160.051 268.313, 155.284 270, 153.520 270 C 149.734 270, 141.445 267.274, 134.478 263.738 C 127.030 259.958, 101.851 241.757, 94.206 234.627 C 84.290 225.380, 68.957 212.599, 60.489 206.524 C 55.121 202.673, 50.304 200.270, 43.268 197.935 C 33.317 194.632, 30.759 192.797, 24.326 184.354 C 22.609 182.100, 21.890 181.756, 20.908 182.718 C 19.127 184.462, 21.134 190.521, 25.068 195.279 C 28.837 199.836, 33.552 202.357, 43.930 205.363 C 50.673 207.316, 53.230 208.786, 62.540 216.063 C 68.476 220.703, 79.221 229.799, 86.417 236.276 C 99.003 247.605, 121.407 264.111, 132.287 270.071 C 135.154 271.641, 141.606 273.918, 146.625 275.130 L 155.751 277.334 161.442 275.024 C 170.148 271.490, 178.454 265.665, 182.156 260.496 C 191.271 247.770, 193.106 246.468, 211.307 239.802 C 217.463 237.547, 224.093 234.699, 226.040 233.471 C 232.301 229.525, 240.121 219.962, 244.416 211 C 248.300 202.894, 248.504 201.990, 248.825 191.486 C 249.127 181.570, 248.899 179.778, 246.541 173.512 C 241.203 159.330, 235.542 153.325, 220.521 145.911 C 210.360 140.895, 197.220 138.746, 188.500 140.674 M 614.750 144.162 C 605.680 147.277, 604.337 148.722, 608.080 151.343 C 609.948 152.652, 610.939 152.516, 617.808 150.012 C 626.134 146.976, 628.185 145.133, 626.070 142.584 C 624.466 140.652, 625.319 140.533, 614.750 144.162 M 474 153.426 C 469.875 155.278, 460.200 160.129, 452.500 164.206 C 436.715 172.563, 434.642 173.443, 427.200 174.936 C 420.047 176.372, 416.870 178.165, 412.563 183.197 C 407.094 189.587, 405.766 195.501, 406.261 211.271 C 406.737 226.470, 412.079 259.538, 417.144 278.642 C 419.772 288.553, 420.363 292.880, 420.746 305 C 421.168 318.333, 420.955 320.714, 418.102 334.572 C 414.926 350.007, 414.118 362.551, 415.986 367.462 C 418.440 373.918, 432.830 386.107, 447.296 393.986 C 451.584 396.321, 457.434 400.332, 460.296 402.901 C 463.158 405.469, 469.142 410.572, 473.594 414.242 C 487.830 425.975, 491.895 431.608, 497.557 447.449 C 500.407 455.423, 501.213 459.705, 502.597 474.221 C 504.686 496.140, 504.079 512.189, 500.548 528.438 C 495.305 552.563, 492.689 573.298, 492.657 591 C 492.628 606.928, 492.775 608.140, 496.898 625.960 C 500.043 639.557, 501.019 645.615, 500.602 648.960 C 500.291 651.457, 499.746 658.328, 499.391 664.229 C 498.776 674.441, 498.870 675.212, 501.353 680.229 C 505.175 687.953, 512.079 696.097, 520.650 702.992 C 529.743 710.307, 534.379 712.716, 547.500 716.942 C 553 718.714, 563.800 723.241, 571.500 727.003 C 591.109 736.581, 601.938 740.075, 614.092 740.745 C 623.351 741.255, 624.074 741.147, 628.421 738.599 C 631.262 736.934, 633 735.208, 633 734.052 C 633 732.310, 632.231 732.222, 621.250 732.705 C 610.363 733.184, 608.660 732.995, 598.065 730.131 C 589.251 727.749, 583.701 725.434, 573.846 720.029 C 565.176 715.273, 556.628 711.560, 547.281 708.491 C 530.325 702.922, 525.152 699.534, 516.115 688.077 C 506.797 676.265, 506.685 675.996, 506.925 666.053 C 507.616 637.442, 507.608 637.338, 503.499 621 C 499.766 606.154, 499.608 604.866, 499.747 590.461 C 499.907 573.956, 502.195 555.616, 507.096 531.541 C 510.452 515.060, 512.469 495.252, 511.582 487.500 C 507.980 456.036, 505.690 446.258, 498.653 432.298 C 494.196 423.455, 491.183 419.967, 479.578 410.217 C 474.585 406.022, 468.008 400.320, 464.961 397.545 C 461.915 394.770, 456.515 390.962, 452.961 389.083 C 437.938 381.139, 424.428 369.886, 421.886 363.200 C 420.357 359.179, 420.912 351.827, 423.449 342.500 C 427.195 328.722, 428.359 317.359, 427.596 302 C 427.228 294.575, 426.238 285.575, 425.397 282 C 421.003 263.325, 418.699 252.079, 416.482 238.500 C 415.136 230.250, 413.577 221.928, 413.017 220.007 C 412.458 218.085, 412.004 212.010, 412.010 206.507 C 412.018 198.097, 412.397 195.690, 414.384 191.421 C 417.539 184.647, 420.654 182.429, 429.817 180.433 C 435.641 179.164, 441.493 176.623, 454 169.933 C 481.892 155.014, 480.068 155.609, 495.457 156.407 C 507.982 157.057, 514 156.351, 514 154.231 C 514 153.341, 490.685 149.954, 485 150.019 C 483.075 150.041, 478.125 151.574, 474 153.426 M 590.506 156.278 C 581.376 161.186, 582.175 166.115, 591.521 162.545 C 597.972 160.081, 600.406 157.854, 599.560 155.188 C 598.649 152.320, 597.644 152.441, 590.506 156.278 M 339.365 158.218 C 338.951 158.888, 338.504 163.576, 338.372 168.636 C 338.174 176.234, 338.407 177.942, 339.707 178.441 C 342.575 179.542, 344.912 178.010, 345.423 174.694 C 346.919 164.996, 347.089 159.813, 345.956 158.447 C 344.494 156.686, 340.400 156.543, 339.365 158.218 M 86.094 161.113 C 77.761 162.369, 71.061 165.310, 67.007 169.493 C 64.016 172.579, 63.805 173.214, 64.417 177.296 C 64.784 179.740, 66.407 183.828, 68.025 186.379 C 70.634 190.492, 72.293 191.669, 82.653 196.759 C 95.661 203.150, 94.382 201.680, 102.879 220.009 C 107.611 230.217, 113.049 236.670, 120.975 241.485 C 130.633 247.352, 136.105 248.766, 146.024 247.960 C 156.623 247.098, 166.253 243.261, 174.331 236.681 C 182.953 229.658, 189.082 226.961, 200.987 224.952 C 215.473 222.507, 216.301 222.247, 221.645 218.447 C 227.995 213.933, 231.509 208.404, 232.978 200.616 C 234.342 193.387, 234.127 192.326, 229.308 182.500 C 225.081 173.882, 222.232 170.817, 215.469 167.615 C 203.407 161.904, 192.610 161.891, 167.323 167.555 C 143.759 172.834, 138.005 172.458, 113 164.007 C 103.038 160.641, 94.980 159.774, 86.094 161.113 M 972.922 164.274 C 968.675 167.136, 965.429 171.900, 964.556 176.554 C 964.005 179.488, 964.565 181.616, 967.576 188.031 C 969.608 192.363, 972.383 196.940, 973.742 198.203 C 975.101 199.466, 977.523 202.393, 979.124 204.706 C 984.061 211.837, 996 216.240, 996 210.929 C 996 209.909, 993.888 207.491, 991.250 205.493 C 988.638 203.514, 984.315 199.106, 981.645 195.697 C 971.260 182.442, 970.403 176.382, 977.678 167.638 C 979.536 165.406, 979.806 164.471, 978.907 163.388 C 977.373 161.539, 976.869 161.614, 972.922 164.274 M 567.338 164.149 C 562.720 165.185, 560.475 167.189, 561.357 169.487 C 562.039 171.264, 566.771 171.469, 572.214 169.957 C 576.864 168.666, 577.676 167.404, 575.443 164.937 C 573.520 162.812, 573.361 162.796, 567.338 164.149 M 506.426 167.820 C 498.997 170.388, 477.870 186.023, 471.940 193.341 C 464.869 202.065, 461.452 211.882, 460.474 226.279 C 459.863 235.268, 459.536 236.440, 456.437 240.779 C 443.517 258.867, 442.721 260.785, 442.658 274 C 442.626 280.922, 443.218 284.357, 445.848 292.500 C 450.327 306.364, 450.980 312.492, 450.289 334.139 L 449.688 352.983 453.480 360.657 C 459.639 373.118, 473.150 386.007, 494.191 399.493 C 506.617 407.457, 523.360 425.960, 530.034 439.101 C 536.481 451.795, 540.005 467.531, 539.977 483.500 C 539.947 500.659, 535.968 529.341, 530.544 551.500 C 523.802 579.044, 522.155 616.977, 526.962 634 C 528.127 638.125, 531.502 646.450, 534.464 652.500 C 539.090 661.951, 540.971 664.609, 547.827 671.380 C 554.370 677.842, 557.668 680.182, 566.153 684.380 C 575.976 689.241, 576.715 689.829, 580.747 696 C 586.665 705.059, 590.069 708.295, 598.862 713.221 L 606.500 717.500 618 717.483 C 628.758 717.467, 629.919 717.267, 636 714.381 C 646.975 709.173, 653.439 702.909, 658.577 692.500 C 664.142 681.227, 665 676.526, 665 657.295 C 665 643.311, 664.666 640.344, 661.443 625.682 C 653.673 590.331, 653.952 592.467, 654.990 576.157 C 655.928 561.417, 659.394 541.780, 662.272 534.891 C 663.098 532.914, 664.103 529.317, 664.506 526.898 C 664.908 524.479, 668.598 512.150, 672.705 499.500 C 678.304 482.253, 680.630 473.374, 682.005 464 C 685.211 442.131, 685.386 438.177, 683.486 430.486 C 680.578 418.711, 677.724 413.819, 670.143 407.617 C 661.387 400.454, 653.626 396.901, 637.225 392.549 C 622.291 388.585, 620.416 387.768, 613.219 382.079 C 607.787 377.785, 604.118 372.343, 601.703 365 C 599.704 358.919, 596.355 338.175, 595.004 323.500 C 594.396 316.900, 593.269 305.650, 592.499 298.500 C 591.730 291.350, 590.826 282.575, 590.492 279 C 589.120 264.318, 584.382 242.650, 580.215 232 C 576.309 222.020, 571.488 215.374, 565.269 211.395 C 555.879 205.389, 550.629 199.252, 545.142 187.867 C 542.362 182.098, 538.228 175.385, 535.823 172.731 C 532.137 168.665, 530.707 167.818, 526.114 166.981 C 518.321 165.562, 512.204 165.822, 506.426 167.820 M 86.659 168.043 C 80.408 169.014, 73.372 172.385, 71.591 175.262 C 70.737 176.641, 71.043 178.038, 73 181.698 C 75.317 186.030, 76.148 186.639, 84.357 190.021 C 98.517 195.856, 101.225 198.719, 108.451 215.500 C 114.510 229.569, 124.876 238.493, 138.107 241.032 C 148.259 242.981, 155.667 240.585, 168.891 231.078 C 180.571 222.682, 185.612 220.608, 200.779 217.961 C 215.205 215.443, 216.771 214.843, 221.467 210.034 C 224.240 207.194, 225.568 204.687, 226.561 200.413 C 227.866 194.800, 227.819 194.426, 224.933 187.494 C 219.674 174.862, 213.470 170.802, 198.500 170.198 C 190.393 169.871, 186.133 170.297, 176 172.447 C 143.080 179.433, 138.830 179.438, 116.641 172.516 C 100.311 167.421, 95.389 166.687, 86.659 168.043 M 505.126 174.077 C 501.440 175.553, 487.082 187.127, 481.201 193.363 C 473.228 201.820, 470.308 208.966, 468.639 224.103 C 467.068 238.361, 465.998 241.149, 458.933 249.401 C 456.154 252.646, 452.725 257.582, 451.313 260.370 C 449.053 264.830, 448.808 266.284, 449.278 272.491 C 449.611 276.892, 451.244 283.671, 453.624 290.522 L 457.436 301.500 457.244 325 C 457.065 346.840, 457.206 348.946, 459.233 354.814 C 462.873 365.349, 472.605 375.298, 494.646 391.019 C 518.744 408.206, 535.861 428.183, 542.421 446.775 C 549.858 467.855, 548.445 509.969, 539.065 546.755 C 536.392 557.240, 535.332 564.798, 533.033 589.789 C 531.210 609.592, 531.182 611.719, 532.627 620.289 C 537.613 649.850, 548.382 665.583, 572.205 678.108 C 582.099 683.310, 584.158 685.243, 589.286 694.145 C 592.632 699.955, 596.645 703.362, 604.525 707.086 C 609.624 709.494, 611.990 710, 618.165 710 C 628.229 710, 634.208 707.996, 642.258 701.925 C 649.624 696.370, 652.646 692.014, 656.077 682 C 657.937 676.571, 658.320 673.192, 658.402 661.500 C 658.494 648.345, 658.248 646.444, 654.318 630 C 648.418 605.313, 647.007 596.184, 647.003 582.692 C 646.998 561.997, 650.995 543.959, 664.996 501.500 C 673.287 476.357, 674.073 473.251, 676.413 456.345 C 678.893 438.425, 678.903 438.106, 677.134 431.726 C 676.148 428.171, 673.983 422.858, 672.322 419.918 C 669.598 415.096, 668.303 414.019, 659.082 408.904 C 648.854 403.231, 640.510 400.126, 629.781 398.003 C 618.160 395.703, 606.256 387.750, 600.119 378.185 C 592.930 366.982, 590.056 352.391, 587.081 312 C 584.623 278.635, 579.608 248.689, 573.948 233.581 C 571.298 226.508, 566.120 220.622, 557.702 215.114 C 547.496 208.435, 542.765 202.005, 537.564 187.744 C 536.588 185.067, 533.929 181.087, 531.481 178.639 C 527.989 175.147, 526.205 174.163, 522.426 173.645 C 515.885 172.748, 507.950 172.946, 505.126 174.077 M 377.252 180.032 C 367.537 184.887, 362.566 192.284, 361.378 203.657 C 360.363 213.373, 362.424 222.844, 368.126 234.666 C 374.982 248.879, 375.808 254.137, 373.951 271.740 C 373.153 279.308, 372.504 290.900, 372.510 297.500 C 372.519 308.996, 372.651 309.752, 375.654 315.500 C 379.356 322.585, 382.895 326.629, 386.640 328.053 C 388.860 328.897, 390.194 328.656, 393.929 326.734 C 403.090 322.021, 406.632 310.077, 405.698 287.053 C 405.373 279.049, 404.445 268.675, 403.637 264 C 401.666 252.604, 401.178 248.118, 399.989 230.500 C 398.523 208.781, 397.098 197.599, 395.029 191.585 C 393.017 185.736, 388.484 178, 387.069 178 C 386.571 178, 385.547 177.763, 384.793 177.474 C 384.040 177.185, 380.646 178.336, 377.252 180.032 M 169.500 183.897 C 166.750 184.904, 161.229 186.982, 157.231 188.516 L 149.963 191.304 142.111 189.152 C 137.793 187.968, 131.733 187, 128.645 187 C 123.905 187, 122.542 187.437, 119.887 189.809 C 111.803 197.033, 117.770 215.693, 130.210 222.092 C 137.198 225.686, 142.964 224.804, 164.315 216.875 C 191.853 206.647, 195.006 204.505, 194.993 196.027 C 194.976 184.258, 183.467 178.781, 169.500 183.897 M 377.102 186.700 C 372.599 190.248, 367.998 200.377, 368.006 206.728 C 368.013 213.291, 369.357 217.650, 375.489 231 C 383.657 248.783, 384.427 255.646, 381.380 283.500 C 379.759 298.316, 379.765 298.596, 381.882 306.308 C 386.659 323.708, 393.820 324.521, 397.551 308.087 C 399.490 299.549, 399.115 289.459, 396.004 266.500 C 394.298 253.904, 393.187 242.834, 389.945 206.148 C 388.945 194.838, 387.379 189.181, 384.307 185.787 C 382.151 183.405, 381.117 183.536, 377.102 186.700 M 337.975 189.565 C 337.439 190.976, 337 195.221, 337 198.998 C 337 205.170, 337.220 205.935, 339.174 206.555 C 340.639 207.020, 341.733 206.718, 342.530 205.629 C 344.264 203.257, 345.308 190.076, 343.896 188.375 C 342.047 186.147, 339.046 186.750, 337.975 189.565 M 174 188.952 C 172.625 189.381, 167.391 191.593, 162.368 193.866 C 157.345 196.140, 151.945 197.994, 150.368 197.987 C 148.791 197.980, 143.995 196.855, 139.712 195.487 C 130.437 192.525, 126.880 192.370, 124.655 194.829 C 122.595 197.105, 122.477 204.088, 124.435 207.875 C 126.706 212.265, 133.501 217.816, 137.530 218.572 C 140.582 219.144, 143.665 218.268, 156.340 213.227 C 164.678 209.911, 173.904 206.429, 176.841 205.488 C 182.942 203.535, 189 198.724, 189 195.831 C 189 193.567, 187.205 189.837, 185.600 188.765 C 184.193 187.826, 177.251 187.938, 174 188.952 M 634.682 202.987 C 624.870 209.209, 620 221.505, 620 240.053 C 620 250.439, 620.478 253.838, 623.891 267.697 C 628.850 287.838, 629.821 294.518, 630.920 316.061 C 631.868 334.649, 632.734 338.340, 637.662 344.801 C 639.092 346.676, 642.316 349.513, 644.827 351.105 C 648.611 353.505, 650.464 354, 655.660 354 C 661.337 354, 662.638 353.570, 669.439 349.441 C 677.994 344.247, 678.373 343.762, 686.510 327.610 C 691.688 317.331, 693.193 315.206, 697.611 311.931 C 709.345 303.233, 713.210 295.253, 710.987 284.314 C 709.851 278.726, 709.383 278.092, 698.932 268 L 688.059 257.500 685.101 245 C 679.406 220.932, 674.373 210.345, 666.739 206.374 C 663.151 204.507, 645.787 200, 642.183 200 C 640.648 200, 637.272 201.344, 634.682 202.987 M 12.521 206.966 C 11.438 208.718, 16.156 216.316, 21.882 222.042 C 25.918 226.078, 29.207 228.308, 33.483 229.908 C 42.409 233.247, 69.739 248.678, 75.872 253.840 C 78.826 256.328, 88.951 265.608, 98.372 274.464 C 107.792 283.320, 117.955 292.304, 120.955 294.428 C 131.816 302.120, 146.591 306.742, 158.250 306.097 C 159.213 306.044, 160 305.411, 160 304.691 C 160 301.711, 157.189 300.015, 149.728 298.494 C 145.453 297.623, 139.899 296.028, 137.385 294.951 C 129.175 291.431, 117.821 282.722, 105.513 270.500 C 87.628 252.742, 76.845 244.457, 59 234.762 C 50.475 230.131, 40.338 225.138, 36.473 223.668 C 30.625 221.444, 28.195 219.737, 21.998 213.498 C 14.398 205.847, 13.567 205.274, 12.521 206.966 M 639.418 207.925 C 636.202 209.294, 632.388 214.391, 629.833 220.734 C 627.779 225.832, 627.515 228.121, 627.548 240.500 C 627.581 252.993, 627.932 255.816, 630.801 266.726 C 636.205 287.268, 637.073 292.809, 637.894 312 C 638.569 327.789, 638.991 331.096, 640.770 334.568 C 643.259 339.425, 649.919 345.691, 653.565 346.606 C 657.081 347.488, 662.463 345.737, 668.416 341.773 C 672.736 338.896, 674.016 337.137, 678.989 327.240 C 685.079 315.118, 687.360 312.223, 696.258 305.331 C 703.236 299.926, 705 296.769, 705 289.685 C 705 283.147, 703.811 281.426, 693.447 272.957 C 689.361 269.618, 684.936 264.999, 683.614 262.693 C 682.292 260.387, 679.606 252.548, 677.644 245.273 C 673.339 229.309, 668.555 217.437, 664.976 213.838 C 660.751 209.588, 644.400 205.805, 639.418 207.925 M 339.329 216.173 C 336.386 217.613, 335.859 220.441, 336.936 229.021 C 337.871 236.462, 338.981 238.206, 342.500 237.756 C 344.363 237.518, 344.500 236.748, 344.500 226.514 C 344.500 214.716, 344.069 213.854, 339.329 216.173 M 8.250 232.715 C 6.010 233.524, 6.916 236.369, 11.884 244.122 C 18.430 254.339, 23.191 257.573, 37.500 261.525 C 40.800 262.436, 46.988 264.991, 51.252 267.203 C 60.470 271.986, 70.873 282.426, 80.115 296.172 C 87.369 306.959, 91.562 311.237, 98.152 314.577 C 103.756 317.417, 114.269 319.956, 120.535 319.983 C 125.427 320.004, 138.343 324.096, 140.943 326.448 C 144.217 329.411, 145.939 334.028, 144.849 336.920 C 143.464 340.596, 138.459 345.489, 134.050 347.478 C 130.394 349.126, 130.135 349.110, 125.938 346.969 C 123.554 345.752, 119.330 343.265, 116.551 341.442 C 109.360 336.722, 86.734 331.384, 79.076 332.600 C 72.996 333.565, 64.747 329.776, 59.741 323.718 C 57.408 320.896, 53.713 316.992, 51.529 315.043 C 49.345 313.094, 46.195 309.970, 44.529 308.100 C 34.284 296.597, 32.064 294.407, 28.054 291.843 C 25.609 290.279, 22.511 289, 21.170 289 C 19.829 289, 17.033 288.491, 14.957 287.869 C 10.729 286.602, 5.646 287.430, 6.257 289.287 C 6.852 291.099, 14.137 294.964, 17 294.987 C 21.451 295.023, 25.341 298.430, 41.782 316.696 C 50.672 326.573, 59.195 335.233, 60.723 335.940 C 68.003 339.312, 72.431 340.283, 84 341.044 C 98.444 341.995, 105.880 344.266, 115.828 350.766 C 122.452 355.094, 128.531 356.701, 133.852 355.533 C 141.956 353.753, 151 342.357, 151 333.927 C 151 323.414, 138.285 315.056, 119.024 312.908 C 105.345 311.383, 100.426 309.573, 95.121 304.112 C 92.580 301.496, 86.982 294.109, 82.683 287.697 C 78.384 281.285, 72.534 273.971, 69.683 271.443 C 61.890 264.534, 50.958 258.516, 39.642 254.904 C 34.064 253.124, 28.502 251.025, 27.282 250.240 C 26.062 249.455, 22.061 245.367, 18.390 241.156 C 11.175 232.879, 10.152 232.028, 8.250 232.715 M 507.898 234.960 C 503.555 235.405, 499.787 236.521, 496.883 238.223 C 490.371 242.039, 475.848 257.553, 472.729 264.025 C 469.510 270.703, 467.536 286.634, 468.527 297.922 C 470.531 320.736, 479.708 346.292, 489.871 357.365 C 492.922 360.689, 506.204 371.516, 524 385.187 C 542.127 399.112, 542.456 399.516, 554.863 423.101 C 566.500 445.222, 572.142 465.177, 574.571 492.809 C 575.858 507.448, 575.846 509.822, 574.449 515.336 C 572.161 524.369, 564.488 544.938, 558.853 557.149 C 552.862 570.128, 551.040 578.251, 551.017 592.074 C 550.987 610.410, 555.177 628.299, 561.417 636.481 C 562.763 638.245, 568.057 642.542, 573.182 646.030 C 586.004 654.756, 597.415 665.960, 601.158 673.500 C 604.831 680.900, 607.109 683.390, 612.664 686.079 C 621.440 690.328, 628.529 686.663, 634.457 674.813 C 637.853 668.026, 638 667.286, 638 657.026 C 638 649.668, 637.387 643.925, 636.041 638.661 C 628.983 611.064, 628.983 578.129, 636.041 539 C 639.642 519.031, 641.001 485.707, 638.909 468.648 C 637.477 456.974, 631.414 442.303, 622.427 428.765 C 617.097 420.736, 611.739 414.689, 597.824 401 C 582.213 385.641, 579.684 382.705, 577.162 377 C 571.275 363.681, 568.262 349.293, 564.913 318.500 C 561.232 284.655, 556.477 262.535, 551.070 254.109 C 547.609 248.716, 539.631 241.324, 534.500 238.755 C 530.882 236.944, 519.135 233.944, 516.436 234.142 C 515.371 234.220, 511.529 234.588, 507.898 234.960 M 507.270 241.922 C 502.457 243.140, 491.470 250.660, 486.854 255.896 C 478.139 265.780, 475.598 275.168, 476.270 295 C 477.058 318.279, 484.134 338.550, 495.912 351.272 C 502.025 357.875, 519.719 372.956, 534.076 383.800 C 547.791 394.160, 551.710 399.456, 564.385 424.769 C 571.286 438.549, 572.365 441.524, 575.447 455.269 C 580.826 479.258, 581.501 484.428, 581.482 501.500 L 581.463 517.500 576.635 531.500 C 573.979 539.200, 569.392 550.675, 566.442 557 C 563.491 563.325, 560.391 571.425, 559.553 575 C 557.366 584.331, 557.582 600.137, 560.064 612.316 C 563.276 628.075, 564.643 630.140, 578.048 639.478 C 591.202 648.641, 602.970 660.113, 607.937 668.616 C 614.050 679.082, 616.938 681.118, 621.977 678.512 C 626.398 676.226, 628.715 672.109, 630.461 663.443 C 631.914 656.228, 631.919 654.721, 630.516 647 C 625.554 619.708, 622.438 588.616, 623.500 577 C 623.878 572.875, 625.743 560.275, 627.646 549 C 631.866 523.997, 634.353 489.329, 632.973 474.742 C 630.816 451.938, 619.028 431.985, 591.477 404.500 C 574.736 387.800, 571.111 382.315, 566.659 366.951 C 563.751 356.916, 560.513 338.009, 558.962 322 C 555.006 281.181, 550.155 263.274, 539.895 251.618 C 532.881 243.650, 517.963 239.216, 507.270 241.922 M 769.238 245.111 C 766.893 246.272, 763.278 249.149, 761.205 251.505 C 754.447 259.182, 752.414 264.792, 747.977 288 C 742.986 314.106, 743.081 313.759, 735.716 333 C 729.077 350.343, 727.236 354.252, 722.374 361.320 C 718.590 366.821, 718.144 369, 720.804 369 C 725.231 369, 733.166 357.323, 739.119 342.048 C 746.889 322.110, 750.020 311.532, 753.033 295.034 C 756.732 274.778, 758.286 269.181, 762.317 261.583 C 765.662 255.280, 772.224 250, 776.715 250 C 777.992 250, 781.617 251.390, 784.769 253.089 C 789.942 255.876, 791.089 256.119, 796.545 255.582 C 799.869 255.254, 805.944 254.055, 810.045 252.917 C 820.862 249.915, 829.254 249.434, 836.854 251.383 C 845.084 253.493, 848.244 255.841, 851.414 262.203 C 855.304 270.010, 855.046 277.263, 850.653 283.641 C 845.159 291.615, 840.667 294.022, 815.623 302.412 C 792.060 310.305, 780.096 315.557, 771.789 321.655 C 766.196 325.761, 755.362 339.791, 751.103 348.444 C 743.677 363.530, 744.355 379.856, 753.134 397.326 C 754.305 399.656, 761.826 408.083, 770.157 416.400 C 780.866 427.091, 786.482 433.576, 790.041 439.358 L 795 447.416 794.991 456.458 C 794.984 464.474, 794.521 466.805, 790.908 477 C 782.237 501.474, 785.296 513.796, 802 521.671 C 810.579 525.715, 820.483 532.455, 823.329 536.187 C 827.189 541.248, 830.934 550.056, 832.142 556.917 C 833.001 561.794, 833.582 563, 835.072 563 C 838.063 563, 838.933 560.021, 838.040 552.826 C 836.198 537.967, 827.800 527.310, 808.716 515.613 C 803.434 512.375, 797.878 508.439, 796.371 506.865 C 793.850 504.234, 793.641 503.409, 793.780 496.615 C 793.893 491.059, 794.654 487.400, 796.846 481.863 C 801.162 470.963, 802.305 464.525, 801.835 453.766 C 801.468 445.381, 801.013 443.436, 798.054 437.606 C 794.510 430.623, 784.244 418.630, 775.220 410.929 C 766.735 403.689, 758.481 393.512, 755.989 387.219 C 754.513 383.490, 753.563 378.543, 753.259 373 C 752.709 362.947, 754.762 355.529, 761.048 344.859 C 765.537 337.237, 779.267 323.804, 786.695 319.764 C 789.338 318.327, 803.200 313.265, 817.500 308.515 C 831.800 303.765, 845.431 298.751, 847.792 297.373 C 853.322 294.144, 857.526 288.276, 859.963 280.384 C 861.577 275.160, 861.743 273.096, 860.949 268.163 C 858.165 250.877, 850.582 244.916, 830.500 244.227 C 821.872 243.931, 817.612 244.295, 810.747 245.916 C 794.895 249.660, 792.145 249.682, 786.517 246.113 C 780.596 242.358, 775.408 242.057, 769.238 245.111 M 340.269 246.250 C 339.137 247.700, 340.631 265.984, 341.995 267.377 C 342.467 267.859, 344.012 267.963, 345.427 267.608 C 348.419 266.857, 348.565 265.566, 346.896 254.692 C 345.765 247.328, 344.709 245, 342.500 245 C 341.810 245, 340.806 245.563, 340.269 246.250 M 649.736 247.993 C 646.356 250.652, 644.568 258.309, 645.297 267.006 C 645.971 275.047, 647.647 279.389, 651.978 284.323 C 656.138 289.060, 660.478 289.332, 665.160 285.149 C 667.954 282.652, 668.407 281.528, 668.798 276.112 C 669.309 269.055, 667.704 259.486, 664.958 253.216 C 663.591 250.094, 662.131 248.535, 659.573 247.466 C 654.877 245.504, 652.756 245.618, 649.736 247.993 M 248.050 251.927 C 241.042 253.991, 239 255.856, 239 260.191 C 239 263.466, 238.687 263.367, 243.624 261.660 C 251.331 258.994, 262.664 257.618, 265.894 258.956 C 269.702 260.533, 270.046 261.598, 269.044 268.689 C 267.958 276.373, 266.146 280.516, 259.952 289.476 C 255.271 296.246, 253.689 297.619, 241.664 305.344 C 234.424 309.996, 224.556 316.117, 219.736 318.947 C 205.408 327.361, 193.500 337, 176.015 354.338 C 164.306 365.949, 157.900 371.526, 154 373.505 C 143.333 378.918, 128.865 377.747, 110.500 369.985 C 98.656 364.980, 91.674 363.192, 79.146 361.959 C 73.451 361.398, 67.338 360.332, 65.561 359.590 C 61.977 358.092, 57.762 353.200, 50.488 342.093 C 38.840 324.306, 25.324 314.500, 12.456 314.500 C 5.643 314.500, 2.126 316.242, 4.110 318.633 C 4.734 319.385, 6.426 320, 7.869 320 C 12.124 320, 25.541 324.885, 29.840 327.999 C 34.709 331.526, 43.275 342.001, 49.340 351.846 C 55.953 362.578, 64.460 368, 74.684 368 C 83.904 368, 93.532 370.245, 103.476 374.714 C 114.195 379.531, 124.390 382.504, 133.689 383.524 C 140.357 384.256, 153.233 381.942, 159.073 378.963 C 161.092 377.933, 170.061 370.073, 179.003 361.497 C 200.863 340.532, 210.661 333.016, 234.356 319.038 C 247.317 311.392, 259.589 302.346, 263.398 297.631 C 265.233 295.359, 268.773 289.900, 271.263 285.500 C 274.986 278.924, 276.015 275.953, 277.048 268.807 C 278.172 261.033, 278.129 259.846, 276.638 257.570 C 272.459 251.192, 259.338 248.602, 248.050 251.927 M 652.595 255.168 C 650.449 258.232, 650.587 262.445, 653.105 270.645 C 655.502 278.454, 656.491 280, 659.087 280 C 662.160 280, 662.899 277.067, 661.953 268.632 C 660.534 255.979, 656.297 249.883, 652.595 255.168 M 220 262 C 215.536 266.464, 219.066 278, 224.896 278 C 229.313 278, 233.383 272.769, 232.633 268.055 C 231.555 261.278, 224.232 257.768, 220 262 M 511.490 270.310 C 509.088 272.712, 507.401 276.071, 505.340 282.560 C 502.811 290.522, 502.511 292.867, 502.602 304 C 502.718 318.279, 504.480 326.270, 510.684 340.656 C 516.639 354.463, 525.408 361.750, 534.965 360.833 C 537.884 360.552, 538.900 359.736, 541.423 355.646 C 546.901 346.763, 546.249 329.115, 539.445 302.078 C 534.540 282.590, 529.316 273.243, 520.943 268.971 C 515.844 266.370, 515.362 266.438, 511.490 270.310 M 205.867 275.658 C 201.576 280.568, 200.560 288.387, 203.829 291.345 C 207.338 294.521, 214.863 292.791, 216.890 288.343 C 218.649 284.481, 218.262 278.547, 216.124 276.612 C 213.184 273.952, 207.796 273.451, 205.867 275.658 M 344.781 276.250 C 343.326 277.385, 343.424 278.324, 345.848 286.488 C 348.606 295.776, 349.929 297.235, 353.335 294.745 C 355.048 293.492, 355.053 293.111, 353.439 286.466 C 350.862 275.856, 348.642 273.237, 344.781 276.250 M 514.017 278.212 C 511.081 283.040, 509 293.783, 509 304.110 C 509 312.073, 509.490 314.762, 512.611 323.912 C 519.870 345.197, 525.569 354, 532.090 354 C 534.727 354, 535.376 353.405, 537.180 349.325 C 538.999 345.213, 539.167 343.498, 538.568 335.075 C 536.883 311.339, 529.368 286.564, 521.180 277.750 C 517.872 274.188, 516.407 274.283, 514.017 278.212 M 190.642 282.852 C 188.267 285.331, 187.923 286.420, 188.190 290.618 C 188.475 295.111, 188.719 295.525, 191.250 295.816 C 194.468 296.187, 194.861 297.592, 192 298.500 C 190.900 298.849, 190 300.004, 190 301.067 C 190 302.602, 190.707 303, 193.427 303 C 197.355 303, 201 299.325, 201 295.365 C 201 292.404, 197.698 289, 194.826 289 L 192.651 289 195.042 286.455 C 196.886 284.492, 197.196 283.534, 196.395 282.265 C 194.747 279.652, 193.595 279.770, 190.642 282.852 M 207.667 280.667 C 206.387 281.946, 207.013 286.068, 208.578 286.668 C 210.858 287.543, 213.349 284.675, 212.535 282.112 C 211.895 280.094, 209.076 279.257, 207.667 280.667 M 988.861 280.979 C 982.707 282.112, 975.406 287.563, 971.630 293.845 C 963.080 308.067, 963.582 305.740, 962.962 334 C 962.319 363.286, 963.535 359.011, 949.808 380.240 C 944.922 387.797, 938.803 398.368, 936.212 403.731 L 931.500 413.483 931.547 430.991 C 931.582 444.023, 932.034 450.290, 933.312 455.500 C 935.553 464.635, 936.953 468, 938.514 468 C 940.635 468, 940.960 465.437, 939.871 457.285 C 939.299 453.003, 938.596 442.916, 938.309 434.870 L 937.788 420.240 941.811 410.870 C 947.013 398.753, 952.240 389.409, 959.274 379.647 C 968.596 366.712, 969.153 364.431, 969.683 337 L 970.138 313.500 973.601 306.295 C 975.506 302.333, 979.314 296.630, 982.063 293.622 C 986.876 288.356, 987.299 288.127, 993.466 287.467 C 1000.058 286.761, 1001.833 285.405, 999.681 282.721 C 998.188 280.858, 993.564 280.113, 988.861 280.979 M 173.242 287.034 C 170.092 288.300, 168.294 292.445, 170.003 294.504 C 171.168 295.907, 171.521 295.859, 173.465 294.033 C 175.703 291.930, 178 291.344, 178 292.876 C 178 293.357, 176.875 296.295, 175.500 299.404 C 174.125 302.513, 173 305.889, 173 306.906 C 173 309.818, 175.561 311.305, 179.352 310.594 C 185.224 309.492, 188.119 304, 182.827 304 C 181.051 304, 180.856 303.560, 181.383 300.750 C 183.297 290.550, 183.291 290.291, 181.116 288.116 C 178.856 285.856, 176.858 285.581, 173.242 287.034 M 353.515 303.366 C 351.637 304.738, 351.627 304.979, 353.223 310.144 C 354.133 313.090, 355.178 317.171, 355.544 319.214 C 356.328 323.594, 358.023 325.276, 361.195 324.827 C 363.203 324.542, 363.475 323.985, 363.304 320.500 C 363.021 314.742, 358.806 302.558, 356.981 302.222 C 356.145 302.068, 354.585 302.583, 353.515 303.366 M 896.231 316.912 C 893.509 319.063, 888.631 323.901, 885.391 327.662 C 865.324 350.955, 853.198 360, 842.036 360 C 830.645 360, 822.977 368.294, 823.022 380.566 C 823.054 389.225, 825.704 394.135, 835.399 403.500 C 842.441 410.302, 843.873 412.249, 844.965 416.500 C 851.066 440.269, 854.410 444.792, 865.123 443.762 C 878.365 442.490, 885.337 428.508, 888.953 395.973 C 892.574 363.389, 894.580 355.281, 902.099 342.836 C 906.672 335.268, 911.913 322.703, 911.966 319.184 C 912.032 314.694, 910.276 313, 905.555 313 C 901.977 313, 900.278 313.713, 896.231 316.912 M 901.820 317.538 C 900.346 318.337, 894.722 324.494, 889.323 331.220 C 871.054 353.981, 863.069 360.685, 849.177 364.932 C 843.854 366.559, 837.874 368.148, 835.887 368.464 C 830.315 369.351, 828.485 372.078, 828.581 379.355 C 828.686 387.389, 830.228 390.087, 839.430 398.346 C 848.313 406.319, 850.353 409.866, 853.558 422.906 C 855.561 431.055, 856.407 432.914, 859.170 435.250 C 863.062 438.539, 863.228 438.552, 868.561 435.971 C 871.804 434.400, 873.438 432.647, 875.781 428.221 C 880.605 419.107, 882.043 412.699, 883.033 395.890 C 884.378 373.059, 889.256 353.850, 897.107 340.468 C 904.114 328.522, 907.128 321.928, 906.808 319.241 C 906.428 316.054, 905.280 315.662, 901.820 317.538 M 360.101 334.693 L 357.044 337.500 358.134 345.500 C 359.385 354.673, 360.141 356, 364.122 356 L 367 356 366.882 347.250 C 366.678 332.166, 365.410 329.819, 360.101 334.693 M 314.984 350.813 C 308.220 354.332, 300.976 373.469, 301.022 387.697 C 301.058 398.921, 304.547 404.291, 316.441 411.433 C 321.125 414.245, 323.432 415, 327.346 415 C 331.825 415, 332.676 414.614, 336.062 411.055 C 342.027 404.785, 344.343 397.568, 344.786 383.875 C 345.150 372.626, 345.056 371.994, 341.908 364.375 C 339.940 359.614, 337.187 355.017, 334.944 352.750 C 331.429 349.196, 330.902 349, 324.852 349 C 320.637 349, 317.285 349.616, 314.984 350.813 M 318.004 357.218 C 310.980 361.951, 305.257 385.853, 309.298 393.575 C 312.413 399.526, 323.390 408, 327.985 408 C 331.692 408, 333.698 405.445, 336.645 396.971 C 342.126 381.209, 338.850 363.287, 329.497 357.874 C 324.243 354.832, 321.755 354.690, 318.004 357.218 M 360.729 363.750 C 360.515 364.163, 360.601 368.775, 360.920 374 L 361.500 383.500 365 383.500 L 368.500 383.500 368.328 375.165 C 368.198 368.836, 367.740 366.370, 366.423 364.915 C 364.689 362.999, 361.461 362.338, 360.729 363.750 M 701.229 369.669 C 698.865 370.621, 696.930 375.687, 697.929 378.312 C 699.373 382.112, 703.765 385, 708.100 385 C 712.615 385, 714 383.154, 714 377.138 C 714 374.016, 713.426 372.693, 711.365 371.073 C 708.901 369.134, 704.183 368.481, 701.229 369.669 M 857.952 372.253 C 853.527 375.236, 851.136 379.541, 849.957 386.656 C 848.677 394.373, 849.473 397.497, 853.505 400.571 L 856.845 403.119 860.718 401.144 C 866.039 398.429, 870.077 390.906, 870.757 382.442 C 871.241 376.411, 871.120 375.966, 868.209 373.056 C 864.565 369.412, 862.418 369.244, 857.952 372.253 M 859.058 378.438 C 854.993 382.766, 854.944 395, 858.993 395 C 862.885 395, 866.905 381.001, 864.015 377.518 C 862.322 375.478, 861.736 375.587, 859.058 378.438 M 397.371 389.038 C 391.163 393.016, 384.785 405.188, 382.996 416.476 C 380.931 429.495, 381.460 437.291, 385.473 453 C 390.494 472.654, 390.270 475.704, 382.652 491.414 C 373.464 510.365, 371.678 516.637, 372.235 528 C 372.943 542.442, 377.495 552.185, 396.645 580.238 C 413.421 604.812, 416.451 613.070, 416.373 634 C 416.346 641.425, 415.789 650.200, 415.136 653.500 C 414.483 656.800, 413.309 665.800, 412.525 673.500 C 410.918 689.304, 407.709 701.455, 398.048 728.316 C 394.722 737.565, 392 745.584, 392 746.135 C 392 746.687, 393.012 746.995, 394.250 746.820 C 397.825 746.312, 404.189 732.364, 411.946 708.035 C 418.133 688.633, 418.923 685.208, 419.925 673.456 C 420.536 666.283, 421.704 655.972, 422.518 650.544 C 424.394 638.047, 424.387 629, 422.491 617 C 420.575 604.879, 417.283 598.236, 401.193 574.021 C 394.423 563.835, 386.773 551.265, 384.193 546.090 C 379.529 536.738, 379.501 536.620, 379.634 527.090 C 379.795 515.492, 381.716 509.152, 389.811 493.500 L 395.499 482.500 395.411 470.500 C 395.334 459.922, 394.949 457.330, 392.162 448.627 C 388.684 437.768, 388.256 431.538, 390.079 418.322 C 391.313 409.376, 395.708 399.161, 399.661 396.052 C 403.968 392.664, 407.136 393.369, 412.270 398.858 C 417.289 404.224, 419.830 408.728, 422.503 417 C 423.937 421.436, 425.692 423.879, 431.581 429.632 C 437.542 435.455, 440.313 437.340, 446.690 439.907 C 458.327 444.591, 460.870 446.042, 466.578 451.252 C 472.664 456.806, 474.926 461.734, 475.716 471.156 C 476.783 483.877, 473.597 493.841, 463.271 510.084 C 454.067 524.561, 452.741 527.621, 452.221 535.580 C 451.829 541.585, 452.338 544.772, 455.577 556.580 C 459.163 569.651, 459.386 571.285, 459.231 583.385 C 459.140 590.472, 458.106 603.747, 456.932 612.885 C 452.662 646.131, 457.539 671.257, 474.231 702 C 483.842 719.702, 491.981 729.743, 504.193 738.964 C 518.384 749.680, 531.114 754.954, 547.723 756.999 C 552.550 757.594, 560.855 758.772, 566.177 759.618 C 573.177 760.730, 581.292 761.064, 595.509 760.827 C 613.648 760.525, 615.274 760.349, 616.592 758.545 C 617.837 756.841, 617.822 756.393, 616.474 755.045 C 615.185 753.756, 611.328 753.475, 593.214 753.351 C 581.271 753.269, 569.700 752.718, 567.500 752.125 C 565.300 751.533, 561.546 751.037, 559.157 751.024 C 552.213 750.986, 535.189 747.137, 527.136 743.784 C 519.996 740.812, 509.547 733.664, 499.905 725.157 C 494.887 720.729, 476.898 692.991, 475.159 687 C 474.601 685.075, 472.496 679.225, 470.481 674 C 463.762 656.571, 462.153 630.906, 466 602.500 C 468.727 582.362, 468.588 579.350, 464 559.255 C 461.800 549.619, 460.001 539.432, 460.002 536.618 C 460.005 530.958, 462.544 525.356, 470.929 512.512 C 476.916 503.340, 480.601 493.459, 482.549 481.350 C 484.017 472.232, 483.994 471.604, 481.925 464.193 C 479.221 454.509, 478.783 453.708, 472.635 447.208 C 467.455 441.730, 458.603 436.189, 451.500 433.977 C 446.669 432.473, 439.339 427.289, 434.911 422.246 C 433.123 420.209, 429.922 414.783, 427.799 410.188 C 423.211 400.256, 417.061 391.618, 412.673 388.942 C 408.467 386.377, 401.456 386.421, 397.371 389.038 M 250.801 391.351 C 242.873 394.305, 231.334 402.601, 222.129 411.966 C 213.622 420.621, 212.227 422.606, 206.991 433.500 C 199.778 448.506, 194.327 463.051, 193.456 469.620 C 192.626 475.878, 194.394 484.816, 197.308 489.095 C 203.788 498.612, 211.916 501.302, 234.537 501.418 L 250.574 501.500 257.740 505.646 C 261.681 507.927, 269.197 511.250, 274.442 513.032 C 283.687 516.173, 284.349 516.254, 296.238 515.728 C 306.425 515.277, 309.656 514.724, 315.332 512.463 C 332.977 505.435, 343.194 486.920, 340.234 467.336 C 338.134 453.443, 331.984 442.419, 323.589 437.499 C 321.054 436.014, 313.961 433.757, 306.650 432.110 C 299.732 430.552, 292.882 428.497, 291.427 427.544 C 289.763 426.454, 287.319 422.598, 284.840 417.155 C 282.672 412.395, 279.692 405.868, 278.218 402.650 C 275.260 396.195, 270.139 391.005, 266.715 390.991 C 265.497 390.987, 262.250 390.756, 259.500 390.478 C 256.477 390.173, 253.037 390.518, 250.801 391.351 M 701.174 392.314 C 698.308 395.365, 698.429 398.168, 701.589 401.923 C 704.906 405.866, 710.974 406.303, 713.443 402.777 C 718.992 394.855, 707.775 385.289, 701.174 392.314 M 362.667 392.667 C 361.851 393.482, 361.940 401.732, 362.838 408.489 C 363.327 412.175, 363.969 413.567, 365.298 413.821 C 368.957 414.521, 369.867 412.364, 369.357 404.195 C 368.661 393.054, 368.341 392, 365.648 392 C 364.375 392, 363.033 392.300, 362.667 392.667 M 254.887 397.868 C 253.451 398.216, 248.587 400.495, 244.080 402.934 C 237.716 406.377, 233.884 409.461, 226.928 416.736 C 219.068 424.958, 217.242 427.598, 212.008 438.303 C 206.081 450.425, 200 470.149, 200 477.252 C 200 481.655, 203.720 488.804, 206.852 490.422 C 213.024 493.611, 218.721 494.429, 235 494.464 L 251.500 494.500 260 498.345 C 276.143 505.648, 281.732 507.264, 292.620 507.775 C 301.712 508.202, 303.593 507.971, 311.120 505.498 C 318.280 503.146, 320.213 501.999, 324.398 497.623 C 331.605 490.085, 332.952 486.445, 332.978 474.432 C 333.008 460.595, 331.211 454.864, 324.933 448.777 C 322.254 446.179, 319.036 443.854, 317.781 443.609 C 316.527 443.364, 311.681 442.468, 307.013 441.617 C 301.586 440.628, 295.819 438.706, 291.013 436.285 C 284.145 432.825, 283.267 432.028, 280.783 427 C 279.289 423.975, 277.089 418.575, 275.896 415 C 273.284 407.178, 269.556 400.503, 266.673 398.483 C 264.523 396.977, 259.628 396.722, 254.887 397.868 M 703.733 413.750 C 702.866 414.712, 701.839 416.770, 701.451 418.322 C 700.865 420.670, 701.306 421.720, 704.070 424.572 C 706.656 427.241, 708.199 428, 711.036 428 C 713.969 428, 714.905 427.504, 715.839 425.453 C 717.894 420.943, 717.270 417.405, 713.923 414.589 C 710.364 411.594, 705.999 411.235, 703.733 413.750 M 340.500 416.744 C 337.413 417.458, 335 420.063, 335 422.684 C 335 427.882, 343.555 441, 346.945 441 C 347.316 441, 348.996 439.655, 350.678 438.011 C 355.011 433.774, 355.647 428.779, 352.529 423.459 C 351.201 421.194, 349.527 418.876, 348.808 418.308 C 347.074 416.940, 342.986 416.170, 340.500 416.744 M 707.364 418.493 C 707.018 419.396, 707.214 420.614, 707.800 421.200 C 709.324 422.724, 712.210 421.331, 711.812 419.265 C 711.369 416.963, 708.165 416.407, 707.364 418.493 M 247.422 419.379 C 242.952 421.382, 237.282 426.661, 234.522 431.387 C 233.202 433.649, 230.934 439.550, 229.482 444.500 C 226.383 455.071, 226.576 461.671, 230.178 468.256 C 234.128 475.476, 239.727 477.127, 256.500 476.016 C 263.035 475.584, 268.180 478.212, 273.767 484.838 C 278.292 490.206, 287.629 495.614, 294.025 496.574 C 298.530 497.250, 303.838 494.530, 306.284 490.291 C 308.749 486.020, 308.904 473.649, 306.549 469.096 C 304.702 465.524, 298.909 461.575, 285.105 454.478 C 274.399 448.974, 271.912 446.172, 266.347 433.348 C 260.913 420.823, 254.599 416.163, 247.422 419.379 M 342.667 422.667 C 340.668 424.665, 344.524 432, 347.573 432 C 349.699 432, 349.320 427.677, 346.927 424.635 C 344.807 421.939, 343.841 421.493, 342.667 422.667 M 363.027 424.949 C 362.395 426.131, 362.044 430.556, 362.210 435.260 C 362.493 443.305, 362.559 443.500, 365 443.500 C 367.500 443.500, 367.500 443.499, 367.500 433.514 C 367.500 424.951, 367.260 423.481, 365.817 423.203 C 364.892 423.025, 363.636 423.811, 363.027 424.949 M 244.541 429.134 C 234.005 441.655, 232.104 463.749, 241.287 466.950 C 242.943 467.528, 248.702 468, 254.084 468 C 259.466 468, 265.137 468.467, 266.685 469.037 C 268.233 469.608, 272.907 473.618, 277.071 477.949 C 284.364 485.534, 288.165 487.999, 294.829 489.462 C 297.364 490.019, 298.415 489.676, 300.472 487.619 C 302.553 485.538, 303 484.134, 303 479.680 C 303 475.872, 302.435 473.552, 301.093 471.846 C 299.424 469.724, 290.949 465.033, 278.743 459.476 C 272.185 456.490, 265.935 448.509, 261.623 437.614 C 257.545 427.311, 256.236 426, 250.024 426 C 248.062 426, 246.358 426.974, 244.541 429.134 M 700.910 432.609 C 700.244 433.410, 699.486 436.294, 699.224 439.016 C 698.842 442.997, 699.075 444.091, 700.412 444.604 C 701.359 444.968, 702.876 444.517, 703.938 443.556 C 705.284 442.338, 706.001 442.193, 706.522 443.036 C 706.949 443.727, 708.415 443.967, 710.121 443.626 C 712.158 443.218, 713 443.446, 713 444.403 C 713 445.146, 713.698 446.334, 714.550 447.042 C 716.451 448.620, 718.524 446.906, 719.491 442.957 C 720.340 439.485, 716.797 435.008, 713.177 434.978 C 711.705 434.966, 708.614 434.100, 706.310 433.054 C 702.664 431.399, 701.962 431.341, 700.910 432.609 M 65.688 445.370 C 64.533 448.380, 67.639 449.760, 77.212 450.488 C 87.523 451.273, 90.767 452.434, 104.396 460.214 C 120.397 469.348, 132.998 477.980, 140.539 484.972 C 148.522 492.374, 160.876 501.402, 168 505.039 C 170.475 506.303, 176.325 508.523, 181 509.972 C 189.151 512.500, 189.656 512.831, 193.295 518.054 C 201.730 530.159, 206.094 535.015, 211.220 537.999 C 216.473 541.058, 216.567 541.072, 229.830 540.833 L 243.161 540.592 249.152 545.546 C 252.448 548.271, 256.124 550.874, 257.322 551.332 C 260.976 552.728, 267.200 551.292, 276.191 546.978 C 283.517 543.462, 285.324 542.969, 288.631 543.582 C 293.854 544.550, 299.589 550.295, 300.576 555.549 C 302.181 564.093, 296.541 581.503, 289.450 589.893 C 285.176 594.949, 277.876 597.978, 269.938 597.990 C 264.431 597.998, 261.540 597.255, 251.938 593.363 C 234.275 586.202, 233.899 586.091, 227.200 586.044 C 219.762 585.992, 215.306 587.932, 214.379 591.626 C 213.485 595.189, 215.439 596.109, 220.277 594.402 C 227.004 592.029, 230.484 592.703, 247.858 599.750 C 262.992 605.888, 265.134 606.497, 271.500 606.470 C 277.313 606.446, 279.633 605.892, 285.180 603.203 C 292.963 599.430, 296.365 595.586, 302.540 583.586 C 308.393 572.211, 309.571 565.963, 307.970 554.790 C 306.742 546.223, 306.593 545.893, 302.050 541.643 C 293.998 534.112, 285.451 533.109, 274.982 538.468 C 268.469 541.801, 262.474 543.131, 259.336 541.938 C 258.085 541.462, 254.489 538.978, 251.347 536.418 L 245.632 531.764 232.952 532.465 L 220.272 533.166 214.311 530.157 C 209.150 527.552, 207.655 526.090, 203.182 519.277 C 195.694 507.871, 193.032 505.690, 182 501.920 C 176.255 499.957, 169.930 496.891, 166 494.165 C 162.425 491.685, 157.632 488.381, 155.349 486.823 C 153.065 485.266, 147.695 480.810, 143.414 476.922 C 139.133 473.034, 134.026 469.025, 132.065 468.014 C 130.104 467.004, 125.350 464.093, 121.500 461.546 C 117.650 458.999, 108.899 454.122, 102.052 450.708 L 89.605 444.500 77.948 444.149 C 68.057 443.851, 66.200 444.036, 65.688 445.370 M 362.427 454.119 C 362.046 454.734, 361.508 459.234, 361.229 464.119 L 360.723 473 363.745 473 C 366.033 473, 366.913 472.454, 367.370 470.750 C 368.157 467.814, 368.173 456.613, 367.393 454.582 C 366.695 452.763, 363.451 452.461, 362.427 454.119 M 430.500 459.850 C 429.400 460.207, 425.293 462.400, 421.373 464.722 C 413.285 469.514, 411.287 472.647, 407.916 485.827 C 405.474 495.377, 405.506 499.190, 408.099 507.585 C 410.125 514.143, 410.142 514.663, 408.598 522.440 C 407.652 527.205, 407.010 535.406, 407.027 542.500 C 407.055 554.085, 407.168 554.707, 410.278 560.491 C 414.332 568.030, 420.330 571.934, 424.931 570.029 C 429.024 568.333, 432.521 564.299, 435.451 557.894 C 438.895 550.363, 439.818 544.648, 440.930 523.960 C 441.750 508.709, 442.273 505.172, 444.937 496.857 C 449.999 481.052, 448.944 470.681, 441.516 463.253 C 437.293 459.030, 435.102 458.353, 430.500 459.850 M 709.309 461.250 C 708.864 461.938, 708.220 468.350, 707.877 475.500 C 707.186 489.916, 705.195 497.393, 690.038 542.500 C 682.308 565.505, 680.747 572.002, 678.968 588.577 C 676.862 608.203, 679.299 636.601, 684.154 649 C 687.613 657.835, 695.866 673.564, 698.577 676.489 C 700.608 678.680, 701.348 678.956, 702.537 677.969 C 704.826 676.070, 704.348 674.034, 699.091 663.283 C 687.512 639.606, 685.560 629.883, 686.286 599.500 C 686.798 578.084, 686.906 577.168, 690.358 565 C 692.309 558.125, 695.529 547.775, 697.515 542 C 699.500 536.225, 702.480 527, 704.137 521.500 C 714.478 487.173, 714.314 487.866, 714.788 476.310 C 715.322 463.294, 714.767 460, 712.040 460 C 710.983 460, 709.754 460.563, 709.309 461.250 M 743.417 461.627 C 736.385 465.276, 732.855 471.148, 729.274 485.158 C 726.901 494.441, 726.648 497.138, 726.803 511.500 C 726.898 520.300, 727.463 531.965, 728.057 537.422 C 729.830 553.693, 727.674 567.026, 718.664 595.500 C 714.588 608.381, 714.303 621.920, 717.843 634.500 C 721.229 646.533, 727.161 656.172, 729.648 653.685 C 730.058 653.276, 729.181 649.242, 727.701 644.720 C 723.463 631.777, 722.568 626.318, 722.664 614 C 722.729 605.589, 723.286 600.754, 724.737 596 C 725.829 592.425, 728.584 583.425, 730.861 576 C 734.980 562.565, 734.999 562.425, 734.924 547 C 734.882 538.475, 734.496 526.100, 734.064 519.500 C 732.791 500.001, 736.690 479.471, 743.158 471.624 C 746.648 467.391, 748.741 467.104, 752.273 470.377 C 755.571 473.434, 756.810 477.933, 758.089 491.500 C 761.481 527.471, 762.051 531.465, 764.520 536.571 C 767.933 543.629, 774.176 549.601, 789.554 560.520 C 801.676 569.127, 803.117 570.489, 806.690 576.709 C 810.742 583.761, 813.216 585.192, 815.391 581.740 C 816.273 580.340, 815.890 578.804, 813.521 574.240 C 809.604 566.694, 803.153 559.855, 794.331 553.893 C 781.218 545.032, 775.231 539.401, 771.895 532.791 C 769.066 527.188, 768.724 525.427, 767.875 512.084 C 766.708 493.741, 764.390 478.118, 761.816 471.236 C 758.721 462.966, 749.809 458.311, 743.417 461.627 M 426.009 469.268 C 415.909 474.287, 411.767 488.414, 415.986 503.451 C 417.756 509.756, 418.079 512.793, 417.583 518.430 C 417.240 522.318, 416.703 531.800, 416.390 539.500 C 415.838 553.054, 415.896 553.612, 418.194 557 C 421.629 562.063, 424.235 562.038, 427.951 556.909 C 432.092 551.192, 432.725 548.074, 433.516 529.500 C 434.113 515.495, 434.684 511.606, 438.099 498.313 C 442.928 479.514, 442.975 477.437, 438.707 471.828 C 434.781 466.666, 432.266 466.159, 426.009 469.268 M 604.210 481.477 C 602.591 482.839, 600.205 486.327, 598.908 489.227 C 596.682 494.206, 596.522 495.949, 596.025 520.500 L 595.500 546.500 588.130 563 C 577.110 587.670, 574.966 597.664, 578.640 607.230 C 581.062 613.533, 583.980 616.131, 589.316 616.732 C 598.620 617.781, 605.512 609.067, 608.530 592.438 C 614.541 559.310, 621.610 500.855, 620.486 493.563 C 619.564 487.580, 617.949 482.732, 616.219 480.750 C 613.901 478.097, 607.787 478.467, 604.210 481.477 M 102 481.986 C 102 483.234, 103.578 484.969, 106.250 486.658 C 108.588 488.135, 111.952 490.279, 113.727 491.422 C 115.502 492.565, 123.267 501.414, 130.984 511.087 C 146.277 530.258, 150.902 534.392, 165 541.489 C 175.417 546.733, 178.506 547.630, 192.647 549.515 C 204.524 551.099, 215.067 553.931, 218.750 556.527 C 221.275 558.307, 221.893 564.024, 219.750 565.779 C 219.063 566.342, 214.450 567.543, 209.500 568.448 C 197.493 570.643, 197 570.826, 197 573.092 C 197 576.418, 201.393 577.308, 208.921 575.509 C 212.540 574.644, 216.499 573.720, 217.720 573.457 C 222.710 572.378, 228.703 562.974, 227.501 558.108 C 225.873 551.516, 214.788 545.557, 197.557 542.012 C 172.511 536.858, 161.760 532.580, 152.734 524.176 C 149.972 521.604, 143.325 514.100, 137.962 507.500 C 125.675 492.377, 120.019 486.916, 112.648 483.061 C 105.724 479.439, 102 479.063, 102 481.986 M 359.588 482.250 C 358.677 485.509, 357.249 499.485, 357.705 500.674 C 358.423 502.546, 363.031 503.568, 363.962 502.061 C 364.373 501.396, 365.235 497.173, 365.877 492.676 C 366.999 484.822, 366.961 484.431, 364.911 482.750 C 362.413 480.700, 360.082 480.481, 359.588 482.250 M 606.689 486.791 C 603.932 489.838, 602.975 497.579, 602.153 523.500 L 601.361 548.500 597.040 558.500 C 583.733 589.300, 582.467 594.329, 585.733 603.415 C 587.955 609.596, 590.036 611.051, 593.709 608.990 C 599.420 605.785, 600.824 600.890, 607.421 561.206 C 613.407 525.192, 614.500 516.035, 614.500 501.902 C 614.500 491.845, 614.143 487.873, 613.128 486.652 C 611.336 484.496, 608.715 484.553, 606.689 486.791 M 887.825 486.400 C 880.225 489.115, 871.260 498.027, 867.149 506.954 C 863.826 514.170, 862.758 529.724, 865.432 531.944 C 867.893 533.986, 868.780 532.373, 869.821 523.959 C 870.946 514.873, 874.355 507.673, 880.792 500.791 C 886.415 494.779, 887.552 494.140, 894.796 492.917 C 899.995 492.039, 901.001 492.190, 906.161 494.618 C 912.551 497.626, 915.538 497.315, 914.447 493.755 C 913.405 490.358, 911.900 488.865, 907.500 486.863 C 902.759 484.707, 893.197 484.482, 887.825 486.400 M 353.799 519.250 C 352.371 524.337, 351.408 528.837, 351.660 529.250 C 351.912 529.663, 353.426 530, 355.024 530 C 358.448 530, 359.216 528.815, 361.499 520.005 C 363.158 513.603, 363.154 513.543, 360.974 511.778 C 359.766 510.800, 358.242 510, 357.587 510 C 356.932 510, 355.227 514.163, 353.799 519.250 M 342.517 542.084 C 337.578 548.794, 336.969 551.378, 339.952 552.974 C 342.235 554.196, 344.252 552.399, 349.135 544.790 C 352.266 539.911, 352.239 538.734, 348.961 536.979 C 347.292 536.086, 346.430 536.769, 342.517 542.084 M 328.797 559.750 C 325.587 563.175, 321.722 570.741, 322.521 572.034 C 322.849 572.565, 324.212 573, 325.549 573 C 327.294 573, 328.965 571.659, 331.465 568.250 C 334.947 563.505, 335.536 561.560, 334.393 558.582 C 333.504 556.266, 331.711 556.640, 328.797 559.750 M 355.500 576.838 C 349.792 580.320, 347.229 585.596, 343.516 601.504 C 339.479 618.801, 338.536 625.207, 336.525 649 C 334.960 667.521, 332.588 678.360, 329.056 683.138 C 326.645 686.399, 327.060 688.007, 330.309 687.985 C 333.059 687.965, 334.071 687.253, 336.697 683.487 C 341.307 676.877, 343.677 664.931, 346.418 634.500 C 347.211 625.700, 348.369 617.160, 348.991 615.523 C 349.614 613.886, 350.780 609.386, 351.583 605.523 C 354.905 589.540, 357.962 584.587, 364.141 585.178 C 367.108 585.462, 367.826 586.152, 370.294 591.084 C 375.783 602.053, 376.896 611.449, 377.959 655.771 C 378.824 691.836, 379.123 696.484, 380.817 700.271 C 381.858 702.597, 383.716 705.394, 384.945 706.487 C 387.043 708.351, 387.258 708.368, 388.439 706.752 C 389.448 705.373, 389.450 703.689, 388.452 698.266 C 387.740 694.399, 386.726 673.456, 386.084 649.386 C 385.291 619.656, 384.548 605.683, 383.555 601.871 C 381.476 593.889, 378.220 585.617, 375.713 581.944 C 371.283 575.456, 361.724 573.041, 355.500 576.838 M 756.280 579.971 C 747.911 585.073, 743.332 597.257, 744.280 611.897 C 745.074 624.149, 749.991 635.409, 753.162 632.238 C 753.931 631.469, 753.878 629.662, 752.979 625.913 C 751.096 618.063, 751.354 600.419, 753.423 595.500 C 755.701 590.085, 759.789 586, 762.928 586 C 767.349 586, 775.630 592.619, 779.661 599.374 C 784.783 607.957, 785.997 609.248, 787.652 607.874 C 788.393 607.259, 788.990 605.348, 788.978 603.628 C 788.921 595.440, 777.561 581.134, 769.506 579.106 C 763.215 577.522, 759.946 577.736, 756.280 579.971 M 317.197 580.262 C 316.621 580.956, 314.534 584.894, 312.560 589.012 C 309.246 595.924, 309.101 596.596, 310.676 597.750 C 313.096 599.523, 314.355 599.316, 316.764 596.750 C 319.170 594.187, 322.945 586.332, 322.978 583.821 C 323.001 582.093, 320.481 579, 319.051 579 C 318.608 579, 317.773 579.568, 317.197 580.262 M 304.592 605.851 C 303.298 607.945, 299 620.938, 299 622.756 C 299 625.431, 303.646 628.539, 305.431 627.058 C 306.144 626.466, 307.749 622.392, 308.998 618.005 C 310.886 611.378, 311.049 609.764, 309.967 608.460 C 308.132 606.249, 305.220 604.836, 304.592 605.851 M 292.609 638.020 C 290.400 643.541, 290.559 646.694, 293.117 648.062 C 295.690 649.440, 296.822 648.405, 299.474 642.248 C 301.241 638.145, 301.242 637.925, 299.498 635.998 C 296.652 632.853, 294.413 633.510, 292.609 638.020 M 286.263 655.250 C 285.723 655.938, 284.471 658.666, 283.481 661.312 C 281.707 666.055, 281.711 666.155, 283.758 668.203 L 285.836 670.280 288.234 667.692 C 289.553 666.269, 291.167 663.394, 291.820 661.302 C 292.896 657.856, 292.809 657.336, 290.893 655.750 C 288.381 653.671, 287.572 653.584, 286.263 655.250 M 437.898 693.284 C 433.662 696.130, 428.450 704.677, 427.094 710.998 C 425.150 720.061, 424.100 733.556, 423.458 757.703 C 422.809 782.105, 423.511 789.649, 426.345 788.728 C 429.202 787.799, 429.937 782.640, 430.973 756.230 C 432.088 727.808, 433.718 714.687, 437.077 707.093 C 439.747 701.058, 441.766 699, 445.019 699 C 448.955 699, 452.113 704.234, 456.944 718.766 C 469.713 757.172, 474.245 764.635, 488.500 770.735 C 494.865 773.458, 511.252 777.995, 514.795 778.015 C 519.036 778.038, 528.738 780.576, 537.731 784.014 C 547.855 787.884, 554.664 793.684, 559.238 802.332 C 561.572 806.746, 563.069 808.500, 564.500 808.500 C 567.393 808.500, 567.676 803.028, 565.062 797.628 C 561.156 789.560, 551.702 780.552, 545 778.514 C 543.625 778.096, 539.709 776.460, 536.299 774.880 C 532.888 773.300, 526.856 771.547, 522.893 770.985 C 516.348 770.057, 512.608 769.135, 496.292 764.427 C 489.614 762.500, 481.824 756.326, 477.457 749.500 C 475.505 746.449, 472.021 737.960, 469.377 729.817 C 461.713 706.204, 459.296 700.595, 454.622 695.576 C 450.771 691.441, 449.923 691, 445.828 691 C 442.767 691, 440.193 691.741, 437.898 693.284 M 489 796.935 C 482.164 799.022, 477.983 802.100, 475.647 806.766 C 469.861 818.321, 468.287 829.500, 472.446 829.500 C 474.015 829.500, 474.900 827.854, 477.019 821 C 478.464 816.325, 480.289 811.474, 481.073 810.220 C 482.904 807.294, 491.491 802.994, 495.446 803.022 C 502.037 803.069, 510.455 809.008, 515.693 817.306 C 520.293 824.593, 531.127 837, 532.890 837 C 533.830 837, 535.114 836.486, 535.742 835.858 C 537.195 834.405, 532.429 824.618, 527.641 819.220 C 525.826 817.174, 522.963 813.465, 521.279 810.977 C 516.881 804.482, 509.822 798.322, 505.355 797.081 C 500.989 795.869, 492.734 795.795, 489 796.935"/>
</svg>