<?xml version="1.0" encoding="utf-8"?>
<svg xmlns="http://www.w3.org/2000/svg" width="661" height="1002" viewBox="0 0 661 1002">
  <path fill-rule="evenodd" d="M 390.604 4.266 C 384.841 7.570, 383.441 11.107, 382.107 25.731 C 380.203 46.605, 381.044 44.730, 373.219 45.562 C 364.599 46.479, 359.906 48.161, 353.862 52.503 C 351.186 54.427, 348.595 56, 348.105 56 C 345.654 56, 345.335 48.835, 347.550 43.534 C 349.889 37.937, 351.249 29.148, 350.525 24.317 C 349.687 18.730, 345.776 14, 341.993 14 C 337.630 14, 336.310 14.824, 332 20.238 C 328.710 24.369, 328 26.037, 328 29.631 C 328 32.034, 327.590 34, 327.089 34 C 326.588 34, 323.724 33.061, 320.724 31.913 L 315.271 29.826 311.173 32.663 C 307.358 35.305, 307.073 35.829, 307.038 40.282 C 306.957 50.480, 311.038 54.461, 324.729 57.543 C 335.342 59.932, 336.850 60.769, 338.108 64.965 C 339.114 68.322, 338.869 69.580, 335.640 77.651 C 329.517 92.955, 327.654 102.502, 327.572 119 C 327.532 126.975, 327.867 136.061, 328.315 139.191 L 329.129 144.882 325.815 146.556 C 317.054 150.979, 308.461 158.947, 295.664 174.511 C 288.424 183.318, 282.050 190.674, 281.500 190.860 C 280.950 191.046, 278.885 186.991, 276.911 181.849 C 274.938 176.707, 271.671 169.800, 269.652 166.500 C 267.634 163.200, 265.053 158.033, 263.918 155.018 C 260.327 145.479, 249.591 132.167, 237 121.641 C 225.827 112.300, 223.976 111.230, 216.173 109.603 C 204.485 107.166, 204.493 107.273, 215.342 98.895 L 224.917 91.500 224.958 86.764 C 224.997 82.381, 224.721 81.844, 221.250 79.547 L 217.500 77.066 210.705 79.533 C 206.967 80.890, 203.591 82, 203.203 82 C 202.814 82, 201.434 79.996, 200.134 77.547 C 197.969 73.465, 197.325 73.002, 192.397 71.979 C 187.142 70.888, 186.967 70.926, 184.542 73.681 C 178.252 80.831, 180.431 95.134, 189.408 105.622 L 192.807 109.592 185.437 118.546 C 179.904 125.268, 177.529 129.120, 175.910 134 C 174.723 137.575, 173.398 140.887, 172.965 141.361 C 172.532 141.834, 169.596 138.684, 166.440 134.361 C 155.310 119.113, 152.577 115.787, 148.292 112.276 C 144.518 109.183, 143.231 108.715, 138.232 108.615 L 132.500 108.500 130.221 113.091 L 127.941 117.682 130.971 124.434 C 132.637 128.148, 134 131.552, 134 131.999 C 134 132.446, 131.761 133.120, 129.024 133.497 C 122.199 134.435, 118 139.039, 118 145.584 C 118 151.442, 119.901 154.967, 124.948 158.464 C 130.524 162.328, 136.891 162.858, 145.143 160.143 C 150.146 158.498, 167.896 154, 169.387 154 C 170.071 154, 172.903 161.727, 173.446 165.076 C 173.769 167.073, 178.451 175.899, 184.055 185.076 C 192.721 199.269, 195.328 202.684, 203.242 210.217 C 208.279 215.012, 214.898 220.312, 217.950 221.996 C 221.003 223.680, 224.175 225.486, 225 226.009 C 226.702 227.089, 255.952 234.749, 263.377 236.059 C 267.765 236.833, 272 239.241, 272 240.962 C 272 241.320, 268.873 243.126, 265.052 244.975 C 255.943 249.381, 255.819 249.700, 250.608 282 C 248.701 293.825, 246.629 309.954, 246.003 317.843 C 245.378 325.731, 244.646 332.760, 244.376 333.463 C 244.106 334.166, 240.874 335.475, 237.193 336.371 C 229.998 338.124, 213.449 345.732, 204.813 351.257 C 201.891 353.126, 196 357.721, 191.722 361.467 C 187.444 365.213, 183.786 368.103, 183.593 367.889 C 183.400 367.675, 180.896 360.075, 178.029 351 C 175.161 341.925, 172.006 333.600, 171.018 332.500 C 170.030 331.400, 167.034 327.551, 164.361 323.946 C 159.526 317.428, 149.227 307.246, 143.500 303.325 C 131.021 294.778, 112.407 288.624, 99 288.612 C 89.698 288.604, 83.743 290.641, 74.521 296.985 C 71.288 299.210, 69.854 299.734, 69.542 298.805 C 67.550 292.856, 65.993 285.956, 65.464 280.727 C 64.832 274.480, 60.963 260.946, 58.307 255.690 C 52.004 243.219, 34.263 235.646, 27.408 242.501 C 23.957 245.952, 20.022 254.768, 20.010 259.075 C 20.004 261.041, 21.125 265.957, 22.500 270 C 23.875 274.043, 25 277.496, 25 277.675 C 25 277.854, 23.087 278.033, 20.750 278.074 C 10.626 278.251, 7.796 279.241, 4.299 283.828 C 2.330 286.411, 1 289.318, 1 291.040 C 1 295.767, 4.720 304.270, 8.483 308.144 C 15.882 315.762, 32.099 321, 48.285 321 L 58.250 321 57.572 324.250 C 55.858 332.476, 55.731 341.010, 57.262 345.230 C 58.113 347.579, 59.097 350.850, 59.448 352.500 C 60.236 356.207, 68.841 369.097, 76.932 378.690 C 83.718 386.736, 90.391 392.130, 103.186 399.910 C 113.165 405.978, 117.949 407.894, 123.273 407.956 C 125.348 407.980, 133.620 409.646, 141.655 411.657 C 155.318 415.077, 156.661 415.241, 162.382 414.181 C 173.118 412.192, 174.541 412.230, 174.199 414.500 C 173.722 417.663, 169.430 420.813, 164.612 421.535 C 160.417 422.165, 160.136 422.415, 159.194 426.349 C 157.674 432.697, 157.853 451.395, 159.534 462 C 163.126 484.658, 165.602 492.022, 177.609 515.770 C 186.437 533.232, 190.076 539.375, 194.465 544.224 C 197.543 547.625, 202.704 554.254, 205.935 558.954 C 212.974 569.195, 213.791 569.970, 231 582.760 C 238.425 588.278, 245.765 594.130, 247.310 595.764 L 250.120 598.735 245.310 605.227 C 242.665 608.797, 238.318 614.730, 235.652 618.410 C 232.985 622.090, 230.285 624.931, 229.652 624.724 C 228.090 624.213, 226.153 618.093, 224.854 609.564 C 223.255 599.062, 221.509 594.970, 215.977 588.764 C 210.893 583.059, 208.276 581.800, 201.509 581.800 C 196.385 581.800, 194.436 582.774, 192.562 586.271 C 190.982 589.218, 190.957 590.043, 192.275 595.723 C 193.070 599.146, 193.483 602.184, 193.193 602.473 C 192.904 602.763, 191.448 603, 189.958 603 C 183.585 603, 180.941 604.226, 177.956 608.564 C 172.624 616.314, 174.681 626.336, 182.500 630.705 C 188.405 634.005, 198.618 635.998, 209.697 636.014 C 225.415 636.036, 224.664 634.972, 219.466 649.852 C 217.035 656.808, 213.637 669.475, 211.915 678 C 209.010 692.375, 208.830 694.444, 209.438 706.500 C 209.799 713.650, 210.838 722.297, 211.747 725.716 C 212.656 729.136, 213.053 732.281, 212.627 732.706 C 211.750 733.583, 205.188 726.771, 196.829 716.305 C 193.710 712.400, 188.310 706.892, 184.829 704.067 C 178.021 698.541, 175.700 696.510, 163.112 685.069 C 158.616 680.982, 152.588 676.071, 149.718 674.154 C 146.848 672.237, 142.136 668.525, 139.247 665.905 C 127.347 655.114, 105.073 652.121, 91.285 659.461 C 88.662 660.857, 85.951 662, 85.261 662 C 84.571 662, 82.317 663.514, 80.253 665.364 C 76.430 668.790, 70.147 672.481, 69.403 671.737 C 67.968 670.301, 66.955 657.883, 67.207 644.789 C 67.535 627.673, 67.114 626.121, 60.374 619.574 C 56.068 615.392, 53.964 614.597, 49.452 615.443 C 44.834 616.309, 40.502 620.955, 38.447 627.245 C 37.503 630.135, 36.658 632.596, 36.569 632.713 C 36.480 632.831, 34.178 632.239, 31.453 631.398 C 24.649 629.298, 20.807 629.431, 15.615 631.944 C 5.339 636.919, 5.837 648.608, 16.860 661.111 C 21.996 666.937, 26.506 668.867, 47.093 674.054 C 56.117 676.327, 64.152 678.813, 64.949 679.578 C 66.210 680.789, 65.968 682.888, 63.063 695.866 C 60.288 708.267, 59.809 712.145, 60.207 719.010 C 60.660 726.841, 61.032 727.935, 67.592 740.716 C 76.233 757.553, 88.019 772.778, 97.793 779.732 C 101.479 782.354, 107.646 786.868, 111.498 789.762 C 125.883 800.571, 145.703 808.586, 165 811.397 C 191.206 815.214, 194.662 815.376, 212.070 813.597 C 235.422 811.212, 239.553 810.432, 246.398 807.120 C 249.742 805.502, 252.821 804.389, 253.239 804.648 C 254.494 805.423, 254.070 808.250, 252.022 812.762 C 250.543 816.020, 248.546 818.007, 243.544 821.196 C 239.945 823.490, 237 825.701, 237 826.108 C 237 827.358, 246.155 853.331, 247.577 856.117 C 248.312 857.556, 249.357 861.381, 249.900 864.617 C 250.621 868.915, 253.368 875.185, 260.093 887.887 C 265.157 897.449, 273.033 913.199, 277.597 922.887 L 285.894 940.500 294.697 947.781 C 299.539 951.785, 303.642 955.473, 303.815 955.977 C 303.989 956.481, 301.689 958.514, 298.705 960.496 L 293.278 964.098 287.344 960.862 C 281.569 957.713, 281.280 957.662, 276.652 958.958 C 273.781 959.761, 270.031 961.951, 267.197 964.480 C 260.272 970.658, 257.951 971.177, 247.730 968.829 L 239.170 966.863 227.770 973.409 L 216.370 979.955 206.935 977.372 C 191.754 973.217, 190.737 973.050, 186.506 974.013 C 180.734 975.329, 160.805 984.350, 155.289 988.145 C 150.627 991.352, 150.610 991.385, 153.202 992.079 C 156.222 992.886, 194.251 992.410, 201.100 991.479 C 203.629 991.135, 211.954 991.553, 219.600 992.408 C 227.245 993.262, 247 994.220, 263.500 994.536 C 280 994.852, 304.300 995.550, 317.500 996.087 C 376.902 998.503, 469.434 1000.610, 473.318 999.635 C 478.712 998.281, 475.851 994.651, 464.500 988.445 C 460.650 986.340, 453.986 982.229, 449.691 979.309 C 442.057 974.119, 440.042 973.486, 432.711 973.973 C 431.049 974.084, 427.984 972.915, 425.124 971.079 C 419.183 967.267, 412.496 966.985, 402.355 970.118 L 395.500 972.236 389.500 969.250 C 386.200 967.608, 381.425 965.275, 378.890 964.067 C 376.354 962.859, 372.619 960.170, 370.589 958.091 L 366.899 954.312 370.687 947.906 C 372.771 944.383, 375.441 940.721, 376.621 939.769 C 377.802 938.817, 379.010 936.792, 379.306 935.269 C 379.602 933.746, 380.811 929.711, 381.993 926.302 L 384.143 920.104 381.571 916.320 C 378.981 912.508, 378.179 907.625, 379.963 906.523 C 380.492 906.196, 382.780 907.182, 385.047 908.714 C 397.302 917, 399.024 917.781, 409.277 919.704 C 418.611 921.456, 420.892 921.520, 435.500 920.442 C 450.829 919.311, 452.316 919.002, 470.949 913.072 C 481.942 909.574, 491.327 907.116, 492.534 907.419 C 494.050 907.800, 495.513 907.066, 497.584 904.886 C 501.465 900.801, 504.931 899.157, 521.500 893.545 C 538.287 887.859, 544.346 884.980, 549 880.481 C 550.925 878.620, 554.300 876.350, 556.500 875.437 C 558.700 874.523, 562.402 872.026, 564.728 869.888 C 567.053 867.750, 569.766 866, 570.758 866 C 571.749 866, 578.847 859.863, 586.530 852.362 C 594.214 844.862, 602.157 837.622, 604.183 836.274 C 606.209 834.926, 608.308 832.554, 608.849 831.004 C 609.389 829.453, 611.220 827.158, 612.916 825.904 C 614.612 824.650, 616 823.024, 616 822.291 C 616 821.557, 617.112 820.450, 618.471 819.831 C 619.833 819.211, 621.412 817.281, 621.990 815.531 C 622.566 813.784, 624.649 810.813, 626.619 808.928 C 633.611 802.236, 642.568 787.282, 641.662 783.814 C 641.365 782.680, 641.744 781.652, 642.578 781.332 C 643.360 781.032, 644 780.075, 644 779.206 C 644 778.337, 646.715 772.198, 650.034 765.563 C 653.908 757.818, 656.215 751.889, 656.479 749 C 658.638 725.391, 659.183 712.849, 658.162 710.289 C 657.551 708.755, 656.165 703.366, 655.083 698.312 C 654.001 693.259, 652.415 687.769, 651.558 686.112 C 650.701 684.455, 650 682.229, 650 681.165 C 650 680.102, 648.187 675.610, 645.972 671.183 C 641.004 661.258, 632.006 652.494, 620.069 645.952 C 607.839 639.250, 608.298 639.681, 610.005 636.490 C 612.482 631.862, 618.817 626.281, 626.857 621.643 C 635.895 616.430, 645.811 607.254, 648.853 601.290 C 652.784 593.580, 651.356 584.129, 645.673 580.250 C 641.478 577.387, 641.137 577.404, 630.438 581.023 C 625.522 582.686, 620.904 583.923, 620.176 583.773 C 619.448 583.623, 617.645 580.575, 616.170 577 C 613.833 571.336, 612.914 570.210, 609.032 568.250 C 602.665 565.035, 597.569 565.299, 591.948 569.135 C 584.544 574.187, 580.993 580.793, 581.006 589.493 C 581.014 595.458, 582.612 600.323, 588.562 612.500 C 591.518 618.550, 594.499 626.349, 595.186 629.832 C 596.412 636.052, 596.391 636.199, 593.967 638.127 C 589.919 641.348, 587.494 641.938, 575.728 642.566 C 569.553 642.896, 562.475 643.794, 560 644.562 C 557.525 645.330, 552.986 646.634, 549.913 647.460 C 546.237 648.448, 542.792 650.311, 539.845 652.905 C 537.381 655.074, 532.587 658.477, 529.192 660.467 C 514.966 668.804, 497.775 683.698, 480.348 702.783 C 467.680 716.657, 453.272 735.823, 403.750 804.678 C 397.982 812.699, 393.611 816.798, 392.590 815.145 C 389.762 810.569, 409.812 776.148, 431.411 748.500 C 436.137 742.450, 440.639 735.700, 441.417 733.500 C 442.194 731.300, 443.608 720.679, 444.561 709.897 L 446.292 690.294 441.433 670.693 C 438.761 659.912, 436.833 650.834, 437.148 650.519 C 437.463 650.204, 444.349 651.346, 452.451 653.057 C 470.393 656.846, 471.952 656.531, 475.693 648.360 C 478.682 641.830, 477.966 640.030, 470.964 636.482 C 468.234 635.098, 466 633.451, 466 632.821 C 466 632.191, 467.160 629.696, 468.578 627.277 C 470.692 623.669, 471.032 622.152, 470.472 618.834 C 469.483 612.978, 467.065 611, 460.901 611 C 451.364 611, 445.971 615.447, 437.294 630.469 C 430.617 642.029, 430.818 641.869, 429.346 636.835 C 428.649 634.451, 426.557 630.025, 424.696 627 C 422.836 623.975, 419.392 618.350, 417.044 614.500 C 414.696 610.650, 411.303 605.925, 409.506 604 C 406.302 600.570, 403.513 596.136, 404.169 595.515 C 404.351 595.343, 412.375 593.972, 422 592.469 C 431.625 590.967, 441.300 588.953, 443.500 587.994 C 445.700 587.036, 449.300 585.691, 451.500 585.005 C 453.700 584.319, 456.903 582.912, 458.618 581.879 C 460.333 580.845, 462.707 580, 463.893 580 C 465.079 580, 469.076 578.487, 472.775 576.638 C 476.474 574.789, 481.300 572.702, 483.500 572.001 C 500.985 566.425, 518.428 551.995, 533.665 530.500 C 542.461 518.091, 543.730 515.608, 546.694 505 C 550.766 490.427, 552 483.181, 552 473.842 C 552 466.313, 549.597 450.098, 547.395 442.762 C 546.799 440.779, 547.507 440.840, 562 444.013 C 581.470 448.276, 588.325 446.727, 590.876 437.489 C 592.495 431.622, 591.257 429.072, 584.869 425.118 C 581.648 423.125, 579.017 420.770, 579.011 419.876 C 579.005 418.982, 579.642 416.431, 580.427 414.206 C 584.854 401.660, 570.099 392.696, 560.436 402.062 C 558.658 403.785, 554.613 410.214, 551.447 416.348 C 548.281 422.481, 544.839 428.724, 543.798 430.221 L 541.905 432.942 533.629 426.627 C 518.316 414.943, 506.052 411.235, 486.424 412.356 C 480.319 412.705, 475.047 412.713, 474.708 412.375 C 474.369 412.036, 475.622 409.756, 477.491 407.309 C 479.360 404.861, 481.557 400.977, 482.373 398.679 C 484.619 392.354, 492.805 364.166, 494.014 358.596 C 496.568 346.824, 489.780 334.211, 477.006 326.992 C 474.268 325.444, 479.572 321.441, 490.842 316.549 C 508.649 308.821, 515.510 302.460, 514.698 294.434 C 514.472 292.198, 513.496 289.160, 512.529 287.684 C 510.883 285.173, 510.294 285, 503.385 285 L 496 285 496 278.805 C 496 273.444, 495.638 272.232, 493.313 269.805 C 491.048 267.441, 489.830 267.006, 485.563 267.035 C 480.373 267.072, 478.779 267.704, 473.210 271.937 C 469.526 274.737, 466.112 282.764, 465.839 289.265 C 465.742 291.594, 465.993 299.575, 466.397 307 C 466.806 314.527, 466.742 321.057, 466.251 321.759 C 465.574 322.727, 464.126 322.782, 459.997 321.999 C 453.705 320.806, 448.750 321.490, 444.315 324.163 C 439.819 326.873, 426.643 341.125, 424.544 345.549 C 421.191 352.615, 418.976 362.580, 417.415 377.619 C 416.006 391.204, 416 393.843, 417.360 403.619 C 419.232 417.082, 424.795 433.047, 430.663 441.797 C 434.758 447.904, 434.870 448.269, 433.353 450.584 C 432.482 451.913, 431.534 453, 431.246 453 C 430.957 453, 428.527 451.650, 425.846 450 C 423.164 448.350, 420.819 447, 420.635 447 C 420.451 447, 415.692 452.189, 410.058 458.531 C 402.023 467.577, 397.863 473.450, 390.757 485.781 C 385.774 494.426, 379.688 506, 377.233 511.500 C 373.081 520.799, 360.122 558.409, 358.541 565.750 C 357.725 569.538, 358.711 569.437, 341.500 567.490 C 327.374 565.893, 314.231 565.670, 306.750 566.901 C 303.767 567.392, 302 567.316, 302 566.697 C 302 566.155, 303.973 561.389, 306.385 556.106 C 314.808 537.656, 320.769 516.104, 321.625 501 C 321.891 496.325, 322.758 487.248, 323.554 480.830 C 325.297 466.760, 325.374 454.895, 323.860 433.195 C 322.902 419.460, 322.942 416.643, 324.110 415.545 C 324.874 414.826, 329.182 413.033, 333.682 411.560 C 345.414 407.719, 348.986 404.778, 353.941 394.879 L 358.066 386.636 357.394 376.872 C 356.625 365.704, 355.192 367.293, 368.500 364.552 C 386.828 360.778, 395.228 354.063, 393.453 344.603 C 392.889 341.593, 392.267 341.115, 386.168 339.002 C 375.777 335.403, 374 334.294, 374 331.409 C 374 325.944, 369.086 319.998, 364.576 320.004 C 360.866 320.008, 355.714 322.981, 353.463 326.416 C 351.998 328.651, 350.186 337.659, 348.514 351.012 C 348.012 355.022, 347.421 355.884, 343.204 358.762 C 340.594 360.543, 337.793 362, 336.979 362.001 C 334.185 362.002, 323.206 367.819, 319.248 371.395 C 315.540 374.745, 315.190 374.863, 313.785 373.237 C 311.406 370.486, 295.856 348.788, 295.387 347.566 C 295.154 346.959, 299.472 344.075, 304.982 341.158 C 310.492 338.240, 315 335.436, 315 334.926 C 315 334.417, 315.502 334, 316.116 334 C 318.092 334, 327.015 326.871, 329.362 323.418 C 330.613 321.577, 333.951 318.817, 336.780 317.285 C 345.443 312.593, 370.116 287.208, 385.655 267 C 405.164 241.627, 408.293 234.395, 407.806 215.802 C 407.428 201.344, 407.700 200.918, 415.737 203.422 C 420.864 205.019, 424.589 206.741, 439.443 214.374 C 441.612 215.488, 445.996 216.589, 449.186 216.820 C 454.336 217.192, 455.209 216.974, 456.976 214.870 C 458.070 213.566, 459.436 210.829, 460.011 208.787 C 461.393 203.882, 459.669 199.892, 453.665 194.092 L 449.101 189.683 451.551 185.504 C 453.432 182.294, 454 179.896, 454 175.168 C 454 169.099, 453.942 168.970, 449.850 166.006 C 444.354 162.025, 439.281 161.993, 432.500 165.898 C 426.541 169.329, 415.169 179.580, 409.832 186.331 C 405.702 191.556, 405.754 191.585, 404.043 183.091 C 402.753 176.688, 400.047 170.306, 395.845 163.759 C 392.289 158.216, 390.500 157.861, 382.148 161.035 C 379.171 162.167, 375.902 162.786, 374.782 162.431 C 372.981 161.859, 373.351 161.198, 378.299 156.146 C 388.249 145.990, 403.506 118.597, 410.057 99.129 C 414.654 85.469, 415.032 79.202, 411.937 67.980 C 409.288 58.378, 405.890 52.617, 400.945 49.345 C 398.775 47.909, 397 46.552, 397 46.329 C 397 46.106, 402.734 43.126, 409.743 39.706 L 422.485 33.488 423.899 28.201 C 425.728 21.360, 424.981 20.639, 415.578 20.164 L 408.220 19.792 407.809 13.343 C 407.447 7.657, 407.049 6.607, 404.449 4.482 C 400.689 1.409, 395.724 1.331, 390.604 4.266 M 365.250 65.538 C 362.429 67.513, 362.358 71.109, 365.090 73.582 C 367.142 75.438, 367.207 75.437, 368.590 73.546 C 370.335 71.160, 370.400 67.929, 368.750 65.672 C 367.603 64.104, 367.312 64.093, 365.250 65.538 M 386.667 83.667 C 385.076 85.257, 387.544 90, 389.963 90 C 391.477 90, 392.200 84.743, 390.808 83.860 C 389.215 82.850, 387.561 82.772, 386.667 83.667 M 350.571 91.571 C 347.915 94.227, 348.564 99.554, 351.827 101.877 L 354.655 103.890 356.827 99.418 C 359.611 93.688, 359.578 93.350, 356.050 91.526 C 352.422 89.650, 352.494 89.649, 350.571 91.571 M 382 109 C 380.900 110.100, 380 111.389, 380 111.865 C 380 113.369, 384.090 118, 385.418 118 C 389.224 118, 391.845 108.922, 388.418 107.607 C 385.715 106.570, 384.074 106.926, 382 109 M 347 125.566 C 347 127.997, 348.676 130.558, 351.463 132.384 C 353.976 134.030, 354.028 134.008, 355.646 130.617 C 358.015 125.648, 356.991 124, 351.531 124 C 348.086 124, 347 124.375, 347 125.566 M 207.571 128.571 C 205.240 130.902, 205.643 132.609, 209.103 135.074 C 212.393 137.416, 212.411 137.409, 215.152 132.594 C 216.041 131.033, 215.808 130.358, 213.869 128.866 C 210.943 126.616, 209.590 126.553, 207.571 128.571 M 233.375 157.125 C 233.719 158.844, 234 160.644, 234 161.125 C 234 162.430, 238.418 162.182, 239.800 160.800 C 241.753 158.847, 241.189 157.149, 238.050 155.526 C 233.590 153.219, 232.658 153.538, 233.375 157.125 M 203.035 158.934 C 201.428 161.937, 201.792 163.633, 204.409 165.348 C 206.689 166.843, 206.903 166.797, 208.409 164.499 C 210.514 161.285, 210.421 160.408, 207.777 158.557 C 204.906 156.545, 204.287 156.594, 203.035 158.934 M 328.667 166.653 C 326.966 168.920, 326.950 169.274, 328.440 171.548 C 330.446 174.610, 330.578 174.602, 333.462 171.250 C 335.919 168.394, 335.590 166.914, 332.082 165.050 C 330.952 164.450, 329.977 164.907, 328.667 166.653 M 248.750 176.667 C 247.787 176.931, 247 178.034, 247 179.119 C 247 181.098, 251.132 186, 252.800 186 C 254.761 186, 257.137 182.068, 256.825 179.338 C 256.553 176.967, 256.007 176.474, 253.500 176.344 C 251.850 176.258, 249.713 176.403, 248.750 176.667 M 367.368 188.623 C 366.528 188.968, 366.532 190.088, 367.385 192.977 C 368.812 197.809, 369.339 198.345, 371.873 197.540 C 374.707 196.641, 375.482 193.384, 373.560 190.451 C 372.053 188.151, 369.995 187.544, 367.368 188.623 M 214.211 193.250 C 213.643 193.938, 213.408 195.700, 213.689 197.167 C 214.705 202.455, 222 201.439, 222 196.009 C 222 192.457, 216.483 190.503, 214.211 193.250 M 303.447 194.441 C 301.879 196.834, 301.879 197.166, 303.443 199.554 C 304.364 200.958, 305.835 202.383, 306.714 202.721 C 309.088 203.631, 312.165 199.310, 311.800 195.577 C 311.542 192.925, 311.059 192.457, 308.312 192.191 C 305.803 191.948, 304.765 192.428, 303.447 194.441 M 340.035 209.934 C 338.455 212.886, 338.771 214.437, 341.471 216.972 C 344.855 220.152, 347 218.369, 347 212.378 C 347 208.192, 346.870 208, 344.035 208 C 342.127 208, 340.701 208.690, 340.035 209.934 M 376.241 211.986 C 374.468 214.824, 374.644 215.358, 378.002 217.342 C 381.477 219.395, 382.527 219.022, 383.432 215.414 C 384.657 210.536, 378.869 207.778, 376.241 211.986 M 305.538 226.958 C 303.841 228.834, 303.847 229.053, 305.689 232.208 C 309.345 238.467, 315.459 234.948, 313.625 227.640 C 313.104 225.566, 312.356 225, 310.136 225 C 308.582 225, 306.513 225.881, 305.538 226.958 M 344.667 241.667 C 344.300 242.033, 344 243.789, 344 245.569 C 344 248.265, 344.500 248.979, 347.001 249.851 C 349.765 250.814, 350.121 250.667, 351.501 247.998 C 353.348 244.427, 353.348 244.491, 351.429 242.571 C 349.834 240.977, 345.885 240.449, 344.667 241.667 M 367 249.500 C 367 251.885, 370.064 256, 371.839 256 C 373.233 256, 374.903 251.346, 374.316 249.101 C 373.895 247.489, 372.980 247, 370.383 247 C 367.441 247, 367 247.326, 367 249.500 M 309.189 256.714 C 306.093 257.305, 305.427 259.477, 307.413 262.508 C 309.534 265.744, 312.767 265.778, 313.571 262.572 C 314.216 260.002, 313.333 255.907, 312.183 256.136 C 311.807 256.211, 310.460 256.471, 309.189 256.714 M 279.667 274.667 C 278.264 276.070, 279.056 281.740, 280.886 283.397 C 282.679 285.020, 282.875 284.974, 284.831 282.488 C 286.826 279.951, 286.796 277.930, 284.722 275.250 C 283.685 273.910, 280.761 273.572, 279.667 274.667 M 332.382 276.540 C 331.128 278.454, 330.918 279.646, 331.636 280.784 C 334.828 285.844, 339.309 284.156, 338.801 278.086 C 338.407 273.387, 334.987 272.564, 332.382 276.540 M 98.073 302.635 C 95.383 306.054, 95.427 306.340, 99.126 309.452 C 102.085 311.942, 102.351 311.992, 104.126 310.386 C 105.410 309.224, 106 307.323, 106 304.345 C 106 300.208, 105.860 300, 103.073 300 C 101.101 300, 99.468 300.860, 98.073 302.635 M 305.607 301.582 C 304.471 304.542, 304.996 307.773, 306.997 310.139 L 308.994 312.500 311.497 309.694 C 312.874 308.151, 314 306.083, 314 305.099 C 314 301.097, 306.930 298.134, 305.607 301.582 M 275.242 308.543 C 272.393 310.539, 272.411 312.098, 275.314 314.826 C 278.253 317.587, 279.583 317.565, 281.443 314.728 C 282.896 312.510, 282.576 308, 280.965 308 C 280.524 308, 279.561 307.769, 278.824 307.486 C 278.088 307.203, 276.476 307.679, 275.242 308.543 M 109.250 325.639 C 107.090 326.551, 107.886 330.841, 110.827 334.132 L 113.653 337.296 115.978 334.030 C 119.092 329.658, 117.930 325.595, 113.482 325.306 C 111.842 325.199, 109.938 325.349, 109.250 325.639 M 142.123 325.877 C 140.992 326.615, 141.159 327.510, 143.057 330.888 C 145.656 335.511, 146.873 335.903, 149.527 332.970 C 152.252 329.959, 150.532 325.593, 146.482 325.239 C 144.842 325.096, 142.880 325.383, 142.123 325.877 M 79.517 328.981 C 78.020 330.636, 77.939 331.222, 79.030 332.536 C 79.748 333.401, 81.197 334.570, 82.251 335.134 C 84.858 336.529, 88 333.638, 88 329.845 C 88 327.285, 87.665 327, 84.655 327 C 82.591 327, 80.624 327.758, 79.517 328.981 M 449.178 353.593 C 449.363 355.150, 450.705 357.195, 452.333 358.401 L 455.166 360.500 457.130 358.081 C 458.211 356.750, 458.961 354.725, 458.797 353.581 C 458.551 351.854, 457.680 351.448, 453.678 351.192 C 448.960 350.891, 448.863 350.943, 449.178 353.593 M 152.200 354.200 C 150.262 356.138, 150.810 358.706, 153.635 360.927 C 157.103 363.656, 157.365 363.594, 159.560 359.519 C 161.403 356.097, 161.401 356.013, 159.467 354.551 C 157.070 352.738, 153.818 352.582, 152.200 354.200 M 468.200 366.200 C 466.465 367.935, 466.725 370.441, 468.838 372.353 C 470.555 373.907, 470.784 373.896, 472.338 372.179 C 473.252 371.169, 474 369.680, 474 368.871 C 474 367.139, 472.066 365, 470.500 365 C 469.895 365, 468.860 365.540, 468.200 366.200 M 104.200 369.200 C 102.456 370.944, 102.657 371.696, 106.176 376.596 L 109.352 381.018 111.676 378.835 C 113.946 376.702, 114.656 372.874, 113.393 369.582 C 112.660 367.673, 106.004 367.396, 104.200 369.200 M 239.980 370.038 C 238.659 372.506, 239.376 375.125, 242.030 377.527 C 243.661 379.003, 244.446 379.118, 246.504 378.180 C 248.630 377.212, 249 376.372, 249 372.521 L 249 368 245.035 368 C 242.069 368, 240.796 368.513, 239.980 370.038 M 282.750 374.658 C 278.358 376.480, 278.045 378.282, 281.282 383.102 C 284.366 387.694, 289.404 388.402, 291.185 384.494 C 292.216 382.230, 292.046 381.245, 289.963 377.432 C 288.631 374.994, 287.307 373.023, 287.021 373.052 C 286.734 373.080, 284.813 373.803, 282.750 374.658 M 431.070 376.184 C 431.109 377.458, 431.458 379.303, 431.845 380.284 C 432.504 381.952, 432.698 381.930, 434.831 379.943 C 437.769 377.205, 437.275 374.591, 433.741 374.184 C 431.435 373.917, 431.011 374.235, 431.070 376.184 M 328.430 383.135 C 326.837 386.215, 326.862 386.323, 329.812 389.273 L 332.815 392.276 335.469 389.621 C 337.442 387.649, 337.948 386.393, 337.440 384.733 C 335.679 378.987, 331.004 378.158, 328.430 383.135 M 142.590 383.901 C 140.955 385.707, 140.982 385.905, 143.124 387.901 C 144.363 389.055, 145.659 390, 146.003 390 C 146.978 390, 149.945 383.278, 149.269 382.602 C 148.010 381.344, 144.241 382.077, 142.590 383.901 M 203.667 394.667 C 203.300 395.033, 203 397.291, 203 399.683 C 203 403.658, 203.297 404.174, 206.452 405.678 C 210.650 407.680, 212.624 406.522, 213.565 401.505 C 214.503 396.506, 212.688 394, 208.131 394 C 206.043 394, 204.033 394.300, 203.667 394.667 M 457.398 395.405 C 457.102 396.177, 457.003 398.315, 457.180 400.155 C 457.427 402.742, 458.010 403.572, 459.750 403.820 C 461.829 404.115, 462 403.755, 462 399.070 C 462 394.641, 461.743 394, 459.969 394 C 458.851 394, 457.695 394.632, 457.398 395.405 M 263.667 407.667 C 263.300 408.033, 263 410.079, 263 412.212 C 263 416.066, 266.372 421, 269.006 421 C 270.584 421, 273.098 414.442, 272.338 412.306 C 270.812 408.013, 265.931 405.402, 263.667 407.667 M 437.750 413.115 C 436.165 414.297, 435 416.125, 435 417.428 C 435 419.760, 437.787 423, 439.794 423 C 441.585 423, 443 419.498, 443 415.066 C 443 410.432, 441.896 410.022, 437.750 413.115 M 472.200 428.200 C 470.235 430.165, 470.748 434.795, 473.067 436.036 C 475.504 437.340, 480 434.990, 480 432.411 C 480 427.885, 475.139 425.261, 472.200 428.200 M 233.250 434.247 C 229.573 435.426, 229.199 437.147, 231.449 442.532 C 232.657 445.422, 233.410 446, 235.970 446 C 240.268 446, 241.824 442.526, 240 437.001 C 238.596 432.745, 238.303 432.626, 233.250 434.247 M 504.131 434.787 C 500.875 435.132, 500.781 435.264, 501.338 438.696 C 502.423 445.383, 507.381 448.150, 510.443 443.777 C 512.499 440.842, 512.410 439.974, 509.745 436.965 C 508 434.995, 506.750 434.510, 504.131 434.787 M 299.750 437.384 C 297.413 438.236, 297 438.953, 297 442.158 C 297 447.931, 302.632 450.299, 304.839 445.453 C 305.786 443.376, 305.677 442.305, 304.250 439.644 C 302.652 436.666, 302.261 436.469, 299.750 437.384 M 177.008 441.750 C 177.015 446.239, 177.234 446.625, 181.005 448.778 L 184.995 451.057 186.994 447.778 C 189.269 444.046, 189.383 443.138, 188.025 439.565 C 187.156 437.281, 186.498 437, 182.025 437 L 177 437 177.008 441.750 M 453.322 451.360 C 448.969 452.921, 448.664 453.396, 449.420 457.425 C 449.987 460.447, 450.634 461.110, 454.008 462.121 C 459.297 463.705, 461.212 462.177, 460.800 456.701 C 460.411 451.546, 457.867 449.729, 453.322 451.360 M 264.750 457.080 C 263.557 457.775, 263 459.340, 263 461.993 C 263 465.509, 263.413 466.133, 267.250 468.427 L 271.500 470.967 272.329 465.256 C 273.084 460.052, 272.963 459.388, 270.968 457.773 C 268.485 455.762, 267.249 455.624, 264.750 457.080 M 520.194 467.577 C 517.167 469.697, 517.408 473.389, 520.743 476.013 L 523.487 478.171 524.698 475.335 C 526.397 471.361, 526.278 469.562, 524.194 467.675 C 522.561 466.198, 522.176 466.188, 520.194 467.577 M 207.960 469.831 C 205.329 471.962, 205.684 475.058, 209.051 479.338 C 213.470 484.955, 218.976 481.014, 217.523 473.273 C 216.564 468.158, 212.038 466.529, 207.960 469.831 M 482.250 479.674 C 479.410 481.656, 479.462 482.768, 482.571 486.500 L 485.070 489.500 487.535 486.694 C 492.670 480.849, 488.502 475.313, 482.250 479.674 M 448.626 491.517 C 446.156 493.987, 446.671 497.611, 450.006 501.234 C 452.914 504.394, 453.060 504.437, 454.493 502.576 C 456.495 499.977, 457.513 494.039, 456.291 492.087 C 454.913 489.884, 450.580 489.562, 448.626 491.517 M 293.250 495.531 C 291.271 496.367, 290 497.617, 290 498.729 C 290 501.026, 292.509 504.667, 295.017 506.009 C 296.621 506.867, 297.180 506.552, 298.466 504.066 C 300.471 500.189, 300.406 497.675, 298.250 495.735 C 296.724 494.361, 296.084 494.335, 293.250 495.531 M 255.673 498.268 L 251.846 501.507 254.173 503.551 C 259.744 508.444, 259.862 508.479, 262.529 505.972 C 263.888 504.696, 265 503.274, 265 502.812 C 265 501.756, 260.676 495.024, 260 495.027 C 259.725 495.029, 257.778 496.487, 255.673 498.268 M 414.667 497.667 C 414.300 498.033, 414 499.801, 414 501.594 C 414 503.926, 414.751 505.445, 416.635 506.927 C 420.023 509.593, 420.171 509.566, 422.254 505.905 C 423.916 502.986, 423.918 502.669, 422.289 499.912 C 420.639 497.119, 416.449 495.885, 414.667 497.667 M 216.282 503.804 C 215.613 504.230, 214.938 506.051, 214.782 507.852 C 214.532 510.751, 214.979 511.411, 218.690 513.629 L 222.880 516.132 224.440 513.116 C 226.423 509.281, 226.420 506.563, 224.429 504.571 C 222.772 502.915, 218.339 502.498, 216.282 503.804 M 501.523 508.974 C 499.786 510.894, 499.762 511.278, 501.195 514.283 C 502.921 517.903, 507.037 520.584, 509.448 519.659 C 511.731 518.782, 512.926 514.879, 512.123 510.924 C 511.485 507.780, 511.100 507.476, 507.412 507.202 C 504.370 506.977, 502.942 507.406, 501.523 508.974 M 268.200 530.200 C 266.537 531.863, 266.695 537.502, 268.445 538.954 C 269.240 539.614, 270.927 540.006, 272.195 539.827 C 274.074 539.560, 274.558 538.793, 274.815 535.680 C 275.281 530.019, 271.507 526.893, 268.200 530.200 M 472.750 532.080 C 470.966 533.119, 470.439 536.613, 471.765 538.600 C 472.931 540.346, 476.941 542.155, 478.082 541.449 C 479.790 540.394, 481.047 536.034, 480.393 533.431 C 479.729 530.785, 476.080 530.141, 472.750 532.080 M 438.389 534.979 C 434.602 536.511, 434.604 539.071, 438.397 542.864 C 441.352 545.819, 442.115 546.149, 443.439 545.050 C 445.133 543.645, 445.686 535, 444.082 535 C 443.577 535, 442.564 534.803, 441.832 534.563 C 441.099 534.322, 439.550 534.509, 438.389 534.979 M 224.500 536.899 C 220.862 537.446, 220.472 537.795, 220.186 540.763 C 219.942 543.296, 220.539 544.693, 222.859 547.013 C 226.603 550.757, 228.432 550.787, 229.947 547.129 C 231.302 543.858, 231.003 536.744, 229.500 536.477 C 228.950 536.379, 226.700 536.569, 224.500 536.899 M 393.677 539.750 C 393.434 540.163, 392.931 541.919, 392.560 543.653 C 392.005 546.241, 392.292 547.091, 394.164 548.403 C 397.177 550.513, 400.306 550.425, 402.345 548.171 C 404.307 546.003, 404.386 544.941, 402.839 541.547 C 401.894 539.471, 400.979 539, 397.899 539 C 395.819 539, 393.919 539.337, 393.677 539.750 M 248.593 563.898 C 246.847 565.826, 246.860 565.994, 248.962 568.946 C 250.158 570.626, 251.556 572, 252.068 572 C 254.186 572, 257.112 567.798, 256.811 565.189 C 256.559 563.007, 255.925 562.444, 253.449 562.201 C 251.393 562, 249.809 562.553, 248.593 563.898 M 325.385 585.171 C 323.798 586.365, 322.126 587.662, 321.669 588.052 C 321.212 588.443, 321.784 590.616, 322.939 592.881 C 324.920 596.763, 325.293 597, 329.437 597 L 333.834 597 334.917 591.951 C 335.513 589.174, 336 586.710, 336 586.476 C 336 585.896, 330.322 583, 329.185 583 C 328.681 583, 326.972 583.977, 325.385 585.171 M 362.603 608.300 C 360.268 610.008, 360.897 613.203, 364.411 617.500 C 366.444 619.985, 367.177 620.311, 368.683 619.401 C 369.682 618.797, 371.175 617.109, 372 615.651 C 373.336 613.289, 373.333 612.700, 371.969 610.250 C 370.194 607.063, 365.600 606.107, 362.603 608.300 M 275.068 617.904 C 272.115 622.052, 272.404 626.055, 275.898 629.403 C 279.236 632.600, 280.557 632.250, 285.603 626.832 C 288.302 623.933, 288.646 622.947, 288.248 619.250 L 287.790 615 282.463 615 C 277.725 615, 276.908 615.321, 275.068 617.904 M 328.272 626.777 L 325.045 629.500 326.871 633.520 C 327.915 635.819, 329.842 638.062, 331.370 638.759 C 333.860 639.893, 334.179 639.755, 336.018 636.738 C 338.708 632.327, 338.506 629.859, 335.195 626.687 C 333.653 625.209, 332.190 624.012, 331.945 624.027 C 331.700 624.042, 330.048 625.279, 328.272 626.777 M 392.443 627.372 C 391.708 630.300, 392.629 633.808, 394.773 636.250 C 398.221 640.176, 402.288 636.479, 401.812 629.852 C 401.501 625.509, 401.491 625.499, 397.283 625.194 C 393.511 624.920, 393 625.150, 392.443 627.372 M 356.557 656.223 C 354.426 659.264, 354.585 659.936, 358.473 664.337 C 361.714 668.006, 361.987 668.116, 364.682 666.829 C 367.078 665.686, 367.544 664.802, 367.797 660.924 C 368.063 656.850, 367.818 656.238, 365.500 655.182 C 361.537 653.376, 358.285 653.755, 356.557 656.223 M 240.526 658.950 C 239.687 660.573, 239 662.537, 239 663.315 C 239 665.826, 242.934 669.823, 246.592 671.030 C 249.804 672.090, 250.390 671.983, 252.576 669.928 C 255.057 667.597, 255.517 664.836, 254.375 659.125 C 253.760 656.052, 253.652 656, 247.901 656 C 242.435 656, 241.951 656.193, 240.526 658.950 M 288.684 662.957 C 287.140 665.571, 287.097 666.297, 288.314 669.207 C 290.143 673.583, 292.284 675.213, 295.690 674.822 C 297.907 674.568, 298.734 673.761, 299.609 671 C 300.219 669.075, 300.507 665.813, 300.250 663.750 C 299.783 660.018, 299.758 660, 295.106 660 C 290.987 660, 290.223 660.352, 288.684 662.957 M 419.533 663.956 C 416.108 664.426, 415.440 664.940, 414.647 667.719 C 413.556 671.541, 415.588 675.400, 419.670 677.260 C 421.931 678.290, 422.470 678.138, 424.221 675.976 C 425.752 674.085, 426.094 672.528, 425.716 669.175 C 425.109 663.792, 424.498 663.276, 419.533 663.956 M 567 666.727 C 563.764 668.366, 563.507 668.833, 563.599 672.922 C 563.677 676.418, 564.265 677.831, 566.405 679.672 C 572.018 684.500, 576.581 681.144, 576.368 672.343 C 576.296 669.351, 576.070 666.737, 575.866 666.533 C 574.434 665.100, 570.020 665.197, 567 666.727 M 618.093 679.921 C 617.271 680.442, 616.648 682.591, 616.593 685.092 C 616.511 688.886, 616.887 689.636, 619.898 691.686 C 621.767 692.959, 623.672 694, 624.131 694 C 624.590 694, 626.085 691.793, 627.452 689.095 L 629.937 684.190 627.896 681.595 C 625.777 678.901, 620.995 678.084, 618.093 679.921 M 105.200 681.200 C 103.434 682.966, 103.740 687.455, 105.752 689.275 C 106.715 690.147, 108.696 691.314, 110.153 691.868 C 113.607 693.181, 116 690.727, 116 685.871 C 116 681.456, 114.512 680, 110 680 C 108.020 680, 105.860 680.540, 105.200 681.200 M 520.223 692.557 C 517.081 694.757, 517.198 700.289, 520.455 703.545 C 523.594 706.685, 525.349 706.643, 527.927 703.365 C 530.551 700.030, 530.582 695.582, 528 693 C 525.597 690.597, 523.214 690.462, 520.223 692.557 M 371.378 693.984 C 366.760 695.849, 367.722 703.223, 372.990 706.335 C 376.996 708.701, 377.915 708.448, 379.553 704.526 C 380.841 701.445, 380.823 700.598, 379.394 697.026 C 377.710 692.817, 375.935 692.143, 371.378 693.984 M 326.073 697.635 C 324.933 699.084, 324 701.265, 324 702.481 C 324 705.206, 330.406 712, 332.976 712 C 336.027 712, 339 707.286, 339 702.447 C 339 695.708, 338.426 695, 332.966 695 C 328.949 695, 327.800 695.439, 326.073 697.635 M 137.035 702.934 C 135.052 706.640, 135.786 711.687, 138.635 713.927 C 142.350 716.850, 144.714 716.518, 147.011 712.750 C 149.210 709.143, 149.529 705.857, 147.965 702.934 C 147.181 701.469, 145.856 701, 142.500 701 C 139.144 701, 137.819 701.469, 137.035 702.934 M 596.513 706.751 C 591.406 707.261, 590 708.486, 590 712.426 C 590 714.712, 590.928 716.507, 593.298 718.804 C 597.201 722.587, 598.939 722.782, 601.701 719.750 C 605.756 715.298, 606.303 713.203, 604.303 709.779 C 602.257 706.276, 602.057 706.199, 596.513 706.751 M 232.607 708.582 C 231.278 712.044, 232.006 718.006, 234 720 C 236.681 722.681, 241.151 722.565, 243.647 719.750 C 245.249 717.943, 245.560 716.466, 245.224 712.250 L 244.807 707 239.010 707 C 234.647 707, 233.064 707.391, 232.607 708.582 M 546.278 710.250 C 543.077 714.386, 544.822 719.855, 550.030 722.013 C 552.969 723.230, 553.335 723.126, 556.186 720.276 C 558.915 717.547, 559.148 716.833, 558.521 713.122 L 557.824 709 552.535 709 C 549.485 709, 546.835 709.529, 546.278 710.250 M 412 713.321 C 408.642 714.481, 408.503 714.724, 408.566 719.308 C 408.616 723.024, 409.190 724.644, 411.145 726.599 C 413.369 728.823, 413.960 728.975, 416.281 727.918 C 417.723 727.261, 419.615 725.224, 420.484 723.393 C 422 720.197, 421.961 719.899, 419.520 716.031 C 416.699 711.562, 416.892 711.632, 412 713.321 M 271.250 716.522 C 268.083 718.762, 268.185 724.276, 271.455 727.545 C 274.444 730.535, 275.333 730.575, 279.634 727.917 C 283.391 725.595, 284.748 722.037, 283.375 718.110 C 282.599 715.891, 281.790 715.457, 277.981 715.216 C 275.097 715.033, 272.698 715.498, 271.250 716.522 M 91.161 719.547 C 89.315 723.598, 89.791 726.425, 92.805 729.313 C 98.055 734.343, 103 731.513, 103 723.477 C 103 718.334, 101.654 717, 96.461 717 C 92.995 717, 92.132 717.415, 91.161 719.547 M 494.540 725.346 C 492.845 726.587, 492.741 727.136, 493.775 729.405 C 494.432 730.849, 496.089 732.539, 497.456 733.162 C 501.032 734.791, 503.191 732.741, 502.801 728.086 C 502.535 724.914, 502.154 724.466, 499.500 724.206 C 497.850 724.044, 495.618 724.557, 494.540 725.346 M 623.250 734.723 C 620.046 735.121, 620 735.201, 620 740.389 C 620 744.597, 620.464 746.087, 622.314 747.826 C 625.278 750.610, 626.180 750.561, 629.923 747.411 C 632.373 745.350, 633 744.041, 633 740.993 C 633 733.880, 632.522 733.573, 623.250 734.723 M 175.750 736.716 C 173.481 737.060, 173 737.638, 173 740.019 C 173 744.393, 174.958 747.790, 178.113 748.890 C 180.586 749.752, 181.211 749.548, 182.975 747.304 C 185.051 744.665, 185.430 742.206, 184.370 738.250 C 183.753 735.948, 182.404 735.708, 175.750 736.716 M 526.802 744.536 C 525.824 746.681, 525.871 747.674, 527.047 749.744 C 529.354 753.805, 531.571 754.754, 534.660 753 C 538.833 750.631, 539.762 748.452, 537.968 745.241 C 536.736 743.037, 535.611 742.440, 532.223 742.193 C 528.495 741.921, 527.870 742.191, 526.802 744.536 M 372.035 745.934 C 370.228 749.310, 370.894 751.490, 374.936 755.438 L 378.872 759.281 381.936 756.218 C 384.145 754.009, 385 752.211, 385 749.777 C 385 745.226, 383.480 744, 377.835 744 C 374.148 744, 372.836 744.437, 372.035 745.934 M 574.487 753.202 C 575.263 757.039, 577.660 760.699, 580.737 762.742 C 582.718 764.057, 583.136 763.955, 585.511 761.580 C 587.641 759.450, 588.058 758.208, 587.807 754.739 L 587.500 750.500 580.660 750.202 L 573.820 749.905 574.487 753.202 M 121.988 756.043 C 120.968 759.832, 121.094 760.330, 123.991 763.988 C 127.415 768.311, 130.397 769.745, 132.440 768.049 C 134.969 765.951, 136.255 761.187, 135.554 756.514 L 134.877 752 128.977 752 L 123.077 752 121.988 756.043 M 321.750 755.055 C 320.430 755.843, 320 757.420, 320 761.477 C 320 766.096, 320.372 767.147, 322.635 768.927 C 327.137 772.469, 329.451 771.704, 331.975 765.837 C 333.691 761.848, 333.996 759.972, 333.315 757.587 C 332.517 754.787, 332.020 754.477, 327.968 754.255 C 325.510 754.120, 322.712 754.480, 321.750 755.055 M 226.630 766.250 C 224.788 773.125, 227.336 777, 233.699 777 C 238.447 777, 240.498 773.564, 239.022 768.083 L 237.923 764 232.578 764 C 227.881 764, 227.160 764.273, 226.630 766.250 M 461.250 765.674 C 459.967 766.569, 459 768.286, 459 769.667 C 459 772.588, 463.141 777, 465.883 777 C 469.731 777, 473.644 770.701, 472.536 766.289 C 472.048 764.343, 471.328 764.008, 467.731 764.052 C 465.404 764.081, 462.488 764.811, 461.250 765.674 M 274.750 767.080 C 273.516 767.799, 273 769.357, 273 772.363 C 273 775.728, 273.591 777.192, 275.805 779.313 C 279.372 782.731, 280.245 782.686, 283.411 778.923 C 286.496 775.257, 287.118 767.643, 284.418 766.607 C 282.003 765.680, 276.709 765.939, 274.750 767.080 M 171.088 775.394 C 170.452 776.161, 169.668 779.006, 169.347 781.716 C 168.777 786.527, 168.858 786.720, 172.725 789.782 L 176.686 792.919 179.843 789.662 C 182.462 786.960, 183 785.616, 183 781.774 C 183 778.897, 182.405 776.548, 181.429 775.571 C 179.478 773.621, 172.657 773.504, 171.088 775.394 M 499.605 786.884 C 498.270 788.360, 497.982 789.713, 498.480 792.183 C 499.840 798.926, 499.827 798.910, 503.138 797.960 C 508.145 796.524, 509.128 795.158, 508.798 790.088 C 508.508 785.620, 508.407 785.492, 504.949 785.201 C 502.411 784.988, 500.886 785.468, 499.605 786.884 M 547.223 792.557 C 544.023 794.798, 544.410 798.778, 548.265 803.271 L 551.500 807.042 554.750 805.036 C 557.528 803.321, 558 802.457, 558 799.087 C 558 796.020, 557.416 794.685, 555.365 793.073 C 552.217 790.596, 550.204 790.468, 547.223 792.557 M 592.245 792.250 C 589.594 795.563, 589.909 797.713, 593.508 800.873 C 597.849 804.685, 599.252 804.767, 601.927 801.365 C 604.002 798.728, 604.532 795.550, 603.393 792.582 C 602.642 790.624, 593.758 790.359, 592.245 792.250 M 432 801.974 C 432 806.557, 432.251 807.079, 435.193 808.600 C 438.328 810.221, 438.430 810.202, 440.693 807.570 C 442.259 805.750, 443 803.621, 443 800.944 L 443 797 437.500 797 L 432 797 432 801.974 M 356.500 806.878 C 353.618 807.494, 353.500 807.731, 353.500 812.902 C 353.500 817.614, 353.844 818.541, 356.261 820.345 C 358.812 822.250, 359.146 822.283, 360.651 820.778 C 363.820 817.608, 363.389 805.503, 360.128 806.118 C 359.782 806.183, 358.150 806.525, 356.500 806.878 M 268.415 816.739 C 264.693 819.348, 265.030 825.275, 269.150 829.660 C 272.009 832.703, 273.039 832.613, 276.484 829.017 C 279.167 826.217, 279.285 825.742, 278.421 821.267 C 277.517 816.590, 277.424 816.495, 273.500 816.239 C 271.300 816.096, 269.012 816.321, 268.415 816.739 M 306.613 819.048 L 304.048 822.096 307.274 827.049 C 309.060 829.791, 311.148 831.887, 311.953 831.746 C 313.731 831.434, 320 823.391, 320 821.422 C 320 818.820, 316.145 816, 312.589 816 C 310.014 816, 308.549 816.748, 306.613 819.048 M 467.459 826.066 C 466.213 828.083, 466.803 833.769, 468.532 836.408 C 470.309 839.121, 470.732 839.144, 476.852 836.853 C 478.426 836.263, 479.005 835.454, 478.602 834.404 C 478.271 833.542, 478 831.073, 478 828.918 L 478 825 473.059 825 C 470.341 825, 467.821 825.480, 467.459 826.066 M 523.034 839.459 C 520.051 843.053, 525.321 851, 530.686 851 C 533.730 851, 536.270 845.602, 535.362 841.062 C 534.772 838.112, 534.557 838, 529.497 838 C 526.114 838, 523.814 838.519, 523.034 839.459 M 392.245 847.155 C 390.731 848.669, 390.631 852.442, 392.035 855.066 C 392.739 856.380, 394.131 857, 396.380 857 C 400.741 857, 403.240 854.223, 402.820 849.844 C 402.514 846.646, 402.303 846.487, 397.995 846.205 C 395.356 846.033, 392.974 846.426, 392.245 847.155 M 435.322 861.399 L 432.533 863.798 434.250 867.399 C 437.014 873.193, 442.785 871.744, 444.512 864.822 C 445.082 862.538, 444.734 861.914, 442.140 860.572 C 438.313 858.593, 438.629 858.555, 435.322 861.399 M 325.657 865.593 C 323.331 868.786, 324.092 872.246, 327.974 876.128 C 331.450 879.604, 333.937 879.761, 336.826 876.686 C 338.403 875.007, 339 873.117, 339 869.804 L 339 865.237 334.557 864.119 C 328.461 862.584, 327.765 862.699, 325.657 865.593 M 481.250 868.989 C 477.211 871.452, 476.997 874.655, 480.589 878.923 C 485.253 884.466, 490 881.835, 490 873.706 C 490 870.146, 489.551 868.830, 488.066 868.035 C 485.455 866.638, 485.002 866.701, 481.250 868.989 M 287.250 869.220 C 285.442 870.092, 285 871.137, 285 874.536 C 285 878.220, 285.530 879.246, 289.096 882.468 L 293.192 886.168 295.596 883.910 C 297.598 882.029, 298 880.683, 298 875.861 C 298 871.159, 297.636 869.876, 296.066 869.035 C 293.642 867.738, 290.173 867.811, 287.250 869.220 M 404.073 889.635 C 401.352 893.093, 401.443 893.929, 404.983 898.038 L 407.967 901.500 410.983 898.234 C 413.886 895.091, 414.677 891.927, 413.393 888.582 C 412.362 885.895, 406.493 886.558, 404.073 889.635 M 353.784 904.902 L 350.536 907.804 352.228 911.353 C 353.159 913.305, 355.080 915.662, 356.498 916.590 C 358.976 918.214, 359.172 918.188, 361.632 915.889 C 364.255 913.439, 367 908.919, 367 907.050 C 367 906.472, 366.100 905.100, 365 904 C 362.096 901.096, 357.642 901.455, 353.784 904.902 M 310.750 913.067 C 307.706 914.862, 308.476 920.381, 312.207 923.521 L 315.414 926.220 317.707 923.554 C 319.960 920.935, 320.683 916.591, 319.235 914.376 C 318.147 912.711, 312.762 911.881, 310.750 913.067 M 506.310 983.477 C 503.470 985.390, 500.869 987.402, 500.532 987.949 C 500.194 988.496, 497.911 989.831, 495.459 990.915 C 489.888 993.379, 489.323 996.414, 494.250 997.401 C 502.506 999.053, 523.784 1000.182, 536.332 999.634 C 550.656 999.008, 563 997.348, 563 996.047 C 563 995.636, 556.197 992.290, 547.883 988.612 L 532.766 981.924 528.389 983.596 C 524.090 985.237, 523.905 985.220, 517.940 982.633 C 514.601 981.185, 511.779 980, 511.671 980 C 511.562 980, 509.150 981.565, 506.310 983.477"/>
</svg>