<?xml version="1.0" encoding="utf-8"?>
<svg xmlns="http://www.w3.org/2000/svg" width="1000" height="1002" viewBox="0 0 1000 1002">
  <path fill-rule="evenodd" d="M 524.947 3.414 C 524.137 5.377, 521 22.962, 521 25.541 C 521 26.285, 525.216 27.393, 532.250 28.498 C 538.438 29.470, 543.885 30.614, 544.357 31.039 C 545.021 31.639, 528.429 129.482, 527.438 130.815 C 527.309 130.988, 521.962 130.372, 515.556 129.444 C 509.149 128.517, 503.716 127.950, 503.482 128.184 C 502.900 128.767, 499.143 152.409, 499.561 152.865 C 499.745 153.065, 509.482 154.752, 521.198 156.614 C 545.983 160.553, 586.804 167.704, 609 171.996 C 617.525 173.644, 625.456 174.994, 626.625 174.996 C 630.153 175.002, 651.750 164.375, 652.362 162.332 C 652.663 161.324, 654.524 153.300, 656.497 144.500 C 658.471 135.700, 664.375 109.913, 669.619 87.195 L 679.153 45.890 676.650 42.695 C 675.273 40.938, 671.076 36.214, 667.323 32.198 L 660.500 24.895 640.500 21.029 C 620.090 17.084, 567.385 7.928, 540.654 3.684 L 525.808 1.327 524.947 3.414 M 421.500 11.754 C 416.454 12.784, 364.711 24.076, 358.250 25.556 C 352.136 26.957, 351 27.540, 351 29.275 C 351 32.934, 356.300 51.178, 357.496 51.637 C 358.134 51.882, 362.659 51.190, 367.553 50.099 C 372.446 49.009, 376.598 48.265, 376.779 48.446 C 377.610 49.277, 401.066 144.420, 400.791 145.846 C 400.574 146.973, 398.065 148.017, 392.490 149.300 C 388.096 150.311, 384.117 151.513, 383.650 151.970 C 383.182 152.427, 384.033 158.020, 385.540 164.400 C 387.770 173.835, 388.614 176, 390.063 176 C 391.043 176, 405.043 173.106, 421.173 169.570 C 437.303 166.033, 452.192 162.832, 454.261 162.456 C 456.330 162.081, 458.250 161.404, 458.529 160.953 C 459.086 160.052, 455.455 141.769, 454.048 138.389 L 453.169 136.277 443.835 138.039 C 438.701 139.009, 434.430 139.734, 434.345 139.651 C 433.699 139.020, 411.077 41.684, 411.441 41.096 C 411.698 40.680, 414.517 39.777, 417.704 39.091 C 420.892 38.404, 425.126 37.427, 427.113 36.920 L 430.725 35.997 427.980 24.416 C 426.470 18.046, 424.844 12.500, 424.367 12.090 C 423.890 11.680, 422.600 11.529, 421.500 11.754 M 579.518 38.181 C 579.147 39.220, 567.701 98.131, 561.819 129.281 C 561.219 132.460, 560.961 135.295, 561.247 135.580 C 561.872 136.205, 621.230 147.103, 621.662 146.672 C 621.827 146.506, 626.704 124.606, 632.499 98.005 C 642.925 50.143, 643.226 48.094, 639.845 48.015 C 639.484 48.007, 630.934 46.447, 620.845 44.550 C 610.755 42.652, 598.225 40.383, 593 39.506 C 587.775 38.629, 582.710 37.676, 581.745 37.387 C 580.780 37.098, 579.778 37.456, 579.518 38.181 M 758.212 71.750 C 754.979 76.013, 751.572 80.677, 750.640 82.115 L 748.947 84.730 755.419 88.947 C 758.979 91.266, 762.412 93.792, 763.049 94.559 C 763.975 95.675, 760.034 101.694, 743.297 124.726 C 731.797 140.552, 718.448 159.012, 713.634 165.750 C 708.820 172.488, 704.345 177.988, 703.690 177.974 C 703.036 177.960, 699.350 175.944, 695.500 173.494 L 688.500 169.040 686.783 171.270 C 685.839 172.496, 682.483 177.288, 679.326 181.918 C 674.085 189.602, 673.741 190.430, 675.379 191.418 C 682.484 195.702, 739.708 234.232, 758.142 247.142 C 770.594 255.864, 781.020 263, 781.311 263 C 781.601 263, 787.322 255.523, 794.025 246.384 C 805.845 230.269, 806.157 229.714, 804.356 227.973 C 801.091 224.816, 786.836 215, 785.517 215 C 784.816 215, 782.539 217.475, 780.456 220.500 C 778.372 223.525, 776.274 226, 775.794 226 C 774.363 226, 733.827 197.713, 733.304 196.349 C 732.881 195.246, 754.388 164, 755.570 164 C 755.824 164, 763.337 169.103, 772.266 175.340 C 781.195 181.577, 789.469 187.195, 790.654 187.824 C 792.644 188.881, 793.384 188.196, 800.400 178.809 C 807.170 169.751, 807.835 168.475, 806.536 167.040 C 805.735 166.155, 797.649 160.271, 788.567 153.965 C 778.892 147.248, 772.236 141.983, 772.495 141.252 C 772.815 140.345, 788.166 119.382, 791.650 115.093 C 792.508 114.036, 836 144.534, 836 146.193 C 836 146.812, 834.129 149.797, 831.841 152.827 L 827.682 158.335 830.591 160.686 C 836.018 165.073, 847.821 173, 848.927 173 C 850.046 173, 875 142.156, 875 140.773 C 875 138.704, 767.781 64, 764.812 64 C 764.415 64, 761.445 67.487, 758.212 71.750 M 213 86.571 C 196.775 96.789, 172.315 112.560, 158.645 121.618 C 138.404 135.028, 133.880 138.435, 134.281 139.967 C 134.948 142.518, 147.247 158.928, 148.500 158.939 C 149.050 158.944, 152.650 156.934, 156.500 154.473 L 163.500 149.999 165.370 152.249 C 166.399 153.487, 173.189 162.825, 180.460 173 C 209.787 214.043, 222.142 232.187, 221.646 233.481 C 221.359 234.229, 218.396 236.694, 215.062 238.958 C 211.728 241.222, 209 243.539, 209 244.107 C 209 245.874, 222.083 264.002, 223.325 263.956 C 224.986 263.894, 280.265 227.706, 280.702 226.394 C 281.165 225.005, 269.441 207.107, 267.608 206.403 C 266.845 206.110, 262.921 207.925, 258.886 210.435 C 254.852 212.946, 251.069 215, 250.478 215 C 249.324 215, 233 191.766, 233 190.123 C 233 189.581, 240.762 184.236, 250.250 178.246 C 275.354 162.397, 274.721 162.745, 276.573 163.781 C 277.468 164.282, 287.119 173.311, 298.021 183.846 C 308.922 194.381, 318.314 203, 318.892 203 C 319.870 203, 355.049 182.857, 357.700 180.779 C 358.584 180.086, 357.181 177.033, 352.368 169.171 C 348.775 163.303, 345.700 158.367, 345.534 158.200 C 345.367 158.034, 341.767 159.946, 337.533 162.449 C 333.299 164.952, 329.308 167, 328.665 167 C 327.019 167, 302.003 145.144, 301.987 143.693 C 301.980 143.037, 303.181 138.548, 304.655 133.717 L 307.335 124.934 289.599 98.466 C 279.844 83.908, 271.106 71.602, 270.181 71.120 C 269.257 70.637, 264.450 69.943, 259.500 69.577 C 254.550 69.212, 248.700 68.705, 246.500 68.452 C 242.733 68.018, 240.784 69.072, 213 86.571 M 222.151 112.750 C 208.369 121.412, 195.950 129.400, 194.554 130.500 L 192.015 132.500 203.049 148 C 209.118 156.525, 214.712 164.348, 215.480 165.385 C 216.846 167.228, 216.952 167.225, 220.189 165.278 C 228.571 160.235, 270.595 133.722, 271.365 132.991 C 272.184 132.214, 249.220 97.085, 247.855 97.027 C 247.500 97.012, 235.933 104.088, 222.151 112.750 M 447.590 193.636 C 440.604 208.756, 438.647 216.604, 440.841 220.703 C 441.666 222.244, 443.344 222.894, 447.809 223.399 C 451.251 223.788, 456.554 225.442, 460.595 227.387 C 467.509 230.714, 468.976 232.060, 482.180 247.194 C 486.832 252.527, 488.956 254.114, 493.930 255.974 C 497.268 257.222, 500 258.688, 500 259.231 C 500 259.827, 497.012 260.068, 492.459 259.838 L 484.918 259.457 472.110 246.228 C 465.065 238.953, 458.784 233, 458.151 233 C 455.144 233, 457.383 238.600, 463.908 247.404 C 466.723 251.201, 468.815 254.518, 468.558 254.775 C 467.877 255.456, 458.978 250.174, 455.655 247.117 C 454.090 245.678, 451.227 241.350, 449.293 237.500 C 447.360 233.650, 445.083 229.713, 444.234 228.750 C 441.494 225.644, 437.034 226.590, 430.712 231.619 C 424.475 236.579, 419.565 243.204, 413.465 254.888 C 410.304 260.941, 408.664 262.880, 404.388 265.615 C 398.221 269.560, 395.419 273.180, 394.145 278.850 C 393.083 283.576, 393.860 284.042, 397.727 281 C 404.455 275.708, 403.068 281.819, 394.752 294.109 C 391.257 299.274, 385.946 308, 382.949 313.500 C 379.023 320.705, 375.692 325.246, 371.033 329.746 L 364.566 335.993 364.159 343.246 C 363.936 347.236, 363.134 351.388, 362.376 352.473 C 360.784 354.755, 360.527 361.590, 362 362.500 C 363.981 363.724, 362.841 366.205, 352.500 383.189 C 346.725 392.673, 342 400.855, 342 401.371 C 342 403.089, 346.123 398.654, 360.692 381.269 C 368.633 371.791, 375.545 363.781, 376.052 363.468 C 378.017 362.254, 370.367 377.490, 351.645 412.082 C 346.481 421.624, 345.999 423.210, 349.119 420.405 C 352.564 417.307, 359.199 407.536, 370.437 389.009 C 376.247 379.432, 381 371.906, 381 372.285 C 381 372.665, 379.908 377.176, 378.574 382.312 C 372.839 404.386, 369.659 422.947, 371.844 421.597 C 372.308 421.310, 376.920 409.617, 382.094 395.613 C 390.848 371.917, 391.685 370.114, 394.174 369.616 C 396.046 369.241, 399.115 366.231, 404.421 359.568 C 412.018 350.024, 415.838 347, 420.295 347 C 424.968 347, 427.761 353.394, 424.750 357.196 C 424.063 358.064, 421.137 359.537, 418.248 360.468 C 414.041 361.825, 411.953 363.363, 407.748 368.205 C 404.686 371.731, 400.628 375.138, 398.006 376.386 C 393.933 378.324, 393.378 379.024, 392.088 383.849 C 390.432 390.043, 390.792 390.532, 397.788 391.590 C 405.464 392.751, 410.679 390.504, 418 382.884 C 421.575 379.163, 427.211 374.367, 430.524 372.227 C 438.973 366.769, 443.800 362.313, 446.059 357.885 C 448.654 352.798, 448.505 350.561, 445.439 348.552 C 441.723 346.117, 442.400 342.413, 446.500 342.738 C 455.391 343.445, 460.863 343.134, 464.151 341.737 C 469.747 339.358, 489.311 319.888, 494.438 311.594 C 499.853 302.835, 500.987 298.784, 500.994 288.184 C 501 280.192, 502.033 276, 503.997 276 C 505.803 276, 507.212 284.586, 506.787 293 C 506.429 300.075, 505.735 302.905, 502.642 309.881 C 497.479 321.530, 491.653 330.169, 481.578 341.118 C 476.829 346.278, 472.667 351.625, 472.327 353 C 471.071 358.093, 464.997 368.823, 457.323 379.506 C 443.804 398.327, 438.849 407.690, 436.030 419.746 L 434.803 424.991 424.018 431.489 C 405.790 442.472, 399.224 449.245, 391.070 465.476 C 387.037 473.503, 379 495.883, 379 499.084 C 379 500.007, 380.624 502.001, 382.609 503.515 C 386.610 506.567, 389.945 512.895, 389.978 517.500 C 389.999 520.495, 389.991 520.491, 384.750 514.878 C 377.900 507.542, 374.767 506.542, 361.443 507.434 C 351.432 508.105, 351.042 508.050, 345.342 505.176 C 338.703 501.829, 319.024 496.093, 311.425 495.292 C 301.029 494.195, 290.284 499.602, 285.941 508.115 C 283.564 512.776, 283.245 526.257, 285.391 531.393 C 286.156 533.223, 290.035 538.271, 294.012 542.610 C 306.584 556.330, 306.403 555.894, 307.037 573.919 C 307.760 594.472, 308.153 595.281, 325.987 613 C 335.715 622.665, 340.467 628.204, 342.716 632.500 C 346.826 640.350, 351.066 644.451, 354.246 643.653 C 358.325 642.629, 364.378 637.551, 368.238 631.914 C 374.670 622.520, 376.994 606.662, 372.428 603.324 C 369.543 601.214, 363.977 600.628, 358.985 601.907 C 355.370 602.834, 353.730 602.834, 351.701 601.910 C 349.544 600.927, 348.640 601.006, 346.576 602.358 C 345.198 603.261, 343.896 604, 343.684 604 C 343.471 604, 343.025 600.146, 342.693 595.436 C 341.937 584.728, 339.430 579.043, 331.104 569.162 C 327.233 564.567, 325.104 561.202, 325.409 560.162 C 327.212 554.013, 328.146 543.809, 327.847 533.500 C 327.517 522.077, 327.596 521.500, 329.487 521.500 C 332.536 521.500, 334.331 526.483, 334.815 536.289 C 335.241 544.936, 335.298 545.104, 338.374 546.747 C 343.185 549.316, 352.244 548.896, 359.750 545.755 C 363.187 544.317, 366 543.498, 366 543.935 C 366 546.083, 361.162 550.392, 355.648 553.155 C 352.267 554.850, 349.322 556.400, 349.104 556.598 C 348.379 557.259, 354.289 565.426, 359.415 570.845 C 366.243 578.064, 371.058 580.684, 380.008 582.050 C 387.181 583.144, 387.683 583.400, 391.798 588.063 C 394.602 591.240, 397.383 593.290, 399.798 593.961 C 405.219 595.466, 409.962 595.262, 410.640 593.495 C 410.958 592.667, 409.328 588.014, 407.019 583.154 C 402.303 573.231, 402.025 569.500, 406 569.500 C 408.206 569.500, 409.196 570.933, 414.413 581.664 C 420.772 594.746, 422.047 596, 428.982 596 C 434.344 596, 438.222 597.610, 437.823 599.670 C 437.487 601.400, 435.096 602.403, 428.789 603.456 C 425.233 604.050, 425.121 604.188, 426.108 606.784 C 428.444 612.928, 435.938 619.987, 440.135 619.996 C 442.223 620.001, 451.056 609.249, 454.920 601.999 C 456.552 598.937, 459.094 593.072, 460.569 588.966 C 462.043 584.860, 464.526 578.959, 466.087 575.854 C 469.037 569.982, 475.164 564, 478.228 564 C 480.678 564, 480.470 562.803, 476.929 556.529 C 473.189 549.901, 473.216 545.642, 477 545.224 C 478.985 545.005, 479.945 545.734, 481.660 548.766 C 482.848 550.865, 485.816 554.815, 488.256 557.542 C 493.401 563.292, 495.357 566.627, 494.656 568.453 C 494.378 569.179, 491.592 570.070, 488.330 570.478 C 477.977 571.772, 474.898 574.616, 469.953 587.458 C 465.901 597.980, 460.762 607.806, 456.592 613 C 454.605 615.475, 449.610 621.864, 445.493 627.198 C 441.375 632.531, 435.900 638.606, 433.327 640.698 C 420.690 650.965, 416.090 656.712, 416.022 662.315 C 416.010 663.313, 413.848 666.238, 411.218 668.815 C 408.256 671.718, 405.993 675.022, 405.271 677.500 C 404.630 679.700, 403.797 690.275, 403.420 701 C 402.743 720.287, 402.766 720.609, 405.522 730.500 C 407.561 737.816, 408.474 743.855, 408.923 753 L 409.537 765.500 415.018 775 L 420.500 784.500 420.676 796.688 C 420.958 816.196, 424.426 821.400, 434.566 817.528 C 440.620 815.216, 450.387 807.727, 453.124 803.300 C 455.319 799.748, 455.326 799.634, 453.524 796.593 C 446.489 784.715, 446.749 785.619, 445.791 769.730 C 444.891 754.802, 444.857 754.644, 440.911 747.455 C 436.581 739.565, 435.023 731.230, 435.008 715.869 C 435 708.380, 435.063 708.190, 438.359 705.675 C 442.506 702.512, 445 697.459, 445 692.221 C 445 689.760, 445.623 687.728, 446.636 686.887 C 449.558 684.462, 452.803 678.427, 454.699 671.893 L 456.554 665.500 465.117 661 C 469.826 658.525, 476.563 654.220, 480.089 651.433 C 483.615 648.646, 490.325 643.618, 495 640.259 C 499.675 636.901, 506.598 630.709, 510.384 626.499 C 514.170 622.290, 520.561 616.367, 524.586 613.338 C 534.669 605.749, 536.575 601.777, 535.476 590.645 C 535.033 586.165, 534.633 579.800, 534.586 576.500 C 534.503 570.744, 534.602 570.500, 537 570.500 C 539.260 570.500, 539.729 571.269, 541.885 578.500 C 545.087 589.240, 545.296 600.737, 542.403 607.011 C 539.577 613.143, 535.220 617.250, 526.912 621.616 C 520.628 624.917, 519.518 625.977, 515.969 632.053 C 512.493 638.004, 510.884 639.575, 502.545 645.157 C 497.333 648.646, 493.054 651.984, 493.035 652.576 C 492.984 654.163, 496.469 657.172, 508.607 666.022 C 531.257 682.535, 541.385 686.502, 574.273 691.740 L 579.046 692.500 577.365 694.894 C 575.685 697.288, 575.684 697.288, 561.342 696.611 L 547 695.933 547 702.308 C 547 705.814, 546.299 710.891, 545.442 713.591 C 544.585 716.291, 543.626 723.243, 543.310 729.041 C 542.246 748.604, 546.807 757.465, 573.400 787.500 C 584.129 799.619, 593.921 813.173, 596.631 819.659 C 600.107 827.979, 597.517 844.990, 590.638 859.022 C 588.226 863.942, 586.277 866.326, 582.484 868.994 C 574.861 874.356, 565.458 884.162, 562.678 889.650 C 559.522 895.876, 558 904.045, 558 914.749 C 558 924.157, 557.620 925.141, 550.844 933.283 C 545.557 939.636, 543.909 943.708, 546.083 945.051 C 549.957 947.446, 580.376 947.475, 584.835 945.088 C 587.802 943.501, 588.340 940.604, 586.995 933.475 C 585.842 927.362, 585.889 927.010, 588.285 923.816 C 591.872 919.033, 594.500 913.456, 596.922 905.488 C 598.149 901.451, 600.516 896.643, 602.528 894.103 C 604.443 891.685, 606.657 887.525, 607.449 884.860 C 608.241 882.194, 610.001 878.548, 611.362 876.756 C 612.722 874.965, 615.731 870.125, 618.048 866 C 620.785 861.127, 625.682 854.968, 632.029 848.417 C 637.402 842.870, 642.906 836.121, 644.262 833.417 C 649.910 822.149, 650.286 810.975, 645.325 801.849 C 642.446 796.555, 635.814 790.721, 633.680 791.606 C 633.031 791.875, 631.272 793.710, 629.770 795.683 C 627.450 798.732, 626.940 799.006, 626.366 797.512 C 625.995 796.545, 626.214 792.322, 626.852 788.127 C 628.619 776.518, 628.272 771.201, 625.006 759.879 C 623.360 754.171, 622.010 749.184, 622.006 748.797 C 622.003 748.410, 624.138 747.148, 626.750 745.992 C 629.368 744.834, 633.688 741.561, 636.373 738.701 L 641.247 733.510 640.762 724.248 L 640.278 714.987 635.092 709.504 C 629.760 703.866, 626.470 697.822, 627.406 695.383 C 628.438 692.694, 630.984 694.065, 635.114 699.535 C 637.412 702.579, 639.750 704.917, 640.309 704.730 C 640.867 704.544, 642.561 698.987, 644.071 692.382 C 647.481 677.472, 649.549 672.149, 651.267 673.867 C 652.908 675.508, 652.749 682.023, 650.705 696.970 C 648.275 714.740, 648.431 730.944, 651.115 739.645 C 655.407 753.558, 663.183 766.200, 673.231 775.600 C 679.146 781.133, 691.542 790.119, 695.190 791.519 C 696.217 791.913, 697.064 794.654, 697.827 800.053 C 698.446 804.428, 699.644 809.346, 700.491 810.982 C 701.645 813.215, 709.637 820.187, 713.799 822.592 C 713.964 822.688, 714.509 826.756, 715.011 831.633 C 717.192 852.825, 718.232 859, 719.623 859 C 722.325 859, 721.308 872.366, 717.413 888.053 C 714.316 900.526, 713.887 903.664, 714.274 911.018 C 714.593 917.085, 715.343 920.752, 716.880 923.764 L 719.037 927.992 716.476 938.094 C 715.068 943.651, 712.584 950.691, 710.958 953.739 C 708.172 958.960, 707.082 964.018, 708.750 963.985 C 709.163 963.977, 711.300 963.321, 713.500 962.529 C 721.153 959.772, 734.971 961.432, 742.807 966.051 C 744.626 967.123, 746.589 968, 747.168 968 C 748.865 968, 747.196 961.274, 743.406 952.833 C 740.162 945.610, 737.452 935.145, 738.224 932.828 C 738.416 932.253, 740.248 934.306, 742.296 937.391 C 744.345 940.476, 746.394 943, 746.850 943 C 748.588 943, 750.124 937.337, 751.169 927.076 C 752.137 917.560, 752.014 914.956, 749.999 902.494 C 746.769 882.514, 747.317 876.671, 754.376 855.823 C 759.590 840.422, 760 838.544, 760 830.049 C 760 816.853, 758.759 812.985, 752.352 806.209 L 746.964 800.512 744.648 803.417 C 741.075 807.898, 739.958 806.138, 740.054 796.182 C 740.115 789.888, 739.586 785.926, 738.133 781.779 L 736.128 776.059 740.182 766.029 C 742.412 760.513, 744.646 756, 745.146 756 C 745.647 756, 748.263 758.371, 750.960 761.269 C 753.702 764.214, 759.533 768.673, 764.182 771.379 C 780.531 780.894, 785.752 784.856, 787.964 789.427 C 790.691 795.058, 790.969 804.739, 788.606 811.754 C 787.633 814.644, 786.998 817.494, 787.196 818.087 C 787.395 818.686, 789.917 817.575, 792.878 815.582 C 795.806 813.612, 798.426 812, 798.701 812 C 798.976 812, 799.030 817.737, 798.820 824.750 C 798.506 835.272, 798.050 838.357, 796.208 842.405 C 794.980 845.102, 794.212 847.546, 794.501 847.835 C 794.790 848.124, 796.933 847.027, 799.263 845.397 C 802.588 843.072, 804.028 841.080, 805.952 836.148 C 808.215 830.350, 808.484 830.042, 809.419 832.181 C 809.976 833.457, 810.447 842.215, 810.466 851.644 C 810.499 868.376, 810.542 868.724, 812.269 866.144 C 815.390 861.479, 819.311 847.355, 818.716 842.920 C 818.284 839.695, 818.434 839.115, 819.479 839.983 C 822.292 842.317, 825.210 851.577, 826.383 861.890 L 827.590 872.500 829.361 869.173 C 830.514 867.006, 831.791 860.074, 833.023 849.299 C 834.064 840.198, 835.146 832.520, 835.429 832.237 C 835.712 831.954, 836.407 832.910, 836.972 834.361 C 837.537 835.813, 838.486 838.237, 839.080 839.750 C 839.674 841.263, 840.757 846.471, 841.487 851.324 C 842.217 856.177, 843.051 860.384, 843.341 860.674 C 845.761 863.094, 849 849.684, 849 837.245 C 849 832.373, 848.102 823.497, 847.004 817.522 C 845.906 811.547, 845.150 806.517, 845.322 806.344 C 845.495 806.171, 847.103 807.543, 848.896 809.393 C 852.419 813.028, 853.939 817.770, 853.976 825.250 C 853.989 827.862, 854.417 830, 854.927 830 C 856.189 830, 860.694 820.290, 861.939 814.888 C 862.496 812.475, 862.962 806.125, 862.976 800.779 C 862.996 792.454, 863.377 790.226, 865.623 785.279 C 870.635 774.238, 869.687 757.967, 863.408 747.253 C 859.781 741.063, 855.166 736.800, 844.188 729.499 C 838.859 725.955, 833.691 721.918, 832.703 720.528 C 830.963 718.080, 830.973 717.850, 833.018 713.250 C 837.954 702.145, 837.419 693.705, 831.106 683.047 C 828.972 679.446, 826.446 674.380, 825.492 671.788 C 824.538 669.197, 822.272 665.341, 820.456 663.219 L 817.154 659.362 818.525 650.183 C 820.249 638.642, 819.294 632.047, 814.487 622.295 C 812.534 618.333, 808.717 612.663, 806.006 609.697 C 802.371 605.719, 800.789 603.016, 799.982 599.402 C 797.682 589.102, 789.938 580.247, 780.878 577.556 C 774.659 575.710, 770.853 575.619, 762.280 577.112 C 756.038 578.199, 755.763 578.152, 749.866 575.009 C 745.693 572.785, 741.937 571.630, 737.668 571.258 C 733.543 570.898, 729.347 569.646, 725 567.478 C 721.425 565.696, 715.994 563.719, 712.931 563.085 C 708.259 562.119, 705.923 560.735, 698.431 554.496 C 689.458 547.023, 681.613 542.053, 680.519 543.148 C 680.195 543.471, 680.385 545.708, 680.941 548.118 C 682.284 553.946, 682.265 563.942, 680.902 567.851 C 678.724 574.098, 676.537 570.892, 675.546 560 C 674.697 550.670, 672.661 542.216, 670.011 537.022 C 667.295 531.697, 654.066 517.145, 644.083 508.500 C 639.637 504.650, 630.937 498.436, 624.750 494.692 C 618.562 490.948, 611.310 485.773, 608.633 483.192 C 601.821 476.625, 593.212 464.851, 588.766 456.019 C 585.637 449.802, 585 447.503, 585 442.418 C 585 436.124, 586.606 429.638, 587.958 430.474 C 588.377 430.733, 589.005 433.023, 589.354 435.563 C 591.113 448.401, 601.964 460.513, 617 466.423 C 621.985 468.383, 631.037 470.074, 632.331 469.287 C 632.788 469.009, 630.449 467.144, 627.133 465.141 C 618.838 460.130, 610.301 452.544, 606.871 447.135 C 603.159 441.282, 603.248 440.301, 607.250 442.974 C 613.638 447.240, 620.668 449.985, 625.774 450.208 C 628.595 450.330, 631.225 450.109, 631.618 449.715 C 632.489 448.845, 633.492 449.555, 621.500 442.556 C 604.526 432.649, 586.903 412.908, 589.347 406.538 C 589.672 405.692, 590.303 405, 590.750 405 C 591.197 405, 594.183 408.403, 597.385 412.563 C 600.587 416.723, 606.118 422.528, 609.676 425.463 C 616.321 430.944, 627.311 437.400, 629.016 436.824 C 629.543 436.646, 626.605 432.727, 622.487 428.116 C 615.705 420.520, 613.588 417, 615.804 417 C 616.246 417, 618.158 418.634, 620.054 420.630 C 624.448 425.259, 634.798 433, 636.593 433 C 639.322 433, 628.534 416.468, 617.750 404.125 C 613.646 399.429, 613 398.098, 613 394.344 C 613 391.955, 613.170 390, 613.378 390 C 613.586 390, 615.371 390.675, 617.346 391.500 C 621.172 393.099, 632 393.576, 632 392.146 C 632 391.676, 628.737 388.464, 624.750 385.009 C 615.435 376.937, 614.058 375.400, 600.364 357.785 C 594.072 349.693, 588.461 342.785, 587.895 342.435 C 585.715 341.088, 585.755 343.206, 588 348 C 590.892 354.174, 589.804 355.671, 585.820 351 C 580.801 345.116, 577.163 337.960, 573.952 327.658 C 568.774 311.043, 570.870 309.132, 581.691 320.603 C 585.770 324.927, 588.666 328.611, 588.128 328.791 C 587.590 328.970, 585.316 328.181, 583.075 327.038 C 578.314 324.610, 577.921 325.541, 581.750 330.173 C 585.748 335.010, 587.471 336.332, 598 342.644 C 611.374 350.662, 612.788 351.869, 620.026 361.458 C 623.573 366.156, 626.760 370, 627.109 370 C 628.169 370, 626.164 361.159, 623.988 356.240 C 621.016 349.522, 617.814 345.728, 609.703 339.316 C 601.262 332.643, 595 326.904, 595 325.842 C 595 325.428, 598.185 326.444, 602.077 328.101 C 610.618 331.735, 617.704 332.765, 620.368 330.760 C 622.090 329.464, 621.764 329.182, 616.192 327.150 C 612.868 325.938, 607.403 323.114, 604.049 320.874 C 597.084 316.223, 584 303.916, 584 302.016 C 584 299.609, 593.555 301.424, 599.133 304.892 C 601.951 306.644, 604.473 307.860, 604.737 307.596 C 605.537 306.796, 601.199 301.326, 596.718 297.486 C 594.398 295.497, 589.800 292.595, 586.500 291.035 C 580.160 288.040, 569.422 285.245, 568.354 286.312 C 568.006 286.661, 568.459 289.575, 569.361 292.788 C 571.462 300.276, 571.489 304, 569.445 304 C 568.513 304, 566.870 301.695, 565.346 298.250 C 563.948 295.087, 559.955 286.200, 556.475 278.500 C 548.482 260.820, 548.473 260.787, 551.091 258.418 C 553.612 256.136, 559.480 256.055, 571.265 258.139 L 579.030 259.512 577.414 261.819 C 574.794 265.560, 571.475 266.280, 565.224 264.463 C 557.664 262.265, 556.966 263.273, 560.422 271.404 L 563.173 277.878 568.766 278.577 C 571.843 278.961, 576.641 280.309, 579.430 281.572 C 582.218 282.835, 587.820 284.319, 591.878 284.870 C 597.754 285.668, 599.839 286.430, 602.118 288.613 C 606.014 292.346, 606.941 290.838, 604.073 285.432 C 601.388 280.370, 594.149 275.277, 584.750 271.837 C 581.587 270.679, 579 269.397, 579 268.987 C 579 268.578, 580.291 267.708, 581.869 267.054 C 585.803 265.425, 591.399 259.481, 590.704 257.670 C 590.395 256.866, 587.954 255.481, 585.279 254.593 C 580.240 252.919, 553.390 248.052, 549.011 248.019 C 545.978 247.996, 538.009 244.830, 538.004 243.646 C 538.002 243.176, 541.540 243.105, 545.866 243.488 C 551.666 244.002, 555.344 243.771, 559.872 242.611 C 565.882 241.072, 571 238.504, 571 237.029 C 571 236.621, 567.513 235.994, 563.250 235.635 C 558.987 235.276, 552.575 234.089, 549 232.999 C 545.124 231.816, 539.607 231.012, 535.335 231.008 L 528.170 231 524.576 235.897 C 518.603 244.033, 517.641 242.646, 522.729 233.235 C 527.173 225.016, 527.449 224.050, 527.827 215.418 C 528.447 201.231, 525.631 198.225, 519.975 207.039 C 518.197 209.810, 514.662 213.720, 512.121 215.728 C 509.579 217.735, 504.659 222.105, 501.186 225.439 C 495.247 231.141, 494.914 231.322, 495.565 228.500 C 496.563 224.172, 499.694 219.354, 503.071 216.950 C 506.638 214.410, 506.814 213, 503.565 213 C 499.639 213, 495.753 214.874, 491.884 218.631 C 487.753 222.645, 486.437 221.622, 488.080 215.673 C 488.976 212.427, 492.389 208.739, 499.565 203.259 L 502.500 201.018 499.500 201.619 C 492.984 202.926, 486.327 206.764, 482.519 211.411 C 479.715 214.833, 478.453 215.748, 477.841 214.799 C 476.515 212.743, 478.016 207.806, 481.106 204.056 C 482.667 202.161, 483.766 200.433, 483.548 200.214 C 482.578 199.244, 478.356 201.552, 474.354 205.241 L 470 209.255 470 204.762 C 470 201.638, 468.949 198.170, 466.554 193.384 C 463.199 186.683, 457.183 179, 455.291 179 C 454.775 179, 451.310 185.586, 447.590 193.636 M 453.677 195.520 C 450.439 203.405, 449.895 214.753, 452.625 217.482 C 456.686 221.543, 462.061 216.313, 462.784 207.595 C 463.166 202.984, 462.749 201.061, 460.172 195.554 C 458.485 191.949, 456.936 189, 456.730 189 C 456.524 189, 455.150 191.934, 453.677 195.520 M 515.500 220.516 C 505.440 232.980, 504.163 235.010, 503.418 239.733 C 502.871 243.196, 503.061 244.086, 504.458 244.622 C 506.551 245.426, 508.329 243.657, 514.287 234.842 C 519.328 227.384, 523.253 217.890, 522.800 214.251 C 522.539 212.161, 521.579 212.986, 515.500 220.516 M 446.396 256.418 C 435.267 259.902, 421.194 274.973, 419.454 285.272 C 419.071 287.536, 417.913 291.847, 416.879 294.851 C 414.693 301.204, 414.426 305.358, 416.241 304.753 C 418.122 304.126, 420.770 299.062, 423.916 290.072 C 427.281 280.457, 430.460 275.608, 437.790 268.909 C 442.123 264.949, 444.709 263.510, 450.609 261.774 C 457.921 259.623, 459.132 258.532, 456.800 256.200 C 455.290 254.690, 451.674 254.766, 446.396 256.418 M 451.500 270.600 C 440.924 276.564, 434.364 283.036, 432.488 289.353 C 431.441 292.877, 431.332 294.752, 432.090 296.168 C 433.728 299.229, 435.770 297.846, 437.505 292.500 C 438.119 290.609, 438.274 290.650, 440.365 293.250 C 444.267 298.105, 453.057 296.235, 457.040 289.701 C 459.398 285.835, 459.488 283.460, 457.429 279.511 C 455.943 276.661, 455.978 276.444, 458.186 274.813 C 462.791 271.410, 464.117 269.846, 463.801 268.189 C 463.243 265.261, 459.753 265.945, 451.500 270.600 M 469.159 286.335 C 462.721 296.833, 456.570 303.784, 449.971 308.019 C 444.180 311.735, 442.384 314.244, 444.349 315.875 C 446.017 317.259, 450.647 315.983, 456.590 312.500 C 461.541 309.598, 469.447 299.223, 474.117 289.500 C 477.395 282.674, 477.493 282.057, 475.694 279.596 C 474.516 277.986, 473.871 278.651, 469.159 286.335 M 445.687 281.805 C 442.515 285.115, 442.261 287.534, 444.934 288.965 C 448.012 290.612, 450.763 290.177, 452.443 287.777 C 454.501 284.840, 454.407 283.407, 452 281 C 449.399 278.399, 448.888 278.464, 445.687 281.805 M 394 324.179 L 390.500 326.351 394.639 327.580 C 400.403 329.291, 403.395 331.462, 405.580 335.518 C 407.652 339.367, 408.486 339.782, 409.393 337.418 C 410.898 333.497, 409.957 329.021, 406.896 325.535 C 403.180 321.302, 399.294 320.894, 394 324.179 M 384.560 337.131 C 381.042 339.899, 379.661 343.498, 381.092 346.172 C 382.156 348.159, 382.270 348.131, 385.390 345.107 C 388.506 342.086, 391 341.096, 391 342.878 C 391 343.361, 390.294 345.445, 389.432 347.509 C 387.560 351.990, 388.458 353.348, 393.204 353.213 C 398.081 353.075, 401.382 348.888, 400.689 343.721 C 399.933 338.083, 396.671 335, 391.461 335 C 388.698 335, 386.346 335.726, 384.560 337.131 M 10.456 346.288 L 1.500 353.577 1.242 412.738 L 0.984 471.899 10.469 479.449 L 19.953 487 51.381 487 L 82.808 487 92.154 479.694 L 101.500 472.388 101.500 412.974 L 101.500 353.560 92.500 346.312 L 83.500 339.064 51.456 339.032 L 19.412 339 10.456 346.288 M 130.430 340.321 C 130.151 341.048, 130.053 346.110, 130.212 351.571 L 130.500 361.500 137.759 361.794 L 145.018 362.088 144.759 413.794 L 144.500 465.500 138.750 465.800 L 133 466.100 133 477.550 L 133 489 159.500 489 L 186 489 186 477.500 L 186 466 181.582 466 C 173.748 466, 174 466.519, 174 450.393 L 174 436 185.481 436 L 196.962 436 197.664 438.750 C 198.050 440.262, 200.884 452.075, 203.962 465 L 209.557 488.500 228.278 488.772 L 247 489.044 247 477.522 L 247 466 241.250 465.985 C 238.088 465.976, 234.974 465.634, 234.330 465.225 C 233.098 464.442, 225 437.686, 225 434.399 C 225 433.289, 227.496 430.389, 230.944 427.493 L 236.888 422.500 236.944 387.839 L 237 353.177 228.111 346.089 L 219.222 339 175.080 339 C 139.420 339, 130.840 339.254, 130.430 340.321 M 694 350.458 L 694 361.916 701.750 362.208 L 709.500 362.500 709.759 412.708 L 710.018 462.916 702.259 463.208 L 694.500 463.500 694.500 475 L 694.500 486.500 739.261 486.760 L 784.021 487.021 793.511 479.466 L 803 471.911 802.995 422.206 C 802.992 394.868, 802.696 368.071, 802.338 362.657 L 801.686 352.814 793.104 345.907 L 784.522 339 739.261 339 L 694 339 694 350.458 M 830 350.500 L 830 362 836.500 362 L 843 362 843 412.500 L 843 463 836.500 463 L 830 463 830 475.016 L 830 487.032 857.250 486.766 L 884.500 486.500 884.793 477 C 885.227 462.940, 885.258 463, 877.481 463 L 871 463 871 412.546 L 871 362.091 877.509 361.796 C 881.089 361.633, 884.014 361.163, 884.009 360.750 C 884.004 360.337, 884 355.275, 884 349.500 L 884 339 857 339 L 830 339 830 350.500 M 909 350.500 L 909 362 916.500 362 L 924 362 924 412.456 L 924 462.912 916.750 463.206 L 909.500 463.500 909.500 475 L 909.500 486.500 954 486.500 L 998.500 486.500 998.500 469.500 L 998.500 452.500 987.303 452.218 L 976.107 451.935 975.803 457.218 L 975.500 462.500 964 462.500 L 952.500 462.500 952.229 442.250 L 951.959 422 967.479 422 L 983 422 983 410 L 983 398 967.500 398 L 952 398 952 380.500 L 952 363 964 363 L 976 363 976 368 L 976 373 987.500 373 L 999 373 999 356 L 999 339 954 339 L 909 339 909 350.500 M 576.667 356.667 C 574.759 358.575, 576.354 363.615, 581.085 370.626 C 583.882 374.771, 585.928 378.406, 585.631 378.703 C 585.334 379, 582.793 377.413, 579.984 375.176 C 574.189 370.562, 572 370.650, 572 375.497 C 572 379.317, 578.756 389.186, 584.229 393.361 C 587.871 396.139, 595.942 399.392, 596.875 398.458 C 597.185 398.148, 595.878 396.685, 593.970 395.207 C 584.569 387.927, 583.471 384.841, 591.812 389.142 C 595.009 390.791, 599.554 392.399, 601.913 392.715 C 605.728 393.227, 606.163 393.082, 605.841 391.410 C 605.641 390.376, 602.387 387.224, 598.608 384.406 C 591.908 379.409, 589.231 376.436, 590.388 375.279 C 590.702 374.964, 592.662 375.834, 594.743 377.211 C 604.562 383.709, 606.250 381.118, 597.267 373.338 C 593.558 370.127, 589.634 366.375, 588.546 365 C 582.688 357.596, 578.603 354.730, 576.667 356.667 M 30 413 L 30 463 51.500 463 L 73 463 73 413 L 73 363 51.500 363 L 30 363 30 413 M 174.232 387.250 L 174.500 411.500 191.500 411.500 L 208.500 411.500 208.768 387.250 L 209.036 363 191.500 363 L 173.964 363 174.232 387.250 M 738.241 412.727 L 738.500 462.500 756.500 462.500 L 774.500 462.500 774.500 413 L 774.500 363.500 756.241 363.227 L 737.981 362.955 738.241 412.727 M 322.457 368.863 C 316.779 372.325, 313.507 380.342, 315.927 384.863 C 317.704 388.184, 319.899 387.402, 321.899 382.736 C 322.904 380.391, 324.371 377.937, 325.158 377.284 C 325.945 376.630, 329.944 375.962, 334.045 375.798 C 340.681 375.533, 341.500 375.285, 341.500 373.540 C 341.500 368.117, 328.797 364.997, 322.457 368.863 M 303.035 390.842 C 301.132 391.862, 298.715 394.391, 297.613 396.514 C 295.712 400.177, 295.695 400.609, 297.225 406.444 C 298.607 411.712, 298.644 413.243, 297.495 417.671 C 294.500 429.218, 302.550 441.852, 311.304 439.342 C 315.722 438.075, 316.039 435.326, 311.890 434.251 C 307.849 433.204, 305.011 429.510, 304.332 424.413 C 303.892 421.110, 304.293 419.894, 306.905 416.612 C 308.607 414.474, 310 412.284, 310 411.745 C 310 411.205, 308.650 409.226, 307 407.347 C 302.024 401.680, 303.130 398.619, 311.890 393.803 C 313.971 392.659, 314.784 391.600, 314.382 390.553 C 313.552 388.389, 307.312 388.548, 303.035 390.842 M 403.342 403.551 C 403.005 404.429, 403.670 406.084, 404.873 407.365 C 406.355 408.942, 407 410.921, 407 413.888 C 407 417.400, 407.307 418.090, 408.750 417.823 C 409.712 417.645, 411.290 415.886, 412.255 413.913 C 415.134 408.025, 411.988 402, 406.034 402 C 404.881 402, 403.669 402.698, 403.342 403.551 M 541.954 420.270 C 536.834 430.812, 535.791 432.205, 524.935 443 C 514.466 453.411, 513.063 455.241, 510.126 462.324 C 506.695 470.595, 506.417 474.273, 509.181 474.800 C 510.300 475.013, 512.034 473.288, 514.371 469.635 C 516.300 466.618, 523.253 458.577, 529.822 451.766 C 536.390 444.956, 542.667 437.609, 543.772 435.442 C 548.116 426.913, 550.420 413.783, 548.188 410.270 C 547.693 409.491, 545.411 413.151, 541.954 420.270 M 398.531 432.370 C 395.587 436.230, 391.619 438, 385.910 438 C 381.800 438, 381.027 438.714, 379.487 443.931 C 378.729 446.501, 377.732 447.562, 375.519 448.153 C 372.647 448.921, 371.960 448.650, 366.496 444.591 C 364.640 443.212, 362 444.667, 362 447.069 C 362 448.241, 363.530 450.730, 365.400 452.600 C 368.364 455.564, 369.444 456, 373.823 456 C 379.562 456, 383.851 453.187, 385.992 448.020 C 387.140 445.248, 387.640 445, 392.087 445 C 396.093 445, 397.550 444.456, 400.514 441.854 C 403.767 438.998, 404.070 438.289, 403.799 434.182 C 403.634 431.693, 402.979 429.485, 402.341 429.275 C 401.704 429.066, 399.989 430.458, 398.531 432.370 M 326.031 439.467 C 322.731 442.980, 322.199 450.402, 324.935 454.759 C 327.658 459.096, 332.626 461.992, 337.350 461.996 C 342.300 462.001, 348 456.793, 348 452.267 C 348 447.933, 347.093 447.711, 343.233 451.100 C 340.522 453.481, 339.174 454.014, 337.127 453.514 C 332.586 452.407, 330.513 449.478, 330.375 443.972 C 330.167 435.704, 329.863 435.388, 326.031 439.467 M 438.229 438.633 C 434.379 446.072, 432.705 459.370, 434.056 471.782 C 435.550 485.512, 436.634 488.869, 440.978 493.214 C 444.172 496.407, 445.430 497, 449.014 497 C 457.268 497, 460.502 493.485, 475.836 467.852 C 483.829 454.491, 485.201 450.860, 482.817 449.387 C 481.232 448.407, 475.723 454.741, 465.780 468.972 C 453.376 486.726, 450.352 489.315, 446.766 485.250 C 444.448 482.622, 443.915 478.747, 443.076 458.444 C 442.467 443.718, 441.987 439.559, 440.752 438.324 C 439.343 436.914, 439.104 436.944, 438.229 438.633 M 602 466.228 C 602 468.357, 606.948 474.824, 612.407 479.830 C 615.004 482.211, 620.505 485.763, 624.631 487.723 C 631.124 490.806, 633.404 491.352, 641.567 491.779 C 652.239 492.337, 653.814 491.204, 646.250 488.412 C 622.350 479.589, 619.499 478.084, 603.250 465.707 C 602.385 465.048, 602 465.208, 602 466.228 M 570.780 492.553 C 570.429 492.904, 570.386 497.086, 570.684 501.846 C 571.612 516.690, 567.614 527.707, 557.078 539.333 L 551 546.040 550.940 553.270 C 550.908 557.246, 550.529 562.638, 550.099 565.250 C 549.365 569.707, 549.452 570, 551.504 570 C 552.706 570, 554.423 569.190, 555.319 568.200 C 557.633 565.643, 560 558.418, 560 553.912 C 560 550.685, 560.856 549.116, 565.393 544.032 C 571.450 537.243, 574.116 532.199, 576.491 523.033 C 579.828 510.156, 578.079 492.916, 573.364 492.208 C 572.293 492.047, 571.131 492.203, 570.780 492.553 M 417 504.619 C 417 506.060, 418.523 509.772, 420.385 512.869 C 422.246 515.966, 424.502 521.065, 425.398 524.199 C 426.293 527.334, 427.480 530.178, 428.034 530.521 C 428.588 530.864, 429.755 529.437, 430.627 527.351 C 433.899 519.518, 430.175 508.516, 422.710 503.965 C 418.397 501.335, 417 501.495, 417 504.619 M 311.616 509.464 C 309.018 513.429, 305.806 516.097, 300.770 518.474 C 295.426 520.996, 295.554 522, 301.216 522 C 308.282 522, 315 516.602, 315 510.924 C 315 507.123, 313.558 506.500, 311.616 509.464 M 455.422 516.418 C 450.902 518.387, 445.158 523.770, 442.941 528.115 C 440.619 532.668, 440.541 534.003, 442.449 536.559 C 443.842 538.425, 444.025 538.345, 447.160 534.500 C 452.220 528.295, 456.764 524.201, 463.909 519.408 L 470.479 515 464.489 515.039 C 461.195 515.061, 457.115 515.681, 455.422 516.418 M 514.154 567.315 C 513.553 568.038, 512.564 573.101, 511.955 578.565 C 510.047 595.690, 510.050 595.686, 494.117 601.404 C 490.057 602.861, 485.404 605, 483.778 606.158 C 479.091 609.496, 475 615.830, 475 619.750 L 475 623.201 480.621 618.064 C 487.176 612.072, 489.413 610.802, 497.513 608.470 C 510.315 604.784, 515.398 600.982, 517.465 593.546 C 519.136 587.535, 520.473 571.065, 519.531 568.098 C 518.784 565.745, 515.815 565.313, 514.154 567.315 M 734.660 580.413 C 735.861 582.932, 738.232 585.211, 742.088 587.553 C 745.203 589.446, 750.359 593.019, 753.546 595.493 C 756.733 597.968, 759.543 599.790, 759.790 599.543 C 760.862 598.472, 758.720 591.921, 755.914 587.684 C 752.410 582.393, 745.383 578.413, 737.698 577.367 L 732.896 576.714 734.660 580.413 M 326.585 581.863 C 325.730 583.246, 328.058 594.708, 329.596 596.691 C 330.944 598.427, 331.062 598.420, 332.543 596.500 C 335.839 592.230, 335.602 586.602, 331.975 582.975 C 329.902 580.902, 327.487 580.404, 326.585 581.863 M 767 583.533 C 767 583.980, 770.441 587.516, 774.647 591.392 C 783.208 599.280, 785.917 604.064, 786.036 611.500 C 786.079 614.250, 786.450 618.300, 786.860 620.500 L 787.604 624.500 789.453 621.008 C 790.478 619.071, 791.515 614.528, 791.782 610.806 C 792.654 598.616, 788.885 590.023, 780.874 585.936 C 776.691 583.802, 767 582.124, 767 583.533 M 697.983 585.521 C 696.954 586.760, 697.130 588.420, 698.936 594.504 C 701.813 604.194, 702.634 615.188, 700.993 622.031 C 700.292 624.953, 697.513 633.400, 694.819 640.801 C 692.124 648.202, 690.061 654.682, 690.233 655.200 C 690.756 656.768, 698.179 650.222, 702.641 644.256 C 708.616 636.267, 710.458 629.222, 710.420 614.500 C 710.392 604.124, 710.033 601.506, 707.760 595.152 C 704.099 584.915, 701.011 581.872, 697.983 585.521 M 766 598.511 C 766 603.157, 772.503 622, 774.106 622 C 775.258 622, 778 616.530, 778 614.231 C 778 609.793, 774.653 601.622, 771.327 597.940 C 769.369 595.773, 767.370 594, 766.884 594 C 766.398 594, 766 596.030, 766 598.511 M 380.637 608.250 C 377.663 629.548, 376.039 633.291, 365.197 643.862 L 357.645 651.224 360.073 653.095 C 368.153 659.325, 377.898 659.469, 386.582 653.488 C 394.490 648.042, 396.929 643.350, 398.058 631.412 C 398.822 623.336, 398.713 621.198, 397.396 618.422 C 395.978 615.434, 383.943 605, 381.913 605 C 381.461 605, 380.886 606.462, 380.637 608.250 M 799 620.050 C 799 622.277, 799.639 625.334, 800.419 626.844 C 803.033 631.897, 805.197 642.403, 805.912 653.500 C 806.565 663.641, 806.720 664.266, 807.898 661.500 C 811.813 652.311, 812.991 637.699, 810.495 629.294 C 809.088 624.556, 802.258 616, 799.882 616 C 799.397 616, 799 617.822, 799 620.050 M 757.637 619.696 C 757.287 620.047, 757 622.468, 757 625.078 C 757 629.658, 757.235 630.038, 763.750 636.013 C 768.925 640.759, 770.580 641.806, 770.843 640.499 C 771.431 637.578, 768.961 629.646, 766.427 626.320 C 763.577 622.578, 758.546 618.787, 757.637 619.696 M 784 632.790 C 784 635.309, 787.300 645.475, 790.074 651.500 L 793.296 658.500 794.571 654.500 C 797.353 645.774, 795.440 638.730, 789.125 634.439 C 785.386 631.898, 784 631.452, 784 632.790 M 749.814 646.842 C 745.656 652.723, 745.399 655.252, 748.344 661.262 C 751.688 668.086, 757.973 674.093, 771.500 683.390 C 783.110 691.369, 784.842 691.531, 781.148 684.290 C 779.946 681.935, 776.032 677.956, 771.110 674.087 C 759.047 664.603, 754.064 656.924, 754.022 647.750 C 754.010 645.138, 753.663 643.010, 753.250 643.021 C 752.837 643.033, 751.291 644.752, 749.814 646.842 M 432.039 662.700 C 429.980 667.278, 426.435 672.799, 423.289 676.325 C 417.031 683.338, 416.481 685.554, 421.234 684.603 C 428.823 683.085, 437.700 673.659, 438.723 666.032 C 439.218 662.335, 437.522 654.999, 436.172 655.001 C 435.803 655.002, 433.943 658.466, 432.039 662.700 M 809.739 673.531 L 807.223 678.500 810.684 682.500 C 813.845 686.153, 818.117 694.142, 822.450 704.500 C 823.941 708.066, 824.237 708.298, 825.176 706.634 C 825.755 705.608, 826.290 701.783, 826.365 698.134 C 826.482 692.370, 826.019 690.516, 822.831 684 C 820.813 679.875, 817.608 674.714, 815.709 672.531 L 812.255 668.562 809.739 673.531 M 741.034 673.411 C 739.067 678.583, 738.095 688.941, 739.035 694.712 C 739.532 697.770, 740.166 700.499, 740.442 700.775 C 741.032 701.366, 742.249 698.342, 745.692 687.731 L 748.213 679.963 745.161 675.272 L 742.110 670.581 741.034 673.411 M 753.263 685.922 C 754.255 693.316, 763.972 701.069, 774.167 702.601 L 778.500 703.252 774 698.531 C 771.525 695.934, 767.025 692.066, 764 689.934 C 760.975 687.802, 757.191 685.055, 755.592 683.830 L 752.683 681.603 753.263 685.922 M 799.749 682.584 C 798.036 684.297, 799.230 689.490, 802.750 695.632 L 806.500 702.175 806.823 698.381 C 807 696.295, 806.884 693.197, 806.566 691.498 C 805.910 688.002, 800.893 681.441, 799.749 682.584 M 793.637 706.779 C 790.902 711.204, 792.381 725.085, 796.607 734.654 C 800.205 742.802, 807.339 753.259, 811.429 756.378 C 814.432 758.669, 817 759.719, 817 758.657 C 817 756.427, 811.814 744.530, 807.568 737.018 C 804.609 731.783, 800.554 722.796, 798.557 717.046 C 794.626 705.730, 794.477 705.419, 793.637 706.779 M 762 712.200 C 762 714.660, 769.251 727.839, 774.248 734.460 C 779.288 741.140, 782.785 743.977, 787.849 745.494 C 789.955 746.125, 790.124 745.955, 789.489 743.849 C 787.624 737.666, 780.884 724.877, 777.541 721.177 C 772.189 715.253, 762 709.368, 762 712.200 M 749.124 719.073 C 748.506 720.847, 748 724.819, 748.001 727.899 C 748.002 738.948, 756.776 751.516, 766.272 754.073 C 773.050 755.898, 773.536 754.990, 768.767 749.413 C 762.296 741.845, 758.537 735.471, 754.960 726 C 753.194 721.325, 751.411 717.128, 750.999 716.674 C 750.586 716.220, 749.743 717.300, 749.124 719.073 M 827 729.951 C 827 731.268, 833.071 739.201, 842.149 749.749 C 851.064 760.107, 855.713 767.780, 858.055 776 C 859.931 782.583, 860.701 782.809, 861.498 777.012 C 863.248 764.290, 859.405 753.367, 850.173 744.822 C 844.671 739.730, 827 728.389, 827 729.951 M 818.398 736.606 C 819.323 747.041, 828.718 769.851, 835.053 777.041 L 838.101 780.500 837.702 767.713 C 837.257 753.418, 838.271 755.836, 826.500 740.991 C 817.226 729.294, 817.777 729.593, 818.398 736.606 M 430 748.893 C 430 750.147, 433.823 766.904, 434.588 769 C 435.064 770.308, 435.249 770.296, 436.027 768.911 C 436.518 768.037, 437.392 765.211, 437.970 762.632 C 438.812 758.875, 438.724 757.367, 437.526 755.050 C 435.949 752.001, 430 747.134, 430 748.893 M 779.088 761.815 L 776.675 762.549 779.725 765.115 C 781.402 766.526, 786.896 769.810, 791.934 772.412 C 796.972 775.014, 803.369 779.164, 806.151 781.634 C 808.932 784.104, 811.385 785.949, 811.601 785.733 C 811.817 785.517, 811.330 783.106, 810.519 780.376 C 808.745 774.404, 803.431 767.923, 797.416 764.398 C 792.775 761.678, 783.729 760.403, 779.088 761.815 M 843.636 770.250 C 844.785 786.802, 848.087 797.149, 853.896 802.406 L 856 804.310 856 800.243 C 856 792.084, 853.034 780.541, 848.550 771.250 C 846.095 766.163, 843.856 762, 843.574 762 C 843.293 762, 843.320 765.712, 843.636 770.250 M 818.022 771.139 C 817.923 773.985, 835.537 820.596, 837.069 821.543 C 837.576 821.856, 838.520 820.954, 839.165 819.537 C 840.574 816.445, 839.103 807.024, 835.857 798.348 C 833.510 792.074, 818.111 768.582, 818.022 771.139 M 808.134 792.653 C 808.335 793.119, 811.057 798.225, 814.183 804 C 817.789 810.662, 821.033 818.520, 823.060 825.500 C 824.816 831.550, 826.691 836.950, 827.225 837.500 C 827.855 838.148, 828.051 834.808, 827.782 828 C 827.422 818.872, 826.963 816.624, 824.268 810.797 C 821.289 804.355, 813.659 794.958, 809.676 792.827 C 808.627 792.265, 807.933 792.187, 808.134 792.653 M 452.676 813.429 C 443.614 821.840, 437.634 825.002, 429.205 825.842 L 422.500 826.510 422.647 831.878 C 422.832 838.668, 426.234 843.791, 434.132 849.176 C 445.942 857.228, 459.006 855.920, 465.750 846.010 C 467.741 843.085, 468 841.459, 468 831.890 C 468 823.398, 467.555 819.885, 465.928 815.537 C 463.970 810.303, 461.693 806.941, 460.179 807.048 C 459.805 807.074, 456.429 809.945, 452.676 813.429 M 628.327 808.591 C 627.991 809.466, 628.455 811.731, 629.358 813.625 C 631.671 818.476, 631.425 820.988, 628 827.500 C 626.350 830.637, 625 833.560, 625 833.996 C 625 835.099, 631.720 833.477, 633.594 831.922 C 637.367 828.790, 639.333 821.419, 637.990 815.439 C 636.618 809.331, 629.876 804.554, 628.327 808.591 M 742.244 818.683 C 741.835 819.682, 741.500 823.955, 741.500 828.177 C 741.500 834.422, 741.893 836.380, 743.606 838.677 C 747.851 844.368, 748.510 843.140, 748.386 829.775 L 748.272 817.500 745.630 817.183 C 743.817 816.965, 742.755 817.436, 742.244 818.683 M 580.558 889.775 C 580.251 890.082, 579.990 892.846, 579.977 895.917 C 579.959 900.356, 579.245 902.818, 576.490 907.930 C 574.585 911.466, 573.218 914.552, 573.454 914.787 C 573.689 915.022, 575.821 914.154, 578.191 912.858 C 586.863 908.113, 590.354 891.633, 583.090 889.734 C 582.004 889.450, 580.865 889.469, 580.558 889.775 M 736.560 900.811 C 736.224 901.870, 736.411 903.950, 736.975 905.433 C 737.539 906.916, 738 910.322, 738 913 C 738 918.250, 739.374 923, 740.893 923 C 742.883 923, 745.291 914.142, 744.630 909.250 C 743.628 901.831, 738.078 896.027, 736.560 900.811 M 541.173 952.291 C 539.768 953.984, 534 971.233, 534 973.743 C 534 974.814, 534.947 976.547, 536.104 977.595 C 539.058 980.270, 561.337 980.904, 572.351 978.626 C 584.586 976.096, 586.593 974.949, 587.378 970.035 C 588.149 965.214, 587.182 956.230, 585.799 955.376 C 585.284 955.058, 578.706 954.853, 571.181 954.922 C 560.150 955.023, 556.145 954.655, 550.503 953.023 C 542.227 950.630, 542.532 950.654, 541.173 952.291 M 712.696 971.180 C 706.058 972.639, 704.833 974.859, 704.223 986.535 L 703.728 995.988 707.614 997.654 C 712.770 999.864, 732.211 1000.732, 737.619 998.994 C 743.104 997.232, 744.753 995.460, 746.722 989.213 L 748.450 983.731 743.777 979.500 C 741.207 977.173, 737.096 974.325, 734.641 973.172 C 729.263 970.643, 719.265 969.736, 712.696 971.180"/>
</svg>