<svg xmlns="http://www.w3.org/2000/svg" id="a" version="1.1" viewBox="0.0 0.0 100.0 115.29514045028029">
    <g transform="scale(0.2997871511227029)"><path d="M191.79,351.03c-1.35,5.56,1.97,23.84-2.12,27.13-9.6,7.73-37.45,6.93-47.43-1.19-2.1-3.45.69-19.95-1.93-25.3-1.51-3.09-8.93-4-9.94-9.36s-.08-17.43-.07-23.86c.04-15.61,2.79-39.18-.75-53.66-6.95-28.41-29.5-38.55-42.51-61.91C44.71,126.86,108.43,38.81,193.63,63.29c62.04,17.83,83.01,89.63,50.38,143.03-13.32,21.79-32.85,29.7-40.26,57.34-3,11.21-1.81,24.62-1.99,36.61-.21,14.08,1.74,27.95,1.16,42.03-.82,4.3-7.41,7.48-11.13,8.72h0ZM234.06,93.8c-38.67-41.91-101.45-41.29-138.32,2.73-21.96,26.22-23.47,72.26-7.55,101.82,13.2,24.51,36.18,35.49,43.88,63.94,1.83,6.76,2.64,13.66,3.53,20.56l10.63,3.29c.94-22.18,6.22-43.87,17.93-62.81-12.59-17.76-34.92-33.45-41.43-55.02-11.35-37.64,22.82-52.89,42.81-21.82.87.62,8.54-9.14,9.94-10.21,16.92-13.01,37.58-4.55,37.55,17.47-.03,28.61-28.95,48.58-43.87,69.55,10.74,19.26,17.4,40.5,16.78,62.83,13.55-2.22,10.7-3.23,12.78-13.88,7.07-36.18,22.72-38.64,40.55-65,22.72-33.58,22.82-83.07-5.22-113.46h0s0,0,0,0ZM165.54,220.3c15.93-17.37,44.22-41.02,43.79-66.61-.35-20.77-19.28-26.57-33.48-13.31-11.17,10.44-4.75,10.28-2.9,20.82.87,4.92,1,15.29-5.77,15.98-8.26.84-7.7-9.68-7.01-15.03,1.14-8.79,6.8-9.06.8-17.35-12.79-17.68-38.04-14.72-37.34,10.03.78,27.61,27.78,44.97,41.9,65.46h0ZM168.81,173.62c1.87-6.08,1.99-14.94-3.27-19.17-1.68,6.23-3.87,12.86-.99,19.13l4.26.04h0ZM150.77,269.68c-.59,5.56.43,11.94,0,17.6,10.66,1.29,21.11,1.29,31.76,0v-16.46c0-3.94-5.62-23.22-7.4-27.79-1.99-5.13-5.4-9.65-7.37-14.78-1.72-.42-1.81.26-2.75,1.19-5.53,5.51-13.38,32.15-14.25,40.24h0ZM198.41,286.14c-20.3,7.85-43.24,8.22-63.51,0-3.87,16.81-.93,19.74,14.5,23.51,13.93,3.4,29.71,2.98,43-2.84,11.01-4.82,6.47-10.95,6-20.66h0ZM199.55,308.85c-22.84,8.72-42.94,8.72-65.79,0,.89,6.47-1.92,31.37,1.89,35.28.55.56,9.8,5.06,11.2,5.53,4.47,1.51,14.65,3.52,19.24,3.56,7.16.06,33.46-4.99,33.46-14.29v-30.09h0ZM188.2,351.99c-14.32,3.91-28.07,5.02-42.36-.06-2.81,2.65-1.2,4.53,1.86,5.97,6.21,2.93,34.27,3.44,39.38-.79,1.64-1.36,1.11-3.34,1.11-5.12h0ZM189.33,359.94c-14.57,5.33-30.81,5.51-45.36,0-1.01,7.98,1.36,8.06,7.89,9.68,5.17,1.28,16.45,1.62,21.85,1.36,6.74-.32,18.01-1.96,15.62-11.04h0ZM187.06,371.29c-13.24,4.07-28.62,3.49-41.95,0-.91,5.49,2.42,6.08,6.78,7.39,10.94,3.29,24.35,1.98,35.02-1.88l.15-5.51h0Z" data-sg-fill="sg-fill-0" />
  <path d="M167.78,384.58c-10.13,0-20.62-2.32-26.16-6.83l-.13-.11-.09-.15c-1.14-1.87-1.04-6.37-.93-11.58.11-5.25.24-11.19-1.04-13.81-.48-.97-1.96-1.81-3.53-2.7-2.59-1.46-5.81-3.28-6.5-6.92-.76-4.04-.5-11.06-.27-17.25.09-2.52.18-4.91.19-6.79,0-4.47.24-9.57.49-14.95.6-13.25,1.28-28.26-1.21-38.46-4.1-16.76-13.58-26.93-23.63-37.7-6.64-7.12-13.5-14.48-18.78-23.96-10.4-18.67-14.96-39.18-13.2-59.31,1.66-18.92,8.71-36.7,20.4-51.42,11.18-14.07,25.95-24.43,42.71-29.95,18-5.93,38-6.05,57.82-.36,28.03,8.05,49.24,27.33,59.73,54.28,11.3,29.02,8.02,62.75-8.77,90.23-5.2,8.5-11.34,14.93-17.28,21.13-9.46,9.88-18.39,19.22-22.87,35.95-2.23,8.33-2.11,17.99-1.99,27.33.04,2.99.08,6.09.04,9.04-.1,6.45.27,12.98.63,19.29.42,7.43.85,15.12.54,22.77l-.02.15c-.99,5.2-8.9,8.44-11.25,9.29-.35,2.09-.2,5.7-.05,9.5.3,7.52.62,15.3-2.31,17.66-4.71,3.79-13.47,5.64-22.52,5.64h-.02ZM143.03,376.32c9.87,7.81,36.82,8.46,46.02,1.06,2.02-1.62,1.84-9.04,1.61-14.93-.03,1.56-.49,2.95-1.38,4.16-2.33,3.17-7.55,4.98-15.52,5.36-4.98.24-16.64-.02-22.14-1.39l-1.07-.26c-6.14-1.5-8.6-2.43-7.57-10.52l.16-1.26,1.19.45c14.14,5.36,30,5.36,44.66,0l1.03-.38.28,1.06c.16.6.26,1.18.32,1.74v-.05c-.18-4.47-.34-8.33.21-10.57l.13-.54.53-.17c3.53-1.17,9.68-4.15,10.45-7.89.3-7.52-.12-15.13-.54-22.5-.36-6.35-.73-12.91-.63-19.43.04-2.92,0-5.87-.04-8.98-.12-9.48-.25-19.28,2.06-27.87,4.61-17.22,13.72-26.74,23.35-36.81,5.87-6.13,11.93-12.47,17.02-20.79,16.47-26.95,19.69-60.02,8.62-88.46-10.26-26.35-31-45.2-58.42-53.08-19.44-5.58-39.02-5.47-56.64.34-16.39,5.4-30.83,15.53-41.77,29.3-11.45,14.41-18.35,31.82-19.98,50.35-1.73,19.73,2.75,39.84,12.95,58.16,5.16,9.26,11.94,16.53,18.5,23.57,9.78,10.48,19.89,21.32,24.11,38.59,2.56,10.48,1.87,25.65,1.27,39.03-.24,5.37-.47,10.44-.49,14.87,0,1.92-.09,4.32-.19,6.86-.23,6.09-.48,12.99.24,16.8.52,2.73,3.06,4.16,5.52,5.55,1.85,1.04,3.59,2.03,4.34,3.56,1.49,3.05,1.36,8.99,1.24,14.73-.09,4.14-.19,8.83.57,10.36v-.02h0ZM144.82,361.32c-.52,5.43.87,5.77,6.2,7.07l1.08.26c4.94,1.23,15.88,1.6,21.56,1.33,7.23-.35,12.07-1.92,14-4.54.85-1.16,1.16-2.53.92-4.17-14.39,4.99-29.84,5.01-43.76.05h0ZM165.66,381.57c-4.98,0-9.77-.64-14.06-1.93l-.81-.24c-3.94-1.16-7.66-2.26-6.67-8.27l.18-1.08,1.06.28c14.22,3.72,29.32,3.72,41.41,0l1.33-.41-.2,7.59-.64.23c-7.01,2.53-14.5,3.83-21.59,3.83h-.01ZM145.97,372.54c-.19,3.29,1.78,3.88,5.39,4.94l.82.24c9.66,2.91,22.53,2.27,33.75-1.64l.09-3.46c-11.88,3.34-26.33,3.3-40.06-.09h0ZM167.32,361.2c-7.54,0-16.53-.73-20.05-2.39-2.36-1.11-3.62-2.36-3.85-3.81-.2-1.25.38-2.52,1.73-3.79l.44-.42.58.21c12.59,4.48,25.46,4.49,41.76.04l1.27-.35v1.31c0,.33.02.66.03,1,.08,1.55.19,3.47-1.51,4.88-3.54,2.93-15.1,3.3-19.91,3.32h-.49,0ZM146.12,353.09c-.43.49-.8,1.07-.71,1.6.08.51.62,1.32,2.73,2.32,6.3,2.97,33.78,3.1,38.32-.66.85-.7.88-1.63.8-3.06-15.89,4.17-28.65,4.1-41.13-.2h0ZM166.23,354.22h-.15c-4.68-.04-14.98-2.07-19.55-3.61-1.17-.39-10.83-4.99-11.6-5.78-2.6-2.66-2.53-11.79-2.15-24.38.14-4.79.28-9.32,0-11.46l-.23-1.67,1.58.6c22.5,8.58,42.57,8.58,65.08,0l1.36-.52v31.54c0,1.82-.84,3.58-2.49,5.22-6.67,6.61-25.41,10.07-31.83,10.07h0s0-.01,0-.01ZM134.89,310.34c.12,2.47,0,6.1-.11,10.17-.25,8.23-.62,20.67,1.58,22.93.69.53,9.41,4.81,10.81,5.28,4.34,1.46,14.5,3.46,18.93,3.5h.15c6.48,0,24.38-3.52,30.4-9.49,1.26-1.25,1.9-2.53,1.9-3.8v-28.64c-21.95,8.08-41.71,8.1-63.66.05h0ZM167.11,312.78c-5.94,0-12-.72-17.94-2.17-15.83-3.87-19.27-7.18-15.24-24.71l.26-1.14,1.09.44c19.46,7.9,42.34,7.9,62.77,0l1.29-.5.07,1.38c.1,2.2.42,4.19.73,6.12.98,6.17,1.83,11.5-7.33,15.51-7.66,3.35-16.54,5.06-25.7,5.06h0s0,.01,0,.01ZM135.62,287.49c-3.38,15.37-.37,17.67,14.02,21.18,14.68,3.58,30.12,2.57,42.36-2.78,7.74-3.39,7.15-7.14,6.16-13.37-.24-1.51-.51-3.18-.66-4.97-20.2,7.46-42.6,7.44-61.88-.06h0ZM166.65,289.25c-5.31,0-10.62-.33-16-.98l-.95-.12.07-.95c.2-2.62.08-5.48-.04-8.25-.14-3.14-.27-6.38.05-9.38h0c.86-8.03,8.69-35.01,14.53-40.84.16-.16.3-.32.42-.46.76-.87,1.44-1.45,3.27-1l.51.12.19.49c.97,2.51,2.32,4.94,3.64,7.29,1.33,2.39,2.71,4.86,3.73,7.48,1.82,4.68,7.47,23.97,7.47,28.15v17.35l-.88.11c-5.38.65-10.69.98-16,.98h0s0,.01,0,.01ZM151.83,286.39c9.98,1.14,19.72,1.14,29.71,0v-15.57c0-3.61-5.42-22.51-7.33-27.43-.97-2.49-2.31-4.9-3.61-7.23-1.26-2.26-2.56-4.59-3.56-7.04-.34-.04-.44.07-.8.48-.15.17-.31.36-.51.56-5.19,5.18-13.04,31.06-13.96,39.64-.3,2.85-.17,6.02-.04,9.08.11,2.5.22,5.07.1,7.53v-.02ZM147.17,287.48l-12.49-3.87-.24-1.9c-.81-6.34-1.64-12.89-3.34-19.17-4.44-16.41-13.92-26.8-23.97-37.79-7.03-7.7-14.3-15.65-19.83-25.93-16.95-31.47-13.5-77.65,7.67-102.93,17.8-21.25,42.15-33.3,68.58-33.94,26.81-.65,52.1,10.43,71.24,31.17,13.45,14.58,21.23,34.53,21.91,56.18.66,20.94-5.24,41.72-16.6,58.52-6,8.88-11.85,15.16-17.01,20.7-10.47,11.25-18.74,20.13-23.39,43.93-.38,1.92-.59,3.5-.77,4.9-.91,6.86-1.77,7.96-12.83,9.77l-1.19.2.03-1.21c.57-20.52-5.04-41.49-16.66-62.32l-.31-.55.37-.52c4.34-6.1,9.74-11.98,15.45-18.22,13.87-15.13,28.22-30.78,28.24-50.75,0-9.61-4.06-17.14-11.17-20.65-7.48-3.69-16.74-2.2-24.77,3.97-.43.33-1.86,1.98-3.25,3.57-5.73,6.59-6.76,7.46-7.88,6.66l-.16-.11-.1-.16c-7.22-11.21-19.8-20.07-31.63-14.61-8.15,3.76-15.49,15.34-9.38,35.6,4.14,13.72,14.91,25.15,25.32,36.21,5.9,6.26,11.47,12.18,15.96,18.51l.38.54-.35.56c-10.79,17.44-16.77,38.41-17.78,62.32l-.05,1.3v.02h0ZM170.34,223.37c11.36,20.56,16.95,41.27,16.63,61.58,9.15-1.55,9.25-2.32,9.98-7.86.18-1.35.4-3.03.79-5.02,4.76-24.37,13.63-33.89,23.89-44.91,5.11-5.49,10.9-11.71,16.81-20.45,11.12-16.45,16.9-36.81,16.25-57.33-.66-21.17-8.26-40.66-21.38-54.89-18.74-20.31-43.5-31.15-69.72-30.53-25.84.62-49.67,12.42-67.1,33.22-20.69,24.71-24.03,69.88-7.44,100.7,5.42,10.06,12.6,17.93,19.55,25.53,10.21,11.18,19.85,21.74,24.42,38.62,1.73,6.41,2.58,13.03,3.39,19.44l.08.62,8.78,2.72c1.17-23.46,7.12-44.12,17.67-61.43-4.35-6.02-9.72-11.73-15.41-17.76-10.57-11.23-21.51-22.84-25.78-37-6.48-21.49,1.58-33.9,10.46-38,12.66-5.84,25.91,3.03,33.67,14.62,1.21-1.03,3.79-4,5.43-5.89,1.88-2.17,2.98-3.42,3.54-3.85,8.65-6.65,18.7-8.21,26.87-4.18,7.82,3.86,12.3,12.04,12.29,22.44-.02,20.75-14.63,36.69-28.77,52.1-5.51,6.01-10.72,11.7-14.93,17.51h.03ZM165.43,221.9l-.71-1.03c-4.29-6.22-9.68-12.05-15.39-18.23-12.85-13.89-26.13-28.25-26.68-47.77-.3-10.66,4.29-18.64,12.29-21.36,4.28-1.45,9.25-1.26,13.99.55,4.98,1.9,9.43,5.42,12.87,10.16,4.21,5.81,3.01,8.3,1.5,11.46-.81,1.7-1.74,3.63-2.12,6.6-.81,6.28-.22,10.66,1.73,12.66,1,1.03,2.37,1.44,4.19,1.25,1.38-.14,2.47-.75,3.32-1.88,2.46-3.26,2.15-9.67,1.57-12.94-.52-2.97-1.4-5.01-2.18-6.82-2.1-4.88-2.69-7.36,5.38-14.9,7.3-6.82,16.41-9.12,23.76-6,7.08,3,11.23,10.3,11.4,20.02.37,21.68-19.32,41.82-35.14,58-3.21,3.28-6.23,6.38-8.91,9.3l-.85.92h-.02s0,0,0,0ZM140.93,134.53c-1.83,0-3.64.28-5.35.87-7.23,2.46-11.21,9.53-10.93,19.41.53,18.77,13.56,32.85,26.15,46.47,5.45,5.89,10.62,11.48,14.86,17.43,2.48-2.67,5.23-5.48,8.11-8.43,15.56-15.92,34.92-35.72,34.57-56.57-.15-8.89-3.86-15.53-10.18-18.21-6.62-2.81-14.9-.65-21.62,5.62-7.39,6.9-6.66,8.58-4.91,12.65.78,1.81,1.75,4.06,2.31,7.26.17.99,1.6,9.81-1.94,14.49-1.18,1.57-2.77,2.46-4.71,2.66-2.43.25-4.39-.37-5.82-1.85-2.42-2.49-3.19-7.3-2.28-14.31.43-3.29,1.47-5.47,2.3-7.21,1.41-2.95,2.19-4.58-1.32-9.42-4.96-6.85-12.32-10.86-19.24-10.86h0ZM169.54,174.63l-5.64-.05-.26-.58c-2.81-6.13-1.1-12.37.55-18.4l.78-2.89,1.19.96c5.44,4.37,5.73,13.32,3.6,20.24l-.22.71h0s0,0,0,0ZM165.2,172.59l2.85.02c1.49-5.44,1.39-12.34-2-16.27-1.49,5.42-2.97,11.01-.85,16.25Z" data-sg-fill="sg-fill-0" />
  <path d="M13.04,123.4c.84-.04,1.69.11,2.54.45s1.68.63,2.52.89c.79.22,1.57.42,2.36.61s1.55.43,2.29.73c.79.31,1.61.54,2.46.68.85.14,1.69.27,2.53.38.81.1,1.63.26,2.46.48.83.21,1.65.45,2.45.7.79.22,1.57.43,2.35.65s1.57.44,2.35.65c.09.02.18,0,.29-.09.11-.08.17-.16.19-.24.15-.89.35-1.75.6-2.59.24-.84.46-1.7.64-2.58.14-.83.29-1.66.46-2.47.16-.81.4-1.6.7-2.36.1-.3.3-.57.59-.8s.61-.35.94-.36c1.15-.05,2.19.27,3.13.97.17.16.32.36.46.6s.21.48.21.72c-.04.92-.2,1.8-.48,2.66s-.58,1.71-.9,2.56c-.29.86-.51,1.72-.64,2.6-.14.88-.28,1.76-.43,2.65s-.31,1.8-.47,2.73-.46,1.81-.9,2.63c-.15.26-.37.49-.66.69s-.58.3-.87.29c-.83-.02-1.64-.17-2.42-.47-.78-.29-1.58-.5-2.38-.64-.8-.16-1.59-.36-2.37-.59s-1.55-.5-2.32-.8c-.76-.3-1.54-.54-2.32-.71-.78-.17-1.57-.32-2.38-.46-1.63-.3-3.23-.68-4.79-1.14-.78-.25-1.56-.48-2.34-.71s-1.57-.41-2.38-.55c-.83-.14-1.65-.3-2.46-.5-.81-.19-1.59-.45-2.34-.78-.35-.14-.68-.36-.98-.66s-.47-.63-.5-.99c0-.6.05-1.21.17-1.82s.33-1.18.63-1.71c.21-.37.49-.67.85-.92.36-.24.75-.37,1.17-.39h-.01s0,.01,0,.01Z" data-sg-fill="sg-fill-0" />
  <path d="M17.67,102.81c-.05-.74.08-1.47.41-2.18s.71-1.36,1.15-1.94c.16-.25.4-.41.73-.49.33-.07.63-.07.91,0,.81.16,1.61.4,2.38.72.78.32,1.57.62,2.36.9.77.27,1.49.6,2.18,1.01.68.41,1.41.71,2.17.92.84.23,1.67.52,2.48.85s1.6.66,2.37.99c.75.32,1.48.65,2.19.97.72.33,1.42.67,2.12,1.04.71.4,1.49.7,2.31.9.83.2,1.62.48,2.39.84.75.39,1.55.69,2.4.91.85.22,1.62.59,2.32,1.12.25.16.42.4.52.72.09.32.13.63.11.93-.04.73-.19,1.45-.46,2.16-.28.7-.62,1.36-1.05,1.98-.15.22-.38.38-.7.48-.32.09-.62.1-.9.02-.79-.28-1.57-.59-2.33-.93s-1.53-.66-2.31-.97c-1.46-.57-2.91-1.18-4.34-1.83-.79-.37-1.59-.73-2.39-1.07s-1.62-.61-2.44-.81c-.8-.19-1.57-.45-2.31-.78s-1.49-.66-2.23-.99c-.75-.32-1.49-.64-2.24-.97-.75-.32-1.49-.66-2.22-1.01-.71-.34-1.45-.6-2.22-.79s-1.49-.46-2.16-.82c-.33-.19-.61-.46-.83-.81s-.34-.7-.36-1.05v-.02s-.01,0-.01,0Z" data-sg-fill="sg-fill-0" />
  <path d="M39.67,67.96c.36.35.73.72,1.09,1.11s.63.82.82,1.3c.12.21.14.45.09.74-.06.29-.17.52-.34.69-.36.32-.75.61-1.17.85s-.81.52-1.17.85c-.44.38-.88.74-1.33,1.06s-.86.71-1.23,1.16c-.39.48-.71.99-.98,1.55s-.53,1.11-.79,1.66c-.25.53-.47,1.07-.66,1.64s-.3,1.14-.35,1.72,0,1.18.17,1.78.39,1.17.69,1.69c.32.53.68,1.05,1.08,1.54s.82.96,1.27,1.4c.54.56,1.15,1.08,1.81,1.55.67.47,1.35.89,2.03,1.27.68.34,1.36.7,2.05,1.08.69.38,1.42.63,2.19.76.64.12,1.28.25,1.92.39.64.15,1.28.2,1.92.14.56-.03,1.12-.13,1.67-.29s1.06-.37,1.53-.63c.44-.28.87-.58,1.28-.91.42-.33.76-.69,1.04-1.1.31-.46.55-.95.71-1.48.17-.53.34-1.06.53-1.59.09-.32.22-.62.37-.92.16-.29.24-.61.24-.95,0-.13,0-.27-.05-.42s-.11-.26-.2-.35c-.54-.46-1.11-.87-1.73-1.22s-1.23-.7-1.85-1.03-1.27-.63-1.96-.88c-.7-.25-1.28-.63-1.75-1.15-.24-.28-.38-.62-.43-1.02s-.04-.79,0-1.16c.06-.54.24-1.06.55-1.55s.67-.9,1.07-1.24c.28-.24.63-.39,1.04-.47s.81-.05,1.18.07c.94.29,1.79.77,2.56,1.41.76.65,1.58,1.21,2.44,1.7.83.43,1.65.9,2.46,1.4.81.51,1.61,1.01,2.39,1.52.25.15.42.37.51.67s.12.58.09.87c-.04.35-.12.7-.25,1.05s-.25.69-.38,1.02c-.17.4-.33.81-.46,1.22s-.26.82-.4,1.21c-.12.43-.27.87-.42,1.3-.16.43-.32.85-.5,1.25-.25.63-.49,1.27-.75,1.92-.25.64-.59,1.23-1.01,1.76-.52.64-1.06,1.26-1.61,1.88-.56.61-1.12,1.23-1.69,1.83-.47.5-1.01.92-1.63,1.28-.62.36-1.24.68-1.87.99-.63.26-1.28.42-1.95.45-.67.04-1.34.09-2.02.15-.67.04-1.33,0-2-.11-.66-.11-1.32-.21-1.98-.3-.86-.14-1.7-.38-2.51-.69-.81-.32-1.59-.7-2.33-1.15-.72-.43-1.44-.84-2.16-1.22s-1.42-.79-2.1-1.24c-.57-.41-1.11-.85-1.62-1.33s-1-.97-1.47-1.49c-.48-.56-.9-1.16-1.26-1.8s-.68-1.3-.95-1.97c-.26-.63-.48-1.28-.64-1.94s-.27-1.31-.33-1.95c-.07-.62-.09-1.23-.06-1.84s.06-1.23.1-1.85c.05-1.09.28-2.15.7-3.19.23-.61.48-1.21.74-1.82s.6-1.16,1-1.66c.46-.6.91-1.23,1.33-1.87s.91-1.23,1.46-1.74c.44-.45.89-.89,1.35-1.32s.95-.85,1.46-1.25c.26-.21.5-.44.72-.69.21-.24.48-.4.8-.48.71-.22,1.32-.08,1.85.4,0,0,.03-.02.03-.02Z" data-sg-fill="sg-fill-0" />
  <path d="M49.96,51.89c.8.47,1.46,1.11,1.98,1.91s1.12,1.49,1.82,2.06c.74.61,1.39,1.32,1.95,2.12s1.23,1.47,2.01,2c.16.08.34.1.52.06.18-.04.36-.1.52-.19.78-.54,1.48-1.16,2.11-1.87.62-.71,1.28-1.41,1.95-2.08s1.39-1.34,2.15-1.98,1.39-1.36,1.91-2.16c.1-.18.15-.39.15-.62s-.06-.42-.19-.58c-.52-.72-1.11-1.36-1.79-1.94-.68-.57-1.33-1.19-1.95-1.84s-1.23-1.31-1.84-1.95-1.19-1.33-1.75-2.04c-.14-.23-.23-.49-.25-.8s.04-.57.18-.8c.37-.66.83-1.25,1.38-1.79.55-.53,1.13-1.02,1.72-1.45.23-.18.51-.22.85-.11s.62.26.85.45c.66.45,1.24.99,1.74,1.61s1.02,1.25,1.56,1.86c.55.59,1.12,1.19,1.7,1.78.58.59,1.16,1.17,1.76,1.72.66.57,1.29,1.18,1.88,1.81.6.64,1.21,1.25,1.85,1.84.58.53,1.13,1.09,1.65,1.68.52.58,1.07,1.15,1.62,1.71.62.61,1.2,1.25,1.76,1.91.55.66,1.15,1.28,1.79,1.88.6.51,1.19,1.04,1.78,1.58s1.09,1.14,1.5,1.8c.17.25.3.55.4.92s.06.69-.12.96c-.41.58-.87,1.12-1.37,1.62s-1.02.98-1.55,1.44c-.29.21-.64.32-1.05.34s-.76-.07-1.05-.28c-.58-.41-1.08-.9-1.51-1.47s-.85-1.15-1.27-1.72c-.39-.55-.83-1.07-1.33-1.54-.49-.47-1-.92-1.51-1.35-.54-.45-1.01-.97-1.42-1.57-.41-.59-.92-1.09-1.51-1.48-.12-.08-.28-.16-.48-.23-.2-.07-.35-.07-.48.02-.84.56-1.61,1.23-2.31,2.01s-1.38,1.55-2.06,2.32c-.66.74-1.36,1.44-2.11,2.08-.75.65-1.44,1.35-2.08,2.12-.06.1-.08.23-.04.39.03.15.1.28.2.38.45.49.93.98,1.44,1.46.5.48.99.96,1.47,1.43,1.03,1.02,2.03,2.08,3,3.17.49.53,1,1.04,1.53,1.52.52.48.98,1.02,1.38,1.61.19.23.26.51.23.85s-.13.63-.29.88c-.41.54-.83,1.07-1.26,1.61s-.92,1-1.48,1.39c-.29.21-.63.26-1.02.16s-.73-.25-1.02-.46c-.68-.51-1.3-1.09-1.85-1.75-.56-.66-1.14-1.27-1.76-1.84-.58-.53-1.16-1.06-1.74-1.58-.59-.52-1.13-1.07-1.62-1.64-.56-.68-1.13-1.33-1.73-1.97-.6-.63-1.16-1.3-1.7-2-.49-.62-1.06-1.16-1.71-1.64-.65-.48-1.22-1.03-1.71-1.64-.54-.66-1.09-1.28-1.67-1.88-.58-.59-1.12-1.21-1.64-1.84-.54-.66-1.12-1.25-1.75-1.77s-1.2-1.1-1.71-1.74c-.19-.23-.27-.5-.25-.83s.1-.63.24-.89c.35-.64.8-1.2,1.37-1.68.56-.48,1.16-.9,1.8-1.25.18-.1.39-.19.62-.25s.42-.03.59.09l.02-.06h0Z" data-sg-fill="sg-fill-0" />
  <path d="M72.14,30.69c.48-.55,1.06-.98,1.75-1.32.68-.33,1.31-.73,1.88-1.19.59-.48,1.25-.87,1.98-1.18s1.41-.7,2.04-1.17c.61-.45,1.23-.86,1.87-1.21.64-.35,1.25-.74,1.85-1.15.62-.43,1.23-.86,1.82-1.28.59-.43,1.21-.8,1.88-1.11.68-.33,1.34-.73,1.97-1.2s1.29-.87,1.97-1.2c.24-.11.5-.14.79-.09s.54.16.74.31c.36.29.67.64.95,1.05s.45.83.52,1.27c.06.31.03.63-.09.96s-.29.62-.51.87c-.74.85-1.62,1.53-2.65,2.04-1.03.52-2,1.12-2.91,1.79-.16.13-.3.29-.43.46-.13.17-.18.34-.13.52.3.81.71,1.56,1.23,2.26.52.71,1.02,1.4,1.52,2.08.48.66.92,1.36,1.29,2.12s.79,1.49,1.24,2.2c.41.7.86,1.39,1.34,2.07s.9,1.38,1.26,2.11c.38.76.84,1.48,1.4,2.16.55.68.99,1.42,1.32,2.21.32.72.75,1.41,1.28,2.05s.91,1.34,1.14,2.09c.25.77.16,1.48-.25,2.12-.35.53-.83.92-1.45,1.18-.62.25-1.22.5-1.82.74-.28.11-.58.13-.92.06-.33-.06-.63-.19-.88-.37-.68-.53-1.22-1.2-1.6-2s-.81-1.56-1.26-2.27-.87-1.45-1.25-2.22-.82-1.5-1.29-2.2c-.44-.69-.87-1.38-1.29-2.07s-.82-1.41-1.18-2.14c-.4-.74-.84-1.43-1.32-2.08-.48-.64-.92-1.32-1.33-2.02-.4-.74-.83-1.47-1.28-2.18s-.89-1.43-1.32-2.16c-.12-.2-.3-.34-.53-.43s-.45-.09-.67,0c-.59.2-1.14.49-1.65.86-.5.37-1.02.74-1.54,1.11-.48.34-.96.68-1.45,1.05-.49.36-1.01.65-1.57.87-.2.06-.4.06-.6,0s-.37-.16-.51-.27c-.77-.68-1.39-1.54-1.85-2.59-.09-.25-.08-.52.04-.8.11-.28.27-.51.46-.7,0,0,0-.01,0,0Z" data-sg-fill="sg-fill-0" />
  <path d="M114.29,19.66c-.05-1.22.09-2.41.41-3.58.33-1.26.79-2.4,1.4-3.43.36-.58.71-1.12,1.05-1.65.34-.52.73-1.04,1.17-1.55.46-.54.96-1.02,1.51-1.43.55-.42,1.11-.8,1.68-1.16.59-.37,1.22-.67,1.88-.92s1.32-.47,1.98-.68c.6-.22,1.21-.4,1.82-.54s1.23-.27,1.86-.38c.65-.14,1.32-.17,1.99-.07.67.09,1.35.19,2.03.28.65.07,1.29.22,1.92.44.63.23,1.25.47,1.86.73.6.23,1.14.59,1.61,1.06.47.48.96.92,1.45,1.33.43.37.8.79,1.12,1.26s.6.96.86,1.46c.29.55.6,1.09.92,1.61s.59,1.06.83,1.63c.28.62.52,1.26.71,1.93s.34,1.34.46,2c.19.82.34,1.65.45,2.49.12.84.21,1.69.28,2.54.06.8-.03,1.59-.28,2.37-.24.79-.49,1.56-.74,2.31-.27.79-.61,1.55-1,2.27-.4.72-.82,1.44-1.26,2.16-.36.58-.84,1.08-1.43,1.5-.59.43-1.16.86-1.71,1.3-.45.36-.93.65-1.44.87s-1.03.47-1.57.73c-.59.28-1.22.5-1.89.68s-1.33.35-1.98.52c-.62.16-1.25.24-1.9.23-.65,0-1.28-.04-1.89-.09-.55-.04-1.1-.08-1.66-.13-.55-.05-1.11-.15-1.66-.31-.53-.19-1.05-.42-1.56-.7-.51-.27-1.01-.55-1.51-.84-.58-.36-1.1-.76-1.58-1.21s-.92-.93-1.33-1.45c-.44-.54-.86-1.1-1.25-1.68s-.79-1.14-1.21-1.69c-.46-.63-.81-1.31-1.03-2.05s-.46-1.46-.71-2.18c-.29-.98-.46-1.96-.53-2.97-.07-1-.12-2.01-.14-3.03v.02s0,0,0,0ZM125.39,30.17c.51.68,1.13,1.22,1.87,1.63.38.2.77.39,1.16.57s.79.31,1.2.38c.35.06.69.07,1.04.02s.7-.08,1.05-.12c.4-.08.78-.18,1.15-.33.37-.14.73-.27,1.09-.4.38-.16.75-.33,1.1-.51.36-.18.69-.42,1.01-.72.33-.33.66-.68.99-1.05.32-.37.59-.76.82-1.18.24-.45.42-.93.52-1.44.11-.51.16-1,.15-1.48.02-.39.03-.78.03-1.16s-.02-.75-.09-1.12c-.12-.57-.23-1.13-.33-1.67s-.25-1.08-.44-1.6c-.21-.67-.36-1.36-.45-2.07-.1-.71-.22-1.41-.37-2.09-.12-.57-.36-1.1-.73-1.59s-.73-.96-1.09-1.4c-.26-.32-.5-.67-.7-1.05-.21-.38-.46-.71-.78-.99-.65-.52-1.37-.88-2.18-1.09-.36-.09-.71-.13-1.08-.15-.36,0-.74,0-1.11.04-.38.04-.76.1-1.12.18-.37.08-.74.16-1.11.22-.34.06-.67.18-.98.37s-.63.35-.95.5c-.62.25-1.12.61-1.48,1.06-.27.34-.56.67-.86.99-.31.32-.55.67-.72,1.04-.18.44-.3.92-.34,1.44s-.12,1.02-.23,1.5c-.19.89-.21,1.77-.07,2.63.1.6.2,1.21.32,1.81.11.6.22,1.2.32,1.81.14.75.31,1.5.53,2.25.21.75.49,1.48.82,2.17.25.5.58.95.98,1.34s.76.8,1.09,1.22l-.03.04h0Z" data-sg-fill="sg-fill-0" />
  <path d="M152.72.81c.84-.15,1.69-.19,2.57-.13.87.07,1.75.07,2.62,0,.84-.06,1.69-.12,2.54-.17s1.7-.14,2.54-.26c.9-.12,1.8-.21,2.72-.24.92-.04,1.81.05,2.69.28.23.05.46.14.67.28.21.14.36.32.46.55.19.4.31.84.36,1.31.05.48,0,.92-.16,1.34-.21.68-.64,1.15-1.29,1.41-.72.29-1.48.41-2.3.36-.82-.05-1.6-.09-2.36-.12-.81-.02-1.63-.01-2.46.04s-1.66.13-2.5.26c-.15.03-.28.13-.4.28s-.2.3-.22.45c-.16,1.17-.17,2.35-.05,3.53.12,1.19.25,2.37.39,3.56,0,.12.03.25.08.41s.13.25.25.27c.67.09,1.35.12,2.03.09s1.36-.07,2.02-.13c.7-.06,1.39-.19,2.1-.39.7-.2,1.38-.22,2.03-.04.32.07.62.24.89.49s.46.53.56.85c.27.98.3,1.94.08,2.88-.08.26-.22.52-.43.76-.21.24-.46.4-.74.47-.69.15-1.39.25-2.1.31s-1.4.06-2.07,0c-.7-.06-1.4-.09-2.1-.11-.7-.01-1.39.02-2.09.11-.12,0-.2.08-.25.23s-.07.29-.07.44c-.05.93-.07,1.88-.06,2.84s0,1.91-.06,2.84c-.05.9.02,1.8.22,2.69s.24,1.79.13,2.7c-.02.32-.15.65-.4.98-.25.33-.53.54-.84.65-.66.23-1.36.35-2.1.37s-1.45-.08-2.13-.28c-.29-.1-.6-.26-.91-.46-.31-.21-.49-.45-.53-.74-.12-.84-.13-1.68-.02-2.53s.13-1.68.07-2.49-.1-1.62-.1-2.42-.07-1.6-.19-2.41c-.12-.78-.19-1.58-.21-2.39s0-1.61.05-2.4c.08-.85.1-1.69.07-2.53s-.06-1.67-.06-2.48-.05-1.62-.14-2.42c-.09-.79-.1-1.6,0-2.42.08-.82.09-1.64.03-2.46-.06-.83-.07-1.65-.02-2.46.04-.32.18-.64.4-.95s.49-.49.81-.54v-.06s0,0,0,0Z" data-sg-fill="sg-fill-0" />
  <path d="M194.8,1.98c.6.02,1.17.2,1.72.55s1.12.59,1.72.73c.66.12,1.32.23,1.97.3.66.08,1.27.3,1.83.67.36.22.7.52,1.02.89.32.38.49.78.52,1.21.07.83.03,1.66-.13,2.48-.15.82-.22,1.63-.21,2.45.02.91,0,1.82-.06,2.72s-.09,1.82-.11,2.75c0,.85-.07,1.69-.21,2.54s-.19,1.7-.13,2.56c.07.83.04,1.67-.09,2.51s-.11,1.67.05,2.5c.03.1.12.18.25.25s.22.06.27-.01c.6-.65,1.14-1.36,1.61-2.13.47-.77.92-1.55,1.35-2.34.45-.75.91-1.49,1.39-2.24.48-.74.99-1.46,1.55-2.15.59-.71,1.13-1.44,1.61-2.2.48-.75.94-1.54,1.38-2.35s.86-1.64,1.26-2.48c.4-.84.93-1.59,1.6-2.25.25-.26.58-.42,1-.49.41-.07.8-.08,1.18-.03.59.04,1.17.18,1.74.4.57.22,1.14.41,1.7.57.64.18,1.3.31,1.97.39s1.29.29,1.86.63c.33.21.57.52.72.9.15.39.21.78.2,1.16,0,.78-.13,1.55-.38,2.32-.24.76-.48,1.5-.71,2.22-.25.8-.52,1.6-.81,2.4-.28.8-.48,1.62-.6,2.46-.13.81-.33,1.6-.6,2.39-.26.79-.5,1.59-.7,2.41-.15.74-.31,1.5-.5,2.26-.18.76-.35,1.53-.51,2.3-.16.8-.36,1.6-.6,2.41s-.43,1.63-.58,2.46c-.16.8-.33,1.6-.51,2.41s-.45,1.6-.82,2.37c-.1.24-.28.46-.54.64s-.53.28-.8.29c-.76.03-1.53-.02-2.31-.15s-1.5-.39-2.18-.79c-.26-.16-.46-.41-.6-.76-.15-.34-.21-.67-.17-1,.08-.73.23-1.45.42-2.17s.37-1.43.51-2.14c.12-.75.31-1.48.59-2.19.27-.71.48-1.43.63-2.18s.29-1.48.44-2.21c.14-.73.33-1.44.55-2.13.27-.74.45-1.5.55-2.29s.27-1.55.51-2.3c.22-.69.4-1.4.53-2.14.13-.73.25-1.46.36-2.18.02-.06-.02-.1-.1-.12s-.15-.01-.19.04c-.53.61-.95,1.27-1.26,2s-.72,1.41-1.23,2.05c-.48.62-.93,1.25-1.36,1.88s-.86,1.28-1.29,1.95c-.4.67-.81,1.36-1.23,2.05-.42.7-.85,1.38-1.27,2.04-.42.64-.82,1.3-1.19,2s-.81,1.35-1.32,1.96c-.48.62-.91,1.27-1.29,1.95s-.85,1.29-1.39,1.83c-.21.21-.44.45-.68.72s-.52.38-.84.35c-.72-.02-1.42-.15-2.11-.39-.69-.24-1.35-.52-1.98-.85-.31-.18-.58-.43-.81-.75s-.37-.65-.42-1c-.06-.77-.06-1.53-.02-2.29s.11-1.51.2-2.27.1-1.53.03-2.3-.12-1.54-.15-2.3c-.02-.79,0-1.59.1-2.39s.17-1.6.24-2.4c.06-.77.06-1.54,0-2.31s-.09-1.53-.06-2.28c.04-.77.11-1.54.23-2.29s.12-1.5,0-2.26c0-.09-.08-.16-.21-.22-.14-.05-.23-.04-.28.04-.39.64-.73,1.33-1,2.05-.28.72-.5,1.45-.68,2.19-.17.71-.35,1.39-.55,2.06s-.45,1.32-.75,1.96c-.31.67-.62,1.36-.94,2.07s-.58,1.43-.78,2.16c-.17.71-.41,1.41-.72,2.1-.32.7-.57,1.41-.78,2.14-.19.7-.41,1.42-.64,2.15s-.56,1.42-.98,2.06c-.17.29-.43.51-.77.67-.35.16-.69.27-1.04.32-.59.08-1.2.06-1.82-.05s-1.17-.34-1.64-.68c-.24-.22-.42-.49-.54-.83-.12-.33-.16-.66-.13-.99.14-.83.43-1.64.86-2.43.43-.78.73-1.6.91-2.46.17-.74.41-1.47.71-2.2.29-.73.6-1.45.92-2.14.37-.77.67-1.58.93-2.43.25-.85.51-1.69.77-2.52.27-.74.53-1.48.8-2.22s.52-1.48.76-2.23c.25-.8.49-1.6.72-2.4.22-.8.5-1.57.83-2.33.37-.77.68-1.56.95-2.36.27-.8.61-1.56,1.02-2.29.17-.28.43-.53.77-.73.34-.21.68-.31,1.01-.31v.03s-.01,0-.01,0Z" data-sg-fill="sg-fill-0" />
  <path d="M240,19.49c.13.75.11,1.5-.06,2.26s-.31,1.5-.39,2.22c-.08.83-.15,1.66-.19,2.49-.05.83-.1,1.67-.16,2.51-.04.82-.12,1.63-.24,2.44s-.13,1.61-.02,2.41c.02.14.08.29.21.42.12.14.24.17.35.1.74-.41,1.43-.88,2.08-1.43.64-.55,1.33-1.03,2.08-1.43.71-.36,1.41-.75,2.1-1.17s1.37-.82,2.06-1.19c.74-.41,1.48-.82,2.22-1.25s1.49-.8,2.25-1.13c.27-.11.56-.15.88-.12s.61.11.87.23c.7.24,1.38.53,2.04.87.66.34,1.25.76,1.76,1.26.17.17.31.39.43.68s.09.52-.08.69c-.64.57-1.36,1-2.16,1.28-.81.29-1.59.59-2.36.92-.76.33-1.5.72-2.21,1.18s-1.43.88-2.15,1.26c-.74.41-1.51.81-2.3,1.2-.79.4-1.58.75-2.37,1.06-.74.34-1.46.73-2.15,1.17s-1.4.86-2.12,1.29c-.22.14-.44.3-.66.47s-.42.36-.6.56c-.66.72-1.22,1.52-1.68,2.4-.46.88-.98,1.72-1.55,2.52-.56.72-1.03,1.49-1.43,2.32s-.86,1.63-1.38,2.4c-.17.24-.42.39-.75.47s-.64.07-.92-.03c-.68-.27-1.36-.55-2.02-.86-.66-.3-1.28-.69-1.85-1.16-.17-.17-.28-.39-.34-.68-.05-.28-.03-.53.06-.75.4-.91.92-1.74,1.56-2.49s1.15-1.59,1.52-2.52c.37-.86.83-1.68,1.39-2.47.56-.78,1-1.6,1.34-2.45.14-.29.28-.56.42-.81.15-.25.24-.53.29-.84.12-.77.16-1.55.13-2.34-.02-.79-.05-1.56-.08-2.32-.03-.86-.02-1.73.04-2.6s.07-1.74.04-2.6c-.02-.82-.05-1.65-.09-2.48s-.05-1.66-.03-2.49,0-1.67-.05-2.5c-.05-.84.06-1.65.32-2.44.08-.19.23-.36.45-.52.22-.15.43-.19.62-.11.77.29,1.48.67,2.12,1.17.64.49,1.29.97,1.96,1.43.24.17.42.4.54.67.12.28.2.56.24.85,0,0,.02-.02.02-.02Z" data-sg-fill="sg-fill-0" />
  <path d="M278.4,49.21c-.43.73-1.01,1.36-1.75,1.89s-1.44,1.07-2.11,1.64c-.61.54-1.2,1.1-1.79,1.66s-1.2,1.07-1.85,1.53c-.69.5-1.32,1.07-1.9,1.7s-1.14,1.28-1.69,1.92c-.53.63-1.1,1.23-1.73,1.81s-1.27,1.15-1.91,1.69c-.61.54-1.21,1.08-1.82,1.63-.61.54-1.21,1.08-1.82,1.63-.06.06-.09.16-.08.29s.04.23.1.29c.67.61,1.28,1.24,1.86,1.9.57.66,1.18,1.3,1.82,1.93.62.57,1.24,1.14,1.83,1.72s1.13,1.2,1.61,1.87c.2.25.32.56.35.93s-.03.7-.2.98c-.58.99-1.41,1.7-2.51,2.11-.23.06-.48.08-.76.06-.28-.01-.52-.09-.72-.21-.75-.53-1.41-1.14-1.98-1.84s-1.13-1.42-1.67-2.14c-.56-.71-1.17-1.36-1.84-1.95-.67-.59-1.33-1.19-2-1.8s-1.35-1.23-2.04-1.88c-.7-.64-1.27-1.37-1.73-2.18-.14-.27-.21-.58-.23-.93,0-.35.06-.65.23-.89.47-.69,1.03-1.28,1.7-1.78s1.28-1.05,1.82-1.66c.57-.58,1.16-1.14,1.78-1.67s1.26-1.04,1.93-1.52c.67-.48,1.28-1,1.85-1.57.56-.56,1.12-1.15,1.67-1.75,1.13-1.21,2.32-2.35,3.55-3.41.63-.52,1.25-1.05,1.87-1.58s1.2-1.1,1.75-1.71c.57-.63,1.15-1.23,1.75-1.8s1.24-1.09,1.93-1.55c.31-.22.67-.38,1.09-.47.41-.09.78-.06,1.11.12.51.32.99.69,1.44,1.12s.82.92,1.09,1.46c.2.37.3.78.32,1.21.01.43-.09.83-.3,1.2h-.02,0Z" data-sg-fill="sg-fill-0" />
  <path d="M293.22,64.22c.65.35,1.19.86,1.62,1.52s.76,1.33,1.01,2.01c.12.27.13.56.02.88-.11.31-.28.57-.49.76-.57.6-1.2,1.14-1.89,1.62s-1.37.99-2.03,1.51c-.64.5-1.32.93-2.03,1.29s-1.36.8-1.94,1.33c-.65.58-1.34,1.13-2.05,1.63s-1.42.99-2.12,1.46c-.67.46-1.34.9-2,1.32-.66.43-1.33.84-2.02,1.23-.73.39-1.4.87-2.01,1.46s-1.28,1.11-1.99,1.56c-.73.43-1.42.94-2.06,1.53-.65.59-1.38,1.05-2.19,1.36-.27.12-.56.14-.88.05s-.6-.23-.84-.41c-.6-.43-1.12-.95-1.57-1.55-.45-.61-.81-1.26-1.1-1.95-.11-.25-.11-.53-.02-.85s.25-.58.46-.77c.66-.52,1.34-1,2.04-1.46.7-.45,1.38-.93,2.06-1.42,1.27-.92,2.56-1.81,3.88-2.66.74-.47,1.47-.95,2.19-1.44s1.39-1.03,2-1.62c.59-.57,1.22-1.08,1.91-1.53s1.36-.89,2.04-1.35c.67-.46,1.35-.91,2.02-1.37.67-.46,1.36-.9,2.05-1.33.67-.42,1.29-.89,1.86-1.44.57-.54,1.19-1,1.85-1.38.34-.17.72-.26,1.13-.26s.77.09,1.08.26h.01Z" data-sg-fill="sg-fill-0" />
  <path d="M302.34,77.72c.63.62,1.08,1.36,1.35,2.22.27.86.63,1.66,1.1,2.4.48.76.95,1.54,1.4,2.31.45.78.87,1.58,1.25,2.4.38.75.77,1.51,1.19,2.25.42.75.79,1.5,1.09,2.26.08.22.11.47.08.75s-.13.51-.29.7c-.34.35-.73.66-1.16.92-.43.27-.9.44-1.39.5-.25.03-.52.03-.82,0-.3-.04-.54-.16-.71-.36-.51-.65-.99-1.35-1.43-2.1s-.85-1.52-1.24-2.3c-.31-.69-.61-1.4-.91-2.13-.3-.73-.66-1.41-1.1-2.03-.12-.16-.3-.26-.53-.29-.23-.02-.44,0-.63.07-1.09.42-2.18.89-3.28,1.4-1.09.51-2.11,1.15-3.05,1.92-.28.28-.35.6-.22.96.21.58.53,1.11.94,1.6s.74,1.03,1,1.62c.27.62.6,1.2.99,1.74.39.55.64,1.16.74,1.83.05.34.07.67.07,1s-.12.61-.36.84c-.34.35-.73.63-1.17.86-.44.22-.9.41-1.38.57-.27.11-.56.11-.88-.02s-.57-.3-.76-.53c-.41-.57-.76-1.18-1.04-1.84-.29-.65-.6-1.29-.93-1.9-.34-.64-.68-1.27-1-1.89s-.67-1.22-1.05-1.81c-.07-.13-.21-.17-.41-.12-.97.29-1.89.66-2.76,1.12-.88.46-1.74.95-2.58,1.46-.82.51-1.62,1.02-2.42,1.53s-1.66.89-2.59,1.12c-.28.09-.59.1-.92.05s-.6-.19-.81-.4c-1.03-.99-1.65-2.18-1.87-3.55-.05-.34-.04-.7.02-1.1s.24-.71.52-.92c.66-.49,1.36-.91,2.08-1.27.73-.36,1.46-.72,2.19-1.08s1.47-.69,2.22-.98,1.47-.65,2.16-1.09c.73-.43,1.48-.79,2.26-1.1.78-.3,1.51-.66,2.22-1.07.7-.41,1.41-.82,2.12-1.22s1.44-.75,2.2-1.06,1.47-.71,2.14-1.21,1.39-.9,2.15-1.21c.78-.32,1.52-.75,2.2-1.29s1.44-.89,2.27-1.08c.3-.06.61-.04.93.07s.59.27.81.48h0Z" data-sg-fill="sg-fill-0" />
  <path d="M318.81,119.26c-.39.31-.84.5-1.35.58s-1.01.12-1.5.13c-.25-.01-.51-.07-.79-.18s-.49-.27-.63-.5c-.36-.74-.69-1.51-.99-2.31-.3-.81-.56-1.61-.8-2.42-.22-.85-.42-1.7-.62-2.57-.19-.87-.47-1.7-.83-2.5-.06-.1-.17-.17-.31-.19-.15-.03-.29-.02-.43.03-1.1.36-2.25.63-3.45.81s-2.32.53-3.37,1.06c-.18.09-.28.25-.3.49-.01.23,0,.45.03.65.13.69.37,1.35.7,1.97.33.63.62,1.27.86,1.92.26.71.51,1.42.73,2.15.22.72.42,1.44.59,2.14.04.23.05.47,0,.71s-.17.42-.38.52c-.49.28-1,.54-1.54.76s-1.1.37-1.69.44c-.29.04-.61-.05-.93-.24-.33-.2-.55-.45-.68-.74-.28-.67-.54-1.37-.76-2.09s-.45-1.44-.69-2.16c-.21-.63-.41-1.28-.59-1.94s-.4-1.3-.63-1.92c-.06-.19-.2-.35-.4-.46-.21-.12-.41-.14-.6-.08-1.11.33-2.24.62-3.37.85s-2.21.61-3.23,1.13c-.16.08-.26.22-.32.42s-.08.4-.08.58c.07.86.26,1.71.56,2.52.3.82.58,1.63.84,2.43.28.86.61,1.69.98,2.5.37.81.64,1.65.8,2.51.07.31.06.66-.04,1.05-.1.38-.29.67-.57.85-.48.31-1,.53-1.57.65-.57.13-1.14.21-1.71.24-.24.02-.47-.07-.68-.26-.22-.19-.37-.39-.47-.6-.3-.63-.55-1.3-.74-1.98s-.37-1.35-.52-2.01c-.17-.71-.36-1.41-.56-2.11s-.4-1.4-.6-2.1c-.17-.71-.38-1.43-.62-2.16s-.51-1.45-.8-2.15c-.27-.64-.58-1.29-.91-1.92-.33-.64-.52-1.32-.58-2.04-.02-.24.05-.48.2-.73.15-.25.32-.43.53-.56.73-.49,1.52-.81,2.39-.97.86-.16,1.68-.42,2.46-.76.77-.35,1.58-.63,2.43-.84.85-.22,1.67-.44,2.48-.68.76-.19,1.53-.4,2.29-.64s1.54-.42,2.32-.56c.87-.13,1.71-.37,2.52-.71s1.63-.63,2.46-.88c.81-.24,1.62-.49,2.43-.75.81-.27,1.63-.51,2.45-.71.76-.19,1.52-.43,2.26-.72s1.51-.5,2.29-.64c.32-.04.65-.03,1,.04.34.07.59.23.74.49.48.82.81,1.69.97,2.62.17.92.37,1.84.6,2.74.22.85.5,1.66.85,2.45s.62,1.61.81,2.46c.21.91.5,1.8.88,2.67.38.87.62,1.76.74,2.67.11.61-.09,1.13-.58,1.57l.02-.02h0Z" data-sg-fill="sg-fill-0" />
  <line x1="50.63" y1="179.75" x2="2" y2="189.13" data-sg-fill="sg-fill-0" />
  <path d="M2,191.13c-.94,0-1.78-.67-1.96-1.62-.21-1.08.5-2.13,1.58-2.34l48.63-9.38c1.08-.21,2.13.5,2.34,1.58s-.5,2.13-1.58,2.34l-48.63,9.38c-.13.02-.26.04-.38.04h0Z" data-sg-fill="sg-fill-0" />
  <line x1="61.64" y1="209.53" x2="21.43" y2="228.68" data-sg-fill="sg-fill-0" />
  <path d="M21.43,230.68c-.75,0-1.46-.42-1.81-1.14-.48-1-.05-2.19.95-2.67l40.21-19.16c1-.47,2.19-.05,2.67.95s.05,2.19-.95,2.67l-40.21,19.16c-.28.13-.57.19-.86.19Z" data-sg-fill="sg-fill-0" />
  <line x1="92.51" y1="248.67" x2="69.43" y2="284.97" data-sg-fill="sg-fill-0" />
  <path d="M69.43,286.97c-.37,0-.74-.1-1.07-.31-.93-.59-1.21-1.83-.62-2.76l23.08-36.31c.59-.93,1.83-1.21,2.76-.61.93.59,1.21,1.83.62,2.76l-23.08,36.31c-.38.6-1.03.93-1.69.93h0s0,0,0,0Z" data-sg-fill="sg-fill-0" />
  <line x1="66.36" y1="218.74" x2="39.86" y2="235.78" data-sg-fill="sg-fill-0" />
  <path d="M39.86,237.78c-.66,0-1.3-.32-1.68-.92-.6-.93-.33-2.17.6-2.76l26.5-17.04c.93-.6,2.17-.33,2.76.6.6.93.33,2.17-.6,2.76l-26.5,17.04c-.33.21-.71.32-1.08.32h0Z" data-sg-fill="sg-fill-0" />
  <line x1="102.38" y1="258.18" x2="92.51" y2="279.17" data-sg-fill="sg-fill-0" />
  <path d="M92.51,281.17c-.29,0-.57-.06-.85-.19-1-.47-1.43-1.66-.96-2.66l9.87-20.98c.47-1,1.66-1.43,2.66-.96s1.43,1.66.96,2.66l-9.87,20.98c-.34.72-1.06,1.15-1.81,1.15Z" data-sg-fill="sg-fill-0" />
  <line x1="290.53" y1="181.21" x2="331.58" y2="188.65" data-sg-fill="sg-fill-0" />
  <path d="M331.58,190.65c-.12,0-.24,0-.36-.03l-41.06-7.44c-1.09-.2-1.81-1.24-1.61-2.32.2-1.09,1.24-1.81,2.32-1.61l41.06,7.44c1.09.2,1.81,1.24,1.61,2.32-.17.97-1.02,1.64-1.97,1.64h.01,0Z" data-sg-fill="sg-fill-0" />
  <line x1="279.52" y1="210.99" x2="325.49" y2="229.41" data-sg-fill="sg-fill-0" />
  <path d="M325.49,231.41c-.25,0-.5-.05-.74-.14l-45.98-18.42c-1.03-.41-1.52-1.58-1.11-2.6s1.58-1.52,2.6-1.11l45.98,18.42c1.03.41,1.52,1.58,1.11,2.6-.31.78-1.06,1.26-1.86,1.26h0s0,0,0,0Z" data-sg-fill="sg-fill-0" />
  <line x1="248.65" y1="250.13" x2="271.72" y2="286.44" data-sg-fill="sg-fill-0" />
  <path d="M271.73,288.44c-.66,0-1.31-.33-1.69-.93l-23.08-36.31c-.59-.93-.32-2.17.62-2.76.93-.6,2.17-.32,2.76.61l23.08,36.31c.59.93.32,2.17-.62,2.76-.33.21-.7.31-1.07.31h0s0,0,0,0Z" data-sg-fill="sg-fill-0" />
  <line x1="274.8" y1="220.2" x2="301.3" y2="237.24" data-sg-fill="sg-fill-0" />
  <path d="M301.29,239.24c-.37,0-.75-.1-1.08-.32l-26.5-17.04c-.93-.6-1.2-1.83-.6-2.76s1.83-1.2,2.76-.6l26.5,17.04c.93.6,1.2,1.83.6,2.76-.38.59-1.03.92-1.68.92h0Z" data-sg-fill="sg-fill-0" />
  <line x1="238.78" y1="259.65" x2="248.65" y2="280.63" data-sg-fill="sg-fill-0" />
  <path d="M248.65,282.63c-.75,0-1.47-.42-1.81-1.15l-9.87-20.98c-.47-1-.04-2.19.96-2.66s2.19-.04,2.66.96l9.87,20.98c.47,1,.04,2.19-.96,2.66-.27.13-.56.19-.85.19Z" data-sg-fill="sg-fill-0" />
</g></svg>