<svg xmlns="http://www.w3.org/2000/svg" id="a" version="1.1" viewBox="0.0 0.0 100.0 113.18418314255982">
    <g transform="scale(0.34686090877558096)"><path d="M65.73,297.15c-4.84,2.52-8.97,4.73-13.16,6.81-.93.46-2.12.83-3.09.67-3.67-.6-7.29-1.46-10.94-2.17-1.82-.35-2.56-1.68-3.4-3.12-1.55-2.65-3.27-5.22-5-7.76-3.7-5.42-7.53-10.76-11.17-16.22-3.38-5.07-6.61-10.23-11.5-14.03-1.27-.99-2.69-1.77-3.99-2.71-1.63-1.19-1.66-2.44.03-3.48,1.15-.7,2.44-1.23,3.74-1.63,13.03-4.01,26.12-7.83,39.55-10.28,3.4-.62,6.91-.6,10.37-.85,4.06-.3,7.68-1.11,10.28-4.92,1.14-1.67,3.59-2.55,5.58-3.5,2.99-1.44,6.09-2.62,9.48-4.06-.75-1.54-1.16-2.71-1.83-3.7-7.42-10.94-9.88-23.46-11.38-36.22-.65-5.53-.56-11.14-.8-16.72-.17-4.02-.17-4.16-4.27-4.28-4.29-.13-8.36-1.01-12.24-2.8-2.72-1.26-5.35-1.33-8.25-.19-4.81,1.9-9.98,1.78-15.06,1.79-6.45,0-12.9-.2-19.34-.08-2.99.05-4.91-1.03-6.21-3.7-1.32-2.71-2.31-5.42-2.5-8.49-.83-13.15-.87-26.3.04-39.44.3-4.4.65-4.68,5.17-5.03,2.46-.19,4.93-.31,7.69-.48.41-5.29,4.38-5.6,8.31-5.89,1.48-.11,2.98-.06,4.46,0,3.82.14,7.28.87,7.87,5.73,2.03,0,3.86-.02,5.7,0,1.86.02,3.73-.08,5.57.15,3.52.45,4.98,2.09,5.28,5.6.09,1.09.12,2.19.19,3.5,3.23.38,6.62-.46,9.35,1.73,2.67,2.15,2.5,5.52,3.48,8.94,4.48-1.08,8.59-2.61,12.43-4.8.75-.43,1.23-1.55,1.55-2.45,1.84-5.27,3.61-10.56,5.37-15.86,1.02-3.09.73-5.85-.99-8.85-3.59-6.26-4.71-13.26-4.85-20.42-.06-2.96,1.04-5.06,4.2-5.63.34-.06.65-.33.96-.53.07-.04.06-.21.15-.64-1.04-.39-2.15-.79-3.24-1.22-2.76-1.09-5.57-2.1-8.26-3.34-1.32-.61-2.58-1.53-3.62-2.56-1.54-1.53-1.5-3.08.19-4.47,1.72-1.41,3.66-2.55,5.52-3.76,2.81-1.83,2.78-1.8,2.21-5.25-.16-.97.11-2.01-.07-2.96-.25-1.28-.48-2.71-1.21-3.73-3.48-4.96-2.94-10.69,1.72-14.53,1.51-1.25,3.32-2.13,5.42-3.44.04-.82.12-2.02.16-3.22.22-7.33,5.3-12.98,12.6-13.81,2.83-.32,5.73-.51,8.36.97,1.36.77,2.23.18,3.29-.68C116.66.09,129.18-1.84,142.74,1.59c1.29.33,2.66.89,3.67,1.73,4.67,3.85,9.64,7.5,12.17,13.27,1.36,3.11,3.29,4.77,6.85,5.25,6.8.93,11.14,5.18,13.03,11.71.69,2.36,1.74,4.17,3.57,5.86,6.91,6.4,5.1,17.33-3.4,21.44-3.87,1.87-4.8,3.89-3.21,8.07,1.96,5.12,3.66,10.29,4.39,15.73.21,1.59.32,3.21.38,4.81.12,3.1-.76,5.66-4.38,6.91.59,3.8.88,7.64,1.82,11.32,5.57,21.61,13.44,42.32,24.68,61.67,6.21,10.7,13.61,20.42,23.23,28.36,2.27,1.88,4.28,4.17,6.03,6.55,3.43,4.63,2.33,8.27-2.94,10.71-.34.16-.68.35-1.04.41-3.1.55-4.92,2.05-5.35,5.48-.28,2.29-2.23,4-4.44,4.64-2.94.85-5.99,1.47-9.04,1.75-2.79.26-5.22.41-6.83,3.34-.87,1.58-2.85,2.56-4.12,4.25,1.18-.24,2.37-.44,3.53-.74,6.85-1.75,13.68-3.52,20.53-5.28,1.69-.44,3.29-.56,5.07.09,14.2,5.2,28.45,10.29,42.67,15.41,5.6,2.02,11.2,4.04,16.78,6.09.67.25,1.26.71,1.86,1.06.36,2.57-1.3,4.12-2.61,5.65-5.68,6.66-10.09,14.13-14.05,21.87-1.63,3.2-2.9,6.58-4.36,9.86-.91,2.04-1.76,4.11-2.83,6.06-1.24,2.26-3.05,3.44-5.83,3.96-24.38,4.5-48.8,8.89-73.06,14.01-17.82,3.76-35.44,8.49-53.1,12.96-2.85.72-5.12.74-7.6-1.06-1.97-1.43-4.38-2.29-6.67-3.25-10.19-4.27-20.57-8.04-31.33-10.62-3.25-.78-6.58-1.2-9.87-1.79-1.46-.26-2.92-.59-4.38-.83-3.07-.5-4.83-2.25-5.37-5.33-.3-1.67-.8-3.31-1.41-5.81h-.05s0,0,0,0ZM88.69,101.14c-2.96,9.44-5.72,18.18-8.45,26.93-6.43,20.61-9.14,41.65-7.02,63.2,1,10.21,3.46,20.05,8.23,29.2,4.04,7.74,9.41,14.27,17.26,18.49,1.41.76,2.83,1.64,3.96,2.75,2.2,2.16,4.82,3.45,7.68,4.36,22.6,7.25,44.76,5.63,66.51-3.38,6.81-2.82,12.99-6.73,18.5-11.65,1.23-1.1,2.75-2.09,3.06-4.24-3.53-1.21-6.94-2.27-10.28-3.54-3.24-1.23-6.5-2.49-9.56-4.09-1.42-.74-3.03-2.13-3.47-3.56-.97-3.14-1.25-6.49-1.83-9.85,1.02-.39,1.8-.78,2.62-.98,2.69-.67,4.44-2.46,4.97-5.01.5-2.37.75-4.96.35-7.32-.54-3.14-1.5-6.31-2.87-9.19-2.66-5.59-5.79-10.96-8.63-16.47-1.76-3.41-3.33-6.92-5.02-10.36-.27-.55-.71-1.02-1.26-1.8-1.13,2.17-.51,3.85.22,5.35,1.75,3.56,3.55,7.1,5.58,10.5,3.7,6.2,7.07,12.55,9.04,19.53.63,2.24,1.01,4.62,1.04,6.94.04,2.86-1.55,4.87-4.26,5.95-1.77.7-3.09.34-4.12-1.33-1.16-1.9-2.26-3.89-3.71-5.56-1.1-1.26-2.58-2.44-4.13-2.95-1.02-.34-2.69.25-3.65.98-1.2.91-.46,2.32.21,3.37,1.92,2.96,4.25,5.53,7.66,6.79,2.3.85,3.71,2.37,4.26,4.75,1.73,7.4,1.75,14.8-.52,22.06-1.62,5.2-6.7,7.95-12.07,6.97-3.35-.61-6.46-1.9-9.06-4.09-2.74-2.31-5.45-4.71-7.88-7.35-7.07-7.68-12.19-16.64-15.84-26.33-11.44-30.4-14.87-61.58-8.43-93.62.35-1.76.5-3.57.75-5.44h-29.86.02s0,0,0,0ZM150.19,266.65c-1.61.69-2.94,1.31-4.31,1.83-3,1.14-5.95,2.62-9.06,3.26-5.09,1.05-7.73-2.23-5.69-7.02,1.09-2.57,3-4.79,4.57-7.15.7-1.05,1.5-2.04,2.66-3.61-2.9-.28-4.98-.5-7.06-.68-9.43-.84-18.82-2.12-27.29-6.62-3.13-1.66-5.46-1.47-8.21.25-2.1,1.31-4.31,2.47-6.55,3.52-2.01.94-4.08,1.84-6.23,2.4-6,1.56-9.53-.78-10.59-6.8-3.23-1.47-6.53-2.19-10.07-1.04-1.17.38-2.43.52-3.66.64-13.97,1.48-27.65,4.45-41.19,8.12-2.71.73-5.25,1.82-7.88,3.72,1.51.61,2.62,1.1,3.77,1.53,7.33,2.7,14.71,5.27,21.97,8.12,2.34.92,4.37,1.03,6.77.32,11.31-3.37,22.89-5.5,34.58-6.99,1.45-.18,3.04-.69,3.84,1.52-1.18,2.69-3.65,4.41-5.72,6.51-2.09,2.11-5.18,3.31-6.34,6.47.55.28.85.53,1.18.59,1.09.22,2.2.4,3.3.55,12.41,1.71,24.78,3.59,36.89,6.89,3.34.91,6.76,1.59,10.16,2.25,5.04.97,10.11,1.13,15.15,0,10.15-2.29,20.34-4.44,30.42-7.02,18.85-4.82,37.54-10.29,56.47-14.77,17.23-4.08,34.7-7.19,52.06-10.75.99-.2,1.95-.55,2.93-.82.01-.29.03-.59.04-.88-1.17-.56-2.3-1.27-3.52-1.65-4.96-1.57-10.01-2.88-14.92-4.6-10.76-3.76-21.48-7.66-32.17-11.63-2.33-.86-4.45-1.04-6.84-.35-5.95,1.72-11.96,3.25-17.94,4.88-4.9,1.33-9.8,2.67-14.69,4.06-2.81.8-3.15,1.3-3,4.22.06,1.11.26,2.21.44,3.31.43,2.57.93,5.13,1.3,7.7.41,2.81-.24,5.44-1.73,7.83-2.86,4.62-8.4,5.68-12.85,2.56-.88-.62-1.83-1.14-2.85-1.76-1.34,1.24-2.44,2.41-3.7,3.39-1.65,1.28-3.28,2.73-5.17,3.54-5.03,2.16-8.42.14-9.31-5.84h.04,0ZM135.84,320.33c1.71-.32,3.14-.56,4.55-.86,21.67-4.72,43.33-9.45,65-14.19,5.57-1.22,11.12-2.53,16.71-3.64,2.09-.42,3.02-1.39,2.9-3.51-.06-1.11.08-2.23.12-3.35.3-9.07,1.12-18.07,3.54-26.87.18-.64.02-1.37.02-2.51-32.32,7.99-64.36,15.92-96.65,23.9,1.29,10.52,2.53,20.56,3.81,31.02h0s0,.01,0,.01ZM173.26,71.92c-1.9,1.47-3.04,2.42-4.25,3.27-6.54,4.59-14.93,4.95-20.77.05-3.49-2.93-6.57-3.36-10.97-2.72-7.32,1.06-14.83.89-22.26,1.25-10.27.49-20.58.28-30.77,1.94-2.77.45-3.82,1.37-3.32,4.18.85,4.74,1.91,9.47,3.21,14.11.87,3.08,1.34,3.19,4.56,3.22,8.18.07,16.37.04,24.55.17,15.65.25,31.25-.36,46.78-2.3,5.37-.67,10.74-1.47,16.31-3.39-1.01-6.46-1.99-12.76-3.08-19.77h0s0-.01,0-.01ZM4.88,124.03c-.15,1.38-.31,2.23-.32,3.08-.02,4.96,0,9.92,0,14.87s-.15,9.43.06,14.13c.18,4.13,1.38,7.25,6.33,7.39,7.17.2,14.35.68,21.52.65,3.16,0,6.4-.68,9.46-1.57,3.28-.96,4.87-3.38,4.81-7.04-.15-9.79-.06-19.58-.09-29.37,0-1.05-.21-2.11-.35-3.4-14.02.34-27.69.82-41.41,1.27,0,0-.01-.01-.01,0ZM94.44,71.37c1.58,0,2.81.04,4.03,0,7.55-.3,15.1-.66,22.65-.92,5.91-.21,7.14-1.27,7.79-7.17.11-.98.22-2.01.04-2.97-.65-3.5-.4-6.96.65-10.29,1.19-3.74-.19-6.56-2.78-9.01-1.68-1.58-3.55-2.96-5.55-4.62.89-1.26,1.88-2.38,2.52-3.67.52-1.04,1.08-2.43.8-3.44-1.11-3.95-2.97-7.52-7.6-8.16-4.77-.66-9.58-1.07-14.38-1.53-2.61-.25-4.68.87-5.85,3.15-2.48,4.84-4.98,9.68-7.13,14.67-1.52,3.52-2.13,7.33-2.11,11.14,9.11,4.32,11.53,13.28,6.91,22.83,0,0,.01-.01.01,0ZM280.93,255.5c-1.17,0-2.01-.13-2.8.02-14.25,2.68-28.49,5.42-42.74,8.06-1.7.32-2.6,1.03-2.96,2.75-2.03,9.59-3.98,19.2-4.03,29.06,0,1.3.16,2.61.27,4.17,1.68-.16,2.91-.22,4.12-.41,8.32-1.32,16.62-2.77,24.97-3.94,2.56-.36,3.94-1.36,4.76-3.82,2.91-8.75,6.99-16.94,12.04-24.67,1.9-2.9,3.56-5.96,5.31-8.96.36-.61.61-1.28,1.07-2.27h-.01ZM121.83,319.01c.25-1.19.65-2,.56-2.76-.97-8.11-2.09-16.21-2.99-24.33-.32-2.86-1.83-4.16-4.46-4.56-3.42-.52-6.87-.96-10.26-1.62-12.64-2.46-25.25-5.01-37.89-7.5-.78-.15-1.61-.02-2.66-.02.29,1.2.48,2.16.76,3.08,2.09,6.74,4.35,13.44,6.24,20.24.74,2.64,2.25,3.43,4.66,3.86,14.43,2.54,28.5,6.39,42.01,12.14,1.21.52,2.48.91,4.03,1.47h0ZM137.36,38.18c1.8,0,3.39.1,4.96-.02,2.86-.22,4.66,1.41,6.15,3.47,1.1,1.52.78,3.21-.82,4.19-1.01.62-2.27.99-3.46,1.17-3.02.44-5.81-.28-8.11-2.28-4.14,4.57-5.19,11.06-2.79,16.5,1.67,3.77,4.42,6.06,8.9,6.33.11-1.23.11-2.21.29-3.17.67-3.53,2.42-6.27,6-7.38,2.41-.74,4.79-.36,6.5,1.59,1.63,1.86,1.7,4.26.53,6.29-.95,1.64-2.52,2.95-3.94,4.28-.83.78-1.9,1.3-2.96,2,5.53,5.1,14.9,5.29,19.7.55,1.26-1.25,2.24-3.01,2.8-4.71.86-2.6.04-3.49-2.75-3.93-1.59-.25-3.22-.43-4.72-.95-1.98-.69-3.36-2.1-3.51-4.36-.15-2.2.84-3.83,2.62-5.02,3.46-2.32,8.24-1.09,10.18,2.61.51.97.94,1.97,1.48,3.13,3.92-1.08,6.54-3.36,7.59-7.07.95-3.34,0-6.33-2.7-8.91-.5.59-.86,1.04-1.25,1.48-3.07,3.46-6.91,4.19-11.17,2.95-3.1-.9-4.22-3.48-2.92-6.44,1.21-2.77,3.35-4.19,6.4-4.3,1.52-.05,3.04-.23,4.62-.35-1.87-8.3-9.44-12.42-18.09-9.95.24,1.47.58,3,.7,4.54.14,1.82.48,3.77.03,5.48-.97,3.73-4.66,4.71-7.57,2.23-2.62-2.24-3.33-5.12-2.6-8.42.28-1.26.6-2.51.92-3.84-7.58-.13-11.9,4.69-11,12.34v-.03s0,0,0,0ZM157.22,98c-2.66-.35-4.94-.42-7.2.71.14,5.6,2.01,10.93,1.83,16.6-2.43-.8-2.47-.79-2.89-2.64-.78-3.38-1.57-6.77-2.23-10.17-.32-1.63-1.16-2.42-2.78-2.33-1.28.07-2.56.24-4.15.39.33,2.7.49,4.92.89,7.09,1.38,7.55,2.86,15.07,4.25,22.61.65,3.53,1.02,7.12,1.83,10.61.95,4.07,1.71,4.66,5.93,4.52,4.33-.14,8.65-.55,12.96-1.04,4.96-.57,6.95-3.3,5.93-8.24-.62-3.02-1.5-6.02-2.62-8.89-3.84-9.8-7.83-19.53-11.75-29.23h0s0,0,0,0ZM167.92,259.86l1.4-.38c.87,1.2,1.77,2.37,2.61,3.59,1.29,1.87,2.84,3.14,5.3,2.44,2.55-.73,4.59-2.1,5.01-4.9.81-5.38-1.02-10.37-2.1-15.77-1.16.48-1.9.67-2.49,1.06-4.23,2.77-8.99,4.22-13.85,5.18-5.71,1.13-11.48,1.88-17.23,2.82-.84.14-1.95.09-2.46.6-3.21,3.25-6.37,6.55-9.31,10.04-.57.68-.44,2.45.04,3.34.27.5,2.02.48,2.99.24,4.39-1.07,8.28-3.24,11.99-5.78,1.12-.77,2.31-1.49,3.57-1.95,1.37-.5,2.28.22,2.08,1.68-.2,1.45-.81,2.85-1.18,4.28-.69,2.67.37,3.8,3.08,3.3,2.73-.5,4.65-2.19,6.27-4.33,1.4-1.84,2.85-3.65,4.28-5.47h0ZM16.5,263.94c.44,1.28.48,1.68.68,1.97,6.58,9.46,13.16,18.92,19.76,28.37.63.91,1.36,1.76,1.94,2.7,1.74,2.79,3.16,3.32,7.01,2.41-.14-.82-.19-1.67-.44-2.47-1.77-5.81-3.42-11.66-5.4-17.4-2.5-7.25-2.62-7.21-9.7-10.53-1.35-.63-2.68-1.31-4.08-1.81-3-1.06-6.04-2.01-9.77-3.24h0ZM99.86,13.42c-.14-.32-.27-.63-.41-.95-2.3.19-4.66.12-6.89.62-4.57,1.02-6.9,4.1-7.02,8.8-.03,1.11.08,2.23.27,3.33.58,3.32.55,3.39-2.63,4.51-1.05.37-2.11.71-3.14,1.14-2.68,1.11-3.76,3.49-4.56,6.01-.73,2.32.86,3.71,2.28,5.1,1.35,1.32,1.9,2.85,1.58,4.72-.11.61-.38,1.32-.17,1.83.32.8,1,2.09,1.49,2.07.93-.03,1.99-.68,2.7-1.37.43-.42.3-1.41.42-2.14,1.91-11.78,6.45-22.34,14.47-31.31.63-.7,1.07-1.57,1.61-2.36h0ZM46.3,115.18c-6.66-1.93-37.13-1.55-41.62.47-.05.53-.19,1.14-.16,1.75.16,2.59.61,2.97,3.17,2.84.49-.02.99-.1,1.48-.12,6.43-.24,12.86-.6,19.29-.69,4.82-.07,9.65.25,14.48.28,1.15,0,2.3-.45,3.42-.68.08-1.03.17-1.64.17-2.25,0-.48-.14-.96-.23-1.6h0ZM70.6,61.32c3.6,2.86,15.36,7.53,18.42,7.71,2.21.13,3.61-.78,4.01-2.98.66-3.64.24-7.18-1.84-10.35-2.13-3.24-4.9-4.01-8.31-2.03-3.42,1.98-6.65,4.29-9.97,6.43-.62.4-1.3.69-2.31,1.22h0ZM69.82,241.2c2.93,1.95,5.26.43,7.69-.24,1.39-.39,3.14-2.28,4.24-.29.99,1.79-1.28,2.63-2.34,3.7-1.18,1.18-2.98,1.81-3.27,3.86,2.66,2.52,5.55,1.88,8.3.64,3.27-1.47,6.4-3.23,9.57-4.93.59-.32,1.03-.91,1.46-1.3-.11-.37-.11-.52-.19-.6-3.02-2.9-6.01-5.84-9.11-8.65-.4-.36-1.44-.33-2.04-.09-3.11,1.2-6.22,2.42-9.23,3.86-1.82.87-3.93,1.53-5.09,4.04h.01,0ZM128.24,290.46c-4.57.09-5.38.83-4.98,4.64.85,8.1,1.78,16.2,2.71,24.29.24,2.06,1.74,3.25,3.76,3.11,1.76-.12,2.68-1.05,2.57-3.36-.14-2.82-.52-5.66-1.04-8.44-1.11-5.94-2.67-11.82-2.51-17.94.02-.7-.3-1.41-.5-2.31h0s0,0,0,0ZM50.27,124.3c.65.25,1.17.56,1.72.64,4.26.64,4.91.94,5.14,5.21.25,4.54-.1,9.12-.31,13.68-.18,4.01-1.78,7.17-5.82,8.62-1.21.43-1.75,1.2-1.3,2.48,4.16-.03,7.26-1.82,8.42-5.44,2.4-7.53,3.02-15.27,1.38-23.05-.94-4.47-5.41-5.52-9.22-2.15,0,0,0,.01-.01.01ZM119.66,5.6c-.05.3-.09.59-.14.89,2.46.54,4.9,1.35,7.39,1.57,3.56.32,7.15.28,10.73.27,2.36,0,4.72-.22,7.52-.37-4.2-4.49-16.38-5.38-25.5-2.36h0ZM152.91,15.15c-1.54-2.9-2.37-3.62-5.63-3.76-4.07-.17-8.16,0-12.24.06-.77.01-1.54.26-2.51.44,2.38,3.72,5.16,5.51,9.48,4.62,3.48-.71,7.07-.91,10.89-1.37h0s0,0,0,0ZM141.53,22.64h9.67c.98,0,1.97.08,2.94-.05,1.05-.14,2.35-.14,2.52-1.63.15-1.25-1.1-2.63-2.59-2.51-3.92.3-7.85.68-11.72,1.32-1.91.31-1.74,1.68-.81,2.88h0s0-.01,0-.01ZM154.23,27.2c-3.28,1.71-4.36,4.11-3.41,6.5.51,1.29,1.49,1.98,2.85,1.8,1.53-.2,1.97-1.4,1.76-2.72-.27-1.76-.74-3.48-1.21-5.58h.01ZM175.68,40.84c-2.7-2.13-6.24-2.03-7.96.19-.44.56-.62,1.61-.42,2.3.14.47,1.17,1.01,1.74.95,2.52-.28,5.15-.53,6.64-3.43h0ZM146.31,67.62c1.79-.9,3.51-1.54,4.97-2.55,1.51-1.04,1.73-2.72.89-3.84-.8-1.06-2.55-1.21-3.97-.11-1.98,1.54-2.76,3.58-1.89,6.5h0ZM166.02,55c-.45.3-1.7.67-2.08,1.45-.63,1.3.43,2.31,1.54,2.91,1.33.72,2.81,1.14,4.12.06.45-.37.84-1.34.67-1.84-.57-1.65-1.92-2.44-4.26-2.59h0s0,0,0,0ZM18.03,110.26c3.8.64,8.54.35,10.85-.56-4.66-1.46-8.48-1.36-10.85.56ZM50.33,132.72c1.48-.35,2.49-.59,3.45-.82-.18-2.22-1.33-3.15-3.45-2.79v3.61h0ZM139.44,41.6c1.96,2.76,2.9,2.89,5.83.92-2.07-.32-3.72-.59-5.83-.92Z" data-sg-fill="sg-fill-0" />
  <path d="M43.91,59.51c.98.59,1.81,1.07,2.62,1.59,7.56,4.82,7.72,15.07.49,20.31-4.74,3.43-9.79,4.53-15.46,3.33-1.67-.35-3.39-.43-5.4-.67-.98,4.03-1.89,7.82-2.84,11.71-3.13-.05-5.03-1.66-6.23-3.84-3.08-5.61-3.05-11.4-.16-17.1.48-.95,1.3-1.94,2.22-2.41,2.38-1.22,2.87-3.13,2.76-5.55-.07-1.58.23-3.18.38-5.01-1.03-.13-1.98-.22-2.91-.37-5.07-.86-9.32-2.87-12.28-7.45-2.13-3.29-1.45-7.26.92-9.52,1.83-1.74,4.09-3.38,6.45-4.16,7.82-2.59,15.66-2.2,23.17,1.31,1.86.87,3.61,2.21,5.07,3.67,3.18,3.19,3.98,7.04,2.35,11.31-.35.91-.74,1.8-1.18,2.85,0,0,.03,0,.03,0ZM20.57,89.68c.61-1.95,1.21-3.91,1.83-5.86.88-2.77,1.64-3.42,4.56-3.2,2.09.16,4.16.65,6.23,1.04,4.9.92,9.1-.58,12.67-3.86,2.62-2.41,4.09-5.42,2.76-9.03-1.35-3.67-3.92-5.94-8.05-6.09-1.43-.05-3.02.12-4.06-1.9,1.14-.99,2.34-1.98,3.49-3.03,3.37-3.09,3.37-7.38.03-10.39-6.18-5.55-19.8-6.87-27-2.61-.32.19-.63.39-.93.62-3.16,2.43-3.38,6.65-.41,9.33.81.73,1.8,1.39,2.82,1.76,4.65,1.72,9.31,2.69,13.95-.13,1.41-.86,2.92-1.42,4.34.83-1.45,1.04-2.8,2.05-4.18,3.01-2.75,1.91-3.66,4.51-2.71,8.21,1.15,0,2.37-.1,3.56.02,1.82.2,3.73.28,5.42.91,1.92.72,2.78,3.04,2.26,4.99-.52,1.94-1.93,2.78-3.84,2.94-2.85.23-5.41-.45-7.54-2.46-.6-.57-1.2-1.13-1.73-1.63-5.3,2.64-7.55,8.14-3.46,16.53,0,0-.01,0,0,0ZM28.62,71.52c1.56,3.04,2.91,3.37,5.49,1.68-1.28-1.96-3.06-2.13-5.49-1.68Z" data-sg-fill="sg-fill-0" />
  <path d="M168.34,202.4c-4.59-2.02-6.65-4.17-7.29-7.42,4.04,0,6.4,2.3,7.29,7.42Z" data-sg-fill="sg-fill-0" />
  <path d="M112.75,47.35c-.44,1.2-.66,1.65-.76,2.12-.25,1.19-.71,2.18-2.15,2.01-1.38-.16-1.73-1.15-1.75-2.4-.01-1.03-.16-2.07-.27-3.23-2.15.91-3.86,1.7-5.64,2.3-.3.1-.9-.67-1.54-1.18.58-1.06,1.02-2.07,1.64-2.95.86-1.21,1.2-2.36.39-3.75-.5-.85-.96-1.9.2-2.6,1.23-.75,2.38-.38,3.32.65.98,1.07,1.85,2.28,2.93,3.23,1.68,1.49,3.58,2,5.82,1.01,1.05-.47,2.32-.46,3.46-.67.51,2.01,1.02,3.62,1.29,5.27.12.74,0,1.89-.47,2.25-.52.39-1.65.3-2.37.04-1.32-.49-2.52-1.26-4.11-2.09,0,0,.01,0,.01,0Z" data-sg-fill="sg-fill-0" />
</g></svg>