<svg xmlns="http://www.w3.org/2000/svg" id="a" version="1.1" viewBox="0.0 0.0 100.0 117.52961752961752">
    <g transform="scale(0.33000033000033)"><path d="M79.26,113.87c-8.07-2.91-11.02-8.98-8.26-16.63.71-1.96.44-3.21-.75-4.88-7.65-10.73-9.82-22.3-4.22-34.6,1.83-4.01,4.44-7.68,6.75-11.46.71-1.17,1.63-2.21,2.54-3.42-.99-1.34-1.92-2.52-2.77-3.76-7.92-11.52-2.46-27.66,10.8-31.52,2.48-.72,5.21-.75,7.83-.84,2.34-.08,4.18-.83,6.01-2.34,5.76-4.74,12.3-5.6,19.18-2.91,6.06,2.38,10.91,6.48,13.2,12.61,2.1,5.63,6.49,8.35,11.24,10.92,2.93,1.58,6.03,2.87,8.97,4.43,7.18,3.82,13.01,8.97,16.18,16.72,1.44,3.51,3.35,6.51,6.93,8.53,3.91,2.2,5.26,6.31,5.76,10.6.48,4.22-.14,8.32-1.88,12.35,18.7,14.12,26.77,32.41,21.68,55.71,2.33,1.6,4.53,3.04,6.66,4.59,1.38,1.01,2.5,2.24,2.13,4.2-.4,2.14-2.02,3.01-3.83,3.32-2.32.39-4.69.4-7.04.61-1.72.16-3.43.38-6.02.68,1.19,1.18,1.61,1.99,2.2,2.14,3.15.78,5.39,2.83,7.41,5.15,3.08,3.53,6.81,6.08,11.1,7.9,4.02,1.71,8.11,3.55,8.89,8.52.88,5.59.86,11.14-2.86,15.93-1.17,1.51-2.5,2.91-3.79,4.4,6.22,6.91,12.31,13.68,18.61,20.67,5.56-.64,9.26-3.79,10.35-9.51.67-3.55.91-7.18,1.54-10.73.41-2.31.93-4.66,1.84-6.8.93-2.2,2.93-2.95,4.77-2.32,2.17.75,2.4,2.45,2.12,4.4-.56,3.85-1.14,7.7-1.68,11.55-.11.8-.09,1.61-.15,2.91,1.18-.51,2.05-.75,2.78-1.22,4.09-2.63,8.11-5.38,12.25-7.93,2.28-1.41,3.63-3.33,4.41-5.82,1.25-3.98,2.5-7.96,3.92-11.88.51-1.4,1.27-2.87,2.33-3.86.77-.72,2.28-1.07,3.35-.91,1.52.23,2.25,1.65,2.11,3.16-.12,1.36-.46,2.74-.91,4.04-.83,2.36-1.91,4.63-2.71,7-.56,1.64-.82,3.39-1.37,5.78,2.1-.34,3.55-.56,4.99-.8,4.52-.73,9.02-1.53,13.55-2.16,1.35-.19,2.78-.05,4.14.13,2.04.26,3.22,1.51,3.45,3.57.24,2.17-.68,3.74-2.96,4.38-2.26.64-4.61,1.08-6.94,1.3-4.28.42-8.59.7-12.89.88-4.1.18-7.82,1.18-11.45,3.26-9.52,5.45-19.22,10.6-28.85,15.88-1.31.72-2.59,1.51-3.93,2.29.18.83.18,1.43.43,1.87,4.01,6.81,7.84,13.75,12.18,20.36,3.3,5.03,6.73,9.93,7.85,15.95.48,2.57.61,5.24.57,7.86-.05,3.02-1.07,5.73-3.66,7.61-1.31.95-2.04,2.05-1.8,3.87,2.19,16.9-3.9,31.18-14.44,43.81-14.14,16.94-32.46,27.23-53.76,32.2-14.12,3.29-28.47,4.97-43.01,4.45-14.3-.51-28.16-3.05-41.21-9.2-17.11-8.07-29.7-20.81-38.24-37.58-7.25-14.23-7.96-29.33-5.27-44.76,1.51-8.67,4.2-16.99,7.74-25.04.55-1.26,1.05-2.55,1.73-4.22-3.21-2.27-6.35-4.6-10.08-5.64-1.53-.43-3.61.1-5.12.85-3.35,1.66-6.46,3.8-9.73,5.63-2.17,1.21-4.38,2.42-6.71,3.27-1.59.58-3.39.41-4.23-1.56-.74-1.72.05-3.13,1.4-3.96,2.83-1.75,5.78-3.29,8.72-4.85,2.15-1.14,4.36-2.19,7.29-3.65-5.85-3.53-10.73-6.97-16.05-9.49-2.86-1.36-6.46-1.27-9.75-1.62-5.37-.57-10.77-.93-16.15-1.49-1.06-.11-2.16-.58-3.09-1.13-1.9-1.13-1.68-3.04-1.4-4.85.28-1.83,1.61-2.69,3.28-2.52,5.23.53,10.45,1.23,15.67,1.89,2.03.26,4.05.57,6.31.9.33-3.2-.29-5.78-1.38-8.35-1.03-2.42-1.91-4.92-2.62-7.45-.39-1.38-.12-3.08,1.46-3.46,1.19-.29,2.94-.09,3.83.64,1.21.98,2.09,2.58,2.66,4.09,1.12,2.98,1.89,6.1,2.87,9.14,1.18,3.65,2.98,6.99,6.32,9.05,9.35,5.74,18.77,11.34,28.19,16.96.68.41,1.52.56,2.62.95.23-.39.47-.73.64-1.1,3.25-7.29,7.71-13.84,12.51-20.16,1.3-1.71,1.82-3.13.95-5.27-2.08-5.12-2.19-10.31.39-15.35,2.6-5.08,2.68-10.4,1.69-15.86-.2-1.09-.24-2.21-.38-3.31-.46-3.54.49-6.58,3.1-9.08.69-.66,1.21-1.49,1.99-2.47-7.27-13.02-12.87-26.54-10.97-42.14h-.05ZM231.09,288.91c-.54,1.48-.89,2.85-1.52,4.06-1.46,2.82-2.72,5.84-4.68,8.29-3.09,3.86-7.36,5.5-12.29,4.03-4.96-1.47-9.12-4.15-11.31-9.12-1.74-3.94-3.52-7.86-5.02-11.89-6.06-16.27-11.72-32.7-18.13-48.83-3.32-8.36-7.83-16.25-11.91-24.3-.71-1.41-1.97-2.54-2.92-3.73-11.71,3.13-23.19,5.16-34.86,5.84-12.86.75-25.54-.36-37.82-4.52-1.98-.67-3.52-.58-4.71,1.24-3.87,5.93-7.83,11.8-11.54,17.82-1.48,2.41-1.23,3.06,1.27,4.8,4.1,2.85,8.35,5.47,12.51,8.25,1.84,1.23,3.68,2.48,5.35,3.91,1.33,1.14,1.28,2.74.49,4.2-.81,1.49-2.38,1.6-3.67,1.15-1.67-.58-3.25-1.53-4.71-2.54-3.55-2.43-6.97-5.05-10.53-7.46-1.68-1.13-3.57-1.94-5.83-3.14-1.54,3.26-3.27,6-4.14,8.98-2.12,7.32-4.32,14.68-5.63,22.17-3.05,17.49.24,33.75,10.86,48.23,2.3,3.13,4.9,6.04,7.46,8.96,13.92,15.86,31.68,23.84,52.49,25.79,19.32,1.81,38.31-.07,56.95-5.09,17.42-4.69,32.46-13.66,44.7-27.02,10.34-11.29,16.32-24.4,15.83-40.02-.04-1.11-.05-2.24-.28-3.31-.28-1.3-1.1-1.88-2.43-1.15-2.58,11.09-4.56,13.18-13.96,14.38l-.02.02h0ZM187.52,144.42c-5.52-.32-9.94-.61-14.36-.81-9.17-.43-18.32-1.01-27.31-2.94-1.6-.34-3.31-.81-4.64-1.7-6.29-4.21-8.19-16.59-2.92-22.08,8.22-8.57,9.9-8.7,19.17-4.45,6.69,3.07,13.21,6.49,19.77,9.84,4.7,2.4,9.32,4.97,13.99,7.42.93.49,1.96.76,3.38,1.29.42-1.8.99-3.23,1.04-4.68.11-3.05.18-6.14-.15-9.16-.53-4.8-.57-9.73-2.89-14.18-2.97-5.7-6.69-10.87-10.99-15.65-6.39-7.1-14.46-9.38-23.68-8.9-10.37.55-20.33,2.94-30.01,6.55-13.76,5.13-26.69,11.72-37.94,21.37-4.47,3.83-6.37,8.54-6.4,14.27-.06,13.66,4.42,25.68,13.31,35.95,6.85,7.91,15.34,13.33,25.92,14.63,8.17,1,16.38.87,24.51-.63,14.7-2.7,27.36-9.06,36.85-20.94,1.09-1.36,1.91-2.93,3.36-5.2h-.01ZM111.18,182.86c-2.74-1.65-2.59-3.88-2.53-6.1.07-2.52.24-5.18-1.96-6.94-1.1-.88-2.68-1.7-3.99-1.63-1.77.1-2.28,2.04-2.25,3.54.1,4.7.4,9.4.7,14.09.07,1.09.69,2.18.65,3.24-.04.84-.71,1.65-1.1,2.47-.78-.43-1.71-.71-2.29-1.32-.53-.57-.81-1.46-.99-2.26-1.67-7.29-2.19-14.54.76-21.69.33-.81.53-1.93.24-2.7-.71-1.89-3.49-3.3-5.47-3.11-2.44.23-3.34,2.07-3.54,4.01-.24,2.31-.23,4.75.25,7.01,1.09,5.24.59,10.21-1.56,15.08-.73,1.65-1.34,3.36-1.8,5.1-1.72,6.48.47,11.23,6.54,14,1.75.8,3.62,1.52,5.51,1.83,5.2.85,10.42,1.75,15.66,2.11,14.1.97,27.99-.83,41.78-3.7,15.38-3.2,30.66-6.77,45.19-12.89,3.54-1.49,7.02-3.49,9.95-5.95,4.64-3.88,6.83-8.98,5.28-15.24-.65-2.61-1.9-4.55-4.49-5.57-2.32-.91-4.58-2.01-6.89-2.97-2.22-.91-4.09-2.12-5.54-4.19-1.25-1.79-2.93-3.37-4.7-4.68-3.38-2.49-6.25-2.39-9.53.19-1.85,1.45-3.62,3.06-5.22,4.78-5.28,5.66-11.82,9.19-19.1,11.42-3.84,1.18-7.74,2.27-11.69,2.99-11.42,2.08-22.85,3.27-34.18-.66-.7-.24-1.52-.15-2.48-.23-.06,3.4.97,6.65-1.2,9.92v.05s-.01,0-.01,0ZM168.25,207.13c1.7,3.13,3.3,6.05,4.86,8.99,6.14,11.55,11.87,23.27,15.79,35.81,2.86,9.15,5.89,18.25,8.98,27.32,2.16,6.33,4.81,12.44,8.7,17.95,4.47,6.35,12.9,6.31,16.93-.28,1.28-2.09,1.92-4.58,2.81-6.91.67-1.74.27-3.2-1.09-4.53-1.69-1.65-3.49-3.27-4.78-5.22-1.42-2.15-2.66-4.56-3.34-7.04-.63-2.32.94-3.68,3.37-3.44,2.84.29,5.02,1.76,6.25,4.3,1.27,2.62,2.39,5.32,3.34,8.07.71,2.06,1.94,2.96,4.05,2.7,2.71-.35,5.76-3.63,6.49-6.95.58-2.59-.11-3.49-3.56-5.78-2.18-1.44-4.37-3.01-6.11-4.93-1.91-2.1-1.24-6.02.9-7.92,1.75-1.55,3.73-1.31,6.35.78,2.38,1.89,3.64,4.48,4.66,7.26.93,2.52,1.87,2.97,4.42,2.58,2.8-.43,4.58-1.87,5.04-4.78.35-2.16.32-4.45.04-6.62-.65-4.9-2.42-9.4-5.67-13.22-3.6-4.23-7.03-8.62-10.81-12.68-11.25-12.07-24.3-22.36-34.78-35.28-3.15.82-6.14,1.61-9.35,3.34,1.43,1.51,2.47,2.59,3.49,3.69,1.61,1.72,3.3,3.39,4.8,5.21,1.03,1.25,2.04,2.67.93,4.41-2.47.55-3.15-1.5-4.37-2.69-2.57-2.52-4.93-5.32-7.77-7.48-3.13-2.39-6.25-1.7-8.8,1.08,4.16,4.88,8.56,9.54,12.37,14.64,3.64,4.88,6.72,10.2,9.94,15.39.83,1.34,1.79,2.94-.52,4.71-1-1.11-2.1-2.09-2.88-3.27-2.39-3.59-4.56-7.32-6.99-10.87-4.56-6.65-9.21-13.25-15.58-18.38-3.24-2.61-3.67-2.63-8.08.02l-.03.02h0ZM94.33,87.92c1.16,2.28,1.94,3.79,2.71,5.3.83,1.63,2,2.26,3.72,1.3.97-.54,1.94-1.08,2.91-1.63,3.88-2.17,7.61-4.65,11.66-6.45,14.21-6.3,28.96-10.52,44.64-10.86,3.68-.08,4.97-1.63,4.48-5.35-.23-1.76-1.05-3.43-1.46-5.17-.17-.7.04-1.49.08-2.25.84.23,2.16.22,2.43.75.98,1.93,1.8,3.99,2.3,6.09.42,1.81.31,3.74.43,5.53,5.21.29,6.09-.13,6.7-2.93,1.28-5.92-1.25-12.09-6.1-15.67-1.6-1.18-3.36-2.77-3.99-4.55-2.06-5.86-5.78-10.45-10.25-14.47-3.46-3.11-7.16-6.01-11.76-8.1-.34,1.51-.64,2.56-.82,3.63-1.04,6.48-4.73,10.84-10.72,13.29-4.61,1.89-9.45,2.35-14.33,1.52-2.38-.41-4.1-.04-6.02,1.64-5.15,4.52-11.38,6.3-18.16,5.75-3.88-.31-6.72-2.07-7.86-6.24-1.18-4.3-4.73-5.08-7.77-1.79-5.02,5.42-8.34,11.8-9.61,19.1-1.51,8.76-.29,16.94,6,23.73,2.03,2.2,2.32,4.49,1.65,7.29-.6,2.53-1.08,5.19-.99,7.77s1.78,3.84,4.22,3.43c3.71-.62,7.23-1.82,9.65-5.24-.73-1.6-1.52-3.07-2.09-4.62-.67-1.81-1.35-3.65-1.67-5.54-.29-1.73.5-2.96,3.12-2.83.34,1.91.59,3.91,1.07,5.85,1.03,4.13,3.42,4.76,6.74,1.84-1.87-4.09-2.18-7.47-.92-10.13h.01s0,0,0,0ZM100.04,7.49c1.46.98,2.66,1.68,3.74,2.53s2.2,1.73,3.04,2.81c2.71,3.5,1.92,7.26-1.87,9.54-5.15,3.1-10.9.55-12.08-5.49-.39-1.99-.31-4.08-.44-6.06-8.68-2.13-16.76,3.4-19.13,12.55-1.92,7.41,2.2,17.96,11.26,19.37,1.37-1.98,2.67-4.13,4.25-6.04,1.31-1.58,2.8-3.13,4.51-4.23,2.83-1.8,6.64-.34,8.87,3.05,1.66,2.53,1.34,5.31-1.58,7.24-2.61,1.73-5.69,2.75-8.61,3.98-1.09.46-2.32.6-3.6.91.46,3.52,3,4.27,5.43,4.44,6.43.45,11.69-2.15,16.2-6.81-.93-1.05-1.76-1.81-2.38-2.71-1.88-2.69-2.21-5.64-1.1-8.72.75-2.09,2-3.68,4.42-3.83,2.24-.14,4.86,1.4,5.46,3.72.55,2.09.52,4.35.58,6.54.03,1.18-.29,2.37-.43,3.47,7.15,2.47,15.72-.03,19.87-5.54,3.1-4.12,2.77-8.45-1.06-11.91-1.19-1.07-2.66-1.82-3.91-2.65-1.99,1.72-3.56,3.31-5.35,4.56-2.43,1.69-5.13,2.12-7.87.64-3.72-2-4-6.58-.38-8.75,1.61-.97,3.61-1.31,5.47-1.85,1.13-.33,2.31-.48,3.46-.71-2.66-11.63-17.61-17.31-26.74-10.06,0,0-.03.01-.03.01ZM202.11,141.99c-.47-.95-.55-1.43-.83-1.63-2.25-1.61-4.41-3.42-6.84-4.71-13.36-7.04-26.78-13.97-40.21-20.89-2.35-1.21-4.85-1.07-7.27-.17-7.19,2.68-9.99,11.96-5.77,18.38,2.5,3.8,6.09,4.92,10.25,5.28,14.35,1.23,28.7,2.52,43.05,3.71,2.41.2,4.85.03,7.63.03h-.01ZM205.15,195.52c8.11,10.66,17.65,19.88,27.91,28.48-.08-1.22-.44-2.21-.95-3.12-5.45-9.83-13.07-17.92-20.8-25.9-2.06-2.12-2.82-1.94-6.16.54h0ZM95.87,14.51c.47,2.19,1.6,4.32,4.07,5.48,1.8.85,3.18.17,4.34-1.31,1.09-1.39.73-2.67-.41-3.67-1.44-1.26-2.93-2.59-4.64-3.38-2.16-1.01-3.47.11-3.36,2.87,0,0,0,.01,0,.01ZM89.88,43.04c3.57.24,6.28-1.22,8.69-3.29,1.51-1.3,1.27-2.83-.6-3.45-1.19-.39-2.83-.49-3.9.03-2.55,1.24-4.2,3.35-4.19,6.71h0ZM127.1,21.29c-2.63.34-4.66.43-6.58.94-.61.16-1.23,1.43-1.25,2.21-.01.51.98,1.3,1.66,1.51,2.25.67,4.8-1.03,6.17-4.66h0ZM111.6,41.36c.38-.09.76-.18,1.13-.27.22-1.46.59-2.93.63-4.4.04-1.35-1.53-2.29-2.98-1.97-1.49.33-1.65,1.55-1.22,2.57.61,1.44,1.61,2.72,2.44,4.06,0,0,0,0,0,.01ZM237.42,267.96l1.02-.8c-.55-1.21-.96-2.51-1.71-3.58-.32-.45-1.34-.4-2.05-.58-.1.63-.5,1.49-.24,1.84.86,1.14,1.96,2.09,2.97,3.11h0s0,0,0,0ZM223.63,278.08c.31-.2.62-.41.93-.61-.45-.68-.91-1.37-1.37-2.05-.23.12-.45.25-.68.37.37.76.75,1.53,1.12,2.29h0Z" data-sg-fill="sg-fill-0" />
  <path d="M160.04,229.28c-.04,3.44-3.12,6.56-6.34,6.45-3.24-.11-6.01-3.11-5.9-6.38.11-3.4,3.34-6.74,6.34-6.58,3.09.17,5.94,3.31,5.91,6.51h-.01Z" data-sg-fill="sg-fill-0" />
  <path d="M153.57,285.31c-3.78-.04-5.57-2.04-5.51-6.15.05-3.47,2.35-6.12,5.39-6.19,3.39-.08,6.61,3.1,6.69,6.62.08,3.62-2.38,5.77-6.56,5.72h-.01Z" data-sg-fill="sg-fill-0" />
  <path d="M160.1,253.62c.09,3.43-2.25,5.67-6.09,5.83-3.81.16-5.81-1.76-5.97-5.75-.15-3.65,2.17-6.53,5.35-6.66,3.36-.13,6.62,3.06,6.71,6.58h0Z" data-sg-fill="sg-fill-0" />
  <path d="M118.72,146.36c4.44,3.39,8.57,6.37,13.59,7.77,3.3.92,6.54.84,9.66-.97,1.18-.69,2.68-.82,4.28-1.28.37,2.88-.95,4.32-2.54,5.38-1.23.82-2.74,1.53-4.18,1.68-7.36.78-14.14-.84-19.6-6.05-2.54-2.42-4.87-4.15-8.7-3.6-2.9.42-3.38-.45-3.39-3.51.22-.16.44-.45.66-.46,3.55-.08,6.39-1.4,8.53-4.36,1.04-1.44,2.57-3.21,4.45-1.64,1.95,1.62.11,3.23-.86,4.66-.46.68-1.02,1.28-1.91,2.38h.01,0Z" data-sg-fill="sg-fill-0" />
  <path d="M174.32,106.54c.07,3.55-2.74,6.6-6.09,6.61-3.16.01-6.24-2.97-6.25-6.06-.02-3.34,3.04-6.61,6.23-6.66,3.22-.05,6.05,2.78,6.12,6.11h0Z" data-sg-fill="sg-fill-0" />
  <path d="M121.99,114.28c-.05,3.37-3.03,6.32-6.35,6.3-3.15-.02-5.93-3.05-5.78-6.31.15-3.31,3.21-6.6,6.23-6.68,3.1-.09,5.96,3.15,5.91,6.69,0,0-.01,0-.01,0Z" data-sg-fill="sg-fill-0" />
</g></svg>