<svg xmlns="http://www.w3.org/2000/svg" id="a" version="1.1" viewBox="0.0 0.0 100.0 66.97363853551957">
    <g transform="scale(0.20419414779572417)"><path d="M189.51,110.84c-.98-1.1-1.69-2.23-2.68-2.96-5.78-4.27-11.64-8.42-17.43-12.67-1.64-1.21-3.37-1.6-5.35-1.24-1.86.34-3.75.56-5.63.82-7,.99-13.16-.7-18.27-5.74-2.79-2.75-5.52-5.41-9.23-7.16-4.57-2.16-5.32-7.71-1.69-11.26,2.19-2.14,4.88-3.88,7.59-5.34,4.05-2.18,8.3-4,12.5-5.89,2.02-.91,3.38-2.31,3.72-4.48.74-4.74,3.05-8.7,6.19-12.14,2.59-2.83,3.14-5.65,1.69-9.25-1.92-4.77-3.52-9.68-5.07-14.59-.85-2.68-1.63-5.45-.48-8.84,5.14.8,10.05,2.74,15.39,3.78,1.2-3.01,2.27-5.77,3.4-8.5,1.02-2.46,1.9-3.04,4.32-2.18,1.73.62,3.32,1.75,4.84,2.84,1.28.93,2.35,2.13,3.63,3.31,4.15-3.7,5.88-10.36,13.42-9.22,1.04,3.45,2.12,7.01,3.17,10.5,11.3-.84,17.19,3.85,14.92,14.45,3.38.26,6.74.53,10.09.78,16.04,1.23,31.7,4.16,46.5,10.71,7.87,3.49,16.03,5.09,24.57,3.72,24.58-3.95,47.41,2.33,69.44,12.25,33.96,15.29,59.88,39.64,78.53,71.77,10.66,18.36,17.61,38.1,21.24,59.01.23,1.32.48,2.63.74,4.02,1.91.44,3.67.65,5.29,1.25,2.9,1.08,5.95,2.04,8.51,3.7,6.56,4.24,8.17,11.74,4.27,18.53-2.97,5.19-7.53,8.72-13.12,10.32-3.88,1.11-5.06,3.36-5.53,6.86-1.4,10.48-2.88,20.95-4.41,31.41-1.41,9.67-3.36,19.2-6.78,28.42-3.17,8.56-9.18,13.8-17.57,16.78-7.07,2.51-14.35,3.9-21.8,4.57-7.72.69-15.44.95-23.05-.8-2.87-.66-5.77-1.65-8.34-3.05-5.1-2.78-5.9-6.79-2.54-11.49,1.32-1.85,2.97-3.45,4.61-5.33-7.5-9.07-14.55-18.37-22.43-26.9-6.54-7.09-5.23-6.2-13.6-3.33-6.1,2.09-12.02,5.01-17.6,8.28-5.68,3.34-10.92,7.46-16.2,11.45-1.91,1.45-3.5,3.39-5.03,5.28-3.65,4.51-8.44,6.72-14.09,7.11-14.62,1.02-28.96-.7-42.96-4.97-3.09-.94-6.07-2.33-8.99-3.73-1.56-.75-3.04-1.81-4.33-2.99-6.39-5.83-5.65-14.27,1.58-18.85.46-.29.91-.62,1.41-.81,7.04-2.73,11.08-8.34,14.46-14.72,4.19-7.9,8.6-15.69,12.93-23.52,2.84-5.13,6.31-9.76,10.47-13.92,2.38-2.38,4.54-5.04,6.45-7.81,1.64-2.39,1.32-3.39-.96-5.15-3.65-2.81-7.33-5.59-11.11-8.23-.9-.63-2.3-1.06-3.34-.87-24.2,4.34-47.77.38-71.21-5.33-.92-.22-1.85-.42-2.78-.57-.38-.06-.78.05-1.3.1-.93,1.78-.36,3.49.51,4.98,8.32,14.31,8.29,29.81,6.2,45.47-2.61,19.6-9.13,37.92-19.19,54.93-11.75,19.87-29.24,32-51.42,37.58-37.63,9.48-83.86-3.12-111.56-30.34C3.82,270.82-4.27,245.91,2.15,216.7c5.87-26.72,18.49-49.68,39.07-67.94,11.48-10.19,24.68-17.14,39.95-19.67,2.79-.46,5.66-.55,8.49-.6,3.66-.06,7.32-.03,10.97.18,3.03.17,5.5-.09,7-3.37.6-1.31,2.32-2.22,3.69-3.06,7.01-4.28,14.79-6.07,22.87-6.31,8.39-.25,16.8.15,25.2-.08,6.76-.18,13.52-.67,20.24-1.4,3.29-.36,6.62-1.22,9.87-3.63v.02s0,0,0,0ZM130.46,144.52c.86,1.76,1.19,3.08,2,3.95,1.18,1.27,2.57,2.5,4.11,3.27,8.45,4.28,16.74,9,25.52,12.49,36.87,14.64,75.3,19.83,114.79,17.73,2.97-.16,5.04.59,7.21,2.62,8.66,8.12,18.33,14.8,29.16,19.74,3.33,1.52,6.53,3.32,9.9,4.73,8.58,3.58,14.81,9.58,19.66,17.49,3.74,6.1,7.93,12.02,12.6,17.43,12.4,14.36,25.18,28.39,37.8,42.56,1.04,1.17,1.99,2.43,3.19,3.89-2.77,1.52-5.17,2.73-7.46,4.13-1.7,1.03-3.94,1.96-3.65,4.41.28,2.35,2.68,2.8,4.4,3.81,1.78,1.04,3.02.18,4.3-1.02,3.35-3.16,6.72-6.29,10.16-9.36,1.09-.98,2.35-1.99,4.36-.35-1.01,1.32-1.91,2.79-3.1,3.96-1.83,1.8-3.91,3.35-5.8,5.09-1.12,1.03-2.62,1.94-2.29,4.05,2.78.31,5.49.46,8.14.93,3.56.63,6.24-.51,8.63-3.17,1.8-2.01,3.88-3.82,6.05-5.41,2.12-1.55,4.49-2.89,7.64-1.54-2.08,4.1-6.92,5.17-9.17,9.25,6.3.09,12.07-.36,17.68-2.16,6.76-2.18,12.06-6.26,15.24-12.63,1.99-3.98,3.78-8.16,4.88-12.45,4.89-19.06,8.7-38.33,10.06-58.02,1.98-28.64-3.5-55.9-15.4-81.87-10.34-22.56-25.65-41.4-44.55-57.35-15.67-13.23-33-23.7-52.38-30.59-17.05-6.06-34.45-9.51-52.66-7.04-3.61.49-7.3.56-10.95.59-5.97.05-11.45-2.13-16.82-4.36-11.62-4.83-23.73-7.6-36.2-8.78-6.6-.62-13.25-.88-19.88-1.17-4.53-.2-5.07-.88-3.35-4.94.05-.12.12-.24.17-.37,1.75-4.38-.14-8.19-4.7-9.49-5.12-1.47-9.93,1.15-10.65,6.4-.65,4.73-3.17,7.9-6.66,10.7-6.39,5.12-13.45,8.62-21.77,9.09-4.95.28-8.46,2.79-10.64,7.06-1.21,2.38-2.28,4.95-2.78,7.56-.63,3.29-2.19,5.41-5.31,6.53-1.78.64-3.48,1.5-5.24,2.2-2.67,1.06-4.09,2.78-3.95,5.87.2,4.4-.39,8.68-3.86,11.8,1.88,3.61,3.78,5.6,7.23,7.07,7.04,2.98,14.25,2.96,21.48.73,5.81-1.79,10.62-4.77,12.5-11.08.38-1.28,1.4-2.08,2.84-1.58,1.71.59,1.66,1.93,1.13,3.34-1.62,4.28-4.62,7.27-8.7,9.22-1.07.51-2.18.91-3.26,1.36.02,2.64,1.87,3.77,3.38,5.03,6.73,5.59,14.38,9.67,22.36,13.13,6.98,3.03,14.08,5.64,21.7,6.6,4.45.56,8.59.14,12.35-2.69,1.38-1.04,2.94-2.29,5.89-1.84-1.49,1.63-2.42,2.86-3.56,3.86-6.67,5.88-14.59,9.24-23.13,11.33-8.32,2.04-16.78,3.1-25.32,3.53-10.29.51-20.56.79-30.72-1.75-3.66-.91-7.52-1.15-11.28-.14-.93.25-1.76.88-3.62,1.84,2.03.98,3.08,1.7,4.23,1.99,1.29.32,2.72.12,4.03.4,1.52.33,2.72,1.11,2.08,3.37-1.94-.21-3.79-.58-5.65-.57-3.22,0-6.52-.12-9.65.48-2.93.56-3.68,2.35-3.11,5.23,8.34-1.37,16.51.36,19.24,4.32-6.73.75-13.26-1.16-20.85-.44h-.02,0ZM95.79,131.79c-4.45.37-8.93.53-13.35,1.16-15.71,2.22-29.03,9.5-40.43,20.24-21.22,20-33.56,44.71-37.38,73.54-3.13,23.57,3.58,43.97,20.84,60.64,16.33,15.77,35.81,25.63,57.76,30.76,17.55,4.11,35.18,4.54,52.74.03,20.3-5.21,36.41-16.26,47.44-34.38,5.88-9.66,10.65-19.81,14.12-30.57,4.35-13.5,7.09-27.28,6.76-41.55-.21-9.18-1.49-18.1-6.58-26.08-.94-1.48-1.82-3.07-2.31-4.74-.65-2.21-1.95-3.29-4.09-3.98-8.65-2.76-17.25-5.64-25.86-8.51-11.48-3.83-22.57-8.49-32.7-15.21-5.35-3.55-6.4-6.27-4.96-12.39.86-3.66.4-4.53-3.36-5.29-9.44-1.92-18.95-3.32-28.63-3.66h-.01ZM248.9,275.96c3.48,4.79,7.32,5.95,12.11,3.7,2.32-1.09,4.45-2.62,6.8-3.63,2.33-1,4.8-1.8,7.29-2.29,1.62-.32,3.49-.3,5.17,1.82-1.88.74-3.41,1.41-4.99,1.96-2.42.85-4.91,1.51-7.29,2.46-1.52.6-2.97,1.51-2.29,3.85.65.2,1.38.54,2.15.66,5.62.86,11.23,2.02,16.88,2.41,4.95.34,10.01.14,14.95-.44,4.48-.53,9-2.22,11.83-5.76,3.65-4.55,8.23-7.81,12.77-11.18,9.62-7.16,19.79-13.29,31.59-16.23.48-.12.91-.46,1.53-.78-.71-2.88-2.63-4.88-4.42-6.8-6.3-6.77-11.93-14.02-16.44-22.11-2.19-3.92-5.51-6.67-9.46-8.65-10.01-5.02-20.05-9.98-30.66-15.26-2.08,2.27-4.55,4.92-6.96,7.61-8.54,9.52-16.11,19.69-21.49,31.4-2.03,4.42-4.52,8.64-6.74,12.98-2.05,3.99-4.89,7.07-9.15,8.81-1.74.71-3.41,1.71-4.92,2.83-3.31,2.46-3.97,6.11-1.72,9.7,1.16-.56,2.41-1.06,3.54-1.74,3.14-1.88,6.23-3.83,9.33-5.76,1.62-1.01,2.98-1.26,3.83,1.37-4.41,3.03-8.82,6.06-13.24,9.09v-.02h0ZM108.63,127.52c3.28,3.39,6.43,3.94,9.82,2.34,2.44-1.15,4.69-2.69,7.04-4.02,1.29-.73,2.59-1.48,3.97-2,.41-.16,1.37.3,1.59.72.21.39-.04,1.32-.41,1.67-.56.54-1.39.8-2.12,1.17-1.76.88-3.53,1.75-5.39,2.68,3.2,3.76,4.78,4.06,8.22,1.86.68-.44,1.39-.87,1.96-1.44,3.87-3.9,8.74-5.46,14.01-5.48,8.24-.03,16.53-.14,24.72.58,15.04,1.32,29.71-.16,44.14-4.43,1.09-.32,2.41-.46,2.49-1.82-6.53-2.21-12.95-4.29-19.3-6.56-3.49-1.24-6.68-1.16-9.43,1.49-4.1,3.96-9.18,4.92-14.57,5.05-2.7.06-5.41.15-8.12.06-7.84-.26-15.7-.42-23.52-.97-10.85-.76-20.94,1.74-30.61,6.41-1.41.68-2.7,1.6-4.5,2.7,0,0,.01-.01.01,0ZM188.39,13.96c-3.26-2.29-6.42-4.51-9.78-6.87-2.54,3.81-4.85,7.27-7.25,10.87-3.86-1.19-7.49-2.31-11.62-3.59.26,1.53.34,2.32.53,3.07,1.41,5.51,2.83,11.02,4.29,16.52.88,3.29,1.41,3.72,4.79,3.63,1.61-.04,3.25-.27,4.81-.65,5.3-1.31,10.22-3.54,14.86-6.41,2.5-1.55,4.41-3.5,5.57-6.25,1.11-2.62,2.21-5.29,3.73-7.67,2.67-4.22,1.37-7.82-1.15-11.92-3.02,3.18-5.79,6.1-8.79,9.27,0,0,0,0,0,0ZM470.04,217.42c1.1.15,1.62.32,2.12.28,7.13-.62,14.18-8.51,13.95-15.64-.07-2.39-.74-4.72-2.78-6.06-3.95-2.58-8.35-3.29-13.4-2.72,1.63,8.19,2.35,15.96.11,24.14h0Z" data-sg-fill="sg-fill-0" />
  <path d="M208.77,290.62c6.35.44,12.68,2.65,18.12,7.02,1.64,1.32,3.09,3.1,4.1,4.96,2.55,4.66,4.3,9.66,4.99,14.97.72,5.61-2.37,9.3-8.05,9.16-2.94-.07-5.97-.6-8.77-1.5-5.6-1.81-11.18-1.6-16.88-.89-3.21.4-6.5.58-9.72.38-5.48-.33-8.02-3.47-7.54-8.93.32-3.69,1.17-7.28,3.7-10.16,3.48-3.96,6.95-7.96,10.64-11.72,2.81-2.86,4.79-3.39,9.42-3.29h0ZM209.59,294.14c-3.52.13-6.27,1.51-8.57,3.73-3.01,2.92-6.12,5.79-8.76,9.04-1.46,1.8-2.51,4.23-2.92,6.53-1.06,5.86,1.74,8.87,7.69,8.37,3.35-.28,6.67-1.07,9.99-1.72,4.1-.8,8.03-.72,11.83,1.35,1.64.9,3.47,1.61,5.3,1.98,4.88.98,8.26-2.33,7.15-7.16-.75-3.27-1.74-6.59-3.24-9.56-3.84-7.58-10.27-11.63-18.45-12.56h-.02Z" data-sg-fill="sg-fill-0" />
  <path d="M257.17,327.99c-.64-.19-2.28-.43-3.68-1.16-2.59-1.34-3.41-3.75-2.56-6.56,1.07-3.54,5.01-6.76,8.67-7.08,2.98-.27,5.79,1.21,7.12,3.74,1.33,2.54.86,5.52-1.35,7.85-1.95,2.05-4.33,3.21-8.19,3.21h-.01ZM258.23,323.71c2.39-.05,4.21-1.14,4.81-2.73.83-2.19-.43-3.85-2.7-3.32-1.53.35-3.04,1.01-4.39,1.82-.67.4-1.42,1.51-1.31,2.17.11.68,1.16,1.3,1.91,1.73.54.31,1.29.27,1.68.34h0s0-.01,0-.01Z" data-sg-fill="sg-fill-0" />
  <path d="M361.09,102.72c-.77-6.96-6.2-13.71-12.03-15.46-2.98-.89-6.04-1.59-8.95-2.66-2.14-.78-4.29-1.78-6.1-3.14-3.01-2.26-4.36-5.37-3.54-9.29,6.86-1.79,12.35.56,17.2,5.01,1.6,1.46,2.99,3.18,4.7,4.48,2.49,1.89,5.31.47,5.29-2.69-.01-1.4-.49-3.04-1.32-4.15-2.01-2.7-4.37-5.14-6.56-7.7-1-1.17-2.84-2.13-1.39-4.06,1-1.34,2.48-1.17,4.44.82,2.18,2.21,4.33,4.51,6.08,7.05,3.41,4.95,3.57,10.1.08,15.17-.38.55-.7,1.13-1.24,2.01,1.47,1.73,2.9,3.48,4.4,5.17,2.51,2.82,3.7,6,2.63,9.74-.76,2.65.37,4.28,2.35,5.9,5.14,4.21,10.32,8.39,15.12,12.96,3.31,3.15,6.42,6.67,8.9,10.49,3.98,6.14,2.06,10.8-4.83,13.3-5.03,1.82-10.21,1.77-15.22.41-5.73-1.56-11.51-3.26-16.89-5.74-23.31-10.72-43.78-25.39-60.65-44.88-3.37-3.89-6.82-7.73-9.94-11.82-2.12-2.78-3.87-5.87-5.55-8.96-1.58-2.91-.64-5.48,1.68-7.68,2.6-2.46,5.82-3.67,9.23-3.59,3.88.09,7.76.83,11.63,1.38,1.16.16,2.27.61,4.3,1.18-.96-1.45-1.31-2.27-1.92-2.82-1.5-1.37-3.14-2.58-4.67-3.91-.92-.79-1.92-1.58-2.56-2.58-.77-1.2-1.91-2.78-.39-4,1.64-1.32,2.55.47,3.64,1.41,4.71,4.07,9.47,8.09,14.22,12.12,1.86,1.58,3.81,3.05,5.57,4.74.89.85,1.44,2.06,2.58,3.78-1.78-.13-2.71-.03-3.53-.29-3.36-1.04-6.66-2.3-10.04-3.27-4.29-1.24-8.59-2.48-12.96-3.34-3.81-.75-7.58.03-11.05,1.8-2.32,1.19-2.65,2.27-1.57,4.62.5,1.1,1.24,2.09,1.9,3.11,11.24,17.35,26.31,30.88,42.93,42.82,11.16,8.01,22.92,15.05,36.11,19.18,5,1.57,10.29,2.22,15.48,3.16,1.3.24,2.72.14,4.04-.08,4.74-.8,6.78-4.6,4.21-8.65-2.45-3.86-5.36-7.51-8.53-10.81-3.46-3.6-7.43-6.71-11.21-10-2.17-1.89-4.68-2.51-7.56-2.12-2.81.38-5.66.57-8.49.71-9.68.45-17.07-4.42-23.86-10.51-1.6-1.43-2.99-3.39-2.15-5.78.91-2.57,3.22-3.86,5.69-3.94,2.64-.08,5.49.17,7.92,1.12,4.02,1.56,7.78,3.79,11.65,5.74,3.35,1.68,6.52,3.81,10.75,4.56l-.02-.02h0ZM357.24,108.2c.77-2.38-.37-3.29-1.74-4.05-6.87-3.8-14.02-6.95-21.64-8.88-1.6-.4-3.35-.21-5.82-.33.65,2.03.76,3.6,1.56,4.59,1.16,1.42,2.68,2.72,4.31,3.57,6.3,3.27,13.02,5.16,20.15,5.41,1.04.04,2.09-.2,3.19-.31h-.01ZM334.47,74.71c1.15,4.88,8.7,9.36,14.43,8.42-3.96-4.57-7.99-7.88-14.43-8.42Z" data-sg-fill="sg-fill-0" />
  <path d="M187.18,55.05c-.8.35-1.63.7-2.57,1.11-.81-1.08-1.41-2.16-2.26-2.99-2.32-2.25-5.97-1.16-6.45,2.04-.28,1.87-.62,3.14-2.8,2.95-1.92-4.02-.61-7.64,3.3-9.2,4.94-1.97,9.07.3,10.76,6.08h.02Z" data-sg-fill="sg-fill-0" />
</g></svg>