<?xml version="1.0" encoding="utf-8"?>
<svg xmlns="http://www.w3.org/2000/svg" width="917" height="1002" viewBox="0 0 917 1002">
  <path fill-rule="evenodd" d="M 234.500 2.037 C 228.450 2.332, 222.754 2.927, 221.842 3.359 C 218.164 5.099, 217.507 9.640, 217.616 32.554 C 217.722 55.085, 218.157 57.943, 221.774 59.879 C 222.724 60.388, 230.702 61.125, 239.501 61.518 C 253.675 62.151, 255.757 62.467, 257.750 64.290 C 259.993 66.342, 260 66.451, 260 98.064 C 260 127.798, 259.881 129.926, 258.089 132.139 C 256.256 134.403, 255.495 134.523, 239.561 135.050 C 216.523 135.812, 218.001 134.016, 217.296 162.106 C 216.995 174.113, 217.169 185.036, 217.692 187 C 218.280 189.206, 219.836 191.317, 221.902 192.711 L 225.180 194.922 286.639 194.945 C 364.392 194.973, 367.466 194.534, 385.817 180.759 C 394.175 174.486, 399.601 167.756, 404.973 157 C 410.073 146.789, 411.602 141.677, 414.092 126.500 C 415.973 115.041, 416.156 111.010, 415.639 92.500 C 415.151 75.075, 414.622 69.627, 412.530 60.500 C 409.889 48.975, 403.854 35.042, 398.147 27.292 C 393.719 21.279, 382.660 12.455, 374.500 8.424 C 362.446 2.469, 357.753 2.057, 298.500 1.763 C 269.350 1.618, 240.550 1.742, 234.500 2.037 M 445.020 3.284 C 440.249 5.698, 439.922 7.714, 440.222 32.838 L 440.500 56.176 443.306 58.588 C 445.791 60.724, 447.106 61.007, 454.806 61.060 C 465.870 61.135, 472.687 62.258, 474.778 64.350 C 476.304 65.875, 476.305 66.422, 474.802 71.748 C 473.008 78.102, 463.202 106.208, 457.643 120.931 C 452.993 133.247, 452.052 134.126, 442.846 134.755 C 434.128 135.351, 432.584 136.029, 430.260 140.280 C 428.718 143.100, 428.518 146.200, 428.643 165.256 C 428.722 177.222, 429.066 188.126, 429.408 189.488 C 430.650 194.437, 433.768 195.002, 459.700 194.976 C 472.790 194.963, 485.251 194.546, 487.391 194.050 C 494.484 192.404, 494.466 192.467, 494.789 168.216 C 495.201 137.351, 494.265 135.046, 481.321 135.015 C 471.014 134.990, 469.792 131.461, 475.067 116.941 C 481.261 99.890, 479.025 100.617, 522.418 101.553 L 556.466 102.287 558.983 104.990 C 561.473 107.664, 568 125.534, 568 129.679 C 568 132.810, 565.726 134.104, 558.686 134.977 C 546.109 136.537, 545.736 137.527, 546.181 168.202 C 546.493 189.677, 546.552 190.222, 548.776 192.021 C 552.056 194.675, 558.642 195.196, 584.229 194.828 L 606.958 194.500 609.474 191.982 L 611.990 189.464 612.077 165.959 C 612.166 141.816, 611.644 137.926, 608.115 136.422 C 607.227 136.043, 602.498 135.418, 597.607 135.032 C 590.828 134.497, 588.408 133.912, 587.426 132.568 C 585.485 129.914, 578.469 112.737, 574.940 102 C 572.015 93.101, 569.351 85.765, 556.785 52 C 554.022 44.575, 550.158 35.413, 548.199 31.641 C 543.338 22.278, 533.400 12.280, 525 8.299 C 511.963 2.122, 511.041 1.999, 477.866 2.015 C 455.519 2.026, 446.845 2.361, 445.020 3.284 M 632.862 3.910 C 630.797 5.583, 630.421 6.983, 629.846 15.160 C 629.484 20.297, 629.146 30.453, 629.094 37.730 C 628.986 52.931, 630.332 58.126, 634.822 59.838 C 636.295 60.399, 644.038 61.046, 652.030 61.276 C 667.763 61.728, 670.546 62.506, 671.730 66.779 C 672.145 68.275, 672.488 83.377, 672.492 100.338 L 672.500 131.176 670.139 133.088 C 668.039 134.789, 666.047 135, 652.078 135 C 637.520 135, 636.213 135.153, 634.127 137.096 C 632.890 138.249, 631.455 140.303, 630.939 141.661 C 630.422 143.019, 630 154.160, 630 166.419 C 630 188.538, 630.018 188.728, 632.391 191.288 C 633.707 192.707, 636.316 194.156, 638.191 194.508 C 640.065 194.860, 667.226 194.952, 698.549 194.714 C 744.123 194.367, 756.705 193.987, 761.531 192.810 C 778.133 188.761, 794.660 175.138, 803.154 158.500 C 808.951 147.147, 810.580 142.095, 813.024 127.900 C 815.572 113.100, 815.761 83.829, 813.398 69.926 C 806.989 32.220, 788.915 10.283, 759.071 3.989 C 750.290 2.137, 745.706 2, 692.431 2 C 637.607 2, 635.123 2.080, 632.862 3.910 M 288.500 61.700 C 278.948 62.121, 277.522 62.559, 276.192 65.478 C 274.457 69.285, 274.463 126.108, 276.199 129.728 C 278.745 135.039, 279.212 135.089, 322 134.678 C 364.785 134.267, 368.955 133.825, 381 128.419 C 387.314 125.586, 394.450 118.898, 397.545 112.913 C 400.178 107.821, 400.748 92.769, 398.558 86.175 C 395.194 76.046, 384.903 67.666, 371.913 64.479 C 362.876 62.262, 313.261 60.609, 288.500 61.700 M 501.812 61.854 C 499.233 62.252, 496.205 63.409, 495.083 64.425 C 492.749 66.537, 489.580 74.531, 488.639 80.677 C 488.087 84.284, 488.319 85.106, 490.338 86.694 C 492.481 88.379, 494.948 88.531, 519.751 88.501 C 544.865 88.470, 546.977 88.331, 548.913 86.579 C 551.678 84.076, 551.554 80.405, 548.441 72.630 C 544.133 61.867, 544.025 61.818, 523.810 61.447 C 514.290 61.272, 504.390 61.455, 501.812 61.854 M 695.209 62.059 C 688.222 63.556, 688.313 63.192, 687.503 92.901 C 686.718 121.652, 687.166 128.748, 689.984 132.228 C 691.594 134.216, 692.995 134.506, 703.639 135.049 C 720.331 135.900, 759.005 134.445, 767.657 132.640 C 776.981 130.694, 784.803 126.927, 790.008 121.876 C 796.104 115.960, 798.292 110.326, 798.810 99.211 C 799.348 87.650, 797.663 82.638, 790.795 75.377 C 780.461 64.450, 768.121 61.792, 726.500 61.531 C 711.100 61.434, 697.019 61.671, 695.209 62.059 M 140.526 96.182 C 122.225 116.538, 113.996 157.165, 120.004 197.500 C 123.627 221.822, 130.679 243.448, 142.980 267.961 C 160.748 303.366, 183.586 330.522, 209.870 347.493 C 219.365 353.624, 239.427 363.213, 249.569 366.469 C 253.931 367.869, 264.025 370.526, 272 372.375 L 286.500 375.736 286.792 390.140 L 287.084 404.544 279.995 409.933 C 271.197 416.622, 270.383 417.771, 263.600 433.084 C 257.339 447.222, 256.003 453.776, 256.886 466.046 C 257.510 474.733, 259.371 479.438, 262.686 480.710 C 264.461 481.391, 265.133 480.630, 274.572 467.250 C 282.682 455.754, 285.197 454.953, 280.850 465.250 C 277.358 473.524, 276.071 475.350, 265.653 486.811 C 252.610 501.160, 210.120 557.813, 203.678 569.443 C 172.096 626.465, 172.374 626.025, 158.883 640.500 C 154.269 645.450, 146.904 653.550, 142.516 658.500 C 138.127 663.450, 130.006 672.225, 124.468 678 C 118.930 683.775, 112.199 691.425, 109.510 695 C 106.822 698.575, 102.952 703.077, 100.910 705.005 C 93.547 711.957, 91.122 729.848, 96.220 739.605 C 102.096 750.853, 112.894 749.745, 131.524 735.982 C 134.489 733.792, 137.206 732, 137.562 732 C 137.919 732, 137.921 733.913, 137.568 736.250 C 137.214 738.587, 136.674 746.149, 136.367 753.054 C 135.726 767.480, 136.920 772.259, 141.611 774.042 C 143.924 774.922, 145.635 774.449, 153.385 770.786 C 158.372 768.429, 164.380 765.038, 166.735 763.250 C 171.850 759.368, 172.320 759.313, 174.322 762.368 C 176.924 766.340, 187.691 770, 196.761 769.997 C 213.937 769.991, 232.656 765.805, 246.049 758.976 C 255.350 754.233, 272.570 739.895, 297.500 716.135 C 311.416 702.872, 317.508 699.046, 328.324 696.778 C 332.747 695.850, 335.289 695.866, 340.066 696.853 C 353.378 699.602, 364.022 703.276, 375 708.909 L 386.500 714.810 387 725.655 C 387.604 738.764, 389.189 742.179, 396.545 746.227 C 402.367 749.430, 403.785 749.528, 413.256 747.374 C 418.551 746.169, 421.189 744.965, 423.421 742.733 C 426.134 740.020, 427.136 739.695, 433.467 739.480 C 446.992 739.020, 451.408 737.036, 455.127 729.750 C 456.879 726.316, 457.397 725.998, 461.270 725.981 C 463.597 725.970, 467.750 725.379, 470.500 724.668 C 474.496 723.634, 476.102 722.546, 478.500 719.248 C 481.481 715.148, 481.541 715.122, 488.110 715.061 C 493.280 715.013, 495.460 714.501, 498.110 712.709 C 499.975 711.449, 504.549 709.596, 508.276 708.591 C 517.487 706.107, 518.014 705.176, 517.940 691.527 C 517.908 685.462, 517.514 678.262, 517.065 675.526 C 516.028 669.207, 517.593 648.204, 519.637 641.009 C 521.523 634.367, 526.446 624.580, 533.977 612.500 C 546.263 592.792, 551.731 578.640, 552.844 563.669 L 553.500 554.839 558.500 553.075 C 571.840 548.369, 581.925 540.265, 590 527.763 C 595.105 519.858, 595.823 519.168, 600 518.147 C 602.475 517.543, 605.513 516.760, 606.750 516.407 C 609.855 515.523, 609.705 517.140, 605.527 529.625 C 600.531 544.555, 589.155 570.773, 578.895 591 C 570.728 607.102, 569.893 609.299, 568.445 618.500 C 567.580 624, 565.976 632.550, 564.881 637.500 C 563.786 642.450, 562.422 651.900, 561.849 658.500 L 560.807 670.500 552.476 688.500 C 542.278 710.534, 540.816 714.209, 535.957 730 C 529.517 750.933, 528.370 764.437, 532.633 769.147 C 537.311 774.317, 541.342 768.541, 545.994 750 C 547.720 743.125, 550.945 733.225, 553.161 728 C 560.105 711.630, 574.696 682.900, 581.067 673.055 C 591.560 656.840, 595.476 652.953, 618.500 635.904 C 636.405 622.646, 660.695 597.677, 666.763 586.293 C 669.124 581.864, 670.873 575.891, 673.402 563.617 C 677.154 545.415, 678.671 541.919, 686.687 533.003 C 694.164 524.687, 699.928 520.670, 711.145 515.959 C 720.776 511.914, 722.138 510.975, 730.615 502.530 C 744.308 488.889, 746.897 482.398, 742.352 473.108 L 739.672 467.630 742.086 466.065 C 746.873 462.962, 753.207 456.515, 755.084 452.835 C 756.285 450.481, 757 447.025, 757 443.575 C 757 438.828, 756.567 437.576, 753.856 434.489 L 750.713 430.909 753.227 428.205 C 757.228 423.900, 758.841 420.839, 760.031 415.289 C 760.966 410.931, 760.879 409.547, 759.486 406.611 C 756.764 400.875, 750.509 398.099, 744.342 399.891 C 741.558 400.699, 741.114 400.552, 740.605 398.654 C 740.287 397.469, 740.021 395.008, 740.014 393.184 C 739.997 389.175, 738.444 386, 736.500 386 C 734.460 386, 733.307 388.656, 732.486 395.250 C 732.092 398.413, 731.607 401, 731.409 401 C 731.211 401, 729.575 400.102, 727.774 399.004 C 720.931 394.831, 711.973 397.457, 707.619 404.912 C 706.018 407.654, 705.665 409.922, 705.807 416.546 L 705.984 424.775 702.581 427.370 C 697.297 431.401, 695.593 437.098, 696.271 448.470 L 696.833 457.890 693.477 460.450 C 691.535 461.931, 688.726 465.842, 686.810 469.732 L 683.500 476.455 683.311 493.835 C 683.129 510.691, 683.046 511.325, 680.576 514.858 C 676.615 520.523, 671.834 525.239, 670.976 524.327 C 670.548 523.872, 668.103 519.675, 665.542 515 C 659.763 504.450, 658.654 503.212, 656.550 504.958 C 654.265 506.855, 654.635 511.009, 658.404 525.797 L 661.792 539.093 659.191 542.297 C 657.761 544.058, 653.403 549.100, 649.507 553.500 C 645.611 557.900, 640.869 563.525, 638.970 566 C 637.070 568.475, 629.887 576.970, 623.008 584.879 C 604.904 605.691, 598.619 613.473, 592.474 622.686 C 585.577 633.028, 584.483 633.788, 585.324 627.653 C 586.142 621.687, 588.676 616.771, 597 605 C 618.661 574.369, 626.239 560.697, 635.904 534.808 C 640.911 521.395, 644.101 508.595, 645.977 494.384 C 646.716 488.787, 648.084 485.050, 652.383 476.884 C 659.511 463.343, 664.519 448.661, 666.017 436.917 C 667.543 424.954, 665.901 414.711, 660.067 399.789 C 657.830 394.069, 656 389.143, 656 388.844 C 656 388.544, 660.838 388.022, 666.750 387.683 C 702.077 385.657, 746.296 366.444, 784.622 336.467 C 801.828 323.010, 827.396 297.650, 840.862 280.687 C 869.027 245.206, 884.468 214.880, 892.127 180 C 895.165 166.166, 895.475 141.087, 892.733 131 C 889.896 120.564, 884.983 109.194, 881.873 105.864 C 879.308 103.119, 878.579 102.856, 875.246 103.474 C 869.478 104.544, 868.277 106.225, 867.498 114.319 C 864.260 147.942, 845.431 182.728, 813.114 214.796 C 795.060 232.711, 769.408 251.388, 748.401 261.912 C 715.579 278.355, 682.960 287.272, 650.500 288.674 L 636.500 289.279 632.069 285.568 C 623.705 278.561, 621.124 277.760, 604.047 276.865 C 588.729 276.062, 588.525 276.020, 580.547 272.063 C 576.121 269.868, 567.404 265.181, 561.175 261.649 C 546.565 253.364, 541.197 251.699, 529.064 251.690 C 513.651 251.678, 490.205 258.917, 477.179 267.708 C 467.083 274.521, 455.956 279.064, 445.525 280.630 C 440.170 281.435, 427.961 281.994, 415.500 282.005 L 394.500 282.024 386.500 285.648 C 382.100 287.641, 376.925 289.464, 375 289.700 C 369.749 290.342, 311.045 283.252, 299 280.522 C 255.233 270.599, 210.769 243.088, 186.562 210.953 C 177.239 198.576, 173.232 191.716, 167.100 177.633 C 157.396 155.344, 154.130 140.126, 153.049 112.152 C 152.474 97.278, 151.977 92.599, 150.900 91.917 C 147.812 89.962, 145.126 91.066, 140.526 96.182 M 511.578 268.252 C 506.641 269.534, 497.409 273.495, 487.078 278.763 C 458.458 293.358, 454.486 294.374, 419.500 296.053 C 398.967 297.038, 395.642 297.443, 388.500 299.828 L 380.500 302.500 373 317.237 C 368.875 325.343, 364.481 333.322, 363.235 334.968 C 357.044 343.146, 336.101 356.468, 318.490 363.430 C 311.637 366.139, 306.743 370.952, 303.506 378.166 C 300.902 383.969, 300.766 384.951, 301.319 393.927 C 301.942 404.019, 305.804 420.566, 307.500 420.406 C 308.433 420.318, 315.754 407.498, 324.888 389.954 C 327.049 385.804, 330.453 380.450, 332.453 378.056 C 334.453 375.663, 337.243 371.735, 338.653 369.329 C 341.539 364.405, 344.148 362.595, 347.038 363.512 C 349.593 364.323, 349.531 366.156, 346.488 379.666 C 343.297 393.828, 342.154 397.008, 336.195 408.286 C 325.470 428.585, 315.919 443.719, 297.563 469.500 C 286.989 484.350, 274.056 502.575, 268.821 510 C 263.587 517.425, 256.744 527.100, 253.614 531.500 C 241.226 548.914, 225.864 572.240, 220.929 581.128 C 218.070 586.277, 212.636 595.061, 208.853 600.648 C 201.426 611.618, 197.724 619.124, 195.468 627.784 C 193.615 634.899, 194.323 637.451, 198.732 639.543 C 205.500 642.755, 208.936 642.558, 217.063 638.494 C 229.036 632.507, 240.685 625.183, 253.134 615.814 C 265.423 606.567, 273.036 598.924, 283.829 585 C 287.453 580.325, 293.974 572.499, 298.320 567.609 C 305.739 559.263, 307.045 557.039, 319.648 531.289 C 345.415 478.643, 358.198 462.143, 391.255 438.858 C 408.621 426.626, 415 424.317, 415 430.263 C 415 432.016, 412.963 434.097, 406.728 438.715 C 391.664 449.872, 376.190 463.811, 370.619 471.240 C 358.492 487.413, 344.145 513.611, 338.462 529.959 C 333.621 543.883, 321.225 572.734, 313.943 587.026 C 302.476 609.530, 274.235 653.271, 257.143 675 C 250.005 684.075, 240.620 696.225, 236.287 702 C 229.684 710.801, 224.858 715.591, 206.455 731.605 C 193.118 743.210, 184.377 751.530, 184.188 752.799 C 183.722 755.915, 190.238 757.482, 203.500 757.444 C 214.035 757.413, 214.926 757.239, 224.583 753.314 C 247.142 744.146, 249.083 742.696, 282.889 709.762 C 294.102 698.838, 304.929 689.056, 306.948 688.026 C 315.737 683.543, 330.976 681.719, 340.500 684.010 C 342.700 684.540, 347.331 685.440, 350.791 686.012 C 359.410 687.436, 364.267 689.178, 380.331 696.605 C 395.694 703.708, 398.331 704.138, 407.260 701 C 410.389 699.900, 414.821 699, 417.107 699 C 419.492 699, 422.617 698.164, 424.439 697.037 C 426.186 695.958, 430.256 694.387, 433.484 693.546 C 436.711 692.706, 440.315 691.113, 441.492 690.007 C 442.669 688.901, 447.428 687.040, 452.066 685.871 C 458.473 684.256, 461.582 682.851, 465 680.023 C 472.665 673.683, 477.105 671.345, 488.704 667.540 C 501.014 663.502, 500.501 664.045, 501.507 654 C 502.424 644.848, 505.885 630.233, 508.256 625.500 C 509.359 623.300, 513.108 616.688, 516.589 610.808 C 528.842 590.104, 530.724 585.548, 533.572 569.702 C 535.088 561.264, 535.136 559.726, 533.916 558.626 C 532.804 557.622, 526.602 557.480, 505 557.960 L 477.500 558.572 472.144 561.357 C 465.653 564.731, 459.075 571.291, 456.536 576.920 C 453.859 582.856, 451.459 582.110, 451.624 575.395 C 451.798 568.371, 454.933 561.977, 461.706 554.832 C 472.385 543.569, 483.629 540.254, 506.879 541.514 C 544.715 543.564, 558.344 540.496, 571.982 526.858 C 578.501 520.339, 585.170 508.404, 586.897 500.163 C 588.329 493.335, 591 465.564, 591 457.511 C 591 447.934, 596.324 422.811, 599.876 415.625 C 604.812 405.640, 612.880 398.919, 614.588 403.369 C 614.877 404.121, 613.968 409.143, 612.568 414.528 C 610.495 422.504, 609.739 429.154, 608.489 450.409 C 607.645 464.759, 606.232 480.550, 605.350 485.500 C 604.468 490.450, 603.527 495.738, 603.260 497.250 C 602.593 501.019, 604.728 500.850, 610.172 496.705 C 614.384 493.498, 614.561 493.129, 616.788 482.955 C 618.883 473.384, 619.039 470.669, 618.635 450.853 C 618.329 435.854, 618.532 428.868, 619.297 428.103 C 621.086 426.314, 625.448 426.837, 627.916 429.136 C 630.854 431.874, 636.455 443.521, 639.124 452.446 C 641.534 460.504, 641.752 460.336, 645.456 447.556 C 649.157 434.783, 648.543 418.911, 643.861 406.369 C 640.580 397.581, 625.959 386.041, 618.066 386.010 C 607.408 385.967, 592.534 403.770, 589.976 419.631 C 585.802 445.518, 584.452 452.346, 581.831 460.829 C 580.188 466.148, 577.801 472.106, 576.528 474.068 C 575.255 476.030, 572.856 480.305, 571.197 483.568 C 567.117 491.593, 562.004 496.469, 558.572 495.607 C 556.712 495.141, 556 494.304, 556 492.585 C 556 491.278, 559.634 482.929, 564.076 474.032 C 574.027 454.099, 576.397 445.491, 578.003 423.432 C 578.756 413.084, 579.821 405.625, 581.040 402.152 C 585.133 390.492, 593.595 381.020, 603.516 376.993 C 606.532 375.769, 609 374.417, 609 373.989 C 609 373.560, 607.650 370.037, 606 366.160 C 603.092 359.327, 603 358.625, 603 343.369 C 603 326.095, 604.229 318.940, 608.987 308.500 C 610.491 305.200, 613.134 300.751, 614.861 298.612 C 616.587 296.474, 618 294.403, 618 294.010 C 618 293.617, 610.688 293.045, 601.750 292.738 C 580.471 292.008, 574.433 290.173, 558.765 279.673 C 542.037 268.463, 536.226 265.979, 527 266.098 C 522.875 266.151, 515.935 267.120, 511.578 268.252 M 499.200 293.050 C 494.783 294.822, 487.434 300.492, 478.892 308.720 C 472.400 314.973, 468.267 317.997, 462.079 321.021 C 451.138 326.368, 445.732 331.939, 439.005 344.802 C 434.080 354.221, 433.160 355.366, 427.995 358.503 C 417.241 365.036, 408.162 376.751, 405.330 387.750 C 404.283 391.816, 402.731 394.672, 400.033 397.500 C 395.298 402.464, 393.146 406.654, 392.350 412.463 C 391.403 419.375, 393.740 419.487, 400.784 412.870 C 403.928 409.916, 407.986 406.375, 409.802 405 C 412.310 403.101, 414.065 400.097, 417.105 392.500 C 421.891 380.539, 423.795 377.604, 429.750 373 C 443.479 362.387, 444.599 361.240, 450 352.255 C 456.847 340.863, 459.468 338.082, 469.500 331.563 C 475.082 327.936, 480.976 322.637, 489 314.036 C 498.607 303.738, 501.529 301.237, 506.750 298.844 C 510.188 297.269, 513 295.625, 513 295.190 C 513 292.226, 504.528 290.912, 499.200 293.050 M 134.500 364.556 C 129 365.889, 121.350 367.259, 117.500 367.600 C 108.592 368.388, 101.106 371.684, 97.508 376.400 C 93.659 381.448, 93.230 387.458, 93.683 430.022 L 94.061 465.454 96.706 468.215 C 100.486 472.161, 104.373 472.502, 118.769 470.149 C 125.771 469.005, 135.041 467.564, 139.370 466.948 C 148.973 465.580, 153.973 463.885, 158.426 460.489 C 165.251 455.283, 165.286 455.038, 165.486 411.026 C 165.629 379.575, 165.390 370.942, 164.316 368.767 C 161.087 362.230, 150.351 360.714, 134.500 364.556 M 59 377.647 C 57.625 377.877, 51.100 379.173, 44.500 380.527 C 37.900 381.881, 27.325 383.685, 21 384.535 C 1.933 387.099, 1.396 387.491, 1.866 398.500 C 2.302 408.704, 1.739 408.250, 12.958 407.454 C 19.457 406.994, 22.953 407.115, 23.386 407.815 C 23.744 408.395, 24.218 424.761, 24.439 444.185 C 24.660 463.608, 24.877 480.962, 24.920 482.750 C 24.992 485.690, 25.292 486, 28.053 486 C 31.641 486, 44.722 483.167, 47.256 481.842 C 48.885 480.990, 49.008 478.213, 48.949 443.502 C 48.908 419.081, 49.252 405.397, 49.940 404.112 C 50.924 402.274, 53.792 401.171, 65.740 398.040 C 70.710 396.737, 71.335 395.252, 71.435 384.500 L 71.500 377.500 66.500 377.364 C 63.750 377.290, 60.375 377.417, 59 377.647 M 129.063 387.573 C 117.307 389.717, 117.875 388.115, 117.928 418.967 C 117.960 438.308, 118.299 445.655, 119.207 446.750 C 120.871 448.755, 131.451 447.920, 136.667 445.372 L 140.500 443.500 140.766 417.358 C 141.029 391.574, 140.484 385.878, 137.775 386.108 C 137.074 386.168, 133.153 386.827, 129.063 387.573 M 516 387.546 C 512.975 388.381, 506.776 390.902, 502.226 393.149 C 490.997 398.693, 481.428 407.858, 467.420 426.481 C 455.601 442.194, 442.834 454.735, 427.698 465.500 C 419.499 471.331, 418.010 473.225, 419.640 475.750 C 421.346 478.392, 431.486 477.842, 438.242 474.740 C 447.436 470.519, 464.805 455.073, 476.005 441.159 L 479.500 436.818 479.627 450.159 C 479.736 461.638, 480.119 464.617, 482.375 471.500 C 486.057 482.737, 488.580 486.659, 496.010 492.691 C 504.683 499.734, 509.718 501.345, 521.354 500.803 C 536.692 500.089, 542.864 496.043, 555.211 478.612 C 566.820 462.222, 569.579 453.423, 568.730 435.500 C 568.015 420.396, 564.723 410.175, 557.956 402.043 C 553.840 397.097, 551.376 395.281, 543.430 391.336 C 532.460 385.890, 525.490 384.927, 516 387.546 M 742.301 411.268 C 740.619 412.027, 739.727 413.907, 738.510 419.256 C 737.635 423.104, 737.136 426.469, 737.402 426.735 C 738.313 427.646, 743.859 422.964, 746.030 419.451 C 749.496 413.843, 747.295 409.014, 742.301 411.268 M 719.073 413.635 C 716.561 416.828, 716.299 423.743, 718.526 428.050 C 720.859 432.563, 722.585 431.686, 724.908 424.806 C 727.476 417.202, 727.528 414.788, 725.171 412.655 C 722.658 410.380, 721.484 410.569, 719.073 413.635 M 709 440 C 707.660 441.340, 707.032 443.238, 707.096 445.750 C 707.227 450.879, 709.279 459.265, 710.500 459.665 C 711.317 459.933, 714.641 452.949, 717.515 444.926 C 718.066 443.389, 713.669 438, 711.864 438 C 711.389 438, 710.100 438.900, 709 440 M 735.767 444.255 C 732.828 446.669, 727.687 458.907, 728.201 462.267 C 728.443 463.849, 730.082 462.685, 736.750 456.194 C 741.314 451.751, 745 447.322, 745 446.281 C 745 441.743, 740.127 440.673, 735.767 444.255 M 542.251 455.017 C 536.495 465.479, 528.557 472.066, 519.336 474.029 C 514.770 475.002, 513.705 474.890, 510.126 473.064 C 498.389 467.076, 496.830 474.874, 508.219 482.606 C 516.402 488.160, 527.008 488.153, 534.339 482.586 C 540.330 478.037, 546.209 466.257, 546.376 458.468 C 546.522 451.660, 544.862 450.271, 542.251 455.017 M 698.710 469.768 C 695.158 473.693, 693.044 480.375, 693.022 487.750 C 693.010 491.738, 693.337 494.991, 693.750 494.980 C 694.904 494.948, 705 475.310, 705 473.097 C 705 471.160, 702.572 468, 701.084 468 C 700.658 468, 699.590 468.796, 698.710 469.768 M 629.023 472.957 C 628.469 473.992, 627.540 480.388, 626.958 487.170 C 625.418 505.107, 619.278 530.415, 612.062 548.559 C 610.325 552.926, 604.899 563.701, 600.004 572.503 C 591.156 588.414, 587.529 595.863, 588.271 596.604 C 589.784 598.118, 606.698 572.673, 613.467 558.699 C 624.665 535.583, 631.974 508.008, 632.762 485.904 C 633.184 474.049, 633.041 472.230, 631.639 471.692 C 630.635 471.306, 629.652 471.782, 629.023 472.957 M 722.473 478.388 C 720.183 479.999, 711.293 497.626, 712.275 498.608 C 713.637 499.970, 719.676 496.413, 724.727 491.275 C 730.071 485.839, 732.515 480.537, 730.730 478.250 C 729.432 476.586, 724.927 476.661, 722.473 478.388 M 780.526 493.972 C 779.544 495.056, 777.483 500.178, 775.944 505.354 C 771.843 519.146, 764.732 535.916, 757.392 549.105 C 750.592 561.321, 744.080 575.981, 739.340 589.743 C 736.337 598.463, 736.504 600.191, 740.567 602.433 C 741.630 603.020, 742.796 603.910, 743.159 604.411 C 743.555 604.960, 745.517 604.960, 748.087 604.411 C 752.104 603.554, 752.564 603.087, 755.876 596.500 C 759.600 589.095, 763.824 584.542, 786.499 563.500 C 803.797 547.448, 819.430 529.922, 822.972 522.612 C 828.515 511.171, 830.438 498, 826.564 498 C 825.795 498, 822.695 501.488, 819.675 505.750 C 814.398 513.198, 777.590 550.923, 776.583 549.917 C 776.314 549.647, 777.231 546.293, 778.622 542.463 C 782.226 532.538, 786.817 513.098, 787.601 504.445 C 788.144 498.451, 787.958 496.585, 786.612 494.531 C 784.619 491.488, 782.915 491.332, 780.526 493.972 M 149.065 515.250 C 148.574 516.487, 145.903 524.700, 143.130 533.500 C 137.419 551.624, 134.014 557.959, 123.357 570.294 C 113.769 581.391, 104.689 593.529, 93.744 609.882 C 84.101 624.290, 81.193 625.851, 87.659 613.149 C 115.648 558.167, 115.103 559.530, 115.776 542.750 C 116.182 532.615, 116.034 531, 114.701 531 C 113.107 531, 112.661 532.092, 108.989 545 C 107.807 549.154, 103.593 558.522, 99.542 566 C 95.520 573.425, 90.584 582.788, 88.573 586.808 C 86.562 590.827, 82.082 598.927, 78.617 604.808 C 75.152 610.688, 70.355 619.220, 67.957 623.766 C 65.306 628.793, 63.335 631.536, 62.928 630.766 C 62.559 630.070, 61.692 627.025, 61.001 624 C 60.310 620.975, 56.249 609.050, 51.976 597.500 C 40.711 567.043, 39.071 561.227, 37.875 547.500 C 36.526 532.015, 36.374 531.331, 34.153 530.750 C 28.615 529.302, 26.573 536.106, 27.261 553.712 L 27.760 566.500 37.437 595.500 C 42.759 611.450, 48.912 631.370, 51.110 639.766 L 55.107 655.031 53.331 662.937 C 52.353 667.285, 51.242 670.650, 50.862 670.415 C 50.482 670.180, 47.411 664.778, 44.038 658.411 C 40.665 652.044, 35.381 642.934, 32.297 638.167 C 23.074 623.914, 20.405 616.382, 18.496 599.220 C 17.348 588.910, 12.764 586.961, 11.641 596.306 C 10.300 607.473, 10.944 618.270, 13.525 627.907 C 16.605 639.404, 18.176 642.991, 25.169 654.500 C 39.172 677.547, 53 705.417, 53 710.596 C 53 712.712, 55.011 713.298, 56.813 711.707 C 57.741 710.888, 60.418 709.903, 62.763 709.519 C 65.167 709.125, 67.399 708.096, 67.882 707.160 C 68.352 706.247, 69.505 700.325, 70.445 694 C 73.871 670.923, 75.248 667.647, 89.803 647.913 C 116.544 611.661, 141.676 571.984, 148.821 554.742 C 151.377 548.575, 151.999 545.255, 153.014 532.378 C 153.908 521.045, 153.922 516.722, 153.068 515.128 C 151.599 512.383, 150.185 512.426, 149.065 515.250 M 371.200 518.200 C 369.293 520.107, 369.798 523.490, 372.411 526.309 C 375.641 529.794, 384.579 535.406, 389.414 536.985 C 395.283 538.902, 407.651 537.774, 414.195 534.726 C 421.942 531.117, 428.193 524.321, 425.250 522.707 C 424.837 522.481, 420.450 523.129, 415.500 524.148 C 401.750 526.977, 387.294 525.315, 378.912 519.941 C 373.802 516.664, 372.932 516.468, 371.200 518.200 M 441.402 535.824 C 422.694 546.228, 384.045 584.563, 384.010 592.750 C 384.004 593.987, 384.311 595, 384.692 595 C 386.951 595, 399.741 586.071, 407 579.427 C 430.218 558.173, 452.060 536.547, 451.783 535.086 C 451.291 532.485, 446.836 532.802, 441.402 535.824 M 651.840 574.250 C 647.298 579.888, 640.328 588.100, 636.351 592.500 C 628.526 601.156, 609.019 625.990, 609.007 627.310 C 609.003 627.755, 612.290 625.845, 616.311 623.066 C 626.971 615.696, 653.714 588.135, 657.829 580.278 C 661.183 573.874, 663.221 564, 661.188 564 C 660.589 564, 656.382 568.612, 651.840 574.250 M 482.389 605.832 C 479.578 606.804, 472.444 610.501, 466.535 614.049 C 457.331 619.576, 454.053 622.330, 443.646 633.279 C 426.535 651.280, 418.082 656.793, 405 658.481 C 398.188 659.360, 395 661.268, 395 664.466 C 395 672.072, 411.518 671.779, 427.257 663.894 C 439.476 657.773, 447.729 651.382, 465.151 634.552 C 474.859 625.173, 485.425 615.195, 488.630 612.378 C 493.743 607.885, 494.292 607.057, 493.106 605.628 C 491.393 603.564, 488.808 603.613, 482.389 605.832 M 894.235 613.037 C 892.989 613.537, 884.439 615.106, 875.235 616.522 C 849.802 620.436, 843.006 621.750, 841.426 623.061 C 840.196 624.083, 840.020 631.613, 840.241 673.880 L 840.500 723.500 844.500 723.828 C 849.378 724.228, 866.959 721.624, 880.500 718.496 C 886 717.226, 892.911 715.871, 895.859 715.485 C 903.623 714.467, 905 712.685, 905 703.655 C 905 697.722, 904.637 695.981, 903.110 694.599 C 901.373 693.028, 900.742 693.009, 895.360 694.370 C 892.137 695.185, 884.895 696.569, 879.266 697.444 C 865.687 699.557, 864.048 698.585, 864.014 688.405 C 863.994 682.597, 866.051 681.206, 878.156 678.836 C 890.543 676.411, 892 675.220, 892 667.514 C 892 664.619, 891.719 660.844, 891.375 659.125 C 890.632 655.412, 889.651 655.303, 877.068 657.528 C 868.212 659.094, 865.547 658.868, 864.629 656.475 C 863.781 654.265, 865.139 642.192, 866.435 640.420 C 867.220 639.347, 872.436 638.063, 883.040 636.333 C 891.543 634.945, 899.513 633.167, 900.750 632.382 C 902.773 631.098, 903 630.157, 903 623.048 C 903 612.739, 900.912 610.354, 894.235 613.037 M 800.608 629.431 C 789.939 631.102, 789.813 631.315, 790.169 647.079 C 790.498 661.601, 789.774 663.551, 782.735 667.124 C 780.406 668.306, 777.228 670.337, 775.673 671.637 C 772.382 674.389, 769.205 674.699, 768.306 672.356 C 767.959 671.451, 767.636 663.014, 767.588 653.606 L 767.500 636.500 764.500 636.232 C 762.850 636.085, 758.129 636.535, 754.010 637.232 C 747.448 638.343, 746.359 638.835, 745.229 641.199 C 744.237 643.276, 743.913 654.888, 743.827 691.521 C 743.729 732.845, 743.915 739.344, 745.231 740.659 C 746.534 741.963, 747.850 742.011, 754.623 741.005 C 767.078 739.155, 766.578 739.945, 767.397 720.826 C 768.224 701.535, 768.993 698.025, 773.168 694.512 C 777.637 690.751, 787.929 685.759, 789.761 686.462 C 791.126 686.986, 791.240 689.711, 790.703 708.944 C 790.194 727.142, 790.330 731.029, 791.507 732.005 C 793.650 733.784, 810.463 731.796, 813.047 729.457 C 814.965 727.721, 815.011 726.336, 814.759 678.087 L 814.500 628.500 811.500 628.347 C 809.850 628.264, 804.949 628.751, 800.608 629.431 M 343.413 633.824 C 333.603 637.215, 321.383 647.199, 317.065 655.350 C 315.795 657.749, 315.817 658.245, 317.257 659.685 C 318.758 661.187, 319.405 660.977, 325.691 656.948 C 329.436 654.549, 333.582 651.772, 334.904 650.778 C 336.225 649.784, 341.100 647.814, 345.735 646.400 C 353.078 644.160, 355.596 643.872, 365.303 644.165 C 375.555 644.473, 376.473 644.350, 376.820 642.619 C 377.412 639.666, 374.983 636.148, 371.595 635.049 C 368.967 634.197, 352.579 631.966, 349.500 632.041 C 348.950 632.054, 346.211 632.857, 343.413 633.824 M 708 645.433 C 693.242 648.830, 681.637 651.018, 673 652.034 C 661.796 653.351, 653.660 655.500, 651.915 657.602 C 650.168 659.707, 649.353 674.982, 650.936 675.960 C 651.599 676.370, 654.022 676.341, 656.321 675.896 C 658.619 675.451, 663.031 675.068, 666.125 675.044 C 671.637 675.001, 671.763 675.063, 672.375 678.125 C 672.719 679.844, 673.007 697.056, 673.015 716.375 C 673.024 735.701, 673.440 752.146, 673.940 752.937 C 674.706 754.148, 675.860 754.187, 681.290 753.187 C 684.832 752.534, 689.131 752, 690.842 752 C 696.635 752, 696.720 751.444, 697.301 709.529 C 697.910 665.544, 696.791 669.453, 709.581 666.643 C 713.871 665.700, 717.970 664.440, 718.690 663.842 C 720.290 662.515, 720.500 648.803, 718.965 645.934 C 717.785 643.730, 715.796 643.639, 708 645.433 M 14.329 807.433 C 12.585 808.205, 10.672 809.744, 10.079 810.853 C 9.395 812.131, 9 821.474, 9 836.378 C 9 867.241, 7.636 865.261, 29.445 866.059 C 51.517 866.866, 49.500 863.100, 49.500 903.501 C 49.500 943.849, 51.516 940.067, 29.532 940.968 C 8.040 941.849, 9.588 939.772, 9.190 968.276 C 8.818 994.932, 9.022 996.440, 13.295 998.660 C 16.204 1000.171, 23.110 1000.314, 88.084 1000.208 C 133.594 1000.134, 162.112 999.701, 166.379 999.019 C 181.982 996.527, 193.834 991.169, 201.812 983 C 206.717 977.978, 208.352 975.195, 211.110 967.181 C 213.852 959.211, 213.749 942.325, 210.906 933.664 C 207.367 922.884, 202.946 918.162, 187.344 908.500 C 180.017 903.962, 180.314 902.085, 189.191 896.846 C 198.629 891.276, 205.056 884.662, 209.190 876.266 C 212.476 869.591, 212.500 869.437, 212.500 855.021 C 212.500 841.413, 212.335 840.154, 209.876 835 C 205.937 826.744, 196.981 818.028, 187.996 813.708 C 172.479 806.246, 177.085 806.605, 93 806.301 C 29.907 806.073, 16.979 806.259, 14.329 807.433 M 326.944 806.388 C 326.638 806.694, 321.939 807.200, 316.502 807.510 C 305.978 808.112, 291.618 810.863, 282.346 814.053 C 272.716 817.366, 263.839 822.969, 256.820 830.164 C 246.125 841.126, 244.234 848.205, 243.201 881.143 C 242.259 911.183, 243.356 947.939, 245.438 956.064 C 253.592 987.891, 293.017 1003.523, 356.580 1000.132 C 367.549 999.546, 378.747 998.422, 381.500 997.629 C 384.250 996.838, 388.642 995.894, 391.259 995.532 C 397.221 994.709, 407.807 991.138, 415 987.526 C 427.786 981.104, 436.522 970.810, 439.791 958.311 C 443.464 944.264, 445.247 893.431, 442.958 868 C 441.565 852.521, 440.521 847.086, 437.851 841.406 C 434.946 835.226, 424.692 824.400, 417.848 820.285 C 410.172 815.671, 393.164 810.393, 381.482 808.999 C 375.992 808.343, 371.224 807.637, 370.887 807.429 C 369.858 806.795, 327.539 805.791, 326.944 806.388 M 475.354 806.628 C 474.174 806.894, 472.374 808.033, 471.354 809.160 C 469.676 811.014, 469.478 813.407, 469.271 834.354 C 469.031 858.690, 469.499 862.090, 473.387 864.250 C 474.549 864.895, 481.927 865.702, 489.782 866.043 C 497.637 866.384, 504.534 867.134, 505.109 867.709 C 505.685 868.285, 506.538 870.450, 507.005 872.521 C 508.103 877.392, 508.475 920.327, 507.499 929.708 C 506.413 940.159, 506.053 940.373, 488.479 940.994 C 475.045 941.468, 473.993 941.651, 471.577 943.924 L 469 946.349 469 970.159 L 469 993.968 471.824 997.129 L 474.648 1000.290 514.509 1000.081 C 537.596 999.960, 555.124 999.469, 556.162 998.913 C 560.181 996.762, 560.509 994.470, 560.286 970.059 L 560.072 946.618 557.518 944.063 C 555.086 941.632, 554.293 941.483, 540.979 940.966 C 529.493 940.519, 526.682 940.110, 525.247 938.677 C 523.668 937.099, 523.472 933.780, 523.212 904.124 C 522.937 872.857, 523.015 871.203, 524.873 868.908 C 526.794 866.535, 527.067 866.500, 543.835 866.500 C 559.402 866.500, 561.080 866.673, 563.585 868.541 C 565.090 869.664, 570.112 877.314, 574.745 885.541 C 579.378 893.769, 586.280 905.948, 590.084 912.606 C 593.888 919.265, 597 924.967, 597 925.277 C 597 925.588, 599.417 930.040, 602.371 935.171 C 605.325 940.302, 611.008 950.575, 614.999 958 C 629.249 984.510, 636.631 994.219, 645.449 998.047 C 649.755 999.917, 666.503 1000.746, 689.795 1000.244 C 705.358 999.908, 705.570 999.686, 706.377 982.905 C 706.705 976.082, 706.642 964.472, 706.237 957.104 C 705.514 943.956, 705.448 943.669, 702.694 941.617 C 700.442 939.938, 697.878 939.412, 689.694 938.948 C 678.095 938.290, 676.216 937.698, 674.923 934.299 C 673.808 931.363, 673.795 880.471, 674.908 873.701 C 675.343 871.062, 676.140 868.460, 676.680 867.920 C 677.221 867.379, 682.351 866.689, 688.082 866.387 C 707.408 865.367, 707.299 865.550, 706.839 835 C 706.602 819.276, 706.120 811.836, 705.238 810.294 C 704.544 809.080, 702.294 807.620, 700.238 807.049 C 696.097 805.899, 630.163 805.748, 626 806.878 C 621.126 808.203, 620.355 811.875, 620.172 834.662 C 620.079 846.123, 620.364 856.820, 620.806 858.432 C 622.370 864.150, 625.489 865.327, 641.258 866.149 C 654.164 866.822, 655.658 867.094, 657.247 869.057 C 658.834 871.017, 659 874.180, 659 902.500 C 659 940.783, 659.909 938.329, 645.534 938.848 C 632.826 939.308, 631.158 938.536, 625.646 929.644 C 620.687 921.644, 604.681 893.738, 598.033 881.500 C 595.642 877.100, 591.213 869.225, 588.189 864 C 585.165 858.775, 581.017 851.575, 578.971 848 C 564.745 823.141, 561.941 819.068, 556.258 814.999 C 545.822 807.525, 541.712 806.805, 507.500 806.453 C 491 806.283, 476.534 806.362, 475.354 806.628 M 746 807.293 C 741.579 809.526, 740.866 814.191, 741.199 838.710 C 741.582 867.017, 740.429 865.290, 759.423 866 C 770.722 866.423, 773.118 866.795, 774.896 868.405 C 776.953 870.267, 777 871.040, 777 903.044 C 777 933.776, 776.883 935.923, 775.090 938.139 C 773.294 940.358, 772.364 940.530, 759.614 941 C 740.733 941.696, 741.671 940.503, 740.924 964.776 C 740.232 987.285, 740.997 995.769, 743.932 998.146 C 746.648 1000.346, 760.094 1001.462, 773.367 1000.591 C 778.940 1000.225, 784.175 999.893, 785 999.853 C 785.825 999.814, 813.788 1000.093, 847.139 1000.474 C 916.146 1001.262, 912.857 1001.595, 914.871 993.598 C 916.235 988.179, 916.403 949.190, 915.077 945.701 C 914.569 944.366, 913.331 942.879, 912.327 942.397 C 911.322 941.916, 885.075 941.283, 854 940.991 C 822.925 940.699, 796.747 940.097, 795.827 939.653 C 793.441 938.501, 792.988 936.768, 792.401 926.567 C 791.454 910.079, 791.725 909.943, 825.740 909.769 C 857.124 909.608, 859.737 910.079, 867.659 917.319 C 872.951 922.156, 873.570 922.442, 879.606 922.826 C 888.469 923.390, 894.560 922.283, 897.767 919.524 C 900.415 917.246, 900.506 916.821, 900.801 905.338 C 901.054 895.481, 900.804 892.917, 899.303 890.014 C 896.621 884.828, 893.969 883.891, 882.895 884.217 C 873.379 884.497, 873.253 884.534, 869.190 888.207 C 866.935 890.245, 863.157 892.945, 860.795 894.207 C 856.673 896.407, 855.412 896.513, 829.553 896.824 C 814.732 897.003, 801.133 896.872, 799.335 896.535 C 793.574 895.454, 792.998 894.101, 793.015 881.679 C 793.024 875.530, 793.361 870.005, 793.765 869.400 C 795.917 866.177, 798.953 866, 852.184 865.994 C 886.143 865.991, 906.865 865.610, 909.259 864.945 C 915.598 863.184, 915.816 862.245, 915.864 836.473 C 915.912 810.881, 915.579 809.232, 909.974 807.306 C 904.802 805.530, 749.516 805.516, 746 807.293 M 286.623 866.632 C 277.828 867.993, 276.418 868.689, 271.567 874.058 C 266.936 879.183, 265.575 882.402, 263.983 891.985 C 262.495 900.947, 263.195 911.838, 265.873 921.380 C 268.261 929.888, 270.240 932.639, 276.853 936.640 C 281.723 939.586, 282.825 939.819, 294.771 940.421 C 314.435 941.411, 400.827 940.411, 405.500 939.139 C 411.571 937.485, 416.553 932.811, 418.884 926.581 C 422.163 917.816, 423.465 905.538, 422.175 895.544 C 420.619 883.488, 419.222 879.534, 414.709 874.407 C 408.121 866.923, 406.926 866.578, 386.500 866.278 C 330.563 865.454, 293.381 865.586, 286.623 866.632 M 67.549 868.360 C 65.160 870.749, 65 871.531, 65 880.820 C 65 889.374, 65.287 891.096, 67.100 893.400 L 69.201 896.070 118.850 895.785 C 168.465 895.500, 168.503 895.498, 172.144 893.234 C 177.017 890.203, 179.361 885.108, 178.760 878.849 C 178.255 873.599, 176.351 870.797, 171.502 868.167 C 168.872 866.740, 162.406 866.494, 119.299 866.175 L 70.098 865.811 67.549 868.360 M 68.315 912.007 C 64.643 913.487, 63.993 916.072, 64.676 926.479 C 65.138 933.509, 65.794 936.759, 67.069 938.332 L 68.826 940.500 118.163 940.500 C 163.276 940.500, 167.800 940.349, 171 938.739 C 174.810 936.822, 178.762 931.515, 179.581 927.215 C 180.380 923.024, 176.276 915.942, 171.500 913.271 C 167.508 911.037, 167.401 911.033, 119 911.080 C 92.325 911.106, 69.517 911.523, 68.315 912.007"/>
</svg>