<svg xmlns="http://www.w3.org/2000/svg" id="Layer_1" data-name="Layer 1" viewBox="0.0 0.0 100.0 76.77666484261616">
  <g transform="scale(0.11895981537436653)"><path data-sg-fill="sg-fill-0" d="M242.42,520.9c-.5-5.3-4.7-10.6-11.5-10.6h-.2c-7.8,.1-10.5,5.5-10.5,10.1,0,6,4.7,12.4,11.5,12.4h0c.7,0,1.5-.1,2.3-.2,6.5-1.4,8.9-6.9,8.4-11.7Z" fill="#020202" />
  <path data-sg-fill="sg-fill-0" d="M639.12,168c3.4,0,6.4-1.3,8.3-3.7,1.3-1.6,2.6-4.4,1.7-8.7-1.6-6.9-6.5-9.4-10.6-9.4-3.8,0-7.5,2-9.5,5.2-2,3.1-2.1,6.8-.3,10.4,1.7,3.8,5.8,6.2,10.4,6.2Z" fill="#020202" />
  <path data-sg-fill="sg-fill-0" d="M837.32,202.7c-2.4-.8-4.8-1.8-7.2-3-7.6-3.7-15.4-9.4-23.9-17.4-16.9-15.9-29.7-21.8-50.6-23.3,2.8-5.1,4-10.8,3.6-16-.8-9.1-7.1-18.9-22.4-20.1,10.2-6.1,32.4-18.4,47.7-18.4,1.7,0,3.3,.2,4.8,.5,3.6,.8,6.1,2.6,7.8,5.5,3.1,5.5-.1,10.1-3.7,12.3-2.1,1.3-4.4,2-6.7,2s-5.9-.8-8.6-4.7c-.9-1.3-2.5-2.1-4.1-2.1-1,0-2,.3-2.8,.9-2.2,1.6-2.8,4.6-1.3,6.9,4,5.8,9.9,8.9,16.7,8.9,4.1,0,8.4-1.2,12-3.5,7.6-4.8,13.1-14.8,7.1-25.6-3.1-5.5-7.9-9-14.3-10.4-9.9-2.2-23.9,.9-41.1,9.1,14.1-19.7,23.8-42.8,25.4-60.6,1.4-15.6-2.9-28.1-12.5-36.1-5.9-4.9-13.3-7.6-21-7.6-4.3,0-8.6,.8-12.6,2.5-10.5,4.4-17.4,13.6-18.5,24.7-.9,8.8,5.6,18.8,14.3,22.3,2.2,.9,4.5,1.4,6.7,1.4,5.3,0,10.1-2.5,14-7.4,1.7-2.1,1.4-5.3-.8-7-.9-.7-2-1.1-3.1-1.1-1.5,0-2.9,.7-3.9,1.9-2.7,3.4-5.7,4.4-9.2,3-4.7-1.9-8.6-7.7-8.1-12.2,.7-7.5,5.2-13.5,12.4-16.5,2.8-1.2,5.8-1.7,8.8-1.7,5.3,0,10.5,1.9,14.6,5.3,7.1,5.9,10.1,15.1,8.9,27.5-1.8,19.8-13.8,42.3-24.7,57.2-.6-4.9-2.8-8.2-4.6-10.1-4.2-4.4-11.1-6.7-19.9-6.7-2.6,0-5.4,.2-8.2,.6-.7-17.6-13.8-28-24.9-31.6-4-1.3-8-1.9-11.8-1.9-14.2,0-23.8,8.7-28.1,16.8-1.7,3.1-3,6.6-4,10.6-3.5-7.3-8.5-11.6-15-12.8-1.6-.3-3.2-.4-4.7-.4-6.6,0-12.9,2.6-17.8,7.3-4.1,4-7,9.3-8.1,14.8-5.8-2-11.2-3-16-3-8.2,0-14.5,2.9-18.2,8.4-6.8,9.9-3,24.7,9.4,36.9,3.4,3.4,7.3,6.7,11.6,10-6.2-1.3-11.8-2-17.1-2-7.6,0-14.5,1.3-21,4.1-.3,.1-.6,.3-.8,.4-1.9,1.3-6.5,4.7-8.8,9.5-20.6,1.2-42.1,7.3-62.4,17.7-22,11.3-42.2,27.2-60,47.3-30.5-41.4-72.3-64.2-117.8-64.2s-90.2,23.5-117,62.7c-7.2,10.5-12.9,21.8-17.1,33.7-22.6-5.4-43.3-17.6-67.1-31.5-13.9-8.2-28.4-16.7-45.1-25.1-1.9-1-4.2-.6-5.8,.9-1.5,1.5-1.9,3.8-1,5.7,2.6,5.3,5,10.4,7.4,15.4,11.4,24,20.8,43.7,34.1,60.7-10.8,0-21.9,1.4-32.8,2.8-14.6,1.8-29.7,3.7-42.8,2-2.2-.3-4.3,.9-5.2,2.9s-.3,4.4,1.4,5.8c38.1,32,71.9,54.6,121.9,68.1-1.8,11.3-1.3,22.9,1.6,34.5-13.7-8.5-28.5-14.5-42.9-20.2-4.6-1.9-9.4-3.8-14.1-5.8-1.5-.6-3.4-.5-4.8,.5s-2.2,2.6-2.1,4.3c.7,19,2.7,41.3,12,62.9-8.1,1.3-15.8,3-22.6,4.4-5.1,1.1-10.3,2.3-14.9,3.3l-.6,.1c-2.6,.6-5.2,1.2-7.8,1.8-1.6,.4-2.9,1.5-3.5,3.1-.6,1.5-.4,3.3,.6,4.6,30.2,42.9,59.7,63.8,90.1,63.8,2.9,0,5.8-.2,8.7-.6,.1,0,.3,0,.4-.1-.5,4.2,.2,8.6,2.1,12.7,5.5,12.2,17.8,18.7,37.5,19.9-6.2,2.4-12.2,5-17.8,7.6-24.5,8.7-43.6,13-58.6,13-14,0-24.2-3.9-30.3-11.5-6.1-7.6-7.7-14.8-4.8-21,3.5-7.4,12.6-12,19.4-12.2h.2c2.1,0,4.9,.4,5.9,2.3,.9,1.7,2.5,2.7,4.4,2.7,.8,0,1.6-.2,2.3-.6,2.4-1.3,3.4-4.3,2.1-6.7-2.5-4.9-7.8-7.7-14.6-7.7h-.5c-9.7,.2-22.9,6.5-28.2,17.9-3.2,6.9-4.8,17.9,6.1,31.4,8,10,20.8,15,38,15,7.5,0,16.1-1,25.6-2.9-16.4,13.4-25,31.1-22.7,46.4,2.4,15.7,11,25.4,23.5,26.7,.9,.1,1.8,.1,2.8,.1,12.7,0,25.8-8.6,29.9-19.5,3.3-9,.1-17.7-8.8-24-.8-.6-1.8-.9-2.8-.9-1.6,0-3.1,.8-4.1,2.1-1.6,2.2-1,5.3,1.2,6.9,5.2,3.7,6.9,7.7,5.2,12.4-2.6,7.1-12.1,13.1-20.6,13.1-.6,0-1.2,0-1.7-.1-7.9-.8-13-7.1-14.7-18.3-1.9-12.5,6.5-27.8,21.5-39.1,7.6-5.7,17.2-11.3,28.6-16.6,.3-.1,.6-.2,.9-.3-10.7,8.3-15.1,16.9-13.1,25.6,2.4,10.6,13,16.1,30.4,16.1,4.2,0,8.7-.3,13.6-.9-1.3,18.2,9.9,33.2,21.3,36.7,1.2,.4,3.1,.8,5.5,.8,6,0,14.1-2.9,19.3-16.3,2,4.8,4.8,8.5,8.3,11.3,4.9,3.9,9.8,5.9,14.6,5.9,2.1,0,4.1-.4,6-1.1,7.4-2.9,13.3-11.5,16.4-23.7,3.8,1.4,7.7,2.1,11.6,2.1,10.1,0,20.2-4.9,27.2-13.1,12.9-15.1,10.1-32.3,1.5-42.6-6.2-7.6-15.2-12.8-23-16.6,3.5,.4,6.5,.6,9.2,.6,6,0,10.5-1,13.7-3.1,.5-.4,1.1-.8,1.5-1.2,30.4,23.6,58.6,42.5,75.5,53.8,7,4.7,12,8.1,14.8,10.1,1.6,1.2,4.1,1.3,5.8,.1,.7-.5,67.6-46.1,131.5-109.1,5.9-5.8,11.7-11.7,17.2-17.5,4.3,1.4,9,2.8,13.9,4.3,37.2,11.5,93.5,28.9,126.6,51.8,.9,.6,1.8,.9,2.8,.9,.9,0,1.8-.2,2.6-.7,1.7-1,2.6-3,2.3-4.9-2.5-18.6-12-40.3-28.4-64.4,12.4,1.4,25.2,.7,38.5-.1,12.5-.7,25.4-1.4,38.6-.4,2,.2,4-1,4.9-2.8,.9-1.9,.5-4.1-.9-5.6-35.6-37.6-62-55.8-107.6-73.8,6.9-15.8,13.7-38.5,17.7-59.3,3.9-20.7,6.8-48.2-1.9-61.3-1.5-6-6.2-12.3-14.1-18.8-.2-.8-.4-1.5-.7-2.3,.3,.2,.6,.4,.8,.6,32.2,24.3,50.2,54.6,50.9,70.7,.4,9.2-2,15-6.7,16.4-.8,.2-1.7,.4-2.6,.4-4.2,0-9.1-2.6-11-5.9-1.2-2.1-.9-3.8,1-5.7,2-1.9,2-5,.1-7-.9-1-2.2-1.5-3.6-1.5-1.3,0-2.5,.5-3.4,1.4-5.3,5.1-6.3,11.7-2.7,17.8,3.6,6.3,11.9,10.9,19.6,10.9,1.8,0,3.6-.3,5.3-.8,5.5-1.6,14.7-7.2,13.9-26.3-.6-14.9-11-34.4-28.6-53.9,34.6,21.6,54.5,54.4,58.5,76.2,5,27.7-5.8,34-12.7,35.3-3.8,.7-7.8-.3-10.6-2.7-2.4-2-3.8-4.7-3.8-7.5s-2.2-5-5-5-5,2.2-5,4.9c0,5.8,2.7,11.3,7.3,15.2,4.1,3.4,9.2,5.3,14.5,5.3,1.4,0,2.8-.1,4.2-.4,17.9-3.3,25.4-20.3,20.6-46.8-3.1-17-12.1-34.6-26.1-51,2.1,1.1,4.3,2.1,6.5,3,30.6,12.4,33.3,13.8,48.4,23.1,1.5,.9,3.6,.9,5.1,.1,1.6-.9,2.5-2.6,2.5-4.5-.7-22-2.9-37.2-7.1-49.3-2.8-8.3-6.7-15.3-12.3-22.6,4-.3,8.2-.9,12.5-1.7,17.2-3.3,34.2-10,45.5-15.1,3.5-1.6,6.2-2.9,7.9-3.7,1.8-.9,2.9-2.8,2.8-4.8-.1-1.7-1.4-3.4-3.3-4Zm-88.1-58.9c.8,9.6-7.1,21-20.3,22.6-1.7,.2-3.1,1.3-3.9,2.8-.7,1.5-.6,3.3,.3,4.8,5.8,9.2,12.7,30.4,2.3,37.9-1.6,1.2-3.6,1.7-5.8,1.7-12.8,0-33-18.1-47.6-35l-.1-.1c-2.8-3.4-5.5-6.7-8-10,.3-.9,.5-1.9,.7-2.8,8,.8,19.7,1.8,31.1,2.3,1.2,2.1,3.5,3.4,6.3,3.4,2.6,0,5.1-1.1,6.6-2.9,1.3-1.6,1.9-3.5,1.6-5.6-.6-4-3.5-6.6-7.3-6.6-1.9,0-3.8,.7-5.2,1.9-12-.4-24.5-1.5-33.1-2.4-.1-.4-.1-.8-.2-1.2,8.6-3.7,17.7-7.7,26.8-11.2,4.7-1.6,8.7-3.1,12.2-4.5,11.1-3.7,19.6-5.7,26.1-6.1,10.6-.7,16.8,3.3,17.5,11Zm-102.8-33.1c.1-13.4,.1-28.5,5.8-39.1,5.3-9.9,14.6-11.4,19.6-11.4,2.8,0,5.8,.5,8.5,1.4,9.6,3.1,20,12.2,17.8,27.6-.2,1.6,.4,3.3,1.6,4.4,1.2,1.1,2.9,1.5,4.5,1.1,4.3-1,8.6-1.6,12.3-1.6,6,0,10.5,1.3,12.8,3.7,2.2,2.3,2.6,6.1,1.1,11.2-2.2,7.7-11.6,14.8-28.8,21.6-3.6,1.2-7.4,2.6-11.4,4.2-3.7,1.3-7.4,2.5-10.4,3.4-6.7,2.2-12.5,4-17.3,6-1.4-2.7-3.2-5.1-5.2-7.1,6-8,14.6-20,18.8-26.7,2.7-.6,5.1-2.4,6.2-4.8,1.1-2.2,.9-4.7-.5-6.8-1.5-2.4-3.8-3.7-6.4-3.7-2.4,0-4.7,1.2-6.2,3.2-1.4,1.9-1.9,4.2-1.3,6.6-4,6.3-12.8,18.8-18.8,26.8-1.1-.5-2.3-.9-3.5-1.2,.7-6,.7-12.5,.8-18.8Zm10.2,44.9c.9,4.1,.8,7.7-.3,10.7-.3,.4-.5,.9-.6,1.4-.4,.7-.8,1.3-1.2,1.8-2.9,3.6-7.9,5.7-13.8,5.7-8.3,0-15.7-4.1-18.8-10.5-3.9-8-2-14,.2-17.6,3.4-5.4,9.8-8.9,16.4-8.9,9,0,15.6,6.4,18.1,17.4Zm-19.3,29.4c-.9,5.8-1.2,12.5-1.4,17.5-4-6.1-8.4-11.8-13.1-16.9,.9-1.4,1.8-2.7,2.6-4.1,3.7,1.9,7.7,3,11.9,3.5Zm-61.4-63.3c-7.4-7.2-12.5-17.9-8.2-24.2,1.8-2.7,5.3-4.1,10.1-4.1,5.2,0,11.6,1.7,18.6,4.8,1.6,.7,3.6,.5,5-.6,1.5-1.1,2.2-2.9,1.9-4.7-.7-4.8,1.4-10.3,5.3-14.1,1.8-1.7,5.5-4.6,10.9-4.6,1,0,2,.1,3,.3,14.6,2.8,13.2,39.6,12.6,54.1-2.1,.3-4.2,.7-6.2,1.5-3.5-6-6.4-12.2-8.6-17.1,.7-1.3,.9-2.8,.7-4.3-.6-4-3.5-6.6-7.3-6.6s-7.9,2.9-8,8.2c-.1,3.5,2.1,6.2,5.6,6.8,2.3,5,5.3,11.5,8.9,17.9-2.6,2-4.8,4.4-6.5,7.1-.8,1.3-1.5,2.7-2.1,4.2-12.2-5.7-26.2-15.2-35.7-24.6Zm-29.1,28.1c5.1-2.1,10.5-3.1,16.6-3.1,12.6,0,26,4.4,39,8.6,2.5,.8,5,1.6,7.5,2.4,.3,3.8,1.4,7.6,3.2,11.3,.7,1.5,1.6,3,2.7,4.4-.7,1.1-1.4,2.2-2,3.4-18.8-16-42.2-25.1-68-26.1,.2-.4,.6-.6,1-.9ZM183.82,219.9c25-36.6,65.7-58.4,108.8-58.4s84.5,23.1,113.4,65.1c.9,1.3,2.3,2.1,3.8,2.1,1.6,.1,3-.6,4-1.8,35-41.7,82.3-66.6,126.4-66.6,27.7,0,52.4,9.7,71.4,28,20.8,20.1,34.3,50.5,39.1,87.9v.2c-9.8,5.2-27.4,9.1-52.2,11.7-17,1.8-34.3,2.6-53,2.6-60.2,0-122.2-9-193.9-19.4-17.1-2.5-34.7-5-52.7-7.5-8.9-1.2-18.2-1.8-27.7-1.8-21,0-42.1,3-61.1,8.6-19.6,5.8-36.4,14.4-50.1,25.4,.4-28,8.4-53.6,23.8-76.1ZM19.72,289.6c9.8-.2,20-1.5,29.9-2.7,14.4-1.8,29.3-3.7,42.3-2.1,2.1,.3,4.1-.8,5.1-2.7,1-1.9,.6-4.1-.8-5.7-16.6-17.9-27-39.7-40.1-67.2-.3-.6-.6-1.3-.9-1.9,11.1,6,21.3,12,31.3,17.8,24.2,14.3,45.4,26.7,69.2,32.5-4.2,15.1-6,31.1-5.4,47.4-6,6.1-11.1,12.7-15.2,19.7-4.1,6.9-7.1,14.1-9.2,21.4-43.1-11.7-73.8-30.5-106.2-56.5Zm51.9,86.8c2.4,1,4.7,1.9,7.1,2.8,18.1,7.3,36.8,14.8,52.1,27,.7,1.6,1.4,3.2,2.2,4.7,5.6,11.2,13.4,22.3,23.3,33.2,.2,1.6,.3,3.3,.4,5.1-1.2,.5-2.4,1.2-3.4,2-6.9-9-16.2-15.2-27.7-18.6-.8-.9-1.7-1.8-2.6-2.8-3.7-3.9-8.8-9.3-18.1-23.6-.9-1.4-2.5-2.3-4.2-2.3-1,0-1.9,.3-2.7,.8-1.1,.7-1.9,1.8-2.2,3.1-.3,1.3,0,2.6,.7,3.7,4.8,7.4,9.1,13.4,13.1,18.2-2.8-.2-5.6-.3-8.6-.3-5.4,0-11.1,.4-17.4,1.1-8.9-19.1-11.1-38-12-54.1Zm56.6,124.5c-.1,.2-.3,.4-.4,.6h-.2c-1.9,.5-3.8,.8-5.6,1.1-28.2,3.7-55.9-13.6-85.1-53.1l1.3-.3c4.5-1,9.6-2.2,14.5-3.2,14-3,31.4-6.7,47.9-6.7,22.1,0,37.3,6.6,46.4,20.3-3.2,8.8,.1,18.1,3.7,24.6-23.4,.6-48.5-11-72.1-22.8-.7-.3-1.4-.5-2.2-.5-1.9,0-3.6,1.1-4.4,2.7-1.2,2.4-.2,5.4,2.2,6.7,19.7,9.9,40.7,19.7,61.8,22.9-3.2,2.2-5.8,4.9-7.8,7.7Zm6.6,20.2c-2.8-6.2-.7-11.3,1.5-14.4,4.5-6.4,14-11.1,22.5-11.1,.6,0,1.2,0,1.8,.1,2,.2,3.9-.9,4.8-2.6,.9-1.8,.7-3.9-.6-5.4-2.9-3.6-12.2-16-8.3-25.1,1.4-3.2,3.9-4.8,7.5-4.8,2.5,0,4.8,.8,6,1.2,.5,.2,1,.3,1.5,.3,7.7,6.8,16.1,13.2,25,19.1,.1,.2,.3,.5,.5,.7,6.2,7.4,10.3,12.3,15,18.9-1,.7-1.9,1.6-2.7,2.4-2.4,2.6-4.2,5.7-5.2,9.3-7.4-4.4-15.6-7.5-21.9-9.7-.7-2.3-2.4-4.1-4.8-5.1-1-.4-1.9-.6-2.9-.6-4,0-6.5,3.6-6.9,7.1-.5,4.1,1.6,7.4,5.4,8.3,2,.5,3.8,.3,5.4-.5,8,2.8,17.2,6.4,24.8,11.7,.5,4.5,1.9,9,4.1,13.1h-2.1c-6.1,0-12.3,.4-17.8,.8-4.7,.3-9.5,.7-14.3,.8h-3.1c-19.4-.3-30.9-4.9-35.2-14.5Zm123.5-24.2c-8.8-3-17.8-7.4-26.1-12.8-14.4-9.3-23.5-19.5-24.4-27.3-.6-5.4-.1-10.1,1.8-14.3,14.8,18.2,32.5,36.9,52.8,55.6-1.4-.4-2.8-.8-4.1-1.2Zm13.7,13.4c1.8,.3,3.4,.5,4.9,.7,.8,.7,1.7,1.5,2.5,2.2-.1,.1-.1,.2-.2,.2-5.7,.2-13.2,.5-20.6,1.5-.8-3.1-2.1-6-3.8-8.7,.3,.1,.7,.2,1,.3,5.9,2,11.3,3.2,16.2,3.8Zm-49.6-17.1c-.4,.1-.8,.2-1.3,.3-.3-.5-.7-1-1-1.5,.8,.4,1.5,.8,2.3,1.2Zm1.2,86c-.3,4.9-.5,9.2-.5,13-.8,11.7-2.2,20.3-4.4,26.5-1.5,4.1-4.7,11.1-10.4,11.1-.8,0-1.7-.1-2.5-.4-9.2-2.9-17.3-17.8-13.4-31.9,.5-1.6,0-3.4-1.1-4.7-.9-1-2.3-1.6-3.7-1.6-.3,0-.6,0-.9,.1-3.8,.7-11.4,1.8-18.9,1.8-8.5,0-19-1.5-20.6-8.4-2.1-9,11.8-18.2,23.7-24.3,14.5-7.5,32.2-13.4,43.4-16.4-4.1,7.6-10,18.8-15.1,30-3.7,.4-5.8,3.9-6.2,7-.5,4.1,1.6,7.4,5.4,8.3,3.3,.8,6.5-.3,8.3-3,1.3-2,1.6-4.5,.9-6.8,5.2-11.5,11.4-23.3,15.6-31.2,0-.1,.1-.2,.1-.2q.1,0,.2,.1c.1,9.6,.3,20.3,.1,31Zm-11.3-61.7c0-6.5,2.7-11.2,7.8-13.8,.5-.1,1-.3,1.5-.6,2.4-.9,5.1-1.4,8.1-1.4h.4c12,0,19.3,9.6,20.3,19.1,.8,7.7-2.5,16.8-14.1,19.3-1.3,.3-2.6,.4-3.9,.4-11.8,0-20-12.1-20.1-23Zm93.2,51c8.1,9.9,5.1,22.1-1.5,29.9-5.1,6-12.4,9.6-19.6,9.6-4.3,0-8.6-1.2-12.8-3.7-1.4-.8-3.2-.9-4.6-.2-1.5,.7-2.5,2.1-2.8,3.7-1.8,11.6-6.3,20.4-11.5,22.4-3,1.2-6.6,0-10.8-3.3-6.3-5-9.3-16.4-9-34.8,.2-3.8,.4-7.8,.5-12.1,.2-3.9,.5-7.6,.8-10.9,.6-7.2,1.1-14,1-19.4,1-.1,1.9-.3,2.9-.5,1.9-.4,3.7-.9,5.4-1.7,3.9,6.6,12.8,21.7,17.8,28.8-.4,2.4,.2,5.1,1.7,7.1,1.6,2.2,4.2,3.2,6.9,2.7,4.6-.8,6.6-4.4,6.4-7.6-.1-3.1-2.3-6.8-6.7-7.5-4-5.5-11.7-18.4-17.8-28.8,.7-.6,1.3-1.3,1.9-2.1,5.3,3,11.6,5.6,17.7,8.2,12.5,5.1,26.4,10.9,34.1,20.2Zm-5.9-32.1c-10.6,0-26.8-4.1-35.5-6.3-1.9-.5-3.6-.9-5-1.2,.3-1.3,.5-2.6,.5-4,7-1,14.3-1.3,19.9-1.5,.9,1.1,2.2,1.9,3.7,2.3,3.1,.8,6.1-.2,7.9-2.4,4.9,4.1,10,8.2,15.2,12.3-1.6,.5-3.8,.8-6.7,.8Zm235.6-46.6c-56.1,55.4-115.3,97.6-127.3,106.1-3-2.1-7.3-5-12.1-8.2l-.2-.1c-17.6-11.8-47-31.5-79-56.6-.2-.2-.5-.4-.7-.5-12.5-9.8-24.4-19.8-35.4-29.5-25.6-22.6-47.4-45.1-64.9-66.9,12.9-12.3,41.6-18.8,82.8-18.8,12.5,0,26.2,.6,40.8,1.8,24.3,2,52,7.9,81.3,14.2,39.9,8.5,81.2,17.4,119,17.4,13.8,0,26.1-1.2,37.3-3.5-12.4,14.7-26.4,29.7-41.6,44.6Zm209.2-34.3c-9.3-.1-18.4,.4-27.2,.9-16.9,.9-32.9,1.8-47.8-1.7-2-.5-4.2,.4-5.3,2.1-1.2,1.7-1.1,4,.1,5.7,15.8,21.5,26.4,41.4,31.2,58.4-34.7-20.5-84.8-36-119.1-46.6-3.2-1-6.3-2-9.3-2.9,9.7-10.5,18.7-20.8,26.9-31,24.3-8.8,42.1-24.4,54.6-47.6,41.1,16.2,65.2,31.7,95.9,62.7Zm-80.7-176.3c3.7,26.6-9.5,80.7-23.1,107.2-16.9,32.8-46.2,49.8-89.8,52.1-3.6,.2-7.4,.3-11.2,.3-36.6,0-77.4-8.7-116.9-17.2-29.7-6.4-57.7-12.4-82.6-14.4-14.8-1.2-28.9-1.9-41.8-1.9-45.7,0-76.2,7.7-90.7,22.8-7.8,8.1-11,18.1-9.6,29.9,.5,4.1,2.2,8.3,5.1,12.7-27.7-18.2-49.9-41.5-61.2-64-13.3-26.6-12.7-52.5,1.6-76.9,17-28.9,47.2-42.9,69.5-49.5,18-5.4,38.2-8.2,58.2-8.2,9.1,0,18,.6,26.4,1.8,18,2.5,35.6,5,52.6,7.5,72.1,10.5,134.4,19.5,195.3,19.5,19,0,36.7-.9,54.1-2.7,21.8-2.5,52-6.9,64.1-19Zm13.2-39.7c-3.5,0-7.2-.9-9.7-1.7-2.3-.7-4.7-1.8-6.9-3.3-.8-.6-1.7-1.3-2.5-1.8-6.3-5.1-10.5-12-12-14.9-.3-7.7-.2-23.4,1.6-33.4,5.2-1.1,9.7-3.5,13.1-6.8,.6,.7,1.2,1.5,2,2.4,1.3,1.6,2.6,3.2,3.9,4.8,1.7,2,3.6,4.3,5.3,6.6,5.5,7,11.5,15.3,14.2,24.8,.9,3.1,3.5,13.7-1,20.1-1.5,2.1-4.1,3.2-8,3.2Zm9.8,7.9c2.6-1.3,4.7-3.1,6.3-5.4,.1-.2,.2-.3,.3-.5,2.8,6,5.6,11.3,8.8,16-5-3.8-10.2-7.2-15.4-10.1Zm94.4,47.9c-10.4-6.1-16.7-8.8-41.9-19-13.2-5.3-28.5-15.6-41.8-51.2h0c-.2-5-1.3-9.5-1.9-11.7-.1-.5-.3-.9-.4-1.4,5.1,3.8,9.9,6.6,14.4,8.5,.3,.3,.7,.6,1.1,.7,15.3,7.8,37.9,38.8,42.9,48.1,.9,1.6,2.5,2.6,4.4,2.6,.8,0,1.6-.2,2.4-.6,1.2-.6,2-1.7,2.4-2.9,.4-1.3,.2-2.6-.4-3.8-3.5-6.5-18.5-28.3-33.6-42.2,1.7-.6,3.4-1.4,4.9-2.5l.1-.1c5.8,7.1,14.4,11.3,25.6,12.4,13,15,19.7,28.3,21.8,63.1Zm1.6-74.5c-6.2,1.2-11.8,1.8-16.8,1.8-12.2,0-20.9-3.6-25.8-10.6,4-7.9,3-17.5,1.3-24.5,1.9,.2,3.7,.3,5.5,.5,15.8,1.3,29.4,2.4,45.3,14.8,.9,.7,1.9,1.1,3.1,1.1,1.5,0,3-.7,3.9-1.9,1.7-2.1,1.3-5.3-.8-7-18.2-14.3-33.9-15.6-50.6-16.9-3.2-.3-6.4-.5-9.6-.9-.4-.9-.7-1.8-1.1-2.6,4-1.4,7.7-3.5,10.9-6.2,23.6,.6,34.7,5.1,51.5,21,8.5,8,16.4,13.9,24.2,18-10.5,4.7-25.8,10.5-41,13.4Z" fill="#020202" />
  <path data-sg-fill="sg-fill-0" d="M462.12,354.4c-1.5-.2-3-.4-4.6-.5,.2-5.7-.4-11.3-1.7-16.6-3.8-14.8-15.5-24.3-29.7-24.3-9.9,0-19.8,4.5-28.6,13-5.6,5.4-9.6,12-11.8,19.4-1.2,0-2.4-.1-3.5-.1-1.3,0-2.6,.5-3.5,1.5-.9,.9-1.4,2.2-1.4,3.5,0,2.7,2.2,4.9,5,4.9h1.6c-.6,8.1,.7,16.7,3.7,24.2,5.9,14.7,17.3,23.8,29.7,23.8h0c6.7,0,16.9-2.7,27.7-15.5,5.5-6.5,9.4-14.8,11.3-24,1.7,.2,3.1,.3,4.5,.5h.7c2.5,0,4.6-1.8,4.9-4.3,.2-1.3-.2-2.6-1-3.7-.8-.9-2-1.6-3.3-1.8Zm-14.5-1.1c-1.3,0-2.5-.1-3.7-.1h-.2c-2.7,0-5,2.2-4.9,5,0,2.7,2.3,4.9,5,4.9h2.5c-1.6,7-4.7,13.3-8.9,18.2-6.6,7.8-13.6,11.9-20.1,11.9-8.3,0-16.2-6.7-20.5-17.6-2.5-6.2-3.6-13.3-3-19.9,1.9,.2,3.7,.4,5.5,.6,2.7,.4,5.2-1.6,5.6-4.2,.2-1.3-.2-2.6-1-3.7s-2-1.7-3.3-1.9c-1.4-.2-3-.4-4.7-.5,1.8-4.9,4.6-9.2,8.4-12.9,6.9-6.7,14.4-10.2,21.7-10.2,9.7,0,17.4,6.5,20.1,16.8,1.2,4.4,1.7,8.9,1.5,13.6Z" fill="#020202" />
  <path data-sg-fill="sg-fill-0" d="M355.52,306.8c0-2.7-2.2-5-5-5-3.2,0-6.8,.5-11.2,1.2-1.6,.3-2.9,1.3-3.6,2.7-8.3,8.3-15.5,17.6-22.4,26.6l-.1,.2c-2.1,2.8-4.4,5.7-6.6,8.5-5.5-5.1-11.8-10.9-18.5-17l-.6-.5c-5.2-4.7-10.4-9.6-15.5-14.2-.4-.4-1-.7-1.5-.9-.8-.5-1.7-.8-2.7-.8-3.2,0-6.8,.5-11.2,1.2-1.3,.2-2.4,.9-3.2,2-.8,1.1-1.1,2.4-.9,3.7,.4,2.4,2.5,4.1,4.9,4.1,.3,0,.6,0,.8-.1,2.4-.4,4.2-.7,5.8-.8,1.1,13.8,1.9,29.1,2.5,41.5,.5,9.1,.9,18.6,1.5,26.6-1.4,.2-2.8,.4-4.1,.6-2.7,.4-4.5,3-4.1,5.7,.4,2.4,2.4,4.2,4.9,4.2,.3,0,.5,0,.8-.1,5.3-.8,11.3-1.4,17-1.5,1.3,0,2.6-.6,3.5-1.5,.9-1,1.4-2.2,1.4-3.5-.1-2.7-2.3-4.9-5.1-4.9-1.4,0-2.9,.1-4.4,.2-.6-7.9-1-17.2-1.5-26.3-.5-10.5-1.1-22.3-1.9-33.6l6.4,5.9c8.3,7.6,16.2,14.8,22.7,20.9,.9,.9,2.1,1.3,3.4,1.3h.4c1.4-.1,2.6-.7,3.5-1.8,3.5-4.3,6.9-8.7,10.2-13,4.7-6.1,9.5-12.4,14.7-18.3,.4,12.2,.5,28.4,.5,41.5,0,9.8,.1,16.6,.2,20.5-1.7,.3-3.4,.6-5,.9-1.3,.3-2.4,1-3.2,2.1-.7,1.1-1,2.4-.7,3.7,.5,2.3,2.5,4,4.9,4,.3,0,.7,0,1-.1,5.3-1.1,11.3-1.8,16.9-2.2,1.3-.1,2.5-.7,3.4-1.7s1.3-2.3,1.2-3.6c-.2-2.6-2.3-4.7-5-4.7h-.3c-1.1,.1-2.2,.2-3.4,.3-.1-4.4-.1-12-.1-19.4-.1-16.4-.1-36.7-.9-49.3,2.1-.3,3.7-.4,5.1-.4,2.9,.1,5.1-2.2,5.1-4.9Z" fill="#020202" />
  <path data-sg-fill="sg-fill-0" d="M584.12,327.2c-2.6-.4-5.6-.6-10.2-.6h-1.1c-1.6,0-3.1,.8-4,2.1-9.5,6.8-18.1,14.9-26.4,22.6-2.3,2.2-5.2,4.9-8,7.5-4.6-5.9-9.9-12.6-15.4-19.7l-.4-.5c-4.4-5.6-8.9-11.3-13.1-16.7-.4-.5-.8-.9-1.3-1.1-.7-.6-1.6-1.1-2.5-1.2-2.6-.4-5.6-.6-10.2-.6h-1.1c-1.3,0-2.6,.5-3.5,1.5-.9,.9-1.4,2.2-1.4,3.5,0,2.7,2.2,4.9,5,4.9h1c1.9,0,3.5,0,4.8,.1-1.1,13.8-2.8,29.1-4.2,41.5-1.1,9.5-2.1,18.5-2.8,26.4-1.5-.1-2.9-.1-4.1-.1-2.7,0-4.9,2.2-5,4.9,0,2.7,2.2,5,4.9,5,5.4,0,11.4,.5,17,1.3,2.7,.4,5.2-1.6,5.6-4.2,.4-2.7-1.5-5.2-4.2-5.6-1.4-.2-2.9-.4-4.4-.5,.7-7.8,1.8-17.1,2.8-26.1v-.1c1.2-10.4,2.5-22.1,3.5-33.4l5.5,7c7,8.8,13.6,17.2,18.9,24.1,.8,1.1,2.1,1.8,3.5,1.9s2.7-.3,3.7-1.2c4.1-3.6,8.2-7.5,12.2-11.2,5.6-5.3,11.4-10.7,17.4-15.6-1.5,12.1-4.1,28.1-6.2,41-1.6,10-2.6,16.4-3.1,20.3h-.7c-1.6,0-3.1,0-4.4,.1-1.3,0-2.5,.6-3.4,1.6s-1.4,2.2-1.3,3.6c.1,2.7,2.3,4.8,5,4.8,0,0,.2,0,.1,0,1.3,0,2.6-.1,4-.1,4.3,0,8.8,.2,13,.7h.5c2.6,0,4.7-1.9,4.9-4.5,.1-1.3-.3-2.6-1.1-3.6s-2-1.7-3.3-1.8c-1.1-.1-2.2-.2-3.4-.3,.6-4.3,1.8-11.8,2.9-18.9v-.2c2.6-16.2,5.8-36.3,7.1-48.9,2.1,.1,3.7,.2,5.1,.4,.3,0,.5,.1,.8,.1,2.4,0,4.5-1.8,4.9-4.2,.7-3-1.2-5.5-3.9-6Z" fill="#020202" />
  <path data-sg-fill="sg-fill-0" d="M226.52,343.5c-2.2,0-4.1,.8-5.5,2.3-1.2,1.3-1.8,3.1-1.8,5.1,0,4,2.7,8,7.8,8,2.2,0,4.1-.8,5.5-2.3,1.2-1.3,1.8-3.1,1.8-5.1-.1-4-2.7-8-7.8-8Z" fill="#020202" />
  <path data-sg-fill="sg-fill-0" d="M595.72,359.7c-1.2,1.3-1.8,3.1-1.8,5.1,0,4,2.7,8,7.8,8,2.2,0,4.1-.8,5.5-2.3,1.2-1.3,1.8-3.1,1.8-5.1,0-4-2.7-8-7.8-8-2.3,0-4.2,.8-5.5,2.3Z" fill="#020202" />
  <path data-sg-fill="sg-fill-0" d="M482.12,486.4c-1,0-1.9,.3-2.8,.9-8.9,6.3-19.7,9.8-30.4,9.8-5.8,0-11.4-1-16.8-3-.6-.2-1.2-.3-1.8-.3-2.7,0-4.6,2.2-5,4.2-.4,2.1,.6,3.8,2.7,4.6,7.1,2.7,14.5,4.1,22.1,4.1,12.7,0,24.7-3.8,34.6-11.1,1.9-1.4,2.6-3.6,1.8-5.8-.6-2-2.4-3.4-4.4-3.4Z" fill="#020202" />
  <path data-sg-fill="sg-fill-0" d="M441.62,479.2c11.7,0,22.6-3.5,31.5-10.2,4.5-3.4,4.1-6.4,3.7-7.5-.6-1.8-2.3-2.9-4.3-2.9-1.4,0-2.7,.6-3.9,1.6-8.1,7.5-20.6,8.6-27.3,8.6-4.3,0-8.6-.4-12.5-1.3-.4-.1-.7-.1-1.1-.1-2.5,0-4.5,1.8-4.9,4.5-.3,2.2,.8,4.8,3.8,5.5,5.1,1.2,10.1,1.8,15,1.8Z" fill="#020202" />
  <path data-sg-fill="sg-fill-0" d="M328.22,229.4c-4.7,3-11.1,4.7-18.4,4.7s-15.2-1.6-22-4.3c-.7-.3-1.3-.4-2-.4-2.3,0-4.3,1.7-4.8,4.1s.6,4.6,2.9,5.6c7.9,3.5,16.1,5.2,24.1,5.2s15.9-1.8,23-5.5c5.4-2.8,5.1-6.1,4.9-7.1-.5-2-2.3-3.4-4.5-3.4-1.2,.1-2.3,.4-3.2,1.1Z" fill="#020202" />
  <path data-sg-fill="sg-fill-0" d="M306.42,217c8.3,0,16.3-1.5,23.3-4.5,2.7-1.1,3.5-3.7,3.1-5.8-.5-2.3-2.3-4-4.5-4-.6,0-1.2,.1-1.9,.4-6.3,2.5-13,3.8-19.7,3.8-10.1,0-19.6-2.9-27.7-8.3-.9-.6-1.9-.9-2.9-.9-2,0-3.8,1.2-4.6,3.1-.7,1.8-.2,3.6,1.3,5,7.7,7.1,19.9,11.2,33.6,11.2Z" fill="#020202" />
</g></svg>