<?xml version="1.0" encoding="utf-8"?>
<svg xmlns="http://www.w3.org/2000/svg" width="767" height="1002" viewBox="0 0 767 1002">
  <path fill-rule="evenodd" d="M 374.845 2.424 C 368.532 4.852, 366.049 7.053, 356.224 18.934 C 329.819 50.865, 303.423 73.204, 275.500 87.250 C 258.708 95.697, 250.961 98.640, 223.717 106.926 C 183.878 119.042, 168.824 124.406, 153.500 131.946 C 84.826 165.734, 45.585 221.767, 21.454 320.500 C -2.966 420.414, -5.234 549.782, 15.590 654.961 C 31.477 735.207, 55.684 790.073, 91.428 826.855 C 109.428 845.378, 125.214 856.706, 149.500 868.524 C 168.145 877.598, 180.400 882.043, 211.604 891.050 C 257.339 904.252, 274.310 911.116, 294.500 924.581 C 315.053 938.288, 330.587 952.844, 352.272 978.715 C 368.197 997.714, 370.837 999.500, 383 999.500 C 395.519 999.500, 398.090 997.931, 412.058 981.765 C 440.180 949.217, 451.654 938.293, 471.500 925.176 C 492.709 911.159, 508.077 904.846, 551.208 892.438 C 589.422 881.444, 608.681 874.087, 630.500 862.146 C 666.384 842.508, 695.335 810.798, 715.998 768.502 C 725.154 749.760, 731.149 734.235, 737.909 711.758 C 769.382 607.113, 774.802 459.976, 751.400 345.530 C 739.116 285.459, 723.130 242.445, 700.434 208.395 C 667.270 158.640, 628.915 132.318, 560 112.020 C 502.316 95.029, 481.097 85.380, 455 64.272 C 445.748 56.788, 424.942 35.569, 415.022 23.500 C 404.250 10.394, 399.991 6.089, 395.500 3.768 C 390.441 1.153, 379.929 0.469, 374.845 2.424 M 376.375 78.263 C 352.990 109.710, 323.256 133.616, 287 150.119 C 270.808 157.489, 262.338 160.414, 229.019 170.140 C 191.479 181.097, 173.221 188.524, 151.500 201.668 C 126.161 217.002, 101.879 241.099, 87.876 264.806 C 80.818 276.755, 73.433 291.747, 68.995 303.135 C 51.619 347.722, 39.023 418.123, 39.006 470.750 C 39.001 484.022, 39.293 488, 40.269 488 C 44.352 488, 113.862 410.219, 154.212 360.500 C 171.289 339.457, 183.088 326.523, 187.098 324.449 C 188.929 323.503, 195.076 322.676, 204.227 322.145 C 213.937 321.582, 219.459 320.812, 221.500 319.736 C 228.026 316.295, 244.804 296.394, 268.481 264.010 C 284.015 242.763, 297.658 227.728, 304.151 224.702 C 306.159 223.766, 309.886 223, 312.433 223 C 314.980 223, 318.512 222.386, 320.282 221.636 C 322.052 220.886, 336.883 207.161, 353.240 191.136 C 372.764 172.008, 383.687 162, 385.039 162 C 388.439 162, 392.166 164.508, 398.675 171.175 C 404.478 177.120, 423.189 199.930, 439.332 220.741 C 443.937 226.678, 447.187 229.986, 448.422 229.991 C 449.478 229.996, 453.244 228.840, 456.789 227.421 C 464.097 224.498, 467.121 224.775, 468.829 228.523 C 470.711 232.655, 470.204 238.376, 467 249.162 C 463.564 260.729, 463.226 263.790, 465.802 260.009 C 468.476 256.086, 474.154 249.988, 476.107 248.943 C 478.875 247.461, 482.635 249.750, 485.911 254.910 C 487.514 257.434, 491.963 265.195, 495.799 272.155 C 504.986 288.826, 508.308 293.514, 513.250 296.782 C 517.306 299.465, 517.575 299.500, 533.930 299.500 C 550.127 299.500, 550.603 299.561, 555.087 302.197 C 562.684 306.663, 567.360 313.511, 590.647 354.277 C 619.197 404.256, 617.919 402.537, 636 415.258 C 644.766 421.425, 667.148 441.522, 691.978 465.521 C 716.132 488.867, 721.106 493, 725.051 493 C 729.602 493, 730.209 488.818, 728.989 465.860 C 724.714 385.407, 712.452 329.475, 688.867 282.849 C 667.674 240.952, 639.903 213.043, 598.934 192.467 C 584.100 185.017, 569.781 179.838, 535.500 169.526 C 488.311 155.331, 470.972 147.857, 445 130.514 C 424.392 116.753, 404.531 97.665, 389.923 77.581 C 386.940 73.481, 384.050 70.103, 383.500 70.076 C 382.950 70.048, 379.744 73.733, 376.375 78.263 M 223.750 220.741 C 221.270 221.094, 221 221.528, 221 225.160 C 221 228.346, 221.418 229.296, 223 229.710 C 224.817 230.185, 225 231.074, 225 239.435 C 225 244.841, 225.640 250.793, 226.553 253.865 L 228.105 259.093 234.303 258.796 L 240.500 258.500 240.745 246.500 C 241.057 231.268, 241.349 230, 244.550 230 C 247.733 230, 248.494 228.027, 247.026 223.579 L 245.870 220.075 236.185 220.212 C 230.858 220.287, 225.262 220.525, 223.750 220.741 M 376.982 230.789 C 373.397 233.380, 364.866 239.775, 358.023 245 C 338.082 260.228, 338.513 259.991, 330.718 259.996 C 318.617 260.003, 319.139 259.543, 297.235 289.500 C 289.996 299.400, 278.670 314.475, 272.067 323 C 265.463 331.525, 260.047 338.850, 260.030 339.278 C 259.996 340.158, 268.517 348.250, 274.388 352.912 C 276.526 354.611, 279.310 356, 280.576 356 C 284.128 356, 296.594 345.960, 318.500 325.456 C 329.500 315.160, 339.400 306.144, 340.500 305.420 C 341.600 304.695, 347.125 302.494, 352.778 300.527 C 363.326 296.858, 370.548 293.570, 384.456 286.103 C 394.042 280.958, 396.464 281.112, 402.857 287.272 C 409.122 293.308, 433.305 320.933, 441.268 331.150 C 449.530 341.751, 459 356.674, 459 359.094 C 459 362.085, 457.117 362.276, 453.944 359.607 C 452.286 358.211, 448.634 355.917, 445.828 354.508 C 437.787 350.469, 426.359 341.954, 415.500 331.912 C 401.242 318.726, 394.241 313.723, 391.135 314.502 C 389.770 314.845, 382.769 319.229, 375.577 324.245 C 368.384 329.261, 359.575 335.405, 356 337.899 C 352.425 340.393, 337.125 352.353, 322 364.477 C 288.955 390.964, 284.983 393.948, 276.733 398.483 C 269.374 402.528, 264.763 402.950, 259.210 400.088 C 254.481 397.650, 251.479 394.376, 239.905 379.034 C 234.732 372.178, 227.569 363.515, 223.987 359.784 C 216.639 352.129, 213.711 351.280, 208.350 355.250 C 206.679 356.488, 186.454 376.420, 163.406 399.545 C 140.358 422.670, 110.588 451.687, 97.250 464.027 C 83.913 476.367, 73 486.809, 73 487.232 C 73 488.346, 78.361 488.170, 97.500 486.428 C 106.850 485.578, 125.902 484.571, 139.839 484.191 C 163.481 483.546, 165.291 483.366, 166.874 481.500 C 167.807 480.400, 170.692 478.425, 173.285 477.111 C 178.588 474.424, 179.522 472.507, 175.049 473.489 C 170.770 474.429, 163 473.073, 163 471.386 C 163 470.624, 163.450 470, 164 470 C 164.550 470, 165 468.875, 165 467.500 C 165 466.125, 165.908 464.092, 167.017 462.983 C 168.902 461.098, 169.230 461.068, 172.026 462.513 C 174.370 463.725, 175.479 463.814, 177.146 462.922 C 178.317 462.295, 180.788 462.028, 182.637 462.329 C 186.715 462.990, 186.798 462.605, 183.250 459.487 L 180.500 457.070 183.344 454.754 C 186.657 452.056, 188.599 444.742, 186.472 442.976 C 185.781 442.403, 184.683 440.648, 184.032 439.076 C 183.032 436.663, 183.159 435.608, 184.851 432.292 C 186.724 428.620, 189.843 425.137, 190.675 425.788 C 191.483 426.421, 193.606 424.354, 194.691 421.878 C 196.571 417.590, 204.165 414.488, 212.442 414.628 C 218.527 414.730, 219.649 415.053, 221.532 417.242 C 222.713 418.615, 225.260 420.261, 227.191 420.898 C 231.271 422.245, 237.479 430.061, 236.733 432.914 C 236.474 433.905, 236.658 435.425, 237.143 436.291 C 237.681 437.252, 237.628 438.112, 237.008 438.495 C 236.402 438.869, 237.088 440.560, 238.707 442.682 L 241.421 446.241 238.549 448.711 C 235.312 451.496, 234.914 451.500, 247.515 448.603 C 255.431 446.783, 255.568 446.699, 258.515 441.788 C 262.738 434.754, 274.943 424, 278.703 424 C 280.691 424, 282.643 422.931, 284.889 420.614 C 287.152 418.279, 289.462 417.022, 292.331 416.563 C 295.968 415.981, 300.600 413.690, 311.275 407.190 C 314.643 405.139, 315.216 405.768, 317.487 414 C 321.612 428.955, 326.127 440.415, 336.007 461 C 341.946 473.375, 346.961 484.400, 347.153 485.500 C 347.511 487.562, 347.288 487.612, 342.820 486.491 L 340.176 485.827 341.544 489.664 C 342.297 491.774, 342.932 494.292, 342.956 495.260 C 342.980 496.228, 343.900 497.790, 345 498.732 C 346.819 500.290, 347 501.682, 347 514.150 C 347 521.688, 346.578 531.150, 346.063 535.178 C 344.172 549.946, 343.822 556, 344.857 556 C 346.258 556, 377.492 535.232, 388.500 526.981 C 398.839 519.231, 400.230 517.158, 406.466 500.203 C 417.407 470.451, 428.573 447.394, 436.346 438.500 C 440.546 433.695, 441.282 433.942, 448.211 442.491 C 451.691 446.785, 453.166 449.634, 453.858 453.401 C 458.787 480.212, 458.667 479.775, 462.564 485.217 C 467.784 492.507, 468.230 492.916, 467.836 490.051 C 467.528 487.806, 467.999 487.490, 473.500 486.250 C 481.610 484.422, 500.802 483.253, 542.212 482.064 L 576.923 481.068 583.191 477.904 L 589.458 474.740 603.479 475.281 C 617.894 475.838, 639.764 479.427, 660.436 484.629 C 670.116 487.065, 670.491 487.085, 674.936 485.421 C 677.446 484.481, 679.649 483.591, 679.831 483.442 C 680.652 482.771, 677.774 479.065, 674.482 476.554 C 671.168 474.026, 670.766 473.937, 669.637 475.482 C 668.514 477.017, 667.176 477.066, 654.453 476.032 C 646.779 475.409, 631.838 473.572, 621.251 471.950 C 606.576 469.701, 598.615 469.006, 587.751 469.026 C 569.695 469.058, 554.900 470.483, 550.847 472.579 C 545.874 475.151, 533.372 475.601, 525.276 473.501 C 518.883 471.844, 517.999 471.832, 511.964 473.332 C 498.455 476.690, 486.869 476.435, 473.482 472.484 C 471.904 472.018, 470.763 472.882, 468.253 476.444 C 464.854 481.265, 462.518 482.206, 461.546 479.145 C 461.222 478.124, 460.323 472.612, 459.548 466.895 C 458.773 461.178, 457.830 455.262, 457.453 453.750 C 457.024 452.029, 457.169 451, 457.843 451 C 458.434 451, 466.631 454.825, 476.058 459.500 C 492.203 467.507, 495.816 468.851, 497.275 467.392 C 497.610 467.057, 491.035 463.332, 482.664 459.114 C 459.231 447.306, 456.933 445.494, 448.899 432.500 C 445.159 426.450, 441.671 420.825, 441.147 420 C 440.301 418.667, 440.023 418.667, 438.648 420 C 437.797 420.825, 431.411 431.400, 424.458 443.500 C 417.504 455.600, 409.844 468.264, 407.434 471.642 C 398.676 483.921, 384.857 493.838, 373.645 495.892 C 363.636 497.725, 359.581 494.489, 348.430 475.769 C 335.413 453.918, 327.745 435.994, 319.920 409.133 L 316.609 397.767 318.555 394.201 C 321.060 389.608, 322.722 389.139, 324.056 392.648 C 324.644 394.194, 325.656 395.787, 326.304 396.188 C 327.205 396.745, 327.207 397.193, 326.313 398.087 C 325.419 398.981, 325.793 401.095, 327.895 407.035 C 330.909 415.554, 333.309 419.798, 335.612 420.681 C 336.435 420.997, 338.771 420.535, 340.804 419.654 C 342.837 418.774, 350.785 415.741, 358.466 412.914 C 372.732 407.664, 382.169 403.767, 436.500 380.688 L 467.500 367.520 482.500 367.522 C 494.857 367.523, 498.930 367.913, 505.614 369.733 C 510.076 370.949, 520.651 372.917, 529.114 374.106 C 546.389 376.535, 545.949 376.326, 558.725 388.155 C 566.138 395.018, 571.144 397.356, 581.463 398.775 L 585.425 399.320 581.126 393.910 C 578.761 390.935, 571.128 382.020, 564.163 374.099 C 543.922 351.081, 537.158 342.979, 531.715 335.232 C 528.906 331.235, 526.134 328.115, 525.554 328.300 C 524.974 328.485, 523.370 330.702, 521.988 333.226 C 519.148 338.415, 516.169 342, 514.696 342 C 512.896 342, 491.991 320.737, 481.760 308.500 C 469.538 293.884, 464.164 288, 463.034 288 C 461.704 288, 456.847 294.141, 455.348 297.718 C 454.607 299.488, 454 302.314, 454 303.999 C 454 310.813, 447.800 308.680, 438.187 298.560 C 428.406 288.263, 419.659 276.131, 396.149 240.250 C 390.248 231.243, 386.203 226.014, 385.156 226.039 C 384.245 226.060, 380.567 228.197, 376.982 230.789 M 573.638 227.021 C 568.851 227.446, 567.385 228.027, 565.638 230.192 C 564.257 231.904, 562.085 233.077, 559.500 233.508 C 557.300 233.875, 554.745 234.380, 553.823 234.632 C 551.935 235.146, 547.584 241.917, 548.532 242.866 C 550.180 244.513, 601.513 245.892, 605.418 244.393 C 607.282 243.678, 607.514 239.914, 605.800 238.200 C 605.140 237.540, 603.085 237, 601.234 237 C 596.737 237, 594.524 235.678, 593.046 232.110 C 592.370 230.479, 591.071 228.822, 590.158 228.429 C 587.154 227.136, 579.597 226.491, 573.638 227.021 M 155.500 260.202 C 153.850 260.776, 151.129 262.540, 149.452 264.123 C 147.288 266.166, 145.388 267, 142.899 267 C 135.574 267, 124.400 275.194, 128.288 277.714 C 130.335 279.041, 182.941 279.294, 184.519 277.984 C 187.657 275.380, 180.966 268.794, 173.173 266.816 C 170.769 266.206, 168.762 264.924, 168.010 263.519 C 165.815 259.418, 161.240 258.205, 155.500 260.202 M 651.097 298.091 C 649.776 298.618, 647.126 298.925, 645.209 298.774 C 642.092 298.529, 641.605 298.837, 640.611 301.678 C 639.061 306.111, 638.705 306.292, 634.181 304.936 C 630.615 303.868, 629.796 303.964, 626.834 305.801 C 623.340 307.968, 619.146 314.478, 620.421 315.756 C 621.519 316.857, 638.077 317.786, 658.628 317.900 C 673.542 317.982, 676.974 317.736, 677.990 316.512 C 679.009 315.284, 678.622 314.422, 675.771 311.571 C 673.872 309.672, 671.009 307.821, 669.409 307.459 C 659.672 305.252, 659.161 304.991, 657.323 301.286 C 655.263 297.132, 654.495 296.737, 651.097 298.091 M 110.182 309.496 C 107.956 312.326, 107.250 316, 108.933 316 C 109.446 316, 110.165 315.055, 110.532 313.899 C 111.867 309.694, 112.905 313.759, 113.497 325.500 C 114.399 343.421, 114.481 343.732, 118.796 345.703 C 120.833 346.633, 122.838 347.568, 123.250 347.781 C 123.662 347.993, 124 347.443, 124 346.558 C 124 345.571, 125.159 344.718, 127 344.350 L 130 343.750 130 330.957 C 130 315.821, 130.254 314.766, 133.585 316.032 C 135.618 316.805, 136 316.647, 136 315.031 C 136 313.975, 134.988 311.950, 133.750 310.531 C 131.716 308.197, 130.582 307.891, 121.932 307.336 L 112.364 306.722 110.182 309.496 M 468.148 310.057 C 465.897 310.970, 465.810 311.375, 466.148 319.423 C 466.341 324.049, 466.836 328.170, 467.246 328.580 C 467.656 328.990, 469.117 328.812, 470.492 328.186 C 474.293 326.454, 476.719 327.840, 491.592 340.243 C 505.702 352.009, 513.426 356.974, 515.068 355.332 C 516.083 354.317, 474.090 309.656, 471.788 309.301 C 471.080 309.192, 469.441 309.532, 468.148 310.057 M 667.573 376.159 C 666.275 382.106, 666.619 386.084, 668.372 385.411 C 669.471 384.989, 669.831 387.165, 670.182 396.328 C 670.671 409.098, 671.537 411.315, 677.475 414.985 C 680.816 417.049, 681.213 417.090, 683.480 415.605 C 686.570 413.581, 687.255 409.862, 686.834 397.396 L 686.500 387.500 689.250 387.822 C 692.469 388.198, 692.648 387.147, 690.666 379.501 C 689.136 373.600, 687.095 372.715, 683.632 376.452 C 681.803 378.426, 681.101 378.706, 680.688 377.628 C 680.377 376.819, 678.294 376.026, 675.822 375.777 C 673.445 375.537, 670.731 374.998, 669.792 374.579 C 668.500 374.004, 667.959 374.389, 667.573 376.159 M 476.391 377.577 C 476.036 378.994, 475.963 384.731, 476.230 390.327 C 477.103 408.648, 485.154 427.122, 499.838 444.499 C 505.891 451.663, 508 453.316, 508 450.900 C 508 450.295, 504.462 442.757, 500.137 434.150 C 492.343 418.638, 488.817 409.903, 487.495 402.836 C 486.923 399.778, 487.143 398.994, 488.823 398.095 C 489.930 397.502, 492.336 397.295, 494.168 397.636 C 499.475 398.620, 514.408 403.002, 515.129 403.786 C 515.490 404.179, 515.555 405.983, 515.272 407.796 C 514.778 410.971, 514.689 411.028, 512.849 409.363 C 511.098 407.778, 510.804 407.768, 509.339 409.232 C 508.187 410.385, 507.952 411.622, 508.498 413.665 C 509.430 417.156, 509.155 425.974, 507.985 430.051 C 507.390 432.125, 507.569 434.361, 508.552 437.146 C 509.341 439.383, 509.738 441.615, 509.434 442.106 C 508.406 443.771, 507 443.012, 506.921 440.750 C 506.878 439.512, 506.609 439.082, 506.323 439.793 C 505.449 441.973, 506.958 446.230, 508.409 445.673 C 511.865 444.347, 513.259 463.573, 509.992 467.510 C 508.987 468.721, 509.045 469, 510.307 469 C 511.325 469, 512.403 467.125, 513.446 463.539 C 515.215 457.454, 521.372 450.095, 533.276 439.838 C 542.761 431.666, 545.393 431.822, 555.728 441.174 C 559.238 444.351, 560.680 445, 564.228 445.001 C 566.577 445.002, 575.475 445.901, 584 447 C 601.775 449.291, 606.918 449.518, 605.342 447.942 C 604.760 447.360, 601.633 446.197, 598.392 445.356 C 591.418 443.547, 586 440.453, 586 438.279 C 586 436.183, 592.511 436.964, 605.077 440.566 C 621.814 445.364, 628.896 449.755, 630.554 456.360 C 631.045 458.315, 632.781 458.923, 645.804 461.696 C 653.887 463.417, 660.725 464.588, 661 464.298 C 661.593 463.672, 638.193 441.096, 632.673 436.967 L 628.845 434.105 613.673 434.690 L 598.500 435.274 587.124 430.605 C 580.867 428.037, 571.990 423.953, 567.397 421.531 C 558.932 417.065, 531.623 407.497, 530.074 408.454 C 529.610 408.741, 528.974 410.219, 528.661 411.738 C 526.956 420.005, 525.520 425, 524.848 425 C 524.431 425, 523.802 423.313, 523.448 421.250 C 522.850 417.760, 520.947 410.141, 519.515 405.500 C 518.911 403.546, 519.280 403.508, 535.357 403.851 C 544.775 404.052, 552.554 403.790, 553.539 403.238 C 555.024 402.407, 554.660 401.864, 550.880 399.274 C 542.224 393.344, 533.928 390.375, 520.606 388.441 C 516.205 387.801, 515.534 387.966, 513.940 390.079 L 512.168 392.429 502.834 387.786 C 497.700 385.232, 490.672 381.311, 487.216 379.072 C 479.829 374.285, 477.305 373.936, 476.391 377.577 M 491.422 408.344 C 490.663 410.321, 501.488 435.845, 502.610 434.724 C 502.864 434.469, 503.101 431.830, 503.137 428.859 C 503.182 425.068, 502.255 421.004, 500.028 415.229 C 497.246 408.015, 496.551 407, 494.396 407 C 493.044 407, 491.705 407.605, 491.422 408.344 M 152 424.031 C 152 430.793, 151.653 433.196, 150.618 433.593 C 149.482 434.029, 149.593 435.135, 151.241 439.812 C 153.610 446.535, 154.576 447.824, 156.104 446.296 C 156.908 445.492, 156.904 443.778, 156.087 439.969 C 155.251 436.071, 155.257 434.395, 156.111 433.366 C 156.957 432.347, 156.971 430.877, 156.165 427.743 C 155.565 425.409, 154.793 421.587, 154.449 419.250 C 153.372 411.928, 152 414.607, 152 424.031 M 296.436 465.079 C 293.754 468.423, 289.972 472.458, 288.030 474.046 C 286.055 475.661, 285.139 476.948, 285.951 476.966 C 287.726 477.007, 297.820 466.633, 300.307 462.212 C 301.300 460.445, 301.933 459, 301.713 459 C 301.493 459, 299.118 461.736, 296.436 465.079 M 264.281 479.250 C 264.548 485.988, 265.531 495.325, 266.463 500 C 269.302 514.228, 267.337 535.003, 263.152 534.998 C 262.243 534.997, 257.450 532.270, 252.500 528.938 C 222.753 508.918, 201.714 504.018, 145.500 504.018 C 106.987 504.018, 88.219 506.335, 61.168 514.432 C 54.750 516.353, 47.025 518.505, 44 519.216 L 38.500 520.508 38.782 534.504 C 39.569 573.478, 46.132 620.533, 56.621 662.408 C 61.483 681.816, 61.895 682.657, 66.906 683.396 C 69.158 683.728, 72.799 684.264, 74.998 684.588 C 78.236 685.063, 79.124 684.840, 79.673 683.410 C 81.137 679.594, 78.014 601.638, 75.009 567 C 71.423 525.659, 71.292 520.449, 73.806 519.104 C 77.581 517.083, 93.912 514.713, 104.037 514.715 C 112.405 514.717, 115.507 515.131, 119.107 516.723 C 132.176 522.504, 140 539.505, 140 562.125 C 140 574.879, 138.682 579.556, 132.481 588.799 L 128.166 595.232 132.597 600.672 C 144.874 615.745, 150.295 638.915, 148.030 666.639 C 146.496 685.404, 144.144 690.237, 133.522 696.450 C 129.129 699.019, 127.312 700.584, 128.181 701.050 C 130.406 702.242, 150.528 706.744, 170.155 710.441 C 201.443 716.334, 267.197 727.117, 269.906 726.799 L 272.457 726.500 276.654 692 C 281.335 653.525, 285.833 608.517, 286.166 596.834 C 286.413 588.181, 285.999 587.361, 279.434 583.514 C 277.015 582.097, 274.579 580.081, 274.018 579.034 C 271.548 574.418, 273.712 548.431, 276.662 547.299 C 277.449 546.998, 286.934 550.252, 297.740 554.532 C 321.474 563.931, 324.840 564.988, 327.672 563.932 C 331.380 562.550, 334.955 554.735, 339.166 538.813 C 343.063 524.076, 343.198 523.046, 342.768 511.441 C 342.389 501.194, 341.935 498.537, 339.746 493.757 C 337.349 488.520, 336.911 488.109, 333.413 487.815 C 328.890 487.436, 327.978 485.756, 331.586 484.449 L 334.207 483.500 331.019 479.500 C 326.750 474.143, 325.291 473.427, 322.954 475.542 C 320.042 478.177, 319.535 480.928, 321.659 482.568 C 323.406 483.916, 323.328 484.147, 320.127 487.090 C 317.255 489.731, 316.291 490.079, 313.627 489.436 C 311.907 489.021, 306.176 488.635, 300.892 488.578 C 291.337 488.474, 291.259 488.453, 286.724 484.737 C 284.216 482.682, 281.844 481, 281.454 481 C 280.084 481, 281.728 491.042, 283.400 492.890 C 284.331 493.918, 286.759 495.027, 288.796 495.355 C 293.998 496.192, 296.866 498.522, 299.094 503.720 C 300.994 508.153, 300.994 508.371, 299.053 521.628 C 296.984 535.759, 296.505 537.430, 294.819 536.388 C 294.128 535.961, 294.010 531.991, 294.468 524.622 C 295.286 511.484, 294.163 505.720, 289.837 500.850 C 287.086 497.753, 286.914 497.689, 287.559 500 C 289.009 505.194, 289.176 512.609, 288.006 519.864 C 286.607 528.535, 286.147 530, 284.823 530 C 284.248 530, 283.963 525.471, 284.115 518.750 C 284.308 510.242, 283.960 506.334, 282.685 502.715 C 281.758 500.083, 281 497.122, 281 496.135 C 281 490.128, 268.147 467, 264.808 467 C 264.152 467, 263.966 471.318, 264.281 479.250 M 272 491.032 C 272 492.150, 272.675 494.680, 273.500 496.654 C 274.325 498.629, 275 502.065, 275 504.290 C 275 506.515, 275.469 511.298, 276.041 514.918 C 276.614 518.538, 277.312 522.975, 277.592 524.778 C 277.872 526.581, 278.528 527.792, 279.051 527.469 C 279.580 527.142, 280 520.428, 280 512.307 C 280 497.219, 278.719 489.510, 276.361 490.415 C 275.648 490.689, 274.798 490.482, 274.473 489.956 C 273.445 488.292, 272 488.921, 272 491.032 M 329.391 494.985 C 327.623 497.657, 326.143 502.186, 324.898 508.735 C 323.877 514.106, 322.583 520.702, 322.024 523.393 C 321.366 526.558, 321.336 530.441, 321.938 534.393 C 322.451 537.752, 323.171 543.924, 323.539 548.110 C 324.314 556.921, 324.728 557.853, 328.021 558.225 C 330.822 558.542, 331.465 556.664, 335.109 537.500 C 337.709 523.829, 338.933 494.829, 337.007 492.509 C 334.861 489.923, 332.160 490.801, 329.391 494.985 M 581 493.092 C 579.075 493.660, 575.558 494.479, 573.184 494.913 C 565.917 496.243, 565.500 497.188, 565.500 512.326 C 565.500 523.286, 565.804 526.047, 567.257 528.266 C 568.759 530.562, 569.343 530.801, 571.285 529.916 C 573.046 529.114, 574.654 529.352, 578.436 530.972 C 585.003 533.788, 606.550 540, 609.746 540 C 612.159 540, 612.214 539.893, 610.667 538.185 C 609.764 537.187, 608.532 534.956, 607.929 533.227 C 606.956 530.435, 607.146 529.661, 609.626 526.292 C 611.162 524.207, 612.539 522.323, 612.685 522.107 C 614.130 519.979, 621.961 533.567, 622.843 539.733 C 623.457 544.027, 623.787 544.477, 626.774 545.088 C 628.567 545.454, 630.278 545.360, 630.576 544.877 C 631.346 543.630, 636.389 543.789, 637.701 545.101 C 638.319 545.719, 644.239 546.438, 651.180 546.737 C 662.079 547.208, 665.105 546.948, 676.528 544.557 C 694.687 540.756, 710.130 535.615, 713.863 532.128 C 717.425 528.800, 718.677 524.781, 717.176 521.488 C 714.344 515.272, 679.328 503.254, 649 498.089 C 622.475 493.571, 587.976 491.037, 581 493.092 M 299 498.403 C 299 499.747, 300.074 502.123, 301.387 503.683 C 305.910 509.058, 307.304 519.198, 304.366 525.359 C 302.902 528.429, 302.880 529.393, 304.162 534.643 C 304.948 537.864, 306.021 540.410, 306.546 540.301 C 307.071 540.192, 307.882 538.167, 308.350 535.801 C 308.817 533.435, 309.375 531.317, 309.590 531.093 C 310.637 530.002, 314.888 536.377, 315.490 539.942 C 315.866 542.168, 316.655 544.287, 317.243 544.650 C 319.077 545.784, 317.230 538.997, 313.799 532 C 310.909 526.105, 310.637 524.756, 310.880 517.500 C 311.237 506.847, 308.890 501.005, 303.057 498.029 L 299 495.959 299 498.403 M 517.016 499.032 C 515.099 500.114, 512.737 501, 511.766 501 C 510.795 501, 510 501.402, 510 501.893 C 510 503.279, 512.524 503.914, 514.091 502.923 C 516.578 501.348, 518.272 501.852, 517.710 503.999 C 517.166 506.081, 518.944 510.979, 520.250 510.992 C 520.663 510.996, 521 508.554, 521 505.563 C 521 500.161, 521.020 500.125, 524.250 499.813 C 526.038 499.641, 527.500 499.050, 527.500 498.500 C 527.500 496.665, 520.585 497.016, 517.016 499.032 M 310 499.669 C 310 500.535, 311.202 504.320, 312.670 508.080 C 314.854 513.670, 315.717 514.878, 317.409 514.708 C 319.699 514.478, 322.359 510.379, 321.564 508.306 C 321.284 507.578, 320.481 507.098, 319.778 507.241 C 318.952 507.408, 318.323 505.954, 318 503.129 C 317.517 498.908, 317.371 498.746, 313.750 498.427 C 310.865 498.172, 310 498.459, 310 499.669 M 368.654 508.783 C 368.300 514.127, 368.037 520.075, 368.069 522 C 368.122 525.240, 368.198 525.323, 369.081 523.115 C 370.499 519.572, 371.488 500.420, 370.292 499.680 C 369.674 499.298, 369.054 502.745, 368.654 508.783 M 359.563 504.250 C 358.864 509.562, 357 534.371, 357 538.367 C 357 539.998, 357.264 541.069, 357.587 540.746 C 359.652 538.682, 364.385 504.587, 362.973 501.950 C 361.325 498.870, 360.169 499.651, 359.563 504.250 M 350.615 502.072 C 350.363 502.858, 349.867 512.950, 349.514 524.500 C 348.773 548.680, 349.903 550.744, 352.525 530 C 354.880 511.366, 354.945 504.517, 352.787 502.358 C 351.371 500.943, 350.994 500.893, 350.615 502.072 M 540.286 505.852 C 532.560 511.257, 532.550 511.277, 535.705 514.432 C 539.029 517.756, 545.689 521.311, 547.034 520.479 C 548.086 519.829, 548.377 506.146, 547.393 503.582 C 546.599 501.513, 546.397 501.577, 540.286 505.852 M 149.691 509.725 C 149.439 510.151, 149.599 514.775, 150.045 520 C 152.846 552.820, 153.630 653.351, 151.379 691.181 L 150.744 701.861 154.255 702.520 C 164.463 704.435, 196.560 702.291, 199.353 699.508 C 200.505 698.360, 200.145 671.798, 198.962 670.625 C 198.666 670.331, 193.716 669.733, 187.962 669.295 L 177.500 668.500 176.630 648.204 C 176.151 637.041, 175.959 627.707, 176.204 627.463 C 176.448 627.219, 181.480 627.559, 187.385 628.219 C 196.612 629.250, 198.264 629.213, 199.123 627.959 C 200.382 626.121, 199.566 608.926, 198.089 606.166 C 197.337 604.761, 195.248 603.799, 191.253 603.017 C 188.089 602.397, 183.700 601.352, 181.500 600.695 L 177.500 599.500 176.729 591 C 176.305 586.325, 176.080 574.850, 176.229 565.500 L 176.500 548.500 179.666 548.638 C 183.502 548.806, 193.640 553.313, 196.747 556.232 L 199 558.349 201.500 556 C 203.954 553.695, 204 553.371, 204 538.461 C 204 520.379, 203.245 518.573, 195.222 517.458 C 192.625 517.096, 186.225 515.759, 181 514.485 C 164.468 510.455, 150.513 508.334, 149.691 509.725 M 581.624 510.538 C 581.288 511.412, 580.584 511.861, 580.057 511.535 C 579.531 511.210, 578.628 511.826, 578.051 512.904 C 577.229 514.440, 577.489 515.628, 579.251 518.390 C 580.488 520.329, 581.849 521.934, 582.275 521.958 C 583.390 522.019, 585 517.350, 585 514.057 C 585 510.639, 582.561 508.097, 581.624 510.538 M 589.557 512.628 C 588.820 515.566, 589.727 521, 590.954 521 C 591.392 521, 592.021 519.646, 592.352 517.992 C 592.682 516.338, 593.515 515.100, 594.203 515.242 C 594.890 515.384, 595.607 514.487, 595.796 513.250 C 595.985 512.013, 595.658 511, 595.070 511 C 594.481 511, 594 511.450, 594 512 C 594 512.550, 593.550 513, 593 513 C 592.450 513, 592 512.325, 592 511.500 C 592 509.012, 590.263 509.814, 589.557 512.628 M 453.597 529.067 C 416.562 534.207, 397.220 542.784, 355.468 572.583 C 341.114 582.827, 337.734 584.589, 336.134 582.662 C 335.573 581.985, 334.653 578.575, 334.091 575.083 C 333.529 571.592, 332.882 568.549, 332.655 568.321 C 332.102 567.769, 331.241 574.074, 329.968 587.991 C 329.390 594.312, 328.528 599.872, 328.051 600.349 C 327.564 600.836, 323.875 600.434, 319.606 599.427 C 315.437 598.445, 311.796 597.871, 311.514 598.153 C 311.232 598.435, 310.319 605.828, 309.485 614.583 C 308.651 623.337, 307.087 637.475, 306.008 646 C 303.171 668.423, 299.181 706.782, 298.390 719.220 C 297.713 729.887, 297.721 729.943, 300.105 730.840 C 305.672 732.935, 342.233 739.167, 343.211 738.189 C 344.476 736.924, 345.615 720.450, 346.957 684 C 348.291 647.747, 348.284 642, 346.907 642 C 346.305 642, 342.242 643.801, 337.876 646.002 C 331.376 649.280, 329.834 649.732, 329.361 648.498 C 329.043 647.669, 329.282 640.515, 329.891 632.599 C 330.501 624.684, 331 615.451, 331 612.081 L 331 605.956 335.393 603.170 C 337.809 601.638, 341.296 599.155, 343.143 597.652 C 348.078 593.635, 379.153 573.102, 389 567.352 C 404.151 558.504, 410.072 556.498, 420.993 556.513 C 432.227 556.528, 436.401 558.241, 442.734 565.435 C 449.112 572.681, 450.388 578.342, 449.712 596.395 C 448.559 627.179, 439.950 659.563, 425.326 688.126 C 413.423 711.373, 402.459 723.036, 379.912 736.435 C 369.903 742.383, 369.649 742.211, 391.759 744.453 C 414.475 746.756, 413.520 746.880, 416.372 741.250 C 420.004 734.080, 430.873 704.312, 439.283 678.500 C 447.530 653.190, 453.320 631.165, 463.912 584.808 C 467.769 567.927, 471.601 552.498, 472.426 550.522 C 474.746 544.970, 484.677 541.820, 488.333 545.476 C 490.277 547.420, 490.704 555.034, 492.064 612 C 492.868 645.680, 492.875 667.736, 492.090 692 C 490.859 730.050, 489.834 741.421, 487.392 744.120 C 485.838 745.836, 485.842 746.002, 487.453 746.620 C 489.404 747.369, 509.709 746.420, 524 744.912 C 543.475 742.856, 551.533 739.490, 581.500 720.887 C 601.877 708.237, 609.374 704.443, 618.871 701.976 C 626.500 699.993, 626.679 699.664, 626.882 687.250 C 627.017 678.952, 627.212 679.074, 618.444 681.950 C 615.175 683.022, 610.673 684.366, 608.441 684.937 C 602.265 686.515, 596.115 691.117, 589.622 699.016 C 578.409 712.657, 562.402 723.187, 543.500 729.356 C 534.402 732.325, 503.039 740, 500.005 740 C 498.384 740, 498 739.336, 498 736.534 C 498 731.561, 504.409 657.787, 508.515 615.500 C 514.680 552.006, 514.335 554.183, 517.726 557.252 C 520.480 559.744, 524.703 561.284, 544.500 567.012 C 554.400 569.877, 565.803 573.736, 569.840 575.587 C 590.937 585.262, 605.099 601.701, 609.605 621.746 L 611.348 629.500 613.424 618.972 C 614.677 612.617, 616.293 607.423, 617.500 605.865 C 618.600 604.447, 621.413 600.931, 623.750 598.053 C 627.602 593.311, 628 592.305, 628 587.315 C 628 581.147, 629.384 578.549, 636.772 570.846 C 639.227 568.286, 640.972 565.764, 640.650 565.242 C 640.327 564.720, 636.467 563.993, 632.073 563.626 C 627.678 563.260, 619.472 562.020, 613.836 560.870 C 604.016 558.868, 596.172 556.690, 537.296 539.622 C 522.884 535.445, 507.134 531.321, 502.296 530.459 C 491.642 528.562, 463.114 527.746, 453.597 529.067 M 227.272 539.573 C 222.642 541.947, 216.211 549.297, 213.411 555.414 C 209.901 563.079, 208.507 575.192, 209.890 585.984 C 211.855 601.300, 215.356 609.188, 228.486 627.874 C 238.871 642.654, 243.649 651.566, 245.180 659.011 C 246.617 666.001, 245.730 670.692, 241.997 675.846 C 238.388 680.827, 234.407 682.999, 227.597 683.702 C 223.058 684.171, 221.537 683.792, 215.253 680.628 L 208.087 677.019 207.591 680.259 C 207.319 682.042, 206.895 687.502, 206.649 692.394 L 206.203 701.288 209.852 704.635 C 211.858 706.476, 216.200 709.444, 219.500 711.231 C 224.633 714.011, 226.511 714.482, 232.500 714.490 C 241.100 714.502, 246.169 711.878, 253.914 703.404 C 263.066 693.390, 266.007 684.776, 265.988 668.040 C 265.971 652.743, 263.629 645.400, 253.066 627.516 C 246.432 616.284, 237.385 598.247, 234.364 590.227 C 230.323 579.505, 231.839 567.832, 237.454 566.422 C 241.466 565.415, 245.706 567.765, 255.116 576.212 C 259.888 580.496, 264.227 584, 264.758 584 C 265.770 584, 266.445 579.404, 267.596 564.688 L 268.285 555.875 262.360 550.113 C 254.576 542.544, 246.708 538.805, 237.500 538.301 C 232.352 538.020, 229.646 538.356, 227.272 539.573 M 98.750 541.572 C 95.495 543.338, 95.516 542.973, 97.509 562.621 C 99.871 585.910, 99.633 585, 103.353 585 C 108.003 585, 113.127 581.841, 115.314 577.627 C 117.557 573.305, 119.367 559.249, 118.422 553.500 C 117.001 544.863, 112.349 539.975, 105.615 540.040 C 103.352 540.062, 100.263 540.751, 98.750 541.572 M 710.500 555.114 C 690.711 561.225, 677.068 563.955, 662.750 564.667 C 655.737 565.016, 650 565.606, 650 565.977 C 650 566.348, 651.168 567.742, 652.596 569.076 C 655.635 571.913, 664.949 584.964, 667.502 589.961 C 668.474 591.864, 670.523 597.132, 672.056 601.667 C 674.985 610.330, 678.887 616.854, 684.002 621.638 C 686.211 623.703, 686.914 625.112, 686.526 626.697 C 686.153 628.223, 687.213 630.643, 689.994 634.613 C 696.148 643.399, 695.372 644.099, 686.238 638 C 682.943 635.800, 679.405 633.990, 678.374 633.978 C 677.343 633.966, 674.520 633.058, 672.101 631.960 C 669.682 630.863, 667.522 630.144, 667.302 630.364 C 666.162 631.505, 668.719 636.291, 674.028 642.952 C 677.293 647.048, 681.204 652.768, 682.719 655.662 C 686.744 663.350, 685.413 664.062, 674.441 660.092 C 669.649 658.358, 665.490 657.177, 665.199 657.468 C 664.089 658.578, 672.886 667.621, 677.578 670.194 C 685.181 674.363, 688.115 679.485, 684.800 682.800 C 683.226 684.374, 663.892 684.402, 657.123 682.839 C 650.683 681.353, 649.712 682.133, 647.615 690.483 C 645.234 699.962, 645.246 699.999, 650.750 700.006 C 657.176 700.014, 672.528 702.394, 685.601 705.409 C 691.522 706.775, 696.691 707.691, 697.088 707.446 C 698.384 706.645, 708.074 675.875, 712.029 660 C 718.244 635.055, 722.291 611.831, 725.981 579.928 C 728.304 559.850, 728.480 553.880, 726.800 552.200 C 725.174 550.574, 725.248 550.560, 710.500 555.114 M 399.655 589.105 C 394.482 590.320, 383.243 596.700, 381.447 599.440 C 380.411 601.022, 379.425 609.856, 377.973 630.574 C 376.859 646.484, 375.284 667.748, 374.473 677.829 C 372.814 698.476, 372.589 710.628, 373.854 711.410 C 376.377 712.969, 389.989 700.690, 396.947 690.577 C 404.913 678.999, 414.324 655.040, 418.009 636.955 C 421.528 619.690, 420.353 600.046, 415.344 592.402 C 412.763 588.463, 407.284 587.312, 399.655 589.105 M 540.505 591.250 C 540.268 591.938, 538.913 605.100, 537.494 620.500 C 535.302 644.297, 533.748 659.493, 529.342 700.208 L 528.724 705.915 532.612 704.860 C 547.454 700.834, 565.523 683.957, 574.788 665.465 C 580.537 653.990, 582.256 646.259, 581.856 633.665 C 581.517 622.990, 581.299 621.989, 577.733 614.775 C 572.116 603.409, 563.940 596.624, 550.142 591.877 C 543.775 589.686, 541.106 589.513, 540.505 591.250 M 104.200 604.200 C 103.313 605.087, 103 614.386, 103 639.839 L 103 674.278 109.036 673.730 C 112.355 673.429, 116.175 672.460, 117.523 671.577 C 124.763 666.833, 128.083 647.495, 124.533 630.743 C 122.720 622.184, 116.906 611.051, 111.878 606.508 C 107.738 602.769, 106.118 602.282, 104.200 604.200 M 615.025 621.750 C 614.437 623.813, 613.536 631.125, 613.023 638 C 612.090 650.502, 609.272 662.191, 604.164 674.750 C 602.990 677.638, 602.466 680, 603 680 C 605.442 680, 609.333 671.481, 611.992 660.316 C 614.772 648.644, 619 624.436, 619 620.189 C 619 616.568, 616.188 617.672, 615.025 621.750 M 470.290 633 C 469.625 634.925, 467.237 643.925, 464.983 653 C 462.730 662.075, 459.095 676.153, 456.906 684.285 C 454.717 692.417, 453.163 699.454, 453.453 699.923 C 453.978 700.774, 469.814 697.327, 471.264 696.047 C 471.684 695.676, 471.909 680.551, 471.764 662.436 C 471.545 635.170, 471.292 630.102, 470.290 633 M 78 716.529 C 78 720.183, 90.729 742.397, 100.092 755.081 C 111.663 770.756, 129.210 787.150, 145.500 797.506 C 154.329 803.119, 175.117 813.289, 186.033 817.336 C 191.275 819.280, 203.088 823.149, 212.283 825.935 C 221.477 828.721, 236.537 833.282, 245.750 836.072 C 283.715 847.567, 310.745 860.975, 334.471 880.081 C 347.085 890.239, 363.794 907.497, 373.127 920.008 C 377.848 926.337, 382.339 932.033, 383.106 932.667 C 384.236 933.600, 385.917 931.820, 391.998 923.246 C 413.058 893.552, 437.998 872.086, 470.275 855.874 C 488.649 846.645, 502.750 841.562, 543.140 829.608 C 603.654 811.698, 633.769 794.906, 660.790 764.004 C 667.400 756.445, 681 737.368, 681 735.655 C 681 734.333, 678.690 735.133, 663.748 741.623 C 655.361 745.266, 641.525 751.252, 633 754.926 C 614.501 762.898, 609.778 765.845, 596 778.006 C 583.508 789.032, 576.605 793.699, 566.220 798.138 C 559.073 801.194, 557.683 801.441, 547.500 801.469 C 537.178 801.498, 535.717 801.238, 523.793 797.250 C 516.804 794.913, 509.795 793, 508.219 793 C 502.810 793, 486.476 796.156, 464 801.545 C 420.055 812.080, 396.993 815.207, 377.927 813.213 C 358.549 811.187, 347.413 805.966, 332.835 792.071 C 316.413 776.420, 310.225 773.499, 293.500 773.502 L 283.500 773.504 268.500 781.266 C 248.259 791.740, 241.294 793.486, 223 792.672 C 195.920 791.467, 173.421 783.652, 159.267 770.535 C 152.259 764.040, 149.081 759.810, 139.665 744.440 C 128.583 726.353, 117.953 720.014, 92 716.016 C 82.366 714.532, 78 714.692, 78 716.529 M 457.293 723.704 C 452.050 725.491, 447.807 730.228, 445.194 737.212 C 441.575 746.883, 441.248 746.380, 451.808 747.392 C 457.583 747.946, 461.474 747.926, 462.060 747.340 C 463.072 746.328, 464.918 733.918, 464.969 727.785 C 465.010 722.904, 462.912 721.789, 457.293 723.704"/>
</svg>