<?xml version="1.0" encoding="utf-8"?>
<svg xmlns="http://www.w3.org/2000/svg" width="875" height="1002" viewBox="0 0 875 1002">
  <path fill-rule="evenodd" d="M 333.500 9.689 C 312.163 23.827, 290.492 46.906, 277.533 69.295 C 276.006 71.933, 275.033 74.367, 275.371 74.704 C 275.709 75.042, 278.576 72.861, 281.743 69.856 C 289.094 62.883, 295.077 58.815, 304.718 54.236 C 312.020 50.768, 313.060 50.556, 324.574 50.172 L 336.725 49.768 337.269 39.634 C 337.864 28.571, 341 16.937, 346.132 6.750 C 348.014 3.015, 348.586 1.013, 347.764 1.038 C 347.069 1.059, 340.650 4.952, 333.500 9.689 M 549.637 32.750 C 551.506 40.473, 551.997 45.254, 551.998 55.750 L 552 69 562.091 69 C 572.096 69, 572.257 69.039, 580.910 73.508 C 585.710 75.987, 592.006 80.037, 594.900 82.508 C 597.795 84.978, 600.329 87, 600.531 87 C 602.152 87, 589.183 63.421, 582.155 53.592 C 571.873 39.213, 554.272 23, 548.943 23 C 547.437 23, 547.503 23.931, 549.637 32.750 M 330.500 91.948 C 312.504 96.167, 292.428 105.550, 277.618 116.666 C 259.490 130.271, 237.334 155.162, 224.778 176.029 C 211.250 198.511, 201.167 225.569, 194.249 257.952 C 191.732 269.735, 191.566 272.116, 191.534 297 C 191.503 321.096, 191.713 324.498, 193.848 334.500 C 199.176 359.465, 209.211 383.526, 222.922 404.212 C 231.511 417.170, 250.036 436.385, 261.008 443.717 C 282.523 458.095, 303.652 465, 326.130 465 C 367.158 465, 396.532 441.284, 406.935 399.760 C 411.925 379.841, 411.345 330.530, 404.984 234 C 397.959 127.379, 391.422 101.584, 369.221 92.879 C 361.175 89.724, 341.957 89.262, 330.500 91.948 M 512.402 94.420 C 487.800 100.039, 480.068 116.288, 468.078 187.568 C 460.262 234.033, 453.469 303.523, 452.346 348.500 C 451.468 383.666, 453.732 398.063, 463.080 416.739 C 482.744 456.027, 528.681 470.092, 575 451.008 C 617.777 433.384, 659.521 381.703, 672.345 330.491 C 676.380 314.375, 677.202 306, 677.144 281.547 C 677.097 261.623, 676.746 256.467, 674.547 243.500 C 668.926 210.337, 657.576 181.081, 640.314 155.258 C 619.561 124.212, 595.279 104.595, 567.500 96.432 C 559.384 94.047, 556.536 93.750, 538.500 93.407 C 523.813 93.128, 516.880 93.397, 512.402 94.420 M 593.603 158.250 C 591.116 178.577, 588.978 187.361, 582.412 204.234 C 576.965 218.229, 564.149 244.199, 556.865 256 C 548.373 269.759, 548.166 270.201, 552.419 265.500 C 558.727 258.526, 573.884 235.203, 578.999 224.598 C 584.532 213.128, 590.211 196.940, 592.376 186.471 C 593.872 179.238, 595.664 154, 594.682 154 C 594.374 154, 593.889 155.912, 593.603 158.250 M 268.584 164.359 C 267.625 171.031, 269.062 185.945, 271.631 196 C 276.357 214.488, 287.150 231.976, 305.158 250.322 L 317.112 262.500 308.478 251.500 C 298.083 238.258, 285.057 219.037, 280.912 210.826 C 279.251 207.535, 276.269 200.041, 274.285 194.171 C 271.193 185.020, 270.590 181.719, 270.053 171 C 269.456 159.094, 269.386 158.779, 268.584 164.359 M 244.573 198.500 C 246.186 211.486, 255.208 232.114, 265.642 246.673 C 275.145 259.932, 281.854 266.872, 309.389 291.928 C 336.226 316.349, 344.622 324.986, 354.176 338 C 364.751 352.406, 374.319 371.283, 378.983 386.944 C 380.170 390.930, 381.316 394.017, 381.530 393.803 C 381.743 393.590, 381.049 389.263, 379.987 384.187 C 373.023 350.920, 355.817 322.356, 327 296.225 C 321.225 290.989, 308.160 279.852, 297.966 271.477 C 264.739 244.180, 255.587 231.817, 246.533 202 C 244.324 194.723, 244.042 194.220, 244.573 198.500 M 618.101 204.788 C 606 229.264, 599.235 238.164, 567.805 270.964 C 538.517 301.527, 532.964 307.689, 524.996 318.468 C 512.552 335.301, 504.378 350.472, 498.038 368.500 C 493.441 381.572, 491.960 389.806, 491.471 405 C 491.017 419.139, 491.743 418.704, 493.973 403.500 C 496.647 385.278, 508.856 356.717, 522.861 335.921 C 531.861 322.557, 542.222 309.704, 565.497 283.030 C 575.800 271.222, 586.884 258.314, 590.127 254.345 C 598.094 244.595, 610.215 226.526, 614.333 218.259 C 618.178 210.542, 623.418 197.085, 622.814 196.480 C 622.591 196.257, 620.470 199.996, 618.101 204.788 M 793.152 226.214 C 793.239 245.287, 792.151 253.990, 788.369 264.500 C 784.303 275.801, 784.360 275.353, 787.104 274.364 C 791.266 272.863, 803.167 273.403, 808.174 275.319 C 813.506 277.359, 825.002 288.735, 829.516 296.437 C 831.016 298.996, 832.441 300.892, 832.684 300.650 C 832.926 300.408, 832.618 296.450, 831.999 291.855 C 829.947 276.615, 820.670 252.723, 808.758 232 C 802.193 220.581, 795.575 210.474, 794.042 209.526 C 793.431 209.148, 793.102 215.304, 793.152 226.214 M 76.368 264.280 C 57.793 283.719, 42.767 307.957, 38.417 325.500 L 37.673 328.500 42.086 324.706 C 55.048 313.562, 64.437 309.573, 76.343 310.152 L 83.500 310.500 83.176 295 C 82.918 282.651, 83.272 277.162, 84.916 268 C 86.051 261.675, 86.984 256.163, 86.990 255.750 C 87.017 253.746, 84.512 255.758, 76.368 264.280 M 616.485 267.278 C 611.149 275.518, 606.652 281.033, 586.539 304 C 563.073 330.796, 561.536 332.674, 550.517 348 C 533.140 372.168, 518.569 397.301, 512.325 413.873 C 509.608 421.087, 505.693 437.026, 506.452 437.786 C 506.728 438.061, 507.221 437.434, 507.548 436.393 C 514.500 414.292, 540.734 372.433, 579.415 321.724 C 587.712 310.848, 598.632 296.248, 603.682 289.281 C 612.626 276.942, 621.670 262.337, 620.865 261.531 C 620.645 261.311, 618.674 263.897, 616.485 267.278 M 233 263.550 C 233 265.841, 259.168 290.390, 276.411 304.275 C 331.001 348.236, 349.191 367.091, 364.897 396 C 369.767 404.963, 370.041 404.002, 365.969 392.248 C 359.214 372.749, 350.823 360.135, 331 339.678 C 314.416 322.563, 307.246 316.754, 280.500 298.765 C 254.535 281.300, 247.201 275.932, 239.245 268.566 C 235.810 265.386, 233 263.129, 233 263.550 M 244.710 311.500 C 246.967 314.250, 250.261 317.850, 252.031 319.500 C 253.800 321.150, 271.120 339.375, 290.519 360 C 309.917 380.625, 331.124 402.732, 337.645 409.126 C 349.963 421.206, 360.856 430.477, 361.718 429.616 C 362.720 428.614, 324.052 384.959, 305.042 365.630 C 294.294 354.701, 276.725 338.087, 266 328.709 C 255.275 319.332, 245.174 310.498, 243.554 309.079 C 241.319 307.123, 241.599 307.708, 244.710 311.500 M 781.129 313.067 C 768.646 315.278, 756.252 322.123, 745.041 333 C 730.665 346.948, 720.164 363.184, 701.061 401 C 678.802 445.063, 667.072 476.438, 661.420 507.024 C 658.985 520.198, 658.471 545.501, 660.399 557.237 C 666.762 595.962, 689.886 628.407, 718 638.055 C 727.107 641.180, 743.057 641.843, 753.644 639.537 C 773.477 635.216, 792.739 624.039, 811.374 606.038 C 838.018 580.300, 855.980 547.480, 866.398 505.500 C 880.080 450.364, 874.490 388.285, 852.458 350.691 C 843.070 334.671, 826.831 320.852, 811.401 315.754 C 802.367 312.769, 789.343 311.613, 781.129 313.067 M 73.366 340.007 C 37.790 348.046, 16.310 373.915, 5.521 421.713 C 1.812 438.146, 0.631 453.665, 1.352 476.500 C 2.032 498.059, 3.521 510.130, 7.636 527.458 C 12.959 549.868, 23.547 575.691, 34.904 593.961 C 54.477 625.448, 84.012 650.828, 111.129 659.462 C 139.178 668.393, 161.341 663.116, 182.523 642.464 C 195.153 630.151, 203.555 616.333, 210.117 597.082 C 224.972 553.506, 215.507 502.743, 178.499 427.500 C 150.167 369.898, 127.606 345.038, 98.634 339.494 C 88.748 337.603, 83.537 337.708, 73.366 340.007 M 813.666 364.512 C 822.074 384.350, 825 400.253, 825 426.112 C 825 453.388, 822.281 470.763, 815.089 489.433 C 813.409 493.797, 812.247 497.581, 812.508 497.842 C 813.270 498.603, 820.963 481.281, 824.034 471.890 C 828.447 458.394, 829.290 449.786, 828.750 423.743 C 828.160 395.318, 826.550 387.866, 816.556 367.280 C 813.010 359.976, 809.907 354, 809.660 354 C 809.413 354, 811.215 358.731, 813.666 364.512 M 56.642 389.828 C 49.378 412.768, 46.477 432.780, 47.340 454 C 48.067 471.896, 50.091 483.768, 54.222 494.364 C 59.755 508.557, 73.780 535.012, 83.453 549.500 C 95.029 566.838, 103.766 577.072, 113.946 585.217 C 121.487 591.250, 141.650 603.683, 142.506 602.827 C 142.733 602.600, 140.446 600.441, 137.423 598.029 C 129.140 591.419, 103.244 564.542, 94.101 553.066 C 72.783 526.307, 55.771 494.628, 51.643 474 C 47.117 451.389, 49.368 420.401, 57.627 391.603 C 59.503 385.059, 60.835 379.502, 60.586 379.253 C 60.338 379.004, 58.563 383.763, 56.642 389.828 M 70.398 391.231 C 67.683 400.851, 67.501 402.637, 67.521 419.500 C 67.542 438.133, 68.394 445.323, 72.564 462.078 C 80.571 494.250, 95.123 522.882, 117.997 551.472 C 132.737 569.896, 134.377 570.609, 124.963 554.500 C 89.201 493.303, 84.417 483.048, 75.495 448.464 C 68.589 421.694, 67.775 407.936, 72.042 390.072 C 73.141 385.471, 73.872 381.539, 73.667 381.334 C 73.463 381.129, 71.991 385.583, 70.398 391.231 M 802.464 391 C 808.556 426.183, 805.841 451.789, 792.340 486.500 C 780.043 518.115, 768.651 535.239, 731.527 577.909 C 722.437 588.357, 715 597.152, 715 597.453 C 715 598.982, 717.819 597.319, 727.207 590.250 C 769.046 558.750, 802.417 502.507, 808.051 454 C 810.200 435.504, 808.052 406.460, 803.540 393 C 802.710 390.525, 802.226 389.625, 802.464 391 M 777.046 402.383 C 774.707 413.457, 770.822 425.517, 761.063 452 C 755.692 466.575, 748.004 487.500, 743.979 498.500 C 739.953 509.500, 732.686 528.129, 727.829 539.898 C 722.973 551.668, 719 561.774, 719 562.358 C 719 564.252, 729.003 547.788, 734.709 536.500 C 742.188 521.706, 749.176 503.484, 758.871 473.500 C 768.647 443.267, 775.098 420.649, 777.460 408.327 C 779.398 398.218, 779.032 392.977, 777.046 402.383 M 101 433.426 C 101 433.844, 107.080 452.707, 114.510 475.343 C 126.834 512.887, 138.810 546.523, 139.579 545.754 C 140.119 545.214, 102.547 434.440, 101.364 433.083 C 101.164 432.854, 101 433.009, 101 433.426 M 408.372 497.997 C 380.937 503.493, 349.168 518.587, 322.567 538.768 C 276.034 574.068, 206.464 652.756, 157.641 725.310 C 115.498 787.937, 98.166 833.973, 100.343 877.500 C 100.678 884.201, 101.822 892.928, 102.934 897.263 C 110.089 925.165, 129.432 949.591, 153.500 961.117 C 172.968 970.440, 188.468 970.312, 195.110 960.773 C 196.364 958.973, 201.071 952.775, 205.570 947 C 223.404 924.111, 236.844 900.596, 241.865 883.500 C 249.110 858.828, 261.150 777.380, 261.377 751.500 C 261.485 739.236, 261.241 736.942, 259.408 733 C 256.543 726.836, 252.653 722.469, 247.145 719.230 C 243.070 716.835, 241.457 716.500, 234 716.500 C 226.455 716.500, 224.713 716.872, 218.500 719.810 C 210.485 723.599, 206.728 726.812, 203.658 732.500 C 201.679 736.168, 201.514 737.826, 201.671 752.500 C 201.765 761.300, 203.462 791.884, 205.441 820.465 C 209.843 884.010, 210.750 908.755, 209.046 918.782 C 207.576 927.435, 196.671 950.284, 193.755 950.822 C 188.263 951.837, 172.316 938.742, 164.121 926.489 C 155.619 913.777, 149.488 894.636, 148.428 877.500 C 147.392 860.732, 146.459 860.332, 143.520 875.393 C 142.199 882.166, 141.888 887.651, 142.219 898.393 C 142.708 914.312, 144.327 920.400, 150.571 929.805 C 152.537 932.766, 153.965 935.369, 153.744 935.590 C 152.929 936.405, 142.891 923.033, 137.612 914.100 C 125.935 894.340, 123.500 883.906, 124.300 857.071 C 124.648 845.406, 125.472 835.718, 126.516 831.019 C 136.347 786.774, 171.983 720.005, 213.256 668.500 C 230.905 646.475, 240.784 635.332, 265.588 609.471 C 322.229 550.417, 362.997 522.695, 407 513.312 C 419.140 510.724, 451.935 510.732, 463.976 513.326 C 505.002 522.166, 545.548 546.254, 589.500 587.899 C 649.126 644.396, 700.010 712.110, 734.305 780.600 C 753.961 819.857, 760.447 842.440, 760.411 871.500 C 760.383 894.232, 756.492 908.068, 745.511 924.484 C 740.005 932.715, 726.288 947.264, 730.882 940 C 743.363 920.266, 746.669 890.570, 739.511 862.500 C 737.689 855.354, 729.985 835.056, 728.346 833.083 C 727.126 831.614, 727.247 834.694, 728.682 841.570 C 731.024 852.799, 731.068 889.552, 728.751 899.534 C 721.472 930.894, 703.943 954.035, 680.279 963.527 C 671.178 967.178, 660.618 968.903, 640.745 969.987 C 614.983 971.392, 606.837 973.177, 606.207 977.556 C 605.885 979.796, 608.190 980.516, 632 985.604 C 653.133 990.120, 680.251 989.884, 700.091 985.012 C 735.976 976.199, 764.972 950.803, 777.611 917.116 C 782.981 902.806, 784.495 893.594, 784.451 875.500 C 784.384 848.201, 778.904 828.585, 761.543 793.500 C 736.083 742.046, 692.023 677.900, 646.148 625.500 C 632.635 610.064, 591.157 568.610, 579.500 558.888 C 548.243 532.823, 515.526 512.997, 489.648 504.438 C 468.171 497.335, 459.884 496.009, 437.500 496.093 C 422.364 496.150, 415.280 496.613, 408.372 497.997 M 839.081 503.772 C 835.724 510.682, 823.395 529.054, 814.108 540.985 C 792.870 568.268, 763.816 594.903, 739.757 609.144 C 734.838 612.055, 731.234 614.578, 731.747 614.749 C 733.320 615.273, 748.004 608.569, 757.203 603.127 C 793.143 581.865, 824.212 545.054, 839.979 505.054 C 842.631 498.325, 842.097 497.563, 839.081 503.772 M 29 506.254 C 29 506.576, 30.387 510.814, 32.082 515.670 C 41.647 543.071, 63.814 576.654, 84.341 594.845 C 100.902 609.521, 125.032 622.764, 140 625.390 C 143.959 626.085, 144.274 626.274, 132.324 620.770 C 117.703 614.035, 97.528 598.670, 79.802 580.768 C 55.943 556.672, 41.760 536.561, 32.918 514.288 C 30.004 506.949, 29 504.889, 29 506.254 M 400 532.709 C 392.244 534.065, 380.735 537.559, 372.899 540.938 C 364.775 544.440, 339.037 560.513, 337.456 563.071 C 336.071 565.312, 337.795 564.820, 342.555 561.615 C 351.723 555.445, 358.930 553.497, 372.500 553.523 C 382.651 553.542, 385.386 553.899, 390.247 555.843 C 397.939 558.919, 406.317 566.705, 410.189 574.374 L 413.243 580.424 412.734 593.962 C 412.279 606.055, 411.792 608.951, 408.166 621.094 C 400.435 646.991, 387.437 681.935, 360.964 748 C 338.126 804.992, 329.492 828.031, 320.302 856.500 C 300.985 916.341, 293.944 937.165, 290.863 943.563 C 286.837 951.924, 278.926 960.225, 270.500 964.930 C 267.200 966.772, 262.025 969.873, 259 971.820 C 253.745 975.203, 253.611 975.393, 256 976.081 C 261.435 977.646, 278.538 977.036, 286.590 974.990 C 313.542 968.140, 332.130 949.689, 340.474 921.500 C 345.750 903.677, 351.263 887.474, 352.501 886.154 C 353.549 885.036, 356.029 885.819, 367.132 890.768 C 398.119 904.582, 406.033 905.187, 441.231 896.431 C 451.533 893.868, 460.645 892.034, 461.481 892.354 C 462.328 892.679, 463 894.149, 463 895.677 C 463 900.716, 469.167 942.488, 470.047 943.407 C 472.203 945.662, 537.050 917.116, 548.578 908.837 C 557.741 902.257, 559.627 897.722, 575.338 844.500 C 581.671 823.050, 592.075 788.400, 598.459 767.500 C 604.844 746.600, 610.801 725.225, 611.699 720 C 615.262 699.255, 609.988 681.044, 596.316 666.882 C 587.897 658.162, 581.535 653.262, 571.896 648.075 L 564.291 643.983 561.512 646.169 C 559.983 647.372, 557.683 650.729, 556.400 653.631 C 550.176 667.703, 547.785 684.178, 532.545 818 C 528.442 854.025, 524.776 886.113, 524.398 889.306 C 524.021 892.499, 523.384 894.749, 522.984 894.306 C 522.584 893.863, 520.595 882.250, 518.565 868.500 C 504.922 776.121, 498.031 733.293, 484.995 659.888 C 474.187 599.028, 472.436 589.861, 468.494 573.500 C 462.362 548.045, 459.939 543.378, 450.148 538.159 C 440.721 533.135, 434.482 531.983, 417.540 532.136 C 409.268 532.211, 401.375 532.469, 400 532.709 M 488.316 541.382 C 488.666 542.292, 491.266 549.666, 494.094 557.768 C 506.187 592.411, 512.846 599.583, 549.500 617.443 C 581.834 633.199, 597.717 643.965, 616.886 663.120 C 654.652 700.861, 674.158 752.895, 669.062 802.311 C 664.243 849.045, 642.312 882.770, 601 906.978 C 591.562 912.508, 576.429 918.740, 550.007 927.976 C 507.995 942.662, 485.044 952.318, 473.248 960.272 C 469.809 962.590, 467.141 964.940, 467.320 965.494 C 467.786 966.942, 483.199 972.539, 492 974.456 C 502.430 976.728, 530.620 977.568, 546.603 976.083 C 567.250 974.164, 582.467 970.564, 601.841 963.014 C 642.148 947.306, 667.833 924.518, 684.588 889.602 C 708.969 838.794, 708.337 773.284, 682.966 721.434 C 670.666 696.296, 653.425 673.545, 624.023 643.651 C 592.157 611.252, 575.389 597.786, 525.051 564.172 C 505.555 551.152, 489.170 540.326, 488.642 540.114 C 488.114 539.901, 487.967 540.472, 488.316 541.382 M 312.500 589.356 C 305.054 591.235, 291.717 598.547, 281 606.626 C 268.396 616.127, 228.384 656.220, 215.526 672.232 C 200.348 691.132, 183.318 717.642, 185.164 719.495 C 186.711 721.048, 195.352 714.528, 219 693.964 C 254.981 662.678, 277.369 648.089, 289.500 648.027 C 302.672 647.959, 311.306 658.720, 315.647 680.618 C 318.024 692.607, 318.019 719.218, 315.637 735 C 309.310 776.919, 295.439 816.144, 271.152 860.790 C 257.799 885.337, 243.259 907.090, 221.547 935 C 199.904 962.821, 191.958 974.132, 186.773 984.500 C 182.550 992.944, 182.043 1001, 185.734 1001 C 186.614 1001, 191.589 998.726, 196.790 995.947 C 230.015 978.195, 254.488 955.012, 279.938 917.182 C 316.571 862.729, 338.805 802.351, 351.445 723 C 355.903 695.016, 356.501 687.431, 356.457 659.500 C 356.417 634.709, 356.231 631.846, 354.184 624.500 C 346.824 598.092, 330.943 584.703, 312.500 589.356 M 412.633 724.769 C 396.667 765.993, 380.877 808.591, 375.949 823.735 C 370.042 841.885, 370.054 842.651, 376.327 847.436 C 383.829 853.158, 398.102 855.976, 419.662 855.992 C 430.267 856, 442.365 854.355, 449.836 851.889 L 453.248 850.763 452.634 845.539 C 451.768 838.177, 434.455 744.890, 431.376 731 C 427.987 715.709, 424.053 706.959, 420.595 707.019 C 419.993 707.030, 416.410 715.017, 412.633 724.769 M 352.846 911.616 C 351.723 914.155, 350.736 918.286, 350.652 920.796 C 350.514 924.949, 350.810 925.573, 353.937 927.707 C 359.711 931.648, 367.506 933.484, 378.500 933.492 C 388.153 933.500, 388.744 933.369, 395.531 929.741 C 404.041 925.192, 424.824 909.775, 423.184 909.228 C 422.539 909.013, 418.882 909.549, 415.058 910.419 C 410.467 911.463, 403.245 912, 393.796 912 C 381.628 912, 378.140 911.628, 370.493 909.512 C 365.547 908.144, 360.012 907.019, 358.194 907.012 C 355.220 907.001, 354.682 907.465, 352.846 911.616"/>
</svg>