<?xml version="1.0" encoding="utf-8"?>
<svg xmlns="http://www.w3.org/2000/svg" width="1002" height="708" viewBox="0 0 1002 708">
  <path fill-rule="evenodd" d="M 384.500 2.037 C 367.372 3.988, 328.147 12.755, 308.500 19.023 C 248.104 38.292, 183.117 81.693, 133.855 135.659 C 92.943 180.478, 63.680 227.238, 49.158 271 C 38.325 303.643, 37.142 333.202, 45.588 360.156 C 50.999 377.425, 61.639 392.220, 73.153 398.486 C 80.548 402.512, 91.394 403.177, 98.662 400.050 C 108.152 395.967, 112.200 389.340, 112.200 377.882 C 112.200 369.563, 109.368 365.492, 100.244 360.698 C 83.657 351.981, 78.028 340.763, 78.008 316.381 C 77.998 305.382, 80.160 292.282, 83.672 282.054 C 120.260 175.503, 237.056 74.029, 347.775 52.599 C 391.692 44.099, 413.844 47.409, 432.658 65.280 C 438.429 70.762, 440.929 74.086, 444.033 80.403 C 457.144 107.086, 458.430 151.393, 447.388 196 C 436.490 240.028, 406.673 303.814, 377.505 345.500 C 360.708 369.505, 337.364 395.288, 319.500 409.563 C 294.181 429.796, 264.691 443.859, 238.074 448.394 C 229.707 449.820, 217 450.581, 217 449.657 C 217 448.334, 222.216 435.032, 230.785 414.500 C 236.294 401.300, 250.141 367.325, 261.555 339 C 272.969 310.675, 287.469 275.350, 293.779 260.500 C 300.088 245.650, 305.460 232.333, 305.716 230.907 C 306.106 228.732, 305.321 227.626, 300.840 224.039 C 297.903 221.688, 294.063 219.071, 292.307 218.224 C 289.398 216.821, 288.713 216.838, 284.576 218.418 C 276.392 221.543, 268.386 232.986, 257.229 257.500 C 251.343 270.433, 248.558 277.070, 231.002 320 C 225.941 332.375, 216.384 355.100, 209.765 370.500 C 203.145 385.900, 193.558 408.625, 188.461 421 C 181.905 436.916, 178.748 443.463, 177.675 443.374 C 176.840 443.305, 172.504 440.605, 168.038 437.374 C 157.398 429.676, 150.033 425.063, 147.250 424.355 C 143.242 423.336, 139.602 425.042, 134.500 430.330 C 124.770 440.416, 120.927 451.745, 124.572 459.594 C 127.167 465.181, 140.172 477.788, 149.300 483.564 C 153.589 486.279, 157.844 489.011, 158.755 489.637 C 160.240 490.656, 159.186 493.856, 148.549 520.637 C 121.750 588.110, 103.176 622.835, 83.044 643.101 C 72.199 654.019, 64.143 658.320, 54.336 658.428 C 47.163 658.507, 45 657.028, 45 652.043 C 45 648.090, 41.719 642.861, 37.923 640.762 C 27.818 635.176, 9.802 645.671, 3.955 660.551 C 0.759 668.685, 0.646 679.799, 3.701 685.568 C 6.809 691.437, 13.061 696.641, 22.369 701.108 C 33.208 706.309, 40.638 707.575, 51.228 706.027 C 71.691 703.035, 91.064 692.074, 109.015 673.331 C 135.678 645.491, 158.254 602.857, 192.474 515.723 C 195.666 507.596, 198.618 500.736, 199.035 500.478 C 199.452 500.220, 207.667 499.344, 217.290 498.532 C 247.114 496.012, 266.067 490.776, 292 477.891 C 338.902 454.586, 379.145 417.624, 411.429 368.199 C 430.374 339.195, 456.724 290.058, 468.914 261 C 481.071 232.021, 489.443 202.283, 494.532 170 C 496.754 155.907, 497.654 116.312, 496.050 103.267 C 491.835 68.984, 480.578 43.060, 462.606 26.248 C 444.933 9.716, 427.409 2.322, 404 1.520 C 397.675 1.303, 388.900 1.536, 384.500 2.037 M 954 98.638 C 935.103 102.211, 917.267 112.280, 898.939 129.721 C 876.711 150.874, 861.013 175.671, 853.552 201.418 C 850.436 212.168, 850.280 221.049, 852.991 233.308 C 856.030 247.054, 858.322 250.401, 878.462 270.510 C 888.383 280.415, 899.344 291.826, 902.820 295.867 C 908.903 302.939, 909.116 303.369, 908.501 307.357 C 906.669 319.242, 902.395 325.964, 895.442 327.894 C 889.787 329.464, 877.709 329.251, 869 327.428 C 855.028 324.504, 848.051 327.870, 842.446 340.238 C 836.726 352.861, 838.037 364.955, 845.925 372.333 C 852.486 378.470, 859.755 381, 870.827 381 C 900.860 381, 935.486 357.666, 946.059 330.304 C 950.573 318.619, 949.579 292.132, 944.033 276.353 C 940.713 266.907, 936.232 261.174, 916.288 240.855 C 901.654 225.946, 896.405 219.920, 894.513 215.855 C 891.497 209.378, 891.450 207.987, 893.968 199.855 C 901.405 175.838, 934.289 145.477, 955.204 143.318 C 963.367 142.476, 964.319 143.844, 963.434 155.151 C 962.619 165.573, 964.241 171.342, 969.149 175.472 C 974.982 180.380, 987.551 177.388, 993.418 169.696 C 1001.864 158.624, 1003.208 130.022, 995.975 115.306 C 990.448 104.063, 981.019 98.742, 966 98.389 C 960.775 98.266, 955.375 98.378, 954 98.638 M 793 170.633 C 776.246 173.824, 757.364 185.873, 734.981 207.655 L 722.463 219.838 722.801 216.169 C 724.233 200.618, 707.039 194.317, 695.677 206.229 C 691.726 210.372, 681.352 230.669, 672.540 251.500 C 668.616 260.774, 665.875 265.168, 655.070 279.505 C 635.994 304.818, 621.520 317.900, 598.635 330.516 C 592.932 333.660, 591.869 333.979, 592.356 332.400 C 600.034 307.513, 601.709 276.856, 596.373 258.882 C 589.391 235.364, 573.508 223.978, 551.897 227 C 529.707 230.103, 512.271 240.172, 494.397 260.204 C 480.081 276.248, 471.646 293.648, 466.042 318.696 C 462.764 333.344, 459.419 341.548, 451.080 355.388 C 430.258 389.947, 420.827 421.921, 422.263 453.087 C 422.712 462.832, 423.247 465.859, 425.321 470.389 C 428.219 476.720, 437.348 485.970, 445.682 491.021 C 461.903 500.852, 480.875 494.500, 505.317 471.055 C 518.746 458.174, 526.600 448.732, 546.952 421 C 568.286 391.930, 571.175 388.858, 580.453 385.373 C 591.021 381.403, 607.801 372.628, 618.492 365.480 C 623.721 361.984, 628 359.490, 628 359.939 C 628 360.388, 624.889 369.248, 621.087 379.628 C 586.202 474.862, 547.850 597.630, 537.943 645.779 C 533.889 665.480, 536.022 672.368, 547.815 677.651 C 552.864 679.913, 553.297 679.953, 556.485 678.440 C 560.750 676.416, 570.135 666.621, 572.759 661.455 C 573.864 659.280, 576.891 649.850, 579.487 640.500 C 584.722 621.644, 598.571 575.345, 611.613 533.103 C 635.034 457.243, 652.273 402.421, 652.925 401.724 C 653.325 401.297, 656.093 404.395, 659.076 408.608 C 665.877 418.213, 671.696 423.426, 680 427.353 C 685.707 430.051, 687.537 430.421, 695 430.383 C 729.342 430.212, 767.579 390.873, 803.751 318.500 C 827.807 270.366, 838.232 233.143, 835.030 206.811 C 833.518 194.371, 830.993 188.286, 824.721 181.968 C 816.245 173.429, 803.060 168.718, 793 170.633 M 780.521 220.540 C 772.340 224.890, 763.985 231.841, 750.311 245.673 C 735.156 261.004, 726.800 271.705, 718.063 286.969 C 711.173 299.007, 700.206 323.787, 694.373 340.500 C 690.904 350.439, 690.532 352.479, 690.517 361.654 C 690.501 371.499, 690.594 371.926, 693.571 375.654 C 699.760 383.404, 706.836 384.630, 715.631 379.476 C 737.129 366.878, 783.535 284.476, 793.052 242 C 795.158 232.602, 795.559 222.912, 793.965 219.934 C 792.469 217.140, 786.402 217.413, 780.521 220.540 M 541.104 273.015 C 529.011 278.566, 516.530 290.469, 510.867 301.852 C 507.914 307.786, 507.556 309.413, 507.534 317 C 507.507 326.379, 509.245 331.063, 514.658 336.193 C 520.850 342.062, 539.143 347.600, 543.909 345.048 C 548.042 342.837, 555.729 324.292, 558.443 309.989 C 561.462 294.072, 559.789 281.926, 553.686 275.451 C 549.566 271.079, 546.580 270.501, 541.104 273.015 M 479.573 378.250 C 476.686 382.660, 470.242 397.652, 467.216 407 C 463.143 419.584, 462 425.604, 462 434.472 C 462 440.947, 462.316 442.222, 464.589 444.923 C 468.421 449.478, 471.377 449.019, 479.055 442.677 C 488.519 434.860, 521 397.211, 521 394.058 C 521 393.609, 519.763 392.792, 518.250 392.242 C 516.737 391.691, 512.125 390.006, 508 388.496 C 503.875 386.987, 496.273 383.558, 491.106 380.876 C 485.940 378.194, 481.563 376, 481.379 376 C 481.196 376, 480.383 377.012, 479.573 378.250"/>
</svg>