<?xml version="1.0" encoding="utf-8"?>
<svg xmlns="http://www.w3.org/2000/svg" width="883" height="1002" viewBox="0 0 883 1002">
  <path fill-rule="evenodd" d="M 580 2.104 C 522.592 6.190, 463.786 20.102, 409.500 42.440 C 389.474 50.680, 349.984 70.173, 329.258 82.048 C 235.466 135.786, 149.272 216.230, 91.440 304 C 62.606 347.761, 36.070 403.217, 21.339 450.500 C 7.543 494.781, 0.981 537.369, 1.015 582.395 C 1.044 619.808, 3.940 645.721, 11.561 676.757 C 21.677 717.958, 33.238 736.191, 57 748.419 C 67.038 753.585, 93.021 764, 95.870 764 C 97.508 764, 98.915 761.304, 103.830 748.750 C 110.187 732.512, 125.932 688.957, 143.505 639 C 149.406 622.225, 154.561 608.142, 154.961 607.705 C 155.858 606.727, 203.949 630.582, 217 638.479 C 240.400 652.638, 258.080 666.283, 273.603 682.164 C 290.885 699.845, 302.069 717.353, 308.628 737 C 311.290 744.972, 311.466 746.525, 311.456 762 C 311.449 774.391, 310.992 780.468, 309.621 786.402 C 301.871 819.956, 280.741 846.970, 250.500 861.987 C 237.579 868.403, 224.243 872.681, 212.706 874.111 C 203.918 875.200, 176.844 874.800, 167.500 873.443 L 163.500 872.862 166.480 875.402 C 176.202 883.688, 207.116 899.740, 235 910.981 C 255.142 919.101, 255.215 919.140, 276.940 933.517 C 312.117 956.797, 341.654 971.694, 376 983.479 C 412.191 995.897, 442.361 1001, 479.583 1001 C 560.618 1001, 637.012 967.017, 702.053 902.038 C 741.373 862.755, 772.952 816.947, 798.127 762.675 C 823.736 707.465, 837.900 656.905, 846.093 591.447 C 849.810 561.757, 849.827 479.816, 846.123 455 L 845.451 450.500 841.086 458 C 838.685 462.125, 833.633 470.483, 829.860 476.573 L 823 487.645 822.981 499.573 C 822.896 552.285, 813.654 622.364, 799.424 678.191 C 794.828 696.221, 784.480 729.800, 783.056 731.302 C 782.638 731.743, 782.037 724.543, 781.721 715.302 C 780.180 670.248, 767.891 637.398, 744.116 614.773 C 736.772 607.784, 733.133 605.222, 723.833 600.492 C 717.600 597.322, 712.337 594.589, 712.137 594.418 C 711.937 594.247, 718.019 586.995, 725.653 578.303 C 749.440 551.217, 766.125 529.709, 785.231 501.500 C 839.121 421.934, 869.819 344.477, 879.555 263.500 C 881.743 245.306, 882.570 203.798, 881.080 187.005 C 877.772 149.736, 868.020 112.837, 853.933 84.298 C 848.252 72.788, 845.787 68.943, 840.929 64.008 C 815.370 38.050, 744.398 12.353, 676.658 4.530 C 650.531 1.513, 604.526 0.359, 580 2.104 M 415.500 12.588 C 349.618 22.797, 284.657 49.034, 230.776 87.194 C 172.134 128.726, 124.990 180.216, 90.908 239.957 C 77.783 262.963, 53.066 315.490, 54.676 316.956 C 55.005 317.255, 55.463 316.973, 55.694 316.329 C 56.455 314.208, 80.121 279.755, 89.905 266.525 C 150.010 185.249, 237.398 111.295, 337 57.417 C 352.775 48.884, 396.454 27.902, 418 18.508 C 425.425 15.271, 431.928 12.257, 432.450 11.811 C 433.842 10.623, 425.807 10.991, 415.500 12.588 M 587.500 33.066 C 512.986 40.021, 451.275 58.996, 373.504 98.864 C 261.654 156.202, 165.669 246.026, 102.900 352.100 C 99.105 358.513, 96 364.427, 96 365.241 C 96 366.266, 97.495 366.898, 100.864 367.298 C 111.249 368.527, 129.695 378.428, 150.060 393.703 C 162.726 403.203, 176.120 414.213, 175.619 414.714 C 175.441 414.892, 171.517 413.037, 166.898 410.592 C 156.803 405.249, 149.095 403.143, 136.753 402.358 C 120.262 401.308, 99.402 406.686, 92.831 413.680 C 90.041 416.649, 89.914 421.991, 92.512 427.041 C 97.988 437.687, 115.391 455.078, 133.307 467.808 C 139.738 472.378, 145 476.357, 145 476.650 C 145 476.943, 141.963 475.508, 138.250 473.461 C 134.538 471.413, 122.275 464.780, 111 458.721 C 93.211 449.161, 74.636 438.435, 65.880 432.667 L 63.261 430.941 58.719 443.720 C 45.617 480.587, 37.130 514.477, 32.478 548.500 C 30.297 564.453, 29.382 609.446, 30.903 626 C 32.462 642.976, 36.955 664.577, 42.518 681.847 C 45.060 689.737, 47.320 696.014, 47.539 695.794 C 47.759 695.575, 49.564 689.794, 51.552 682.948 C 61.394 649.041, 81.329 602.432, 100.560 568.361 C 115.637 541.651, 148.615 494.816, 172.987 465.500 C 186.202 449.605, 198.863 436.057, 238.902 394.967 C 258.481 374.875, 288.721 343.375, 306.102 324.967 C 356.702 271.380, 367.340 261.743, 415 226.316 C 445.660 203.526, 464.646 190.290, 480.065 180.958 C 493.924 172.571, 523.765 157.432, 524.665 158.332 C 524.945 158.611, 524.122 159.495, 522.837 160.295 C 521.552 161.096, 513.750 165.924, 505.500 171.025 C 485.325 183.499, 473.396 191.766, 441.569 215.328 C 377.502 262.758, 364.741 273.807, 311.988 327.523 C 277.123 363.024, 232.415 411.533, 212.933 435 C 189.479 463.250, 166.816 499.767, 137.013 557.328 C 131.381 568.206, 126.982 577.315, 127.237 577.570 C 127.492 577.825, 131.616 577.104, 136.401 575.967 C 146.132 573.656, 164.420 573.182, 174 574.993 C 205.971 581.037, 253.224 602.588, 300.998 632.914 C 303.465 634.480, 303.461 634.456, 300.687 631 C 261.647 582.345, 243.472 554.480, 226.582 517.385 C 217.913 498.348, 205.516 464.244, 208.265 467 C 208.540 467.275, 214.272 475.600, 221.003 485.500 C 246.422 522.886, 271.242 553.955, 296 579.383 C 320.210 604.247, 347.506 627.141, 361.412 634.245 C 366.981 637.090, 368.267 637.344, 376.500 637.226 C 398.072 636.917, 442.385 626.013, 477 612.496 C 522.254 594.825, 558.850 573.589, 598.340 542.085 C 613.530 529.967, 648.659 495.348, 661.341 480 C 689.983 445.333, 710.142 409.170, 720.216 374.383 C 722.229 367.430, 722.492 364.376, 722.444 348.500 C 722.398 333.766, 721.988 328.685, 720.181 320.500 C 714.958 296.844, 706.100 271.904, 693.504 245.386 C 678.748 214.321, 664.942 192.238, 636.704 154.531 C 628.067 142.997, 621 132.849, 621 131.979 C 621 131.043, 619.060 129.569, 616.250 128.368 C 612.032 126.567, 554.957 84.949, 542.756 74.779 L 538.013 70.824 511.756 84.271 C 454.433 113.628, 421.809 133.247, 387.500 158.994 C 371.171 171.249, 359.066 180.816, 322.607 210.285 C 315.948 215.667, 305.325 223.692, 299 228.117 C 287.438 236.207, 271.285 245.618, 270.430 244.763 C 269.116 243.449, 315.085 203.093, 347.983 176.680 C 395.820 138.272, 423.374 120.342, 471 96.628 C 504.812 79.792, 535.120 68, 544.581 68 C 553.074 68, 575.400 84.777, 618.500 123.545 C 645.876 148.170, 666.514 168.456, 680.200 184.195 C 716.673 226.139, 741.983 267.011, 760.111 313.242 C 763.075 320.800, 765.725 326.987, 766 326.990 C 767.083 327.003, 778.530 298.617, 783.587 283.378 C 797.007 242.936, 797.213 223.130, 784.529 192.890 C 780.066 182.250, 772.440 168.830, 763.972 156.714 C 756.763 146.401, 734.648 123.699, 725.771 117.500 C 722.621 115.300, 720.033 113.162, 720.022 112.750 C 719.955 110.437, 737.011 113.668, 746.979 117.856 C 750.690 119.415, 757.275 123.104, 761.613 126.055 C 770.040 131.787, 794.365 155.380, 799.961 163.250 C 801.819 165.863, 803.644 168, 804.017 168 C 806.598 168, 813.783 98.088, 811.746 92.781 C 811.269 91.537, 809.293 91.594, 797.346 93.196 C 718.093 103.821, 688.121 109.892, 659.185 121.179 C 653.511 123.392, 648.693 125.026, 648.477 124.811 C 647.786 124.120, 680.064 107.368, 693 101.704 C 709.360 94.541, 729.939 86.923, 746.322 81.967 C 759.345 78.028, 785.971 71.761, 795.325 70.435 C 798.224 70.024, 799.787 69.387, 799.240 68.840 C 797.751 67.351, 775.222 57.534, 764.479 53.694 C 736.586 43.722, 707.013 37.554, 670 33.987 C 654.635 32.506, 600.028 31.896, 587.500 33.066 M 518.250 95.119 C 516.128 95.731, 515 96.685, 515 97.865 C 515 100.553, 538.139 133.662, 545.365 141.314 C 548.532 144.666, 547.848 144.820, 565.497 136.800 C 582.355 129.139, 582.628 128.931, 581.016 125.039 C 579.470 121.305, 576.538 121.088, 567 124 C 563.425 125.092, 559.537 125.988, 558.360 125.992 C 556.830 125.998, 553.025 122.155, 544.989 112.487 C 538.811 105.054, 532.427 97.854, 530.802 96.487 C 527.665 93.847, 524.028 93.451, 518.250 95.119 M 480.929 113.976 C 474.539 117.355, 474.280 118.321, 478.112 124.493 C 484.020 134.007, 494.336 148.209, 499.142 153.444 L 503.784 158.500 510.142 158.427 C 515.417 158.367, 518.191 157.598, 526.421 153.913 C 531.878 151.470, 536.520 148.941, 536.736 148.292 C 536.952 147.643, 535.638 145.502, 533.815 143.535 L 530.500 139.957 522.811 142.724 L 515.122 145.491 511.963 142.495 C 510.225 140.848, 503.635 133.313, 497.318 125.750 C 491.001 118.188, 485.533 112.020, 485.166 112.044 C 484.800 112.069, 482.893 112.938, 480.929 113.976 M 442.318 136.073 C 440.125 137.158, 437.062 139.370, 435.510 140.989 L 432.690 143.933 436.355 165.657 C 438.370 177.605, 440.700 188.420, 441.533 189.690 C 442.809 191.638, 443.905 192, 448.523 192 L 454 192 454 183.104 L 454 174.207 461.250 169.732 C 473.383 162.243, 471.968 162.379, 479.025 168.020 C 482.451 170.759, 485.985 172.998, 486.877 172.996 C 489.104 172.991, 494.938 169.324, 495.644 167.487 C 497.156 163.546, 488.492 156.659, 466.835 144.587 C 447.339 133.719, 447.185 133.665, 442.318 136.073 M 447.363 151.750 C 448.318 157.535, 450.013 163, 450.851 163 C 452.254 163, 461 157.053, 461 156.099 C 461 154.906, 450.047 148, 448.153 148 C 447.082 148, 446.893 148.898, 447.363 151.750 M 599 164.540 C 599 168.203, 595.757 173.946, 591.335 178.114 C 587.274 181.941, 581.839 185.711, 563.274 197.581 L 551.793 204.922 544.664 198.922 C 540.744 195.622, 536.512 192.665, 535.261 192.351 C 532.794 191.732, 519 199.189, 519 201.142 C 519 201.721, 522.029 205.332, 525.732 209.168 L 532.464 216.141 529.982 218.068 C 524.070 222.659, 494.899 242, 493.888 242 C 493.277 242, 487.900 238.400, 481.940 234 C 475.980 229.600, 470.756 226, 470.331 226 C 469.171 226, 458.002 237.279, 457.985 238.469 C 457.976 239.036, 461.682 242.926, 466.220 247.113 C 473.818 254.123, 474.354 254.869, 472.986 256.523 C 471.195 258.688, 442.856 282, 442.014 282 C 441.689 282, 438.433 279.346, 434.779 276.103 C 422.362 265.080, 421.444 264.545, 417.213 265.859 C 411.943 267.495, 403.798 273.715, 404.199 275.796 C 404.378 276.723, 409.354 281.492, 415.258 286.394 C 423.945 293.607, 425.771 295.572, 424.833 296.701 C 423.113 298.773, 394.238 323, 393.488 323 C 393.134 323, 387.576 319.850, 381.137 316 C 374.698 312.150, 368.513 309, 367.392 309 C 365.267 309, 357 318.185, 357 320.546 C 357 321.248, 361.301 325.501, 366.557 329.997 C 371.813 334.493, 375.976 338.766, 375.807 339.492 C 375.419 341.160, 347.989 367.101, 347.133 366.609 C 319.760 350.878, 319.666 350.854, 313.608 358.054 C 312.174 359.759, 311 361.568, 311 362.074 C 311 363.747, 317.829 370.590, 325.472 376.577 C 329.612 379.820, 333 382.855, 333 383.321 C 333 384.886, 309.637 408.053, 307.523 408.584 C 306.273 408.897, 301.893 407.480, 296.617 405.054 C 291.768 402.824, 287.508 401.002, 287.150 401.004 C 286.527 401.007, 278.067 411.222, 276.642 413.692 C 276.203 414.451, 278.409 416.357, 282.727 418.950 C 293.144 425.203, 294.350 426.321, 293.517 428.947 C 293.122 430.191, 284.676 439.494, 274.748 449.620 C 264.821 459.746, 256.899 468.232, 257.144 468.477 C 258.141 469.474, 289.002 472.147, 295.713 471.818 C 304.569 471.384, 302.642 473.079, 332.112 439.810 C 360.089 408.225, 386.960 380.113, 415.141 352.943 C 473.919 296.276, 511.856 263.609, 579.006 211.845 C 590.834 202.727, 602.738 193.251, 605.460 190.787 L 610.408 186.307 609.098 181.903 C 607.253 175.703, 600.893 162, 599.861 162 C 599.387 162, 599 163.143, 599 164.540 M 403.242 165.494 C 399.327 167.196, 379.713 180.436, 377.936 182.577 C 376.890 183.837, 378.211 187.147, 385.803 202.296 C 390.820 212.308, 395.999 221.818, 397.312 223.430 L 399.698 226.359 404.071 224.080 C 409.919 221.032, 430.780 205.953, 434.330 202.209 C 439.779 196.461, 438.606 186.916, 432.033 183.517 C 430.419 182.683, 427.052 182, 424.550 182 L 420 182 420 175.073 C 420 168.780, 419.759 167.955, 417.365 166.073 C 414.257 163.627, 408.116 163.376, 403.242 165.494 M 401.457 180.863 C 399.784 181.884, 397.580 183.992, 396.560 185.549 C 394.735 188.334, 394.742 188.449, 396.956 192.623 C 399.749 197.887, 401.594 198.753, 402.482 195.214 C 402.849 193.755, 404.735 189.990, 406.675 186.848 C 408.614 183.706, 409.904 180.654, 409.542 180.067 C 408.533 178.436, 404.841 178.800, 401.457 180.863 M 362.531 193.111 C 356.497 196.346, 327.782 218.392, 323.657 222.958 C 320.752 226.173, 320 227.816, 320 230.944 C 320 233.110, 320.367 235.109, 320.816 235.386 C 321.265 235.664, 325.621 233.453, 330.498 230.474 C 336.961 226.525, 339.703 225.338, 340.615 226.096 C 341.304 226.667, 345.271 232.246, 349.431 238.493 C 356.827 249.599, 360.865 254, 363.657 254 C 365.767 254, 373.953 246.036, 374.634 243.321 C 375.277 240.760, 373.078 236.978, 361.855 221.344 C 358.635 216.859, 356 212.786, 356 212.294 C 356 211.802, 359.150 208.807, 363 205.640 C 368.702 200.949, 370 199.350, 370 197.012 C 370 195.434, 369.293 193.436, 368.429 192.571 C 366.519 190.661, 367.222 190.597, 362.531 193.111 M 413.411 194.891 C 406.710 198.977, 404.190 205.052, 407.829 208.345 C 410.389 210.662, 411.003 210.514, 417.900 205.908 C 425.420 200.886, 426.749 198.792, 424.548 195.433 C 422.569 192.412, 417.853 192.183, 413.411 194.891 M 296 240.656 C 289.965 241.631, 288.552 242.339, 283.826 246.759 C 276.626 253.494, 275.656 255.862, 275.694 266.612 C 275.722 274.724, 276.042 276.312, 278.613 281.071 C 284.796 292.521, 297.138 301.549, 308.133 302.665 C 313.017 303.161, 313.947 302.908, 318.473 299.855 C 324.545 295.758, 330.406 288.194, 332.046 282.336 C 335.999 268.218, 328.108 249.510, 315.730 243.652 C 310.639 241.244, 301.221 239.813, 296 240.656 M 296.014 253.027 C 294.097 253.476, 291.309 255.209, 289.818 256.878 C 284.431 262.907, 285.196 271.756, 291.869 280.584 C 296.631 286.885, 302.026 289.962, 308.350 289.984 C 312.521 289.998, 313.665 289.535, 316.521 286.679 C 322.553 280.647, 322.120 269.859, 315.479 260.783 C 310.433 253.885, 303.737 251.217, 296.014 253.027 M 244.398 285.331 C 238.018 288.382, 232.381 293.945, 229.625 299.911 C 227.986 303.460, 227.509 306.426, 227.521 313 C 227.534 320.389, 227.937 322.350, 230.605 328 C 234.345 335.923, 241.609 343.397, 248.821 346.743 C 256.281 350.204, 266.744 349.758, 272.848 345.719 C 278.506 341.975, 282.656 335.943, 285.093 327.920 C 286.891 322, 286.994 320.480, 285.975 314.860 C 281.798 291.821, 261.289 277.255, 244.398 285.331 M 247.024 297.185 C 245.112 298.484, 242.481 301.112, 241.177 303.024 C 236.762 309.498, 239.558 321.077, 247.718 330.110 C 252.193 335.063, 255.800 337, 260.546 337 C 267.731 337, 273.362 330.931, 274.608 321.845 C 276.870 305.340, 258.797 289.182, 247.024 297.185 M 203.991 323.013 C 196.605 329.881, 187.664 338.230, 184.122 341.567 L 177.683 347.634 183.737 361.313 C 190.719 377.087, 206.937 408, 208.231 408 C 210.035 408, 223 396.709, 223 395.137 C 223 394.237, 220.525 389.020, 217.500 383.545 C 214.475 378.070, 212 373.160, 212 372.633 C 212 372.106, 214.758 368.340, 218.130 364.264 C 223.964 357.211, 224.194 356.731, 222.896 354.306 C 220.681 350.167, 219.145 350.426, 213.639 355.863 C 210.778 358.688, 207.884 361, 207.208 361 C 206.532 361, 204.777 358.552, 203.310 355.559 L 200.641 350.118 208.703 337.809 C 220.628 319.601, 220.312 320.318, 218.745 315.013 L 217.419 310.526 203.991 323.013 M 697.015 331.461 C 689.533 351.140, 672.803 384.523, 661.434 402.461 C 642.793 431.872, 625.255 453.689, 599.500 479.510 C 572.552 506.527, 549.146 525.529, 514.500 548.518 C 479.500 571.741, 438.883 593.986, 406.747 607.531 C 399.183 610.719, 393.169 613.502, 393.382 613.715 C 394.585 614.918, 435.027 603.108, 453.991 596.015 C 502.902 577.721, 541.655 556.951, 580 528.478 C 627.766 493.010, 665.967 444.032, 684.497 394.500 C 692.028 374.369, 697.706 351.539, 698.706 337.372 C 699.302 328.925, 698.734 326.939, 697.015 331.461 M 796.473 524.250 C 792.055 530.973, 771.105 558.324, 760.070 571.775 C 750.637 583.274, 748.858 586, 750.789 586 C 751.224 586, 754.819 588.957, 758.779 592.571 C 767.730 600.740, 774.584 611.061, 780.594 625.421 C 785.879 638.046, 786.524 639.044, 787.321 635.823 C 789.072 628.749, 794.236 598.961, 795.917 586.239 C 799.174 561.590, 801.876 520, 800.221 520 C 799.695 520, 798.009 521.913, 796.473 524.250 M 658 630.997 C 632.790 633.282, 602.736 641.921, 574.218 655.079 C 566.247 658.757, 565.961 659.005, 566.579 661.700 C 571.560 683.417, 620.719 866.941, 621.878 868.147 C 622.220 868.504, 625.650 867.504, 629.500 865.927 C 636.626 863.007, 643 862.133, 643 864.075 C 643 866.226, 633.743 879.387, 628.688 884.423 C 623.030 890.059, 613.289 898, 612.033 898 C 611.600 898, 610.324 895.856, 609.197 893.236 C 607.372 888.994, 582.836 824.055, 580.203 816.500 C 578.165 810.650, 579.050 816.906, 582.975 836.080 C 587.621 858.781, 594 893.550, 594 896.176 C 594 901.379, 587.259 894.571, 576.535 878.541 C 572.473 872.468, 560.514 853.100, 549.959 835.500 C 519.858 785.306, 486.916 737.199, 469.886 718.566 C 465.101 713.331, 464.522 713, 460.124 713 C 454.965 713, 431.698 716.849, 417.214 720.097 C 408.001 722.164, 407.898 722.221, 404.062 727.340 C 392.496 742.777, 372.604 777.565, 336.212 846 C 329.047 859.475, 317.752 880.162, 311.113 891.971 C 304.474 903.780, 299.404 913.804, 299.846 914.246 C 302.874 917.274, 352.613 931, 360.557 931 C 364.898 931, 364.987 930.929, 370.060 923.411 C 372.877 919.237, 378.822 908.774, 383.272 900.161 C 387.722 891.547, 391.756 884.233, 392.236 883.908 C 392.716 883.582, 403.321 883.017, 415.804 882.653 C 440.159 881.943, 452.353 881.012, 477.443 877.947 C 501.212 875.044, 498.144 873.844, 505.049 888.750 C 508.297 895.763, 513.135 905.775, 515.800 911 C 520.486 920.190, 520.764 920.510, 524.317 920.810 C 528.149 921.134, 549.921 917.008, 570.500 912.059 C 577.100 910.472, 582.633 909.305, 582.796 909.466 C 583.393 910.057, 575.287 915.834, 567.503 920.365 C 553.050 928.779, 528.307 938.344, 506.183 944.071 C 477.990 951.368, 457.312 953.459, 420.620 952.725 C 398.148 952.275, 391.588 951.762, 373.647 949.052 C 362.177 947.320, 352.337 946.054, 351.780 946.240 C 350.387 946.704, 377.928 955.388, 392 958.921 C 411.931 963.925, 423.414 965.270, 450.359 965.756 C 476.853 966.235, 493.710 965.204, 512.995 961.927 C 546.502 956.233, 576.388 946.249, 608.500 930.020 C 673.197 897.323, 725.159 848.015, 751.937 793.911 C 762.673 772.218, 766.336 758.496, 767.531 735.500 C 769.469 698.221, 760.676 670.149, 741.370 651.973 C 730.860 642.078, 718.249 635.749, 702.688 632.559 C 693.169 630.607, 670.890 629.829, 658 630.997 M 640.565 674.603 C 642.472 682.759, 652.542 721.806, 664.075 765.758 C 671.184 792.850, 677 815.238, 677 815.508 C 677 818.911, 684.654 808.777, 694.647 792.144 C 706.108 773.067, 712.978 751.451, 712.969 734.500 C 712.950 698.288, 689.446 675.120, 649.970 672.401 L 639.888 671.706 640.565 674.603 M 202.115 676.250 C 188.796 712.117, 150.177 824.298, 150.689 825.632 C 151.886 828.751, 185.553 829.480, 197.319 826.642 C 201.070 825.737, 207.424 823.478, 211.441 821.623 C 230.290 812.914, 241.978 800.928, 249.590 782.500 C 252.377 775.753, 252.482 774.905, 252.491 759 C 252.501 740.293, 251.578 736.248, 243.472 719.500 C 237.654 707.480, 232.348 699.646, 223.894 690.593 C 217.181 683.405, 205.835 674, 203.876 674 C 203.367 674, 202.575 675.013, 202.115 676.250 M 439.354 773.213 C 433.904 781.809, 407 839.621, 407 842.735 C 407 844.109, 408.611 844.217, 420.250 843.624 C 435.896 842.827, 469.692 840.241, 475.750 839.378 C 481.400 838.574, 481.310 837.124, 474.862 825.090 C 465.957 808.467, 443.961 770.094, 442.996 769.498 C 442.488 769.183, 440.849 770.855, 439.354 773.213 M 71.121 812.001 C 65.554 816.402, 61 820.633, 61 821.404 C 61 822.175, 63.504 824.467, 66.564 826.499 C 73.256 830.940, 109.925 849.408, 110.638 848.696 C 110.914 848.419, 106.939 845.472, 101.804 842.145 C 90.917 835.093, 87.333 831.646, 85.980 826.931 C 84.453 821.605, 84.729 820.523, 88.990 815.131 L 92.981 810.083 88.560 807.041 C 86.129 805.369, 83.488 804, 82.691 804 C 81.894 804, 76.688 807.601, 71.121 812.001"/>
</svg>