<svg xmlns="http://www.w3.org/2000/svg" id="a" version="1.1" viewBox="0.0 0.0 100.0 109.16651814887422">
    <g transform="scale(0.2970355848630666)"><path d="M64.57,124.89c.37-2.59-.48-5.48-3.63-4.92-2.99.53-5.55,4.59-5.94,7.35-1.17,8.23-3.51,16.6-8.61,23.32-5.18,6.83-14.41,13.42-22.88,8.18-8.09-5.01-10.98-16.6-12.54-25.33-1.8-10.04-1.36-20.48.21-30.52,2.57-16.38,8.87-37.71,27.34-41.53-5.33,9.45-9.76,26.35-1.02,34.92,9.12,8.94,22.61,2.24,29.08-6.35,7.97-10.6,10.45-24.88-.25-34.54-1.38-1.25-2.87-2.3-4.42-3.2,1.98-.81,4.01-1.49,6.03-2.04,3.09-.84,5.43-4.32,5.94-7.35.4-2.38-.48-5.78-3.63-4.92-7.69,2.09-14.88,5.66-20.91,10.66-5.16-.26-10.43.77-15.27,2.92-12.3,5.47-20.83,17-25.9,29.11C2.63,93.86.25,109,.01,123.27c-.22,13.52,1.85,29.47,9.85,40.8,3.94,5.58,10.08,9.61,17.08,9.21,7.05-.4,13.69-4.59,18.74-9.29,10.9-10.14,16.81-24.55,18.88-39.08,0,0,.01-.02.01-.02ZM53.1,88.05c-11.41.71-11.87-12.59-8.53-20.37,1-2.32,2.33-4.39,3.92-6.23,5.39,1.18,10.43,4.24,13.37,8.87,4.42,6.97-.11,17.2-8.76,17.74,0,0,0-.01,0,0Z" data-sg-fill="sg-fill-0" />
  <path d="M75.39,155.57c8.09,11.23,21.3,8.04,30.02-.51,9.34-9.17,13.63-22.36,13.03-35.3-.29-6.26-1.31-13.35-5.24-18.47-3.83-4.98-9.07-5.69-14.92-6.17-.37-.03-.75,0-1.12.1h-.07c-11.94,1.85-21.26,11.95-25.05,23.02-3.9,11.37-3.94,27.2,3.36,37.32h-.01ZM94.07,107.65c4.06.31,7.91.41,10.66,3.95,2.93,3.78,3.65,8.98,3.87,13.62.43,9.38-2.48,21.55-12.59,24.97-12.24,4.14-16.52-13.46-16.6-21.9-.09-10.01,4.46-18.71,14.66-20.65,0,0,0,.01,0,0Z" data-sg-fill="sg-fill-0" />
  <path d="M236.15,172.11c-.37-.03-.75,0-1.12.1h-.07c-11.94,1.85-21.26,11.95-25.05,23.02-3.9,11.37-3.94,27.2,3.36,37.32,8.09,11.23,21.3,8.04,30.02-.51,9.34-9.17,13.63-22.36,13.03-35.3-.29-6.26-1.31-13.35-5.24-18.47-3.83-4.98-9.07-5.69-14.92-6.17h0s0,0,0,0ZM233.88,227.18c-12.24,4.14-16.52-13.46-16.6-21.9-.09-10.01,4.46-18.71,14.66-20.65,4.06.31,7.91.41,10.66,3.95,2.93,3.78,3.65,8.98,3.87,13.62.43,9.38-2.48,21.55-12.59,24.97h0Z" data-sg-fill="sg-fill-0" />
  <path d="M163.07,155.01c9.86-8.85,14.41-22.63,13.45-35.68-.96-13.06-8.21-28.15-23.55-26.84-.11,0-.22.03-.33.04-.27,0-.55.01-.86.06-12.69,2.07-21.62,13.45-25.06,25.22-3.39,11.59-4.15,28.16,4.44,37.8,8.72,9.79,22.89,7.49,31.91-.61h0ZM149.18,104.92c21.99-.77,24.44,40.62,3.42,44.55-13.07,2.44-18.25-10.83-18.19-21.44.05-10.37,3.42-21.08,14.77-23.11h0Z" data-sg-fill="sg-fill-0" />
  <path d="M191.01,123.44c.45,2.83,1.09,5.59,1.92,8.26-3.24,3.56-6.92,6.74-11.11,9.39-2.7,1.7-5,5.04-4.83,8.36.14,2.75,2.41,4.54,5.02,2.9,5.37-3.39,10.17-7.44,14.45-11.97,6.46,12.59,17.76,21.87,32.92,24.35,5.18.85,10.79-11.49,4.7-12.49-12.98-2.13-23.81-10.47-29.33-22.18,4.77-6.99,8.58-14.69,11.47-22.7,3.58-9.93,5.87-20.29,7.51-30.7,1.58-10,3.5-20.83,2.33-30.96-1.06-9.12-8.83-14.4-16.75-8.25-8.06,6.25-11.77,17.31-14.39,26.77-5.14,18.6-6.92,40.12-3.9,59.24,0,0,0-.02,0-.02ZM200.82,81.05c.93-8.1,2.41-16.2,5.21-23.87,1.05-2.89,2.31-7.12,4.74-9.21,3.44-2.98,5.44,2.55,5.64,5.3.59,8-.8,16.29-2,24.17-1.24,8.21-2.78,16.45-5.27,24.39-1.97,6.29-4.52,12.45-7.78,18.15-2.89-12.6-2-26.31-.55-38.93h0Z" data-sg-fill="sg-fill-0" />
  <path d="M220.82,246c-7.93-4.07-17.91-.94-25.48,3.37-.63-2.48-1.03-5-1.28-7.4-2.63-26,2.6-52.1,2.86-78.1.02-2.25-1.51-3.86-3.76-3.41-2.52.51-4.73,3.45-5.48,5.73-4.59,14-10.2,27.45-16.36,40.82-3.19,6.93-6.38,13.87-9.58,20.8-1.6,3.47-3.19,6.93-4.79,10.4-.85,1.85-1.7,3.7-2.55,5.55-.54-.88-1.21-1.83-1.37-2.12-.75-1.38-1.48-2.78-2.18-4.19-1.72-3.43-3.29-6.92-4.77-10.46-2.68-6.43-5.04-12.98-7.22-19.59-4.36-13.18-8.03-26.57-12.09-39.85-2-6.54-8.96,2.33-9.52,5.29-5.52,28.99-6.02,58.64-11.54,87.63-.49,2.6.57,5.46,3.63,4.92,3.09-.55,5.41-4.58,5.94-7.35,3.95-20.76,5.34-41.86,7.83-62.81,2.62,8.86,5.3,17.7,8.36,26.42,2.61,7.42,5.51,14.73,8.85,21.85,2.19,4.67,5.52,16.01,12.34,14.57,7.32-1.55,10.28-13.25,12.95-19.04,3.68-8,7.37-16,11.05-24,3.09-6.72,6.13-13.43,9.02-20.19-1.49,18.06-3.35,36.13-1.29,54.14.28,2.42.67,4.87,1.23,7.3-6.25,5.19-11.87,11.14-17.87,16.61-8.53,7.79-17.54,15.14-27.32,21.31-10.36,6.53-21.48,11.78-33.39,14.76-6.73,1.68-13.43,2.55-20.23.82-6.64-1.69-12.71-5.3-18.6-8.68-4.84-2.78-11.69,9.03-6.82,11.82,8.73,5.02,18.1,10.22,28.45,10.38,9.64.15,19.48-2.9,28.36-6.42,18.17-7.2,34.29-18.58,48.87-31.46,7.06-6.23,13.5-13.15,20.69-19.22.34-.28.68-.57,1.03-.85,2.02,4.03,4.85,7.58,8.85,10.13,8.36,5.34,19.28,3.01,25.31-4.67,5.44-6.94,7.13-20.05-2.12-24.8h0s0,0,0,0ZM217.59,264.16c-1.86,2.96-8.35,1.8-10.84.73-3.18-1.36-5.59-3.58-7.42-6.25,4.46-1.96,9.25-2.8,13.83-1.13,2.33.85,5.67,4.67,4.43,6.65h0Z" data-sg-fill="sg-fill-0" />
  <path d="M332.14,184.65c-3.79-7.88-12.16-9.95-20.1-7.16-3.72,1.31-6.4,3.61-8.42,6.45-3.32-5.31-8.78-8.66-15.97-6.9-3.75.92-7.12,2.66-10,4.99-.03-3.3-.05-6.61-.09-9.92-.03-3-2.47-4.15-5.02-2.9-2.83,1.4-4.86,5.26-4.83,8.36.07,6.58.12,13.16.16,19.73,0,.03-.02.06-.03.09-.25.93-.22,1.9.04,2.73.08,13.34.1,26.68.06,40.02,0,3.01,2.5,4.14,5.02,2.9,2.86-1.42,4.82-5.25,4.83-8.36.04-13.51.01-27.01-.06-40.52.99-1.94,3.47-3.31,5.3-4.1,3.93-1.69,7.78-1.29,10.72,1.92,4.4,4.82,4.18,12.39,4.17,18.5,0,9.9-.8,19.77-1.16,29.65-.11,3.04,2.57,4.11,5.02,2.9,2.94-1.46,4.71-5.22,4.83-8.36.45-12.54,2.25-25.77.8-38.35.36-1.95.68-5.22,1.99-6.37,1.77-1.56,6-1.43,8.07-.93,6.31,1.52,7.45,9.44,8.25,14.83,1.77,11.99.21,24.23.17,36.29,0,3.01,2.5,4.14,5.02,2.9,2.86-1.42,4.82-5.25,4.83-8.36.05-15.93,3.59-35.1-3.61-50.04h.01s0,.01,0,.01Z" data-sg-fill="sg-fill-0" />
  <path d="M248.79,83.78l4.89-.46,2.5,4.23c.96,1.62,2.68,2.58,4.52,2.58.28,0,.56-.02.84-.07,2.15-.34,3.84-1.93,4.31-4.05l1.08-4.79,4.79-1.08c2.12-.48,3.71-2.17,4.05-4.32s-.65-4.25-2.52-5.35l-4.23-2.5.46-4.89c.2-2.16-.92-4.2-2.85-5.18-1.94-.99-4.24-.7-5.87.74l-3.69,3.24-4.51-1.95c-1.99-.86-4.27-.43-5.81,1.11s-1.97,3.82-1.11,5.81l1.95,4.51-3.24,3.69c-1.43,1.63-1.72,3.93-.74,5.87.99,1.94,3.03,3.06,5.18,2.85h0s0,0,0,0ZM247.07,77.46l4.01-4.55.3-1.92-2.4-5.57c-.41-.94.16-1.61.34-1.79s.85-.75,1.79-.34l5.57,2.4,1.92-.3,4.55-4.01c.77-.68,1.58-.35,1.81-.23s.98.58.88,1.6l-.57,6.04.88,1.74,5.22,3.09c.88.52.82,1.4.78,1.65-.04.26-.25,1.11-1.25,1.33l-5.92,1.33-1.38,1.38-1.33,5.92c-.22,1-1.08,1.21-1.33,1.25-.26.04-1.13.1-1.65-.78l-3.09-5.22-1.74-.88-6.04.57c-1.02.08-1.48-.65-1.6-.88-.12-.23-.45-1.04.23-1.81l.02-.02h0Z" data-sg-fill="sg-fill-0" />
  <path d="M72.96,249.32c.75.48,1.59.72,2.42.72,1.07,0,2.13-.39,2.98-1.15l3.75-3.35,4.81,1.47c1.95.6,3.99-.16,5.09-1.87,1.1-1.72.92-3.89-.43-5.41l-3.35-3.75,1.47-4.81c.6-1.95-.16-3.99-1.87-5.09s-3.89-.92-5.4.43l-3.75,3.35-4.81-1.47c-1.95-.6-3.99.16-5.09,1.87-1.1,1.72-.92,3.89.43,5.41l3.35,3.75-1.47,4.81c-.6,1.95.15,3.99,1.87,5.09h0ZM71.93,233.25c-.37-.42-.21-.82-.08-1.02.1-.16.32-.4.67-.4.09,0,.18,0,.28.05l5.79,1.77,1.75-.38,4.51-4.03c.42-.37.82-.21,1.02-.08s.52.43.35.96l-1.77,5.79.38,1.75,4.03,4.51c.37.42.21.82.08,1.02s-.43.52-.96.35l-5.79-1.77-1.75.38-4.51,4.03c-.42.37-.82.21-1.02.08s-.51-.42-.35-.96l1.77-5.79-.38-1.75-4.03-4.51h.01Z" data-sg-fill="sg-fill-0" />
  <path d="M96.07,72.38l2.95,1.89,7.51-6.72,9.64,2.95,1.89-2.95-6.72-7.51,2.95-9.64-2.95-1.89-7.51,6.72-9.64-2.95-1.89,2.95,6.72,7.51-2.95,9.64ZM103.74,59.01l1.75-.38,3.42-3.05-1.34,4.38.38,1.75,3.05,3.42-4.38-1.34-1.75.38-3.42,3.05,1.34-4.38-.38-1.75-3.05-3.42,4.38,1.34Z" data-sg-fill="sg-fill-0" />
  <path d="M265.55,319.34l-2.95-1.89-7.51,6.72-9.64-2.95-1.89,2.95,6.72,7.51-2.95,9.64,2.95,1.89,7.51-6.72,9.64,2.95,1.89-2.95-6.72-7.51,2.95-9.64h0ZM257.88,332.72l-1.75.38-3.42,3.05,1.34-4.38-.38-1.75-3.05-3.42,4.38,1.34,1.75-.38,3.42-3.05-1.34,4.38.38,1.75,3.05,3.42-4.38-1.34h0Z" data-sg-fill="sg-fill-0" />
  <path d="M299.11,288.7l2.06-3.53c1.64-2.82-1.01-6.2-4.14-5.28l-3.92,1.16-2.72-3.05c-2.18-2.44-6.21-.96-6.3,2.31l-.11,4.09-3.74,1.65c-2.99,1.32-2.83,5.61.25,6.7l3.85,1.37.41,4.07c.33,3.25,4.46,4.42,6.45,1.83l2.49-3.24,4,.86c3.19.69,5.59-2.88,3.74-5.57l-2.32-3.37Z" data-sg-fill="sg-fill-0" />
  <path d="M42.83,247.71c-4.21,0-7.63,3.42-7.63,7.63s3.42,7.63,7.63,7.63,7.63-3.42,7.63-7.63-3.42-7.63-7.63-7.63h0ZM42.83,259.33c-2.2,0-3.99-1.79-3.99-3.99s1.79-3.99,3.99-3.99,3.99,1.79,3.99,3.99-1.79,3.99-3.99,3.99Z" data-sg-fill="sg-fill-0" />
  <path d="M250.96,290.83c5.67,0,10.29-4.62,10.29-10.29s-4.62-10.29-10.29-10.29-10.29,4.62-10.29,10.29,4.62,10.29,10.29,10.29ZM250.96,273.89c3.67,0,6.65,2.98,6.65,6.65s-2.98,6.65-6.65,6.65-6.65-2.98-6.65-6.65,2.98-6.65,6.65-6.65h0Z" data-sg-fill="sg-fill-0" />
  <path d="M185.26,20.58c5.67,0,10.29-4.62,10.29-10.29s-4.62-10.29-10.29-10.29-10.29,4.62-10.29,10.29,4.62,10.29,10.29,10.29ZM185.26,3.64c3.67,0,6.65,2.98,6.65,6.65s-2.98,6.65-6.65,6.65-6.65-2.98-6.65-6.65,2.98-6.65,6.65-6.65Z" data-sg-fill="sg-fill-0" />
  <path d="M231.9,294.78c-3.89,0-7.05,3.16-7.05,7.05s3.16,7.05,7.05,7.05,7.05-3.16,7.05-7.05-3.16-7.05-7.05-7.05Z" data-sg-fill="sg-fill-0" />
  <path d="M283.98,115.41c3.89,0,7.05-3.16,7.05-7.06s-3.16-7.05-7.05-7.05-7.05,3.16-7.05,7.05,3.16,7.06,7.05,7.06Z" data-sg-fill="sg-fill-0" />
  <path d="M252.68,158.28h3.63c1.55-19.39,2.01-20.92,16.09-23.15v-3.6c-14.09-2.24-14.54-3.76-16.09-23.15h-3.63c-1.55,19.39-2.01,20.92-16.09,23.15v3.6c14.09,2.24,14.54,3.76,16.09,23.15ZM252.04,128.84c1.09-1.53,1.86-3.4,2.46-5.89.6,2.49,1.37,4.36,2.46,5.89,1.59,2.23,3.75,3.57,6.52,4.5-2.77.93-4.93,2.26-6.52,4.5-1.09,1.53-1.86,3.4-2.46,5.89-.6-2.49-1.37-4.36-2.46-5.89-1.59-2.23-3.75-3.57-6.52-4.49,2.77-.93,4.93-2.26,6.52-4.5h0s0,0,0,0Z" data-sg-fill="sg-fill-0" />
  <path d="M150.8,74.6h3.63c2.27-28.27,3.57-30.14,23.28-33.27v-3.6c-19.71-3.13-21.01-4.99-23.28-33.26h-3.63c-2.27,28.27-3.57,30.14-23.28,33.26v3.6c19.71,3.13,21.01,4.99,23.28,33.27Z" data-sg-fill="sg-fill-0" />
  <path d="M186.57,297.4h-3.63c-2.27,28.27-3.57,30.14-23.28,33.26v3.6c19.71,3.13,21.01,4.99,23.28,33.26h3.63c2.27-28.27,3.57-30.14,23.28-33.26v-3.6c-19.71-3.13-21.01-4.99-23.28-33.26h0ZM184.76,350.98c-2.06-11.84-5.73-15.99-15.39-18.52,9.66-2.53,13.33-6.68,15.39-18.52,2.06,11.84,5.73,15.99,15.39,18.52-9.66,2.53-13.33,6.68-15.39,18.52Z" data-sg-fill="sg-fill-0" />
  <path d="M72.18,195.7v-3.6c-10.94-1.74-11.8-2.27-13.15-19h-3.63c-1.34,16.74-2.2,17.27-13.15,19v3.6c10.94,1.74,11.8,2.27,13.15,19h3.63c1.34-16.74,2.2-17.27,13.15-19Z" data-sg-fill="sg-fill-0" />
</g></svg>