<?xml version="1.0" encoding="utf-8"?>
<svg xmlns="http://www.w3.org/2000/svg" width="1002" height="642" viewBox="0 0 1002 642">
  <path fill-rule="evenodd" d="M 824.001 4.084 C 821.469 5.233, 815.696 9.850, 810.793 14.647 C 804.917 20.397, 801.664 22.911, 800.792 22.374 C 800.081 21.936, 796.800 19.720, 793.500 17.449 C 775.340 4.954, 760.865 0.135, 756.025 4.975 C 753.279 7.721, 752.639 11.078, 753.284 19.360 C 753.832 26.399, 757.297 36.305, 762.001 44.277 C 763.910 47.513, 763.923 47.755, 762.255 49.171 C 761.290 49.991, 758.250 51.479, 755.500 52.478 C 745.296 56.185, 737.191 61.014, 729.602 67.908 C 720.166 76.478, 712.445 80.353, 698.133 83.701 C 678.599 88.271, 667.923 91.923, 664.711 95.135 C 662.076 97.771, 661.804 98.608, 662.211 102.843 C 662.880 109.811, 667.190 118.531, 671.183 120.995 C 678.502 125.512, 684.099 126.323, 709 126.472 C 731.616 126.608, 738 127.355, 738 129.868 C 738 130.386, 728.072 130.978, 715.250 131.226 C 693.093 131.654, 689 132.124, 689 134.239 C 689 134.802, 690.913 137.170, 693.250 139.501 C 699.398 145.631, 706.285 147, 730.980 147 C 753.919 147, 756.038 147.572, 759.148 154.601 C 761.162 159.155, 761.207 162.096, 759.365 168.821 C 758.766 171.009, 758.931 171.104, 762.268 170.478 C 765.296 169.910, 765.902 170.117, 766.473 171.915 C 767.847 176.245, 758.302 192, 754.304 192 C 752.228 192, 752.752 190.312, 756.536 184.812 C 760.916 178.444, 760.054 176.944, 753.462 179.462 C 747.227 181.843, 746.292 180.459, 750.524 175.111 C 755.810 168.431, 757.452 160.518, 754.443 156.223 C 752.358 153.246, 751.406 153.401, 746.928 157.446 C 741.595 162.264, 737.231 163.216, 725.873 162.040 C 716.911 161.112, 701.885 161.916, 697.708 163.547 C 695.143 164.548, 696.111 166.344, 699.816 167.457 C 701.567 167.983, 703 168.762, 703 169.188 C 703 170.349, 699.687 170.817, 686.819 171.476 C 674.802 172.090, 666.126 173.811, 660 176.795 C 657.238 178.141, 656.435 179.175, 656.190 181.702 C 655.814 185.592, 655.514 185.698, 641.436 186.925 C 631.497 187.791, 622.474 190.103, 618.104 192.904 C 615.958 194.279, 617.567 196.921, 621.569 198.593 C 624.605 199.862, 624.970 200.331, 623.915 201.603 C 621.883 204.050, 619.078 205.181, 610.245 207.111 C 602.809 208.736, 586.987 214.884, 584.598 217.076 C 584.088 217.544, 584.849 218.430, 586.348 219.113 C 587.807 219.777, 589 220.687, 589 221.135 C 589 222.898, 583.115 224.762, 575.500 225.412 C 566.395 226.188, 561.549 227.312, 554.733 230.224 C 550.644 231.971, 550.003 232.626, 550.233 234.822 C 550.487 237.259, 549.939 237.560, 538.807 241.086 C 532.375 243.124, 523.911 246.267, 519.997 248.071 C 513.968 250.850, 512.789 251.804, 512.288 254.311 C 511.768 256.908, 510.520 257.818, 502.098 261.738 C 480.561 271.762, 474.155 275.046, 467 279.729 C 462.875 282.428, 458.684 285.455, 457.686 286.454 C 454.989 289.155, 456.975 290.494, 461.475 289.008 C 463.487 288.344, 465.341 288.008, 465.595 288.261 C 465.848 288.515, 464.098 290.922, 461.707 293.611 C 459.315 296.300, 455.437 300.954, 453.090 303.953 C 450.742 306.951, 444.846 312.949, 439.988 317.281 C 435.129 321.613, 430.879 325.872, 430.544 326.746 C 429.594 329.222, 431.394 330.233, 434.352 328.885 C 435.813 328.220, 437.305 327.971, 437.667 328.333 C 439.583 330.249, 434.985 334.443, 421.844 342.766 C 398.451 357.583, 378.914 377, 387.399 377 C 388.104 377, 392.689 374.751, 397.590 372.002 C 402.490 369.254, 406.875 367.004, 407.333 367.002 C 409.193 366.997, 407.159 369.096, 400.867 373.674 C 393.423 379.090, 379.594 393.754, 374.326 401.817 C 370.335 407.926, 368.814 414, 371.275 414 C 372.119 414, 374.696 412.425, 377 410.500 C 381.084 407.088, 382.967 406.229, 383.032 407.750 C 383.049 408.163, 379.665 415.250, 375.511 423.500 C 367.677 439.058, 365.139 446.336, 366.411 449.596 C 367.101 451.363, 367.313 451.303, 369.365 448.750 C 370.580 447.238, 371.882 446, 372.256 446 C 373.324 446, 372.015 448.791, 366.281 458.735 C 358.031 473.043, 357.844 479.540, 366 468.500 C 368.235 465.475, 370.555 463, 371.157 463 C 372.940 463, 371.266 468.908, 368.059 473.929 C 364.785 479.056, 356 503.803, 356 507.901 C 356 509.361, 356.706 511.564, 357.570 512.796 C 359.088 514.964, 358.854 520.718, 356.594 536.750 C 356.052 540.597, 357.975 539.225, 360.097 534.250 C 363.636 525.953, 367.387 519, 368.326 519 C 368.825 519, 368.992 519.787, 368.697 520.750 C 368.402 521.712, 365.138 531.950, 361.444 543.500 C 353.324 568.889, 353.457 568.305, 355.420 569.933 C 357.719 571.841, 357.406 573.595, 353.500 580.701 C 348.082 590.558, 348.921 593.467, 356.238 590.202 C 361.545 587.834, 368.042 580.922, 375.513 569.697 C 378.678 564.940, 381.658 561.289, 382.134 561.583 C 382.610 561.877, 383.007 564.004, 383.015 566.309 C 383.033 571.280, 384.208 573.518, 386.366 572.690 C 388.370 571.921, 394.949 558.848, 398.539 548.500 C 401.817 539.056, 403.515 536.600, 402.515 542.750 C 401.540 548.746, 403.956 548.419, 407.892 542.021 C 412.032 535.292, 413.529 531.509, 417.477 517.799 C 419.330 511.363, 421.317 505.288, 421.893 504.299 C 423.595 501.373, 423.302 507.320, 421.327 515.764 C 420.074 521.121, 419.921 523.321, 420.747 524.147 C 422.950 526.350, 424.771 524.020, 428.800 513.837 C 432.764 503.821, 434.054 499.683, 435.711 491.689 C 436.145 489.593, 436.911 487.793, 437.414 487.689 C 437.916 487.585, 439.080 489.750, 440 492.500 C 442.759 500.746, 444.462 499.122, 444.721 488 C 444.843 482.775, 445.603 475.350, 446.411 471.500 C 448.473 461.667, 450 448.811, 450 441.282 C 450 437.270, 450.373 435.113, 451 435.500 C 451.550 435.840, 452 438.990, 452 442.500 C 452 452.560, 455.518 452.411, 458.330 442.233 C 462.095 428.600, 463.129 417.293, 462.419 397.500 C 461.689 377.138, 462.695 372.892, 464.032 390.694 C 464.915 402.444, 465.534 405, 467.500 405 C 469.641 405, 469.999 402.458, 470.015 387.168 C 470.033 370.050, 471.179 366.211, 473.013 377.124 C 476.955 400.587, 479.930 409.438, 489.508 426.204 C 492.529 431.491, 495 437.031, 495 438.515 C 495 442.292, 482.909 454.589, 474.783 459.076 C 471.355 460.970, 467.983 463.639, 467.290 465.009 C 466.420 466.727, 466.026 472.930, 466.018 485 C 466.005 505.165, 467.336 521.515, 470.077 534.860 C 472.907 548.637, 472.928 548.538, 466.750 550.543 C 459.987 552.737, 456.212 555.054, 448.648 561.652 C 445.267 564.602, 440.109 568.249, 437.186 569.758 C 432.261 572.299, 431.547 573.151, 427.436 581.386 C 421.288 593.701, 421.527 596.197, 428.191 589.250 C 430.169 587.188, 432.743 583.591, 433.910 581.259 C 435.506 578.069, 437.290 576.380, 441.110 574.444 C 443.902 573.029, 449.776 568.770, 454.162 564.980 C 462.304 557.944, 471.417 553.318, 473.610 555.107 C 474.221 555.605, 476.363 559.948, 478.370 564.756 C 482.724 575.189, 484.804 578.687, 491.791 587.328 C 497.930 594.921, 499.525 595.609, 513 596.472 C 518.225 596.806, 526.331 597.583, 531.013 598.198 C 538.576 599.191, 540.249 599.100, 546.013 597.383 L 552.500 595.450 553 588.475 L 553.500 581.500 556.866 586.348 C 559.945 590.784, 560.367 591.061, 561.825 589.604 C 563.202 588.226, 563.250 587.383, 562.177 583.371 C 561.494 580.819, 561.189 578.478, 561.499 578.168 C 561.808 577.858, 563.399 578.395, 565.033 579.360 C 566.667 580.326, 568.453 580.838, 569.002 580.499 C 570.546 579.544, 570.184 576.449, 568.249 574.059 C 565.911 571.172, 555.598 566.818, 550 566.355 C 547.525 566.150, 539.875 565.518, 533 564.951 C 518.922 563.790, 514.432 562.675, 512.992 559.986 C 511.674 557.523, 511.726 552.287, 513.077 551.453 C 513.669 551.087, 518.731 550.666, 524.327 550.518 C 534.018 550.262, 535.258 549.964, 550.500 544.239 C 559.300 540.934, 568.525 537.350, 571 536.275 C 577.948 533.257, 598.438 528.424, 620.773 524.536 C 632.371 522.516, 643.496 519.990, 646.773 518.631 C 649.923 517.324, 657 514.827, 662.500 513.080 C 668 511.334, 674.222 508.772, 676.327 507.388 C 678.431 506.003, 682.481 504.479, 685.327 504.001 C 688.172 503.522, 691.850 502.673, 693.500 502.113 C 695.150 501.553, 703.025 499.919, 711 498.482 C 718.975 497.045, 730.873 494.098, 737.440 491.935 C 750.726 487.557, 757.345 486.908, 758.910 489.832 C 759.449 490.839, 759.635 494.135, 759.323 497.157 C 758.512 505.021, 760.992 512.908, 765.531 516.893 C 772.069 522.633, 773.921 523.397, 782.898 524.054 C 787.629 524.400, 796.927 525.496, 803.560 526.489 C 818.135 528.670, 822.351 528.157, 824.535 523.933 C 825.958 521.181, 825.919 520.605, 824.025 516.323 C 822.898 513.776, 822.202 511.465, 822.478 511.189 C 823.336 510.331, 830.776 514.132, 833.119 516.627 C 837.159 520.927, 839.184 519.244, 836.972 513.426 C 836.407 511.939, 836.148 510.519, 836.397 510.270 C 837.303 509.364, 841.212 511.248, 844.599 514.221 C 848.485 517.633, 849.409 517.477, 848.430 513.576 C 847.427 509.580, 843.205 505.942, 834.415 501.500 L 826.500 497.500 812.312 497.177 C 801.981 496.942, 797.821 496.489, 797.010 495.512 C 796.383 494.756, 796.028 491.615, 796.198 488.334 L 796.500 482.500 803.873 482.376 C 818.042 482.136, 824.502 480.897, 842.500 474.967 C 860.697 468.971, 871.747 464.259, 880.048 458.956 C 884.553 456.078, 913.106 446, 916.754 446 C 920.868 446, 933.546 451.137, 936.502 454.002 C 938.189 455.637, 941.803 457.733, 944.534 458.659 C 947.266 459.586, 951.525 461.580, 954 463.091 C 960.701 467.182, 965.478 468.776, 976 470.433 C 981.225 471.255, 988.200 473.039, 991.500 474.396 C 997.299 476.781, 997.562 476.803, 999.355 475.049 C 1004.166 470.342, 994.567 464.119, 979.200 461.983 C 972.651 461.073, 967.904 459.591, 960 455.989 C 954.225 453.357, 947.848 450.685, 945.830 450.051 C 943.811 449.417, 941.598 448.221, 940.912 447.394 C 940.226 446.567, 938.790 445.423, 937.722 444.851 C 934.295 443.017, 921.631 439.835, 917.467 439.761 C 912.591 439.675, 893.106 445.981, 883.644 450.707 C 879.873 452.591, 876.211 453.911, 875.507 453.641 C 874.620 453.301, 874.076 449.824, 873.736 442.325 C 873.194 430.351, 869.589 388.969, 868.009 376.591 C 866.326 363.401, 866.360 363.249, 871.250 361.934 C 876.936 360.404, 879.341 359.093, 893.378 349.873 C 899.970 345.543, 906.196 342, 907.213 342 C 908.231 342, 911.861 342.948, 915.282 344.106 C 925.877 347.694, 931.238 346.436, 954.321 334.941 C 960.832 331.699, 961.263 331.617, 963.821 333.129 C 965.294 334.001, 972.487 338.417, 979.804 342.943 C 992.269 350.653, 996 351.989, 996 348.740 C 996 348.012, 994.087 345.591, 991.750 343.361 C 985.775 337.659, 968.585 323.383, 966.080 322.043 C 963.129 320.464, 956.717 322.304, 950.500 326.513 C 943.943 330.953, 931.388 336.715, 925.114 338.163 C 920.677 339.187, 919.539 339.075, 914.926 337.158 C 912.070 335.971, 908.734 335, 907.513 335 C 903.505 335, 886.294 343.798, 880.860 348.625 C 876.333 352.645, 867.314 357.835, 866.594 356.834 C 866.461 356.650, 865.604 351.367, 864.688 345.094 C 863.771 338.821, 862.753 333.421, 862.425 333.094 C 862.096 332.767, 861.079 333.444, 860.164 334.598 C 859.249 335.752, 854.796 341.410, 850.269 347.171 C 845.742 352.932, 837.106 362.456, 831.077 368.335 L 820.116 379.024 821.960 384.262 C 822.974 387.143, 826.036 394.675, 828.764 401 C 838.279 423.059, 853.126 462.099, 852.814 464.237 C 852.547 466.073, 850.055 467.202, 836 471.862 C 819.951 477.182, 819.203 477.329, 808.620 477.265 C 800.678 477.217, 797.489 476.834, 796.807 475.849 C 795.977 474.650, 796.144 462.510, 797.525 423.500 C 798.392 399.029, 804.689 367, 808.634 367 C 810.354 367, 810.346 368.229, 808.586 375.016 C 807.808 378.015, 807.382 380.808, 807.638 381.224 C 809.085 383.565, 842.040 352.054, 855.459 335.500 C 859.472 330.550, 863.923 325.420, 865.351 324.100 C 868.131 321.531, 868.184 321.574, 869.497 327.494 C 871.184 335.102, 874.334 333.972, 878.868 324.135 C 881.467 318.498, 882.187 315.452, 882.607 308.326 C 883.220 297.904, 883.725 295, 884.921 295 C 886.453 295, 888 301.076, 888 307.090 C 888 310.276, 888.414 313.138, 888.919 313.450 C 891.541 315.071, 900.216 301.156, 904.055 289.171 C 910.142 270.169, 912.851 238.504, 909.552 224.929 C 908.604 221.029, 908.089 217.577, 908.408 217.259 C 909.656 216.011, 913.467 220.841, 916.684 227.750 C 918.541 231.738, 920.497 235, 921.030 235 C 922.630 235, 922.217 196.886, 920.502 186.315 C 918.131 171.692, 919.758 170.616, 927.286 181.829 C 929.934 185.773, 932.528 189, 933.050 189 C 934.765 189, 934.045 178.176, 931.571 166.733 C 928.891 154.340, 928.106 151.934, 924.244 144.278 C 922.796 141.406, 921.940 138.726, 922.343 138.323 C 922.747 137.920, 924.407 138.093, 926.034 138.707 C 927.660 139.321, 929.211 139.468, 929.479 139.033 C 930.220 137.835, 918.814 121.371, 912.015 113.823 C 908.707 110.151, 906.027 106.776, 906.061 106.323 C 906.095 105.870, 908.007 104.131, 910.311 102.457 C 916.525 97.944, 915.931 96.268, 907 93.113 C 898.724 90.189, 886.584 83.888, 883.552 80.942 C 881.624 79.067, 881.626 79.027, 883.802 76.710 C 887.592 72.676, 886.718 71.379, 879.039 69.645 C 870.819 67.789, 864.363 64.668, 853.624 57.360 C 849.292 54.412, 845.266 52, 844.678 52 C 844.090 52, 842.352 53.205, 840.815 54.677 C 839.278 56.150, 837.726 57.059, 837.365 56.698 C 837.004 56.337, 837.849 53.445, 839.244 50.271 C 843.598 40.362, 844.392 36.789, 844.417 27 C 844.473 5.599, 837.620 -2.093, 824.001 4.084 M 823.801 12.764 C 821.216 14.819, 817.967 17.900, 816.579 19.611 C 814.004 22.787, 811.564 28, 812.653 28 C 812.985 28, 816.357 25.075, 820.147 21.500 C 823.937 17.925, 827.894 15, 828.941 15 C 834.901 15, 834.044 38.647, 827.518 54.250 C 826.128 57.574, 828.955 56.032, 831.425 52.119 C 837.517 42.469, 839.453 23.065, 835.254 13.750 C 832.566 7.787, 830.306 7.592, 823.801 12.764 M 761 14.790 C 761 20.477, 763.596 29.342, 768.033 38.811 L 772.002 47.282 780.517 46.751 C 794.285 45.892, 795.211 43.374, 785.238 33.914 C 781.519 30.386, 776.232 25.606, 773.488 23.291 C 769.415 19.854, 768.773 18.899, 769.987 18.086 C 771.419 17.126, 775.830 19.164, 791.681 28.112 C 795.901 30.495, 797.719 30.315, 796.683 27.617 C 795.970 25.759, 766.276 11, 763.250 11 C 761.312 11, 761 11.526, 761 14.790 M 175.424 15.379 C 172.397 16.735, 166.753 23.563, 163.701 29.562 C 162.844 31.246, 159.159 36.196, 155.510 40.562 C 151.862 44.928, 146.781 51.650, 144.219 55.500 C 136.737 66.744, 120.053 88.992, 114.223 95.500 C 111.266 98.800, 107.215 104.200, 105.220 107.500 C 103.224 110.800, 97.836 118.450, 93.246 124.500 C 88.359 130.941, 82.858 139.718, 79.972 145.678 C 77.260 151.276, 74.606 156.125, 74.073 156.455 C 73.540 156.784, 70.943 160.688, 68.302 165.129 C 65.661 169.571, 61.995 174.621, 60.155 176.353 C 55.505 180.727, 49 190.830, 49 193.676 C 49 195.259, 49.868 196.438, 51.619 197.236 C 54.119 198.375, 54.588 198.066, 61.919 190.455 C 66.143 186.069, 71.564 179.560, 73.965 175.990 C 76.367 172.421, 79.617 168.011, 81.187 166.191 C 82.758 164.371, 86.456 158.071, 89.405 152.191 C 92.619 145.784, 98.046 137.318, 102.949 131.064 C 107.448 125.324, 111.576 119.792, 112.123 118.770 C 112.670 117.748, 121.528 105.949, 131.809 92.550 C 142.089 79.151, 152.144 65.558, 154.154 62.344 C 156.163 59.130, 160.295 53.380, 163.335 49.568 C 166.375 45.755, 170.552 39.553, 172.617 35.786 C 174.683 32.018, 176.908 28.491, 177.563 27.948 C 178.990 26.764, 184.452 31.558, 203.822 51 C 226.006 73.265, 229.548 77.230, 232.851 83.500 C 235.171 87.903, 237.254 90.285, 240.675 92.448 C 243.239 94.070, 247.224 96.995, 249.530 98.948 C 251.836 100.902, 258.282 106.239, 263.854 110.809 C 269.977 115.831, 277.351 123.211, 282.495 129.466 C 288.032 136.197, 292.665 140.774, 295.753 142.562 C 298.364 144.073, 302.180 146.622, 304.232 148.225 C 308.628 151.658, 310.400 151.123, 309.437 146.655 C 308.387 141.792, 305.531 136.841, 301.588 133.054 C 297.159 128.800, 297.097 127.003, 301.250 123.344 C 312.206 113.691, 311.066 107.593, 299.877 116 C 296.949 118.200, 294.010 120, 293.346 120 C 292.681 120, 289.583 116.512, 286.461 112.250 L 280.784 104.500 291.036 94.750 C 296.674 89.388, 302.063 85, 303.011 85 C 303.959 85, 305.868 86.688, 307.253 88.750 C 308.639 90.813, 319.067 101.838, 330.428 113.250 L 351.084 134 357.602 134 C 363.511 134, 364.548 133.673, 368.704 130.500 C 373.798 126.610, 373.940 126.578, 379.300 128.066 C 384.787 129.590, 389.017 127.845, 396.322 121.048 C 408.698 109.529, 408.664 109.522, 426.834 127.250 C 434.867 135.088, 445.694 146, 450.893 151.500 C 456.093 157, 461.822 162.569, 463.625 163.875 C 470.480 168.842, 472.358 162.669, 466.500 154.429 C 464.575 151.722, 463 148.976, 463 148.328 C 463 147.680, 466.471 145.042, 470.714 142.467 L 478.428 137.783 483.523 139.005 C 488.317 140.155, 488.930 140.069, 493.908 137.547 L 499.199 134.866 503.101 137.570 C 505.247 139.057, 510.353 143.475, 514.448 147.387 C 518.544 151.299, 523.744 156.010, 526.006 157.856 C 528.267 159.701, 533.017 164.717, 536.562 169.001 C 540.356 173.587, 547.139 179.959, 553.058 184.495 C 558.586 188.733, 565.120 193.940, 567.577 196.066 C 574.881 202.388, 585.127 204.135, 585.829 199.177 C 586.073 197.455, 585.039 195.904, 581.829 193.177 C 579.448 191.155, 574.513 186.486, 570.862 182.802 C 567.211 179.119, 561.109 174.089, 557.300 171.626 C 553.254 169.008, 547.508 163.895, 543.475 159.323 C 531.931 146.236, 520.883 135.179, 513.114 128.936 C 504.028 121.634, 501.293 121.188, 492.587 125.589 C 487.874 127.972, 487.536 128.008, 484.275 126.460 C 479.317 124.107, 475.512 125.802, 461.038 136.812 L 456.577 140.206 453.121 136.353 C 425.389 105.431, 418.781 100.227, 408.590 101.279 C 401.506 102.010, 395.891 105.018, 389.914 111.286 C 385.026 116.410, 384.936 116.452, 377.521 117.058 C 371.484 117.552, 369.054 118.289, 364.854 120.900 C 358.454 124.878, 356.151 124.489, 352.082 118.742 C 350.430 116.409, 342.041 107.525, 333.440 99 C 324.838 90.475, 316.875 82.150, 315.744 80.500 C 311.233 73.922, 306.684 70, 303.566 70 C 300.992 70, 298.578 72.022, 287.446 83.500 C 280.245 90.925, 273.712 96.996, 272.927 96.991 C 271.632 96.983, 263.307 90.860, 257 85.278 C 255.625 84.061, 252.475 81.581, 250 79.767 C 247.525 77.953, 244.600 74.642, 243.500 72.408 C 240.946 67.224, 221.864 47.768, 207.017 35.212 C 200.701 29.870, 193.014 23.141, 189.935 20.259 C 183.768 14.484, 180.141 13.265, 175.424 15.379 M 821.809 31.830 C 820.987 33.661, 819.246 35.691, 817.941 36.342 C 816.432 37.095, 815.248 38.884, 814.685 41.262 C 814.060 43.906, 813.262 45, 811.960 45 C 810.947 45, 809.820 45.482, 809.456 46.070 C 808.415 47.755, 808.815 58.215, 809.964 59.364 C 810.679 60.079, 811 59.245, 811 56.679 C 811 53.708, 811.490 52.734, 813.431 51.849 C 815.020 51.125, 816.158 49.488, 816.715 47.121 C 817.329 44.513, 818.171 43.413, 819.726 43.188 C 821.462 42.937, 822.105 41.811, 823.014 37.432 C 824.502 30.266, 823.857 27.269, 821.809 31.830 M 181.652 49.491 C 180.832 50.311, 179.611 52.673, 178.939 54.741 C 178.266 56.808, 176.543 60.750, 175.108 63.500 C 172.983 67.574, 172.437 70.168, 172.162 77.501 C 171.835 86.203, 171.943 86.727, 175.412 93.265 C 177.456 97.118, 178.986 101.421, 178.967 103.264 C 178.925 107.419, 172.324 118.648, 164.637 127.641 C 158.002 135.404, 154.506 141.931, 156.144 143.499 C 156.857 144.181, 160.323 141.165, 167.014 134.040 C 174.445 126.128, 177.954 121.426, 181.419 114.738 C 186.785 104.380, 187.074 101.136, 183.400 92.500 C 181.978 89.159, 180.607 83.608, 180.305 79.973 C 179.826 74.197, 180.126 72.593, 182.921 66.027 C 184.657 61.946, 186.449 56.955, 186.903 54.936 C 188.219 49.080, 185.197 45.946, 181.652 49.491 M 755.250 66.973 C 752.910 68.035, 751 69.598, 751 70.451 C 751 72.370, 751.376 72.374, 755 70.500 C 756.595 69.675, 760.173 68.513, 762.950 67.917 C 765.728 67.322, 768 66.422, 768 65.917 C 768 64.292, 759.630 64.985, 755.250 66.973 M 196 69.916 C 196 70.970, 197.688 73.154, 199.750 74.770 C 204.975 78.864, 216.482 86, 217.858 86 C 220.869 86, 218.199 82.503, 209.909 75.586 C 200.586 67.807, 196 65.938, 196 69.916 M 761.700 76.614 C 758.554 77.581, 755.157 79.770, 751.842 82.965 C 746.003 88.593, 746.054 91.222, 751.937 87.915 C 754.972 86.210, 756.142 86.006, 757.798 86.892 C 761.328 88.781, 765.881 88.210, 768.545 85.545 C 769.895 84.195, 771 82.620, 771 82.045 C 771 81.440, 773.406 81, 776.714 81 C 781.717 81, 782.246 80.819, 780.964 79.547 C 779.749 78.340, 768.850 74.836, 767.040 75.070 C 766.743 75.108, 764.340 75.803, 761.700 76.614 M 846.110 82.231 C 844.707 86.023, 848.818 100.601, 853.583 108.731 C 854.968 111.094, 855.837 113.455, 855.515 113.976 C 854.657 115.364, 850.234 113.438, 845.086 109.434 C 840.581 105.929, 838 105.096, 838 107.147 C 838 107.777, 839.350 112.508, 841 117.659 C 844.072 127.248, 844.807 133, 842.960 133 C 842.388 133, 840.130 131.118, 837.942 128.818 C 834.934 125.657, 833.682 124.918, 832.809 125.791 C 831.320 127.280, 832.396 129.571, 838.446 137.786 C 841.030 141.294, 843.545 143.781, 844.140 143.414 C 846.707 141.827, 848.155 135.549, 847.904 127.092 C 847.696 120.063, 847.909 118.568, 849.075 118.874 C 858.039 121.227, 863.218 120.817, 863.817 117.709 C 863.992 116.803, 862.095 111.660, 859.601 106.281 C 857.107 100.901, 854.338 93.586, 853.448 90.023 C 852.557 86.461, 851.401 82.749, 850.879 81.773 C 849.565 79.318, 847.100 79.554, 846.110 82.231 M 720.500 85.566 C 717.750 86.891, 714.938 87.980, 714.250 87.987 C 713.563 87.994, 713 88.509, 713 89.132 C 713 90.931, 720.496 89.495, 723.953 87.033 C 726.771 85.027, 728.010 82.894, 726.250 83.079 C 725.837 83.122, 723.250 84.241, 720.500 85.566 M 203.567 85.891 C 202.981 86.840, 209.419 93.084, 212.912 94.953 C 216.363 96.800, 215.287 94.707, 210.216 89.712 C 205.259 84.830, 204.495 84.391, 203.567 85.891 M 678 93.590 C 669.741 96.756, 667.894 98.588, 667.824 103.688 C 667.750 109.012, 669.444 112, 672.535 112 C 674.464 112, 675 111.483, 675 109.622 C 675 106.133, 677.088 104.960, 682.857 105.211 C 688.879 105.473, 690.788 104.079, 691.646 98.793 C 692.100 95.995, 691.770 94.770, 690.113 93.113 C 687.454 90.454, 686.034 90.510, 678 93.590 M 134.878 114.710 C 131.080 118.829, 120.747 132.755, 117.141 138.616 C 114.137 143.498, 113.141 147, 114.755 147 C 115.560 147, 131.933 128.807, 138.326 120.810 C 140.430 118.177, 142 115.231, 141.815 114.262 C 141.272 111.412, 137.707 111.642, 134.878 114.710 M 241.826 116.922 C 238.175 119.794, 206.568 156.745, 206.159 158.619 C 205.947 159.591, 206.388 160.053, 207.324 159.841 C 209.629 159.319, 249.207 118.125, 248.747 116.727 C 248.076 114.687, 244.540 114.787, 241.826 116.922 M 881.667 119.667 C 880.508 120.826, 880.909 121.702, 884.637 126.155 C 888.858 131.196, 891.400 136.700, 893.655 145.677 C 895.845 154.395, 897.552 153.436, 897.315 143.618 C 897.163 137.317, 896.549 134.681, 893.885 128.902 C 892.100 125.029, 889.721 121.217, 888.597 120.431 C 886.458 118.932, 882.804 118.529, 881.667 119.667 M 406.837 127.250 C 403.928 129.604, 402 133.446, 402 136.888 C 402 140.475, 401.907 140.353, 418.491 158.585 C 421.786 162.208, 425.724 165.905, 427.242 166.802 C 430.874 168.947, 431.366 170.880, 429.448 175.471 C 426.738 181.956, 431.109 182.795, 434.980 176.533 C 438.769 170.402, 437.497 166.776, 429.740 161.591 C 424.258 157.926, 420.471 153.746, 417.595 148.184 C 416.655 146.367, 414.274 143.095, 412.302 140.913 L 408.718 136.945 410.303 132.910 C 412.611 127.035, 410.786 124.055, 406.837 127.250 M 131.072 133.706 C 125.265 140.220, 116 153.256, 116 154.913 C 116 157.211, 118.372 155.803, 122.847 150.849 C 130.056 142.868, 139.097 130.792, 138.717 129.652 C 137.906 127.217, 135.918 128.272, 131.072 133.706 M 827.630 133.250 C 827.299 134.488, 827.021 137.038, 827.014 138.918 C 827.006 140.798, 826.500 145.206, 825.889 148.715 C 824.706 155.508, 823.145 156.498, 821.800 151.308 C 820.781 147.374, 818.664 145.488, 817.234 147.238 C 816.666 147.932, 815.706 153.985, 815.100 160.689 C 813.802 175.031, 812.813 178.393, 810.142 177.545 C 808.521 177.031, 808.087 177.943, 806.723 184.728 C 805.159 192.506, 805.566 194.764, 808.336 193.701 C 810.329 192.936, 817.868 177.676, 818.641 172.842 C 819.458 167.732, 820.554 167.238, 822.543 171.082 C 823.438 172.813, 824.528 173.841, 824.964 173.365 C 827.143 170.992, 832 147.741, 832 139.686 C 832 132.491, 829.013 128.091, 827.630 133.250 M 243.500 136.567 C 240.104 139.121, 206 173.341, 206 174.195 C 206 176.424, 209.593 174.100, 220.518 164.807 C 238.487 149.520, 249.212 138.715, 248.432 136.684 C 247.641 134.623, 246.133 134.587, 243.500 136.567 M 876.541 136.934 C 876.223 137.448, 876.902 139.668, 878.048 141.868 C 880.484 146.541, 881.943 155.445, 882.002 166 C 882.046 173.809, 884.062 180.158, 887.366 182.893 C 889.625 184.762, 890.201 183.930, 889.085 180.412 C 888.577 178.810, 887.914 171.650, 887.612 164.500 C 886.967 149.234, 885.145 141.432, 881.480 138.250 C 878.670 135.810, 877.438 135.482, 876.541 136.934 M 345.367 145.182 C 332.807 156.991, 327.003 166, 331.958 166 C 334.837 166, 356.294 144.769, 355.837 142.372 C 355.116 138.593, 351.281 139.622, 345.367 145.182 M 358.238 155.262 C 349.857 163.656, 343 171.124, 343 171.859 C 343 173.362, 344.189 172.419, 362.147 156.659 C 368.941 150.696, 375.103 144.980, 375.839 143.958 C 377.261 141.984, 376.679 140, 374.679 140 C 374.017 140, 366.619 146.868, 358.238 155.262 M 134.860 146.250 C 134.022 146.938, 131.661 149.845, 129.612 152.711 C 126.493 157.074, 126.065 158.253, 126.979 159.961 C 128.839 163.436, 130.755 162.262, 135.065 155.007 C 139.776 147.078, 139.664 142.306, 134.860 146.250 M 493.989 151.250 C 491.474 155.374, 491.491 157.440, 494.071 161.616 L 496.143 164.967 492.596 170.734 C 487.958 178.274, 486.384 182.784, 487.869 184.269 C 489.371 185.771, 493.797 181.486, 499.012 173.482 C 503.634 166.388, 503.929 163.648, 500.565 159.088 C 498.617 156.448, 498.317 155.296, 499.065 153.329 C 500.503 149.546, 500.190 148, 497.985 148 C 496.785 148, 495.169 149.314, 493.989 151.250 M 247.707 157.250 C 244.588 160.169, 232.833 173.779, 230.673 176.973 C 228.700 179.888, 228.481 183.005, 230.250 182.989 C 231.498 182.978, 253.384 163.150, 255.750 159.886 C 259.047 155.338, 252.162 153.081, 247.707 157.250 M 866.035 158.177 C 866.054 158.905, 866.714 162.425, 867.500 166 C 868.286 169.575, 868.946 176.143, 868.965 180.595 C 868.994 187.276, 868.672 188.987, 867.120 190.391 C 864.082 193.141, 863.320 204, 866.166 204 C 866.679 204, 868.764 200.512, 870.799 196.250 C 874.373 188.766, 874.500 188.122, 874.500 177.500 C 874.500 167.608, 874.247 166.048, 871.987 162.011 C 869.585 157.721, 865.961 155.387, 866.035 158.177 M 800.600 161.179 C 800.339 162.456, 799.867 165.415, 799.550 167.756 C 799.233 170.097, 797.630 175.396, 795.987 179.532 C 794.344 183.668, 793 187.715, 793 188.526 C 793 193.497, 800.289 184.253, 802.578 176.379 C 804.315 170.404, 804.136 159.868, 802.287 159.258 C 801.620 159.038, 800.861 159.902, 800.600 161.179 M 254.162 184.043 C 245.273 193.463, 238 201.582, 238 202.085 C 238 205.811, 250.129 196.985, 263.816 183.300 C 272.531 174.585, 274.082 172.561, 273.816 170.251 C 273.640 168.725, 272.798 167.384, 271.912 167.216 C 270.937 167.032, 264.089 173.523, 254.162 184.043 M 351.302 178.302 C 345.636 183.969, 341 189.144, 341 189.802 C 341 190.461, 341.894 191, 342.986 191 C 345.259 191, 366 171.509, 366 169.373 C 366 168.618, 365.011 168, 363.802 168 C 362.348 168, 358.122 171.483, 351.302 178.302 M 378.758 170.868 C 376.742 171.896, 372.710 175.336, 369.797 178.512 C 362.693 186.257, 352.023 200.197, 352.010 201.750 C 352.005 202.438, 353.153 203, 354.563 203 C 356.458 203, 359.817 200.381, 367.457 192.948 L 377.789 182.895 380.051 186.198 C 383.651 191.454, 396.413 204.861, 399.986 207.140 C 402.139 208.513, 402.291 208.945, 401.119 210.357 C 400.375 211.253, 397.456 213.314, 394.633 214.935 C 391.810 216.556, 387.475 219.960, 385 222.500 C 382.525 225.040, 378.169 228.456, 375.320 230.092 C 372.471 231.728, 367.814 235.752, 364.971 239.033 C 362.128 242.315, 359.406 245, 358.921 245 C 358.437 245, 355.740 243.259, 352.928 241.131 C 350.117 239.003, 345.945 236.714, 343.658 236.044 C 341.371 235.374, 335.450 232.433, 330.500 229.507 C 325.550 226.582, 319.273 223.133, 316.551 221.844 C 312.631 219.987, 310.503 217.940, 306.318 212 C 301.038 204.507, 297.674 201, 295.767 201 C 292.855 201, 264 232.769, 264 235.976 C 264 236.404, 264.646 237.291, 265.436 237.947 C 267.525 239.681, 269.655 238.229, 277.774 229.535 C 284.105 222.756, 287.029 220.602, 286.984 222.750 C 286.976 223.162, 286.335 226.196, 285.560 229.490 C 284.247 235.072, 284.289 235.802, 286.184 240.205 C 287.984 244.391, 288.081 245.495, 287.028 249.882 C 285.387 256.726, 286.528 258.460, 294.266 260.877 C 297.695 261.949, 302.525 263.755, 305 264.891 C 312.217 268.203, 316.345 267.382, 314.048 263.090 C 312.461 260.125, 307.264 256.808, 300.548 254.475 L 294.500 252.374 294.833 248.048 C 295.020 245.622, 294.436 241.813, 293.504 239.372 C 292.082 235.648, 292.005 233.976, 292.969 227.762 C 294.177 219.979, 296.197 215.754, 298.321 216.570 C 299.045 216.848, 300.628 219.113, 301.838 221.603 C 303.804 225.649, 304.860 226.505, 311.769 229.652 C 316.021 231.588, 323.100 235.327, 327.500 237.961 C 331.900 240.594, 337.300 243.316, 339.500 244.011 C 341.700 244.705, 345.746 246.399, 348.491 247.775 C 358.153 252.620, 357.933 252.654, 367.722 244.817 C 372.550 240.951, 378.618 236.714, 381.207 235.399 C 383.796 234.085, 390.205 228.908, 395.449 223.895 C 403.969 215.749, 405.277 214.850, 407.742 215.441 C 410.927 216.205, 435 227.878, 435 228.659 C 435 228.946, 430.725 233.859, 425.500 239.577 C 416.580 249.338, 414.313 253.023, 417.250 252.983 C 417.938 252.974, 423.822 248.024, 430.326 241.983 C 436.830 235.942, 442.364 231, 442.622 231 C 442.881 231, 446.872 233.883, 451.490 237.407 C 458.527 242.776, 461.021 244.072, 466.891 245.407 C 475.612 247.391, 477 247.396, 477 245.445 C 477 244.520, 474.668 242.832, 471.250 241.282 C 464.241 238.104, 455.599 232.361, 448.986 226.488 C 445.768 223.630, 442.729 221.878, 440.272 221.465 C 434.221 220.449, 429.775 218.866, 425.610 216.246 C 423.471 214.900, 420.096 213.240, 418.110 212.556 C 415.865 211.784, 413.509 209.863, 411.880 207.478 C 410.166 204.969, 407.527 202.876, 404.255 201.432 C 400.753 199.887, 398.332 197.890, 396.196 194.784 C 394.516 192.343, 391.534 189.119, 389.570 187.621 C 385.755 184.711, 382.530 179.569, 383.518 177.971 C 384.783 175.924, 388.969 177.154, 393.509 180.906 C 398.449 184.988, 399.551 185.604, 412.358 191.429 C 416.680 193.395, 421.585 196.156, 423.257 197.563 C 426.715 200.472, 435.659 205.129, 441.306 206.959 C 444.829 208.100, 445.414 207.992, 449.184 205.497 C 453.849 202.410, 451.772 201.488, 465.458 212.716 C 473.215 219.081, 479.210 221.666, 483.634 220.556 C 487.126 219.679, 486.668 216.397, 482.773 214.383 C 480.999 213.465, 477.060 210.191, 474.020 207.107 C 466.791 199.774, 459.491 194.992, 455.579 195.028 C 453.745 195.044, 450.911 196.258, 448.572 198.028 C 446.411 199.663, 443.711 200.990, 442.572 200.978 C 438.877 200.939, 431.903 197.112, 426.459 192.137 C 423.533 189.462, 417.060 185.167, 412.074 182.593 C 407.089 180.018, 401.545 176.421, 399.755 174.599 C 397.965 172.778, 395.517 170.773, 394.316 170.144 C 390.967 168.390, 382.881 168.766, 378.758 170.868 M 852.947 187.250 C 852.918 192.338, 852.283 199.875, 851.535 204 C 850.753 208.314, 850.548 211.889, 851.052 212.415 C 852.209 213.621, 855.867 205.037, 857.156 198.092 C 858.233 192.287, 857.423 181.298, 855.766 179.250 C 853.613 176.588, 852.998 178.332, 852.947 187.250 M 276.500 187.154 C 273.404 188.847, 261.018 201.186, 259.466 204.123 C 258.017 206.865, 258.384 208, 260.721 208 C 262.532 208, 282 189.107, 282 187.349 C 282 185.735, 279.272 185.638, 276.500 187.154 M 513.500 187.425 C 508.440 189.697, 499.545 198.372, 500.289 200.310 C 501.270 202.866, 504.024 202.362, 510.046 198.526 C 516.055 194.698, 517.434 194.451, 523.177 196.171 C 526.375 197.129, 527.345 197.084, 528.507 195.921 C 530.283 194.145, 529.615 193.121, 524.100 189.160 C 519.236 185.667, 517.902 185.449, 513.500 187.425 M 98.819 189.033 C 96.795 190.102, 92.745 193.787, 89.819 197.223 C 86.894 200.658, 79.533 208.426, 73.462 214.484 C 67.391 220.543, 59.544 228.875, 56.024 233 C 52.504 237.125, 48.375 241.839, 46.848 243.475 C 43.255 247.327, 38.701 255.706, 39.498 256.997 C 41.442 260.142, 44.940 257.527, 59 242.419 C 66.975 233.849, 77.100 223.373, 81.500 219.139 C 85.900 214.905, 92.342 208.192, 95.816 204.220 C 102.871 196.156, 104.492 195.611, 110.097 199.420 C 112.056 200.751, 116.452 202.757, 119.865 203.878 C 123.279 204.998, 127.294 206.761, 128.786 207.795 C 132.563 210.411, 134.310 210.958, 144 212.560 C 154.778 214.342, 154.194 214.390, 153.820 211.750 C 153.481 209.369, 149.686 207.106, 138.500 202.618 C 124.211 196.884, 118.171 194.026, 113.150 190.625 C 107.130 186.547, 104.152 186.216, 98.819 189.033 M 761.918 193.277 C 759.949 195.050, 756.349 198.175, 753.918 200.223 C 749.738 203.746, 749.600 204.025, 751.351 205.407 C 753.146 206.824, 753.137 207.054, 751.038 213.118 C 748.787 219.623, 748.979 224, 751.516 224 C 753.453 224, 760.312 217.779, 765.263 211.533 C 769.337 206.394, 768.926 204.508, 764.381 207.486 C 762.976 208.407, 761.603 208.936, 761.330 208.663 C 761.057 208.390, 762.671 205.120, 764.917 201.396 C 769.330 194.078, 769.628 193.028, 767.800 191.200 C 766.157 189.557, 765.984 189.618, 761.918 193.277 M 841.988 192.250 C 840.786 195.041, 837 216.299, 837 220.258 C 837 229.132, 843.592 213.922, 844.855 202.134 C 845.702 194.222, 845.357 190, 843.862 190 C 843.364 190, 842.521 191.012, 841.988 192.250 M 477.357 195.513 C 476.542 197.637, 477.495 198.577, 492.497 210.443 C 504.719 220.110, 509 222.601, 509 220.047 C 509 218.042, 490.240 200.152, 485 197.159 C 478.701 193.563, 478.151 193.444, 477.357 195.513 M 680.500 197.680 C 674.463 199.033, 668.946 201.331, 669.298 202.347 C 670.053 204.520, 695.967 202.599, 696.729 200.314 C 697.486 198.042, 686.698 196.291, 680.500 197.680 M 884.400 199.541 C 884.025 201.037, 884.451 205.226, 885.363 209.005 C 886.264 212.735, 887 218.347, 887 221.476 C 887 227.939, 888.569 228.576, 890.605 222.940 C 892.583 217.464, 892.214 209.172, 889.719 203.075 C 887.181 196.870, 885.372 195.668, 884.400 199.541 M 544.887 205.750 C 536.601 214.423, 530 222.382, 530 223.700 C 530 226.441, 532.901 224.707, 542.306 216.340 C 551.454 208.203, 554.073 204.546, 552.535 202.057 C 551.315 200.082, 549.434 200.991, 544.887 205.750 M 828.186 204.722 C 827.683 205.700, 827.028 208.411, 826.731 210.747 C 826.434 213.083, 824.826 217.912, 823.158 221.477 C 821.356 225.327, 820.525 228.206, 821.110 228.568 C 822.681 229.539, 828.484 222.666, 829.799 218.276 C 832.115 210.545, 830.814 199.612, 828.186 204.722 M 774.264 209.177 C 771.955 212.667, 771.441 214.656, 771.140 221.271 C 770.813 228.448, 770.947 229.157, 772.571 228.844 C 774.926 228.391, 781.528 206.957, 779.676 205.779 C 777.681 204.510, 777.119 204.863, 774.264 209.177 M 715.166 207.534 C 709.131 208.844, 700.847 212.821, 699.452 215.078 C 698.282 216.970, 699.980 217.409, 703.517 216.130 C 705.424 215.441, 711.972 213.820, 718.068 212.529 C 724.164 211.238, 729.407 209.926, 729.718 209.615 C 730.030 209.303, 729.716 208.362, 729.020 207.524 C 727.499 205.691, 723.643 205.694, 715.166 207.534 M 111.667 210.667 C 108.932 213.401, 116.199 219.059, 129.971 224.920 C 138.286 228.458, 138.012 228.396, 137.961 226.750 C 137.920 225.449, 132.956 221.522, 122.172 214.261 C 116.156 210.211, 113.151 209.182, 111.667 210.667 M 646.443 211.418 C 645.376 212.198, 644.758 213.092, 645.070 213.403 C 646.175 214.508, 668.471 215.149, 669.971 214.119 C 670.780 213.563, 671.153 212.820, 670.800 212.467 C 668.252 209.919, 649.592 209.115, 646.443 211.418 M 813.039 211.454 C 809.648 215.539, 807.984 227.676, 810.161 232.453 C 812.201 236.932, 813.690 235.443, 814.363 228.250 C 814.711 224.537, 815.277 218.912, 815.621 215.750 C 816.257 209.915, 815.441 208.558, 813.039 211.454 M 111.702 223.631 C 110.067 225.267, 114.034 228.444, 125.819 234.938 C 132.868 238.822, 139.167 242, 139.817 242 C 143.751 242, 136.464 235.282, 124.542 227.916 C 117.176 223.366, 113.271 222.063, 111.702 223.631 M 637 225.175 C 632.987 226.316, 629.587 228.993, 630.726 230.113 C 631.713 231.084, 644.880 228.345, 646.770 226.776 C 649.623 224.408, 643.328 223.376, 637 225.175 M 712.152 225.057 C 706.304 226.230, 700.567 229.137, 700.204 231.110 C 700.019 232.115, 701.062 233.197, 702.986 233.994 C 704.679 234.695, 706.162 235.096, 706.282 234.885 C 706.402 234.673, 706.996 233.600, 707.602 232.500 C 708.297 231.237, 710.877 229.916, 714.602 228.916 C 718.276 227.929, 720.500 226.797, 720.500 225.916 C 720.500 224.179, 717.871 223.909, 712.152 225.057 M 787.419 227.750 C 784.880 233.016, 784.458 242.335, 786.413 249.968 C 790.088 264.311, 792.383 265.254, 796.938 254.294 C 798.719 250.007, 800.394 245.375, 800.659 244 L 801.141 241.500 798.821 244.033 C 797.544 245.426, 795.732 247.676, 794.794 249.033 C 791.741 253.449, 790.808 249.964, 791.373 236.250 C 791.775 226.494, 791.608 224, 790.553 224 C 789.824 224, 788.414 225.688, 787.419 227.750 M 875.720 224.697 C 875.465 225.139, 875.267 230.045, 875.281 235.599 C 875.309 247.518, 874.745 249.049, 871.466 245.968 C 870.188 244.768, 868.616 243.961, 867.971 244.176 C 866.620 244.627, 859.699 264.618, 860.296 266.348 C 860.514 266.982, 862.343 264.238, 864.359 260.250 C 868.176 252.701, 869.640 251.444, 870.180 255.250 C 870.733 259.141, 874.106 257.999, 877.296 252.840 C 879.630 249.065, 880.273 246.690, 880.681 240.340 C 881.015 235.154, 880.731 231.172, 879.843 228.577 C 878.547 224.790, 876.680 223.033, 875.720 224.697 M 412.256 231.934 C 390.105 251.736, 383.709 259, 388.423 259 C 389.667 259, 402.460 249.093, 417.222 236.699 C 422.863 231.963, 425.191 228.662, 424.382 226.552 C 423.243 223.586, 419.969 225.039, 412.256 231.934 M 604.908 228.871 C 597.003 231.997, 587.737 239.102, 589.857 240.412 C 591.063 241.157, 613.500 229.852, 613.500 228.500 C 613.500 226.805, 609.721 226.968, 604.908 228.871 M 673.500 232.379 C 667.714 235.167, 657.630 243.886, 660.112 243.955 C 660.998 243.980, 665.723 242.189, 670.612 239.975 C 688.044 232.082, 689.715 230.713, 682.500 230.235 C 679.878 230.061, 676.778 230.800, 673.500 232.379 M 106 234.015 C 106 235.194, 111.908 238.991, 113.750 238.996 C 115.783 239.002, 115.177 236.238, 112.777 234.557 C 110.279 232.807, 106 232.465, 106 234.015 M 758.688 235.646 C 758.309 236.024, 758.001 240.196, 758.002 244.917 C 758.003 253.467, 759.871 259.873, 762.613 260.728 C 763.815 261.103, 763.429 244.082, 762.110 238.568 C 761.402 235.612, 759.956 234.377, 758.688 235.646 M 850.563 239.250 C 850.358 239.938, 849.728 243.541, 849.164 247.259 C 848.600 250.976, 846.982 256.543, 845.569 259.630 C 841.960 267.513, 842.296 269.391, 846.472 264.664 C 852.706 257.607, 856.247 246.410, 854.062 240.662 C 852.997 237.862, 851.196 237.135, 850.563 239.250 M 612.882 244.357 C 608.622 245.907, 602.706 249.444, 601.064 251.423 C 598.962 253.956, 601.851 254.289, 607.306 252.143 C 610.163 251.019, 615.425 249.265, 619 248.245 C 623.146 247.062, 625.500 245.867, 625.500 244.945 C 625.500 242.988, 617.652 242.622, 612.882 244.357 M 719.750 247.147 C 712.702 250.861, 709.802 254, 713.417 254 C 717.438 254, 731 246.248, 731 243.949 C 731 242.093, 727.394 243.118, 719.750 247.147 M 438.897 244.985 C 436.431 246.447, 429 256.476, 429 258.342 C 429 260.662, 430.111 260.427, 434.636 257.149 C 439.799 253.409, 444.174 248.140, 443.786 246.128 C 443.416 244.208, 441.114 243.670, 438.897 244.985 M 130.250 247.662 C 127.159 248.909, 129.343 252.567, 138.102 260.811 C 146.127 268.366, 148.930 270.245, 161.807 276.704 C 169.840 280.733, 176.829 283.890, 177.339 283.720 C 177.849 283.550, 178.769 281.960, 179.383 280.186 C 180.574 276.747, 200.240 255.991, 202.287 256.012 C 202.954 256.019, 207.435 257.114, 212.245 258.444 C 218.995 260.311, 221.731 260.651, 224.238 259.932 C 226.025 259.419, 229.612 259, 232.209 259 C 234.807 259, 238.464 258.269, 240.336 257.377 C 243.489 255.873, 244.117 255.878, 248.815 257.439 C 254.071 259.184, 261.002 259.735, 262.907 258.558 C 265.508 256.950, 263.399 255.118, 254.250 251.042 L 244.500 246.698 240 248.451 C 237.525 249.415, 232.669 250.552, 229.208 250.977 C 225.748 251.403, 222.689 251.977, 222.412 252.254 C 222.135 252.532, 218.537 251.688, 214.416 250.379 C 210.295 249.071, 204.812 248, 202.230 248 C 197.704 248, 197.322 248.239, 191.518 254.704 C 188.208 258.391, 182.963 264.103, 179.862 267.396 L 174.223 273.384 170.271 272.199 C 168.097 271.548, 164.784 269.890, 162.909 268.515 C 161.034 267.141, 157.925 265.300, 156 264.425 C 154.075 263.550, 149.350 259.746, 145.500 255.970 C 137.699 248.321, 133.835 246.216, 130.250 247.662 M 565.629 249.130 C 560.666 251.748, 553 259.616, 553 262.092 C 553 263.141, 553.204 264, 553.454 264 C 553.704 264, 556.788 261.848, 560.307 259.217 C 563.826 256.587, 568.797 253.325, 571.353 251.969 C 573.909 250.613, 576 248.940, 576 248.252 C 576 246.315, 570.002 246.823, 565.629 249.130 M 662.449 248.945 C 652.287 252.563, 647.840 256, 653.322 256 C 658.994 256, 671.732 249.994, 670.453 247.924 C 669.679 246.671, 668.361 246.839, 662.449 248.945 M 618.729 261.397 C 609.763 265.121, 600.959 273.292, 603.343 275.676 C 604.264 276.597, 631.121 261.865, 630.725 260.656 C 630.052 258.604, 624.649 258.938, 618.729 261.397 M 526.500 262.379 C 517.988 265.127, 509.557 270.890, 511.380 272.714 C 512.080 273.414, 528.985 267.937, 534.314 265.284 C 540.420 262.243, 534.145 259.911, 526.500 262.379 M 574.444 264.456 C 568.596 267.382, 563.145 272.580, 564.557 273.886 C 565.629 274.877, 586.238 265.077, 586.398 263.500 C 586.615 261.371, 579.467 261.942, 574.444 264.456 M 675.750 265.653 C 666.739 269.316, 664.315 272, 670.020 272 C 673.550 272, 684.521 267.743, 687.170 265.346 C 692.128 260.859, 687.217 260.991, 675.750 265.653 M 815.268 272.052 C 813.656 275.599, 811.586 279.118, 810.669 279.872 C 809.149 281.122, 809 280.788, 809 276.122 C 809 270.946, 807.437 269.102, 806.565 273.250 C 803.292 288.825, 803.265 290.244, 806.250 289.820 C 807.743 289.608, 810.093 287.145, 813.235 282.500 C 818.408 274.851, 820.415 269.564, 819.062 267.146 C 818.408 265.978, 817.490 267.164, 815.268 272.052 M 86.931 281.221 C 65.777 303.569, 54 316.895, 54 318.484 C 54 322.400, 59.005 318.327, 80.704 296.755 C 100.233 277.340, 104.037 273.096, 103.793 271.005 C 103.150 265.507, 99.996 267.418, 86.931 281.221 M 230.473 270.044 C 228.988 272.447, 233.561 276.154, 245.407 282.151 C 261.270 290.181, 263.670 288.726, 250.500 279.065 C 238.623 270.353, 232.098 267.414, 230.473 270.044 M 868.272 271.217 C 867.707 271.923, 866.920 273.625, 866.522 275 C 866.124 276.375, 864.247 280.368, 862.350 283.874 C 857.851 292.190, 858.258 294.911, 863.233 289.762 C 867.416 285.431, 872.263 275.825, 871.811 272.762 C 871.436 270.222, 869.682 269.456, 868.272 271.217 M 428.641 274.782 C 423.312 279.186, 405.139 298.564, 400.839 304.429 C 398.959 306.994, 398.298 308.698, 398.938 309.338 C 400.078 310.478, 406.795 304.776, 424.339 287.773 C 433.761 278.642, 436.109 275.825, 435.839 273.978 C 435.318 270.412, 433.713 270.591, 428.641 274.782 M 625.730 275.420 C 618.986 278.193, 613 282.487, 613 284.551 C 613 286.916, 615.960 286.138, 625.996 281.135 C 639.642 274.333, 639.431 269.786, 625.730 275.420 M 221.221 279.250 C 221.660 280.666, 227.516 283.797, 230.515 284.220 C 234.068 284.721, 233.480 282.553, 229.443 280.266 C 225.095 277.804, 220.600 277.248, 221.221 279.250 M 540.747 279.775 C 535.832 281.345, 527.980 287.268, 529.182 288.499 C 530.147 289.487, 548 281.778, 548 280.373 C 548 278.389, 545.684 278.198, 540.747 279.775 M 837.741 285.750 C 832.213 293.840, 831.254 296, 833.190 296 C 836.763 296, 846.144 282.660, 844.473 279.956 C 843.354 278.146, 842.340 279.019, 837.741 285.750 M 575.991 282.250 C 570.020 286.315, 563.834 296, 567.209 296 C 568.885 296, 582 282.898, 582 281.225 C 582 279.356, 579.653 279.757, 575.991 282.250 M 652.279 281.326 C 648.772 282.604, 644.513 285.846, 645.303 286.636 C 647.062 288.395, 659.718 282.971, 658.490 280.985 C 657.732 279.758, 656.379 279.832, 652.279 281.326 M 495.273 284.941 C 485.419 288.416, 479.337 292.583, 473.979 299.527 C 469.314 305.574, 468.928 306.993, 472.750 304.047 C 484.489 294.999, 489.996 291.754, 497.666 289.363 C 506.469 286.618, 509.467 284.541, 506.936 282.939 C 504.883 281.641, 504.392 281.725, 495.273 284.941 M 437.195 291.431 C 429.384 299.655, 426.387 303.721, 427.396 304.729 C 428.404 305.737, 446 287.806, 446 285.771 C 446 282.772, 444.513 283.727, 437.195 291.431 M 331.500 290.842 C 329.850 291.851, 326.025 294.908, 323 297.635 C 315.591 304.314, 304.244 313.794, 301.537 315.568 C 300.326 316.362, 294.007 317.709, 287.497 318.563 C 280.986 319.417, 274.083 320.774, 272.156 321.579 C 266.605 323.899, 253.247 335.166, 248.874 341.217 C 247.047 343.745, 247.022 344.104, 248.510 346.374 C 250.640 349.626, 249.114 350.364, 244.363 348.379 C 239.390 346.301, 231.771 347.037, 224.747 350.274 C 219.638 352.629, 200.770 366.095, 198.233 369.197 C 196.089 371.818, 197.791 373.586, 206.307 377.585 C 212.494 380.491, 216.092 381.528, 221 381.821 C 224.575 382.035, 227.909 382.594, 228.409 383.063 C 229.557 384.143, 219.163 396.088, 213.371 400.345 C 209.031 403.535, 207.797 406.601, 210.444 407.617 C 212.729 408.494, 225.945 406.118, 230.849 403.949 C 235.560 401.865, 237.062 402.016, 235.103 404.376 C 232.418 407.612, 218.692 413.086, 203.500 416.982 C 188.610 420.800, 186.873 421.497, 178.471 427.029 C 171.562 431.577, 164.871 434.706, 149.971 440.355 C 113.512 454.179, 114.292 453.731, 96.500 471.103 C 85.233 482.103, 75.752 488.970, 59.076 498.203 C 55.110 500.400, 54.813 504.502, 58.500 506.182 C 59.875 506.808, 61 507.913, 61 508.637 C 61 509.360, 57.683 512.449, 53.628 515.501 C 47.397 520.191, 39.782 528.385, 36.514 533.916 C 35.935 534.895, 36.544 536.022, 38.493 537.576 L 41.308 539.821 36.194 547.793 C 27.153 561.887, 26.085 566, 31.469 566 C 32.861 566, 34 566.520, 34 567.156 C 34 569.264, 24.603 582.175, 17.564 589.736 C 11.925 595.793, 10.822 597.497, 11.666 598.843 C 12.237 599.755, 13.671 600.644, 14.852 600.820 C 16.033 600.995, 17 601.487, 17 601.913 C 17 602.339, 13.370 605.750, 8.934 609.494 C -1.508 618.306, -0.113 619.489, 16.394 615.819 C 20.958 614.805, 21.404 614.884, 22.994 616.993 C 24.585 619.101, 24.964 619.168, 28.600 617.990 C 34.766 615.991, 43.882 611.170, 51.743 605.752 L 58.985 600.760 60.831 603.039 C 61.846 604.293, 63.176 605.009, 63.788 604.631 C 65.305 603.694, 74.464 588.416, 76.859 582.829 C 77.927 580.337, 79.810 574.068, 81.043 568.899 C 83.618 558.099, 84.169 557.118, 87.317 557.720 C 88.585 557.963, 90.112 557.562, 90.712 556.830 C 92.084 555.158, 93.993 539.785, 93.997 530.389 C 94.003 516.787, 100.201 493, 103.740 493 C 104.810 493, 105.053 493.637, 104.597 495.250 C 101.733 505.373, 99.921 515.160, 100.292 518.500 C 100.536 520.700, 102.820 527.115, 105.368 532.756 C 107.916 538.397, 110 543.640, 110 544.406 C 110 545.172, 108.425 548.139, 106.500 551 C 102.633 556.747, 102.249 559.325, 104.534 564.216 C 106.028 567.412, 105.870 568.124, 98.642 590.843 C 94.557 603.681, 90.780 614.620, 90.249 615.151 C 89.718 615.682, 86.343 616.732, 82.748 617.484 C 79.153 618.236, 74.381 619.785, 72.144 620.927 C 69.906 622.068, 63.696 624.567, 58.344 626.480 C 52.992 628.393, 47.913 630.699, 47.057 631.603 C 45.620 633.121, 45.886 633.205, 50.500 632.686 C 56.308 632.033, 69.414 627.797, 76.217 624.374 C 81.893 621.517, 91.133 621.169, 96.782 623.599 C 103.664 626.559, 105.785 626.813, 116.514 625.954 C 129.712 624.898, 142.033 626.874, 158.500 632.688 L 169.500 636.571 186 636.420 C 200.230 636.290, 204.046 636.610, 213.738 638.746 C 224.409 641.098, 228 641.201, 228 639.155 C 228 638.655, 225.768 637.286, 223.041 636.113 C 214.540 632.456, 206.522 630.881, 197.262 631.051 C 178.828 631.388, 167.549 630.590, 164.741 628.750 C 163.272 627.788, 161.241 627, 160.226 627 C 157.780 627, 153.849 624.129, 156 623.913 C 156.825 623.831, 158.107 623.846, 158.848 623.948 C 159.589 624.049, 160.939 623.474, 161.848 622.670 C 162.757 621.865, 164.354 621.048, 165.398 620.853 C 167.140 620.529, 167.072 620.234, 164.559 617.250 C 162.652 614.986, 160.959 614, 158.976 614 C 155.019 614, 151.368 612.460, 146.856 608.886 C 143.433 606.175, 143 605.340, 143 601.450 L 143 597.068 155.968 597.482 C 163.101 597.710, 169.821 598.369, 170.903 598.948 C 175.565 601.443, 190.005 598.970, 203.203 593.415 C 211.233 590.035, 212.452 590.956, 211.516 599.697 C 211.103 603.548, 211.279 607.315, 211.968 609.402 C 213.400 613.742, 221.660 621.507, 227.783 624.270 C 233.992 627.072, 243.912 627.289, 246.792 624.686 C 248.245 623.372, 249.724 623.029, 252.150 623.442 C 254.318 623.811, 256.158 623.500, 257.366 622.561 C 259.178 621.152, 259.169 621.010, 257.060 617.597 C 253.994 612.636, 250.231 609.748, 242.615 606.511 C 238.977 604.965, 236 603.288, 236 602.785 C 236 602.282, 236.955 599.650, 238.123 596.935 L 240.246 592 246.967 592 C 250.969 592, 255.924 591.230, 259.219 590.097 C 269.443 586.579, 275.815 585.646, 278.301 587.302 C 279.511 588.107, 283.405 594.269, 286.955 600.994 C 290.505 607.720, 294.431 613.891, 295.678 614.709 C 298.735 616.712, 312.447 615.327, 312.597 613 C 312.650 612.175, 313.060 610.649, 313.507 609.610 C 314.275 607.827, 314.394 607.818, 315.594 609.460 C 317.104 611.524, 319 610.678, 319 607.941 C 319 605.211, 320.464 605.528, 321.844 608.556 C 323.307 611.767, 325 610.847, 325 606.841 C 325 602.838, 319.738 597.545, 314.303 596.082 C 310.710 595.114, 309.917 594.329, 307.613 589.465 C 306.176 586.429, 305 583.298, 305 582.508 C 305 578.992, 316.766 576.530, 325.890 578.137 C 330.748 578.993, 332.297 578.898, 334.833 577.586 C 336.776 576.582, 340.464 576, 344.891 576 C 348.736 576, 352.129 575.601, 352.430 575.113 C 353.343 573.637, 350.264 571.799, 344.719 570.510 C 340.515 569.533, 338.593 569.547, 335.085 570.583 C 331.837 571.542, 329.308 571.619, 325.318 570.882 C 319.757 569.854, 319.050 569.941, 310.280 572.732 C 307.409 573.646, 304.881 574.193, 304.661 573.947 C 304.441 573.701, 303.545 563.865, 302.670 552.089 C 301.295 533.591, 300.195 527.275, 298.663 529.067 C 298.459 529.305, 296.589 532.775, 294.508 536.777 C 290.693 544.114, 286.193 549, 283.252 549 C 282.375 549, 280.818 548.240, 279.793 547.312 C 278.157 545.832, 277.471 545.785, 274.214 546.933 C 269.825 548.479, 264 552.634, 264 554.219 C 264 554.833, 266.250 560.178, 269 566.096 C 271.750 572.013, 274 577.515, 274 578.321 C 274 579.832, 271.967 581, 269.335 581 C 268.509 581, 264.462 582.350, 260.341 584 C 252.815 587.014, 246.765 587.770, 244.028 586.039 C 242.166 584.861, 243.059 581.163, 250.078 561 C 255.465 545.528, 261.671 532.063, 263.792 531.249 C 266.451 530.229, 266.280 532.235, 263.106 539.268 C 261.311 543.246, 259.604 547.063, 259.314 547.750 C 257.818 551.291, 268.051 547.449, 275.292 541.750 C 278.816 538.976, 279.210 538.880, 280.871 540.383 C 283.446 542.714, 284.311 542.441, 287.695 538.230 C 292.546 532.194, 295.070 526.554, 297.982 515.250 C 298.584 512.913, 299.624 511, 300.291 511 C 300.959 511, 303.212 513.729, 305.297 517.065 C 310.065 524.693, 311.720 524.590, 314.423 516.494 C 316.170 511.265, 316.415 507.981, 316.345 490.764 L 316.264 471.028 318.645 471.626 C 321.729 472.400, 324 470.461, 324 467.054 C 324 461.808, 320.744 445.355, 317.393 433.670 C 315.527 427.164, 314 421.377, 314 420.812 C 314 420.212, 315.050 420.047, 316.516 420.415 C 318.569 420.930, 319.206 420.589, 319.977 418.562 C 321.144 415.492, 319.812 402.891, 317.407 394.239 C 316.452 390.805, 315.947 387.720, 316.284 387.382 C 316.622 387.045, 318.323 387.265, 320.064 387.872 C 321.805 388.479, 323.628 388.730, 324.115 388.429 C 324.602 388.128, 325 383.881, 325 378.990 C 325 361.768, 327.112 357.572, 341.160 346.878 C 349.197 340.760, 351.764 337.433, 350.663 334.564 C 350.187 333.323, 348.384 333, 341.924 333 C 335.822 333, 333.907 332.687, 334.270 331.750 C 334.536 331.063, 337.296 326.456, 340.403 321.513 C 348.611 308.451, 349.485 303.615, 344.976 296.200 C 343.120 293.150, 337.664 289.007, 335.500 289.007 C 334.950 289.007, 333.150 289.833, 331.500 290.842 M 622.500 293.653 C 618.650 295.052, 614.825 296.884, 614 297.723 C 612.658 299.088, 613.045 299.188, 617.682 298.679 C 623.702 298.018, 631 294.621, 631 292.480 C 631 290.595, 630.861 290.615, 622.500 293.653 M 581.808 296.775 C 575.895 303.096, 573.651 306.647, 574.375 308.535 C 574.837 309.739, 575.408 309.852, 576.925 309.040 C 579.621 307.597, 590 295.216, 590 293.443 C 590 290.554, 586.169 292.112, 581.808 296.775 M 503.422 294.418 C 499.416 296.163, 493 301.817, 493 303.604 C 493 305.568, 493.496 305.423, 499.849 301.598 C 502.957 299.727, 506.817 297.589, 508.426 296.848 C 515.133 293.758, 510.313 291.418, 503.422 294.418 M 216.332 295.578 C 215.501 297.744, 217.561 299.500, 223.787 301.934 C 229.971 304.351, 232 304.521, 232 302.624 C 232 301.466, 219.510 294, 217.572 294 C 217.223 294, 216.665 294.710, 216.332 295.578 M 327.440 299.145 C 324.448 301.975, 322 304.914, 322 305.676 C 322 308.173, 325.129 308.336, 329.770 306.081 L 334.328 303.867 337.233 306.014 C 341.068 308.850, 343 307.993, 343 303.454 C 343 299.269, 338.551 294, 335.017 294 C 333.816 294, 330.497 296.254, 327.440 299.145 M 82.325 311.071 C 68.571 325.981, 64.989 331, 68.103 331 C 69.725 331, 97.775 303.255, 99.444 300 C 100.895 297.170, 100.482 295, 98.491 295 C 97.753 295, 90.478 302.232, 82.325 311.071 M 543.405 299.836 C 536.817 304.117, 528.587 312.523, 529.515 314.025 C 530.558 315.712, 532.085 315.114, 536.861 311.149 C 539.413 309.030, 544.087 305.592, 547.250 303.507 C 550.828 301.149, 553 299.015, 553 297.858 C 553 294.966, 549.927 295.599, 543.405 299.836 M 169.973 304.695 C 163.353 309.231, 147.826 322.391, 144.107 326.615 C 139.863 331.437, 139.198 334.222, 142.155 334.791 C 143.869 335.121, 159.683 324.772, 168.902 317.288 C 171.872 314.876, 174.843 313.110, 175.504 313.363 C 176.164 313.616, 182.105 315.438, 188.705 317.412 C 201.069 321.108, 206.381 321.811, 207.559 319.904 C 208.557 318.290, 206.498 316.767, 196.500 311.725 C 177.967 302.378, 174.639 301.496, 169.973 304.695 M 812.991 316.184 C 811.165 322.886, 808.417 330.857, 806.883 333.898 C 803.803 340.003, 803.879 341.303, 807.145 338.411 C 809.928 335.946, 814.403 326.129, 816.975 316.846 C 819.344 308.300, 819.571 304, 817.655 304 C 816.783 304, 815.141 308.289, 812.991 316.184 M 848.881 313.250 C 844.606 321.740, 840.198 328, 838.494 328 C 837.072 328, 832 335.683, 832 337.838 C 832 340.400, 835.243 338.714, 840.580 333.377 C 849.172 324.785, 856.958 311.938, 855.645 308.518 C 854.448 305.399, 851.957 307.142, 848.881 313.250 M 828.523 318.859 C 823.245 327.017, 821.436 330.769, 822.342 331.675 C 823.553 332.886, 827.818 327.875, 831.436 320.989 C 833.396 317.259, 835 313.711, 835 313.104 C 835 310.407, 832.626 312.516, 828.523 318.859 M 92.575 327.346 C 83.748 335.762, 78.919 341.059, 79.385 341.814 C 79.884 342.621, 80.689 342.702, 81.883 342.063 C 84.330 340.753, 107.077 320.336, 108.750 317.947 C 110.195 315.883, 109.680 313.977, 107.691 314.034 C 107.036 314.053, 100.234 320.044, 92.575 327.346 M 468.764 325.250 C 461.923 334.238, 456.029 347.944, 452.958 362 C 450.625 372.684, 449.156 394.640, 450.844 393.596 C 451.480 393.203, 452 391.615, 452 390.066 C 452 384.789, 456.190 362.522, 458.693 354.500 C 460.066 350.100, 464.072 341.275, 467.595 334.889 C 471.118 328.502, 474 322.990, 474 322.639 C 474 320.861, 470.945 322.384, 468.764 325.250 M 737.182 328.750 C 733.741 334.151, 730.251 343.892, 729.318 350.699 L 728.685 355.313 731.915 354.667 L 735.144 354.021 734.987 359.261 C 734.762 366.751, 734.890 368, 735.881 368 C 736.366 368, 737.293 365.863, 737.942 363.250 C 738.590 360.637, 740.219 356.083, 741.560 353.129 C 745.456 344.552, 744.196 341.264, 738.455 345.029 C 736.899 346.051, 735.286 346.677, 734.871 346.421 C 734.457 346.164, 736.341 341.193, 739.059 335.374 C 741.777 329.554, 744 324.614, 744 324.396 C 744 324.178, 743.147 324, 742.104 324 C 740.934 324, 739.050 325.818, 737.182 328.750 M 500.494 330.750 C 496.199 335, 492.002 344.678, 492.001 350.333 C 492 356.093, 493.696 356.240, 495.632 350.648 C 496.345 348.591, 499.419 343.373, 502.464 339.052 C 505.509 334.731, 508 330.476, 508 329.598 C 508 327.020, 503.577 327.699, 500.494 330.750 M 277.502 336.576 C 273.292 338.770, 271.373 340.685, 269.957 344.104 C 268.077 348.643, 269.523 348.694, 274.334 344.260 C 276.740 342.042, 279.700 339.913, 280.911 339.528 C 282.190 339.122, 282.985 338.166, 282.807 337.247 C 282.366 334.977, 280.920 334.794, 277.502 336.576 M 506.005 346.156 C 502.023 350.516, 499.794 356.608, 500.184 362.068 C 500.580 367.620, 501.868 367.077, 504.672 360.178 C 505.867 357.239, 507.971 353.131, 509.348 351.051 C 510.724 348.971, 511.997 346.437, 512.175 345.421 C 512.740 342.207, 509.229 342.626, 506.005 346.156 M 430.805 356.252 C 415.803 372.624, 411 378.310, 411 379.700 C 411 381.502, 412.431 381.331, 417.040 378.980 C 423.460 375.704, 421.919 378.939, 414.445 384.427 C 409.600 387.985, 406.339 391.547, 401.945 398.082 C 398.675 402.945, 396 407.166, 396 407.462 C 396 409.380, 398.787 406.971, 404.591 400.038 C 408.256 395.659, 414.593 389.337, 418.673 385.988 C 426.517 379.550, 429.990 375.004, 429.996 371.168 L 430 368.837 426.447 371.033 C 421.154 374.304, 421.027 372.571, 426.168 367.227 C 432.582 360.559, 442 349.149, 442 348.046 C 442 345.049, 439.171 347.122, 430.805 356.252 M 596.406 357.116 C 596.949 363.452, 596.556 367.104, 594.068 378.840 C 592.424 386.600, 590.449 394.198, 589.680 395.724 C 588.911 397.251, 587.287 401.824, 586.071 405.887 C 583.052 415.970, 565.221 452.199, 559.858 459.145 C 538.234 487.153, 526.321 499.328, 515.396 504.582 C 511.353 506.527, 507.870 508.429, 507.655 508.809 C 507.056 509.871, 509.873 537.816, 511.003 542.012 L 512.002 545.721 521.751 545.286 C 529.516 544.940, 534.043 544.047, 544 540.900 C 560.940 535.546, 573 530.914, 573 529.761 C 573 529.237, 571.026 525.139, 568.612 520.654 C 564.238 512.524, 552 481.714, 552 478.829 C 552 477.994, 552.949 476.453, 554.108 475.405 C 561.449 468.772, 586.262 423.615, 591.690 407.011 C 592.857 403.442, 594.487 400.096, 595.311 399.575 C 596.249 398.984, 598.625 398.980, 601.655 399.565 C 605.638 400.334, 606.559 400.916, 606.831 402.838 C 607.095 404.702, 607.614 405.063, 609.389 404.617 C 613.341 403.625, 619 400.997, 619 400.153 C 619 398.349, 617.606 398.152, 614.865 399.570 C 612.106 400.997, 611.936 400.953, 610.832 398.530 C 609.807 396.280, 609.083 396, 604.308 396 C 600.399 396, 598.777 395.582, 598.347 394.463 C 598.023 393.618, 598.298 387.205, 598.959 380.213 C 600.235 366.706, 599.296 352.827, 596.959 350.632 C 596.021 349.752, 595.898 351.192, 596.406 357.116 M 233.500 355.357 C 228.787 356.905, 222.137 360.242, 216.522 363.877 C 209.322 368.539, 209.639 369.607, 218.513 370.591 C 221.806 370.956, 225.881 372.083, 227.569 373.097 C 230.095 374.613, 231.288 374.759, 234.319 373.922 C 238.629 372.732, 238.736 372.435, 235.750 369.944 C 234.201 368.651, 231.883 368.056, 228.309 368.033 C 222.004 367.993, 221.018 366.835, 224.922 364.055 C 229.102 361.079, 235.536 359, 240.567 359 C 247.531 359, 247.809 355.379, 240.914 354.485 C 239.036 354.242, 235.700 354.634, 233.500 355.357 M 742.046 364.625 C 736.760 375.872, 735.739 379.513, 735.512 387.931 C 735.298 395.842, 735.112 396.499, 732.483 398.595 C 729.545 400.938, 723.576 402.944, 718.500 403.293 C 715.934 403.470, 715.534 403.174, 715.738 401.250 C 715.869 400.012, 715.869 399.006, 715.738 399.013 C 715.607 399.020, 712.647 399.920, 709.161 401.013 C 700.871 403.612, 696.398 403.631, 695.729 401.071 C 695.231 399.167, 695.127 399.167, 687.862 401.054 C 683.813 402.105, 679.698 402.973, 678.719 402.983 C 676.114 403.008, 675.420 400.154, 677.625 398.484 C 679.445 397.105, 679.442 397.063, 677.500 397.043 C 676.400 397.031, 673.291 397.692, 670.591 398.511 C 663.872 400.549, 661.267 400.417, 660.500 398 C 659.667 395.375, 656.238 395.412, 649.955 398.115 C 644.378 400.514, 641.886 400.152, 642.694 397.061 C 643.535 393.847, 641.599 394.588, 635.166 399.942 C 629.917 404.310, 629.092 405.500, 628.059 410.192 C 623.946 428.873, 622.158 434.878, 617.250 446.500 C 610.395 462.732, 608.467 466.568, 604.867 471.144 C 601.606 475.289, 601.414 477.271, 603.528 485 C 604.355 488.025, 605.704 497.006, 606.524 504.958 C 607.345 512.910, 608.391 519.791, 608.849 520.249 C 609.307 520.707, 613.016 520.172, 617.091 519.060 C 621.166 517.949, 628.030 516.369, 632.344 515.550 C 636.659 514.731, 642.608 512.953, 645.565 511.599 C 648.522 510.245, 654.442 508.179, 658.721 507.008 C 662.999 505.838, 669.273 503.332, 672.662 501.440 C 676.052 499.548, 680.004 498, 681.444 498 C 682.885 498, 686.669 497.122, 689.853 496.049 C 693.038 494.977, 702.361 492.958, 710.572 491.564 C 718.782 490.169, 730.900 487.421, 737.500 485.457 C 745.615 483.041, 750.633 482.055, 753 482.411 C 759.563 483.397, 759.535 483.502, 759.187 459.282 L 758.874 437.500 753.924 415.087 C 751.201 402.759, 748.456 392.049, 747.823 391.286 C 747.190 390.524, 745.508 390.035, 744.086 390.200 C 741.616 390.487, 741.507 390.292, 741.651 385.876 C 741.734 383.332, 742.972 377.417, 744.401 372.731 C 745.831 368.045, 747 363.263, 747 362.105 C 747 358.449, 744.305 359.820, 742.046 364.625 M 517.678 363.971 C 514.335 367.944, 513.020 372.528, 512.302 382.709 C 511.911 388.258, 512.131 391.903, 512.983 393.959 C 514.434 397.462, 516.458 397.882, 518 395 C 519.434 392.320, 520.616 392.478, 523.625 395.750 L 526.154 398.500 525.538 395 C 525.199 393.075, 524.648 389.550, 524.313 387.166 C 523.705 382.834, 523.704 382.833, 520.210 383.488 L 516.715 384.144 517.331 380.322 C 517.670 378.220, 518.943 373.457, 520.160 369.737 C 522.835 361.563, 521.775 359.101, 517.678 363.971 M 578.634 367.078 C 578.286 368.822, 578 373.289, 578 377.003 C 578 383.296, 576.170 390.159, 574.161 391.400 C 573.683 391.696, 572.696 390.714, 571.967 389.219 L 570.641 386.500 569.895 391 C 568.638 398.577, 568.832 403, 570.422 403 C 571.204 403, 573.452 401.122, 575.417 398.826 C 582.943 390.033, 586.325 378.273, 583.848 369.508 C 582.154 363.513, 579.587 362.317, 578.634 367.078 M 850 370.933 C 850 378.411, 856.429 420.203, 857.991 422.876 C 859.661 425.735, 859.125 407.438, 856.958 387.601 C 854.780 367.664, 853.937 364, 851.525 364 C 850.305 364, 850 365.387, 850 370.933 M 487.112 370.250 C 486.650 371.488, 485.963 374.607, 485.585 377.182 C 485.012 381.084, 485.326 382.709, 487.466 386.932 C 488.939 389.841, 490.715 392, 491.633 392 C 492.849 392, 493.052 391.459, 492.481 389.750 C 492.067 388.512, 491.523 383.113, 491.271 377.750 C 490.915 370.172, 490.494 368, 489.382 368 C 488.594 368, 487.573 369.012, 487.112 370.250 M 561.670 373.750 C 560.810 375.189, 558.715 393.048, 559.334 393.667 C 560.431 394.764, 564.980 383.637, 564.990 379.832 C 565.005 374.377, 563.234 371.133, 561.670 373.750 M 758.571 376.571 C 756.483 378.659, 757.848 381.153, 763.202 385.031 C 767.143 387.886, 771 388.931, 771 387.144 C 771 385.713, 764.065 377.105, 762.037 376.020 C 760.619 375.261, 759.742 375.400, 758.571 376.571 M 683 378.541 C 676.495 381.339, 674.671 381.514, 673 379.500 C 671.525 377.723, 667.539 377.568, 663.104 379.114 C 658.868 380.590, 659.709 382.500, 664.595 382.500 C 666.743 382.500, 669.483 383.063, 670.684 383.750 C 673.551 385.391, 676.816 385.329, 681.890 383.539 C 685.778 382.167, 686.107 382.198, 687.256 384.039 C 687.930 385.117, 689.450 386, 690.635 386 C 694.028 386, 705.637 382.143, 706.929 380.586 C 709.026 378.059, 706.294 377.829, 699.415 379.954 C 695.771 381.079, 692.656 382, 692.492 382 C 692.329 382, 691.725 380.650, 691.150 379 C 689.924 375.484, 690.084 375.493, 683 378.541 M 717.250 381.745 C 713.267 383.728, 713.082 385, 716.777 385 C 719.941 385, 724.323 382.331, 723.458 380.932 C 722.661 379.643, 721.049 379.855, 717.250 381.745 M 129.500 382.586 C 126.200 383.367, 117.200 384.410, 109.500 384.906 C 92.989 385.968, 86.628 387.806, 73.500 395.308 C 68.550 398.136, 61.125 401.816, 57 403.485 C 52.875 405.154, 46.350 408.203, 42.500 410.262 C 33.461 415.093, 10 432.587, 10 434.495 C 10 436.837, 14.422 437.349, 18.142 435.437 C 19.989 434.488, 23.975 432.037, 27 429.992 C 35.336 424.356, 48.115 417.684, 62.253 411.587 C 69.257 408.567, 78.097 404.280, 81.897 402.060 C 90.437 397.072, 98.123 395, 108.081 395 C 112.294 395, 121.087 394.053, 127.620 392.895 C 138.638 390.942, 140.625 390.874, 155 391.958 C 163.525 392.600, 174.215 394.010, 178.755 395.091 C 185.955 396.806, 187.870 396.909, 193.755 395.895 C 202.856 394.327, 205 393.413, 205 391.104 C 205 388.946, 204.106 388.673, 191.648 387.028 C 187.329 386.458, 183.394 385.743, 182.902 385.440 C 181.351 384.481, 148.792 381.025, 142 381.098 C 138.425 381.136, 132.800 381.806, 129.500 382.586 M 441.442 388.093 C 441.060 388.713, 440.347 396.483, 439.860 405.360 C 438.872 423.347, 436.975 437.976, 435.589 438.292 C 435.088 438.406, 434.188 437.070, 433.589 435.322 C 431.671 429.725, 430.692 430.232, 431.394 436.458 C 432.317 444.634, 433.043 447.146, 434.369 446.749 C 436.280 446.177, 439.803 437.889, 441.488 430 C 443.468 420.726, 444.774 388.596, 443.210 387.630 C 442.620 387.265, 441.825 387.474, 441.442 388.093 M 502.383 396.625 C 499.973 402.395, 500.932 412.501, 504.462 418.525 C 507.875 424.349, 509.491 423.221, 507.393 416.479 C 506.307 412.989, 505.983 409.042, 506.309 403.279 C 506.663 397.042, 506.440 394.780, 505.388 393.907 C 504.270 392.979, 503.686 393.507, 502.383 396.625 M 324 397.911 C 324 400.927, 327.452 404.633, 332.870 407.431 C 336.012 409.054, 347.625 410.799, 358 411.206 L 365.500 411.500 365.500 408.528 C 365.500 405.122, 365.028 404.982, 346.718 402.971 C 340.543 402.293, 335.855 401.267, 334.869 400.378 C 333.070 398.754, 326.033 395, 324.789 395 C 324.355 395, 324 396.310, 324 397.911 M 407.854 404.853 C 403.809 409.173, 398.669 415.810, 396.432 419.603 C 390.875 429.024, 390.552 430.070, 392.996 430.709 C 395.656 431.405, 395.532 432.362, 392.141 437.320 C 389.253 441.541, 386 447.438, 386 448.450 C 386 450.433, 388.660 448.020, 393.385 441.750 C 396.391 437.762, 401.385 431.399, 404.484 427.609 C 411.025 419.610, 410.728 417.317, 403.686 421.444 C 395.269 426.377, 397.328 422.452, 411.775 406.025 C 417.369 399.665, 418.630 397, 416.045 397 C 415.584 397, 411.899 400.534, 407.854 404.853 M 271.143 400.750 C 269.445 403.955, 268.149 409.974, 269.039 410.524 C 270.326 411.320, 273.004 406.747, 273.677 402.606 C 274.304 398.739, 272.794 397.633, 271.143 400.750 M 234.188 410.747 C 228.938 417.391, 228.265 418.694, 229.467 419.896 C 230.634 421.063, 231.388 421.082, 233.975 420.010 C 240.930 417.129, 248.757 409.673, 242.862 411.544 C 240.611 412.258, 240.576 411.575, 242.536 405.250 C 243.970 400.624, 240.255 403.071, 234.188 410.747 M 253.185 405.303 C 250.442 408.223, 242.736 425.868, 243.422 427.657 C 244.211 429.714, 246.162 429.208, 249.962 425.959 C 253.133 423.249, 256 422.127, 256 423.595 C 256 423.922, 255.045 427.332, 253.879 431.173 C 252.340 436.239, 252.059 438.459, 252.854 439.254 C 254.341 440.741, 258.735 431.076, 260.232 423.027 C 261.637 415.473, 260.643 413.916, 256.121 416.588 C 254.438 417.582, 252.733 418.067, 252.332 417.665 C 251.931 417.264, 253.042 414.017, 254.801 410.449 C 256.561 406.881, 258 403.746, 258 403.481 C 258 402.168, 255.099 403.266, 253.185 405.303 M 304.688 406.646 C 302.237 409.097, 305.641 428.541, 308.728 429.726 C 310.825 430.530, 311.037 429.715, 309.845 425.444 C 309.239 423.275, 308.464 418.161, 308.122 414.080 C 307.551 407.266, 306.450 404.883, 304.688 406.646 M 424.148 410.879 C 421.912 416.075, 419.025 436.803, 419.009 447.768 C 419.003 452.184, 417.966 457.237, 415.500 464.864 C 411.804 476.297, 411.369 478.508, 413.014 477.491 C 414.546 476.544, 417.441 470.384, 420.372 461.833 C 422.455 455.754, 423.201 450.990, 423.975 438.833 C 424.560 429.632, 425.753 420.501, 426.958 416 C 429.352 407.057, 429.422 406, 427.623 406 C 426.866 406, 425.302 408.195, 424.148 410.879 M 560.673 406.750 C 560.429 407.163, 559.270 411.020, 558.098 415.322 C 555.230 425.846, 553.293 430.263, 551.764 429.760 C 551.069 429.531, 550.353 428.340, 550.173 427.114 C 549.993 425.888, 549.318 425.066, 548.673 425.287 C 547.178 425.799, 547.105 437.505, 548.587 438.987 C 552.855 443.255, 565.763 417.162, 563.616 408.607 C 562.984 406.086, 561.589 405.206, 560.673 406.750 M 296.331 413.579 C 295.998 414.447, 295.995 418.047, 296.325 421.579 C 296.655 425.110, 296.563 428, 296.120 428 C 295.315 428, 292.598 423.047, 291.595 419.750 C 291.302 418.788, 290.406 418, 289.602 418 C 288.245 418, 287.295 421.234, 285.707 431.274 C 285.013 435.658, 286.776 435.478, 288.109 431.029 C 288.773 428.813, 289.659 427, 290.077 427 C 290.495 427, 291.796 428.552, 292.968 430.448 C 295.171 434.012, 298.131 435.655, 300.128 434.421 C 301.264 433.719, 300.742 419.805, 299.375 414.357 C 298.695 411.650, 297.217 411.272, 296.331 413.579 M 609.062 419.250 C 606.922 426.502, 601.864 438, 600.813 438 C 600.263 438, 599.577 437.100, 599.290 436 C 598.355 432.424, 596.500 433.873, 593.655 440.404 C 592.046 444.099, 588.094 450.043, 584.316 454.454 C 580.713 458.659, 578.031 462.365, 578.356 462.689 C 579.505 463.839, 586.002 457.856, 590.598 451.415 C 593.776 446.962, 595.731 445.067, 596.747 445.457 C 598.718 446.213, 604.382 440.154, 607.550 433.902 C 609.857 429.348, 613 419.193, 613 416.290 C 613 413.258, 610.212 415.353, 609.062 419.250 M 275.364 423.750 C 271.819 429.941, 272.031 429.763, 270.569 427.764 C 269.011 425.633, 267.995 426.489, 268.015 429.917 C 268.036 433.392, 269.365 435.271, 271.502 434.848 C 274.602 434.236, 281.955 419, 279.151 419 C 278.564 419, 276.860 421.137, 275.364 423.750 M 211.686 424.967 C 208.513 425.975, 206 427.812, 206 429.122 C 206 430.307, 222.109 430.216, 224 429.021 C 228.134 426.406, 217.831 423.014, 211.686 424.967 M 770.399 433.545 C 769.478 437.215, 770.927 473.274, 772.041 474.417 C 773.750 476.172, 774.042 472.398, 773.771 452.056 C 773.573 437.166, 773.173 431.556, 772.287 431.262 C 771.620 431.040, 770.770 432.067, 770.399 433.545 M 183.250 435.464 C 180.235 436.868, 178 438.566, 178 439.454 C 178 441.352, 178.738 441.366, 185.856 439.599 C 188.960 438.828, 193.188 437.908, 195.250 437.553 C 197.410 437.182, 199 436.338, 199 435.562 C 199 432.196, 190.384 432.143, 183.250 435.464 M 217.473 439.024 C 210.766 441.151, 206.196 444.596, 207.865 446.265 C 209.475 447.875, 231.590 439.764, 230.481 437.970 C 229.557 436.475, 224.121 436.915, 217.473 439.024 M 504.530 447.134 C 503.026 449.407, 499.975 453.242, 497.751 455.654 C 495.527 458.067, 493.955 460.288, 494.257 460.590 C 495.093 461.426, 502.213 457.502, 504.702 454.834 C 506.847 452.535, 510 446.105, 510 444.032 C 510 441.635, 507.069 443.297, 504.530 447.134 M 231.447 446.907 C 226.976 450.201, 223 455.168, 223 457.460 C 223 458.594, 224.071 459, 227.067 459 C 230.680 459, 231.064 459.224, 230.500 461 C 229.520 464.088, 232.272 463.476, 234.812 460.040 C 238.031 455.686, 237.737 453.679, 234 454.500 C 229.867 455.408, 230.058 453.305, 234.500 449 C 240.314 443.365, 238.212 441.924, 231.447 446.907 M 165.690 447.097 C 157.926 448.924, 155.266 452, 161.451 452 C 167.030 452, 175 449.961, 175 448.534 C 175 447.439, 171.665 445.825, 170 446.114 C 169.725 446.162, 167.786 446.604, 165.690 447.097 M 294.146 448.169 C 292.684 452.102, 291.826 462.775, 292.917 463.449 C 294.631 464.508, 297.295 457.770, 297.400 452.112 C 297.508 446.274, 295.675 444.054, 294.146 448.169 M 407.563 450.134 C 404.430 457.965, 402.191 470.405, 404.364 467.917 C 405.015 467.170, 411 448.530, 411 447.248 C 411 444.619, 409.147 446.175, 407.563 450.134 M 547.203 450.137 C 543.573 456.822, 539.416 461.500, 536.837 461.804 C 534.915 462.030, 533.574 463.366, 531.569 467.051 C 528.928 471.903, 528.872 474, 531.382 474 C 533.467 474, 548.880 457.532, 550.562 453.505 C 553.198 447.197, 550.351 444.342, 547.203 450.137 M 192.207 449.670 C 190.396 450.562, 188.432 452.192, 187.843 453.293 C 186.846 455.156, 187.002 455.250, 190.083 454.633 C 194.214 453.807, 198.246 451.238, 197.750 449.749 C 197.152 447.955, 195.731 447.934, 192.207 449.670 M 392.669 452.250 C 389.064 457.068, 375.993 479.907, 376.045 481.298 C 376.175 484.798, 394.714 458.485, 397.568 450.750 C 398.692 447.704, 395.292 448.745, 392.669 452.250 M 131.203 454.510 C 125.862 456.831, 119 462.202, 119 464.063 C 119 465.010, 119.675 466.045, 120.500 466.362 C 122.624 467.177, 122.369 468.993, 119.546 473.147 C 118.196 475.133, 117.332 476.999, 117.626 477.293 C 118.416 478.083, 133.828 465.717, 133.921 464.219 C 133.964 463.514, 133.325 462.678, 132.500 462.362 C 129.878 461.355, 130.853 460.292, 136.500 458 C 142.988 455.367, 143.830 452.981, 138.250 453.039 C 136.188 453.061, 133.017 453.723, 131.203 454.510 M 248.552 456.121 C 246.086 459.052, 243 465.166, 243 467.122 C 243 469.411, 245.288 467.467, 248.963 462.055 C 252.852 456.328, 254.001 453, 252.089 453 C 251.588 453, 249.996 454.404, 248.552 456.121 M 258.389 463.655 C 257.013 466.766, 255.619 470.703, 255.291 472.405 L 254.695 475.500 256.992 473.500 C 259.339 471.457, 264 462.126, 264 459.471 C 264 458.662, 263.300 458, 262.445 458 C 261.516 458, 259.882 460.278, 258.389 463.655 M 150.216 460.995 C 147.056 462.936, 145.209 465.542, 146.253 466.586 C 147.004 467.337, 156.300 461.640, 156.196 460.493 C 156.035 458.725, 153.577 458.932, 150.216 460.995 M 276.582 466.753 C 273.608 475.685, 273.240 478.876, 275.390 477.091 C 277.163 475.620, 280.751 467.272, 281.018 464 C 281.649 456.252, 279.671 457.480, 276.582 466.753 M 161.500 466.427 C 157.591 468.778, 152.837 475, 154.949 475 C 157.174 475, 168.031 467.449, 167.771 466.083 C 167.332 463.785, 165.747 463.872, 161.500 466.427 M 304.641 467.209 C 304.303 468.469, 304.021 470.915, 304.014 472.645 C 304.006 474.374, 303.068 478.805, 301.930 482.491 C 300.791 486.177, 300.097 489.430, 300.387 489.720 C 301.580 490.913, 304.036 488.849, 305.996 485.008 C 307.679 481.708, 308.026 479.443, 307.791 473.289 C 307.502 465.713, 305.880 462.583, 304.641 467.209 M 425.615 469.250 C 422.450 474.699, 419.588 481.921, 420.308 482.642 C 421.473 483.807, 423.179 481.599, 427.027 473.947 C 431.527 464.997, 431.526 465, 429.542 465 C 428.740 465, 426.973 466.913, 425.615 469.250 M 568.311 474.529 C 569.063 479.165, 570.645 481.088, 571.619 478.550 C 572.484 476.296, 570.946 471.812, 569.097 471.198 C 567.991 470.830, 567.825 471.535, 568.311 474.529 M 485 475.886 C 480.933 479.393, 480.500 480.191, 480.500 484.177 C 480.500 488.757, 483.325 494.535, 485.044 493.473 C 485.570 493.148, 486 490.738, 486 488.117 C 486 484.289, 486.678 482.398, 489.450 478.500 C 494.786 470.994, 492.340 469.557, 485 475.886 M 286.278 476.261 C 284.031 479.194, 278 490.962, 278 492.412 C 278 494.853, 279.559 494.312, 282.459 490.866 C 287.602 484.755, 290.461 477.021, 288.113 475.570 C 287.626 475.269, 286.800 475.580, 286.278 476.261 M 386.429 480.250 C 383.155 484.122, 377.656 495.469, 378.226 497.179 C 378.555 498.166, 391 478.948, 391 477.453 C 391 476.080, 388.836 477.404, 386.429 480.250 M 577 492.358 C 577 495.439, 587.885 523, 589.102 523 C 589.617 523, 589.825 521.987, 589.565 520.750 C 589.305 519.513, 588.614 516.082, 588.030 513.127 C 586.918 507.500, 581.654 493.493, 579.822 491.285 C 578.180 489.306, 577 489.755, 577 492.358 M 136.877 493.299 C 134.193 495.342, 131.008 501.314, 131.004 504.309 C 130.999 508.115, 132.385 507.054, 137.043 499.685 C 141.408 492.782, 141.333 489.907, 136.877 493.299 M 386.128 498.750 C 382.832 505.213, 372.364 542.697, 373.529 543.863 C 374.506 544.839, 385.129 533.516, 389.915 526.398 C 394.750 519.207, 401.615 504.282, 400.569 503.236 C 399.764 502.431, 399.766 502.427, 394.201 513.560 C 388.940 524.086, 380.465 535.911, 378.143 535.967 C 377.244 535.989, 377.025 535.409, 377.493 534.250 C 378.984 530.559, 390 496.803, 390 495.925 C 390 493.749, 387.895 495.285, 386.128 498.750 M 288.557 498.223 C 286.855 500.652, 286.433 506, 287.943 506 C 289.571 506, 292 501.676, 292 498.777 C 292 495.427, 290.666 495.212, 288.557 498.223 M 116.677 499.466 C 114.465 501.678, 112.415 506.585, 111.540 511.761 C 110.941 515.309, 111.115 515.902, 112.927 516.477 C 114.391 516.941, 115 517.979, 115 520.008 C 115 521.589, 115.399 523.128, 115.886 523.430 C 117.953 524.707, 118.859 512.259, 116.846 510.246 C 115.975 509.375, 116.118 507.981, 117.429 504.546 C 119.495 499.137, 119.174 496.969, 116.677 499.466 M 218.273 502.706 C 215.645 506.717, 215.990 519.344, 218.654 516.679 C 219.277 516.057, 221.886 503.892, 221.963 501.250 C 222.026 499.122, 220.132 499.869, 218.273 502.706 M 174.607 504.179 C 169.149 531.327, 165.016 540.295, 150.495 556.500 C 139.870 568.357, 140.105 567.777, 141.186 579.500 C 141.694 585, 142.555 589.949, 143.101 590.497 C 143.647 591.045, 149.720 591.549, 156.597 591.618 C 166.325 591.714, 169.994 592.144, 173.119 593.554 C 177.047 595.325, 177.322 595.317, 185.408 593.196 C 189.957 592.003, 197.913 589.497, 203.089 587.627 L 212.500 584.226 213.692 567.863 C 215.129 548.131, 214.519 535.376, 212.001 532.500 C 209.424 529.557, 208.317 527.012, 207.520 522.199 C 206.756 517.591, 204.755 516.927, 204.142 521.078 C 203.581 524.875, 205.996 537.122, 208.097 541.136 C 211.046 546.770, 210.644 548.788, 206.417 549.582 C 203.583 550.113, 202.202 549.786, 199.810 548.018 C 196.982 545.927, 196.402 545.858, 190.860 546.948 C 183.982 548.301, 180.535 547.642, 181.502 545.160 C 182.699 542.086, 182.511 541.786, 178.500 540.359 C 176.300 539.576, 173.648 538.086, 172.607 537.047 C 170.750 535.194, 170.764 535.001, 173.322 526.829 C 177.128 514.676, 178.192 509.752, 177.826 505.997 C 177.442 502.061, 175.279 500.840, 174.607 504.179 M 268.507 506.988 C 268.138 507.585, 268.140 509.870, 268.511 512.065 L 269.185 516.057 264.884 515.779 C 261.064 515.531, 260.434 515.805, 259.247 518.229 C 257.456 521.887, 256.399 531, 257.765 531 C 258.339 531, 259.846 528.497, 261.114 525.438 C 263.082 520.690, 263.718 519.972, 265.460 520.532 C 273.676 523.170, 274.982 521.965, 273.086 513.491 C 271.848 507.960, 269.749 504.979, 268.507 506.988 M 71.490 509.453 C 65.644 511.945, 50.654 529.090, 52.640 531.013 C 53.113 531.471, 54.816 531.993, 56.425 532.173 L 59.350 532.500 52.675 540.343 C 49.004 544.657, 46 548.594, 46 549.093 C 46 551.294, 48.348 549.466, 55.149 541.971 C 66.341 529.637, 68.272 525.652, 62.524 526.751 C 58.535 527.513, 59.405 524.825, 64.750 519.871 C 67.362 517.450, 70.646 514.576, 72.047 513.484 C 77.095 509.551, 76.771 507.202, 71.490 509.453 M 479.331 510.579 C 477.547 515.229, 481.708 538.166, 486.080 547.782 C 488.948 554.089, 489.546 551.718, 487.614 541.704 C 486.743 537.192, 485.575 529.450, 485.017 524.500 C 483.469 510.752, 483.063 509, 481.423 509 C 480.606 509, 479.665 509.710, 479.331 510.579 M 162.368 516.750 C 160.756 521.711, 160.158 522.500, 158.010 522.500 C 155.402 522.500, 154.122 524.967, 152.564 533 C 151.894 536.450, 151.911 536.470, 153.692 534.443 C 154.687 533.311, 156.694 531.878, 158.154 531.258 C 160.998 530.050, 164.393 522.651, 165.618 514.990 C 166.579 508.978, 164.532 510.086, 162.368 516.750 M 133.604 516.539 C 129.613 520.530, 125.962 532.846, 129.077 531.808 C 130.553 531.316, 136.201 518.285, 135.813 516.269 C 135.536 514.832, 135.279 514.863, 133.604 516.539 M 283.030 520.250 C 279.924 525.665, 279.298 528, 280.952 528 C 282.440 528, 288 519.378, 288 517.070 C 288 513.585, 286.187 514.745, 283.030 520.250 M 79.228 535.261 C 77.925 536.877, 75.593 550.926, 76.480 551.814 C 77.455 552.788, 79.848 549.207, 81.004 545.046 C 82.917 538.159, 81.810 532.058, 79.228 535.261 M 53.383 555.526 C 50.268 559.665, 48.016 563.350, 48.380 563.714 C 49.348 564.681, 57.337 556.525, 59.914 551.939 C 61.744 548.683, 61.861 548, 60.588 548 C 59.741 548, 56.499 551.387, 53.383 555.526 M 111.559 554.198 C 110.257 557.295, 110.440 560, 111.952 560 C 113.299 560, 115.834 556.540, 116.530 553.750 C 117.120 551.388, 116.913 551, 115.060 551 C 113.581 551, 112.481 552.005, 111.559 554.198 M 277 557.446 C 277 559.275, 283.392 570.251, 285.454 571.961 C 286.739 573.029, 287 572.975, 287 571.643 C 287 569.361, 284.008 561.991, 281.766 558.750 C 279.732 555.809, 277 555.062, 277 557.446 M 223.638 561.250 C 222.390 568.185, 220.858 583.191, 221.348 583.681 C 222.706 585.039, 227.689 562.239, 226.635 559.492 C 225.675 556.989, 224.255 557.821, 223.638 561.250 M 119 568.881 C 119 571.291, 123.811 584.184, 125.202 585.500 C 127.030 587.231, 125.262 576.173, 122.944 571.385 C 120.718 566.787, 119 565.696, 119 568.881 M 63.500 577.096 C 60.200 580.466, 56.535 584.093, 55.355 585.155 C 52.993 587.282, 51.725 590.712, 53.008 591.505 C 55.659 593.143, 70.639 576.351, 69.851 572.626 C 69.592 571.405, 67.920 572.583, 63.500 577.096 M 108.439 578.300 C 107.758 580.073, 112.101 590.685, 115.787 596.254 C 119.624 602.052, 119.346 606.399, 114.692 613.409 C 112.622 616.526, 111.197 619.509, 111.524 620.038 C 112.533 621.671, 124.806 620.527, 126.712 618.622 C 127.016 618.318, 124.989 612.091, 122.207 604.784 C 112.507 579.306, 109.944 574.376, 108.439 578.300 M 39.875 583 C 36.388 587.650, 34.696 591.029, 35.467 591.800 C 37.415 593.749, 43.371 585.638, 42.824 581.781 C 42.518 579.630, 42.351 579.699, 39.875 583"/>
</svg>