<?xml version="1.0" encoding="utf-8"?>
<svg xmlns="http://www.w3.org/2000/svg" width="1002" height="886" viewBox="0 0 1002 886">
  <path fill-rule="evenodd" d="M 227 2.028 C 205.888 3.341, 195.142 5.239, 172 11.740 C 150.252 17.850, 135.540 24.317, 113.426 37.486 C 95.820 47.970, 86.450 55.379, 69.883 71.912 C 40.922 100.815, 24.186 127.761, 11.622 165.718 C 5.950 182.855, 4.684 189.252, 2.462 212 C 1.001 226.967, 0.908 232.539, 1.822 250.500 C 2.929 272.269, 3.400 274.971, 10.088 298 C 13.417 309.460, 20.212 330.348, 24.296 341.671 C 29.194 355.254, 48.462 385.601, 63.842 403.957 C 65.936 406.455, 70.728 412.550, 74.490 417.500 C 82.296 427.769, 87.950 434.335, 103.485 451.171 C 109.527 457.718, 114.935 463.945, 115.504 465.008 C 117.459 468.661, 168.513 520.319, 182.500 532.796 C 199.912 548.329, 227.265 574.375, 253.469 600.374 C 279.578 626.279, 292.357 637.936, 303.287 645.816 C 305.054 647.090, 313.475 654.755, 322 662.849 C 330.525 670.942, 344.089 683.050, 352.142 689.755 C 360.195 696.460, 369.923 704.770, 373.761 708.223 C 377.599 711.675, 385.778 718.991, 391.937 724.479 C 408.478 739.220, 418.017 751.942, 422.380 765.079 C 423.735 769.160, 425.535 774.300, 426.378 776.500 C 427.222 778.700, 427.932 781.983, 427.956 783.797 C 427.992 786.508, 427.430 787.395, 424.790 788.797 C 418.252 792.265, 410.006 801.145, 406.444 808.550 C 401.170 819.514, 399.447 828.618, 400.784 838.454 C 402.306 849.659, 404.443 855.551, 409.895 863.577 C 415.223 871.418, 424.684 879.225, 431.260 881.205 C 433.638 881.921, 440.552 882.481, 447 882.481 C 457.305 882.480, 459.124 882.202, 464.500 879.805 C 467.800 878.334, 471.436 876.870, 472.580 876.551 C 475.487 875.743, 486.087 865.406, 489.552 860 C 494.643 852.059, 497.068 842.820, 497.165 831 C 497.242 821.619, 496.922 819.605, 494.159 812.101 C 490.539 802.271, 487.419 797.461, 480.810 791.519 C 478.164 789.140, 476 786.428, 476 785.492 C 476 779.104, 467.626 753.895, 462.383 744.500 C 454.046 729.559, 429.263 700.485, 415.500 689.501 C 412.750 687.306, 404.200 679.585, 396.500 672.342 C 388.800 665.100, 379.688 657.112, 376.250 654.590 C 372.813 652.068, 370 649.580, 370 649.061 C 370 648.542, 367.188 645.989, 363.750 643.389 C 360.313 640.789, 354.110 635.475, 349.967 631.581 C 342.445 624.510, 329.281 613.087, 317 602.972 C 313.425 600.027, 305.622 592.971, 299.659 587.290 C 293.696 581.610, 287.179 575.734, 285.177 574.231 C 283.174 572.729, 278.557 568.575, 274.918 565 C 271.278 561.425, 266.545 556.849, 264.400 554.832 C 262.255 552.814, 259.825 550.425, 259 549.523 C 257.462 547.841, 252.638 543.201, 228.845 520.518 C 221.334 513.358, 206.090 498.050, 194.969 486.500 C 183.847 474.950, 168.710 459.264, 161.331 451.642 C 153.952 444.020, 145.735 434.570, 143.071 430.642 C 140.407 426.714, 135.214 420.125, 131.530 416 C 127.847 411.875, 122.535 405.125, 119.726 401 C 116.917 396.875, 112.542 391.250, 110.003 388.500 C 107.465 385.750, 103.855 381.475, 101.982 379 C 100.109 376.525, 96.825 372.475, 94.684 370 C 92.543 367.525, 89.708 363.367, 88.384 360.761 C 87.060 358.154, 83.395 351.994, 80.238 347.072 C 65.758 324.488, 60.130 312.896, 55.686 296.500 C 51.569 281.309, 50.528 275.451, 48.577 256.500 C 47.343 244.510, 47.331 239.916, 48.488 224.500 C 49.232 214.600, 50.093 205.600, 50.402 204.500 C 50.711 203.400, 52.103 197.645, 53.495 191.712 C 56.780 177.707, 60.403 167.394, 67.448 152 C 74.153 137.346, 78.933 129.308, 88.439 116.702 C 116.936 78.909, 155.248 53.869, 199.500 44.116 C 204.450 43.025, 214.896 41.565, 222.714 40.873 C 235.323 39.755, 238.656 39.817, 252.214 41.416 C 260.621 42.408, 271.550 44.131, 276.500 45.246 C 313.907 53.670, 351.516 76.809, 377.085 107.133 C 386.531 118.335, 398 134.636, 398 136.860 C 398 137.578, 395.922 138, 392.393 138 C 377.840 138, 357.159 144.361, 354.787 149.567 C 353.146 153.169, 355.451 155.061, 367.406 159.926 C 389.631 168.971, 415.797 187.697, 444.234 214.909 C 456.742 226.878, 478.943 256.167, 486.014 270.028 C 488.172 274.257, 490.483 275.917, 492.042 274.358 C 493.428 272.972, 489.835 241.900, 488.011 239.500 C 487.593 238.950, 486.997 237.150, 486.686 235.500 C 484.841 225.701, 480.629 211.108, 477.948 205.223 C 476.877 202.871, 476 200.444, 476 199.831 C 476 196.665, 467.811 177.724, 457.357 156.712 C 453.311 148.579, 450 141.321, 450 140.584 C 450 139.848, 449.309 138.671, 448.464 137.970 C 447.618 137.268, 445.277 133.726, 443.261 130.097 C 438.307 121.182, 417.113 90.107, 410.285 81.749 C 388.094 54.580, 361.861 32.511, 337.500 20.517 C 330.350 16.997, 322.293 13.623, 319.595 13.019 C 316.897 12.416, 312.622 11.087, 310.095 10.066 C 302.930 7.173, 283.389 4.128, 261.500 2.495 C 250.500 1.674, 240.825 1.072, 240 1.157 C 239.175 1.242, 233.325 1.634, 227 2.028 M 757.925 2.397 C 757.691 2.626, 751.650 3.057, 744.500 3.355 C 731.136 3.913, 710.203 6.329, 704 8.029 C 702.075 8.557, 699.375 8.992, 698 8.997 C 694.697 9.007, 671.482 17.708, 662 22.489 C 650.995 28.039, 633.350 40.395, 620.399 51.619 C 613.011 58.023, 596.115 76.823, 587.013 88.767 C 573.948 105.913, 554.397 137.313, 545.997 154.640 C 541.502 163.913, 537.153 172.850, 536.333 174.500 C 534.277 178.637, 527.457 195.734, 526.161 200 C 525.576 201.925, 523.911 206.875, 522.460 211 C 519.643 219.012, 519.300 220.154, 516 232.500 C 514.824 236.900, 513.441 242.075, 512.926 244 C 511.285 250.138, 508.989 274.389, 509.957 275.357 C 511.677 277.077, 513.742 275.148, 517.898 267.940 C 526.976 252.193, 545.524 227.794, 556.663 216.946 C 584.273 190.056, 613.435 169.156, 635.565 160.397 C 646.631 156.017, 648.842 154.142, 647.197 150.533 C 644.767 145.199, 624.671 139.011, 609.750 139.003 C 606.239 139.001, 604 138.572, 604 137.901 C 604 133.383, 623.842 107.885, 638.406 93.688 C 662.807 69.901, 701.540 49.848, 732.258 45.097 C 757.428 41.205, 761.778 40.817, 773.160 41.455 C 787.010 42.230, 793.919 43.277, 809.686 46.989 C 823.036 50.132, 843.094 58.046, 852.500 63.881 C 855.800 65.928, 859.252 67.890, 860.171 68.240 C 863.635 69.560, 882.841 84.777, 891.389 92.975 C 900.798 101.998, 918.496 123.182, 921.505 129.024 C 922.490 130.936, 924.383 133.930, 925.712 135.678 C 929.358 140.475, 940.289 165.065, 944.304 177.500 C 955.163 211.138, 957.011 248.982, 949.558 285.064 C 947.015 297.376, 940.309 315.891, 935.100 324.982 C 932.416 329.667, 928.984 335.975, 927.474 339 C 925.963 342.025, 922.817 347.200, 920.483 350.500 C 918.149 353.800, 915.022 358.922, 913.535 361.883 C 912.048 364.843, 908.940 369.343, 906.628 371.883 C 904.316 374.422, 901.181 378.187, 899.662 380.250 C 898.142 382.312, 894.624 386.587, 891.843 389.750 C 889.063 392.912, 883.901 399.628, 880.373 404.674 C 876.844 409.719, 873.629 413.994, 873.229 414.174 C 872.092 414.683, 863.893 424.820, 858.811 432 C 856.280 435.575, 849.741 443, 844.280 448.500 C 838.818 454, 831.175 462.100, 827.294 466.500 C 817.775 477.294, 774.861 520.309, 756.969 536.991 C 749.011 544.411, 742.197 551.220, 741.826 552.122 C 741.456 553.024, 737.323 556.853, 732.642 560.631 C 727.961 564.409, 724.102 568.012, 724.066 568.637 C 724.030 569.263, 720.737 572.399, 716.750 575.607 C 712.763 578.815, 705.225 585.534, 700 590.538 C 694.775 595.543, 687.953 601.677, 684.839 604.171 C 681.726 606.665, 676.101 611.446, 672.339 614.797 C 668.578 618.148, 660.100 625.469, 653.500 631.067 C 646.900 636.665, 638.575 644.022, 635 647.417 C 631.425 650.811, 627.229 654.388, 625.675 655.367 C 624.121 656.345, 618.680 661.050, 613.584 665.822 C 602.166 676.517, 590.859 686.777, 581 695.388 C 563.599 710.586, 536.768 745.806, 533.682 757.500 C 533.391 758.600, 531.795 764, 530.135 769.500 C 528.475 775, 526.823 781.577, 526.465 784.116 C 525.918 787.991, 525.096 789.332, 521.355 792.459 C 515.592 797.276, 510.800 804.621, 507.299 814 C 504.805 820.683, 504.516 822.699, 504.646 832.500 C 504.840 847.166, 507.919 855.760, 516.899 866.706 C 527.676 879.841, 548.373 886.672, 566.234 882.988 C 574.644 881.253, 579.624 878.202, 587.265 870.102 C 595 861.903, 597.369 857.255, 600.101 844.919 C 601.979 836.443, 602.068 834.672, 600.987 827.225 C 598.819 812.295, 587.992 794.826, 578.002 790.139 C 575.062 788.761, 574.451 787.911, 574.195 784.847 C 574.028 782.839, 574.636 779.465, 575.547 777.348 C 576.458 775.232, 578.491 769.754, 580.064 765.176 C 581.742 760.291, 584.231 755.362, 586.087 753.248 C 587.827 751.267, 589.837 748.242, 590.553 746.527 C 593.420 739.666, 602.463 730.954, 639.891 699 C 644.722 694.875, 652.686 688.175, 657.588 684.111 C 662.489 680.046, 669.650 673.676, 673.500 669.953 C 682.595 661.159, 695.888 649.164, 705.583 641 C 722.756 626.540, 730.263 619.608, 749.986 600 C 774.039 576.087, 789.880 560.988, 807.690 545 C 818.198 535.566, 828.326 525.859, 850.220 504.236 C 871.852 482.870, 878.588 475.812, 885.279 467.500 C 889.706 462, 897.192 453.400, 901.914 448.388 C 914.075 435.483, 921.954 426.424, 926.974 419.579 C 929.362 416.323, 934.640 409.406, 938.702 404.208 C 942.765 399.011, 947.950 392, 950.225 388.629 C 952.499 385.258, 956.372 380.025, 958.832 377 C 961.292 373.975, 964.426 369.025, 965.796 366 C 967.166 362.975, 969.768 358.025, 971.579 355 C 975.758 348.016, 984.327 325.718, 987.659 313.154 C 989.067 307.844, 990.629 302.724, 991.131 301.776 C 993.024 298.197, 998.011 276.862, 999.173 267.374 C 1000.901 253.263, 1000.552 218.303, 998.525 202.500 C 996.455 186.353, 994.264 177.563, 987.833 159.598 C 975.273 124.516, 957.190 96.797, 929.519 70.210 C 914.444 55.726, 900.613 45.386, 882.583 35.123 C 852.234 17.847, 822.718 8.277, 788.500 4.619 C 771.235 2.773, 758.489 1.847, 757.925 2.397 M 225.500 20.590 C 192.580 25.347, 175.286 30.340, 153 41.521 C 136.002 50.049, 111.691 67.297, 101.138 78.316 C 96.254 83.416, 97.650 84.977, 103.034 80.435 C 111.793 73.046, 137.729 56.745, 151.500 49.974 C 185.016 33.495, 224.716 25.126, 255.750 27.995 C 282.004 30.423, 301.234 35.591, 322.872 46.033 C 329.676 49.317, 338.827 54.515, 343.207 57.584 C 352.077 63.800, 354.950 63.953, 348 57.839 C 331.967 43.733, 315.690 34.182, 297.102 27.972 C 280.870 22.549, 270.647 20.988, 248.500 20.551 C 237.500 20.334, 227.150 20.351, 225.500 20.590 M 732 22.961 C 711.456 26.139, 694.768 31.484, 680.534 39.444 C 669.457 45.638, 648.718 61.998, 650.119 63.436 C 650.459 63.785, 654.284 61.656, 658.619 58.705 C 674.796 47.691, 694.207 39.110, 714.670 33.924 C 730.998 29.787, 756.231 27.655, 772.228 29.060 C 798.724 31.387, 825.232 38.694, 849.383 50.329 C 864.920 57.813, 875.233 64.144, 891.492 76.176 C 911.311 90.844, 906.164 82.770, 884.244 64.807 C 862.405 46.911, 828.707 31.143, 799.500 25.154 C 777.708 20.685, 752.090 19.852, 732 22.961 M 432 141.665 C 432 142.581, 435.551 149.668, 439.892 157.415 C 444.232 165.162, 451.035 178.475, 455.008 187 C 458.981 195.525, 462.905 203.175, 463.728 204 C 465.056 205.332, 465.152 204.940, 464.581 200.500 C 463.290 190.451, 461.692 185.275, 456.522 174.381 C 447.016 154.354, 432 134.320, 432 141.665 M 566.354 142.464 C 563.628 144.374, 551.350 163.289, 546.209 173.500 C 540.257 185.321, 534.906 205, 537.644 205 C 538.719 205, 539.785 202.984, 548.895 183.720 C 552.739 175.592, 559.060 163.388, 562.942 156.601 C 571.165 142.225, 572.075 138.458, 566.354 142.464 M 384.500 150.496 C 383.950 150.677, 382.262 151.098, 380.750 151.432 C 377.683 152.108, 376.915 155.370, 379.582 156.393 C 384.117 158.134, 388.532 155.987, 387.833 152.381 C 387.490 150.616, 386.256 149.918, 384.500 150.496 M 614.418 152.353 C 613.428 154.932, 615.828 158, 618.835 158 C 624.008 158, 625.927 153.676, 621.250 152.561 C 619.737 152.200, 617.710 151.670, 616.745 151.384 C 615.728 151.081, 614.749 151.489, 614.418 152.353 M 41.632 180.163 C 36.120 188.592, 31.646 205.648, 29.489 226.452 C 28.220 238.695, 28.098 243.627, 28.932 249.002 C 29.520 252.787, 30 258.571, 30 261.857 C 30 268.415, 36.468 301.506, 40.401 315.069 C 46.355 335.599, 57.141 355.426, 80.350 388.500 C 94.281 408.354, 126.425 445.338, 155.528 475 C 166.590 486.275, 177.793 498.200, 180.423 501.500 C 188.391 511.499, 210.895 533.939, 226.125 547.073 C 234.031 553.890, 248.745 566.900, 258.821 575.984 C 275.168 590.720, 307.642 617.531, 312.250 620.096 C 319.006 623.857, 305.056 609.200, 288.500 595.144 C 282.450 590.007, 267.150 576.057, 254.500 564.142 C 241.850 552.228, 227.294 538.659, 222.154 533.990 C 212.394 525.125, 194.639 505.877, 182.036 490.500 C 177.979 485.550, 167.415 474.075, 158.559 465 C 98.190 403.137, 65.335 359.240, 49.646 319.486 C 45.193 308.204, 39.646 285.793, 36.779 267.500 C 32.555 240.553, 34.380 208.624, 41.409 186.491 C 44.068 178.118, 44.130 176.342, 41.632 180.163 M 958 179.374 C 958 179.580, 958.693 181.712, 959.539 184.111 C 964.150 197.181, 968 221.690, 968 237.980 C 968 257.951, 959.524 302.567, 952.133 321.500 C 938.096 357.455, 900.293 408.082, 846.474 463 C 834.886 474.825, 822.726 487.875, 819.452 492 C 809.908 504.027, 788.975 526.150, 775.738 538.201 C 769.007 544.328, 752.025 560.236, 738 573.550 C 723.975 586.865, 709.125 600.628, 705 604.135 C 696.444 611.410, 687.439 620.772, 688.233 621.567 C 688.528 621.861, 693.208 618.579, 698.634 614.273 C 704.061 609.966, 711.425 604.222, 715 601.508 C 718.575 598.793, 725.103 593.181, 729.506 589.036 C 738.614 580.463, 754.757 566.166, 768.290 554.689 C 792.797 533.906, 807.349 519.415, 824.715 498.500 C 827.455 495.200, 840.678 481.249, 854.098 467.499 C 900.122 420.344, 933.239 377.515, 950.412 342.940 C 958.693 326.267, 961.645 317.654, 966.515 295.959 C 973.812 263.447, 974.972 241.846, 970.910 214.144 C 969.025 201.290, 961.354 179, 958.816 179 C 958.367 179, 958 179.168, 958 179.374 M 437 727.821 C 437 728.861, 438.511 731.691, 440.357 734.110 C 448.260 744.459, 455.542 759.337, 457.923 770 C 459.459 776.877, 461.003 781, 462.044 781 C 463.928 781, 465.114 774.069, 464.135 768.774 C 461.784 756.057, 455.132 743.249, 445.694 733.270 C 439.410 726.625, 437 725.115, 437 727.821 M 556.020 734.750 C 549.939 740.841, 547.411 744.319, 544.207 751 C 537.594 764.792, 535.396 776.294, 538.571 780.495 C 539.867 782.210, 540.215 782.280, 541.048 780.995 C 541.581 780.173, 542.273 778.375, 542.585 777 C 545.918 762.314, 552.934 746.421, 560.457 736.520 C 564.466 731.242, 566.214 727, 564.379 727 C 564.037 727, 560.276 730.487, 556.020 734.750 M 479.375 807.162 C 484.958 827.105, 485.053 830.329, 480.459 844.122 C 478.230 850.817, 476.797 853.213, 471.881 858.468 C 467.301 863.364, 466.330 864.913, 467.547 865.380 C 469.481 866.122, 475.741 863.011, 478.681 859.847 C 479.881 858.556, 482.806 853.450, 485.181 848.500 C 489.471 839.560, 489.500 839.426, 489.500 828.427 C 489.500 818.072, 489.303 816.969, 486.472 811.427 C 484.248 807.073, 482.818 805.410, 481.083 805.162 C 479.035 804.869, 478.808 805.135, 479.375 807.162 M 432.867 807.511 C 430.122 809.002, 423.809 817.743, 421.955 822.619 C 419.386 829.374, 421.363 838.774, 425.703 840.440 C 428.134 841.372, 428.429 840.400, 427.261 835.299 C 426.346 831.298, 426.480 829.853, 428.172 825.551 C 431.175 817.912, 433.843 814.124, 438.121 811.424 C 442.975 808.359, 443.252 805.985, 438.750 806.040 C 436.962 806.062, 434.315 806.724, 432.867 807.511 M 516.440 811.119 C 510.825 822.198, 510.321 833.928, 514.937 846.076 C 518.960 856.665, 523.712 862.728, 530.066 865.383 C 536.400 868.030, 536.425 865.850, 530.135 859.382 C 524.916 854.016, 523.937 852.315, 521.018 843.554 C 518.071 834.709, 517.813 833.014, 518.411 826.417 C 518.776 822.390, 519.958 816.529, 521.037 813.391 C 523.467 806.329, 523.466 806, 521.017 806 C 519.635 806, 518.247 807.553, 516.440 811.119 M 560 808.307 C 560 809.027, 561.913 810.971, 564.250 812.629 C 567.297 814.790, 569.455 817.580, 571.872 822.481 C 574.983 828.791, 575.193 829.808, 574.594 835.659 C 573.859 842.833, 574.663 843.545, 578.646 839.250 C 580.941 836.775, 581.159 835.851, 580.827 830 C 580.505 824.325, 579.907 822.662, 576.114 816.898 C 573.725 813.266, 570.515 809.554, 568.981 808.648 C 565.609 806.656, 560 806.443, 560 808.307 M 443.241 817.325 C 439.827 819.222, 438.055 822.337, 436.930 828.420 C 435.245 837.538, 438.674 842.075, 448.736 844.038 C 456.706 845.593, 460.294 844.305, 463.053 838.897 C 467.024 831.112, 464.301 820.944, 457.357 817.633 C 453.317 815.707, 446.426 815.556, 443.241 817.325 M 544.807 818.143 C 541.273 819.436, 536.889 826.961, 536.822 831.850 C 536.749 837.082, 540.184 843.419, 543.934 844.973 C 546.349 845.973, 548.292 845.983, 553.391 845.021 C 562.026 843.391, 565.418 840.037, 565.298 833.246 C 565.181 826.701, 562.406 820.261, 558.926 818.462 C 555.744 816.816, 548.858 816.661, 544.807 818.143"/>
</svg>