<?xml version="1.0" encoding="utf-8"?>
<svg xmlns="http://www.w3.org/2000/svg" width="1002" height="883" viewBox="0 0 1002 883">
  <path fill-rule="evenodd" d="M 66.704 2.190 C 47.642 3.283, 47.709 3.228, 34.401 28.843 C 30.933 35.519, 26.733 41.372, 19.692 49.343 C 2.163 69.186, 0.793 72.265, 5.933 80.285 C 7.620 82.916, 8.996 85.391, 8.990 85.785 C 8.985 86.178, 7.421 88.462, 5.515 90.859 C 3.609 93.257, 1.790 96.632, 1.473 98.359 C 0.889 101.543, 2.827 116.524, 5.534 129.751 C 6.661 135.257, 6.790 138.626, 6.071 143.751 C 3.992 158.562, 2.686 213.538, 3.371 257.398 C 3.971 295.821, 4.376 303.871, 6.583 321.265 C 7.972 332.212, 10.157 345.293, 11.440 350.334 C 18.420 377.772, 32.306 398.501, 52.378 411.450 C 64.835 419.486, 70.109 421.849, 78.173 423.011 C 82.203 423.591, 88.650 424.839, 92.500 425.783 C 102.147 428.149, 130.659 428.121, 140 425.736 C 143.575 424.823, 149.650 423.582, 153.500 422.979 C 166.961 420.871, 187.242 412.571, 198.414 404.599 C 213.612 393.754, 223.865 377.356, 228.487 356.500 C 233.948 331.865, 237.373 271.516, 233.529 267.672 C 231.632 265.775, 211.879 264.459, 200.035 265.440 C 195.341 265.829, 186.100 266.562, 179.500 267.070 C 172.900 267.578, 164.350 268.421, 160.500 268.945 C 156.650 269.469, 150.901 269.920, 147.725 269.949 C 142.679 269.994, 141.843 270.284, 141.101 272.250 C 140.634 273.488, 140.481 283.950, 140.761 295.500 C 141.254 315.823, 140.098 333.981, 137.954 339.622 C 137.328 341.268, 136.264 342, 134.500 342 C 131.563 342, 130 338.991, 130 333.335 C 130 330.624, 129.179 328.979, 126.476 326.276 L 122.952 322.752 114.515 323.195 C 106.109 323.636, 106.078 323.628, 105.581 321.069 C 104.256 314.236, 102.800 230.566, 103.369 194 C 104.195 140.977, 105.264 119.785, 107.403 114.033 C 111.815 102.170, 116.965 97.299, 123.841 98.487 C 128.588 99.307, 130.259 100.628, 132.763 105.535 C 137.400 114.624, 138.507 130.271, 137.008 165.500 C 136.399 179.800, 135.666 194.653, 135.378 198.508 C 134.900 204.911, 135.056 205.704, 137.187 207.706 C 139.245 209.639, 139.991 209.779, 143.510 208.892 C 145.704 208.339, 165.275 207.665, 187 207.394 C 210.328 207.104, 227.856 206.473, 229.812 205.853 C 231.877 205.199, 233.540 203.806, 234.228 202.152 C 234.909 200.517, 235.502 188.335, 235.774 170.379 C 236.151 145.490, 235.994 140.913, 234.693 138.879 C 233.442 136.924, 233.098 131.150, 232.764 106.500 C 232.430 81.813, 232.070 75.792, 230.735 72.500 C 229.842 70.300, 228.186 65.298, 227.054 61.385 C 225.176 54.893, 224.395 53.707, 218.117 47.818 C 211.395 41.511, 211.222 41.224, 210.521 35.185 C 208.773 20.122, 199.993 15.875, 172.428 16.758 C 154.811 17.322, 153.359 17.069, 141.503 11.366 C 133.253 7.397, 129.078 7.166, 115.077 9.902 C 104.188 12.030, 101.666 11.633, 92.677 6.380 C 84.902 1.836, 81.747 1.327, 66.704 2.190 M 349.259 1.999 C 345.563 2.848, 335.022 9.789, 334.205 11.911 C 333.907 12.687, 333.176 16.283, 332.581 19.903 L 331.500 26.483 326.723 27.163 C 319.365 28.209, 313.285 32.228, 312.034 36.872 C 310.105 44.036, 307.097 47.211, 298.106 51.569 C 288.314 56.315, 286.332 58.392, 285.490 64.793 C 284.345 73.499, 283.927 74.651, 280.025 79.844 C 275.089 86.413, 271.996 94.663, 271.284 103.157 C 270.686 110.282, 271.269 111.398, 278.016 116.038 C 280.216 117.552, 280.230 117.698, 278.876 125.038 C 277.781 130.976, 277.524 147.412, 277.619 205.500 C 277.736 277.572, 277.771 278.775, 280.342 300.122 C 284.697 336.287, 289.675 360.424, 295.486 373.564 C 299.211 381.987, 311.438 399.339, 317.380 404.635 C 328.081 414.172, 349.062 422.529, 368 424.797 C 372.125 425.290, 384.275 425.606, 395 425.497 C 414.177 425.304, 414.715 425.239, 427.467 421.618 C 441.536 417.623, 450.334 413.115, 463.949 402.925 C 473.442 395.820, 475.330 393.758, 483.314 381.775 C 493.277 366.821, 497.526 353.236, 502.653 319.949 C 505.321 302.632, 505.342 302.058, 505.518 244 C 505.616 211.825, 506.043 182.002, 506.467 177.727 C 507.372 168.619, 505.503 138.395, 503.671 132.500 C 502.517 128.788, 502.646 128.033, 505.464 122 C 508.139 116.273, 508.500 114.430, 508.500 106.500 C 508.500 97.725, 508.393 97.316, 504.235 90.134 C 500.316 83.365, 500.052 82.473, 500.979 79.134 C 504.768 65.493, 497.993 57.162, 477.764 50.587 C 467.997 47.413, 467.290 46.991, 463.163 41.876 C 455.385 32.235, 454.089 31.196, 441.879 24.810 C 435.243 21.340, 427.422 16.422, 424.499 13.882 C 421.576 11.341, 418.009 8.968, 416.573 8.608 C 414.753 8.151, 408.870 9.626, 397.161 13.476 C 387.920 16.514, 379.830 19, 379.182 19 C 377.440 19, 368.220 12.342, 362.500 6.954 C 357.111 1.878, 354.325 0.835, 349.259 1.999 M 344.859 12.490 L 339.280 15.979 338.730 22.037 C 338.428 25.369, 337.535 29.068, 336.745 30.257 C 335.909 31.517, 332.236 33.532, 327.951 35.082 L 320.594 37.745 316.547 45.622 L 312.500 53.500 302.500 58.500 L 292.500 63.500 291.922 69.500 C 291.274 76.239, 290.228 78.654, 285.333 84.710 C 281.019 90.049, 279.204 94.409, 278.381 101.412 L 277.728 106.971 284.114 109.823 L 290.500 112.676 294.899 110.338 C 302.522 106.286, 317.199 107.659, 319.788 112.665 C 320.310 113.674, 321.041 116.188, 321.414 118.250 C 322.181 122.499, 323.948 123.052, 327 120 C 328.286 118.714, 329.002 116.661, 329.006 114.250 C 329.017 106.557, 334.924 89.992, 338.720 87.005 C 341.653 84.698, 345.014 84.511, 353.192 86.201 L 359.005 87.401 362.752 83.850 C 375.561 71.712, 383.534 68.706, 402.500 68.865 C 409.650 68.925, 417.870 68.457, 420.767 67.824 C 425.552 66.779, 426.485 66.885, 430.955 68.979 C 436.860 71.745, 438.982 75.846, 441.948 90.227 C 444.495 102.577, 444.461 102.512, 449.729 104.792 L 454.318 106.779 456.409 102.662 C 458.400 98.742, 461.894 95.987, 466.689 94.557 C 469.336 93.767, 470.382 95.434, 473.172 104.892 C 474.995 111.073, 475.739 116.449, 479.108 147.750 C 479.833 154.488, 480.699 160, 481.032 160 C 481.366 160, 483.553 151.945, 485.894 142.100 L 490.149 124.200 494.501 123.104 C 498.569 122.080, 498.989 121.646, 500.927 116.467 C 504.227 107.645, 503.754 104.112, 497.875 93.683 C 492.786 84.655, 492.758 84.558, 493.875 79.720 C 495.794 71.410, 495.413 69.857, 490.558 66.202 C 487.605 63.978, 483.181 62.101, 476.976 60.441 C 471.915 59.086, 467.349 57.716, 466.831 57.396 C 466.313 57.075, 462.471 52.521, 458.294 47.274 C 454.118 42.028, 449.366 37.007, 447.736 36.117 C 446.106 35.228, 443.136 33.424, 441.136 32.108 C 439.136 30.792, 434.509 28.498, 430.852 27.009 C 427.196 25.520, 422.157 22.623, 419.654 20.572 L 415.103 16.843 404.301 20.788 C 398.361 22.958, 390.278 25.557, 386.340 26.565 L 379.179 28.397 369.340 21.811 C 363.928 18.188, 358.474 13.824, 357.220 12.112 C 354.262 8.075, 351.796 8.150, 344.859 12.490 M 59.500 14.910 C 50.017 20.238, 44.224 26.554, 37.561 38.828 C 34.477 44.509, 27.914 54.427, 22.977 60.870 C 18.040 67.312, 14 73.022, 14 73.559 C 14 74.096, 15.125 76.191, 16.500 78.215 C 20.392 83.943, 19.664 87.183, 12.317 96.807 C 8.776 101.447, 8.768 101.481, 9.441 108.980 C 10.045 115.719, 14.785 146.231, 16.822 156.500 C 17.378 159.301, 17.826 154.205, 18.319 139.500 C 18.706 127.950, 19.302 113.348, 19.644 107.050 L 20.265 95.600 25.277 90.300 C 30.062 85.241, 32.918 83.989, 35.616 85.765 C 37.479 86.992, 40.751 94.248, 42.512 101.060 C 43.429 104.602, 44.316 107.641, 44.485 107.813 C 44.654 107.985, 47.359 100.335, 50.496 90.813 C 53.792 80.809, 57.004 72.798, 58.103 71.837 C 59.918 70.252, 61.477 69.882, 72.145 68.507 C 76.751 67.914, 76.809 67.859, 78.987 62.034 L 81.184 56.160 88.842 54.514 C 93.054 53.609, 97.947 52.418, 99.716 51.868 C 101.485 51.317, 104.961 51.171, 107.440 51.543 C 112.042 52.233, 114.685 54.490, 122.142 64.097 L 124.783 67.500 127.819 64.633 C 129.489 63.055, 131.411 60.355, 132.092 58.633 C 132.773 56.910, 134.002 54.711, 134.823 53.746 C 136.924 51.280, 143.574 49.709, 148.674 50.474 C 158.117 51.890, 162.513 59.932, 163.938 78.395 C 164.894 90.784, 165.471 92.717, 170.784 101.339 L 174.500 107.370 174.500 124.638 C 174.500 140.629, 174.645 142.014, 176.458 143.342 C 180.291 146.152, 181.839 143.741, 184.381 131 C 185.858 123.598, 191.574 106.659, 194.510 100.980 C 196.364 97.395, 198.820 96, 203.279 96 C 209.867 96, 212.813 102.896, 216.048 125.895 C 218.188 141.107, 219.570 147, 220.997 147 C 221.460 147, 222.549 144.862, 223.416 142.250 C 226.430 133.174, 227.017 123.504, 225.921 101 C 224.952 81.100, 224.637 78.766, 221.687 69.639 C 218.816 60.756, 218.104 59.503, 214.500 56.996 C 206.517 51.441, 203 45.557, 203 37.755 C 203 28.300, 196.589 25.892, 176.701 27.878 C 160.766 29.469, 149.356 27.891, 138.493 22.594 C 134.440 20.617, 130.006 19, 128.641 19 C 127.275 19, 122.190 19.942, 117.341 21.094 C 104.452 24.155, 101.975 23.935, 90.896 18.748 C 80.271 13.773, 76.436 12.422, 70.500 11.558 C 67.099 11.063, 65.452 11.565, 59.500 14.910 M 621.975 11.946 C 618.937 12.354, 615.484 13.206, 614.303 13.838 C 610.611 15.814, 608 20.018, 608 23.989 C 608 29.719, 605.050 32.082, 593.213 35.835 C 584.739 38.521, 582.175 39.828, 578.574 43.296 C 574.234 47.476, 572.017 52.493, 572.006 58.167 C 572.001 60.523, 571.332 61.055, 566.250 62.744 C 558.946 65.170, 556 69.042, 556 76.214 C 556 78.918, 556.432 81.939, 556.960 82.926 C 557.751 84.402, 556.410 86.294, 549.393 93.610 C 544.702 98.500, 540.461 103.500, 539.967 104.723 C 538.724 107.803, 540.804 113.225, 546.534 121.842 C 550.803 128.262, 551.168 129.268, 550.482 132.708 C 549.613 137.062, 548.893 170.217, 548.660 216.500 C 548.455 257.531, 550.595 319.567, 552.589 330.384 C 556.676 352.550, 566.748 381.331, 574.503 393.001 C 576.879 396.577, 581.225 401.462, 584.161 403.857 C 591.291 409.674, 604.782 416.346, 614.550 418.888 C 618.923 420.025, 626.325 421.968, 631 423.205 C 638.216 425.115, 642.334 425.479, 658.262 425.616 C 668.581 425.704, 679.054 426.081, 681.534 426.453 C 693.297 428.217, 715.033 416.558, 734.097 398.260 C 752.699 380.406, 760.559 365.095, 764.006 340 C 765.026 332.575, 766.790 320.425, 767.926 313 C 769.395 303.398, 770.005 294.447, 770.039 282 C 770.065 272.375, 770.586 262.475, 771.197 260 C 771.888 257.193, 772.382 241.389, 772.509 218 C 772.719 179.169, 772.863 177.383, 778.092 148.581 C 779.026 143.440, 780.526 108.356, 780.327 96.308 C 780.272 92.984, 779.297 90.769, 775.625 85.623 C 770.347 78.227, 767.774 76.161, 758.850 72.157 C 755.357 70.590, 751.997 68.676, 751.383 67.904 C 750.769 67.132, 750.021 63.657, 749.722 60.182 C 749.337 55.723, 748.438 52.780, 746.665 50.182 C 745.283 48.157, 743.100 44.250, 741.813 41.500 C 739.498 36.553, 739.389 36.475, 731.487 34.112 C 724.782 32.108, 720.650 31.648, 705.750 31.251 C 695.987 30.990, 688 30.412, 688 29.965 C 688 27.748, 682.082 22.693, 673.280 17.391 L 663.500 11.500 645.500 11.351 C 635.600 11.270, 625.014 11.537, 621.975 11.946 M 845.133 14.558 C 844.027 15.965, 842.378 19.061, 841.470 21.439 L 839.819 25.762 831.168 27.480 C 821.410 29.418, 818.584 30.645, 815 34.497 C 812.658 37.014, 812.515 37.776, 812.740 46.553 L 812.981 55.922 807.490 67.109 C 804.471 73.262, 802 79.150, 802 80.193 C 802 83.416, 806.336 86.720, 812.148 87.927 L 817.589 89.056 817.231 101.778 C 817.034 108.775, 816.513 116.750, 816.072 119.500 C 815.631 122.250, 815.576 127.425, 815.949 131 C 816.322 134.575, 816.281 150.325, 815.859 166 C 815.409 182.686, 815.500 203.205, 816.079 215.500 C 816.623 227.050, 817.543 267.775, 818.123 306 C 818.704 344.225, 819.230 377.300, 819.293 379.500 C 819.355 381.700, 819.032 387.387, 818.575 392.138 C 817.430 404.026, 818.549 413.640, 821.410 416.501 C 823.443 418.534, 824.971 418.784, 839.565 419.466 C 859.077 420.379, 854.871 420.398, 921 419.108 C 950.975 418.524, 979.447 418.392, 984.270 418.816 C 996.142 419.858, 996.378 419.583, 997.875 403 C 999.498 385.018, 999.984 346.215, 998.600 345.147 C 997.261 344.114, 984.471 342, 979.557 342 C 977.141 342, 975.343 341.278, 973.954 339.750 C 972.828 338.512, 971.228 336.763, 970.398 335.863 C 969.567 334.963, 965.278 332.375, 960.866 330.113 C 953.691 326.434, 952.088 325.998, 945.672 325.983 L 938.500 325.965 934.610 319.431 C 931.843 314.784, 929.619 312.336, 926.908 310.953 L 923.096 309.008 922.625 292.754 C 922.366 283.814, 921.669 237.350, 921.076 189.500 C 920.484 141.650, 919.787 91.450, 919.529 77.945 C 919.270 64.440, 919.447 50.940, 919.922 47.945 C 921.396 38.652, 920.466 37.826, 906.069 35.634 C 892.588 33.582, 892.776 33.715, 889.921 24.150 C 888.025 17.796, 885.574 16.591, 874.996 16.817 C 867.485 16.977, 865.430 16.642, 860.854 14.512 C 853.615 11.142, 847.807 11.159, 845.133 14.558 M 617.815 19.923 C 616.111 21.269, 614.548 24.044, 613.538 27.517 C 611.190 35.595, 607.622 39.087, 598.847 41.896 C 594.806 43.189, 589.894 45.059, 587.932 46.051 C 582.987 48.551, 577.313 55.122, 576.050 59.813 C 574.763 64.595, 571.714 68.650, 568.724 69.556 C 565.493 70.535, 562 74.043, 562 76.308 C 562 77.386, 562.514 79.984, 563.143 82.082 C 564.762 87.485, 563.104 90.787, 555.356 97.589 C 551.824 100.690, 548.284 104.484, 547.489 106.020 C 546.095 108.717, 546.237 109.095, 551.578 116.938 C 559.097 127.980, 560 130.965, 560 144.792 C 560 151.140, 560.223 156.110, 560.496 155.837 C 561.441 154.892, 564.954 136.454, 566.085 126.500 C 566.710 121, 567.734 114.700, 568.361 112.500 L 569.500 108.500 576.184 108.206 L 582.868 107.912 586.857 100.643 C 589.051 96.645, 592.692 91.039, 594.947 88.187 C 598.749 83.377, 599.359 83, 603.349 83 C 608.706 83, 611.370 85.555, 613.064 92.315 C 613.727 94.963, 614.616 96.763, 615.038 96.315 C 615.460 95.867, 616.791 91.900, 617.994 87.500 C 619.197 83.100, 621.312 76.947, 622.694 73.826 L 625.205 68.151 632.853 67.343 C 647.117 65.835, 653.543 66.222, 656.234 68.750 C 659.200 71.536, 660.184 71.559, 662.593 68.898 C 667.958 62.969, 673.776 62.607, 681.054 67.750 C 689.922 74.016, 693.319 77.700, 692.591 80.263 C 692.242 81.493, 691.695 89.475, 691.375 98 L 690.794 113.500 694.006 117.781 C 695.773 120.135, 698.486 122.717, 700.035 123.518 C 702.790 124.943, 703.013 124.843, 710.140 119.020 C 714.149 115.745, 718.617 112.804, 720.069 112.485 C 723.833 111.658, 737.787 117.303, 741.250 121.053 C 743.179 123.143, 744.021 125.146, 744.070 127.766 C 744.109 129.820, 744.465 132.324, 744.862 133.330 C 745.864 135.875, 753.399 107.724, 752.584 104.479 C 752.123 102.640, 752.545 101.689, 754.348 100.508 C 758.642 97.694, 759.552 99.183, 762.472 113.807 C 764.517 124.051, 765.381 132.088, 765.903 145.716 C 766.286 155.736, 766.855 164.188, 767.167 164.500 C 767.768 165.102, 770.271 152.394, 771.998 139.965 C 772.689 134.988, 772.708 130.833, 772.053 127.500 C 771.323 123.788, 771.474 119.793, 772.637 111.987 C 775.118 95.345, 772.290 89.231, 759.280 83.118 C 742.870 75.408, 742.032 74.543, 741.090 64.324 C 740.602 59.029, 739.618 55.994, 736.698 50.780 C 733.337 44.777, 732.486 43.937, 728.718 42.910 C 722.896 41.322, 708.107 41.342, 698.459 42.951 C 691.266 44.151, 690.054 44.118, 686.959 42.637 C 685.023 41.710, 681.959 38.741, 680 35.892 C 677.256 31.902, 674.566 29.690, 667.545 25.651 L 658.589 20.500 645.045 19.813 C 637.595 19.436, 629.025 18.829, 626 18.465 C 621.298 17.899, 620.110 18.111, 617.815 19.923 M 848.472 23.045 C 847.063 25.276, 845.408 28.206, 844.793 29.556 C 844.059 31.166, 842.336 32.371, 839.784 33.058 C 832.072 35.135, 820.161 40.139, 819.628 41.527 C 819.329 42.306, 819.567 44.327, 820.156 46.017 C 820.745 47.708, 821.045 51.945, 820.823 55.434 C 820.470 60.978, 819.767 62.831, 815.247 70.139 C 810.581 77.681, 810.237 78.622, 811.728 79.750 C 812.638 80.438, 815.959 81, 819.108 81 L 824.835 81 826.348 85.250 C 827.180 87.588, 828.139 91.525, 828.478 94 C 828.818 96.475, 830.145 101.425, 831.427 105 C 832.708 108.575, 834.077 113.414, 834.467 115.754 C 835.354 121.070, 836.556 120.473, 837.469 114.262 C 838.930 104.324, 845.180 77.410, 846.498 75.381 C 848.396 72.460, 858.357 67, 861.789 67 C 865.058 67, 868.847 70.638, 874.287 79 C 876.255 82.025, 879.253 85.829, 880.948 87.452 C 884.207 90.572, 886.476 96.782, 885.552 100.049 C 885.248 101.122, 884.742 102.909, 884.426 104.020 C 883.967 105.636, 884.594 106.350, 887.558 107.589 C 889.596 108.440, 891.614 108.769, 892.042 108.318 C 894.289 105.959, 910.282 70.030, 911.042 65.633 C 911.949 60.391, 913.795 45.647, 913.586 45.319 C 913.522 45.219, 909.427 44.621, 904.485 43.989 C 890.094 42.151, 888.542 41.562, 886.718 37.253 C 885.844 35.189, 884.635 31.872, 884.031 29.882 L 882.932 26.264 873.216 25.786 C 864.839 25.373, 862.641 24.872, 857.266 22.148 L 851.033 18.988 848.472 23.045 M 60.474 27.395 C 58.875 28.565, 58.714 29.292, 59.530 31.653 C 60.341 33.997, 61.662 34.885, 67.007 36.677 C 70.578 37.874, 74.850 38.885, 76.500 38.923 C 80.893 39.025, 89 33.762, 89 30.809 C 89 30.364, 86.357 30, 83.126 30 C 79.895 30, 75.507 29.391, 73.376 28.646 C 66.539 26.257, 62.558 25.871, 60.474 27.395 M 411.377 32.459 C 410.513 34.710, 412.929 40.892, 415.134 42.072 C 416.220 42.653, 418.996 43.704, 421.304 44.407 C 423.612 45.110, 427.727 47.107, 430.448 48.845 C 436.044 52.417, 437.988 51.812, 435.621 47.234 C 433.350 42.843, 428.670 39.313, 422.565 37.389 C 418.869 36.224, 416.845 34.956, 416.112 33.346 C 414.917 30.725, 412.236 30.222, 411.377 32.459 M 351.325 34.614 C 345.649 36.555, 342.758 40.537, 343.488 45.408 C 343.990 48.755, 343.556 50.096, 340.457 54.762 C 335.206 62.671, 334.640 69.227, 339.365 67.414 C 340.214 67.087, 342.964 63.814, 345.475 60.139 C 348.801 55.271, 350.209 52.107, 350.662 48.479 C 351.206 44.122, 351.796 43.120, 355.385 40.462 C 357.641 38.791, 359.625 36.711, 359.793 35.838 C 360.220 33.617, 356.019 33.009, 351.325 34.614 M 174 40.423 C 174 42.799, 178.639 47.533, 182.809 49.414 C 186.465 51.062, 186.786 51.543, 187.337 56.197 C 187.663 58.951, 189.032 63.071, 190.379 65.352 C 193.008 69.805, 198.675 76, 200.119 76 C 202.130 76, 200.887 67.719, 198.024 62.047 C 196.387 58.805, 194.784 54.205, 194.461 51.826 C 193.334 43.523, 193.228 43.344, 188.078 41.129 C 182.281 38.635, 174 38.220, 174 40.423 M 614.855 47 L 611.286 51 602.270 51 L 593.255 51 589.127 55.478 C 584.693 60.288, 584.148 62.048, 586.489 63.991 C 587.713 65.007, 588.608 64.673, 591.524 62.113 C 593.474 60.401, 595.166 58.975, 595.285 58.944 C 595.403 58.913, 600.053 58.546, 605.618 58.129 C 615.727 57.372, 615.738 57.368, 619.118 53.553 C 625.834 45.971, 626.564 43, 621.712 43 C 619.137 43, 617.649 43.868, 614.855 47 M 850.494 44.009 C 849.172 46.149, 851.200 48.962, 854.808 49.991 C 862.179 52.093, 866.496 52.312, 867.871 50.655 C 869.700 48.451, 868.907 45.765, 865.991 44.290 C 863.017 42.785, 851.381 42.574, 850.494 44.009 M 712 63.918 C 712 66.161, 713.449 68.181, 716.009 69.504 C 718.671 70.881, 718.758 71.171, 718.324 77.217 C 717.956 82.343, 718.250 84.099, 719.922 86.750 C 721.049 88.537, 722.337 90, 722.784 90 C 724.477 90, 726 83.066, 726 75.363 L 726 67.368 722.114 65.184 C 718.204 62.987, 712 62.210, 712 63.918 M 310.390 71.765 C 308.376 73.098, 305.874 79.084, 306.190 81.816 C 306.616 85.506, 308.946 85.204, 311.710 81.102 C 315.423 75.593, 314.497 69.048, 310.390 71.765 M 386.500 100.160 C 382.019 102.624, 376.878 108.698, 374.821 113.959 C 372.842 119.019, 372.616 121.798, 372.216 145.979 C 371.944 162.429, 372.203 175.685, 372.899 180.979 C 373.516 185.666, 374.487 204.125, 375.059 222 C 376.409 264.267, 377.783 301.932, 378.624 319.741 L 379.296 333.982 383.626 329.991 C 387.557 326.368, 388.441 326.004, 393.228 326.044 C 396.127 326.068, 400.218 326.700, 402.318 327.449 C 405.552 328.603, 406.216 328.600, 406.664 327.432 C 406.955 326.674, 407.262 277.554, 407.347 218.277 C 407.518 98.140, 408.047 107.324, 400.626 101.664 C 396.841 98.777, 390.286 98.079, 386.500 100.160 M 655.350 100.928 C 651.884 103.041, 649.130 109.146, 647.013 119.403 C 646.315 122.784, 645.518 138.595, 645.147 156.403 C 644.370 193.742, 645.570 329.640, 646.733 336 L 647.556 340.500 654.112 340.167 C 658.637 339.938, 661.882 340.352, 664.585 341.503 L 668.500 343.171 664.289 344.835 C 659.575 346.699, 652 353.112, 652 355.239 C 652 356.001, 653.346 360.607, 654.991 365.474 C 659.755 379.567, 662.954 381.302, 662.985 369.811 C 662.999 364.643, 663.358 363.708, 666.907 359.607 C 671.542 354.253, 672.613 351.295, 674.013 340 C 676.262 321.850, 679.260 226.005, 678.204 206 C 677.754 197.475, 677.567 186.450, 677.789 181.500 C 678.515 165.301, 678.105 135.658, 677.048 128 C 675.681 118.091, 669.995 106.812, 664.068 102.250 C 661.745 100.463, 659.542 99.002, 659.172 99.004 C 658.803 99.006, 657.083 99.872, 655.350 100.928 M 916.500 316.936 L 911.500 318.699 911.833 324.686 C 912.122 329.901, 911.216 335.667, 909.338 340.563 C 908.896 341.713, 909.973 342, 914.738 342 C 922.426 342, 924.012 343.625, 924.924 352.433 C 925.294 356.006, 925.893 359.227, 926.256 359.589 C 926.881 360.214, 930.975 351.893, 932.524 346.849 C 933.842 342.555, 934.558 342.332, 947.236 342.269 C 959.052 342.210, 959.599 342.301, 962.220 344.763 C 964.591 346.989, 965.023 347.104, 965.577 345.659 C 966.715 342.695, 965.143 340.962, 958.502 337.854 C 953.358 335.447, 950.038 334.663, 942.824 334.150 L 933.672 333.500 930.377 327.500 C 928.564 324.200, 925.825 320.077, 924.291 318.337 L 921.500 315.173 916.500 316.936 M 113.478 331.441 C 109.486 333.119, 108.481 334.567, 107.043 340.702 C 106.372 343.563, 104.758 346.969, 103.456 348.272 C 100.338 351.389, 98.774 355.693, 99.521 359.095 C 100.403 363.110, 104.406 366.994, 107.702 367.033 C 113.278 367.100, 114.831 369.736, 117.684 383.981 C 119.556 393.331, 120.793 397.354, 121.992 397.996 C 123.503 398.804, 123.665 398.114, 123.587 391.198 C 123.485 382.193, 125.149 377.131, 131.826 366.127 C 137.277 357.142, 136.965 354.700, 129.938 351.364 C 124.871 348.958, 123.159 346.139, 122.285 338.763 C 121.848 335.065, 121.097 333.493, 119.085 332.060 C 116.811 330.441, 116.055 330.358, 113.478 331.441 M 381.805 338.800 C 377.223 344.369, 376.147 346.397, 375.856 350.008 C 375.514 354.248, 375.653 354.502, 379.500 356.633 C 385.517 359.967, 385.593 360.104, 386.931 369.888 C 387.615 374.894, 388.531 379.210, 388.966 379.479 C 389.402 379.748, 390.529 375.997, 391.472 371.142 C 393.716 359.591, 394.127 358.962, 397.702 361.612 C 399.498 362.944, 401.252 365.850, 402.600 369.728 C 404.689 375.738, 408.770 382.563, 409.711 381.622 C 409.983 381.351, 408.809 375.055, 407.102 367.631 C 403.760 353.089, 403.547 351.264, 404.939 349.064 C 405.729 347.817, 406.076 347.817, 407.588 349.064 C 409.216 350.407, 409.288 350.150, 408.695 345.113 C 408.347 342.150, 407.313 338.899, 406.399 337.888 C 403.638 334.837, 396.643 332, 391.884 332 C 387.559 332, 387.199 332.242, 381.805 338.800 M 211.304 474.120 C 207.012 476.387, 202.184 478.934, 200.576 479.781 C 198.150 481.058, 196.958 481.119, 193.576 480.136 C 191.334 479.485, 185.352 478.221, 180.282 477.328 L 171.064 475.703 165.602 480.368 C 162.599 482.935, 158.705 486.848, 156.949 489.064 L 153.758 493.094 143.937 492.925 L 134.116 492.755 128.059 498.128 C 118.814 506.328, 117.661 513.115, 124.427 519.496 L 127.718 522.600 128.584 583.550 C 129.061 617.072, 129.376 646.525, 129.285 649 C 128.185 678.959, 128.029 752.158, 129.008 778.500 C 129.663 796.100, 130.557 824.225, 130.997 841 C 131.436 857.775, 132.114 872.493, 132.503 873.707 C 134.239 879.121, 144.853 880.049, 214.500 880.880 C 293.106 881.818, 302.778 881.179, 316.754 874.124 C 331.024 866.921, 341.803 850.331, 347.499 826.806 C 352.730 805.205, 352.894 802.103, 353.207 719 C 353.694 590.083, 353.686 589.504, 351.173 573 C 348.423 554.935, 346.385 547.688, 343.081 544.213 C 340.714 541.725, 340.494 540.755, 340.425 532.500 C 340.316 519.315, 335.913 505.955, 330.512 502.416 C 328.388 501.024, 327.383 500.973, 323.207 502.044 C 318.856 503.159, 317.673 503.054, 311.533 501.011 C 305.820 499.110, 303.456 498.840, 297.100 499.364 C 288.014 500.114, 283.156 498.954, 278.587 494.942 C 273.605 490.568, 269.358 489.164, 261.481 489.285 C 251.368 489.441, 246.171 487.645, 238.556 481.364 C 230.442 474.670, 223.168 470, 220.858 470 C 219.895 470, 215.596 471.854, 211.304 474.120 M 674 482.216 C 670.425 486.052, 665.475 490.336, 663 491.736 C 653.450 497.138, 650.792 499.256, 647.864 503.800 C 645.100 508.090, 644.877 509.058, 645.314 514.899 C 645.648 519.358, 645.301 522.627, 644.170 525.678 C 642.246 530.869, 642.790 532.131, 648.830 536.500 C 652.967 539.493, 652.976 539.514, 652.517 545 C 652.264 548.025, 652.606 623.774, 653.278 713.331 C 654.420 865.477, 654.613 876.245, 656.224 877.422 C 658.800 879.305, 686.478 879.994, 759.742 879.997 L 823.985 880 826.488 877.190 C 828.048 875.440, 830.892 873.893, 834.032 873.088 C 843.773 870.592, 859.685 855.573, 866.870 842.092 C 874.883 827.059, 878.971 796.392, 879.016 751 C 879.026 740.275, 879.499 727.225, 880.066 722 C 881.329 710.362, 879.630 635.508, 877.410 605 C 876.589 593.725, 875.665 580.900, 875.355 576.500 C 874.686 567, 869.405 552.453, 862.864 542.093 C 859.240 536.354, 858.680 534.702, 858.541 529.337 C 858.318 520.767, 854.945 515.655, 848.191 513.649 C 839.954 511.203, 833.409 507.290, 828.863 502.094 C 826.463 499.351, 822.925 496.462, 821 495.675 C 816.472 493.824, 799.439 492.481, 798.558 493.906 C 797.244 496.031, 789.422 497.125, 775.528 497.125 C 760.134 497.125, 756.529 496.306, 750.834 491.514 C 748.958 489.935, 746.613 489, 744.532 489 C 742.710 489, 739.257 488.110, 736.859 487.022 C 731.910 484.776, 719.352 484.240, 715.684 486.118 C 714.483 486.733, 711.893 488.771, 709.929 490.646 L 706.358 494.056 700.929 488.113 C 697.943 484.844, 694.101 480.556, 692.391 478.585 C 689.656 475.431, 688.755 475.015, 684.891 475.121 C 680.801 475.233, 680.055 475.719, 674 482.216 M 422.070 489.630 C 416.395 497.259, 411.286 504.511, 410.717 505.747 C 409.941 507.431, 410.140 509.509, 411.510 514.033 C 413.334 520.058, 413.333 520.084, 411.061 525.567 C 408.896 530.790, 408.840 531.546, 409.930 540.781 C 410.562 546.127, 411.676 564.709, 412.407 582.076 C 413.503 608.117, 413.507 615.392, 412.430 623.576 C 411.712 629.034, 410.403 639.350, 409.521 646.500 C 408.639 653.650, 406.380 670.975, 404.500 685 C 402.621 699.025, 399.694 721.300, 397.996 734.500 C 396.298 747.700, 393.553 765.475, 391.896 774 C 390.240 782.525, 388.016 795.575, 386.955 803 C 385.893 810.425, 383.445 827.300, 381.515 840.500 C 377.750 866.245, 377.278 873.693, 379.250 876.219 C 380.316 877.584, 383.815 877.868, 403 878.146 C 430.495 878.544, 478.095 877.305, 479.238 876.162 C 481.022 874.378, 485.702 845.259, 488.522 818.390 L 489.164 812.281 504.729 811.569 C 515.933 811.056, 520.490 811.174, 520.994 811.990 C 521.379 812.613, 521.973 819.508, 522.313 827.311 C 522.909 840.971, 526.271 870.938, 527.594 874.386 C 527.947 875.304, 529.195 876.603, 530.368 877.273 C 533.423 879.017, 568.943 879.461, 594 878.068 C 618.341 876.715, 623.415 876.148, 625.625 874.532 C 627.166 873.405, 627.169 872.997, 625.663 868.909 C 624.770 866.484, 622.670 853.925, 620.998 841 C 619.325 828.075, 617.276 813.077, 616.445 807.671 C 614.974 798.108, 611.684 773.836, 608.560 749.500 C 607.713 742.900, 605.886 730.075, 604.502 721 C 603.117 711.925, 600.879 696.625, 599.528 687 C 598.178 677.375, 596.391 664.775, 595.557 659 C 594.724 653.225, 592.463 637.250, 590.534 623.500 C 584.928 583.553, 581.148 558.351, 578.919 546.071 C 577.510 538.305, 577.048 532.857, 577.479 529.071 C 577.903 525.344, 577.567 521.183, 576.462 516.500 C 575.412 512.047, 575.026 507.628, 575.402 504.357 L 575.992 499.214 571.800 497.537 C 564.937 494.790, 559.324 494.646, 549.103 496.951 L 539.706 499.070 533.769 495.084 C 526.804 490.407, 522.219 489.483, 510.091 490.314 C 502.567 490.829, 500.506 491.420, 493.500 495.071 L 485.500 499.240 472 499.699 L 458.500 500.159 454.250 493.589 C 451.070 488.674, 450 486.021, 450 483.057 C 450 479.338, 449.769 479.027, 446.250 478.002 C 444.188 477.401, 440.225 476.651, 437.444 476.335 L 432.388 475.760 422.070 489.630 M 219.403 477.961 C 218.906 478.437, 214.713 481.116, 210.085 483.914 C 200.862 489.488, 197.921 490.017, 189.813 487.556 C 187.235 486.774, 182.057 485.831, 178.307 485.462 L 171.489 484.790 166.494 490.145 C 163.748 493.090, 160.344 497.041, 158.930 498.924 L 156.361 502.349 150.513 501.174 C 137.534 498.568, 131.109 500.591, 129.262 507.867 C 127.816 513.565, 129.457 514.861, 135.295 512.632 C 146.505 508.350, 152.910 512.763, 156.555 527.279 C 158.183 533.762, 161.096 539, 163.073 539 C 163.583 539, 164.020 537.313, 164.044 535.250 C 164.134 527.527, 168.330 520, 172.544 520 C 176.548 520, 178.714 523.275, 184.448 538 C 187.554 545.975, 190.432 553.346, 190.845 554.380 C 191.561 556.175, 193.147 544.263, 194.822 524.500 L 195.500 516.500 199.459 516.177 C 202.011 515.969, 205.073 516.629, 208.071 518.033 L 212.723 520.212 216.913 517.439 C 220.967 514.756, 221.302 514.703, 227.240 515.807 C 230.616 516.435, 233.907 517.523, 234.554 518.224 C 235.201 518.926, 236.966 523.325, 238.477 528 C 242.509 540.479, 243.213 540.905, 242.541 530.457 C 241.910 520.651, 242.979 515.617, 246.040 513.979 C 248.396 512.718, 251.786 514.020, 254.922 517.391 L 257.344 519.995 260.922 517.864 C 262.990 516.632, 268.930 514.970, 275 513.924 L 285.500 512.115 288.701 515.207 C 291.733 518.134, 296.459 525.694, 305.137 541.500 L 308.981 548.500 308.347 541.250 L 307.713 534 311.106 534.019 L 314.500 534.039 324.500 553.513 C 334.045 572.102, 337.447 577.400, 334.603 569.250 C 331.179 559.440, 330.278 549.584, 330.968 529.500 C 331.241 521.569, 330.939 518.602, 329.512 515.161 C 327.902 511.280, 327.437 510.885, 325.106 511.418 C 317.205 513.224, 316.333 513.164, 309.953 510.379 C 304.318 507.920, 302.232 507.558, 293.500 507.531 C 283.628 507.500, 283.419 507.450, 277.207 503.582 C 271.489 500.021, 270.075 499.598, 261.707 498.953 C 246.210 497.757, 242.377 496.008, 229.705 484.352 C 223.008 478.193, 220.672 476.743, 219.403 477.961 M 677.473 488.080 C 672.926 492.697, 668.175 496.343, 663.817 498.559 C 659.790 500.607, 656.014 503.427, 654.317 505.656 C 651.816 508.939, 651.494 510.204, 651.450 516.927 C 651.423 521.092, 651.053 525.850, 650.628 527.500 C 649.883 530.388, 650.098 530.640, 656.396 534.258 C 663.496 538.336, 664.397 539.461, 665.403 545.500 C 667.187 556.218, 666.828 556.054, 671.029 548.071 C 677.007 536.710, 677.095 536.649, 686.380 537.417 C 695.775 538.194, 697.723 539.093, 699.566 543.504 C 701.834 548.931, 706.083 571.748, 706.723 581.939 C 707.453 593.555, 707.695 592.977, 713.069 566.791 C 715.360 555.631, 717.833 545.038, 718.566 543.250 C 719.885 540.032, 719.971 539.998, 727.199 539.800 C 739.493 539.464, 739.975 539.569, 743.953 543.454 L 747.675 547.089 750.352 543.044 C 751.824 540.820, 753.419 539, 753.897 539 C 754.374 539, 756.505 537.264, 758.632 535.142 C 760.760 533.020, 763.625 530.939, 765 530.519 C 768.753 529.372, 769.894 528.153, 773.032 521.936 C 776.443 515.180, 776.749 515.082, 790.928 516.224 C 799.696 516.930, 801.582 517.385, 802.773 519.086 C 807.267 525.503, 808.526 526.301, 815.483 527.138 C 819.230 527.589, 823.056 528.645, 823.984 529.485 C 825.158 530.548, 826.223 534.820, 827.486 543.539 C 828.609 551.289, 829.709 555.930, 830.370 555.710 C 830.958 555.514, 833.028 550.447, 834.970 544.449 C 837.867 535.501, 838.986 533.275, 841.212 532.039 C 843.935 530.526, 844.322 530.581, 851.128 533.437 C 852.368 533.957, 852.854 533.448, 853.170 531.297 C 854.137 524.709, 853.276 523.879, 841.587 520.141 C 830.576 516.619, 828.886 515.510, 821.238 506.776 C 817.032 501.974, 809.998 501.519, 777.832 503.971 C 759.631 505.359, 757.953 504.946, 747.716 496.568 L 741.931 491.834 730.138 492.167 C 717.526 492.523, 718.420 492.219, 708.277 499.592 C 706.110 501.168, 705.805 500.959, 695.909 491.104 C 690.328 485.547, 685.466 481, 685.104 481 C 684.742 481, 681.308 484.186, 677.473 488.080 M 425.825 495.904 L 416.149 508.719 417.168 516.341 C 418.115 523.430, 418.032 524.213, 415.976 527.538 C 413.777 531.098, 413.774 531.159, 415.383 541.493 C 416.273 547.202, 417 554.534, 417 557.786 C 417 566.352, 418.180 579, 418.980 579 C 419.357 579, 421.807 571.688, 424.424 562.750 C 432.728 534.387, 432.277 535.500, 435.471 535.500 C 439.792 535.500, 446.126 543.440, 446.496 549.322 C 446.674 552.155, 447.505 554.505, 448.777 555.777 C 450.122 557.122, 451.017 559.835, 451.506 564.055 C 451.941 567.796, 452.537 569.760, 452.984 568.916 C 453.395 568.137, 454.245 557.229, 454.871 544.675 C 455.497 532.122, 456.473 520.984, 457.040 519.925 C 458.349 517.480, 464.757 517.316, 469.581 519.605 C 472.862 521.163, 474.978 525.300, 474.994 530.191 C 475.002 532.569, 476.548 533.249, 477.991 531.511 C 478.957 530.347, 480.791 530.172, 486.855 530.667 C 497.238 531.514, 498.617 532.143, 499.414 536.393 C 500.568 542.547, 503.044 542.285, 507.299 535.559 C 510.411 530.641, 522.328 517.430, 524.890 516.059 C 526.905 514.980, 543.170 517.780, 544.235 519.389 C 544.639 520, 545.017 529.275, 545.076 540 C 545.196 562.090, 544.706 562.569, 551.462 533.750 C 555.127 518.112, 555.173 518, 557.914 518 C 559.537 518, 562.976 519.648, 566.260 522 C 569.333 524.200, 572.278 526, 572.805 526 C 573.350 526, 573.186 524.380, 572.426 522.250 C 571.690 520.188, 571.068 515.481, 571.044 511.790 L 571 505.080 567.022 503.888 C 563.565 502.853, 561.591 503.042, 551.955 505.334 C 539.455 508.307, 537.663 508.038, 530.246 502.077 C 525.347 498.141, 522.147 497.585, 511.715 498.861 C 505.250 499.652, 501.757 500.684, 497.595 503.034 C 493.994 505.066, 491.363 505.933, 490.056 505.518 C 488.299 504.960, 483.093 505.349, 462.736 507.556 C 458.482 508.017, 457.690 507.775, 455.340 505.286 C 452.227 501.990, 443.172 488.468, 441.923 485.250 C 441.301 483.648, 440.251 483.013, 438.275 483.045 C 435.908 483.083, 434.077 484.974, 425.825 495.904 M 213.048 490.940 C 210.614 494.012, 208.671 495.241, 204.214 496.525 C 198.167 498.267, 190.349 502.649, 189.543 504.747 C 188.929 506.349, 194.241 506.388, 206.432 504.873 C 216.866 503.576, 218.983 502.230, 222.553 494.625 C 225.413 488.532, 224.895 487, 219.977 487 C 216.738 487, 215.701 487.589, 213.048 490.940 M 676.330 502.250 C 664.585 514.465, 662.037 524.199, 672.462 517.026 C 677.767 513.376, 681.742 508.430, 683.530 503.252 C 684.810 499.546, 684.292 498.503, 680.958 498.070 C 680.660 498.032, 678.577 499.913, 676.330 502.250 M 431.654 502.999 C 428.352 505.898, 428.216 506.307, 427.590 515.249 C 427.234 520.337, 427.324 525.846, 427.790 527.490 L 428.639 530.481 430.420 527.763 C 432.630 524.390, 433.945 518.908, 433.976 512.937 C 433.996 509.190, 434.536 507.861, 437 505.500 C 438.650 503.919, 440 502.035, 440 501.313 C 440 498.951, 435.148 499.931, 431.654 502.999 M 726.500 502.930 C 724.300 503.304, 721.402 504.209, 720.059 504.942 L 717.618 506.275 720.365 508.637 C 722.604 510.564, 724.255 511.004, 729.306 511.021 C 734.930 511.041, 736.137 511.455, 742.414 515.521 C 749.126 519.869, 753.342 520.957, 757.418 519.393 C 760.481 518.218, 758.852 516.431, 748.174 509.250 C 736.809 501.608, 735.879 501.336, 726.500 502.930 M 505.335 509.610 C 505.689 511.749, 505.983 515.188, 505.989 517.250 C 506.002 521.662, 506.829 521.898, 510.258 518.469 C 512.674 516.053, 514.487 509.312, 513.119 507.828 C 512.779 507.458, 510.743 506.833, 508.596 506.438 L 504.693 505.720 505.335 509.610 M 227.458 569.590 C 227.895 570.640, 228.606 587.250, 229.037 606.500 C 229.468 625.750, 230.365 645.100, 231.030 649.500 C 231.908 655.309, 232.068 668.320, 231.612 697 C 231.266 718.725, 230.954 746.625, 230.918 759 L 230.851 781.500 234.830 782.290 C 237.260 782.772, 240.561 784.622, 243.308 787.040 C 245.782 789.218, 248.209 791, 248.701 791 C 249.192 791, 251.327 789.226, 253.444 787.057 L 257.294 783.115 258.114 767.807 C 258.565 759.388, 259.371 734.950, 259.906 713.500 C 260.861 675.222, 260.400 657.650, 257.926 638.026 C 257.335 633.337, 256.743 618.410, 256.610 604.856 C 256.398 583.237, 256.152 579.881, 254.601 577.514 C 252.028 573.588, 241.684 569.082, 233.483 568.316 C 227.040 567.714, 226.707 567.785, 227.458 569.590 M 750.393 570.750 C 750.697 572.263, 751.019 576.650, 751.108 580.500 C 751.434 594.535, 749.957 792.851, 749.438 804.750 L 748.903 817 753.792 817 C 757.260 817, 760.487 816.097, 764.896 813.894 C 771.665 810.512, 774.541 807.071, 778.284 797.881 C 780.445 792.575, 780.485 791.500, 781.158 720.500 C 781.533 680.900, 782.155 640.850, 782.541 631.500 C 782.978 620.887, 782.825 610.684, 782.135 604.342 C 780.805 592.128, 776.236 578.558, 772.129 574.624 C 768.595 571.238, 759.823 568, 754.185 568 C 749.979 568, 749.859 568.087, 750.393 570.750 M 503.620 594 C 503.263 595.925, 502.564 601.100, 502.067 605.500 C 497.264 648.027, 495.249 662.931, 491.422 684.248 C 489.571 694.560, 487.756 705.922, 487.390 709.498 L 486.724 716 493.612 716.070 C 497.400 716.109, 501.279 716.450, 502.232 716.827 C 503.185 717.205, 506.137 720.661, 508.793 724.507 C 514.023 732.079, 516.625 733.462, 516.309 728.500 C 516.204 726.850, 515.836 716.500, 515.491 705.500 C 515.146 694.500, 513.996 678.750, 512.934 670.500 C 511.873 662.250, 510.350 650.325, 509.549 644 C 508.749 637.675, 507.598 624.338, 506.991 614.362 C 506.384 604.386, 505.523 594.936, 505.078 593.362 L 504.269 590.500 503.620 594 M 490.750 724.572 C 489.238 725.393, 488 726.895, 488 727.912 C 488 728.928, 486.433 732.851, 484.519 736.630 C 482.604 740.408, 481.029 743.849, 481.019 744.276 C 481.008 744.702, 482.378 744.339, 484.062 743.468 C 485.746 742.597, 489.402 741.867, 492.187 741.845 C 499.465 741.789, 500.436 743.223, 501.784 756.027 C 502.922 766.839, 503.645 770, 504.978 770 C 505.398 770, 506.033 767.807, 506.389 765.128 C 506.744 762.448, 507.856 757.835, 508.860 754.878 C 510.668 749.549, 510.747 749.477, 517.523 747 C 521.284 745.625, 524.279 744.163, 524.180 743.750 C 524.081 743.337, 524 742.189, 524 741.197 C 524 739.605, 523.357 739.465, 518.475 740.003 L 512.949 740.611 507.344 733.055 C 504.261 728.900, 501.036 724.938, 500.178 724.250 C 498.111 722.594, 494.146 722.730, 490.750 724.572 M 231.686 789.824 C 231.499 790.196, 230.496 793.399, 229.457 796.942 C 228.088 801.607, 226.576 804.317, 223.974 806.767 L 220.381 810.151 222.669 814.826 C 224.100 817.751, 225.461 823.429, 226.304 830 L 227.652 840.500 228.842 836 C 231.479 826.034, 233.381 822.520, 236.325 822.179 C 237.848 822.002, 240.614 822.754, 242.470 823.850 C 246.381 826.158, 246.476 826.040, 247.533 817.579 C 248.275 811.642, 250.746 808, 254.034 808 C 257.050 808, 259.375 804.232, 259.440 799.241 C 259.515 793.396, 256.987 792.191, 254.547 796.908 C 253.685 798.576, 252.030 800.449, 250.870 801.069 C 248.995 802.073, 248.181 801.575, 243.523 796.570 C 238.823 791.520, 232.614 787.981, 231.686 789.824"/>
</svg>