<?xml version="1.0" encoding="utf-8"?>
<svg xmlns="http://www.w3.org/2000/svg" width="1002" height="713" viewBox="0 0 1002 713">
  <path fill-rule="evenodd" d="M 470 2.103 C 432.169 6.356, 396.171 22.059, 361.043 49.632 C 354.834 54.506, 351.057 56.835, 350.043 56.414 C 339.084 51.863, 325.484 47.296, 316.549 45.166 C 306.518 42.775, 303.704 42.537, 286 42.583 C 268.206 42.629, 265.651 42.863, 256.794 45.248 C 237.291 50.501, 220.938 60.007, 206.500 74.484 C 191.788 89.235, 183.229 103.369, 177.364 122.600 C 174.920 130.614, 174.646 133.043, 174.619 147 C 174.585 164.598, 176.042 173.978, 181.572 191.778 C 185.538 204.542, 189.561 213.792, 196.334 225.715 C 198.900 230.234, 201 234.456, 201 235.099 C 201 239.609, 139.420 309.570, 128.764 317.166 L 126.027 319.117 112.764 314.592 C 85.679 305.353, 71.038 302.632, 48 302.555 C 33.294 302.506, 30.777 302.750, 24.847 304.799 C 11.587 309.382, 4.255 316.635, 2.025 327.378 C -0.070 337.470, 6.183 349.006, 16.441 353.972 C 25.724 358.465, 47.101 360.348, 61.786 357.965 C 77.766 355.372, 95.111 347.958, 112.169 336.430 C 118.216 332.343, 123.914 329.004, 124.832 329.009 C 126.927 329.021, 144.460 336.898, 181.059 354.272 C 217.245 371.449, 227.944 376.011, 246.337 382.105 C 266.673 388.842, 282.395 391.996, 299.149 392.700 C 332.116 394.083, 363.907 385.327, 391.420 367.285 C 400.072 361.611, 419.167 342.760, 424.872 334.262 C 427.348 330.573, 429.966 327.823, 431.279 327.534 C 444.860 324.539, 457.754 321.019, 468.500 317.374 C 475.650 314.949, 481.939 312.860, 482.475 312.732 C 483.011 312.604, 483.746 315.693, 484.109 319.596 C 484.978 328.946, 487.363 336.942, 491.827 345.465 C 509.922 380.022, 556.844 379.007, 591.504 343.307 C 595.077 339.628, 598 336.253, 598 335.809 C 598 333.632, 600.061 335.553, 603.299 340.750 C 611.771 354.345, 625.017 365.125, 638.151 369.114 C 644.101 370.922, 646.905 371.172, 656.826 370.780 C 667 370.379, 669.570 369.901, 676.827 367.058 L 685.153 363.796 690.846 366.351 C 707.304 373.736, 722.978 373.646, 741.199 366.061 C 748.871 362.867, 764.193 353.434, 771.700 347.282 C 774.093 345.322, 776.281 343.948, 776.563 344.230 C 776.845 344.511, 778.178 348.863, 779.526 353.899 C 785.616 376.655, 797.588 398.376, 813.821 416.119 L 818.962 421.739 811.731 424.773 C 807.754 426.442, 800.471 428.976, 795.547 430.403 L 786.593 432.998 783.547 430.119 C 779.362 426.165, 776.791 425, 772.247 425 C 764.772 425, 758.895 427.622, 751 434.478 L 743.500 440.992 734.360 440.996 C 722.169 441.001, 709.889 438.577, 702.678 434.741 C 697.260 431.859, 689.385 425.654, 667.897 407.334 C 663.166 403.300, 659.003 400, 658.647 400 C 656.724 400, 658.818 403.133, 666 411 C 674.208 419.991, 675.340 422, 672.196 422 C 669.274 422, 648.315 408.200, 630.807 394.750 C 623.646 389.249, 621 387.940, 621 389.900 C 621 391.126, 630.484 399.700, 640.810 407.807 C 657.606 420.996, 659.499 422.639, 659.821 424.311 C 660.326 426.932, 657.374 427.415, 652.418 425.522 C 646.797 423.375, 623.518 409.423, 607.095 398.358 C 594.459 389.844, 589.411 387.607, 594.076 392.589 C 595.409 394.013, 603.025 399.936, 611 405.752 C 618.975 411.568, 627.862 418.067, 630.750 420.195 C 638.613 425.991, 637.240 429.891, 628.510 426.557 C 623.036 424.466, 589.185 405.074, 574.903 395.847 C 564.217 388.943, 561.968 387.964, 562.039 390.250 C 562.102 392.256, 588.662 410.783, 603.235 418.986 C 612.029 423.936, 615.334 426.965, 614.451 429.267 C 612.958 433.159, 613.258 433.273, 585.309 418.136 C 564.349 406.784, 538.223 394.700, 536.265 395.452 C 534.024 396.312, 534.986 397.005, 547.500 403.539 C 553.550 406.697, 563.900 412.347, 570.500 416.094 C 592.710 428.702, 596.028 431.663, 590.677 434.101 C 588.489 435.098, 586.592 434.373, 573.856 427.677 C 552.325 416.357, 515.831 402, 508.589 402 C 503.253 402, 507.443 404.371, 525 411.285 C 543.879 418.720, 563.146 427.810, 567.418 431.298 C 569.376 432.895, 570.127 434.227, 569.700 435.340 C 568.484 438.509, 562.336 437.254, 546.616 430.629 C 538.302 427.124, 523.175 421.199, 513 417.460 C 502.825 413.722, 492.925 410.084, 491 409.376 C 486.440 407.698, 485 407.695, 485 409.363 C 485 410.685, 492.454 414.485, 500.880 417.458 C 508.492 420.143, 539.481 434.192, 541.250 435.760 C 543.596 437.838, 543.466 440, 540.995 440 C 539.892 440, 533.029 437.495, 525.745 434.434 C 493.737 420.984, 453.876 406.791, 452.362 408.305 C 450.934 409.732, 454.564 412.023, 462.325 414.591 C 466.821 416.079, 474.550 419.070, 479.500 421.237 C 484.450 423.404, 490.750 426.006, 493.500 427.021 C 504.791 431.184, 513.627 435.241, 515.748 437.233 C 522.069 443.172, 516.178 442.172, 485.724 432.139 C 456.123 422.386, 439.811 417.825, 438.643 418.972 C 437.365 420.227, 441.630 422.605, 449.500 425.025 C 459.259 428.026, 490.019 439.809, 492.782 441.605 C 495.603 443.438, 494.810 445, 491.060 445 C 489.508 445, 472.377 441.824, 452.992 437.942 C 433.606 434.060, 417.048 431.151, 416.195 431.479 C 412.965 432.718, 417.564 434.637, 431.500 437.866 C 451.864 442.584, 453.500 443.152, 453.500 445.500 C 453.500 447.208, 452.623 447.592, 447.500 448.132 C 440.271 448.893, 399.275 447.426, 386 445.931 C 366.262 443.708, 344.002 439.750, 330 435.975 C 310.650 430.758, 303.805 428.332, 289.077 421.471 C 277.326 415.998, 276.514 415.764, 274.077 417.159 C 272.086 418.297, 271.534 419.358, 271.648 421.818 C 271.904 427.341, 280.420 439.617, 291.913 451.031 C 316.984 475.928, 350.572 491.461, 392.500 497.548 C 414.430 500.732, 414.664 502.517, 393.250 503.271 C 371.688 504.029, 357.231 507.725, 324.131 520.939 C 313.236 525.289, 299 532.651, 299 533.936 C 299 534.352, 304.512 532.481, 311.250 529.779 C 326.757 523.559, 348.859 516.678, 361.800 514.041 C 373.569 511.642, 375 511.564, 375 513.315 C 375 514.814, 372.744 515.964, 354 524.014 C 339.234 530.356, 325.020 537.624, 318 542.419 C 315.525 544.110, 310.350 547.310, 306.500 549.529 C 296.730 555.161, 279.803 567.873, 280.524 569.038 C 281.245 570.206, 282.488 569.576, 293.588 562.415 C 312.292 550.349, 339.679 536.730, 363.788 527.507 C 374.177 523.532, 385.572 520.622, 387.638 521.415 C 390.747 522.608, 388.682 525.135, 381.750 528.619 C 365.282 536.896, 303.879 572.236, 301.971 574.535 C 299.546 577.457, 303.292 575.940, 326.635 564.549 C 345.439 555.373, 350.217 553.402, 350.687 554.627 C 351.483 556.702, 351.291 556.854, 328 572.535 C 316.725 580.126, 305.166 588.094, 302.314 590.240 C 294.941 595.790, 288.759 597.808, 273.706 599.580 C 256.553 601.598, 255.199 601.881, 257.052 603.053 C 257.848 603.557, 262.573 603.976, 267.550 603.985 C 277.623 604.002, 279.398 604.822, 277.899 608.766 C 277.374 610.147, 277.139 611.473, 277.378 611.712 C 277.617 611.950, 281.917 609.671, 286.934 606.647 C 293.020 602.977, 298.292 600.635, 302.778 599.606 C 306.475 598.758, 316.445 596.025, 324.934 593.532 C 342.241 588.450, 342 588.495, 342 590.342 C 342 591.752, 333.251 596.091, 316.500 602.989 C 303.751 608.239, 302.535 609.423, 310.844 608.492 C 316.576 607.850, 317.155 607.952, 316.844 609.544 C 316.338 612.135, 311.866 614.106, 287.554 622.455 C 275.484 626.600, 265.134 630.494, 264.554 631.108 C 263.792 631.916, 264.053 632.079, 265.500 631.696 C 266.600 631.406, 269.703 630.868, 272.395 630.501 C 275.087 630.134, 284.537 627.645, 293.395 624.970 C 321.261 616.555, 333.428 612.021, 355.273 601.911 C 362.298 598.660, 368.260 596, 368.523 596 C 368.785 596, 369 596.843, 369 597.873 C 369 600.335, 361.787 606.901, 352.752 612.662 C 335.185 623.864, 319.953 634.286, 320.439 634.773 C 321.395 635.729, 343.271 624.222, 355.071 616.557 C 367.638 608.393, 371.293 607.109, 371.807 610.678 C 372.251 613.768, 362.964 621.215, 338.027 637.764 C 326.767 645.237, 318.063 651.521, 318.684 651.728 C 320.703 652.401, 332.470 646.419, 346.540 637.565 C 354.915 632.295, 361.130 629.019, 362.404 629.201 C 364.376 629.482, 364.533 630.271, 365.053 642.500 C 365.553 654.247, 365.958 656.452, 369.259 665.379 C 376.648 685.361, 385.969 696.460, 402 704.366 C 419.370 712.932, 435.895 713.980, 459.869 708.037 C 495.932 699.098, 536.298 676.102, 570.156 645.206 C 584.872 631.778, 588.324 627.861, 587.781 625.203 C 587.285 622.777, 579.934 623.155, 552.803 627.003 C 530.007 630.237, 524.745 631.783, 527.056 634.567 C 527.986 635.688, 531.345 636, 542.500 636 C 553.897 636, 557.003 636.298, 557.989 637.487 C 558.668 638.305, 558.979 639.611, 558.681 640.389 C 557.904 642.414, 528.106 664.609, 517.897 670.767 C 504.937 678.585, 479.823 690.458, 468 694.357 C 454.469 698.819, 443.829 700.327, 429.790 699.772 C 420.130 699.389, 417.485 698.897, 411.467 696.360 C 401.732 692.256, 395.789 687.919, 389.982 680.682 C 378.205 666.005, 373.423 647.314, 377.470 631.776 C 379.606 623.578, 384.440 613.917, 389.001 608.736 C 391.188 606.252, 393.869 602.139, 394.958 599.597 C 400.285 587.171, 418.783 567.294, 437.093 554.321 C 443.442 549.823, 449.228 545.430, 449.951 544.559 C 450.673 543.689, 453.905 541.569, 457.132 539.849 C 460.360 538.129, 463 536.198, 463 535.558 C 463 534.918, 461.618 532.514, 459.928 530.217 C 455.256 523.864, 457.060 523.383, 466.420 528.485 C 470.975 530.968, 475.871 533, 477.300 533 C 480.534 533, 495.713 528.320, 498.750 526.387 C 502.213 524.182, 501.487 521.909, 495.422 515.966 C 488.632 509.312, 485.669 505.345, 486.494 504.010 C 487.339 502.643, 490.517 504.427, 502.371 512.925 C 513.896 521.186, 515.309 521.432, 528.198 517.410 C 538.416 514.221, 541.153 512.603, 540.309 510.248 C 539.964 509.287, 536.154 504.605, 531.841 499.844 C 527.529 495.082, 524 490.920, 524 490.594 C 524 488.601, 529.086 490.685, 534.358 494.837 C 537.736 497.498, 543.370 501.604, 546.878 503.962 C 552.769 507.921, 553.623 508.205, 558.067 507.678 C 564.922 506.867, 578 501.256, 578 499.128 C 578 498.201, 575.075 494.543, 571.500 491 C 565.341 484.896, 563.611 482, 566.121 482 C 566.738 482, 571.219 484.295, 576.079 487.100 C 584.775 492.119, 585.048 492.200, 593.208 492.187 C 602.597 492.173, 608.318 490.576, 617.826 485.317 C 621.305 483.392, 624.412 482.079, 624.732 482.399 C 625.676 483.343, 622.172 490.211, 618.710 494.199 C 615.255 498.180, 577.461 525.291, 563.922 533.500 C 559.386 536.250, 551.136 540.300, 545.588 542.500 C 537.500 545.707, 535.500 546.897, 535.500 548.500 C 535.500 551.759, 539.139 551.425, 549.695 547.198 C 555.088 545.038, 561.300 542.696, 563.500 541.995 C 568.284 540.469, 589.335 530.062, 604.180 521.884 C 614.418 516.243, 618 514.952, 618 516.901 C 618 519.237, 596.485 535.743, 574 550.657 C 559.165 560.498, 555.792 562.511, 542.500 569.455 C 528.525 576.756, 526 578.490, 526 580.786 C 526 583.252, 531.564 581.676, 544.030 575.679 C 557.282 569.304, 579.796 556.041, 592.960 546.856 C 608.776 535.821, 612 534.279, 612 537.750 C 612.001 540.889, 579.021 570.106, 557.704 585.849 C 547.993 593.022, 545.841 596, 550.372 596 C 555.285 596, 579.519 578.186, 607.379 554.095 C 642.419 523.795, 645.816 521, 647.590 521 C 648.365 521, 649 521.606, 649 522.346 C 649 524.505, 630.295 544.912, 608.846 566.154 C 597.931 576.964, 589 586.527, 589 587.404 C 589 589.855, 592.459 589.316, 596.173 586.287 C 604.403 579.574, 621.159 563.925, 640.618 544.779 C 652.233 533.350, 662.470 524, 663.368 524 C 667.117 524, 665.112 527.892, 647.882 554.074 C 640.797 564.840, 635 574.376, 635 575.265 C 635 577.777, 636.933 578.370, 639.007 576.494 C 640.730 574.934, 649.201 562.276, 671.793 527.500 C 684.957 507.236, 687.883 503.008, 697.292 490.649 C 709.982 473.980, 716.721 468.184, 731.958 460.833 C 738.856 457.506, 746.123 454.556, 748.108 454.279 C 750.092 454.002, 754.905 454.501, 758.805 455.387 C 773.832 458.805, 781.403 456.628, 785.563 447.693 C 786.893 444.837, 787.985 441.362, 787.990 439.971 C 787.999 437.670, 788.650 437.279, 795.250 435.612 C 799.237 434.605, 807.194 432.030, 812.932 429.890 C 821.608 426.653, 823.648 426.208, 825.050 427.249 C 825.977 427.937, 830.057 431.040, 834.118 434.145 C 875.103 465.488, 932.984 473.896, 973 454.320 C 997.370 442.398, 1006.222 422.188, 996.288 401.153 C 986.918 381.313, 956.668 369.695, 926.500 374.352 C 904.910 377.685, 890.048 383.671, 852.165 404.296 C 839.331 411.283, 828.229 417, 827.495 417 C 825.619 417, 816.959 407.060, 810.072 397 C 799.503 381.563, 789.858 359.479, 785.956 341.777 L 784.694 336.055 794.631 325.738 C 824.280 294.955, 852.588 246.030, 877.509 182.500 C 896.930 132.989, 910 77.151, 910 43.689 C 910 26.825, 906.602 17.597, 898.333 12 C 895.249 9.913, 893.462 9.500, 887.517 9.500 C 881.255 9.500, 879.443 9.971, 872.513 13.396 C 843.378 27.797, 809.239 88.798, 788.117 164.202 C 779.657 194.405, 774.135 224.201, 771.926 251.576 C 770.466 269.669, 771.251 307.095, 773.412 322.447 L 774.953 333.394 771.726 336.220 C 764.603 342.458, 744.452 355.066, 737.027 357.929 C 727.437 361.628, 716.552 363.424, 709.259 362.513 C 702.785 361.704, 693.987 359.219, 694.031 358.211 C 694.048 357.820, 695.960 356.066, 698.281 354.313 C 710.176 345.328, 727.139 325.995, 736.813 310.399 C 757.667 276.775, 771.757 227.757, 768.087 201.601 C 765.334 181.981, 755.097 171.607, 738.500 171.620 C 730.057 171.626, 724.970 173.935, 713.872 182.797 C 682.832 207.582, 661.565 252.940, 659.386 299 C 658.365 320.601, 662.748 337.877, 672.535 350.823 C 674.890 353.938, 676.610 356.821, 676.358 357.230 C 676.105 357.639, 672.747 358.931, 668.894 360.101 C 663.216 361.825, 660.028 362.153, 652.057 361.833 C 642.894 361.465, 641.645 361.151, 633.703 357.215 C 623.469 352.145, 614.358 343.016, 608.607 332.071 L 604.936 325.087 609.551 315.898 C 614.888 305.272, 621.100 287.333, 624.105 273.868 C 626.762 261.965, 627.904 229.672, 625.994 220.471 C 624.343 212.517, 619.166 206.997, 613.368 207.007 C 602.735 207.025, 595.630 219.658, 590.888 246.980 C 586.777 270.668, 587.318 295.455, 592.373 314.917 C 595.040 325.182, 595.443 323.770, 586.732 334.654 C 573 351.812, 553.972 361.370, 533.500 361.396 C 524.324 361.407, 523.047 361.165, 518 358.458 C 510.851 354.624, 501.924 345.758, 498.592 339.181 C 495.411 332.905, 493.359 324.936, 492.494 315.500 L 491.852 308.500 499.676 304.647 C 538.585 285.488, 570.258 256.384, 588.255 223.254 C 594.889 211.042, 597.118 203.423, 597.173 192.774 C 597.213 185.139, 596.894 183.496, 594.623 179.620 C 587.179 166.917, 569.052 168.516, 549.313 183.617 C 526.323 201.205, 504.830 231.121, 493.718 261 C 490.020 270.944, 485 291.557, 485 296.799 C 485 298.481, 484.327 300.530, 483.504 301.353 C 480.224 304.633, 443.401 316.969, 436.815 316.994 C 435.407 316.999, 435.756 315.642, 438.937 308.750 C 441.031 304.213, 444.350 295.531, 446.311 289.458 C 466.581 226.698, 454.462 158.450, 414.089 108 C 401.189 91.881, 380.632 73.722, 364.844 64.500 C 361.355 62.463, 358.323 60.627, 358.107 60.422 C 355.791 58.217, 387.579 36.062, 407.736 25.832 C 437.834 10.558, 468.991 4.151, 500.247 6.809 C 508.086 7.475, 518.550 8.919, 523.500 10.016 C 571.504 20.661, 614.699 51.524, 644.889 96.750 C 648.285 101.838, 651.387 105.993, 651.782 105.985 C 652.177 105.976, 653.161 105.551, 653.969 105.040 C 655.168 104.282, 654.029 102.020, 647.780 92.757 C 616.833 46.872, 571.852 14.920, 524.460 5.155 C 506.658 1.487, 485.848 0.321, 470 2.103 M 877.004 21.156 C 869.692 24.810, 858.460 35.543, 849.943 47.015 C 827.636 77.062, 805.964 128.509, 792.619 183.097 C 783.364 220.953, 777.867 266.395, 779.446 292 C 780.480 308.778, 782.273 325, 783.093 325 C 785.542 325, 805.718 299.599, 817.271 281.971 C 850.388 231.442, 876.033 171.269, 891.465 107.881 C 898.570 78.700, 900.401 66.195, 900.454 46.500 C 900.497 30.766, 900.333 29.188, 898.263 25.316 C 893.845 17.050, 887.647 15.837, 877.004 21.156 M 272.500 51.082 C 232.820 56.203, 196.007 87.906, 186.023 125.554 C 179.115 151.603, 185.339 186.848, 202.328 217.886 L 207.465 227.271 210.159 223.886 C 211.640 222.023, 225.097 204.300, 240.064 184.500 C 283.408 127.156, 301.656 105.308, 328.393 78.747 C 336.584 70.610, 343.109 63.795, 342.893 63.603 C 339.677 60.746, 319.319 54.361, 307.737 52.576 C 294.971 50.608, 280.820 50.009, 272.500 51.082 M 332.829 82.256 C 316.184 98.822, 297.004 120.472, 279.461 142.500 C 269.745 154.700, 213.639 228.533, 211.715 231.650 C 210.286 233.965, 226.496 252.995, 243 268.378 C 281.220 304.002, 330.867 323.093, 384.962 322.966 C 399.494 322.932, 420.534 321.024, 422.968 319.520 C 427.013 317.020, 439.318 284.284, 442.933 266.404 C 447.510 243.771, 448.126 216.978, 444.540 196.500 C 435.744 146.274, 404.916 100.465, 361.695 73.397 C 356.088 69.885, 350.748 67.009, 349.829 67.006 C 348.909 67.003, 341.259 73.865, 332.829 82.256 M 569 182.313 C 545.506 191.992, 517.425 226.199, 503.105 262.587 C 498.866 273.359, 492.524 295.857, 493.462 296.795 C 494.683 298.017, 519.650 283.185, 531.855 273.988 C 561.170 251.896, 581.051 225.996, 587.122 201.990 C 591.854 183.277, 584.924 175.753, 569 182.313 M 731.687 181.974 C 716.459 187.924, 696.986 210.097, 685.094 235.028 C 668.505 269.805, 663.741 306.200, 672.485 331.345 C 675.060 338.748, 683.342 352, 685.394 352 C 686.044 352, 690.231 349.076, 694.698 345.502 C 723.817 322.204, 745.664 283.717, 756.574 236.500 C 764.210 203.455, 756.832 179.758, 739 180.052 C 737.625 180.075, 734.334 180.940, 731.687 181.974 M 608.977 219.250 C 601.374 231.648, 596.066 262.526, 597.331 287 C 597.944 298.874, 599.580 309.895, 600.938 311.307 C 602.743 313.184, 612.267 286.620, 615.389 271 C 619.221 251.832, 619.471 226.517, 615.906 218.694 C 614.250 215.059, 611.408 215.287, 608.977 219.250 M 193.500 254.755 C 175.403 277.320, 164.485 289.658, 147.983 306.193 L 132.321 321.887 142.911 326.612 C 148.735 329.210, 163.400 336.029, 175.500 341.765 C 222.831 364.201, 242.727 372.567, 259.226 376.968 C 275.802 381.390, 288.363 382.987, 306.619 382.994 C 343.270 383.008, 372.706 372.724, 397.611 351.206 C 404.753 345.035, 416.707 331.374, 415.777 330.444 C 415.504 330.170, 411.279 330.405, 406.390 330.965 C 392.787 332.523, 363.053 332.244, 352.014 330.454 C 316.859 324.752, 281.700 309.795, 252.596 288.159 C 240.329 279.040, 221.081 260.455, 212.300 249.250 C 208.744 244.713, 205.534 241.009, 205.167 241.020 C 204.800 241.031, 199.550 247.212, 193.500 254.755 M 28.500 312.335 C 15.468 316.687, 9 323.414, 9 332.615 C 9 339.757, 14.860 346.270, 24.668 350.031 C 32.892 353.184, 53.172 353.951, 65.081 351.559 C 74.370 349.693, 88.501 344.446, 97 339.708 C 104.777 335.372, 117 327.087, 117 326.152 C 117 324.893, 91.609 317.126, 78.500 314.374 C 63.723 311.273, 35.167 310.108, 28.500 312.335 M 928.847 380.985 C 910.668 383.256, 894.934 389.270, 859 407.684 C 844.425 415.153, 832.351 421.391, 832.169 421.546 C 831.225 422.351, 849.100 433.773, 860.049 439.363 C 883.101 451.132, 902.539 456.005, 926.381 455.993 C 946.485 455.983, 960.789 452.245, 974.948 443.301 C 987.567 435.330, 992.345 428.366, 992.386 417.889 C 992.449 401.691, 979.347 387.908, 958.862 382.622 C 951.488 380.720, 937.208 379.941, 928.847 380.985 M 766.235 437.478 C 761.875 439.398, 761.048 441.811, 763.944 444.156 C 767.104 446.715, 770.632 446.459, 773.637 443.454 C 775.968 441.123, 776.060 440.722, 774.727 438.704 C 772.921 435.971, 770.462 435.616, 766.235 437.478 M 312 445.382 C 312 448.843, 344.204 461.758, 363 465.834 C 377.808 469.046, 405.767 473.030, 413.500 473.030 C 420.418 473.031, 424.199 474.134, 422.638 475.696 C 421.262 477.073, 405.448 477.263, 391.676 476.068 C 378.676 474.939, 356.025 470.297, 339.744 465.424 C 330.238 462.578, 329 462.478, 329 464.555 C 329 466.817, 352.022 476.699, 367.044 480.886 C 390.343 487.380, 426.995 490.168, 453.348 487.450 C 483.465 484.345, 506.631 479.830, 536 471.342 C 551.525 466.856, 574.088 459.350, 579.250 456.955 C 582.274 455.552, 582.869 453.271, 580.453 452.344 C 577.496 451.209, 560.540 454.121, 541.577 459.019 C 499.807 469.810, 458 476.839, 458 473.071 C 458 472.082, 462.705 471.006, 478 468.497 C 489.834 466.556, 505.926 463.005, 508.250 461.821 C 509.212 461.331, 510 460.240, 510 459.397 C 510 458.045, 507.732 457.961, 490.750 458.682 C 425.247 461.465, 368.742 457.731, 333 448.257 C 316.080 443.772, 312 443.214, 312 445.382 M 392.343 544.038 C 383.969 548.100, 377.674 555.444, 380.873 557.421 C 381.873 558.040, 397.323 548.985, 400.732 545.782 C 406.354 540.500, 401.652 539.522, 392.343 544.038 M 340.500 571.997 C 336.650 574.178, 330.668 577.428, 327.206 579.218 C 321.758 582.035, 320.952 582.810, 321.206 584.986 C 321.445 587.029, 321.968 587.439, 324 587.174 C 331.452 586.203, 350 573.890, 350 569.914 C 350 567.172, 348.394 567.525, 340.500 571.997"/>
</svg>