<?xml version="1.0" encoding="utf-8"?>
<svg xmlns="http://www.w3.org/2000/svg" width="1002" height="487" viewBox="0 0 1002 487">
  <path fill-rule="evenodd" d="M 915.337 3.172 C 913.597 3.759, 910.104 5.950, 907.575 8.039 C 904.511 10.571, 901.229 12.213, 897.738 12.960 C 890.587 14.491, 885.634 18.194, 881.385 25.189 C 878.651 29.689, 876.754 31.575, 873.351 33.175 C 867.992 35.694, 864.878 39.559, 861.999 47.264 C 860.514 51.240, 859.017 53.460, 857.173 54.419 C 851.706 57.264, 847 64.729, 847 70.557 C 847 72.341, 845.592 74.547, 842.590 77.464 C 837.202 82.701, 835.153 86.501, 834.358 92.733 C 833.886 96.436, 832.896 98.393, 829.923 101.500 C 825.313 106.316, 823 111.509, 823 117.039 C 823 120.505, 822.262 121.985, 818.250 126.573 C 811.319 134.497, 803.334 136.235, 796.038 131.406 C 792.639 129.157, 791.104 128.823, 784.473 128.891 C 777.627 128.962, 776.454 128.685, 773.257 126.247 C 770.244 123.949, 768.499 123.467, 762.093 123.163 C 755.795 122.865, 754.074 122.403, 752 120.455 C 748.362 117.037, 742.774 115, 737.035 115 C 732.703 115, 731.475 114.520, 728.178 111.542 C 723.502 107.317, 720.230 106, 714.413 106 C 710.611 106, 709.324 105.418, 705.667 102.047 C 700.782 97.544, 697.386 96, 692.369 96 C 688.122 96, 686.574 95.221, 681.707 90.630 C 677.800 86.946, 672.840 85.015, 667.256 85.006 C 664.773 85.001, 662.973 83.976, 659.589 80.640 C 655.134 76.248, 649.600 74, 643.244 74 C 641.337 74, 639.389 72.963, 637.437 70.911 C 633.317 66.577, 629.618 64.883, 622.294 63.974 C 617.026 63.321, 615.288 62.590, 612.046 59.660 C 607.619 55.661, 602.783 54.014, 595.444 54.006 C 591.641 54.001, 589.557 53.387, 587.033 51.524 C 581.888 47.728, 577.516 46.665, 569.947 47.368 C 564.445 47.880, 562.407 47.632, 558.853 46.019 C 553.457 43.571, 546.018 43.446, 539.734 45.698 C 535.693 47.147, 534.285 47.223, 530.470 46.203 C 523.623 44.372, 520.075 44.730, 513.302 47.934 C 508.072 50.408, 506.275 50.781, 501.802 50.323 C 495.064 49.633, 489.289 51.194, 484.497 55.002 C 481.432 57.438, 479.767 58.004, 475.612 58.022 C 469.344 58.049, 463.988 60.385, 457.682 65.842 C 454.652 68.465, 451.885 70.008, 450.189 70.022 C 445.537 70.060, 439.479 73.573, 435.090 78.778 C 431.940 82.514, 429.788 84.074, 426.678 84.876 C 424.380 85.468, 421.032 86.861, 419.237 87.970 C 416.240 89.822, 415.172 91.515, 412.146 99.209 C 411.503 100.844, 409.379 102.771, 406.790 104.069 C 399.389 107.780, 394 114.050, 394 118.950 C 394 121.914, 395.100 121.511, 399.547 116.915 C 403.586 112.742, 408.353 109.845, 415.103 107.464 C 418.769 106.170, 419.211 106.275, 427.950 110.529 C 435.680 114.291, 437 115.290, 437 117.378 C 437 118.884, 435.809 120.824, 433.896 122.434 C 430.993 124.876, 430.221 125.028, 421.970 124.773 C 413.408 124.508, 413.056 124.587, 410.074 127.437 C 405.386 131.916, 406.677 134.849, 412.066 131.965 C 413.742 131.068, 414 131.268, 414 133.465 C 414 136.307, 416.058 136.840, 418 134.500 C 419.715 132.433, 421 132.622, 421 134.941 C 421 137.822, 422.754 138.376, 424.217 135.958 C 424.923 134.792, 428.200 132.553, 431.500 130.982 C 438.472 127.664, 439.427 126.914, 443.761 121.362 C 446.152 118.299, 447.965 117.044, 450.745 116.528 C 455.894 115.574, 460.492 112.558, 463.010 108.484 C 464.609 105.896, 466.016 104.924, 468.811 104.476 C 476.205 103.291, 477.190 102.866, 481.309 99.088 C 485.098 95.613, 486.123 95.204, 492 94.825 C 496.912 94.508, 499.478 93.752, 502.504 91.733 C 505.982 89.411, 507.425 89.083, 513.504 89.230 C 519.119 89.367, 521.387 88.938, 524.991 87.057 C 529.009 84.960, 529.931 84.834, 533.755 85.857 C 539.430 87.375, 542.904 87.298, 547.872 85.545 C 551.765 84.172, 552.290 84.228, 557.248 86.547 C 561.672 88.616, 563.405 88.904, 568.238 88.374 C 573.370 87.811, 574.328 88.013, 577.307 90.285 C 581.185 93.243, 587.014 95.014, 592.227 94.818 C 595.142 94.708, 596.716 95.414, 599.835 98.232 C 603.576 101.611, 610.347 104, 616.187 104 C 617.336 104, 620.192 105.766, 622.533 107.924 C 626.806 111.863, 632 113.984, 637.396 113.994 C 639.433 113.998, 641.682 115.300, 644.976 118.381 C 649.432 122.549, 655.685 125, 661.862 125 C 662.832 125, 664.948 126.390, 666.563 128.089 C 670.581 132.315, 674.220 134.042, 681.187 135.026 C 685.936 135.698, 687.896 136.577, 691.105 139.476 C 695.874 143.784, 697.764 144.578, 705.565 145.548 C 710.236 146.128, 712.338 147.001, 715.435 149.647 C 719.839 153.409, 724.392 154.986, 730.874 154.994 C 734.306 154.999, 736.537 155.861, 741.238 159 C 746.839 162.741, 747.694 163, 754.420 163 C 760.537 163, 762.122 163.377, 765.029 165.522 C 769.677 168.951, 775.222 170.277, 781.905 169.559 C 786.975 169.015, 787.955 169.248, 792.354 172.046 C 796.868 174.917, 797.164 175.355, 796.588 178.316 C 796.247 180.067, 795.691 184.756, 795.353 188.736 C 794.548 198.216, 793.830 198.769, 785.068 196.654 C 781.298 195.744, 776.801 195, 775.074 195 C 773.347 195, 769.586 193.799, 766.717 192.332 C 759.832 188.811, 751.451 188.655, 745.094 191.930 C 741.353 193.857, 739.769 194.102, 734.594 193.551 C 727.204 192.765, 721.600 194.486, 715.126 199.530 C 711.961 201.996, 709.634 203.006, 707.086 203.022 C 703.548 203.044, 696.935 205.655, 693.985 208.195 C 693.151 208.913, 691.038 211.334, 689.289 213.575 C 687.141 216.328, 684.787 218.047, 682.038 218.871 C 676.469 220.539, 671.412 225.247, 668.028 231.913 C 665.991 235.928, 664.132 238.063, 661.422 239.500 C 656.415 242.156, 652.358 247.958, 651.028 254.365 C 650.172 258.489, 649.018 260.481, 645.525 263.866 C 640.717 268.526, 639.299 271.775, 638.660 279.597 C 638.353 283.358, 637.317 286.042, 634.703 289.842 C 630.456 296.015, 629.578 299.470, 630.461 306.531 C 631.031 311.094, 630.759 312.543, 628.563 316.670 C 625.705 322.038, 625.248 328.158, 627.168 335.338 C 628.146 338.995, 628.065 340.381, 626.668 343.872 C 624.206 350.025, 624.565 355.577, 627.877 362.578 C 630.144 367.371, 630.742 370.015, 630.705 375.078 C 630.651 382.398, 632.345 386.541, 637.665 392.098 C 640.471 395.029, 641.270 396.838, 641.980 401.860 C 642.459 405.250, 643.790 409.542, 644.937 411.398 C 646.792 414.400, 656.342 422, 658.259 422 C 660.107 422, 658.710 418.099, 655.908 415.437 C 649.126 408.994, 646.794 399.061, 650.429 392.102 C 654.008 385.251, 663.054 374, 664.983 374 C 669.551 374, 671.244 381.221, 668.500 389 C 666.386 394.991, 666.594 400.215, 669.073 403.365 C 671.732 406.746, 674 406.788, 674 403.455 C 674 401.087, 674.245 400.955, 677.500 401.566 C 681.549 402.325, 681.865 401.550, 678.826 398.314 L 676.651 396 679.326 396 C 682.809 396, 682.709 394.465, 679 391 C 676.330 388.506, 675.999 387.555, 675.995 382.349 C 675.990 376.579, 675.633 375.670, 670.588 368.554 C 669.172 366.556, 668.726 364.388, 668.866 360.179 C 669.004 356.044, 668.487 353.449, 666.965 350.636 C 664.991 346.989, 664.962 346.553, 666.437 342.866 C 668.236 338.370, 668.459 332.337, 666.970 328.422 C 666.122 326.191, 666.386 324.860, 668.470 320.875 C 670.461 317.068, 671 314.574, 671 309.173 C 671 303.469, 671.355 301.989, 673.102 300.407 C 676.281 297.531, 678 293.548, 678 289.060 C 678 285.634, 678.734 284.210, 682.839 279.677 C 686.087 276.092, 688.059 272.824, 688.834 269.745 C 689.810 265.870, 690.652 264.791, 694.245 262.814 C 697.266 261.152, 699.312 258.961, 701.300 255.262 C 703.697 250.800, 704.700 249.889, 708.269 248.928 C 711.078 248.171, 713.988 246.206, 717.188 242.902 C 721.452 238.502, 722.387 238, 726.319 238 C 729.513 238, 731.891 237.199, 735.100 235.043 C 739.028 232.403, 740.090 232.143, 745 232.625 C 748.518 232.970, 751.942 232.652, 754.500 231.742 C 758.299 230.391, 758.816 230.464, 764.789 233.181 C 768.249 234.755, 771.353 236.820, 771.687 237.771 C 772.022 238.722, 773.422 241.021, 774.798 242.881 L 777.301 246.261 775.450 251.381 C 774.271 254.639, 773.662 258.775, 773.774 262.756 C 773.931 268.338, 773.603 269.505, 770.725 273.587 C 767.746 277.814, 767.496 278.786, 767.442 286.331 C 767.393 293.367, 767.006 295.146, 764.651 299.158 C 762.237 303.272, 761.938 304.739, 762.087 311.735 C 762.241 318.926, 761.993 320.054, 759.392 323.984 C 756.752 327.974, 756.542 328.976, 756.711 336.800 C 756.856 343.511, 756.484 346.091, 754.935 349.127 C 753.858 351.238, 752.609 355.657, 752.159 358.947 C 751.446 364.160, 750.746 365.564, 746.711 369.878 C 744.165 372.600, 741.799 376.104, 741.453 377.664 C 740.012 384.171, 739.146 385.635, 735.145 388.335 C 732.294 390.259, 730.004 393.030, 728.023 396.954 C 725.615 401.724, 724.262 403.155, 720.302 405.119 C 717.319 406.598, 714.182 409.290, 712.019 412.227 C 708.979 416.355, 707.869 417.093, 703.264 418.049 C 699.471 418.836, 696.938 420.155, 694.245 422.744 C 691.051 425.815, 689.544 426.464, 684 427.160 C 679.255 427.756, 676.337 428.795, 673.190 431.010 C 669.160 433.847, 668.476 434.002, 662.647 433.405 C 657.459 432.873, 655.533 433.145, 651.159 435.027 C 646.427 437.063, 645.514 437.160, 641.998 435.999 C 639.601 435.208, 635.934 434.933, 632.504 435.287 C 627.355 435.819, 626.654 435.635, 623.599 432.953 C 621.775 431.351, 618.542 429.469, 616.414 428.770 C 613.333 427.759, 612.017 426.500, 609.951 422.590 C 608.430 419.711, 605.627 416.481, 603.178 414.785 C 600.428 412.880, 598.998 411.140, 598.994 409.695 C 598.983 405.012, 596.741 399.808, 593.219 396.285 C 589.915 392.982, 589.478 391.921, 588.922 385.846 C 588.416 380.325, 587.644 378.114, 584.715 373.792 C 581.215 368.629, 581.146 368.341, 581.874 362 C 582.284 358.425, 583.648 353.522, 584.905 351.104 C 586.309 348.403, 587.459 343.894, 587.887 339.413 C 588.303 335.052, 589.222 331.390, 590.171 330.309 C 593.897 326.064, 595.335 321.553, 595.210 314.500 C 595.105 308.619, 595.470 306.940, 597.491 304 C 600.611 299.462, 601.903 293.451, 601.016 287.606 C 600.403 283.566, 600.710 282.170, 603.289 277.274 C 606.114 271.909, 606.239 271.173, 605.675 263.188 C 605.183 256.211, 605.394 254.138, 606.905 251.131 C 609.745 245.478, 610.163 241.046, 608.468 234.540 C 607.085 229.228, 607.084 228.246, 608.465 224.796 C 611.431 217.382, 609.780 207.334, 604.446 200.341 C 597.316 190.992, 573.161 183.605, 560.877 187.017 C 556.240 188.306, 548.494 195.112, 545.917 200.162 C 542.868 206.138, 540.277 206.846, 533.151 203.648 C 525.391 200.166, 518.428 200.122, 511.151 203.510 C 507.311 205.297, 504.099 206, 499.767 206 C 491.178 206, 486.703 207.657, 480.403 213.170 C 476.776 216.344, 473.961 218.008, 472.192 218.022 C 465.969 218.073, 457.744 224.078, 454.677 230.809 C 454.083 232.114, 451.113 234.438, 448.050 235.996 C 441.237 239.462, 436.496 244.258, 434.685 249.519 C 433.734 252.281, 431.727 254.725, 428.131 257.500 C 422.105 262.150, 419.868 265.503, 417.612 273.262 C 416.461 277.224, 415.119 279.491, 413.060 280.957 C 408.647 284.100, 405.990 289.198, 404.846 296.717 C 404.061 301.882, 403.148 304.215, 401.019 306.500 C 396.509 311.341, 395 315.308, 395 322.329 C 395 327.944, 394.547 329.501, 391.419 334.629 C 387.950 340.317, 387.852 340.749, 388.267 348.483 C 388.641 355.434, 388.393 357.036, 386.348 360.882 C 383.777 365.716, 383.209 373.755, 384.997 379.990 C 385.795 382.772, 385.579 384.665, 383.918 389.465 C 381.462 396.562, 381.918 401.932, 385.594 409.186 C 387.364 412.678, 388.006 415.594, 388.022 420.217 C 388.050 428.098, 390.488 433.709, 396.370 439.426 C 399.588 442.554, 401.206 445.198, 402.387 449.260 C 403.658 453.631, 405.046 455.755, 408.891 459.212 C 411.579 461.629, 415.741 464.232, 418.140 464.996 C 420.538 465.759, 424.238 467.918, 426.363 469.792 C 428.488 471.666, 432.088 474.044, 434.363 475.078 C 439.586 477.449, 449.490 477.588, 455.042 475.367 C 457.953 474.202, 460.740 473.900, 464.756 474.314 C 472.797 475.144, 478.944 473.518, 485.083 468.938 C 488.439 466.434, 491.437 465, 493.315 465 C 499.958 465, 504.376 462.734, 511 455.927 C 515.237 451.574, 518.860 448.812, 521.405 447.995 C 526.309 446.422, 533.360 439.469, 534.957 434.631 C 535.858 431.900, 537.522 430.088, 541.418 427.596 C 544.504 425.622, 547.867 422.337, 549.583 419.621 C 551.187 417.082, 553.230 415.003, 554.123 415.002 C 555.015 415.001, 557.551 416.959, 559.758 419.354 C 562.711 422.556, 564.076 425.134, 564.924 429.104 C 566.443 436.210, 569.918 441.281, 575.518 444.563 C 578.533 446.331, 580.781 448.638, 582.148 451.369 C 586.276 459.616, 593.592 465.271, 601.841 466.591 C 604.196 466.967, 607.970 468.816, 610.940 471.047 C 618.130 476.450, 625.230 477.929, 633.526 475.753 C 639.137 474.281, 640.231 474.269, 644.625 475.626 C 650.406 477.411, 656.264 476.868, 662.841 473.936 C 666.493 472.308, 668.617 471.996, 672.665 472.491 C 679.275 473.299, 684.958 471.750, 691.244 467.426 C 695.135 464.749, 697.239 463.995, 700.862 463.978 C 707.061 463.949, 713.018 461.087, 718.393 455.557 C 721.126 452.745, 723.717 450.992, 725.161 450.978 C 731.074 450.923, 741.625 442.907, 743.481 437.061 C 743.894 435.759, 746.219 433.945, 749.333 432.493 C 752.175 431.169, 755.941 428.899, 757.703 427.450 L 760.907 424.816 763.453 427.362 C 765.136 429.045, 766.007 431.027, 766.022 433.205 C 766.068 440.141, 772.311 449.588, 779.157 453.080 C 781.609 454.331, 784.170 456.871, 786.035 459.903 C 790.833 467.700, 798.318 472, 807.095 472 C 810.141 472, 814.357 472.967, 818 474.500 C 826.558 478.102, 834.506 477.942, 842.840 473.999 C 847.221 471.926, 850.706 471, 854.123 471 C 860.755 471, 867.644 467.397, 872.810 461.227 C 875.665 457.817, 878.134 455.977, 881.010 455.115 C 886.821 453.374, 892.428 447.918, 895.147 441.359 C 896.943 437.025, 898.258 435.399, 901.165 433.916 C 906.143 431.376, 909.758 426.404, 911.993 419.021 C 913.304 414.694, 915.006 411.759, 917.862 408.903 C 922.543 404.222, 924.367 399.578, 924.403 392.250 C 924.421 388.557, 923.910 386.481, 922.678 385.250 C 921.147 383.719, 920.809 383.688, 919.979 385 C 919.457 385.825, 919.024 388.427, 919.015 390.782 C 918.996 396.103, 917.079 400.741, 913.551 404 C 910.989 406.367, 910.130 406.517, 897.370 406.828 C 883.758 407.160, 881 406.585, 881 403.412 C 881 401.114, 886.947 395.167, 889.792 394.620 C 905.488 391.600, 906.535 391.107, 907.983 386.060 C 909.077 382.243, 906.989 380.795, 904.126 383.386 C 902.444 384.908, 902.246 384.835, 901.073 382.260 L 899.818 379.507 897.888 381.890 C 896.088 384.113, 895.837 384.163, 894.151 382.636 C 891.648 380.372, 891.313 380.521, 890.008 384.475 C 889.143 387.096, 887.643 388.614, 883.905 390.648 C 878.444 393.621, 875.536 397.515, 874.465 403.293 C 874.026 405.660, 872.835 407.729, 871.298 408.793 C 865.423 412.864, 862.230 416.165, 860.538 419.916 C 859.035 423.249, 857.933 424.194, 854.038 425.487 C 851.459 426.344, 847.832 428.610, 845.978 430.522 C 843.042 433.552, 841.982 434, 837.754 434 C 835.085 434, 831.590 434.678, 829.989 435.506 C 827.329 436.881, 826.706 436.843, 822.789 435.062 C 820.430 433.989, 817.268 432.855, 815.763 432.540 C 814.257 432.226, 812.261 430.738, 811.327 429.234 C 810.392 427.730, 807.687 424.659, 805.314 422.409 C 801.626 418.912, 801 417.736, 801 414.309 C 801 411.388, 800.134 409.106, 797.810 405.900 C 794.932 401.930, 794.611 400.768, 794.524 394 C 794.470 389.875, 793.790 385.059, 793.012 383.298 C 791.821 380.600, 791.804 379.289, 792.908 374.981 C 793.755 371.677, 793.981 367.644, 793.546 363.586 C 792.965 358.161, 793.189 356.704, 795.187 352.902 C 797.045 349.366, 797.500 346.926, 797.500 340.500 C 797.500 333.700, 797.875 331.900, 800 328.500 C 802.125 325.100, 802.500 323.300, 802.500 316.500 C 802.500 309.700, 802.875 307.900, 805 304.500 C 807.073 301.183, 807.536 299.089, 807.713 292.232 C 807.901 284.932, 808.248 283.541, 810.674 280.361 C 813.043 277.255, 813.495 275.550, 813.961 267.983 C 814.348 261.679, 814.982 258.675, 816.212 257.317 C 819.332 253.872, 821.060 248.171, 820.820 242.110 C 820.621 237.057, 820.948 235.850, 823.269 233.093 C 826.524 229.223, 828.376 222.838, 827.701 217.805 C 827.276 214.639, 827.745 213.373, 830.782 209.473 C 833.994 205.351, 834.424 204.071, 834.936 197.100 C 835.432 190.353, 835.903 188.860, 838.504 185.805 C 840.152 183.869, 842.267 181.340, 843.204 180.184 C 844.673 178.374, 845.613 178.167, 850 178.686 C 853.549 179.107, 856.919 178.736, 861.127 177.461 C 866.398 175.866, 867.915 175.789, 873.081 176.856 C 879.536 178.189, 884.291 177.423, 891.093 173.952 C 893.851 172.546, 895.993 172.247, 900.205 172.682 C 906.855 173.368, 911.110 172.093, 917.622 167.464 C 921.356 164.809, 923.494 164, 926.779 164 C 932.920 164, 937.718 161.664, 944 155.616 C 947.621 152.130, 950.973 149.905, 953.812 149.102 C 959.252 147.564, 965.453 142.013, 968.542 135.917 C 969.864 133.308, 972.394 130.300, 974.214 129.174 C 981.221 124.837, 986.930 116.028, 986.978 109.482 C 986.993 107.464, 988.303 104.886, 990.931 101.707 C 996.096 95.455, 997.395 91.255, 996.706 83.029 C 996.259 77.704, 996.544 75.502, 998.137 71.943 C 1000.328 67.049, 1000.819 57.285, 999.102 52.767 C 998.539 51.286, 996.904 48.301, 995.469 46.132 C 994.034 43.964, 992.177 39.559, 991.344 36.345 C 990.510 33.130, 988.926 29.031, 987.824 27.236 C 985.452 23.374, 979.312 18.992, 972.872 16.565 C 970.327 15.606, 967.355 13.619, 966.269 12.149 C 965.182 10.680, 961.865 8.153, 958.897 6.535 C 954.073 3.906, 952.438 3.569, 943.500 3.361 C 938 3.234, 930.125 2.899, 926 2.617 C 921.825 2.331, 917.098 2.577, 915.337 3.172 M 917.003 9.752 C 915.080 10.713, 913.357 12.300, 913.174 13.279 C 912.742 15.593, 933.853 36.674, 937.524 37.595 C 939.335 38.050, 940.681 37.747, 941.793 36.636 C 943.291 35.138, 943.205 34.364, 940.684 26.623 C 935.274 10.010, 927.526 4.490, 917.003 9.752 M 366.656 11.487 C 364.439 13.704, 360.419 14.998, 355.685 15.018 C 352.943 15.030, 349.634 16.065, 346.090 18.018 C 341.679 20.449, 339.504 21, 334.308 21 C 326.929 21, 323.178 22.351, 316.590 27.379 C 312.986 30.131, 310.897 31, 307.891 31 C 302.157 31, 297.150 33.452, 292.343 38.614 C 289.161 42.031, 286.858 43.482, 283.003 44.499 C 276.756 46.147, 272.055 49.607, 267.946 55.579 C 265.715 58.821, 263.363 60.749, 259.620 62.405 C 256.524 63.774, 252.900 66.468, 250.706 69.030 L 247.011 73.348 240.455 72.140 C 234.916 71.119, 232.911 71.180, 227.524 72.531 C 221.723 73.986, 220.733 73.989, 216.539 72.565 C 210.216 70.418, 205.503 70.635, 198.832 73.379 C 194.102 75.324, 191.939 75.632, 185.764 75.235 C 177.884 74.730, 174.995 75.621, 168.317 80.618 C 166.093 82.282, 163.810 83, 160.745 83 C 153.901 83, 147.836 85.572, 142.957 90.544 C 139.639 93.924, 137.148 95.416, 132.770 96.645 C 126.191 98.491, 119.024 104.113, 116.990 109.025 C 116.074 111.237, 114.078 112.942, 109.988 115.006 C 103.164 118.451, 99.670 122.331, 97.274 129.128 C 95.905 133.011, 94.424 134.934, 90.783 137.554 C 85.304 141.497, 82.137 147.047, 81.292 154.184 C 80.827 158.107, 79.844 160.215, 76.878 163.640 C 72.124 169.133, 69.745 176.598, 70.628 183.250 C 71.173 187.361, 70.857 188.847, 68.527 193.128 C 66.144 197.505, 65.833 199.044, 66.161 204.834 C 66.405 209.157, 67.314 212.990, 68.747 215.740 C 70.442 218.991, 70.931 221.556, 70.846 226.740 C 70.709 234.988, 72.631 240.005, 78.047 245.537 C 80.927 248.480, 82.411 251.156, 83.519 255.410 C 85.470 262.901, 87.696 265.940, 94.580 270.509 C 98.593 273.173, 100.666 275.380, 101.950 278.358 C 104.182 283.535, 108.313 287.742, 113.500 290.121 C 120.848 293.492, 125.745 291.860, 119.627 288.079 C 114.250 284.755, 108.199 277.576, 107.461 273.645 C 106.960 270.974, 107.683 267.467, 110.415 259.305 C 114.907 245.886, 115.108 245.559, 118.380 246.381 C 122.717 247.469, 124.291 251.120, 124.401 260.350 C 124.475 266.480, 124.962 269.294, 126.303 271.340 C 129.441 276.129, 136.177 277.716, 133.212 272.968 C 131.396 270.059, 131.730 269.226, 134.500 269.755 C 137.316 270.294, 137.533 269.827, 135.775 267.011 C 134.744 265.360, 134.860 264.823, 136.512 263.615 C 138.407 262.229, 138.363 262.116, 135.217 260.340 C 132.880 259.020, 131.650 257.369, 130.867 254.500 C 128.806 246.948, 127.746 244.985, 124.127 242.013 C 122.132 240.375, 119.719 238.358, 118.764 237.531 C 117.809 236.705, 116.733 234.182, 116.372 231.926 C 115.985 229.507, 114.181 225.780, 111.978 222.848 C 108.741 218.541, 108.340 217.428, 108.985 214.566 C 109.453 212.490, 109.228 209.814, 108.381 207.379 C 106.573 202.187, 106.658 199.036, 108.664 196.819 C 109.741 195.629, 110.540 192.384, 110.930 187.620 C 111.477 180.939, 111.871 179.885, 115.210 176.190 C 117.486 173.670, 119.132 170.668, 119.531 168.310 C 120.613 161.907, 120.869 161.478, 125.575 158.160 C 128.801 155.887, 130.814 153.420, 132.463 149.724 C 134.449 145.268, 135.506 144.178, 139.646 142.310 C 142.968 140.811, 145.689 138.524, 148.269 135.060 C 150.343 132.277, 152.593 129.997, 153.269 129.994 C 156.934 129.978, 162.619 127.436, 166.173 124.225 C 169.631 121.101, 171.116 120.488, 176.614 119.919 C 181.204 119.444, 184.136 118.485, 186.941 116.541 C 190.554 114.037, 191.355 113.879, 197.233 114.508 C 202.038 115.023, 204.547 114.798, 207.426 113.595 C 213.164 111.198, 215.005 111.480, 214.976 114.750 C 214.925 120.619, 213.095 125.100, 208.798 129.879 C 204.311 134.871, 202 140.272, 202 145.771 C 202 147.807, 200.796 150.246, 198.355 153.155 C 193.621 158.799, 192 162.803, 192 168.859 C 192 173.120, 191.468 174.426, 188.045 178.569 C 184.157 183.274, 182 189.452, 182 195.885 C 182 197.572, 180.552 200.530, 178.333 203.378 C 175.107 207.519, 174.595 208.959, 174.071 215.365 C 173.574 221.446, 173 223.211, 170.586 226.073 C 166.502 230.917, 165 235.082, 165 241.559 C 165 246.515, 164.594 247.656, 161.579 251.179 C 157.951 255.417, 155.935 261.843, 156.226 268.239 C 156.354 271.064, 155.750 272.652, 153.751 274.739 C 150 278.655, 148 284.077, 148 290.330 C 148 294.865, 147.505 296.345, 144.893 299.612 C 140.823 304.704, 139.851 307.321, 139.469 314.214 C 139.218 318.729, 138.532 320.723, 136.199 323.714 C 132.573 328.365, 131 332.914, 131 338.755 C 131 342.204, 130.318 344.073, 127.986 347.018 C 123.845 352.246, 122 357.073, 122 362.676 C 122 366.726, 121.499 367.931, 118.555 370.958 C 115.244 374.363, 114.568 376.150, 112.300 387.500 C 111.328 392.358, 108.631 393.171, 103.666 390.102 C 101.850 388.980, 97.556 387.407, 94.125 386.606 C 90.694 385.806, 86.450 384.059, 84.693 382.724 C 78.739 378.198, 75.354 377, 68.518 377 C 64.898 377, 60.405 377.640, 58.534 378.421 C 56.465 379.286, 52.068 379.797, 47.316 379.726 C 37.272 379.575, 31.967 381.843, 25.918 388.874 C 23.488 391.698, 19.623 394.892, 17.329 395.972 C 12.329 398.326, 6.829 403.775, 4.361 408.821 C 2.870 411.869, 2.522 415.500, 2.332 430 C 2.112 446.829, 2.199 447.699, 4.592 452.682 C 5.960 455.531, 8.650 459.241, 10.568 460.925 C 12.486 462.610, 15.662 466.728, 17.625 470.077 C 23.588 480.253, 32.441 484.679, 44.747 483.639 C 50.268 483.172, 53.428 483.426, 57.125 484.636 C 63.543 486.735, 69.725 485.926, 77.265 482.001 C 80.435 480.351, 84.541 479, 86.389 479 C 90.586 479, 97.188 476.714, 101.158 473.887 C 102.823 472.702, 106.158 468.654, 108.570 464.891 C 113.305 457.504, 115.381 456.313, 121.728 457.343 C 124.435 457.783, 126.436 459.176, 129.672 462.876 C 134.736 468.664, 140.976 472, 146.739 472 C 149.929 472, 151.920 472.819, 155.649 475.666 C 161.919 480.451, 167.903 482.223, 175.061 481.414 C 179.600 480.900, 181.418 481.173, 184.734 482.864 C 190.978 486.050, 196.176 486.520, 203.431 484.556 C 208.469 483.192, 210.558 483.061, 213.633 483.915 C 220.916 485.937, 226.306 485.280, 233.431 481.500 C 238.672 478.720, 241.164 478, 245.546 478 C 252.342 478, 257.390 475.984, 262.111 471.384 C 264.928 468.640, 267.238 467.530, 272.611 466.339 C 279.119 464.898, 279.863 464.432, 286.068 457.907 C 289.681 454.108, 293.186 451, 293.858 451 C 298.505 451, 307.363 443.366, 309.942 437.139 C 310.873 434.892, 312.756 433.144, 316.033 431.483 C 321.793 428.564, 327.261 422.411, 328.872 417.033 C 329.742 414.129, 331.256 412.232, 334.466 410.023 C 340.097 406.149, 342.407 402.849, 344.481 395.715 C 345.751 391.343, 347.046 389.253, 349.910 386.952 C 354.686 383.114, 357.828 377.537, 358.668 371.406 C 359.169 367.751, 360.242 365.608, 363.151 362.452 C 367.995 357.197, 370 352.400, 370 346.067 C 370 341.939, 370.523 340.474, 373.003 337.649 C 377.301 332.754, 379 327.971, 379 320.764 C 379 315.753, 379.493 313.738, 381.412 310.914 C 384.841 305.869, 386.201 299.912, 385.453 293.221 C 384.894 288.221, 385.138 286.933, 387.394 283 C 390.221 278.073, 390.904 269.891, 388.955 264.301 C 388.115 261.893, 388.312 260.282, 389.955 256.114 C 392.433 249.827, 392.540 244.942, 390.342 238.492 C 388.969 234.460, 388.883 232.886, 389.842 229.299 C 391.656 222.518, 391.227 217.028, 388.413 211 C 386.274 206.419, 385.952 204.637, 386.484 200.335 C 387.267 194.004, 385.989 188.952, 382.025 182.700 C 379.896 179.343, 378.998 176.682, 378.994 173.715 C 378.985 166.790, 377.182 162.324, 372.005 156.409 C 368.266 152.136, 366.842 149.554, 366.008 145.539 C 364.709 139.280, 361.650 134.848, 355.311 130.038 C 352.382 127.816, 349.593 124.454, 347.815 121 C 344.487 114.538, 342.581 112.829, 334.430 108.997 C 330.133 106.977, 327.598 104.991, 325.748 102.195 C 322.383 97.111, 317.692 94.261, 310.365 92.849 C 303.420 91.511, 299 88.025, 299 83.884 C 299 80.163, 300.996 78.440, 306.967 77.008 C 310.415 76.181, 313.507 74.458, 316.754 71.556 C 320.432 68.267, 322.572 67.169, 326.267 66.673 C 331.350 65.991, 336.241 63.888, 339.500 60.984 C 340.932 59.707, 343.629 59.092, 349 58.818 C 355.075 58.507, 357.260 57.925, 360.500 55.757 C 362.700 54.284, 367.509 52.152, 371.186 51.019 C 380.458 48.163, 390.929 39.863, 389.607 36.418 C 389.062 34.997, 388.612 35.062, 385.745 36.977 C 379.317 41.270, 371.935 44.182, 367.297 44.252 C 363.261 44.313, 362.342 43.915, 360.086 41.128 C 358.664 39.371, 355.552 35.727, 353.172 33.030 C 347.792 26.934, 347.824 24.210, 353.303 22.131 C 356.875 20.776, 357.498 20.849, 363.573 23.344 C 367.129 24.805, 371.178 26, 372.569 26 C 375.527 26, 381 23.386, 381 21.974 C 381 21.438, 380.993 20.680, 380.985 20.289 C 380.976 19.898, 379.159 19.708, 376.946 19.868 C 373.054 20.149, 372.944 20.073, 373.582 17.530 C 374.196 15.083, 374.057 14.947, 371.571 15.571 C 369.111 16.189, 368.951 16.045, 369.532 13.730 C 370.299 10.671, 368.711 9.432, 366.656 11.487 M 944.351 11.527 C 943.660 13.328, 949.413 36.964, 951.547 41.091 C 952.358 42.658, 953.883 44.402, 954.938 44.967 C 959.527 47.423, 961.628 43.208, 962.662 29.471 C 963.182 22.556, 962.977 20.875, 961.183 17.358 C 959.869 14.783, 957.826 12.671, 955.649 11.638 C 951.219 9.536, 945.138 9.476, 944.351 11.527 M 894.331 20.903 C 889.818 22.989, 887.693 25.869, 888.187 29.230 C 888.443 30.968, 890.689 32.135, 900.500 35.625 C 916.381 41.276, 924 41.362, 924 35.893 C 924 33.878, 915.380 25.883, 909.574 22.514 C 903.633 19.065, 899.297 18.607, 894.331 20.903 M 385.320 25.488 C 384.151 26.307, 381.252 27.994, 378.876 29.238 C 373.634 31.983, 373.702 33.530, 379.060 33.412 C 383.489 33.314, 389 29.100, 389 25.813 C 389 23.611, 388.113 23.532, 385.320 25.488 M 971.546 24.925 C 971.232 25.434, 969.674 30.722, 968.085 36.675 C 966.496 42.629, 964.604 49.432, 963.880 51.793 C 962.405 56.603, 963.333 59.293, 966.636 59.791 C 969.354 60.201, 980.335 50.005, 982.914 44.679 C 985.523 39.289, 985.531 36.961, 982.960 31.921 C 980.216 26.542, 973.203 22.244, 971.546 24.925 M 326.250 28.973 C 320.419 31.620, 320.543 34.253, 326.750 39.563 C 341.146 51.876, 349.764 55.441, 354.961 51.232 C 357.258 49.373, 357.308 49.120, 355.831 46.879 C 352.490 41.811, 340.876 30.169, 337.620 28.624 C 333.248 26.549, 331.470 26.604, 326.250 28.973 M 305.123 38.013 C 300.733 39.035, 296.587 43.125, 297.387 45.644 C 298.041 47.703, 308.619 54.522, 316.377 57.886 C 319.060 59.049, 323.172 60, 325.516 60 C 330.722 60, 334.589 57.331, 333.576 54.438 C 332.402 51.084, 315.608 38.901, 310.500 37.698 C 309.400 37.438, 306.980 37.580, 305.123 38.013 M 874.420 39.818 C 870.681 42.180, 868.184 47.482, 869.687 49.868 C 871.154 52.198, 882.842 54.155, 893.171 53.799 C 900.784 53.536, 902.161 53.199, 904.462 51.037 C 908.966 46.803, 907.650 44.888, 898 41.632 C 886.744 37.834, 878.558 37.205, 874.420 39.818 M 926 43.959 C 924.625 45.057, 922.375 45.997, 921 46.048 C 917.018 46.195, 915.455 47.209, 911.825 52 C 909.950 54.475, 906.635 57.430, 904.459 58.567 C 902.283 59.703, 899.996 61.728, 899.377 63.067 C 895.374 71.724, 894.152 73.487, 890.333 76.115 C 887.014 78.398, 885.940 79.856, 885.431 82.769 C 884.558 87.762, 881.527 92.895, 877.457 96.275 C 874.851 98.439, 873.963 100.092, 873.428 103.775 C 872.568 109.684, 870.741 113.325, 866.518 117.549 C 863.761 120.306, 863.095 121.876, 862.496 127.031 C 861.678 134.079, 862.347 135.247, 868.086 136.786 C 871.059 137.584, 872.669 137.328, 877.492 135.294 C 882.357 133.243, 884.248 132.948, 889.011 133.501 C 894.337 134.119, 895.012 133.950, 899.315 130.917 C 902.866 128.414, 905.246 127.568, 909.710 127.219 C 914.836 126.819, 915.931 126.325, 919.261 122.910 C 921.661 120.450, 924.737 118.561, 927.761 117.693 C 931.681 116.567, 933.059 115.488, 935.734 111.452 C 937.512 108.769, 940.212 105.938, 941.734 105.161 C 946.447 102.756, 947.767 101.038, 948.462 96.407 C 948.945 93.187, 950.094 90.973, 952.566 88.500 C 955.659 85.408, 956 84.511, 956 79.478 C 956 76.034, 956.762 72.218, 957.985 69.532 C 959.810 65.528, 959.850 64.886, 958.485 61.619 C 957.668 59.664, 957 57.129, 957 55.986 C 957 54.686, 955.826 53.268, 953.870 52.203 C 952.149 51.267, 949.411 49.076, 947.786 47.335 C 945.309 44.680, 943.918 44.092, 939.166 43.692 C 936.050 43.429, 932.375 42.933, 931 42.589 C 929.286 42.159, 927.714 42.590, 926 43.959 M 545.250 51.031 C 544.013 51.529, 543 52.432, 543 53.038 C 543 53.644, 544.948 57.371, 547.329 61.320 C 549.710 65.269, 552.951 70.898, 554.531 73.829 C 558.466 81.128, 565.714 84.460, 569.012 80.486 C 570.642 78.522, 569.689 71.347, 566.988 65.239 C 561.880 53.693, 553.026 47.906, 545.250 51.031 M 279.230 53.001 C 277.431 54.098, 275.422 56.174, 274.766 57.615 C 273.716 59.919, 273.844 60.455, 275.826 62.060 C 278.601 64.307, 292.689 69.817, 298.339 70.866 C 305.497 72.194, 312.696 68.772, 311.838 64.449 C 311.642 63.463, 306.878 60.287, 300.500 56.889 C 288.366 50.425, 284.588 49.734, 279.230 53.001 M 520.607 51.893 C 515.197 53.028, 515.194 55.112, 520.595 61.684 C 523.293 64.967, 526.932 69.725, 528.682 72.258 C 530.431 74.792, 533.077 77.660, 534.561 78.632 C 538.240 81.042, 543.537 80.907, 546.106 78.338 L 548.168 76.276 545.027 70.054 C 538.448 57.021, 529.146 50.103, 520.607 51.893 M 981.906 56.959 C 978.383 59.687, 973.480 63.418, 971.011 65.251 C 963.019 71.186, 960.071 77.773, 964.238 80.385 C 965.580 81.226, 967.856 80.816, 974.238 78.582 C 989.729 73.158, 992.676 70.836, 993.693 63.252 C 994.282 58.862, 991.851 52, 989.708 52 C 988.941 52, 985.430 54.232, 981.906 56.959 M 571.568 54.327 C 569.823 55.603, 569.833 55.833, 571.831 60.351 C 572.974 62.935, 574.871 68.526, 576.045 72.775 C 577.220 77.024, 578.851 81.550, 579.669 82.834 C 581.569 85.816, 587.539 88.333, 590.782 87.519 C 593.225 86.905, 593.268 86.732, 592.729 79.696 C 591.739 66.801, 586.342 56.948, 578.685 54.061 C 575.010 52.676, 573.762 52.723, 571.568 54.327 M 493.009 57.290 C 491.639 57.983, 490.377 59.283, 490.204 60.179 C 489.889 61.814, 507.048 79.295, 511.344 81.715 C 514.724 83.618, 518.643 83.211, 521.625 80.646 L 524.361 78.292 521.542 73.481 C 513.857 60.367, 501.163 53.164, 493.009 57.290 M 859.763 60.486 C 856.753 62.206, 854 66.739, 854 69.975 C 854 72.911, 857.656 74, 867.516 74 C 879.817 74, 885.295 72.567, 888.962 68.390 C 894.874 61.657, 892.524 60.189, 874.612 59.433 C 864.773 59.018, 861.986 59.215, 859.763 60.486 M 596.746 62.250 C 596.489 62.938, 597.491 69.456, 598.972 76.736 C 601.841 90.836, 603.086 93.254, 608.694 95.628 C 615.089 98.335, 617.229 95.319, 615.979 85.362 C 614.944 77.121, 611.859 68.300, 608.902 65.125 C 605.361 61.324, 597.765 59.527, 596.746 62.250 M 469.500 65.386 C 465.960 66.929, 463.581 69.514, 464.434 70.892 C 464.767 71.431, 468.068 73.940, 471.770 76.466 C 475.471 78.992, 480.687 82.621, 483.359 84.530 C 486.785 86.976, 489.300 88, 491.887 88 C 496.274 88, 500 85.650, 500 82.883 C 500 79.857, 490.706 70.655, 484.083 67.125 C 477.762 63.756, 474.211 63.332, 469.500 65.386 M 260.250 69.220 C 256.075 71.234, 257.450 73.744, 263.406 74.981 C 266.380 75.598, 270.767 77.390, 273.156 78.963 C 276.749 81.329, 278.555 81.821, 283.603 81.812 C 290.774 81.798, 292.295 81.089, 291.837 77.973 C 291.554 76.040, 289.823 75.068, 281 71.889 C 270.327 68.043, 264.299 67.268, 260.250 69.220 M 622.071 70.943 C 620.835 71.718, 620.860 73.600, 622.256 84.844 C 623.144 91.996, 624.604 99.268, 625.501 101.003 C 627.367 104.611, 633.067 107.451, 636.642 106.554 C 638.849 106, 639 105.496, 639 98.691 C 639 90.461, 636.813 80.686, 634.161 77.062 C 630.654 72.270, 624.732 69.272, 622.071 70.943 M 444.898 78.290 C 438.912 82.324, 440.017 83.986, 453.313 90.945 C 466.048 97.609, 470.877 98.621, 475.496 95.595 C 481.205 91.854, 476.635 85.623, 463.604 79.377 C 455.081 75.293, 449.800 74.986, 444.898 78.290 M 205 78.331 C 200.003 80, 200.019 82.665, 205.069 90.102 C 211.282 99.250, 217.857 105.625, 222.335 106.843 C 226.927 108.092, 231 106.865, 231 104.233 C 231 102.086, 221.735 85.531, 218.645 82.158 C 214.727 77.881, 210.171 76.603, 205 78.331 M 229.497 79.379 C 227.819 80.606, 227.741 81.192, 228.790 84.694 C 229.439 86.859, 232.340 92.426, 235.238 97.065 C 239.441 103.795, 241.426 105.987, 245.059 107.907 C 250.352 110.705, 255 110.284, 255 107.007 C 255 104.877, 250.160 92.194, 246.935 85.872 C 243.485 79.110, 234.460 75.749, 229.497 79.379 M 853.808 80.904 C 847.315 81.600, 842.560 85.173, 841.460 90.182 C 840.288 95.520, 842.070 96.308, 853.971 95.710 C 866.685 95.071, 870.961 93.885, 874.959 89.887 C 878.743 86.103, 879.134 81.537, 875.750 80.630 C 873.068 79.911, 861.751 80.053, 853.808 80.904 M 177.750 82.611 C 171.754 85.174, 172.496 88.079, 181.250 96.331 C 192.416 106.857, 198.242 109.645, 204.755 107.578 C 206.007 107.180, 207 106.054, 207 105.031 C 207 102.826, 193.927 85.654, 190.578 83.459 C 187.043 81.143, 181.971 80.808, 177.750 82.611 M 256.518 82.335 C 254.683 83.703, 254.630 84.174, 255.811 88.657 C 257.937 96.730, 264.137 108.913, 267.720 112.059 C 271.455 115.338, 277.350 116.137, 278.361 113.502 C 279.081 111.626, 274.671 94.009, 272.280 89.204 C 269.050 82.717, 260.818 79.129, 256.518 82.335 M 644.514 81.978 C 643.519 83.588, 646.814 108.739, 648.428 111.862 C 650.317 115.515, 657.153 118.523, 660.046 116.975 C 661.673 116.105, 662 114.856, 662 109.514 C 662 96.772, 658.378 86.421, 652.710 82.965 C 649.250 80.855, 645.487 80.402, 644.514 81.978 M 976.388 84.484 C 964.110 88.149, 960.232 89.935, 957.496 93.187 C 954.674 96.541, 954.319 99.190, 956.453 100.961 C 958.572 102.720, 977.289 101.305, 982.679 98.979 C 987.799 96.769, 990.232 92.574, 989.805 86.694 C 989.539 83.039, 989.179 82.472, 987 82.282 C 985.625 82.161, 980.850 83.153, 976.388 84.484 M 282.507 89.352 C 280.541 90.808, 280.538 90.946, 282.294 99.475 C 285.878 116.889, 290.252 124.405, 296.448 123.799 L 299.500 123.500 299.376 111.841 C 299.278 102.628, 298.859 99.391, 297.376 96.406 C 294.126 89.863, 286.623 86.303, 282.507 89.352 M 152.207 91.668 C 146.778 94.344, 146.273 96.582, 150.259 100.316 C 154.387 104.183, 169.481 112.746, 173.633 113.577 C 177.627 114.375, 184 111.719, 184 109.255 C 184 107.368, 173.365 97.224, 166.514 92.574 C 162.103 89.581, 157.087 89.263, 152.207 91.668 M 428.123 91.027 C 423.385 92.111, 419.168 96.453, 420.612 98.761 C 421.211 99.717, 426.605 102.609, 432.600 105.187 C 446.058 110.974, 450.782 111.372, 455.077 107.077 C 458.420 103.734, 458.622 102.765, 456.429 100.572 C 450.550 94.693, 435.008 89.452, 428.123 91.027 M 667.627 92.795 C 666.527 94.574, 669.825 120.083, 671.481 122.611 C 673.842 126.214, 677.489 128.173, 681.179 127.819 L 684.500 127.500 684.407 119 C 684.239 103.582, 679.531 93.571, 671.877 92.355 C 669.851 92.033, 667.978 92.227, 667.627 92.795 M 306.416 103.599 C 305.632 107.774, 306.688 124.425, 308.033 129.116 C 309.316 133.588, 312.804 137, 316.095 137 C 319.110 137, 319.103 137.016, 320.973 125 C 323.143 111.056, 321.760 104.478, 316.033 101.517 C 314.419 100.683, 311.747 100, 310.095 100 C 307.437 100, 307.013 100.415, 306.416 103.599 M 691.139 102.893 C 690.008 103.609, 689.979 105.587, 690.968 114.627 C 691.622 120.607, 692.566 127.104, 693.067 129.065 C 694.665 135.324, 701.672 139.775, 706.887 137.846 C 709.172 137.001, 709.231 136.719, 708.554 129.852 C 707.688 121.059, 704.715 111.179, 701.835 107.517 C 700.641 105.999, 698.179 104.137, 696.364 103.379 C 692.504 101.766, 692.865 101.800, 691.139 102.893 M 846.287 103.004 C 841.446 103.427, 837.041 104.398, 835.558 105.370 C 832.315 107.495, 829.795 112.398, 830.190 115.816 C 830.488 118.394, 830.764 118.512, 837.156 118.794 C 844.829 119.132, 855.894 116.847, 860.567 113.958 C 864.139 111.751, 867.342 106.055, 866.397 103.591 C 865.722 101.833, 861.212 101.701, 846.287 103.004 M 129.230 104.942 C 125.708 107.153, 123.408 111.016, 124.272 113.267 C 124.866 114.813, 140.622 121.074, 148.619 122.941 C 152.862 123.932, 154.345 123.883, 157.288 122.653 C 159.241 121.837, 161.328 120.256, 161.925 119.140 C 163.196 116.765, 161.247 115.059, 149.184 107.984 C 140.232 102.734, 134.209 101.816, 129.230 104.942 M 947.325 109.459 C 945.579 110.219, 943.373 112.028, 942.421 113.480 C 939.920 117.297, 941.549 118.431, 954.085 121.605 C 965.759 124.560, 969.956 124.396, 974.520 120.806 C 978.193 117.916, 980.389 112.595, 978.988 109.977 C 978.011 108.152, 976.875 108.003, 964.215 108.039 C 954.826 108.066, 949.499 108.514, 947.325 109.459 M 230.500 113.231 C 223.721 114.889, 222.079 115.838, 221.416 118.479 C 220.129 123.606, 222.068 124.299, 236.271 123.786 C 247.007 123.399, 249.519 123.003, 251.732 121.351 C 255.688 118.397, 255.583 117.187, 251.314 116.511 C 249.216 116.179, 245.241 115.028, 242.481 113.954 C 237.006 111.823, 236.406 111.787, 230.500 113.231 M 714.087 112.946 C 712.910 113.674, 712.882 115.282, 713.909 123.155 C 716.289 141.406, 719.026 146.657, 726.693 147.686 C 732.963 148.527, 733.687 146.827, 731.739 135.841 C 729.984 125.936, 726.031 116.682, 722.658 114.582 C 719.597 112.675, 715.722 111.936, 714.087 112.946 M 329.649 116.758 C 328.789 118.150, 325.886 133.420, 325.311 139.578 C 324.681 146.321, 326.662 152.214, 330.194 154.104 C 333.069 155.642, 334.378 154.039, 338.284 144.197 C 344.122 129.488, 344.026 123.724, 337.857 118.533 C 334.970 116.104, 330.633 115.166, 329.649 116.758 M 406.686 118.073 C 403.073 119.085, 401.236 120.642, 399.349 124.292 C 397.092 128.657, 399.135 130.179, 402.743 126.823 C 404.260 125.413, 406.738 123.474, 408.250 122.514 C 412.788 119.636, 411.739 116.657, 406.686 118.073 M 259.235 124.153 C 256.086 126.616, 253.739 129.321, 253.395 130.885 C 251.905 137.662, 250.400 140.731, 246.497 144.944 C 243.002 148.719, 242.159 150.427, 241.584 154.906 C 240.758 161.336, 239.247 164.484, 235.089 168.437 C 232.528 170.872, 231.996 172.154, 231.978 175.937 C 231.954 181.019, 229.092 188.193, 225.570 192 C 223.875 193.832, 223.092 196.183, 222.639 200.796 C 221.962 207.689, 221.116 209.762, 216.847 214.978 C 214.630 217.686, 214 219.479, 214 223.079 C 214 229.107, 212.429 233.490, 208.332 238.894 C 205.530 242.589, 205 244.129, 205 248.579 C 205 255.027, 203.839 258.280, 199.965 262.693 C 197.578 265.411, 196.999 266.989, 196.994 270.785 C 196.986 277.653, 195.392 282.341, 191.469 287.037 C 188.445 290.657, 188 291.886, 188 296.627 C 188 302.624, 186.050 308.253, 182.759 311.757 C 181.214 313.401, 180.407 315.971, 179.877 320.934 C 179.109 328.120, 177.349 332.547, 173.359 337.327 C 171.512 339.540, 171 341.341, 171 345.626 C 171 351.575, 169.363 355.616, 164.861 360.785 C 162.456 363.546, 162 364.948, 162 369.584 C 162 375.578, 160.374 379.604, 155.861 384.785 C 154.069 386.843, 153 389.198, 153 391.092 C 153 397.372, 150.767 403.043, 146.367 407.936 C 139.633 415.426, 139.666 417.344, 146.659 425.350 C 149.871 429.028, 153.400 432.228, 154.500 432.461 C 155.600 432.694, 158.214 433.161, 160.310 433.499 C 162.615 433.871, 165.593 435.444, 167.852 437.485 C 171.328 440.625, 172.034 440.850, 178.147 440.757 C 183.389 440.678, 185.469 441.127, 188.480 442.988 C 192.067 445.204, 192.557 445.256, 198.589 444.057 C 203.728 443.036, 205.886 443.042, 209.978 444.091 C 214.662 445.292, 215.370 445.219, 219.755 443.088 C 223.082 441.472, 226.152 440.815, 230.122 440.871 C 234.802 440.937, 236.216 440.529, 238.435 438.473 C 242.216 434.968, 246.265 433.062, 251.436 432.354 C 255.209 431.837, 256.302 431.141, 258.454 427.890 C 260.955 424.110, 265.888 420.911, 271.167 419.644 C 272.794 419.253, 274.709 417.540, 276.077 415.252 C 279.400 409.690, 282.690 406.443, 286.951 404.522 C 290.048 403.125, 291.220 401.732, 293.248 397.031 C 295.217 392.468, 296.923 390.381, 301.370 387.096 C 304.527 384.764, 307 382.159, 307 381.165 C 307 377.766, 311.984 369.488, 315.436 367.153 C 318.292 365.222, 319.026 363.982, 319.583 360.153 C 320.464 354.093, 322.416 350.240, 326.601 346.301 C 329.389 343.677, 330 342.368, 330 339.019 C 330 333.885, 332.104 328.784, 336.100 324.233 C 338.721 321.248, 339.118 320.132, 338.642 317.097 C 337.889 312.307, 339.335 306.379, 342.181 302.589 C 344.146 299.972, 344.506 298.278, 344.536 291.500 C 344.567 284.562, 344.945 282.869, 347.383 278.747 C 349.849 274.577, 350.059 273.608, 349.097 270.848 C 347.442 266.100, 347.812 260.011, 350.056 255.064 C 351.931 250.931, 351.964 250.367, 350.534 246.794 C 348.697 242.203, 348.587 237.571, 350.175 231.635 C 351.222 227.720, 351.100 226.660, 349.055 221.906 C 347.163 217.509, 346.869 215.526, 347.381 210.625 C 347.956 205.130, 347.763 204.306, 344.841 199.752 C 342.190 195.621, 341.688 193.885, 341.734 189.009 C 341.784 183.704, 341.482 182.867, 338.301 179.495 C 334.290 175.242, 332 170.367, 332 166.080 C 332 163.658, 331.132 162.499, 327.390 159.925 C 324.003 157.594, 322.146 155.317, 320.387 151.339 C 318.366 146.771, 317.312 145.634, 313.636 144.058 C 311.032 142.942, 307.558 140.149, 305 137.115 C 301.793 133.312, 299.813 131.875, 297.109 131.387 C 292.335 130.527, 290.155 129.380, 286.233 125.667 C 283.516 123.095, 281.832 122.449, 276.233 121.828 C 272.530 121.418, 268.375 120.847, 267 120.559 C 265.117 120.165, 263.200 121.053, 259.235 124.153 M 109.763 122.565 C 106.984 124.073, 104 128.656, 104 131.415 C 104 133.493, 106.378 134.544, 114 135.836 C 128.616 138.312, 132.655 138.345, 137.439 136.030 C 142.245 133.703, 144.063 130.595, 141.853 128.486 C 139.560 126.299, 121.922 120.998, 117.077 121.040 C 114.560 121.062, 111.268 121.748, 109.763 122.565 M 737.250 121.641 C 735.512 122.372, 735.681 125.526, 738.006 135.711 C 741.900 152.766, 744.207 156, 752.482 156 C 757.271 156, 757.737 154.360, 755.722 144.612 C 753.811 135.372, 749.589 126.352, 746 123.840 C 743.188 121.872, 739.129 120.852, 737.250 121.641 M 928.500 124.386 C 924.729 126.029, 922.797 128.308, 923.538 130.237 C 923.852 131.058, 928.473 134.101, 933.805 137.002 C 945.654 143.447, 950.804 144.331, 955.985 140.809 C 960.151 137.978, 962.235 134.308, 960.994 131.989 C 960.167 130.443, 948.105 126.274, 938 124.043 C 932.348 122.794, 932.133 122.802, 928.500 124.386 M 838.809 125.562 C 833.478 126.291, 827.749 127.596, 826.076 128.461 C 822.321 130.402, 819.782 135.086, 820.191 139.314 L 820.500 142.500 827.685 142.367 C 841.467 142.113, 853.841 136.468, 855.551 129.655 C 857.077 123.571, 855.743 123.245, 838.809 125.562 M 760.146 130.325 C 758.901 131.824, 763.956 152.424, 766.714 157.093 C 769.999 162.655, 779.750 165.205, 781.957 161.080 C 784.247 156.802, 775.307 134.993, 769.729 131.250 C 765.974 128.730, 761.803 128.327, 760.146 130.325 M 226.500 130.948 C 216.379 131.651, 213.746 132.729, 210.950 137.314 C 208.259 141.728, 208.387 145.823, 211.250 146.882 C 214.011 147.903, 227.660 146.508, 234.644 144.491 C 242.567 142.203, 248.300 134.700, 244.800 131.200 C 243.547 129.947, 241.359 129.917, 226.500 130.948 M 904.093 135.724 C 900.869 138.334, 901.738 139.657, 912.601 148.667 C 918.329 153.418, 922.656 156.220, 924.918 156.644 C 929.817 157.563, 936.060 155.191, 937.968 151.685 C 939.437 148.985, 939.387 148.779, 936.772 146.685 C 935.272 145.483, 930.160 142.283, 925.412 139.573 C 915.164 133.724, 908.131 132.454, 904.093 135.724 M 783.565 136.796 C 782.978 138.645, 788.425 156.053, 791.375 161.759 C 793.012 164.924, 797.467 168, 800.415 168 C 802.512 168, 803.641 165.442, 804.384 159 C 804.977 153.869, 804.746 153.010, 800.946 146.197 C 796.518 138.257, 792.565 135.010, 787.317 135.004 C 785.131 135.001, 783.956 135.562, 783.565 136.796 M 348.580 138.250 C 345.767 142.569, 341.066 153.544, 339.606 159.202 C 337.930 165.696, 338.745 170.554, 342.006 173.505 C 343.917 175.234, 344.082 175.236, 345.962 173.534 C 348.596 171.151, 358.730 154.188, 359.543 150.803 C 360.463 146.968, 358.371 141.490, 354.857 138.533 C 351.166 135.427, 350.440 135.395, 348.580 138.250 M 882.250 140.468 C 880.462 141.258, 879 142.438, 879 143.090 C 879 144.692, 889.011 156.834, 894.515 161.907 C 898.197 165.301, 899.651 166, 903.027 166 C 908.572 166, 913 163.600, 913 160.595 C 913 157.835, 901.636 146.619, 894.818 142.651 C 889.002 139.265, 886.112 138.763, 882.250 140.468 M 807.667 140.667 C 806.537 141.797, 806.928 144.696, 808.373 145.895 C 810.155 147.374, 813 146.266, 813 144.093 C 813 141.124, 809.475 138.859, 807.667 140.667 M 96.415 142.421 C 90.772 144.879, 86.481 152.465, 89.011 155.513 C 89.940 156.633, 92.527 157, 99.486 157 C 110.620 157, 118.623 155.627, 122 153.138 C 125.035 150.901, 126.850 146.450, 125.341 144.941 C 124.323 143.923, 107.033 141.056, 102 141.071 C 100.625 141.075, 98.112 141.683, 96.415 142.421 M 857.250 142.662 C 854.697 143.692, 856.173 147.774, 862.542 157.298 C 869.089 167.089, 873.429 170.989, 877.782 170.996 C 881.407 171.002, 887 168.263, 887 166.481 C 887 162.548, 873.190 146.267, 867.606 143.617 C 864.298 142.048, 859.801 141.633, 857.250 142.662 M 833.500 148.112 C 820.188 150.600, 817.770 151.323, 815.019 153.637 C 811.504 156.595, 809.580 162.346, 811.133 165.249 C 812.080 167.019, 812.843 167.143, 818.825 166.502 C 835.088 164.760, 846.520 158.111, 845.817 150.801 C 845.528 147.792, 845.190 147.486, 842 147.339 C 840.075 147.251, 836.250 147.599, 833.500 148.112 M 219.084 153.650 C 207.113 155.275, 203.104 156.861, 200.706 160.920 C 198.574 164.529, 198.492 169.616, 200.546 170.766 C 202.480 171.848, 213.232 170.600, 221.179 168.370 C 230.546 165.741, 237.477 157.689, 233.989 153.487 C 232.573 151.781, 232.885 151.777, 219.084 153.650 M 848.127 161.478 C 845.857 163.940, 844 166.220, 844 166.543 C 844 168.603, 846.522 171.050, 849.488 171.869 C 855.076 173.412, 860 171.509, 860 167.806 C 860 165.155, 855.119 157, 853.532 157 C 852.830 157, 850.397 159.015, 848.127 161.478 M 359.511 165.750 C 353.370 173.565, 347.997 184.034, 348.015 188.146 C 348.032 191.991, 349.872 196.135, 351.854 196.789 C 353.427 197.308, 364.840 185.570, 369.096 179.054 C 372.357 174.063, 372.811 169.470, 370.490 164.980 C 369.174 162.436, 366.283 160, 364.580 160 C 364.277 160, 361.996 162.588, 359.511 165.750 M 96 163.985 C 86.660 164.745, 82.199 166.522, 79.573 170.530 C 75.910 176.120, 76.627 182.998, 80.872 183.001 C 81.768 183.002, 87.675 181.577, 94 179.836 C 103.837 177.127, 106.042 176.132, 109.250 172.952 C 111.601 170.622, 113 168.298, 113 166.725 C 113 162.799, 112.196 162.669, 96 163.985 M 821.667 172.502 C 815.709 173.741, 809.745 175.251, 808.415 175.857 C 803.282 178.196, 800.193 187.256, 803.573 190.061 C 804.872 191.139, 806.622 191.081, 813.629 189.731 C 829.426 186.685, 837.457 181.053, 836.772 173.500 C 836.427 169.690, 835.488 169.628, 821.667 172.502 M 210 177.083 C 204.225 178.083, 198.034 179.593, 196.243 180.438 C 190.410 183.189, 186.919 192.028, 190.493 194.994 C 192.635 196.772, 207.901 194.051, 215.224 190.587 C 221.294 187.716, 225 183.224, 225 178.739 C 225 176.516, 223.120 174.746, 221.168 175.132 C 220.801 175.205, 215.775 176.083, 210 177.083 M 89.262 187.852 C 79.677 191.039, 76.190 193.329, 73.698 198.071 C 71.598 202.066, 71.967 208.396, 74.446 210.874 C 75.911 212.339, 76.398 212.284, 80.272 210.216 C 90.328 204.846, 101.518 196.349, 103.323 192.712 C 107.347 184.605, 103.268 183.195, 89.262 187.852 M 367.828 191.250 C 360.386 198.306, 354.024 207.066, 353.372 211.153 C 352.655 215.647, 354.410 220, 356.937 220 C 359.216 220, 375.697 206.638, 378.279 202.697 C 380.701 199, 380.525 191.937, 377.927 188.635 C 376.788 187.186, 375.295 186, 374.610 186 C 373.925 186, 370.873 188.363, 367.828 191.250 M 562.655 193.459 C 556.522 195.646, 552.040 200.900, 553.873 203.757 C 554.218 204.295, 557.200 205.506, 560.500 206.449 C 563.800 207.391, 568.620 209.512, 571.212 211.161 C 574.487 213.245, 576.573 213.953, 578.054 213.483 C 580.449 212.723, 583.944 205.880, 583.978 201.885 C 584.042 194.215, 572.893 189.808, 562.655 193.459 M 813.500 196.367 C 808 197.594, 802.045 199.371, 800.267 200.316 C 795.436 202.883, 792.856 208.855, 794.607 213.418 C 795.945 216.905, 813.734 213.409, 822.644 207.909 C 826.169 205.733, 829.292 200.067, 828.815 196.713 C 828.387 193.708, 825.688 193.647, 813.500 196.367 M 749.750 197.022 C 746.249 199.177, 747.020 201.041, 758.733 218.755 C 765.652 229.219, 769.956 230.971, 771.370 223.898 C 772.823 216.635, 768.876 202.909, 764.091 198.581 C 761.621 196.347, 752.463 195.352, 749.750 197.022 M 199.500 201.365 C 187.184 204.115, 183.275 206.098, 181.421 210.534 C 178.063 218.572, 180.405 220.574, 191.212 218.903 C 206.437 216.549, 215.140 210.937, 215.380 203.318 C 215.492 199.754, 215.301 199.488, 212.500 199.316 C 210.850 199.215, 205 200.137, 199.500 201.365 M 727.942 199.973 C 717.789 202.956, 718.366 205.664, 731.536 216.845 C 742.426 226.092, 746.895 228.197, 750.986 226.008 C 754.242 224.265, 753.367 221.320, 746.961 212.446 C 738.854 201.216, 734.169 198.143, 727.942 199.973 M 592.250 201.662 C 591.563 201.940, 590.990 202.917, 590.978 203.833 C 590.925 207.893, 586.517 214.875, 580.398 220.594 C 573.912 226.655, 573.879 226.713, 574.189 231.594 C 574.610 238.230, 576.210 238.282, 587.936 232.040 C 598.525 226.403, 602.570 223.029, 603.297 219.225 C 604.153 214.751, 601.466 206.805, 598.072 203.773 C 594.908 200.946, 594.443 200.777, 592.250 201.662 M 778.175 203.225 C 776.530 204.870, 776.544 230.600, 778.191 231.618 C 778.846 232.023, 779.562 231.815, 779.782 231.155 C 780.001 230.496, 781.875 227.379, 783.946 224.228 C 787.554 218.738, 787.691 218.221, 787.241 211.777 C 786.982 208.080, 786.260 204.654, 785.635 204.165 C 783.572 202.549, 779.379 202.021, 778.175 203.225 M 98 206.786 C 95.148 207.721, 82.114 218.032, 79.959 221.057 C 75.694 227.048, 76.486 234.510, 81.908 239.417 C 83.995 241.306, 84.051 241.300, 86.528 238.974 C 90.100 235.618, 101.727 218.024, 102.537 214.750 C 103.847 209.450, 101.648 205.591, 98 206.786 M 518.500 207.724 C 512.510 209.196, 512.687 211.666, 519.479 221.424 C 528.712 234.690, 529.321 235.015, 530.478 227.300 C 530.867 224.701, 531.869 220.868, 532.704 218.781 C 534.086 215.327, 534.071 214.758, 532.533 212.410 C 529.854 208.321, 524.010 206.369, 518.500 207.724 M 703.001 210.123 C 699.458 211.536, 696 215.026, 696 217.189 C 696 219.336, 699.316 221.550, 710.944 227.165 C 721.010 232.025, 725.921 232.937, 729.479 230.606 C 733.581 227.918, 732.585 225.775, 724.042 218.910 C 711.894 209.147, 708.746 207.833, 703.001 210.123 M 492.021 213.116 C 490.657 213.660, 488.744 214.826, 487.771 215.708 C 483.810 219.292, 485.691 221.522, 501.861 232.406 C 508.319 236.754, 511.015 238, 513.963 238 C 522.144 238, 521.514 233.663, 511.621 221.879 C 504.101 212.922, 498.634 210.477, 492.021 213.116 M 374.200 215.862 C 366.156 221.198, 357.234 230.487, 355.911 234.902 C 354.502 239.605, 355.800 244, 358.598 244 C 361.662 244, 377.830 233.578, 381.745 229.079 C 385.587 224.665, 384.476 212.994, 380.215 213.004 C 379.272 213.007, 376.565 214.292, 374.200 215.862 M 544.192 214.969 C 541.043 216.941, 537.070 223.641, 537.022 227.059 C 537.010 227.916, 537.601 229.440, 538.336 230.445 C 539.621 232.202, 540.126 232.167, 551.586 229.514 C 569.445 225.380, 572.942 223.619, 571.379 219.546 C 570.299 216.730, 561.837 213.559, 554.500 213.220 C 548.778 212.955, 546.896 213.274, 544.192 214.969 M 804.500 220.868 C 799 222.361, 793.492 224.140, 792.260 224.821 C 789.286 226.466, 787 231.076, 787 235.431 C 787 240.011, 789.339 240.661, 798.321 238.578 C 812.568 235.274, 820.988 228.840, 820.996 221.250 C 821 218.234, 820.766 218.006, 817.750 218.077 C 815.962 218.119, 810 219.375, 804.500 220.868 M 190.652 225.514 C 175.626 228.817, 171.549 231.943, 172.185 239.674 C 172.574 244.399, 174.330 244.792, 185.052 242.556 C 199.238 239.598, 207.629 233.321, 206.818 226.271 C 206.397 222.603, 204.334 222.507, 190.652 225.514 M 466.277 226.973 C 462.697 229.156, 461.116 233.230, 462.980 235.476 C 464.311 237.079, 477.720 242.521, 485.463 244.599 C 492.710 246.544, 499 244.350, 499 239.875 C 499 238.133, 488.787 230.501, 481.300 226.647 C 476.953 224.410, 470.241 224.556, 466.277 226.973 M 678.400 228.400 C 673.920 232.880, 673.953 235.665, 678.510 237.568 C 683.703 239.739, 697.941 242.985, 702.300 242.993 C 706.691 243.001, 711.469 240.825, 712.403 238.392 C 713.425 235.728, 710.524 233.448, 700.537 229.068 C 688.303 223.702, 683.250 223.550, 678.400 228.400 M 98.985 233.022 C 92.484 242.595, 89.666 249.472, 90.301 254.210 C 90.990 259.344, 95.398 264.212, 98.980 263.794 C 101.115 263.545, 101.990 262.277, 104.704 255.500 C 106.466 251.100, 108.660 244.727, 109.579 241.338 C 111.173 235.456, 111.164 235.002, 109.375 231.338 C 106.420 225.288, 103.967 225.686, 98.985 233.022 M 551.839 235.957 C 547.076 237.480, 541.611 239.695, 539.696 240.879 C 535.840 243.262, 533 248.267, 533 252.679 C 533 255.890, 535.448 260, 537.360 260 C 539.838 260, 558.748 248.051, 561.837 244.533 C 565.139 240.772, 565.974 236.374, 563.800 234.200 C 562.255 232.655, 562.084 232.680, 551.839 235.957 M 591 237.610 C 583.191 241.152, 575.257 246.848, 572.963 250.560 C 570.593 254.394, 570.332 260.806, 572.512 261.643 C 575.608 262.831, 598.045 252.387, 600.524 248.604 C 602.689 245.300, 603.445 239.701, 602.073 237.137 C 600.597 234.379, 597.866 234.496, 591 237.610 M 371.607 244.596 C 361.783 250.347, 355.349 256.620, 354.470 261.307 C 353.800 264.879, 355.215 269, 357.111 269 C 357.683 269, 363.527 266.259, 370.097 262.910 C 383.268 256.195, 385 254.317, 385 246.750 C 385 242.214, 383.697 240, 381.029 240 C 380.165 240, 375.925 242.068, 371.607 244.596 M 445.651 245.002 C 441.440 248.699, 440.557 251.557, 442.901 253.901 C 445.400 256.400, 456.050 258.500, 466.227 258.500 C 474.317 258.500, 475.147 258.308, 477.583 255.871 C 481.945 251.510, 480.438 249.780, 468.661 245.627 C 455.512 240.990, 450.379 240.850, 445.651 245.002 M 519.500 243.567 C 517.565 244.473, 514.853 244.772, 511.861 244.408 C 507.684 243.899, 506.774 244.186, 502.701 247.294 C 499.878 249.450, 496.515 250.996, 493.748 251.411 C 489.993 251.974, 488.609 252.895, 484.679 257.447 C 481.625 260.984, 478.530 263.396, 475.619 264.508 C 471.896 265.929, 470.933 266.886, 469.533 270.552 C 468.002 274.560, 464.863 277.948, 458.802 282.131 C 457.283 283.179, 455.957 285.643, 455.090 289.027 C 454.039 293.125, 452.660 295.323, 448.870 298.938 C 444.897 302.727, 443.996 304.220, 443.978 307.041 C 443.950 311.420, 441.041 317.784, 437.632 320.924 C 435.419 322.963, 435 324.201, 435 328.706 C 435 334.401, 433.311 339.518, 430.071 343.636 C 428.391 345.772, 428.180 347.123, 428.683 352.513 C 429.211 358.157, 428.968 359.461, 426.526 364.132 C 423.884 369.185, 423.826 369.607, 425.069 374.789 C 426.114 379.143, 426.122 380.988, 425.110 384.342 C 422.851 391.831, 422.768 393.826, 424.525 398.427 C 425.697 401.496, 426.055 404.252, 425.628 406.922 C 425.057 410.494, 425.367 411.303, 428.852 415.329 C 431.083 417.906, 433.187 421.685, 433.843 424.291 C 434.783 428.023, 435.526 428.988, 438.174 429.911 C 439.932 430.524, 442.145 431.726, 443.092 432.583 C 444.588 433.937, 450.597 434.763, 461.234 435.076 C 462.187 435.104, 464.582 433.895, 466.556 432.390 C 469.147 430.413, 471.668 429.526, 475.628 429.198 C 480.521 428.792, 481.437 428.339, 484.127 424.991 C 486.791 421.677, 490.440 419.459, 496.287 417.602 C 497.269 417.290, 498.844 415.620, 499.787 413.891 C 502.652 408.635, 506.059 405.010, 510.049 402.975 C 513.279 401.327, 514.084 400.222, 515.431 395.590 C 516.676 391.305, 518.059 389.220, 521.906 385.821 C 526.175 382.050, 526.950 380.752, 527.996 375.622 C 528.899 371.198, 530.126 368.724, 532.958 365.622 C 536.527 361.712, 536.748 361.073, 537.270 353.181 C 537.789 345.338, 537.649 344.536, 534.821 339.181 C 531.967 333.775, 531.855 333.106, 532.491 325.367 C 533.074 318.283, 532.892 316.708, 531.080 313.157 C 528.764 308.618, 528.341 301.188, 530.109 296.117 C 531.041 293.443, 530.864 292.112, 529.002 287.784 C 526.760 282.571, 526.690 279.149, 528.595 267.728 C 528.971 265.473, 528.702 262.696, 527.928 260.826 C 527.178 259.014, 526.702 254.390, 526.798 249.848 C 526.958 242.322, 526.874 242.003, 524.733 242.081 C 523.505 242.126, 521.150 242.795, 519.500 243.567 M 798 245.138 C 792.225 246.742, 786.375 248.878, 785.001 249.885 C 780.298 253.328, 778.571 262.854, 782.385 264.317 C 784.185 265.008, 795.997 261.952, 802.632 259.078 C 810.624 255.616, 815.442 249.252, 814.237 243.750 C 813.713 241.360, 810.665 241.620, 798 245.138 M 663.763 245.565 C 660.769 247.190, 658 251.711, 658 254.975 C 658 258.144, 662.128 259.147, 675.567 259.243 C 688.657 259.337, 692.716 258.114, 694.848 253.434 C 696.469 249.876, 694.354 248.394, 684.376 246.099 C 673.736 243.651, 667.584 243.492, 663.763 245.565 M 182.725 249.502 C 176.798 250.804, 170.414 252.817, 168.538 253.976 C 164.705 256.345, 162.430 261.594, 163.459 265.694 C 164.096 268.230, 164.241 268.270, 170.804 267.717 C 180.337 266.915, 190.730 262.922, 194.808 258.495 C 197.517 255.553, 198.059 254.235, 197.808 251.202 C 197.419 246.523, 196.675 246.439, 182.725 249.502 M 548.500 261.590 C 536.472 269.015, 534 271.741, 534 277.582 C 534 282.951, 535.388 286, 537.831 286 C 540.579 286, 554.475 276.431, 558.420 271.823 C 562.153 267.461, 563.644 262.702, 562.591 258.507 C 561.633 254.688, 558.607 255.350, 548.500 261.590 M 589.738 262.522 C 582.679 265.114, 571.826 271.336, 570.299 273.666 C 568.540 276.352, 569.203 282.093, 571.492 283.993 C 573.545 285.697, 591.043 279.779, 595.485 275.879 C 599.174 272.640, 600.604 267.719, 599.047 263.623 C 597.907 260.626, 595.635 260.357, 589.738 262.522 M 430.873 263.684 C 426.027 266.691, 423.434 273.474, 426.250 275.778 C 428.080 277.274, 441.860 278.329, 448.905 277.511 C 452.517 277.092, 456.313 275.916, 458.234 274.621 C 461.430 272.467, 464.014 267.681, 462.694 266.360 C 462.320 265.987, 458.299 264.864, 453.757 263.864 C 443.349 261.574, 434.386 261.504, 430.873 263.684 M 655.607 266.092 C 651.269 266.805, 648.210 269.351, 646.318 273.823 C 644.749 277.532, 645.273 280.507, 647.655 281.421 C 649.740 282.221, 665.134 280.326, 671.663 278.466 C 675.040 277.504, 677.722 275.931, 679.413 273.921 C 682.177 270.636, 682.796 267.205, 680.750 266.518 C 678.599 265.796, 659.386 265.471, 655.607 266.092 M 792 269.383 C 780.298 272.959, 776.851 274.837, 775.154 278.561 C 773.405 282.399, 773.686 287.942, 775.668 288.703 C 779.802 290.289, 798.512 283.679, 803.721 278.790 C 806.439 276.240, 808.370 270.741, 807.505 268.016 C 806.656 265.340, 804.651 265.516, 792 269.383 M 370.920 269.862 C 362.390 273.502, 355.339 278.396, 352.928 282.350 C 350.635 286.111, 350.374 291.823, 352.459 292.623 C 354.010 293.218, 373.055 286.819, 376.610 284.509 C 382.108 280.935, 384.892 274.477, 383.037 269.597 C 381.755 266.227, 379.314 266.280, 370.920 269.862 M 177 273.088 C 161.305 277.014, 158.996 277.961, 156.921 281.319 C 155.716 283.268, 155.061 285.856, 155.228 288 C 155.484 291.290, 155.733 291.519, 159.392 291.819 C 164.611 292.246, 176.563 289.481, 181.470 286.711 C 186.566 283.835, 190.189 278.535, 189.797 274.532 C 189.424 270.722, 187.380 270.491, 177 273.088 M 118.396 274.410 C 117.799 275.967, 120.106 281.013, 122.217 282.765 C 122.959 283.381, 124.804 284.355, 126.318 284.931 C 131.072 286.738, 130.582 283.724, 125.210 278.122 C 119.934 272.619, 119.231 272.236, 118.396 274.410 M 551 286.086 C 539.934 293.987, 537.182 296.680, 536.074 300.693 C 534.971 304.687, 536.435 310.846, 538.693 311.712 C 540.748 312.501, 545.339 309.963, 552.848 303.887 C 559.720 298.327, 564 291.882, 564 287.096 C 564 283.335, 562.452 279.996, 560.715 280.008 C 560.047 280.013, 555.675 282.748, 551 286.086 M 418.198 285.673 C 414.223 287.632, 411.771 291.975, 412.191 296.314 L 412.500 299.500 421.500 299.453 C 436.466 299.374, 445.578 295.869, 448.108 289.217 C 449.838 284.666, 448.040 283.998, 434.128 284.023 C 424.519 284.040, 420.711 284.435, 418.198 285.673 M 656 287.607 C 645.437 289.351, 642.618 290.477, 639.480 294.206 C 636.594 297.635, 636.084 303.995, 638.531 306.026 C 641.493 308.484, 664.206 300.833, 668.635 295.885 C 673.185 290.802, 672.429 285.896, 667.128 286.102 C 665.682 286.158, 660.675 286.835, 656 287.607 M 581.227 289.444 C 568.522 293.559, 567.138 295.430, 571.084 303.164 C 573.140 307.194, 573.226 307.241, 577.542 306.649 C 583.271 305.864, 590.762 302.293, 592.617 299.462 C 594.758 296.194, 595.505 290.313, 594.007 288.508 C 592.321 286.477, 589.826 286.660, 581.227 289.444 M 786.807 293.486 C 781.475 295.320, 775.745 297.628, 774.073 298.616 C 768.870 301.689, 766.184 310.248, 769.546 313.039 C 772.732 315.682, 789.458 309.990, 796.362 303.913 C 801.324 299.545, 803.292 294.262, 800.991 291.489 C 799.305 289.458, 797.971 289.646, 786.807 293.486 M 364.349 296.364 C 351.554 300.904, 345 306.481, 345 312.828 C 345 317.118, 347.239 317.309, 359.060 314.028 C 365.216 312.319, 371.538 310.256, 373.109 309.443 C 379.803 305.982, 381.362 292.819, 375.050 293.059 C 374.197 293.091, 369.382 294.579, 364.349 296.364 M 177.839 295.494 C 177.643 295.690, 172.891 296.771, 167.279 297.896 C 161.667 299.021, 155.494 300.603, 153.560 301.411 C 147.151 304.088, 143.574 313.631, 148.075 316.040 C 150.933 317.570, 164.743 314.780, 172 311.207 C 176.156 309.161, 178.067 307.464, 179.820 304.259 C 182.193 299.920, 182.094 296.634, 179.560 295.661 C 178.809 295.373, 178.035 295.298, 177.839 295.494 M 421.870 306.554 C 406.484 308.661, 402.250 311.374, 401.738 319.452 C 401.374 325.204, 403.156 325.830, 413.709 323.658 C 424.709 321.394, 431.346 318.566, 434.523 314.790 C 437.336 311.447, 437.816 306.527, 435.418 305.607 C 433.583 304.903, 434.294 304.853, 421.870 306.554 M 552 312.519 C 546.775 316.669, 541.723 321.062, 540.772 322.282 C 537.399 326.613, 539.336 338, 543.447 338 C 545.858 338, 556.629 329.321, 561.236 323.665 C 563.792 320.527, 566.047 316.565, 566.426 314.545 C 567.177 310.540, 565.386 305.691, 562.992 305.249 C 562.172 305.097, 557.225 308.369, 552 312.519 M 650.488 310.926 C 634.575 316.440, 630.853 320.071, 632.440 328.531 C 633.282 333.020, 635.710 333.601, 642.197 330.863 C 657.593 324.364, 666.121 316.603, 664.586 310.487 C 663.767 307.222, 660.923 307.311, 650.488 310.926 M 579.209 312.984 C 572.091 314.671, 569.481 320.152, 573.201 325.602 C 575.919 329.583, 577.245 330.238, 580.259 329.090 C 586.172 326.836, 590.433 318.545, 588.008 314.014 C 586.876 311.900, 584.807 311.658, 579.209 312.984 M 781.321 318.478 C 774.622 320.766, 768.405 323.249, 767.505 323.996 C 763.882 327.003, 762.042 333.339, 763.607 337.418 C 764.488 339.714, 768.925 339.387, 776.717 336.455 C 786.126 332.913, 791.791 329.390, 794.059 325.671 C 796.234 322.103, 796.656 315.449, 794.750 314.766 C 794.063 314.520, 788.019 316.191, 781.321 318.478 M 359.500 320.451 C 351.660 322.197, 343.081 326.098, 340.210 329.222 C 337.229 332.466, 336.100 338.718, 338.341 339.577 C 340.633 340.457, 359.737 337.130, 364.666 334.993 C 370.114 332.631, 372.209 329.359, 371.811 323.832 C 371.522 319.806, 371.288 319.486, 368.500 319.307 C 366.850 319.201, 362.800 319.715, 359.500 320.451 M 156.500 322.382 C 151 323.589, 145.522 325.118, 144.328 325.782 C 140.528 327.890, 138 332.020, 138 336.116 C 138 339.371, 138.379 340.057, 140.468 340.581 C 143.998 341.467, 157.448 338.505, 163.634 335.478 C 169.600 332.559, 173.318 327.618, 172.818 323.271 C 172.401 319.638, 169.685 319.490, 156.500 322.382 M 413 330.424 C 398.990 334.120, 395.359 336.904, 394.306 344.753 C 393.255 352.593, 399.345 352.683, 415.594 345.069 C 424.735 340.785, 427.989 337.159, 427.996 331.250 C 428 328.231, 427.769 328.006, 424.750 328.091 C 422.962 328.140, 417.675 329.190, 413 330.424 M 556 337.451 C 546.425 345.794, 542.573 351.686, 543.566 356.467 C 544.425 360.600, 546.714 364, 548.638 364 C 551.047 364, 565.701 349.250, 567.990 344.521 C 571.204 337.882, 570.235 329.970, 566.215 330.022 C 565.272 330.034, 560.675 333.377, 556 337.451 M 650.015 334.052 C 638.057 339.835, 633.253 343.424, 632.157 347.395 C 630.604 353.020, 633.011 360, 636.504 360 C 638.010 360, 652.303 349.381, 657.125 344.681 C 662.110 339.821, 663.407 332.138, 659.496 330.637 C 658.754 330.352, 654.488 331.889, 650.015 334.052 M 576.607 340.582 C 575.460 343.570, 575.949 347, 577.521 347 C 579.387 347, 581.484 342.704, 580.663 340.564 C 579.885 338.538, 577.387 338.549, 576.607 340.582 M 776 343.492 C 761.522 349.057, 758.757 351.663, 759.200 359.321 C 759.474 364.054, 759.723 364.526, 762.084 364.800 C 765.064 365.147, 777.852 359.574, 784.375 355.086 C 789.710 351.415, 792.949 344.642, 791.059 341.110 C 790.438 339.949, 789.383 339.016, 788.715 339.036 C 788.047 339.056, 782.325 341.061, 776 343.492 M 153 345.523 C 149.975 346.239, 144.815 347.366, 141.534 348.028 C 133.925 349.563, 129 353.984, 129 359.278 C 129 364.508, 130.493 365.204, 139.120 363.997 C 149.129 362.596, 155.530 360.351, 159.530 356.839 C 163.583 353.281, 165.781 347.646, 163.968 345.461 C 162.544 343.745, 160.463 343.757, 153 345.523 M 347.763 345.011 C 334.509 347.304, 327 352.210, 327 358.577 L 327 362 333.750 361.969 C 344.552 361.920, 354.839 360.251, 357.937 358.045 C 361.276 355.668, 363.277 351.293, 362.827 347.357 C 362.519 344.663, 362.214 344.491, 357.500 344.346 C 354.750 344.261, 350.369 344.560, 347.763 345.011 M 407.499 355.319 C 394.184 360.886, 393.066 361.597, 391.415 365.548 C 389.508 370.113, 389.634 373.327, 391.827 376.035 L 393.654 378.291 403.231 373.754 C 414.633 368.353, 421.493 362.515, 422.454 357.394 C 423.181 353.519, 421.832 350.955, 419.128 351.069 C 418.232 351.106, 413 353.019, 407.499 355.319 M 649.910 359.006 C 640.498 366.678, 637.842 370.118, 637.314 375.325 C 636.763 380.757, 639.796 386, 643.490 386 C 645.519 386, 647.462 384.047, 653.473 375.971 C 661.714 364.898, 663.764 360.094, 662.102 355.750 C 660.536 351.659, 658.139 352.299, 649.910 359.006 M 562.397 361.250 C 551.286 372.671, 550 374.558, 550 379.442 C 550 384.249, 552.965 389, 555.965 389 C 558.311 389, 567.528 378.948, 571.886 371.635 C 575.484 365.598, 576.256 360.215, 574.101 356.189 C 572.180 352.598, 569.822 353.618, 562.397 361.250 M 774.233 367.892 C 763.937 373.257, 761.498 375.137, 759.288 379.410 C 756.683 384.448, 758.900 393, 762.811 393 C 764.942 393, 782.485 379.532, 785.055 375.923 C 788.836 370.612, 788.581 362.921, 784.628 363.032 C 784.007 363.049, 779.330 365.236, 774.233 367.892 M 144 369.611 C 129.078 372.342, 126.080 373.149, 123.596 375.104 C 120.456 377.573, 118.642 383.462, 120.151 386.282 C 121.124 388.099, 121.909 388.225, 128.860 387.675 C 138.457 386.916, 147.907 383.750, 151.373 380.132 C 154.558 376.808, 156.144 372.009, 154.833 369.666 C 153.772 367.771, 154.048 367.772, 144 369.611 M 327.895 369.374 C 321.566 370.736, 317.769 372.896, 315.431 376.465 C 312.841 380.417, 313.903 382.406, 319.013 383.176 C 324.898 384.062, 337.907 384.169, 341.935 383.363 C 348.166 382.117, 354.007 373.124, 350.966 369.459 C 349.457 367.640, 336.177 367.592, 327.895 369.374 M 536.450 371.435 C 535.573 372.775, 535 375.137, 535.177 376.685 C 535.860 382.643, 544 379.683, 544 373.477 C 544 368.805, 539.051 367.466, 536.450 371.435 M 404.661 380.461 C 391.081 387.723, 389.500 389.459, 389.500 397.103 C 389.500 401.887, 389.897 403.452, 391.388 404.542 C 393.705 406.236, 394.307 405.942, 406.008 397.386 C 415.027 390.791, 417.585 387.932, 419.056 382.806 C 420.124 379.080, 418.640 374.967, 416.275 375.100 C 415.299 375.154, 410.073 377.567, 404.661 380.461 M 750.400 375.776 C 748.701 376.893, 746.837 380.927, 747.513 382.021 C 748.637 383.840, 750.958 383.016, 751.570 380.579 C 752.378 377.358, 751.773 374.873, 750.400 375.776 M 573.825 380.750 C 572.423 382.262, 568.514 387.017, 565.138 391.316 C 559.956 397.914, 559 399.751, 559 403.115 C 559 409.601, 563.151 415.571, 566.762 414.278 C 568.501 413.654, 576.175 402.667, 579.515 396.018 C 582.604 389.869, 583.143 384.504, 581.061 380.614 C 579.266 377.259, 577.022 377.301, 573.825 380.750 M 910.482 388.030 C 908.421 391.422, 907.148 394.523, 907.629 394.975 C 910.287 397.466, 917.306 389.867, 916.771 385.077 C 916.294 380.808, 914.300 381.744, 910.482 388.030 M 65.250 383.610 C 63.329 384.466, 63.735 386.557, 66.931 392.265 C 68.543 395.144, 70.760 401.035, 71.856 405.356 C 74.204 414.605, 76.834 418, 81.655 418 C 85.672 418, 86.454 415.962, 86.449 405.500 C 86.445 396.889, 83.796 390.471, 78.612 386.518 C 75.099 383.838, 68.137 382.323, 65.250 383.610 M 37 388.130 C 33.568 390.210, 32.046 391.770, 32.015 393.236 C 32.007 393.640, 34.659 395.313, 37.909 396.954 C 41.159 398.595, 46.446 402.358, 49.659 405.318 C 56.735 411.837, 59.443 413.357, 62.578 412.570 C 65.932 411.728, 66.570 408.026, 64.400 401.992 C 59.706 388.938, 46.602 382.308, 37 388.130 M 534.500 386.935 C 525.022 389.242, 518.554 397.085, 523.809 399.898 C 524.803 400.430, 530.805 401.008, 537.147 401.183 C 553.526 401.633, 554.531 400.433, 546.301 390.250 C 542.707 385.803, 541.056 385.339, 534.500 386.935 M 778.601 390.092 C 764.664 401.492, 762.736 403.935, 762.821 410.086 C 762.879 414.347, 765.055 418.700, 767.618 419.684 C 769.498 420.405, 773.357 416.815, 781.585 406.693 C 788.236 398.510, 790.033 393.850, 788.370 389.098 C 787.030 385.273, 784.132 385.568, 778.601 390.092 M 309.500 390.870 C 304.611 392.146, 302.118 393.872, 300.420 397.154 C 298.026 401.784, 299.720 402.756, 313.292 404.536 C 327.844 406.444, 331.786 405.680, 335.488 400.233 C 340.725 392.525, 338.556 390.712, 323.670 390.354 C 317.527 390.207, 311.150 390.439, 309.500 390.870 M 740.331 392.937 C 733.723 395.937, 731.534 402.337, 736.750 403.403 C 744.384 404.962, 752.985 405.943, 754.369 405.412 C 756.820 404.471, 757.250 401.390, 755.431 397.800 C 751.720 390.476, 748.227 389.352, 740.331 392.937 M 135.500 393.180 C 132.200 393.688, 126.501 394.564, 122.836 395.127 C 116.188 396.149, 112.075 398.695, 113.458 400.933 C 114.370 402.407, 128.861 409, 131.190 409 C 136.131 409, 143.377 403.417, 145.061 398.314 C 146.230 394.774, 145.079 391.849, 142.628 392.128 C 142.007 392.199, 138.800 392.672, 135.500 393.180 M 93.646 394.763 C 93.387 395.183, 93.023 402.641, 92.837 411.337 L 92.500 427.149 95.831 430.133 C 100.762 434.550, 104.026 433.848, 105.750 428 C 106.480 425.525, 107.346 419.877, 107.673 415.448 C 108.177 408.636, 107.951 406.678, 106.203 402.725 C 103.546 396.718, 95.565 391.658, 93.646 394.763 M 406.703 404.903 C 396.077 413.347, 393.204 417.941, 394.437 424.515 C 395.211 428.641, 400.195 434.246, 402.354 433.418 C 404.319 432.664, 417.925 411.864, 419.201 407.664 C 420.448 403.559, 418.811 399, 416.090 399 C 415.013 399, 410.788 401.656, 406.703 404.903 M 585.379 400.765 C 584.762 401.169, 582.234 404.650, 579.760 408.500 C 571.113 421.960, 569.614 426.440, 572.125 431.316 C 574.119 435.187, 577.289 438, 579.657 438 C 582.364 438, 585.207 432.974, 589.371 420.832 C 592.580 411.472, 592.741 406.212, 589.927 402.635 C 587.724 399.834, 587.156 399.601, 585.379 400.765 M 20.368 402.059 C 16.150 403.321, 10.276 410.010, 9.431 414.515 C 8.459 419.696, 9.838 420.609, 15.417 418.478 C 20.042 416.712, 22.026 416.725, 37.795 418.625 C 42.443 419.185, 43.391 418.981, 45.545 416.957 C 46.895 415.689, 48 414.107, 48 413.442 C 48 411.683, 40.603 405.279, 36.675 403.638 C 32.032 401.698, 24.130 400.933, 20.368 402.059 M 658.521 403.967 C 657.357 405.850, 660.047 411.897, 662.976 413.983 C 665.540 415.808, 670 416.763, 670 415.486 C 670 414.741, 660.848 403.557, 659.944 403.197 C 659.526 403.031, 658.885 403.377, 658.521 403.967 M 514.001 408.123 C 508.341 410.380, 505.349 415.404, 508.250 417.778 C 509.894 419.123, 527.955 423, 532.578 423 C 537.534 423, 541.628 420.329, 543.990 415.555 C 546.355 410.776, 545.504 409.368, 539.391 407.950 C 534.221 406.751, 517.150 406.867, 514.001 408.123 M 789.257 408.728 C 787.638 409.293, 776.633 422.874, 774.585 426.836 C 771.257 433.270, 773.398 441.603, 779.141 444.573 C 781.736 445.915, 782.464 445.959, 783.554 444.840 C 786.079 442.248, 795 420.152, 795 416.491 C 795 410.886, 792.553 407.578, 789.257 408.728 M 291.185 409.989 C 285.103 411.429, 281.015 417.180, 284.250 419.747 C 286.098 421.214, 305.118 426.001, 309.081 425.996 C 313.431 425.992, 318.462 422.942, 320.444 419.108 C 323.326 413.534, 320.790 411.956, 305.827 410.013 C 297.386 408.917, 295.727 408.914, 291.185 409.989 M 725.123 410.013 C 723.266 410.446, 720.571 411.974, 719.135 413.410 C 715.350 417.196, 716.972 418.900, 728.088 422.813 C 743.518 428.245, 750.983 427.298, 754.734 419.431 C 756.201 416.355, 756.220 415.791, 754.897 414.469 C 752.088 411.659, 731.370 408.559, 725.123 410.013 M 114.975 413.565 C 114.439 414.976, 114 416.972, 114 418 C 114 419.028, 113.286 424.095, 112.414 429.260 C 110.987 437.705, 110.981 439.018, 112.353 442.303 C 113.892 445.987, 119.023 449.989, 122.215 449.996 C 124.725 450.002, 125.670 447.520, 126.854 437.807 C 128.553 423.872, 126.289 414.820, 120.439 412.154 C 116.805 410.498, 116.069 410.688, 114.975 413.565 M 879.955 413.896 C 873.714 414.576, 869.451 416.916, 867.782 420.580 C 866.172 424.113, 867.421 424.934, 877.664 427.075 C 892.816 430.241, 899.594 429.321, 903.352 423.586 C 905.502 420.304, 905.454 416.304, 903.250 415.171 C 900.846 413.935, 886.704 413.161, 879.955 413.896 M 51.223 420.998 C 49.624 422.374, 46.963 424.227, 45.310 425.116 C 40.766 427.560, 40.200 432.171, 43.741 437.899 C 46.168 441.824, 47.264 442.610, 52.507 444.185 C 58.366 445.945, 58.605 445.941, 63.185 443.993 C 65.762 442.897, 69.421 442, 71.317 442 C 74.071 442, 75.291 441.307, 77.395 438.548 C 78.844 436.650, 81.391 434.291, 83.057 433.307 C 85.348 431.954, 86.015 430.906, 85.793 429.009 C 85.551 426.936, 84.558 426.198, 80.079 424.764 C 77.097 423.809, 73.598 422.031, 72.302 420.814 C 70.294 418.928, 68.781 418.594, 62.038 418.549 C 54.999 418.501, 53.809 418.771, 51.223 420.998 M 418.560 422.332 C 417.116 424.226, 414.105 429.311, 411.868 433.632 C 408.516 440.110, 407.895 442.178, 408.328 445.408 C 408.944 450.001, 411.528 453.808, 415.678 456.239 C 420.526 459.079, 421.612 457.358, 425.113 441.296 C 428.198 427.141, 428.202 427.079, 426.354 423.296 C 423.930 418.334, 421.810 418.071, 418.560 422.332 M 596.757 421.782 C 594.625 424.232, 589.053 439.272, 588.423 444.277 C 588.021 447.466, 588.392 449.298, 589.936 451.759 C 593.640 457.661, 601.980 461.099, 603.430 457.321 C 603.784 456.398, 604.351 449.224, 604.690 441.380 C 605.220 429.105, 605.076 426.765, 603.653 424.593 C 601.140 420.758, 598.563 419.707, 596.757 421.782 M 19.500 424.417 C 13.502 427.094, 7.972 435.430, 8.022 441.718 C 8.053 445.597, 11.591 453, 13.414 453 C 14.245 453, 16.686 450.413, 18.837 447.250 C 20.988 444.087, 25.504 439.108, 28.872 436.183 C 35.639 430.308, 37.427 426.517, 34.456 424.344 C 32.113 422.631, 23.408 422.673, 19.500 424.417 M 491.952 426.752 C 489.905 428.581, 489.085 430.057, 489.506 431.154 C 490.128 432.776, 507.814 441.148, 513.290 442.413 C 518.949 443.721, 528 437.361, 528 432.075 C 528 429.328, 509.754 424.020, 500.266 424.007 C 495.962 424.001, 494.484 424.489, 491.952 426.752 M 701.272 425.147 C 698.565 426.531, 697.432 429.610, 698.954 431.445 C 699.570 432.187, 704.196 435.173, 709.235 438.081 C 716.297 442.157, 719.605 443.469, 723.676 443.806 C 728.638 444.218, 729.168 444.032, 732.478 440.722 C 738.354 434.846, 737.392 433.474, 723.500 427.926 C 714.819 424.459, 705.016 423.234, 701.272 425.147 M 272.185 426.029 C 268.530 426.850, 264 430.564, 264 432.739 C 264 434.193, 277.174 440.708, 285.854 443.547 C 292.036 445.569, 296.638 444.407, 300.467 439.857 C 305.452 433.933, 303.470 431.974, 288.500 428.030 C 278.951 425.514, 276.055 425.159, 272.185 426.029 M 134.502 428.994 C 133.330 432.685, 132.284 451.327, 133.057 454.752 C 134.733 462.184, 144.443 467.786, 148.071 463.415 C 149.145 462.120, 149.167 459.637, 148.192 449.879 C 146.854 436.496, 145.504 432.328, 141.486 429.168 C 138.046 426.462, 135.327 426.394, 134.502 428.994 M 798.644 428.499 C 797.062 430.081, 793.654 438.526, 791.800 445.456 C 789.387 454.481, 794.567 463.596, 802.732 464.691 C 806.020 465.132, 807.098 464.908, 807.567 463.685 C 807.899 462.820, 807.746 455.321, 807.227 447.021 C 806.369 433.320, 806.069 431.702, 803.967 429.465 C 801.266 426.590, 800.663 426.480, 798.644 428.499 M 852.465 433.444 C 850.984 434.925, 850.261 436.516, 850.630 437.478 C 851.600 440.007, 870.850 449, 875.293 449 C 881.983 449, 888 444.413, 888 439.313 C 888 436.447, 886.497 435.709, 875.376 433.122 C 862.691 430.172, 855.638 430.271, 852.465 433.444 M 678.250 435.487 C 677.013 436.382, 676 437.738, 676 438.502 C 676 440.145, 690.567 453.208, 694.895 455.446 C 700.779 458.488, 709.521 456.632, 712.112 451.790 C 713.140 449.870, 712.909 449.287, 710.228 447.050 C 708.547 445.648, 703.507 442.285, 699.028 439.577 C 689.718 433.951, 682.376 432.505, 678.250 435.487 M 473.465 435.919 C 470.620 437.118, 468.863 439.479, 469.527 441.210 C 470.180 442.912, 481.983 452.801, 487.042 455.885 C 491.390 458.535, 495.964 458.569, 501.024 455.988 C 504.975 453.972, 506.957 450.358, 505.450 447.919 C 504.365 446.164, 483.088 436.270, 479 435.619 C 477.075 435.312, 474.584 435.447, 473.465 435.919 M 612.014 436.483 C 610.010 438.897, 611.018 459.852, 613.305 463.343 C 616.272 467.871, 620.807 470.081, 626.500 469.771 C 630.870 469.534, 631.541 469.208, 631.828 467.185 C 632.009 465.912, 629.805 459.387, 626.931 452.685 C 620.423 437.506, 615.554 432.218, 612.014 436.483 M 432.011 439.750 C 431.415 441.813, 430.658 447.343, 430.329 452.040 C 429.588 462.625, 431.063 466.218, 437.316 469.057 C 441.997 471.182, 445.628 471.472, 449.435 470.025 C 453.012 468.665, 452.713 466.061, 448.071 458.175 C 445.910 454.504, 443.390 448.867, 442.471 445.650 C 439.645 435.756, 434.072 432.613, 432.011 439.750 M 86.339 438.892 C 84.601 439.976, 82.853 441.886, 82.456 443.138 C 80.522 449.234, 101.260 457.186, 107.394 452.701 C 109.081 451.467, 109.057 451.171, 106.909 446.749 C 105.068 442.960, 103.753 441.710, 99.836 440.025 C 92.528 436.881, 89.918 436.662, 86.339 438.892 M 249.686 439.017 C 241.780 441.390, 242.195 444.507, 251.250 450.743 C 260.922 457.404, 266.242 460.001, 270.210 459.996 C 276.580 459.989, 283.434 453.561, 280.692 450.166 C 279.201 448.319, 267.779 442.718, 260.246 440.140 C 253.369 437.787, 253.675 437.819, 249.686 439.017 M 155.410 440.442 C 153.749 441.656, 153.743 442.369, 155.296 453.988 C 156.218 460.887, 157.629 467.311, 158.522 468.673 C 163.102 475.664, 175.015 477.450, 174.989 471.143 C 174.973 467.074, 167.271 445.918, 164.880 443.372 C 161.850 440.147, 157.608 438.835, 155.410 440.442 M 655.250 440.220 C 654.013 440.817, 653 442.029, 653 442.914 C 653 445.180, 666.527 461.729, 670.338 464.124 C 676.048 467.713, 686.993 465.067, 687.003 460.095 C 687.008 457.711, 672.397 444.377, 666.632 441.504 C 661.211 438.802, 658.763 438.526, 655.250 440.220 M 814.200 440.200 C 813.540 440.860, 813 442.909, 813 444.753 C 813 449.784, 815.816 461.168, 817.914 464.618 C 820.061 468.149, 825.438 471, 829.951 471 C 833.500 471, 839 468.499, 839 466.886 C 839 465.401, 824.073 443.992, 821.126 441.250 C 818.441 438.752, 816.016 438.384, 814.200 440.200 M 28.781 444.898 C 19.984 454.683, 19.813 465.239, 28.330 472.716 C 32.008 475.946, 37.653 477.731, 40.606 476.598 C 42.317 475.941, 42.269 475.584, 39.474 468 C 37.828 463.537, 37.836 462.226, 39.594 448.255 C 40.810 438.587, 35.842 437.045, 28.781 444.898 M 833.603 441.273 C 830.655 443.472, 832.119 446.669, 839.979 455.199 C 848.004 463.908, 851.623 465.717, 857.733 464.072 C 862.211 462.866, 867.336 458.039, 866.487 455.826 C 865.683 453.732, 842.945 441.023, 838.857 440.383 C 836.772 440.057, 834.781 440.394, 833.603 441.273 M 449.250 441.662 C 446.714 442.686, 448.147 446.895, 453.823 455.091 C 460.423 464.622, 464.633 468.002, 469.898 467.996 C 474.374 467.992, 480 464.706, 480 462.096 C 480 459.821, 464.187 444.791, 459.405 442.522 C 456.272 441.035, 451.752 440.653, 449.250 441.662 M 631.114 442.363 C 629.467 444.347, 630.108 446.147, 636.454 457.346 C 639.602 462.902, 642.561 466.802, 644.572 468.044 C 648.676 470.581, 655.047 470.596, 658.139 468.076 L 660.500 466.152 658.541 462.481 C 656.145 457.989, 646.448 446.377, 642.913 443.765 C 639.312 441.104, 632.801 440.330, 631.114 442.363 M 176.313 448.627 C 175.589 450.514, 179.125 462.079, 182.809 469.871 C 185.804 476.206, 189.732 478.991, 195.679 478.996 C 201.092 479.001, 203.314 476.956, 201.909 473.261 C 199.281 466.348, 193.069 456.048, 188.936 451.750 C 185.094 447.755, 183.777 447, 180.652 447 C 178.143 447, 176.735 447.528, 176.313 448.627 M 223.750 448.022 C 220.879 449.790, 221.684 451.815, 228.150 459.090 C 235.273 467.105, 242.121 472, 246.211 472 C 249.810 472, 256.543 468.634, 257.397 466.408 C 258.902 462.485, 238.131 447.951, 230.106 447.312 C 227.573 447.110, 224.713 447.429, 223.750 448.022 M 66.223 449.557 C 63.078 451.759, 63.410 453.420, 68.397 460.408 C 76.207 471.352, 86.538 474.805, 95.596 469.497 C 100.605 466.561, 102.135 463.303, 99.431 461.326 C 98.434 460.597, 96.916 460, 96.059 459.999 C 94 459.998, 83.759 455.101, 77.554 451.149 C 72.025 447.629, 69.485 447.272, 66.223 449.557 M 47 450.296 C 44.891 451.353, 44.453 452.358, 44.199 456.726 C 43.751 464.458, 49.018 473.438, 56.129 477.066 C 62.148 480.136, 72 479.259, 72 475.652 C 72 474.949, 70.615 473.052, 68.923 471.437 C 67.231 469.822, 63.637 464.848, 60.937 460.384 C 54.435 449.635, 51.934 447.824, 47 450.296 M 199.667 450.667 C 198.267 452.066, 199.169 454.485, 204.399 463.349 C 212.455 477.005, 216.870 480.189, 224.788 478.057 C 232.803 475.899, 232.586 474.218, 222.833 462.886 C 214.658 453.387, 209.843 450, 204.517 450 C 202.216 450, 200.033 450.300, 199.667 450.667"/>
</svg>