<svg xmlns="http://www.w3.org/2000/svg" id="Layer_1" data-name="Layer 1" viewBox="0.0 0.0 100.0 68.77340912085224">
  <g transform="scale(0.1882140370028797)"><g>
    <path data-sg-fill="sg-fill-0" d="M419.51,202.6c.3-1.8,.2-3.8-.1-5.9-.3-2.1-1.5-3.6-3.6-4.4-3.9-.9-8.1,1.2-12.5,6.3-4.4,5.1-8.1,11.9-11.1,20.4-2.7,8.6-3.8,16.1-3.2,22.6,.6,6.5,2.8,10.5,6.5,11.9,3.9,1.1,8.1-.7,12.5-5.5s8.1-11.4,11.1-19.9c1.4-4.1,2.3-8,2.8-11.8,.1-1.1,.1-2.2,.1-3.3,.3-3.4,.6-6.9,1-10.4-1.2,.2-2.4,.2-3.5,0Z" fill="#010101" />
    <path data-sg-fill="sg-fill-0" d="M292.41,199.3c.3-1.8,.3-3.8,0-6s-1.6-3.8-3.9-4.6c-4-.9-8.3,1.2-13,6.5-4.6,5.3-8.5,12.4-11.6,21.2-2.8,8.9-3.9,16.7-3.3,23.5s2.9,10.9,6.9,12.5c4,1.1,8.3-.8,12.9-5.8s8.4-11.9,11.5-20.6c1.2-3.5,2.1-6.9,2.7-10.3,.8-5.8,1.9-11.4,3.3-16.7-1.8,.5-3.7,.6-5.5,.3Z" fill="#010101" />
    <path data-sg-fill="sg-fill-0" d="M505.11,207.6c-2.4-1.1-4.7-1.5-7-1.4,3.4-13,7.2-25.1,11.5-36.1,5.1-13.3,8.4-17,9.2-17.7l10.6-5.4-4.1-11.7c-6.6-23.2-35.3-40.7-42.5-42.8-9.2-2.7-18.6-2.3-27.7,1.3,.9-2.7,1.9-5.3,2.9-7.7,2.1-5.2,3.5-7.6,4.2-8.5l9.9-4.9s-11.4-35.3-32-44.1c-5.6-2.4-10.5-5.2-16.3-5.5-5.9-.3-11.3,1-16,3.7l-.7,.4c-5.3,3.5-9.7,9.5-14.4,19.5-2.6,5.7-5.1,12.1-7.4,19.3-4.8-5.8-11.9-9.2-20.6-9.7h-.7c-.9,0-1.8,0-2.6,.1,0-.1-.1-.2-.1-.3-2.9-6.8-8.4-11.8-15.5-14-.2-.8-.5-1.5-.8-2.3h0c-3-7-8.6-12-15.8-14.2l-.8-.2c-7-1.7-14.1-.4-20.4,3.6-1,.7-2,1.4-2.9,2.2-3.1-5.1-9.1-11.5-20.6-14.7l-.4-.1c-10.4-2.5-20.6-2.3-30.5,.5-9.4,2.7-18,7.3-25.8,13.6-7.5,6.1-13.9,13.4-19,21.7l-.1,.1c-4.1,6.8-7.1,14.4-8.8,22.7-1.7,8.3-2,16.5-.8,24.4,.9,6.1,2.8,11.6,5.7,16.4-2.7-2.6-5.4-5-8.3-7.3-13-10.4-27-18.4-41.4-23.8-14.4-5.3-28.1-8.5-40.7-9.3-14.4-1.1-28.5-.5-42,1.8-14.1,2.4-26.9,7-38.1,13.7-12,7.2-21.3,17.2-27.5,29.7l-.1,.3C.71,133.7-1.29,145.5,.81,156s7,19.2,14.6,25.8c2.3,2,4.7,3.7,7.2,5.3,2.4,4.2,5.4,7.8,9.1,11,5.4,4.7,11.5,8.2,18,10.4l-5,8.1c-8.3,12.9-15.8,25.5-22.2,37.6-7.1,13.3-11.4,26.3-12.9,38.4-1.7,14.3,2.6,27.8,12.3,38.9l.5,.5c3.4,3.6,7,6.6,10.8,9,1.5,2.3,3.2,4.6,5.1,6.8l.5,.5c11,11.4,23.5,17.1,37.1,17.1,.8,0,1.7,0,2.6-.1,13.7-.7,25.7-5.8,35.7-15.2,3-2.8,5.6-5.8,7.8-9,5.6,6.3,13.1,11.1,22.4,14.2l.6,.2c15.1,4.3,30,2.6,44.2-4.9,12.7-6.8,24.4-17.1,34.5-30.7,4.9-6.6,9.4-13.7,13.3-21.2,.5,.3,1,.6,1.5,.8,5.7,10.3,13.5,15.4,20.1,18l.6,.2,.6,.2c8.6,2.6,22.2,3.2,37.7-8.4h0c3.8-2.9,7.5-6.2,11-10.1,3.7,5.6,8.2,10.3,13.6,13.9l.6,.4c6.3,3.9,12.8,5.8,19.2,5.8,6,0,11.9-1.7,17.4-5.1,4.1-2.5,8-5.7,11.7-9.3,5.1,6.7,11.1,10.4,16.3,12.5l.6,.2,.6,.2c8.8,2.6,22.7,3,38.3-9.4,3.5-2.8,6.8-5.9,9.9-9.5h0c3.4,5.7,7.5,10.4,12.4,14l.9,.6c6.3,3.9,12.8,5.9,19.2,5.9,6,0,11.9-1.7,17.4-5.1,8.8-5.3,16.5-13.3,23.2-23.7,5.9-9.2,10.8-18.5,14.5-27.6,3.9-9.6,6.1-16.3,6.9-21.1l.1-.8v-.8c.2-7.2-20.4-30.2-26.2-32.9ZM309.01,49.6c1.4-3.8,3.5-6.6,6.6-8.6,3-1.9,6.2-2.5,9.5-1.7,3.2,1,5.5,3,6.9,6.1,1.3,3.1,1.4,6.6,.3,10.4-1.4,3.8-3.5,6.6-6.6,8.6-3,2-6.2,2.5-9.5,1.7-3.2-1-5.5-3-6.9-6.1s-1.5-6.6-.3-10.4Zm-8.3,29.1c1.4-4,3.8-6.7,7.4-8.2s7.2-1.6,11-.3c3.8,1.3,6.6,4.1,8.6,8.3-2.4,1.4-4.4,4-5.8,7.9-1.5,3.9-2.5,8.1-3.2,12.7s-1.1,8.6-1.2,12.1c-.1,3.6,.4,6.1,1.5,7.5s3.1,1.1,5.9-.7c1.5-1,2.9-2.1,4.2-3.4,.2-1.7,.6-3.3,1.3-4.7,2.1-4.5,3.8-8.6,5.2-12.3,1.3-3.6,2.5-8.1,3.7-13.4-.8-4.2-.9-8.1-.3-11.7s2.2-5.9,5-7.1c2.8-.9,5.2-.5,7.3,1,2.1,1.5,3.1,4.1,3.2,7.5,1.5-1.2,2.9-2,4.3-2.6s3.2-.8,5.3-.8c5.7,.3,9.6,2.5,11.7,6.6,2.2,4.1,3,9.3,2.4,15.4-.5,6.1-2,12.3-4.4,18.5-1.2,3-1.9,5.3-2.1,6.9s.6,2.3,2.2,2.3c1.4-.2,3.6-1.9,6.8-5,3.2-3.2,6.2-7,9.1-11.4,.4-.5,.7-.8,1-1.1,1.4-8.1,3.3-16.2,5.5-24.2,2.8-10,5.9-18.5,9.3-25.7,3.3-7.2,6.4-11.7,9.3-13.6,2.3-1.4,5.1-2,8.3-1.8,3.2,.1,6.2,1.2,9,3.1,2.8,1.9,4.9,4.8,6.2,8.7-3.1,1.5-6.4,6.6-9.8,15.3-3.5,8.7-6.5,18.3-9.1,28.9s-4,19.4-4.4,26.6c-.2,4.1,.4,6.9,1.7,8.4,1.3,1.5,3.5,1.2,6.6-.8,2.3-1.5,4.4-3.2,6.2-5.3,1.9-2.1,4.3-5.5,7.3-10.1,.8-1.2,1.5-1.6,2.2-1.3,.7,.3,.9,1,.9,2-.4,2.3-2,6.1-4.8,11.4-2.7,5.3-6.3,10.7-10.5,16.2-4.3,5.5-8.9,9.5-13.9,12.2s-9.9,2.5-14.7-.4c-4-3-6.4-8.4-7.3-16.3-.7-6.4-.6-13.6,.3-21.6-.8,1.7-1.7,3.6-2.7,5.5-5.5,9.6-10.9,16-16.1,19.3-5.2,3.2-10.4,3.8-15.7,1.8-3.3-1.3-4.9-4.6-4.7-9.9,.2-5.3,2.1-11.9,5.8-19.8,1.7-3.5,3.2-7.5,4.5-11.8,1.3-4.4,1.5-8,.6-10.8-.9-2.9-3.7-3.8-8.5-2.8-5.1,11.2-10.7,21.1-16.9,29.5-2.4,4.7-5.5,9.5-9.3,14.3-3.8,4.9-7.9,8.5-12.4,10.9-4.4,2.4-8.8,2.3-13.1-.4-3.8-2.7-6.1-7.2-7-13.4-.8-6.2-.5-13.5,.8-21.8,1.5-8.6,3.6-17.3,6.3-26.3Zm-87-.7c1.4-6.7,3.7-12.8,7-18.2,4.4-7,9.7-13.1,16-18.2,6.3-5.1,13.2-8.8,20.7-11s15.3-2.3,23.2-.3c5.9,1.6,10.1,4.6,12.4,8.7,2.3,4.2,2.9,8.7,1.8,13.5-1.2,4.8-4.1,9-8.7,12.5-4.6,3.6-10.9,5.6-19,6.1-4,0-6.7-1.5-8.3-4.5-1.6-2.9-1.9-6.1-1-9.5s3-5.9,6.4-7.5c2.2,2,4.6,3,7,2.9,2.5,0,4.5-.6,6.1-1.8,1.6-1.2,2.3-2.4,2-3.8s-2.1-2.4-5.5-3c-6.1-.9-12.2,.5-18.1,4.1-5.9,3.7-10.7,8.9-14.5,15.8-3.7,6.9-5.3,14.6-4.8,23.3,.6,4.4,2.8,7,6.6,7.7,3.8,.7,8.4,.1,13.7-1.7,5.3-1.8,10.4-4.1,15.3-7,.4-1.2,.5-2.3,.4-3.4s-.4-2-1-2.6c1-1.7,2.6-2.8,5-3.3s4.6-.4,6.6,.5,3,2.6,2.9,5.2c-1,10.8-2.4,20.8-4.2,30-1.8,9.2-4.5,17.3-7.8,24.5-1.6,3.5-3.7,7-6.2,10.4-2.5,3.5-5.6,6.4-9.2,8.9-3.7,2.5-8,4-13,4.6-5.4,.5-10.1-.3-14.1-2.2-4-2-6.7-4.6-8.1-8-1.5-4.4-1.5-8.7-.3-12.8,1.3-4.2,3.1-6.8,5.4-8,2.3,2.8,5,4.4,8.1,4.9s6.1,.1,9.1-1.1,5.5-3,7.6-5.3c4.9-5.7,9-12.5,12.1-20.6-1.2,.8-2.4,1.6-3.7,2.3-10.5,5.8-19.3,8.6-26.2,8.6s-12.2-2-15.9-6c-3.7-4-6-9.1-6.9-15.4-.5-6.1-.2-12.6,1.1-19.3Zm13.2,128.5c-.7,16.1-3.9,32-9.4,47.5s-12.8,29.3-21.7,41.2c-8.9,12-18.9,20.9-29.8,26.7-10.9,5.8-22.2,7.1-33.7,3.8-10.3-3.4-17.4-9.4-21.3-18-3.9-8.5-5-17.5-3.5-26.8s5.3-17,11.2-23c5.1,5.9,11.4,8.7,19,8.5s14.1-2.4,19.7-6.6c5.5-4.1,10.4-10.2,14.5-18.4,4.1-8.2,6.6-17.9,7.3-29.1,.6-23.5-2.7-42.2-10.1-56-7.4-13.8-16.4-23.8-27.1-29.9-10.7-6.1-20.6-9.5-29.8-10h-1c4.5,8.8,6,20,4.3,33.7s-4.9,28-9.7,43-9.5,28.7-14.2,41.2c-.9,2.4-1.8,4.6-2.6,6.8-2.4,6.4-4.5,13.7-6.1,21.9-1.6,8.3-1.3,15.7,.8,22.3,2.1,6.6,7.6,10.6,16.4,12-.5,10.4-4.6,19.2-12.1,26.2s-16.5,10.8-26.8,11.4c-10.3,.5-19.9-3.7-28.7-12.8-7.2-8.1-10.2-17.4-9-27.8,1.2-10.4,5-21.6,11.3-33.4s13.5-24.1,21.7-36.7c2.4-3.8,4.7-7.6,7.1-11.4,7.2-11.8,12.7-23.2,16.5-34.3,3.9-11.1,6.6-21.1,8.2-30s2.6-18.7,3.1-29.3c-.1-.1-.1-.2-.1-.3v-.3c-12.5,4.3-21.5,12-26.9,23.2s-7.2,23.6-5.3,37.1c-5.1,2-10.8,2.3-17.1,1-6.4-1.4-12.1-4.3-17.3-8.8-5.2-4.5-8.5-10.5-10-17.9s.1-16.2,4.8-26.3c5-10.1,12.3-18,22-23.8,9.7-5.8,20.8-9.8,33.2-11.8,12.4-2.1,25.3-2.6,38.6-1.6,11.3,.7,23.6,3.5,36.7,8.4,13.2,4.9,25.7,12.1,37.6,21.6s21.5,21.4,28.8,35.8c7.3,14.3,10.8,31.3,10.5,51Zm-80.4-53.9c1.5,.8,3.1,1.6,4.6,2.5,.3,.2,.6,.4,.9,.5,1.6,2.3,3,4.8,4.5,7.5,6.2,11.5,9,27.9,8.5,48.6-.6,9.1-2.6,16.9-5.8,23.3s-6.5,10.7-10.2,13.4l-.1,.1c-3.2,2.4-6.9,3.6-11.5,3.7-3.2,.1-5.5-.9-7.8-3.6l-4.1-4.7c3.4-9.5,6.8-19.6,10.2-30.2,5-15.7,8.4-31.1,10.2-45.6,.5-5.4,.8-10.6,.6-15.5Zm348.1,89c-3.4,8.3-7.9,16.8-13.4,25.4s-11.7,15-18.6,19.2-14.2,4-21.7-.7c-8.3-6.2-14-17.8-17.1-34.9-6.3,13.5-13.8,23.8-22.5,30.8-8.8,7-17.3,9.3-25.5,6.9-9-3.5-14.6-11.8-17-25-.2-1.2-.4-2.5-.5-3.8-1.4,2.5-3,5.1-4.6,7.6-5.5,8.6-11.7,15-18.6,19.2s-14.1,4-21.8-.7c-4.9-3.3-8.8-7.8-11.8-13.5s-5.1-12-6.4-19.1c-6.6,12.9-14.2,22.6-22.9,29.2-8.7,6.5-17.1,8.6-25.1,6.2-9.3-3.7-15.2-12.3-17.7-26-2.4-13.7-.8-29.2,4.8-46.6,6-17,14-30.1,24.1-39.2s20.1-13.2,30.1-12.5c3.6,.2,7.3,1.1,11,2.8,3.8,1.7,6.6,4.6,8.5,8.8,2.1-3.1,4.5-5.4,6.9-6.9,8-4.8,15.9-6,24-3.6,8,2.4,13.6,8.3,16.9,17.6-7.1,2.7-12.8,8.6-17.1,18-4.4,9.4-6.9,22-7.4,37.9-.3,6.4,.6,10.9,2.7,13.3s5.5,2,10.4-1.3c4.4-2.8,9.3-7.7,14.7-14.8,.9-5.5,2.4-11.3,4.3-17.3,5.8-16.4,13.6-29,23.2-37.8,9.7-8.7,19.3-12.7,29-11.9,4.1,.2,8.3,1.4,12.5,3.7,3.5-15.8,7.7-29.4,12.6-40.8,4.9-11.5,9.5-18.7,14-21.8,8-4.8,15.9-6,24-3.6,8,2.4,13.6,8.3,16.9,17.6-4.9,2.5-10.1,10.8-15.5,25-5.5,14.2-10.3,29.9-14.3,47.1-4.1,17.2-6.4,31.4-6.9,42.7-.3,6.4,.6,10.9,2.7,13.3s5.5,2,10.4-1.3c6.8-4.3,14.6-13.6,23.6-27.9,1.4-1.8,2.6-2.5,3.6-2s1.5,1.5,1.4,3c-.5,3.3-2.5,9.3-5.9,17.7Z" fill="#010101" />
  </g>
  <path data-sg-fill="sg-fill-0" d="M134.81,3.1c-2.7-.5-5,1.3-5.1,4-.1,1.8,.9,3.5,2.3,4.5h0c-4,5-7.8,10.1-11.4,15.4-3.7,6.5-13,5.7-16.5-1.5-2.8-5.6-5.8-11.2-8.9-16.7,1.3-.9,2.2-2.3,2.1-4.1-.1-2.7-2.4-4.8-5.1-4.7-2.7,.1-4.7,2.3-4.4,5,.1,1.8,1.3,3.3,2.8,4.1-2.5,5.6-4.8,11.3-7,17.1-1.3,3.6-4.3,6.2-8,6.8h-.4c-3.7,.4-7.3-1.4-9.4-4.6-3.6-5-7.2-10-11-14.8,1.3-1.1,2-2.8,1.7-4.6-.4-2.6-2.9-4.3-5.5-3.7s-4.3,3.2-3.8,5.8c.3,1.7,1.6,2.9,3.1,3.4-1.6,6.1-3.1,12.2-4.4,18.4-1.6,7.8-10.3,11-15.6,5.6-4.8-4.2-9.7-8.2-14.8-12.1h0c1.1-1.4,1.6-3.2,1.1-5-.8-2.5-3.4-3.7-5.9-2.6-2.5,1.1-3.8,4.1-3,6.6,.7,2.1,2.7,3.1,4.8,2.7,8.9,17.6,17.3,35.5,25.2,53.7,7.5-4.2,25.1-8.8,43.4-11,19.2-2.3,36.9-2.1,44.3,.3,2.9-19.6,6.2-39.1,10-58.5,2.1-.1,3.8-1.6,3.9-3.8,.3-2.7-1.8-5.3-4.5-5.7Z" fill="#010101" />
</g></svg>