<svg xmlns="http://www.w3.org/2000/svg" id="Layer_1" data-name="Layer 1" viewBox="0.0 0.0 100.0 146.92605760396276">
  <g transform="scale(0.19973634802061277)"><path data-sg-fill="sg-fill-0" d="M407.8,319.7c-7.7,0-15.7,.4-23.8,1.2,12.7-8.8,23.7-18.7,33.1-29.9,18.6-22.1,31-49.3,36.9-80.9,.4-1.9-.8-3.8-2.6-4.4-.4-.1-.8-.2-1.2-.2-1.5,0-2.8,.9-3.5,2.2-3.9,8.1-16.2,16.7-39.2,16.7-1.4,0-2.8,0-4.2-.1,4.9-12.2,5.5-28.3,1.5-44.5-4.1-16.6-12.2-30.5-21.7-37.2-6.9-6.3-16-9-23.6-9.4h-1.8c-13.1,0-23.7,6.1-27.4,15.9-4,10.5-1.9,19.8,5.7,24.9,3,2,6.4,3,10.1,3,4.7,0,9.1-1.8,12.5-4.9,4.6-4.4,6.6-11.4,4.7-16.7-1.4-4.1-4.9-6.7-9.6-7.2h-1.7c-.2,0-.4,.1-.5,.2h-.1l-.6,.3h-.1c-.2,.1-.3,.2-.5,.4l-.1,.1c-.1,.1-.3,.3-.4,.4l-.1,.1c-.1,.1-.2,.3-.3,.4,0,.1-.1,.2-.1,.3-.1,.1-.1,.3-.2,.4,0,.1-.1,.2-.1,.3s-.1,.3-.1,.4v.7c.2,2.6-.6,4.4-2.5,5.5-1,.6-2.2,.9-3.5,.9-1.5,0-2.8-.4-3.9-1.1-1.6-1.1-2.2-2.9-1.8-5.3,0-.1,.1-.2,.1-.2,2.5-6.6,10.7-11,20.2-11h1.5c7,.3,15.6,3.2,21.1,9.9,.3,.3,.5,.7,.8,1.1q.1,.1,.2,.2c2.6,3.9,4,8.7,4.1,14.2,.2,14.9-8.7,32.8-23.9,48-16.9,16.9-37.5,28.9-59.9,37.7-.9-1.2-1.9-2.3-2.9-3.3-6.4-6.4-14.8-9.9-23.8-9.9-.7,0-1.4,0-2.1,.1v-1.9c-.1-2.3,1.3-4.5,3.4-5.5,22.2-10.2,36.6-32.7,36.6-57.1,0-34.6-28.2-62.8-62.8-62.8-27.2,0-50.4,17.4-59.1,41.6-.6-.1-1.3-.1-2-.1-6.9,0-13.3,3.4-16.8,9-1.7,2.6-2.6,5.6-2.8,8.8-.9,.5-1.7,1.1-2.5,1.8l-.9,.9c-.8-.1-1.6-.1-2.4-.1-.6,0-1.1,0-1.7,.1h-.2c-1.5,.2-3,.6-4.5,1.1-2.7,1-5,2.5-7,4.4l-.9,.9c-3.7,0-6.6,1.1-8.5,1.9-2.6,1.2-4.8,2.9-6.6,5.1-.3,.4-.6,.8-1,1.3-6.7,1.1-11.7,4.1-14.6,8.8h0c-.2,.4-.4,.8-.6,1.2-3,.9-5.6,2.1-7.7,3.6-2.8,2-4.4,4.7-5.4,6.9h0c-.2,.4-.3,.8-.5,1.2-1.3,.5-2.5,1.1-3.7,1.8h0c-1.6,1-2.7,2.1-3.7,3.2-2,2.1-3.4,4.6-4.2,7.3-.2,.5-.3,1-.4,1.6-2.7,1.8-4.9,3.8-6.5,6.1-.8,1.2-1.7,2.5-2.2,4.1-.4,1.4-.7,2.8-.9,4.1,0,.4-.1,.8-.1,1.2-4.8,4-7.2,9.2-7.1,15.3,0,.6,0,1.2,.1,1.9-2,2.5-3.4,5.2-4.3,8-1.1,3.2-.7,6.3-.2,8.8,.1,.5,.2,.9,.4,1.3-2,3.3-2.5,6.3-2.8,8.6-.3,3.2,.1,6.1,1.2,8.6h0c.2,.4,.4,.7,.6,1.1-1.2,3.3-1.7,6.1-1.6,8.6,0,.4,.1,.8,.1,1.2-1.5,.7-2.9,1.4-4.4,2.1-20.4,10.1-34.4,23.7-42.4,41.4-10.7,21.5-13.7,54.3-7.6,85.5,4.8,24.2,15.7,43.4,31.4,56.4-8.4,27.8-11.6,61.4-10,103,.1,1.3,.8,2.6,2,3.2,.6,.3,1.2,.5,1.9,.5s1.4-.2,1.9-.5c10-5.8,17.8-12.6,25.7-22.6,20,64.4,73.4,92.3,116.6,114.8h.1c28.4,14.8,52.9,27.6,62.3,46.9,0,.1,.1,.1,.1,.2h0c.1,.2,.2,.4,.3,.5h0c.1,.2,.3,.3,.4,.4h0c.3,.3,.7,.5,1,.7q.1,0,.2,.1c.1,.1,.3,.1,.4,.1h.9c.3,0,.5,0,.8-.1h.2c.1,0,.3-.1,.4-.1s.1,0,.2-.1c.2-.1,.3-.2,.5-.3l.1-.1c.1-.1,.3-.2,.4-.3l.1-.1c.1-.1,.2-.2,.4-.4v-.1c.1-.2,.2-.3,.3-.5h0c0-.1,.1-.1,.1-.2,9.4-19.4,34-32.2,62.4-47.1,6.9-3.6,14.1-7.3,21.3-11.3-3.3,4-5,8-5,12.3-1.4,2.2-3.9,4.4-6.6,6.6-4.2,3.5-8.4,7.2-10.5,12.4-.4,1-.4,2,0,3,.4,.9,1.2,1.7,2.1,2,.4,.2,.9,.3,1.4,.3,.3,0,.6,0,.8-.1-.3,.6-.6,1.2-.8,1.8-.7,2,.3,4.2,2.2,5,.5,.2,.9,.3,1.4,.3,1.5,0,2.8-.9,3.5-2.2-.1,.8,0,1.7,.4,2.5,.7,1.3,2,2.1,3.4,2.1,.6,0,1.2-.2,1.8-.5,2-1,4.1-2.8,6-5-.4,.8-.9,1.7-1.5,2.6-.8,1-1.8,1.9-2.8,2.8h0c-.8,.7-2.3,1.5-3.7,2.2-1.9,.9-2.7,3.3-1.7,5.2,.7,1.3,2,2.1,3.5,2.1,.6,0,1.2-.1,1.7-.4,1.9-.9,3.9-2,5.3-3.3,1.4-1.2,2.6-2.5,3.8-3.9l.1-.1v-.1c2.1-3,3.3-5.8,3.8-8.5,0-.3,.1-.6,.1-.9,6-5.6,7.5-11.7,7.7-15.9v-.7c2-2.5,3.5-5,4.4-7.5,1-2.8,1.4-5.7,1.2-8.6,0-.3-.1-.5-.1-.7,1.8-2.6,3-5.3,3.7-7.8,.7-2.8,.9-5.7,.5-8.6,0-.3-.1-.6-.2-.9,.9-1.5,1.6-3,2.1-4.6,28.4-19.4,54.5-45.5,67.2-86.3,7.8,10,15.6,16.8,25.7,22.6,.6,.3,1.3,.5,1.9,.5s1.3-.2,1.9-.5c1.2-.7,1.9-1.9,2-3.2,1.7-44.2-2.1-79.5-11.7-108.2,6.9-3.6,13.2-9.3,19.1-17.1,8.8-10.3,16.7-26.4,21.1-43.3,5.8-22.2,5.2-43.6-1.6-60.2-7.7-19-28.5-42.4-82.5-42.4Zm-67.1,364.3c.6,1.2,1.4,2.4,2.2,3.8,2.1,3.4,3,6.8,2.9,9.9-.1,1.3-.3,3-1.2,4.9-.3-.9-.7-1.9-1.1-2.8-3-6.6-5-11-2.8-15.8Zm14.9-19c.2,1.6,.2,3.2-.1,4.8-.5-.9-1.1-1.7-1.7-2.5-.2-.3-.5-.7-.7-1s-.4-.5-.6-.8-.4-.5-.6-.8c-.3-.5-.7-1-1-1.5s-.6-1-.9-1.6c-.2-.3-.3-.6-.5-.9-.2-.3-.3-.6-.4-.9-.4-.9-.7-1.7-.9-2.6-.4-1.5-.4-2.8,0-4.3h0c0-.2,.1-.4,.1-.6,1,1.2,1.9,2.3,2.8,3.4,.5,.6,1,1.3,1.5,2,.2,.3,.4,.6,.6,.8,.2,.3,.4,.6,.5,.9,.3,.5,.6,1.1,.8,1.6,.3,.6,.5,1.1,.7,1.7,.1,.3,.2,.7,.3,1,.1,.4,.2,.7,.2,1-.2,.1-.1,.2-.1,.3ZM122.8,215.2c.1-1,.1-2,.1-2.9h0v-.1c.1-5.1,.8-8.5,2.3-11.2,1-1.6,2.5-2.8,4.5-3.8-.3,1.3-.5,2.8-.7,4.4-.4,3.6-1.5,7-3.2,10.1-.8,1.3-1.8,2.4-3,3.5ZM449.4,476c-3.6-9.2-7.8-17.8-12.7-25.7,0,0,0-.1-.1-.1v-.1h0l-.1-.2c-.7-1.1-1.9-1.8-3.3-1.8h-.5c-1.5,.2-2.7,1.3-3.2,2.7-3.4,11.7-7.1,23.6-11.7,35.7-17,3.5-36.4,5.4-56.6,7.3-8.9,.8-18.1,1.7-27.4,2.8-.7-.7-1.5-1.4-2.3-2h0c-.3-.2-.5-.4-.8-.5-.9-3-2.3-5.7-3.9-8-1-1.4-2-2.5-3.1-3.5h0c-1.1-.9-2.3-1.7-3.5-2.4-.2-.1-.4-.2-.6-.3-1.3-3.2-2.8-5.6-4.6-7.5-2-2.1-4.4-3.8-7-5-.2-.1-.5-.2-.7-.3-1.7-3.3-3.8-5.5-5.3-6.9-.2-.2-.4-.4-.7-.5,19.3-6.8,37.6-12.6,54.6-16.1,21.7-4.5,42.6-6.9,60.4-6.9,25,0,42.1,4.7,47,13,2.4,4,1.9,9.2-1.5,15.5-.1,.2-.2,.5-.3,.8-3.8,4.3-7.9,7.6-12.1,10Zm-21.3,82.3c-.1,.4-.2,.9-.3,1.3-.2,1-.5,2-.7,3-10.5,40.4-33.7,66.3-60.7,85.7-.1-.7-.2-1.4-.4-2.1,0-.2-.1-.4-.1-.6,2.6-5.5,3.1-11,1.7-16,.1,0,.1-.1,.2-.1,.9-.6,1.7-1.1,2.6-1.7q.1-.1,.2-.2c3-2.1,5.9-4.2,8.7-6.4,0,0,.1-.1,.2-.1,.6-.5,1.2-.9,1.7-1.4,.4-.3,.7-.6,1.1-.9q.1-.1,.2-.2c.5-.4,.9-.8,1.4-1.2s1-.9,1.5-1.3c.5-.4,.9-.8,1.4-1.2s.9-.8,1.4-1.2c.2-.2,.4-.3,.5-.5,.4-.3,.7-.7,1.1-1,.3-.3,.7-.6,1-.9,.7-.6,1.3-1.3,2-1.9,.1-.1,.3-.3,.4-.4,1.3-1.2,2.5-2.5,3.7-3.8,.1-.1,.2-.2,.3-.3,1.1-1.2,2.3-2.5,3.4-3.7l.1-.1c13.2-15.1,22.9-32.4,29.3-52.3-.5,2.9-1,5.8-1.7,8.6-.1,.3-.2,.6-.2,.9Zm-115.9,121.8c-24.4,12.7-45.7,23.8-58.5,39.3v-49.3c.5-.1,1.1-.2,1.6-.3,.6-.1,1.2-.2,1.8-.3,1.3-.2,2.5-.5,3.7-.7,.6-.1,1.2-.2,1.7-.3,1.3-.2,2.6-.5,3.8-.7,.5-.1,1-.2,1.5-.3,1.4-.3,2.7-.6,4.1-.9,.4-.1,.8-.2,1.1-.2,1.6-.3,3.2-.7,4.8-1.1,.1,0,.3-.1,.4-.1,4.7-1.1,9.2-2.2,13.7-3.4,2.3-.6,4.5-1.2,6.8-1.9,.1,0,.2-.1,.3-.1,1.5-.4,3-.9,4.5-1.3,.2-.1,.4-.1,.6-.2,1.4-.4,2.7-.8,4.1-1.3,.3-.1,.5-.2,.7-.2,1.3-.4,2.6-.8,3.9-1.3,.3-.1,.5-.2,.8-.3,1.3-.4,2.5-.9,3.7-1.3,.3-.1,.5-.2,.8-.3,1.2-.4,2.5-.9,3.7-1.3,.3-.1,.5-.2,.8-.3,1.3-.5,2.5-.9,3.7-1.4,.2-.1,.4-.2,.6-.2,1.3-.5,2.7-1.1,4-1.6,.1,0,.2-.1,.2-.1,2.8-1.2,5.6-2.4,8.3-3.6,.2-.1,.5-.2,.7-.3,.9-.4,1.8-.8,2.7-1.3h0c.1,.3,.2,.6,.3,.8-1.4,2.4-2.4,4.7-2.9,7-.6,2.6-.6,5.2,.1,7.8,.1,.3,.2,.5,.2,.8-1.6,2.2-2.7,4.4-3.3,6.5-8.1,4.9-16.7,9.3-25,13.7Zm-239.5-117.4h0c-.2-1-.5-1.9-.7-2.9-.1-.4-.2-.7-.2-1.1-.1-.6-.3-1.2-.4-1.8-.2-1-.4-2-.6-3.1,0-.2-.1-.3-.1-.5-.1-.7-.3-1.4-.4-2.1,0-.1,0-.2-.1-.3-.1-.4-.1-.7-.2-1.1,6.7,20.4,17,38.1,30.9,53.4,.1,.1,.2,.2,.3,.3,1.1,1.2,2.3,2.4,3.4,3.6,.2,.2,.3,.4,.5,.5,1.3,1.3,2.6,2.6,3.9,3.8,.3,.3,.6,.5,.9,.8,.1,.1,.2,.2,.3,.3,.4,.3,.7,.6,1.1,1,.5,.5,1,.9,1.5,1.4,.4,.3,.8,.7,1.2,1,.6,.5,1.1,1,1.7,1.5,.4,.4,.9,.7,1.3,1.1,.3,.3,.6,.5,1,.8,.2,.2,.4,.3,.6,.5,.5,.4,1,.8,1.5,1.2s.9,.7,1.4,1.1c.6,.5,1.2,.9,1.8,1.4,.4,.3,.8,.6,1.2,.9,.7,.5,1.3,1,2,1.4,.3,.2,.7,.5,1,.7,.7,.5,1.5,1,2.2,1.5,.2,.2,.5,.3,.8,.5,2.9,1.9,5.8,3.8,8.9,5.6,0,0,.1,0,.1,.1,.7,.4,1.5,.9,2.2,1.3,.5,.3,.9,.5,1.4,.8,.6,.4,1.3,.7,1.9,1.1,.6,.3,1.2,.6,1.7,1,.6,.3,1.2,.6,1.8,1,.7,.3,1.3,.7,2,1,.6,.3,1.1,.6,1.7,.9,.7,.4,1.5,.7,2.2,1.1,.5,.2,1,.5,1.5,.7,.8,.4,1.7,.8,2.5,1.2,.4,.2,.9,.4,1.3,.6,1,.4,2,.9,3,1.3,.3,.1,.7,.3,1,.4,1.2,.5,2.5,1.1,3.7,1.6,.1,0,.2,.1,.3,.1,4.3,1.8,8.7,3.5,13.3,5.1q.1,0,.2,.1c1.4,.5,2.8,1,4.3,1.5,.2,.1,.4,.1,.6,.2,1.3,.4,2.6,.9,4,1.3,.3,.1,.6,.2,.9,.3,1.3,.4,2.5,.8,3.8,1.2,.3,.1,.7,.2,1,.3,1.3,.4,2.5,.8,3.8,1.1,.3,.1,.7,.2,1,.3,1.3,.4,2.6,.7,4,1.1,.3,.1,.6,.2,1,.3,1.4,.4,2.8,.8,4.3,1.1,.2,.1,.5,.1,.7,.2,3.4,.9,6.8,1.7,10.4,2.5,.1,0,.2,0,.2,.1,1.6,.4,3.2,.7,4.9,1.1,.5,.1,1.1,.2,1.7,.3,1.2,.3,2.4,.5,3.6,.7,.7,.1,1.4,.3,2.1,.4,1.1,.2,2.1,.4,3.2,.6,.8,.1,1.5,.3,2.3,.4,1,.2,2.1,.4,3.1,.6,.8,.1,1.6,.3,2.4,.4,.5,.1,1,.2,1.5,.3v49.6c-12.8-15.4-34.1-26.5-58.4-39.2-45.8-23.9-97.7-50.9-114.9-117.5Zm-7.9,.2c-6.9,9.6-13.5,16.3-21.4,21.7-.9-36.5,2-66.2,9.1-91.1,.1-.3,.2-.7,.3-1s.2-.7,.3-1c.2-.6,.4-1.2,.5-1.7,.2-.6,.4-1.2,.6-1.8,.1-.3,.2-.7,.3-1,.1-.3,.2-.7,.3-1,1.8-5.3,3.7-10.3,5.9-15.1-.1,2.9-.2,5.8-.3,8.6v1.9l-.1,8.2v4.5c-.1,.6-.2,1.2-.2,1.8,0,.4-.1,.7-.1,1.1s-.1,.7-.1,1.1c-.2,2-.4,4-.5,6.2-.8,13.9,0,31.9,3.3,49.4v.1c.1,.7,.3,1.5,.4,2.2,0,.1,.1,.3,.1,.4,.1,.6,.3,1.3,.4,1.9,.1,.2,.1,.5,.2,.7,.1,.5,.2,1,.3,1.5,.1,.4,.2,.7,.3,1.1,.1,.4,.2,.8,.3,1.2,0-.1,.1,0,.1,.1Zm295.8,72.8c-.3-.4-.7-.8-1-1.2h0l-.7-.7h0c-.1-.1-.2-.2-.3-.3-.1-.2-.3-.3-.4-.4h0c-.5-.5-1-1-1.4-1.5s-.8-.9-1.2-1.3h0c-.2-.3-.4-.5-.7-.8h0c-.2-.3-.4-.5-.6-.7h0c-2.5-3.1-3.7-5.8-3.4-9.1,1.1,1,2.2,2,3.3,3,1.4,1.2,2.6,2.5,3.6,3.9,0,0,0,.1,.1,.1h0c.2,.3,.4,.5,.5,.8h0c.2,.3,.3,.6,.5,.9h0c.3,.5,.5,1.1,.8,1.6,.2,.4,.3,.8,.4,1.3,.1,.2,.1,.4,.2,.6h0c.1,.3,.2,.7,.2,1.1h0c.1,.4,.1,.7,.1,1.1h0c0,.5,.1,1.1,0,1.6ZM78.1,497.9c.2,.4,.3,.8,.5,1.2,.3,.7,.6,1.4,.9,2.1,.3,.7,.6,1.4,.9,2.1,.2,.4,.3,.8,.5,1.1,.2,.4,.3,.8,.5,1.1,7.8,17.5,18.1,35.7,32.4,53.7-1.5,.1-2.9,.1-4.3,.1-4.3,0-8.3-.4-12.5-1.3h0c-.5-.6-.9-1.2-1.3-1.8-.4-.5-.7-1-1.1-1.4-.5-.7-1.1-1.5-1.6-2.2-.4-.5-.8-1.1-1.2-1.6-.5-.7-1-1.5-1.5-2.2-.4-.5-.7-1.1-1.1-1.6-.5-.8-1-1.6-1.5-2.4-.3-.5-.6-1-.9-1.5-.6-.9-1.1-1.8-1.7-2.8-.2-.4-.4-.7-.6-1.1-.7-1.1-1.3-2.3-1.9-3.4-.1-.1-.2-.3-.2-.4-6-11.1-10.3-22.4-12.7-33.5-.1-.4-.2-.8-.2-1.2-.1-.4-.2-.8-.2-1.2-.1-.7-.2-1.4-.4-2.1-.1-.6-.2-1.1-.3-1.7v-2.6c-.1-2.9-.2-5.9-.2-8.9v-2.1c0-1.4,0-2.8,.1-4.2,0-.6,0-1.2,.1-1.8,0-1.4,.1-2.9,.2-4.3v-.6q0,.1,.1,.2c2.6,8,5.6,16.4,9.1,24.9-.2,.6-.1,1,.1,1.4Zm193.9-27.7c.2-.1,.4-.1,.5-.2,.4,.4,.9,.7,1.3,1,.6,.4,1.2,.8,1.9,1.1,.3,.2,.7,.3,1,.5,.3,.1,.7,.3,1,.4,1,.4,2,.6,3,.8,2.5,5.1,6.1,8.3,10.9,9.9,.3,.1,.6,.2,1,.3,1.1,2.7,2.4,4.9,3.9,6.6,1.8,2.1,3.8,3.6,6.1,4.6,.3,.1,.6,.2,.8,.3,.6,1.9,1.2,3.4,1.9,4.8-9,1.5-18.1,3.2-27,5.4-.3,.1-.7,.2-1,.3s-.7,.2-1,.3c-.6,.2-1.2,.3-1.8,.5-.6,.2-1.2,.3-1.8,.5-.3,.1-.7,.2-1,.3s-.7,.2-1,.3c-5.8,1.6-11.5,3.4-17.1,5.4h0c-.3,.1-.7,.2-1,.4s-.7,.2-1,.4h0c-.6,.2-1.2,.5-1.8,.7-.6,.2-1.2,.5-1.8,.7h0c-.3,.1-.7,.3-1,.4-.1,0-.1,.1-.2,.1-.3,.1-.5,.2-.8,.3h0c-6.3,2.5-12.1,5.2-17.5,8-.3,.2-.7,.3-1,.5s-.7,.4-1,.5c-.6,.3-1.2,.7-1.9,1-.6,.3-1.3,.7-1.9,1-.3,.2-.7,.4-1,.6-.3,.2-.7,.4-1,.6-14.8,8.7-25.9,18.4-32.9,29.1-.1,.1-.2,.3-.3,.4-.1,.2-.2,.4-.3,.5-.2,.3-.4,.6-.6,.9-.3,.6-.7,1.1-1,1.7-.3,.6-.6,1.1-.9,1.7-.2,.3-.3,.6-.5,.9-.2,.3-.3,.6-.4,.9-4.9,10.3-4.9,18.8-4.3,23.3,.2,1.5,.5,3,.9,4.4,.2,.7,.4,1.4,.6,2,.2,.7,.5,1.4,.8,2.1,.3,.8,.7,1.6,1.1,2.3-1.2-.7-2.4-1.4-3.6-2.2-5-3.3-9.7-7.7-14-12.9-2-2.5-3.8-5.1-5.6-7.9-.7-1.2-1.4-2.3-2.1-3.5-.1-.2-.2-.3-.3-.5-7.6-14-11.8-30.6-11.4-45.8,.2-7.3,1.3-14,3.3-20.3,24.3-3.5,48.7-10.1,72.3-17.8,.3-.1,.7-.2,1-.3s.7-.2,1-.3c.6-.2,1.2-.4,1.9-.6,.6-.2,1.2-.4,1.9-.6,.3-.1,.7-.2,1-.3s.7-.2,1-.3c5.6-1.9,11.2-3.8,16.7-5.8h0c.3-.1,.7-.2,1-.4s.7-.2,1-.4h0c.6-.2,1.2-.4,1.8-.7,.6-.2,1.2-.4,1.8-.7h0c.3-.1,.7-.2,1-.4,.3-.1,.7-.2,1-.4h0c5.5-2,11-4,16.4-5.9,.3-.1,.7-.2,1-.4,.4,.1,.7,0,1-.1Zm45.4,19.9h-.9c-4.1-.2-7.9-.5-10.7-1.7-1.3-.6-2.4-1.4-3.4-2.6h0c-.2-.2-.3-.4-.5-.6,1.5,0,3-.1,4.4-.2,.5,0,1-.1,1.5-.1,3.1,0,6,.7,8.7,2.2,.8,.4,1.5,1,2.2,1.5,.6,.5,1.1,1.1,1.7,1.9-1-.3-2-.4-3-.4Zm5.9,8.8c.7,.2,1.3,.5,1.8,.8,.6,.3,1.2,.7,1.7,1,.2,.2,.4,.3,.6,.5,.6,.5,1.2,1.1,1.7,1.7,.3,.3,.5,.6,.8,.9,.1,.1,.2,.3,.3,.4-.5-.1-.9-.2-1.4-.3s-1-.2-1.6-.2c-.8-.1-1.5-.2-2.2-.3-2-.3-3.8-.7-5.5-1.2-1.2-.4-2.4-.8-3.4-1.4,0,0-.1,0-.1-.1-.4-.2-.8-.5-1.2-.8-.4-.3-.7-.6-1-.9-.3-.3-.7-.7-.9-1.1-.1-.2-.2-.4-.4-.6,1.2,.1,2.4,.2,3.5,.2h.8c1.4,.1,2.6,.2,3.8,.5,1.1,.4,1.9,.6,2.7,.9Zm100.6-6.8c.1-.4,.3-.8,.4-1.1,.3-.7,.5-1.4,.8-2.1,.3-.7,.5-1.4,.8-2.1,.1-.4,.3-.8,.4-1.1,.1-.4,.3-.8,.4-1.1,1.5-4.2,3-8.4,4.3-12.5h0v.8c.1,1.9,.1,3.8,.2,5.6v12.6c-.1,2.1-.1,4.2-.2,6.3h0l-.1,.5c-.3,1.7-.7,3.4-1.1,5.1,0,.2-.1,.3-.1,.5-.2,.9-.4,1.8-.7,2.8-.3,1-.5,1.9-.8,2.9h0c-4.8,16.4-13.5,33-25.6,48.6-4.2,.9-8.2,1.3-12.5,1.3-1.4,0-2.8,0-4.3-.1,17.7-22.3,29.2-44.8,37.5-65.9,.3-.2,.4-.6,.6-1Zm-2.1,56.5c0,.1-.1,.2-.1,.3-.6,1.7-1.2,3.4-1.9,5.1-.1,.3-.2,.5-.3,.8-.5,1.4-1.1,2.8-1.7,4.2-.1,.3-.3,.6-.4,.9-.6,1.4-1.3,2.9-1.9,4.3-.3,.5-.5,1.1-.8,1.6-.5,1-1,2-1.5,2.9-.4,.8-.8,1.6-1.2,2.3-.5,.9-1,1.9-1.6,2.8-.4,.7-.8,1.4-1.2,2.1-.4,.7-.8,1.3-1.2,2-.7,1.2-1.5,2.4-2.3,3.5-.4,.5-.7,1.1-1.1,1.6-.5,.8-1.1,1.5-1.6,2.3-.3,.5-.7,1-1.1,1.4-.9,1.3-1.9,2.5-2.9,3.7-.4,.5-.8,1-1.1,1.4-.6,.7-1.2,1.4-1.8,2.2-.6,.7-1.2,1.4-1.8,2.1-.8,.9-1.6,1.8-2.4,2.6-.5,.6-1.1,1.2-1.6,1.7-.5,.6-1.1,1.1-1.7,1.7l-3,3c-.5,.4-1,.9-1.4,1.3-.9,.8-1.8,1.6-2.7,2.4-.3,.3-.7,.6-1,.9-1.3,1.1-2.6,2.2-3.9,3.3-.1,.1-.3,.2-.4,.3-.3,.2-.6,.5-.9,.7-.5,.4-1,.8-1.5,1.2-.4,.3-.8,.6-1.2,.9-.6,.4-1.2,.9-1.8,1.3-.3,.2-.6,.4-.9,.6-.3,.2-.6,.5-1,.7,0-2.9-.4-5.5-1.4-7.9-.1-.2-.2-.4-.2-.6,.9-3,1.4-5.9,1.3-8.4v-.3c1.3-1,2.5-1.9,3.8-2.9,13.4-10.5,25.3-22.4,35.2-35,0-.1,.1-.1,.1-.2,.3-.4,.6-.8,1-1.3,.3-.4,.6-.7,.8-1.1,6-7.9,11.2-16,15.5-24.2-.8,4.4-1.9,8.2-3.2,11.8Zm-68.3,62.6c-.2-.3-.4-.5-.6-.8-.4-.6-.8-1.1-1.1-1.7-.1-.2-.2-.3-.3-.5-.2-.4-.3-.8-.5-1.2-.1-.3-.2-.6-.3-1-.1-.4-.1-.8-.2-1.2v-.9h0v-.6c.4,.3,.8,.6,1.2,.9,.3,.2,.6,.5,.9,.7s.5,.4,.8,.6c.2,.2,.4,.3,.6,.5,.3,.2,.6,.5,.9,.7,.5,.4,1,.9,1.5,1.4l.7,.7c.2,.3,.4,.5,.7,.8,1.2,1.4,2.1,2.9,2.7,4.6,.5,1.3,.8,2.9,.8,4.7-.7-.7-1.4-1.4-2.2-2.1-1.8-1.6-3.6-3.2-5.1-4.9-.1-.2-.3-.5-.5-.7Zm-41.1-103.6c.2,.1,.4,.2,.7,.3,.9,5.4,3.3,9.4,7.5,12.7,.3,.2,.6,.4,.9,.6,.7,6.3,2.7,10.5,6.5,13.5,.2,.2,.4,.3,.6,.5-.1,6.2,1.8,11.1,5.9,14.8-.6,6.2,.9,11.2,4.5,15.3-1.1,5.6-.2,10.3,2.6,14.7h0c.2,.2,.4,.5,.5,.8-.7,2.7-.9,5.1-.8,7.4,.2,2.7,1,5.1,2.4,7.5,.1,.3,.3,.5,.5,.8-1,2.7-1.4,5.2-1.3,7.5,0,1.8,.2,3.4,.7,5-16.4,9.1-32.3,14.6-44.1,14.6s-18.6-5.7-18.9-16.8l-.6-27c.7,0,1.4-.1,2.1-.1,5,0,12.4,1.8,13.3,5.8,.5,2.2-2,4.9-6.6,7.1-1.7,.8-2.6,2.7-2.1,4.5,.5,1.6,2,2.8,3.7,2.8h.4c9.3-1.1,17.3-6,21.9-13.4,4.3-6.7,5.3-14.7,2.9-21.7-2.9-8.5-10.5-14.1-17.9-16.3,1.8-.7,3.8-1,5.8-1,3.8,0,7.5,1.2,10.5,3.3,.6,.4,1.3,.7,2.1,.7h.4c2.1-.2,3.7-1.8,3.7-3.8,0-.6-.1-1.2-.4-1.8-2.2-6.1-8-11-16.9-14.1-6.8-2.4-15.3-3.7-24-3.9l-.3-14.1c11-2.8,22.1-4.9,33.3-6.6,.2,.2,.4,.3,.5,.4Zm-33.3,28c9,.1,17.3,1.7,23.4,4.2-7.6,.4-14.2,4-17.8,9.9-.8,1.3-.7,3,.2,4.3,.7,1,1.9,1.6,3.1,1.6,.3,0,.6,0,.9-.1,.7-.2,1.4-.3,2.3-.3,6.2,0,14.8,4.9,17.2,12,1.7,4.9,.9,10.4-2.1,15.2-.9,1.4-2,2.7-3.2,3.9,0-1-.1-1.8-.2-2.4-1.6-7-10.1-11.9-20.8-11.9-.7,0-1.5,0-2.3,.1l-.7-36.5Zm63.1,19.3c1.3,.7,2.7,1.2,3.9,1.8,3.7,1.7,6.5,3.8,8.2,6.4,1,1.5,1.6,3.1,2,4.8-.8-.5-1.7-1.1-2.6-1.5-6.9-3.7-10.7-6.4-11.5-11.5Zm18.4,44.7c.1,.3,.2,.7,.2,1,.1,.4,.1,.7,.2,1.1-.3-.2-.5-.5-.8-.7-.2-.2-.5-.4-.8-.6-.3-.2-.5-.4-.8-.6l-.1-.1c-3.9-2.9-6.6-5.3-8.2-8-.8-1.3-1.2-2.7-1.3-4.1v-.7c1.2,.8,2.4,1.7,3.6,2.5,3.6,2.4,5.9,4.9,7.1,7.6,.2,.5,.4,.9,.5,1.4,.2,.5,.3,.8,.4,1.2Zm-3.7-16.5c-3.6-2.4-7.1-4.7-8.9-7.4-.8-1.2-1.5-2.6-1.7-4.7,1.4,.8,2.7,1.5,3.8,2.2,3.4,1.8,5.9,4.1,7.6,7.1,.8,1.4,1.3,2.9,1.6,4.5-.8-.6-1.6-1.1-2.4-1.7Zm-7.6-33.4c-7.3-3.2-11.2-5.5-12.5-10.2,1.3,.5,2.7,1,4.2,1.5,3.7,1.2,6.6,3.1,8.7,5.7h0c1,1.2,1.8,2.6,2.3,4.3-.9-.4-1.8-.9-2.7-1.3Zm-19.3-25c1,.3,2,.5,3,.8l1.2,.3c3.9,1,7,2.6,9.2,4.9,1.1,1.2,2,2.6,2.7,4.2-.9-.4-1.9-.8-2.8-1.1-5-1.6-8.1-3.1-10.5-5-1.2-1.1-2.1-2.4-2.8-4.1Zm6.1-6.4l-1.2-.3c-3.8-1-7.4-1.9-9.7-3.5-1.2-.9-2.4-2-3.3-3.8,1.3,.2,2.8,.5,4.4,.7,3.8,.4,7,1.8,9.6,4h0c1.2,1,2.2,2.2,3,3.7-.9-.3-1.8-.6-2.8-.8Zm-134.8,85.8c-.1,0-.2,0-.3-.1-7-.9-12.7-7.9-13.9-17-.5-3.8-.5-11.9,5-21.8,8.2-.9,17.9-5.2,28.1-10.3l-.9,45.2c-5.2,2.5-10.5,4-16.3,4-.6,0-1.2,0-1.7,0Zm19.1-57.8c-7.8,3.9-15.3,7.6-21.8,9.7,5-5.9,12-12.1,21.9-18.3l-.1,8.6Zm8.9,112.7c-.6-.1-1.3-.3-1.9-.4-1.2-.3-2.3-.5-3.5-.8-.5-.1-1-.2-1.5-.3-1.5-.3-2.9-.7-4.4-1-.2,0-.3-.1-.5-.1-5-1.2-9.9-2.5-14.7-3.9-.1,0-.3-.1-.4-.1-1.4-.4-2.8-.8-4.2-1.2-.2-.1-.4-.1-.6-.2-1.3-.4-2.6-.8-4-1.2-.2-.1-.5-.1-.7-.2-1.3-.4-2.6-.8-3.9-1.3-.2-.1-.4-.1-.6-.2-1.3-.4-2.6-.9-3.9-1.4-.1-.1-.3-.1-.4-.2-1.4-.5-2.8-1-4.2-1.5h0c-5.7-2.2-11.3-4.4-16.5-6.9-.2-.1-.4-.2-.6-.3-1.1-.5-2.1-1-3.2-1.5-.3-.2-.6-.3-.9-.5-.9-.4-1.8-.9-2.7-1.4-.4-.2-.7-.4-1.1-.6-.8-.4-1.7-.9-2.5-1.3-.4-.2-.8-.4-1.2-.6-.8-.4-1.6-.9-2.4-1.3-.4-.2-.8-.4-1.2-.7-.8-.4-1.6-.9-2.3-1.3-.4-.2-.8-.4-1.1-.7-.8-.5-1.7-1-2.5-1.5-.3-.2-.6-.3-.8-.5-1.1-.7-2.2-1.4-3.3-2.1,0,0-.1,0-.1-.1-1-.7-2.1-1.4-3.1-2.1-.3-.2-.5-.4-.8-.5-.8-.6-1.6-1.1-2.4-1.7-.3-.2-.5-.4-.8-.6-.8-.6-1.6-1.1-2.3-1.7-.2-.2-.4-.3-.7-.5-.8-.6-1.7-1.3-2.5-1.9-.1-.1-.3-.2-.4-.3-.4-.3-.9-.7-1.3-1-.3-.2-.6-.5-.9-.7-.8-.6-1.5-1.3-2.3-1.9-1.1-.9-2.1-1.8-3.2-2.8-.4-.4-.9-.8-1.3-1.2-.8-.7-1.6-1.5-2.4-2.2-.1-.1-.2-.2-.3-.3-12.5-12.2-22.3-26-29.5-41.8v-.1c-.9-2.1-1.8-4.2-2.7-6.3-.1-.3-.2-.5-.3-.8-.4-1-.8-2-1.1-3-.2-.6-.4-1.1-.6-1.7-.5-1.4-1-2.8-1.4-4.2-.3-.9-.6-1.7-.8-2.6-.2-.7-.4-1.5-.7-2.2-.4-1.5-.8-3-1.2-4.5,0-.1-.1-.2-.1-.4h0c.4,.8,.9,1.6,1.3,2.4h0c2.2,4.1,4.7,8.2,7.4,12.3,.1,.2,.2,.3,.3,.5,.7,1.1,1.5,2.2,2.3,3.3,.2,.3,.4,.5,.6,.8,.7,1,1.5,2,2.2,3.1,.2,.3,.4,.6,.6,.9,.9,1.3,1.9,2.5,2.9,3.8h0v.1c19.6,24.8,41.4,40.6,56.3,49.4,19.2,11.4,38.2,17.9,52.1,17.9,16.6,0,26.2-8.9,26.6-24.3v-11.2l.9-44.8v-8.6l.2-9.3c5.2-2.8,11.1-5.7,17.7-8.4v137.8h0c-.3-.1-.6-.1-.9-.2-.8-.1-1.5-.3-2.3-.4-1-.2-2-.4-3-.6-.8-.1-1.5-.3-2.2-.4-1-.2-2-.4-3-.6-.7-.1-1.4-.3-2.1-.4-.9-.3-2-.6-3-.8Zm24.4,3.2v-140.5c5.7-2.1,11.4-4,17.3-5.7l.3,12.3v7.7l.8,37.4v7.8l.5,25.8c.3,15.5,10,24.3,26.6,24.3,12.5,0,27.9-4.7,43.9-13.1-.5,3.5,0,6.9,1.5,10.1-1.2,2.4-2,4.6-2.4,6.8h0c-.5,.2-1,.5-1.5,.7-.5,.3-1.1,.5-1.6,.8-.8,.4-1.7,.8-2.5,1.2-.4,.2-.8,.4-1.2,.6-2.6,1.2-5.2,2.3-7.9,3.4-.2,.1-.4,.2-.6,.3-1.1,.5-2.3,.9-3.4,1.4-.3,.1-.7,.3-1,.4-1,.4-2.1,.8-3.1,1.2-.4,.1-.8,.3-1.2,.4-1,.4-2.1,.8-3.1,1.1-.4,.1-.8,.3-1.2,.4-1,.4-2.1,.7-3.1,1.1-.4,.1-.8,.3-1.2,.4-1.1,.4-2.2,.7-3.2,1.1-.4,.1-.8,.3-1.2,.4-1.1,.4-2.3,.7-3.5,1.1-.3,.1-.7,.2-1,.3-1.3,.4-2.6,.8-4,1.2-.2,.1-.4,.1-.6,.2-3.1,.9-6.3,1.7-9.5,2.6-.4,.1-.8,.2-1.2,.3-1.2,.3-2.4,.6-3.6,.9-.6,.1-1.2,.3-1.8,.4-1,.2-2,.5-3,.7-.7,.2-1.4,.3-2.1,.5-.9,.2-1.9,.4-2.8,.6-.8,.2-1.5,.3-2.3,.5-.9,.2-1.8,.4-2.8,.6-.8,.2-1.6,.3-2.4,.5-.9,.2-1.9,.4-2.8,.5-.8,.2-1.6,.3-2.4,.5-1,.2-2,.4-3,.5-.8,.1-1.5,.3-2.3,.4,0-.2-.2-.1-.4-.1h0Zm121.8-102.3c-.9,1.1-1.2,2.6-.6,3.9,.5,1.3,1.7,2.2,3.1,2.4,4.5,.6,8.5,.9,12.3,.9,1.9,0,3.7-.1,5.6-.2-8,9.1-15.9,16.4-22.2,21.6-2.3,1.9-4.6,3.7-6.9,5.5-.1-.2-.2-.3-.2-.5,.7-2.8,.9-5.6,.6-8.4-.2-3-1.1-5.8-2.6-8.4-.1-.2-.3-.5-.4-.7,1.1-6.1,0-11.7-3.2-16.9h0c-.1-.2-.3-.4-.4-.6,.4-6.6-1.2-12.2-4.7-16.4-.2-.2-.3-.4-.5-.5,0-1.4-.1-2.6-.2-3.9h0c-.3-1.6-.7-3.1-1.3-4.7-1.1-2.8-2.6-5.3-4.5-7.4h0l-.5-.5c-.8-6.6-3.4-11.8-7.6-15.3-.2-.1-.3-.3-.5-.4-.3-1.9-.9-3.7-1.6-5.3,7.9-.8,15.6-1.6,23.2-2.3h.1c18.4-1.8,36.3-3.5,52.4-6.4-9.2,20.8-21.1,42.5-39.4,64.5Zm-67.9-82.8c-.6,0-1.3,0-1.9,.1-1.7,.1-3.5,.2-5.2,.2-2.6,0-4.6-.3-6.2-.9h0c-1.3-.4-2.7-1.1-4.1-2.6,1.4-.2,2.8-.4,4.4-.6,1.4-.2,2.6-.3,3.8-.3,2.5,0,4.6,.5,6.5,1.3,1.5,.7,2.8,1.6,4,2.7-.6,.1-.9,.1-1.3,.1Zm-14.4-11.4c-2.7,.4-5.6,.8-8.1,.8-.9,0-1.8-.1-2.5-.2,3.1-1.1,6.3-2.3,9.4-3.4,1.5,.6,2.9,1.4,4.2,2.5-1,.1-2,.2-3,.3Zm-154.9,60.1c-.5,19.2,5.8,40.4,16.7,56.7,11.3,16.9,26.2,27,42.2,28.9,1.9,.3,3.8,.4,5.7,.4,5.8,0,11-1.2,16-3.2-.9,9.9-7.2,15-18.8,15-23.7,0-64.8-21.1-96-56.8,1.7,.1,3.5,.2,5.3,.2,3.8,0,7.8-.3,12.3-.9,1.4-.2,2.6-1.1,3.1-2.4,.5-1.3,.3-2.8-.6-3.9-15-17.8-25.6-35.5-33.8-52.9,7.7,.9,15.7,1.4,23.8,1.4,8.8,0,17.7-.6,26.6-1.6-1.5,6.1-2.4,12.4-2.5,19.1Zm212.1,115.3h0c-.1-.4-.2-.8-.3-1.2h0c-.1-.3-.1-.7-.1-1h0v-1.1h0c0-.6,.1-1.2,.3-1.9,.4,.4,.7,.8,1.1,1.2h0c.2,.3,.5,.5,.7,.8h0l.7,.7h0c.1,.1,.3,.3,.4,.4,2.9,3,4.7,6,5.3,8.9,.4,1.7,.4,3.5,.2,5.3-.6-.8-1.2-1.6-1.8-2.4-2.8-3.2-5.5-6.4-6.5-9.7Zm84.6-78.5c.1-.5,.2-.9,.3-1.4,.1-.3,.1-.6,.2-.9,.1-.5,.2-1.1,.4-1.6,.1-.2,.1-.5,.2-.7,.1-.6,.2-1.2,.4-1.7,0-.2,.1-.4,.1-.6,.1-.6,.2-1.2,.4-1.8,0-.2,.1-.4,.1-.5,.1-.6,.2-1.2,.3-1.9,0-.2,.1-.3,.1-.5,.1-.6,.2-1.2,.3-1.9,0-.2,.1-.3,.1-.5,.1-.6,.2-1.2,.3-1.8,0-.2,.1-.4,.1-.6,.1-.6,.2-1.2,.3-1.8,0-.2,.1-.4,.1-.7,.1-.6,.1-1.1,.2-1.7,0-.3,.1-.5,.1-.8,.1-.5,.1-1,.2-1.5,0-.3,.1-.6,.1-.9,.1-.5,.1-.9,.2-1.4,0-.4,.1-.7,.1-1.1s.1-.8,.1-1.2,.1-.9,.1-1.3c0-.3,.1-.6,.1-.9,0-.5,.1-1,.1-1.6,0-.2,0-.5,.1-.7,0-.6,.1-1.2,.1-1.8v-.4c0-.7,.1-1.4,.1-2.2v-.1c.6-10.1,.4-19.5-.3-27.2-.2-1.7-.3-3.3-.5-4.8v-.1l-.1-5.2v-8.2l-.1-4.2v-.1c-.1-2-.1-3.9-.2-5.9v-.1c1.3,2.9,2.6,5.9,3.8,9,.1,.3,.2,.6,.4,.9,.1,.3,.2,.6,.4,.9,.2,.6,.4,1.2,.6,1.7,.2,.6,.4,1.2,.6,1.7,.1,.3,.2,.6,.3,1,.1,.3,.2,.6,.3,.9,8.7,26.2,12.3,58.1,11.3,98-7.9-5.4-14.5-12.1-21.4-21.7-.5,.1-.5,0-.4-.1Zm52.9-180c1.3,10.4,.5,21.2-1.6,31.6-1.5,7.2-3.6,14.2-6.1,20.6-2.4,6.2-5.1,11.8-8,16.6-.1-.2-.1-.5-.2-.7-.4-1.7-1.1-3.4-2-4.9-8.2-13.8-33.7-16.8-53.7-16.8-18.3,0-39.8,2.4-62,7-19.2,4-39.8,10.7-61.4,18.4-.3,.1-.7,.2-1,.3-.3,.1-.7,.2-1,.4-.9,.3-1.9,.7-2.8,1-.3,.1-.5,.2-.8,.3h-.1c-3.2,1.2-6.4,2.3-9.7,3.5-.3,.1-.7,.2-1,.4-.3,.1-.7,.2-1,.4-.6,.2-1.2,.4-1.8,.7-.6,.2-1.2,.4-1.8,.7-.3,.1-.7,.2-1,.4-.2,.1-.4,.2-.7,.2h-.1c-.1,0-.2,.1-.3,.1-.2,.1-.3,.1-.5,.2-.6,.2-1.1,.4-1.7,.6s-1.3,.5-1.9,.7c-4,1.5-8,2.9-12.1,4.4h0c-.3,.1-.7,.2-1,.4-.3,.1-.7,.2-1,.4h0c-.6,.2-1.2,.4-1.8,.7-.6,.2-1.2,.4-1.8,.7h0c-.3,.1-.7,.2-1,.4-.3,.1-.7,.2-1,.4h0c-5.4,1.9-10.9,3.9-16.5,5.7-.3,.1-.7,.2-1,.3-.3,.1-.7,.2-1,.3-.6,.2-1.2,.4-1.9,.6-.6,.2-1.2,.4-1.9,.6-.3,.1-.7,.2-1,.3-.3,.1-.7,.2-1,.3-22.7,7.4-46,14-69.2,17.7-.4,.1-.8,.1-1.2,.2-.4,.1-.8,.1-1.2,.2-.7,.1-1.4,.2-2.1,.3-.8,.1-1.5,.2-2.3,.3-.4,.1-.8,.1-1.2,.2-.4,0-.7,.1-1.1,.1-9.8,1.3-19.6,2-29.3,2-8.6,0-16.9-.5-24.9-1.6-.9-.1-1.7-.3-2.6-.4-7-16.3-12-32.3-16.5-47.8-.4-1.5-1.7-2.5-3.2-2.7h-1.1c-.3,0-.7,.1-1,.3-.7,.3-1.2,.8-1.7,1.4,0,.1-.1,.1-.1,.2l-.5,.8v.1c-.3,.4-.5,.9-.8,1.3-.2,.4-.5,.8-.7,1.2-.2,.4-.5,.8-.7,1.2-1.2,2.2-2.4,4.4-3.6,6.6-.2,.3-.3,.6-.4,.9s-.3,.6-.4,.9c-.3,.6-.5,1.1-.8,1.7-.3,.5-.5,1.1-.8,1.7-.1,.3-.3,.6-.4,.9s-.3,.6-.4,.9c-1.8,4.1-3.5,8.4-5.1,12.8-12.3-11-21-26.6-25.5-46.2-.3-1.3-.6-2.6-.9-4-.1-.4-.1-.7-.2-1.1-.4-1.9-.7-3.7-1-5.6-.7-4.3-1.1-8.7-1.4-13.1-.5-6.9-.5-13.8-.1-20.6,.4-6.1,1.1-12.1,2.2-17.7,.2-1.1,.4-2.1,.7-3.1,.2,.6,.4,1.1,.6,1.7,3.3,9.4,10.4,17.4,20.8,23.3,8.9,5,20.3,8.2,33.8,9.6,.5,0,.9,.1,1.4,.1s.9,.1,1.4,.1c.9,.1,1.9,.1,2.8,.2,1,.1,2,.1,3.1,.2,.5,0,1.1,0,1.7,.1,.6,0,1.1,0,1.7,.1h4c12.3,0,26-1.3,40.8-3.7,.4-.1,.8-.1,1.2-.2s.8-.1,1.2-.2c1.2-.2,2.5-.4,3.8-.7,.2,0,.4-.1,.6-.1,.1,0,.2,0,.3-.1,.5-.1,.9-.2,1.4-.3,.5-.1,1.1-.2,1.6-.3,5.1-1,10.4-2.2,15.7-3.4,.5-.1,1.1-.3,1.6-.4s1-.2,1.5-.4c.3-.1,.6-.1,.9-.2,1.3-.3,2.5-.6,3.8-1,.4-.1,.8-.2,1.2-.3,.4-.1,.8-.2,1.2-.3,16.9-4.5,34.8-10.3,53.5-17.3,.3-.1,.7-.3,1-.4s.7-.3,1-.4c.6-.2,1.2-.5,1.9-.7,.6-.2,1.2-.5,1.9-.7,.3-.1,.7-.3,1-.4s.7-.3,1-.4c2.7-1.1,5.5-2.2,8.2-3.3,1.4-.6,2.8-1.1,4.1-1.7,.6-.3,1.3-.5,1.9-.8h0c.3-.1,.7-.3,1-.4s.7-.3,1-.4h.1c.6-.2,1.2-.5,1.7-.7,.6-.3,1.2-.5,1.8-.8h0c.3-.1,.7-.3,1-.4,.1,0,.2-.1,.3-.1,.2-.1,.4-.2,.7-.3h0c.7-.3,1.4-.6,2.1-.9,2.7-1.1,5.5-2.3,8.4-3.4,1.2-.5,2.3-.9,3.5-1.4,.3-.1,.7-.3,1-.4s.6-.2,.9-.3h.1c.6-.2,1.2-.5,1.8-.7,.6-.2,1.2-.5,1.8-.7,.3-.1,.7-.2,1-.4,.3-.1,.7-.2,1-.4h.1c19.5-7.2,41.5-14,63.7-19.1,1.7-.4,3.4-.8,5.1-1.1,1.6-.4,3.2-.7,4.8-1,2.3-.5,4.5-.9,6.8-1.3s4.6-.8,6.9-1.2c1-.2,2.1-.3,3.1-.5,.9-.1,1.9-.3,2.8-.4,13.5-2.1,26.8-3.2,39.3-3.2,18.8,0,34.6,3,47.1,8.9,1.6,.8,3.2,1.6,4.7,2.4,2.2,1.3,4.3,2.6,6.3,4.1,7.9,5.9,13.9,13.5,17.6,22.7,2.5,4.9,3.8,10.7,4.6,16.5ZM68.1,312.1c1.1-.5,2.1-1,3.2-1.5,.2,.3,.3,.5,.5,.8-.7,3.1-.9,6.1-.5,8.9v.2c.6,2.8,1.7,5.4,3.4,7.7,.3,.4,.7,.9,1.1,1.3-.3,3.5,.1,6.6,.9,9.2h0c1,2.7,2.5,5.1,4.6,7.1,.4,.4,.8,.8,1.4,1.2,.6,8.4,4.9,12.9,8.4,15.3h0c.4,.2,.8,.5,1.2,.6,.4,1.5,.8,2.8,1.4,4h0c.7,1.4,1.5,2.8,2.5,4,1.9,2.5,4.2,4.3,6.9,5.4,.4,.2,.8,.3,1.2,.5,1.8,4.2,4.3,7,6.7,8.8-9,3.4-16.9,7.1-23.7,11.3-16.6-.6-30-3.7-39.8-9.3-16.6-9.3-22.8-25.3-16.3-41.7,0-.1,0-.2,.1-.3,7.6-14,19.7-25,36.8-33.5Zm8.4-11.1l.1,.1c.3,.2,.6,.5,.9,.7,.5,.4,1.1,.9,1.7,1.3,.3,.2,.6,.4,.9,.7,.3,.2,.6,.4,.8,.6,.3,.2,.6,.5,1,.7,.3,.2,.6,.5,.9,.7,2,1.7,3.6,3.6,4.7,5.5,.7,1.2,1.2,2.4,1.5,3.8-.8-.5-1.7-1-2.6-1.5-2.7-1.6-6-3.6-7.9-6.2-.2-.3-.4-.5-.5-.8,0-.1-.1-.2-.2-.2-.1-.2-.2-.5-.3-.7-.2-.5-.5-1.1-.6-1.7-.2-.6-.3-1.2-.3-1.9,0-.2-.1-.4-.1-.6v-.4s0-.1,0-.1Zm18.8-52.6c-.2,1.6-.6,3-1,4.2-.4-.8-.8-1.7-1.3-2.6-.6-1.1-1.1-2.1-1.4-3-.3-.7-.6-1.6-.9-2.7-.5-1.8-.6-3.6-.5-5.3,.1-.8,.2-1.6,.5-2.4,.2-.6,.6-1.3,1.2-2.1,.2-.2,.4-.5,.6-.7,.3,1.4,.7,2.8,1.1,4.3,.4,1.4,.7,2.8,1,4.3v.1l.2,1.1c.5,1.8,.6,3.4,.5,4.8Zm48.1-55.5c-1,4.1-2.4,7.2-4.3,9.5v.2c-.9,1.2-1.9,2.2-3,3,.2-1,.4-2,.5-3,.3-2.5,.7-4.5,1.3-6.2,.3-1,.6-1.8,.9-2.5,.4-.8,.9-1.4,1.3-2,1-1.3,2.3-2.3,3.9-3,.2-.1,.4-.2,.7-.3-.5,1.3-.9,2.7-1.3,4.3Zm33.8-23.7c.1-.4,.2-.7,.3-1,.3-.7,.6-1.4,1-2.1,2-3.2,5.8-5.2,10-5.3-.6,2.3-1.5,4.1-2.8,5.6-.9,1-1.9,2-2.9,3-.1,0-.2,.1-.3,.1-.5,.3-.9,.5-1.4,.8-1.4,.9-2.7,1.8-3.8,2.8-.2,.1-.3,.3-.4,.4v-.3c-.1-1,0-2,.1-3,.1-.3,.1-.6,.2-1Zm117.1,86.2c.1,.1,.2,.3,.4,.4,.2,.2,.4,.4,.5,.6q.1,.1,.1,.2c.2,.3,.4,.6,.6,.8,.2,.3,.4,.5,.6,.8,.2,.4,.5,.7,.7,1.1,.1,.1,.2,.3,.2,.4,.2,.3,.3,.6,.5,.9,.1,.2,.2,.4,.3,.6,.1,.1,.1,.2,.1,.3,.1,.2,.2,.5,.3,.7,.1,.3,.3,.7,.4,1,1.1,2.9,1.7,6,1.7,9.2,0,10.4-6.4,21.2-17.9,33.2l-1,1-1,1-1.9,1.9c-.6,.6-1.3,1.3-2,1.9-.4,.3-.7,.7-1.1,1s-.7,.7-1.1,1c-.1,.1-.2,.2-.4,.3-.3,.3-.6,.6-1,.9-.3,.3-.7,.6-1,.9-.6,.5-1.2,1.1-1.8,1.6-.6,.5-1.2,1.1-1.8,1.6-.3,.3-.7,.6-1,.9s-.7,.6-1,.9c-4.1,3.5-8.5,7.2-13.2,11h0c-.3,.3-.7,.5-1,.8s-.7,.5-1,.8h0c-.6,.5-1.2,1-1.8,1.5-.1,.1-.2,.1-.2,.2-.5-.4-1.1-.8-1.6-1.2h0c-.3-.3-.7-.5-1-.8s-.7-.5-1-.8h0c-4.9-3.7-9.3-7.3-13.2-10.6-.3-.3-.7-.5-1-.8s-.7-.6-1-.8c-.6-.5-1.2-1-1.8-1.6-.6-.5-1.2-1.1-1.8-1.6-.3-.3-.7-.6-1-.9s-.7-.6-1-.9c-.6-.5-1.1-1-1.7-1.5-.4-.3-.7-.7-1.1-1s-.7-.7-1.1-1c-.7-.6-1.3-1.3-2-1.9s-1.3-1.3-1.9-1.9l-1-1-1-1c-8.3-8.7-12.8-15.8-15.1-22.1-.1-.3-.2-.6-.3-1-.1-.3-.2-.6-.3-1-.2-.6-.3-1.2-.5-1.8-.1-.6-.2-1.2-.3-1.8-.1-.3-.1-.7-.1-1s-.1-.7-.1-1c-.2-1.6-.2-3.2-.1-4.8,.1-2.7,.7-5.4,1.7-7.9,.1-.3,.3-.7,.4-1,.1-.3,.3-.7,.5-1,.3-.7,.7-1.3,1-1.9,.4-.6,.8-1.3,1.2-1.9,.3-.4,.5-.7,.8-1,.3-.4,.6-.7,.9-1,.4-.4,.7-.8,1.1-1.2,4.9-4.9,11.4-7.6,18.4-7.6,.8,0,1.6,0,2.3,.1,.3,0,.7,.1,1,.1s.7,.1,1,.1c.6,.1,1.2,.2,1.8,.4,.6,.1,1.2,.3,1.8,.5,.3,.1,.7,.2,1,.3,.3,.1,.7,.2,1,.4,3.1,1.3,5.9,3.2,8.4,5.6l.2,.2,1,1,1,1,1,1,.8,.8,.1,.1,.1,.1c.3,.3,.6,.5,1,.7,.5,.2,1.1,.4,1.6,.4,.7,0,1.4-.2,2-.6,.2-.2,.5-.3,.7-.5l.1-.1,.2-.2,1-1,.6-.6,1-1,1-1,.2-.2c2.5-2.5,5.5-4.5,8.8-5.8,.3-.1,.7-.3,1-.4s.7-.2,1-.3c.6-.2,1.2-.3,1.8-.5,.6-.1,1.2-.3,1.8-.4,.3,0,.7-.1,1-.1s.7-.1,1-.1c.6,0,1.3-.1,1.9-.1,6.9,0,13.4,2.7,18.3,7.6,.3,.3,.5,.5,.7,.8,.3,.3,.5,.4,.6,.6Zm99.7-26c.6,1.1,1.7,1.9,2.9,2.1,3.4,.5,6.9,.7,10.6,.7,14.2,0,27-3.4,35.8-9.4-11.5,44.1-37.1,77.2-77.7,100.6-30.9,4.9-63,14-90.5,24l-.5-23.3c4.3-3.8,8.1-7.4,11.4-10.7,30.8-1.2,59.8-3.8,84.1-7.7,1.9-.3,3.2-1.9,3.2-3.8v-35.4c0-1.9-1.4-3.5-3.2-3.8-17.5-2.8-37.5-4.9-58.7-6.3,20.6-8.9,39.5-20.6,55.5-36.5,15.9-15.9,25.6-35,26.1-51.5,7.6,17.4,10,41.5,1.1,57.5-.6,1-.7,2.4-.1,3.5Zm-28.3,69.2c-21.3,3.2-46,5.5-72.3,6.7,11.8-13.7,15-23.5,15-32.8,0-3-.4-5.9-1.2-8.8,21.1,1.3,40.9,3.3,58.4,6v28.9h.1Zm-274.6,28.3h0c1,1.1,1.6,2.3,2.1,3.6-.9-.4-1.8-.7-2.8-1-3.5-1.4-7.4-3.1-9.5-6-1-1.3-1.7-2.9-2-4.5,0-.3-.1-.6-.1-1,1.1,.8,2.4,1.6,3.8,2.4h0c3.9,2.1,6.6,4.2,8.5,6.5Zm42.8-34.7v-22.4c17.4-2.6,37.1-4.7,58-6-.6,2.3-1,4.6-1.1,7-.1,2.1-.1,4.2,.1,6.3,0,.3,.1,.7,.1,1s.1,.7,.1,1c.1,.6,.2,1.2,.3,1.8,.1,.6,.3,1.2,.4,1.8,.1,.3,.2,.6,.3,1,.1,.3,.2,.6,.3,1,1.9,6.2,5.6,12.8,12.1,20.5-25.6-1.2-49.8-3.5-70.6-6.7v-6.3h0Zm100,71.7c-.7,.3-1.3,.5-2,.8v-1.5l.7-31.7c4.1,3.3,8.6,6.8,13.4,10.5v17c-2.7,1.1-5.4,2.2-8.1,3.3-1.4,.5-2.7,1-4,1.6Zm-111.5,17.7c-1.3,0-2.5-.2-3.6-.5h0c-1.8-.5-3.3-1.5-4.6-2.9,1.4-.1,2.8-.2,4.4-.4,1.5-.2,3.5-.4,5.5-.4s3.6,.2,5.1,.7h.1c1.1,.3,2,.7,3,1.2,.3,.2,.6,.3,.9,.5-.9,.2-1.9,.4-2.9,.7-1.8,.5-4.2,1-6.4,1.2-.7-.1-1.1-.1-1.5-.1Zm-16.7-15.6h1.1c1.7,0,3.3,.1,5,.4,1.9,.2,3.6,.7,4.9,1.3,1.3,.6,2.5,1.3,3.6,2.2-.9,.1-1.9,.2-2.9,.3-2.1,.3-3.9,.4-5.5,.4h-.8c-1.8-.1-3.5-.5-5.1-1.2-1.4-.6-2.7-1.6-3.8-3-.2-.2-.3-.4-.4-.6,1.3,.1,2.5,.2,3.9,.2Zm3.6-7.6c-.9-.1-1.9-.1-3-.1h-.8c-4.3,0-7.6-.8-10.2-2.4-1.7-1.2-3-2.7-3.8-4.7,1.5,.4,2.9,.7,4.4,1,3.9,.6,7.2,1.7,10,3.3,1.2,.7,2.3,1.6,3.4,2.9Zm-9.3-13.3c-1-.2-1.9-.4-3-.6-1.9-.3-3.8-.8-5.8-1.6-1.4-.6-3.2-1.4-4.4-2.6s-2.2-2.6-2.8-4.3c-.1-.3-.2-.7-.3-1.1,1.5,.7,3,1.3,4.1,1.7h0c3.9,1.3,6.9,2.9,9.4,5,1,1,1.9,2,2.8,3.5Zm32,42.7c3-.8,5.3-1.1,7.5-1.1,.6,0,1.1,0,1.7,.1h.3c1.9,.2,3.7,.8,5.4,1.7-.9,.3-1.8,.6-2.8,.9-2.8,1-6.1,2-9.1,2-.7,0-1.4-.1-2.1-.2-1.7-.3-3.1-.9-4.4-1.9-.2-.2-.5-.4-.7-.6,1.5-.2,3-.6,4.2-.9Zm-8.8,7.3c-6.6,.9-12.9,1.5-18.9,1.8,4.6-2.1,9.7-4.1,15.1-5.9,1.2,1.6,2.4,2.9,3.8,4.1Zm34.1-7.7c-1.7-1.9-3.5-3.5-5.5-4.7,4.2-.8,8.5-1.6,12.9-2.3,10.6-1.7,22.1-3.2,34.3-4.8,1.9-.2,3.8-.5,5.6-.8-15.4,5.3-30.2,9.7-44.2,13.2-1-.3-2-.5-3.1-.6Zm96.4-45.8c4.9-3.9,9.3-7.5,13.4-11l.4,19.6c-4.8,1.8-9.4,3.7-13.8,5.5v-14.1Zm-124.2-35.9c23.9,3.8,52.3,6.4,82.5,7.6,3.7,3.7,8,7.7,13,12l-.8,39.1c-8.9,1.3-17.6,2.4-26.1,3.6-12.3,1.6-23.8,3.2-34.5,4.9-7.8,1.2-15.1,2.6-22,4.2-1-1-2-2-3.2-2.8-2.1-1.6-4.5-2.8-7.1-3.5-.1,0-.2-.1-.3-.1-3-4.9-6.5-8.1-11.1-10-.1-.1-.3-.1-.5-.2-1.2-2.7-2.4-4.7-3.7-6.5h0c-1.8-2.1-3.6-3.7-5.7-5h0c-.1-.1-.2-.1-.3-.2-.6-2.4-1.3-4.8-2.6-6.8-1.5-2.6-3-4.5-4.8-5.9l-.1-.1c-.1-2.5-.6-4.8-1.3-6.9-.8-2.5-2-4.8-3.7-6.8l-.1-.1c.3-2.6,.2-4.9-.2-7.1-.4-2.7-1.2-5.1-2.7-7.4,0-.1-.1-.1-.1-.2,.5-1.8,.7-3.6,.8-5.3,9.9-2.9,20.5-5.3,31.6-7.4v7.3c-.2,1.7,1.1,3.3,3,3.6Zm92.5-135.3h.9c.6,0,1.3,.2,1.8,.5,.6,.3,1.1,.8,1.5,1.3,.1,.1,.1,.2,.2,.3,.5,1,.5,2.1-.1,3.3,0,.1-.1,.2-.1,.3-.4,.8-.9,1.5-1.5,2.2-.5,.6-1,1.1-1.6,1.5-.3,.2-.6,.4-.9,.6-.3,.2-.6,.4-.9,.5-.7,.3-1.4,.6-2.1,.7-.8,.2-1.6,.3-2.5,.3-1.5,0-2.9-.2-4.3-.7,.3-.4,.6-.9,1-1.4,.8-1.2,1.5-2.4,2.2-3.6,1.9-3.3,3-4.9,5.3-5.5,.3-.1,.7-.1,1-.2l.1-.1Zm8.3,13.1c.9-1,1.7-2.1,2.3-3.2,.1,.3,.1,.6,.2,.9,.2,1.2,.2,3.3-1.2,4.8h0c-.5-.8-.9-1.5-1.3-2.5,0,.1,0,0,0,0Zm10.1-3.3c-.6-4.1-2.8-8.6-6.7-10.1-.3-.8-.7-1.5-1.1-2.2-.6-1-1.4-1.8-2.3-2.5,3.4-7.4,10.9-12.5,19.5-12.5,11.9,0,21.5,9.7,21.5,21.5s-9.7,21.6-21.5,21.6c-4.9,0-9.4-1.6-13-4.4,3.3-3.2,4.2-7.6,3.6-11.4Zm-56,11.4c-.4-.2-.8-.4-1.1-.6-1.1-.7-2-1.6-2.6-2.5-.1-.2-.2-.3-.3-.5-.2-.3-.3-.6-.5-.9-.2-.4-.3-.8-.4-1.1v-.4c-.1-.5-.1-1,0-1.5,.2-1.9,1.4-3.9,3.5-5.6,.3-.2,.5-.4,.8-.7,0,.3,.1,.5,.1,.8v.2c.2,1.6,.5,3.2,.9,4.8,.1,.3,.2,.7,.3,1s.2,.7,.3,1c0,.1,.1,.2,.1,.3,.3,1.1,.7,2.3,1.1,3.4,.1,.3,.2,.6,.4,.9,.1,.3,.2,.6,.4,.9,.2,.6,.5,1.1,.7,1.6-.9-.2-1.7-.4-2.5-.7-.5-.1-.8-.2-1.2-.4Zm10.7-7.9c.1-.1,.2-.3,.3-.4,.8-1.2,1.6-2.5,2.3-3.9,2.7-5.4,5.8-8.6,9.2-9.7,.8-.3,1.7-.4,2.5-.4,.4,0,.9,0,1.3,.1-.6,.9-1.2,1.9-1.8,2.9v.1c-.6,1-1.2,2.1-1.9,3.1-3.1,4.6-6.1,7.5-11.5,8.2-.1,0-.3,0-.4,0Zm-2.6-11.7h.2c.1,0,.3,0,.4-.1-.1,.2-.3,.4-.4,.7-.5,.8-1,1.7-1.5,2.6-.1-.9-.1-1.9-.1-2.8,.5-.2,.9-.3,1.4-.4Zm-106.6,123.4c.2,.4,.3,.8,.4,1.2,.1,.3,.2,.6,.3,1,.1,.3,.1,.6,.2,1,0,.3,.1,.5,.1,.8-.3-.2-.5-.4-.8-.6s-.6-.5-1-.7c-.2-.1-.4-.3-.6-.5-.1-.1-.2-.2-.4-.3-3.7-2.7-6-5.3-7.3-8.1-.5-1.3-.7-2.9-.6-4.8,0-.2,.1-.5,.1-.7,1.1,1.3,2.2,2.4,3.1,3.2,3.1,2.8,5.1,5.5,6.5,8.5Zm179.1-58.2l.1,3.1c-4.1,1.2-8,3.3-11.4,6v-20.6c0-2.1-1.7-3.8-3.8-3.8s-3.8,1.7-3.8,3.8v20.9c-3.4-2.8-7.2-4.9-11.4-6.2l.1-3.3c.1-5.4-3-10.4-7.9-12.6-14.3-6.6-24.9-18.9-29.5-33.4,3.6-.6,6.8-1.9,9.6-4.1,2.9,1.6,6.4,2.5,9.9,2.5,1.4,0,2.8-.1,4.1-.4,1-.2,2.1-.6,3-1,.5,.9,1,1.7,1.5,2.4,5.2,7.9,14.2,13.2,24.4,13.2,16.1,0,29.2-13.1,29.2-29.3s-13.1-29.2-29.2-29.2c-11.9,0-22.2,7.2-26.8,17.5h-.5c-.5,0-1,0-1.4,.1-1.2,.1-2.4,.4-3.4,.8-2.8-1.3-5.6-1.9-8.3-1.9-1.7,0-3.3,.3-4.9,.7-1.7,.5-3.3,1.3-4.8,2.4-1.5-.4-2.8-.6-4.1-.7h0c4.9-25.5,27.3-44.8,54.2-44.8,30.4,0,55.2,24.7,55.2,55.1,0,21.5-12.6,41.1-32.1,50.1-5,2.4-8.1,7.3-8,12.7Zm-93.2-53.8c-.1,.7-.1,1.4,0,2.1-.9,1.3-1.9,2.4-3,3.3-.7,.5-1.3,1-2.1,1.4h-.1c-.5,.3-1,.6-1.5,.8,.4-.9,.7-1.8,1-2.8,1.2-3.7,2.6-6.4,4.3-8.4,.4,1.2,.9,2.4,1.4,3.6Zm-87,97.9c-1.3-1.3-3-2.9-4.2-4.6-1-1.6-1.7-3.1-2.1-4.7-.4-1.8-.5-3.4,0-4.8,.1-.4,.3-.8,.5-1.3,.7,1.2,1.5,2.3,2.4,3.6l.5,.7c1.5,2.2,3.1,4.6,4.1,7.1,.1,.2,.1,.5,.2,.7,.1,.3,.2,.6,.2,.8h0c.1,.5,.2,1,.3,1.7l.1,.9c.1,.6,.1,1.3,.1,1.9-.7-.6-1.3-1.3-2.1-2Zm74-95.5c-1.4,4-3,6.9-5,8.9-1.1,1-2.3,2-3.6,2.8,.3-.9,.5-1.9,.8-2.9,.6-2.4,1.2-4.4,1.9-6,.8-1.7,1.8-3.1,2.8-4.2,1.2-1.2,2.5-2,4.1-2.6,.2-.1,.4-.1,.7-.2-.7,1.3-1.2,2.7-1.7,4.2Zm-26.3,29.7h0c.1-.1,.1-.2,.1-.3,.8-.2,1.8-.5,2.7-.8,1.4-.5,2.8-1.1,4.1-1.9,2.3-1.4,4.2-3.2,5.8-5.3,.1-.1,.1-.2,.2-.3,2.8-.4,5.2-1,7.4-2.1,2.6-1.3,4.6-3,6.3-4.5h0l.3-.3c2.8-.1,5.3-.6,7.5-1.5,1.4-.5,2.5-1.2,3.5-1.7h0c1.1-.6,2.2-1.3,3.2-2.2l.3-.3h1.6c3.6,4,9.3,6.4,15.9,6.4,.4,0,.9,0,1.3-.1,6.2,13.3,16.9,24.4,30.8,30.8,2.1,1,3.5,3.1,3.4,5.5v2c-.8-.1-1.7-.1-2.5-.1-9,0-17.4,3.5-23.8,9.9-2.1,2.1-4,4.6-5.5,7.2-23.9,1.4-46.3,3.7-65.7,6.8-1.9,.3-3.2,1.9-3.2,3.8v20.3c-11.4,2.1-22.3,4.5-32.6,7.5-.2-.7-.5-1.4-.8-2.1-.1-.2-.1-.3-.2-.4,.9-2.5,1.7-4.8,1.8-7.2,.1-1.3,.1-2.7-.1-4l-.1-.8v-.1c-.1-.8-.2-1.7-.4-2.5,0-.1,0-.2-.1-.3,2.8-5.2,3.8-9.6,3.3-14.2h0c4.1-4.7,5.2-9.3,5.8-13.2v-.5c.8-.7,1.5-1.4,2.1-2.1l.6-.6c.8-.8,1.5-1.6,2.1-2.5,1.5-2.2,2.6-4.5,3.1-7.1v-.1c5.3-3.1,7.9-7.2,9.8-10.8h0c.1-.2,.2-.4,.2-.5,5.7-2.6,9.4-5.7,11.8-9.8Zm-29.2,19.4h0c-.3,1.5-.8,2.7-1.5,3.8-.2-1-.5-1.9-.8-2.9-.7-2.3-1.1-4.3-1.3-6.1-.2-2.1-.1-3.7,.3-5h0c.5-1.6,1.4-3.1,2.5-4.4l.4-.4c.1,1.5,.2,3,.5,4.5,.7,4,.6,7.5-.1,10.5Zm-14.9,23.7c.5,1.4,.7,2.9,1,4.5l.1,.6c.2,1.2,.1,2.5-.2,3.8-.4-.6-.7-1.1-1.1-1.6l-.6-.8c-1.5-2-2.5-3.7-3.3-5.4-.6-1.4-1.4-3.3-1.4-4.8,0-2,.4-3.9,1.2-5.5,.1,.2,.1,.3,.2,.5,.5,1.2,1.1,2.4,1.7,3.6,1.1,1.9,1.8,3.5,2.4,5.1Zm256.1,412.8c0-.4,0-.8,.1-1.2s.2-.9,.3-1.3h0c0-.2,.1-.3,.2-.5,.1,.1,.1,.2,.2,.3,.2,.3,.4,.6,.6,.8,.2,.3,.4,.6,.6,.8,.4,.6,.8,1.1,1.2,1.6,2.3,3.1,3.6,6.4,3.9,9.6,.1,1.6-.1,3.2-.6,4.8-.4-.9-.9-1.8-1.4-2.6-2.5-4-4.3-7.3-4.9-10.6-.2-.6-.3-1.1-.2-1.7ZM115.2,212.1h0c-.1,1.9-.1,3.8-.3,5.7-.2,1.8-.6,3.4-1.2,4.7-.6,1.2-1.3,2.4-2.2,3.6-.1-1-.2-1.9-.4-2.9-.8-4.4-.5-8,.8-11.1,.6-1.4,1.5-2.9,2.8-3.8,.3-.2,.5-.4,.8-.5-.2,1.2-.3,2.7-.3,4.3Zm240.8-54.1c.9,2.5-.4,6.3-2.7,8.6-1.9,1.8-4.5,2.8-7.2,2.8-2.1,0-4.1-.6-5.8-1.7-.9-.6-1.7-1.4-2.3-2.2,1.6,.6,3.4,.9,5.1,.9,2.6,0,5.2-.7,7.3-1.9,2.7-1.5,4.6-3.8,5.6-6.6q-.1,0,0,.1Zm-23.8,550.9c.7-.7,1.4-1.3,2.1-2-2,3.4-4.7,6.2-6.7,7.3-.4,.2-.8,.5-1.1,.8,1.3-2.1,3.4-4,5.7-6.1Z" fill="#231f20" />
  <path data-sg-fill="sg-fill-0" d="M171.1,55.7l17,49c.5,1.5,2,2.6,3.6,2.6,.3,0,.6,0,.9-.1,16.6-4.3,36.2-6.5,56.7-6.5s40.1,2.3,56.7,6.5c.3,.1,.6,.1,1,.1,1.6,0,3.1-1,3.6-2.6l17.1-49.2h.3c4.8,0,8.7-3.9,8.7-8.7s-3.9-8.7-8.7-8.7-8.7,3.9-8.7,8.7c0,1.1,.2,2.1,.6,3l-15.3,9.1,1.1-26.5c4-.8,7-4.3,7-8.5,0-4.8-3.9-8.7-8.7-8.7s-8.7,3.9-8.7,8.7c0,1.8,.5,3.4,1.4,4.7l-24.7,25.8-17.4-38.7c2.1-1.6,3.5-4.1,3.5-7,0-4.8-3.9-8.7-8.7-8.7s-8.7,3.9-8.7,8.7c0,2.8,1.4,5.3,3.5,6.9l-17.9,38.3-24.2-25.1c.8-1.3,1.3-2.9,1.3-4.5,0-4.8-3.9-8.7-8.7-8.7s-8.7,3.9-8.7,8.7c0,4.2,3,7.7,7,8.5l1.1,26.2-15-8.9c.4-1,.6-2,.6-3.1,0-4.8-3.9-8.7-8.7-8.7s-8.7,3.9-8.7,8.7c.2,4.8,4,8.7,8.8,8.7Zm31.1,10.1l-1.2-27.1,23.7,24.5c.7,.7,1.7,1.2,2.8,1.2h.6c1.3-.2,2.3-1,2.9-2.2l18.4-39.4,17.9,39.9c.5,1.2,1.6,2,2.9,2.2,.2,0,.4,.1,.7,.1,1,0,2-.4,2.8-1.2l24.3-25.1-1.1,27c-.1,1.4,.7,2.7,1.9,3.5,.6,.4,1.3,.5,2,.5s1.4-.2,2-.5l15.7-9.3-13.6,39c-16.4-3.9-35.5-5.9-55.2-5.9s-38.8,2-55.2,5.9l-13.5-39,15.7,9.3c.6,.4,1.3,.5,2,.5s1.4-.2,2-.5c.9-.7,1.6-2,1.5-3.4Z" fill="#231f20" />
  <path data-sg-fill="sg-fill-0" d="M30.8,139.8l4.1,3c.7,.5,1.4,.8,2.3,.8,1.2,0,2.4-.6,3.1-1.6,1.3-1.7,.9-4.1-.8-5.4l-4.1-3c-.7-.5-1.5-.8-2.3-.8-1.2,0-2.4,.6-3.1,1.6-1.3,1.7-.9,4.1,.8,5.4Z" fill="#231f20" />
  <path data-sg-fill="sg-fill-0" d="M45.6,150.7l7.2,5.3c.7,.5,1.5,.8,2.3,.8,1.2,0,2.4-.6,3.1-1.6,1.3-1.7,.9-4.1-.8-5.4l-7.2-5.3c-.7-.5-1.5-.7-2.3-.7h0c-1.2,0-2.4,.6-3.1,1.6-1.3,1.6-.9,4.1,.8,5.3Z" fill="#231f20" />
  <path data-sg-fill="sg-fill-0" d="M61.8,162.6l35,25.8c.7,.5,1.5,.8,2.3,.8,1.2,0,2.4-.6,3.1-1.6,.6-.8,.9-1.8,.7-2.8s-.7-1.9-1.5-2.5l-35-25.8c-.7-.5-1.5-.8-2.3-.8h0c-1.2,0-2.4,.6-3.1,1.6-1.3,1.7-.9,4.1,.8,5.3Z" fill="#231f20" />
  <path data-sg-fill="sg-fill-0" d="M131.2,160.7c.7,.7,1.7,1.2,2.8,1.2,1,0,1.9-.4,2.7-1.1,.7-.7,1.2-1.7,1.2-2.7s-.4-2-1.1-2.7l-32.3-33.6c-.7-.7-1.7-1.2-2.8-1.2h0c-1,0-1.9,.4-2.7,1.1-1.5,1.5-1.6,3.9-.1,5.4l32.3,33.6Z" fill="#231f20" />
  <path data-sg-fill="sg-fill-0" d="M121.3,71.5c.7,1.1,1.9,1.8,3.3,1.8,.7,0,1.4-.2,2-.6,1.8-1.1,2.3-3.5,1.2-5.3l-2.2-3.5c-.7-1.1-1.9-1.8-3.3-1.8h0c-.7,0-1.4,.2-2,.6-1.8,1.1-2.3,3.5-1.2,5.3l2.2,3.5Z" fill="#231f20" />
  <path data-sg-fill="sg-fill-0" d="M126.9,77.8c-.2,1-.1,2,.5,2.9l29.6,47.1c.7,1.1,1.9,1.8,3.3,1.8,.7,0,1.4-.2,2-.6,1.8-1.1,2.4-3.5,1.2-5.3l-29.6-47.1c-.7-1.1-1.9-1.8-3.3-1.8h0c-.7,0-1.4,.2-2,.6-.8,.5-1.4,1.4-1.7,2.4Z" fill="#231f20" />
  <path data-sg-fill="sg-fill-0" d="M67.5,218.6c-14.7-3.9-29.5-8-30-8.1-.4-.1-.7-.1-1-.1h0c-1.7,0-3.3,1.2-3.7,2.8-.3,1-.1,2,.4,2.9s1.3,1.5,2.3,1.8l.4,.1c4.8,1.3,17.2,4.7,29.7,8,.3,.1,.6,.1,1,.1,1.7,0,3.3-1.2,3.7-2.9,.3-1,.1-2-.4-2.9-.6-.8-1.4-1.4-2.4-1.7Z" fill="#231f20" />
  <path data-sg-fill="sg-fill-0" d="M13,265.7c.1-2.1-1.6-3.9-3.7-4l-5.4-.2h0c-2.1,0-3.8,1.6-3.9,3.7,0,1,.3,2,1,2.8s1.6,1.2,2.7,1.3l5.4,.2h.2c1.9-.1,3.6-1.7,3.7-3.8Z" fill="#231f20" />
  <path data-sg-fill="sg-fill-0" d="M18.8,269.7l34.9,1.5h.1c2.1,0,3.8-1.6,3.8-3.7,.1-2.1-1.6-3.9-3.7-4l-34.9-1.5h0c-2.1,0-3.8,1.6-3.9,3.7,0,1,.3,2,1,2.8,.8,.7,1.7,1.2,2.7,1.2Z" fill="#231f20" />
  <path data-sg-fill="sg-fill-0" d="M467.6,140.7c.8,0,1.6-.3,2.3-.7l2.8-2.1c.8-.6,1.4-1.5,1.5-2.5,.2-1-.1-2-.7-2.9-.7-1-1.9-1.6-3.1-1.6h0c-.8,0-1.6,.3-2.3,.7l-2.8,2.1c-1.7,1.2-2.1,3.7-.9,5.4,.8,1,1.9,1.6,3.2,1.6Z" fill="#231f20" />
  <path data-sg-fill="sg-fill-0" d="M422.7,173.5c.8,0,1.6-.3,2.3-.7l36.3-26.3c.8-.6,1.4-1.5,1.5-2.5,.2-1-.1-2-.7-2.9-.7-1-1.9-1.6-3.1-1.6h0c-.8,0-1.6,.3-2.3,.7l-36.3,26.3c-.8,.6-1.4,1.5-1.5,2.5-.2,1,.1,2,.7,2.9,.7,1,1.9,1.6,3.1,1.6Z" fill="#231f20" />
  <path data-sg-fill="sg-fill-0" d="M393.1,136.5c1,0,2-.4,2.7-1.1l19.4-19.4c1.5-1.5,1.5-3.9,0-5.4-.7-.7-1.7-1.1-2.7-1.1h0c-1,0-2,.4-2.7,1.1l-19.4,19.4c-.7,.7-1.1,1.7-1.1,2.7s.4,2,1.1,2.7,1.7,1.1,2.7,1.1Z" fill="#231f20" />
  <path data-sg-fill="sg-fill-0" d="M376.3,71.1c.6,.4,1.3,.6,2,.6,1.3,0,2.5-.7,3.3-1.8l1.8-2.8c.5-.9,.7-1.9,.5-2.9s-.8-1.9-1.7-2.4c-.6-.4-1.3-.6-2-.6h0c-1.3,0-2.6,.7-3.3,1.8l-1.8,2.8c-.5,.9-.7,1.9-.5,2.9,.2,1,.8,1.8,1.7,2.4Z" fill="#231f20" />
  <path data-sg-fill="sg-fill-0" d="M349.7,112.9c.6,.4,1.3,.6,2,.6,1.3,0,2.6-.7,3.3-1.8l20.8-33c1.1-1.8,.6-4.2-1.2-5.3-.6-.4-1.3-.6-2-.6h0c-1.3,0-2.6,.7-3.3,1.8l-20.7,33c-.5,.9-.7,1.9-.5,2.9,.1,1,.7,1.9,1.6,2.4Z" fill="#231f20" />
  <path data-sg-fill="sg-fill-0" d="M459.4,244.5c.1,2,1.8,3.6,3.8,3.6h.3l32.3-2.2c2.1-.1,3.7-2,3.6-4.1-.1-2-1.8-3.6-3.8-3.6h-.3l-32.3,2.2c-2.1,.1-3.7,2-3.6,4.1Z" fill="#231f20" />
  <path data-sg-fill="sg-fill-0" d="M499.9,283.8c-.6-.8-1.6-1.3-2.6-1.4l-5.2-.6h-.5c-2,0-3.6,1.5-3.8,3.4-.1,1,.2,2,.8,2.8s1.6,1.3,2.6,1.4l5.2,.6h.4c2,0,3.6-1.5,3.8-3.4,.2-1-.1-2-.7-2.8Z" fill="#231f20" />
  <path data-sg-fill="sg-fill-0" d="M450.4,277.2h-.4c-2,0-3.6,1.5-3.8,3.4-.1,1,.2,2,.8,2.8,.6,.8,1.6,1.3,2.6,1.4l30,3.4h.5c2,0,3.6-1.5,3.8-3.4,.2-2.1-1.3-4-3.4-4.3l-30.1-3.3Z" fill="#231f20" />
  <path data-sg-fill="sg-fill-0" d="M464.2,196.1c-.3,1-.3,2,.1,2.9,.6,1.3,2,2.2,3.5,2.2,.6,0,1.1-.1,1.6-.4l13.6-6.4c1.9-.9,2.7-3.2,1.8-5.1-.6-1.3-2-2.2-3.5-2.2h0c-.6,0-1.1,.1-1.6,.4l-13.6,6.4c-.8,.5-1.5,1.2-1.9,2.2Z" fill="#231f20" />
  <path data-sg-fill="sg-fill-0" d="M108.9,440.4c-5.3,0-9.5,4.3-9.5,9.5s4.3,9.5,9.5,9.5,9.5-4.3,9.5-9.5-4.3-9.5-9.5-9.5Z" fill="#231f20" />
  <path data-sg-fill="sg-fill-0" d="M400.6,371.7c-.4-.1-.8-.1-1.2-.1h-1.2c-.9,.1-1.8,.3-2.7,.6-1.3,.5-2.6,1.3-3.6,2.3-1.2,1.2-2.1,2.8-2.6,4.5-.2,.8-.4,1.7-.4,2.6,0,.6,.1,1.2,.2,1.8,.2,.9,.4,1.8,.8,2.6,.2,.4,.4,.7,.6,1.1,.2,.3,.4,.6,.7,.9,1.9,2.3,4.7,3.8,7.9,3.8,5.6,0,10.2-4.6,10.2-10.2,.1-5-3.7-9.2-8.7-9.9Z" fill="#231f20" />
  <path data-sg-fill="sg-fill-0" d="M212.9,435.6c-.1-1.5-.4-3-.7-4.5-.1-.4-.2-.9-.3-1.3q0-.1-.1-.2c-.1-.3-.2-.6-.3-1-.1-.3-.2-.6-.3-1-.4-1.3-1-2.6-1.6-3.8-.1-.3-.3-.6-.4-.9-.2-.3-.3-.6-.5-.9,0-.1-.1-.2-.1-.2-.5-.9-1.1-1.9-1.7-2.8,0-.1-.1-.1-.1-.2-.2-.3-.4-.5-.6-.8s-.4-.6-.6-.8c-.4-.5-.7-.9-1.1-1.3-.3-.4-.7-.8-1-1.1-.3-.4-.7-.7-1-1.1l-.3-.3c-.8-.7-1.5-1.4-2.4-2-5.1-4-11.3-6.6-17.8-7.3-.3,0-.6-.1-.9-.1-.8-.1-1.6-.1-2.4-.1h-.6c-.8,0-1.7,0-2.5,.1-1.8,.1-3.5,.4-5.2,.8l-10.9,2.5-1.6,.4-1.4,.3-1,.2-3.6,.8-1.2,.3h-.1c-.3,.1-.7,.2-1,.3-5.9,1.8-9.8,5.2-10.8,9.6-.6,2.8,.1,6.2,1.7,8.6,1.3,1.9,3.1,3,5.2,3.3h.5c1.9,0,3.6-1.4,3.8-3.3,.3-2-1.1-3.9-3.1-4.3l-.1-.1c-.4-.6-.7-1.8-.5-2.5,.4-1.6,2.8-3.2,6.1-4.1l.3-.1,5.2,22.9-1,.2c-2.1,.5-3.4,2.5-2.9,4.6,.4,1.7,2,3,3.7,3,.3,0,.6,0,.8-.1l1-.2,5.2,22.9-4.7,1.1c-1,.2-1.9,.8-2.4,1.7-.5,.9-.7,1.9-.5,2.9,.1,.5,.3,.9,.6,1.3,.2,.3,.4,.5,.6,.7,.3,.2,.6,.4,.9,.6,.5,.2,1.1,.4,1.7,.4,.3,0,.5,0,.8-.1h0l3.8-.9,2.3-.5,2.3-.5,15.5-3.5c6.5-1.5,12.3-4.7,16.9-9.3,.4-.4,.8-.8,1.1-1.2,.4-.4,.7-.8,1-1.2,.6-.7,1.1-1.4,1.6-2.1,.4-.5,.8-1.1,1.1-1.7,.1-.1,.1-.2,.2-.3,.2-.4,.4-.7,.7-1.1,.2-.4,.4-.7,.6-1.1,2.7-5.2,4.1-11,4-16.8,0-.4,0-.9-.1-1.3,.3-.6,.3-1.1,.2-1.5Zm-11.7,17.8c-.7,1.1-1.5,2.2-2.3,3.2-.4,.4-.7,.8-1.1,1.2-.4,.5-.9,.9-1.3,1.3-1.1,1-2.3,1.9-3.5,2.7-1.7,1.1-3.6,2-5.5,2.7l-.2-1-.4-1.7-.2-1-.2-.9-8.5-37.3-.2-1-.2-1-.8-3.4-.1-.4-.2-1-.2-1.1-.5-2.2-.2-.7c.6-.1,1.3-.1,1.9-.1h.7c2.8,0,5.4,.4,8,1.2,.5,.1,.9,.3,1.4,.5,.4,.2,.8,.3,1.3,.5,.1,0,.2,.1,.3,.1,1.2,.5,2.4,1.2,3.5,1.9,.1,.1,.2,.1,.3,.2,.3,.2,.7,.4,1,.7,.3,.2,.6,.5,.9,.7,1.3,1,2.5,2.1,3.5,3.2,.2,.3,.5,.5,.7,.8s.5,.5,.7,.8l.1,.1c.7,.9,1.3,1.8,1.9,2.8,0,.1,.1,.1,.1,.2,.2,.3,.3,.6,.5,.9s.3,.6,.4,.9c.2,.5,.5,1,.7,1.5,.1,.3,.2,.5,.3,.8,.4,1.1,.8,2.3,1.1,3.5,0,.1,0,.2,.1,.3,.1,.4,.2,.7,.2,1.1,.1,.4,.1,.7,.2,1.1,.6,6-.8,12.4-4.2,17.9Zm-28.8,14.7l-.2-1-.2-1-4.8-21c1-.2,1.8-.8,2.4-1.7,.5-.9,.7-1.9,.5-2.9-.4-1.8-1.9-3-3.7-3-.3,0-.5,0-.8,.1l-5.1-22.4-.1-.5,1.6-.4,3-.7,3-.7,1,4.4,.3,1.4,.3,1.3,9.6,42.4,.2,1,.2,1,.4,1.8v.1l-.3,.1-7.1,1.6-.2,.1Z" fill="#231f20" />
  <path data-sg-fill="sg-fill-0" d="M344.5,357.7c-5-2.7-10.7-4.1-16.3-4.1h0c-3.5,0-7,.5-10.3,1.6l-19.3,5.9h0c-6.3,2.1-10.4,6.1-11,10.8-.4,2.9,.5,6.2,2.4,8.5,1.5,1.8,3.4,2.8,5.5,2.9h.1c2.1,0,3.8-1.6,3.9-3.6,.1-2.1-1.4-3.8-3.5-4l-.1-.1c-.5-.6-.8-1.8-.7-2.5,.2-1.2,1.8-3.2,5.8-4.5l.3-.1,6.9,22.5-1,.3c-1,.3-1.8,1-2.3,1.9s-.6,2-.3,2.9c.5,1.6,2,2.7,3.7,2.7,.4,0,.7-.1,1.1-.2l1-.3,6.9,22.5-4.6,1.4c-2,.6-3.2,2.8-2.5,4.8,.1,.4,.3,.8,.6,1.2,.2,.3,.5,.5,.7,.8,.3,.3,.7,.5,1.1,.6s.8,.2,1.2,.2,.8-.1,1.1-.2l5.9-1.8,13.3-4.1,4.3-1.3c4.1-1.3,7.9-3.3,11.1-5.8,1.6-1.2,3.1-2.6,4.4-4.1,.9-1,1.8-2.1,2.6-3.2,.4-.5,.7-1.1,1.1-1.6,.3-.5,.6-1,.9-1.5,4.6-8.1,6-18,3.1-27.6-2.8-9.1-8.8-16.5-17.1-20.9Zm-24.6,36.3c.5-.9,.6-1.9,.3-2.9-.5-1.6-2-2.7-3.7-2.7h0c-.4,0-.7,.1-1.1,.2l-6.9-22.5,7.5-2.3,16.1,52.3-7.5,2.3-6.9-22.5c1-.3,1.8-1,2.2-1.9Zm3.5-32.2c1.6-.3,3.1-.4,4.7-.4,4.4,0,8.8,1.1,12.8,3.2,6.5,3.4,11.2,9.2,13.3,16.1,4.1,13.3-2.5,27.4-14.9,32.9l-15.9-51.8Z" fill="#231f20" />
  <path data-sg-fill="sg-fill-0" d="M302.5,431.8c-.5-1.6-2-2.6-3.6-2.6h0c-.4,0-.8,.1-1.1,.2l-5.1,1.6-13-17.2c.3-.1,.6-.3,1-.4,2-.8,2.9-3,2.1-5-.6-1.5-2-2.4-3.6-2.4-.5,0-1,.1-1.5,.3-.4,.2-.9,.4-1.3,.6-.3,.1-.7,.3-1,.4-.2,.1-.3,.1-.5,.2l-.5-.7-1.9-2.5-1.9-2.5-1-1.4-1-1.4-10.6-14.1h0c2-.6,3.2-2.8,2.5-4.8-.5-1.6-2-2.7-3.7-2.7h0c-.4,0-.8,.1-1.1,.2l-2,.6h0l-1,.3-1,.3h0l-1.8,.6-1.8,.6h0l-1,.3-1,.3h0l-14.6,4.5-1,.3-1,.3-.5,.2c-.5,.2-1,.4-1.3,.7-1.1,1-1.7,2.6-1.2,4.1,.2,.7,.6,1.3,1.1,1.7,.5,.5,1.1,.8,1.8,.9,.2,.1,.5,.1,.8,.1h.2c.3,0,.6-.1,.9-.2h.1l1-.3-1.3,26.5-.1,1.1h-.2c-.3,.1-.7,.2-1,.4h0c-.3,.1-.7,.3-1,.4-.5,.2-.9,.4-1.4,.6-.2,.1-.3,.1-.4,.2s-.2,.1-.3,.2c-.2,.1-.4,.3-.6,.5-.5,.5-.8,1.1-1,1.8h0v.1c-.1,.5-.1,.9,0,1.4,0,.3,.1,.5,.2,.8,.2,.4,.4,.7,.6,1.1l.2,.2c.2,.2,.5,.4,.8,.6,.1,0,.2,.1,.2,.1,.5,.2,1,.4,1.6,.4h.2c.3,0,.6,0,.8-.1,.2,0,.4-.1,.6-.2,.1-.1,.3-.1,.4-.2h0v.6l-.2,3.8-.1,1.1-.1,1.1v.2l-.2,3.5-.1,1.2-.2,3.6-.1,1.2-.1,1.2-.2,4.4-.4,.1-1,.3-1.9,.6-.3,.1c-.6,.2-1.2,.5-1.6,1-.3,.3-.5,.5-.7,.9-.2,.3-.3,.7-.3,1v.2c0,.3-.1,.6-.1,.8v.3c0,.2,.1,.4,.1,.6v.1c.2,.5,.4,1,.8,1.4l.5,.5c.4,.3,.8,.5,1.3,.6,.3,.1,.7,.1,1,.1s.6,0,.8-.1c.1,0,.2,0,.3-.1l.7-.2,.9-.3h.1l5-1.5,2.6-.8,2.5-.8,5.2-1.6,.8-.3h0l.4-.1,.6-.2,.8-.2,.2-.1h0l1.8-.6,1.8-.6h0l1-.3,1-.3h0l.9-.3,.4-.1c.6-.2,1.1-.5,1.5-.9,.3-.3,.6-.7,.8-1.1,.4-.8,.5-1.8,.2-2.8-.2-.5-.4-1-.8-1.4-.3-.3-.6-.6-.9-.8-.5-.3-1-.5-1.6-.5h-.9c-.2,0-.4,.1-.6,.1h0l-.6,.2,.2-3.3v-.2l.1-1.1,.1-1.1v-.8l.1-1.1,.1-1.1v-.5l.1-3v-.3l.1-1v-1l.2-3.1c.2,.1,.5,.1,.7,.2h0c1.8,.4,3.7,1,5.8,1.7,.4,.1,.8,.2,1.3,.2,1.3,0,2.4-.6,3.2-1.6,1.6-2.2,3.2-4.2,5.1-5.9,.3-.3,.6-.6,1-.9,.3-.3,.7-.5,1-.8,.6-.5,1.2-.9,1.8-1.3h0l1.9,2.5,1,1.4,1,1.4,8.1,10.7-4.2,1.3c-1,.3-1.8,1-2.3,1.9s-.6,2-.3,2.9c.4,1.2,1.3,2.1,2.4,2.5,.4,.1,.8,.2,1.3,.2,.3,0,.6,0,.9-.1h.2l6.9-2.1,2.6-.8h.1l7.5-2.3c1-.3,1.8-1,2.3-1.9,.2-.3,.3-.6,.3-.9,.1-.4,.1-.8,.1-1.1s-.1-.6-.2-.9q.3-.4,.3-.5Zm-62,15.2l-2.9,.9-.2,.1v-1.1l.2-3.3v-2.4l.1-3,.1-1.1,.1-1.1v-.4l.2-3.5v-.2l.1-1.1,.1-1.8,.1-1.1v-.5l.1-1.4c1.1-.3,2.2-.5,3.3-.6,.6-.1,1.1-.2,1.7-.2,.6-.1,1.1-.1,1.7-.1h.3v.2l-.1,1.2-.1,1.2-.3,5.9v2.3l-.2,4.6-.1,1-.1,1.1v.2l-.1,2.9-4,1.3Zm6.5-57.3l-1,20.7h0l-.3,7c-2.3,0-4.5,.2-6.9,.7l1.4-27.8,5.9-1.8h0l1-.3h.1l-.2,1.5Zm6.7,21h0l.8-17.5,13.7,18.1c-3.3,2.3-6.2,5-8.9,8.3-1.9-.6-3.8-1.1-5.7-1.4h0c-.1,0-.2,0-.4-.1l.5-7.4Z" fill="#231f20" />
</g></svg>