<?xml version="1.0" encoding="utf-8"?>
<svg xmlns="http://www.w3.org/2000/svg" width="1002" height="831" viewBox="0 0 1002 831">
  <path fill-rule="evenodd" d="M 919.274 3.565 C 914.141 7.611, 900.021 13.785, 890.893 15.976 C 886.277 17.084, 877.550 18.482, 871.500 19.083 C 857.177 20.505, 787.176 20.518, 756.500 19.104 C 716.930 17.280, 621.100 16.545, 601 17.911 C 560.319 20.676, 533.587 26.436, 510.339 37.449 C 475.331 54.033, 469.463 73.218, 482.589 128.182 C 486.546 144.753, 487.361 147, 489.419 147 C 491.416 147, 491.971 143.695, 491.986 131.714 L 492 120.927 497.884 125.824 C 514.455 139.614, 529.980 143.203, 541.490 135.904 C 546.706 132.596, 550.211 126.316, 552.039 117 C 552.632 113.975, 553.370 110.825, 553.679 110 C 554.645 107.414, 556.906 114.018, 556.955 119.572 C 557.066 132.058, 550.111 141.486, 535.621 148.489 C 512.359 159.732, 490.857 163.658, 458 162.660 C 434.136 161.935, 434.091 161.930, 362.500 150.980 C 289.893 139.874, 287.262 139.602, 259.124 140.274 C 214.889 141.330, 185.771 147.127, 90.013 173.942 C 68.294 180.024, 50.178 185, 49.754 185 C 49.330 185, 50.297 182.638, 51.903 179.750 C 55.889 172.583, 57.392 164.717, 55.982 158.404 C 53.014 145.110, 42.569 136.208, 28.780 135.218 C 22.955 134.800, 21.338 135.089, 16.630 137.392 C 7.906 141.661, 2.016 151.101, 1.228 162.080 C 0.646 170.193, 2.358 174.501, 10.840 186.260 C 18.943 197.494, 20.736 201.422, 28.291 224.500 C 51.593 295.684, 67.480 355.035, 105.517 513 C 124.080 590.092, 129.921 613.508, 159.400 729 C 178.021 801.955, 183.231 819.599, 188.547 827.712 C 191.012 831.474, 192 829.464, 191.999 820.691 L 191.999 812.500 195.696 812.500 C 198.796 812.500, 199.783 811.935, 201.803 809 C 204.052 805.733, 204.176 804.868, 203.669 796 C 203.252 788.696, 201.935 782.339, 197.971 768.500 C 193.925 754.375, 192.698 748.392, 192.272 740.709 L 191.729 730.917 196.123 726.709 C 207.685 715.637, 240.881 697.121, 262.500 689.685 C 286.513 681.426, 310.361 676.734, 337.842 674.860 C 351.976 673.896, 361.773 674.050, 402.500 675.873 C 461.890 678.531, 531.314 678.792, 558 676.458 C 625.544 670.551, 662.983 655.481, 675.262 629.259 C 677.912 623.599, 678.491 621.019, 678.826 613.391 C 679.046 608.381, 678.740 602.017, 678.147 599.248 C 676.631 592.182, 667.815 567.997, 666.949 568.531 C 666.556 568.775, 665.923 571.460, 665.543 574.499 C 663.962 587.160, 653.819 600.529, 640.816 607.093 C 626.441 614.349, 587.582 621.395, 547.500 624.013 C 536.435 624.736, 498.733 625.015, 439.500 624.814 C 357.789 624.537, 346.765 624.688, 331.500 626.290 C 270.073 632.737, 230.095 645.685, 191.982 671.477 L 178.110 680.864 177.086 677.682 C 175.937 674.116, 156.413 599.881, 141.005 540.500 C 119.232 456.585, 89.055 335.595, 74.429 273.567 C 71.923 262.939, 70.344 254.256, 70.829 253.771 C 73.870 250.730, 99.123 297.914, 109.754 326.500 C 118.154 349.088, 127.609 380.457, 138.041 420.350 C 139.314 425.217, 140.940 429.424, 141.655 429.698 C 142.370 429.972, 147.134 428.404, 152.242 426.213 C 173.444 417.118, 203.988 408.876, 230.500 405.094 C 256.644 401.365, 270.618 400.730, 314.126 401.294 C 348.894 401.744, 363.004 402.410, 402.500 405.464 C 476.768 411.206, 508.858 411.296, 544.958 405.866 C 582.371 400.237, 599.988 391.943, 607.607 376.370 C 612.043 367.304, 612.096 352.467, 607.779 328.293 C 606.628 321.852, 605.697 321.087, 604.553 325.644 C 601.043 339.628, 577.128 352.177, 543.994 357.420 C 523.826 360.612, 480.395 362.241, 474.566 360.025 C 468.811 357.837, 463.122 342.228, 462.265 326.273 C 461.824 318.072, 461.991 315.948, 463.108 315.548 C 463.873 315.273, 474.400 314.589, 486.500 314.027 C 498.600 313.465, 512.601 312.337, 517.613 311.521 C 545.988 306.898, 576.169 295.534, 587.014 285.390 C 593.867 278.980, 596.370 272.683, 596.313 262 C 596.274 254.847, 593.203 235.149, 590.160 222.533 L 589.444 219.566 586.746 224.170 C 574.729 244.676, 526.601 260.035, 466.500 262.544 C 446.790 263.366, 445.931 263.104, 443.045 255.391 C 438.766 243.954, 435.570 220.403, 437.847 217.089 C 438.596 216, 443.454 215.498, 459.158 214.886 C 531.226 212.079, 579.347 196.034, 584.042 173.247 C 586.658 160.549, 589.419 156.565, 598.500 152.386 C 608.857 147.619, 619.383 146.684, 654 147.457 C 729.755 149.149, 769.448 149.533, 797 148.840 C 858.679 147.290, 897.454 140.775, 907.261 130.313 C 908.780 128.693, 911.025 124.697, 912.250 121.434 C 914.224 116.174, 914.478 113.608, 914.489 98.833 C 914.495 89.667, 914.153 81.820, 913.729 81.396 C 913.305 80.972, 911.055 82.464, 908.729 84.712 C 900.419 92.744, 884.851 98.352, 862 101.546 C 843.350 104.152, 796.781 104.497, 733.026 102.501 C 669.732 100.519, 623.457 100.834, 599 103.413 C 579.211 105.500, 578.619 105.633, 579.573 107.792 C 583.639 116.994, 585.285 124.251, 585.743 135 C 586.047 142.127, 585.880 146.120, 585.302 145.500 C 584.790 144.950, 583.352 140, 582.106 134.500 C 578.460 118.398, 575.180 109.333, 571.644 105.584 C 567.375 101.057, 561.259 99.382, 540.208 96.970 C 530.698 95.881, 520.877 94.533, 518.384 93.974 C 509.317 91.942, 502.145 87.048, 497.494 79.719 C 495.134 76, 496.093 75.370, 499.624 78.318 C 508.516 85.740, 513.597 85.641, 533.732 77.651 C 555.742 68.916, 573.143 64.970, 598.500 62.963 C 614.807 61.672, 719.795 61.678, 767 62.972 C 833.543 64.797, 860.944 64.092, 882.132 60.010 C 897.131 57.121, 905.624 54.269, 909.585 50.792 C 916.277 44.916, 921.011 31.813, 922.954 13.789 C 924.537 -0.908, 924.628 -0.655, 919.274 3.565 M 21.500 144.207 C 13.661 146.947, 8 154.777, 8 162.881 C 8 171.081, 11.429 173.517, 14.350 167.393 C 15.793 164.365, 16.426 163.900, 18.285 164.497 C 24.527 166.503, 26.789 166.216, 33.257 162.599 C 40.224 158.703, 41.981 158.347, 44.989 160.225 C 47.576 161.841, 49.478 160.040, 48.653 156.754 C 47.848 153.545, 41.799 147.448, 36.984 144.992 C 32.753 142.833, 26.356 142.509, 21.500 144.207 M 913.095 156.304 C 904.200 174.678, 871.912 186.619, 815 192.582 C 794.537 194.726, 642.994 195.908, 626.998 194.048 C 613.263 192.452, 602.934 189.600, 594.055 184.953 C 589.961 182.810, 586.393 181.274, 586.127 181.540 C 585.399 182.267, 589.820 206.551, 592.066 214.160 C 593.147 217.824, 595.487 222.987, 597.266 225.634 C 604.880 236.964, 608.453 237.514, 674 237.455 C 722.987 237.411, 759.864 236.047, 809.500 232.445 C 866.331 228.320, 899.391 220.553, 911.556 208.470 C 916.480 203.578, 919.028 195.650, 919.742 183 C 920.196 174.939, 918.347 159.817, 916.196 154.001 C 915.386 151.811, 915.205 151.946, 913.095 156.304 M 225.717 161.656 C 225.432 162.120, 224.875 165.109, 224.479 168.297 C 223.773 173.968, 223.641 174.168, 218.331 177.565 C 215.346 179.474, 213.136 181.411, 213.420 181.870 C 213.703 182.328, 215.953 183.474, 218.421 184.417 C 223.175 186.232, 223.447 186.681, 224.509 194.461 L 225.186 199.422 230.067 194.224 L 234.948 189.025 241.068 189.665 L 247.188 190.305 244.594 185.186 C 241.387 178.856, 241.385 178.146, 244.567 171.867 C 245.979 169.081, 246.964 166.630, 246.755 166.422 C 246.547 166.213, 243.792 166.778, 240.634 167.676 L 234.891 169.310 230.562 165.061 C 228.182 162.725, 226.001 161.193, 225.717 161.656 M 297.675 166.717 C 297.370 167.211, 296.805 169.989, 296.420 172.890 C 295.757 177.889, 295.441 178.351, 290.380 181.711 C 287.443 183.661, 285.261 185.613, 285.531 186.049 C 285.800 186.486, 288 187.599, 290.420 188.523 C 294.921 190.242, 295.959 191.854, 295.986 197.168 C 296.018 203.353, 297.026 203.510, 301.993 198.107 L 306.690 192.998 312.939 193.651 L 319.188 194.305 316.594 189.186 C 313.386 182.854, 313.386 182.350, 316.615 176.574 C 318.053 174.001, 319 171.667, 318.720 171.387 C 318.440 171.107, 315.463 171.446, 312.103 172.140 L 305.995 173.401 302.113 169.610 C 299.977 167.525, 297.980 166.223, 297.675 166.717 M 369.891 169.042 C 369.831 169.294, 369.269 172.184, 368.641 175.464 C 367.653 180.626, 367.029 181.730, 364 183.673 C 355.818 188.920, 355.911 188.626, 361.657 191.099 C 366.957 193.380, 368 195.101, 368 201.566 C 368 205.544, 369.938 205.328, 373.855 200.913 C 377.592 196.702, 377.694 196.661, 383.815 196.882 C 387.217 197.004, 389.980 196.744, 389.955 196.302 C 389.930 195.861, 388.853 193.479, 387.562 191.010 L 385.214 186.519 388.121 180.760 C 391.378 174.308, 391.225 174.159, 383.370 176.137 L 378.855 177.274 374.427 172.929 C 371.992 170.539, 369.951 168.790, 369.891 169.042 M 160.652 175.748 C 160.386 176.712, 159.876 179.650, 159.519 182.278 C 158.904 186.799, 158.576 187.222, 153.434 190.124 C 150.445 191.811, 148.195 193.507, 148.434 193.894 C 148.673 194.280, 151.119 195.651, 153.870 196.939 L 158.871 199.281 159.552 205.641 C 159.927 209.138, 160.560 212, 160.960 212 C 161.360 212, 163.549 209.792, 165.824 207.093 L 169.962 202.186 176.055 202.739 L 182.149 203.291 180.699 199.896 C 179.901 198.028, 178.701 195.330, 178.032 193.899 C 176.978 191.647, 177.163 190.613, 179.408 186.183 C 180.833 183.369, 182 180.644, 182 180.128 C 182 179.606, 179.508 179.841, 176.386 180.656 L 170.773 182.122 165.955 178.059 C 161.879 174.623, 161.061 174.266, 160.652 175.748 M 93.473 199.628 C 93.086 202.998, 92.484 206.169, 92.135 206.676 C 91.786 207.182, 89.307 208.863, 86.626 210.413 C 81.356 213.459, 81.344 213.409, 88.177 217.022 C 92.102 219.097, 92.464 219.803, 93.497 227.382 L 94.162 232.265 98.878 227.620 L 103.594 222.975 108.934 223.987 C 111.870 224.544, 114.416 225, 114.590 225 C 114.765 225, 113.808 222.637, 112.464 219.750 C 111.119 216.863, 110.015 213.993, 110.010 213.374 C 110.004 212.755, 111.143 209.665, 112.540 206.506 L 115.079 200.763 112.790 201.313 C 103.071 203.648, 103.005 203.635, 98.436 198.390 L 94.176 193.500 93.473 199.628 M 245.409 216.102 C 244.725 222.150, 244.670 222.236, 239.359 225.633 C 236.412 227.519, 234.011 229.385, 234.024 229.781 C 234.037 230.176, 236.258 231.471, 238.961 232.658 C 243.359 234.589, 243.940 235.220, 244.495 238.658 C 246.039 248.226, 245.622 247.999, 250.824 242.098 L 255.507 236.786 261.255 237.143 C 264.677 237.356, 266.984 237.095, 266.956 236.500 C 266.931 235.950, 265.863 233.499, 264.585 231.054 L 262.259 226.608 265.137 220.194 C 266.814 216.457, 267.490 213.975, 266.757 214.248 C 266.066 214.505, 263.132 215.316, 260.239 216.049 L 254.977 217.384 251.197 213.692 C 249.117 211.661, 247.119 210, 246.757 210 C 246.395 210, 245.789 212.746, 245.409 216.102 M 314.828 216.242 C 313.565 222.100, 313.176 222.684, 308.491 225.749 C 305.746 227.545, 303.579 229.322, 303.676 229.697 C 303.773 230.072, 305.579 231.081, 307.691 231.939 C 313.543 234.319, 313.687 234.516, 314.450 241.228 L 315.163 247.500 319.832 242.230 L 324.500 236.960 330.739 236.980 L 336.978 237 334.375 231.692 L 331.772 226.384 334.386 221.225 C 335.824 218.388, 337 215.649, 337 215.138 C 337 214.627, 334.303 214.932, 331.008 215.815 L 325.015 217.421 321.215 213.710 C 319.126 211.670, 317.136 210, 316.795 210 C 316.453 210, 315.568 212.809, 314.828 216.242 M 384.564 216.076 C 384.286 216.859, 383.700 219.735, 383.261 222.467 C 382.516 227.114, 382.129 227.630, 377.250 230.467 C 374.382 232.135, 372.027 233.862, 372.018 234.305 C 372.008 234.748, 374.202 236.026, 376.893 237.144 C 382.020 239.275, 383 241.037, 383 248.125 C 383 249.706, 383.356 251, 383.792 251 C 384.227 251, 386.556 248.990, 388.967 246.534 L 393.350 242.067 399.175 242.676 C 402.379 243.011, 405 242.981, 405 242.609 C 405 242.238, 403.892 239.747, 402.538 237.075 L 400.076 232.216 403.113 226.608 C 406.520 220.318, 406.325 220.134, 398.370 222.137 L 393.855 223.274 389.463 218.963 C 386.309 215.868, 384.928 215.054, 384.564 216.076 M 178.576 219.250 C 178.377 219.938, 177.829 222.747, 177.357 225.494 C 176.585 229.993, 176.026 230.797, 171.719 233.608 C 169.090 235.324, 166.658 237.008, 166.316 237.351 C 165.973 237.694, 168.189 239.078, 171.241 240.428 L 176.790 242.882 177.493 248.941 C 177.880 252.273, 178.548 255, 178.978 255 C 179.407 255, 181.418 252.975, 183.446 250.500 C 187.120 246.017, 187.158 246, 193.556 246 L 199.978 246 197.322 240.584 L 194.666 235.168 197.333 229.018 C 198.800 225.636, 200 222.747, 200 222.599 C 200 222.452, 197.309 223.032, 194.021 223.889 L 188.041 225.446 184.229 221.723 C 180.135 217.726, 179.142 217.292, 178.576 219.250 M 922.500 235.588 C 914.534 247.653, 894.080 257.878, 864.952 264.356 C 829.789 272.176, 744.666 278.987, 681.994 278.995 C 632.618 279.002, 611.815 276.173, 602.744 268.219 C 601.778 267.372, 600.742 266.924, 600.442 267.224 C 600.142 267.524, 601.047 273.352, 602.453 280.175 C 606.624 300.421, 612.149 315.240, 617.535 320.626 C 620.447 323.538, 624.126 323.634, 651.500 321.515 C 676.695 319.565, 724.979 316.594, 782 313.485 C 851.236 309.711, 871.776 307.916, 892 303.874 C 915.458 299.185, 928.694 291.481, 930.582 281.416 C 932.049 273.596, 928.236 230.940, 926.077 231.022 C 925.760 231.034, 924.150 233.089, 922.500 235.588 M 115.756 236.633 C 115.478 237.110, 114.938 240.072, 114.557 243.215 C 113.870 248.887, 113.822 248.955, 108.283 252.124 L 102.700 255.318 108.299 258.150 L 113.899 260.981 114.578 266.990 C 114.952 270.296, 115.613 273, 116.046 273 C 116.480 273, 118.392 271.124, 120.297 268.832 C 123.721 264.709, 123.826 264.666, 129.848 264.883 L 135.936 265.103 133.439 259.647 L 130.941 254.191 133.483 248.442 C 134.882 245.280, 135.904 242.571, 135.755 242.421 C 135.606 242.272, 132.900 242.751, 129.742 243.485 L 124.001 244.819 120.132 240.293 C 118.004 237.803, 116.035 236.156, 115.756 236.633 M 328.557 258.750 C 327.515 266.131, 327.195 266.696, 322.506 269.444 C 320.085 270.863, 317.822 272.479, 317.477 273.036 C 317.133 273.595, 319.081 274.976, 321.819 276.113 C 327.027 278.278, 328 280.012, 328 287.125 C 328 291.104, 329.286 290.735, 333.662 285.500 C 337.388 281.043, 337.483 281, 343.712 281 C 347.170 281, 350 280.760, 350 280.467 C 350 280.173, 348.867 277.698, 347.483 274.967 L 344.966 270 347.483 265.033 C 348.867 262.302, 350 259.635, 350 259.108 C 350 258.570, 347.596 258.833, 344.517 259.709 L 339.034 261.269 334.599 257.634 C 332.159 255.636, 329.953 254, 329.695 254 C 329.438 254, 328.925 256.137, 328.557 258.750 M 259.891 255.128 C 259.831 255.332, 259.269 258.191, 258.641 261.480 C 257.564 267.125, 257.209 267.656, 252.286 270.980 C 249.419 272.916, 247.056 274.792, 247.036 275.150 C 247.016 275.507, 249.248 276.607, 251.995 277.595 C 257.298 279.502, 257.450 279.733, 258.523 287.500 L 259.213 292.500 263.857 287.250 L 268.500 281.999 274.739 282 L 280.978 282 278.281 276.500 L 275.583 271 278.339 265.381 C 279.855 262.290, 280.954 259.621, 280.783 259.449 C 280.611 259.277, 277.881 259.857, 274.717 260.738 C 268.976 262.336, 268.957 262.334, 266.232 259.870 C 262.631 256.614, 260.026 254.666, 259.891 255.128 M 192.638 263.728 C 192.346 265.252, 191.834 268.322, 191.500 270.549 C 190.959 274.152, 190.292 274.956, 185.428 277.865 C 182.423 279.663, 180.175 281.474, 180.432 281.890 C 180.689 282.306, 182.729 283.250, 184.964 283.988 C 190.275 285.741, 191.019 286.783, 191.705 293.431 C 192.021 296.494, 192.486 299, 192.737 299 C 192.989 299, 195.217 296.750, 197.690 294 C 202.119 289.074, 202.272 289, 208.082 289 L 213.978 289 211.281 283.500 L 208.583 278 211.339 272.381 C 212.855 269.290, 213.893 266.560, 213.646 266.313 C 213.399 266.066, 210.845 266.563, 207.969 267.417 L 202.741 268.969 197.955 264.962 L 193.169 260.955 192.638 263.728 M 398.423 266.872 C 397.605 273.033, 397.570 273.082, 391.102 277.046 L 385.704 280.354 391.102 282.927 C 396.464 285.483, 396.506 285.538, 397.412 291.250 C 397.913 294.413, 398.671 297, 399.095 297 C 399.519 297, 401.531 294.969, 403.565 292.486 L 407.264 287.971 413.692 288.630 L 420.120 289.288 417.446 283.836 L 414.772 278.384 417.453 273.093 C 418.928 270.182, 419.904 267.570, 419.621 267.288 C 419.339 267.006, 416.795 267.329, 413.969 268.007 L 408.830 269.240 405.123 265.620 C 403.084 263.629, 400.888 262, 400.242 262 C 399.593 262, 398.780 264.178, 398.423 266.872 M 133.411 284.082 C 132.731 290.098, 132.664 290.202, 127.260 293.791 L 121.797 297.418 126.896 299.915 C 132.324 302.572, 132.456 302.783, 133.524 310.500 L 134.216 315.500 138.412 310.750 C 142.493 306.130, 142.765 306, 148.304 306 C 151.437 306, 154 305.787, 154 305.527 C 154 305.266, 153.006 303.008, 151.791 300.508 C 149.609 296.015, 149.604 295.906, 151.395 291.231 C 154.753 282.464, 154.968 282.937, 148.406 284.651 L 142.615 286.163 139.224 282.081 C 137.360 279.837, 135.444 278, 134.967 278 C 134.490 278, 133.790 280.737, 133.411 284.082 M 343.579 301 C 343.261 302.650, 342.734 305.372, 342.410 307.050 C 341.966 309.341, 340.440 311.015, 336.276 313.780 L 330.732 317.461 335.895 319.724 C 341.524 322.191, 341.542 322.217, 342.528 329.500 L 343.204 334.500 348.104 329.178 L 353.004 323.857 358.502 324.543 C 364.830 325.334, 364.977 325.065, 361.796 318.517 L 359.592 313.981 362.344 308.372 C 363.857 305.286, 364.897 302.564, 364.655 302.322 C 364.413 302.080, 361.645 302.629, 358.503 303.542 L 352.792 305.202 349.104 301.601 C 347.075 299.621, 345.133 298, 344.787 298 C 344.442 298, 343.898 299.350, 343.579 301 M 209.612 307.757 C 209.313 309.265, 208.772 312.221, 208.409 314.325 C 207.863 317.489, 206.910 318.699, 202.893 321.325 C 200.221 323.071, 198.028 324.862, 198.018 325.305 C 198.008 325.748, 200.211 327.030, 202.913 328.153 L 207.826 330.194 208.511 336.097 C 208.888 339.344, 209.532 342, 209.942 342 C 210.352 342, 212.523 339.823, 214.767 337.161 L 218.847 332.323 224.423 332.785 C 230.765 333.311, 231.014 332.908, 228 327 C 225.430 321.963, 225.477 320.966, 228.567 314.867 C 229.979 312.081, 230.949 309.616, 230.723 309.390 C 230.497 309.164, 228.385 309.658, 226.030 310.489 C 220.161 312.560, 218.729 312.407, 215.924 309.408 C 211.818 305.018, 210.237 304.604, 209.612 307.757 M 273.433 309.750 C 272.501 316.176, 271.769 317.330, 266.523 320.645 C 264.037 322.215, 262.003 323.779, 262.002 324.120 C 262.001 324.461, 264.066 325.319, 266.591 326.025 C 271.699 327.456, 271.952 327.828, 272.860 335.236 L 273.500 340.454 277.907 335.227 C 282.293 330.023, 282.339 330, 288.157 330 C 291.370 330, 294 329.743, 294 329.428 C 294 329.114, 292.851 326.896, 291.447 324.500 L 288.894 320.143 291.514 314.972 C 292.955 312.128, 293.911 309.578, 293.638 309.305 C 293.365 309.032, 290.819 309.489, 287.981 310.321 L 282.821 311.833 279.039 308.417 C 276.959 306.538, 275.002 305, 274.690 305 C 274.378 305, 273.812 307.137, 273.433 309.750 M 412.515 312.250 C 411.419 319.298, 411.121 319.740, 405.205 323.094 L 399.500 326.328 403 327.776 C 404.925 328.573, 407.465 329.595, 408.644 330.047 C 410.389 330.717, 410.922 332.020, 411.505 337.039 L 412.220 343.208 417.023 338.478 L 421.825 333.748 427.412 334.446 C 433.792 335.243, 433.943 334.994, 430.890 328.711 L 428.780 324.368 431.457 319.084 C 432.930 316.179, 433.910 313.577, 433.636 313.303 C 433.362 313.029, 430.806 313.305, 427.955 313.916 C 422.805 315.021, 422.749 315.006, 418.884 311.514 C 416.744 309.581, 414.585 308, 414.085 308 C 413.585 308, 412.878 309.913, 412.515 312.250 M 941.006 323.695 C 935.561 333.959, 924.319 342.010, 909.965 345.924 C 894.821 350.054, 889.649 350.340, 827.500 350.495 C 780.175 350.612, 763.592 351, 749 352.329 C 720.381 354.935, 694.092 357.878, 676 360.499 C 666.925 361.814, 653.650 363.417, 646.500 364.062 C 631.825 365.385, 627.153 364.682, 622.045 360.385 C 620.370 358.975, 619 358.068, 619 358.367 C 619 360.672, 625.543 389.613, 627.217 394.712 C 630.196 403.785, 634.807 410.989, 639.022 413.152 C 642.511 414.943, 642.686 414.927, 657.864 411.498 C 692 403.786, 716.087 399.771, 748.720 396.354 C 761.522 395.013, 777.048 394.671, 831 394.542 C 904.077 394.366, 907.310 394.152, 931.985 387.848 C 951.346 382.901, 964 375.221, 964 368.415 C 964 364.927, 945.238 319, 943.813 319 C 943.639 319, 942.376 321.113, 941.006 323.695 M 148.576 326.027 C 147.913 331.893, 147.763 332.141, 142.965 335.277 C 140.254 337.050, 138.028 338.761, 138.018 339.079 C 138.008 339.398, 140.213 340.695, 142.917 341.961 C 147.819 344.257, 147.836 344.282, 148.515 350.132 C 148.890 353.359, 149.548 356, 149.978 356 C 150.407 356, 152.418 353.975, 154.446 351.500 C 157.994 347.171, 158.341 347, 163.567 347 C 166.555 347, 169 346.562, 169 346.027 C 169 345.491, 168.040 343.077, 166.866 340.660 L 164.731 336.267 167.310 330.633 C 170.197 324.329, 170.049 324.192, 162.518 326.206 C 158.029 327.407, 157.988 327.395, 154.211 323.706 C 152.124 321.668, 150.155 320, 149.837 320 C 149.519 320, 148.951 322.712, 148.576 326.027 M 361.574 343.668 C 359.103 353.889, 359.083 353.924, 354.031 356.484 C 351.342 357.847, 348.869 359.403, 348.535 359.943 C 348.202 360.482, 349.858 361.901, 352.215 363.096 C 357.653 365.853, 357.966 366.382, 357.985 372.843 L 358 378.185 363.145 373.559 L 368.290 368.934 374.145 369.596 C 377.365 369.960, 380 370.088, 379.999 369.879 C 379.999 369.671, 379.083 367.090, 377.963 364.144 L 375.928 358.788 378.964 354.056 C 380.634 351.454, 382 348.994, 382 348.590 C 382 348.187, 379.487 348.170, 376.416 348.554 C 370.851 349.249, 370.817 349.237, 366.545 345.044 L 362.258 340.837 361.574 343.668 M 222.039 352.048 C 219.762 360.886, 219.397 361.465, 214.186 364.500 C 211.353 366.150, 209.027 367.830, 209.018 368.233 C 209.008 368.636, 211.250 370.106, 214 371.500 L 219 374.034 219 380.017 C 219 383.308, 219.396 386, 219.880 386 C 220.363 386, 222.466 383.917, 224.552 381.371 L 228.345 376.743 234.591 377.326 L 240.838 377.910 238.826 371.951 L 236.814 365.992 239.972 360.395 C 241.710 357.317, 242.959 354.626, 242.749 354.416 C 242.539 354.206, 240.825 354.477, 238.940 355.017 C 232.523 356.858, 230.420 356.306, 226.676 351.798 L 223.186 347.597 222.039 352.048 M 288.487 353.750 C 286.997 359.053, 286.472 359.723, 281.731 362.364 C 276.142 365.478, 276.136 365.442, 282.925 369.203 C 285.784 370.787, 286 371.297, 286 376.453 C 286 379.504, 286.356 382, 286.792 382 C 287.227 382, 289.533 380.013, 291.916 377.585 C 296.223 373.197, 296.283 373.174, 301.792 373.742 C 306.299 374.207, 307.236 374.051, 306.809 372.907 C 303.323 363.583, 303.342 364.132, 306.323 358.794 C 307.861 356.039, 308.892 353.558, 308.614 353.280 C 308.335 353.002, 305.855 353.315, 303.101 353.976 L 298.094 355.177 294.944 351.588 C 293.211 349.615, 291.413 348, 290.948 348 C 290.484 348, 289.376 350.587, 288.487 353.750 M 428.549 354.242 C 424.817 366.157, 425.283 365.445, 419.293 368.382 L 413.613 371.168 418.556 373.834 L 423.500 376.500 423.800 382.250 C 423.983 385.767, 424.550 388, 425.258 388 C 425.895 388, 428.117 386.339, 430.197 384.308 L 433.978 380.616 439.989 381.610 C 443.295 382.156, 446 382.260, 446 381.839 C 446 381.418, 445.131 378.868, 444.068 376.173 L 442.136 371.271 445.696 365.985 L 449.256 360.699 443.165 361.251 L 437.074 361.804 433.009 357.394 C 430.598 354.779, 428.783 353.496, 428.549 354.242 M 167.625 362.046 C 167.367 362.846, 166.622 365.880, 165.969 368.788 C 164.864 373.710, 164.443 374.248, 159.891 376.555 C 157.201 377.918, 155 379.442, 155 379.942 C 155 380.441, 156.912 381.903, 159.250 383.190 C 163.476 385.516, 163.502 385.565, 163.798 391.765 C 163.961 395.194, 164.467 398, 164.920 398 C 165.374 398, 167.614 395.972, 169.898 393.494 L 174.052 388.989 179.693 389.652 C 184.963 390.271, 185.286 390.189, 184.600 388.407 C 181.689 380.854, 181.653 378.619, 184.358 373.279 C 185.811 370.412, 187 367.903, 187 367.704 C 187 367.504, 184.452 367.802, 181.337 368.367 L 175.674 369.393 171.884 364.993 C 169.234 361.915, 167.953 361.029, 167.625 362.046 M 975.159 407.610 C 972.382 413.326, 965.232 421.001, 958.896 425.067 C 952.579 429.120, 941.164 432.721, 928.521 434.649 C 919.905 435.963, 908.686 436.081, 848.500 435.492 C 777.241 434.794, 763.274 435.162, 731 438.584 C 713.950 440.392, 700.726 442.821, 681.526 447.670 C 670.747 450.392, 665.488 451.205, 658.526 451.224 C 648.597 451.252, 644.946 450.224, 640.627 446.186 L 637.754 443.500 638.448 448.317 C 641.188 467.325, 649.887 491.406, 655.652 495.941 C 660.190 499.510, 662.425 499.441, 680.338 495.169 C 713.466 487.271, 741.977 482.483, 771.500 479.861 C 788.331 478.366, 829.069 478.185, 880 479.379 C 920.891 480.338, 930.767 479.803, 952.657 475.446 C 983.178 469.371, 1000 460.840, 1000 451.438 C 1000 449.362, 997.921 443.390, 994.878 436.722 C 987.936 421.513, 979.252 404.274, 978.206 403.627 C 977.736 403.337, 976.364 405.129, 975.159 407.610 M 624 409.276 C 617.520 423.062, 599.886 433.963, 572.652 441.017 C 548.146 447.364, 525.386 449.887, 485.500 450.677 C 452.527 451.329, 439.093 450.705, 380 445.774 C 347.306 443.045, 337.822 442.635, 306 442.572 C 268.459 442.498, 260.772 443.002, 236.500 447.126 C 212.638 451.181, 177.518 461.119, 159.250 468.985 L 154 471.246 154.004 476.873 C 154.016 494.184, 161.838 522.862, 166.993 524.498 C 168.169 524.871, 173.755 522.940, 181.695 519.417 C 208.670 507.445, 239.367 498.827, 266.500 495.608 C 304.069 491.151, 369.556 490.927, 436 495.028 C 476.112 497.503, 514.723 497.944, 532.500 496.128 C 589.755 490.282, 623.758 476.399, 629.540 456.509 C 631.922 448.317, 631.663 430.472, 628.960 416.500 C 627.790 410.450, 626.670 405.338, 626.473 405.140 C 626.275 404.942, 625.163 406.803, 624 409.276 M 642.599 497.715 C 636.076 511.393, 618.879 521.526, 592 527.529 C 557.583 535.215, 511.900 536.491, 420.500 532.317 C 375.495 530.263, 316.174 530.012, 299 531.805 C 241.425 537.814, 195.956 551.758, 181.962 567.697 L 178.811 571.284 179.156 598.093 C 179.365 614.394, 179.897 625.298, 180.513 625.914 C 181.198 626.598, 185.273 625.196, 193.058 621.600 C 241.254 599.334, 287.255 585.872, 332 580.940 C 346.030 579.393, 377.342 579.405, 443 580.982 C 535.912 583.214, 574.142 579.639, 621.500 564.289 C 639.123 558.576, 644.755 554.978, 649.338 546.500 C 652.727 540.231, 652.415 523.521, 648.597 506.750 C 647 499.738, 645.396 494, 645.032 494 C 644.668 494, 643.573 495.672, 642.599 497.715"/>
</svg>