<?xml version="1.0" encoding="utf-8"?>
<svg xmlns="http://www.w3.org/2000/svg" width="916" height="1002" viewBox="0 0 916 1002">
  <path fill-rule="evenodd" d="M 354.269 2.024 L 352.038 2.922 353.891 7.211 C 354.911 9.570, 357.647 15.708, 359.971 20.852 C 365.196 32.411, 367.969 45.344, 367.987 58.222 C 367.994 63.785, 368.811 71.913, 369.896 77.222 C 372.882 91.832, 374.852 106.799, 374.933 115.500 C 375.097 133.169, 377.789 138.578, 389.350 144.471 C 395.604 147.659, 398.460 148.516, 403.821 148.814 C 410.253 149.171, 410.913 148.977, 421.665 143.587 C 428.421 140.200, 433.917 136.708, 435.582 134.745 C 439.295 130.364, 444.901 118.057, 445.584 112.784 C 446.350 106.877, 442.092 91.094, 436.335 78.500 C 423.615 50.673, 419.582 42.243, 417.679 39.500 C 416.533 37.850, 411.187 31.821, 405.798 26.101 C 400.409 20.382, 396 15.354, 396 14.928 C 396 13.614, 382.146 4.863, 376.922 2.878 C 371.614 0.861, 358.398 0.363, 354.269 2.024 M 581.571 62.571 C 578.984 65.159, 579.969 71.401, 584.889 83.604 C 587.105 89.100, 590.613 100.325, 592.686 108.549 C 596.446 123.469, 596.454 123.540, 596.307 143 C 596.226 153.725, 595.660 166.100, 595.049 170.500 C 592.112 191.655, 592.650 199.150, 597.230 200.884 C 600.811 202.239, 615.732 205.113, 624.500 206.136 C 628.900 206.649, 635.200 207.914, 638.500 208.947 C 641.800 209.980, 648.775 211.080, 654 211.392 C 664.700 212.030, 669.219 210.684, 674.197 205.376 C 678.466 200.824, 679.756 196.348, 680.504 183.500 C 681.185 171.794, 681.126 171.282, 678.101 162.590 C 675.748 155.829, 675 151.948, 675 146.499 C 675 137.399, 673.293 131.764, 667.999 123.381 C 665.682 119.713, 662.454 113.742, 660.826 110.111 C 659.197 106.481, 656.777 102.086, 655.449 100.344 C 650.716 94.139, 625.797 78.181, 604.527 67.734 C 591.038 61.109, 584.504 59.639, 581.571 62.571 M 225.303 98.103 C 212.796 107.485, 204.658 116.671, 194.068 133.363 C 185.355 147.097, 181.872 157.368, 180.965 172 C 180.474 179.923, 179.384 186.455, 177.459 193 L 174.666 202.500 176.343 213 C 177.297 218.970, 177.908 227.599, 177.760 233 C 177.541 241.022, 177.811 243.018, 179.500 245.831 C 181.666 249.439, 192.794 258.197, 197.556 260.043 C 200.860 261.323, 217.629 260.558, 224.775 258.801 C 230.944 257.284, 235.702 251.373, 241.283 238.291 C 247.484 223.754, 248.208 220.093, 246.912 209.842 C 245.659 199.940, 245.440 161.272, 246.461 130.500 C 247.246 106.877, 246.566 100.260, 242.869 95.561 C 241.256 93.510, 239.983 93, 236.480 93 C 232.775 93, 231.066 93.780, 225.303 98.103 M 401 173.390 C 379.200 180.920, 373.585 183.700, 360.645 193.370 C 347.576 203.137, 343.637 207.364, 338.893 216.710 C 335.760 222.883, 335.455 224.318, 334.910 235.447 C 334.270 248.515, 332.728 261.197, 330.343 273 C 327.313 287.991, 327.527 314.266, 330.896 341 C 334.314 368.125, 339.126 394.018, 341.392 397.476 C 342.179 398.677, 346.125 401.363, 350.161 403.446 C 354.198 405.528, 360.875 409.403, 365 412.056 C 375.179 418.601, 379.220 419.483, 392.895 418.142 C 403.899 417.063, 408.258 415.907, 423.950 409.904 C 437.542 404.705, 446.961 394.035, 453.095 376.886 C 455.186 371.041, 457.616 366.538, 460.650 362.885 C 467.118 355.098, 467.747 353.497, 468.872 341.939 C 469.679 333.647, 470.608 329.855, 473.387 323.500 C 475.898 317.759, 477.373 312.215, 478.609 303.869 C 480.212 293.050, 480.219 291.675, 478.712 284.160 C 476.975 275.498, 477.120 274.345, 481.605 261.201 C 483.379 256.001, 483.372 255.732, 481.237 246.701 C 479.843 240.808, 478.695 231.201, 478.045 219.981 C 476.960 201.265, 475.390 193.801, 471.590 189.297 C 470.245 187.703, 462.621 183.166, 453.865 178.749 C 440.506 172.010, 437.292 170.802, 429.250 169.499 C 424.162 168.675, 419.212 168.008, 418.250 168.018 C 417.287 168.028, 409.525 170.446, 401 173.390 M 802.490 172.370 C 800.953 176.048, 798.875 194.231, 798.990 203 C 799.279 225.176, 796.452 302.523, 795.060 310.500 C 793.105 321.707, 797.822 330.446, 808.784 335.932 C 813.098 338.091, 824.398 342.413, 835.500 346.151 C 844.314 349.119, 860.389 348.420, 867.500 344.760 C 876.739 340.005, 879.997 334.904, 880.004 325.185 C 880.006 322.058, 880.696 315.255, 881.538 310.067 C 882.387 304.829, 882.795 298.603, 882.453 296.067 C 878.816 269.024, 871.584 246.951, 862.199 234.244 C 859.459 230.535, 855.807 224.375, 854.083 220.555 C 850.269 212.104, 841.946 200.849, 834.272 193.762 C 831.138 190.868, 824.201 184.113, 818.856 178.750 C 807.724 167.581, 804.944 166.497, 802.490 172.370 M 629 231.018 C 625.975 231.500, 618.550 231.830, 612.500 231.752 C 599.807 231.587, 597.740 232.360, 581.500 243.355 C 569.703 251.341, 560.992 260.209, 552.850 272.522 C 541.608 289.524, 539.772 293.713, 538.931 304.278 C 537.888 317.387, 534.188 334.424, 530.853 341.472 C 527.596 348.357, 527.438 350.564, 529.453 361.090 C 530.251 365.264, 531.174 375.839, 531.503 384.590 C 532.289 405.497, 532.388 405.979, 537.364 413.254 C 539.713 416.689, 543.373 422.809, 545.496 426.854 C 549.921 435.283, 552.999 437.756, 563.522 441.341 C 567.360 442.648, 574.222 445.591, 578.772 447.881 C 583.321 450.171, 588.946 452.294, 591.272 452.600 C 593.597 452.906, 601.125 452.468, 608 451.628 C 622.066 449.908, 642.525 443.735, 646.484 440.015 C 653.819 433.124, 669.690 404.103, 671.922 393.500 C 672.638 390.102, 675.701 382.730, 678.987 376.500 C 682.178 370.450, 686.210 361.450, 687.945 356.500 C 689.681 351.550, 693.111 343.450, 695.568 338.500 C 700.119 329.329, 702.951 318.907, 702.983 311.220 C 702.993 308.754, 701.863 304.304, 700.317 300.720 C 698.143 295.680, 697.522 292.380, 697.048 283.331 L 696.462 272.161 689.880 262.331 C 686.259 256.924, 682.106 250.598, 680.651 248.274 C 677.054 242.532, 675.176 241.484, 658.296 235.798 C 642.490 230.473, 637.514 229.661, 629 231.018 M 87.234 258.498 C 85.438 259.278, 81.521 262.231, 78.531 265.060 C 74.008 269.337, 72.510 271.696, 69.628 279.083 C 67.721 283.970, 63.681 291.486, 60.645 295.795 C 52.878 306.816, 44.479 324.382, 42.490 333.766 C 41.588 338.020, 39.309 346.076, 37.425 351.668 C 33.747 362.589, 33.362 367.108, 35.022 379.897 C 35.815 386.009, 36.973 389.102, 41.689 397.717 C 47.535 408.395, 52.025 413.466, 56.663 414.630 C 59.673 415.386, 73.083 411.887, 79.977 408.548 C 84.924 406.151, 90.939 398.281, 96.132 387.407 C 99.410 380.542, 102.510 365.257, 103.442 351.356 C 103.780 346.326, 104.685 338.901, 105.453 334.856 C 107.786 322.573, 110.237 299.117, 110.348 288 C 110.438 278.961, 110.081 276.471, 107.777 270.108 C 104.191 260.199, 101.066 256.988, 95.063 257.039 C 92.553 257.061, 89.030 257.717, 87.234 258.498 M 228.454 282.918 C 217.497 283.553, 216.673 283.895, 208.500 291.198 C 205.750 293.655, 200.727 297.133, 197.337 298.926 C 193.947 300.719, 190.176 303.249, 188.956 304.547 C 187.735 305.846, 185.056 311.767, 183.001 317.704 C 180.946 323.642, 178.027 331.398, 176.516 334.939 C 173.110 342.918, 171.286 352.674, 170.051 369.500 C 169.460 377.560, 168.350 384.656, 167.130 388.172 C 159.678 409.646, 159.448 463.346, 166.696 489.369 C 167.993 494.028, 169.398 496.295, 173.511 500.369 C 176.361 503.191, 180.507 508.200, 182.725 511.500 C 189.893 522.167, 190.662 522.510, 210.876 524.056 C 229.234 525.460, 230.767 525.065, 238.372 516.964 C 241.445 513.691, 247.048 509.033, 250.823 506.613 C 258.891 501.442, 261.196 498.765, 263.976 491.336 C 267.110 482.958, 268.880 479.913, 273.525 474.907 C 275.868 472.381, 278.475 468.982, 279.317 467.353 C 281.678 462.789, 284.134 448.803, 285 435 C 286.825 405.895, 289.088 386.554, 291.553 378.997 C 294.257 370.705, 294.604 364.011, 292.830 354.380 C 291.838 348.997, 291.939 346.506, 293.496 338.021 C 295.584 326.644, 295.414 325.625, 288.579 308.500 C 282.567 293.435, 279.866 288.886, 275.628 286.687 C 267.263 282.346, 255.094 281.374, 228.454 282.918 M 804 381.681 C 779.951 385.608, 773.872 388.729, 762.535 402.971 C 754.343 413.262, 752.158 417.055, 748.463 427.394 C 744.420 438.706, 741.905 452.239, 738.984 478.412 C 736.953 496.618, 736.937 497.675, 738.558 506.679 C 739.914 514.209, 740.109 519.102, 739.557 531.767 C 738.540 555.093, 738.483 554.397, 741.943 561.044 C 743.671 564.364, 746.441 570.923, 748.098 575.618 C 755.456 596.465, 765.939 614.092, 775.879 622.330 C 785.450 630.264, 790.861 632.898, 800 634.076 C 804.675 634.678, 810.750 635.825, 813.500 636.626 C 819.681 638.425, 835.987 640.963, 846 641.685 L 853.500 642.226 868.500 634.552 C 876.750 630.332, 884.554 625.893, 885.842 624.689 C 889.127 621.619, 896.429 606.029, 899.044 596.500 C 900.252 592.100, 902.542 584.966, 904.133 580.647 C 908.450 568.928, 912.621 551.826, 914.046 540 C 915.443 528.417, 914.308 510.422, 911.526 500.023 C 909.075 490.858, 907.691 475.231, 908.382 464.519 C 908.978 455.273, 908.762 453.417, 905.581 440.467 C 900.386 419.316, 898.868 415.920, 890.823 407.450 C 883.124 399.346, 872.324 392.985, 859.500 389.003 C 855.650 387.808, 848.603 385.518, 843.840 383.915 C 835.756 381.194, 834.225 381.009, 820.840 381.136 C 812.953 381.211, 805.375 381.456, 804 381.681 M 64.124 442.413 C 60.677 444.840, 55.301 447.827, 52.178 449.051 C 42.190 452.965, 39.526 455.373, 34.573 464.964 C 32.085 469.782, 28.208 475.923, 25.959 478.612 C 20.192 485.504, 19.075 487.995, 17.370 497.766 C 16.542 502.510, 14.333 510.309, 12.462 515.098 C 9.929 521.579, 8.804 526.453, 8.064 534.153 C 7.516 539.844, 6.122 548.999, 4.965 554.499 C 3.331 562.265, 3.006 566.284, 3.509 572.499 C 3.881 577.092, 3.675 583.466, 3.025 587.463 C 2.403 591.292, 1.882 596.930, 1.867 599.991 C 1.837 606.359, 5.308 625.837, 7.610 632.211 C 8.462 634.570, 9.553 640.881, 10.036 646.235 C 11.004 656.974, 11.422 658.098, 17.335 665.864 C 23.726 674.258, 28.883 677.590, 41.758 681.645 C 55.611 686.008, 60.655 685.921, 70.340 681.153 C 77.406 677.675, 81.018 674.038, 85.241 666.151 C 87.010 662.847, 90.302 659.165, 94.524 655.766 C 100.381 651.052, 101.643 649.346, 106.559 639.500 C 110.785 631.035, 112.253 626.887, 112.926 621.500 C 114.031 612.663, 114.891 610.512, 119.534 604.978 C 121.600 602.515, 123.890 599.076, 124.623 597.335 C 126.552 592.755, 129.802 576.935, 130.968 566.453 C 131.521 561.477, 132.698 555.177, 133.584 552.453 C 134.845 548.573, 135.256 542.202, 135.481 523.041 L 135.769 498.583 131.696 488.041 C 129.456 482.244, 126.294 475.250, 124.670 472.500 C 123.045 469.750, 120.039 463.900, 117.990 459.500 C 115.940 455.100, 113.176 450.500, 111.846 449.277 C 110.405 447.952, 105.608 446.048, 99.965 444.562 C 94.759 443.191, 88.133 441.154, 85.239 440.035 C 82.346 438.916, 77.821 438, 75.185 438 C 71.130 438, 69.424 438.681, 64.124 442.413 M 441.351 453.549 C 434.669 454.278, 426.344 455.389, 422.851 456.017 C 413.942 457.619, 397.872 464.100, 389 469.670 C 384.875 472.260, 377.332 476.064, 372.238 478.123 C 359.168 483.407, 345.391 493.219, 339.811 501.218 C 334.973 508.154, 320.481 520.601, 309.746 527.042 C 304.732 530.050, 295.970 538.117, 275.746 558.347 C 260.760 573.335, 244.450 588.714, 239.500 592.523 C 234.550 596.331, 226.900 602.562, 222.500 606.369 C 218.100 610.176, 210.225 616.106, 205 619.546 C 198.507 623.822, 194.128 627.584, 191.167 631.433 C 185.682 638.558, 183.836 639.734, 174.282 642.181 C 165.179 644.513, 148.968 653.790, 139.500 662.088 C 136.200 664.980, 130.125 669.808, 126 672.816 C 116.521 679.730, 111.643 684.308, 107.691 690 C 105.973 692.475, 100.625 698.688, 95.808 703.807 C 85.412 714.857, 77.706 726.125, 70.506 740.809 C 67.605 746.725, 63.829 753.777, 62.114 756.481 C 60.399 759.185, 57.165 766.081, 54.927 771.806 C 50.639 782.773, 49.878 788.980, 51.962 795.993 C 53.419 800.897, 53.252 808.282, 51.495 816.707 C 49.741 825.112, 50.649 833.716, 55.988 859.322 C 61.267 884.639, 67.668 903.776, 74.966 916.060 C 77.120 919.685, 80.287 926.217, 82.005 930.576 C 85.421 939.244, 87.646 943.032, 95.375 953.329 C 99.591 958.947, 102.318 961.289, 110.752 966.537 C 116.390 970.045, 124.531 974.444, 128.843 976.312 C 133.154 978.181, 139.435 981.579, 142.799 983.864 C 146.164 986.148, 150.173 988.502, 151.708 989.094 C 156.923 991.103, 168.460 992.984, 181.782 993.996 C 190.284 994.642, 197.122 995.736, 200.782 997.035 C 210.862 1000.614, 213.904 1000.821, 245 1000.036 C 281.567 999.113, 291.222 997.568, 304.670 990.487 C 311.515 986.883, 314.110 986.077, 320.670 985.517 C 330.994 984.635, 334.076 983.588, 339.893 978.990 C 342.569 976.875, 350.060 971.702, 356.540 967.495 C 363.413 963.033, 371.644 956.581, 376.296 952.009 L 384.271 944.172 383.779 939.054 C 383.215 933.186, 380.565 929.672, 375.426 927.975 C 372.555 927.028, 371.103 927.324, 363.797 930.349 C 349.550 936.246, 337.793 939.052, 325 939.607 C 313.939 940.087, 313.137 939.980, 303.992 936.803 C 293.217 933.060, 271.301 921.104, 266.433 916.314 C 264.412 914.326, 262.004 910.002, 260.027 904.814 C 258.285 900.241, 255.690 893.575, 254.260 890 C 250.617 880.889, 250.762 875.526, 254.962 864 C 257.516 856.990, 260.810 850.964, 267.532 841.007 C 276.531 827.675, 276.754 827.442, 286.148 821.507 C 291.378 818.203, 300.121 812.091, 305.578 807.925 C 311.035 803.759, 321.221 796.209, 328.213 791.148 C 349.197 775.957, 362.468 762.292, 371.899 746.167 C 375.711 739.650, 377.112 738.238, 384.488 733.479 C 389.773 730.070, 394.493 726.013, 397.481 722.312 C 405.191 712.761, 405.100 712.786, 429.500 713.317 C 452.423 713.816, 459.790 714.861, 467.460 718.704 C 489.482 729.739, 508.993 743.164, 513.686 750.512 C 520.181 760.683, 522.714 763.578, 528.875 767.876 C 534.068 771.498, 536.487 774.258, 542.553 783.484 C 547.230 790.596, 551.983 796.451, 555.564 799.510 C 558.666 802.161, 563.647 808.037, 566.631 812.568 C 572.620 821.662, 574.300 823.063, 583.328 826.493 C 596.542 831.514, 613.352 839.017, 617.818 841.889 C 620.393 843.544, 624.471 846.910, 626.879 849.369 C 630.982 853.557, 631.502 854.742, 635.122 868.170 C 637.247 876.051, 638.989 883.424, 638.993 884.554 C 639.003 887.555, 634.029 894.854, 628.557 899.867 C 619.641 908.036, 591.243 919.086, 575.546 920.495 C 568.378 921.138, 567.273 921.527, 564.374 924.426 C 558.905 929.895, 558.886 937.774, 564.330 942.809 C 570.140 948.182, 582.002 955.231, 588.962 957.447 C 593.108 958.766, 600.708 961.480, 605.850 963.476 C 610.993 965.473, 623.980 969.333, 634.710 972.053 C 653.181 976.737, 654.917 977, 667.308 977 C 674.507 977, 684.138 977.541, 688.710 978.202 C 696.686 979.355, 697.360 979.296, 705.262 976.731 C 709.793 975.261, 718.445 973.108, 724.489 971.947 C 730.533 970.786, 739.308 968.502, 743.989 966.873 C 748.670 965.244, 757 962.834, 762.500 961.517 C 778.676 957.645, 789.632 953.077, 798.193 946.634 C 803.672 942.510, 807.877 940.266, 813.209 938.621 C 820.114 936.491, 828.137 931.853, 837.373 924.656 C 839.503 922.996, 843.150 918.666, 845.479 915.033 C 848.167 910.839, 854.891 903.517, 863.909 894.965 C 878.763 880.877, 880.370 878.656, 886.084 864.309 C 891.819 849.914, 893.019 844.810, 894.272 829.500 C 897.087 795.112, 894.635 782.410, 879.230 751.563 C 870.573 734.228, 863.876 723.567, 854.906 712.838 C 847.306 703.748, 844.854 701.710, 837.731 698.560 C 834.768 697.249, 824.991 690.264, 815.930 682.985 C 800.579 670.651, 798.312 669.208, 781.409 660.997 C 771.459 656.164, 758.409 648.925, 752.409 644.911 C 746.409 640.896, 735.875 633.826, 729 629.198 C 722.125 624.571, 713.198 619.252, 709.162 617.377 C 702.739 614.395, 699.925 612.069, 686.608 598.735 C 675.965 588.079, 669.163 582.148, 663.974 579 C 657.797 575.254, 654.825 572.407, 646.225 562 C 640.544 555.125, 634.045 547.306, 631.783 544.623 C 629.522 541.941, 624.707 537.824, 621.085 535.474 C 613.252 530.390, 611.216 528.276, 607.157 521 C 605.470 517.975, 602.156 513.635, 599.794 511.356 C 591.806 503.648, 571.533 486.838, 566 483.334 C 562.975 481.418, 555.248 476.520, 548.828 472.448 C 536.720 464.768, 532.107 463.066, 523.299 463.024 C 519.017 463.004, 516.417 462.116, 508.597 458 C 498.075 452.463, 496.087 452.168, 484.992 454.502 C 478.331 455.903, 477.211 455.869, 468.267 454.002 C 457.436 451.740, 457.856 451.747, 441.351 453.549 M 420 568.017 C 415.875 569.004, 410.250 570.121, 407.500 570.499 C 399.674 571.575, 395.598 576.522, 390.172 591.524 C 384.967 605.918, 383.622 615.793, 384.217 635.255 L 384.638 649.011 388.824 657.255 C 394.849 669.120, 399.553 674.901, 405.868 678.200 C 414.139 682.521, 425.667 681.728, 437.437 676.030 C 442.466 673.596, 453.583 662.255, 455.518 657.585 C 457.240 653.430, 457.528 600.046, 455.865 593.231 C 453.006 581.516, 446.374 570.859, 439.800 567.415 C 436.284 565.573, 429.330 565.784, 420 568.017 M 532.500 596.611 C 528.245 597.866, 515.549 599.726, 509.785 599.937 C 503.729 600.159, 491.840 620.339, 490.012 633.500 C 488.690 643.018, 488.822 656.032, 490.327 664.604 C 492.617 677.646, 504.870 694.875, 514.459 698.537 C 520.565 700.869, 530.905 700.220, 537.316 697.101 C 544.364 693.672, 546.792 689.360, 549.015 676.323 C 550.030 670.370, 551.538 662.575, 552.366 659 C 553.195 655.425, 554.810 645.970, 555.956 637.990 C 558.237 622.103, 557.901 617.086, 553.961 608.180 C 551.337 602.247, 548.520 599.207, 543.500 596.890 C 538.786 594.714, 538.914 594.718, 532.500 596.611 M 323.500 633.896 C 309.963 638.950, 307.411 640.422, 304.467 644.871 C 301.399 649.506, 294.986 674.436, 294.267 684.522 C 293.224 699.144, 296.889 718.822, 301.989 725.984 C 304.578 729.620, 317.112 736, 321.666 736 C 326.232 736, 331.828 733.549, 335.603 729.896 C 342.215 723.497, 350.462 702.510, 355.537 679.170 C 358.524 665.432, 358.599 660.680, 355.992 650.410 C 352.712 637.485, 345.867 629.918, 337.602 630.081 C 335.346 630.125, 329 631.842, 323.500 633.896 M 623.500 687.171 C 604.424 688.908, 603.450 689.467, 597.256 702.223 C 590.712 715.700, 590 718.665, 590 732.447 C 590 750.731, 591.733 758.199, 598.684 769.871 C 605.780 781.785, 611.791 788.373, 617.588 790.587 C 621.391 792.039, 623.151 792.118, 630.526 791.166 C 645.622 789.217, 647.264 787.551, 654.081 767.258 C 658.484 754.153, 660.526 740.873, 659.655 731 C 658.969 723.215, 654.006 705.577, 650.465 698.340 C 647.743 692.776, 642.029 687.009, 639.215 686.986 C 638.272 686.979, 636.600 686.812, 635.500 686.616 C 634.400 686.420, 629 686.670, 623.500 687.171 M 243.481 699.394 C 239.193 701.262, 235.261 706.109, 227.614 718.957 C 219.765 732.145, 218.030 738.217, 218.030 752.500 C 218.030 765.577, 219.820 772.706, 225.970 784.121 C 232.640 796.501, 236.354 800, 242.826 800 C 248.798 800, 258.671 795.358, 262.623 790.692 C 269.380 782.715, 276.993 757.944, 276.974 744 C 276.961 734.623, 274.635 717.946, 272.432 711.433 C 270.096 704.528, 267.664 701.483, 262.993 699.614 C 258.151 697.676, 247.693 697.558, 243.481 699.394"/>
</svg>