<?xml version="1.0" encoding="utf-8"?>
<svg xmlns="http://www.w3.org/2000/svg" width="1002" height="717" viewBox="0 0 1002 717">
  <path fill-rule="evenodd" d="M 737.500 2.560 C 732 3.291, 724.778 3.914, 721.450 3.945 C 718.123 3.975, 714.973 4.402, 714.450 4.893 C 713.928 5.385, 707.425 7.474, 700 9.537 C 692.575 11.600, 684.817 14.130, 682.760 15.159 C 680.702 16.189, 675.077 18.441, 670.260 20.164 C 664.526 22.214, 658.315 25.500, 652.279 29.677 C 645.060 34.672, 641.804 36.286, 637.279 37.109 C 630.909 38.269, 629.005 39.405, 630.658 41.058 C 631.777 42.177, 654.358 43.772, 674.500 44.157 C 684.107 44.340, 686.999 44.065, 689 42.777 C 693.607 39.814, 706.923 33.590, 707.476 34.142 C 708.108 34.775, 707.202 41.468, 702.009 74.500 C 695.530 115.723, 695.047 120.667, 697.500 120.667 C 698.473 120.667, 699 119.692, 699 117.892 C 699 116.366, 699.385 114.880, 699.856 114.589 C 700.326 114.298, 700.486 115.239, 700.211 116.679 C 699.841 118.610, 700.041 119.093, 700.970 118.519 C 701.958 117.908, 702.090 119.221, 701.585 124.620 C 701.230 128.404, 701.343 132.850, 701.835 134.500 L 702.729 137.500 703.774 134 C 704.545 131.420, 704.843 131.091, 704.910 132.750 C 704.959 133.988, 705.388 135, 705.861 135 C 706.335 135, 706.520 136.061, 706.272 137.359 C 705.977 138.899, 706.373 139.929, 707.410 140.327 C 708.406 140.709, 709 140.403, 709 139.509 C 709 138.542, 709.969 138.148, 711.998 138.290 C 714.106 138.438, 714.997 139.020, 714.998 140.250 C 714.999 141.213, 715.430 142, 715.955 142 C 716.480 142, 717.210 143.602, 717.577 145.560 C 718.021 147.926, 718.687 148.951, 719.561 148.615 C 720.412 148.288, 720.988 149.063, 721.189 150.805 C 721.603 154.393, 725.195 154.988, 727.403 151.834 L 729 149.555 729.068 152.027 L 729.135 154.500 730.300 152 C 730.940 150.625, 732.035 148.905, 732.732 148.179 C 733.429 147.452, 734 146.188, 734 145.370 C 734 144.551, 734.468 144.171, 735.041 144.525 C 735.613 144.879, 735.808 146.030, 735.473 147.084 C 735.133 148.155, 735.336 149, 735.933 149 C 736.520 149, 737 148.523, 737 147.941 C 737 147.359, 737.443 147.156, 737.985 147.491 C 738.590 147.865, 738.779 146.826, 738.475 144.800 L 737.981 141.500 739.445 144.500 C 740.251 146.150, 740.930 146.938, 740.955 146.250 C 740.980 145.563, 741.429 145, 741.953 145 C 742.509 145, 742.666 147.186, 742.329 150.250 C 741.792 155.132, 741.869 155.389, 743.425 153.915 C 744.502 152.895, 745.620 148.860, 746.561 142.593 C 747.366 137.238, 748.438 130.976, 748.943 128.678 C 749.449 126.380, 750.821 118.045, 751.993 110.156 C 753.165 102.266, 755.049 92.816, 756.180 89.156 C 757.311 85.495, 758.394 80.867, 758.587 78.871 C 758.780 76.875, 759.353 73.275, 759.862 70.871 C 760.370 68.467, 761.329 62, 761.992 56.500 C 762.655 51, 763.866 42.900, 764.683 38.500 C 765.501 34.100, 766.385 28.753, 766.648 26.618 C 767.491 19.781, 769.134 18.373, 777.789 17.075 C 782.030 16.439, 791.619 15.428, 799.098 14.828 C 811.619 13.824, 813.476 13.905, 822.529 15.854 C 827.937 17.019, 832.618 17.691, 832.931 17.349 C 833.244 17.006, 832.935 16.524, 832.244 16.278 C 831.553 16.031, 831.210 15.469, 831.483 15.028 C 832.502 13.379, 828.970 11.910, 819.378 9.994 C 813.945 8.909, 806.350 7.308, 802.500 6.436 C 798.650 5.564, 791.675 4.437, 787 3.932 C 782.325 3.427, 775.125 2.580, 771 2.051 C 761.017 0.769, 749.676 0.942, 737.500 2.560 M 568 10.082 C 564.975 10.402, 561.754 10.997, 560.842 11.404 C 558.263 12.554, 556.978 16.843, 556.831 24.785 C 556.758 28.791, 556.315 32.305, 555.849 32.594 C 555.382 32.882, 555.007 33.879, 555.015 34.809 C 555.029 36.275, 555.169 36.300, 556.070 35 C 556.839 33.890, 556.999 34.611, 556.684 37.771 C 556.449 40.119, 556.680 42.302, 557.197 42.622 C 557.714 42.941, 557.895 43.832, 557.600 44.601 C 557.304 45.371, 557.488 46, 558.008 46 C 558.552 46, 558.736 48.443, 558.441 51.750 C 557.540 61.859, 555.916 74.326, 555.391 75.176 C 555.111 75.629, 555.359 76, 555.941 76 C 556.523 76, 557 76.675, 557 77.500 C 557 78.325, 556.546 79, 555.992 79 C 555.362 79, 555.412 79.686, 556.124 80.827 C 557.442 82.937, 555.785 100.350, 554.069 102.417 C 552.611 104.173, 552.348 115.748, 553.734 117.134 C 554.608 118.008, 555.047 117.583, 555.534 115.395 C 556.718 110.085, 558.194 105.860, 558.691 106.358 C 558.962 106.629, 558.727 108.346, 558.170 110.175 C 555.860 117.748, 554.582 127.109, 554.506 137 C 554.462 142.775, 554.073 148.945, 553.642 150.712 C 553.211 152.478, 553.242 154.611, 553.713 155.451 C 554.318 156.532, 555.516 153.915, 557.816 146.489 C 559.603 140.720, 561.284 136, 561.552 136 C 562.128 136, 561.472 139.012, 558.832 148.500 C 554.718 163.283, 553.782 166, 552.800 166 C 552.242 166, 552.061 165.283, 552.397 164.407 C 553.856 160.605, 554.160 158, 553.144 158 C 551.527 158, 549.809 161.823, 550.479 163.932 C 550.817 165, 550.380 166.478, 549.448 167.409 C 547.990 168.867, 533.712 176.068, 526.750 178.856 C 525.237 179.462, 524 180.481, 524 181.122 C 524 182.269, 536.754 181.815, 546.250 180.331 C 549.288 179.856, 550 180.054, 550 181.372 C 550 183.534, 551.610 183.454, 552.464 181.250 C 553.106 179.594, 553.214 179.597, 554.470 181.303 C 555.462 182.650, 555.930 182.776, 556.320 181.803 C 556.715 180.818, 556.861 180.805, 556.921 181.750 C 557.032 183.508, 559.943 183.312, 560.638 181.500 C 561.717 178.688, 562.554 179.991, 562.181 183.902 C 561.875 187.104, 562.166 187.918, 563.796 188.435 C 564.890 188.782, 566.016 189.951, 566.298 191.033 C 567.011 193.759, 568.862 193.493, 570 190.500 C 570.523 189.125, 571.380 188, 571.904 188 C 572.429 188, 573.583 185.507, 574.468 182.461 C 575.732 178.115, 576.663 176.689, 578.789 175.846 C 580.280 175.254, 585.325 173.061, 590 170.971 C 614.117 160.192, 623.652 156.740, 641 152.508 C 651.083 150.048, 676.845 145, 679.317 145 C 680.658 145, 682.282 144.365, 682.925 143.590 C 684.806 141.324, 679.368 140.696, 664.099 141.417 C 636.123 142.738, 610.346 146.388, 592.640 151.536 C 587.766 152.953, 583.632 153.965, 583.452 153.786 C 583.044 153.377, 589.653 130.538, 590.854 128.211 C 591.756 126.462, 593.444 119.020, 593.203 117.854 C 593.130 117.499, 593.903 114.124, 594.922 110.354 C 595.941 106.584, 597.073 101.800, 597.438 99.722 C 597.803 97.644, 598.998 93.144, 600.094 89.722 C 602.168 83.246, 605.024 63.621, 607.074 41.764 C 608.015 31.733, 608.008 28.714, 607.041 27.549 C 606.235 26.579, 606.047 24.680, 606.494 22.035 C 606.943 19.376, 606.805 18, 606.088 18 C 605.490 18, 605 18.873, 605 19.941 C 605 21.009, 604.545 22.163, 603.989 22.507 C 602.749 23.273, 603.655 14.513, 605.093 11.826 C 605.842 10.427, 605.712 10, 604.535 10 C 603.691 10, 602.993 10.563, 602.985 11.250 C 602.975 12.080, 602.650 11.996, 602.019 11 C 601.249 9.785, 598.447 9.500, 587.284 9.500 C 579.703 9.500, 571.025 9.762, 568 10.082 M 491.346 22.782 C 484.052 22.966, 479.872 23.485, 479.266 24.282 C 478.271 25.591, 475.362 44.133, 473.977 58 C 473.510 62.675, 472.804 68.032, 472.408 69.905 C 471.936 72.139, 472.040 73.094, 472.710 72.679 C 473.273 72.332, 474.527 72.925, 475.498 73.998 C 477.016 75.675, 477.090 76.369, 476.025 78.939 C 475.344 80.583, 474.292 81.832, 473.686 81.714 C 472.694 81.521, 470.608 87.430, 469.348 94 C 468.885 96.414, 468.922 96.433, 470.434 94.559 C 471.295 93.491, 472.007 91.691, 472.015 90.559 C 472.024 89.426, 472.509 87.825, 473.093 87 C 473.871 85.902, 473.991 86.909, 473.542 90.762 C 473.204 93.656, 472.669 96.699, 472.353 97.524 C 471.953 98.565, 472.241 98.845, 473.296 98.440 C 475.268 97.683, 474.918 101.995, 472.184 112.128 C 471.091 116.182, 469.927 121.017, 469.598 122.872 C 469.049 125.973, 469.142 126.134, 470.751 124.872 C 473.312 122.863, 473.968 121.749, 473.985 119.372 C 473.993 118.202, 474.675 116.685, 475.500 116 C 476.724 114.984, 477 115.042, 477 116.312 C 477 117.169, 476.559 119.030, 476.020 120.448 C 475.481 121.866, 474.608 125.608, 474.080 128.763 C 473.553 131.918, 472.798 136.038, 472.402 137.918 C 471.804 140.762, 471.942 141.236, 473.228 140.743 C 474.361 140.308, 474.644 140.645, 474.288 142.006 C 474.003 143.095, 473.224 143.639, 472.401 143.324 C 471.631 143.028, 471 143.247, 471 143.810 C 471 144.373, 471.475 144.992, 472.056 145.185 C 472.794 145.431, 472.776 147.641, 471.996 152.519 C 470.609 161.186, 469.722 168.576, 469.596 172.500 C 469.523 174.786, 469.901 175.434, 471.185 175.221 C 472.647 174.979, 472.819 175.767, 472.488 181.194 C 472.083 187.843, 473.389 187.573, 474.539 180.770 C 475.387 175.751, 476.655 175.929, 476.171 181 C 475.786 185.042, 477.435 186.637, 478.671 183.416 C 479.117 182.254, 479.478 182.155, 480.027 183.044 C 481.213 184.963, 482.713 183.343, 483.466 179.330 C 483.981 176.582, 484.393 176.004, 485.077 177.069 C 485.583 177.856, 485.722 179.805, 485.386 181.400 C 484.872 183.840, 485.044 184.197, 486.469 183.650 C 487.401 183.293, 488.591 183, 489.114 183 C 489.637 183, 490.471 181.988, 490.969 180.750 C 491.726 178.867, 491.884 179.193, 491.937 182.750 C 491.983 185.833, 492.412 187, 493.500 187 C 494.325 187, 495 186.300, 495 185.445 C 495 184.590, 495.858 182.002, 496.906 179.695 C 497.954 177.388, 499.126 173.250, 499.510 170.500 C 499.893 167.750, 501.300 161.675, 502.636 157 C 510.389 129.869, 511.377 126.331, 520.525 93 C 524.911 77.018, 529.722 51.148, 529.359 45.500 C 529.217 43.300, 529.561 37.572, 530.122 32.770 C 531.207 23.490, 530.789 21.100, 528.424 23.063 C 527.590 23.755, 526.314 23.897, 525.263 23.415 C 523.404 22.562, 509.968 22.311, 491.346 22.782 M 445.906 28.779 C 444.760 30.614, 444.481 30.672, 443.470 29.290 C 442.479 27.935, 442.047 28.125, 440.194 30.728 C 439.020 32.377, 438.335 34.002, 438.672 34.339 C 439.009 34.676, 438.763 35.581, 438.125 36.349 C 437.487 37.118, 437.219 38.406, 437.528 39.213 C 437.838 40.020, 437.415 41.241, 436.588 41.927 C 435.581 42.763, 435.277 44.136, 435.667 46.087 C 436.121 48.353, 435.887 49, 434.616 49 C 433.229 49, 433.078 48.190, 433.613 43.634 C 434.291 37.866, 432.922 35.409, 431.015 38.972 C 430.277 40.350, 430.250 41.599, 430.931 42.872 C 432.146 45.141, 430.136 50.239, 428.298 49.550 C 426.838 49.003, 424.038 54.321, 423.900 57.904 L 423.801 60.500 423.073 58 C 422.672 56.625, 422.825 54.411, 423.411 53.079 C 424.210 51.264, 424.167 50.556, 423.240 50.247 C 422.434 49.978, 422.235 48.906, 422.668 47.167 C 423.265 44.767, 423.165 44.637, 421.666 45.872 C 420.532 46.807, 420 48.783, 420 52.063 C 420 54.714, 419.550 57.160, 419 57.500 C 418.359 57.896, 417.948 54.059, 417.854 46.809 L 417.708 35.500 416.845 49.932 C 416.180 61.036, 415.602 64.782, 414.336 66.182 C 413.431 67.182, 413.157 68, 413.727 68 C 415.237 68, 415.115 75.827, 413.591 76.735 C 412.017 77.674, 410.652 84, 412.025 84 C 412.561 84, 413 84.702, 413 85.559 C 413 86.416, 412.597 86.869, 412.105 86.565 C 411.612 86.260, 410.952 86.684, 410.636 87.506 C 410.321 88.328, 410.499 89, 411.031 89 C 411.564 89, 412 89.702, 412 90.559 C 412 91.416, 411.550 91.840, 411 91.500 C 410.450 91.160, 409.984 91.471, 409.965 92.191 C 409.945 92.911, 409.336 92.430, 408.611 91.122 L 407.293 88.744 405.540 91.122 C 403.815 93.462, 403.796 93.404, 404.345 87.519 C 404.709 83.620, 404.577 82.054, 403.967 83.019 C 403.198 84.235, 403.010 84.142, 402.913 82.500 C 402.780 80.246, 400.072 90.873, 399.599 95.500 C 399.155 99.852, 394.964 114.267, 393.683 115.849 C 393.082 116.591, 392.484 118.841, 392.354 120.849 C 392.224 122.857, 390.538 128.458, 388.608 133.297 C 386.678 138.135, 385.350 142.747, 385.656 143.547 C 385.963 144.346, 385.689 145, 385.048 145 C 384.407 145, 384.129 145.399, 384.430 145.887 C 384.731 146.374, 384.310 147.328, 383.494 148.005 C 382.677 148.683, 381.486 150.984, 380.846 153.119 C 380.207 155.253, 379.305 157, 378.842 157 C 378.379 157, 378 158.146, 378 159.548 C 378 161.276, 376.370 163.726, 372.929 167.166 L 367.858 172.238 364.900 169.404 C 354.985 159.905, 351.676 134.601, 356.478 105 C 357.326 99.775, 358.918 88.075, 360.016 79 C 361.114 69.925, 362.450 59.575, 362.986 56 C 363.522 52.425, 363.937 48.375, 363.910 47 C 363.863 44.681, 363.791 44.645, 362.922 46.500 C 362.143 48.162, 362.045 47.993, 362.343 45.500 C 362.540 43.850, 362.881 41.825, 363.101 41 C 363.352 40.055, 362.945 39.645, 362 39.891 C 361.175 40.107, 359.600 40.172, 358.500 40.038 C 351.706 39.205, 329.613 40.460, 321.500 42.139 C 313.341 43.829, 313.286 43.860, 313.336 46.771 C 313.362 48.272, 313.020 51.643, 312.576 54.263 C 311.847 58.565, 311.939 58.961, 313.522 58.353 C 315.080 57.755, 315.207 58.170, 314.664 62.090 C 313.180 72.798, 312.875 79.195, 313.878 78.575 C 314.565 78.151, 314.838 82.582, 314.702 91.965 C 314.591 99.679, 314.234 105.992, 313.909 105.995 C 312.907 106.004, 310.769 117.115, 310.769 122.315 C 310.769 125.346, 311.283 127.557, 312.106 128.065 C 313.884 129.164, 313.918 129.098, 314.470 123.421 C 314.733 120.715, 315.197 116.925, 315.501 115 C 315.805 113.075, 316.241 109.250, 316.470 106.500 C 316.900 101.326, 320.807 81.860, 321.569 81.098 C 322.186 80.481, 321.981 83.720, 321.038 89.500 C 316.794 115.510, 316.428 119.248, 315.940 141.500 L 315.720 151.500 314.500 142 C 313.829 136.775, 313.164 133.400, 313.021 134.500 C 312.879 135.600, 312.824 137.011, 312.899 137.636 C 313.053 138.918, 310.247 140.271, 309.015 139.509 C 307.377 138.497, 307.233 141.894, 308.505 151.571 C 310.142 164.028, 312.929 171.502, 318.148 177.431 C 327.174 187.684, 332.174 188.142, 385.500 183.598 C 396.336 182.675, 404.214 178.523, 414.386 168.373 C 419.083 163.685, 421.434 160.079, 426.035 150.500 C 432.202 137.658, 434.315 131.581, 434.551 126 C 434.632 124.075, 436.052 117.775, 437.707 112 C 443.942 90.239, 445.719 81.718, 447.925 63 C 449.055 53.407, 449.389 47.269, 448.800 46.894 C 448.257 46.549, 448.056 42.651, 448.332 37.804 C 448.865 28.443, 448.038 25.365, 445.906 28.779 M 217 33.755 C 198.152 35.958, 162.070 54.282, 161.614 61.883 C 161.551 62.923, 157.834 67.885, 153.354 72.909 C 144.894 82.395, 142 87.073, 142 91.263 C 142 92.616, 140.200 96.998, 138 101 C 135.800 105.002, 134 108.440, 134 108.638 C 134 108.837, 138.282 109, 143.516 109 L 153.032 109 154.701 105.500 C 156.571 101.580, 158 100.955, 158 104.059 C 158 107.304, 159.701 105.409, 160.470 101.308 C 161.279 96.998, 164.209 90.902, 166.310 89.158 C 167.520 88.153, 167.840 88.455, 168.206 90.951 C 168.448 92.602, 168.313 94.301, 167.905 94.727 C 167.497 95.152, 167.014 97.075, 166.831 99 C 166.586 101.592, 166.889 102.500, 168 102.500 C 169.118 102.500, 169.439 101.505, 169.261 98.589 C 169.038 94.934, 170.259 92, 172.002 92 C 173.048 92, 172.957 101.884, 171.824 111.500 C 170.300 124.423, 170.687 123.716, 164.443 125.012 C 157.843 126.382, 157.670 128.276, 164.078 129 L 168.500 129.500 168.446 134 C 168.369 140.377, 166.959 158.257, 166.471 159.047 C 166.246 159.411, 165.836 168.437, 165.560 179.104 C 165.156 194.693, 165.352 199.404, 166.560 203.104 C 168.197 208.115, 171.744 210.712, 174.807 209.141 C 175.738 208.663, 179.650 208.186, 183.500 208.079 C 187.350 207.973, 190.879 207.509, 191.343 207.050 C 191.807 206.590, 191.632 203.578, 190.955 200.357 C 190.063 196.113, 189.904 188.028, 190.380 171 C 190.741 158.075, 191.223 146.150, 191.453 144.500 C 191.682 142.850, 192.149 139.378, 192.491 136.783 L 193.113 132.067 198.306 132.182 C 201.163 132.245, 207.100 131.977, 211.500 131.587 C 218.112 131.001, 220.571 131.224, 225.669 132.872 C 234.557 135.744, 237.739 137.609, 244.102 143.678 C 258.298 157.219, 258.888 176.553, 245.673 195.192 C 242.416 199.786, 228.103 214, 226.733 214 C 226.115 214, 224.460 215.058, 223.055 216.352 C 217.179 221.761, 192.551 224.806, 180.244 221.645 C 172.229 219.587, 169.953 218.038, 165.607 211.686 C 159.972 203.448, 158.534 193.570, 161.058 180.432 C 161.866 176.223, 159.682 175.940, 157.986 180.033 C 157.295 181.702, 155.328 184.161, 153.615 185.499 C 150.826 187.676, 150.395 188.745, 149.500 195.715 C 148.680 202.100, 148.201 203.451, 146.837 203.226 C 145.600 203.023, 145.283 203.534, 145.598 205.226 C 145.832 206.477, 145.755 206.938, 145.428 206.250 C 144.348 203.979, 142.170 204.950, 141.500 208.001 C 141.059 210.006, 140.071 211.195, 138.522 211.584 C 135.260 212.402, 134.604 217.324, 137.425 219.805 C 143.617 225.250, 160.028 228.573, 186 229.640 C 198.265 230.144, 203.691 229.918, 212 228.559 C 242.800 223.521, 263.531 215.942, 279.423 203.912 C 286.411 198.622, 288.848 195.448, 287.192 193.792 C 286.535 193.135, 287.196 190.669, 289.148 186.498 C 292.399 179.550, 292.514 178.815, 292.033 168 C 291.721 160.989, 291.654 160.793, 291 165 C 290.345 169.216, 290.291 169.279, 290.155 166 C 290.075 164.075, 288.787 159.142, 287.293 155.038 C 284.956 148.615, 283.597 146.623, 277.539 140.734 C 273.667 136.971, 268.250 132.611, 265.500 131.045 C 259.894 127.853, 248.297 124.404, 240 123.463 C 231.213 122.466, 231.100 122.168, 238.041 118.330 C 246.880 113.441, 259.193 103.671, 267 95.352 C 275.410 86.390, 282 73.608, 282 66.258 C 282 60.996, 279.938 54.781, 277.150 51.641 C 274.500 48.654, 265.067 44.343, 251.824 40.065 C 234.390 34.433, 225.298 32.785, 217 33.755 M 230.154 47.072 C 221.180 49.509, 210.121 54.414, 209.594 56.191 C 208.115 61.170, 202.065 84.418, 201.186 88.500 C 200.593 91.250, 199.184 97.405, 198.054 102.177 C 195.518 112.891, 195.519 113, 198.122 113 C 199.910 113, 200.045 113.240, 198.981 114.523 C 197.908 115.816, 198.003 115.939, 199.609 115.340 C 200.649 114.952, 202.625 113.894, 204 112.989 C 215.274 105.567, 218.541 103.095, 226.096 96.268 C 235.586 87.692, 242.761 80, 241.270 80 C 240.741 80, 238.475 81.912, 236.235 84.250 C 229.523 91.255, 226.032 94.177, 224.849 93.783 C 224.234 93.578, 226.845 90.050, 230.652 85.944 C 243.609 71.970, 248.495 62.677, 248.498 52 L 248.500 45.500 243 45.289 C 239.950 45.172, 234.227 45.966, 230.154 47.072 M 403.630 69.250 C 402.674 72.820, 402.904 79.822, 404 80.500 C 404.550 80.840, 405.015 80.529, 405.034 79.809 C 405.052 79.089, 405.241 75.912, 405.452 72.750 C 405.836 67.017, 404.775 64.979, 403.630 69.250 M 401.525 94.500 C 401.811 96.150, 402.110 99.224, 402.188 101.331 C 402.285 103.947, 402.594 104.690, 403.163 103.674 C 403.655 102.793, 404.813 102.400, 405.998 102.710 C 407.407 103.078, 408 102.742, 408 101.573 C 408 100.548, 407.333 100.025, 406.258 100.206 C 404.966 100.424, 404.354 99.596, 403.890 97 C 403.545 95.075, 403.172 93.950, 403.061 94.500 C 402.950 95.050, 402.442 94.600, 401.932 93.500 C 401.196 91.911, 401.112 92.116, 401.525 94.500 M 217.646 98.750 C 212.885 102.726, 210.642 105.820, 213.773 104.094 C 216.785 102.432, 224.550 95.058, 223.318 95.028 C 222.668 95.013, 220.116 96.688, 217.646 98.750 M 923.500 213.607 C 921.300 214.426, 915.847 215.237, 911.382 215.409 C 906.445 215.599, 901.977 216.364, 899.978 217.361 C 898.171 218.262, 896.235 219, 895.675 219 C 895.115 219, 893.947 219.637, 893.079 220.415 C 892.210 221.193, 886.325 223.725, 880 226.040 C 865.770 231.250, 857.828 235.191, 853.800 239.040 C 852.097 240.668, 849.963 242, 849.058 242 C 848.154 242, 844.733 244.268, 841.457 247.041 C 835.886 251.756, 834.515 252.468, 829.583 253.211 C 826.763 253.636, 826.493 255.836, 829.179 256.501 C 830.456 256.817, 834.650 257.171, 838.500 257.288 C 844.805 257.479, 845.489 257.699, 845.388 259.500 C 845.115 264.355, 842.854 283.320, 841.514 292 C 838.537 311.278, 836.714 324.712, 835.979 332.790 C 835.564 337.349, 834.745 344.549, 834.158 348.790 C 832.751 358.947, 830.956 380.290, 831.466 380.799 C 832.330 381.663, 834 379.779, 834 377.941 C 834 376.873, 834.589 376, 835.308 376 C 836.919 376, 836.761 382.709, 835.076 385.858 C 834.117 387.651, 833.029 388, 828.406 388 C 824.978 388, 823.116 387.621, 823.500 387 C 823.840 386.450, 823.413 386, 822.551 386 C 819.630 386, 823.123 389.796, 827.460 391.335 C 829.682 392.123, 837.350 394.872, 844.500 397.443 C 865.763 405.088, 864.877 404.898, 872.521 403.461 C 878.638 402.312, 895.771 395.612, 897.001 393.889 C 897.839 392.715, 917.814 383.552, 930.527 378.509 C 937.112 375.897, 942.950 373.316, 943.500 372.774 C 945.237 371.063, 937.998 373.057, 933.187 375.616 C 927.851 378.453, 924.066 378.867, 928.569 376.121 C 930.257 375.092, 932.732 373.917, 934.069 373.510 C 935.406 373.103, 937.712 371.472, 939.194 369.885 C 940.675 368.298, 942.603 367, 943.479 367 C 944.354 367, 946.194 366.264, 947.566 365.365 C 948.939 364.465, 950.373 364.040, 950.752 364.419 C 951.132 364.798, 950.929 365.426, 950.301 365.814 C 949.674 366.202, 949.012 367.190, 948.830 368.009 C 948.649 368.829, 947.600 370.047, 946.500 370.715 C 941.572 373.707, 949.876 371.407, 974 363.095 C 983.605 359.786, 981.145 358.883, 971.102 362.031 C 967.583 363.134, 964.512 363.845, 964.278 363.611 C 964.043 363.377, 966.337 362.462, 969.375 361.579 C 975.526 359.791, 977.037 358.464, 974.015 357.505 C 971.054 356.565, 971.559 355.193, 974.649 355.784 C 976.356 356.110, 977.066 355.915, 976.645 355.235 C 975.781 353.837, 976.963 350.859, 978.103 351.564 C 978.594 351.867, 979.997 351.415, 981.221 350.558 L 983.445 349 981.187 349 C 979.946 349, 977.933 349.640, 976.715 350.423 C 975.497 351.206, 972.025 352.319, 969 352.896 C 965.975 353.474, 962.375 354.227, 961 354.570 C 959.625 354.913, 960.525 354.225, 963 353.040 C 965.475 351.855, 968.774 350.236, 970.331 349.443 C 971.888 348.649, 973.594 348, 974.123 348 C 974.651 348, 976.050 347.100, 977.230 346 C 978.411 344.900, 980.106 344, 980.997 344 C 981.889 344, 983.491 343.339, 984.559 342.532 C 987.190 340.542, 984.925 340.516, 978.456 342.463 C 975.781 343.268, 973.389 343.722, 973.139 343.472 C 972.889 343.222, 972.193 343.411, 971.592 343.893 C 970.991 344.375, 968.993 345.092, 967.150 345.486 C 964.069 346.145, 963.854 346.035, 964.468 344.101 C 965.144 341.971, 963.652 341.136, 962.500 343 C 962.160 343.550, 960.503 344, 958.819 344 C 956.209 344, 955.940 343.778, 957 342.500 C 957.685 341.675, 958.951 341, 959.814 341 C 961.069 341, 960.995 340.707, 959.441 339.532 C 957.113 337.771, 954.587 337.523, 955.595 339.155 C 956.033 339.862, 955.870 340.038, 955.177 339.609 C 954.554 339.224, 951.816 339.571, 949.093 340.380 C 946.370 341.188, 943.210 341.606, 942.071 341.308 C 940.932 341.010, 940 341.157, 940 341.635 C 940 342.113, 937.935 343.599, 935.412 344.938 C 931.518 347.003, 930.382 347.205, 927.905 346.270 C 926.299 345.664, 925.185 345.491, 925.428 345.884 C 925.672 346.278, 924.272 346.600, 922.318 346.600 C 920.354 346.600, 918.259 347.263, 917.633 348.083 C 916.973 348.948, 914.748 349.603, 912.302 349.654 C 909.987 349.702, 906.519 350.676, 904.569 351.827 C 902.625 352.974, 898.889 354.550, 896.267 355.329 C 893.645 356.108, 887.518 358.602, 882.651 360.873 C 877.784 363.143, 873.557 365, 873.258 365 C 872.960 365, 873 362.276, 873.348 358.947 C 873.755 355.050, 873.628 353.112, 872.990 353.506 C 872.446 353.843, 872 354.766, 872 355.559 C 872 356.352, 871.561 357, 871.025 357 C 870.399 357, 870.389 356.108, 870.997 354.509 C 871.518 353.138, 871.734 351.451, 871.477 350.759 C 871.220 350.066, 871.419 348.150, 871.919 346.500 L 872.828 343.500 872.914 346.750 C 873.034 351.302, 874.998 350.834, 875.011 346.250 C 875.028 340.591, 876.144 334.971, 877.131 335.581 C 877.613 335.879, 877.715 337.287, 877.358 338.710 C 876.902 340.525, 877.051 341.087, 877.854 340.590 C 878.484 340.201, 879 338.634, 879 337.108 C 879 333.670, 879.901 332.673, 881.677 334.147 C 882.705 335, 883.461 334.911, 884.769 333.784 C 886.965 331.890, 906.455 320, 907.362 320 C 907.735 320, 909.718 318.940, 911.770 317.645 C 913.821 316.350, 915.900 315.264, 916.388 315.231 C 916.877 315.198, 917.552 314.764, 917.888 314.266 C 918.781 312.947, 927.345 309, 929.316 309 C 930.242 309, 931 308.605, 931 308.121 C 931 306.859, 936.679 304.683, 937.940 305.463 C 938.523 305.823, 939 305.650, 939 305.078 C 939 304.506, 940.237 303.742, 941.750 303.381 C 943.263 303.020, 944.950 302.381, 945.500 301.962 C 946.050 301.543, 950.550 299.966, 955.500 298.456 C 966.554 295.085, 968.608 293.531, 961 294.293 C 956.726 294.722, 955.988 294.611, 957.692 293.796 C 958.897 293.219, 960.143 292.069, 960.461 291.241 C 960.941 289.991, 960.249 289.825, 956.385 290.260 C 953.528 290.582, 952.265 290.446, 953.115 289.908 C 953.877 289.425, 955.314 289.024, 956.309 289.015 C 957.349 289.007, 957.834 288.540, 957.450 287.919 C 957.082 287.324, 955.743 287.099, 954.474 287.417 C 953.097 287.763, 952.003 287.509, 951.763 286.789 C 951.455 285.865, 949.689 285.941, 944.231 287.113 C 936.505 288.772, 935.104 287.967, 942.483 286.109 C 944.967 285.483, 947 284.570, 947 284.079 C 947 283.589, 948.013 283.429, 949.250 283.725 C 951.299 284.214, 951.362 284.116, 949.961 282.628 C 948.538 281.116, 947.601 281.144, 937.518 282.997 C 924.925 285.310, 924.677 285.331, 925.500 284 C 925.840 283.450, 927.104 282.993, 928.309 282.985 C 929.514 282.976, 931.175 282.493, 932 281.910 C 933.113 281.123, 932.515 281.014, 929.679 281.484 C 927.577 281.832, 925.141 282.392, 924.265 282.729 C 923.127 283.165, 922.904 282.964, 923.485 282.025 C 924.117 281.002, 923.653 280.864, 921.399 281.404 C 919.804 281.786, 915.174 282.347, 911.109 282.652 C 907.043 282.956, 901.246 284.055, 898.225 285.095 L 892.732 286.984 893.238 279.921 C 893.839 271.515, 892.363 271.960, 891.109 280.563 C 890.498 284.755, 890.208 285.488, 890.122 283.059 C 890.011 279.921, 889.881 279.780, 888.655 281.457 C 887.416 283.151, 887.266 283.028, 886.760 279.898 C 886.458 278.029, 886.767 273.261, 887.446 269.302 C 888.126 265.344, 888.417 261.734, 888.091 261.282 C 887.766 260.830, 886.263 259.916, 884.750 259.251 C 883.237 258.587, 882 257.615, 882 257.093 C 882 255.633, 884.942 253.012, 890.756 249.293 C 898.215 244.522, 902.786 242.719, 923.364 236.435 C 933.339 233.388, 942.400 230.502, 943.500 230.021 C 944.600 229.540, 946.850 228.738, 948.500 228.240 C 952.404 227.060, 952.024 225.715, 947.482 224.632 C 944.291 223.871, 943.916 223.471, 944.440 221.382 C 944.874 219.656, 944.620 219, 943.519 219 C 942.684 219, 942 218.539, 942 217.975 C 942 216.439, 936.942 214.688, 933.224 214.938 C 931.013 215.086, 930.037 214.745, 930.224 213.888 C 930.629 212.024, 928.041 211.916, 923.500 213.607 M 666.500 227.062 C 654.413 227.748, 635.484 230.227, 629 231.973 C 627.075 232.492, 620.100 234.076, 613.500 235.494 C 596.718 239.099, 585.025 242.338, 566.500 248.511 C 520.634 263.794, 511 267.560, 511 270.204 C 511 271.215, 512.125 272.555, 513.500 273.182 C 514.875 273.808, 516 274.699, 516 275.161 C 516 275.622, 516.480 276, 517.067 276 C 517.653 276, 523.616 278.672, 530.317 281.938 C 544.530 288.866, 560.944 295, 565.266 295 C 566.934 295, 573.809 292.307, 580.580 289 C 587.338 285.700, 593.320 283, 593.874 283 C 595.881 283, 596.136 285.144, 594.438 287.735 C 592.454 290.762, 580.638 332.988, 577.994 346.500 C 575.056 361.511, 573.591 378.887, 574.875 383.500 C 575.488 385.700, 575.991 389.386, 575.994 391.691 C 575.997 393.996, 576.450 396.160, 577 396.500 C 577.550 396.840, 578 398.161, 578 399.437 C 578 400.712, 578.740 402.369, 579.644 403.120 C 581.091 404.320, 581.216 404.245, 580.681 402.492 C 579.034 397.088, 578.062 391.060, 578.182 387 L 578.314 382.500 578.907 387.500 C 579.288 390.716, 579.944 392.412, 580.744 392.252 C 581.613 392.079, 581.851 393.071, 581.533 395.549 C 581.218 398.015, 581.512 399.259, 582.502 399.639 C 583.284 399.939, 584.205 401.070, 584.549 402.153 C 585.051 403.736, 585.743 403.996, 588.087 403.481 C 589.900 403.083, 591 403.249, 591 403.921 C 591 406.100, 594.001 404.959, 594.079 402.750 C 594.122 401.512, 594.385 401.063, 594.662 401.750 C 595.567 403.992, 596.735 403.064, 596.244 400.494 C 595.980 399.116, 596.294 397.350, 596.942 396.570 C 597.652 395.714, 597.868 393.811, 597.485 391.770 C 596.928 388.805, 597.170 388.244, 599.452 387.204 C 601.897 386.090, 602.090 386.198, 602.649 388.993 C 602.976 390.629, 603.669 391.704, 604.190 391.383 C 604.710 391.061, 604.916 390.223, 604.646 389.521 C 604.377 388.818, 604.583 387.817, 605.105 387.295 C 605.626 386.774, 606.327 383.906, 606.661 380.923 C 606.996 377.941, 607.687 374.825, 608.197 374 C 608.824 372.986, 608.977 373.847, 608.670 376.658 C 608.420 378.944, 608.573 381.194, 609.010 381.658 C 609.448 382.121, 610.001 383.400, 610.241 384.500 C 610.480 385.600, 611.038 382.714, 611.481 378.086 C 612.154 371.055, 612.490 369.949, 613.521 371.359 C 614.645 372.896, 614.809 372.844, 615.364 370.773 C 615.699 369.523, 615.979 367.318, 615.986 365.872 C 616.001 363.058, 618.155 360.537, 619.501 361.759 C 619.951 362.166, 620.042 361.727, 619.703 360.782 C 619.364 359.837, 619.476 358.824, 619.950 358.531 C 620.424 358.238, 621.122 355.749, 621.500 353 C 621.878 350.251, 622.566 347.768, 623.030 347.482 C 623.493 347.195, 624.626 343.482, 625.548 339.230 C 626.469 334.979, 628.122 328.350, 629.220 324.500 C 630.319 320.650, 632.251 313.450, 633.513 308.500 C 634.776 303.550, 635.884 299.950, 635.975 300.500 C 636.066 301.050, 636.527 300.600, 637 299.500 C 637.767 297.715, 637.867 297.694, 637.930 299.309 C 638.050 302.410, 639.948 300.093, 641.129 295.402 C 641.749 292.939, 642.441 291.107, 642.665 291.332 C 642.890 291.556, 641.890 296.411, 640.443 302.120 C 636.818 316.429, 634.046 328.305, 634.054 329.500 C 634.065 331.127, 636.219 326.923, 637.086 323.584 C 637.526 321.888, 639.036 316, 640.441 310.500 C 641.847 305, 643.430 299.600, 643.960 298.500 C 644.489 297.400, 645.673 294.025, 646.589 291 C 647.505 287.975, 649.098 282.838, 650.128 279.585 C 651.157 276.332, 652 272.892, 652 271.942 C 652 270.992, 652.630 269.972, 653.399 269.677 C 654.169 269.382, 655.296 267.633, 655.904 265.790 C 657.075 262.241, 659.745 261.055, 673.774 257.850 C 679.674 256.502, 680.290 254.339, 674.645 254.793 C 670.412 255.134, 669.678 253.457, 673.750 252.749 C 683.984 250.972, 692.660 248.668, 693.575 247.485 C 694.188 246.693, 695.692 246.295, 697.075 246.559 C 698.409 246.814, 698.935 246.754, 698.244 246.426 C 697.553 246.098, 697.242 245.418, 697.553 244.915 C 697.864 244.412, 696.854 243.948, 695.309 243.884 C 693.619 243.814, 693.197 243.586, 694.250 243.311 C 695.212 243.059, 696 242.430, 696 241.914 C 696 241.397, 698.025 239.990, 700.500 238.788 C 702.975 237.585, 705 236.086, 705 235.456 C 705 233.485, 701.740 231.470, 695 229.275 C 686.840 226.616, 681.570 226.207, 666.500 227.062 M 783.500 235.774 C 777.186 236.351, 776.195 236.966, 773.873 241.746 C 772.010 245.581, 771.599 247.950, 771.749 254 C 771.996 263.999, 771.025 276.133, 770.027 275.517 C 769.586 275.244, 768.899 281.879, 768.499 290.261 C 768.100 298.642, 767.358 306.288, 766.851 307.250 C 766.177 308.530, 764.663 309.009, 761.215 309.035 C 758.622 309.054, 753.575 309.714, 750 310.500 C 746.425 311.286, 742.067 311.946, 740.316 311.965 C 737.576 311.995, 737.089 311.617, 736.816 309.250 C 736.642 307.738, 737.063 304.264, 737.750 301.532 C 738.438 298.800, 739 294.878, 739 292.817 C 739 290.756, 739.615 287.142, 740.367 284.785 C 741.120 282.428, 742.308 276, 743.009 270.500 C 743.710 265, 744.652 259.503, 745.104 258.284 C 746.451 254.647, 743.939 253.269, 734.270 252.341 C 724.515 251.405, 694.477 251.190, 693.617 252.050 C 693 252.667, 691.390 265.285, 689.944 280.831 C 689.416 286.513, 688.465 292.132, 687.830 293.317 C 687.196 294.503, 686.771 297.788, 686.885 300.618 C 687.029 304.180, 686.611 306.247, 685.526 307.332 C 684.298 308.560, 682.273 318.359, 682.031 324.250 C 682.014 324.663, 681.203 325, 680.228 325 C 678.245 325, 654.745 330.932, 654.067 331.604 C 652.581 333.076, 657.093 334.107, 666.965 334.551 C 673.193 334.831, 678.583 335.242, 678.943 335.465 C 679.302 335.687, 678.341 344.336, 676.807 354.684 C 675.273 365.033, 674.057 375.075, 674.105 377 C 674.153 378.925, 673.932 383.425, 673.615 387 L 673.037 393.500 674.442 389.500 C 675.214 387.300, 675.888 385.950, 675.938 386.500 C 675.989 387.050, 676.500 386.825, 677.073 386 C 677.814 384.934, 677.922 386.622, 677.448 391.827 L 676.781 399.155 679.891 398.664 C 682.312 398.283, 683.007 398.542, 683.032 399.837 C 683.061 401.362, 683.172 401.358, 684.367 399.785 C 685.278 398.584, 685.985 398.385, 686.722 399.122 C 688.221 400.621, 689.304 398.579, 690.500 392 C 691.315 387.515, 691.869 386.495, 693.500 386.474 C 695.135 386.453, 695.454 385.859, 695.246 383.224 C 695.107 381.451, 695.399 380, 695.897 380 C 696.394 380, 697.250 378.313, 697.797 376.250 L 698.793 372.500 698.928 376.500 C 699.048 380.049, 699.213 380.303, 700.392 378.750 C 701.123 377.788, 702.233 377, 702.860 377 C 703.487 377, 704 376.523, 704 375.941 C 704 375.359, 704.409 375.135, 704.909 375.444 C 705.662 375.909, 706.639 371.495, 708.328 360 C 708.450 359.175, 709.288 361.425, 710.191 365 C 711.124 368.693, 711.869 370.362, 711.916 368.865 C 712.014 365.774, 714.385 359.718, 715.184 360.517 C 715.486 360.819, 716.028 359.225, 716.388 356.973 C 716.948 353.470, 717.329 352.970, 719.022 353.507 C 720.768 354.061, 721 353.665, 721 350.126 C 721 347.922, 721.450 345.840, 722 345.500 C 722.550 345.160, 723 345.601, 723 346.480 C 723 347.822, 723.342 347.759, 725.135 346.089 C 726.762 344.573, 727.127 343.384, 726.668 341.089 C 726.337 339.433, 726.501 337.809, 727.033 337.480 C 727.565 337.151, 728 335.810, 728 334.500 C 728 333.190, 728.416 331.861, 728.924 331.547 C 729.465 331.213, 729.685 333.365, 729.454 336.738 C 729.025 343.012, 729.872 342.071, 732.140 333.755 C 733.285 329.554, 733.811 328.938, 736.717 328.393 C 738.556 328.048, 740 327.167, 740 326.389 C 740 325.625, 740.675 325, 741.500 325 C 742.325 325, 743 324.600, 743 324.111 C 743 323.623, 744.688 322.923, 746.750 322.557 C 751.333 321.743, 758.545 319.320, 762.250 317.350 C 764.980 315.898, 765 315.910, 765 319.065 C 765 320.813, 764.320 326.823, 763.489 332.420 C 762.658 338.018, 761.786 345.275, 761.552 348.549 C 761.318 351.822, 760.200 359, 759.068 364.500 C 757.936 370, 757.080 375.625, 757.165 377 C 757.251 378.375, 756.978 382.875, 756.559 387 C 755.954 392.963, 756.053 394.256, 757.040 393.309 C 757.723 392.654, 758.502 389.832, 758.770 387.038 C 759.039 384.244, 759.538 381.786, 759.879 381.576 C 760.392 381.260, 760.532 390.360, 760.040 392 C 759.957 392.275, 759.729 395.870, 759.533 399.989 C 759.168 407.667, 759.647 410.190, 761.040 407.936 C 761.666 406.923, 762.336 406.990, 764.276 408.261 C 765.621 409.143, 767.572 409.733, 768.611 409.574 C 769.650 409.414, 770.725 409.613, 771 410.016 C 771.275 410.419, 772.442 410.395, 773.594 409.964 C 775.189 409.367, 775.998 407.668, 776.986 402.840 C 778.734 394.296, 780 393.281, 780 400.422 C 780 405.485, 780.196 406.082, 781.500 405 C 782.325 404.315, 783 403.058, 783 402.206 C 783 401.354, 783.703 399.881, 784.561 398.932 C 785.420 397.983, 786.518 394.413, 787 390.998 C 788.305 381.765, 789.360 382.274, 788.560 391.750 C 788.092 397.286, 788.208 400, 788.912 400 C 789.490 400, 790.251 398.848, 790.604 397.440 C 790.998 395.871, 791.760 395.078, 792.572 395.389 C 793.976 395.928, 794.487 394.791, 795.558 388.750 C 795.931 386.644, 796.802 385, 797.544 385 C 799.357 385, 799.642 383.744, 801.952 365.562 C 803.903 350.201, 804.931 346.462, 806.505 349.008 C 807.494 350.609, 810.980 342.695, 811.070 338.641 C 811.109 336.913, 811.551 334.600, 812.054 333.500 C 812.661 332.170, 812.766 333.428, 812.368 337.250 C 811.960 341.171, 812.124 343, 812.885 343 C 813.498 343, 814 342.086, 814 340.968 C 814 339.850, 814.687 337.291, 815.527 335.281 C 816.942 331.896, 818.758 314.906, 819.085 302 C 819.162 298.975, 819.610 294.925, 820.082 293 C 820.553 291.075, 821.191 285.900, 821.500 281.500 C 823.001 260.069, 824.024 252.624, 825.907 249.433 C 827.741 246.324, 827.750 246.084, 826.090 244.581 C 825.129 243.712, 822.942 243, 821.230 243 C 819.519 243, 817.840 242.550, 817.500 242 C 817.160 241.450, 816.042 241, 815.014 241 C 813.987 241, 813.001 240.250, 812.823 239.332 C 812.645 238.415, 811.375 237.518, 810 237.339 C 804.178 236.579, 786.263 235.522, 783.500 235.774 M 389.593 250.071 C 379.056 251.020, 366.880 254.734, 365.203 257.510 C 364.816 258.149, 361.712 260.146, 358.303 261.947 C 351.747 265.412, 347.388 269.031, 335.709 280.707 C 325.159 291.255, 321.862 295.478, 322.627 297.469 C 323.088 298.673, 323.492 298.821, 324.013 297.978 C 324.565 297.085, 325.341 297.171, 327.124 298.321 C 328.431 299.163, 331.156 300.155, 333.181 300.524 C 335.205 300.894, 337.180 301.940, 337.570 302.848 C 338.320 304.596, 338.264 326.377, 337.484 336.500 C 336.592 348.074, 335.973 360.147, 335.499 375.255 C 334.933 393.244, 336.455 398.819, 337.445 382.388 C 338.321 367.838, 338.700 365.933, 338.864 375.250 C 338.941 379.659, 339.431 383, 340 383 C 340.550 383, 340.968 384.012, 340.930 385.250 C 340.863 387.397, 340.820 387.408, 340 385.500 C 339.404 384.112, 339.100 383.959, 339.006 385 C 338.933 385.825, 338.728 387.962, 338.552 389.750 C 338.376 391.538, 338.685 393, 339.239 393 C 339.792 393, 339.627 393.748, 338.872 394.663 C 337.802 395.959, 337.775 396.418, 338.750 396.746 C 340.195 397.232, 340.461 400, 339.063 400 C 338.032 400, 338.526 405.153, 340.189 411.750 C 341.606 417.374, 342.964 417.144, 343.150 411.250 C 343.256 407.890, 343.425 407.378, 343.727 409.500 C 343.962 411.150, 344.569 412.927, 345.077 413.450 C 345.585 413.972, 346.039 415.772, 346.086 417.450 L 346.172 420.500 347.177 417.500 C 347.729 415.850, 348.165 413.674, 348.146 412.664 C 348.123 411.423, 348.606 411.018, 349.637 411.414 C 350.477 411.736, 351.352 412, 351.582 412 C 351.812 412, 352 412.675, 352 413.500 C 352 414.325, 352.450 415, 353 415 C 353.550 415, 354 413.845, 354 412.433 C 354 410.232, 354.322 409.964, 356.250 410.555 C 357.488 410.934, 359.013 411.654, 359.640 412.153 C 360.469 412.814, 361.007 410.256, 361.613 402.781 C 362.072 397.126, 362.603 394.004, 362.794 395.841 C 363.129 399.074, 363.203 399.126, 365.070 397.436 C 366.939 395.745, 367 395.793, 367 398.928 C 367 401.073, 367.422 402.027, 368.250 401.752 C 369.108 401.468, 369.578 398.381, 369.749 391.919 C 370.041 380.857, 370.721 376.931, 371.989 378.983 C 372.590 379.955, 373.048 379.263, 373.541 376.634 C 373.925 374.584, 373.957 372.624, 373.611 372.278 C 372.912 371.579, 376.871 367, 378.174 367 C 378.628 367, 379 367.675, 379 368.500 C 379 369.325, 379.450 370, 380 370 C 380.550 370, 381 370.840, 381 371.867 C 381 372.912, 382.651 374.838, 384.750 376.241 C 386.813 377.620, 395.045 385.217, 403.044 393.124 C 411.044 401.031, 418.694 408.407, 420.044 409.517 C 433.626 420.670, 437.270 423.163, 439.244 422.647 C 440.584 422.296, 443.735 423.415, 447.924 425.729 C 452.415 428.210, 453.988 428.750, 452.884 427.431 C 450.137 424.148, 449.689 420.237, 451.923 419.041 C 454.461 417.683, 455.387 414.591, 454.020 412.038 C 453.232 410.565, 453.233 410, 454.024 410 C 454.626 410, 454.797 409.481, 454.405 408.846 C 454.012 408.211, 453.581 406.690, 453.447 405.466 C 453.255 403.721, 453.613 403.348, 455.101 403.737 C 456.155 404.012, 457 403.720, 457 403.081 C 457 402.224, 457.533 402.215, 459.086 403.046 C 462.833 405.051, 462.367 403.146, 457.797 397.774 C 455.329 394.873, 453.127 391.966, 452.905 391.312 C 452.682 390.659, 444.175 381.039, 434 369.934 C 423.825 358.829, 414.687 348.693, 413.694 347.410 L 411.888 345.076 417.625 340.788 C 420.780 338.430, 424.653 335.275, 426.231 333.777 C 427.809 332.280, 430.540 330.263, 432.300 329.297 C 436.297 327.102, 444 319.966, 444 318.459 C 444 317.841, 445.906 315.797, 448.236 313.917 C 452.721 310.299, 457 307.743, 457 308.682 C 457 309.809, 460.371 306.423, 462.158 303.500 C 463.880 300.684, 463.993 300.642, 463.996 302.816 C 463.998 304.089, 463.549 305.975, 462.997 307.005 C 461.037 310.668, 463.841 309.993, 466.107 306.256 C 467.360 304.190, 469.423 301.509, 470.692 300.298 C 471.962 299.087, 473 297.144, 473 295.982 C 473 294.820, 473.442 293.043, 473.982 292.033 C 474.643 290.798, 474.588 289.102, 473.812 286.849 C 469.931 275.571, 460.295 268.836, 438 261.818 C 434.425 260.693, 429.341 258.680, 426.703 257.345 C 422.249 255.092, 407.421 250.823, 400.500 249.802 C 398.850 249.558, 393.942 249.680, 389.593 250.071 M 411.500 274.438 C 407.650 275.750, 401.644 278.439, 398.154 280.412 C 394.664 282.385, 391.577 284, 391.295 284 C 391.013 284, 387.907 286.112, 384.391 288.693 L 378 293.386 378 311.693 C 378 321.762, 378.337 329.993, 378.750 329.985 C 379.163 329.976, 380.175 329.484, 381 328.890 C 382.218 328.014, 382.128 327.934, 380.524 328.461 C 378.690 329.064, 378.708 328.940, 380.774 326.741 C 381.998 325.438, 383.036 323.500, 383.079 322.436 C 383.123 321.367, 383.385 321.062, 383.664 321.756 C 384.470 323.755, 385.993 322.137, 386.079 319.191 C 386.122 317.711, 386.385 317.063, 386.662 317.750 C 387.589 320.047, 389.709 319.040, 394.034 314.250 C 396.392 311.637, 400.632 307.025, 403.455 304 C 410.104 296.874, 416.335 287.394, 418.934 280.448 C 422.486 270.954, 422.258 270.770, 411.500 274.438 M 237.112 280.265 C 235.799 280.944, 234.719 281.950, 234.711 282.500 C 234.704 283.050, 234.023 283.994, 233.198 284.597 C 232.091 285.406, 232.008 285.887, 232.882 286.427 C 234.073 287.163, 232.453 289.426, 224.484 298.161 C 222.647 300.174, 220.444 303.175, 219.589 304.828 C 218.615 306.711, 216.737 308.262, 214.560 308.980 C 207.697 311.245, 195.740 328.147, 190.506 342.983 C 188.533 348.576, 189.279 347.994, 192.487 341.437 C 196.945 332.324, 196.440 335.985, 191.700 347.136 C 189.276 352.836, 187.038 358.175, 186.726 359 C 186.250 360.257, 186.145 360.236, 186.079 358.872 C 186.036 357.977, 186.681 355.614, 187.513 353.622 C 188.346 351.630, 188.632 350, 188.149 350 C 187.667 350, 186.503 352.137, 185.564 354.750 C 184.624 357.363, 183.143 361.192, 182.271 363.260 C 181.400 365.328, 180.956 367.289, 181.285 367.618 C 181.614 367.947, 182.634 366.480, 183.553 364.358 C 185.645 359.527, 186.510 361.225, 184.668 366.545 C 183.748 369.203, 182.704 370.492, 181.469 370.495 C 179.719 370.500, 178.549 373.307, 176.264 382.982 C 175.942 384.348, 175.115 386.027, 174.428 386.715 C 173.741 387.402, 173.416 388.875, 173.707 389.988 C 173.998 391.100, 173.728 392.623, 173.107 393.371 C 171.607 395.179, 171.418 414.185, 172.842 420.119 C 174.640 427.616, 175.717 429.738, 180.182 434.582 C 185.132 439.951, 191.126 443.225, 199.500 445.133 C 208.018 447.074, 259.829 447.072, 265.500 445.131 C 278.500 440.681, 284.922 435.662, 295.097 422 C 304.112 409.895, 310.798 396.907, 312.085 389 C 312.577 385.975, 313.434 381.928, 313.990 380.007 C 314.545 378.085, 314.941 374.260, 314.868 371.507 C 314.746 366.869, 314.688 366.758, 314.077 370 C 313.476 373.189, 313.348 373.299, 312.637 371.235 C 311.673 368.441, 310 369.261, 310 372.528 C 310 374.259, 310.422 374.775, 311.500 374.362 C 312.435 374.003, 313 374.369, 313 375.334 C 313 377.322, 311.343 378.364, 310.457 376.931 C 310.053 376.277, 308.821 377.385, 307.420 379.665 C 304.589 384.270, 304.451 383.124, 306.394 371.170 C 307.384 365.083, 307.446 362.725, 306.624 362.412 C 305.888 362.131, 305.552 358.790, 305.649 352.742 L 305.799 343.500 304.969 352.500 C 304.513 357.450, 303.898 362.720, 303.603 364.211 C 303.010 367.202, 304.573 369.081, 305.308 366.262 C 305.584 365.206, 305.814 365.644, 305.884 367.357 C 305.971 369.489, 305.626 370.070, 304.527 369.649 C 303.044 369.080, 302.796 369.709, 299.953 381.250 C 298.395 387.577, 296.874 391.040, 295.914 390.447 C 295.445 390.157, 294.395 391.513, 293.581 393.460 C 291.159 399.257, 290.181 397.826, 290.875 389.500 C 290.944 388.675, 291.543 388.113, 292.206 388.250 C 293.444 388.507, 294.758 383.294, 295.546 375 C 296.050 369.696, 296.067 344.733, 295.567 344.233 C 295.377 344.044, 294.720 347.851, 294.106 352.694 C 290.889 378.077, 288.662 387, 285.546 387 C 284.774 387, 283.348 387.788, 282.377 388.750 C 280.696 390.417, 280.645 390.413, 281.306 388.668 C 281.688 387.661, 282.007 386.086, 282.015 385.168 C 282.028 383.831, 282.204 383.773, 282.904 384.878 C 284.479 387.365, 286.015 384.974, 285.755 380.443 C 285.481 375.687, 284.745 374.965, 283.008 377.750 C 282.157 379.114, 282.050 378.592, 282.523 375.384 C 283.048 371.828, 282.857 371.196, 281.125 370.743 C 279.573 370.337, 278.880 370.905, 278.060 373.258 C 277.477 374.930, 277 377.555, 277 379.090 C 277 380.626, 276.589 382.136, 276.087 382.446 C 275.585 382.757, 274.871 384.806, 274.500 387 C 274.129 389.194, 273.350 391.284, 272.768 391.643 C 272.063 392.079, 271.937 391.330, 272.389 389.399 C 274.039 382.354, 276.016 370.683, 275.626 370.293 C 275.391 370.058, 274.877 371.808, 274.484 374.183 C 274.091 376.557, 273.505 378.942, 273.182 379.482 C 272.859 380.023, 272.529 381.350, 272.450 382.432 C 272.370 383.513, 271.786 384.571, 271.152 384.783 C 270.519 384.994, 270 385.934, 270 386.872 C 270 387.810, 269.100 390.342, 268 392.500 C 266.900 394.658, 266 396.605, 266 396.828 C 266 397.051, 266.900 396.998, 268 396.710 C 270.600 396.030, 270.522 397.036, 267.519 402.962 C 264.866 408.198, 263 410.096, 263 407.559 C 263 404.769, 261.213 405.918, 261.148 408.750 C 260.996 415.262, 260.943 415.526, 260.071 414.116 C 258.879 412.186, 258.405 412.538, 249.500 421.997 C 245.100 426.670, 239.574 431.784, 237.219 433.361 L 232.938 436.229 228.893 433.426 C 219.286 426.768, 215.617 409.413, 218.961 386.446 C 220.288 377.332, 226.953 354.162, 230.420 346.610 C 231.710 343.800, 233.969 338.800, 235.441 335.500 C 241.580 321.729, 247.255 314.740, 254.161 312.446 C 256.823 311.562, 259 310.450, 259 309.974 C 259 309.499, 256.906 308.972, 254.346 308.805 L 249.692 308.500 255.777 300.851 C 262.870 291.937, 262.518 292.210, 267.786 291.548 C 271.583 291.071, 272.005 291.272, 274.011 294.518 C 276.397 298.379, 278.518 299.207, 277.457 295.864 C 276.855 293.967, 277.068 293.800, 279.363 294.376 C 281.526 294.919, 281.850 294.738, 281.350 293.262 C 281.022 292.293, 279.589 290.507, 278.166 289.294 C 276.743 288.081, 275.859 286.808, 276.202 286.464 C 277.299 285.368, 281.710 288.963, 284.571 293.286 C 286.133 295.647, 287.527 296.920, 287.766 296.203 C 287.998 295.505, 287.584 294.200, 286.845 293.304 C 285.791 292.027, 285.770 291.584, 286.750 291.254 C 288.511 290.661, 288.302 288.445, 286.297 286.439 C 284.692 284.835, 284.736 284.780, 287.047 285.491 L 289.500 286.245 287.097 284.123 C 285.775 282.955, 284.200 281.986, 283.597 281.968 C 282.994 281.951, 277.775 281.290, 272 280.500 C 258.871 278.704, 240.371 278.579, 237.112 280.265 M 254.914 291.453 C 252.486 293.352, 248.700 297.218, 246.500 300.044 C 244.300 302.869, 241.425 305.603, 240.111 306.119 C 237.132 307.288, 237.450 307.561, 242.736 308.370 L 246.972 309.019 252.386 301.698 C 255.364 297.671, 258.824 293.697, 260.075 292.866 C 261.582 291.865, 262.133 290.789, 261.707 289.678 C 260.798 287.311, 259.914 287.542, 254.914 291.453 M 99.435 291.708 C 98.718 292.425, 97.846 293.909, 97.498 295.006 C 97.115 296.214, 95.985 297, 94.633 297 C 93.405 297, 91.855 297.545, 91.188 298.212 C 90.522 298.878, 88.213 299.296, 86.056 299.140 C 83.900 298.984, 81.205 299.355, 80.068 299.964 C 78.689 300.702, 78 300.726, 78 300.035 C 78 297.949, 74.922 299.078, 73.235 301.783 C 72.167 303.496, 70.827 304.429, 69.750 304.210 C 68.787 304.014, 68 304.284, 68 304.811 C 68 305.338, 65.638 306.071, 62.750 306.439 C 55.052 307.421, 46.909 310.476, 44.848 313.155 C 43.856 314.445, 42.301 317.750, 41.394 320.500 C 39.389 326.573, 37.621 328.725, 33.581 330.012 L 30.500 330.993 33.927 330.486 C 38.380 329.827, 38.537 329.732, 24.173 336.424 C 12.741 341.751, 11.453 342.129, 6.423 341.635 C 1.036 341.106, 0.340 341.414, 1.783 343.683 C 2.563 344.910, 5.333 345.911, 20.500 350.445 C 25.450 351.925, 30.774 353.780, 32.331 354.568 C 33.888 355.356, 35.976 356, 36.970 356 C 38.246 356, 38.972 357.035, 39.437 359.517 C 39.800 361.451, 39.814 363.491, 39.469 364.050 C 39.124 364.609, 38.635 366.725, 38.384 368.751 C 38.015 371.729, 38.366 372.774, 40.213 374.196 C 41.986 375.560, 42.134 375.961, 40.872 375.978 C 39.977 375.990, 38.651 376.715, 37.926 377.589 C 36.792 378.956, 36.880 379.130, 38.554 378.839 C 39.919 378.601, 40.591 379.142, 40.806 380.648 C 41.022 382.164, 40.613 382.753, 39.414 382.648 C 38.480 382.567, 37.493 383.134, 37.221 383.909 C 36.880 384.883, 37.233 385.125, 38.364 384.691 C 39.507 384.252, 40 384.608, 40 385.871 C 40 387.160, 37.833 388.638, 32.449 391.022 C 28.297 392.861, 22.702 395.813, 20.017 397.581 C 13.962 401.569, 8.398 404.466, 4.582 405.619 C 2.977 406.103, 1.485 407.038, 1.266 407.696 C 0.795 409.116, 8.167 414, 10.780 414 C 11.781 414, 13.027 414.358, 13.550 414.795 C 14.072 415.232, 17.200 416.439, 20.500 417.477 C 23.800 418.516, 26.950 419.688, 27.500 420.083 C 28.050 420.477, 31.087 421.397, 34.250 422.127 C 38.858 423.191, 40 423.847, 40 425.427 C 40 426.955, 40.269 427.131, 41.193 426.207 C 42.368 425.032, 43.945 427.377, 46.097 433.500 C 46.671 435.130, 46.822 434.946, 46.916 432.500 C 46.979 430.850, 47.505 428.825, 48.084 428 C 48.838 426.927, 48.916 428.207, 48.357 432.500 C 47.069 442.395, 47.281 448.547, 48.898 448.201 C 50.025 447.960, 50.184 449.122, 49.721 454.201 C 49.103 460.989, 49.450 460.813, 51.311 453.393 C 52.885 447.119, 54.926 446.436, 54.943 452.178 C 54.950 454.555, 55.359 458.975, 55.853 462 L 56.750 467.500 56.876 462.500 L 57.002 457.500 58.892 461.500 C 59.932 463.700, 61.394 466.981, 62.141 468.790 L 63.500 472.081 64.132 469.290 C 64.583 467.296, 64.797 468.116, 64.882 472.168 C 65.018 478.699, 65.694 481, 67.478 481 C 68.858 481, 69.360 478.020, 71.015 460 C 71.597 453.675, 72.513 445.350, 73.052 441.500 C 73.591 437.650, 74.535 430.900, 75.149 426.500 C 75.763 422.100, 76.744 417.897, 77.330 417.160 C 77.916 416.422, 80.536 414.884, 83.153 413.742 C 85.770 412.599, 87.706 411.334, 87.456 410.930 C 87.207 410.525, 88.444 409.692, 90.207 409.078 C 91.969 408.463, 94.516 407.237, 95.867 406.352 L 98.322 404.743 95.975 403.487 C 93.650 402.242, 93.669 402.210, 98.009 399.995 C 100.419 398.766, 103.990 397.134, 105.945 396.370 L 109.500 394.979 105.500 395.463 L 101.500 395.946 105.750 394.267 C 110.042 392.570, 111.478 390.724, 108.250 391.052 C 107.287 391.150, 106.050 391.169, 105.500 391.093 C 104.048 390.894, 112.912 387.003, 114.859 386.985 C 116.293 386.971, 116.311 386.834, 115 385.898 C 113.810 385.048, 113.992 384.935, 115.881 385.354 C 117.190 385.644, 118.818 385.325, 119.499 384.644 C 120.179 383.964, 122.707 382.814, 125.118 382.090 C 130.268 380.541, 134.147 378.814, 133.632 378.299 C 132.861 377.528, 125.065 379.296, 125.577 380.125 C 125.875 380.606, 125.390 381, 124.500 381 C 123.610 381, 123.136 380.588, 123.447 380.085 C 123.758 379.582, 123.447 378.980, 122.756 378.748 C 122.065 378.515, 123.285 377.988, 125.466 377.576 C 127.648 377.165, 130.573 376.036, 131.966 375.067 C 135.381 372.693, 140.606 371, 144.514 371 C 146.283 371, 148.912 370.071, 150.355 368.935 C 151.799 367.799, 153.375 367.114, 153.857 367.411 C 154.339 367.709, 155.517 367.086, 156.476 366.027 C 158.178 364.146, 158.132 364.125, 154.508 365.125 C 152.467 365.689, 148.580 366.252, 145.869 366.376 C 141.414 366.581, 141.159 366.481, 143.220 365.337 C 144.474 364.641, 146.625 364.019, 148 363.956 C 149.375 363.894, 149.972 363.627, 149.328 363.364 C 148.683 363.100, 140.286 364.261, 130.669 365.943 C 110.727 369.429, 111.684 369.321, 112.500 368 C 112.840 367.450, 114.522 367, 116.238 367 C 119.137 367, 123.720 365.856, 128.500 363.938 C 135.517 361.122, 114.714 364.716, 95.962 369.558 C 90.395 370.996, 85.561 371.894, 85.220 371.554 C 84.375 370.709, 84.911 363.166, 86.382 355.194 L 87.601 348.590 95.551 346.155 C 103.855 343.612, 110.490 341.130, 117.879 337.804 C 120.288 336.720, 123.775 335.586, 125.629 335.285 C 127.483 334.984, 129 334.406, 129 333.999 C 129 333.593, 131.137 332.708, 133.750 332.034 C 136.363 331.360, 139.625 330.452, 141 330.017 C 142.375 329.581, 146.425 328.423, 150 327.444 C 153.575 326.464, 156.927 325.288, 157.450 324.831 C 157.972 324.374, 159.510 324, 160.867 324 C 164.313 324, 163.238 323.396, 158.500 322.670 C 155.776 322.252, 154.979 322.362, 156 323.013 C 157.333 323.863, 157.333 323.977, 156 324.039 C 153.615 324.149, 139.843 325.916, 136 326.605 C 133.502 327.053, 132.792 326.922, 133.520 326.146 C 134.081 325.549, 140.831 323.423, 148.520 321.421 C 156.209 319.420, 164.750 317.178, 167.500 316.438 L 172.500 315.093 167 315.634 C 163.975 315.932, 159.104 316.853, 156.176 317.680 C 153.248 318.508, 150.627 318.960, 150.352 318.685 C 149.794 318.127, 159.701 315.089, 164.764 314.265 C 167.100 313.885, 168.193 313.080, 168.606 311.434 C 169.072 309.577, 170.317 308.880, 175.069 307.817 C 179.763 306.767, 180.772 306.210, 180.054 305.066 C 179.390 304.007, 176.977 303.632, 170.845 303.632 C 162.854 303.632, 162.665 303.579, 165.885 302.265 C 167.727 301.514, 171.769 300.527, 174.867 300.071 C 177.965 299.616, 179.713 299.189, 178.750 299.122 C 176.088 298.936, 176.655 297.417, 179.989 295.802 L 182.979 294.354 180.864 292.085 C 178.887 289.962, 178.161 289.848, 169.625 290.323 C 157.432 291.001, 152.466 292.136, 152.625 294.208 C 152.723 295.483, 152.076 295.727, 149.625 295.341 C 147.906 295.070, 145.375 295.304, 144 295.861 C 141.512 296.868, 141.512 296.874, 143.809 296.937 C 147.684 297.043, 145.347 298.681, 140.340 299.367 C 137.458 299.762, 135.377 299.610, 134.985 298.975 C 134.557 298.283, 133.537 298.260, 131.922 298.905 C 130.590 299.438, 129.950 299.918, 130.500 299.972 C 131.545 300.075, 127.057 302.903, 125.750 302.965 C 124.234 303.036, 125.055 301.131, 126.750 300.645 C 127.713 300.369, 126.700 300.383, 124.500 300.676 C 122.300 300.968, 118.592 301.829, 116.261 302.588 C 111.774 304.050, 100.739 306.021, 100.153 305.467 C 99.961 305.286, 100.510 303.870, 101.371 302.319 C 102.232 300.769, 103.607 297.804, 104.425 295.732 C 105.244 293.659, 106.045 291.634, 106.207 291.232 C 106.725 289.939, 100.787 290.356, 99.435 291.708 M 225.675 298.658 C 225.313 299.020, 225.517 299.918, 226.127 300.653 C 227.873 302.757, 224.695 306.952, 221.783 306.387 C 219.644 305.972, 219.655 306.011, 221.961 307.018 C 224.577 308.159, 224.631 308.118, 230.096 300.750 C 232.126 298.014, 231.489 296.911, 229.200 299.200 C 228.267 300.133, 228 300.133, 228 299.200 C 228 297.898, 226.731 297.602, 225.675 298.658 M 410.500 334.454 C 407.875 336.619, 407.750 336.937, 409.500 336.996 C 411.474 337.063, 411.474 337.083, 409.559 338.532 C 406.069 341.171, 409.080 340.071, 413.067 337.250 C 415.205 335.738, 416.814 334.050, 416.644 333.500 C 416.053 331.593, 413.485 331.992, 410.500 334.454 M 977.508 338.670 C 972.013 340.034, 967.326 341.341, 967.092 341.575 C 965.812 342.854, 968.281 342.889, 972.117 341.646 C 974.528 340.864, 977.850 339.946, 979.500 339.605 C 981.150 339.265, 984.750 338.344, 987.500 337.560 C 995.928 335.158, 988.203 336.016, 977.508 338.670 M 957 346.499 C 955.625 347.222, 949.212 349.505, 942.750 351.570 C 936.288 353.636, 931 355.682, 931 356.116 C 931 356.967, 933.290 356.318, 951.217 350.380 C 957.662 348.246, 962.949 346.163, 962.967 345.750 C 963.017 344.616, 959.814 345.018, 957 346.499 M 44.844 373.750 C 44.758 374.163, 44.551 375.625, 44.384 377 C 44.217 378.375, 43.778 381.020, 43.408 382.877 C 42.885 385.506, 43.042 386.154, 44.118 385.799 C 44.878 385.548, 45.651 384.254, 45.835 382.922 C 46.019 381.590, 46.502 380.152, 46.908 379.727 C 47.887 378.702, 47.021 373, 45.887 373 C 45.399 373, 44.930 373.337, 44.844 373.750 M 363.094 379 C 363.129 380.925, 363.385 381.938, 363.662 381.250 C 363.940 380.563, 364.757 380, 365.478 380 C 366.474 380, 366.589 380.890, 365.955 383.697 C 365.480 385.808, 365.512 388.061, 366.030 388.947 C 366.530 389.801, 366.977 390.275, 367.024 390 C 367.070 389.725, 367.332 386.693, 367.605 383.262 C 368.044 377.757, 367.908 377.098, 366.450 377.657 C 365.515 378.016, 364.415 377.686, 363.914 376.896 C 363.310 375.940, 363.051 376.605, 363.094 379 M 683.500 446.460 C 680.750 447.258, 677.352 447.932, 675.950 447.956 C 674.548 447.980, 672.953 448.447, 672.406 448.994 C 671.860 449.540, 668.507 450.276, 664.956 450.628 C 661.405 450.980, 657.727 451.939, 656.783 452.759 C 655.782 453.629, 654.140 454.008, 652.846 453.670 C 651.625 453.351, 648.778 453.343, 646.520 453.652 C 643.351 454.087, 642.034 454.876, 640.753 457.108 C 639.840 458.698, 638.450 460, 637.663 460 C 636.422 460, 634.644 463.259, 634.856 465.143 C 634.896 465.497, 633.693 466.299, 632.182 466.925 C 629.107 468.198, 624.726 472.536, 623.678 475.345 C 623.300 476.360, 622.092 477.425, 620.995 477.712 C 618.940 478.249, 618.478 479.698, 619.765 481.566 C 620.684 482.900, 630.934 488, 632.696 488 C 633.413 488, 634.817 488.817, 635.815 489.815 C 637.416 491.416, 637.534 492.567, 636.817 499.565 C 636.370 503.929, 635.289 519.875, 634.416 535 C 633.542 550.125, 632.684 563.850, 632.509 565.500 C 631.207 577.729, 627.602 603.329, 625.946 612.090 C 624.846 617.915, 623.761 624.134, 623.537 625.911 C 623.113 629.259, 621.441 632, 619.823 632 C 618.089 632, 610.127 635.986, 609.340 637.247 C 606.618 641.608, 610.191 644.931, 615 642.512 C 621.783 639.101, 628.103 638.297, 625.183 641.217 C 623.257 643.143, 623.825 644.267, 626.470 643.761 C 627.828 643.501, 628.702 643.674, 628.411 644.144 C 628.120 644.615, 627.121 645.016, 626.191 645.035 C 625.261 645.055, 623.375 645.720, 622 646.513 C 619.532 647.937, 619.544 647.948, 623 647.359 C 624.925 647.031, 629.684 645.691, 633.575 644.381 C 641.970 641.556, 642.400 641.516, 641.589 643.629 C 641.068 644.986, 641.475 645.155, 644.032 644.644 C 646.081 644.234, 646.881 644.384, 646.440 645.096 C 645.677 646.332, 650.160 645.960, 651.083 644.711 C 651.404 644.277, 652.800 644.354, 654.186 644.881 C 656.227 645.657, 657.661 645.293, 661.734 642.967 C 664.499 641.388, 667.024 640.357, 667.343 640.676 C 668.136 641.470, 679.833 636.452, 689.225 631.289 C 693.479 628.951, 697.634 627.306, 698.475 627.629 C 699.314 627.951, 700 627.716, 700 627.107 C 700 626.498, 701.013 625.985, 702.250 625.967 C 704.862 625.928, 709.654 622.295, 708.505 621.225 C 708.077 620.826, 707.525 621.063, 707.280 621.750 C 706.755 623.218, 705 623.438, 705 622.035 C 705 621.505, 705.957 620.558, 707.127 619.932 C 708.769 619.054, 709.436 619.088, 710.051 620.082 C 710.700 621.132, 711.140 621.129, 712.424 620.063 C 713.291 619.344, 714.008 619.148, 714.017 619.628 C 714.026 620.107, 714.970 619.038, 716.115 617.250 C 717.260 615.462, 718.715 613.933, 719.348 613.852 C 722.674 613.424, 724.564 613.587, 725.120 614.349 C 726.218 615.852, 748 596.757, 748 594.292 C 748 593.581, 748.508 593, 749.128 593 C 750.805 593, 761.036 581.964, 762.572 578.500 C 763.304 576.850, 766.287 572.994, 769.201 569.932 C 778.424 560.240, 787.282 538.621, 788.635 522.500 C 789.333 514.186, 786.918 498.691, 784.067 493.190 C 779.226 483.848, 767.476 471.653, 757.454 465.568 C 749.639 460.824, 744.102 458.754, 718.500 451.004 C 699.550 445.268, 691.295 444.196, 683.500 446.460 M 407.500 458.670 C 401.450 459.488, 393.923 460.941, 390.773 461.899 C 386.918 463.071, 384.897 463.290, 384.588 462.570 C 383.124 459.159, 373.517 477.503, 370.565 489.346 C 368.718 496.758, 369.036 499.527, 371.021 493.317 C 372.153 489.778, 374 486.674, 374 488.313 C 374 488.705, 373.065 492.282, 371.923 496.263 C 370.781 500.243, 369.279 506.105, 368.585 509.288 C 367.187 515.702, 365.011 519.124, 364.985 514.950 C 364.973 513.001, 364.771 512.807, 364 514 C 363.467 514.825, 363.055 516.850, 363.086 518.500 C 363.134 521.140, 363.254 521.260, 364.083 519.500 C 364.766 518.050, 364.883 518.737, 364.509 522 C 363.616 529.791, 361.532 539.802, 360.624 540.668 C 360.134 541.136, 359.999 540.624, 360.316 539.500 C 360.627 538.400, 361.193 534.849, 361.573 531.609 C 362.099 527.140, 361.976 525.897, 361.065 526.460 C 360.404 526.868, 360.127 527.889, 360.449 528.728 C 360.771 529.567, 360.602 530.775, 360.074 531.411 C 359.545 532.048, 357.696 539.529, 355.965 548.035 C 352.762 563.768, 352.050 566.224, 351.937 561.917 L 351.873 559.500 350.814 562 C 350.231 563.375, 349.409 566.075, 348.987 568 C 348.565 569.925, 347.503 574.757, 346.626 578.737 C 345.750 582.718, 344.610 586.768, 344.092 587.737 C 343.575 588.707, 342.609 591.638, 341.946 594.250 C 341.283 596.862, 340.408 599, 340.002 599 C 339.596 599, 338.499 596.188, 337.564 592.750 C 335.734 586.024, 331.070 570.716, 324.995 551.500 C 318.242 530.136, 317.570 527.240, 318.761 524.626 C 320.723 520.319, 324.204 501.804, 323.234 500.834 C 322.727 500.327, 319.204 499.506, 315.406 499.011 C 311.608 498.515, 306.025 497.600, 303 496.977 C 299.975 496.353, 296.375 495.691, 295 495.506 C 293.625 495.321, 291.600 494.959, 290.500 494.703 C 279.968 492.244, 276.631 493.019, 275.113 498.273 C 274.600 500.048, 274.140 500.675, 274.090 499.667 C 273.911 496.034, 271.640 498.730, 269.972 504.554 C 269.036 507.824, 267.534 512.173, 266.635 514.218 C 265.736 516.263, 265 519.049, 265 520.409 C 265 521.769, 264.538 523.167, 263.974 523.516 C 263.410 523.865, 263.066 525.129, 263.210 526.325 C 263.355 527.521, 262.653 532.021, 261.652 536.324 C 260.351 541.914, 259.453 544.004, 258.509 543.642 C 257.036 543.077, 256.127 545.005, 252.922 555.500 C 251.747 559.350, 249.903 564.679, 248.825 567.342 C 247.747 570.005, 246.465 574.646, 245.975 577.654 C 245.485 580.662, 244.391 584.515, 243.542 586.216 C 242.694 587.916, 242 590.112, 242 591.095 C 242 592.078, 241.595 593.132, 241.100 593.438 C 240.605 593.744, 240.200 595.470, 240.200 597.275 C 240.200 599.079, 239.274 602.342, 238.142 604.527 C 237.011 606.712, 235.651 610.975, 235.121 614 C 234.591 617.025, 233.447 622.650, 232.579 626.500 C 230.717 634.755, 230.785 634, 231.901 634 C 232.396 634, 233.200 632.316, 233.687 630.257 C 234.183 628.157, 235.261 626.381, 236.143 626.211 C 237.476 625.954, 237.663 626.981, 237.378 633 C 237.194 636.900, 237.431 639.851, 237.906 639.558 C 238.380 639.265, 238.816 641.157, 238.874 643.763 C 239.047 651.528, 239.117 651.699, 242.167 651.786 C 244.273 651.846, 245 651.398, 245 650.040 C 245 649.036, 245.624 647.975, 246.387 647.682 C 247.339 647.316, 247.625 647.717, 247.300 648.962 C 247.039 649.959, 247.295 651.064, 247.869 651.419 C 248.443 651.774, 248.659 652.725, 248.349 653.532 C 248.040 654.339, 248.271 655, 248.864 655 C 249.457 655, 250.860 653.087, 251.982 650.750 L 254.022 646.500 253.578 652.500 C 253.334 655.800, 252.847 660.075, 252.495 662 C 251.893 665.302, 251.945 665.390, 253.428 663.559 C 254.935 661.698, 255 661.748, 255 664.774 C 255 666.906, 254.351 668.277, 253 669 C 251.900 669.589, 251.007 671.067, 251.015 672.285 C 251.027 674.042, 251.223 674.195, 251.962 673.028 C 252.763 671.761, 252.982 671.789, 253.535 673.230 C 253.888 674.151, 253.886 675.376, 253.530 675.952 C 253.173 676.528, 253.310 677, 253.833 677 C 255.005 677, 255.471 675.142, 257.469 662.500 C 259.206 651.508, 267.071 618.737, 267.797 619.464 C 268.048 619.714, 267.452 623.319, 266.474 627.474 C 265.495 631.629, 264.984 635.318, 265.339 635.672 C 265.693 636.026, 265.604 636.807, 265.141 637.408 C 264.177 638.659, 261.711 649.994, 262.075 651.500 C 262.209 652.050, 262.061 653.175, 261.748 654 C 259.683 659.435, 257.942 672.462, 258.745 676.472 L 259.351 679.500 260.630 676.500 C 261.411 674.669, 261.927 674.182, 261.955 675.250 C 261.980 676.212, 262.450 677, 263 677 C 263.550 677, 264 677.900, 264 679 C 264 681.211, 265.471 681.665, 266.618 679.809 C 267.023 679.154, 266.824 678.441, 266.177 678.226 C 264.497 677.666, 264.721 672.422, 266.500 670.643 C 268.284 668.859, 268.425 666.825, 266.871 665.271 C 266.033 664.433, 266.308 663.424, 267.941 661.348 C 269.611 659.225, 269.992 657.770, 269.527 655.291 C 269.171 653.397, 269.438 651.078, 270.162 649.764 C 270.848 648.519, 271.301 646.781, 271.168 645.903 C 271.035 645.025, 271.618 643.732, 272.463 643.031 C 273.766 641.950, 274 642.088, 274 643.937 C 274 645.192, 273.559 645.845, 272.960 645.475 C 272.289 645.061, 272.143 645.722, 272.548 647.334 C 272.893 648.711, 272.647 652.384, 272.001 655.498 C 271.354 658.611, 271.068 661.401, 271.365 661.698 C 272.127 662.460, 274.997 659.412, 275.015 657.821 C 275.024 657.095, 275.486 655.825, 276.043 655 C 276.771 653.922, 276.916 654.767, 276.560 658 C 274.376 677.814, 274.635 680.254, 277.466 666.525 C 278.370 662.139, 279.578 658.261, 280.150 657.907 C 280.722 657.554, 281.839 653.717, 282.632 649.382 C 283.426 645.047, 284.921 639.475, 285.955 637 C 286.989 634.525, 288.797 628.675, 289.974 624 C 291.150 619.325, 293.175 612.350, 294.474 608.500 C 295.773 604.650, 297.340 599.587, 297.956 597.250 C 298.573 594.913, 299.558 593, 300.146 593 C 300.733 593, 300.977 593.617, 300.688 594.372 C 300.047 596.040, 303.422 609.530, 305.347 613 C 306.110 614.375, 307.042 618.639, 307.418 622.476 C 307.794 626.312, 309.392 633.512, 310.969 638.476 C 312.547 643.439, 314.821 650.875, 316.024 655 C 319.906 668.313, 320.132 668.964, 321.073 669.545 C 321.583 669.860, 322.007 669.304, 322.015 668.309 C 322.028 666.775, 322.178 666.728, 323 668 C 323.533 668.825, 323.976 670.962, 323.985 672.750 C 324.002 676.488, 325.405 676.980, 327.087 673.838 C 328.211 671.737, 328.284 671.771, 329.658 675.037 C 330.435 676.886, 330.802 679.624, 330.473 681.122 C 329.983 683.355, 330.253 683.903, 331.977 684.172 C 333.133 684.353, 333.949 684.950, 333.790 685.500 C 333.630 686.050, 333.163 686.387, 332.750 686.250 C 332.337 686.112, 332 686.450, 332 687 C 332 687.550, 332.627 688, 333.393 688 C 334.590 688, 336 689.996, 336 691.690 C 336 691.980, 334.875 691.934, 333.500 691.589 C 331.372 691.055, 331.010 691.300, 331.070 693.231 C 331.137 695.389, 331.183 695.402, 332 693.500 C 332.807 691.622, 333.073 691.703, 333.375 693.917 C 333.444 694.421, 333.837 695.171, 334.250 695.583 C 334.663 695.996, 335 697.158, 335 698.167 C 335 699.175, 335.450 700, 336 700 C 336.550 700, 337 700.702, 337 701.559 C 337 702.416, 337.450 702.840, 338 702.500 C 338.550 702.160, 339.015 702.471, 339.033 703.191 C 339.053 703.954, 339.850 703.561, 340.944 702.250 C 341.976 701.013, 343.311 700, 343.910 700 C 344.510 700, 345.030 701.013, 345.068 702.250 L 345.135 704.500 346.220 702.250 C 346.817 701.013, 347.713 700, 348.212 700 C 348.710 700, 348.840 700.450, 348.500 701 C 348.160 701.550, 348.326 702, 348.869 702 C 349.412 702, 350.844 697.725, 352.051 692.500 C 353.259 687.275, 354.677 683, 355.203 683 C 355.729 683, 355.890 684.237, 355.561 685.750 C 354.318 691.470, 353.059 700.392, 353.441 700.774 C 354.151 701.485, 355.752 697.595, 356.434 693.500 C 357.290 688.364, 360.564 683.850, 361.919 685.939 C 362.648 687.064, 363.238 686.570, 364.618 683.675 C 366.326 680.094, 366.318 679.830, 364.396 675.735 C 362.611 671.932, 362.516 670.735, 363.466 664 C 364.348 657.748, 364.813 656.549, 366.262 656.794 C 367.253 656.961, 368 656.460, 368 655.627 C 368 654.824, 368.451 654.016, 369.002 653.833 C 369.671 653.610, 369.671 652.339, 369.002 650.006 C 368.451 648.085, 368.041 645.610, 368.090 644.507 C 368.148 643.228, 368.521 643.679, 369.119 645.750 C 369.635 647.538, 370.494 649, 371.029 649 C 372.228 649, 372.318 647.291, 371.143 646.833 C 370.672 646.650, 370.008 644.700, 369.667 642.500 C 369.326 640.300, 369.392 639.321, 369.813 640.324 C 370.812 642.705, 371.330 642.801, 373.491 641.008 C 375.147 639.633, 375.232 639.693, 374.576 641.761 C 373.719 644.462, 375.961 647.365, 377.542 645.600 C 378.742 644.260, 382 634.004, 382 631.567 C 382 629.179, 386.114 615.781, 386.676 616.342 C 387.155 616.821, 385.193 626.996, 381.877 641.227 C 380.759 646.026, 380.002 650.751, 380.195 651.727 C 380.572 653.637, 384.398 642.373, 385.877 635 C 387.293 627.938, 390.139 617.600, 390.971 616.500 C 391.387 615.950, 391.789 614.825, 391.864 614 C 392.347 608.712, 394.829 596.294, 395.962 593.500 C 397.427 589.886, 401.967 572.683, 404.011 563 C 405.114 557.775, 406.658 550.800, 407.443 547.500 C 408.869 541.506, 411.612 527.500, 413.023 519 C 415.802 502.274, 423.151 478.008, 428.024 469.470 C 431.199 463.908, 434.691 462, 441.696 462 C 443.926 462, 447.136 461.723, 448.830 461.384 C 451.680 460.814, 451.788 460.645, 450.279 459.134 C 448.034 456.886, 422.715 456.612, 407.500 458.670 M 723.655 469.359 C 720.440 469.987, 718.152 470.837, 718.571 471.250 C 718.990 471.663, 717.323 472, 714.867 472 C 712.410 472, 709.972 472.401, 709.450 472.892 C 708.928 473.382, 705.610 474.078, 702.078 474.439 C 695.035 475.158, 693.663 475.646, 694.570 477.113 C 694.901 477.649, 694.743 478.630, 694.219 479.294 C 693.694 479.957, 692.975 488.150, 692.621 497.500 C 691.721 521.253, 690.573 533.400, 687.376 553 C 686.524 558.225, 685.432 565.425, 684.949 569 C 684.467 572.575, 683.811 576.962, 683.491 578.750 C 682.631 583.558, 684.519 582.895, 692.079 575.733 C 710.425 558.352, 725.401 536.954, 730.737 520.500 C 736.495 502.744, 736.501 502.715, 736.447 491 C 736.399 480.411, 736.168 479.044, 733.535 473.750 C 731.962 470.587, 730.411 468.049, 730.088 468.109 C 729.764 468.169, 726.870 468.731, 723.655 469.359 M 539 485.798 C 537.625 485.973, 535.076 486.768, 533.337 487.564 C 530.475 488.873, 530.081 489.608, 529.214 495.256 C 528.478 500.045, 528.209 500.684, 528.057 498 C 527.948 496.075, 527.493 493.600, 527.044 492.500 C 526.280 490.626, 526.195 490.657, 525.679 493 C 525.376 494.375, 524.872 498.405, 524.558 501.956 C 524.244 505.507, 523.540 508.860, 522.994 509.406 C 522.447 509.953, 522 512.361, 522 514.757 C 522 517.154, 521.522 522.351, 520.938 526.307 C 518.795 540.817, 518.827 540.681, 518.028 538.500 L 517.296 536.500 516.674 538.500 C 516.331 539.600, 515.576 544.775, 514.996 550 C 514.416 555.225, 513.538 562.200, 513.045 565.500 C 512.553 568.800, 512.301 573.525, 512.485 576 C 512.671 578.488, 512.257 581.394, 511.560 582.500 C 510.867 583.600, 510.063 588.353, 509.772 593.063 C 509.444 598.386, 508.573 602.926, 507.469 605.060 C 506.339 607.246, 505.658 610.894, 505.597 615.094 C 505.543 618.746, 504.944 622.364, 504.256 623.192 C 503.572 624.016, 502.737 626.065, 502.401 627.745 C 501.898 630.260, 502.160 630.916, 503.886 631.464 C 505.039 631.830, 506.502 631.808, 507.137 631.415 C 507.965 630.903, 508.086 631.520, 507.565 633.599 C 506.638 637.289, 506.107 637.790, 505.007 636.011 C 504.244 634.778, 503.872 634.790, 502.311 636.102 C 499.260 638.667, 492.331 641.240, 490.251 640.580 C 489.147 640.229, 487.817 640.516, 487.222 641.232 C 486.417 642.203, 487.043 642.900, 489.831 644.138 C 494.801 646.343, 511.600 650.366, 512.784 649.633 C 513.308 649.310, 516.151 649.671, 519.103 650.437 C 522.054 651.202, 524.766 651.645, 525.130 651.420 C 525.494 651.195, 527.076 651.680, 528.646 652.499 C 534.460 655.531, 537.758 654.579, 558.946 643.750 C 569.977 638.112, 580.369 632.805, 582.040 631.956 C 583.712 631.107, 584.724 630.023, 584.289 629.547 C 583.855 629.071, 584.288 628.964, 585.250 629.309 C 586.212 629.655, 587 629.529, 587 629.029 C 587 628.530, 593.975 624.627, 602.500 620.356 C 616.376 613.405, 620.102 611, 617 611 C 616.450 611, 616 610.433, 616 609.741 C 616 609.048, 615.034 607.878, 613.853 607.140 C 612.113 606.054, 611.971 605.627, 613.103 604.890 C 615.244 603.495, 606.301 604.503, 600.750 606.282 C 595.244 608.047, 594.810 607.164, 598.989 602.696 C 600.633 600.938, 601.609 599.375, 601.158 599.223 C 600.708 599.071, 597 600.344, 592.920 602.053 C 588.839 603.761, 584.600 605.386, 583.500 605.665 C 581.792 606.096, 581.865 605.869, 584 604.107 C 587.360 601.335, 585.436 601.475, 578.593 604.501 C 573.799 606.622, 572.850 606.774, 572.362 605.501 C 571.538 603.353, 567.397 603.649, 562.897 606.178 C 560.766 607.376, 558.837 608.163, 558.610 607.928 C 558.231 607.535, 559.042 602.549, 561.852 588 C 566.988 561.407, 568.579 542.413, 568.178 512.500 C 568.001 499.300, 567.522 488.156, 567.113 487.735 C 566.045 486.636, 544.235 485.133, 539 485.798 M 366.661 502.700 C 364.788 506.309, 364.548 508.603, 365.953 509.471 C 366.994 510.114, 369.364 502.580, 368.720 500.676 C 368.501 500.029, 367.575 500.940, 366.661 502.700 M 444.649 505.488 C 443.498 506.062, 442.187 508.084, 441.715 510.013 C 441.246 511.931, 439.764 517.325, 438.421 522 C 437.078 526.675, 434.899 535.742, 433.578 542.150 C 432.258 548.557, 430.453 554.906, 429.566 556.259 C 428.680 557.611, 428.238 559.457, 428.584 560.359 C 428.934 561.271, 428.722 562, 428.107 562 C 427.498 562, 427 562.477, 427 563.059 C 427 563.641, 427.450 563.840, 428 563.500 C 428.550 563.160, 429 563.561, 429 564.391 C 429 565.221, 428.351 566.264, 427.558 566.708 C 426.729 567.171, 425.659 570.373, 425.043 574.232 C 424.453 577.927, 423.488 582.198, 422.899 583.725 C 422.310 585.251, 421.444 588.525, 420.974 591 C 420.503 593.475, 418.534 603.129, 416.597 612.454 C 414.660 621.779, 413.247 629.580, 413.458 629.791 C 413.668 630.002, 413.234 632.272, 412.493 634.837 C 411.751 637.402, 411 641.300, 410.822 643.500 C 410.525 647.186, 410.696 647.500, 413 647.500 C 415.093 647.500, 415.513 647.989, 415.582 650.500 C 415.717 655.397, 415.927 656, 417.500 656 C 418.325 656, 419 656.675, 419 657.500 C 419 659.191, 424.926 659.650, 426.550 658.085 C 427.073 657.581, 428.598 657.019, 429.941 656.835 C 431.736 656.589, 432.603 655.640, 433.219 653.250 C 434.209 649.411, 436 648.927, 436 652.500 C 436 655.775, 437.604 655.715, 438.433 652.409 C 438.847 650.762, 439.585 650.010, 440.459 650.346 C 441.216 650.636, 442.069 650.262, 442.356 649.514 C 442.657 648.730, 443.708 648.372, 444.842 648.669 C 446.213 649.028, 447.003 648.566, 447.455 647.142 C 447.823 645.983, 448.680 645.324, 449.439 645.615 C 450.240 645.923, 451.300 644.944, 452.085 643.171 C 452.849 641.445, 453.936 640.422, 454.697 640.714 C 455.414 640.989, 456 640.641, 456 639.940 C 456 639.240, 456.296 638.963, 456.658 639.325 C 457.707 640.374, 460 637.944, 460 635.782 C 460 634.697, 460.650 632.614, 461.444 631.154 C 462.238 629.694, 463.355 625.606, 463.926 622.068 C 464.497 618.530, 465.387 615.213, 465.903 614.697 C 466.488 614.112, 466.525 615.217, 466 617.629 C 465.537 619.758, 464.884 624.650, 464.548 628.500 L 463.937 635.500 465.857 629.500 C 468.540 621.115, 470.955 611.178, 473.120 599.620 C 474.138 594.186, 475.376 589.236, 475.870 588.620 C 476.992 587.223, 481 571.412, 481 568.385 C 481 567.156, 481.913 561.955, 483.028 556.826 C 489.258 528.181, 492.480 516.565, 495.775 510.861 C 498.682 505.831, 497.496 505.304, 481.829 504.667 C 462.579 503.884, 447.184 504.224, 444.649 505.488 M 207.296 518.213 C 205.828 518.606, 202.124 519.155, 199.064 519.433 C 191.435 520.127, 182.082 521.858, 178.634 523.212 L 175.769 524.339 176.523 533.419 C 176.937 538.414, 177.394 544.300, 177.538 546.500 C 178.059 554.493, 181.135 577.538, 181.875 579 C 182.293 579.825, 182.479 582.858, 182.287 585.741 C 182.058 589.192, 182.487 592.041, 183.542 594.081 C 184.424 595.786, 184.906 597.802, 184.615 598.562 C 184.323 599.322, 184.512 601.194, 185.034 602.722 C 185.557 604.250, 186.155 610.225, 186.363 616 C 186.572 621.775, 187.021 627.175, 187.362 628 C 187.703 628.825, 188.197 632.875, 188.460 637 C 188.724 641.125, 189.119 645.625, 189.338 647 C 189.557 648.375, 190.077 651.750, 190.494 654.500 C 190.911 657.250, 191.661 660.015, 192.161 660.645 C 192.661 661.274, 192.981 662.174, 192.871 662.645 C 192.762 663.115, 193.023 664.751, 193.452 666.281 C 194.012 668.278, 194.707 668.910, 195.919 668.526 C 198.644 667.661, 201.225 670.311, 201.462 674.217 C 201.736 678.729, 205.962 692, 207.125 692 C 207.606 692, 207.947 691.663, 207.882 691.250 C 207.535 689.053, 208.203 688, 209.943 688 C 211.962 688, 215.273 691.749, 214.442 693.094 C 214.181 693.516, 214.382 694.118, 214.890 694.432 C 215.397 694.745, 215.589 695.854, 215.317 696.895 C 214.871 698.603, 214.564 698.655, 212.199 697.428 C 208.429 695.472, 207.307 697.743, 210.474 700.920 C 212.468 702.921, 213.148 703.122, 214.401 702.082 C 215.658 701.039, 216.384 701.293, 218.667 703.576 C 220.952 705.861, 221.150 706.427, 219.834 706.914 C 218.679 707.341, 218.467 708.082, 219.054 709.648 C 219.949 712.034, 222 713.713, 222 712.059 C 222 710.288, 223.590 710.863, 226.364 713.636 C 227.814 715.086, 229 715.788, 229 715.195 C 229 714.603, 228.550 713.840, 228 713.500 C 227.450 713.160, 227 712.389, 227 711.786 C 227 711.183, 227.965 711.547, 229.146 712.595 C 231.275 714.486, 231.283 714.484, 230.146 712.316 C 228.646 709.456, 228.698 709, 230.526 709 C 231.861 709, 231.841 708.594, 230.368 705.750 C 228.678 702.487, 222.260 682.678, 221.377 678 C 221.118 676.625, 220.452 673.784, 219.897 671.686 C 218.869 667.797, 217.147 656.105, 216.409 648 C 216.051 644.072, 216.138 643.818, 217.089 646 C 217.689 647.375, 218.296 649.400, 218.440 650.500 C 219.218 656.471, 222.025 668, 222.701 668 C 222.944 668, 223.798 667.345, 224.598 666.545 C 226.152 664.991, 225.562 658.903, 222.561 645.500 C 221.822 642.200, 220.897 636.350, 220.507 632.500 C 220.116 628.650, 219.505 625.050, 219.148 624.500 C 218.792 623.950, 218.465 621.475, 218.423 619 C 218.380 616.525, 218.087 607.300, 217.773 598.500 C 217.458 589.700, 217.382 584.075, 217.604 586 C 218.828 596.617, 219.173 598, 220.598 598 C 222.089 598, 222.058 594.154, 220.456 580 C 219.971 575.726, 220.027 575.600, 221.568 577.500 C 223.114 579.406, 223.163 579.311, 222.615 575.500 C 221.811 569.917, 221.808 558.873, 222.609 550 C 222.981 545.875, 223.391 539.800, 223.520 536.500 C 223.649 533.200, 223.999 529.825, 224.298 529 C 224.597 528.175, 225.028 526.825, 225.256 526 C 225.484 525.175, 226.461 528.887, 227.427 534.248 C 228.394 539.609, 229.642 544.279, 230.201 544.624 C 230.875 545.041, 230.958 543.775, 230.446 540.877 C 230.022 538.469, 229.631 532.596, 229.579 527.825 C 229.527 523.054, 229.113 518.779, 228.659 518.325 C 227.647 517.314, 210.986 517.227, 207.296 518.213 M 777.216 594.809 C 776.510 595.277, 776.203 596.366, 776.534 597.229 C 776.865 598.092, 776.656 599.095, 776.068 599.458 C 775.481 599.821, 775 601.566, 775 603.337 C 775 605.107, 774.364 607.462, 773.588 608.571 C 772.811 609.680, 771.968 613.493, 771.714 617.044 C 771.460 620.595, 770.648 625.654, 769.909 628.287 C 768.845 632.077, 768.819 633.480, 769.783 635.024 C 770.452 636.096, 771 637.684, 771 638.554 C 771 639.660, 771.579 639.951, 772.929 639.522 C 774.472 639.033, 774.923 639.455, 775.179 641.628 C 775.564 644.891, 777.205 645.652, 779.313 643.545 C 781.343 641.514, 781.650 641.584, 782.400 644.250 C 782.996 646.369, 783.113 646.396, 784.399 644.719 C 785.648 643.092, 785.823 643.242, 786.428 646.469 C 786.793 648.411, 787.675 650, 788.390 650 C 790.040 650, 793.358 646.394, 792.703 645.313 C 792.432 644.866, 792.855 643.904, 793.643 643.175 C 794.869 642.041, 794.980 642.258, 794.410 644.675 C 794.043 646.229, 793.748 647.725, 793.753 648 C 793.834 652.105, 794.216 652.808, 796.616 653.267 C 799.259 653.772, 801.208 652.431, 803.673 648.412 C 804.764 646.633, 804.808 646.656, 804.306 648.750 C 803.567 651.833, 805.750 651.643, 807.182 648.500 C 807.808 647.125, 808.895 646, 809.596 646 C 810.297 646, 812.137 644.138, 813.685 641.861 C 815.233 639.585, 817.425 636.773, 818.556 635.611 C 819.687 634.450, 821.425 631.250, 822.420 628.500 C 823.414 625.750, 825.352 621.746, 826.726 619.602 C 828.100 617.458, 829.585 614.446, 830.026 612.910 C 830.693 610.585, 830.429 609.856, 828.449 608.558 C 827.141 607.701, 824.030 607, 821.535 607 C 819.041 607, 817 606.582, 817 606.071 C 817 605.561, 814.941 605.280, 812.425 605.449 C 809.064 605.673, 807.405 605.286, 806.175 603.991 C 805.254 603.021, 802.613 601.916, 800.308 601.536 C 798.002 601.155, 795.584 600.204, 794.935 599.422 C 794.286 598.640, 792.608 598, 791.206 598 C 789.804 598, 787.947 597.363, 787.079 596.585 C 785.084 594.797, 778.911 593.685, 777.216 594.809 M 364.754 637.683 C 364.509 638.133, 363.757 640.750, 363.084 643.500 C 362.411 646.250, 361.374 650.443, 360.781 652.818 C 360.168 655.269, 359.394 656.638, 358.990 655.984 C 358.504 655.198, 358.070 655.376, 357.622 656.543 C 357.261 657.484, 357.462 658.852, 358.069 659.583 C 358.676 660.314, 358.938 661.291, 358.652 661.754 C 358.366 662.217, 358.512 663.210, 358.977 663.962 C 360.004 665.625, 361.171 661.697, 363.864 647.500 C 365.628 638.204, 365.859 635.662, 364.754 637.683 M 192 646.448 C 192 647.336, 192.654 648.314, 193.453 648.620 C 194.618 649.067, 194.671 649.554, 193.722 651.073 C 192.769 652.600, 192.856 653.285, 194.171 654.600 C 197.085 657.514, 197.935 655.797, 196.167 650.566 C 194.538 645.744, 192 643.236, 192 646.448 M 223.464 672.132 C 224.808 678.843, 227.132 686.201, 227.721 685.612 C 228.702 684.632, 228.144 677.879, 226.966 676.459 C 226.368 675.739, 225.746 673.900, 225.583 672.373 C 225.421 670.845, 224.725 669.408, 224.038 669.179 C 223.121 668.874, 222.968 669.657, 223.464 672.132 M 228.646 690.500 C 228.964 692.700, 229.956 695.625, 230.850 697 L 232.476 699.500 232.815 697.195 C 233.001 695.927, 232.556 694.174, 231.827 693.299 C 231.097 692.425, 229.953 690.537, 229.284 689.104 C 228.153 686.683, 228.108 686.781, 228.646 690.500"/>
</svg>