<?xml version="1.0" encoding="utf-8"?>
<svg xmlns="http://www.w3.org/2000/svg" width="1002" height="919" viewBox="0 0 1002 919">
  <path fill-rule="evenodd" d="M 374.181 4.968 C 363.934 10.617, 352.656 19.592, 342.535 30.152 L 332.326 40.803 320.413 37.884 C 297.775 32.336, 280.647 33.147, 265.168 40.497 L 257.727 44.031 258.423 52.765 C 259.468 65.897, 261.640 74.030, 266.060 81.359 C 268.227 84.951, 270 88.196, 270 88.569 C 270 88.942, 268.213 91.924, 266.029 95.195 C 263.845 98.466, 261.286 103.697, 260.342 106.821 C 259.399 109.944, 258.356 112.832, 258.025 113.238 C 257.694 113.644, 253.465 112.999, 248.628 111.805 C 239.919 109.655, 239.686 109.650, 225.282 111.305 C 217.279 112.225, 210.174 113.440, 209.493 114.006 C 207.858 115.362, 205.268 124.932, 204.420 132.750 C 204.047 136.188, 203.561 139, 203.341 139 C 203.120 139, 200.266 137.875, 196.998 136.499 C 189.803 133.471, 172.898 131.271, 168.866 132.838 C 166.411 133.793, 165.922 135.142, 161.676 152.681 C 159.171 163.032, 156.837 173.363, 156.491 175.639 L 155.862 179.778 145.681 180.227 C 134.499 180.721, 126.306 183.189, 120.984 187.667 C 117.711 190.421, 117.229 194.061, 118.957 203 C 119.435 205.475, 119.718 207.610, 119.585 207.745 C 119.452 207.879, 116.314 205.575, 112.610 202.624 C 108.907 199.672, 103.092 195.908, 99.688 194.259 C 92.390 190.723, 80.062 187.379, 77.684 188.291 C 74.918 189.352, 72.361 194.608, 67.403 209.419 C 62.920 222.810, 62.666 224.162, 62.225 237 C 61.971 244.425, 61.311 251.063, 60.759 251.750 C 60.207 252.438, 58.798 253.004, 57.628 253.009 C 53.301 253.027, 35.956 259.820, 28.718 264.332 C 19.822 269.876, 14.420 275.076, 7.846 284.424 C 4.316 289.443, 3.150 291.920, 3.610 293.424 C 4.704 297.006, 12.672 308.318, 17.180 312.689 C 25.936 321.179, 42.441 328.744, 57.894 331.349 L 65.500 332.631 65.789 340.698 L 66.077 348.765 61.627 351.373 C 56.768 354.220, 47.490 364.017, 46.665 367.171 C 45.813 370.431, 57.393 392.376, 63.077 398.274 L 67.964 403.344 63.185 408.422 C 57.348 414.623, 53.257 420.531, 49.140 428.707 C 44.963 437.001, 41 449.025, 41 453.401 C 41 457.775, 42.735 458.800, 55.750 462.114 L 65 464.469 64.973 468.985 C 64.958 471.468, 64.528 477.775, 64.017 483 C 62.929 494.126, 64.202 509.516, 66.634 514.641 C 68.872 519.358, 71.004 520.227, 81.716 520.787 C 86.822 521.054, 90.998 521.549, 90.997 521.886 C 90.995 522.224, 89.687 525.705, 88.091 529.622 C 86.494 533.540, 84.255 540.041, 83.115 544.070 L 81.042 551.396 83.427 555.448 C 84.739 557.677, 88.217 562.127, 91.156 565.339 L 96.500 571.177 110.500 562.379 C 118.200 557.539, 131.250 549.713, 139.500 544.986 L 154.500 536.393 155.049 527.946 C 155.667 518.424, 157.092 515.025, 163.283 508.309 C 168.560 502.584, 171.798 500.964, 180.026 499.931 C 188.556 498.859, 190.967 497.717, 193.787 493.408 L 196.075 489.914 194 487 C 192.859 485.397, 191.335 482.379, 190.614 480.293 C 189.372 476.699, 188.974 476.428, 183.029 475.137 L 176.754 473.774 172.705 477.945 C 167.121 483.699, 163.026 485.306, 153.874 485.333 C 143.688 485.364, 137.172 482.211, 127.522 472.584 C 120.482 465.561, 114 455.290, 114 451.158 C 114 448.747, 120.333 444.069, 128.466 440.472 C 139.140 435.752, 154.826 434.811, 163.365 438.379 C 167.866 440.260, 175.465 447.249, 176.842 450.775 C 177.428 452.274, 178.393 455.407, 178.989 457.738 C 179.789 460.873, 181.033 462.630, 183.767 464.488 C 188.478 467.689, 191.043 467.660, 194.076 464.371 C 195.409 462.925, 197.984 461.110, 199.797 460.338 C 203.072 458.943, 203.092 458.894, 202.797 452.773 L 202.500 446.613 195.529 440.948 C 191.384 437.580, 188.001 433.919, 187.185 431.918 C 185.149 426.930, 184.499 415.058, 186.008 410.415 C 188.724 402.051, 203.960 381, 207.296 381 C 208.471 381, 212.478 384.228, 216.992 388.809 C 226.981 398.946, 231.105 406.957, 231.784 417.540 C 232.465 428.151, 230.652 432.330, 221.902 440.316 C 215.224 446.411, 211 452.539, 211 456.134 C 211 457.214, 212.338 458.286, 214.631 459.043 C 216.628 459.702, 219.985 461.798, 222.091 463.701 C 224.830 466.175, 226.488 466.980, 227.916 466.527 C 231.147 465.501, 234.759 460.394, 235.513 455.785 C 237.368 444.438, 243.794 436.327, 253.122 433.556 C 262.814 430.678, 280.096 432.136, 290.236 436.686 C 297.241 439.830, 297.238 439.640, 290.457 453.681 C 282.053 471.081, 271.060 479.971, 257.925 479.990 C 251.651 480, 251.084 479.794, 245.554 475.500 C 242.367 473.025, 239.491 471, 239.163 471 C 238.074 471, 229.519 474.330, 228.355 475.207 C 227.726 475.682, 226.995 477.517, 226.731 479.285 C 226.467 481.053, 225.632 483.998, 224.877 485.828 C 223.532 489.085, 223.582 489.229, 227.237 492.578 C 230.060 495.165, 231.860 496, 234.615 496 C 236.620 496, 246.864 493.094, 257.380 489.542 C 282.701 480.990, 342.930 462.079, 360.500 457.165 C 368.200 455.011, 382.600 451.342, 392.500 449.012 C 437.038 438.529, 464.591 431.680, 465.663 430.826 C 466.303 430.316, 467.116 427.560, 467.470 424.700 C 467.825 421.840, 468.601 417.180, 469.195 414.344 L 470.276 409.188 450.260 386.844 C 426.817 360.676, 412.607 346.038, 408.714 344.048 C 405.967 342.643, 405.847 342.711, 400.214 348.892 C 395.413 354.159, 393.853 355.244, 390.451 355.685 C 387.089 356.120, 385.871 355.762, 383.268 353.572 C 379.053 350.025, 377.599 345.194, 378.345 337.210 C 380.294 316.336, 395.767 309.861, 418 320.615 C 424.443 323.732, 427.474 326.235, 439.500 338.371 C 447.200 346.142, 461.585 361.613, 471.466 372.750 C 486.610 389.820, 489.863 393, 492.182 393 C 493.694 393, 496.450 393.724, 498.306 394.609 C 501.405 396.087, 501.931 396.087, 504.790 394.609 C 506.501 393.724, 509.214 393, 510.819 393 C 513.361 393, 516.238 390.193, 533.102 371.250 C 543.752 359.288, 558.098 343.847, 564.983 336.937 C 575.583 326.299, 578.688 323.796, 585.259 320.596 C 595.838 315.444, 604.209 314.044, 610.368 316.396 C 627.895 323.090, 630.605 355.778, 613.602 355.409 C 608.418 355.296, 604.773 352.984, 600.895 347.348 C 599.250 344.957, 597.226 343, 596.398 343 C 593.906 343, 575.976 361.082, 553.782 385.975 C 535.560 406.414, 532.930 409.777, 533.446 411.975 C 533.772 413.364, 534.498 417.875, 535.058 422 C 535.688 426.631, 536.674 429.952, 537.636 430.681 C 539.115 431.802, 570.197 439.673, 604 447.487 C 625.336 452.420, 649.471 459.002, 670.118 465.519 C 679.678 468.537, 699.875 474.841, 715 479.528 C 730.125 484.215, 744.300 488.763, 746.500 489.636 C 752.344 491.955, 767.565 494.922, 770.217 494.260 C 773.427 493.457, 776.002 491.545, 778.026 488.460 C 779.553 486.133, 779.604 485.365, 778.446 482.155 C 777.720 480.145, 776.857 477.233, 776.528 475.684 C 776.101 473.677, 774.918 472.446, 772.411 471.398 C 765.142 468.361, 763.930 468.528, 757.630 473.432 C 752.101 477.734, 751.398 478, 745.558 478 C 731.060 478, 721.094 470.243, 712.138 451.988 C 709.312 446.227, 707 440.717, 707 439.742 C 707 437.735, 711.791 434.484, 717 432.957 C 718.925 432.393, 725.450 431.425, 731.500 430.805 C 741.119 429.820, 743.227 429.892, 748.291 431.379 C 758.010 434.233, 765.097 442.271, 766.613 452.158 C 767.672 459.072, 769.455 461.627, 774.590 463.587 C 779.139 465.325, 779.252 465.319, 780.861 463.293 C 781.763 462.158, 784.413 460.048, 786.750 458.602 C 793.588 454.375, 792.048 448.784, 781.495 439.527 C 776.635 435.265, 773.966 431.984, 772.174 428.068 C 769.821 422.929, 769.728 422.125, 770.701 415.366 C 772.304 404.240, 776.625 396.133, 785.887 386.871 C 790.216 382.542, 794.457 379, 795.312 379 C 797.178 379, 801.711 384.412, 809.862 396.370 C 816.684 406.378, 818.628 412.756, 817.466 421.316 C 816.390 429.246, 814.200 433.685, 809.640 437.177 C 800.065 444.512, 799 445.953, 799 451.575 C 799 456.343, 799.230 456.853, 801.883 457.951 C 803.468 458.608, 806.027 460.463, 807.570 462.073 C 810.875 465.523, 813.994 465.785, 818.514 462.991 C 821.766 460.981, 822.806 459.088, 824.887 451.388 C 826.108 446.868, 833.826 438.787, 838.722 436.902 C 844.539 434.662, 853.230 433.882, 860.425 434.954 C 868.038 436.089, 884.047 443.184, 887.432 446.924 C 889.206 448.885, 889.211 449.158, 887.557 453.490 C 883.717 463.545, 871.874 475.928, 861.054 481.201 C 855.482 483.917, 847.700 484.607, 840.939 482.985 C 837.104 482.065, 834.310 480.451, 830.354 476.868 C 826.125 473.038, 824.248 472, 821.555 472 C 815.999 472, 813 473.580, 813 476.507 C 813 479.266, 810.987 484.241, 808.522 487.576 C 807.093 489.509, 807.211 489.909, 810.244 493.396 C 813.272 496.878, 814.059 497.213, 821.500 498.189 C 831.256 499.469, 835.760 501.635, 840.289 507.226 C 845.720 513.931, 846.799 516.911, 847.562 527.306 C 847.954 532.638, 848.582 537, 848.957 537 C 850.082 537, 873.435 550.542, 889.656 560.601 C 897.992 565.771, 905.519 570, 906.384 570 C 908.042 570, 918.124 558.465, 920.630 553.701 C 922.012 551.074, 921.820 550.092, 917.504 537.701 C 914.976 530.440, 912.667 523.776, 912.374 522.890 C 911.915 521.507, 913.193 521.210, 921.460 520.778 C 932.215 520.215, 934.937 518.750, 937.034 512.396 C 939.735 504.214, 939.935 483.528, 937.465 467.998 L 936.908 464.495 945.704 462.380 C 950.542 461.217, 956.188 459.554, 958.250 458.684 C 961.530 457.300, 962 456.679, 962 453.726 C 962 450.081, 958.761 439.896, 954.732 430.873 C 951.169 422.896, 945.645 414.563, 939.875 408.461 L 934.910 403.212 940.052 397.856 C 945.625 392.051, 956 372.634, 956 368.009 C 956 364.686, 948.619 356.248, 941.993 351.995 L 936.923 348.742 937.212 340.649 L 937.500 332.556 944.785 331.339 C 962.326 328.408, 975.888 322.082, 985.995 312.117 C 992.903 305.306, 998.974 296.098, 998.991 292.407 C 999.003 289.604, 989.827 276.680, 983.549 270.659 C 977.534 264.890, 966.551 259.391, 952.283 255.006 C 940.446 251.367, 941.395 253.040, 940.652 234.500 C 940.183 222.804, 937 210.569, 931.026 197.500 C 927.230 189.197, 924.175 186.550, 919.289 187.333 C 914.016 188.177, 900.740 194.952, 893.107 200.692 C 881.978 209.062, 882.512 208.729, 883.229 206.852 C 883.575 205.946, 884.172 202.030, 884.554 198.150 C 885.229 191.294, 885.168 191.014, 882.362 188.208 C 877.934 183.780, 868.973 180.786, 858.500 180.236 C 853.550 179.976, 848.777 179.385, 847.893 178.922 C 846.870 178.388, 846.058 176.149, 845.661 172.772 C 845.318 169.852, 843.228 160.271, 841.017 151.481 C 836.643 134.091, 835.409 132, 829.520 132 C 823.855 132, 808.789 135, 804.152 137.051 C 801.698 138.136, 799.595 138.906, 799.479 138.762 C 799.362 138.618, 798.744 134.911, 798.106 130.524 C 796.582 120.057, 795.034 115.088, 792.946 113.971 C 791.002 112.930, 769.773 110, 764.179 110 C 762.133 110, 757.212 110.900, 753.243 112 C 744.723 114.361, 744 114.414, 744 112.682 C 744 109.104, 740.582 100.655, 737.005 95.388 C 734.805 92.150, 733.004 89.138, 733.002 88.695 C 733.001 88.253, 734.773 84.951, 736.940 81.359 C 741.360 74.030, 743.532 65.897, 744.577 52.765 L 745.273 44.031 737.832 40.497 C 722.354 33.147, 705.120 32.322, 682.642 37.856 L 670.784 40.775 659.142 29.057 C 651.061 20.923, 644.199 15.148, 636.710 10.178 C 622.017 0.428, 621.758 0.390, 615.748 7.091 C 610.108 13.381, 600.763 31.743, 599 40 C 596.905 49.809, 597.051 49.714, 593.845 43.356 C 590.218 36.164, 586.635 32.298, 582.815 31.459 C 578.933 30.607, 570.827 32.567, 563.590 36.108 C 560.340 37.699, 557.580 39, 557.458 39 C 557.335 39, 555.401 36.188, 553.160 32.750 C 550.919 29.313, 546.928 24.385, 544.292 21.800 C 539.368 16.969, 529.578 11.750, 525.442 11.750 C 522.553 11.750, 516.130 17.257, 507.971 26.728 L 501.745 33.957 492.623 24.314 C 481.915 12.996, 478.913 10.878, 475.120 11.966 C 466.057 14.565, 456.687 22.237, 449.955 32.569 C 447.651 36.106, 445.643 39, 445.495 39 C 445.346 39, 442.360 37.659, 438.858 36.021 C 433.285 33.413, 424.414 31, 420.398 31 C 417.764 31, 411.965 37.310, 409.085 43.309 C 406.208 49.304, 406.133 49.370, 405.497 46.466 C 402.383 32.243, 397.160 20.402, 389.516 10.232 C 385.176 4.459, 382.390 1.972, 380.316 2.018 C 379.867 2.028, 377.106 3.356, 374.181 4.968 M 620.485 16.024 C 617.233 21.175, 615.825 24.539, 612.543 35 C 610.067 42.892, 609.956 44.001, 610.985 50.500 C 613.066 63.644, 617.761 69.522, 629.765 74.013 C 636.545 76.550, 640.137 79.019, 641.935 82.379 C 643.209 84.760, 643.057 85.195, 639.605 89.016 C 637.573 91.265, 635.492 94.206, 634.980 95.552 C 634.202 97.599, 633.379 98, 629.959 98 C 624.531 98, 622.408 96.720, 619.997 91.994 C 612.741 77.771, 599.720 72.735, 584.760 78.366 C 570.974 83.555, 558 91.880, 558 95.536 C 558 97.728, 568.899 109.754, 575.132 114.440 C 590.676 126.124, 607.842 126.243, 616.027 114.723 C 621.751 106.666, 622.708 106, 628.558 106 C 633.651 106, 633.983 106.161, 635.509 109.379 C 636.391 111.237, 638.212 113.790, 639.556 115.053 C 642.380 117.706, 642.609 119.921, 640.483 124.033 C 638.633 127.610, 635.333 129.394, 627.622 130.983 C 623.104 131.915, 620.744 133.116, 617.424 136.176 C 606.939 145.841, 606.720 162.322, 616.784 184.351 L 620.370 192.202 623.882 191.632 C 631.388 190.414, 647.898 176.045, 652.325 166.877 C 657.453 156.256, 656.829 146.859, 650.438 138.487 L 646.932 133.893 648.658 128.196 C 650.803 121.116, 651.622 120, 654.672 120 C 656.007 120, 658.473 119.290, 660.152 118.422 C 663.049 116.923, 663.324 116.956, 665.573 119.069 C 668.995 122.283, 670.024 126.404, 669.816 136.068 C 669.663 143.157, 670.019 145.408, 671.910 149.314 C 674.615 154.902, 680.422 159.916, 688.570 163.699 C 693.720 166.091, 696.012 166.501, 706 166.822 C 712.325 167.025, 719.075 166.785, 721 166.288 C 724.055 165.499, 724.538 164.946, 724.796 161.937 C 725.153 157.774, 719.813 136.514, 717.049 131.096 C 714.737 126.565, 708.394 120.853, 702.510 118.005 C 698.120 115.880, 691.127 115.437, 684.884 116.888 C 680.920 117.810, 679.590 117.320, 673.819 112.815 C 670.161 109.959, 670.137 109.894, 670.166 102.538 C 670.195 95.182, 670.216 95.125, 673.440 93.595 C 678.518 91.186, 682.048 91.387, 688.291 94.442 C 693.245 96.865, 694.904 97.196, 699.860 96.746 C 703.041 96.458, 707.545 95.252, 709.867 94.068 C 722.969 87.384, 733.928 69.299, 733.979 54.278 L 734 48.056 728.250 46.324 C 719.507 43.691, 704.409 43.900, 695.244 46.781 C 689.178 48.687, 687.036 49.999, 682.177 54.781 C 675.366 61.483, 673.323 66.840, 674.422 75.120 C 675.098 80.223, 675.081 80.265, 670.513 84.643 L 665.924 89.040 661.712 86.638 C 659.395 85.317, 656.360 83.974, 654.967 83.654 C 652.976 83.196, 652.173 82.096, 651.217 78.521 C 649.470 71.990, 649.611 71.212, 653.576 65.455 C 658.177 58.774, 659.222 54.163, 657.893 46.406 C 656.419 37.804, 652.372 31.349, 644.334 24.778 C 634.994 17.144, 627.176 12, 624.912 12 C 623.796 12, 621.987 13.644, 620.485 16.024 M 369.496 18.131 C 360.650 24.048, 349.508 34.100, 347.556 37.926 C 345.561 41.835, 343.641 54.274, 344.405 58.344 C 344.777 60.330, 346.609 63.955, 348.475 66.400 C 353.425 72.884, 355 76.397, 355 80.950 C 355 84.691, 354.790 85.003, 352.250 85.044 C 350.738 85.068, 347.700 85.773, 345.500 86.610 C 343.300 87.447, 340.806 88.355, 339.959 88.628 C 339.094 88.906, 336.131 87.304, 333.211 84.979 L 328.004 80.833 328.149 74.667 C 328.472 60.925, 319.109 50.968, 302.132 46.999 C 295.215 45.382, 279.137 46.221, 272.619 48.540 L 267.739 50.277 268.390 57.289 C 269.850 72.994, 280.393 89.620, 292.715 95.649 C 300.490 99.453, 308.508 99.446, 315.871 95.628 C 321.347 92.789, 323.105 92.727, 329.250 95.156 C 331.600 96.085, 332 96.815, 332 100.179 C 332 102.343, 332.510 106.141, 333.134 108.619 C 334.195 112.833, 334.119 113.232, 331.949 114.812 C 325.027 119.850, 325.096 119.834, 316.302 118.313 C 306.034 116.537, 302.402 117.394, 294.009 123.572 C 289.319 127.025, 287.265 129.364, 285.460 133.308 C 282.979 138.731, 278.616 154.469, 277.587 161.712 C 276.721 167.809, 278.443 168.500, 294.500 168.500 C 307.488 168.500, 307.507 168.497, 315.160 164.756 C 323.764 160.550, 330.335 154.053, 331.983 148.123 C 332.536 146.130, 332.991 140.331, 332.994 135.235 C 333 126.159, 333.067 125.898, 336.287 122.383 L 339.575 118.796 344.969 120.398 C 347.936 121.279, 351.353 122, 352.563 122 C 354.342 122, 354.984 122.878, 355.919 126.593 C 357.268 131.950, 356.736 134.214, 353.003 139 C 347.791 145.683, 346.768 148.730, 347.155 156.403 C 347.684 166.865, 351.319 173.428, 361.494 182.290 C 368.831 188.681, 377.559 193.966, 380.815 193.990 C 382.528 194.003, 389.517 179.049, 391.602 170.910 C 393.773 162.434, 393.143 150.030, 390.260 144.500 C 386.617 137.511, 382.353 134.315, 374.215 132.473 C 366.188 130.656, 364.360 128.992, 363.315 122.556 C 362.831 119.574, 363.175 118.402, 365.179 116.200 C 366.530 114.715, 368.403 112.262, 369.341 110.750 C 370.780 108.429, 371.729 108, 375.419 108 C 380.021 108, 380.428 108.328, 387.944 118.105 C 394.043 126.040, 407.181 127.231, 419.600 120.976 C 426.461 117.520, 439.509 105.902, 443.496 99.700 L 445.295 96.900 441.898 93.362 C 439.911 91.293, 433.724 87.472, 427 84.162 C 416.608 79.047, 414.769 78.468, 407.911 78.152 C 401.346 77.850, 399.644 78.147, 395.292 80.352 C 390.047 83.010, 386.035 87.046, 383.347 92.370 C 380.569 97.870, 377.968 100, 374.027 100 C 370.821 100, 370.261 99.612, 369.188 96.643 C 368.520 94.797, 367.080 92.477, 365.987 91.488 C 364.894 90.499, 364.010 88.747, 364.022 87.595 C 364.055 84.475, 367.708 77, 369.201 76.999 C 372.431 76.997, 382.896 70.951, 385.858 67.376 C 394.938 56.415, 393.682 37.142, 382.700 18.940 C 380.940 16.023, 379 13.477, 378.389 13.281 C 377.778 13.086, 373.776 15.268, 369.496 18.131 M 623.179 28.750 C 620.144 35.414, 619.053 41.200, 619.024 50.772 L 619 59.045 623.127 63.522 C 626.946 67.665, 627.624 68, 632.197 68 C 636.713 68, 637.112 67.811, 636.820 65.809 C 636.597 64.283, 635.493 63.359, 633.179 62.762 C 630.665 62.114, 629.488 61.019, 628.332 58.251 C 624.795 49.786, 631.636 42.068, 639.892 45.210 C 644.242 46.866, 645.966 49.972, 645.985 56.191 C 646.005 62.340, 647.439 63.020, 649.962 58.075 C 652.340 53.413, 652.600 47.060, 650.572 43.140 C 648.595 39.316, 636.181 27.788, 631.804 25.711 C 626.494 23.192, 625.560 23.521, 623.179 28.750 M 369 28.555 C 362.457 32.834, 354.404 40.434, 352.422 44.200 C 350.722 47.428, 350.549 56.256, 352.125 59.316 C 353.980 62.917, 357.231 66, 359.174 66 C 361.573 66, 361.495 63.445, 359 60.273 C 354.497 54.548, 358.366 46.107, 365.527 46.032 C 369.529 45.990, 372.875 48.456, 374.681 52.779 C 376.086 56.143, 376.016 56.552, 373.075 62.163 C 371.384 65.389, 370 68.473, 370 69.015 C 370 70.730, 373.583 70.083, 377.001 67.750 C 383.538 63.288, 385.475 55.052, 383.026 42.136 C 381.652 34.894, 377.779 25.580, 376 25.243 C 375.175 25.086, 372.025 26.577, 369 28.555 M 699.752 55.167 C 692.108 55.923, 688 58.044, 682.597 64.025 C 679.591 67.351, 679 68.745, 679 72.503 C 679 77.499, 680.103 78.114, 683.028 74.750 C 690.393 66.278, 690.769 66, 694.834 66 C 698.060 66, 699.317 66.588, 701.411 69.077 C 705.832 74.331, 704.144 80.775, 697.629 83.514 C 695.019 84.611, 693.954 84.590, 691.064 83.382 C 687.856 82.042, 687.471 82.087, 685.557 84.031 L 683.500 86.122 685.845 88.048 C 693.039 93.957, 703.329 91.912, 711.411 82.967 C 717.261 76.492, 725.519 56.426, 722.710 55.513 C 720.291 54.727, 706.334 54.516, 699.752 55.167 M 283.750 56.669 C 278.322 57.172, 278.229 57.445, 280.862 65.098 C 287.360 83.984, 297.442 93.999, 308.683 92.732 C 313.885 92.146, 318.500 89.166, 318.500 86.392 C 318.500 84.385, 317.869 84.330, 309.276 85.587 C 305.500 86.140, 304.730 85.884, 302.026 83.180 C 296.956 78.110, 298.319 70.767, 304.830 68.070 C 308.355 66.610, 312.143 68.084, 318.878 73.534 C 321.286 75.483, 323.478 76.856, 323.748 76.585 C 324.019 76.315, 323.936 74.470, 323.564 72.487 C 322.689 67.826, 316.728 61.225, 311.163 58.754 C 306.682 56.765, 293.519 55.764, 283.750 56.669 M 586.634 85.398 C 578.928 88.646, 570 94.627, 570 96.539 C 570 98.667, 582.171 110.430, 587.763 113.707 C 594.507 117.659, 601.536 117.531, 606.701 113.364 C 611.334 109.626, 612.498 105, 608.807 105 C 607.528 105, 605.944 105.860, 605.288 106.910 C 603.688 109.472, 598.798 110.418, 594.496 108.999 C 590.377 107.639, 589 105.502, 589 100.467 C 589 97.657, 589.724 96.126, 592.106 93.901 C 596.356 89.931, 600.855 89.967, 604.662 94 C 608.007 97.545, 612 98.062, 612 94.950 C 612 85.285, 598.744 80.293, 586.634 85.398 M 397.480 86.807 C 393.315 88.764, 391 92.245, 391 96.547 C 391 99.980, 393.923 99.734, 397.500 96 C 401.580 91.741, 407.061 91.784, 411.099 96.106 C 416.158 101.521, 414.459 108.703, 407.583 110.973 C 404.131 112.112, 400.315 111.097, 395.886 107.861 C 394.132 106.579, 391 107.299, 391 108.983 C 391 109.559, 392.501 111.667, 394.335 113.669 C 397.243 116.842, 398.388 117.368, 403.274 117.773 C 407.716 118.141, 409.853 117.766, 413.582 115.960 C 418.477 113.590, 433 100.375, 433 98.290 C 433 96.839, 426.455 92.257, 419.019 88.501 C 411.782 84.845, 403.104 84.163, 397.480 86.807 M 645.686 94.415 C 638.841 100.759, 642.705 112, 651.732 112 C 656.460 112, 659.779 109.774, 661.619 105.369 C 665.500 96.081, 653.093 87.550, 645.686 94.415 M 348.388 93.959 C 347.227 94.440, 345.314 96.057, 344.138 97.552 C 338.123 105.199, 346.118 116.096, 355.477 113.008 C 360.268 111.426, 362.419 108.049, 361.559 103.460 C 360.301 96.756, 353.492 91.844, 348.388 93.959 M 688 124.056 C 688 124.637, 689.940 125.971, 692.312 127.020 C 698.157 129.606, 700.200 132.101, 700.200 136.655 C 700.200 139.621, 699.531 141.030, 697.084 143.216 C 690.197 149.370, 680.475 144.040, 681.256 134.539 C 681.612 130.215, 678.599 129.940, 676.448 134.101 C 674.418 138.027, 675.004 144.178, 677.765 147.913 C 678.817 149.336, 681.509 151.524, 683.749 152.775 C 689.534 156.008, 702.859 159.167, 709.184 158.805 L 714.500 158.500 714.808 154.784 C 715.225 149.768, 711.408 136.029, 708.241 131.146 C 704.785 125.815, 699.557 123, 693.114 123 C 690.190 123, 688 123.452, 688 124.056 M 302.500 125.417 C 295.691 128.457, 291.284 136.005, 288.563 149.286 C 286.542 159.152, 287.288 161.003, 293.285 160.993 C 298.429 160.984, 312.892 157.610, 317.288 155.392 C 326.980 150.503, 330.320 141.844, 325.430 134.282 C 323.114 130.701, 321 132.443, 321 137.933 C 321 141.537, 320.469 143.147, 318.750 144.752 C 315.439 147.843, 311.735 148.443, 307.723 146.539 C 299.121 142.457, 300.692 130.872, 310.051 129.376 C 312.200 129.032, 314.755 128.166, 315.729 127.450 C 317.365 126.249, 317.285 126.067, 314.685 125.075 C 310.936 123.644, 306.174 123.777, 302.500 125.417 M 625.223 139.661 C 620.508 141.985, 617.213 146.370, 616.510 151.255 C 615.494 158.322, 622.067 179.686, 625.581 180.732 C 626.175 180.909, 630.062 178.834, 634.218 176.120 C 645.848 168.528, 651.645 158.435, 649.154 150.119 C 647.906 145.953, 645.692 143.454, 644.114 144.430 C 643.578 144.761, 642.836 147.612, 642.464 150.766 C 641.606 158.050, 639.951 160.636, 635.254 162.036 C 630.197 163.542, 626.459 162.030, 624.360 157.628 C 621.579 151.798, 624.727 145.417, 631.018 144.130 C 636.558 142.997, 636.135 138.017, 630.500 138.038 C 629.400 138.042, 627.025 138.772, 625.223 139.661 M 369 142.348 C 369 144.126, 369.986 145.141, 373.061 146.527 C 377.780 148.655, 379 150.495, 379 155.480 C 379 163.744, 368.981 167.135, 362.806 160.960 C 360.180 158.334, 359.871 157.483, 360.536 154.710 C 361.703 149.843, 361.633 144.732, 360.394 144.308 C 359.785 144.100, 357.873 145.251, 356.144 146.866 C 353.445 149.386, 353.003 150.489, 353.022 154.651 C 353.062 163.405, 359.206 172.369, 369.748 179.055 C 377.245 183.809, 378.331 183.342, 382.074 173.750 C 386.297 162.928, 387.127 152.092, 384.101 147.290 C 381.851 143.720, 375.441 140, 371.540 140 C 369.541 140, 369 140.500, 369 142.348 M 493.328 153.250 C 485.482 161.439, 482.595 165.956, 479.414 175.020 C 477.292 181.063, 476.883 183.705, 477.281 188.774 C 478.004 197.984, 482.110 205.624, 488.500 209.650 C 496.397 214.626, 497 215.425, 497 220.918 C 497 225.388, 496.703 226.020, 493.750 227.848 C 491.962 228.955, 489.220 231.198, 487.656 232.833 C 485.182 235.419, 484.417 235.693, 481.783 234.938 C 476.513 233.426, 474.355 231.307, 471.994 225.322 C 468.054 215.335, 466.407 213.326, 459.286 209.820 C 449.702 205.102, 443.307 204.924, 430.500 209.020 C 418.177 212.961, 410 216.723, 410 218.450 C 410 223.052, 419.659 238.652, 426.124 244.493 C 431.299 249.168, 439.918 253.033, 446.742 253.737 C 453.196 254.403, 458.626 252.502, 466.017 246.987 C 475.598 239.839, 481.239 240.489, 484.244 249.087 C 487.333 257.928, 487.331 258.237, 484.162 262 L 481.214 265.500 471.822 265.500 C 462.919 265.500, 462.140 265.676, 456.847 268.882 C 446.676 275.041, 442 287.095, 442 307.154 C 442 316.959, 442.977 320, 446.128 320 C 450.724 320, 468.844 315.730, 473.782 313.484 C 489.802 306.197, 496.650 292.681, 491 279.500 C 488.375 273.377, 488.477 270.234, 491.441 265.872 C 493.849 262.328, 493.977 262.279, 500.945 262.235 C 508.002 262.191, 508.011 262.194, 511.536 266.313 C 515.433 270.866, 515.478 272.534, 511.913 280.384 C 506.786 291.674, 513.407 305.612, 527.223 312.613 C 532.354 315.213, 544.952 318.455, 554.126 319.536 L 559.753 320.200 560.997 315.013 C 563.048 306.463, 560.551 289.653, 555.871 280.500 C 553.202 275.281, 548.421 270.300, 543.790 267.912 C 540.973 266.460, 537.987 266, 531.385 266 L 522.690 266 518.889 262.004 L 515.088 258.008 517.534 252.754 C 518.880 249.864, 519.985 246.784, 519.990 245.908 C 519.996 244.924, 521.512 243.864, 523.963 243.129 C 528.735 241.700, 532.195 242.872, 539.374 248.352 C 545.162 252.770, 550.860 254.409, 557.412 253.540 C 569.338 251.958, 581.247 242.651, 588.816 229 C 594.613 218.542, 594.461 217.537, 586.534 213.943 C 568.204 205.632, 555.158 204.242, 544.486 209.463 C 538.186 212.545, 535.064 216.182, 532.007 224 C 529.440 230.563, 525.803 234.665, 521.764 235.552 C 519.228 236.109, 518.245 235.632, 514.844 232.197 C 512.663 229.994, 509.556 227.645, 507.940 226.975 C 504.685 225.627, 504.338 223.735, 506.306 218.058 C 507.154 215.615, 509.229 213.439, 513.460 210.558 C 523.360 203.818, 526.571 196.996, 525.771 184.404 C 525.112 174.039, 519.445 162.765, 510.361 153.750 C 506.256 149.676, 502.719 147, 501.438 147 C 500.142 147, 496.989 149.430, 493.328 153.250 M 495.103 166.861 C 487.589 176.997, 484.816 183.680, 484.876 191.507 C 484.932 198.785, 486.610 202.874, 490.753 205.824 C 497.248 210.449, 500.667 206.958, 495.572 200.903 C 487.806 191.674, 498.616 179.605, 507.672 187.394 C 511.305 190.519, 511.572 196.698, 508.227 200.258 C 506.902 201.668, 506 203.899, 506 205.762 C 506 208.804, 506.087 208.865, 508.974 207.859 C 519.723 204.112, 522.027 188.404, 513.759 175.234 C 508.922 167.528, 502.851 160, 501.473 160 C 500.767 160, 497.900 163.088, 495.103 166.861 M 908.764 201.934 C 896.545 208.132, 890.099 213.985, 885.491 223.067 C 883.659 226.679, 881.851 231.279, 881.473 233.290 C 880.547 238.228, 882.580 246.120, 885.990 250.827 C 890.009 256.376, 891.768 260.083, 892.005 263.505 C 892.456 270.032, 892.140 270.811, 888.750 271.543 C 886.962 271.928, 883.796 273.107, 881.714 274.161 L 877.928 276.078 873.978 273.289 C 871.806 271.755, 869.706 269.600, 869.312 268.500 C 868.919 267.400, 868.730 262.631, 868.892 257.903 C 869.152 250.368, 868.880 248.699, 866.693 244.403 C 862.211 235.595, 856.394 231.933, 842.336 229.068 C 832.330 227.029, 822.649 226.451, 818.250 227.630 C 816.267 228.162, 816 228.878, 816 233.659 C 816 252.320, 824.999 271.432, 836.379 276.942 C 841.389 279.367, 850.243 279.648, 854 277.500 C 858.122 275.144, 863.228 275.658, 867.671 278.877 L 871.643 281.754 871.559 289.096 C 871.477 296.286, 871.405 296.484, 868.090 298.719 C 863.751 301.643, 860.594 301.595, 853.596 298.500 C 846.311 295.278, 840.808 295.295, 834.261 298.557 C 827.712 301.821, 822.511 307.595, 818.851 315.669 C 815.688 322.645, 812.018 336.619, 812.007 341.731 C 811.998 345.893, 814.033 346.500, 828 346.500 C 852.263 346.500, 867 335.943, 867 318.563 L 867 312.354 872.135 308.177 C 874.959 305.880, 877.564 304, 877.923 304 C 878.283 304, 880.342 304.900, 882.500 306 C 884.658 307.100, 887.242 308, 888.243 308 C 893.166 308, 891.028 317.426, 884.036 326.549 C 878.620 333.615, 877.456 337.444, 878.285 345.471 C 879.640 358.600, 890.619 371.752, 906.881 379.725 C 912.154 382.310, 912.291 382.324, 913.719 380.431 C 915.934 377.495, 919.820 368.507, 923.191 358.522 C 925.694 351.108, 926.111 348.604, 925.588 344.155 C 924.240 332.684, 916.931 322.558, 908.086 319.908 C 903.155 318.430, 902.235 317.430, 900.500 311.667 L 899.168 307.242 903.022 303.479 C 905.141 301.409, 907.428 298.381, 908.104 296.749 C 909.236 294.017, 909.643 293.823, 913.244 294.306 C 917.822 294.920, 920.334 296.917, 922.068 301.322 C 924.917 308.560, 934.084 314.740, 943.394 315.701 C 955.402 316.941, 974.803 308.179, 983.470 297.602 C 987.051 293.232, 987.211 292.762, 985.928 290.365 C 985.173 288.956, 981.815 285.034, 978.465 281.651 C 968.256 271.341, 951.272 264.704, 940.830 266.943 C 931.718 268.897, 926.077 272.852, 922.607 279.720 C 920.587 283.717, 918.277 285, 913.101 285 C 909.930 285, 908.825 284.520, 907.917 282.750 C 907.283 281.512, 905.210 278.873, 903.311 276.885 C 900.189 273.617, 899.927 272.904, 900.577 269.442 C 901.520 264.414, 904.315 261.779, 911.011 259.603 C 919.022 257.001, 922.770 253.706, 926.359 246.109 C 928.910 240.710, 929.466 238.310, 929.398 233 C 929.313 226.415, 925.920 213.334, 921.833 203.833 C 919.296 197.935, 917.239 197.636, 908.764 201.934 M 81.144 204.416 C 77.599 211.959, 73 228.970, 73 234.541 C 73 241.442, 76.469 250.372, 80.955 255.020 C 83.280 257.429, 87.004 259.639, 91.776 261.444 C 100.264 264.653, 101.539 265.729, 103.124 271.019 C 104.277 274.867, 104.217 275.041, 100.264 279.329 C 98.044 281.738, 95.904 284.728, 95.509 285.973 C 94.871 287.982, 94.297 288.181, 90.410 287.743 C 84.713 287.101, 81.506 284.913, 78.966 279.934 C 75.132 272.419, 63.119 267.130, 52.640 268.342 C 49.526 268.703, 43.913 270.711, 38.401 273.437 C 31.107 277.044, 27.981 279.337, 22.651 284.988 C 18.993 288.865, 16 292.939, 16 294.041 C 16 296.740, 22.938 304.100, 29.734 308.612 C 42.401 317.019, 59.035 319.567, 68.783 314.593 C 74.347 311.754, 78.003 308.052, 80.847 302.373 C 83.199 297.679, 84.421 297, 90.517 297 C 94.473 297, 95.384 297.514, 100.508 302.639 C 105.311 307.442, 106.052 308.665, 105.506 310.889 C 104.302 315.791, 101.813 318.217, 94.535 321.579 C 85.977 325.533, 82.051 329.599, 78.999 337.668 C 75.328 347.376, 76.991 357.289, 85.312 375.300 C 89.490 384.342, 90.240 384.589, 99.131 379.850 C 107.269 375.512, 117.234 365.302, 121.208 357.229 C 123.847 351.868, 124.408 349.556, 124.389 344.111 C 124.364 336.755, 123.059 333.546, 116.947 325.813 C 112.121 319.708, 111.678 318.232, 113.283 313.597 C 114.594 309.808, 115.692 309.155, 127.097 305.376 C 128.055 305.058, 130.132 306.202, 132.286 308.233 C 135.816 311.562, 135.874 311.745, 135.738 319.060 C 135.625 325.137, 136.049 327.397, 138.049 331.395 C 142.730 340.747, 153.534 346.441, 170 348.234 C 177.532 349.054, 180.639 348.979, 185 347.872 L 190.500 346.476 190.221 341.251 C 189.864 334.548, 185.632 319.933, 182.250 313.718 C 177.851 305.635, 169.198 299.122, 160.845 297.608 C 158.034 297.098, 155.430 297.644, 149.569 299.973 C 145.377 301.638, 141.389 303, 140.706 303 C 140.023 303, 137.897 301.936, 135.982 300.635 L 132.500 298.271 133 290.947 L 133.500 283.624 138.153 280.288 L 142.805 276.953 147.940 278.976 C 167.035 286.503, 182.769 270.927, 186.082 241.216 C 187.490 228.589, 187.568 228.667, 174.042 229.239 C 152.404 230.153, 141.918 234.793, 136.161 246 C 132.977 252.199, 132.850 252.858, 133.433 260.230 C 134.077 268.380, 132.923 273.162, 129.660 275.868 C 128.250 277.037, 127.616 276.979, 125.306 275.465 C 123.819 274.490, 120.104 273.200, 117.051 272.597 C 111.536 271.507, 111.498 271.474, 111.180 267.595 C 110.736 262.164, 111.426 260.059, 115.675 253.883 C 120.197 247.310, 122.177 239.734, 120.881 233.966 C 119.410 227.417, 114.508 218.691, 110.025 214.641 C 102.794 208.109, 88.436 200, 84.099 200 C 83.616 200, 82.286 201.987, 81.144 204.416 M 739.500 206.409 C 724.329 210.168, 712.259 222.537, 710.379 236.250 C 709.922 239.587, 710.383 241.969, 712.423 246.817 C 714.672 252.161, 714.910 253.622, 714.049 256.818 C 712.254 263.483, 711.028 264.390, 704.194 264.111 C 700.855 263.975, 697.112 264.405, 695.876 265.066 C 693.884 266.133, 693.311 265.912, 690.815 263.119 C 687.441 259.343, 687.397 258.316, 690.116 246.733 C 692.611 236.107, 692.176 233.676, 686.091 224.262 C 681.410 217.020, 676.758 213.997, 663.959 209.881 C 651.541 205.888, 644.313 206.137, 642.594 210.617 C 642.241 211.537, 641.514 215.374, 640.979 219.145 C 639.677 228.331, 641.170 238.413, 644.940 245.881 C 651.147 258.178, 655.583 261.041, 669.930 262.011 L 679.361 262.649 683.245 267.025 C 686.094 270.236, 686.958 271.947, 686.490 273.451 C 686.139 274.578, 685.378 277.525, 684.800 280 C 684.222 282.475, 683.243 284.831, 682.624 285.235 C 682.006 285.639, 679.127 285.976, 676.228 285.985 C 671.462 285.999, 670.541 285.618, 666.643 282.025 C 657.645 273.731, 647.824 271.892, 637.326 276.535 C 630.286 279.648, 614.522 295.130, 611.528 301.873 L 609.585 306.246 612.043 308.275 C 615.724 311.316, 631.757 318.606, 637.861 320.015 C 645.006 321.665, 655.453 320.834, 660.595 318.209 C 666.540 315.173, 670.734 309.958, 671.537 304.603 C 672.351 299.172, 673.911 297.662, 680.795 295.638 L 686.089 294.081 690.400 297.291 C 692.770 299.056, 695.508 300.964, 696.482 301.532 C 697.862 302.335, 698.100 303.267, 697.558 305.735 C 696.564 310.263, 693.791 313.363, 687.622 316.844 C 675.164 323.875, 673.630 340.941, 684.026 356.861 C 689.185 364.761, 699.790 376, 702.086 376 C 707.524 376, 718.995 358.796, 722.481 345.411 C 724.129 339.086, 723.277 330.369, 720.483 324.967 C 718.838 321.786, 711.970 315.443, 709.230 314.573 C 707.198 313.928, 706 310.336, 706 304.888 C 706 302.529, 706.655 301.753, 709.736 300.466 C 711.791 299.607, 714.457 297.980, 715.660 296.850 C 717.605 295.023, 718.246 294.926, 721.441 295.981 C 725.457 297.306, 726.897 299.536, 729.434 308.357 C 734.143 324.732, 753.643 331.448, 774.951 324.032 C 786.299 320.082, 788.520 318.317, 788.429 313.318 C 788.343 308.606, 781.654 297.686, 773.705 289.282 C 767.725 282.958, 765.576 281.694, 757.924 279.997 C 750.666 278.386, 744.406 279.696, 736.465 284.484 C 731.571 287.436, 729.694 288.029, 726.008 287.791 L 721.515 287.500 720.863 282.903 C 720.503 280.375, 719.487 276.909, 718.605 275.203 C 716.391 270.922, 716.550 270.067, 720.411 265.502 L 723.793 261.505 733.221 261.502 C 741.963 261.500, 743.004 261.280, 747.540 258.479 C 758.435 251.748, 761.512 243.093, 760.853 221.029 C 760.408 206.143, 759.646 204.959, 750.595 205.085 C 747.243 205.132, 742.250 205.728, 739.500 206.409 M 241.750 209.716 C 238.480 213.344, 239.850 245.842, 243.586 253.246 C 248.543 263.069, 260.263 268.981, 270.467 266.805 C 274.352 265.976, 275.476 266.131, 278.313 267.885 C 283.196 270.902, 284.596 274.068, 283.162 278.853 C 282.523 280.987, 282 284.576, 282 286.831 C 282 289.999, 281.513 291.190, 279.854 292.078 C 276.252 294.006, 269.023 292.582, 262.660 288.692 C 249.515 280.656, 231.791 283.174, 220.852 294.632 C 214.742 301.030, 207 312.778, 207 315.649 C 207 319.284, 220.718 328.037, 230.500 330.644 C 237.283 332.451, 248.477 332.341, 255.068 330.402 C 262.628 328.178, 269.288 321.280, 271.584 313.296 C 274.196 304.211, 275.404 302.499, 280.605 300.513 C 284.224 299.131, 285.690 298.976, 286.910 299.847 C 287.785 300.471, 290.682 302.141, 293.349 303.558 C 298.043 306.052, 298.176 306.246, 297.537 309.656 C 296.506 315.148, 294.851 318.026, 291.819 319.594 C 287.685 321.731, 282.102 326.903, 280.423 330.149 C 277.829 335.165, 276.853 342.957, 278.062 348.994 C 280.291 360.116, 290.699 377.628, 297.126 381.067 C 301.242 383.270, 317.794 363.775, 321.996 351.775 C 324.366 345.005, 324.522 340.052, 322.569 333.564 C 320.853 327.861, 319.113 325.795, 312.398 321.487 C 308.084 318.720, 307.198 317.619, 306.659 314.357 C 305.408 306.785, 305.775 305.168, 309.137 303.429 C 310.863 302.537, 313.326 300.673, 314.610 299.287 C 316.542 297.202, 317.530 296.877, 320.335 297.403 C 324.919 298.263, 326.436 300.242, 328.988 308.694 C 331.477 316.936, 334.228 320.221, 341.500 323.634 C 345.259 325.398, 348.254 325.983, 353.568 325.990 C 362.607 326.003, 369.106 324.064, 381.309 317.714 C 390.476 312.945, 391.079 312.442, 390.509 310.055 C 388.756 302.706, 372.568 285.662, 363.208 281.311 C 353.919 276.994, 343.898 278.736, 335.437 286.140 C 330.285 290.649, 329.515 291.002, 326.159 290.400 C 319.801 289.259, 319.562 288.917, 316.357 276.370 C 315.985 274.914, 316.711 273.255, 318.656 271.119 C 321.319 268.195, 322.071 267.955, 330.500 267.342 C 345.490 266.253, 350.148 263.081, 356.653 249.528 C 359.771 243.033, 359.998 241.871, 359.976 232.528 C 359.938 216.615, 357.673 211, 351.291 211 C 347.050 211, 326.971 218.170, 322.119 221.417 C 317.245 224.679, 311.822 232.559, 309.783 239.341 C 308.801 242.608, 308.982 244.570, 310.994 252.476 C 313.176 261.052, 313.245 262.069, 311.887 265.635 L 310.416 269.500 300.590 269.280 C 289.733 269.036, 289.012 268.649, 286.908 261.929 C 285.945 258.851, 286.116 257.608, 288.145 252.929 C 292.264 243.432, 290.428 233.113, 283.143 224.816 C 276.088 216.781, 260.773 209.364, 249 208.281 C 244.421 207.859, 243.207 208.100, 241.750 209.716 M 907.500 212.195 C 899.339 216.494, 888.485 229.728, 887.908 236.085 C 887.325 242.514, 888.052 245.246, 891.106 248.099 C 892.814 249.694, 894.853 251, 895.637 251 C 897.843 251, 898.424 248.126, 896.621 246.134 C 895.730 245.149, 895 242.656, 895 240.594 C 895 231.887, 905.919 227.550, 911.411 234.077 C 912.924 235.875, 914 238.387, 914 240.122 C 914 242.947, 913.207 243.980, 906.886 249.386 C 904.200 251.685, 904.551 253, 907.852 253 C 911.478 253, 916.772 249.451, 919.821 244.976 C 923.316 239.845, 922.587 228.489, 918.072 217.750 C 914.459 209.157, 913.863 208.844, 907.500 212.195 M 85.676 216.787 C 82.227 224.473, 79.699 235.566, 80.321 240.287 C 81.187 246.865, 89.155 254.987, 94.750 254.996 C 98.315 255.002, 97.568 251.533, 93.485 249.123 C 91.551 247.983, 89.529 245.892, 88.991 244.477 C 86.967 239.153, 92.721 232, 99.027 232 C 101.747 232, 106.690 236.917, 107.595 240.523 C 108.065 242.395, 107.714 244.376, 106.518 246.596 C 104.766 249.850, 104.980 253, 106.953 253 C 107.511 253, 109.395 251.726, 111.138 250.168 C 113.799 247.790, 114.381 246.453, 114.764 241.832 C 115.347 234.805, 113.747 231.626, 105.136 222.701 C 98.641 215.968, 94.465 212.821, 90.396 211.593 C 88.589 211.048, 87.922 211.781, 85.676 216.787 M 436.500 215.376 C 429.477 217.670, 421 221.595, 421 222.552 C 421 226.800, 430.512 237.854, 439.500 244.052 C 443.877 247.070, 445.262 247.498, 450.617 247.483 C 457.073 247.465, 458.660 246.690, 462.078 241.891 L 464.062 239.104 461.948 237.972 C 460.242 237.059, 459.454 237.184, 457.871 238.617 C 454.893 241.312, 449.400 240.757, 445.905 237.409 C 441.840 233.515, 441.847 227.999, 445.923 223.923 C 447.531 222.315, 449.803 221, 450.973 221 C 453.605 221, 459 223.706, 459 225.026 C 459 226.303, 462.716 230, 464 230 C 466.970 230, 463.948 222.138, 459.339 217.872 C 453.249 212.235, 447.903 211.651, 436.500 215.376 M 549 214.118 C 543.100 216.459, 536.174 226.574, 538.725 229.125 C 540.195 230.595, 542.703 229.131, 543.976 226.058 C 545.155 223.211, 548.625 221, 551.912 221 C 554.554 221, 558.532 224.455, 560.016 228.038 C 561.808 232.366, 559.325 237.549, 554.490 239.569 C 551.415 240.853, 550.569 240.847, 547.378 239.513 C 543.177 237.758, 540 237.552, 540 239.035 C 540 241.271, 543.573 245.342, 546.672 246.636 C 553.905 249.659, 560.872 247.324, 570.666 238.594 C 576.233 233.632, 582 225.860, 582 223.319 C 582 222.609, 579.413 220.723, 576.250 219.127 C 565.291 213.596, 555.059 211.715, 549 214.118 M 741.500 216.378 C 723.983 222.106, 716.012 229.584, 716.004 240.300 C 716 245.404, 718.239 251, 720.285 251 C 722.530 251, 724.067 247.306, 722.994 244.485 C 721.608 240.840, 724.011 235.563, 727.994 233.503 C 737.331 228.675, 745.570 240.584, 738.077 248.077 C 736.469 249.685, 734.271 251, 733.192 251 C 731.536 251, 728 254.722, 728 256.465 C 728 256.759, 730.502 257, 733.560 257 C 738.875 257, 739.357 256.776, 744.517 251.896 C 747.536 249.040, 750.467 245.186, 751.169 243.146 C 752.556 239.116, 752.941 221.075, 751.731 216.750 C 750.812 213.463, 750.455 213.450, 741.500 216.378 M 649.607 217.582 C 648.546 220.346, 648.985 230.264, 650.479 237.316 C 653.217 250.240, 658.712 256.333, 667.628 256.333 C 670.032 256.333, 672.322 256.012, 672.715 255.619 C 673.977 254.357, 671.431 251.609, 668.231 250.780 C 664.339 249.772, 661 245.632, 661 241.815 C 661 232.458, 671.605 227.891, 677.124 234.871 C 678.855 237.060, 679.102 238.369, 678.600 242.690 C 677.894 248.760, 679.341 250.525, 682.064 246.915 C 686.628 240.864, 684.946 234.592, 676.543 226.332 C 671.296 221.174, 669.163 219.822, 663.529 218.082 C 655.373 215.563, 650.450 215.386, 649.607 217.582 M 247.390 220.427 C 247.089 221.211, 247.310 227.333, 247.882 234.030 C 248.627 242.755, 249.524 247.452, 251.049 250.600 C 253.529 255.725, 259.988 261.619, 264.117 262.526 C 267.411 263.249, 272.683 262.322, 273.586 260.860 C 274.550 259.302, 270.937 256, 268.268 256 C 266.925 256, 264.545 254.698, 262.923 253.077 C 259.378 249.532, 259.010 244.529, 262.012 240.712 C 267.517 233.713, 277.927 238.230, 277.978 247.639 C 277.992 250.222, 278.727 252.666, 279.932 254.139 L 281.864 256.500 283.432 252.782 C 285.812 247.139, 285.389 242.211, 282.022 236.340 C 277.854 229.073, 272.987 225.998, 257.719 220.986 C 250.544 218.630, 248.129 218.500, 247.390 220.427 M 336.500 223.337 C 322.878 228.407, 317.713 233.063, 316.463 241.397 C 316.032 244.272, 316.335 246.865, 317.399 249.412 C 319.574 254.617, 321.430 253.569, 321.811 246.921 C 322.220 239.787, 324.685 237, 330.585 237 C 334.089 237, 335.270 237.533, 337.411 240.077 C 340.356 243.576, 340.673 246.798, 338.490 251.020 C 336.757 254.371, 334.200 256, 330.673 256 C 327.950 256, 326.317 258.717, 328.017 260.417 C 328.613 261.013, 331.295 261.500, 333.977 261.500 C 339.797 261.500, 343.486 259.149, 346.671 253.411 C 350.426 246.644, 353.336 227.646, 351.393 222.582 C 350.515 220.293, 343.760 220.635, 336.500 223.337 M 497.256 234.982 C 494.636 236.090, 491.007 241.616, 491.007 244.500 C 491.007 248.026, 494.659 252.732, 498.337 253.946 C 508.399 257.267, 516.308 244.335, 508.628 237.120 C 505.950 234.605, 500.550 233.590, 497.256 234.982 M 826.622 235.754 C 825.013 236.133, 824.824 236.861, 825.299 240.848 C 827.961 263.161, 835.038 273.145, 847.026 271.496 C 855.952 270.269, 855.359 265.757, 846.232 265.449 C 842.472 265.322, 841.228 264.772, 839.328 262.397 C 836.503 258.867, 836.255 253.142, 838.789 250.012 C 839.983 248.537, 842.063 247.636, 845.039 247.303 C 851.181 246.617, 854.764 249.396, 855.194 255.177 C 855.827 263.691, 862.007 262.220, 861.993 253.559 C 861.982 246.650, 856.212 240.475, 847.095 237.617 C 842.315 236.119, 829.885 234.988, 826.622 235.754 M 158.734 238.088 C 153.004 239.438, 147.642 242.505, 144.244 246.375 C 140.491 250.649, 139.623 253.178, 140.431 257.486 C 141.716 264.334, 147 264.624, 147 257.848 C 147 252.173, 150.408 249, 156.502 249 C 162.195 249, 166 252.433, 166 257.569 C 166 261.444, 161.795 267, 158.861 267 C 156.020 267, 150.807 269.921, 151.254 271.263 C 151.464 271.893, 153.143 272.799, 154.985 273.276 C 159.502 274.446, 166.284 271.810, 169.432 267.661 C 173.415 262.409, 179.054 242.190, 177.596 238.389 C 176.981 236.786, 165.068 236.596, 158.734 238.088 M 463.001 273.123 C 459.227 274.628, 456.086 277.955, 453.202 283.500 C 450.985 287.765, 450.541 290.103, 450.185 299.405 L 449.768 310.311 456.134 309.711 C 478.111 307.641, 490.440 296.159, 484.386 283.401 C 482.564 279.561, 480.581 279.045, 479 282 C 478.245 283.411, 478.242 284.583, 478.989 285.979 C 482.334 292.230, 472.923 300.210, 465.545 297.379 C 463.465 296.581, 461 291.818, 461 288.597 C 461 283.408, 464.855 279, 469.392 279 C 470.652 279, 474 275.926, 474 274.769 C 474 274.094, 468.197 271.971, 466.601 272.063 C 465.995 272.098, 464.375 272.575, 463.001 273.123 M 531.722 273.283 C 529.073 274.443, 529.018 274.605, 530.529 276.750 C 531.449 278.056, 533.157 279, 534.602 279 C 538.755 279, 542 283.167, 542 288.500 C 542 297.611, 533.196 301.349, 526.800 294.954 C 523.994 292.148, 523.805 291.530, 524.394 287.090 C 524.881 283.420, 524.671 281.972, 523.516 281.014 C 521.488 279.331, 519.483 281.006, 517.944 285.670 C 515.730 292.380, 518.901 299.108, 526.315 303.433 C 531.355 306.372, 544.014 310, 549.230 310 L 553 310 553 300.626 C 553 290.325, 551.523 284.685, 547.414 279.298 C 542.880 273.354, 536.844 271.040, 531.722 273.283 M 695.636 276.636 C 689.573 282.700, 693.277 293, 701.521 293 C 705.539 293, 711.436 288.383, 712.419 284.469 C 714.492 276.206, 701.929 270.343, 695.636 276.636 M 932.708 276.090 C 928.949 278.073, 924.635 283.600, 925.611 285.179 C 926.511 286.635, 930.431 286.010, 933 284 C 936.876 280.968, 942.521 281.367, 946.077 284.923 C 951.671 290.517, 948.573 298.577, 940.409 299.672 C 936.853 300.149, 935.859 299.815, 932.778 297.110 C 926.405 291.514, 922.738 293.777, 926.960 300.701 C 930.600 306.672, 940.214 309.348, 949.783 307.052 C 954.628 305.890, 971.860 295.654, 973.535 292.943 C 974.863 290.795, 960.162 279.184, 951.572 275.594 C 946.258 273.374, 937.413 273.606, 932.708 276.090 M 47.419 279.324 C 39.857 283.400, 29 291.840, 29 293.641 C 29 296.357, 46.048 306.925, 53.673 308.935 C 56.091 309.573, 60.297 309.752, 63.673 309.362 C 68.613 308.792, 70.071 308.122, 73.250 304.962 C 79.715 298.537, 77.223 295.805, 68.813 300.096 C 61.555 303.798, 54 300.204, 54 293.048 C 54 288.447, 56.120 285.445, 60.359 284.047 C 64.462 282.693, 67.924 283.817, 70.763 287.425 C 75.104 292.945, 78.858 289.493, 75.524 283.047 C 73.027 278.218, 68.238 275.997, 60.382 276.023 C 54.534 276.042, 52.586 276.538, 47.419 279.324 M 296.357 277.992 C 290.431 280.383, 289.090 289.244, 293.923 294.077 C 298.843 298.996, 306.441 297.915, 309.578 291.849 C 313.901 283.490, 305.236 274.408, 296.357 277.992 M 110.314 281.936 C 103.870 285.893, 103.089 292.289, 108.400 297.600 C 115.966 305.166, 127.229 298.382, 124.151 288.111 C 122.068 281.157, 115.996 278.447, 110.314 281.936 M 883.923 282.923 C 876.039 290.807, 885.317 304.182, 895.055 298.970 C 897.746 297.530, 900 292.760, 900 288.504 C 900 280.348, 889.977 276.869, 883.923 282.923 M 642.200 282.050 C 634.821 285.010, 622 298.338, 622 303.048 C 622 304.920, 629.818 309.260, 639.072 312.525 C 644.613 314.480, 652.366 314.395, 656.717 312.330 C 660.352 310.605, 663.990 305.818, 663.996 302.750 C 664.002 300.204, 661.889 300.597, 657.428 303.972 C 652.670 307.572, 646.521 308.052, 642.884 305.107 C 638.045 301.189, 640.882 290.861, 647.438 288.527 C 649.628 287.747, 650.938 287.995, 654.034 289.777 C 658.320 292.244, 658.892 292.355, 660.874 291.099 C 662.016 290.375, 661.951 289.726, 660.489 287.250 C 659.521 285.612, 657.483 283.535, 655.960 282.636 C 652.965 280.866, 645.899 280.565, 642.200 282.050 M 344.775 287.559 C 343.276 288.372, 341.570 289.936, 340.982 291.034 C 339.570 293.671, 341.593 294.465, 347.624 293.638 C 353.340 292.855, 357.163 294.717, 359.365 299.357 C 361.601 304.069, 361.439 305.478, 358.250 309.045 C 355.419 312.211, 351.834 313.034, 347.234 311.574 C 344.972 310.856, 342 306.360, 342 303.657 C 342 302.304, 339.996 301, 337.918 301 C 337.413 301, 337 303.068, 337 305.596 C 337 318.668, 350.284 322.690, 368.073 315.004 C 378.112 310.667, 379.385 309.670, 378.645 306.722 C 377.655 302.776, 366.470 291.413, 360.791 288.583 C 354.950 285.672, 348.958 285.289, 344.775 287.559 M 745.500 287.167 C 742.242 288.969, 739.022 292.226, 739.590 293.145 C 740.393 294.445, 743.351 294.170, 746.735 292.482 C 752.567 289.573, 759.693 295.278, 758.624 302 C 757.778 307.323, 753.734 310.343, 748.276 309.728 C 743.553 309.195, 740 306.716, 740 303.952 C 740 302.349, 738.134 301, 735.918 301 C 735.413 301, 735 303.009, 735 305.465 C 735 311.237, 739.264 316.449, 745.341 318.105 C 753.879 320.432, 774.718 317.455, 778.057 313.431 C 780.472 310.521, 769.031 292.937, 761.500 287.986 C 758.120 285.763, 748.892 285.291, 745.500 287.167 M 237.500 293.907 C 231.753 297.228, 221.702 306.741, 219.555 310.893 C 218.176 313.560, 218.245 313.860, 220.798 316.305 C 225.902 321.193, 232.507 323.308, 244 323.737 C 256.073 324.186, 259.845 322.918, 263.730 317.102 C 266.040 313.644, 266.850 307, 264.960 307 C 264.389 307, 262.156 308.800, 260 311 C 256.683 314.384, 255.445 315, 251.963 315 C 242.609 315, 238.593 303.902, 245.913 298.282 C 248.093 296.608, 254.086 296.751, 256.441 298.532 C 258.525 300.108, 262 300.520, 262 299.191 C 262 297.702, 259.532 295.193, 256 293.091 C 250.774 289.980, 243.762 290.290, 237.500 293.907 M 838 304.098 C 831.804 306.618, 827.624 312.791, 824.112 324.608 C 821.572 333.157, 821.402 337.557, 823.582 338.393 C 826.714 339.595, 840.792 338.985, 845.124 337.459 C 854.204 334.262, 860 328.452, 860 322.550 C 860 318.993, 858.223 319.361, 853 324 C 849.225 327.353, 847.802 327.997, 844.173 327.999 C 840.723 328, 839.254 327.408, 836.923 325.077 C 833.143 321.297, 833.195 317.987, 837.104 313.535 C 840.383 309.800, 844.165 308.947, 848.104 311.055 C 850.638 312.412, 854.206 311.295, 853.807 309.271 C 853.014 305.246, 843.130 302.011, 838 304.098 M 153.250 306.436 C 151.463 307.243, 150 308.139, 150 308.426 C 150 309.740, 155.813 311.758, 158.254 311.292 C 160.409 310.880, 161.701 311.501, 164.486 314.286 C 168.592 318.392, 169.203 323.293, 166.088 327.139 C 164.486 329.118, 163.259 329.500, 158.508 329.500 C 152.017 329.500, 150.560 328.272, 149.482 321.895 C 148.677 317.127, 145.650 314.916, 144.042 317.922 C 142.286 321.202, 142.809 327.922, 145.065 331.092 C 149.684 337.577, 162.379 341.788, 174.110 340.724 C 177.436 340.422, 180.445 339.888, 180.796 339.537 C 181.932 338.402, 178.291 323.468, 175.479 317.726 C 171.452 309.501, 167.220 305.804, 161.307 305.342 C 158.441 305.119, 155.187 305.560, 153.250 306.436 M 690.939 323.643 C 683.898 328.016, 682.130 336.525, 686.397 345.500 C 689.618 352.276, 699.511 364, 702.007 364 C 704.670 364, 712.501 353.891, 715.012 347.212 C 718.717 337.358, 716.928 327.172, 710.926 323.961 C 709.205 323.039, 708.564 323.079, 707.883 324.147 C 707.409 324.891, 707.283 326.175, 707.603 327 C 707.923 327.825, 708.421 330.975, 708.708 334 C 709.185 339.015, 708.988 339.743, 706.479 342.250 C 700.266 348.459, 691 344.657, 691 335.899 C 691 331.888, 692.979 329.001, 697.487 326.436 C 699.969 325.024, 698.796 321.991, 695.781 322.027 C 694.527 322.041, 692.348 322.769, 690.939 323.643 M 596.842 324.389 C 584.137 327.811, 576.253 335.094, 534.199 382.250 C 523.040 394.762, 513.589 405, 513.196 405 C 512.803 405, 511.916 404.094, 511.224 402.988 C 510.100 401.187, 509.732 401.122, 507.734 402.369 C 503.788 404.830, 500.529 405.054, 496.743 403.124 C 493.246 401.341, 493.101 401.343, 491.249 403.196 C 489.379 405.066, 488.954 404.658, 466.321 379.299 C 432.485 341.386, 422.968 332.022, 413.780 327.602 C 407.713 324.684, 405.137 324, 400.222 324 C 395.167 324, 393.644 324.428, 391.106 326.564 C 386.612 330.346, 384.370 341.086, 387.035 346.066 C 388.757 349.284, 390.729 348.302, 395.991 341.607 C 399.035 337.733, 402.050 334.953, 403.640 334.554 C 408.713 333.281, 415.857 338.066, 428.657 351.310 C 442.748 365.890, 477.868 405.101, 480 408.634 C 481.354 410.878, 481.337 411.212, 479.825 412.068 C 477.724 413.257, 476.357 417.661, 475.510 425.972 C 474.822 432.722, 472.652 437.674, 470.034 438.468 C 469.190 438.724, 449.600 443.710, 426.500 449.548 C 368.278 464.262, 339.143 472.645, 291 488.534 C 235.326 506.908, 214.913 515.015, 178.826 533.083 C 142.237 551.402, 93.369 581.416, 62.500 604.529 C 49.710 614.105, 27.597 636.313, 17.720 649.500 C 9.908 659.930, 3.432 672.366, 2.100 679.492 C 1.028 685.232, 2.204 699.067, 4.377 706.269 C 9.276 722.509, 31.734 741.149, 52.669 746.353 C 62.255 748.735, 70.017 749.131, 84.123 747.957 C 109.923 745.809, 117.535 745.419, 121.642 746.032 C 125.231 746.568, 127.524 748.296, 138.793 758.957 C 154.815 774.114, 160.934 778.463, 177.500 786.471 C 196.120 795.471, 209.455 799.489, 252.238 808.995 C 263.763 811.556, 264.080 811.880, 268.915 826 C 272.410 836.207, 283.789 859.057, 289.809 867.956 C 294.135 874.351, 300.611 878.945, 317.645 887.701 C 343.216 900.847, 374.390 912.537, 392 915.586 C 403.497 917.576, 428.846 917.016, 438.824 914.551 C 451.459 911.430, 474.982 900.853, 487.958 892.458 C 499.885 884.743, 500.666 884.574, 507.591 888.199 C 510.841 889.900, 515.300 892.518, 517.500 894.016 C 523.636 898.196, 540.416 906.342, 551.143 910.350 C 564.211 915.232, 575.667 917.138, 592 917.145 C 603.694 917.151, 607.106 916.749, 617.500 914.144 C 643.580 907.608, 682.194 891.207, 702.062 878.226 C 708.528 874.002, 710.394 872.086, 714.934 865.008 C 721.588 854.636, 730.888 835.347, 735.039 823.311 C 736.782 818.257, 738.993 813.411, 739.952 812.543 C 740.918 811.669, 750.799 808.921, 762.098 806.384 C 797.535 798.426, 813.847 793.037, 832 783.290 C 845.334 776.131, 850.745 772.044, 864.731 758.570 L 877.779 746 888.677 746 C 894.672 746, 904.959 746.671, 911.538 747.492 C 932.385 750.092, 945.739 748.967, 959.269 743.469 C 972.626 738.041, 990.348 723.214, 995.377 713.259 C 999.376 705.342, 1001.220 695.928, 1000.834 685.401 C 1000.522 676.891, 1000.198 675.695, 995.827 666.901 C 989.384 653.936, 980.088 641.977, 963.560 625.390 C 947.946 609.720, 937.951 601.940, 908.500 582.529 C 866.071 554.565, 837.296 538.618, 793.500 518.800 C 771.923 509.036, 755.673 502.971, 716.357 490.007 C 665.810 473.339, 639.579 465.715, 583.500 451.391 C 558.750 445.069, 536.816 439.454, 534.757 438.912 C 529.864 437.624, 527.995 433.967, 527.259 424.242 C 526.778 417.886, 526.257 416.223, 523.901 413.540 L 521.113 410.364 543.260 385.432 C 570.362 354.923, 586.064 339.022, 591.821 336.256 C 597.034 333.752, 601.426 334.555, 604.500 338.574 C 612.043 348.435, 615.389 349.773, 616.584 343.403 C 618.011 335.799, 614.122 326.785, 608.380 324.385 C 604.435 322.737, 602.975 322.738, 596.842 324.389 M 291.316 328.945 C 285.451 331.606, 283.624 335.499, 284.235 344.034 C 284.568 348.695, 285.516 352.178, 287.388 355.616 C 290.288 360.946, 297.617 370, 299.029 370 C 300.660 370, 312.221 355.527, 314.607 350.500 C 317.166 345.109, 317.674 339.181, 315.878 335.684 C 314.228 332.473, 309.825 328, 308.313 328 C 306.535 328, 306.682 332.995, 308.532 335.441 C 311.084 338.816, 310.401 344.753, 307.077 348.077 C 305.469 349.685, 303.197 351, 302.027 351 C 296.709 351, 291 345.314, 291 340.016 C 291 338.871, 292.600 336.333, 294.556 334.377 C 297.911 331.022, 298.735 328.048, 296.500 327.356 C 295.950 327.186, 293.617 327.901, 291.316 328.945 M 890.299 328.960 C 883.938 332.838, 882.167 341.486, 886.138 349.271 C 887.315 351.577, 891.978 357.223, 896.502 361.819 C 906.787 372.267, 908.071 372.361, 912.746 363 C 917.558 353.365, 919.490 344.532, 917.997 338.990 C 916.723 334.257, 910.440 327, 907.618 327 C 905.409 327, 905.577 328.298, 908.500 333.788 C 911.621 339.650, 911.622 341.107, 908.511 344.805 C 903.757 350.454, 895.241 349.215, 892.420 342.463 C 890.752 338.472, 891.249 335.574, 894.143 332.405 C 895.268 331.174, 895.795 329.629, 895.421 328.655 C 894.616 326.557, 894.199 326.582, 890.299 328.960 M 91.898 330.258 C 86.716 333.701, 83.750 340.249, 84.314 347 C 84.773 352.501, 89.779 366.845, 92.470 370.371 C 94.696 373.288, 98.254 371.723, 105.307 364.727 C 112.575 357.517, 117.707 350.080, 118.563 345.515 C 119.547 340.270, 117.394 334.402, 113.355 331.322 C 109.929 328.708, 109.715 328.670, 108.424 330.435 C 107.263 332.023, 107.348 332.627, 109.037 334.775 C 113.757 340.775, 109.190 350, 101.500 350 C 98.795 350, 97.087 349.241, 94.923 347.077 C 90.639 342.792, 90.955 338.945, 96 334 C 98.200 331.844, 100 329.611, 100 329.040 C 100 327.227, 95.423 327.916, 91.898 330.258 M 789.082 395.644 C 784.002 401.415, 778.338 412.562, 777.439 418.559 C 776.673 423.665, 778.774 430.581, 781.970 433.473 C 784.166 435.460, 790.093 436.049, 790.697 434.340 C 790.922 433.702, 789.845 432.010, 788.303 430.580 C 786.049 428.490, 785.500 427.117, 785.500 423.571 C 785.500 417.366, 788.742 414, 794.720 414 C 803.061 414, 806.768 421.556, 801.500 427.818 C 799.155 430.604, 798.083 435.005, 799.750 434.996 C 802.028 434.985, 807.190 430.547, 808.960 427.079 C 811.865 421.384, 811.570 415.904, 807.965 408.580 C 804.358 401.253, 796.546 391, 794.570 391 C 793.800 391, 791.330 393.090, 789.082 395.644 M 202.793 397.885 C 197.975 403.245, 192.593 412.710, 191.546 417.666 C 190.558 422.347, 192.721 428.921, 196.490 432.690 C 198.310 434.510, 200.309 436, 200.931 436 C 203.093 436, 203.179 433.044, 201.096 430.395 C 196.061 423.995, 200.082 415.545, 208.163 415.545 C 213.672 415.545, 217 419.289, 217 425.488 C 217 429.209, 216.551 430.184, 214 432 C 210.841 434.249, 209.924 438, 212.532 438 C 215.884 438, 221.066 434.945, 223.031 431.810 C 226.235 426.699, 225.412 417.506, 220.953 408.615 C 217.262 401.257, 210.682 393, 208.508 393 C 207.780 393, 205.209 395.198, 202.793 397.885 M 487 435 C 485.900 436.100, 485 437.675, 485 438.500 C 485 440.571, 488.616 444, 490.800 444 C 493.467 444, 495 441.992, 495 438.500 C 495 433.045, 490.795 431.205, 487 435 M 509.750 434.080 C 507.608 435.328, 507.377 441.238, 509.404 442.921 C 511.396 444.573, 516.001 443.170, 516.948 440.622 C 517.887 438.097, 517.290 435.959, 515.169 434.250 C 513.315 432.756, 512.089 432.718, 509.750 434.080 M 727.212 438.962 C 718.687 441.263, 718 441.613, 718 443.656 C 718 446.686, 726.549 461.580, 730.646 465.688 C 737.403 472.462, 745.541 473.295, 752.384 467.912 C 755.594 465.388, 755.647 464.616, 752.704 463.275 C 750.985 462.492, 749.931 462.577, 748.513 463.614 C 746.048 465.417, 742.620 465.372, 738.980 463.490 C 733.367 460.587, 732.244 454.029, 736.612 449.661 C 741.947 444.326, 749.897 445.539, 752.161 452.033 C 753.170 454.926, 756.102 456.673, 757.991 455.506 C 758.546 455.163, 759 453.536, 759 451.891 C 759 440.498, 744.051 434.418, 727.212 438.962 M 254.500 440.434 C 252.300 441.250, 249.037 443.504, 247.250 445.444 C 244.597 448.322, 244 449.790, 244 453.426 C 244 455.877, 244.441 458.154, 244.979 458.487 C 246.744 459.578, 249.824 457.079, 250.498 454.010 C 252.240 446.076, 264.756 446.169, 268.058 454.140 C 270.657 460.415, 264.028 467.687, 256.820 466.470 C 252.776 465.786, 249 466.565, 249 468.082 C 249 470.009, 255.557 472.993, 259.800 472.996 C 265.310 473.001, 268.893 471.108, 273.469 465.776 C 277.791 460.739, 285.525 445.658, 284.574 444.120 C 282.363 440.542, 261.207 437.949, 254.500 440.434 M 837.326 445.360 C 831.402 448.197, 829.049 451.214, 828.278 456.962 C 827.766 460.778, 827.879 461, 830.321 461 C 832.272 461, 833.297 460.175, 834.501 457.639 C 838.107 450.040, 849.139 450.102, 851.733 457.734 C 854.101 464.701, 848.549 470.874, 841.118 469.537 C 836.120 468.638, 832.082 468.584, 831.261 469.406 C 830.114 470.552, 832.461 473.364, 836.596 475.798 C 841.311 478.573, 848.531 478.318, 854.622 475.161 C 858.642 473.078, 871.062 460.902, 874.885 455.296 L 877.070 452.092 874.711 450.546 C 870.105 447.528, 857.458 443.856, 850 443.370 C 843.473 442.945, 841.829 443.203, 837.326 445.360 M 144.920 445.972 C 137.042 447.950, 126 452.386, 126 453.573 C 126 455, 136.229 467.974, 140.138 471.506 C 145.894 476.706, 151.385 478.952, 158.406 478.978 C 163.254 478.996, 164.925 478.532, 167.740 476.385 C 172.204 472.980, 170.837 471.546, 163.294 471.722 C 157.101 471.867, 154.436 470.922, 151.772 467.633 C 147.460 462.310, 151.643 454.102, 158.703 454.032 C 163.880 453.980, 166.893 455.912, 168.143 460.083 C 169.207 463.634, 172.080 465.687, 174.174 464.393 C 175.664 463.471, 175.040 457.998, 172.984 453.969 C 171.562 451.181, 169.565 449.307, 166.203 447.603 C 159.387 444.149, 153.868 443.726, 144.920 445.972 M 482.557 453.223 C 479.194 458.024, 481.772 464, 487.206 464 C 490.564 464, 492.400 461.627, 492.400 457.289 C 492.400 451.384, 485.765 448.642, 482.557 453.223 M 512 453 C 508.072 456.928, 510.643 464, 516 464 C 517.849 464, 519.446 463.201, 520.443 461.777 C 525.099 455.130, 517.633 447.367, 512 453 M 429 467.133 C 403.078 471.642, 348.399 491.975, 301.500 514.546 C 292.700 518.781, 274.329 527.566, 260.675 534.067 C 230.860 548.264, 227.320 550.438, 222.704 557.391 C 217.272 565.572, 210.849 578.931, 211.193 581.333 C 211.362 582.514, 212.674 584.042, 214.109 584.728 C 218.059 586.615, 239.047 588.187, 262.500 588.352 L 283.500 588.500 302 581.186 C 312.175 577.163, 324.100 572.134, 328.500 570.010 C 339.561 564.672, 365.165 549.062, 414.500 517.578 C 472.891 480.315, 469.496 482.630, 470.972 479.067 C 472.679 474.946, 471.359 470.358, 467.672 467.602 C 463.631 464.580, 444.975 464.354, 429 467.133 M 537.014 466.752 C 530.314 470.112, 529.064 477.107, 534.278 482.067 C 537.778 485.398, 618.522 537.146, 648.500 555.271 C 671.468 569.158, 675.312 571.068, 699.500 580.610 L 719.500 588.500 740.500 588.354 C 763.563 588.195, 783.702 586.569, 788.750 584.460 C 793.232 582.587, 792.978 580.497, 786.881 569.083 C 776.979 550.546, 780.192 552.995, 739.500 532.967 C 675.458 501.445, 653.334 491.896, 611.433 477.693 C 592.070 471.129, 583.409 468.718, 573.372 467.098 C 556.957 464.448, 541.893 464.304, 537.014 466.752 M 787.923 467.923 C 781.704 474.142, 785.879 485, 794.489 485 C 799.176 485, 801.611 483.653, 803.490 480.020 C 807.308 472.636, 802.992 465, 795 465 C 791.742 465, 790.216 465.631, 787.923 467.923 M 202.535 469.104 C 197.873 473.197, 197.605 478.408, 201.816 483.121 C 204.162 485.746, 205.363 486.273, 209 486.273 C 212.637 486.273, 213.838 485.746, 216.184 483.121 C 222.218 476.367, 217.617 466, 208.584 466 C 207.197 466, 204.484 467.392, 202.535 469.104 M 479 473 C 476.438 475.562, 476.457 478.457, 479.051 481.051 C 481.317 483.317, 484.588 482.959, 486.750 480.208 C 488.421 478.082, 488.325 475.910, 486.443 473.223 C 484.511 470.464, 481.623 470.377, 479 473 M 516.557 473.223 C 514.462 476.214, 514.597 478.597, 517 481 C 519.311 483.311, 520.953 483.508, 523.254 481.750 C 526.054 479.612, 526.453 475.453, 524.087 473.087 C 521.383 470.383, 518.509 470.435, 516.557 473.223 M 782.750 495.943 C 781.237 498.075, 780 500.306, 780 500.900 C 780 502.333, 797.728 511.199, 799.797 510.801 C 803.042 510.176, 804.088 498.894, 801.228 495.374 C 799.875 493.709, 797.981 493.119, 792.500 492.657 L 785.500 492.067 782.750 495.943 M 209.285 493.797 C 203.661 494.065, 202.864 494.382, 200.910 497.127 C 199.157 499.588, 198.866 501.009, 199.367 504.663 C 200.092 509.948, 200.618 511, 202.541 511 C 204.607 511, 221.293 503.144, 222.141 501.772 C 222.978 500.418, 219.629 495.338, 217.180 494.248 C 216.256 493.837, 212.703 493.634, 209.285 493.797 M 446 508.194 C 434.725 515.918, 416.275 528.775, 405 536.764 C 393.725 544.754, 380.127 554.385, 374.783 558.167 C 369.055 562.221, 363.882 566.779, 362.181 569.272 C 360.594 571.597, 356.704 580.475, 353.537 589 C 350.369 597.525, 343.977 613.275, 339.333 624 C 334.689 634.725, 325.552 656.325, 319.029 672 C 312.506 687.675, 304.255 706.575, 300.693 714 C 293.761 728.452, 291.398 734.989, 292.279 737.283 C 292.581 738.072, 294.697 739.016, 296.980 739.381 C 300.723 739.979, 301.331 740.494, 303.147 744.599 C 304.658 748.014, 305.567 748.996, 306.785 748.529 C 309.814 747.367, 317 746.723, 317.004 747.614 C 317.006 748.101, 317.935 750.022, 319.070 751.882 L 321.132 755.265 324.657 751.882 C 336.578 740.447, 349.895 719.142, 369.402 680.299 C 387.182 644.896, 417.710 592.662, 431.157 574.634 C 449.384 550.197, 452.060 545.639, 461.014 523.783 C 469.541 502.966, 471.473 494.825, 468 494.354 C 467.175 494.242, 457.275 500.470, 446 508.194 M 477.035 495.934 C 474.516 500.641, 476.849 506, 481.416 506 C 486.322 506, 488.864 498.997, 485.171 495.655 C 482.664 493.386, 478.319 493.535, 477.035 495.934 M 518.223 495.557 C 515.478 497.479, 515.274 502.033, 517.829 504.345 C 523.043 509.064, 529.448 502.443, 525.965 495.934 C 524.716 493.601, 521.256 493.432, 518.223 495.557 M 533 498.082 C 533 500.798, 535.031 507.074, 539.067 516.832 C 542.403 524.899, 546.339 534.414, 547.812 537.975 C 551.174 546.099, 554.728 551.592, 569.182 571 C 579.431 584.762, 590.551 602.781, 617.221 648.839 C 619.877 653.425, 628.093 669.175, 635.479 683.839 C 649.720 712.111, 659.829 729.885, 665.838 737.219 C 667.852 739.677, 671.637 744.458, 674.249 747.844 C 679.878 755.141, 682.217 755.709, 684.751 750.396 C 686.398 746.942, 686.636 746.818, 690.485 747.404 C 692.693 747.740, 695.349 748.125, 696.387 748.258 C 697.745 748.432, 698.608 747.520, 699.470 745 C 700.723 741.339, 703.915 739.040, 707.781 739.015 C 712.994 738.981, 711.757 733.824, 701.298 712 C 697.739 704.575, 690.189 687.250, 684.519 673.500 C 678.849 659.750, 671.426 642.215, 668.023 634.533 C 660.067 616.573, 652.011 596.825, 648.143 585.800 C 642.417 569.476, 640.077 566.393, 625.870 556.449 C 621.267 553.226, 606.250 542.655, 592.500 532.957 C 560.529 510.407, 536.031 494, 534.331 494 C 533.440 494, 533 495.350, 533 498.082 M 277.500 502.950 C 268.014 506.373, 261.381 509.726, 257.696 512.962 C 253.722 516.451, 253.063 518.977, 255.581 521.067 C 259.872 524.628, 288.465 513.105, 292.075 506.360 C 294.889 501.101, 287.448 499.361, 277.500 502.950 M 710.921 502.595 C 708.400 505.633, 711.678 509.090, 721.936 514.209 C 733.260 519.859, 745.062 523.023, 747.443 521.047 C 751.297 517.848, 748.113 513.593, 738.088 508.544 C 724.338 501.620, 713.669 499.284, 710.921 502.595 M 818.702 505.631 C 817.544 506.790, 820.042 510, 822.101 510 C 825.382 510, 828.069 511.934, 829.493 515.322 C 830.612 517.982, 830.599 519.025, 829.412 521.865 C 828.635 523.724, 828 525.407, 828 525.605 C 828 526.172, 837.814 531, 838.967 531 C 840.234 531, 840.277 523.901, 839.043 518.577 C 837.857 513.465, 835.230 510.025, 830.406 507.266 C 826.728 505.163, 820.096 504.237, 818.702 505.631 M 170.751 509.750 C 168.787 511.262, 166.408 513.789, 165.465 515.365 C 163.782 518.179, 162.084 531, 163.395 531 C 164.542 531, 171.283 528.010, 172.600 526.917 C 173.535 526.141, 173.590 525.123, 172.818 522.908 C 171.372 518.759, 173.290 514.520, 177.336 512.921 C 180.858 511.529, 184 509.136, 184 507.845 C 184 507.380, 181.822 507, 179.161 507 C 175.415 507, 173.516 507.621, 170.751 509.750 M 178.340 556.387 C 164.529 563.110, 159.360 568.564, 163.524 572.020 C 165.532 573.686, 177.612 572.761, 184.847 570.388 C 191.135 568.325, 192.842 566.130, 193.683 559.029 C 194.699 550.452, 191.624 549.922, 178.340 556.387 M 809.667 552.667 C 808.363 553.970, 809.030 561.555, 810.752 565 C 812.690 568.880, 814.928 569.887, 827.129 572.368 C 835.495 574.068, 839.669 573.620, 840.523 570.927 C 841.831 566.807, 836.198 561.892, 822.821 555.482 C 815.960 552.193, 811.166 551.167, 809.667 552.667 M 129.649 571.976 C 122.354 576.249, 112.238 583.977, 107.814 588.658 C 104.304 592.371, 103.140 595.644, 102.365 603.980 L 101.728 610.837 106.357 611.531 C 112.972 612.523, 116.450 611.600, 125.500 606.448 C 139.621 598.411, 139.420 598.684, 140 586.766 C 140.615 574.148, 140.017 568.615, 138 568.241 C 137.175 568.089, 133.417 569.769, 129.649 571.976 M 862.756 571.497 C 862.233 574.230, 862.833 592.159, 863.566 595.721 C 864.432 599.925, 885.037 612, 891.346 612 C 893.218 612, 896.156 611.719, 897.875 611.375 C 900.693 610.811, 901 610.390, 901 607.085 C 901 600.386, 898.113 591.721, 894.710 588.205 C 886.836 580.071, 869.796 569, 865.150 569 C 863.900 569, 863.067 569.869, 862.756 571.497 M 185.117 575.643 C 176.071 577.422, 171.280 579.778, 167.155 584.476 C 159.436 593.268, 167.096 597.277, 184.188 593.389 C 193.255 591.327, 197.858 587.477, 198.692 581.259 C 199.339 576.437, 197.926 573.947, 194.628 574.095 C 193.457 574.148, 189.178 574.844, 185.117 575.643 M 804.575 575.568 C 802.641 577.502, 803.143 581.641, 805.901 586.500 C 807.918 590.055, 816.984 593.715, 826.139 594.672 C 835.321 595.632, 840.786 592.205, 838.094 587.175 C 834.837 581.090, 824.470 576.107, 811.877 574.573 C 807.316 574.017, 805.938 574.205, 804.575 575.568 M 460.346 581.250 C 446.840 595.935, 387.032 682.921, 384.378 691.739 C 382.833 696.873, 383.170 700.268, 386.611 714.192 C 390.246 728.904, 390.478 729.354, 394.068 728.636 C 401.377 727.175, 413.948 716.047, 418.473 707.034 C 427.379 689.295, 466.854 584.482, 466.976 578.250 C 467.024 575.789, 464.189 577.072, 460.346 581.250 M 536.379 580.970 C 538.334 593.197, 580.481 702.068, 586.758 711.107 C 590.939 717.128, 595.425 721.226, 602.441 725.435 C 611.926 731.126, 611.956 731.102, 616.481 714 C 619.672 701.943, 619.806 692.984, 616.878 687.485 C 614.238 682.524, 577.302 627.220, 567.133 613 C 558.789 601.331, 541.252 578.908, 539.577 577.765 C 536.821 575.886, 535.740 576.970, 536.379 580.970 M 476.019 586.250 C 474.022 590.793, 458.266 643.172, 454.887 656.500 C 453.772 660.900, 451.116 670.350, 448.986 677.500 C 446.856 684.650, 444.827 692.111, 444.477 694.080 C 443.725 698.315, 446.063 719.607, 449.544 740.223 C 450.911 748.321, 453.375 764.411, 455.020 775.978 C 458.043 797.237, 461.827 812.015, 465.971 818.750 C 467.932 821.937, 468.110 822, 475.235 821.986 C 479.231 821.979, 483.492 821.707, 484.703 821.382 C 488.375 820.397, 490.436 816.166, 490.310 809.868 C 490.181 803.382, 488.216 798.446, 481.024 786.540 C 473.163 773.526, 470.096 766.173, 468.790 757.214 C 467.686 749.640, 467.861 747.218, 471.319 722.288 C 475.481 692.280, 477.268 675.731, 479.502 646.500 C 480.342 635.500, 481.753 620.875, 482.637 614 C 485.671 590.389, 481.637 573.472, 476.019 586.250 M 520.932 584.127 C 518.945 587.840, 518.686 600.942, 520.342 614 C 521.214 620.875, 522.415 633.250, 523.011 641.500 C 525.088 670.237, 528.122 698.633, 531.237 718.500 C 536.877 754.457, 535.768 762.948, 522.521 785.238 C 513.519 800.386, 510.902 808.393, 512.841 814.862 C 513.695 817.714, 514.976 819.453, 516.989 820.494 C 520.286 822.199, 532.103 822.550, 534.948 821.028 C 538.934 818.895, 544.788 799.102, 547.526 778.500 C 548.404 771.900, 550.859 755.475, 552.983 742 C 558.879 704.592, 559.436 698.643, 557.709 691.500 C 553.540 674.255, 529.177 591.355, 526.777 586.250 C 524.577 581.568, 522.672 580.876, 520.932 584.127 M 319.500 590.872 C 294.878 600.212, 294.595 600.347, 291.738 604.144 C 288.010 609.096, 258.173 656.042, 247.817 673.250 C 233.393 697.216, 230.222 705.204, 232.636 711.495 C 233.662 714.167, 237.686 715.174, 242.079 713.858 C 245.710 712.770, 246.141 712.869, 248.619 715.347 C 251.722 718.450, 257.813 718.940, 263.538 716.549 C 266.772 715.197, 267.372 715.265, 272.256 717.539 C 279.108 720.729, 280.420 720.636, 283.345 716.750 C 286.100 713.090, 303.185 679.224, 312.207 659.541 C 323.851 634.136, 341.065 592.837, 342.547 586.750 C 343.160 584.232, 342.975 584.002, 340.358 584.022 C 338.786 584.034, 329.400 587.117, 319.500 590.872 M 660 585.946 C 660 594.535, 711.628 708.753, 719.804 718.250 C 721.801 720.571, 723.492 720.450, 729.744 717.539 C 734.628 715.265, 735.228 715.197, 738.462 716.549 C 743.927 718.832, 749.771 718.412, 753.644 715.458 C 756.668 713.151, 757.347 713.016, 760.984 713.996 C 771.051 716.706, 773.427 707.700, 766.345 693.675 C 762.229 685.525, 750.351 666.042, 729.142 632.655 C 712.916 607.112, 708.943 601.502, 706.024 600.017 C 700.485 597.199, 667.129 584.895, 663.378 584.286 C 660.395 583.802, 660 583.997, 660 585.946 M 184.103 602.177 C 180.242 603.660, 176.616 606.307, 171.353 611.484 C 164.887 617.846, 164 619.159, 164 622.360 C 164 625.370, 164.357 626, 166.063 626 C 172.007 626, 189.039 613.693, 192.585 606.836 C 194.340 603.441, 193.624 599.976, 191.183 600.052 C 190.257 600.081, 187.072 601.037, 184.103 602.177 M 809.561 601.807 C 808.520 605.088, 810.560 608.420, 817.513 614.791 C 824.480 621.175, 832.738 626, 836.696 626 C 838.499 626, 839 625.445, 839 623.450 C 839 619.512, 836.603 615.751, 830.586 610.252 C 824.908 605.064, 818.872 601.660, 813.337 600.527 C 810.760 599.999, 810.060 600.237, 809.561 601.807 M 226.390 604.719 L 219.280 605.082 208.890 613.719 C 190.143 629.302, 179.421 641.524, 176.789 650.310 C 175.055 656.097, 177.100 676.862, 180.164 684.585 C 183.503 693, 184.262 693.237, 204.169 692.095 C 213.151 691.579, 221.175 690.889, 222 690.561 C 223.708 689.881, 228.096 683.178, 236.798 667.954 C 240.113 662.153, 248.961 647.802, 256.461 636.062 C 274.767 607.402, 274.685 607.575, 270.750 606.116 C 268.168 605.159, 237 604.178, 226.390 604.719 M 742.173 604.967 C 736.493 605.400, 731.345 606.255, 730.733 606.867 C 729.137 608.463, 730.767 611.489, 746.772 636.646 C 754.420 648.666, 764.320 664.800, 768.774 672.500 C 773.227 680.200, 777.772 687.464, 778.874 688.642 C 781.019 690.936, 784.042 691.382, 805 692.499 C 818.436 693.215, 819.732 692.595, 822.801 683.993 C 825.938 675.203, 827.746 657.261, 826.118 651.089 C 824.500 644.959, 819.552 637.664, 811.661 629.772 C 804.715 622.826, 789.127 609.366, 785 606.751 C 781.906 604.790, 757.725 603.783, 742.173 604.967 M 135.601 613.947 C 132.520 615.567, 127.525 618.536, 124.500 620.544 L 119 624.194 119 630.597 L 119 637 123.804 637 C 129.362 637, 134.917 633.922, 141.721 627.072 C 146.331 622.431, 147.750 618.103, 146.091 613.740 C 144.748 610.208, 142.629 610.250, 135.601 613.947 M 857.092 612.828 C 854.379 617.898, 856.632 623.941, 863.234 629.307 C 870.588 635.282, 874.149 636.992, 879.250 636.996 L 884 637 884 631.089 C 884 625.714, 883.720 624.943, 880.920 622.586 C 876.165 618.585, 864.807 612.111, 861.318 611.414 C 858.804 610.911, 857.968 611.190, 857.092 612.828 M 82.500 630.695 C 76.585 633.880, 58.389 647.970, 52.649 653.810 C 47.634 658.912, 46.526 660.742, 44.899 666.610 C 43.854 670.376, 43 674.929, 43 676.728 C 43 679.560, 43.340 680, 45.525 680 C 55.026 680, 93.369 651.348, 95.562 642.609 C 96.462 639.023, 95.472 635.715, 92.411 632.077 C 89.518 628.639, 86.977 628.285, 82.500 630.695 M 910.661 631.612 C 907.866 634.407, 906.416 639.536, 907.359 643.293 C 909.141 650.393, 944.876 677.761, 954.795 679.621 C 959.860 680.572, 960.571 679.221, 959.127 671.384 C 958.452 667.721, 957.045 663.049, 956.002 661.003 C 953.646 656.385, 942.142 645.630, 931.341 637.949 C 917.439 628.061, 914.969 627.304, 910.661 631.612 M 102.500 648.643 C 96.765 651.851, 82.168 663.045, 78.969 666.688 C 75.200 670.981, 73.379 674.953, 70.870 684.354 C 68.776 692.202, 69.389 694.487, 73.854 695.468 C 79.684 696.748, 85.113 694.276, 95.049 685.816 C 115.712 668.222, 116.889 667.061, 117.956 663.220 C 119.395 658.038, 119.254 651.729, 117.650 649.536 C 115.738 646.921, 106.548 646.379, 102.500 648.643 M 887 648.309 C 884.663 649.504, 884.503 650.077, 884.541 657.076 C 884.567 661.969, 885.087 665.282, 886.041 666.636 C 886.843 667.775, 892 672.461, 897.500 677.049 C 903 681.637, 909.647 687.293, 912.271 689.617 C 917.514 694.262, 924.505 696.490, 929.592 695.139 C 932.104 694.472, 932.539 693.831, 932.786 690.433 C 933.144 685.510, 928.944 672.927, 925.386 668.262 C 922.374 664.313, 904.115 650.388, 899.282 648.354 C 895.256 646.660, 890.259 646.641, 887 648.309 M 118.363 677.922 C 110.694 681.405, 103 689.852, 103 694.790 C 103 698.224, 110.043 700.075, 115.383 698.045 C 120.951 695.928, 129 686.742, 129 682.504 C 129 680.860, 124.708 675.983, 123.295 676.022 C 122.858 676.034, 120.638 676.889, 118.363 677.922 M 874.852 679.426 C 873.242 682.960, 874.520 686.524, 879.232 691.636 C 885.779 698.738, 891.331 700.629, 897.453 697.839 C 901.894 695.816, 900.128 690.059, 893.124 683.731 C 887.843 678.960, 883.884 677, 879.528 677 C 876.718 677, 875.721 677.517, 874.852 679.426 M 20 682.273 C 18.625 682.956, 16.654 685.244, 15.621 687.356 C 14.036 690.595, 13.918 691.782, 14.866 694.946 C 16.171 699.304, 20.167 704, 22.570 704 C 25.310 704, 32 696.599, 32 693.568 C 32 690.032, 29.659 685.664, 26.385 683.088 C 23.288 680.652, 23.265 680.649, 20 682.273 M 979 681.709 C 976.410 682.662, 973.856 685.364, 971.871 689.255 C 970.128 692.669, 970.089 693.272, 971.441 695.886 C 973.347 699.572, 978.598 704, 981.063 704 C 983.152 704, 987.730 697.767, 988.040 694.500 C 988.541 689.228, 987.825 686.671, 985.077 683.923 C 982.084 680.931, 981.599 680.754, 979 681.709 M 490.750 686.735 C 488.137 686.941, 486 687.560, 486 688.111 C 486 688.662, 488.098 690.041, 490.663 691.175 C 494.453 692.852, 496.748 693.154, 502.913 692.788 C 510.049 692.364, 517 690.058, 517 688.114 C 517 686.390, 503.868 685.701, 490.750 686.735 M 143.631 696.055 C 137.738 701.440, 136.472 703.759, 137.401 707.460 C 138.212 710.692, 144.707 713.231, 149.007 711.998 C 153.214 710.791, 154.745 709.420, 157.152 704.701 C 159.387 700.320, 159.098 697.666, 155.949 693.662 C 152.841 689.711, 149.960 690.270, 143.631 696.055 M 847 693.230 C 843.785 696.681, 843.470 699.729, 845.825 704.577 C 849.436 712.009, 855.767 714.240, 862.850 710.578 C 867.974 707.928, 867.251 704.213, 860.201 696.963 C 853.737 690.316, 850.554 689.416, 847 693.230 M 35.104 706.535 C 31.151 711.036, 31.199 713.009, 35.368 717.429 C 39.028 721.309, 41.537 721.808, 45.941 719.530 C 51.651 716.578, 51.714 709.071, 46.060 705.261 C 41.353 702.089, 38.740 702.393, 35.104 706.535 M 195.500 704.850 C 190.044 708.201, 184 715.651, 184 719.025 C 184 726.037, 194.935 730.293, 200.909 725.606 C 203.024 723.946, 206.979 714.892, 206.990 711.684 C 207.017 704.068, 201.813 700.973, 195.500 704.850 M 798.174 705.314 C 795.264 708.413, 795.355 713.794, 798.422 719.846 C 801.151 725.231, 802.610 726.710, 805.500 727.018 C 811.028 727.606, 814.228 726.863, 816.664 724.427 C 820.362 720.729, 819.405 716.019, 813.784 710.242 C 806.485 702.741, 801.940 701.306, 798.174 705.314 M 956.362 705.496 C 954.637 706.856, 952.939 709.105, 952.591 710.493 C 951.207 716.007, 957.697 722.046, 963.453 720.601 C 965.906 719.985, 971 713.710, 971 711.303 C 971 710.624, 969.603 708.479, 967.896 706.535 C 964.150 702.268, 960.835 701.969, 956.362 705.496 M 483.177 710.653 C 483.355 711.562, 485.300 713.250, 487.500 714.403 C 490.786 716.126, 493.284 716.500, 501.500 716.500 C 509.716 716.500, 512.214 716.126, 515.500 714.403 C 517.700 713.250, 519.645 711.562, 519.823 710.653 C 520.115 709.163, 518.306 709, 501.500 709 C 484.694 709, 482.885 709.163, 483.177 710.653 M 91.641 715.250 C 89.370 718.887, 88.811 725.285, 90.548 727.765 C 92.472 730.512, 97.852 731.534, 102.432 730.023 C 109.401 727.723, 111.142 720.988, 106.077 715.923 C 103.617 713.463, 102.352 713, 98.100 713 C 93.942 713, 92.797 713.399, 91.641 715.250 M 897.250 715.584 C 891.601 720.036, 893.349 727.640, 900.568 730.023 C 904.668 731.375, 910.239 730.621, 912.023 728.472 C 913.559 726.622, 912.868 716.751, 911.050 714.561 C 908.892 711.960, 901.116 712.536, 897.250 715.584 M 61.362 717.307 C 54.324 723.757, 57.826 732, 67.604 732 C 72.581 732, 75.689 729.579, 78.060 723.854 C 80.087 718.961, 77.182 716.056, 68.779 714.576 C 65.493 713.997, 64.626 714.316, 61.362 717.307 M 931.464 715.394 C 924.879 716.994, 924 717.617, 924 720.691 C 924 723.751, 927.427 729.623, 930.024 731.013 C 935.169 733.766, 944.009 730.899, 945.272 726.066 C 946.010 723.246, 942.396 716.501, 939.421 715.146 C 938.037 714.516, 936.815 714.038, 936.703 714.085 C 936.591 714.132, 934.234 714.721, 931.464 715.394 M 423.750 729.023 L 414 739.020 414 745.321 C 414 750.923, 417.050 803.360, 418.518 823 C 419.671 838.419, 420.495 840, 427.380 840 C 429.711 840, 432.491 840.661, 433.559 841.468 C 436.795 843.916, 438.333 843.216, 442.308 837.491 C 445.546 832.827, 446.703 831.911, 450.030 831.379 C 454.582 830.651, 455.334 829.153, 453.982 823.500 C 452.007 815.242, 441.037 753.027, 439.524 741.500 C 437.358 725.001, 436.065 718.998, 434.679 719.012 C 434.031 719.019, 429.113 723.524, 423.750 729.023 M 566.604 720.750 C 566.312 721.712, 564.928 730.600, 563.528 740.500 C 560.911 759.007, 557.404 779.235, 551.443 810.212 C 549.568 819.954, 548.287 828.583, 548.595 829.388 C 548.904 830.192, 550.890 831.144, 553.009 831.502 C 556.245 832.048, 557.459 833.020, 560.597 837.576 C 562.651 840.559, 564.653 843, 565.044 843 C 565.436 843, 567.371 842.325, 569.346 841.500 C 571.320 840.675, 574.493 840, 576.396 840 C 580.560 840, 582.559 838.218, 583.349 833.799 C 583.953 830.426, 587.389 775.910, 588.473 752.500 L 589.075 739.500 579.079 729.250 C 573.581 723.612, 568.645 719, 568.109 719 C 567.573 719, 566.896 719.788, 566.604 720.750 M 124.452 722.646 C 121.096 726.267, 121.150 730.726, 124.565 732.025 C 131.836 734.789, 139 731.808, 139 726.018 C 139 719.908, 129.113 717.617, 124.452 722.646 M 866.250 721.989 C 864.462 723.079, 863 724.450, 863 725.035 C 863 727.034, 865.923 731.756, 867.545 732.379 C 872.535 734.294, 881 732.036, 881 728.790 C 881 726.095, 878.362 721.353, 876.455 720.621 C 873.452 719.469, 869.519 719.996, 866.250 721.989 M 369.299 735.635 C 363.834 743.049, 363.468 743.640, 347.743 770.500 C 336.056 790.461, 333.999 794.784, 334.003 799.372 C 334.006 803.284, 343.095 821.387, 345.267 821.810 C 347.409 822.226, 354.696 815.516, 356.994 811.011 C 358.011 809.018, 362.522 797.062, 367.018 784.443 C 371.514 771.824, 376.274 758.835, 377.596 755.578 C 378.918 752.320, 380 748.014, 380 746.009 C 380 741.728, 377.638 733.255, 375.710 730.618 C 374.462 728.911, 373.975 729.291, 369.299 735.635 M 218.035 731.965 C 214.264 735.736, 213.833 738.477, 216.068 744.453 C 217.778 749.023, 218.638 750.056, 221.533 751.011 C 223.423 751.635, 225.875 751.857, 226.982 751.506 C 230.107 750.514, 235.282 742.273, 235.399 738.103 C 235.488 734.928, 235.085 734.303, 232 732.838 C 230.075 731.923, 226.621 730.877, 224.325 730.513 C 220.865 729.963, 219.789 730.211, 218.035 731.965 M 626.692 730.750 C 624.739 734.189, 622.880 742.826, 623.239 746.790 C 623.647 751.308, 641.322 801.426, 645.968 811.242 C 648.134 815.818, 654.868 822, 657.688 822 C 659.319 822, 669 802.866, 669 799.644 C 669 795.215, 666.284 789.595, 653.365 767.288 C 636.389 737.977, 628.626 727.344, 626.692 730.750 M 776.120 731.091 C 767.149 732.830, 765.376 735.868, 768.881 743.500 C 771.162 748.468, 773.713 750.793, 777.776 751.605 C 785.332 753.116, 791.102 739.619, 785.793 732.851 C 784.018 730.587, 781.283 730.089, 776.120 731.091 M 480 731.845 C 480 734.866, 490.474 739.767, 498.789 740.636 C 505.443 741.331, 513.855 739.256, 519.277 735.581 C 525.651 731.260, 524.647 731, 501.583 731 C 489.712 731, 480 731.380, 480 731.845 M 159.015 739.984 C 154.637 744.670, 154.319 747.163, 157.422 752.457 C 160.444 757.614, 166.430 761.566, 172.748 762.576 C 176.762 763.218, 177.192 763.041, 180.540 759.387 C 185.379 754.103, 185.734 751.927, 182.619 746.612 C 179.671 741.583, 174.193 738.399, 166.727 737.376 C 162.368 736.779, 161.843 736.956, 159.015 739.984 M 831.224 738.469 C 824.981 740.419, 822.680 742.242, 819.944 747.405 L 817.500 752.018 819.500 755.678 C 820.600 757.691, 822.743 760.254, 824.262 761.373 C 826.753 763.209, 827.467 763.290, 831.538 762.201 C 838.233 760.410, 843.622 756.412, 846.022 751.455 C 847.995 747.378, 848.023 746.946, 846.505 744.010 C 842.861 736.962, 839.709 735.819, 831.224 738.469 M 249.655 741.829 C 247.272 744.462, 247.479 751.218, 250.013 753.512 C 253.227 756.420, 257.846 755.856, 261.156 752.151 C 265.052 747.792, 265.009 743.573, 261.050 741.526 C 257.010 739.437, 251.692 739.578, 249.655 741.829 M 742.009 741.290 C 738.052 743.292, 738.061 749.061, 742.025 753.025 C 744.615 755.615, 751.058 755.698, 753.345 753.171 C 755.431 750.866, 755.483 745.134, 753.443 742.223 C 751.649 739.660, 746.121 739.209, 742.009 741.290 M 394.333 747.631 C 388.319 750.939, 388.093 751.214, 385.213 758.761 C 381.859 767.551, 368.184 810.485, 364.952 822.371 C 362.383 831.822, 363.006 833.006, 370.957 833.770 C 375.617 834.218, 376.337 834.642, 379.201 838.630 C 380.927 841.034, 383.106 843, 384.042 843 C 384.979 843, 387.897 842.048, 390.527 840.885 C 395.195 838.820, 399.114 838.741, 405.665 840.581 C 407.280 841.034, 408.260 840.533, 409.520 838.610 C 411.115 836.176, 411.088 835.088, 409.040 819.265 C 406.812 802.054, 405.082 775.332, 405.030 757.332 C 405.013 751.739, 404.727 746.452, 404.393 745.582 C 403.528 743.327, 401.351 743.770, 394.333 747.631 M 598.559 746.250 C 598.295 747.487, 597.596 760.425, 597.005 775 C 596.415 789.575, 594.969 809.510, 593.793 819.300 L 591.655 837.099 593.690 839.135 C 595.481 840.925, 596.193 841.040, 599.613 840.090 C 605.309 838.509, 608.586 838.748, 613.156 841.079 C 616.989 843.035, 622 843.100, 622 841.193 C 622 840.770, 623.237 838.943, 624.750 837.133 C 627.040 834.391, 628.420 833.728, 633 833.170 C 638.072 832.552, 638.525 832.285, 638.818 829.732 C 639.310 825.449, 625.489 778.698, 617.844 758.786 C 614.903 751.124, 614.836 751.047, 608.224 747.536 C 600.421 743.392, 599.202 743.230, 598.559 746.250 M 481 755.555 C 481 757.802, 490.601 761.884, 497.607 762.617 C 504.824 763.371, 513.719 761.669, 518.111 758.692 C 524.638 754.269, 523.689 754, 501.583 754 C 483.628 754, 481 754.199, 481 755.555 M 201.291 757.250 C 197.590 761.298, 195.878 765.851, 196.197 770.802 C 196.493 775.393, 196.624 775.563, 201.929 778.250 C 209.429 782.048, 212.002 781.847, 216.263 777.131 C 218.186 775.003, 220.301 771.618, 220.964 769.609 C 222.010 766.440, 221.920 765.564, 220.287 762.985 C 215.480 755.392, 205.692 752.437, 201.291 757.250 M 788.708 757.065 C 780.974 761.197, 779.462 767.566, 784.431 775.075 C 787.730 780.060, 791.852 781.654, 797.302 780.050 C 807.368 777.089, 809.854 769.497, 803.750 760.363 C 800.847 756.019, 800.073 755.475, 796.500 755.269 C 794.013 755.125, 791.065 755.805, 788.708 757.065 M 276.395 760.514 C 274.095 762.815, 273.824 763.742, 274.277 767.765 C 274.878 773.093, 277.204 775.412, 281 774.467 C 284.510 773.593, 286.737 771.328, 288.076 767.270 C 289.072 764.251, 288.963 763.426, 287.265 761.141 C 284.460 757.366, 279.811 757.098, 276.395 760.514 M 716.073 760.635 C 713.501 763.904, 713.478 765.631, 715.950 769.686 C 721.008 777.982, 729 775.656, 729 765.889 C 729 758.994, 720.182 755.410, 716.073 760.635 M 236.599 770.544 C 234.480 772.663, 231 780.749, 231 783.555 C 231 788.437, 240 792.145, 246.580 789.974 C 250.245 788.764, 252.272 785.823, 253.353 780.147 C 253.895 777.301, 253.553 776.385, 251.089 774.083 C 248.532 771.694, 242.233 769, 239.205 769 C 238.621 769, 237.448 769.695, 236.599 770.544 M 756.328 770.938 C 750.343 773.656, 748.580 776.725, 749.992 781.970 C 751.989 789.386, 756.530 792.012, 763.918 790.022 C 768.757 788.719, 772 785.886, 772 782.960 C 772 781.838, 771.048 779.026, 769.883 776.710 C 765.715 768.418, 763.735 767.575, 756.328 770.938 M 296.256 771.093 C 293.842 771.995, 290.010 777.500, 290.004 780.076 C 289.998 782.526, 294.330 786, 297.391 786 C 303.202 786, 308.658 776.451, 304.717 773.180 C 302.313 771.185, 298.518 770.249, 296.256 771.093 M 702.500 770.801 C 696.362 772.044, 694.999 779.138, 700.077 783.411 C 703.937 786.659, 707.388 786.703, 710.545 783.545 C 713.609 780.482, 713.610 779.362, 710.553 774.863 C 708.027 771.145, 705.957 770.101, 702.500 770.801 M 264.537 786.959 C 263.561 788.037, 262.542 790.881, 262.272 793.278 C 261.827 797.230, 262.078 797.888, 264.967 800.319 C 269.385 804.036, 274.207 803.947, 278.077 800.077 C 282.677 795.477, 281.768 789.483, 276.020 786.510 C 271.899 784.379, 266.687 784.583, 264.537 786.959 M 726.775 786.559 C 721.217 789.575, 720.398 795.552, 724.923 800.077 C 728.754 803.908, 733.619 804.033, 737.923 800.411 C 741.615 797.304, 741.988 793.133, 739.011 788.250 C 737.330 785.492, 736.459 785.006, 733.265 785.040 C 731.194 785.062, 728.274 785.746, 726.775 786.559 M 305.229 808.669 C 303.755 809.262, 301 814.243, 301 816.314 C 301 818.274, 305.911 823, 307.948 823 C 310.966 823, 314 819.188, 314 815.395 C 314 810.357, 312.449 807.985, 309.215 808.079 C 307.722 808.122, 305.928 808.388, 305.229 808.669 M 690.137 809.750 C 687.833 814.074, 688.472 819.608, 691.506 821.596 C 696.765 825.041, 703.040 819.283, 700.856 813.017 C 700.270 811.334, 698.967 809.517, 697.961 808.979 C 695.091 807.443, 691.161 807.830, 690.137 809.750 M 281.250 819.662 C 277.454 821.194, 281.964 834.451, 286.684 835.635 C 293.053 837.234, 296.860 825.394, 291.365 821.073 C 288.907 819.139, 284.180 818.480, 281.250 819.662 M 710.923 821.923 C 707.401 825.445, 707.266 827.616, 710.290 832.102 C 712.030 834.685, 713.290 835.500, 715.540 835.500 C 718.042 835.500, 718.848 834.809, 720.750 831.038 C 723.404 825.776, 723.713 820.488, 721.418 819.607 C 717.711 818.184, 713.798 819.048, 710.923 821.923 M 316.390 831.519 C 312.950 834.959, 313.483 838.753, 317.815 841.662 C 321.804 844.341, 323.341 843.908, 325.426 839.514 C 327.071 836.048, 326.744 833.720, 324.193 830.750 C 322.088 828.299, 319.339 828.570, 316.390 831.519 M 678.073 831.635 C 675.598 834.780, 675.509 836.150, 677.526 840.050 C 679.702 844.258, 683.162 844.387, 686.750 840.393 C 689.644 837.172, 689.592 834.931, 686.548 831.646 C 683.437 828.290, 680.706 828.286, 678.073 831.635 M 492.400 834.765 C 488.757 837.197, 487.749 846.558, 490.829 849.345 C 493.717 851.959, 495.953 851.356, 497.551 847.532 C 499.691 842.411, 499.454 836.313, 497.066 835.035 C 494.795 833.820, 493.894 833.768, 492.400 834.765 M 505.200 835.200 C 502.201 838.199, 505.113 851, 508.794 851 C 511.803 851, 514 847.753, 514 843.306 C 514 836.655, 508.662 831.738, 505.200 835.200 M 471.923 837.923 C 468.525 841.321, 468.166 844.935, 470.974 847.477 C 472.691 849.030, 473.349 849.098, 476.014 847.994 C 481.513 845.717, 483.760 839.903, 480.429 836.571 C 478.066 834.209, 475.178 834.668, 471.923 837.923 M 522.054 836.435 C 520.119 838.767, 521.193 844.085, 524 846.069 C 528.475 849.231, 530.713 849.367, 532.534 846.588 C 534.938 842.919, 533.032 837.555, 528.800 836.080 C 524.704 834.652, 523.480 834.717, 522.054 836.435 M 660.310 840.081 C 656.545 841.474, 655.618 844.557, 657.690 848.797 C 659.921 853.361, 664.222 854.305, 667.762 851.007 C 673.068 846.064, 667.239 837.518, 660.310 840.081 M 334.557 842.223 C 331.200 847.015, 334.191 853, 339.943 853 C 343.498 853, 346 849.893, 346 845.477 C 346 841.422, 344.405 840, 339.857 840 C 337.122 840, 335.694 840.599, 334.557 842.223 M 300.025 852.975 C 295.550 857.450, 296.892 863.332, 303.407 867.796 C 309.596 872.036, 314 870.049, 314 863.016 C 314 854.181, 305.166 847.834, 300.025 852.975 M 451.898 853.290 C 449.166 855.131, 448.500 856.236, 448.500 858.931 C 448.500 864.263, 453.133 865.549, 458.417 861.685 C 460.955 859.828, 460.991 854.198, 458.476 852.358 C 456.047 850.583, 455.880 850.606, 451.898 853.290 M 543.413 853.493 C 541.220 856.839, 542.281 860.577, 545.965 862.482 C 551.638 865.416, 555.437 863.640, 554.822 858.343 C 554.609 856.507, 553.348 854.791, 551.102 853.282 C 546.774 850.375, 545.431 850.412, 543.413 853.493 M 693.299 853.250 C 692.172 854.487, 690.744 856.483, 690.125 857.684 C 688.641 860.566, 688.686 867.286, 690.200 868.800 C 693.161 871.761, 699.992 869.144, 703.796 863.593 C 706.638 859.446, 706.572 857.834, 703.411 854.077 C 700.257 850.329, 696.258 850.002, 693.299 853.250 M 363.229 852.669 C 362.530 852.951, 361.294 854.465, 360.482 856.034 C 358.116 860.610, 361.253 866.034, 367.109 867.495 C 370.715 868.395, 375.250 864.486, 375.250 860.480 C 375.250 855.458, 368.002 850.749, 363.229 852.669 M 630.400 855.400 C 626.217 859.583, 626.151 861.305, 630.025 865.179 C 633.492 868.646, 636.920 868.488, 640.647 864.689 C 644.175 861.093, 644.382 858.607, 641.442 855.114 C 637.960 850.976, 634.741 851.059, 630.400 855.400 M 426.500 859.195 C 423.631 860.822, 423.033 862.028, 423.015 866.215 C 423.004 868.874, 423.549 870.224, 424.934 870.965 C 428.898 873.086, 434.921 871.730, 437.718 868.087 C 439.497 865.770, 439.268 863.610, 436.927 860.635 C 434.665 857.759, 430.136 857.133, 426.500 859.195 M 566.073 860.635 C 562.829 864.758, 563.521 868.184, 568.072 870.537 C 571.387 872.251, 575.345 872.421, 578.066 870.965 C 579.451 870.224, 579.996 868.874, 579.985 866.215 C 579.967 861.938, 579.348 860.746, 576.316 859.150 C 572.505 857.144, 568.344 857.747, 566.073 860.635 M 391.923 861.923 C 386.693 867.154, 389.053 873, 396.394 873 C 401.925 873, 404 871.527, 404 867.600 C 404 863.324, 400.656 859, 397.350 859 C 395.916 859, 393.598 860.249, 391.923 861.923 M 601.635 861.073 C 598.276 863.714, 597.852 870.315, 600.934 871.965 C 603.955 873.581, 610.638 873.219, 612.521 871.336 C 614.772 869.085, 613.760 864.167, 610.445 861.250 C 607.269 858.455, 605.021 858.409, 601.635 861.073 M 478.984 863.862 C 476.555 866.291, 476 867.684, 476 871.352 C 476 874.091, 476.609 876.466, 477.553 877.410 C 481.530 881.388, 490.312 872.460, 489.759 865 C 489.517 861.729, 489.253 861.480, 485.734 861.189 C 482.658 860.934, 481.423 861.423, 478.984 863.862 M 513.411 863.500 C 512.140 868.564, 515.280 875.059, 520.239 877.624 C 522.921 879.010, 523.351 878.992, 525.091 877.418 C 526.424 876.211, 527 874.349, 527 871.246 C 527 867.564, 526.467 866.305, 523.894 863.901 C 519.739 860.020, 514.336 859.813, 513.411 863.500 M 325 870 C 319.659 875.341, 325.598 882.929, 334.500 882.139 C 337.258 881.895, 339 879.245, 339 875.294 C 339 872.618, 338.367 871.585, 335.750 869.989 C 331.595 867.456, 327.540 867.460, 325 870 M 667.250 869.989 C 664.576 871.620, 664 872.593, 664 875.485 C 664 878.845, 666.729 883, 668.935 883 C 670.958 883, 675.614 880.760, 677.750 878.759 C 680.743 875.955, 680.595 872.613, 677.365 870.073 C 674.069 867.480, 671.402 867.458, 667.250 869.989 M 458.500 876.842 C 452.632 880.429, 450.680 885.680, 453.985 888.985 C 458.901 893.901, 469 888.180, 469 880.477 C 469 878.785, 468.460 876.860, 467.800 876.200 C 466.053 874.453, 461.943 874.737, 458.500 876.842 M 535.035 876.934 C 530.922 884.620, 540.380 894.078, 548.066 889.965 C 550.466 888.680, 550.668 883.399, 548.439 880.217 C 545.030 875.350, 536.943 873.369, 535.035 876.934 M 358.500 881.793 C 350.514 883.443, 351.744 893.379, 360.181 895.370 C 363.085 896.056, 368.001 894.596, 369.214 892.687 C 370.588 890.527, 370.029 886.336, 368.138 884.625 C 365.892 882.593, 361.242 881.226, 358.500 881.793 M 636.230 883.551 C 631.107 887.139, 631.513 892.727, 637.064 895.026 C 642.729 897.373, 650 893.099, 650 887.422 C 650 882.658, 641.083 880.152, 636.230 883.551 M 426.104 889.535 C 424.397 891.479, 423 893.884, 423 894.880 C 423 899.038, 430.689 902.269, 435.128 899.976 C 439.366 897.786, 442 894.722, 442 891.981 C 442 888.084, 439.134 886, 433.775 886 C 429.798 886, 428.806 886.457, 426.104 889.535 M 562.750 887.080 C 559.915 888.731, 560.491 894.138, 563.844 897.350 C 567.682 901.027, 572.572 901.676, 576.750 899.063 C 580.842 896.503, 580.880 894.071, 576.896 889.535 C 574.168 886.427, 573.231 886.004, 569.146 886.030 C 566.591 886.047, 563.712 886.519, 562.750 887.080 M 387 890.240 C 383.211 892.219, 382.982 898.054, 386.581 900.885 C 392.291 905.376, 401.874 901.881, 401.968 895.273 C 402.030 890.934, 392.077 887.587, 387 890.240 M 604.250 890.930 C 600.198 893.474, 599.951 897.042, 603.576 900.667 C 605.788 902.879, 606.783 903.172, 610.617 902.740 C 615.927 902.141, 619 899.684, 619 896.036 C 619 891.865, 616.871 889.847, 611.939 889.344 C 608.627 889.006, 606.675 889.408, 604.250 890.930"/>
</svg>