<?xml version="1.0" encoding="utf-8"?>
<svg xmlns="http://www.w3.org/2000/svg" width="1002" height="424" viewBox="0 0 1002 424">
  <path fill-rule="evenodd" d="M 428.231 2.171 C 421.276 3.251, 417.332 4.980, 408.866 10.659 C 398.418 17.669, 392.553 25.300, 389.006 36.500 C 386.923 43.079, 386.617 43.184, 379.389 39.801 C 373.356 36.978, 372.270 36.792, 364.196 37.201 C 353.605 37.738, 349.203 39.755, 342.599 47.101 L 337.924 52.301 332.622 51.115 C 326.465 49.737, 323.074 50.626, 318.750 54.751 C 313.975 59.306, 315.589 62.034, 321.578 59.532 C 326.143 57.625, 329.166 57.617, 335.363 59.497 C 338.038 60.309, 340.786 60.641, 341.469 60.236 C 342.152 59.831, 344.704 57.025, 347.139 54 C 352.657 47.145, 356.737 45.004, 364.282 45.002 C 371.255 45, 375.542 46.669, 382.221 51.987 C 384.993 54.194, 387.592 56, 387.996 56 C 390.404 56, 394.196 50.964, 397.563 43.295 C 399.687 38.458, 402.418 32.878, 403.632 30.896 C 406.903 25.558, 413.552 20.212, 422 16.127 C 430.379 12.075, 436.660 11.534, 447 13.974 C 455.958 16.087, 459.821 18.661, 472.133 30.713 C 481.321 39.707, 484.329 42.091, 486.164 41.831 C 488.045 41.564, 488.558 40.802, 488.800 37.916 C 489.048 34.965, 488.292 33.256, 484.521 28.239 C 479.536 21.609, 471.242 13.639, 464.495 8.997 C 456.767 3.679, 439.477 0.425, 428.231 2.171 M 506.690 13.643 C 506.311 14.023, 506 45.533, 506 83.667 C 506 150.776, 505.938 153.062, 504.074 154.926 C 501.398 157.602, 498.109 156.504, 496.376 152.358 C 494.416 147.667, 482.839 107.760, 479.580 94.457 C 476.509 81.926, 475.843 80.463, 473.601 81.323 C 470.861 82.374, 471.692 87.800, 479.500 119.804 C 487.136 151.104, 488.145 157.805, 485.548 159.960 C 481.757 163.107, 477.406 158.503, 471.578 145.179 C 469.110 139.535, 465.099 131.673, 462.666 127.708 C 460.232 123.744, 453.158 110.825, 446.944 99 C 428.991 64.832, 425.324 59.287, 423.069 62.901 C 421.706 65.087, 423.241 68.503, 446.370 114.745 C 463.547 149.088, 468 158.801, 468 161.924 C 468 165.594, 466.067 169, 463.984 169 C 461.806 169, 457.009 162.726, 440.485 138.267 C 422.707 111.954, 418.994 107, 417.048 107 C 415.644 107, 415.715 111.594, 417.161 114.316 C 417.799 115.517, 425.281 127.268, 433.786 140.429 C 450.255 165.910, 452.289 169.683, 451.806 173.853 C 451.553 176.043, 450.927 176.555, 448.185 176.818 C 444.121 177.208, 443.755 176.909, 433.092 164.500 C 428.367 159, 417.975 147.519, 410 138.985 C 402.025 130.451, 390.614 117.993, 384.641 111.300 C 378.669 104.607, 373.077 98.860, 372.214 98.529 C 371.351 98.197, 369.962 98.609, 369.128 99.444 C 367.772 100.800, 367.784 101.324, 369.244 104.386 C 370.720 107.481, 390.703 131.125, 412.867 156 C 429.935 175.156, 438.787 189.017, 437.423 194.450 C 436.525 198.028, 434.218 199, 426.625 199 C 423.040 199, 419.818 199.485, 419.450 200.081 C 419.082 200.676, 419.887 202.363, 421.237 203.831 C 426.888 209.972, 428.548 215.052, 425.800 217.800 C 423.769 219.831, 420.848 219.160, 411.500 214.512 C 402.074 209.826, 397.684 209.035, 394.441 211.439 C 392.638 212.776, 392.617 212.997, 394.146 214.550 C 395.052 215.469, 400.657 218.806, 406.603 221.965 C 412.549 225.123, 417.837 228.379, 418.354 229.199 C 420.720 232.951, 415.072 239.007, 409.216 238.997 C 407.060 238.993, 380.098 232.453, 373.840 230.416 C 368.779 228.768, 367.792 227.354, 364.481 217 C 363.513 213.975, 361.404 208.866, 359.794 205.646 C 358.184 202.426, 357.107 199.163, 357.402 198.396 C 357.762 197.456, 359.589 197, 362.991 197 C 367.497 197, 368.515 197.433, 372.384 201 C 374.771 203.200, 377.435 205, 378.305 205 C 380.146 205, 383 201.298, 383 198.912 C 383 195.254, 389.898 183.492, 393.195 181.527 C 398.122 178.592, 406.143 178.912, 412.717 182.306 C 415.586 183.788, 418.863 185, 419.998 185 C 425.508 185, 422.508 176.554, 415.550 172.476 C 409.572 168.973, 404.315 168.340, 398.098 170.373 C 395.362 171.268, 392.261 172, 391.205 172 C 389.217 172, 377.891 164.063, 372.316 158.762 C 368.953 155.565, 366.004 155.545, 365.995 158.719 C 365.992 159.698, 370.103 164.328, 375.132 169.007 L 384.274 177.514 381.153 183.696 L 378.033 189.878 373.329 187.249 C 369.320 185.008, 367.014 184.537, 357.703 184.060 L 346.779 183.500 343.783 180 C 342.135 178.075, 336.610 171.550, 331.506 165.500 C 317.953 149.434, 315.634 147.391, 312.294 148.566 C 308.474 149.909, 275.364 185.440, 267.250 196.903 C 263.537 202.148, 257.253 210.278, 253.285 214.970 C 249.316 219.661, 244.403 226.537, 242.366 230.250 C 239.494 235.486, 238.158 237, 236.413 237 C 232.447 237, 203.378 204.704, 201.082 197.747 C 200.472 195.901, 197.913 192.390, 195.393 189.945 C 192.874 187.500, 188.730 182.800, 186.186 179.500 C 174.238 164.006, 162.575 150.931, 160.161 150.326 C 158.021 149.788, 157.009 150.379, 153.917 153.969 C 151.888 156.325, 147.364 163.020, 143.864 168.846 C 137.670 179.155, 127.107 194.198, 125.259 195.340 C 124.754 195.652, 122.127 195.216, 119.421 194.371 C 116.714 193.526, 110.450 192.777, 105.500 192.707 C 97.644 192.596, 95.746 192.927, 90.570 195.317 C 81.686 199.418, 76.811 203.927, 72.601 211.939 C 70.561 215.823, 68.448 219, 67.906 219 C 67.364 219, 65.156 218.100, 63 217 C 55.621 213.235, 43.494 215.244, 36.436 221.399 C 33.372 224.071, 32.763 225.102, 33.689 226.054 C 34.623 227.015, 36.401 226.712, 41.996 224.639 C 50.510 221.483, 55.686 221.331, 64.161 223.987 C 74.013 227.076, 74.348 226.965, 78.941 219.102 C 86.129 206.793, 95.053 201.580, 108.802 201.658 C 113.369 201.684, 117.542 202.142, 118.077 202.677 C 119.068 203.668, 115.909 208.371, 107.445 218.500 C 105.147 221.250, 100.552 227.325, 97.235 232 C 93.917 236.675, 87.165 244.928, 82.230 250.339 C 76.782 256.313, 71.369 263.543, 68.450 268.744 C 65.805 273.456, 60.939 280.953, 57.637 285.405 C 48.923 297.155, 43.072 306.350, 25.661 335.664 C 7.920 365.534, 6.127 368.906, 2.945 378.393 L 0.634 385.285 2.928 387.143 C 4.189 388.164, 6.602 389, 8.290 389 C 9.977 389, 12.866 389.545, 14.710 390.212 C 17.640 391.272, 18.594 391.151, 22.281 389.259 C 24.601 388.068, 28.187 386.827, 30.249 386.502 C 32.574 386.135, 36.443 384.036, 40.432 380.978 C 48.074 375.121, 61.895 366, 63.128 366 C 64.521 366, 64.151 369.301, 61.966 376.376 C 60.485 381.169, 58.573 384.514, 54.943 388.663 C 52.199 391.798, 50.114 394.844, 50.310 395.432 C 50.788 396.866, 53.569 397.325, 56.829 396.507 C 60.362 395.620, 109.073 347.303, 113.796 340 C 117.217 334.710, 126.885 323.283, 133.821 316.329 C 137.077 313.065, 141.235 311.953, 142.505 314.007 C 142.847 314.561, 146.838 317.459, 151.375 320.446 C 155.911 323.433, 164.004 329.947, 169.360 334.920 C 174.715 339.894, 183.463 346.691, 188.799 350.024 C 194.134 353.358, 201.990 358.983, 206.255 362.525 C 216.208 370.790, 217.598 371.121, 225.662 367.144 C 229.169 365.415, 232.485 364, 233.031 364 C 233.578 364, 235.625 366.501, 237.580 369.557 C 239.535 372.614, 241.697 375.330, 242.385 375.594 C 243.073 375.858, 247.430 374.643, 252.068 372.894 C 259.554 370.070, 261.286 368.902, 267.500 362.489 C 271.350 358.515, 275.532 354.943, 276.793 354.551 C 278.277 354.089, 282.396 348.839, 288.468 339.669 C 293.627 331.876, 300.920 322.187, 304.675 318.138 L 311.500 310.776 316 311.979 C 326.774 314.860, 331.834 319.130, 339.360 331.686 C 341.399 335.089, 345.771 340.856, 349.075 344.502 C 352.379 348.148, 357.564 354.487, 360.598 358.589 C 363.631 362.690, 368 367.241, 370.307 368.702 C 372.613 370.162, 378.775 374.157, 384 377.579 C 389.225 381.001, 397.702 385.895, 402.838 388.455 L 412.177 393.109 428.722 392.075 C 445.104 391.051, 445.343 391.066, 452.884 393.577 C 457.073 394.972, 463.119 397.662, 466.320 399.556 C 469.521 401.449, 474.696 403.852, 477.820 404.895 C 480.944 405.938, 487.482 408.638, 492.350 410.896 C 502.065 415.402, 503.682 415.609, 512.500 413.480 C 522.717 411.013, 531.480 411.519, 538.840 415.001 C 546.064 418.418, 553.248 418.957, 558.103 416.447 C 559.755 415.592, 565.218 411.269, 570.243 406.840 C 575.267 402.410, 581.109 397.694, 583.223 396.359 C 585.338 395.024, 589.697 391.303, 592.911 388.089 C 597.914 383.086, 599.907 381.862, 606.784 379.572 C 615.567 376.647, 622.030 372.506, 634.999 361.496 C 649.695 349.019, 653.277 344.354, 658.141 331.352 C 659.821 326.861, 662.249 323.585, 669.292 316.306 C 681.226 303.969, 682.947 304.010, 690.329 316.808 C 692.988 321.419, 696.427 325.828, 698.676 327.512 C 715.262 339.926, 734.586 356.939, 742.768 366.332 C 748.196 372.563, 753.057 377.227, 754.502 377.590 C 756.190 378.013, 758.346 377.402, 761.334 375.650 C 765.982 372.926, 775.583 363.126, 777.885 358.757 C 779.241 356.183, 779.092 355.961, 770.610 347.933 C 765.822 343.400, 759.534 336.108, 756.542 331.618 C 753.567 327.153, 749.536 321.957, 747.584 320.071 C 744.438 317.031, 743.489 316.666, 739.233 316.860 C 734.946 317.056, 733.470 316.475, 725.466 311.441 C 713.882 304.156, 710.662 302.539, 703.728 300.523 C 696.684 298.475, 693.024 294.967, 689.948 287.316 C 688.408 283.484, 685.972 279.948, 682.805 276.949 C 677.690 272.105, 677.178 270.490, 679.398 266.198 C 681.592 261.954, 684.281 260.045, 692.159 257.137 C 697.096 255.314, 699.599 253.842, 699.834 252.622 C 700.067 251.412, 697.381 248.083, 691.749 242.602 C 678.397 229.605, 676.943 222.050, 684.460 204.713 C 688.441 195.529, 690.539 193.416, 694.652 194.449 C 698.632 195.448, 705.423 202.473, 707.942 208.197 C 714.250 222.526, 716.385 226.042, 723.891 234.458 C 734.462 246.310, 739.284 255.045, 746.092 274.682 C 756.126 303.620, 767.097 323.315, 779.599 334.835 C 790.809 345.164, 790.818 345.167, 797.184 339.717 C 802.105 335.504, 804.099 332.704, 811.436 319.698 C 815.833 311.904, 821.588 311.364, 827.437 318.198 C 831.400 322.827, 844.343 333.940, 855 341.861 C 859.125 344.927, 865.950 350.681, 870.166 354.648 C 879.280 363.222, 883.731 366.219, 890.658 368.443 C 894.371 369.636, 898.571 372.466, 905.658 378.551 C 918.398 389.492, 921.986 391.961, 926.114 392.631 C 929.398 393.164, 929.728 392.893, 936.751 383.904 C 940.738 378.801, 944 373.792, 944 372.773 C 944 369.945, 940.505 363.704, 935.328 357.287 C 925.929 345.637, 912.352 331.595, 905.020 325.941 C 900.884 322.751, 894.125 317.166, 890 313.529 C 885.875 309.893, 880.581 305.698, 878.235 304.209 C 875.889 302.719, 871.271 299.382, 867.973 296.794 C 862.310 292.349, 857.017 290.025, 852.500 290 C 845.057 289.958, 838 285.189, 838 280.200 C 838 275.705, 840.807 274.035, 851.147 272.377 C 856.291 271.552, 860.857 270.525, 861.294 270.095 C 862.650 268.758, 854.108 261.952, 846.596 258.385 C 841.519 255.974, 836.851 254.650, 830.564 253.839 C 820.297 252.514, 818 250.964, 818 245.364 C 818 242.329, 818.732 241.070, 822.425 237.751 C 827.415 233.267, 827.424 233.521, 821.944 224 C 818.412 217.863, 813.011 202.110, 811.544 193.665 C 810.605 188.259, 811.912 179.330, 814.024 176.721 C 815.759 174.580, 815.866 174.569, 817.827 176.344 C 818.937 177.348, 822.192 184.544, 825.061 192.335 C 834.185 217.114, 836.299 219.348, 836.788 204.725 C 837.037 197.285, 837.335 196.028, 838.976 195.508 C 842.232 194.474, 844.706 197.068, 850.934 208.041 C 858.636 221.613, 860 224.956, 860 230.265 C 860 234.077, 860.849 235.726, 867.097 244.048 C 871.001 249.246, 875.366 255.525, 876.799 258 C 878.231 260.475, 882.180 265.569, 885.574 269.321 C 888.968 273.073, 893.265 278.813, 895.123 282.077 C 896.980 285.341, 900.644 291.419, 903.265 295.582 C 907.911 302.964, 908.110 303.136, 911.265 302.476 C 916.883 301.301, 917.428 299.923, 914.043 295.449 C 910.603 290.902, 910.121 286.038, 912.539 280.253 C 916.150 271.610, 921.595 273.534, 929.721 286.323 C 931.181 288.620, 935.681 296.778, 939.722 304.452 C 943.762 312.125, 948.787 320.675, 950.887 323.452 C 955.846 330.008, 955.857 330.029, 957.545 336.512 C 958.476 340.087, 961.518 345.846, 966.134 352.774 C 978.247 370.952, 978.656 371.345, 988.671 374.468 L 997.423 377.196 999.211 374.987 C 1002.452 370.985, 1001.713 368.580, 993.986 358 C 988.607 350.634, 985.055 343.880, 982.573 336.297 C 981.325 332.482, 978.773 328.770, 973.012 322.390 C 968.691 317.603, 963.657 311.030, 961.827 307.783 C 947.120 281.690, 918.502 244, 913.398 244 C 912.951 244, 910.878 245.666, 908.792 247.703 L 905 251.406 900.897 247.453 C 894.975 241.747, 885.191 228.685, 882.813 223.310 C 881.072 219.373, 865.890 194.217, 858.487 183 C 851.329 172.155, 844.862 163.567, 838.272 156.154 C 834.191 151.563, 829.252 145.263, 827.296 142.154 C 822.185 134.027, 818.104 130, 814.978 130 C 811.815 130, 810.082 131.850, 802.713 143.094 C 795.092 154.722, 795.254 154.615, 788.176 152.629 C 779.456 150.183, 772.395 150.501, 766.131 153.622 L 760.868 156.244 756.705 154.372 C 751.634 152.092, 742.735 152.051, 738.409 154.289 C 733.826 156.659, 727.821 163.728, 728.190 166.320 C 728.680 169.767, 733.116 169.709, 737.150 166.203 C 743.595 160.604, 748.681 159.586, 755.654 162.500 C 760.810 164.654, 762.800 164.383, 766.653 161 C 769.431 158.561, 770.964 158, 774.853 158 C 779.826 158, 790.007 160.548, 789.991 161.789 C 789.969 163.449, 783.901 172.864, 780.027 177.249 L 775.832 181.998 770.567 181.379 C 763.993 180.606, 762.412 182.046, 757.905 192.910 C 754.684 200.672, 744.888 219.172, 741.900 223.133 L 740.238 225.337 737.433 220.918 C 735.891 218.488, 733.109 212.900, 731.251 208.500 C 727.647 199.967, 721.736 191.665, 709.563 178.040 C 704.793 172.700, 701.425 167.905, 700.432 165.040 C 699.568 162.543, 697.542 157.094, 695.930 152.931 C 694.319 148.769, 693 144.778, 693 144.063 C 693 143.349, 694.438 141.130, 696.196 139.132 C 699.352 135.546, 699.363 135.496, 697.101 135.168 C 695.841 134.985, 693.586 135.343, 692.089 135.963 C 690.156 136.764, 688.572 136.788, 686.619 136.045 C 681.557 134.121, 680.145 134.734, 676.491 140.446 C 672.342 146.932, 670.302 148.524, 654 157.996 C 647.125 161.990, 629.948 172.224, 615.829 180.737 C 592.595 194.746, 588 196.924, 588 193.928 C 588 193.404, 598.167 182.333, 610.593 169.326 C 623.018 156.319, 634.343 143.928, 635.758 141.790 C 638.120 138.221, 638.199 137.770, 636.725 136.297 C 635.252 134.823, 634.895 134.839, 632.371 136.493 C 630.859 137.483, 619.919 147.797, 608.061 159.411 C 582.852 184.101, 579.648 186.783, 577.498 184.998 C 576.674 184.314, 576 183.400, 576 182.966 C 576 182.532, 585.900 168.332, 598 151.409 C 620.856 119.445, 623.250 115, 617.611 115 C 616.297 115, 614.324 115.788, 613.227 116.750 C 612.130 117.713, 602.218 129.750, 591.200 143.500 C 580.182 157.250, 569.773 169.828, 568.070 171.450 C 565.178 174.205, 564.861 174.290, 563.304 172.733 C 561.465 170.894, 561.092 171.921, 574.299 142.500 C 577.262 135.900, 582.545 122.929, 586.040 113.675 C 592.635 96.214, 592.951 93.500, 588.391 93.500 C 586.060 93.500, 583.748 97.990, 572.939 123.500 C 563.765 145.153, 555.307 161.893, 552.769 163.423 C 551.477 164.202, 550.643 164.072, 549.483 162.912 C 548.077 161.506, 548.640 158.546, 555.378 131.929 C 566.268 88.907, 579 35.295, 579 32.460 C 579 28.022, 576.231 29.767, 574.058 35.575 C 570.616 44.773, 563.381 68.763, 560.509 80.500 C 559.029 86.550, 555.176 100.950, 551.946 112.500 C 548.717 124.050, 544.907 138.512, 543.480 144.637 C 540.944 155.523, 538.915 160.248, 537.419 158.752 C 536.472 157.806, 536.802 131.463, 538.029 110 C 539.227 89.029, 539.266 90.409, 537.429 88.571 C 535.281 86.423, 533.284 86.600, 531.971 89.055 C 531.366 90.185, 529.569 104.891, 527.978 121.735 C 525.403 148.989, 524.860 152.584, 523.046 154.398 C 521.150 156.294, 520.893 156.321, 519.354 154.783 C 517.609 153.037, 517.692 154.106, 515.034 99 C 512.872 54.160, 509.962 15.553, 508.645 14.226 C 507.950 13.526, 507.070 13.263, 506.690 13.643 M 538.493 28.363 C 535.623 35.231, 533.687 59.416, 535.607 64.418 C 536.689 67.237, 538.690 66.100, 540.364 61.717 C 541.635 58.388, 542 53.818, 542 41.217 C 542 24.459, 541.259 21.743, 538.493 28.363 M 610.282 44.250 C 606.099 48.803, 595.291 73.045, 596.542 75.068 C 597.699 76.941, 599.787 75.914, 602.269 72.250 C 605.041 68.159, 614 46.320, 614 43.653 C 614 41.379, 612.732 41.583, 610.282 44.250 M 207.308 67.896 C 204.453 68.948, 201.738 70.044, 201.274 70.331 C 200.811 70.617, 197.297 69.954, 193.466 68.858 C 184.901 66.407, 173.724 66.809, 163.847 69.923 C 156.464 72.251, 149.150 78.014, 143.904 85.639 L 140.891 90.018 129.029 89.929 C 121.563 89.873, 116.303 90.287, 114.834 91.045 C 107.703 94.727, 102.363 104.051, 106.480 105.631 C 107.313 105.950, 110.179 104.571, 113.026 102.481 C 119.708 97.576, 128.060 96.606, 135.455 99.877 C 142.748 103.103, 143.757 102.798, 146.528 96.533 C 151.402 85.513, 158.591 80.349, 172.412 77.942 C 182.074 76.259, 190.674 77.139, 196.194 80.373 C 202.001 83.777, 204.367 83.697, 206.993 80.010 C 208.488 77.911, 210.720 76.556, 214.490 75.460 C 217.443 74.602, 221.067 72.949, 222.543 71.787 L 225.228 69.675 222.734 68.369 C 218.252 66.020, 212.844 65.854, 207.308 67.896 M 389.359 71.508 C 388.656 73.340, 390.504 76.284, 398.299 85.750 C 409.579 99.448, 409.598 92.174, 398.324 76.250 C 393.891 69.988, 390.608 68.252, 389.359 71.508 M 634.500 72.399 C 624.831 75.457, 616.069 82.629, 610.610 91.954 C 605.647 100.433, 604.605 104.048, 606.579 105.947 C 608.048 107.361, 608.654 106.964, 613.346 101.509 C 626.733 85.946, 632.689 82, 642.793 82 C 649.258 82, 653.067 83.940, 664.642 93.126 C 668.020 95.807, 671.182 98, 671.669 98 C 672.156 98, 674.939 96.208, 677.853 94.018 C 684.328 89.153, 689.586 87.625, 697.650 88.265 C 704.116 88.779, 705.814 89.456, 715.475 95.378 C 719.036 97.561, 722.067 98.776, 722.975 98.386 C 730.016 95.360, 731.594 95.159, 738.039 96.467 C 741.592 97.189, 749.675 98.077, 756 98.441 C 765.383 98.981, 767.868 98.828, 769.500 97.613 C 771.320 96.256, 771.359 95.979, 769.928 94.525 C 767.862 92.425, 741.130 87.624, 730.374 87.420 C 722.947 87.279, 721.836 86.983, 717.468 83.978 C 703.331 74.251, 689.554 74.152, 675.759 83.677 L 672.018 86.260 665.759 80.765 C 656.648 72.767, 652.839 70.987, 645.015 71.067 C 641.432 71.104, 636.700 71.703, 634.500 72.399 M 296.301 92.077 C 285.252 95.578, 277.100 103.860, 273.508 115.235 C 272.593 118.131, 271.659 121.087, 271.433 121.805 C 271.139 122.735, 269.790 122.264, 266.741 120.166 C 261.620 116.642, 256.221 115.013, 249.640 115.006 C 239.045 114.993, 224.806 126.383, 221.419 137.579 C 220.433 140.836, 219.374 143.815, 219.064 144.200 C 218.754 144.585, 216.512 144.453, 214.083 143.907 C 208.175 142.580, 205.038 143.420, 200.093 147.652 C 197.188 150.139, 194.691 151.335, 191.726 151.660 C 182.955 152.623, 179.474 154.467, 180.649 157.529 C 181.083 158.659, 183.125 159, 189.459 159 C 198.128 159, 197.407 159.274, 206.703 152.449 C 208.724 150.965, 209.359 150.963, 214.357 152.416 C 224.102 155.248, 224.980 154.657, 228.331 143 C 230.865 134.184, 239.782 126.677, 249.262 125.378 C 254.511 124.658, 259.390 126.522, 266.450 131.943 C 274.476 138.106, 276.440 137.831, 278.526 130.250 C 283.332 112.785, 287.963 107.392, 301.548 103.443 C 308.861 101.317, 314.255 101.917, 324.962 106.046 C 330.628 108.231, 333.505 108.895, 334.219 108.181 C 337.519 104.881, 328.065 93.988, 319.761 91.522 C 312.876 89.477, 303.829 89.691, 296.301 92.077 M 660.388 110.033 C 652.172 116.443, 643.254 129, 646.917 129 C 648.427 129, 663.997 113.906, 665.515 110.972 C 666.823 108.441, 666.626 107, 664.971 107 C 664.588 107, 662.526 108.365, 660.388 110.033 M 863.996 128.148 C 854.774 132.849, 853.922 133.523, 854.198 135.898 C 854.676 140.012, 858.502 139.739, 867.603 134.941 C 874.682 131.210, 876.029 130.833, 880.606 131.302 C 883.414 131.590, 888.464 133.215, 891.827 134.913 C 899.261 138.665, 901.323 138.733, 907.533 135.431 C 912.898 132.579, 917.566 132.637, 927.707 135.683 C 933.962 137.561, 936.593 136.976, 935.030 134.055 C 933.314 130.849, 927.884 127.305, 922.068 125.596 C 914.948 123.504, 912.683 123.578, 904.420 126.171 L 897.503 128.342 889.962 125.671 C 878.969 121.777, 875.925 122.068, 863.996 128.148 M 331.559 126.250 C 333.742 133.326, 342.468 142.760, 351.253 147.541 C 360.380 152.509, 358.866 149.715, 344.178 134.490 C 334.254 124.204, 330.089 121.484, 331.559 126.250 M 626.517 187.084 C 608.376 199.199, 592.713 209.855, 591.710 210.763 C 589.952 212.353, 589.965 212.443, 592.060 213.218 C 593.694 213.822, 598.130 212.358, 609.868 207.341 C 618.465 203.667, 631.125 198.824, 638 196.580 L 650.500 192.500 653.235 187 C 655.469 182.506, 661 167.156, 661 165.448 C 661 164.214, 657.072 166.678, 626.517 187.084 M 498 178.446 C 484.990 181.803, 475.024 188.049, 463.821 199.869 C 454.104 210.121, 448.955 218.386, 445.363 229.500 C 443.147 236.357, 442.778 239.286, 442.778 250 C 442.778 260.714, 443.147 263.643, 445.363 270.500 C 450.718 287.067, 462.071 300.631, 476.207 307.350 C 486.651 312.313, 492.673 313.366, 507.158 312.763 C 517.618 312.327, 520.736 311.791, 527.608 309.246 C 556.348 298.602, 575.046 272.332, 574.983 242.685 C 574.921 213.648, 556.992 188.059, 531 179.909 C 522.459 177.231, 505.605 176.484, 498 178.446 M 316.223 184.250 C 315.661 184.938, 313.551 189.775, 311.534 195 C 307.226 206.159, 307.328 207.612, 313.085 217.140 C 316.280 222.429, 317.064 224.632, 316.815 227.625 C 316.505 231.349, 316.373 231.461, 309 234.265 C 299.555 237.857, 296 241.070, 296 246.013 C 296 248.509, 296.707 250.299, 298.250 251.713 C 301.409 254.607, 307.882 257.704, 312.547 258.552 C 319.182 259.758, 333 267.818, 333 270.482 C 333 271.111, 331.650 272.919, 330 274.500 C 324.326 279.936, 326.726 286.265, 335.500 289.001 C 340.221 290.472, 343.913 293.116, 352.614 301.255 L 359.034 307.261 358.409 311.972 C 357.389 319.661, 359.368 322.229, 369.235 326.014 C 384.206 331.758, 388.791 334.762, 401.512 347.161 C 414.713 360.027, 417.875 361.967, 421.635 359.504 C 424.721 357.482, 424.708 353.795, 421.579 343.655 C 417.839 331.534, 409.160 318.011, 400.882 311.406 C 392.220 304.495, 389.489 300.853, 386.045 291.622 C 384.513 287.514, 381.686 282.206, 379.763 279.826 C 377.841 277.447, 374.849 272.492, 373.114 268.816 C 370.421 263.107, 368.956 261.401, 363.076 257.124 C 352.040 249.097, 351.040 247.219, 347.049 227 C 345.532 219.317, 341.942 212.053, 336.087 204.816 C 333.334 201.413, 329.656 195.956, 327.915 192.689 C 323.094 183.644, 319.084 180.750, 316.223 184.250 M 163.388 192.980 C 160.401 194.187, 157 198.830, 157 201.701 C 157 205.027, 158.514 207.630, 163.902 213.564 C 169.480 219.707, 172.537 225.158, 171.671 227.415 C 171.317 228.336, 169.489 229.733, 167.608 230.519 C 163.853 232.088, 158 238.517, 158 241.073 C 158 243.968, 161.345 245.768, 170 247.530 C 178.950 249.352, 187.028 249.761, 190.748 248.580 C 192.579 247.999, 194.290 249.122, 200.434 254.937 C 204.538 258.822, 208.061 262, 208.264 262 C 208.467 262, 211.181 262.471, 214.295 263.047 C 221.129 264.310, 224 263.211, 224 259.333 C 224 255.118, 220.205 250.137, 214.973 247.486 C 208.271 244.090, 195.576 227.909, 189.094 214.500 C 184.110 204.189, 178.103 197.173, 171.207 193.607 C 167.762 191.826, 166.496 191.724, 163.388 192.980 M 632.540 211.176 C 626.118 214.561, 609.062 221.601, 601.302 224.070 C 588.734 228.069, 594.443 228.981, 618.643 226.841 L 631.786 225.679 635.893 217.971 C 638.152 213.731, 640 209.979, 640 209.631 C 640 208.386, 636.429 209.126, 632.540 211.176 M 280.154 217.081 C 272.915 220.698, 270.691 223.544, 270.580 229.334 C 270.469 235.131, 273.015 235.284, 280.261 229.916 C 286.057 225.622, 289.368 220.542, 288.815 216.791 C 288.346 213.609, 287.012 213.654, 280.154 217.081 M 783.237 220.250 C 782.683 220.938, 780.427 225.100, 778.223 229.500 C 776.019 233.900, 772.551 239.969, 770.516 242.988 C 766.153 249.458, 766.205 251.167, 771.074 261.351 C 775.849 271.338, 779.685 272.377, 783.629 264.751 C 784.753 262.578, 784.939 260.440, 784.378 256.178 C 783.380 248.597, 783.579 247.433, 787.568 237.539 C 791.500 227.789, 791.842 223.842, 789 221 C 786.709 218.709, 784.691 218.447, 783.237 220.250 M 379.402 242.466 C 380.642 247.407, 382.852 249.721, 386.958 250.377 C 389.096 250.719, 392.183 252.124, 393.817 253.499 C 396.508 255.764, 397.644 256, 405.839 256 C 413.805 256, 415.204 255.728, 417.527 253.730 C 420.066 251.547, 420.096 251.399, 418.333 249.847 C 416.753 248.457, 394.418 242.569, 382.607 240.429 C 378.751 239.730, 378.720 239.750, 379.402 242.466 M 598.250 240.706 C 596.381 241.066, 596 241.792, 596 244.990 C 596 249.300, 595.459 249.036, 608.354 251.018 C 613.576 251.821, 615.558 251.781, 616.677 250.853 C 618.297 249.508, 622 242.682, 622 241.040 C 622 240.020, 603.182 239.756, 598.250 240.706 M 642.206 258.480 C 640.544 259.878, 636.133 266.969, 632.098 274.730 C 628.159 282.304, 620.859 294.125, 615.875 301 C 600.283 322.507, 599.440 324.216, 602.035 329.066 C 604.558 333.780, 609.440 330.445, 619.041 317.444 C 622.794 312.363, 627.473 306.979, 629.437 305.480 C 636.743 299.908, 643.793 286.794, 645.896 274.865 C 646.443 271.766, 647.813 267.716, 648.941 265.865 C 651.474 261.710, 651.528 259.788, 649.171 257.655 C 646.719 255.436, 645.677 255.559, 642.206 258.480 M 264 261.460 C 261.525 262.782, 257.334 264.617, 254.688 265.538 C 248.330 267.751, 242.157 274.189, 235.544 285.506 C 232.654 290.453, 227.792 298.579, 224.740 303.564 C 218.074 314.455, 216.181 319.907, 217.819 323.503 C 218.607 325.232, 219.755 326, 221.554 326 C 225.251 326, 236.235 319.172, 245 311.424 C 249.125 307.778, 255.536 302.703, 259.248 300.147 C 266.677 295.030, 269.532 290.697, 268.517 286.077 C 267.962 283.551, 268.437 282.850, 272.934 279.548 C 279.357 274.833, 282 271.451, 282 267.947 C 282 263.802, 281.066 262.085, 277.928 260.463 C 273.870 258.364, 269.168 258.701, 264 261.460 M 597.667 260.667 C 597.300 261.033, 597 262.152, 597 263.153 C 597 265.132, 602.622 268, 606.500 268 C 609.118 268, 611.452 265.621, 610.716 263.702 C 609.838 261.415, 599.357 258.977, 597.667 260.667 M 407 268.721 C 405.625 268.968, 404.105 269.548, 403.623 270.011 C 402.671 270.926, 406.585 278, 408.044 278 C 408.529 278, 411.419 277.067, 414.467 275.927 C 419.810 273.927, 422.748 271.020, 421.487 268.979 C 420.889 268.012, 411.850 267.851, 407 268.721 M 106.708 270.104 C 105.722 270.677, 103.205 274.826, 101.115 279.323 C 99.025 283.821, 95.331 289.895, 92.907 292.823 C 84.896 302.498, 84 304.070, 84 308.448 C 84 314.965, 87.258 316.590, 94.367 313.620 C 98.751 311.788, 110.500 300.711, 113.498 295.583 C 118.685 286.714, 118.584 275.178, 113.284 271.009 C 110.417 268.753, 109.294 268.599, 106.708 270.104 M 160.605 275.299 C 157.590 277.504, 158.853 282.189, 163 284.183 C 164.925 285.109, 168.750 286.948, 171.500 288.269 C 174.250 289.590, 180.100 292.779, 184.500 295.356 C 192.671 300.140, 195.239 300.713, 195.786 297.872 C 196.186 295.796, 181.873 280.533, 176.054 276.829 C 171.136 273.700, 163.788 272.972, 160.605 275.299 M 590.589 277.077 C 589.165 278.769, 588 280.499, 588 280.922 C 588 282.067, 591.062 284.537, 594.883 286.474 C 598.642 288.380, 598.509 288.467, 602.047 281.774 L 604.016 278.049 600.048 276.024 C 594.763 273.328, 593.637 273.454, 590.589 277.077 M 422.718 284.437 C 414.332 287.429, 409.397 292.875, 414.229 293.806 C 417.021 294.343, 429 287.132, 429 284.914 C 429 282.680, 427.881 282.595, 422.718 284.437 M 578.073 293.635 C 576.933 295.084, 576 296.624, 576 297.057 C 576 298.222, 586.272 307, 587.634 307 C 588.277 307, 589.748 305.397, 590.904 303.439 C 593.429 299.159, 592.721 297.242, 587.243 293.519 C 582.540 290.324, 580.658 290.347, 578.073 293.635 M 424.094 301.127 L 421.810 303.255 423.892 305.336 L 425.974 307.418 429.487 304.013 C 431.419 302.140, 433 300.246, 433 299.804 C 433 298.069, 426.309 299.064, 424.094 301.127 M 280.379 305.868 C 278.663 306.938, 275.811 309.828, 274.043 312.290 C 269.833 318.153, 261.030 325.690, 254.620 328.920 C 248.514 331.997, 247.185 335.765, 251.262 338.436 C 253.423 339.852, 254.139 339.851, 258.932 338.427 C 264.027 336.915, 264.300 336.933, 266.424 338.929 C 267.637 340.068, 269.071 341, 269.612 341 C 272.290 341, 283.179 327.050, 285.090 321.171 C 285.746 319.152, 287.569 315.860, 289.141 313.856 C 290.714 311.852, 292 309.545, 292 308.729 C 292 304.773, 284.927 303.032, 280.379 305.868 M 566.564 309.579 C 565.704 310.439, 565 311.757, 565 312.509 C 565 314.564, 575.893 331.500, 577.215 331.500 C 577.847 331.500, 579.947 329.295, 581.883 326.600 L 585.403 321.700 579.658 316.354 C 576.499 313.413, 572.612 310.334, 571.021 309.511 C 568.435 308.174, 567.962 308.181, 566.564 309.579 M 436.500 310.669 C 427.316 315.533, 423.338 320.982, 426.039 325 C 426.868 326.233, 428.021 325.469, 432.520 320.707 C 437.784 315.136, 441.891 308.957, 440.276 309.040 C 439.849 309.062, 438.150 309.795, 436.500 310.669 M 443.447 329.079 C 437.426 334.626, 432.361 339.544, 432.192 340.008 C 431.760 341.188, 435.852 349, 436.902 349 C 438.498 349, 456.303 320.903, 455.326 319.926 C 454.750 319.350, 450.214 322.845, 443.447 329.079 M 548.200 322.200 C 547.540 322.860, 547 324.341, 547 325.491 C 547 329.780, 555.722 353.990, 559.073 359.001 L 560.647 361.354 565.232 354.927 C 573.342 343.559, 573.350 344.471, 565.052 334.065 C 555.082 321.563, 551.417 318.983, 548.200 322.200 M 456.579 332.395 C 448.215 347.988, 446.021 353.132, 446.010 357.163 C 446.001 360.314, 446.587 361.259, 450.197 363.913 C 452.505 365.611, 454.893 367, 455.503 367 C 456.588 367, 470 332.531, 470 329.745 C 470 328.969, 468.232 326.914, 466.072 325.178 L 462.144 322.021 456.579 332.395 M 866.834 327.389 C 865.221 328.188, 864.401 329.578, 864.178 331.887 C 863.901 334.767, 864.530 335.879, 868.733 339.929 C 874.101 345.104, 883.655 351, 886.672 351 C 889.221 351, 891 349.115, 891 346.414 C 891 343.945, 874.562 327.642, 871.182 326.758 C 870.075 326.468, 868.118 326.752, 866.834 327.389 M 480.555 332.701 C 475.984 344.498, 466.023 374.619, 466.383 375.555 C 466.927 376.974, 475.766 380.567, 476.617 379.716 C 477.857 378.476, 484.066 345.092, 484.276 338.533 C 484.461 332.792, 484.214 331.508, 482.876 331.234 C 481.983 331.051, 480.938 331.711, 480.555 332.701 M 529.305 332.644 C 527.824 333.246, 528.326 338.549, 531.649 357.426 C 534.716 374.851, 537.805 388.205, 539.058 389.458 C 540.233 390.633, 551.832 379.477, 552.602 376.431 C 553.121 374.383, 544.577 349.011, 539.578 337.750 C 537.205 332.405, 536.795 332.006, 533.763 332.079 C 531.968 332.122, 529.962 332.377, 529.305 332.644 M 513.856 334.669 C 512.953 334.909, 511.965 336.319, 511.661 337.803 C 511.049 340.798, 511.786 380.536, 512.606 388.685 C 513.096 393.552, 513.322 393.910, 516.314 394.543 C 518.066 394.913, 520.400 396.017, 521.500 396.997 C 522.600 397.976, 525.209 398.965, 527.298 399.193 L 531.095 399.610 530.409 394.055 C 530.031 391, 527.596 377.925, 524.997 365 C 520.475 342.511, 518.040 333.864, 516.301 334.116 C 515.860 334.180, 514.760 334.429, 513.856 334.669 M 672.565 337.250 C 671.117 339.038, 667.594 343.425, 664.735 347 C 661.876 350.575, 655.083 358.225, 649.639 364 C 644.194 369.775, 639.085 375.493, 638.284 376.706 C 635.496 380.930, 639.486 382.531, 644 379 C 645.375 377.924, 647.850 377.032, 649.500 377.017 C 651.150 377.002, 653.716 376.204, 655.202 375.245 C 657.882 373.514, 671 356.573, 671 354.842 C 671 354.347, 672.851 351.599, 675.113 348.737 C 679.935 342.637, 681.328 339.441, 680.536 336.289 C 679.669 332.834, 675.760 333.305, 672.565 337.250 M 495.602 337.250 C 494.235 339.380, 492.754 346.318, 487.970 373 C 486.836 379.325, 485.686 385.248, 485.415 386.162 C 484.926 387.807, 487.449 388.829, 493.834 389.571 C 495.118 389.720, 497.033 390.625, 498.090 391.582 C 499.147 392.538, 500.314 393.019, 500.683 392.650 C 501.494 391.840, 501.225 345.257, 500.374 339.250 C 499.699 334.480, 497.871 333.714, 495.602 337.250 M 312.907 339.326 C 310.317 340.693, 306.719 343.990, 304.180 347.325 C 300.551 352.091, 299.227 353.100, 295.906 353.631 C 292.627 354.155, 290.752 355.548, 284.931 361.781 C 281.070 365.915, 278.048 370.009, 278.215 370.878 C 278.382 371.748, 279.748 372.891, 281.251 373.419 C 283.668 374.269, 284.867 373.762, 291.679 369.005 C 298.057 364.552, 300.022 363.669, 303.142 363.853 C 306.685 364.062, 312.750 361.508, 321.053 356.309 C 323.470 354.796, 323.816 354.849, 327.553 357.295 C 333.091 360.920, 336.481 361.570, 339.507 359.587 C 344.048 356.612, 342.925 353.115, 335.044 345.680 C 325.550 336.724, 320.554 335.290, 312.907 339.326 M 127.497 341.995 C 126.395 342.412, 121.885 346.521, 117.475 351.126 C 113.064 355.732, 108.003 360.697, 106.228 362.160 C 102.440 365.281, 102.277 366.277, 105.094 369.094 C 107.850 371.850, 111.256 371.213, 125.279 365.319 C 136.105 360.768, 142 356.453, 142 353.078 C 142 351.145, 139.024 348, 137.194 348 C 136.563 348, 135.297 346.857, 134.381 345.459 C 132.228 342.173, 129.995 341.049, 127.497 341.995 M 827.073 347.635 C 825.933 349.084, 825 351.066, 825 352.040 C 825 354.078, 835.079 361.835, 847.169 369.101 C 856.213 374.537, 860.520 375.293, 863.524 371.974 C 865.330 369.977, 865.194 369.786, 854.429 359.204 C 848.418 353.296, 841.857 347.683, 839.849 346.731 C 834.337 344.118, 829.574 344.455, 827.073 347.635 M 585.339 351.870 C 581.552 354.613, 575.462 362.832, 569.883 372.728 C 567.147 377.582, 567.929 380.286, 572.219 380.804 C 574.270 381.051, 576.251 379.474, 582.900 372.304 C 587.389 367.462, 592.023 361.516, 593.197 359.091 C 595.126 355.107, 595.192 354.433, 593.882 352.098 C 591.869 348.512, 590.042 348.463, 585.339 351.870 M 683.799 358.091 C 681.637 360.364, 677.502 365.885, 674.610 370.362 C 666.502 382.911, 660.836 388.432, 650.500 393.854 C 642.881 397.850, 641.500 398.953, 641.500 401.037 C 641.500 403.383, 641.760 403.489, 646.963 403.263 C 654.415 402.940, 661.986 399.130, 665.386 393.992 C 667.313 391.081, 669.700 389.247, 674.261 387.173 C 677.692 385.613, 683.756 382.487, 687.735 380.227 C 691.715 377.967, 697.677 375.131, 700.985 373.925 C 706.056 372.076, 707 371.356, 707 369.335 C 707 365.850, 705.227 365.634, 695.533 367.936 C 686.090 370.179, 683 370.474, 683 369.135 C 683 368.659, 684.799 365.622, 686.998 362.385 C 691.530 355.712, 691.610 355.448, 689.365 354.586 C 688.256 354.161, 686.463 355.291, 683.799 358.091 M 829.455 370.455 C 826.297 373.612, 826.360 375.322, 829.750 378.482 C 834.345 382.765, 840.659 385.217, 849.345 386.091 C 853.830 386.543, 859.106 387.182, 861.069 387.513 C 863.776 387.969, 865.224 387.633, 867.069 386.122 C 869.220 384.358, 869.327 383.964, 868 382.690 C 867.175 381.899, 862.330 380.243, 857.233 379.010 C 850.391 377.354, 846.205 375.627, 841.233 372.405 C 837.530 370.006, 833.917 368.033, 833.205 368.021 C 832.492 368.010, 830.805 369.105, 829.455 370.455 M 347.455 372.455 C 343.266 376.643, 344.745 381.244, 350.869 383.079 C 355.524 384.474, 358.667 383.175, 359.596 379.473 C 360.459 376.035, 359.587 374.328, 355.784 372.009 C 351.541 369.423, 350.426 369.483, 347.455 372.455 M 780.073 377.635 C 773.840 385.558, 782.577 390.822, 790.465 383.896 C 796.314 378.761, 794.484 375, 786.138 375 C 783.016 375, 781.693 375.574, 780.073 377.635 M 881.250 382.491 C 877.298 384.208, 877.186 385.541, 880.687 389.195 C 883.754 392.396, 887.137 392.731, 897.744 390.884 C 903.529 389.877, 906.362 388.028, 904.687 386.353 C 903.923 385.590, 887.870 381.045, 886 381.064 C 885.175 381.072, 883.038 381.714, 881.250 382.491 M 187.705 386.250 C 186.782 386.938, 185.746 388.933, 185.402 390.684 C 184.587 394.835, 188.392 399, 193 399 C 196.085 399, 201 395.301, 201 392.980 C 201 391.296, 198.871 387.652, 197.087 386.282 C 195.009 384.687, 189.826 384.669, 187.705 386.250 M 956.364 388.923 C 948.824 393.968, 944.563 398.419, 945.339 400.440 C 946.115 402.464, 948.944 402.428, 951.902 400.356 C 955.702 397.694, 973.175 399.027, 979.784 402.482 C 985.387 405.412, 990.826 406.525, 992.861 405.159 C 996.358 402.810, 971.286 385.093, 964.364 385.022 C 963.189 385.010, 959.589 386.766, 956.364 388.923 M 227 388 C 224.495 390.505, 224.430 394.430, 226.852 396.852 C 228.827 398.827, 244.838 405, 247.987 405 C 249.023 405, 251.024 404.561, 252.435 404.025 C 256.188 402.598, 255.751 399.095, 251.250 394.532 C 243.893 387.073, 231.315 383.685, 227 388 M 805.750 389.080 C 803.073 390.639, 803.413 397.099, 806.314 399.826 C 809.028 402.375, 814.171 402.703, 816.044 400.447 C 820.958 394.526, 812.477 385.162, 805.750 389.080 M 837 393.288 C 835.477 394.055, 834.381 395.567, 834.195 397.160 C 833.932 399.409, 834.836 400.392, 840.695 404.226 C 844.438 406.675, 850.095 409.707, 853.267 410.963 C 856.440 412.219, 861.927 414.991, 865.463 417.123 C 870.684 420.272, 872.843 421, 876.967 421 C 881.395 421, 882.187 420.685, 883.168 418.530 C 884.581 415.429, 883.194 413.489, 878.958 412.642 C 877.309 412.312, 872.984 410.247, 869.346 408.053 C 865.709 405.859, 860.412 403.390, 857.576 402.565 C 853.739 401.450, 851.377 399.906, 848.346 396.533 C 844.021 391.720, 841.530 391.008, 837 393.288 M 685.103 399.040 C 682.795 400.712, 680.670 402.697, 680.381 403.450 C 679.159 406.634, 687.333 416.653, 693.103 419.043 C 695.629 420.089, 696.334 420.008, 698.026 418.477 C 700.446 416.287, 700.531 413.708, 698.308 409.945 C 696.719 407.255, 696.719 406.967, 698.308 405.212 C 700.604 402.675, 700.435 400.757, 697.686 398.174 C 694.427 395.113, 690.115 395.409, 685.103 399.040 M 123.500 404.027 C 119.100 406.740, 113.925 409.226, 112 409.550 C 110.075 409.875, 106.302 411.009, 103.617 412.070 C 97.566 414.461, 96.477 414.469, 93.154 412.139 C 91.694 411.115, 88.812 409.730, 86.749 409.061 C 84.686 408.392, 80.759 406.304, 78.023 404.422 C 75.287 402.540, 72.704 401, 72.283 401 C 71.862 401, 63.709 403.097, 54.164 405.661 C 39.689 409.548, 36.644 410.688, 35.802 412.534 C 34.286 415.862, 36.333 418.743, 41.130 420.035 C 45.763 421.282, 49.367 420.852, 63.256 417.392 L 73.013 414.962 82.707 419.088 C 94.864 424.263, 99.548 424.208, 108.551 418.785 C 112.803 416.224, 116.073 415.058, 120.013 414.698 C 123.046 414.420, 127.184 413.403, 129.210 412.437 C 132.851 410.700, 132.930 410.708, 136.196 413.152 C 141.218 416.907, 152.828 423, 154.963 423 C 156.922 423, 160 420.534, 160 418.963 C 160 417.190, 153.607 410.840, 149.936 408.967 C 147.871 407.914, 144.089 405.240, 141.530 403.026 C 138.507 400.410, 135.937 399.016, 134.189 399.046 C 132.710 399.072, 127.900 401.313, 123.500 404.027 M 886.315 400.016 C 883.177 401.267, 881.792 404.322, 882.964 407.407 C 885.082 412.977, 894.206 411.418, 894.801 405.384 C 895.237 400.964, 890.869 398.201, 886.315 400.016"/>
</svg>