<?xml version="1.0" encoding="utf-8"?>
<svg xmlns="http://www.w3.org/2000/svg" width="1002" height="968" viewBox="0 0 1002 968">
  <path fill-rule="evenodd" d="M 597.500 3.116 C 588.387 6.229, 556.532 22.092, 547.500 28.015 C 521.379 45.146, 492.984 75.389, 485.326 94.236 C 482.899 100.209, 478.577 107.195, 469.079 120.500 C 466.331 124.350, 459.029 135.600, 452.853 145.500 C 436.006 172.506, 424.256 188.592, 412.137 201.240 L 407.594 205.980 399.047 205.340 C 392.829 204.874, 389.819 204.170, 388 202.757 C 385.828 201.069, 384.545 200.904, 378.210 201.496 C 372.614 202.020, 370.405 201.840, 368.700 200.723 C 366.139 199.045, 350.472 197.609, 339.750 198.069 C 338.512 198.122, 336.238 197.846, 334.695 197.456 C 332.844 196.987, 330.579 197.337, 328.037 198.484 C 324.357 200.143, 324.044 200.139, 321.107 198.404 C 318.097 196.626, 317.932 196.634, 313.488 198.793 C 310.990 200.007, 307.271 201.005, 305.223 201.012 C 303.109 201.019, 299.620 202.099, 297.148 203.512 C 294.754 204.880, 291.269 206, 289.402 206 C 287.536 206, 281.619 207.800, 276.254 210 C 270.890 212.200, 265.825 214.014, 265 214.031 C 264.175 214.048, 261.700 215.171, 259.500 216.526 C 257.300 217.881, 254.439 218.992, 253.142 218.995 C 251.636 218.998, 249.285 220.618, 246.642 223.474 C 243.329 227.053, 241.467 228.167, 237.341 229.038 C 232.993 229.955, 231.777 230.739, 229.605 234.021 C 227.646 236.981, 226.004 238.180, 222.764 239.017 C 220.419 239.623, 217.732 240.341, 216.794 240.613 C 215.856 240.885, 213.957 242.451, 212.575 244.093 C 210.764 246.246, 209.027 247.161, 206.354 247.372 C 203.333 247.609, 201.862 248.568, 198.407 252.550 C 194.508 257.045, 193.849 257.414, 190.188 257.149 C 185.538 256.814, 182.861 259.120, 177.882 267.750 C 174.540 273.543, 174.689 273.439, 171.867 271.929 C 169.104 270.450, 165.382 273.015, 163.346 277.799 C 157.977 290.421, 157.128 291.634, 155.500 289 C 154.490 287.367, 150.436 287.861, 148.649 289.836 C 147.735 290.845, 145.662 294.409, 144.041 297.754 C 141.636 302.719, 140.732 303.743, 139.122 303.322 C 137.480 302.892, 136.583 304.036, 133.759 310.153 C 130.386 317.460, 130.370 317.565, 130.799 329.523 C 131.065 336.938, 130.582 347.670, 129.540 357.523 C 128.118 370.956, 127.472 374.057, 125.485 377 C 124.185 378.925, 122.574 382.750, 121.906 385.500 C 121.237 388.250, 118.463 395.900, 115.741 402.500 C 99.421 442.065, 99.359 442.254, 96.446 461.500 C 94.948 471.400, 92.772 484, 91.611 489.500 C 89.389 500.024, 89.297 504.064, 90.274 548 C 90.577 561.630, 91.248 569.264, 92.825 577 C 94.001 582.775, 96.131 593.575, 97.557 601 C 98.984 608.425, 101.662 620.125, 103.509 627 C 106.755 639.084, 114.111 661.753, 115.533 664.054 C 115.916 664.672, 117.969 670.346, 120.096 676.661 C 122.949 685.131, 125.368 690.159, 129.316 695.822 C 132.259 700.045, 137.084 707.775, 140.036 713 C 146.699 724.791, 158.044 741.783, 161.163 744.644 C 162.448 745.823, 168.450 750.064, 174.500 754.068 C 188.361 763.241, 197.796 770.824, 202.515 776.584 C 205.108 779.748, 208.607 782.282, 214.348 785.152 C 218.832 787.393, 226.325 791.793, 231 794.930 C 245.633 804.747, 258.500 808.775, 258.500 803.538 C 258.500 802.205, 255.726 799.639, 249.851 795.538 C 225.087 778.249, 185.853 735.787, 165.733 704.500 C 161.450 697.840, 157.614 690.052, 158.286 689.381 C 158.458 689.209, 160.790 690.178, 163.469 691.534 C 166.147 692.890, 169.246 694, 170.354 694 C 175.311 694, 181.172 698.251, 186.737 705.884 C 197.495 720.638, 200.650 722.991, 209.700 723.015 C 212.890 723.024, 216.002 723.361, 216.616 723.765 C 217.229 724.169, 218.714 726.438, 219.915 728.807 C 221.597 732.125, 223.150 733.564, 226.678 735.077 C 229.197 736.156, 232.621 738.186, 234.287 739.588 C 235.953 740.990, 240.732 743.862, 244.908 745.972 C 249.083 748.081, 255.869 752.100, 259.988 754.903 C 268.295 760.558, 272.984 761.453, 277.048 758.162 C 279.684 756.028, 278.949 754, 275.540 754 C 273.984 754, 272.509 752.908, 271.149 750.750 C 270.022 748.962, 267.142 745.025, 264.750 742 C 260.648 736.813, 260.119 736.482, 255.460 736.185 C 252.123 735.973, 249.483 735.080, 247.326 733.435 C 245.328 731.911, 242.804 731, 240.581 731 C 237.240 731, 236.847 730.641, 233.983 724.966 C 230.536 718.137, 226.017 714.574, 222 715.515 C 220.625 715.838, 217.179 716.356, 214.342 716.667 C 209.734 717.172, 208.805 716.930, 205.627 714.394 C 201.747 711.298, 200.029 706.080, 199.967 697.201 C 199.942 693.548, 198.985 690.827, 195.679 685 L 191.423 677.500 185.077 676.237 C 173.789 673.990, 166.925 669.929, 158.832 660.707 C 154.871 656.193, 150.859 651.944, 149.917 651.265 C 145.305 647.939, 134.562 633.246, 130.868 625.213 C 128.669 620.431, 125.746 615.044, 124.372 613.243 C 119.746 607.178, 117.974 601.566, 116.965 589.777 C 116.433 583.575, 115.620 574, 115.157 568.500 C 114.673 562.746, 114.695 557.459, 115.210 556.049 C 115.758 554.546, 115.700 551.840, 115.060 549.049 C 114.486 546.547, 114.024 542.925, 114.033 541 C 114.042 539.075, 114.012 532.100, 113.965 525.500 C 113.887 514.341, 114.131 512.729, 117.451 502.500 C 119.415 496.450, 122.457 486.375, 124.212 480.112 C 126.523 471.865, 129.101 465.673, 133.560 457.659 C 140.591 445.022, 142.593 443.214, 141.328 450.641 C 140.872 453.313, 140.504 457.680, 140.510 460.343 C 140.518 464.616, 140.909 465.500, 143.824 467.843 C 154.778 476.649, 155.472 478.110, 157.005 495.554 C 158.161 508.712, 159.691 511.635, 169.865 520.126 C 187.913 535.187, 190.863 538.804, 193.529 549.143 C 196.546 560.843, 201.337 567.983, 210.399 574.283 C 212.145 575.497, 213.461 577.890, 214.524 581.783 C 219.809 601.136, 232.444 615.342, 243.044 613.847 C 244.902 613.584, 245.500 612.893, 245.500 611.010 C 245.500 609.117, 244.029 607.438, 239.365 604.010 C 235.814 601.399, 232.530 598.026, 231.566 596 C 230.651 594.075, 229.007 590.854, 227.913 588.842 C 226.817 586.827, 225.540 581.763, 225.069 577.563 C 224.238 570.152, 224.086 569.828, 219.607 565.885 C 214.711 561.576, 214.161 559.704, 216.130 554.056 C 217.692 549.577, 215.921 544.090, 210.419 536.355 C 208.015 532.975, 205.498 528.025, 204.825 525.355 C 203.195 518.886, 201.734 517.355, 195.443 515.527 C 189.453 513.785, 185.116 510.543, 181.971 505.454 C 179.408 501.306, 177.083 489.126, 177.035 479.590 C 176.996 471.917, 178.302 473.830, 165.217 462.280 C 161.550 459.044, 160.812 457.721, 160.090 453.082 C 159.506 449.336, 159.671 445.634, 160.623 441.083 C 161.380 437.463, 162 433.498, 162 432.273 C 162 431.048, 163.030 429.371, 164.290 428.546 C 167.423 426.493, 173.332 428.173, 178.096 432.472 C 180.074 434.257, 183.899 436.511, 186.596 437.481 C 202.267 443.118, 203.931 444.780, 212.034 462.880 C 218.938 478.302, 220.378 480.350, 231.518 490.588 C 238.752 497.236, 241.981 501.024, 244.227 505.500 C 245.883 508.800, 249.322 513.876, 251.869 516.780 C 262.147 528.499, 273.684 540.258, 276.786 542.176 C 278.593 543.293, 281.143 546.298, 282.453 548.854 C 285.060 553.939, 290.024 558.953, 303 569.607 C 321.394 584.709, 331.018 591, 335.727 591 C 338.998 591, 349.340 596.698, 354.182 601.168 C 356.485 603.294, 360.768 606.207, 363.699 607.641 C 366.631 609.075, 370.352 611.919, 371.969 613.961 C 373.586 616.002, 377.742 619.163, 381.204 620.985 C 391.467 626.384, 402.581 633.968, 418.350 646.332 C 427.866 653.794, 434.626 658.361, 437.170 659.046 C 441.884 660.315, 442.120 660.459, 462.347 674.364 C 471.039 680.339, 478.388 685.848, 478.679 686.606 C 478.970 687.365, 482.199 689.978, 485.854 692.414 C 489.509 694.850, 495.425 699.400, 499 702.523 C 507.547 709.992, 515.563 715.397, 520.471 717.002 C 522.890 717.793, 527.404 721.077, 532.017 725.401 C 536.183 729.305, 542.166 734.670, 545.313 737.322 C 548.459 739.974, 551.645 743.607, 552.392 745.395 C 554.407 750.218, 559.475 755.541, 567.947 761.732 C 577.163 768.466, 583 773.929, 583 775.821 C 583 776.599, 581.650 778.774, 580 780.653 C 576.703 784.408, 576.140 787.456, 578.572 788.389 C 580.464 789.115, 582.860 787.909, 589.562 782.859 C 601.096 774.166, 612.444 773.797, 619.257 781.893 C 622.527 785.780, 623.688 791.195, 622.031 794.827 L 620.811 797.500 618.655 794.657 C 615.075 789.933, 610.690 785.833, 608.212 784.890 C 601.008 782.151, 591.966 785.572, 585.804 793.367 C 582.572 797.456, 581.259 798.415, 579.253 798.152 C 576.864 797.839, 576.778 798.001, 577.441 801.537 C 578.405 806.676, 582.524 812.546, 586.485 814.426 C 591.830 816.962, 594.510 816.442, 598.538 812.089 C 602.052 808.291, 607.493 805.160, 608.620 806.287 C 608.926 806.593, 608.150 808.231, 606.895 809.928 C 603.580 814.412, 605.416 815.468, 611.519 812.589 C 617.371 809.828, 623.482 803.786, 626.498 797.779 C 627.833 795.121, 629.437 793.384, 630.731 793.193 C 633.078 792.846, 637 796.488, 637 799.014 C 637 801.044, 633.616 804.212, 629 806.504 C 619.365 811.287, 620.089 814.851, 630.087 811.856 C 633.396 810.864, 635.616 811.127, 646.703 813.825 C 655.563 815.980, 661.527 816.874, 666.089 816.730 C 673.626 816.491, 676.279 817.832, 686.201 826.900 C 694.464 834.453, 696.067 841.831, 690.879 848.426 C 686.638 853.819, 676.404 856.689, 655 858.490 C 612.583 862.060, 597.991 864.219, 585 868.848 C 574.543 872.574, 560.483 879.889, 556 883.935 C 553.525 886.169, 551.231 887.998, 550.902 887.999 C 550.573 887.999, 549.501 889.780, 548.520 891.956 L 546.736 895.912 550.399 903.625 C 552.630 908.323, 553.702 911.698, 553.141 912.259 C 552.271 913.129, 538.344 910.815, 515.369 905.985 C 498.203 902.375, 490.405 898.058, 481.392 887.174 C 467.481 870.374, 456.965 843.005, 455.540 819.892 C 454.651 805.476, 453.064 795.822, 451.651 796.240 C 449.616 796.842, 445.264 807.112, 443.521 815.425 C 442.590 819.866, 440.457 828.225, 438.782 834 C 432.223 856.604, 431.780 858.975, 431.828 871.250 C 431.858 879.150, 431.513 883, 430.774 883 C 430.170 883, 422.434 875.688, 413.583 866.750 C 397.813 850.827, 387.107 837.299, 384.498 830 C 383.810 828.075, 380.678 821.325, 377.538 815 C 368.764 797.326, 368.076 794.783, 367.005 776.073 L 366.063 759.614 372.372 750.057 C 384.997 730.933, 401.354 717.271, 419.085 711.041 C 428.754 707.643, 443.910 707.162, 455.137 709.897 C 466.159 712.581, 468 712.588, 468 709.944 C 468 707.292, 462.759 704.950, 449.500 701.677 C 430.625 697.017, 426.873 696.604, 420.421 698.480 C 412.346 700.827, 390.309 712.060, 384.965 716.552 C 382.509 718.617, 378.196 721.789, 375.380 723.601 C 372.564 725.413, 365.953 731.081, 360.689 736.198 C 353.072 743.602, 350.444 746.928, 347.810 752.500 C 344.872 758.713, 344.500 760.456, 344.500 768 C 344.500 776.472, 344.526 776.558, 352.397 794 C 363.462 818.518, 372.913 838.231, 374.451 840 C 377.049 842.987, 395 877.487, 395 879.493 C 395 881.619, 393.514 881.366, 390.637 878.750 C 384.091 872.798, 368.153 854.785, 367.027 852.066 C 366.297 850.302, 365.017 849, 364.014 849 C 363.054 849, 361.126 848.100, 359.727 847 C 358.329 845.900, 356.717 845, 356.146 845 C 354.872 845, 357.368 853.827, 360.234 859.452 C 361.341 861.625, 363.067 865.788, 364.069 868.702 L 365.892 874 361.143 874 C 357.628 874, 354.330 872.977, 348.447 870.063 C 333.091 862.454, 331.801 859.658, 338.022 847.457 C 340.203 843.179, 340.553 838.902, 338.965 835.934 C 337.394 833, 336.283 833.571, 334.141 838.414 C 332.216 842.765, 329.643 845, 326.557 845 C 325.242 845, 325.086 844.117, 325.613 839.634 C 326.559 831.584, 324.893 831.510, 317.627 839.282 C 311.697 845.624, 311.307 845.856, 305.500 846.494 C 302.200 846.856, 297.181 847.794, 294.346 848.576 C 291.298 849.418, 284.556 850.003, 277.846 850.008 C 271.606 850.012, 263.575 850.478, 260 851.043 C 246.729 853.141, 225.358 858.322, 221 860.498 C 218.525 861.733, 213.921 863.487, 210.769 864.394 C 200.069 867.476, 195.638 871.587, 198.087 876.162 C 198.792 877.479, 200.212 878, 203.101 878 C 207.145 878, 211 879.392, 211 880.851 C 211 882.569, 194.121 890.085, 181.500 893.986 C 175.602 895.808, 169.221 899.729, 168.511 901.965 C 167.334 905.673, 169.635 908, 174.476 908 C 180.553 908, 180.858 909.406, 175.358 912.069 C 169.269 915.016, 157.059 915.981, 155.137 913.665 C 152.960 911.042, 154.263 908.666, 159.858 905.052 C 165.616 901.333, 165.466 901.845, 163.421 892.910 C 162.884 890.566, 163.305 890.115, 167.849 888.160 C 170.611 886.972, 173.462 885.996, 174.185 885.991 C 174.908 885.985, 177.798 884.663, 180.607 883.052 C 185.323 880.347, 189 875.531, 189 872.059 C 189 868.654, 193.221 863.071, 197.282 861.105 C 199.674 859.947, 202.104 859, 202.681 859 C 203.258 859, 204.916 858.067, 206.365 856.927 C 208.283 855.419, 209 853.935, 209 851.474 C 209 842.888, 213.401 840.363, 230.951 838.879 C 244.604 837.725, 263.831 835.663, 280.500 833.565 C 287.100 832.735, 295.828 831.705, 299.896 831.278 C 305.208 830.719, 307.597 830.015, 308.374 828.778 C 310.317 825.683, 307.637 824.521, 298.205 824.371 C 293.417 824.295, 284.775 823.530, 279 822.672 C 262.518 820.224, 241.948 818.626, 236.829 819.396 C 233.725 819.863, 230.538 821.338, 227.329 823.790 C 223.088 827.032, 221.611 827.555, 215.202 828.082 C 205.811 828.853, 202.887 830.879, 201.462 837.603 C 200.481 842.229, 200.094 842.676, 194.467 845.683 C 188.275 848.992, 183.722 853.373, 180.780 858.854 C 179.833 860.617, 177.667 862.833, 175.965 863.780 C 174.264 864.726, 170.763 866.938, 168.186 868.696 C 165.609 870.454, 161.700 872.865, 159.500 874.054 C 153.086 877.520, 149.030 881.957, 148.342 886.263 C 147.866 889.240, 147.040 890.436, 144.615 891.658 C 140.962 893.500, 136 897.942, 136 899.371 C 136 899.920, 135.077 902.275, 133.950 904.604 C 131.865 908.910, 128.425 911, 123.422 911 C 122.168 911, 119.535 912.516, 117.571 914.368 C 114.586 917.183, 114 918.420, 114 921.903 C 114 924.195, 114.738 927.196, 115.640 928.573 C 117.573 931.524, 117.150 931.993, 108 937.044 C 98.782 942.132, 96 945.295, 96 950.684 C 96 953.647, 96.362 954.021, 100.250 955.076 C 105.909 956.612, 120.456 955.662, 130.127 953.125 C 137.714 951.135, 153.866 945.400, 161.500 941.985 C 163.700 941.001, 169.515 938.581, 174.423 936.606 C 179.331 934.632, 186.981 930.936, 191.423 928.393 C 195.865 925.850, 203.325 921.798, 208 919.388 C 212.675 916.978, 223.781 909.695, 232.679 903.203 C 241.578 896.710, 251.478 890.154, 254.679 888.634 C 261.838 885.233, 264.339 883.945, 274.575 878.390 C 282.584 874.043, 295.501 870, 301.377 870 C 303.058 870, 306.248 870.633, 308.467 871.406 C 310.685 872.179, 316.325 874.048, 321 875.559 C 325.675 877.070, 336.475 880.958, 345 884.199 C 353.767 887.531, 371.972 893.119, 386.911 897.062 C 401.533 900.922, 416.753 905.582, 421.010 907.504 C 425.239 909.414, 432.086 911.624, 436.226 912.416 C 440.366 913.208, 447.746 915.282, 452.627 917.024 C 459.774 919.575, 464.127 920.393, 475 921.227 C 499.415 923.101, 506.501 923.324, 527 922.859 C 536.775 922.638, 538.087 922.848, 546 925.908 C 550.675 927.715, 557.650 930.075, 561.500 931.152 C 574.982 934.923, 585.184 931.893, 601.709 919.212 C 612.231 911.138, 613.973 910.380, 627.649 907.929 C 638.120 906.053, 640.527 905.937, 648.319 906.935 C 657.582 908.121, 661.285 907.832, 669.500 905.281 C 678.491 902.489, 685.955 895.368, 688.124 887.514 C 688.809 885.034, 690.645 883.162, 695.769 879.725 C 699.478 877.236, 704.213 874.389, 706.291 873.398 C 708.629 872.283, 709.957 871.007, 709.776 870.048 C 709.335 867.716, 704.941 867.688, 701 869.991 C 693.760 874.224, 690.191 875.297, 679 876.609 C 672.675 877.350, 662.775 878.616, 657 879.422 C 651.225 880.228, 640.625 881.372, 633.445 881.964 C 608.439 884.025, 590.336 890.927, 577.946 903.122 C 574.102 906.905, 570.100 910, 569.051 910 C 566.352 910, 563 905.312, 563 901.535 C 563 898.836, 564.168 897.270, 570.530 891.439 C 574.672 887.643, 579.059 883.983, 580.280 883.305 C 583.945 881.270, 591.958 879.171, 602.521 877.479 C 608.010 876.600, 614.300 875.482, 616.500 874.994 C 618.700 874.506, 628.825 873.393, 639 872.521 C 667.119 870.110, 677.327 868.364, 686 864.480 C 691.617 861.965, 695.509 860.966, 701.500 860.502 C 710.493 859.805, 722.052 855.951, 726.060 852.313 C 727.468 851.035, 730.563 846.344, 732.937 841.888 C 737.101 834.073, 737.231 833.560, 736.602 827.415 C 735.820 819.784, 732.543 808.695, 730.590 807.075 C 729.180 805.905, 726.939 800.753, 720.988 785 C 717.094 774.692, 706.456 753.919, 698.460 741.010 C 687.068 722.618, 673.458 706.110, 635.795 665.001 C 621.988 649.931, 617.346 645.728, 595.102 628.156 C 587.683 622.295, 576.736 613, 570.775 607.500 C 550.588 588.873, 544.722 584.003, 535.601 578.302 C 530.595 575.173, 521.775 568.950, 516 564.473 C 501.164 552.971, 486.663 543.794, 460.603 529.411 C 453.451 525.464, 448.840 521.739, 437.103 510.430 C 419.629 493.594, 414.924 490, 410.350 490 C 405.515 490, 406.223 493.277, 412.510 500 C 415.521 503.221, 417.934 508, 416.548 508 C 416.226 508, 413.564 506.720, 410.634 505.157 C 407.703 503.593, 404.336 502.060, 403.153 501.750 C 399.692 500.845, 400.564 498.963, 404.114 499.673 C 407.037 500.257, 407.183 500.148, 406.492 497.898 C 406.087 496.579, 403.513 490.775, 400.772 485 C 393.578 469.839, 390.145 461.427, 387.977 453.642 L 386.068 446.784 388.284 447.378 C 389.503 447.704, 393.200 448.488, 396.500 449.121 C 403.894 450.537, 405.218 451.587, 401.428 453.027 C 399.834 453.633, 397.073 454.821, 395.292 455.666 C 392.157 457.153, 392.099 457.291, 393.483 459.966 C 395.351 463.580, 400.063 465.725, 409.279 467.158 C 420.788 468.947, 430.182 466.596, 438.318 459.890 C 443.602 455.534, 446 450.324, 446 443.200 C 446 432.241, 439.701 423.179, 426 414.426 C 412.024 405.498, 408.922 400.602, 406.990 384.419 C 405.713 373.722, 403.713 366.540, 401.232 363.740 C 398.780 360.973, 390.420 358.954, 379 358.371 C 373.225 358.076, 367.954 357.667, 367.286 357.463 C 362.937 356.130, 375.763 342.042, 386.527 336.330 C 395.467 331.586, 405.725 327.998, 412.317 327.309 C 417.318 326.786, 418.994 326.041, 423.595 322.293 C 426.568 319.871, 429 317.240, 429 316.445 C 429 314.522, 420.617 314.560, 412.500 316.520 C 409.200 317.317, 403.800 317.987, 400.500 318.009 C 392.974 318.059, 388.632 319.028, 373 324.144 C 357.088 329.351, 342.163 336.440, 334.500 342.430 C 318.234 355.144, 317.260 355.741, 310.975 356.848 C 307.610 357.440, 303.332 358.868, 301.469 360.019 C 298.674 361.747, 297.699 361.909, 295.901 360.947 C 288.698 357.092, 281.195 358.012, 271.145 363.983 C 263.808 368.342, 261.360 368.744, 255.254 366.589 C 251.765 365.359, 250.344 365.379, 244.104 366.748 C 235.646 368.604, 235.835 368.742, 231.464 357.552 C 229.961 353.704, 227.779 349.251, 226.616 347.656 C 224.573 344.857, 224.564 344.717, 226.355 343.628 C 227.376 343.008, 229.813 341.252, 231.771 339.727 C 233.730 338.202, 236.495 336.677, 237.916 336.337 C 242.943 335.135, 246.005 332.908, 249.926 327.600 C 252.707 323.836, 255.329 321.582, 258.697 320.062 C 261.338 318.870, 264.625 317.251, 266 316.465 C 267.375 315.679, 269.993 314.334, 271.817 313.476 C 273.642 312.618, 277.041 310.160, 279.370 308.013 C 282.860 304.796, 284.908 303.837, 291.011 302.565 C 297.707 301.169, 298.913 300.530, 303.602 295.900 C 307.971 291.585, 309.516 290.696, 313.415 290.257 C 317.298 289.819, 318.534 289.113, 321.105 285.868 C 323.683 282.612, 324.760 282, 327.910 282 C 330.623 282, 332.307 281.302, 334.036 279.461 C 335.348 278.065, 338.415 276.421, 340.851 275.807 C 343.288 275.194, 346.772 273.383, 348.594 271.783 C 350.787 269.858, 353.279 268.749, 355.968 268.503 C 358.836 268.240, 361.252 267.084, 364.194 264.566 C 366.485 262.605, 368.712 261, 369.142 261 C 369.573 261, 372.397 260.075, 375.419 258.945 C 379.178 257.538, 382.426 255.296, 385.706 251.845 C 388.343 249.070, 395.675 243.402, 402 239.248 C 415.406 230.443, 418.037 228.259, 417.360 226.495 C 416.721 224.831, 419.001 223.383, 419.919 224.870 C 420.391 225.633, 422.087 225.062, 425.188 223.096 C 430.554 219.693, 431.772 218.095, 429.890 216.932 C 428.823 216.273, 429.235 215.353, 431.762 212.746 C 433.543 210.908, 435 208.368, 435 207.100 C 435 205.832, 436.225 202.616, 437.722 199.953 C 440.642 194.759, 440.280 192.531, 437 195.500 C 435.893 196.502, 434.716 197.050, 434.385 196.718 C 433.517 195.851, 437.349 190.765, 446.206 181.027 C 450.462 176.347, 455.148 170.265, 456.620 167.509 C 458.092 164.754, 462.387 157.897, 466.165 152.272 C 469.942 146.646, 473.456 140.930, 473.973 139.570 C 474.490 138.210, 476.134 135.163, 477.627 132.799 C 479.119 130.435, 483.452 122.259, 487.255 114.629 C 495.584 97.919, 506.218 80.038, 513.527 70.453 C 520.394 61.448, 537.118 45.238, 547.797 37.238 C 565.971 23.622, 593.287 9.379, 608.993 5.330 C 611.016 4.808, 612.625 3.708, 612.816 2.715 C 613.092 1.283, 612.350 1.006, 608.323 1.033 C 605.670 1.052, 600.800 1.989, 597.500 3.116 M 607.956 17.079 C 597.114 36.368, 593.275 48.840, 594.438 61 C 594.780 64.575, 595.201 74.700, 595.373 83.500 C 595.678 99.067, 597.829 113.205, 601.118 121.250 C 602.466 124.546, 604.484 124.947, 603.636 121.750 C 602.232 116.457, 601.813 89.814, 602.941 77.526 C 604.477 60.793, 612.416 24.697, 616.057 17.893 C 617.636 14.942, 617.492 9.064, 615.800 7.371 C 614.428 6, 613.622 6.999, 607.956 17.079 M 585.178 29.058 C 582.799 30.012, 580.898 31.206, 561 44.244 C 529.573 64.836, 511.750 87.575, 492.216 132 C 486.659 144.637, 484.787 151.548, 487.115 150.828 C 487.877 150.593, 489.440 148.562, 490.589 146.315 C 491.738 144.068, 494.247 140.265, 496.165 137.865 C 498.083 135.464, 500.675 131.711, 501.925 129.524 C 504.523 124.982, 517.613 107.357, 519.048 106.470 C 520.653 105.479, 520.153 106.958, 516.004 115.492 C 513.806 120.012, 511.741 125.237, 511.414 127.105 C 511.086 128.972, 508.610 135.485, 505.909 141.578 C 499.488 156.068, 499.502 156.359, 506.477 153.445 C 509.900 152.015, 510.298 152.026, 511.433 153.577 C 512.590 155.159, 512.829 155.158, 515.271 153.558 C 518.663 151.336, 522.054 146.826, 525.465 140 C 529.683 131.561, 533.369 126.004, 534.750 126.002 C 537.407 125.998, 535.768 132.005, 530 143.417 C 526.700 149.946, 524 155.898, 524 156.644 C 524 159.330, 526.074 157.910, 528.956 153.250 C 530.572 150.637, 532.753 147.974, 533.804 147.331 C 534.854 146.688, 536.980 144.161, 538.527 141.715 C 541.285 137.356, 544.688 134.354, 545.711 135.378 C 546.537 136.203, 542.241 142.762, 534.170 153 C 530.051 158.225, 526.238 163.073, 525.698 163.774 C 523.546 166.565, 526.219 165.924, 535.036 161.536 C 540.116 159.007, 544.545 157.212, 544.878 157.545 C 545.212 157.878, 540.581 162.863, 534.588 168.621 C 527.384 175.543, 524.027 179.427, 524.683 180.083 C 526.222 181.622, 530.109 179.715, 538.739 173.187 C 543.008 169.958, 552.062 164.211, 558.860 160.415 C 565.658 156.619, 572.427 152.161, 573.902 150.507 C 575.378 148.853, 579.266 145.283, 582.543 142.573 C 590.992 135.585, 595 130.998, 595 128.318 C 595 125.331, 593.428 125.395, 587.399 128.624 C 575.412 135.043, 570.817 137.151, 570.185 136.519 C 569.812 136.146, 571.133 134.349, 573.121 132.528 C 578.160 127.910, 580 125.018, 580 121.718 C 580 119.688, 581.409 117.390, 584.948 113.648 C 589.863 108.452, 592.671 101.704, 591.026 99.043 C 589.893 97.209, 585.710 98.775, 578.869 103.592 C 575.426 106.017, 572.305 108, 571.933 108 C 571.560 108, 570.970 106.213, 570.621 104.029 C 569.706 98.310, 572.874 90.712, 578.595 84.903 C 581.148 82.312, 582.942 79.716, 582.583 79.134 C 582.224 78.553, 580.387 77.788, 578.501 77.434 C 573.055 76.412, 572.466 74.780, 576.136 70.875 C 577.881 69.019, 580.172 65.561, 581.227 63.191 C 583.557 57.959, 582.489 56, 577.309 56 L 573.864 56 575.865 53.189 C 576.966 51.643, 578.165 49.192, 578.529 47.742 C 578.946 46.078, 581.695 43.202, 585.987 39.939 C 591.821 35.504, 593.428 33.665, 595.762 28.750 C 596.263 27.694, 587.979 27.935, 585.178 29.058 M 599.931 39.680 C 598.230 44.156, 597.584 51, 598.864 51 C 599.489 51, 600 49.705, 600 48.122 C 600 46.539, 600.675 43.629, 601.500 41.654 C 603.277 37.400, 603.318 37, 601.975 37 C 601.412 37, 600.492 38.206, 599.931 39.680 M 600.723 140.200 C 598.309 143.924, 596.727 149.902, 598.805 147.450 C 601.968 143.718, 605 138.881, 605 137.567 C 605 134.926, 603.574 135.804, 600.723 140.200 M 580.446 149.505 C 576.018 151.748, 561.198 161.909, 540.126 177.149 C 529.071 185.145, 521.042 193.714, 528.164 189.917 C 529.449 189.232, 540.625 182.151, 553 174.181 C 565.375 166.212, 578.200 158.124, 581.500 156.207 C 587.831 152.531, 592 149.202, 592 147.826 C 592 146.109, 585.200 147.097, 580.446 149.505 M 481.291 165.367 C 477.875 166.560, 474.164 168.520, 473.043 169.723 C 471.923 170.926, 467.883 174.401, 464.067 177.446 C 455.969 183.908, 455.878 184.031, 454.774 189.963 C 452.556 201.883, 452.631 204.696, 455.291 209.207 C 458.660 214.923, 462.528 218.463, 468.090 220.922 C 473.120 223.147, 473.626 223.082, 485 218.757 C 488.575 217.398, 494.618 215.744, 498.429 215.082 C 502.239 214.421, 506.175 213.441, 507.175 212.906 C 509.362 211.736, 512.487 205.822, 513.467 201 C 513.858 199.075, 515.518 193.535, 517.155 188.689 C 520.865 177.708, 520.471 174.957, 514.661 171.279 C 508.222 167.202, 496.384 162.988, 491.686 163.099 C 489.384 163.154, 484.706 164.175, 481.291 165.367 M 588.842 171.306 C 585.200 174.241, 580.794 176.514, 575 178.445 C 570.325 180.004, 563.809 182.624, 560.521 184.269 C 557.232 185.914, 548.491 189.890, 541.096 193.104 C 533.701 196.318, 527.309 199.500, 526.891 200.176 C 525.722 202.068, 526.818 203, 530.214 203 C 533.250 203, 533.275 203.039, 531.494 205.006 C 529.089 207.664, 529.795 208.143, 536.412 208.337 C 539.476 208.427, 541.987 208.828, 541.992 209.230 C 542.004 210.359, 534.962 213.688, 524.698 217.403 C 513.422 221.485, 505.434 225.428, 504.731 227.259 C 504.157 228.755, 508.240 228.454, 530 225.400 C 542.039 223.711, 548.106 223.767, 548.697 225.573 C 548.890 226.163, 545.100 228.509, 540.274 230.786 C 531.452 234.950, 524.874 236.930, 519.718 236.976 C 518.188 236.989, 515.263 237.721, 513.218 238.602 C 509.898 240.033, 509.714 240.293, 511.500 241.032 C 512.600 241.487, 518.243 241.891, 524.040 241.930 C 534.051 241.996, 543.613 243.652, 548.217 246.116 C 551.345 247.790, 548.624 248.962, 541.500 249.009 C 533.966 249.059, 527.088 250.610, 524.659 252.808 C 523.259 254.075, 521.295 254.435, 516.847 254.240 C 511.156 253.992, 507 255.120, 507 256.914 C 507 258.544, 512.599 259.981, 522.500 260.891 C 530.564 261.632, 534.146 262.527, 541 265.517 C 545.675 267.555, 549.882 269.578, 550.349 270.011 C 551.636 271.204, 546.860 271.857, 532 272.519 C 517.312 273.174, 513 273.728, 513 274.958 C 513 276.181, 517.339 277.647, 531 281.039 C 543.843 284.228, 551.220 286.929, 552.430 288.887 C 552.850 289.567, 552.317 290, 551.059 290 C 548.365 290, 548.444 291.368, 551.250 293.326 L 553.500 294.895 550.500 294.914 C 547.821 294.931, 540.311 293.507, 517.500 288.657 C 513.650 287.838, 508.025 286.854, 505 286.471 L 499.500 285.774 502 288.482 C 505.627 292.411, 511.464 295.478, 520 297.940 C 524.125 299.130, 534.925 302.603, 544 305.658 C 566.915 313.372, 580.713 317.401, 593.115 320 C 602.192 321.901, 604.491 322.060, 608.986 321.096 C 613.217 320.189, 615.714 320.273, 621.787 321.528 C 629.721 323.166, 634.772 322.758, 635.675 320.406 C 635.971 319.633, 636.841 319, 637.607 319 C 638.373 319, 639 318.563, 639 318.029 C 639 316.756, 628.135 313.568, 615 310.988 C 600.955 308.229, 595.224 306.282, 594.509 304.028 C 594.187 303.014, 593.247 301.925, 592.419 301.607 C 591.281 301.171, 591.160 300.570, 591.921 299.148 C 592.614 297.852, 594.542 297.053, 598.120 296.578 C 600.976 296.200, 604.622 295.213, 606.221 294.386 C 607.821 293.558, 613.438 292.571, 618.703 292.191 C 627.404 291.563, 628.352 291.295, 629.106 289.252 C 630.271 286.091, 627.162 284.301, 617.392 282.508 C 607.219 280.641, 598.081 278.414, 597.271 277.604 C 596.920 277.253, 597.083 276.517, 597.632 275.968 C 598.870 274.730, 616.658 270.227, 623.696 269.370 L 628.893 268.737 631.432 274.119 C 637.418 286.808, 643.118 301.599, 643.672 305.882 C 644.001 308.422, 645.859 313.799, 647.801 317.831 C 651.508 325.525, 652.183 329.870, 650.066 332.420 C 647.670 335.307, 642.792 335.242, 629.446 332.143 C 622.326 330.490, 612.900 328.624, 608.500 327.996 C 604.100 327.368, 598.025 326.239, 595 325.487 C 591.975 324.735, 580.725 322.724, 570 321.018 C 546.494 317.279, 541.043 315.971, 525.500 310.337 C 511.103 305.119, 488.163 298.992, 483.127 299.020 C 481.132 299.031, 475.225 300.147, 470 301.500 C 462.245 303.508, 458.020 303.966, 447 303.995 C 439.575 304.015, 432.872 304.428, 432.104 304.914 C 427.431 307.873, 438.790 312.384, 451 312.419 C 455.125 312.430, 462.551 312.056, 467.502 311.588 C 479.268 310.474, 485.805 311.611, 514 319.672 C 545.030 328.544, 553.396 330.432, 577.153 333.922 C 588.512 335.591, 602.912 338.380, 609.153 340.120 C 616.777 342.245, 622.305 343.209, 626 343.059 C 633.024 342.773, 635.368 342.830, 647.305 343.580 C 657.943 344.249, 661.954 343.332, 664.540 339.640 C 666.626 336.661, 666.338 333.225, 663.522 327.500 C 662.169 324.750, 661.048 320.692, 661.031 318.482 C 661.011 315.899, 660.119 313.168, 658.535 310.836 C 657.179 308.841, 655.095 304.349, 653.903 300.854 C 652.712 297.359, 651.141 293.375, 650.411 292 C 647.010 285.589, 638.994 266.020, 638.077 261.890 C 637.515 259.354, 636.569 251.929, 635.975 245.390 C 635.382 238.850, 634.439 231.925, 633.880 230 C 633.321 228.075, 632.496 223.457, 632.046 219.737 C 631.453 214.827, 630.307 211.439, 627.864 207.368 C 623.792 200.581, 621.962 199.280, 613.817 197.380 C 605.125 195.353, 604.684 194.589, 609.659 190.183 C 611.946 188.157, 614.309 185.517, 614.909 184.316 C 616.745 180.640, 616.237 173.141, 613.932 169.904 C 611.418 166.375, 609 166.104, 609 169.352 C 609 173.451, 604.742 178.337, 596.496 183.700 C 592.098 186.560, 586.700 190.216, 584.500 191.823 C 579.003 195.840, 576.150 197.211, 574.897 196.436 C 574.257 196.041, 575.240 194.336, 577.375 192.140 C 579.322 190.138, 582.770 186.385, 585.038 183.801 C 587.305 181.217, 590.663 178.606, 592.500 178 C 596.675 176.622, 597.642 175.458, 598.522 170.750 C 599.181 167.223, 599.072 167, 596.703 167 C 595.227 167, 591.970 168.784, 588.842 171.306 M 374.244 209.250 C 374.725 210.714, 382 211.574, 382 210.167 C 382 208.946, 379.528 208, 376.335 208 C 374.781 208, 373.989 208.474, 374.244 209.250 M 356.721 211.096 C 354.512 212.382, 350.048 219.344, 348.928 223.251 C 348.190 225.826, 348.275 226.017, 349.651 224.875 C 350.970 223.780, 356.923 215.448, 359.385 211.250 C 360.267 209.747, 359.150 209.682, 356.721 211.096 M 598.173 214.227 C 597.528 214.872, 597 216.200, 597 217.177 C 597 218.154, 595.944 219.646, 594.654 220.491 C 593.364 221.336, 591.789 223.169, 591.153 224.563 C 590.518 225.957, 588.556 227.704, 586.794 228.445 L 583.589 229.792 587.544 230.913 C 598.919 234.134, 621.811 236.513, 623.663 234.666 C 624.986 233.347, 624.320 220.090, 622.842 218.309 C 620.381 215.344, 613.507 213.186, 606.305 213.119 C 602.229 213.081, 598.860 213.540, 598.173 214.227 M 266.507 228.148 C 265.359 234.337, 265.419 264.280, 266.581 264.681 C 267.175 264.886, 268.813 264.149, 270.219 263.042 C 272.710 261.083, 272.739 260.922, 271.342 256.867 C 270.553 254.578, 269.473 246.615, 268.941 239.172 C 268.409 231.730, 267.784 225.450, 267.551 225.218 C 267.319 224.986, 266.849 226.304, 266.507 228.148 M 334.566 227.028 C 333.248 230.608, 333.533 233.425, 335.250 233.782 C 336.592 234.062, 336.996 233.488, 336.985 231.323 C 336.976 229.770, 336.550 227.838, 336.038 227.028 C 335.219 225.732, 335.043 225.732, 334.566 227.028 M 296.703 236.693 C 296.453 240.987, 295.907 245.782, 295.489 247.349 C 294.837 249.794, 294.994 250.148, 296.593 249.840 C 298.808 249.413, 300.262 242.537, 299.797 234.685 C 299.307 226.396, 297.222 227.749, 296.703 236.693 M 312.630 232.250 C 311.462 236.609, 311.915 243, 313.393 243 C 314.159 243, 315.059 242.288, 315.393 241.418 C 316.636 238.178, 315.639 230, 314 230 C 313.578 230, 312.962 231.012, 312.630 232.250 M 285.123 242.827 C 283.796 252.842, 284.186 255.749, 286.649 254.208 C 287.443 253.711, 287.589 250.368, 287.136 243 L 286.491 232.500 285.123 242.827 M 610 246.088 C 604.775 248.302, 599.938 250.362, 599.250 250.664 C 597.371 251.491, 597.739 252.790, 600.228 254.122 C 603.452 255.848, 619.004 260, 622.243 260 C 624.787 260, 625 259.695, 625 256.049 C 625 249.181, 623.036 241.996, 621.167 242.031 C 620.250 242.048, 615.225 243.873, 610 246.088 M 464.500 257.862 C 450.224 261.637, 446 263.285, 446 265.080 C 446 266.274, 450.218 265.663, 461.500 262.838 C 465.900 261.736, 471.920 260.436, 474.877 259.949 C 481.294 258.892, 486.008 256.252, 483.882 254.906 C 481.742 253.550, 479.529 253.888, 464.500 257.862 M 244.462 264.750 C 244.838 266.813, 245.788 269.159, 246.573 269.964 C 247.818 271.242, 248 271.089, 248 268.761 C 248 265.585, 246.067 261, 244.728 261 C 244.175 261, 244.063 262.566, 244.462 264.750 M 251 262.453 C 251 264.520, 253.163 269, 254.161 269 C 255.467 269, 255.087 264.698, 253.608 262.750 C 251.991 260.620, 251 260.507, 251 262.453 M 193.373 271.752 C 194.300 278.742, 200.647 307.980, 201.401 308.734 C 201.757 309.090, 202.774 308.654, 203.663 307.766 C 205.149 306.279, 205.135 305.410, 203.490 296.826 C 200.891 283.266, 195.358 267, 193.345 267 C 193.014 267, 193.026 269.139, 193.373 271.752 M 223.423 271.250 C 223.677 272.488, 224.164 275.228, 224.504 277.339 C 224.845 279.451, 225.607 282.238, 226.197 283.534 C 227.230 285.801, 227.358 285.826, 229.604 284.195 C 230.887 283.263, 231.951 281.915, 231.969 281.200 C 232.042 278.158, 225.915 269, 223.807 269 C 223.342 269, 223.170 270.012, 223.423 271.250 M 211 280.595 C 211 285.573, 214.909 298, 216.475 298 C 219.713 298, 220.014 295.391, 217.595 288.281 C 214.774 279.985, 213.284 277, 211.965 277 C 211.434 277, 211 278.618, 211 280.595 M 411 278.452 C 398.785 281.908, 367.604 295.826, 352.051 304.765 C 331.744 316.436, 307 335.932, 307 340.259 C 307 341.587, 312.850 340.088, 318 337.441 C 320.475 336.169, 326.775 331.732, 332 327.580 C 337.225 323.429, 343.515 319.074, 345.979 317.903 C 348.442 316.733, 353.167 313.847, 356.479 311.490 C 369.779 302.024, 404.382 282.850, 413.236 280.040 C 416.954 278.860, 419.304 276.919, 416.809 277.089 C 416.089 277.139, 413.475 277.752, 411 278.452 M 183.704 299.575 C 182.403 312.186, 187.579 326.145, 190.084 316.779 C 191.130 312.869, 186.975 294, 185.069 294 C 184.635 294, 184.021 296.509, 183.704 299.575 M 170.213 311.012 C 170.467 317.893, 171.214 324.531, 171.873 325.762 C 173.096 328.048, 175.433 328.726, 176.445 327.089 C 177.061 326.092, 171.439 300.080, 170.396 299.103 C 170.041 298.771, 169.959 304.130, 170.213 311.012 M 158.006 322.536 C 158.009 324.166, 158.504 327.277, 159.107 329.449 C 159.710 331.620, 160.495 336.345, 160.852 339.949 C 161.334 344.817, 161.885 346.500, 163 346.500 C 164.875 346.500, 164.813 344.310, 162.592 332 C 161.649 326.775, 160.230 321.841, 159.439 321.036 C 158.181 319.756, 158.001 319.945, 158.006 322.536 M 143.439 330.355 C 144.250 336.846, 148.264 349.135, 149.563 349.103 C 151.511 349.054, 151.017 344.826, 147.926 335.074 C 144.405 323.968, 142.374 321.832, 143.439 330.355 M 149 356.878 C 149 360.897, 151.042 363.710, 153.057 362.465 C 155.166 361.162, 152.424 353, 149.878 353 C 149.395 353, 149 354.745, 149 356.878 M 216.052 357.290 C 215.991 361.727, 219.024 368.203, 222.209 370.434 C 224.701 372.179, 230 372.558, 230 370.991 C 230 370.437, 227.637 367.397, 224.750 364.237 C 221.863 361.077, 218.736 357.368, 217.802 355.995 L 216.105 353.500 216.052 357.290 M 181.477 366.072 C 180.586 368.878, 183.075 371.430, 189.632 374.432 C 195.930 377.315, 202.890 378.482, 205 377.009 C 206.302 376.100, 206.244 375.767, 204.559 374.481 C 203.491 373.666, 201.856 373, 200.925 373 C 199.994 373, 196.275 370.975, 192.660 368.500 C 185.429 363.549, 182.481 362.909, 181.477 366.072 M 349 376.777 C 349 377.205, 349.748 378.622, 350.661 379.927 C 353.312 383.712, 361.148 410.812, 367.854 439.386 C 369.001 444.274, 371.233 451.039, 372.816 454.420 C 375.903 461.017, 382.651 471, 384.024 471 C 385.026 471, 384.709 469.939, 377.644 449.689 C 374.611 440.993, 371.821 431.418, 371.445 428.410 C 370.878 423.868, 370.473 423.033, 369.056 423.482 C 367.619 423.938, 366.539 421.390, 362.184 407.262 C 359.343 398.043, 356.338 387.800, 355.506 384.500 C 354.675 381.200, 353.235 377.938, 352.306 377.250 C 350.388 375.830, 349 375.632, 349 376.777 M 287 383.962 C 287 388.620, 289.398 390.544, 291.544 387.609 C 293.357 385.130, 291.911 380.580, 289.183 380.180 C 287.242 379.896, 287 380.316, 287 383.962 M 389 388.584 C 380.885 391.083, 376 393.150, 376 394.083 C 376 395.595, 381.044 395.058, 389 392.698 C 397.115 390.292, 399 389.395, 399 387.941 C 399 386.634, 394.361 386.933, 389 388.584 M 377.667 404.667 C 376.600 405.733, 376.894 408.472, 378.276 410.363 C 379.474 412.001, 379.839 411.949, 384.180 409.523 C 386.726 408.100, 389.356 406.276, 390.026 405.468 C 391.076 404.203, 390.352 404, 384.789 404 C 381.238 404, 378.033 404.300, 377.667 404.667 M 261.464 409.250 C 260.146 415.415, 257.832 416.415, 253.055 412.882 C 251.479 411.717, 249.699 411.068, 249.099 411.439 C 246.696 412.924, 253.370 421.408, 262.131 428.006 C 264.678 429.923, 269.122 434.774, 272.006 438.785 C 278.037 447.170, 279.965 448.604, 301 460.349 C 316.635 469.079, 320.588 471.676, 334.529 482.376 C 338.740 485.607, 344.281 488.890, 346.842 489.670 C 349.404 490.450, 358.025 491.448, 366 491.887 C 379.616 492.637, 380.857 492.878, 386.352 495.843 C 389.570 497.579, 393.156 499, 394.320 499 C 396.055 499, 395.359 497.900, 390.469 492.907 C 387.186 489.556, 382.079 485.430, 379.120 483.739 C 375.930 481.914, 372.675 479.025, 371.120 476.636 C 369.679 474.421, 366.531 470.678, 364.126 468.318 C 360.550 464.811, 359.405 462.737, 357.857 456.963 C 356.815 453.079, 354.868 448.235, 353.530 446.200 C 352.192 444.165, 350.602 440.268, 349.997 437.541 C 348.946 432.801, 347.502 430, 346.108 430 C 345.752 430, 345.622 433.488, 345.819 437.750 C 346.131 444.507, 346.550 445.973, 349.090 449.194 C 351.063 451.695, 352.494 455.246, 353.522 460.194 C 354.357 464.212, 355.933 468.625, 357.025 470 C 363.201 477.776, 363.345 480, 357.672 480 C 355.129 480, 353.122 478.979, 349.641 475.915 C 347.088 473.668, 345 471.425, 345 470.929 C 345 469.472, 334.072 456.277, 331.434 454.549 C 330.104 453.677, 327.935 450.835, 326.613 448.232 C 325.292 445.629, 322.589 442.027, 320.606 440.226 C 318.623 438.425, 317 436.570, 317 436.104 C 317 435.638, 314.490 432.836, 311.423 429.878 C 308.356 426.920, 305.194 423.262, 304.398 421.750 C 303.601 420.238, 302.510 419, 301.974 419 C 300.263 419, 300.920 421.884, 303.858 427.265 C 307.384 433.725, 309.813 443.587, 308.260 445.140 C 306.775 446.625, 300.878 444.598, 298.315 441.721 C 297.226 440.499, 294.402 436.350, 292.039 432.500 C 286.205 422.996, 285.031 421.730, 283.348 423.126 C 282.607 423.741, 282 425.058, 282 426.051 C 282 428.677, 279.360 430.907, 276.986 430.286 C 274.549 429.649, 273.846 428.449, 271.052 420.155 C 268.928 413.850, 264.433 406, 262.947 406 C 262.513 406, 261.846 407.462, 261.464 409.250 M 380.489 420.750 C 380.730 422.262, 381.409 426.547, 381.997 430.272 C 383.495 439.757, 384.608 442.377, 386.764 441.484 C 387.719 441.089, 391.856 439.884, 395.957 438.806 C 400.058 437.729, 404.558 436.224, 405.957 435.464 C 408.342 434.166, 408.089 434.078, 401.907 434.040 C 396.987 434.010, 394.197 433.409, 390.907 431.670 C 384.999 428.546, 384.930 426.919, 390.589 424.169 C 393.148 422.926, 395.009 421.676, 394.724 421.391 C 394.003 420.670, 383.874 418.026, 381.775 418.012 C 380.452 418.003, 380.152 418.640, 380.489 420.750 M 249.032 431.500 C 249.014 432.870, 254.715 442.706, 255.979 443.487 C 257.651 444.520, 257.133 441.719, 255.059 438.500 C 252.134 433.962, 249.046 430.376, 249.032 431.500 M 234 435.856 C 234 436.327, 235.506 438.690, 237.346 441.106 C 239.186 443.523, 241.267 447.251, 241.970 449.391 C 242.725 451.689, 245.402 455.372, 248.513 458.391 C 251.409 461.201, 254.294 464.512, 254.924 465.750 C 256.235 468.324, 257.808 468.665, 258.619 466.551 C 259.242 464.926, 251.870 454.117, 246.989 449.500 C 245.244 447.850, 242.997 444.925, 241.995 443 C 239.075 437.387, 234 432.853, 234 435.856 M 265.551 475.250 C 266.309 477.738, 267.690 479.520, 273.250 485.181 C 275.313 487.282, 277 489.459, 277 490.019 C 277 490.580, 278.012 490.795, 279.250 490.497 C 281.021 490.072, 281.980 490.706, 283.759 493.478 C 285.002 495.415, 286.689 497, 287.509 497 C 288.329 497, 289 496.758, 289 496.463 C 289 495.995, 280.940 487.399, 275.690 482.269 C 274.695 481.296, 272.210 478.813, 270.168 476.750 C 265.925 472.463, 264.567 472.022, 265.551 475.250 M 291.951 501.750 C 294.503 506.120, 297.828 509.178, 299.617 508.800 C 301.228 508.459, 300.904 507.795, 297.368 504.201 C 293.090 499.852, 290.037 498.471, 291.951 501.750 M 701.252 518.750 C 699.105 523.644, 698.373 538.017, 700.053 542.291 C 700.747 544.056, 702.663 546.943, 704.311 548.706 C 708.994 553.717, 708.181 558.619, 701.409 566.193 C 699.593 568.225, 697.626 571.825, 697.038 574.193 C 696.450 576.562, 694.339 582.639, 692.348 587.698 C 688.265 598.074, 688.237 601.663, 692.152 612.562 C 695.094 620.748, 695.136 631.577, 692.257 639.254 C 689.610 646.315, 687.690 661.914, 689.238 663.784 C 689.992 664.695, 689.969 665.712, 689.160 667.284 C 688.532 668.503, 688.001 670.400, 687.980 671.500 C 687.960 672.600, 687.926 674.625, 687.906 676 C 687.886 677.375, 688.039 683.273, 688.246 689.108 L 688.622 699.715 695.430 706.108 C 699.175 709.623, 702.604 712.640, 703.052 712.811 C 703.499 712.982, 703.676 705.557, 703.445 696.311 C 702.932 675.856, 704.379 655.552, 706.676 650.947 C 708.017 648.259, 708.132 646.799, 707.296 643.073 C 704.879 632.303, 702.644 625.414, 700.482 622.072 C 698.558 619.098, 698.262 617.617, 698.715 613.228 C 699.168 608.840, 700.324 606.407, 705.609 598.728 C 715.416 584.478, 716.807 581.925, 718.331 575.393 C 719.568 570.093, 719.561 568.812, 718.275 565.406 C 717.465 563.258, 716.156 558.630, 715.367 555.122 C 714.579 551.614, 713.427 547.797, 712.807 546.640 C 710.935 543.141, 708.035 530.780, 708.017 526.218 C 707.998 521.437, 705.693 515, 704 515 C 703.394 515, 702.157 516.688, 701.252 518.750 M 872.065 518 C 872.085 519.375, 873.091 523.513, 874.300 527.195 C 876.190 532.945, 877.319 534.603, 882.308 538.945 C 885.503 541.725, 888.457 544, 888.873 544 C 890.006 544, 893.121 550.995, 892.463 552.060 C 891.773 553.176, 894.319 562.123, 897.851 571 C 901.729 580.745, 907.113 589.026, 917.614 601.400 C 920.977 605.363, 926.377 613.454, 929.614 619.380 C 932.851 625.307, 937.482 632.258, 939.905 634.828 C 947.277 642.646, 948.288 646.062, 947.457 660.332 C 947.067 667.024, 946.172 673.634, 945.467 675.020 C 944.763 676.406, 943.725 680.006, 943.162 683.020 C 942.598 686.034, 941.046 690.975, 939.713 694 C 938.379 697.025, 936.482 701.975, 935.497 705 C 934.512 708.025, 932.647 711.772, 931.353 713.327 C 930.059 714.881, 929 717.321, 929 718.748 C 929 720.175, 927.815 724.303, 926.366 727.922 C 923.638 734.737, 916.012 763.748, 915.985 767.416 C 915.976 768.562, 915.526 770.175, 914.985 771 C 911.190 776.780, 910.852 754.209, 914.512 739.502 C 915.880 734.004, 917.003 728.154, 917.006 726.502 C 917.010 724.851, 917.673 722.234, 918.480 720.686 C 919.288 719.138, 920.251 715.538, 920.622 712.686 C 920.993 709.834, 921.830 705.925, 922.482 704 C 923.134 702.075, 923.778 695.917, 923.912 690.315 C 924.131 681.150, 923.934 679.829, 921.939 677.132 C 920.321 674.943, 919.884 673.329, 920.320 671.149 C 920.745 669.025, 920.353 667.447, 918.959 665.674 C 917.881 664.305, 917 662.519, 917 661.707 C 917 660.894, 916.328 658.940, 915.506 657.364 C 914.685 655.789, 914.010 653.701, 914.006 652.725 C 914.003 651.749, 912.481 647.924, 910.625 644.225 C 907.744 638.485, 907.181 636.182, 906.777 628.500 C 906.347 620.306, 905.896 618.672, 901.741 610.256 C 897.323 601.304, 887.702 589, 885.122 589 C 884.469 589, 883.613 588.131, 883.218 587.070 C 882.823 586.008, 877.251 579.596, 870.835 572.820 C 864.419 566.044, 856.694 557.389, 853.669 553.587 C 847.942 546.390, 845.657 544.476, 844.009 545.494 C 842.478 546.441, 854.343 567.817, 860.109 574.500 C 862.955 577.800, 866.075 582.343, 867.041 584.595 C 868.006 586.848, 871.478 592.473, 874.755 597.095 C 883.642 609.629, 884.167 610.918, 883.407 618.333 C 882.224 629.879, 888.636 645.197, 899.718 657.298 C 910.416 668.980, 914.396 680.559, 910.121 687.569 C 909.092 689.257, 907.933 691.732, 907.545 693.069 C 907.157 694.406, 905.332 698.650, 903.490 702.500 C 901.375 706.918, 898.422 716.693, 895.485 729 C 890.278 750.816, 889.806 757.522, 892.431 772.381 C 895.296 788.597, 894.096 793.317, 885.533 799.522 C 882.558 801.677, 879.083 805.130, 877.812 807.194 C 872.922 815.130, 871.988 811.227, 874.533 793.500 C 877.628 771.942, 878.164 764.809, 876.915 761.796 C 875.884 759.305, 875.995 758.627, 877.752 756.711 C 878.867 755.495, 881.007 752.047, 882.508 749.049 C 884.009 746.051, 886.148 742.366, 887.261 740.861 C 889.025 738.475, 889.194 737.253, 888.580 731.312 C 888.193 727.566, 887.567 720.585, 887.188 715.799 C 886.061 701.541, 883.062 701.258, 880.020 715.121 C 878.168 723.560, 872.539 736.077, 870.285 736.770 C 869.617 736.975, 867.661 734.854, 865.939 732.056 C 864.217 729.257, 861.952 726.509, 860.904 725.949 C 859.857 725.388, 859 724.013, 859 722.893 C 859 720.135, 863.056 713.559, 868.494 707.500 C 870.962 704.750, 872.986 702.017, 872.991 701.426 C 872.996 700.835, 875.668 697.599, 878.930 694.235 C 883.892 689.116, 884.974 687.357, 885.559 683.455 C 886.530 676.980, 885.512 668.714, 883.331 665.367 C 881.919 663.200, 881.500 660.605, 881.500 654.028 C 881.500 646.213, 881.335 645.500, 879.532 645.500 C 877.313 645.500, 875.209 650.954, 875.077 657.050 C 875.035 659.002, 874.467 661.133, 873.815 661.785 C 873.014 662.586, 872.606 667.881, 872.554 678.155 C 872.495 689.636, 872.161 693.446, 871.182 693.773 C 870.471 694.010, 869.351 694.888, 868.694 695.724 C 865.742 699.480, 861.335 703.299, 857.968 705.016 C 853.134 707.482, 845.049 716.429, 842.097 722.580 C 840.798 725.286, 839.119 728.774, 838.367 730.331 C 836.501 734.196, 836.618 735.093, 839.500 739 C 840.875 740.864, 842 743.140, 842 744.059 C 842 744.978, 842.971 746.964, 844.157 748.473 C 847.699 752.975, 847.733 759.461, 844.251 766.050 C 842.637 769.103, 840.991 772.900, 840.592 774.489 C 840.193 776.078, 839.032 778.550, 838.012 779.983 C 835.090 784.087, 831 793.981, 831 796.946 C 831 799.246, 829.335 805.509, 827.263 811 C 826.952 811.825, 825.825 808.450, 824.758 803.500 C 823.192 796.232, 822.722 789.043, 822.316 766.150 C 821.725 732.833, 821.851 732.176, 832.621 712.339 C 836.157 705.827, 839.699 698.475, 840.494 696 C 841.288 693.525, 842.838 689.025, 843.937 686 C 846.524 678.879, 846.570 669.853, 844.049 664.299 C 843 661.988, 839.405 655.971, 836.059 650.928 C 832.714 645.884, 829.697 640.640, 829.354 639.274 C 829.011 637.908, 827.554 636.275, 826.115 635.645 C 822.872 634.225, 813.907 624.707, 811.379 620 C 809.705 616.882, 809.530 614.536, 809.779 598.500 C 810.110 577.172, 808.598 559.820, 806.032 555.500 C 805.052 553.850, 803.044 549.435, 801.569 545.690 C 799.080 539.367, 798.938 538.203, 799.581 529.440 C 800.068 522.812, 799.946 520, 799.172 520 C 797.835 520, 796 523.228, 796 525.579 C 796 526.520, 794.396 530.624, 792.436 534.699 C 787.604 544.745, 786.037 553.003, 786.021 568.500 C 786.002 587.727, 790.062 609.335, 795.355 618.166 C 796.783 620.550, 799.103 624.909, 800.510 627.854 C 803.372 633.847, 809.869 643.805, 814.168 648.787 C 820.856 656.539, 823.375 664.622, 824.986 683.500 C 825.938 694.661, 825.841 696.269, 823.588 706.500 C 821.036 718.087, 817.755 728.385, 815.905 730.614 C 815.299 731.345, 814.436 733.419, 813.989 735.222 C 813.542 737.025, 812.722 739.850, 812.168 741.500 C 808.722 751.752, 806.645 760.423, 806.111 766.773 C 805.775 770.773, 805.050 774.148, 804.500 774.273 C 803.950 774.398, 803.217 772.025, 802.871 769 C 802.525 765.975, 801.935 762.348, 801.560 760.939 C 801.055 759.044, 801.811 756.590, 804.468 751.492 C 807.096 746.450, 808.503 741.914, 809.723 734.553 C 811.834 721.809, 811.809 717.927, 809.529 705 C 808.510 699.225, 807.500 688.650, 807.283 681.500 C 807.066 674.350, 806.524 668.133, 806.079 667.685 C 804.883 666.481, 802.136 674.092, 801.565 680.193 C 801.291 683.112, 799.965 688.650, 798.618 692.500 C 794.577 704.052, 793.852 712.741, 795.122 734.424 C 796.138 751.777, 796.081 754.198, 794.539 759.083 C 793.428 762.605, 792.641 769.457, 792.291 778.666 C 791.800 791.595, 791.993 793.910, 794.496 805.166 C 797.730 819.712, 804.276 840.062, 807.301 844.975 C 808.478 846.886, 810.605 852.511, 812.027 857.475 C 814.506 866.123, 814.740 866.513, 817.642 866.801 C 821.813 867.216, 822.900 865.500, 824.585 855.848 C 826.111 847.110, 827.469 844.308, 828.592 847.583 C 828.954 848.637, 830.950 853.325, 833.028 858 C 835.106 862.675, 837.089 867.462, 837.435 868.638 C 837.962 870.431, 846.603 881.235, 851.180 885.824 C 851.906 886.551, 856.635 889.597, 861.688 892.592 C 870.311 897.702, 871.122 897.983, 874.860 897.143 C 877.051 896.651, 880.185 895.292, 881.826 894.124 C 883.467 892.956, 885.512 892, 886.371 892 C 889.381 892, 894.653 885.232, 899.992 874.515 C 906.371 861.712, 907.937 859.720, 916.775 853.165 C 925.170 846.938, 927.053 844.390, 931.014 833.895 C 936.647 818.974, 936.396 819.356, 941.685 817.663 C 944.333 816.816, 949.866 815.625, 953.979 815.017 C 959.776 814.160, 963.199 812.907, 969.197 809.447 C 980.652 802.840, 984.279 800.188, 986.365 796.892 C 987.398 795.260, 989.502 793.275, 991.040 792.479 C 995.091 790.384, 998.712 782.130, 999.805 772.500 C 1000.304 768.100, 1000.497 763.918, 1000.233 763.208 C 999.478 761.173, 997.595 762.372, 996.500 765.585 C 995.950 767.200, 994.177 770.316, 992.559 772.510 C 990.942 774.705, 988.602 777.903, 987.360 779.617 C 985.773 781.807, 981.108 784.704, 971.659 789.367 C 964.266 793.015, 957.635 796, 956.924 796 C 954.320 796, 941.377 803.382, 937.064 807.327 C 934.354 809.806, 932.469 810.908, 932.220 810.160 C 931.585 808.254, 934.359 804.695, 940.949 798.963 C 944.343 796.011, 947 792.874, 947 791.818 C 947 789.368, 952.226 775.694, 957.131 765.310 C 959.259 760.805, 961 756.858, 961 756.538 C 961 756.218, 963.893 749.779, 967.430 742.228 C 975.016 726.029, 982.020 708.456, 985.057 698 C 986.256 693.875, 988.144 688.475, 989.254 686 C 990.364 683.525, 991.686 680.582, 992.192 679.461 C 992.698 678.339, 992.975 674.739, 992.806 671.461 L 992.500 665.500 989.028 672.500 C 986.561 677.473, 983.234 681.816, 977.536 687.500 C 973.126 691.900, 968.613 696.689, 967.509 698.142 C 966.404 699.595, 962.950 704.105, 959.833 708.164 C 956.717 712.223, 953.389 717.559, 952.438 720.022 C 949.380 727.947, 948.452 727.963, 947.156 720.116 C 945.524 710.233, 945.713 705.483, 947.909 701.178 C 948.959 699.120, 950.307 694.791, 950.905 691.557 C 951.503 688.323, 953.138 682.813, 954.538 679.312 C 955.939 675.811, 956.863 672.587, 956.592 672.148 C 956.320 671.709, 956.841 668.684, 957.748 665.425 C 959.818 657.992, 960.018 637.346, 958.077 631.500 C 957.347 629.300, 954.781 622.423, 952.375 616.218 C 949.969 610.013, 948 604.108, 948 603.096 C 948 600.084, 930.588 565.914, 926.295 560.500 C 923.454 556.917, 920.717 554.791, 916.639 553 C 912.756 551.295, 910.764 549.790, 910.370 548.267 C 910.052 547.039, 908.211 545.058, 906.279 543.863 C 904.347 542.669, 900.753 539.950, 898.292 537.820 C 895.831 535.690, 891.947 533.010, 889.659 531.864 C 887.372 530.718, 882.469 526.567, 878.765 522.640 C 872.854 516.375, 872.033 515.806, 872.065 518 M 432.551 546.083 C 432.919 546.679, 435.533 548.647, 438.360 550.458 C 441.187 552.269, 447.182 556.844, 451.681 560.625 C 457.107 565.184, 464.130 569.685, 472.531 573.986 C 480.516 578.073, 490.061 584.128, 498.350 590.362 C 505.582 595.802, 519.600 606.013, 529.500 613.052 C 539.400 620.091, 554.427 631.847, 562.894 639.175 C 578.811 652.954, 584.448 657.607, 599.597 669.476 C 611.971 679.171, 625.774 692.729, 642.363 711.483 C 668.388 740.905, 671.348 743.616, 674.548 740.960 C 676.911 738.999, 676.236 735.677, 672.200 729.405 C 670.111 726.157, 666.878 720.826, 665.018 717.559 C 663.157 714.291, 659.467 709.224, 656.817 706.298 C 654.168 703.372, 652 700.293, 652 699.455 C 652 695.110, 604.846 653.316, 590.314 644.780 C 587.242 642.976, 581.977 639.016, 578.615 635.981 C 566.595 625.131, 540.369 604.320, 533 599.785 C 528.875 597.246, 524.477 593.785, 523.226 592.093 C 521.975 590.401, 519.094 588.068, 516.823 586.910 C 514.552 585.751, 509.597 582.444, 505.812 579.560 C 501.456 576.242, 495.024 572.718, 488.291 569.961 C 482.439 567.566, 475.593 564.198, 473.076 562.476 C 468.053 559.041, 457.544 554, 455.404 554 C 454.659 554, 450.178 551.975, 445.446 549.500 C 437.363 545.272, 431.009 543.588, 432.551 546.083 M 751 579.891 C 751 580.931, 752.571 583.968, 754.491 586.641 C 761.636 596.587, 765.306 605.588, 769.519 623.500 C 772.455 635.985, 773.477 663.923, 771.084 666.316 C 770.488 666.912, 770 670.178, 770 673.574 C 770 676.970, 769.292 681.718, 768.426 684.124 C 767.561 686.531, 766.855 690.075, 766.857 692 C 766.859 693.925, 766.217 698.040, 765.430 701.144 C 764.644 704.249, 764 709.057, 764 711.829 C 764 714.602, 763.543 718.073, 762.983 719.544 C 761.716 722.876, 760.158 721.834, 757.420 715.823 C 756.364 713.505, 753.543 707.791, 751.151 703.127 C 746.833 694.707, 746.795 694.540, 745.869 680.073 C 745.356 672.058, 744.495 664.454, 743.956 663.176 C 743.416 661.897, 742.514 658.747, 741.950 656.176 C 740.895 651.367, 735.844 642.899, 730.727 637.364 L 727.828 634.228 729.028 625.864 C 730.481 615.739, 730.552 613.234, 729.607 605.500 C 728.510 596.522, 728.040 594.820, 726.775 595.242 C 726.038 595.487, 725.560 598.850, 725.449 604.563 C 725.276 613.424, 723.564 622.533, 721.877 623.576 C 721.395 623.874, 721 626.471, 721 629.347 C 721 634.822, 722.710 638.873, 728.500 647.111 L 731.500 651.380 731.173 666.940 C 730.922 678.881, 730.373 684.128, 728.812 689.500 C 723.220 708.745, 724.091 728.179, 730.659 730.699 C 732.727 731.493, 733.966 729.295, 733.985 724.799 C 734.016 717.313, 738.684 702, 740.935 702 C 741.397 702, 744.509 709.606, 747.849 718.903 C 753.449 734.486, 756.548 747.028, 759.981 768 C 760.567 771.575, 761.269 775.513, 761.542 776.750 C 761.815 777.987, 761.561 779, 760.979 779 C 760.396 779, 758.549 777.987, 756.874 776.750 C 754.716 775.155, 752.425 774.496, 749.006 774.487 C 742.854 774.471, 740.527 772.427, 738.967 765.667 C 736.615 755.475, 732.332 752.237, 733.274 761.363 C 734.299 771.294, 741.678 782.643, 753.846 793 C 770.021 806.768, 768.878 805.112, 771.023 817.876 C 773.054 829.958, 774.423 833.070, 778.909 835.799 C 780.450 836.735, 782.940 838.964, 784.444 840.751 C 787.831 844.776, 792 845.261, 792 841.629 C 792 840.325, 790.649 834.588, 788.997 828.879 C 783.928 811.359, 782.819 794.496, 785.416 774.436 C 787.772 756.234, 788.405 728.724, 786.655 720.500 C 784.903 712.262, 781.116 701.633, 778.523 697.676 C 775.073 692.411, 777.461 680.396, 783.163 674.327 C 784.965 672.409, 785.289 670.496, 785.708 659.314 C 786.410 640.599, 785.092 630.672, 780.108 617.154 C 774.785 602.715, 769.337 591.884, 763.911 584.958 C 758.700 578.306, 758.323 578.035, 754.250 578.015 C 751.724 578.003, 751 578.421, 751 579.891 M 929 579.100 C 929 579.925, 929.467 581.067, 930.037 581.637 C 931.265 582.865, 929.641 588, 928.025 588 C 926.624 588, 926.809 589.924, 928.555 593.500 L 930.019 596.500 929.535 593.250 C 929.099 590.328, 929.300 590, 931.525 590 C 934.338 590, 934.509 589.049, 932.653 583.718 C 931.142 579.380, 929 576.672, 929 579.100 M 32 591.365 C 32 592.962, 34.736 596.704, 40.543 603.051 C 42.833 605.553, 45.637 610.053, 46.773 613.051 C 47.909 616.048, 51.099 623.300, 53.861 629.167 C 56.624 635.034, 60.047 643.809, 61.469 648.667 C 62.891 653.525, 64.793 659.750, 65.696 662.500 C 67.909 669.237, 68.584 683.702, 66.969 689.738 C 66.268 692.357, 65.355 696.750, 64.940 699.500 C 63.304 710.342, 62.027 716.712, 60.547 721.409 C 59.696 724.109, 59 729.250, 59 732.834 C 59 737.119, 58.170 741.772, 56.575 746.425 C 53.635 755.002, 53.768 764.681, 56.937 772.761 C 58.072 775.654, 59 779.716, 59 781.788 C 59 783.860, 59.620 786.443, 60.378 787.527 C 63.093 791.413, 77.913 821, 77.145 821 C 76.713 821, 74.516 819.421, 72.261 817.492 C 70.007 815.562, 64.300 812.207, 59.580 810.037 C 50.118 805.686, 49.921 805.433, 47.492 794.565 C 45.600 786.093, 39.185 773.768, 33.480 767.643 C 31.150 765.140, 27.756 760.485, 25.938 757.297 C 22.820 751.829, 22.589 750.743, 21.866 738.156 C 21.445 730.816, 20.159 720.691, 19.008 715.656 L 16.915 706.500 18.918 694 C 20.020 687.125, 21.436 679.025, 22.066 676 C 22.814 672.410, 22.987 665.638, 22.565 656.500 C 22.209 648.800, 21.917 641.283, 21.915 639.795 C 21.914 638.307, 23.980 632.695, 26.507 627.323 C 31.843 615.981, 32.342 613.629, 29.499 613.216 C 28.196 613.027, 25.844 614.605, 22.758 617.738 C 18.280 622.284, 17.876 623.156, 15.445 633.525 C 14.030 639.561, 12.149 646.075, 11.266 648 C 9.341 652.196, 8.161 659.062, 7.054 672.500 C 6.601 678, 5.757 686.325, 5.177 691 C 4.597 695.675, 3.811 705.575, 3.430 713 C 3.048 720.425, 2.379 727.455, 1.942 728.621 C 1.505 729.788, 1.541 732.488, 2.022 734.621 C 2.503 736.755, 3.157 740.145, 3.476 742.155 C 3.876 744.681, 5.744 747.702, 9.527 751.942 C 12.537 755.316, 15 758.567, 15 759.168 C 15 759.769, 16.536 762.399, 18.413 765.011 C 22.773 771.080, 25 775.401, 25 777.791 C 25 778.830, 26.347 782.377, 27.994 785.672 C 29.641 788.967, 31.441 794.052, 31.995 796.971 C 34.353 809.408, 42.185 829.099, 48.437 838.313 C 49.847 840.390, 51 842.413, 51 842.809 C 51 843.749, 70.559 861.922, 74.670 864.802 C 76.413 866.023, 82.038 869.217, 87.170 871.900 C 104.203 880.805, 107.889 883.076, 108.515 885.047 C 109.304 887.533, 114.172 887.685, 116.558 885.299 C 117.985 883.872, 118.157 882.387, 117.625 876.097 C 117.250 871.662, 116.176 867.031, 114.996 864.767 C 112.726 860.414, 112.410 857.642, 114.250 858.238 C 114.938 858.461, 116.411 861.311, 117.524 864.571 C 119.798 871.234, 122.369 872.631, 125.886 869.114 C 128.389 866.611, 130.340 859.630, 129.672 855.566 C 129.395 853.880, 128.688 849.125, 128.101 845 C 126.547 834.067, 125.148 828.756, 121.332 819.291 C 116.617 807.598, 115.999 798.793, 118.945 785.253 L 121.155 775.095 118.446 769.059 C 116.895 765.602, 113.657 760.943, 110.869 758.154 C 108.191 755.477, 106 752.581, 106 751.720 C 106 750.858, 107.064 748.881, 108.363 747.327 C 114.236 740.302, 116.592 731.560, 113.684 727.582 C 111.392 724.448, 108.661 726.005, 107.676 731.008 C 107.040 734.238, 105.528 736.853, 102.296 740.313 C 98.310 744.582, 97.872 745.503, 98.424 748.447 C 98.900 750.985, 98.663 751.915, 97.417 752.393 C 95.239 753.229, 96.207 757.036, 100.180 763.258 C 102.678 767.170, 103.101 768.647, 102.556 771.556 C 101.633 776.474, 102.878 784, 104.614 784 C 106.331 784, 106.447 785.684, 104.767 786.244 C 103.804 786.565, 103.786 787.731, 104.685 791.578 C 105.995 797.181, 109.870 810.505, 111.061 813.500 C 112.274 816.549, 114.280 826.053, 113.810 826.523 C 113.582 826.751, 111.088 824.920, 108.267 822.453 C 102.368 817.292, 97.702 808.836, 96 800.221 C 94.475 792.502, 93.912 790.609, 88.519 775.036 C 83.785 761.369, 82.954 759.944, 69.258 742 C 66.112 737.878, 65.858 737.038, 66.244 732 C 66.704 725.996, 70.151 717.675, 73.507 714.467 C 74.850 713.184, 76.087 710.050, 76.863 705.967 C 77.538 702.410, 78.487 698.150, 78.971 696.500 C 79.454 694.850, 80.644 688.849, 81.614 683.165 C 83.193 673.911, 83.246 671.351, 82.113 658.690 L 80.848 644.551 75.306 633.796 C 72.258 627.881, 67.679 620.608, 65.132 617.633 C 62.584 614.658, 58.815 610.090, 56.755 607.480 C 51.511 600.838, 42.303 593.006, 39.692 592.968 C 38.486 592.951, 36.626 592.276, 35.559 591.468 C 33.136 589.635, 32 589.602, 32 591.365 M 248.558 614.775 C 246.874 616.460, 250.111 624.454, 253.132 626.071 C 254.162 626.622, 257.527 627.394, 260.611 627.786 L 266.217 628.500 269.986 635.500 C 275.160 645.110, 278.454 648.359, 282.254 647.599 C 284.344 647.181, 285.933 647.589, 287.734 649.005 C 290.660 651.307, 294 651.634, 294 649.619 C 294 648.859, 292.489 647.085, 290.641 645.676 C 287.576 643.338, 287.237 642.545, 286.760 636.603 C 286.185 629.437, 284.022 624.843, 279.708 621.628 C 277.474 619.963, 274.941 619.441, 267.060 619.023 C 260.027 618.650, 256.674 618.039, 255.352 616.891 C 253.305 615.113, 249.428 613.905, 248.558 614.775 M 300.250 653.989 C 298.462 655.079, 297 656.475, 297 657.091 C 297 659.026, 302.920 665.788, 306.612 668.069 C 311.059 670.818, 314.422 669.627, 316.542 664.554 C 318.412 660.079, 317.928 659.075, 312.037 655.219 C 306.311 651.470, 304.663 651.298, 300.250 653.989 M 477.399 748.842 C 471.763 752.948, 460.708 764.988, 458.711 769.196 C 455.834 775.260, 456.708 779, 461.003 779 C 464.002 779, 466.419 776.614, 473.287 766.872 C 475.371 763.917, 478.633 759.553, 480.537 757.172 C 484.166 752.638, 484.927 749.014, 482.649 747.123 C 481.612 746.263, 480.391 746.662, 477.399 748.842 M 856.971 788.054 C 852.657 796.115, 850.354 809.063, 848.399 836.250 C 847.508 848.639, 849.035 849.269, 854.543 838.786 C 858.541 831.178, 859.064 827.950, 860.657 801.075 C 861.411 788.369, 859.816 782.738, 856.971 788.054 M 592.750 796.080 C 591.123 797.028, 590.220 801, 591.632 801 C 592.918 801, 599 796.805, 599 795.918 C 599 794.696, 594.947 794.800, 592.750 796.080 M 976 824.428 C 969.670 826.184, 966.311 828.128, 960 833.683 C 956.975 836.346, 952.250 840.291, 949.500 842.448 C 942.026 848.312, 932.853 857.029, 929.815 861.156 C 928.335 863.167, 925.685 867.667, 923.925 871.156 C 922.166 874.645, 919.864 878.625, 918.810 880 C 910.869 890.357, 907 901.362, 907 913.593 C 907 918.558, 907.638 923.811, 908.578 926.579 L 910.157 931.229 907.001 936.306 C 903.350 942.179, 900.284 952.704, 901.393 955.556 C 902.067 957.289, 902.295 957.158, 903.486 954.345 C 904.222 952.610, 905.722 950.906, 906.821 950.557 C 909.818 949.606, 910.893 947.837, 911.990 942.054 C 912.553 939.084, 914.073 935.514, 915.492 933.827 C 916.872 932.188, 918.008 929.869, 918.017 928.673 C 918.050 924.519, 921.777 912.121, 923.882 909.165 C 925.047 907.530, 926 905.723, 926 905.151 C 926 904.579, 930.168 898.573, 935.263 891.805 C 952.466 868.953, 955.391 864.521, 958.231 857 C 959.788 852.875, 961.672 848.375, 962.416 847 C 963.160 845.625, 964.067 843.106, 964.431 841.401 C 965.509 836.354, 973.185 830.104, 980.840 828.043 C 985.048 826.910, 986.320 824.721, 983.418 823.607 C 981.517 822.877, 981.633 822.864, 976 824.428 M 903.377 829.250 C 902.457 831.038, 900.709 833.850, 899.493 835.500 C 898.278 837.150, 896.037 840.836, 894.514 843.692 C 892.991 846.547, 891.164 849.107, 890.453 849.380 C 888.456 850.146, 881 863.538, 881 866.359 C 881 869.590, 882.675 874, 883.902 874 C 884.425 874, 885.983 871.532, 887.365 868.515 C 890.314 862.074, 893.708 857.249, 899.780 850.871 C 903.640 846.816, 904.360 845.329, 905.592 838.871 C 907.963 826.439, 906.994 822.228, 903.377 829.250 M 16.053 840.750 C 13.182 851.087, 16.879 861.739, 27.908 874.907 C 37.084 885.864, 39.573 891.382, 34.050 888.526 C 32.352 887.648, 28.512 887, 25.004 887 C 19.798 887, 18.536 886.627, 16.348 884.439 C 9.711 877.802, 13.834 889.626, 20.768 897.116 C 25.454 902.178, 26.701 902.969, 30.809 903.491 C 37.416 904.330, 40.160 905.916, 53.311 916.495 C 59.698 921.633, 67.754 927.192, 71.212 928.848 C 84.026 934.982, 85.128 933.921, 75.750 924.482 C 72.313 921.022, 66.800 913.797, 63.500 908.427 C 60.200 903.056, 56.600 897.813, 55.500 896.775 C 54.400 895.737, 52.825 893.616, 52 892.063 C 51.175 890.509, 47.935 886.200, 44.801 882.486 C 41.666 878.773, 38.365 874.182, 37.465 872.285 C 36.565 870.388, 34.711 867.189, 33.345 865.176 C 31.979 863.163, 28.098 856, 24.721 849.258 C 21.344 842.516, 18.246 837, 17.837 837 C 17.428 837, 16.625 838.688, 16.053 840.750 M 105 841.050 C 105 843.129, 110.295 855, 111.223 855 C 112.764 855, 111.950 851.011, 109.448 846.303 C 106.463 840.687, 105 838.959, 105 841.050 M 796 860.806 C 796 861.249, 797.125 863.136, 798.500 865 C 801.113 868.542, 802.104 872.504, 799.800 870.200 C 796.458 866.858, 796.019 871.156, 799.087 877.170 C 802.208 883.287, 800.185 891.349, 794.385 895.912 C 791.244 898.383, 790 898.550, 790 896.500 C 790 894.345, 786.625 894.652, 784.500 897 C 782.353 899.373, 780.100 899.543, 777.441 897.532 C 774.733 895.483, 771.708 895.651, 769 898 C 766.362 900.288, 764.750 900.485, 762.119 898.842 C 759.503 897.208, 757.087 898.452, 755.820 902.086 C 754.743 905.176, 754.699 905.193, 749.368 904.527 C 743.539 903.799, 742.564 904.756, 745.655 908.171 C 748.333 911.130, 745.905 910.277, 740 906.185 C 734.887 902.641, 734.461 902.036, 733.943 897.586 C 733.537 894.101, 732.722 892.289, 730.943 890.922 C 727.692 888.424, 727 888.525, 727 891.500 C 727 895.746, 725.263 894.263, 723.982 888.923 C 723.312 886.131, 722.136 883.606, 721.369 883.311 C 717.134 881.686, 715.186 890.031, 718.173 897 C 720.073 901.431, 725.524 908, 727.302 908 C 727.803 908, 729.049 909.064, 730.072 910.365 C 731.095 911.665, 733.297 913.295, 734.966 913.986 C 736.635 914.677, 738 915.658, 738 916.167 C 738 917.181, 731.527 916.266, 728.816 914.868 C 727.889 914.391, 725.099 914, 722.615 914 C 714.755 914, 708.265 912.064, 703.899 908.416 C 697.569 903.127, 692.584 904.103, 697.966 909.579 C 706.267 918.024, 711.915 920.567, 726.661 922.500 C 732.954 923.325, 738.529 924, 739.051 924 C 741.104 924, 739.839 925.824, 736.960 927.017 C 733.455 928.469, 727.194 935.380, 726.355 938.723 C 726.040 939.976, 726.507 942.810, 727.392 945.021 C 728.276 947.231, 729 950.156, 729 951.520 C 729 953.279, 729.546 954, 730.878 954 C 734.135 954, 735.220 951.485, 734.848 944.799 L 734.500 938.540 739.500 935.793 C 742.250 934.283, 744.888 933.036, 745.361 933.023 C 745.835 933.011, 745.929 934.566, 745.570 936.480 C 745.046 939.274, 745.541 941.095, 748.087 945.730 C 749.830 948.903, 751.874 952.210, 752.628 953.079 C 753.383 953.947, 754 955.383, 754 956.270 C 754 958.856, 755.800 959.242, 757.041 956.923 C 758.219 954.722, 757.749 949.982, 755.800 944.419 C 755.081 942.367, 755.042 940.375, 755.683 938.451 L 756.645 935.565 768.591 935.428 C 780.771 935.288, 784.884 934.255, 787.945 930.566 C 789.488 928.707, 793.114 928.514, 794.800 930.200 C 796.408 931.808, 796.317 935.567, 794.604 938.285 C 792.587 941.486, 791.686 945, 792.882 945 C 794.641 945, 802.751 939.086, 803.508 937.252 C 803.905 936.288, 804.599 933.958, 805.050 932.074 C 806.053 927.876, 803.895 923, 801.033 923 C 798.656 923, 797.418 921.182, 798.831 919.769 C 800.345 918.255, 805.751 920.691, 807.793 923.807 C 808.830 925.389, 809.403 928.271, 809.354 931.654 C 809.279 936.863, 810.045 937.946, 812.595 936.235 C 814.159 935.186, 814.991 928.721, 814.307 922.941 C 813.568 916.704, 810.235 913, 805.364 913 C 803.514 913, 802 912.830, 802 912.623 C 802 912.416, 805.474 908.850, 809.721 904.699 L 817.442 897.151 817.976 890.782 C 818.270 887.279, 818.358 883.622, 818.172 882.654 C 817.553 879.438, 815.186 882.808, 813.841 888.822 C 812.902 893.018, 811.784 895.139, 809.536 896.995 C 807.866 898.373, 805.180 900.962, 803.566 902.750 C 801.952 904.538, 799.815 906, 798.816 906 C 795.979 906, 796.671 904.367, 800.513 901.992 C 804.371 899.608, 806 897.244, 806 894.031 C 806 892.875, 806.716 890.837, 807.592 889.501 C 809.694 886.292, 810.505 876.546, 809.102 871.358 C 807.844 866.710, 801.284 860, 797.997 860 C 796.899 860, 796 860.363, 796 860.806 M 269.821 910.033 C 259.875 910.938, 255.634 912.579, 255.189 915.692 C 254.722 918.958, 257.925 920.079, 267.240 919.908 C 276.951 919.730, 284.078 921.289, 289.178 924.707 C 292.639 927.027, 293.182 927.104, 298.407 926.019 C 301.461 925.385, 305.386 925.009, 307.131 925.183 C 310.926 925.562, 311.715 924.085, 309.283 921.155 C 308.037 919.654, 305.319 918.601, 300.261 917.660 C 295.682 916.808, 291.159 915.154, 287.951 913.160 C 281.654 909.246, 280.553 909.056, 269.821 910.033 M 838.500 920.863 C 834.281 922.783, 831.284 925.617, 832.348 926.682 C 832.697 927.030, 836.223 926.341, 840.184 925.150 C 844.144 923.959, 847.710 923.326, 848.108 923.743 C 848.505 924.159, 848.981 925.612, 849.165 926.972 C 849.636 930.448, 855.913 931.608, 865.429 929.976 C 873.302 928.626, 876.048 928.544, 880.618 929.521 C 884.012 930.247, 891.922 927.122, 889 926.209 C 888.175 925.951, 885.207 924.674, 882.404 923.370 C 876.801 920.765, 870.875 920.358, 864.842 922.165 C 861.431 923.187, 860.419 923.064, 856.617 921.165 C 851.259 918.490, 843.985 918.369, 838.500 920.863 M 236.485 933.017 C 234.857 934.815, 234.792 935.257, 236.040 936.046 C 236.843 936.554, 238.030 936.976, 238.679 936.985 C 240.355 937.006, 243.160 933.983, 242.716 932.634 C 242.056 930.627, 238.447 930.849, 236.485 933.017 M 880.329 934.621 C 878.703 937.102, 878.704 937.311, 880.352 938.515 C 883.993 941.178, 888.783 936.853, 885.960 933.452 C 884.165 931.288, 882.252 931.686, 880.329 934.621 M 312.973 938.692 C 307.742 942.272, 307.754 944.284, 313.020 946.391 C 318.053 948.405, 327.169 948.446, 337.338 946.500 C 347.771 944.503, 352.578 944.608, 360.161 946.998 C 374.433 951.495, 385.559 951.561, 387.913 947.162 C 390.109 943.060, 385.934 941.263, 370.806 939.798 C 356.871 938.448, 349.230 938.376, 337 939.478 C 330.141 940.096, 327.752 939.931, 324.628 938.622 C 319.669 936.545, 316.079 936.566, 312.973 938.692 M 445.346 938.601 C 441.628 940.435, 440.505 943.596, 442.494 946.631 C 443.859 948.714, 444.577 948.805, 459.210 948.747 C 475.819 948.680, 478.587 949.123, 479.497 951.989 C 480.999 956.724, 493.494 956.425, 492.804 951.670 C 492.591 950.199, 491.511 949.373, 489.185 948.900 C 487.361 948.529, 484.886 947.305, 483.685 946.180 C 479.315 942.087, 470.066 940.646, 464.485 943.189 C 462.158 944.249, 461.640 944.097, 459.688 941.783 C 455.525 936.846, 450.958 935.833, 445.346 938.601 M 844.663 938.820 C 843.295 940.331, 843.233 940.937, 844.298 942.393 C 846.004 944.726, 852.840 944.251, 854.399 941.691 C 856.780 937.781, 847.958 935.179, 844.663 938.820 M 693.750 941.162 C 689.271 942.798, 690.275 945, 695.500 945 C 700.115 945, 701.270 943.670, 698.800 941.200 C 697.422 939.822, 697.419 939.822, 693.750 941.162 M 707.050 947.759 C 703.632 950.526, 705.259 953, 710.496 953 C 715.999 953, 720.133 950.070, 718.095 947.615 C 716.293 945.443, 709.805 945.527, 707.050 947.759 M 870.582 947.316 C 868.154 949.092, 868.925 952.415, 871.862 952.833 C 877.646 953.655, 881.831 950.109, 878.267 947.405 C 875.997 945.682, 872.866 945.646, 870.582 947.316 M 424 948.872 C 422.207 949.387, 421.500 950.285, 421.500 952.045 C 421.500 955.545, 427.001 956.862, 432.326 954.637 C 435.377 953.362, 436.080 952.585, 435.822 950.771 C 435.546 948.825, 434.855 948.475, 431 948.327 C 428.525 948.232, 425.375 948.477, 424 948.872 M 632.733 951.600 C 632.351 951.982, 628.092 952.341, 623.269 952.397 C 614.879 952.496, 614.486 952.601, 614.170 954.832 C 613.652 958.486, 616.646 961, 621.513 961 C 626.074 961, 639.500 954.773, 639.500 952.658 C 639.500 951.380, 633.839 950.495, 632.733 951.600 M 829.441 952.441 C 827.891 953.593, 827.722 954.247, 828.602 955.691 C 830.532 958.858, 838.157 958.639, 839.407 955.382 C 840.903 951.483, 833.624 949.335, 829.441 952.441 M 660 957.188 C 657.525 957.704, 653.820 958.276, 651.766 958.460 C 648.212 958.779, 642.548 962.446, 640.700 965.624 C 639.460 967.758, 647.200 967.388, 652.815 965.044 C 656.630 963.451, 660.609 963.004, 674.253 962.634 C 683.467 962.384, 691.090 961.802, 691.194 961.340 C 691.297 960.878, 689.879 959.487, 688.043 958.250 C 685.088 956.259, 683.543 956.014, 674.602 956.125 C 669.046 956.194, 662.475 956.672, 660 957.188"/>
</svg>