<?xml version="1.0" encoding="utf-8"?>
<svg xmlns="http://www.w3.org/2000/svg" width="1002" height="903" viewBox="0 0 1002 903">
  <path fill-rule="evenodd" d="M 118.500 2.850 C 101.631 13.210, 79.402 60.064, 58.886 128.500 C 32.358 216.989, 13.204 309.054, 6.562 380 C 5.153 395.056, 4.580 404.461, 2.090 453.500 C 1.643 462.300, 1.649 474.580, 2.103 480.789 C 3.794 503.902, 12.234 526.638, 26.680 547 C 39.228 564.686, 69.690 592.887, 99.588 614.496 C 116.887 627, 136.796 640.795, 159.706 656.154 C 188.588 675.518, 194.302 679.666, 206.500 690.129 C 216.810 698.972, 236.705 718.983, 246.138 730 C 258.364 744.278, 281 776.297, 281 779.314 C 281 780.101, 281.839 782.715, 282.865 785.123 C 285.974 792.418, 286.323 793.451, 286.117 794.735 C 286.008 795.414, 287.062 798.018, 288.460 800.521 C 289.857 803.023, 291 805.770, 291 806.625 C 291 807.480, 291.918 808.927, 293.041 809.840 C 294.649 811.148, 295.201 813.091, 295.643 819 C 296.104 825.154, 296.940 827.936, 300.297 834.500 C 304.300 842.326, 304.390 842.728, 304.445 853 C 304.498 863.125, 304.613 863.661, 307.657 868 C 309.393 870.475, 313.517 875.287, 316.822 878.694 C 320.126 882.101, 323.090 885.701, 323.409 886.694 C 324.016 888.585, 332.703 893.512, 337 894.402 C 338.375 894.687, 342.164 896.526, 345.419 898.489 L 351.338 902.058 359.419 900.609 C 363.864 899.811, 370.650 898.854, 374.500 898.481 C 378.350 898.108, 381.950 897.463, 382.500 897.047 C 383.050 896.631, 384.957 895.800, 386.738 895.201 C 390.469 893.947, 398.136 888.963, 402.500 884.955 C 404.150 883.440, 407.171 881.321, 409.213 880.246 C 412.757 878.381, 435.414 855.456, 438.366 850.749 C 439.975 848.182, 441.455 841.461, 441.060 838.514 C 440.550 834.702, 436.116 827.326, 432.821 824.805 C 430.994 823.409, 426.058 818.831, 421.851 814.633 C 417.644 810.435, 413.516 807, 412.679 807 C 411.841 807, 408.308 804.317, 404.828 801.038 C 401.347 797.759, 397.364 794.597, 395.975 794.010 C 390.093 791.526, 363.677 751.874, 350.667 726 C 339.397 703.587, 333.956 689.284, 328.793 668.500 C 325.882 656.778, 325.230 615.240, 327.428 581.500 C 329.206 554.203, 333.722 511.774, 337.560 486.313 C 340.670 465.683, 340.671 465, 337.593 465 C 333.693 465, 326.522 473.982, 320.463 486.453 C 308.053 511.998, 298.451 548.451, 290.014 602.047 C 288.322 612.798, 286.413 623.303, 285.772 625.392 C 284.341 630.053, 276.969 637.525, 272.272 639.075 C 263.026 642.127, 252.090 638.722, 231.067 626.248 C 209.079 613.202, 169.758 587.772, 165.151 583.618 C 161.909 580.695, 158.073 572.840, 157.398 567.744 C 155.965 556.919, 172.212 480.286, 184.482 440 C 189.406 423.830, 189.368 424, 188.068 424 C 186.383 424, 167.308 431.979, 152.435 438.904 L 139.500 444.928 137.276 450.214 C 132.807 460.839, 121.752 496.001, 116.932 514.924 C 114.211 525.608, 111.732 534.601, 111.424 534.909 C 109.990 536.343, 100.100 519.438, 95.300 507.348 C 91.039 496.616, 89.261 489.749, 87.829 478.500 C 87.199 473.550, 86.361 469.129, 85.966 468.675 C 84.838 467.376, 71.316 474.667, 66.331 479.262 C 63.851 481.549, 60.706 485.620, 59.343 488.309 C 56.799 493.330, 54 505.525, 54 511.588 C 54 513.465, 53.539 515, 52.975 515 C 49.145 515, 49.182 494.610, 53.031 484.525 C 55.882 477.058, 63.113 469.207, 71.985 463.949 C 75.568 461.825, 100.325 451.336, 127 440.641 C 173.865 421.850, 186.010 416.938, 209.500 407.273 C 215.550 404.784, 222.750 401.868, 225.500 400.793 C 230.124 398.987, 244.553 392.965, 261.500 385.769 C 296.205 371.033, 315.278 359.461, 340.906 337.587 C 357.407 323.504, 369.287 308.458, 377.812 290.848 C 384.600 276.823, 383.639 276.081, 370.450 285.163 C 317.180 321.847, 285.627 338.177, 230.750 357.467 C 216.448 362.495, 213.007 363.395, 213.035 362.103 C 213.054 361.222, 216.879 353.075, 221.535 344 C 244.086 300.046, 256.528 273.011, 264.105 251.500 C 270.933 232.112, 268.530 228.339, 257.896 241.750 C 226.172 281.757, 199.049 322.323, 176.682 363.213 L 169.414 376.500 160.957 378.794 C 146.583 382.692, 120.089 387.891, 106.486 389.482 C 84.309 392.077, 73.173 391.278, 68.260 386.739 C 61.922 380.885, 59.180 361.729, 60.901 335.327 C 61.868 320.484, 65.264 291.981, 67.969 276 C 74.978 234.586, 84.048 191.740, 97.922 134.500 C 103.292 112.346, 116.219 62.385, 126.447 24.257 C 130.175 10.361, 130.675 6.129, 128.965 2.934 C 127.621 0.423, 122.519 0.382, 118.500 2.850 M 873.035 2.934 C 871.327 6.127, 871.824 10.356, 875.542 24.257 C 891.168 82.672, 907.245 146.077, 913.004 172 C 924.531 223.883, 928.706 244.537, 934.031 276 C 936.718 291.877, 940.128 320.434, 941.079 335.025 C 942.805 361.501, 940.050 380.910, 933.740 386.739 C 928.830 391.274, 917.690 392.076, 895.566 389.488 C 881.697 387.866, 853.540 382.337, 840.502 378.677 L 832.505 376.431 827.672 367.465 C 805.311 325.985, 774.926 280.309, 743.707 241.248 C 733.448 228.411, 731.175 232.420, 737.895 251.500 C 745.552 273.239, 757.660 299.548, 780.465 344 C 788.812 360.270, 789.905 363, 788.067 363 C 786.747 363, 755.091 351.849, 745.500 348.006 C 741.100 346.242, 735.404 343.963, 732.843 342.939 C 723.831 339.339, 699.357 327.271, 686.500 320.087 C 671.575 311.748, 654.150 300.752, 635.544 287.929 C 628.418 283.018, 622.005 279, 621.294 279 C 619.126 279, 619.812 281.807, 624.188 290.848 C 635.088 313.363, 651.413 331.592, 678.780 351.801 C 695.299 364.001, 716.283 375.695, 737.500 384.525 C 742.450 386.585, 749.425 389.519, 753 391.045 C 756.575 392.571, 766.925 396.837, 776 400.525 C 785.075 404.213, 796.325 408.795, 801 410.708 C 825.926 420.908, 845.109 428.653, 879 442.198 C 899.625 450.442, 920.522 459.282, 925.437 461.843 C 937.403 468.078, 945.948 476.291, 949.011 484.500 C 952.815 494.698, 952.825 515, 949.025 515 C 948.461 515, 948 513.465, 948 511.588 C 948 505.488, 945.194 493.317, 942.615 488.226 C 941.229 485.491, 937.936 481.349, 935.297 479.020 C 930.058 474.398, 917.492 467.578, 915.959 468.526 C 915.431 468.851, 915 470.362, 915 471.883 C 915 482.585, 908.843 504.444, 902.024 517.953 C 898.129 525.668, 892.027 535, 890.877 535 C 890.416 535, 889.750 533.763, 889.399 532.250 C 883.732 507.885, 873.176 472.280, 866.269 454.233 L 862.723 444.966 854.111 440.912 C 840.970 434.726, 818.770 425.231, 815.567 424.427 C 812.253 423.596, 812.064 422.091, 817.518 440 C 829.788 480.286, 846.035 556.919, 844.602 567.744 C 843.927 572.840, 840.091 580.695, 836.849 583.618 C 828.477 591.166, 765.370 630.479, 752 636.476 C 744.691 639.754, 735.192 640.883, 729.849 639.108 C 725.207 637.567, 719.246 631.819, 717.029 626.749 C 716.008 624.412, 713.763 613.500, 712.041 602.500 C 703.229 546.222, 692.984 508.189, 679.776 482.713 C 674.779 473.075, 667.773 465, 664.407 465 C 661.376 465, 661.352 466.184, 664.037 483.500 C 666.627 500.208, 672.564 552.828, 674.192 573.500 C 675.921 595.465, 675.922 656.566, 674.192 664.500 C 667.453 695.423, 650.392 732.837, 627.825 766.182 C 616.840 782.412, 608.966 792.489, 604.729 795.738 C 602.747 797.257, 597.194 801.425, 592.388 805 C 587.581 808.575, 581.786 813.300, 579.508 815.500 C 577.231 817.700, 572.594 822.120, 569.203 825.322 C 562.208 831.929, 560.409 836.322, 561.369 844.456 C 561.851 848.535, 562.676 850.126, 566.036 853.456 C 568.281 855.680, 574.435 862.225, 579.712 868 C 584.990 873.775, 591.217 879.625, 593.551 881 C 595.885 882.375, 599.529 884.672, 601.647 886.104 C 608.267 890.579, 619.116 894.697, 629.180 896.554 C 638.427 898.260, 639.410 898.262, 651.180 896.598 C 657.956 895.639, 665.011 894.138, 666.859 893.262 C 671.572 891.026, 690.259 873.929, 694.210 868.236 C 697.346 863.719, 697.523 862.968, 698.040 852 C 698.545 841.278, 698.825 840.026, 702.185 833.500 C 705.046 827.942, 705.905 824.955, 706.353 819 C 706.769 813.482, 707.395 811.104, 708.722 810 C 709.714 809.175, 711.958 804.225, 713.707 799 C 718.965 783.298, 722.645 775.357, 729.141 765.692 C 745.132 741.902, 759.611 724.510, 780.140 704.435 C 799.453 685.549, 807.151 679.657, 850 650.960 C 902.671 615.686, 931.560 593.500, 954.068 571.038 C 962.705 562.420, 971.370 552.632, 975.350 547 C 987.638 529.612, 995.851 509.885, 999.057 490.063 C 1002.154 470.915, 997.768 391.009, 990.931 342 C 977.180 243.432, 944.172 116.397, 915.394 51.289 C 904.122 25.787, 891.555 6.924, 882.831 2.413 C 878.863 0.361, 874.282 0.605, 873.035 2.934 M 198.390 78.423 C 188.701 84.948, 175.405 101.826, 157.759 130 C 122.825 185.776, 89.274 255.604, 70.314 312 L 65.775 325.500 66.295 344 C 66.876 364.686, 68.264 371.439, 73.158 377.375 C 74.904 379.494, 77.576 381.341, 79.771 381.947 C 83.392 382.947, 92.728 382.404, 94.889 381.069 C 95.495 380.694, 97.761 373.213, 99.925 364.444 C 110.001 323.601, 127.304 268.156, 142.974 226.500 C 154.503 195.852, 168.142 165, 184.894 131.672 C 199.242 103.128, 207.043 84.711, 207.012 79.450 C 207.001 77.533, 205.307 75, 204.037 75 C 203.727 75, 201.186 76.541, 198.390 78.423"/>
</svg>