<svg id="a" xmlns="http://www.w3.org/2000/svg" width="100.001" height="102.858" viewBox="0 0 100.001 102.858" xmlns:svgjs="http://svgjs.com/svgjs"><path d="M15.961,88.662c-.182-.062-.34-.103-.489-.133,1.929,1.908,4.153,3.74,6.619,5.397.438-.457.91-.889,1.414-1.293-2.351-1.324-6.493-3.601-7.544-3.971Z" fill="none"></path><path d="M75.245,61.002c-1.247,0-2.228-.376-2.896-.747-.388,1.188-1.061,2.561-1.789,3.957.767.314,1.99.646,3.247.325.742-1.31,1.417-2.522,1.989-3.575-.179.017-.362.04-.532.04h-.019Z" fill="none"></path><path d="M70.427,51.095c-.133-1.09-.274-2.104-.393-2.932-.178.015-.351.038-.535.038v-.01c-1.886,0-4.106-.726-5.664-2.722-.029.047-.053.096-.083.143-.285.436-.629.883-1.008,1.336.565,1.256,2.89,4.607,7.683,4.147Z" fill="none"></path><path d="M71.566,42.223c-.067,1.214-.133,2.589.047,3.831l.085.569c.122.817.244,1.665.361,2.522.006.004.013.006.018.01.283.218,2.75,2.001,5.253-.806.033-.037.079-.057.117-.087-.4-1.519-.831-3.911-1.099-5.908-.24,1.143-.136,2.226-.136,2.242.037.389-.237.74-.626.788h-.096c-.36,0-.664-.265-.701-.635,0-.085-.218-2.047.465-3.764.208-.515.528-1.168.886-1.875.008-.025.021-.046.033-.068.139-.272.282-.551.428-.836.001-.001.001-.004.003-.006-.14,0-.278-.014-.413-.061-.876-.304-1.243-1.538-.821-2.754s1.474-1.957,2.35-1.653c.247.085.449.25.608.463.076-.468.019-.756-.06-1.129-.014-.069-.029-.146-.044-.222-.206.201-.464.326-.751.326-.654,0-1.185-.628-1.185-1.403,0-.478.203-.9.511-1.153-.51-.104-1.061-.1-1.46.006-1.431.394-3.669,3.739-4.333,6.963.354,1.429.617,2.656.617,3.162,0,.426-.028.929-.057,1.479ZM75.198,31.995c.44,0,.797.441.797.986s-.357.986-.797.986-.797-.442-.797-.986.357-.986.797-.986Z" fill="none"></path><path d="M74.525,55.492c-.7,0-1.317-.087-1.815-.192.094,1.618.082,3.019-.104,3.994.696.432,1.996.983,3.743.642.744-1.396,1.235-2.385,1.353-2.747.261-.796.397-1.682.451-2.586-1.262.681-2.533.899-3.618.899l-.01-.01Z" fill="none"></path><path d="M70.784,58.808c.217-1.275.089-3.542-.143-5.819-.381.037-.75.057-1.104.057v-.01c-4.358,0-7.004-2.678-8.149-4.617-1.135,1.139-2.426,2.263-3.651,3.272,1.176,2.514,4.122,7.807,13.047,7.117Z" fill="none"></path><path d="M32.393,18.197c.576-.287,1.59-.575,2.675-.642.106-.429.624-2.596.436-4.792-.143-1.697-.911-4.058-1.386-5.396-1.603.958-4.078,2.665-4.789,4.135-.661,1.364-.076,5.308.576,8.182.812-.524,1.864-1.181,2.487-1.488Z" fill="none"></path><path d="M68.669,63.773c.753-1.428,1.464-2.84,1.854-3.981-.442.028-.871.043-1.282.043v.01c-8.081,0-11.075-5.072-12.265-7.535-.711.575-1.385,1.103-1.968,1.56-.401.317-.771.603-1.075.847,1.04,2.967,4.493,9.322,14.736,9.056Z" fill="none"></path><path d="M39.613,20.323c.168-.549.367-1.033.554-1.432.067-.139.146-.307.261-.496-.528.224-1.019.464-1.426.714.021.033.047.06.067.094.14.242.329.635.544,1.119Z" fill="none"></path><path d="M7.784,32.033c-1.188,1.754-2.287,3.71-3.128,5.842-.113.285-.215.556-.321.832.885.496,1.487,1.436,1.487,2.525,0,1.601-1.299,2.892-2.892,2.892-.132,0-.256-.021-.382-.037-.819,3.083-1.158,5.942-1.128,9.419,1.321-3.2,3.353-6.892,6.876-10.71-.343-1.237-1.199-5.119-.514-10.763Z" fill="none"></path><path d="M43.829,22.551c.057-.646.247-1.593.446-2.599.169-.836.412-2.081.49-2.85-2.636.976-3.094,1.918-3.315,2.394-.31.651-.779,1.872-.826,3.286.444,1.147.911,2.426,1.336,3.682,1.097-1.794,1.815-3.269,1.869-3.914Z" fill="none"></path><path d="M44.361,47.158c-1.053,1.858-2.049,3.832-2.921,5.567-1.129,2.247-2.029,4.031-2.703,4.893-.117.147-.243.271-.368.401.983-.236,1.661-.538,2.151-.763.939-.531,7.472-8.392,8.553-10.165,1.053-1.726,1.86-2.626,2.608-2.921.825-.332,2.361-.228,4.125-.076l.265.019s3.479.265,3.821-2.683c.124-1.043-.351-1.868-.768-2.371-.815-.986-2.181-1.65-3.546-1.744-4.25-.279-7.321,1.449-8.1,1.944-1.119,3.332-2.276,6.421-3.118,7.899ZM57.447,43.62c-.55,0-.996-.395-.996-.882s.446-.882.996-.882.996.395.996.882-.446.882-.996.882ZM59.598,41.166c-.06.499-.703.832-1.436.743s-1.278-.565-1.218-1.064c.061-.5.704-.832,1.436-.743.733.089,1.278.565,1.218,1.064ZM57.105,38.245c.739,0,1.337.407,1.337.91s-.599.91-1.337.91-1.338-.408-1.338-.91.599-.91,1.338-.91ZM53.843,40.377c.114-.369.617-.721,1.167-.56.456.142.703.332,1.119.588.417.256.369,1.09.322,1.375-.047.285-.465.693-.996,1.072-.532.379-.958.35-1.422-.265-.465-.617-.304-1.84-.19-2.21Z" fill="none"></path><path d="M64.708,43.302c1.411,2.783,3.997,3.01,5.05,2.978-.201-1.422-.119-2.942-.062-4.164.028-.513.047-.976.047-1.375,0-.843-1.403-6.003-2.408-9.388-.018-.047-.028-.104-.028-.161-.246-2.104-.701-5.508-.91-6.239-.051-.169-.137-.257-.321-.346-.062.258-.15.524-.276.811l-.787,2.958c-.019.085-.151.085-.171,0h-.01c-.275-1.488-.672-3.214-.36-4.703.054-.121.115-.247.188-.371-.01-.088-.014-.171-.017-.235v-.124s-.086-.067-.285-.151c-.483-.208-.758-.085-1.11.076-.06.026-.131.049-.196.074.069.618.047,1.228-.079,1.946-.056,1.233-.038,2.503-.028,3.793,0,.094-.133.122-.171.037h.01c-.701-1.801-1.499-3.736-1.422-5.708.019-.089.05-.183.075-.275-.224-.107-.335-.128-.492-.065-.237.094-.389.607-.389,1.308,0,.864-.189,1.64-.54,2.324-.114.21-.228.522-.181.787.114.617.74,1.508,1.1,1.925.057.076.114.153.151.237.114.257,2.76,6.211,3.232,7.486.379,1.014,1.028,3.882.389,6.562Z" fill="none"></path><path d="M75.433,7.636c-.2-.446-.399-.949-.456-1.328-.096-.601-.078-1.236-.047-1.668-1.103-.608-2.137-1.139-3.074-1.589l.504,2.469c.076.35-.132.701-.474.815l-2.874.956c.904.479,2.006,1.064,3.171,1.704.458-.45,1.436-1.281,2.471-1.332.275-.018.54-.018.778-.028Z" fill="none"></path><path d="M79.944,7.68c-1.211-.806-2.435-1.567-3.619-2.254.006.217.021.444.057.661.076.446.55,1.424.844,1.944.122.228.122.513-.019.731s-.389.342-.654.332c0,0-.806-.057-1.811,0-.367.018-.84.328-1.221.64,1.019.574,2.042,1.168,2.979,1.749l3.674-.789-.229-3.014Z" fill="none"></path><path d="M70.269,2.322c-.824-.351-1.506-.604-1.964-.719-1.707-.426-2.968,0-3.528.503-.181.161-.389.418-.351.731.151,1.186,1.213,2.599,2.522,3.349.097.057.233.133.388.217.051-.035.101-.074.162-.094l3.357-1.121-.586-2.864Z" fill="none"></path><path d="M80.734,12.034l-2.553.547c.524.364.993.714,1.368,1.036l.617.522c.324.271.688.581,1.071.91l1.525-1.275-2.028-1.74Z" fill="none"></path><path d="M83.861,12.855l1.387-1.163c-1.168-1.029-2.46-2.031-3.801-2.982l.171,2.214,2.243,1.931Z" fill="none"></path><path d="M96.665,29.972c-.326-1.024-.689-2.032-1.085-3.017l-4.64,1.804c.283.838.542,1.707.756,2.622l4.969-1.41Z" fill="none"></path><path d="M94.969,32.212c-.974,0-1.764.79-1.764,1.764s.79,1.764,1.764,1.764,1.764-.79,1.764-1.764-.79-1.764-1.764-1.764Z" fill="none"></path><path d="M86.511,12.858c-.065-.064-.138-.126-.204-.19l-3.987,3.336c.699.639,1.449,1.371,2.214,2.189l4.314-2.746c-.779-.953-1.562-1.828-2.336-2.589ZM85.581,16.434c-.514,0-.929-.417-.929-.929s.415-.929.929-.929.929.417.929.929-.415.929-.929.929Z" fill="none"></path><path d="M72.733,65.619c-1.053,0-1.976-.297-2.612-.569-.058.111-.117.221-.175.332-.949,1.783-1.925,3.632-2.304,4.96-.487,1.681-.708,3.151-.664,4.354.321.669.862,1.31,1.882,1.543-.567-.481-.885-1.094-.564-1.914.558-1.432,1.554-3.092,2.721-5.007.501-.825,1.033-1.707,1.564-2.636.21-.364.414-.721.617-1.074-.156.014-.311.021-.464.021v-.01Z" fill="none"></path><path d="M89.733,16.577l-4.237,2.697c.856,1,1.704,2.121,2.507,3.375l4.388-2.121c-.849-1.422-1.743-2.743-2.657-3.951ZM88.956,20.672c-.513,0-.929-.415-.929-.929s.415-.929.929-.929.929.417.929.929-.415.929-.929.929Z" fill="none"></path><path d="M93.102,21.761l-4.361,2.108c.625,1.092,1.201,2.276,1.71,3.553l4.572-1.778c-.592-1.346-1.235-2.647-1.921-3.883ZM91.783,25.641c-.512,0-.929-.415-.929-.929s.415-.929.929-.929.929.415.929.929-.417.929-.929.929Z" fill="none"></path><path d="M74.306,51.822c-.713,0-1.375-.144-1.951-.36.007.056.012.111.019.167.013.038.036.068.044.108.019.09.007.178-.001.265.049.442.093.878.135,1.308.885.271,3.381.789,5.579-.962-.049-.678-.129-1.332-.226-1.933-1.222,1.024-2.474,1.399-3.599,1.397v.01Z" fill="none"></path><path d="M51.886,99.066c.16.604.243,1.228.289,1.858,2.553-.407,5.156-1.065,7.794-2.031.219-.081.428-.168.646-.25-2.154-.093-5.561.089-8.729.422Z" fill="none"></path><path d="M95.851,55.094c0-.974-.79-1.764-1.764-1.764s-1.764.79-1.764,1.764.79,1.764,1.764,1.764,1.764-.79,1.764-1.764Z" fill="none"></path><path d="M87.729,60.837c-4.115,8.914-8.232,14.812-16.064,16.671-1.503.357-2.783.294-3.817-.14.022.026.037.058.061.083,1.242,1.328,1.764,1.64,1.849,1.688.444.169.701.654.578,1.128-.114.426-.493.701-.91.701l.028-.019c-.086,0-.162-.008-.247-.028-.644-.171-1.793-1.279-2.646-2.181-1.678-1.782-1.915-4.789-.711-8.942.418-1.442,1.331-3.199,2.314-5.067-.038.001-.078.004-.114.004h-.01c-10.008,0-13.651-6.131-14.879-9.361-.228.199-.485.408-.778.647-1.489,1.186-3.518,2.817-4.286,5.728-.133.501-.285,1.004-.436,1.517-.614,2.065-1.249,4.207-.771,6.883.049.096.099.2.146.294.644,1.308,1.224,2.475,1.65,3.404.464,1.006.446,1.783-.057,2.324-.349.378-.818.492-1.261.493-.518-.001-.997-.161-1.204-.236-.446-.16-11.017-4.126-12.854-16.642-2.007-.435-6.615-1.808-9.25-2.996-3.224-1.45-7.282-4.95-7.453-5.092-.294-.257-.332-.711-.076-1.006.257-.294.703-.332,1.006-.076.039.038,4.068,3.508,7.103,4.874,3.186,1.432,8.904,2.996,9.549,3.015.56,0,2.257-.322,3.414-1.774.589-.749,1.499-2.55,2.551-4.646.882-1.754,1.888-3.744,2.958-5.632,2.162-3.793,6.411-18.472,6.562-19.667.117-.946-.181-1.65-.364-1.981-.04.024-.083.046-.119.075-.474.36-.929.786-1.251,1.356-.029.085-.151.085-.171,0v.01c-.2-.739,0-1.507.312-2.19.151-.342.246-.768.588-.939.015-.013.044-.025.071-.037-.222-.656-.531-1.272-.878-1.481-.686-.415-1.49-.201-1.975.001-.081.438-.143.824-.168,1.107-.133,1.461-1.669,4.068-2.94,6.003-.021.031-.047.053-.069.081.083.278.164.55.236.81,1.493-.763,2.986-1.579,4.214-2.739-.607.729-1.357,1.336-2.115,1.906-.632.475-1.289.919-1.961,1.351.115.44.207.836.272,1.182.017.013.028.026.043.039l3.354-.854-2.987,1.301c.074.165.146.524-.507,1.654-.042.135-.09.269-.144.406l2.624.632-2.828-.165c-.857,1.8-2.533,3.654-3.839,4.689-.171.133-.389.569-.569.958-.607,1.233-1.517,3.101-4.286,3.101-.825,0-1.631-.153-2.418-.294-.768-.143-1.564-.285-2.351-.285-1.546,0-2.513.312-3.992,1.308-.161.104-.34.161-.531.161l.019-.028c-.304,0-.607-.151-.788-.417-.294-.436-.171-1.024.256-1.318,1.792-1.204,3.119-1.631,5.044-1.631.967,0,1.84.161,2.693.322.731.132,1.422.265,2.076.265,1.508,0,1.963-.778,2.579-2.039.303-.617.588-1.204,1.1-1.603,1.025-.812,2.113-2.035,2.839-3.181-.003-.039-.006-.078-.013-.11-.379-1.479-.636-2.732.094-3.149.156-.089.331-.143.513-.179-.746-2.946-3.017-9.222-3.899-10.735-.646-1.118-3.262-.731-4.192-.265-.907.449-2.976,1.825-3.357,2.079-.001.001-.003.001-.004.003-.033.024-.058.04-.061.042-.046.032-.099.039-.147.061-.044.019-.079.05-.128.062-.011.003-.021.001-.032.004-.049.011-.094.013-.143.017-.021.001-.043.007-.065.007-.017,0-.033-.007-.05-.008-.085-.004-.164-.015-.243-.04-.007-.003-.014-.007-.022-.01-.19-.065-.367-.174-.488-.35-.092-.138-.129-.289-.143-.443-.275-1.056-1.458-5.851-1.139-8.964-.171.189-.342.382-.51.589-.475.588-1.243,2.825-1.613,4.096-.047.171-.161.324-.312.408-.057.038-6.058,3.65-8.449,5.481-.846.643-3.808,3.019-6.725,6.642-1.564,7.964.143,13.129.153,13.186.086.247.029.522-.151.721-4.818,5.128-6.836,10.049-8.046,13.789.042.635.087,1.286.146,1.971.817,9.761,5.642,20.517,12.422,27.913.478-.135,1.226-.194,2.286.175,1.032.356,4.268,2.117,6.497,3.36-1.014-1.8-2.306-4.115-2.553-4.65-.513-1.1-.133-2.389.919-3.072.9-.578,2.408-.729,3.726.787.639.737,2.499,2.997,3.774,4.553v-5.91c0-1.299,1.092-2.428,2.551-2.646,1.489-.218,2.731.597,3.176,2.076.417,1.404,1.094,3.469,1.624,5.06.451-1.772,1.028-3.979,1.25-4.596.636-1.774,2.314-2.504,3.651-2.324,1.082.153,2.276.976,2.39,2.817.097,1.525.156,4.046.188,5.858,1.131-1.579,2.658-3.719,2.969-4.171.976-1.422,3.092-2.039,4.514-1.338.456.228,1.888,1.157,1.062,3.651-.688,2.09-1.567,4.332-2.208,5.901,2.292-.8,5.715-1.99,6.418-2.193,1.347-.379,2.381.304,2.76,1.11.408.854.142,1.821-.664,2.39,0,0-2.822,2.004-4.917,3.492,3.239-.286,7.865-.533,9.604.165,13.381-5.583,22.583-14.089,28.065-25.924.208-.446.446-.939.701-1.469,1.268-2.649,3.029-6.356,4.432-11.104l-7.015-1.986c-.492,1.192-1.028,2.411-1.612,3.681ZM33.797,37.124c-3.878.976-7.576,2.731-11.199,4.39.446-.332,13.208-6.771,11.199-4.39ZM34.944,36.84c-.418,0-.758-.34-.758-.758s.339-.758.758-.758.758.34.758.758-.339.758-.758.758ZM36.006,35.04c-5.026-.626-10.165-.361-15.135.635,4.95-1.194,10.09-1.65,15.182-1.214.161.008.275.151.265.314-.01.161-.151.275-.312.265ZM34.745,33.426c0-.418.339-.758.758-.758s.758.339.758.758-.339.76-.758.758c-.418,0-.758-.34-.758-.758ZM38.5,33.862c0,.487-.395.882-.882.882s-.882-.395-.882-.882.395-.882.882-.882.882.395.882.882ZM36.393,24.492c.218-.085.768-.446.958-.322-.037.332-.151.654-.256.939-.057.143-.037.342-.199.399-.114.047-.54.114-.758-.104l-.011-.01c-.208-.513-.218-.778.265-.901ZM34.661,23.734c.218-.161.626-.672.892-.635.018.36-.019,1.432-.181,1.536-.104.086-.513.285-.788.124v.008c-.332-.483-.36-.768.076-1.033ZM32.63,23.641c.143-.237.314-.862.569-.939.161.322.54,1.318.436,1.489-.067.124-.361.464-.674.426-.493-.314-.635-.56-.332-.976ZM30.925,23.981c.104-.218.208-.844.446-.901.208.267.35.569.483.844.057.142.218.265.142.417-.047.114-.304.465-.607.465h-.01c-.512-.218-.711-.397-.454-.825ZM27.159,27.131c.008-.018.024-.029.033-.044.322-.571,1.115-1.853,1.911-1.881.379,0,.768.114,1.214.256.436.142.929.303,1.46.332.635.039,1.108.029,1.574.019.711-.019,1.393-.029,2.399.161.038.007.069.026.103.042,1.096.21,1.561,1.047,2.011,1.864.256.465.285.854.094,1.167-.246.389-.749.456-1.071.456v-.01h-.218c-.968-.057-2.257-.369-2.314-.379-.257-.057-.408-.314-.351-.569.067-.257.304-.408.569-.351.01,0,1.261.304,2.143.351.218.008.332,0,.399-.019-.008-.039-.037-.106-.085-.19-.56-1.024-.853-1.403-1.688-1.422-.465.01-1.318.483-1.982.882-.688.414-1.225.733-1.678.737h0s-.006.001-.008.001h-.001c-.711,0-3.84-.531-4.306-.768-.237-.114-.332-.397-.208-.633ZM36.963,32.033c.371.124.161.692-.199.54l-.01.01c-4.4-1.679-9.046-2.76-13.731-3.461,4.722.503,9.415,1.403,13.939,2.911ZM18.501,30.495c.625-1.764,3.66-5.158,4.001-5.538.265-.294.711-.312,1.006-.047.294.265.312.711.047,1.006-.882.976-3.271,3.783-3.717,5.054-.55,1.554-.768,2.314-.303,3.992.503,1.821,1.251,4.174,1.261,4.201.112.369-.086.778-.465.892-.076.018-.142.038-.218.038v-.01c-.304,0-.579-.19-.674-.493,0-.028-.758-2.408-1.271-4.249-.578-2.086-.265-3.149.332-4.846ZM47.366,76.666h-.01.019-.01Z" fill="none"></path><path d="M91.493,50.948l6.403,1.349c.176-1.1.332-2.228.446-3.408l-6.161-.949c-.186,1.012-.418,2.011-.688,3.008Z" fill="none"></path><path d="M97.615,44.986c0-.974-.79-1.764-1.764-1.764s-1.764.79-1.764,1.764.789,1.764,1.764,1.764,1.764-.79,1.764-1.764Z" fill="none"></path><path d="M98.231,37.099l-5.592.907c.086,1.146.133,2.253.133,3.319h0s5.775.001,5.775.001c-.043-1.132-.108-2.282-.222-3.471-.025-.254-.064-.504-.094-.757Z" fill="none"></path><path d="M40.843,81.369c-.75-.104-1.736.351-2.106,1.394-.253.701-1.106,4.043-1.6,6,1.794.135,3.503.494,5.088,1.035-.025-1.699-.088-5.097-.206-6.931-.057-.872-.475-1.404-1.176-1.499Z" fill="none"></path><path d="M57.854,92.209c-.142-.294-.531-.513-1.09-.351-.785.221-5.35,1.814-7.417,2.54.797.91,1.432,1.908,1.912,2.964l6.386-4.536c.313-.218.285-.456.208-.617Z" fill="none"></path><path d="M35.513,90.122c-4.825,0-9.289,1.717-12.185,4.607,7.469,4.681,16.99,7.685,27.435,6.396-.369-6.108-7.057-11.003-15.25-11.003Z" fill="none"></path><path d="M50.829,86.348c.226-.693.35-1.583-.351-1.935-.711-.351-2.086-.047-2.712.862-.403.583-2.706,3.806-3.743,5.249,1.578.729,2.992,1.647,4.181,2.722.601-1.433,1.765-4.288,2.626-6.899Z" fill="none"></path><path d="M31.55,81.142c-.654.096-1.337.589-1.337,1.233v6.993c1.606-.414,3.3-.642,5.039-.662-.517-1.535-1.537-4.599-2.099-6.483-.342-1.138-1.233-1.128-1.603-1.081Z" fill="none"></path><path d="M23.936,84.669c-.607-.701-1.308-.89-1.878-.531-.371.237-.656.74-.408,1.271.283.6,2.176,3.971,3.399,6.133,1.006-.624,2.101-1.153,3.262-1.581-1.179-1.442-3.637-4.442-4.375-5.293Z" fill="none"></path><path d="M27.368,27.765c.465.238,3.594.768,4.306.768h.01c.453-.006.99-.325,1.678-.739.664-.399,1.517-.872,1.982-.882.835.019,1.128.399,1.688,1.422.047.085.076.151.085.19-.067.019-.181.028-.399.019-.882-.047-2.133-.351-2.143-.351-.265-.057-.503.094-.569.351-.057.256.094.513.351.569.057.01,1.346.322,2.314.379h.218v.01c.322,0,.825-.067,1.071-.456.19-.312.161-.701-.094-1.167-.45-.817-.915-1.654-2.011-1.864-.033-.015-.065-.035-.103-.042-1.006-.19-1.688-.181-2.399-.161-.465.01-.939.019-1.574-.019-.531-.029-1.024-.19-1.46-.332-.446-.142-.835-.256-1.214-.256-.796.028-1.589,1.31-1.911,1.881-.01.015-.025.026-.033.044-.124.236-.029.519.208.633Z" fill="#010101" data-sg-fill="sg-fill-0"></path><path d="M36.138,25.404c.218.218.644.151.758.104.161-.057.142-.256.199-.399.104-.285.218-.607.256-.939-.19-.124-.74.237-.958.322-.483.124-.474.389-.265.901l.011.01Z" fill="#010101" data-sg-fill="sg-fill-0"></path><path d="M31.379,24.806h.01c.303,0,.56-.351.607-.465.076-.151-.085-.275-.142-.417-.133-.275-.275-.578-.483-.844-.237.057-.342.683-.446.901-.257.428-.058.607.454.825Z" fill="#010101" data-sg-fill="sg-fill-0"></path><path d="M34.584,24.759c.275.161.683-.037.788-.124.161-.104.199-1.176.181-1.536-.265-.038-.674.474-.892.635-.436.265-.408.55-.076,1.033v-.008Z" fill="#010101" data-sg-fill="sg-fill-0"></path><path d="M32.962,24.617c.312.038.607-.303.674-.426.104-.171-.275-1.167-.436-1.489-.256.076-.426.701-.569.939-.303.417-.161.663.332.976Z" fill="#010101" data-sg-fill="sg-fill-0"></path><path d="M36.736,33.862c0,.487.395.882.882.882s.882-.395.882-.882-.395-.882-.882-.882-.882.395-.882.882Z" fill="#010101" data-sg-fill="sg-fill-0"></path><path d="M36.262,33.426c0-.419-.34-.758-.758-.758s-.758.34-.758.758.34.758.758.758c.419.001.758-.339.758-.758Z" fill="#010101" data-sg-fill="sg-fill-0"></path><path d="M34.944,35.323c-.419,0-.758.34-.758.758s.34.758.758.758.758-.34.758-.758-.339-.758-.758-.758Z" fill="#010101" data-sg-fill="sg-fill-0"></path><path d="M36.755,32.583l.01-.01c.36.151.569-.417.199-.54-4.524-1.508-9.217-2.408-13.939-2.911,4.685.701,9.331,1.782,13.731,3.461Z" fill="#010101" data-sg-fill="sg-fill-0"></path><path d="M36.054,34.461c-5.092-.436-10.232.019-15.182,1.214,4.969-.996,10.108-1.261,15.135-.635.161.01.303-.104.312-.265.01-.163-.104-.306-.265-.314Z" fill="#010101" data-sg-fill="sg-fill-0"></path><path d="M22.598,41.515c3.622-1.66,7.321-3.414,11.199-4.39,2.01-2.381-10.753,4.058-11.199,4.39Z" fill="#010101" data-sg-fill="sg-fill-0"></path><path d="M19.44,39.59c.094.303.369.493.674.493v.01c.076,0,.142-.019.218-.038.379-.114.578-.522.465-.892-.01-.028-.758-2.381-1.261-4.201-.465-1.678-.247-2.438.303-3.992.446-1.271,2.835-4.078,3.717-5.054.265-.294.247-.74-.047-1.006-.294-.265-.74-.247-1.006.047-.342.379-3.376,3.774-4.001,5.538-.597,1.697-.91,2.76-.332,4.846.513,1.84,1.271,4.221,1.271,4.249Z" fill="#010101" data-sg-fill="sg-fill-0"></path><path d="M99.719,37.712c-.586-6.156-2.828-12.126-5.654-17.088-.011-.035-.01-.071-.026-.104-.036-.074-.087-.133-.143-.188-1.983-3.425-4.236-6.358-6.41-8.499-.181-.178-.376-.351-.564-.528-.014-.019-.018-.042-.033-.06-.053-.061-.117-.103-.183-.142-3.075-2.825-7.062-5.453-10.59-7.432-.053-.043-.112-.074-.178-.1-1.729-.964-3.329-1.763-4.65-2.35-.068-.047-.144-.081-.225-.101-1.029-.45-1.874-.764-2.438-.904-1.878-.474-3.726-.161-4.817.815-.617.55-.91,1.251-.815,1.972.218,1.64,1.508,3.404,3.224,4.4.342.199.996.54,1.849.996,2.921,1.546,8.364,4.428,10.535,6.288l.635.531c3.215,2.703,9.9,8.317,11.483,18.596,1.669,10.849-.133,17.41-4.296,26.428-3.892,8.432-7.753,14.028-14.874,15.818-.706-.281-2.078-.833-1.929-1.215.513-1.308,1.479-2.921,2.608-4.789.503-.835,1.043-1.726,1.583-2.664,2.361-4.078,4.893-8.686,5.244-9.757.397-1.219.544-2.624.542-4.035.006-.006.013-.01.018-.015l-.019-.022c-.008-2.011-.329-4.031-.74-5.535-.593-2.172-1.325-6.807-1.346-8.453.121-.238.246-.478.368-.717.664-1.29,1.346-2.617,1.621-3.471.436-1.356.303-1.963.171-2.617-.067-.322-.133-.654-.133-1.147,0-.692-.312-1.299-.91-1.754-1.024-.778-2.646-.901-3.66-.626-1.799.489-3.603,3.031-4.65,5.719-.481-1.762-.956-3.399-1.154-4.069-.104-.835-.654-5.386-.967-6.467-.322-1.1-1.185-1.489-1.697-1.678-.047-.465-.294-1.204-1.422-1.688-1.233-.531-2.171-.114-2.626.085h-.01c-.417-.228-1.194-.626-2.21-.228-.721.275-1.593,1.043-1.593,3.062,0,.56-.114,1.053-.322,1.46-.36.683-.483,1.385-.36,2.019.218,1.147,1.128,2.324,1.442,2.703.389.882,2.712,6.135,3.139,7.264.493,1.299,1.081,4.921-.379,7.16-1.717,2.617-5.851,5.86-8.325,7.794-.844.664-1.451,1.138-1.801,1.46-.228.218-.513.446-.835.701-1.603,1.281-4.021,3.206-4.94,6.724-.133.483-.275.967-.417,1.46-.319,1.083-.658,2.237-.854,3.507-1.283-2.717-2.504-5.525-3.04-7.564h.006c-.033-.122-.09-.397-.144-.656,2.207-2.04,7.711-8.924,8.479-10.175,1.157-1.887,1.726-2.276,1.925-2.351.578-.228,2.532-.057,3.471.028l.265.019c1.963.171,4.987-.74,5.357-3.935.142-1.204-.247-2.428-1.09-3.442-1.071-1.29-2.769-2.133-4.542-2.257-3.318-.231-5.95.64-7.546,1.386,1.536-4.757,2.857-9.472,2.965-10.328.19-1.536-.408-2.664-.664-3.072-.133-.644-.626-2.778-1.831-3.508-.832-.5-1.7-.504-2.408-.357.575-2.908.824-4.399-.303-4.821-1.132-.424-6.358,1.128-8.432,2.668-.154-.06-.311-.111-.472-.153.199-.867.593-2.944.408-5.114-.228-2.75-1.811-6.789-1.878-6.96-.094-.247-.294-.446-.55-.54-.247-.094-.531-.076-.768.047-.418.224-3.431,1.849-5.332,3.843-.862.608-2.099,1.614-3.249,3.031-.711.872-1.526,3.451-1.792,4.333-1.167.701-6.135,3.736-8.344,5.424-1.442,1.09-8.763,6.989-12.147,15.561C.17,45.334-.474,50.066.294,59.331c.853,10.176,5.935,21.4,13.054,29.031.015.026.021.057.042.082.053.065.118.114.185.157.251.265.497.536.754.792,2.122,2.117,4.601,4.144,7.364,5.96.012.013.018.031.032.043.061.053.132.086.204.115,6.612,4.292,14.857,7.337,23.967,7.337l-.028.01c4.665,0,9.558-.797,14.565-2.626,15.504-5.661,25.982-14.793,32.061-27.917.208-.446.436-.929.692-1.46,2.826-5.908,8.089-16.918,6.533-33.143ZM85.248,11.692l-1.387,1.163-2.243-1.931-.171-2.214c1.342.951,2.633,1.953,3.801,2.982ZM67.498,6.306c-.061.021-.111.06-.162.094-.154-.083-.29-.16-.388-.217-1.31-.75-2.371-2.163-2.522-3.349-.037-.312.171-.569.351-.731.56-.503,1.821-.929,3.528-.503.458.115,1.14.368,1.964.719l.586,2.864-3.357,1.121ZM69.013,7.291l2.874-.956c.342-.114.55-.465.474-.815l-.504-2.469c.936.45,1.971.981,3.074,1.589-.031.432-.049,1.067.047,1.668.057.379.256.882.456,1.328-.237.01-.503.01-.778.028-1.035.051-2.013.882-2.471,1.332-1.165-.64-2.267-1.225-3.171-1.704ZM73.52,9.734c.381-.312.854-.622,1.221-.64,1.006-.057,1.811,0,1.811,0,.265.01.513-.114.654-.332s.142-.503.019-.731c-.294-.521-.768-1.499-.844-1.944-.036-.217-.051-.444-.057-.661,1.185.688,2.408,1.449,3.619,2.254l.229,3.014-3.674.789c-.938-.581-1.96-1.175-2.979-1.749ZM80.166,14.14l-.617-.522c-.375-.322-.844-.672-1.368-1.036l2.553-.547,2.028,1.74-1.525,1.275c-.383-.329-.747-.639-1.071-.91ZM82.319,16.004l3.987-3.336c.067.064.139.126.204.19.774.761,1.557,1.636,2.336,2.589l-4.314,2.746c-.765-.818-1.515-1.55-2.214-2.189ZM85.495,19.274l4.237-2.697c.914,1.208,1.808,2.529,2.657,3.951l-4.388,2.121c-.803-1.254-1.651-2.375-2.507-3.375ZM90.451,27.422c-.508-1.276-1.085-2.461-1.71-3.553l4.361-2.108c.686,1.236,1.329,2.538,1.921,3.883l-4.572,1.778ZM90.94,28.759l4.64-1.804c.396.985.758,1.993,1.085,3.017l-4.969,1.41c-.214-.915-.472-1.785-.756-2.622ZM96.733,33.976c0,.974-.79,1.764-1.764,1.764s-1.764-.79-1.764-1.764.79-1.764,1.764-1.764,1.764.79,1.764,1.764ZM72.58,66.681c-.531.929-1.062,1.811-1.564,2.636-1.167,1.915-2.162,3.575-2.721,5.007-.321.819-.003,1.433.564,1.914-1.019-.233-1.561-.874-1.882-1.543-.044-1.203.176-2.674.664-4.354.379-1.328,1.356-3.176,2.304-4.96.058-.111.117-.221.175-.332.636.272,1.56.569,2.612.569v.01c.153,0,.308-.007.464-.021-.203.353-.407.71-.617,1.074ZM73.808,64.537c-1.257.321-2.481-.011-3.247-.325.728-1.396,1.401-2.769,1.789-3.957.668.371,1.649.747,2.896.747h.019c.169,0,.353-.024.532-.04-.572,1.053-1.247,2.265-1.989,3.575ZM77.701,57.19c-.118.362-.608,1.351-1.353,2.747-1.747.342-3.047-.21-3.743-.642.186-.975.199-2.376.104-3.994.499.104,1.115.192,1.815.192l.01.01c1.085,0,2.356-.218,3.618-.899-.054.904-.19,1.79-.451,2.586ZM77.905,50.415c.097.601.178,1.256.226,1.933-2.199,1.751-4.694,1.233-5.579.962-.042-.431-.086-.867-.135-1.308.008-.088.021-.175.001-.265-.008-.04-.032-.071-.044-.108-.007-.056-.013-.111-.019-.167.576.215,1.239.36,1.951.36v-.01c1.125.001,2.376-.374,3.599-1.397ZM75.34,30.619c.399-.106.95-.11,1.46-.006-.308.253-.511.675-.511,1.153,0,.775.531,1.403,1.185,1.403.287,0,.546-.125.751-.326.015.076.031.153.044.222.079.374.136.661.06,1.129-.16-.213-.361-.378-.608-.463-.876-.304-1.928.436-2.35,1.653s-.056,2.45.821,2.754c.135.047.272.061.413.061-.001.001-.001.004-.003.006-.146.285-.289.564-.428.836-.013.022-.025.043-.033.068-.358.707-.678,1.36-.886,1.875-.683,1.717-.465,3.679-.465,3.764.038.369.342.635.701.635h.096c.389-.047.664-.399.626-.788,0-.015-.104-1.099.136-2.242.268,1.997.699,4.389,1.099,5.908-.038.031-.083.05-.117.087-2.503,2.807-4.969,1.024-5.253.806-.006-.004-.013-.006-.018-.01-.117-.857-.239-1.706-.361-2.522l-.085-.569c-.181-1.242-.114-2.617-.047-3.831.029-.55.057-1.053.057-1.479,0-.507-.263-1.733-.617-3.162.664-3.224,2.903-6.568,4.333-6.963ZM61.087,29.254c-.038-.085-.094-.161-.151-.237-.36-.417-.986-1.308-1.1-1.925-.047-.265.067-.578.181-.787.351-.683.54-1.46.54-2.324,0-.701.151-1.214.389-1.308.157-.062.268-.042.492.065-.025.092-.056.186-.075.275-.076,1.972.721,3.907,1.422,5.708h-.01c.037.085.171.057.171-.037-.01-1.29-.028-2.56.028-3.793.126-.718.149-1.328.079-1.946.065-.025.136-.047.196-.074.351-.161.626-.285,1.11-.076.199.085.285.151.285.151v.124c.003.064.007.147.017.235-.072.124-.133.25-.188.371-.312,1.489.085,3.215.36,4.703h.01c.019.085.151.085.171,0l.787-2.958c.126-.287.214-.553.276-.811.183.089.269.176.321.346.208.731.664,4.135.91,6.239,0,.057.01.114.028.161,1.006,3.385,2.408,8.544,2.408,9.388,0,.399-.019.862-.047,1.375-.057,1.222-.139,2.742.062,4.164-1.053.032-3.639-.194-5.05-2.978.639-2.681-.01-5.549-.389-6.562-.472-1.275-3.118-7.229-3.232-7.486ZM63.752,45.612c.031-.047.054-.096.083-.143,1.558,1.996,3.778,2.722,5.664,2.722v.01c.183,0,.357-.022.535-.038.119.828.26,1.842.393,2.932-4.793.46-7.118-2.892-7.683-4.147.379-.453.724-.9,1.008-1.336ZM61.388,48.419c1.144,1.939,3.79,4.617,8.149,4.617v.01c.354,0,.724-.019,1.104-.057.232,2.278.36,4.544.143,5.819-8.925.69-11.871-4.603-13.047-7.117,1.225-1.01,2.517-2.133,3.651-3.272ZM55.008,53.87c.583-.457,1.257-.985,1.968-1.56,1.19,2.463,4.185,7.535,12.265,7.535v-.01c.411,0,.84-.015,1.282-.043-.39,1.14-1.101,2.553-1.854,3.981-10.243.267-13.696-6.089-14.736-9.056.304-.244.674-.531,1.075-.847ZM55.579,37.315c1.365.094,2.731.758,3.546,1.744.417.503.892,1.328.768,2.371-.342,2.949-3.821,2.683-3.821,2.683l-.265-.019c-1.764-.151-3.3-.256-4.125.076-.749.294-1.556,1.194-2.608,2.921-1.081,1.774-7.614,9.635-8.553,10.165-.49.225-1.168.526-2.151.763.125-.131.251-.254.368-.401.674-.862,1.574-2.646,2.703-4.893.872-1.735,1.868-3.708,2.921-5.567.842-1.478,1.999-4.567,3.118-7.899.779-.496,3.85-2.224,8.1-1.944ZM41.45,19.497c.221-.476.679-1.418,3.315-2.394-.078.769-.321,2.014-.49,2.85-.199,1.006-.389,1.953-.446,2.599-.054.644-.772,2.119-1.869,3.914-.425-1.256-.892-2.535-1.336-3.682.047-1.414.517-2.635.826-3.286ZM40.429,18.395c-.115.189-.194.357-.261.496-.188.399-.386.883-.554,1.432-.215-.485-.404-.878-.544-1.119-.019-.035-.046-.061-.067-.094.407-.25.899-.49,1.426-.714ZM29.329,11.502c.711-1.469,3.186-3.176,4.789-4.135.475,1.338,1.243,3.699,1.386,5.396.188,2.196-.331,4.362-.436,4.792-1.085.067-2.099.354-2.675.642-.624.307-1.675.964-2.487,1.488-.653-2.874-1.237-6.818-.576-8.182ZM2.55,44.086c.126.017.25.037.382.037,1.593,0,2.892-1.29,2.892-2.892,0-1.089-.603-2.029-1.487-2.525.106-.276.208-.547.321-.832.84-2.132,1.94-4.088,3.128-5.842-.685,5.643.171,9.525.514,10.763-3.524,3.818-5.556,7.51-6.876,10.71-.031-3.478.308-6.336,1.128-9.419ZM15.472,88.529c.149.031.307.071.489.133,1.051.369,5.193,2.647,7.544,3.971-.504.404-.976.836-1.414,1.293-2.467-1.657-4.69-3.489-6.619-5.397ZM23.329,94.729c2.896-2.89,7.36-4.607,12.185-4.607,8.193,0,14.881,4.894,15.25,11.003-10.444,1.289-19.965-1.715-27.435-6.396ZM21.65,85.409c-.247-.531.037-1.033.408-1.271.569-.36,1.271-.171,1.878.531.738.851,3.196,3.851,4.375,5.293-1.161.428-2.257.957-3.262,1.581-1.222-2.163-3.115-5.533-3.399-6.133ZM30.212,89.369v-6.993c0-.644.683-1.138,1.337-1.233.369-.047,1.261-.057,1.603,1.081.561,1.885,1.582,4.949,2.099,6.483-1.739.021-3.433.249-5.039.662ZM37.137,88.763c.494-1.957,1.347-5.299,1.6-6,.369-1.043,1.356-1.499,2.106-1.394.701.094,1.119.626,1.176,1.499.118,1.833.181,5.232.206,6.931-1.585-.54-3.293-.9-5.088-1.035ZM44.022,90.524c1.038-1.443,3.34-4.665,3.743-5.249.626-.91,2.001-1.214,2.712-.862.701.351.578,1.242.351,1.935-.861,2.611-2.025,5.465-2.626,6.899-1.189-1.075-2.603-1.993-4.181-2.722ZM49.347,94.398c2.067-.726,6.632-2.319,7.417-2.54.56-.161.949.057,1.09.351.076.161.104.399-.208.617l-6.386,4.536c-.481-1.056-1.115-2.054-1.912-2.964ZM59.969,98.894c-2.639.965-5.242,1.624-7.794,2.031-.046-.631-.129-1.254-.289-1.858,3.168-.333,6.575-.515,8.729-.422-.218.082-.426.169-.646.25ZM91.925,70.247c-.256.531-.493,1.024-.701,1.469-5.482,11.835-14.685,20.34-28.065,25.924-1.739-.699-6.365-.451-9.604-.165,2.094-1.487,4.917-3.492,4.917-3.492.806-.569,1.072-1.536.664-2.39-.379-.806-1.413-1.489-2.76-1.11-.703.203-4.126,1.393-6.418,2.193.642-1.569,1.521-3.811,2.208-5.901.825-2.494-.607-3.424-1.062-3.651-1.422-.701-3.537-.085-4.514,1.338-.311.451-1.839,2.592-2.969,4.171-.032-1.812-.09-4.333-.188-5.858-.114-1.84-1.308-2.664-2.39-2.817-1.338-.181-3.015.55-3.651,2.324-.222.617-.799,2.824-1.25,4.596-.529-1.59-1.207-3.656-1.624-5.06-.446-1.479-1.688-2.294-3.176-2.076-1.46.218-2.551,1.347-2.551,2.646v5.91c-1.275-1.556-3.135-3.815-3.774-4.553-1.318-1.517-2.826-1.365-3.726-.787-1.053.683-1.432,1.972-.919,3.072.247.535,1.539,2.85,2.553,4.65-2.229-1.243-5.465-3.004-6.497-3.36-1.06-.369-1.808-.31-2.286-.175-6.781-7.396-11.606-18.151-12.422-27.913-.058-.685-.104-1.336-.146-1.971,1.21-3.74,3.228-8.661,8.046-13.789.181-.199.237-.474.151-.721-.01-.057-1.717-5.222-.153-13.186,2.917-3.622,5.879-5.999,6.725-6.642,2.39-1.831,8.392-5.443,8.449-5.481.151-.085.265-.237.312-.408.369-1.271,1.138-3.508,1.613-4.096.168-.207.339-.4.51-.589-.319,3.112.864,7.908,1.139,8.964.014.154.051.306.143.443.121.176.297.285.488.35.008.003.015.007.022.01.079.025.158.036.243.04.017.001.033.008.05.008.022,0,.044-.006.065-.007.049-.004.094-.006.143-.017.011-.003.021-.001.032-.004.049-.013.083-.043.128-.062.049-.022.101-.029.147-.061.003-.001.028-.018.061-.042.001-.001.003-.001.004-.003.381-.254,2.45-1.631,3.357-2.079.929-.465,3.546-.853,4.192.265.882,1.513,3.153,7.789,3.899,10.735-.182.036-.357.09-.513.179-.731.417-.474,1.669-.094,3.149.007.032.01.071.013.11-.726,1.146-1.814,2.368-2.839,3.181-.512.399-.797.986-1.1,1.603-.617,1.261-1.071,2.039-2.579,2.039-.654,0-1.346-.133-2.076-.265-.853-.161-1.726-.322-2.693-.322-1.925,0-3.253.426-5.044,1.631-.426.294-.55.882-.256,1.318.181.265.483.417.788.417l-.019.028c.19,0,.369-.057.531-.161,1.479-.996,2.446-1.308,3.992-1.308.788,0,1.583.142,2.351.285.788.142,1.593.294,2.418.294,2.769,0,3.679-1.868,4.286-3.101.181-.389.399-.825.569-.958,1.306-1.035,2.982-2.889,3.839-4.689l2.828.165-2.624-.632c.054-.136.103-.271.144-.406.653-1.131.581-1.489.507-1.654l2.987-1.301-3.354.854c-.015-.013-.026-.026-.043-.039-.065-.346-.157-.742-.272-1.182.672-.432,1.329-.876,1.961-1.351.758-.569,1.508-1.176,2.115-1.906-1.228,1.16-2.721,1.976-4.214,2.739-.072-.26-.153-.532-.236-.81.022-.028.049-.05.069-.081,1.271-1.935,2.807-4.542,2.94-6.003.025-.283.087-.669.168-1.107.485-.203,1.289-.417,1.975-.001.347.208.656.825.878,1.481-.026.012-.056.025-.071.037-.342.171-.436.597-.588.939-.312.683-.513,1.451-.312,2.19v-.01c.019.085.142.085.171,0,.322-.569.778-.996,1.251-1.356.036-.029.079-.051.119-.075.183.331.481,1.035.364,1.981-.151,1.194-4.4,15.874-6.562,19.667-1.071,1.888-2.076,3.878-2.958,5.632-1.053,2.096-1.962,3.897-2.551,4.646-1.157,1.451-2.854,1.774-3.414,1.774-.644-.019-6.362-1.583-9.549-3.015-3.035-1.365-7.064-4.836-7.103-4.874-.303-.256-.749-.218-1.006.076-.256.294-.218.749.076,1.006.171.142,4.229,3.642,7.453,5.092,2.635,1.188,7.243,2.561,9.25,2.996,1.837,12.515,12.408,16.482,12.854,16.642.207.075.686.235,1.204.236.443-.001.912-.115,1.261-.493.503-.54.521-1.318.057-2.324-.426-.929-1.006-2.096-1.65-3.404-.047-.094-.097-.199-.146-.294-.478-2.676.157-4.818.771-6.883.151-.513.303-1.015.436-1.517.768-2.911,2.797-4.542,4.286-5.728.293-.239.55-.449.778-.647,1.228,3.231,4.871,9.361,14.879,9.361h.01c.036,0,.076-.003.114-.004-.983,1.868-1.896,3.625-2.314,5.067-1.204,4.153-.967,7.16.711,8.942.853.901,2.001,2.01,2.646,2.181.085.019.161.028.247.028l-.028.019c.417,0,.796-.275.91-.701.124-.474-.133-.958-.578-1.128-.085-.047-.607-.36-1.849-1.688-.024-.025-.039-.057-.061-.083,1.033.435,2.314.497,3.817.14,7.832-1.858,11.949-7.757,16.064-16.671.585-1.269,1.121-2.489,1.612-3.681l7.015,1.986c-1.403,4.749-3.164,8.456-4.432,11.104ZM92.323,55.094c0-.974.79-1.764,1.764-1.764s1.764.79,1.764,1.764-.79,1.764-1.764,1.764-1.764-.79-1.764-1.764ZM97.895,52.297l-6.403-1.349c.269-.997.501-1.996.688-3.008l6.161.949c-.114,1.181-.269,2.308-.446,3.408ZM94.087,44.986c0-.974.79-1.764,1.764-1.764s1.764.79,1.764,1.764-.79,1.764-1.764,1.764-1.764-.79-1.764-1.764ZM92.773,41.327h0c0-1.068-.047-2.175-.133-3.321l5.592-.907c.031.253.069.503.094.757.114,1.189.179,2.339.222,3.471h-5.775Z" fill="#010101" data-sg-fill="sg-fill-0"></path><path d="M75.198,33.967c.44,0,.797-.442.797-.986s-.357-.986-.797-.986-.797.441-.797.986.357.986.797.986Z" fill="#010101" data-sg-fill="sg-fill-0"></path><path d="M57.105,40.065c.739,0,1.337-.407,1.337-.91s-.599-.91-1.337-.91-1.338.407-1.338.91.599.91,1.338.91Z" fill="#010101" data-sg-fill="sg-fill-0"></path><path d="M56.944,40.845c-.06.499.485.975,1.218,1.064s1.376-.244,1.436-.743c.06-.499-.485-.975-1.218-1.064-.732-.089-1.375.243-1.436.743Z" fill="#010101" data-sg-fill="sg-fill-0"></path><path d="M57.447,41.856c-.55,0-.996.395-.996.882s.446.882.996.882.996-.395.996-.882-.446-.882-.996-.882Z" fill="#010101" data-sg-fill="sg-fill-0"></path><path d="M55.455,42.852c.531-.379.949-.787.996-1.072.047-.285.094-1.119-.322-1.375-.417-.256-.664-.446-1.119-.588-.55-.161-1.053.19-1.167.56s-.275,1.593.19,2.21c.464.615.89.644,1.422.265Z" fill="#010101" data-sg-fill="sg-fill-0"></path><path d="M85.581,14.576c-.514,0-.929.417-.929.929s.415.929.929.929.929-.417.929-.929-.417-.929-.929-.929Z" fill="#010101" data-sg-fill="sg-fill-0"></path><path d="M88.956,18.813c-.514,0-.929.417-.929.929s.417.929.929.929.929-.417.929-.929-.415-.929-.929-.929Z" fill="#010101" data-sg-fill="sg-fill-0"></path><path d="M91.783,23.783c-.514,0-.929.417-.929.929s.417.929.929.929.929-.417.929-.929-.417-.929-.929-.929Z" fill="#010101" data-sg-fill="sg-fill-0"></path></svg>