<svg xmlns="http://www.w3.org/2000/svg" id="Layer_1" viewBox="0.0 0.0 100.0 48.858024691358025">
  <g transform="scale(0.6172839506172839)"><path d="M67.7,5.34c-.37-.99-.72-1.79-.97-2.63-.06-.22.11-.65.3-.77.87-.54,1.76-1.05,2.68-1.49.56-.26,1.02-.05,1.26.57.11.28.3.53.47.84.31-.26.59-.5.92-.78-.03.66-.06,1.17-.08,1.68.11.05.22.1.32.15.52-.56,1.08-1.08,1.55-1.68.59-.77,1.28-1.03,2.2-.7.28.1.61.1.92.1,3.31,0,6.62.02,9.93-.01.47,0,.97-.17,1.39-.37,1.17-.57,3.37-.09,4.55,1.04.51,0,1.01-.85,1.53.02.49.82-.35.89-.73,1.31.46.93.97,1.85,1.37,2.81.26.61.5,1.29.5,1.94.03,10.11.03,20.22.02,30.32,0,2.47-1.03,3.48-3.46,3.48-7.52,0-15.05,0-22.57,0-.22,0-.44,0-.66,0-2.21-.12-2.94-.89-2.94-3.09,0-9.92.01-19.84-.02-29.76,0-1.28-.02-2.46,1.51-2.96ZM72.21,10.52c-1.48,0-1.99.94-1.4,2.06.62,1.19,1.22,2.4,1.99,3.48,1.54,2.16,2.01,4.49,1.93,7.12-.06,1.91-.37,3.59-1.44,5.19-.93,1.4-1.72,2.89-2.46,4.4-.21.43-.17,1.12.05,1.55.14.29.83.51,1.2.43.41-.09.86-.48,1.1-.87,1.12-1.79,2.18-3.63,3.27-5.44.54-.9,1.3-1.34,2.4-1.29,1.56.07,3.12.08,4.68,0,1.18-.06,1.98.39,2.55,1.36,1.04,1.77,2.08,3.54,3.12,5.32.54.92,1.33,1.24,2.08.81.61-.35.74-1.17.27-2.06-.56-1.04-1.06-2.13-1.75-3.08-1.72-2.36-2.23-4.95-2.07-7.83.09-1.61.38-3.03,1.23-4.4,1.02-1.64,1.92-3.35,2.77-5.07.44-.9-.18-1.77-1.16-1.64-.46.06-1.02.46-1.28.86-1.17,1.83-2.26,3.72-3.37,5.59-.48.8-1.17,1.13-2.11,1.11-1.62-.04-3.25-.07-4.87,0-1.18.06-1.97-.4-2.54-1.37-1.06-1.8-2.1-3.6-3.21-5.37-.26-.42-.75-.7-.95-.88ZM82.43,5.31c1.21,0,2.43,0,3.64,0,.89,0,1.55-.53,1.47-1.21-.1-.78-.61-1.19-1.42-1.19-2.49,0-4.98-.01-7.48,0-.83,0-1.42.55-1.36,1.22.08.81.59,1.18,1.4,1.17,1.25,0,2.49,0,3.74,0Z" data-sg-fill="sg-fill-0" />
  <path d="M16.54,73.72h-4.58c.18-.21.26-.37.33-.37,1.29.06,1.34-.79,1.34-1.74-.02-3.27,0-6.55,0-9.82,0-.94,0-1.85-1.28-1.96-.05,0-.08-.15-.18-.33,1-.18,1.94-.34,3.02-.53v7.35c1.13-1.26,2.26-1.82,3.71-1.69,1.45.14,2.35.88,2.44,2.33.1,1.58.09,3.18.07,4.77-.01.93.14,1.62,1.27,1.62.08,0,.16.14.41.36h-4.76c-.06-.09-.12-.18-.17-.27.12-.03.24-.1.36-.1,1.2.05,1.36-.72,1.35-1.65-.03-1.56,0-3.12-.09-4.67-.07-1.32-1.04-1.97-2.34-1.7-1.33.28-2.21,1.36-2.21,2.71,0,1.28.02,2.56,0,3.84-.02.82.14,1.43,1.12,1.47.09,0,.18.13.27.2-.02.06-.04.13-.05.19Z" data-sg-fill="sg-fill-0" />
  <path d="M100.18,65.09h4.22q-1.49.81-.91,2.32c.55,1.44,1.08,2.88,1.71,4.57.99-2.51,1.89-4.78,2.79-7.06.12,0,.25,0,.37,0,.87,2.26,1.73,4.53,2.68,7.02.42-1.05.76-1.91,1.1-2.77.23-.58.46-1.16.69-1.74q.56-1.41-.68-2.36h2.93c-1.55.61-1.53,2.14-2.04,3.3-.73,1.65-1.32,3.36-2,5.03-.11.28-.38.5-.57.75-.18-.26-.41-.51-.53-.8-.76-1.97-1.49-3.94-2.33-6.18-.68,1.74-1.27,3.25-1.85,4.76-.23.58-.43,1.17-.68,1.74-.08.18-.24.32-.37.48-.15-.16-.37-.3-.45-.49-.87-2.2-1.72-4.4-2.58-6.6-.3-.78-.55-1.6-1.59-1.76l.09-.23Z" data-sg-fill="sg-fill-0" />
  <path d="M36.51,72.11c.11,1.06-.27,1.68-1.07,1.89-1.08.28-1.74-.09-2.35-1.31-.86.4-1.7.86-2.6,1.18-.47.17-1.06.21-1.55.11-.72-.14-1.32-.53-1.52-1.34-.21-.84-.02-1.65.66-2.1,1.21-.81,2.5-1.51,3.81-2.14,1.26-.61,1.38-.69,1.17-1.98-.13-.79-.78-1.28-1.78-1.35-1.14-.08-1.7.26-2.01,1.2-.08.23-.14.56-.31.66-.29.16-.66.16-.99.23-.06-.3-.24-.66-.14-.9.37-.92,1.17-1.34,2.09-1.54.36-.08.74-.08,1.12-.09,2.88-.06,3.7.74,3.7,3.61,0,1.28-.04,2.56.03,3.84.02.4.33.78.51,1.17.32-.28.65-.55.97-.83.07-.06.12-.13.28-.29ZM33.09,68.63c-.09-.1-.17-.19-.26-.29-1.05.68-2.18,1.26-3.13,2.06-.76.64-.75,1.75-.22,2.38.65.77,1.4.47,2.12.13.36-.17.73-.38,1.02-.65.22-.21.43-.54.44-.83.06-.93.02-1.86.02-2.79Z" data-sg-fill="sg-fill-0" />
  <path d="M128.18,72.18c.19.94-.16,1.56-1.01,1.81-1.07.31-1.73-.08-2.35-1.31-.86.4-1.7.86-2.58,1.19-1.2.45-2.47.02-2.97-.9-.49-.9-.16-2.1.98-2.82,1.15-.72,2.43-1.26,3.64-1.89.4-.21,1.03-.16.99-.9-.04-.76,0-1.5-.77-1.98-1.29-.79-2.67-.3-3.2,1.1-.11.3-.45.56-.75.72-.13.07-.59-.13-.61-.24-.04-.34-.03-.76.15-1.04.22-.35.58-.68.96-.86,1.39-.66,2.85-.64,4.28-.16.98.33,1.47,1.11,1.46,2.17,0,1.47,0,2.93,0,4.4,0,.25-.06.53.03.74.16.36.41.68.63,1.02.28-.25.56-.49.83-.74.1-.1.19-.21.28-.32ZM124.87,68.46c-1.45.51-2.8.94-3.63,2.18-.47.7-.53,1.48.02,2.17.53.67,1.22.5,1.87.2.47-.22.94-.5,1.35-.83.21-.17.37-.5.38-.77.05-.93.02-1.86.02-2.95Z" data-sg-fill="sg-fill-0" />
  <path d="M69.42,65.08h4.15q-1.25.89-.58,2.31c.7,1.49,1.41,2.98,2.2,4.66.21-.44.36-.75.5-1.07.52-1.23,1.04-2.47,1.55-3.7q.59-1.42-.69-2.17h3.07c-2.46,1.76-2.64,4.72-3.85,7.11-.92,1.83-1.6,3.78-2.44,5.65-.21.46-.56.92-.97,1.2-.25.17-.73-.02-1.11-.04.05-.37.07-.74.18-1.09.04-.15.26-.3.42-.34,1.56-.46,1.9-1.85,2.36-3.13.11-.31.04-.75-.1-1.06-.93-2.07-1.89-4.13-2.86-6.19-.4-.85-.72-1.8-1.97-1.9.05-.08.1-.17.16-.25Z" data-sg-fill="sg-fill-0" />
  <path d="M150.02,67.95h-6.18c-.17,1.64-.17,3.19.72,4.56.98,1.51,3.35,1.45,4.52-.05.19-.24.4-.46.74-.85-.11,1.25-1,2.09-2.33,2.43-2.55.65-5.17-1.08-5.51-3.7-.2-1.54.05-2.99,1.07-4.23,1.9-2.33,5.52-1.96,6.66.68.14.33.19.7.3,1.16ZM148.05,67.45c.1-1.43-.54-2.28-1.71-2.38-1.31-.12-2.2.74-2.42,2.38h4.14Z" data-sg-fill="sg-fill-0" />
  <path d="M154.4,65.35c1.09-.28,1.94-.49,2.91-.74.13.62.24,1.19.35,1.73.58-.5,1.11-1.06,1.74-1.46.8-.51,1.85-.33,2.29.3.34.47.5,1.01-.06,1.4-.58.4-.9-.05-1.16-.52-.44-.79-.81-.92-1.41-.26-.53.59-1.06,1.35-1.18,2.11-.22,1.31-.12,2.67-.15,4.01-.02.87.25,1.47,1.27,1.43.11,0,.23.13.32.37h-4.67c.05-.16.07-.27.09-.27,1.48-.07,1.46-1.1,1.43-2.18-.03-1.34-.04-2.68,0-4.02.02-.91-.19-1.55-1.27-1.5-.08,0-.17-.13-.48-.38Z" data-sg-fill="sg-fill-0" />
  <path d="M8.01,71.5c0,1.17-.8,2.11-2,2.49-1.98.63-4.2-.13-5.28-1.82-1.13-1.76-.92-4.49.47-6.02,1.43-1.57,3.73-2.04,5.56-1.1.32.17.74.41.82.7.1.37.05.99-.19,1.19-.44.36-.97.03-1.08-.47-.21-.94-.65-1.44-1.66-1.37-1.13.07-2.02.53-2.42,1.61-.63,1.7-.59,3.43.07,5.12.46,1.18,1.39,1.75,2.62,1.77,1.17.02,2.13-.41,2.66-1.55.08-.17.23-.31.43-.55Z" data-sg-fill="sg-fill-0" />
  <path d="M43.36,64.59c.14.66.26,1.2.38,1.72.58-.5,1.09-1.05,1.7-1.43.93-.58,2.08-.34,2.42.51.13.33-.12.81-.19,1.22-.35-.15-.84-.2-1.04-.47-.64-.88-1.01-1.04-1.68-.22-.52.64-.96,1.47-1.08,2.28-.18,1.22-.05,2.49-.08,3.73-.02.85.24,1.4,1.21,1.38.14,0,.29.13.41.38h-4.83c.21-.19.3-.36.4-.36,1.06,0,1.28-.66,1.27-1.55-.02-1.5-.03-2.99,0-4.49.02-.94-.19-1.62-1.32-1.57-.08,0-.17-.13-.44-.36,1.03-.27,1.89-.51,2.88-.77Z" data-sg-fill="sg-fill-0" />
  <path d="M133.35,65.49c-.5-.06-.83-.1-1.15-.14l-.14-.2c1.44-.52,2.38-1.48,2.58-3.06.1.05.2.09.3.14v2.76h2.64c0,.11,0,.22,0,.33h-2.6c0,1.24,0,2.32,0,3.39,0,1,0,1.99,0,2.99,0,.65.09,1.26.77,1.57.68.31,1.2,0,1.66-.49.09-.09.24-.12.41-.2-.24,1.02-1.21,1.64-2.33,1.58-1.08-.06-1.94-.78-2-1.85-.11-1.89-.11-3.79-.16-5.69,0-.36,0-.73,0-1.13Z" data-sg-fill="sg-fill-0" />
  <path d="M63.3,62.27v2.61c.95.05,1.78.08,2.61.12,0,.11,0,.23,0,.34-.83.04-1.65.08-2.51.12,0,2.33-.06,4.63.03,6.93.04.92,1.17,1.27,1.95.72.24-.17.46-.36.75-.59-.11.96-.91,1.57-1.98,1.64-1.08.07-2.1-.57-2.24-1.56-.14-1.04-.16-2.11-.18-3.16-.03-1.3,0-2.61,0-3.95-.47-.05-.85-.1-1.24-.14-.05-.06-.11-.13-.16-.19,1.44-.52,2.45-1.41,2.6-3.03.12.05.25.09.37.14Z" data-sg-fill="sg-fill-0" />
  <path d="M51.56,65.25c1.03-.21,2.05-.42,3.24-.66,0,.83,0,1.6,0,2.36,0,1.59.03,3.18,0,4.77-.02.93.15,1.62,1.27,1.62.09,0,.17.13.45.36h-4.88l-.05-.21c.22-.06.44-.17.66-.18.71-.04.99-.44.99-1.1,0-1.75,0-3.49,0-5.24,0-.8-.3-1.32-1.21-1.3-.15,0-.3-.13-.44-.2,0-.08,0-.15,0-.23Z" data-sg-fill="sg-fill-0" />
  <path d="M86.69,65.45c.02.66-.49,1.24-1.12,1.21-.66-.04-1.13-.39-1.16-1.08-.04-.73.36-1.17,1.08-1.25.65-.07,1.18.45,1.2,1.12Z" data-sg-fill="sg-fill-0" />
  <path d="M86.69,72.97c.02.69-.48,1.22-1.15,1.19-.7-.03-1.09-.42-1.14-1.11-.05-.66.49-1.21,1.16-1.19.7.02,1.09.4,1.14,1.11Z" data-sg-fill="sg-fill-0" />
  <path d="M53.77,61.2c-.64-.1-1.05-.43-1.03-1.16.01-.71.4-1.08,1.09-1.12.62-.04,1.18.58,1.15,1.2-.04.59-.59,1.1-1.2,1.08Z" data-sg-fill="sg-fill-0" />
  <path d="M81.33,20.24c1,0,2,.03,2.99,0,.92-.03,1.33.44,1.37,1.28.04.81.05,1.62,0,2.43-.05.78-.44,1.25-1.31,1.24-2.06-.02-4.12,0-6.18-.01-.93,0-1.28-.38-1.29-1.32-.01-.75-.01-1.5,0-2.24.02-1.01.35-1.35,1.34-1.37,1.03-.01,2.06,0,3.09,0Z" data-sg-fill="sg-fill-0" />
</g></svg>