<?xml version="1.0" encoding="iso-8859-1"?>
<!-- Uploaded to: SVG Repo, www.svgrepo.com, Generator: SVG Repo Mixer Tools -->
<svg fill="#000000" height="800px" width="800px" version="1.1" id="Layer_1" xmlns="http://www.w3.org/2000/svg" xmlns:xlink="http://www.w3.org/1999/xlink" 
	 viewBox="0 0 512 512" xml:space="preserve">
<g>
	<g>
		<path d="M493.916,319.4c-11.11-121.504-113.563-217-237.916-217s-226.806,95.496-237.916,217C7.031,328.8,0,342.79,0,358.4
			c0,28.233,22.968,51.2,51.2,51.2h136.533c28.232,0,51.2-22.967,51.2-51.2h34.133c0,28.233,22.968,51.2,51.2,51.2H460.8
			c28.232,0,51.2-22.967,51.2-51.2C512,342.79,504.969,328.8,493.916,319.4z M256,136.533c91.294,0,168.815,60.055,195.171,142.727
			c-11.988-15.582-30.035-26.26-50.584-28.497c-30.222-48.075-83.73-80.097-144.587-80.097s-114.365,32.023-144.587,80.097
			c-20.549,2.237-38.597,12.915-50.584,28.497C87.185,196.589,164.706,136.533,256,136.533z M362.915,256.519
			c-10.618,4.661-19.943,11.735-27.262,20.541c-18.788-23.238-47.513-38.127-79.652-38.127c-32.141,0-60.864,14.889-79.652,38.127
			c-7.32-8.805-16.645-15.88-27.263-20.541C174.118,225.029,212.738,204.8,256,204.8S337.882,225.029,362.915,256.519z
			 M187.733,375.467H51.2c-9.411,0-17.067-7.655-17.067-17.067c0-9.412,7.656-17.067,17.067-17.067h28.444v-17.067
			c0-21.958,17.864-39.822,39.822-39.822s39.822,17.864,39.822,39.822v17.067h28.444c9.411,0,17.067,7.655,17.067,17.067
			C204.8,367.812,197.144,375.467,187.733,375.467z M286.155,324.267h-0.613C279.63,314.074,268.607,307.2,256,307.2
			s-23.63,6.874-29.541,17.067h-0.613c-7.531-8.4-17.781-14.312-29.36-16.316c11.712-20.797,33.993-34.884,59.515-34.884
			s47.803,14.087,59.515,34.884C303.936,309.955,293.685,315.866,286.155,324.267z M460.8,375.467H324.267
			c-9.411,0-17.067-7.655-17.067-17.067c0-9.412,7.656-17.067,17.067-17.067h28.444v-17.067c0-21.958,17.864-39.822,39.822-39.822
			c21.958,0,39.822,17.864,39.822,39.822v17.067H460.8c9.411,0,17.067,7.655,17.067,17.067
			C477.867,367.812,470.211,375.467,460.8,375.467z"/>
	</g>
</g>
</svg>