<svg xmlns="http://www.w3.org/2000/svg" version="1.1" id="Layer_1" x="0px" y="0px" viewBox="0.0 0.0 100.0 101.47638888888889" xml:space="preserve">
<g transform="scale(1.3888888888888888)"><g>
	<path fill="#010101" d="M51.658,57.451c0.859-0.792,1.422-1.771,1.825-2.851c0.631-1.684,0.543-3.314-0.389-4.857   c-0.356-0.59-0.778-1.154-1.261-1.644h-0.007c-0.899-0.919-1.845-1.805-2.818-2.65c-1.107-0.966-1.993-2.06-2.442-3.482   c-0.161-0.517-0.362-1.027-0.557-1.536c-0.268-0.691-0.537-1.389-0.845-2.06c-0.745-1.617-1.885-2.898-3.381-3.871   c-0.416-0.268-0.839-0.537-1.268-0.778c-0.953-0.543-1.972-0.959-3.066-1.08c-1.335-0.148-2.684-0.181-4.005,0.04   c-2.918,0.49-4.81,2.207-5.636,5.045c-0.275,0.946-0.443,1.932-0.557,2.912c-0.174,1.536-0.879,2.704-2.18,3.536   c-0.671,0.429-1.328,0.865-1.993,1.302c-0.993,0.664-1.946,1.382-2.677,2.335c-1.248,1.624-1.932,3.448-1.818,5.428   c0,0.349,0,0.597,0,0.845c0.054,2.69,1.624,4.884,4.166,5.736c1.872,0.631,3.784,0.731,5.723,0.322   c1.416-0.302,2.737-0.872,4.046-1.469c2.778-1.261,5.636-1.429,8.568-0.631c0.671,0.181,1.328,0.416,1.999,0.59   c1.442,0.376,2.912,0.577,4.415,0.543C49.115,59.135,50.477,58.538,51.658,57.451z M43.003,56.29   c-1.905-0.329-3.824-0.597-5.756-0.657c-2.08-0.074-4.012,0.517-5.824,1.536c-0.691,0.389-1.396,0.751-2.12,1.073   c-1.02,0.456-2.093,0.584-3.2,0.409c-1.033-0.154-2.053-0.329-3.019-0.765c-0.758-0.335-1.288-0.859-1.711-1.577   c-0.678-1.154-0.946-2.388-0.986-3.697c-0.027-0.966,0.322-1.852,0.758-2.69c0.644-1.255,1.53-2.315,2.744-3.066   c0.631-0.389,1.288-0.745,1.926-1.12c0.637-0.376,1.281-0.751,1.912-1.147c1.603-1.006,2.308-2.536,2.469-4.361   c0.04-0.49,0.013-0.993,0.047-1.489c0.027-0.443,0.054-0.892,0.141-1.328c0.322-1.557,1.275-2.549,2.804-2.952   c1.161-0.309,2.335-0.45,3.536-0.208c0.678,0.141,1.382,0.208,2.04,0.409c2.046,0.637,3.576,1.905,4.394,3.918   c0.523,1.288,1,2.59,1.456,3.898c0.597,1.704,1.664,3.026,3.113,4.066c0.886,0.637,1.765,1.281,2.516,2.087   c0.268,0.288,0.577,0.564,0.778,0.899c0.255,0.416,0.53,0.872,0.597,1.342c0.161,1.141,0.081,2.281-0.376,3.361l0.007,0   c-0.403,0.966-1.147,1.603-2.093,2.013c-0.832,0.362-1.704,0.517-2.617,0.51C45.358,56.606,44.171,56.491,43.003,56.29z" data-sg-fill="sg-fill-0" />
	<path fill="#010101" d="M25.331,40.98c0.865-1.174,1.268-2.469,1.073-3.911c-0.181-1.335-0.53-2.63-1.127-3.838   c-0.704-1.422-1.51-2.791-2.442-4.079c-0.684-0.946-1.516-1.718-2.556-2.221c-0.845-0.409-1.724-0.785-2.623-1.047   c-1.013-0.302-2.066-0.255-3.093-0.007c-1.805,0.429-2.952,1.557-3.448,3.334c-0.309,1.107-0.49,2.227-0.496,3.589   c-0.06,2.449,0.879,4.75,2.583,6.743c0.865,1.013,1.865,1.926,2.818,2.865c0.537,0.53,1.187,0.892,1.872,1.201   c1.04,0.463,2.133,0.523,3.207,0.228l-0.013-0.013C22.802,43.355,24.251,42.436,25.331,40.98z M22.393,40.866   c-1.456,0.785-2.945,0.778-4.374-0.121c-0.926-0.59-1.664-1.402-2.442-2.16l0.007-0.007c-0.423-0.416-0.812-0.872-1.194-1.322   c-0.879-1.033-1.503-2.187-1.805-3.529c-0.295-1.308-0.04-2.556,0.262-3.804c0.134-0.55,0.543-0.966,1.006-1.241   c0.818-0.49,1.697-0.792,2.684-0.691c1.221,0.121,2.281,0.557,3.207,1.382c2.019,1.785,3.435,3.945,4.267,6.494   c0.181,0.564,0.275,1.147,0.342,1.422C24.352,39.081,23.661,40.182,22.393,40.866z" data-sg-fill="sg-fill-0" />
	<path fill="#010101" d="M38.81,18.618c-0.181,1.409-0.322,2.825-0.47,4.24c-0.074,0.738-0.168,1.476-0.208,2.221   c-0.007,0.127-0.013,0.262-0.013,0.389c-0.02,0.879,0.034,1.764,0.127,2.643c0.148,1.422,0.711,2.63,1.825,3.623l-0.007-0.013   c1.429,1.275,3.093,1.765,4.931,1.704c1.188-0.04,2.375-0.221,3.415-0.906c1.006-0.664,1.892-1.436,2.583-2.429   c0.751-1.087,1.248-2.248,1.328-3.583c0.027-0.496,0.121-0.986,0.168-1.483c0.174-1.905-0.02-3.777-0.711-5.562   c-1.094-2.818-2.825-5.22-5.012-7.306c-0.51-0.483-1.073-0.879-1.744-1.114c-1.234-0.436-2.341-0.289-3.267,0.704   c-0.101,0.107-0.208,0.215-0.295,0.335c-0.906,1.134-1.644,2.368-2.033,3.777C39.172,16.767,38.931,17.686,38.81,18.618z    M40.528,18.377c0.181-0.919,0.476-1.818,0.738-2.724c0.181-0.624,0.496-1.194,0.899-1.704c0.738-0.926,1.818-1.322,3.039-0.637   c0.711,0.396,1.288,0.959,1.731,1.61c1.335,1.979,2.556,4.019,3.375,6.273c0.436,1.187,0.53,2.429,0.423,3.67   c-0.127,1.489-0.443,2.945-1.241,4.247c-0.315,0.517-0.684,0.98-1.181,1.322c-0.624,0.429-1.302,0.718-2.08,0.711   c-0.396,0-1.986-0.034-2.382-0.06c-2.174-0.141-3.536-1.711-3.791-3.388c-0.107-0.684-0.201-1.382-0.201-2.066   C39.87,23.194,40.051,20.765,40.528,18.377z" data-sg-fill="sg-fill-0" />
	<path fill="#010101" d="M29.692,32.6c1.979-0.081,3.636-0.872,4.958-2.341c0.47-0.523,0.725-1.174,0.98-1.825   c0.839-2.16,1.04-4.415,1.047-6.468c-0.067-1.181-0.094-2.12-0.168-3.059c-0.114-1.489-0.403-2.945-1-4.321   c-0.698-1.61-1.885-2.65-3.61-3.012c-1.778-0.376-3.455-0.134-4.938,0.986c-0.55,0.416-1.087,0.865-1.617,1.308   c-1.53,1.288-2.509,2.898-2.952,4.857c-0.288,1.281-0.322,2.556-0.087,3.831c0.221,1.214,0.483,2.429,0.825,3.616l-0.007,0.007   c0.416,1.429,1.026,2.784,1.979,3.958c1.006,1.248,2.368,1.912,3.851,2.388C29.182,32.6,29.444,32.614,29.692,32.6z M26.754,29.011   c-0.939-1.04-1.697-2.194-2.06-3.569c-0.376-1.436-0.738-2.878-1.073-4.321c-0.101-0.429-0.154-0.879-0.168-1.322   c-0.034-0.98,0.295-1.858,0.886-2.623c1.261-1.637,2.778-2.959,4.75-3.677c1.476-0.537,2.825-0.335,3.972,0.792   c0.208,0.208,0.403,0.45,0.53,0.704c0.416,0.845,0.738,1.731,0.778,2.69c0.054,1.234,0.127,2.476,0.188,3.71   c0.087,1.583,0.06,3.167-0.141,4.743c-0.148,1.147-0.523,2.207-1.255,3.133c-0.59,0.738-1.335,1.12-2.274,1.255   C29.216,30.769,27.854,30.232,26.754,29.011z" data-sg-fill="sg-fill-0" />
	<path fill="#010101" d="M58.582,27.233c-0.912-0.094-1.785,0.101-2.576,0.57c-0.597,0.356-1.188,0.725-1.724,1.161   c-1.275,1.033-2.469,2.147-3.61,3.328c-1.577,1.637-2.435,3.603-2.798,5.803c-0.403,2.402,0.865,4.904,2.885,5.884   c0.624,0.302,1.255,0.597,1.885,0.886c0.597,0.275,1.234,0.356,1.885,0.356c1.067-0.007,2.006-0.255,2.999-0.765   c1.436-0.745,2.576-1.825,3.63-3.033c1.872-2.14,3.066-4.629,3.811-7.333c0.671-2.429-0.631-4.978-2.939-6.025h0.007   C60.937,27.568,59.769,27.354,58.582,27.233z M63.258,33.298c0.081,0.859-0.054,1.691-0.45,2.456h0.007   c-0.98,1.905-2.093,3.717-3.65,5.226c-0.872,0.845-1.879,1.456-3.006,1.879c-0.973,0.362-1.939,0.322-2.898-0.094   c-1.02-0.45-1.845-1.161-2.63-1.912c-0.396-0.376-0.698-0.852-0.839-1.389c-0.389-1.496-0.356-2.945,0.47-4.314   c0.181-0.295,0.356-0.604,0.57-0.872c1.375-1.718,2.939-3.22,4.951-4.2c1.154-0.557,1.912-0.745,3.482-0.738   c0.161,0.027,0.671,0.054,1.127,0.221C62.56,30.359,63.084,31.46,63.258,33.298z" data-sg-fill="sg-fill-0" />
	<path fill="#010101" d="M50.571,52.701c0.02-0.148,0.04-0.295,0.067-0.443c0.188-1.006-0.127-1.845-0.825-2.583   c-0.718-0.765-1.503-1.449-2.362-2.033l0.007-0.013c-1.919-1.295-3.247-3.019-3.972-5.226c-0.369-1.127-0.825-2.234-1.234-3.348   c-0.335-0.906-0.892-1.644-1.637-2.254c-0.778-0.644-1.624-1.134-2.63-1.308c-0.832-0.141-1.664-0.322-2.496-0.349   c-0.892-0.034-1.778,0.121-2.603,0.51c-0.832,0.382-1.308,1.033-1.489,1.912c-0.067,0.342-0.107,0.684-0.134,1.033   c-0.047,0.644-0.054,1.288-0.101,1.932c-0.148,1.993-0.973,3.63-2.637,4.777c-0.731,0.503-1.523,0.933-2.288,1.389   c-0.637,0.382-1.288,0.738-1.919,1.141c-1.033,0.657-1.751,1.597-2.315,2.664c-0.456,0.865-0.59,1.798-0.362,2.744   c0.215,0.912,0.53,1.805,0.805,2.704c0.121,0.403,0.403,0.664,0.772,0.859c1.127,0.577,2.328,0.825,3.583,0.879   c0.805,0.034,1.583-0.074,2.315-0.436c0.577-0.289,1.154-0.577,1.711-0.892c2.073-1.174,4.274-1.798,6.676-1.697   c1.738,0.074,3.455,0.235,5.173,0.543c1.167,0.208,3.536,0.45,3.542,0.423c0.443,0,0.899,0.04,1.335-0.007   C49.337,55.431,50.309,54.479,50.571,52.701z M48.082,51.949c-0.094,0.912-0.624,1.557-1.53,1.785   c-0.335,0.081-0.678,0.141-1.026,0.181c-0.342,0.04-0.691,0.054-1.161,0.081c-0.376-0.06-0.859-0.154-1.349-0.208   c-1.429-0.161-2.831-0.483-4.233-0.798c-1.114-0.248-2.241-0.396-3.381-0.47c-1.167-0.074-2.268,0.107-3.328,0.577   c-1.268,0.564-2.536,1.12-3.811,1.671c-0.456,0.195-0.912,0.396-1.389,0.523c-1.738,0.476-3.328-0.671-3.435-2.476   c-0.04-0.617,0.201-1.161,0.543-1.664c0.503-0.745,1.1-1.416,1.818-1.946c1.033-0.765,2.073-1.53,3.261-2.06   c0.631-0.282,1.214-0.664,1.832-0.986c1.194-0.624,1.811-1.644,2.033-2.939c0.148-0.879,0.295-1.765,0.228-2.657   c-0.054-0.778,0.208-1.442,0.604-2.1c0.55-0.906,1.382-1.295,2.375-1.241c0.986,0.054,1.972,0.188,2.918,0.51   c1.02,0.342,1.684,1.02,2.026,2.013c0.161,0.47,0.282,0.953,0.382,1.436c0.389,1.926,1.248,3.643,2.268,5.3   c0.45,0.725,1,1.328,1.738,1.798c0.657,0.423,1.248,0.973,1.825,1.516c0.611,0.577,0.859,1.308,0.778,2.16L48.082,51.949z" data-sg-fill="sg-fill-0" />
	<path fill="#010101" d="M19.481,30.527c-0.356-0.335-0.738-0.671-1.154-0.926c-1.073-0.651-2.214-0.785-3.415-0.315   c-0.772,0.302-1.201,0.939-1.342,1.657c-0.242,1.221-0.248,2.469,0.275,3.65c0.302,0.684,0.678,1.322,1.174,1.885   c0.456,0.523,0.906,1.053,1.402,1.536c0.637,0.617,1.308,1.208,1.999,1.771c0.51,0.416,1.107,0.651,1.832,0.584   c0.161,0,0.356,0.02,0.55,0v-0.007c0.953-0.121,2.14-0.832,2.469-2.08c0.134-0.496,0.101-0.973-0.034-1.463   C22.574,34.372,21.326,32.272,19.481,30.527z M20.883,37.632c-0.228,0.409-0.711,0.59-1.147,0.47v-0.007   c-0.49-0.141-0.919-0.389-1.288-0.725c-0.792-0.731-1.53-1.536-2.1-2.456c-0.382-0.624-0.637-1.201-0.657-1.832   c-0.013-0.356,0.047-0.725,0.195-1.127c0.221-0.604,1.02-0.939,1.61-0.691c0.268,0.114,0.55,0.262,0.758,0.456   c1.369,1.281,2.355,2.798,2.831,4.629C21.205,36.82,21.105,37.236,20.883,37.632z" data-sg-fill="sg-fill-0" />
	<path fill="#010101" d="M41.252,28.206c0.443,0.953,1.141,1.63,2.214,1.771c0.832,0.107,1.677,0.195,2.516,0.195   c1,0,1.838-0.429,2.402-1.268c0.329-0.49,0.637-1.02,0.812-1.583c0.718-2.295,0.778-4.569-0.255-6.816   c-0.751-1.63-1.657-3.16-2.617-4.663c-0.289-0.456-0.678-0.852-1.073-1.228c-0.242-0.228-0.577-0.376-0.886-0.53   c-0.288-0.141-0.597-0.094-0.859,0.074c-0.597,0.382-1.087,0.859-1.288,1.577c-0.221,0.812-0.503,1.61-0.664,2.435   c-0.396,2.1-0.657,4.213-0.644,6.354c0,0.691,0,1.389,0,2.08c0,0.55,0.107,1.094,0.335,1.59L41.252,28.206z M42.99,20.531   c0.107-0.832,0.235-1.664,0.376-2.489c0.034-0.181,0.141-0.369,0.268-0.51c0.295-0.335,0.879-0.349,1.208-0.047   c0.107,0.101,0.215,0.208,0.288,0.329c0.134,0.208,0.255,0.423,0.356,0.651c0.946,2.194,1.583,4.468,1.919,6.83   c0.067,0.496,0,0.986-0.168,1.463c-0.215,0.604-0.631,0.986-1.228,1.194c-1.288,0.443-2.69-0.242-3.086-1.53   c-0.087-0.282-0.134-0.577-0.161-0.872C42.708,24.912,42.674,22.382,42.99,20.531z" data-sg-fill="sg-fill-0" />
	<path fill="#010101" d="M32.799,28.018c0.107-0.221,0.228-0.443,0.302-0.678c0.235-0.711,0.423-1.429,0.429-2.18   c0-1.094-0.121-6.246-0.221-7.729c-0.047-0.657-0.268-1.261-0.557-1.838c-0.51-1.006-1.657-1.543-2.757-1.288   c-0.289,0.067-0.564,0.181-0.839,0.289c-1.214,0.49-2.221,1.295-3.2,2.14c-1.288,1.114-1.771,2.503-1.395,4.14   c0.369,1.597,0.751,3.194,1.261,4.743l-0.007-0.007c0.456,1.389,1.322,2.543,2.516,3.428   C29.531,29.937,31.859,29.917,32.799,28.018z M31.671,24.247c-0.04,0.537-0.114,1.094-0.282,1.603   c-0.369,1.127-1.603,1.456-2.516,0.691c-0.295-0.248-0.557-0.57-0.758-0.906c-0.772-1.281-1.362-2.643-1.744-4.086   c-0.262-0.98-0.275-1.966,0.275-2.878H26.64c0.074-0.127,0.121-0.289,0.228-0.376c0.832-0.718,1.711-1.355,2.851-1.483   c0.557-0.06,0.986,0.181,1.187,0.698c0.215,0.55,0.423,1.12,0.503,1.697C31.564,20.289,31.718,23.657,31.671,24.247z" data-sg-fill="sg-fill-0" />
	<path fill="#010101" d="M56.737,30.775c-1.167,0.53-2.341,1.08-3.214,2.08c-0.195,0.221-0.436,0.403-0.657,0.604   c-0.698,0.644-1.255,1.402-1.751,2.207c-0.289,0.476-0.463,0.993-0.53,1.536c-0.121,1.013-0.027,2.013,0.684,2.798   c0.738,0.805,1.59,1.489,2.63,1.899c0.577,0.228,1.134,0.268,1.731,0.047c1.04-0.382,1.972-0.912,2.778-1.684   c1.489-1.429,2.536-3.167,3.475-4.971c0.262-0.496,0.329-1.033,0.342-1.832c-0.034-0.201-0.067-0.651-0.168-1.08   c-0.087-0.389-0.275-0.745-0.584-1.02v0.007c-0.53-0.463-1.114-0.832-1.825-0.933C58.649,30.292,57.656,30.359,56.737,30.775z    M60.226,34.774l-0.013-0.007c-0.047,0.289-0.154,0.584-0.295,0.839c-0.698,1.214-1.563,2.288-2.731,3.1   c-0.765,0.53-1.577,0.818-2.415,0.758c-0.597,0-1.08-0.02-1.496-0.369c-0.624-0.523-0.886-1.174-0.778-1.979   c0.094-0.718,0.443-1.315,0.899-1.845c1.248-1.449,2.818-2.315,4.723-2.576c0.101-0.013,0.201-0.013,0.295-0.02   C59.93,32.567,60.393,33.748,60.226,34.774z" data-sg-fill="sg-fill-0" />
	<path fill="#010101" d="M46.505,50.46h0.013c-0.517-0.463-1.013-0.966-1.597-1.328c-0.919-0.57-1.577-1.349-2.127-2.241   c-1.107-1.785-1.959-3.67-2.388-5.736c-0.087-0.436-0.215-0.865-0.362-1.281c-0.154-0.436-0.45-0.772-0.879-0.966   c-1.053-0.476-2.16-0.711-3.321-0.671c-0.483,0.02-0.852,0.235-1.127,0.624c-0.382,0.537-0.611,1.114-0.59,1.798   c0.027,1.141-0.04,2.274-0.342,3.388c-0.329,1.214-0.993,2.154-2.06,2.798c-0.678,0.409-1.362,0.825-2.087,1.141   c-1.147,0.51-2.147,1.234-3.147,1.959c-0.684,0.496-1.248,1.127-1.718,1.838c-0.295,0.443-0.362,0.919-0.201,1.422   c0.289,0.899,1.073,1.362,1.972,1.107c0.57-0.161,1.107-0.423,1.657-0.651c1.322-0.564,2.637-1.134,3.958-1.704   c1.221-0.53,2.482-0.584,3.791-0.456c1.637,0.161,3.227,0.53,4.824,0.859c1.261,0.262,2.523,0.517,3.932,0.557   c0.376-0.034,0.879-0.047,1.362-0.128c0.725-0.127,1.06-0.691,0.926-1.436C46.935,50.997,46.76,50.688,46.505,50.46z    M42.923,50.339c-0.188,0.423-0.59,0.53-1,0.49c-0.49-0.047-0.986-0.127-1.449-0.289c-0.886-0.302-1.764-0.651-2.623-1.02   c-0.879-0.382-1.785-0.55-2.737-0.57c-1.114-0.02-2.16,0.208-3.16,0.691c-0.537,0.262-1.053,0.543-1.59,0.798   c-0.174,0.081-0.376,0.141-0.564,0.141c-0.121,0-0.288-0.114-0.349-0.228c-0.06-0.107-0.074-0.302-0.013-0.409   c0.087-0.168,0.235-0.315,0.382-0.436c0.912-0.772,1.972-1.315,3.006-1.892c0.517-0.289,1.026-0.597,1.51-0.933   c0.738-0.503,1.127-1.234,1.255-2.107c0.094-0.637,0.148-1.275,0.228-1.919c0.034-0.295,0.067-0.59,0.134-0.879   c0.114-0.456,0.403-0.792,0.805-1.02c0.282-0.161,0.611-0.235,0.933-0.188c1.114,0.168,1.228,1.268,1.141,2.301   c-0.04,0.496-0.134,0.973-0.181,1.335c-0.047,0.342-0.101,0.684-0.127,1.026c-0.04,0.47,0.114,0.892,0.456,1.208   c0.396,0.369,0.825,0.704,1.261,1.026c0.403,0.289,0.852,0.51,1.241,0.812c0.429,0.329,0.825,0.704,1.201,1.094   c0.248,0.255,0.396,0.597,0.235,0.953L42.923,50.339z" data-sg-fill="sg-fill-0" />
	<path fill="#010101" d="M17.696,32.567c-0.101-0.101-0.242-0.161-0.369-0.235c-0.148-0.087-0.45,0-0.517,0.148   c-0.168,0.362-0.335,0.731-0.127,1.127c0.678,1.281,1.583,2.375,2.751,3.24c0.141,0.107,0.349,0.121,0.503,0.174   c0.215-0.268,0.201-0.517,0.121-0.751C19.588,34.834,18.79,33.607,17.696,32.567z" data-sg-fill="sg-fill-0" />
	<path fill="#010101" d="M43.849,26.019l0.007-0.007c0.195,0.711,0.503,0.939,1.281,0.98c0.047,0,0.101,0,0.148,0.007   c0.624,0,1.033-0.335,1.06-0.98c0.02-0.49,0-0.986-0.087-1.469c-0.087-0.523-0.201-1.04-0.329-1.55   c-0.174-0.704-0.389-1.402-0.617-2.093c-0.114-0.349-0.235-0.691-0.356-1.033c-0.101-0.275-0.195-0.537-0.342-0.785   c-0.04-0.074-0.094-0.201-0.188-0.221c-0.074-0.013-0.161,0.027-0.215,0.081c-0.134,0.141-0.094,0.376-0.121,0.55   c-0.181,1.396-0.429,2.764-0.429,4.18c0,0.443-0.02,0.886,0.007,1.328C43.688,25.348,43.755,25.69,43.849,26.019z" data-sg-fill="sg-fill-0" />
	<path fill="#010101" d="M30.249,18.632c-0.188-0.751-0.51-0.906-1.167-0.597c-0.221,0.107-0.436,0.228-0.651,0.356   c-1.154,0.691-1.416,1.248-1.221,2.576c0.02,0.148,0.047,0.295,0.094,0.436l0.007-0.007c0.416,1.268,0.919,2.496,1.59,3.656   c0.101,0.168,0.221,0.329,0.342,0.476c0.195,0.228,0.436,0.429,0.758,0.362c0.329-0.067,0.483-0.335,0.517-0.644   c0.06-0.537,0.101-1.08,0.127-1.617c0.02-0.443-0.101-2.516-0.094-3.106C30.558,19.873,30.403,19.249,30.249,18.632z" data-sg-fill="sg-fill-0" />
	<path fill="#010101" d="M54.134,35.928c-0.221,0.262-0.396,0.57-0.543,0.879c-0.396,0.852,0.107,1.65,1.134,1.657   c0.55-0.034,1.167-0.154,1.731-0.53c1.1-0.731,1.912-1.711,2.549-2.851c0.094-0.168,0.127-0.369,0.161-0.564   c0.081-0.463-0.188-0.792-0.651-0.772l-0.007,0.007C56.723,33.815,55.267,34.566,54.134,35.928z" data-sg-fill="sg-fill-0" />
	<path fill="#010101" d="M40.085,48.602v0.007c-0.523-0.376-1.073-0.711-1.557-1.127c-0.852-0.731-1.201-1.657-1-2.791   c0.121-0.678,0.188-1.369,0.248-2.06c0.02-0.221,0.047-0.751-0.168-0.892c-0.074-0.047-0.168-0.06-0.255-0.054   c-0.282,0.034-0.45,0.335-0.503,0.59c-0.067,0.289-0.06,0.59-0.094,0.886c-0.067,0.59-0.127,1.174-0.215,1.764   c-0.127,0.859-0.503,1.597-1.127,2.201c-0.174,0.168-0.403,0.295-0.429,0.57c0.174,0.221,0.436,0.201,0.678,0.221   c1.147,0.094,2.221,0.443,3.267,0.906c0.543,0.242,1.094,0.456,1.644,0.678c0.181,0.074,0.53,0.141,0.53-0.074   C41.105,49.212,40.44,48.856,40.085,48.602z" data-sg-fill="sg-fill-0" />
	<path fill="#010101" d="M38.844,61.275c-1.536,1.255-4.985,1.557-5.408,1.04c-0.188-0.228-0.517-0.262-0.745-0.074   c-0.128,0.107-0.195,0.255-0.195,0.409c0,0.121,0.04,0.235,0.121,0.335c0.154,0.188,0.161,1.013-0.302,2.268   c-0.443,1.194-1.141,2.308-1.778,2.831c-0.127,0.107-0.195,0.255-0.195,0.409c0,0.121,0.04,0.235,0.121,0.335   c0.107,0.127,0.255,0.195,0.409,0.195c0.121,0,0.235-0.04,0.335-0.121c1.536-1.255,4.985-1.557,5.408-1.04   c0.188,0.228,0.517,0.262,0.745,0.074c0.127-0.107,0.195-0.255,0.195-0.409c0-0.121-0.04-0.235-0.121-0.335   c-0.154-0.188-0.161-1.013,0.302-2.268c0.443-1.194,1.141-2.308,1.778-2.831c0.128-0.107,0.195-0.255,0.195-0.409   c0-0.121-0.04-0.235-0.121-0.335C39.4,61.121,39.072,61.087,38.844,61.275z M36.737,64.556c-0.201,0.537-0.45,1.342-0.463,2.073   c-0.993-0.174-2.375-0.007-3.603,0.382c0.242-0.429,0.456-0.906,0.637-1.395c0.201-0.537,0.45-1.342,0.463-2.073   c0.993,0.174,2.375,0.007,3.603-0.382C37.133,63.59,36.918,64.066,36.737,64.556z" data-sg-fill="sg-fill-0" />
	<path fill="#010101" d="M34.791,65.569c0.074,0.034,0.154,0.054,0.235,0.054l0.007,0.007c0.134,0,0.262-0.054,0.362-0.148   c0.034-0.034,0.06-0.067,0.087-0.107c0.02-0.027,0.034-0.054,0.047-0.087c0.101-0.248-0.007-0.543-0.255-0.664   c-0.195-0.094-0.416-0.067-0.57,0.06c-0.013,0.007-0.027,0.02-0.034,0.027c-0.034,0.034-0.06,0.067-0.087,0.107   c-0.02,0.027-0.034,0.054-0.047,0.087C34.436,65.153,34.543,65.448,34.791,65.569z" data-sg-fill="sg-fill-0" />
	<path fill="#010101" d="M46.646,64.073c0-0.926-0.758-1.684-1.684-1.684c-0.926,0-1.684,0.758-1.684,1.684   c0,0.926,0.751,1.684,1.684,1.684C45.888,65.757,46.646,64.999,46.646,64.073z M44.962,64.69c-0.342,0-0.624-0.282-0.624-0.624   s0.275-0.624,0.624-0.624c0.342,0,0.624,0.282,0.624,0.624S45.304,64.69,44.962,64.69z" data-sg-fill="sg-fill-0" />
	<path fill="#010101" d="M64.929,47.696c0.926,0,1.684-0.758,1.684-1.684c0-0.926-0.758-1.684-1.684-1.684   c-0.926,0-1.684,0.758-1.684,1.684C63.245,46.938,63.996,47.696,64.929,47.696z M64.929,45.381c0.342,0,0.624,0.282,0.624,0.624   c0,0.342-0.282,0.624-0.624,0.624s-0.624-0.282-0.624-0.624C64.305,45.663,64.58,45.381,64.929,45.381z" data-sg-fill="sg-fill-0" />
	<path fill="#010101" d="M64.929,21.356c-0.926,0-1.684,0.758-1.684,1.684c0,0.926,0.751,1.684,1.684,1.684   c0.926,0,1.684-0.758,1.684-1.684C66.613,22.114,65.854,21.356,64.929,21.356z M64.929,23.664c-0.342,0-0.624-0.289-0.624-0.631   c0-0.342,0.275-0.624,0.624-0.624c0.342,0,0.624,0.275,0.624,0.624C65.553,23.382,65.271,23.664,64.929,23.664z" data-sg-fill="sg-fill-0" />
	<path fill="#010101" d="M66.572,20.262c0,0.926,0.751,1.684,1.684,1.684c0.926,0,1.684-0.758,1.684-1.684   c0-0.926-0.758-1.684-1.684-1.684C67.33,18.578,66.572,19.336,66.572,20.262z M68.256,19.632c0.342,0,0.624,0.282,0.624,0.624   c0,0.342-0.282,0.624-0.624,0.624c-0.342,0-0.624-0.282-0.624-0.624C67.632,19.913,67.907,19.632,68.256,19.632z" data-sg-fill="sg-fill-0" />
	<path fill="#010101" d="M44.03,8.186c0.926,0,1.684-0.758,1.684-1.684c0-0.926-0.758-1.684-1.684-1.684s-1.684,0.758-1.684,1.684   C42.346,7.428,43.097,8.186,44.03,8.186z M44.03,5.871c0.342,0,0.624,0.282,0.624,0.624c0,0.342-0.282,0.624-0.624,0.624   c-0.342,0-0.624-0.282-0.624-0.624C43.406,6.153,43.681,5.871,44.03,5.871z" data-sg-fill="sg-fill-0" />
	<path fill="#010101" d="M26.049,5.448c0.926,0,1.684-0.758,1.684-1.684c0-0.926-0.758-1.684-1.684-1.684   c-0.926,0-1.684,0.758-1.684,1.684C24.365,4.69,25.117,5.448,26.049,5.448z M26.049,3.134c0.342,0,0.624,0.282,0.624,0.624   s-0.282,0.624-0.624,0.624c-0.342,0-0.624-0.282-0.624-0.624S25.7,3.134,26.049,3.134z" data-sg-fill="sg-fill-0" />
	<path fill="#010101" d="M11.47,60.343c-0.926,0-1.684,0.758-1.684,1.684c0,0.926,0.751,1.684,1.684,1.684   c0.926,0,1.684-0.758,1.684-1.684C13.154,61.101,12.396,60.343,11.47,60.343z M11.47,62.644c-0.342,0-0.624-0.282-0.624-0.624   c0-0.342,0.275-0.624,0.624-0.624c0.342,0,0.624,0.282,0.624,0.624C12.094,62.362,11.813,62.644,11.47,62.644z" data-sg-fill="sg-fill-0" />
	<path fill="#010101" d="M70.464,32.641c0.845,0,1.536-0.691,1.536-1.536c0-0.624-0.745-2.093-1.067-2.697   c-0.094-0.174-0.275-0.282-0.47-0.282c-0.201,0-0.376,0.107-0.47,0.282c-0.322,0.604-1.067,2.073-1.067,2.697   C68.927,31.95,69.618,32.641,70.464,32.641z M70.464,29.843c0.268,0.57,0.476,1.087,0.476,1.261c0,0.262-0.215,0.476-0.476,0.476   c-0.262,0-0.476-0.215-0.476-0.476C69.994,30.93,70.195,30.413,70.464,29.843z" data-sg-fill="sg-fill-0" />
	<path fill="#010101" d="M70.464,33.057c-0.201,0-0.376,0.107-0.47,0.282c-0.322,0.604-1.067,2.073-1.067,2.697   c0,0.845,0.691,1.536,1.536,1.536c0.845,0,1.536-0.691,1.536-1.536c0-0.624-0.745-2.093-1.067-2.697   C70.839,33.164,70.658,33.057,70.464,33.057z M70.464,36.512c-0.262,0-0.476-0.215-0.476-0.476   c0.007-0.174,0.208-0.691,0.476-1.261c0.268,0.57,0.476,1.087,0.476,1.261C70.94,36.297,70.725,36.512,70.464,36.512z" data-sg-fill="sg-fill-0" />
	<path fill="#010101" d="M70.464,37.988c-0.201,0-0.376,0.107-0.47,0.282c-0.322,0.604-1.067,2.073-1.067,2.697   c0,0.845,0.691,1.536,1.536,1.536c0.845,0,1.536-0.691,1.536-1.536c0-0.624-0.745-2.093-1.067-2.697   C70.839,38.095,70.658,37.988,70.464,37.988z M70.464,41.443c-0.262,0-0.476-0.215-0.476-0.476   c0.007-0.174,0.208-0.691,0.476-1.261c0.268,0.57,0.476,1.087,0.476,1.261C70.94,41.228,70.725,41.443,70.464,41.443z" data-sg-fill="sg-fill-0" />
	<path fill="#010101" d="M28.532,8.347c0.086,0.046,0.178,0.072,0.271,0.073c0.18-0.001,0.354-0.087,0.454-0.254   c0.47-0.778,1.637-2.476,2.845-3.549c1.234-0.335,2.207,0.054,3.227,0.463c0.496,0.201,1.013,0.403,1.563,0.53   c1.959,0.443,3.261-1.1,3.314-1.167c0.121-0.148,0.154-0.349,0.087-0.523c-0.067-0.174-0.221-0.302-0.409-0.335   c-0.007,0-0.859-0.148-1.523-0.329c-0.154-0.04-0.335-0.107-0.537-0.174c-1-0.349-2.516-0.865-4.448-0.409   c-2.328,0.55-4.757,4.502-5.025,4.951C28.203,7.87,28.283,8.199,28.532,8.347z M37.482,4.073c0.228,0.08,0.429,0.148,0.604,0.195   c0.154,0.04,0.315,0.081,0.476,0.121c-0.376,0.181-0.865,0.309-1.429,0.181c-0.47-0.101-0.919-0.282-1.402-0.476   c-0.463-0.188-0.953-0.382-1.476-0.51h-0.007C35.59,3.422,36.663,3.791,37.482,4.073z" data-sg-fill="sg-fill-0" />
	<polygon fill="#010101" points="28.807,8.421 28.802,8.42 28.8,8.421  " data-sg-fill="sg-fill-0" />
	<path fill="#010101" d="M17.032,7.783l0.718-0.295l-1.402,3.24c-0.081,0.195-0.04,0.416,0.101,0.57   c0.148,0.154,0.362,0.208,0.564,0.141l0.98-0.342l-1.167,4.374c-0.067,0.255,0.06,0.523,0.302,0.624   c0.067,0.027,0.141,0.04,0.208,0.04h0.007c0.174,0,0.349-0.094,0.45-0.255l3.851-6.34c0.141-0.221,0.094-0.51-0.107-0.678   l-0.57-0.483l1.751-3.911c0.081-0.181,0.054-0.389-0.067-0.543c-0.121-0.154-0.315-0.228-0.51-0.195l-0.939,0.161l0.678-3.254   c0.034-0.181-0.027-0.369-0.161-0.496c-0.134-0.121-0.322-0.174-0.503-0.121L18.106,0.92c-0.181,0.047-0.322,0.195-0.369,0.382   l-1.416,5.87c-0.047,0.188,0.02,0.396,0.168,0.523C16.636,7.824,16.851,7.857,17.032,7.783z M18.689,1.846l1.972-0.564l-0.657,3.16   c-0.04,0.174,0.013,0.349,0.134,0.476c0.121,0.127,0.295,0.181,0.47,0.154l0.725-0.128l-1.51,3.368   c-0.094,0.215-0.04,0.463,0.141,0.617l0.53,0.45l-1.704,2.804l0.476-1.778c0.054-0.188-0.007-0.389-0.148-0.523   c-0.101-0.094-0.228-0.141-0.362-0.141v0.007c-0.06,0-0.121,0.007-0.174,0.027l-0.785,0.275l1.442-3.334   c0.087-0.201,0.04-0.429-0.107-0.584c-0.148-0.154-0.376-0.201-0.577-0.121l-0.966,0.396L18.689,1.846z" data-sg-fill="sg-fill-0" />
	<polygon fill="#010101" points="51.933,11.245 51.933,11.245 51.926,11.245  " data-sg-fill="sg-fill-0" />
	<path fill="#010101" d="M48.525,7.756c0.034,0.013,0.121,0.107,0.168,0.161c0.101,0.114,0.215,0.235,0.369,0.322   c0.23,0.126,0.648,0.167,1.018,0.177c0.01,0.369,0.051,0.79,0.177,1.024c0.087,0.161,0.215,0.268,0.322,0.369   c0.054,0.047,0.148,0.127,0.161,0.154c0.04,0.403,0.174,0.731,0.403,0.966c0.194,0.208,0.476,0.315,0.791,0.315   c0.025,0,0.049,0,0.074,0c0.349,0.013,0.664-0.094,0.872-0.309c0.221-0.235,0.356-0.564,0.396-0.959   c0.013-0.034,0.107-0.121,0.161-0.168c0.114-0.101,0.235-0.208,0.322-0.369c0.131-0.233,0.168-0.649,0.177-1.017   c0.374-0.009,0.803-0.049,1.037-0.177c0.161-0.087,0.268-0.215,0.369-0.322c0.047-0.054,0.127-0.148,0.154-0.161   c0.403-0.04,0.731-0.174,0.966-0.403c0.215-0.208,0.329-0.523,0.309-0.872c0.02-0.349-0.087-0.664-0.309-0.872   c-0.235-0.221-0.564-0.356-0.959-0.396c-0.034-0.013-0.121-0.107-0.168-0.161c-0.101-0.114-0.215-0.235-0.369-0.322   c-0.234-0.126-0.65-0.167-1.017-0.177c-0.01-0.371-0.05-0.795-0.177-1.031c-0.087-0.161-0.215-0.268-0.322-0.369   c-0.054-0.047-0.148-0.127-0.161-0.154c-0.04-0.403-0.174-0.731-0.403-0.966c-0.208-0.215-0.523-0.329-0.872-0.309   c-0.349-0.027-0.664,0.094-0.872,0.309C50.92,2.275,50.786,2.604,50.746,3c-0.013,0.034-0.107,0.121-0.161,0.168   c-0.114,0.101-0.235,0.215-0.322,0.369c-0.125,0.233-0.166,0.65-0.177,1.017c-0.369,0.01-0.789,0.05-1.024,0.177   c-0.161,0.087-0.268,0.215-0.369,0.322c-0.054,0.054-0.134,0.148-0.161,0.161c-0.403,0.04-0.731,0.174-0.966,0.403   c-0.215,0.208-0.329,0.523-0.309,0.872c-0.02,0.349,0.087,0.664,0.309,0.872C47.807,7.582,48.129,7.723,48.525,7.756z    M50.809,5.281c-0.001,0.001-0.002,0.002-0.003,0.003V5.281H50.809z M52.014,5.838c0.362,0,0.657,0.295,0.657,0.657   c0,0.362-0.295,0.657-0.657,0.657c-0.362,0-0.657-0.295-0.657-0.657C51.356,6.133,51.651,5.838,52.014,5.838z M53.221,5.283   c-0.001-0.001-0.002-0.002-0.003-0.003h0.003V5.283z" data-sg-fill="sg-fill-0" />
	<polygon fill="#010101" points="9.068,24.388 9.062,24.388 9.055,24.388  " data-sg-fill="sg-fill-0" />
	<path fill="#010101" d="M2.494,25.294c-0.134,0.577-0.107,1.362,0.537,1.926c0.557,0.49,1.308,0.463,1.858,0.315   c0.161,0.201,0.403,0.423,0.745,0.543c0.172,0.06,0.352,0.093,0.531,0.093c0.333-0.001,0.68-0.102,1.046-0.301   c0.181-0.101,0.289-0.302,0.268-0.517c0,0-0.168-1.603-0.228-2.133c-0.059-0.504-0.133-1.613-0.164-2.122   c0.123-0.109,0.254-0.209,0.392-0.294c0.02,0.369,0.141,0.704,0.369,0.973c0.334,0.401,0.767,0.608,1.214,0.61   c0.233-0.001,0.465-0.054,0.691-0.174c0.624-0.335,0.939-1.026,0.751-1.684c-0.161-0.597-0.617-1.006-1.255-1.141   c0.282-0.221,0.644-0.382,1.08-0.409c0.087-0.013,0.168-0.013,0.248-0.013c-0.121,0.369-0.148,0.731-0.067,1.053   c0.228,0.912,1.06,1.288,1.758,1.194c0.798-0.107,1.335-0.772,1.308-1.617c-0.013-0.403-0.181-0.765-0.49-1.047   c-0.154-0.134-0.329-0.248-0.537-0.342c0.067-0.027,0.127-0.047,0.188-0.047c0.18-0.013,0.459,0.034,0.778,0.109   c0,0,0.001,0,0.001,0c0.401,0.094,0.863,0.237,1.298,0.388c0.029,0.012,0.058,0.023,0.088,0.03c0.284,0.1,0.55,0.202,0.768,0.291   c0.268,0.107,0.577-0.02,0.691-0.289c0.107-0.268-0.02-0.577-0.289-0.691c-0.087-0.035-0.413-0.166-0.839-0.317   c-1.737-1.163-5.079-5.588-5.112-5.634c-0.107-0.141-0.282-0.221-0.463-0.208c-0.174,0.013-0.335,0.114-0.423,0.275   c-0.523,0.98-0.879,3.2,1.523,4.623c0.435,0.257,0.792,0.465,1.1,0.644c-0.23,0.136-0.451,0.315-0.651,0.537   c-0.288-0.013-0.604-0.013-0.939,0.007c-1.04,0.067-1.979,0.678-2.469,1.577c-0.518,0.167-1.012,0.466-1.429,0.84   c-0.049,0.017-0.097,0.04-0.141,0.072c-0.007,0.007-0.02,0.013-0.027,0.02c-0.751,0.228-2.751,0.396-3.925,0.456   c-0.228,0.007-0.423,0.168-0.483,0.389c-0.188,0.704-0.02,1.194,0.154,1.476C2.104,25.006,2.306,25.18,2.494,25.294z M9.921,15.512   h0.007c0.597,0.758,1.536,1.919,2.496,2.972c-0.309-0.181-0.678-0.396-1.12-0.657C10.068,17.102,9.86,16.183,9.921,15.512z    M11.698,21.047h0.007c0.396,0.081,0.584,0.215,0.671,0.289c0.101,0.087,0.148,0.181,0.148,0.302   c0.013,0.416-0.242,0.517-0.396,0.537c-0.174,0.02-0.496-0.034-0.584-0.403C11.497,21.584,11.558,21.316,11.698,21.047z    M8.572,22.409c0.141-0.02,0.282-0.02,0.403,0c0.382,0.06,0.483,0.255,0.523,0.403c0.06,0.208-0.081,0.382-0.228,0.463   c-0.121,0.067-0.356,0.127-0.611-0.174C8.532,22.946,8.505,22.691,8.572,22.409z M4.385,26.24c-0.121,0.013-0.342,0.02-0.463-0.121   c-0.188-0.221-0.054-0.751,0.429-1.167c0.302-0.262,0.624-0.376,0.872-0.376c0.148,0,0.268,0.047,0.342,0.127   c0.121,0.141,0.081,0.362,0.047,0.476c-0.074,0.242-0.242,0.49-0.476,0.691C4.909,26.072,4.634,26.206,4.385,26.24z" data-sg-fill="sg-fill-0" />
	<polygon fill="#010101" points="6.17,28.172 6.164,28.172 6.157,28.172  " data-sg-fill="sg-fill-0" />
	<path fill="#010101" d="M2.554,43.16c0.47,0.181,0.966,0.275,1.456,0.275h0.007c0.543,0,1.094-0.114,1.61-0.342   c0.98-0.429,1.738-1.214,2.127-2.214c0.389-1,0.362-2.093-0.067-3.073c-0.886-2.026-3.261-2.952-5.287-2.06   c-2.026,0.886-2.952,3.261-2.06,5.287C0.769,42.02,1.554,42.771,2.554,43.16z M2.829,36.713c0.382-0.168,0.785-0.248,1.181-0.248   c1.141,0,2.227,0.657,2.711,1.764c0.315,0.725,0.335,1.523,0.047,2.261c-0.282,0.731-0.839,1.315-1.563,1.63   c-0.725,0.315-1.523,0.335-2.261,0.047c-0.731-0.282-1.315-0.839-1.63-1.563C0.655,39.115,1.34,37.37,2.829,36.713z" data-sg-fill="sg-fill-0" />
	<path fill="#010101" d="M4.392,38.679c0.054,0,0.107-0.013,0.161-0.034c0.154-0.067,0.248-0.221,0.262-0.423   c0.007-0.148-0.027-0.309-0.094-0.463c-0.174-0.396-0.496-0.59-0.765-0.476c-0.154,0.067-0.248,0.221-0.262,0.423   c-0.007,0.141,0.027,0.309,0.094,0.463C3.929,38.484,4.164,38.679,4.392,38.679z" data-sg-fill="sg-fill-0" />
	<path fill="#010101" d="M2.909,39.33c0.054,0,0.107-0.013,0.161-0.034c0.268-0.121,0.342-0.49,0.168-0.886   c-0.107-0.228-0.268-0.409-0.443-0.476c-0.107-0.047-0.221-0.04-0.322,0c-0.154,0.067-0.248,0.221-0.262,0.423   c-0.007,0.141,0.027,0.309,0.094,0.463C2.447,39.135,2.681,39.33,2.909,39.33z" data-sg-fill="sg-fill-0" />
	<path fill="#010101" d="M3.084,40.39l-0.141,0.06c-0.004,0.002-0.006,0.005-0.01,0.007c-0.014,0.005-0.03,0.005-0.043,0.013   c-0.127,0.067-0.174,0.228-0.107,0.356c0.098,0.185,0.234,0.334,0.384,0.466c0.027,0.033,0.055,0.057,0.093,0.073   c0.297,0.225,0.653,0.36,1.026,0.36l-0.013-0.007c0.228,0,0.456-0.047,0.678-0.141c0.578-0.251,0.944-0.8,1-1.397   c0.016-0.045,0.017-0.093,0.008-0.141c0.002-0.189-0.023-0.381-0.088-0.569c-0.047-0.134-0.201-0.208-0.335-0.161   c-0.008,0.003-0.014,0.009-0.022,0.013C5.5,39.326,5.49,39.325,5.479,39.33l-0.141,0.06c-0.067,0.027-0.114,0.087-0.141,0.154   c-0.02,0.074-0.013,0.148,0.02,0.215l0.21,0.382c-0.04,0.407-0.29,0.781-0.687,0.953c-0.387,0.175-0.829,0.11-1.156-0.129   L3.44,40.544c-0.02-0.067-0.074-0.127-0.141-0.154C3.232,40.363,3.151,40.356,3.084,40.39z" data-sg-fill="sg-fill-0" />
	<path fill="#010101" d="M25.593,63.476c-0.684,0.189-2.314,0.571-3.643,0.63c-0.005,0-0.009,0-0.014,0.001   c-0.035,0.002-0.072,0.005-0.107,0.006c-0.315-0.228-1.107-0.892-1.872-2.341c-1.221-2.301-3.294-2.355-3.381-2.355   c-0.161-0.013-0.329,0.074-0.429,0.208c-0.101,0.134-0.134,0.309-0.087,0.47c0.013,0.047,0.315,1.087,0.611,1.905   c0.383,1.05,1.068,1.838,2.063,2.393c-0.488,0.315-1.067,0.806-1.627,1.572c-0.403,0.557-1.449,1.597-1.463,1.61   c-0.148,0.141-0.195,0.356-0.127,0.55c0.067,0.188,0.242,0.329,0.443,0.349c0.094,0.013,0.45,0.047,0.926,0.047h0.007   c0.993,0,2.509-0.148,3.328-0.959c0.389-0.389,0.704-0.845,1.013-1.288c0.318-0.461,0.641-0.917,0.944-1.121   c1.716-0.106,3.598-0.632,3.706-0.663c0.282-0.074,0.443-0.369,0.362-0.651C26.17,63.556,25.875,63.395,25.593,63.476z    M17.67,61.637c-0.107-0.307-0.221-0.655-0.321-0.962c0.515,0.216,1.175,0.665,1.676,1.6c0.342,0.644,0.698,1.154,1.02,1.557   C18.817,63.402,18.052,62.691,17.67,61.637z M19.474,66.81c-0.456,0.456-1.422,0.611-2.241,0.644   c0.268-0.295,0.55-0.617,0.731-0.865c0.882-1.216,1.772-1.57,2.063-1.661c0.151,0.045,0.299,0.093,0.459,0.131   c0.087,0.02,0.184,0.031,0.277,0.046c-0.136,0.18-0.27,0.368-0.405,0.564C20.085,66.079,19.796,66.495,19.474,66.81z" data-sg-fill="sg-fill-0" />
	<path fill="#010101" d="M58.931,64.301c-0.403,0.094-2.429,0.597-3.113,1.382c-0.201,0.228-0.396,0.517-0.597,0.825   c-0.342,0.517-0.765,1.154-1.174,1.328c-0.261,0.065-0.546,0.131-0.84,0.196c0.486-0.464,0.987-1.163,1.423-2.215l1.799-1.947   c0.454-0.233,1.992-1.119,1.992-2.294c0.007-0.738-0.423-1.107-0.825-1.201c-0.268-0.063-0.559-0.024-0.815,0.09c0,0,0,0,0,0   c-0.059-0.085-0.126-0.172-0.199-0.26c-0.019-0.023-0.038-0.044-0.058-0.067c-0.058-0.067-0.12-0.13-0.185-0.193   c-0.03-0.029-0.059-0.056-0.09-0.083c-0.065-0.057-0.134-0.107-0.206-0.155c-0.033-0.022-0.064-0.047-0.098-0.067   c-0.107-0.063-0.218-0.116-0.336-0.151c-0.086-0.025-0.177-0.034-0.269-0.036c-0.021-0.001-0.041-0.001-0.063-0.001   c-0.09,0.002-0.182,0.011-0.275,0.03c-0.014,0.003-0.028,0.007-0.042,0.01c-0.083,0.018-0.165,0.042-0.247,0.07   c-0.024,0.008-0.047,0.015-0.071,0.024c-0.087,0.032-0.172,0.067-0.255,0.106c-0.031,0.014-0.059,0.029-0.09,0.044   c-0.056,0.028-0.11,0.056-0.163,0.085c-0.033,0.018-0.066,0.035-0.098,0.054c0,0,0,0,0,0c-0.223-0.284-0.565-0.486-0.923-0.507   c-0.416-0.027-0.933,0.201-1.147,0.906c-0.326,1.068,0.746,2.29,1.165,2.716l0.476,2.518c-0.638,1.486-1.359,2.043-1.839,2.247   c-0.012-0.713-0.1-1.408-0.608-1.758c-0.429-0.302-1.053-0.322-1.557-0.047c-0.503,0.275-0.785,0.778-0.765,1.389   c0.007,0.255,0.114,0.631,0.564,0.986c0.262,0.201,0.604,0.369,0.986,0.496c-0.235,0.376-0.557,0.731-0.825,0.819   c-0.255,0.081-0.59,0.094-0.926,0.054c0.201-0.825,0.013-1.53-0.55-1.912c-0.463-0.309-1.154-0.275-1.644,0.094   c-0.483,0.362-0.657,0.946-0.463,1.55c0.107,0.335,0.396,0.624,0.865,0.859c0.081,0.04,0.161,0.08,0.248,0.114   c-0.47,0.523-1.295,1.241-1.885,1.704c-0.228,0.181-0.268,0.517-0.087,0.745c0.107,0.134,0.262,0.201,0.416,0.201l-0.013,0.013   c0.114,0,0.235-0.04,0.329-0.114c0.315-0.242,1.738-1.382,2.341-2.221c0.597,0.094,1.221,0.101,1.697-0.06   c0.604-0.201,1.201-0.879,1.557-1.57c0.678,0.101,1.362,0.107,1.858,0c0.268-0.06,0.523-0.114,0.772-0.174   c0.027,0,0.054-0.013,0.081-0.013c0.06-0.013,0.121-0.034,0.181-0.054c2.053-0.503,3.314-1.033,3.757-1.577   c0.684-0.825,1.389-2.16,1.416-2.214c0.101-0.181,0.081-0.409-0.047-0.57C59.34,64.328,59.132,64.254,58.931,64.301z    M47.612,69.467c-0.322-0.121-0.564-0.255-0.617-0.362c-0.074-0.221,0.007-0.315,0.087-0.376c0.094-0.067,0.201-0.094,0.288-0.094   v0.007c0.054,0,0.101,0.007,0.128,0.027C47.686,68.796,47.7,69.125,47.612,69.467z M55.288,60.51   c0.188,0.034,0.289,0.228,0.335,0.342c0.094,0.235,0.114,0.537,0.054,0.839c-0.06,0.302-0.188,0.577-0.362,0.758   c-0.08,0.087-0.255,0.228-0.436,0.195c-0.188-0.034-0.288-0.228-0.335-0.342c-0.094-0.235-0.114-0.537-0.054-0.839   c0.114-0.59,0.47-0.959,0.745-0.959v0.007C55.254,60.51,55.267,60.51,55.288,60.51z M50.054,67.494   c-0.121-0.094-0.154-0.168-0.154-0.188c-0.007-0.208,0.067-0.349,0.215-0.429c0.086-0.04,0.173-0.06,0.253-0.06   c0.085,0.001,0.151,0.02,0.19,0.046c0.04,0.034,0.141,0.201,0.154,0.959C50.444,67.729,50.215,67.622,50.054,67.494z    M57.294,66.595c-0.141,0.168-0.57,0.403-1.302,0.664c0.034-0.06,0.074-0.114,0.114-0.174c0.188-0.275,0.356-0.537,0.517-0.718   c0.195-0.221,0.731-0.47,1.308-0.678C57.73,66.005,57.508,66.334,57.294,66.595z" data-sg-fill="sg-fill-0" />
	<path fill="#010101" d="M69.263,51.782c-0.262-0.342-0.356-0.691-0.195-1.107c0.107-0.275,0.201-0.557,0.282-0.845   c0.067-0.255-0.007-0.503-0.168-0.698c-0.154-0.188-0.349-0.356-0.537-0.51c-0.382-0.315-0.818-0.369-1.241-0.114   c-0.463,0.282-0.919,0.59-1.328,0.946c-0.986,0.845-1.094,1.711-0.329,2.737c0.416,0.557,0.892,1.067,1.362,1.577   c0.309,0.329,0.57,0.671,0.725,1.107c0.517,1.449,0.208,2.731-0.765,3.878c-0.577,0.684-1.355,0.865-2.16,0.584   c-1.295-0.45-2.18-1.342-2.476-2.731c-0.127-0.597-0.087-1.174,0.074-1.764c0.208-0.765,0.403-1.536,0.496-2.321   c0.101-0.859-0.295-1.436-1.08-1.751c-0.745-0.309-1.536-0.396-2.335-0.356c-0.315,0.013-0.577,0.174-0.725,0.45   c-0.134,0.262-0.248,0.543-0.329,0.825c-0.087,0.302-0.02,0.59,0.201,0.825c0.306,0.313,0.62,0.62,0.946,0.946   c-0.027,0.369-0.04,0.711-0.087,1.053c-0.094,0.691-0.195,1.375-0.309,2.06c-0.57,3.334,2.63,6.407,5.683,6.132   c1.355-0.121,2.643-0.45,3.851-1.053c0.436-0.215,0.845-0.53,1.194-0.872c1.865-1.818,2.174-4.777,0.731-6.951   C70.282,53.123,69.773,52.453,69.263,51.782z M66.968,51.399c-0.245,0-0.443-0.198-0.443-0.443s0.198-0.443,0.443-0.443   s0.443,0.198,0.443,0.443S67.213,51.399,66.968,51.399z M61.272,51.976c0.245,0,0.443,0.198,0.443,0.443   c0,0.245-0.198,0.443-0.443,0.443c-0.245,0-0.443-0.198-0.443-0.443C60.829,52.174,61.028,51.976,61.272,51.976z M60.46,55.391   c0.228,2.261,0.966,4.401,2.825,5.79C60.957,60.457,59.883,57.632,60.46,55.391z M66.546,61.416c-0.315,0-0.57-0.255-0.57-0.57   c0-0.315,0.255-0.57,0.57-0.57s0.57,0.255,0.57,0.57C67.116,61.161,66.86,61.416,66.546,61.416z M69.088,59.893   c1.094-2.046,0.852-4.301,0.101-6.441C70.658,55.237,70.886,58.256,69.088,59.893z" data-sg-fill="sg-fill-0" />
	<path fill="#010101" d="M56.683,10.796c-0.436-0.08-0.966-0.087-1.449,0.134c-0.362,0.168-0.832,0.53-1.047,1.328   c-0.322,1.201,0.302,2.355,1.463,2.697c0.116,0.033,0.241,0.049,0.364,0.068c-0.385,0.454-0.628,0.999-0.652,1.542   c-0.034,0.725,0.315,1.355,0.986,1.764c0.557,0.335,1.201,0.221,1.724,0c0.013,0.584,0.174,1.248,0.765,1.61   c0.242,0.148,0.523,0.221,0.819,0.221l0.007,0.007c0.07,0,0.143-0.008,0.215-0.017l-0.772,2.526   c-0.047,0.154-0.02,0.322,0.074,0.456s0.248,0.221,0.409,0.228l1.838,0.087c0.007,0,0.027,0,0.027,0l-0.007,0.007   c0.215,0,0.409-0.134,0.49-0.335c0.101-0.248,0.953-2.422,0.637-3.683c-0.046-0.185-0.088-0.342-0.128-0.487   c0.214,0.082,0.441,0.125,0.678,0.125l-0.013,0.013c0.081,0,0.154-0.007,0.235-0.013c0.718-0.074,1.094-0.443,1.281-0.731   c0.302-0.47,0.329-1.033,0.288-1.476c0.376-0.04,0.832-0.154,1.188-0.45c0.342-0.282,0.53-0.691,0.55-1.181   c0.02-0.505-0.125-0.885-0.327-1.172c0.277-0.17,0.498-0.383,0.649-0.639c0.255-0.436,0.429-1.181-0.181-2.274   c-0.409-0.725-0.953-0.953-1.342-1.013c-0.288-0.04-0.57-0.013-0.832,0.054c0.02-0.255-0.013-0.517-0.148-0.758   c-0.309-0.577-0.852-0.879-1.496-0.852c-0.784,0.034-1.648,0.562-1.931,1.185C60.842,9.4,60.568,9.053,60.199,8.81   c-0.403-0.262-1.08-0.51-2.046-0.201c-0.59,0.188-1.026,0.543-1.261,1.04C56.703,10.031,56.663,10.44,56.683,10.796z M59.4,19.041   c-0.369-0.228-0.268-1.167-0.161-1.563c0.06-0.215-0.027-0.45-0.221-0.577s-0.443-0.114-0.624,0.027   c-0.403,0.322-1.154,0.704-1.489,0.496c-0.342-0.208-0.503-0.476-0.49-0.812c0.02-0.53,0.463-1.127,1.053-1.422   c0.446-0.223,1.445-0.459,2.315-0.634c-0.182,0.319-0.257,0.706-0.169,1.11c0.365-0.039,0.678-0.19,0.917-0.412   c0.068,0.567,0.189,1.22,0.4,1.826c0.131,1.194-0.528,1.721-0.734,1.854C59.91,19.115,59.595,19.162,59.4,19.041z M61.084,22.382   l-0.772-0.04l0.859-2.798c0.006-0.019,0.002-0.038,0.006-0.057c0.084-0.084,0.164-0.177,0.24-0.278   c0.04,0.141,0.082,0.299,0.13,0.49C61.695,20.309,61.379,21.544,61.084,22.382z M65.6,15.19c-0.013,0.242-0.107,0.349-0.174,0.409   c-0.289,0.242-0.886,0.221-1.073,0.201c-0.181-0.027-0.362,0.04-0.476,0.181c-0.114,0.134-0.154,0.322-0.101,0.496   c0.067,0.215,0.201,0.912-0.034,1.275c-0.06,0.094-0.181,0.228-0.51,0.262c-0.268,0.027-0.496-0.04-0.698-0.228   c-0.256-0.23-0.45-0.6-0.598-1.026c-0.008-0.018-0.01-0.039-0.02-0.056c-0.179-0.536-0.287-1.156-0.348-1.708   c0.222,0.281,0.6,0.427,1.04,0.327c0.079-0.331,0.013-0.627-0.142-0.851c0.525,0.036,1.149,0.064,1.832,0.066h0.02l-0.007-0.007   c0.33,0,0.636-0.026,0.918-0.075C65.378,14.527,65.616,14.713,65.6,15.19z M63.023,9.635c0.242,0,0.409,0.081,0.53,0.302   c0.101,0.188-0.161,0.765-0.456,1.141c-0.174,0.215-0.148,0.53,0.054,0.718c0.201,0.188,0.517,0.188,0.718,0   c0.201-0.188,0.892-0.704,1.422-0.617c0.087,0.013,0.342,0.054,0.584,0.49c0.201,0.362,0.403,0.872,0.195,1.221   c-0.221,0.376-0.886,0.604-1.771,0.59c-0.865-0.005-1.646-0.052-2.227-0.101c0.24-0.252,0.378-0.602,0.362-1.027   c-0.324-0.07-0.639-0.01-0.895,0.138c0.05-0.726,0.176-1.62,0.479-2.291C62.111,9.991,62.587,9.648,63.023,9.635z M57.146,12.03   c0.201,0.094,0.429,0.06,0.59-0.087c0.161-0.148,0.215-0.376,0.134-0.577c-0.074-0.188-0.228-0.819-0.02-1.261   c0.107-0.228,0.315-0.389,0.624-0.49c0.463-0.154,0.839-0.127,1.141,0.074c0.635,0.421,0.886,1.518,0.939,1.968   c-0.055,0.406-0.084,0.793-0.098,1.127c-0.31-0.228-0.725-0.309-1.156-0.176c0.014,0.364,0.159,0.668,0.379,0.889   c-0.593,0.117-1.295,0.272-1.878,0.448c-0.015,0.001-0.029-0.004-0.044-0.001c-0.309,0.054-1.234,0.154-1.811-0.013   c-0.503-0.148-0.946-0.644-0.738-1.402c0.087-0.322,0.242-0.537,0.463-0.637C56.153,11.661,56.898,11.916,57.146,12.03z" data-sg-fill="sg-fill-0" />
	<polygon fill="#010101" points="13.154,53.419 13.152,53.418 13.148,53.419  " data-sg-fill="sg-fill-0" />
	<path fill="#010101" d="M14.07,47.951c-0.569-0.598-2.948-2.909-5.888-2.992c-1.664-0.047-3.194,0.631-4.549,2.013   c-2.805,2.859-2.22,8.373-2.188,8.654c-0.28,0.3-0.455,0.699-0.455,1.141c0,0.926,0.751,1.677,1.677,1.677   c0.369,0,0.718-0.121,1-0.335c0.315,0.295,0.738,0.47,1.188,0.47v0.007c0.966,0,1.751-0.785,1.751-1.751   c0-0.107-0.007-0.221-0.02-0.335c0.611-0.208,1.047-0.785,1.047-1.463c0-0.545-0.287-1.024-0.716-1.301   c-0.176-0.736-0.329-1.975-0.069-2.564c0.329-0.751,1.255-1.328,2.227-0.993c0.269,0.093,0.558,0.276,0.81,0.465   c-0.335,0.283-0.548,0.706-0.548,1.179c0,0.852,0.691,1.543,1.543,1.543c0.51,0,0.892-0.221,1.167-0.51   c0.268,0.295,0.636,0.562,1.104,0.563c0.964-0.002,1.747-0.786,1.747-1.751c0-0.329-0.093-0.635-0.25-0.898   c0.424-0.277,0.707-0.755,0.707-1.296C15.355,48.712,14.797,48.078,14.07,47.951z M13.805,48.977c0.268,0,0.49,0.221,0.49,0.49   c0,0.268-0.221,0.49-0.49,0.49c-0.268,0-0.49-0.221-0.49-0.49C13.315,49.199,13.53,48.977,13.805,48.977z M4.385,47.709   c1.141-1.161,2.415-1.731,3.764-1.697c2.046,0.053,3.85,1.449,4.715,2.241c-0.237,0.183-0.418,0.431-0.518,0.719   c-0.559-0.515-1.714-1.432-3.144-1.746c-2.113-0.463-3.958,0.476-4.931,2.523c-0.611,1.286-0.604,3.192-0.546,4.215   c-0.028-0.002-0.055-0.009-0.084-0.009c-0.501,0-0.941,0.261-1.201,0.656C2.395,52.997,2.541,49.589,4.385,47.709z M6.07,55.525   c-0.148,0-0.322,0.074-0.423,0.188c-0.201,0.221-0.168,0.496-0.134,0.805c0.013,0.107,0.027,0.215,0.027,0.315   c0,0.382-0.309,0.691-0.691,0.691c-0.289,0-0.543-0.188-0.644-0.463c-0.074-0.208-0.262-0.349-0.476-0.356c-0.007,0-0.02,0-0.02,0   v0.007c-0.208,0-0.396,0.121-0.483,0.309C3.124,57.25,2.903,57.39,2.661,57.39c-0.342,0-0.617-0.282-0.617-0.624   c0-0.342,0.275-0.624,0.617-0.624c0.288,0,0.584-0.235,0.584-0.751c0-0.215,0.174-0.389,0.389-0.389   c0.215,0,0.389,0.174,0.389,0.389c0,0.423,0.45,0.751,0.832,0.751c0.268,0,0.725-0.141,0.725-1.107c0-0.268,0.221-0.49,0.49-0.49   c0.268,0,0.49,0.221,0.49,0.49C6.559,55.304,6.345,55.525,6.07,55.525z M5.882,50.748c-0.355,0.813-0.222,2.027-0.088,2.768   c-0.409,0.078-0.759,0.314-0.987,0.644c-0.062-0.82-0.132-2.769,0.432-3.955c0.758-1.597,2.12-2.301,3.744-1.946   c0.912,0.205,1.707,0.724,2.245,1.151c-0.207,0.143-0.374,0.337-0.484,0.565c-0.347-0.283-0.824-0.621-1.318-0.79   C8.035,48.709,6.479,49.393,5.882,50.748z M13.154,52.359c-0.201,0-0.51-0.409-0.637-0.704c-0.081-0.195-0.275-0.315-0.483-0.315   l-0.007-0.007c-0.007,0-0.02,0-0.027,0c-0.215,0.013-0.409,0.161-0.476,0.369c-0.007,0.02-0.195,0.597-0.644,0.597   c-0.268,0-0.483-0.215-0.483-0.483c0-0.268,0.215-0.483,0.483-0.483c0.034,0,0.081,0.013,0.134,0.027   c0.188,0.054,0.389,0,0.523-0.134c0.134-0.134,0.188-0.335,0.134-0.523c-0.02-0.047-0.02-0.081-0.02-0.107   c0-0.215,0.174-0.389,0.389-0.389c0.188,0,0.349,0.148,0.376,0.335c0.02,0.141,0.101,0.268,0.215,0.356   c0.114,0.087,0.262,0.121,0.403,0.094c0.409-0.067,0.812,0.255,0.812,0.678C13.845,52.05,13.537,52.359,13.154,52.359z" data-sg-fill="sg-fill-0" />
</g>
</g></svg>