<?xml version="1.0" encoding="utf-8"?>
<svg xmlns="http://www.w3.org/2000/svg" width="742" height="1002" viewBox="0 0 742 1002">
  <path fill-rule="evenodd" d="M 451.220 5.267 C 449.966 7.045, 447.806 12.197, 446.420 16.715 L 443.900 24.931 438.200 22.341 C 428.737 18.041, 423.102 16, 420.689 16 C 416.069 16, 414.811 19.850, 417.380 26.128 C 420.664 34.152, 421.183 33.626, 410.050 33.560 C 402.112 33.512, 399.753 33.832, 398.445 35.133 C 396.114 37.454, 397.602 39.719, 405.579 45.988 C 409.223 48.852, 411.821 51.547, 411.353 51.977 C 410.884 52.407, 408.700 53.324, 406.500 54.015 C 397.205 56.933, 390 62.221, 390 66.123 C 390 68.800, 394.108 71.063, 402.674 73.103 C 406.835 74.095, 410.523 75.204, 410.870 75.568 C 411.216 75.933, 409.947 77.416, 408.049 78.865 C 402.090 83.414, 397 88.702, 397 90.344 C 397 93.106, 404.336 94.281, 416.745 93.506 C 425.469 92.961, 428 93.084, 428 94.055 C 428 94.744, 426.450 98.079, 424.556 101.467 C 420.566 108.601, 416 121.552, 416 125.735 C 416 127.321, 416.605 129.445, 417.344 130.456 C 419.465 133.357, 422.938 131.789, 432.690 123.530 L 441.500 116.068 442.076 129.784 C 442.723 145.193, 443.755 149, 447.288 149 C 449.837 149, 453.852 145.230, 456.341 140.500 C 457.836 137.659, 457.922 138.407, 457.960 154.583 C 457.982 163.979, 457.769 171.897, 457.488 172.179 C 457.206 172.461, 451.693 170.036, 445.238 166.789 C 430.570 159.414, 423.659 158.066, 412.343 160.374 C 399.125 163.069, 387.031 169.813, 383.433 176.494 C 381.558 179.977, 381.559 180.004, 383.762 182.207 C 385.811 184.255, 386.292 184.328, 390.238 183.179 C 411.524 176.983, 429.035 176.384, 439.320 181.498 C 442.521 183.090, 448.033 187.044, 451.570 190.285 L 458 196.177 457.985 214.839 C 457.976 225.102, 457.593 234.094, 457.132 234.821 C 456.446 235.902, 455.250 235.838, 450.527 234.465 C 446.690 233.349, 442.415 232.920, 437.759 233.183 C 431.632 233.530, 430.467 233.919, 428.416 236.303 C 427.127 237.801, 426.306 239.635, 426.592 240.378 C 427.392 242.463, 431.632 244, 436.587 244 C 442.470 244, 447.467 246.654, 453.275 252.863 L 458 257.914 458 265.332 C 458 274.632, 457.152 279, 455.345 279 C 454.572 279, 451.141 277.790, 447.720 276.311 C 442.611 274.103, 439.946 273.612, 432.801 273.561 C 423.645 273.497, 422.231 274.057, 421.779 277.930 C 421.527 280.083, 422.470 280.711, 431.370 284.320 C 439.135 287.468, 442.346 289.406, 446.430 293.411 C 453.343 300.189, 458 309.546, 458 316.660 C 458 323.443, 456.828 323.544, 448.724 317.452 C 442.553 312.813, 438.806 311.999, 438.203 315.167 C 438.024 316.103, 440.448 319.661, 443.735 323.288 C 446.952 326.838, 451.005 332.409, 452.742 335.668 C 458.001 345.535, 458.359 348.938, 456.452 371 C 454.398 394.773, 454.154 395.415, 451.550 383.919 C 450.750 380.388, 449.135 373.225, 447.959 368 C 444.802 353.964, 434.606 323.987, 428.964 312.154 C 426.251 306.463, 420.120 295.962, 415.341 288.818 C 407.706 277.408, 406.597 275.189, 406.213 270.556 C 405.054 256.584, 414.153 239.750, 436.750 214.055 C 442.073 208.002, 443 206.385, 443 203.149 C 443 200.355, 442.316 198.707, 440.417 196.924 C 438.175 194.820, 436.887 194.502, 430.667 194.516 C 424.650 194.530, 422.653 194.999, 418.226 197.438 C 404.242 205.143, 395.463 222.466, 393.490 246.250 C 393.038 251.696, 392.336 254.990, 391.632 254.973 C 391.009 254.958, 381.892 246.521, 371.371 236.223 C 354.411 219.622, 351.886 216.728, 349.092 210.685 C 342.760 196.990, 341.910 187.371, 345.593 171.096 C 348.327 159.016, 355.323 149.889, 365.523 145.094 C 371.179 142.435, 376.065 142.456, 388.180 145.188 C 402.077 148.322, 405.181 146.362, 403.550 135.484 C 401.693 123.103, 387.615 114.179, 371.579 115.217 C 354.715 116.309, 340.431 128.357, 332.713 148 C 327.545 161.152, 327.129 169.699, 330.627 190.831 C 331.476 195.963, 331.940 200.393, 331.658 200.675 C 331.198 201.135, 300.835 184.931, 293.570 180.348 C 289.590 177.837, 289.291 176.197, 292.679 175.461 C 306.737 172.406, 316.132 167.392, 314.716 163.701 C 313.767 161.230, 307.646 158.566, 294.736 155.008 C 288.266 153.224, 282.743 151.394, 282.463 150.941 C 282.184 150.488, 288.958 145.952, 297.519 140.861 C 317.948 128.712, 326.737 119.586, 323.294 114.095 C 321.398 111.071, 301.784 111.864, 287.902 115.526 C 284.655 116.382, 282.179 116.579, 281.624 116.024 C 281.070 115.470, 282.736 112.767, 285.850 109.174 C 290.964 103.271, 294.936 96.112, 294.978 92.725 C 294.990 91.724, 293.872 90.522, 292.413 89.967 C 288.807 88.596, 284.247 90.792, 267.696 101.869 C 260.192 106.891, 253.690 111, 253.246 111 C 252.802 111, 251.929 109.650, 251.306 108 C 250.594 106.115, 249.467 105, 248.271 105 C 245.248 105, 237.725 113.329, 231.976 123.040 L 226.684 131.980 221.092 131.407 C 218.016 131.091, 214.880 130.638, 214.123 130.399 C 213.365 130.160, 210.517 130.260, 207.795 130.622 C 199.786 131.684, 199.530 135.720, 206.359 153.260 L 208.990 160.020 204.745 161.697 C 194.897 165.589, 186.515 170.588, 184.287 173.898 C 180.949 178.857, 182.405 180, 192.063 180 C 196.364 180, 200.093 180.341, 200.351 180.758 C 200.608 181.175, 197.039 187.750, 192.419 195.368 C 182.171 212.267, 177.668 225.168, 181.502 226.639 C 184.612 227.832, 188.089 225.753, 197.587 217.021 C 202.965 212.077, 207.509 208.176, 207.685 208.352 C 207.861 208.528, 207.094 212.908, 205.980 218.086 C 203.378 230.177, 202.286 254.423, 204.186 257.921 C 206.188 261.610, 207.522 261.483, 212.200 257.157 C 218.051 251.746, 222.138 244.645, 229.044 227.894 C 232.260 220.092, 235.333 213.267, 235.872 212.728 C 236.513 212.087, 238.414 214.823, 241.359 220.624 C 243.837 225.506, 248.294 232.650, 251.263 236.500 C 255.763 242.335, 257.147 243.500, 259.581 243.500 L 262.500 243.500 263.190 231 C 263.695 221.844, 263.495 216.397, 262.440 210.640 C 259.890 196.720, 260.320 196.057, 268.964 200.577 C 275.337 203.908, 278.628 203.587, 278.169 199.678 C 277.987 198.126, 277.200 195.328, 276.419 193.461 C 275.039 190.158, 274.514 186, 275.477 186 C 279.364 186, 304.983 198.553, 316.815 206.254 C 325.485 211.899, 339.531 222.667, 342.405 225.874 L 344.310 228 333.193 228 C 324.276 228, 320.941 228.424, 316.347 230.143 C 300.399 236.110, 285.646 249.333, 277.639 264.835 C 275.013 269.919, 271.996 276.606, 270.933 279.696 C 267.226 290.469, 269.062 307.355, 274.663 314.012 C 276.803 316.555, 277.883 317, 281.915 317 C 289.446 317, 289.997 315.951, 297.865 286.643 C 302.841 268.112, 305.407 260.196, 306.982 258.519 C 308.188 257.236, 312.574 254.460, 316.730 252.350 C 324.077 248.621, 324.550 248.521, 333.797 248.741 C 340.116 248.891, 345.130 248.437, 348.738 247.388 C 355.251 245.494, 359.210 246.068, 367.086 250.043 C 372.809 252.932, 374.453 254.591, 386.232 269.356 C 397.312 283.244, 401 288.319, 401 289.674 C 401 291.612, 396.482 291.297, 389 288.837 C 383.868 287.150, 380.080 286.703, 371 286.715 C 351.166 286.740, 336.818 292.094, 326.219 303.426 C 323.073 306.788, 319.004 312.579, 317.175 316.294 C 309.961 330.950, 312.511 346.007, 322.205 345.996 C 326.934 345.991, 330.720 343.302, 338.577 334.370 C 354.204 316.606, 366.674 306.831, 377.500 303.859 C 382.147 302.584, 402.105 303.469, 407.211 305.177 C 411.080 306.471, 414.675 309.504, 416.483 313 C 419.054 317.970, 428.086 344.333, 427.628 345.528 C 427.296 346.391, 423.915 345.453, 416.168 342.348 C 399.189 335.544, 385.477 334.946, 373.208 340.475 C 363.014 345.069, 359.178 351.704, 362.340 359.272 C 365.532 366.911, 374.727 367.903, 387.572 361.995 C 407.387 352.880, 413.973 351.976, 424.378 356.942 C 433.394 361.245, 434.588 362.920, 436.493 373.933 C 438.060 382.991, 437.923 388, 436.107 388 C 435.636 388, 433.282 387.299, 430.876 386.443 C 428.469 385.586, 421.100 384.438, 414.500 383.892 L 402.500 382.899 398.832 378.701 C 396.815 376.391, 394.887 374.780, 394.548 375.119 C 394.208 375.458, 394.387 377.708, 394.945 380.118 C 395.853 384.042, 395.738 384.684, 393.853 386.263 C 389.542 389.871, 387.564 389.535, 378.154 383.597 C 368.844 377.723, 363.377 375.283, 362.199 376.478 C 361.815 376.867, 365.723 381.100, 370.884 385.884 L 380.268 394.581 378.634 397.741 C 376.140 402.564, 376.527 406.482, 379.750 409.024 C 382.116 410.891, 383.289 411.105, 388.147 410.559 C 393.435 409.964, 393.929 410.094, 395.897 412.597 C 400.255 418.137, 398.157 419.132, 387.786 416.445 C 384.485 415.589, 380.820 415.032, 379.642 415.206 C 377.575 415.513, 377.591 415.585, 380.101 417.279 C 381.532 418.245, 387.563 420.800, 393.504 422.956 C 403.674 426.648, 406.855 428.602, 405.208 430.149 C 403.513 431.741, 395.689 433.130, 385.255 433.692 L 374.009 434.297 371.097 427.898 C 367.520 420.039, 360.306 408.945, 352.305 399 C 342.953 387.375, 340.968 382.596, 339.055 367.095 C 337.881 357.583, 336.161 352, 334.406 352 C 332.824 352, 332.133 354.005, 331.030 361.792 C 330.524 365.366, 329.724 368.676, 329.253 369.147 C 328.778 369.622, 321.520 364.377, 312.949 357.367 C 294.195 342.027, 284.464 335.521, 270.581 329.038 C 258.152 323.234, 254.816 321.033, 241.102 309.585 C 235.445 304.863, 230.394 301, 229.877 301 C 227.512 301, 228.107 304.417, 231.384 309.657 C 233.351 312.801, 234.856 315.472, 234.730 315.592 C 234.603 315.712, 230.900 315.127, 226.500 314.291 C 222.100 313.456, 212.650 312.711, 205.500 312.636 L 192.500 312.500 191.926 305.825 C 191.495 300.815, 190.720 298.321, 188.820 295.825 C 187.427 293.996, 185.979 291.522, 185.601 290.327 C 183.886 284.902, 172.027 278.196, 163.500 277.829 C 156.867 277.543, 143.256 279.342, 139.344 281.021 C 129.860 285.091, 121.442 298.176, 119.934 311.194 C 118.593 322.770, 118.840 328.378, 120.901 333.123 C 121.946 335.530, 123.118 339.525, 123.506 342 C 124.401 347.710, 126.954 350.465, 133.685 352.983 C 145.559 357.426, 162.291 356.385, 173.500 350.506 C 176.800 348.775, 180.444 347.113, 181.597 346.813 C 184.896 345.954, 188.921 339.852, 189.638 334.623 C 190.190 330.594, 189.957 329.583, 187.991 327.490 C 185.930 325.296, 185.871 324.987, 187.406 324.398 C 191.994 322.637, 230.670 325.457, 233 327.723 C 233.275 327.990, 229.675 331.736, 225 336.046 C 218.630 341.919, 216.785 344.171, 217.638 345.030 C 218.492 345.890, 220.767 345.300, 226.766 342.663 C 238.241 337.618, 244.427 336, 252.247 336 C 257.974 336, 260.339 336.566, 266.316 339.367 C 273.735 342.845, 282 348.373, 282 349.858 C 282 350.323, 278.307 350.988, 273.793 351.336 C 267.722 351.805, 265.101 352.454, 263.723 353.833 C 261.904 355.651, 262.074 355.726, 270.679 356.905 C 281.904 358.444, 303.508 365.726, 310.377 370.287 C 317.585 375.073, 332.676 391.454, 346.503 409.500 C 358.913 425.698, 364.112 434.289, 362.487 435.911 C 361.944 436.454, 359.651 437.193, 357.392 437.554 L 353.284 438.210 335.611 420.855 C 325.595 411.019, 315.389 401.945, 312.053 399.910 C 306.026 396.234, 293.640 391.724, 286.500 390.606 C 282.727 390.015, 282.613 390.068, 284.500 391.551 C 285.600 392.416, 290.887 395.828, 296.250 399.135 C 301.612 402.441, 306 405.564, 306 406.073 C 306 409.020, 294.821 404.542, 281.271 396.167 C 267.652 387.750, 255.949 382.460, 246.792 380.581 C 238.671 378.915, 229.987 378.485, 230.019 379.750 C 230.030 380.163, 237.905 383.800, 247.519 387.834 C 259.450 392.839, 265 395.658, 265 396.712 C 265 398.015, 263.787 398.179, 257.250 397.758 C 251.383 397.381, 247.799 396.481, 242.500 394.056 C 231.676 389.101, 226.032 387.992, 212.040 388.070 C 198.220 388.148, 192.621 389.231, 199.500 390.497 C 219.437 394.164, 226.831 396.300, 228.404 398.844 C 229.636 400.839, 220.152 402.282, 206.815 402.128 C 195.218 401.995, 192.129 402.300, 186.565 404.126 C 179.785 406.352, 178.838 407.250, 181.625 408.810 C 182.952 409.553, 182.033 410.589, 176.625 414.448 C 172.981 417.048, 170 419.403, 170 419.682 C 170 419.960, 172.250 419.878, 175 419.500 C 181.061 418.666, 181.378 419.719, 176.319 423.889 C 173.248 426.420, 172.920 427.032, 174.338 427.576 C 175.274 427.935, 178.252 427.278, 180.955 426.115 C 187.105 423.469, 188.378 423.447, 187.710 426 C 186.411 430.969, 194.743 427.082, 207.871 416.595 C 213.169 412.363, 215.688 411.069, 220.417 410.150 C 227.850 408.705, 234.679 408.672, 235.547 410.076 C 235.913 410.668, 232.227 415.258, 227.356 420.276 C 220.395 427.447, 218.892 429.482, 220.330 429.788 C 221.408 430.017, 224.081 428.571, 226.830 426.270 C 233.497 420.691, 243.233 414.265, 249.291 411.445 C 254.352 409.088, 265 407.963, 265 409.784 C 265 410.216, 263.538 411.417, 261.750 412.453 C 246.556 421.263, 236.866 429, 241.028 429 C 241.593 429, 246.880 426.810, 252.778 424.134 C 271.088 415.825, 274.551 414.783, 285.500 414.280 C 293.396 413.917, 295.921 414.138, 297.498 415.329 C 298.598 416.158, 299.273 417.037, 298.998 417.282 C 298.724 417.526, 292.200 419.828, 284.500 422.397 C 271.070 426.877, 265.953 429.275, 267.690 430.274 C 268.136 430.530, 272.325 429.885, 277 428.839 C 282.401 427.632, 291.523 426.720, 302.018 426.338 C 316.202 425.822, 318.718 425.955, 319.821 427.284 C 321.336 429.109, 322.334 428.744, 305.500 432.522 C 293.331 435.254, 286.024 438.424, 287.801 440.201 C 288.397 440.797, 290.801 440.768, 294.289 440.124 C 297.337 439.560, 307.570 438.578, 317.030 437.940 C 333.425 436.836, 334.350 436.871, 336.802 438.701 C 338.217 439.758, 339.511 441.044, 339.679 441.561 C 339.848 442.077, 333.261 446.008, 325.044 450.295 C 304.037 461.254, 301.941 464.170, 299.900 485.279 C 298.924 495.379, 298.917 507.436, 299.868 542.779 C 300.530 567.376, 301.569 593.350, 302.177 600.500 C 302.859 608.517, 303.050 623.657, 302.675 640 C 301.895 674.002, 298.368 738.778, 296.646 750.750 C 295.119 761.359, 295.122 761.363, 302.669 757.573 C 310.990 753.393, 321.675 750.926, 334.180 750.299 C 347.619 749.624, 354.622 750.693, 366.374 755.213 C 372.806 757.686, 375.580 759.507, 381.525 765.154 C 385.527 768.956, 390.496 774.526, 392.567 777.533 C 396.868 783.778, 398.307 784.413, 397.593 779.750 C 397.319 777.962, 396.820 773.575, 396.483 770 C 395.805 762.801, 391.479 748.873, 387.400 740.763 C 383.330 732.668, 375.015 720.280, 368.181 712.128 C 361.387 704.024, 360.647 701.263, 364.290 697.619 C 366.040 695.869, 368.171 695.180, 373.317 694.699 C 377.021 694.353, 382.051 693.186, 384.494 692.106 C 389.836 689.743, 399 681.430, 399 678.947 C 399 674.984, 386.822 667.840, 372.746 663.547 C 359.431 659.485, 358.737 656.352, 368.794 645.698 C 377.289 636.699, 380.793 631.597, 386.953 619.265 C 392.569 608.020, 395.557 599.649, 396.813 591.636 C 397.846 585.049, 397.229 584.714, 392.197 589.132 C 383.385 596.869, 371.879 598.279, 361.179 592.932 C 347.571 586.132, 339.994 570.622, 340.005 549.590 C 340.011 537.616, 343.221 516.197, 346.483 506.363 C 350.168 495.257, 358.599 478.285, 361.096 476.949 C 362.628 476.129, 364.866 476.120, 369.427 476.914 C 385.166 479.655, 399.777 477.560, 409.806 471.125 C 419.390 464.974, 419.274 465.275, 418.805 447.820 L 418.392 432.500 414.946 427.079 C 411.676 421.935, 411.501 421.205, 411.525 412.777 C 411.554 402.405, 411.850 402.038, 420.185 402.015 C 426.380 401.999, 439.929 404.529, 441.372 405.972 C 442.856 407.456, 443.458 425.743, 442.078 427.406 C 441.422 428.197, 439.105 429.144, 436.929 429.512 C 434.560 429.912, 432.565 430.944, 431.955 432.084 C 429.860 435.998, 434.552 502.020, 437.350 508 C 439.040 511.611, 444.217 512.611, 454.579 511.327 C 459.242 510.750, 463.297 510.036, 463.591 509.742 C 463.885 509.448, 464.828 505.448, 465.687 500.854 C 466.858 494.588, 467.279 485.008, 467.374 462.525 L 467.500 432.550 463.139 430.139 L 458.778 427.728 459.449 422.614 C 460.721 412.910, 462.925 411.648, 481.348 410.073 C 491.416 409.212, 492.700 408.853, 499.230 405.073 C 505.333 401.539, 510 399.970, 510 401.451 C 510 403.889, 502.560 432.220, 501.561 433.586 C 500.355 435.235, 499.672 435.285, 493.634 434.173 C 490 433.503, 485.949 433.226, 484.631 433.556 C 481.728 434.285, 481.027 437.532, 481.011 450.324 L 481 459.148 486.520 464.935 C 494.576 473.382, 503.424 477.273, 515.837 477.828 C 520.973 478.058, 528.534 477.704, 532.639 477.042 C 542.145 475.509, 543.338 476.222, 548.750 486.674 C 557.857 504.265, 562.945 525.526, 563.304 547.500 C 563.614 566.481, 559.416 578.763, 549.530 587.799 C 543.203 593.581, 537.114 596, 528.887 596 C 521.565 596, 518.869 594.950, 511.635 589.282 L 505.769 584.686 506.504 590.093 C 507.639 598.447, 510.762 607.559, 516.241 618.500 C 522.789 631.576, 526.939 637.737, 535.203 646.650 C 538.942 650.682, 542 654.635, 542 655.434 C 542 658.504, 537.478 661.746, 530.794 663.470 C 518.026 666.761, 505 674.639, 505 679.069 C 505 684.914, 518.877 693.552, 530 694.631 C 537.749 695.383, 541 697.708, 541 702.499 C 541 704.898, 539.659 707.180, 535.370 712.074 C 523.727 725.363, 514.104 742.553, 509.661 758 C 506.861 767.732, 505.073 785.817, 507.228 782.603 C 510.937 777.071, 520.135 766.070, 523.551 763.079 C 528.595 758.664, 539.574 753.657, 548.697 751.613 C 561.422 748.761, 583.389 750.211, 593.881 754.595 C 595.765 755.382, 597.510 755.824, 597.757 755.576 C 598.005 755.328, 597.422 748.460, 596.461 740.313 C 595.093 728.718, 594.840 721.155, 595.295 705.500 C 595.615 694.500, 595.456 675.825, 594.940 664 C 594.425 652.175, 593.321 612.125, 592.487 575 C 590.912 504.908, 589.733 482.364, 587.406 477.834 C 586.652 476.368, 582.427 471.894, 578.018 467.893 C 573.608 463.892, 570 460.243, 570 459.784 C 570 458.116, 575.734 456.775, 586.353 455.960 C 592.322 455.502, 597.470 454.863, 597.793 454.540 C 599.043 453.290, 595.065 450.827, 589.414 449.351 C 582.771 447.617, 577.977 447.975, 565.509 451.138 L 557.518 453.166 549.759 449.383 C 545.492 447.302, 542 445.051, 542 444.381 C 542 442.873, 547.813 439.201, 552.185 437.947 C 553.976 437.433, 565.354 436.323, 577.470 435.480 C 599.869 433.921, 603 433.501, 603 432.048 C 603 431.049, 596.316 430.258, 580.500 429.385 C 564.425 428.497, 563.779 428.210, 569.196 424.350 C 578.231 417.914, 582.858 417.741, 606.321 422.960 C 618.969 425.774, 626.833 426.157, 625.433 423.892 C 625.139 423.416, 621.659 422.053, 617.699 420.862 C 607.353 417.751, 595 412.955, 595 412.049 C 595 410.487, 607.559 405.595, 611.500 405.623 C 613.700 405.638, 621.350 407.754, 628.500 410.324 C 639.421 414.251, 642.619 414.991, 648.500 414.954 C 652.350 414.930, 656.845 414.336, 658.490 413.635 L 661.480 412.360 658.990 410.749 C 657.562 409.825, 652.279 408.673, 646.609 408.049 C 637.222 407.015, 630 404.785, 630 402.920 C 630 402.451, 634.837 401.940, 640.750 401.784 L 651.500 401.500 647.615 399.085 C 644.003 396.840, 643.859 396.577, 645.556 395.335 C 649.019 392.803, 655.250 393.743, 664.134 398.139 C 671.495 401.780, 674.079 403.882, 685.648 415.639 C 692.880 422.987, 699.555 429, 700.482 429 C 701.408 429, 702.013 428.539, 701.825 427.976 C 700.724 424.672, 686.309 406.322, 679.622 399.712 C 675.289 395.428, 672.016 391.651, 672.350 391.317 C 672.683 390.984, 675.103 390.507, 677.728 390.259 C 681.619 389.890, 683.977 390.456, 690.500 393.320 C 699.501 397.273, 710.163 401, 712.468 401 C 715.610 401, 713.808 398.991, 707.509 395.468 C 700.207 391.385, 699.305 390.480, 701.640 389.585 C 704.539 388.472, 710.323 390.034, 718.589 394.164 C 724.761 397.247, 728.257 398.331, 733.339 398.739 C 737.508 399.074, 740 398.896, 740 398.264 C 740 396.313, 731.248 389.213, 727.951 388.489 L 724.616 387.757 727.490 386.251 L 730.363 384.746 727.431 383.123 C 724.567 381.537, 721.645 381.449, 699.500 382.280 C 697.300 382.363, 689.032 382.334, 681.128 382.215 C 668.211 382.022, 666.887 381.841, 668.055 380.434 C 668.769 379.573, 678.500 374.421, 689.677 368.986 C 700.855 363.550, 710 358.600, 710 357.984 C 710 357.369, 709.212 357.090, 708.250 357.364 C 707.288 357.638, 703.800 358.397, 700.500 359.051 C 686.419 361.840, 671.350 368.402, 657.818 377.637 C 653.243 380.759, 647.664 384.130, 645.421 385.128 C 641.108 387.046, 630 388.785, 630 387.542 C 630 385.363, 635.563 379.773, 646.016 371.446 C 656.013 363.483, 660.487 359, 658.435 359 C 657.120 359, 646.767 364.777, 640.500 369.008 C 631.638 374.990, 624.281 381.603, 619.474 387.905 C 616.220 392.172, 614.689 393.208, 608.107 395.594 C 581.262 405.324, 557.244 418.814, 537.861 435.048 L 530.597 441.132 525.599 440.445 C 522.850 440.067, 518.778 439.218, 516.550 438.559 C 512.745 437.433, 512.517 437.153, 512.775 433.930 C 513.274 427.700, 518.076 412.615, 521.818 405.520 C 524.804 399.858, 526.067 398.406, 528.500 397.834 C 538.614 395.453, 541.161 394.511, 544.084 392.071 C 548.757 388.169, 547.346 386.574, 539.908 387.352 C 536.710 387.686, 533.851 387.569, 533.556 387.091 C 532.338 385.120, 552.676 374, 557.499 374 C 558.455 374, 559.207 375.444, 559.631 378.093 C 560.914 386.120, 567.293 390.379, 574.480 388.007 C 581.243 385.775, 584.480 376.435, 580.563 370.457 C 575.461 362.669, 566.117 361.941, 550.359 368.101 C 544.590 370.357, 539.673 372.006, 539.433 371.766 C 538.655 370.989, 548.635 351.656, 552.624 346.211 C 556.123 341.436, 556.792 340.975, 559.500 341.469 C 561.150 341.770, 564.495 343.412, 566.934 345.117 C 571.118 348.043, 571.442 348.116, 572.684 346.418 C 574.504 343.928, 574.334 340.901, 572 334.260 C 570.900 331.130, 570 327.848, 570 326.966 C 570 324.678, 587.267 319.864, 597.700 319.243 L 605.900 318.754 606.540 321.627 C 608.904 332.245, 611.248 334.570, 618.737 333.726 C 624.954 333.025, 628 329.663, 628 323.500 C 628 317.730, 625.188 314.564, 617.775 311.989 C 610.845 309.581, 602.674 309.451, 590.637 311.557 C 585.762 312.409, 581.580 312.913, 581.342 312.676 C 581.105 312.438, 585.769 307.233, 591.705 301.108 C 598.658 293.936, 603.237 289.977, 604.569 289.986 C 605.708 289.994, 609.051 291.800, 612 294 C 620.747 300.526, 623.766 299.171, 619.148 290.793 C 614.740 282.796, 614.518 280.733, 617.804 278.303 C 619.321 277.182, 622.458 275.297, 624.776 274.114 C 630.580 271.153, 652.555 265, 657.325 265 C 661.076 265, 661.208 265.111, 660.597 267.750 C 658.099 278.543, 658.669 282.218, 663.277 285.027 C 672.203 290.470, 685 283.220, 685 272.720 C 685 267.237, 681.862 262.596, 676.349 259.927 C 672.287 257.960, 670.303 257.726, 658.637 257.833 C 646.586 257.944, 645.665 257.826, 647.500 256.403 C 651.328 253.433, 663.319 246.732, 668.891 244.449 L 674.500 242.150 678.591 246.575 C 683.287 251.655, 686.631 252.266, 691.500 248.934 C 693.150 247.805, 698.100 245.177, 702.500 243.094 C 711.275 238.940, 713.143 237.295, 715.506 231.640 C 718.015 225.635, 714.760 219.158, 707.599 215.905 C 702.115 213.415, 699.181 213.531, 693.682 216.454 C 689.410 218.726, 688.663 218.824, 683.639 217.770 C 678.925 216.781, 677.863 216.860, 675.561 218.368 C 672.064 220.659, 670.813 224.250, 671.166 230.978 L 671.456 236.500 666.978 238.472 C 664.515 239.557, 655.606 243.944, 647.179 248.222 C 638.753 252.500, 631.425 256, 630.894 256 C 629.387 256, 631.618 252.477, 637.563 245.469 C 645.225 236.437, 646.992 233.194, 646.996 228.151 C 647.003 219.834, 641.454 213.013, 634.673 213.004 C 628.844 212.996, 622.655 223.332, 624.921 229.291 C 625.441 230.659, 627.261 233.367, 628.967 235.309 C 630.822 237.423, 631.650 239.098, 631.029 239.482 C 628.768 240.880, 622.162 251.928, 619.060 259.500 C 615.844 267.349, 613.547 271, 611.823 271 C 611.346 271, 609.053 269.282, 606.728 267.182 C 600.344 261.417, 597.208 259.516, 589 256.438 C 582.497 253.999, 580.038 253.618, 570.500 253.572 C 559.955 253.522, 559.140 253.675, 550.807 257.260 C 542.134 260.991, 539 261.758, 539 260.150 C 539 257.372, 557.625 234.891, 573.170 218.906 C 581.771 210.062, 583.047 209.133, 589.500 207.016 C 603.545 202.407, 616.343 194.572, 630.986 181.615 C 635.104 177.972, 638.920 175.140, 639.467 175.322 C 640.013 175.504, 641.578 177.869, 642.945 180.577 C 644.311 183.285, 648.657 188.762, 652.602 192.750 C 659.351 199.573, 660.035 200, 664.190 200 C 670.273 200, 684.061 193.355, 685.773 189.599 C 687.248 186.361, 687.334 182.653, 686.039 178.136 C 685.190 175.176, 685.417 174.361, 687.989 171.143 C 692.719 165.223, 697.156 153.665, 696.802 148.183 C 696.366 141.424, 694.241 142.152, 690.991 150.174 C 689.504 153.845, 685.973 160.324, 683.144 164.572 C 680.315 168.821, 678 172.623, 678 173.021 C 678 173.420, 678.904 175.789, 680.008 178.286 C 682.703 184.378, 681.607 187.038, 674.791 190.947 C 668.555 194.523, 665.041 194.874, 664.288 191.995 C 663.993 190.864, 661.939 189.182, 659.578 188.137 C 656.647 186.841, 654.466 184.819, 652.303 181.393 C 647.846 174.333, 647.511 172.528, 649.928 168.617 C 651.068 166.773, 652 164.861, 652 164.368 C 652 163.875, 650.200 162.360, 648 161 C 644.109 158.595, 644 158.376, 644 152.965 C 644 147.462, 643.960 147.387, 640.317 146.070 C 638.292 145.338, 634.579 142.825, 632.067 140.486 C 628.251 136.934, 626.596 136.117, 622 135.522 C 614.840 134.595, 612.644 133.093, 611.148 128.100 C 609.778 123.527, 609.950 123.609, 604.712 125.063 C 601.560 125.938, 599.971 125.759, 595.254 123.994 L 589.585 121.873 586.196 125.953 C 582.227 130.730, 580.407 131.823, 573.568 133.530 C 570.781 134.226, 567.045 135.387, 565.267 136.111 C 562.191 137.362, 561.873 137.270, 558.720 134.213 C 556.896 132.446, 554.647 131, 553.721 131 C 551.495 131, 550.511 135.197, 552.043 138.157 C 555.757 145.327, 559.503 146.149, 572.032 142.545 C 577.091 141.089, 581.341 140.033, 581.476 140.199 C 581.611 140.365, 580.330 145, 578.629 150.500 C 575.552 160.451, 575.537 160.613, 575.519 183.735 L 575.500 206.970 556.046 226.448 C 545.347 237.161, 536.436 245.770, 536.245 245.578 C 536.053 245.387, 537.945 238.158, 540.448 229.515 C 542.952 220.872, 544.990 212.158, 544.978 210.150 C 544.927 201.748, 535.715 189.712, 525.300 184.443 C 518.062 180.781, 509.920 180.199, 496.246 182.365 C 483.729 184.347, 481 185.356, 481 188 C 481 190.804, 485.115 192.210, 492.500 191.931 C 495.800 191.806, 499.790 191.771, 501.368 191.852 C 512.041 192.403, 522.142 220.109, 522.384 249.500 L 522.500 263.500 516.177 271.935 C 509.511 280.828, 500.832 294.989, 492.048 311.302 C 489.146 316.693, 486.502 320.836, 486.174 320.507 C 485.846 320.179, 484.137 315.876, 482.376 310.946 C 480.330 305.215, 477.385 299.550, 474.211 295.241 C 468.634 287.668, 467.640 285.283, 468.550 281.658 C 469.326 278.566, 473.369 276.824, 485.227 274.469 C 494.904 272.547, 500 270.002, 500 267.092 C 500 262.528, 484.522 261.182, 475.120 264.929 C 472.161 266.108, 469.517 266.850, 469.243 266.577 C 468.557 265.891, 468.789 251.237, 469.540 247.817 C 470.020 245.634, 472.130 243.803, 479.234 239.409 C 488.015 233.978, 499.218 229.016, 502.773 228.985 C 509.299 228.927, 507.663 223.006, 500.573 221.020 C 493.469 219.031, 484.695 220.157, 476.782 224.073 C 473.087 225.902, 469.712 227.046, 469.282 226.616 C 468.852 226.186, 468.500 216.441, 468.500 204.961 L 468.500 184.088 473 179.459 C 478.055 174.259, 493.160 162.658, 500 158.723 C 502.475 157.298, 507.200 155.143, 510.500 153.934 C 520.608 150.228, 521.212 148.919, 514.250 145.803 C 510.818 144.268, 507.419 143.666, 502 143.634 C 495.257 143.595, 493.642 143.999, 486 147.635 C 481.325 149.860, 475.162 153.797, 472.304 156.384 L 467.107 161.089 466.424 157.446 C 465.802 154.130, 466.732 128.952, 467.505 128.167 C 467.685 127.983, 470.038 130.121, 472.733 132.917 C 475.428 135.713, 478.340 138, 479.205 138 C 481.410 138, 482.237 132.523, 481.010 126.052 C 479.237 116.703, 479.353 116.539, 484.900 120.524 C 492.099 125.695, 502.741 131, 505.918 131 C 509.672 131, 512.286 127.989, 511.444 124.633 C 511.085 123.202, 508.115 117.862, 504.843 112.766 C 498.248 102.491, 498.359 102.053, 507.073 103.922 C 512.499 105.086, 525.845 105.380, 528.418 104.393 C 529.288 104.059, 530 102.969, 530 101.970 C 530 98.805, 525.211 94.293, 514.963 87.800 C 509.494 84.335, 505.015 81.245, 505.010 80.933 C 505.004 80.621, 507.587 79.566, 510.750 78.588 C 519.035 76.028, 534.172 68.680, 536.437 66.119 C 538.354 63.952, 538.354 63.909, 536.366 61.921 C 534.847 60.402, 532.060 59.651, 524.929 58.838 C 519.743 58.246, 514.890 57.587, 514.144 57.372 C 513.276 57.122, 515.032 54.583, 519.019 50.321 C 527.856 40.874, 532.490 30.169, 528.418 28.607 C 523.901 26.873, 513.869 28.083, 504.430 31.500 C 499.112 33.425, 494.529 35, 494.245 35 C 493.961 35, 494.051 29.351, 494.444 22.446 C 495.043 11.932, 494.907 9.507, 493.606 7.522 C 489.863 1.809, 483.607 4.288, 478.066 13.680 C 474.475 19.767, 471.144 24, 469.946 24 C 469.559 24, 467.763 20.419, 465.956 16.043 C 462.440 7.526, 458.236 1.989, 455.306 2.017 C 454.313 2.027, 452.474 3.489, 451.220 5.267 M 455.446 21.172 C 453.460 27.429, 455.335 44.644, 458.549 49.665 C 460.788 53.163, 464.009 51.657, 463.965 47.133 C 463.882 38.458, 458.804 19, 456.624 19 C 456.355 19, 455.825 19.977, 455.446 21.172 M 479.705 30.863 C 474.914 38.939, 471 48.204, 471 51.470 C 471 53.348, 471.524 54, 473.036 54 C 477.032 54, 484.899 34.254, 483.830 26.907 C 483.530 24.844, 482.941 25.410, 479.705 30.863 M 427.463 29.060 C 425.417 32.371, 432.734 39.436, 445.020 46.011 L 447.309 47.236 444.995 43.368 C 441.977 38.321, 438.417 34.418, 433.600 30.871 C 429.333 27.730, 428.447 27.469, 427.463 29.060 M 513.238 38.016 C 499.669 42.839, 486.326 51.533, 482.631 57.960 L 480.762 61.211 484.131 60.510 C 490.003 59.288, 506.284 51.928, 512.025 47.901 C 517.166 44.295, 521 39.679, 521 37.096 C 521 35.621, 519.465 35.803, 513.238 38.016 M 418.834 45.710 C 420.117 46.694, 424.840 49.096, 429.329 51.046 C 437.690 54.679, 439.392 56.618, 436.876 59.649 C 435.809 60.935, 434.158 61.083, 427.291 60.511 C 418.272 59.760, 406.417 61.239, 403.338 63.501 C 401.610 64.770, 401.670 64.915, 404.339 65.934 C 405.900 66.530, 415.133 67.306, 424.857 67.658 L 442.536 68.299 445.236 64.220 L 447.935 60.141 442.217 54.907 C 435.618 48.865, 427.701 44.895, 421.106 44.321 C 416.503 43.920, 416.501 43.921, 418.834 45.710 M 507.500 65.975 C 500.389 66.807, 498.371 67.382, 490.677 70.773 C 486.180 72.754, 485.211 73.539, 486.424 74.217 C 490.589 76.549, 520 69.210, 520 65.839 C 520 64.899, 516.369 64.938, 507.500 65.975 M 434.500 76.691 C 431.034 77.487, 417 84.277, 417 85.158 C 417 87.284, 439.822 84.578, 442.235 82.165 C 442.716 81.684, 442.563 80.135, 441.887 78.652 C 440.693 76.030, 439.156 75.622, 434.500 76.691 M 485.355 84.235 C 483.206 87.712, 502.728 97.960, 513 98.747 L 518.500 99.169 515.500 96.622 C 508.078 90.320, 486.957 81.642, 485.355 84.235 M 569.386 88.931 C 563.195 89.656, 561.598 90.880, 558.290 97.437 C 556.885 100.222, 554.061 104.525, 552.014 107 C 547.314 112.683, 546 115.195, 546 118.500 C 546 123.540, 549.991 127.708, 553.520 126.354 C 554.879 125.832, 555.061 124.894, 554.513 121.241 C 553.847 116.798, 553.885 116.725, 559.671 111.145 C 564.553 106.438, 565.665 104.711, 566.516 100.512 C 567.425 96.033, 567.836 95.465, 570.384 95.172 C 571.953 94.992, 575.903 95.842, 579.162 97.061 C 584.030 98.881, 585.340 99.878, 586.493 102.639 C 588.168 106.647, 588.827 106.735, 593.488 103.573 C 597.965 100.535, 608.862 98, 617.447 98 C 623.906 98, 625.474 98.978, 623.136 101.550 C 621.583 103.259, 620.187 108.684, 620.973 109.956 C 621.545 110.882, 622.792 110.504, 625.860 108.474 C 629.518 106.053, 631.015 105.726, 639.240 105.548 L 648.500 105.348 652.076 109.152 C 656.755 114.129, 670 120.097, 670 117.228 C 670 116.068, 653.831 100.390, 651.316 99.111 C 650.114 98.500, 647.691 98, 645.931 98 C 640.210 98, 629.563 95.694, 626.929 93.885 C 621.812 90.370, 616.336 89.757, 605.078 91.440 C 599.115 92.332, 593.267 93.825, 591.383 94.936 C 588.284 96.765, 588.063 96.775, 587.537 95.116 C 586.913 93.150, 580.837 89.505, 577 88.795 C 575.625 88.541, 572.199 88.602, 569.386 88.931 M 441.791 92.908 C 433.372 98.264, 421.243 118, 426.370 118 C 430.498 118, 447.509 96.395, 446.828 92.017 C 446.510 89.974, 446.362 90.001, 441.791 92.908 M 477.200 93.200 C 475.471 94.929, 475.651 95.633, 479.106 100.654 C 483.680 107.302, 492.734 116, 495.080 116 C 496.963 116, 496.829 115.463, 493.309 108.900 C 489.303 101.432, 481.656 92, 479.607 92 C 478.943 92, 477.860 92.540, 477.200 93.200 M 456.703 96.731 C 454.039 100.844, 452.005 109.920, 452.070 117.407 L 452.141 125.500 453.571 121.597 C 456.920 112.457, 459.432 92.518, 456.703 96.731 M 266.218 112.495 C 262.929 114.968, 257.590 119.821, 254.354 123.281 C 248.407 129.638, 241.953 140.286, 243.256 141.589 C 244.551 142.885, 252.054 136.731, 260.359 127.561 C 272.587 114.061, 275 111.078, 275 109.465 C 275 106.946, 272.412 107.839, 266.218 112.495 M 568.923 111.923 C 566.959 113.887, 566 115.856, 566 117.923 C 566 120.633, 566.337 121, 568.826 121 C 573.068 121, 578.585 113.979, 577.273 110.250 C 576.481 107.998, 571.937 108.909, 568.923 111.923 M 634.009 119.320 C 628.952 120.649, 627.765 122.978, 630.567 126.074 C 632.996 128.758, 642.945 128.823, 645.345 126.171 C 650.144 120.869, 643.469 116.835, 634.009 119.320 M 293.500 122.958 C 278.405 126.944, 262.291 134.954, 254.178 142.506 C 249.299 147.047, 248.766 147.930, 249.393 150.428 C 250.061 153.092, 250.319 153.207, 254.299 152.614 C 264.531 151.088, 310 126.025, 310 121.911 C 310 120.411, 300.981 120.983, 293.500 122.958 M 236.061 127.655 C 232.942 132.011, 232.268 133.618, 233.128 134.655 C 235.035 136.952, 237.748 136.144, 239.918 132.632 C 242.023 129.226, 242.796 122, 241.055 122 C 240.535 122, 238.288 124.545, 236.061 127.655 M 660.498 126.645 C 659.169 127.974, 659.107 128.452, 660.176 129.130 C 660.904 129.592, 662.209 129.976, 663.076 129.985 C 663.942 129.993, 665.742 131.179, 667.076 132.621 C 668.409 134.062, 671.434 136.080, 673.799 137.106 C 677.441 138.686, 678.494 139.850, 680.697 144.735 C 683.898 151.833, 683.638 151.545, 685.476 150.020 C 687.448 148.384, 687.481 140.832, 685.534 137.065 C 684.727 135.506, 681.915 132.981, 679.284 131.455 C 676.653 129.930, 673.427 127.853, 672.115 126.841 C 669.124 124.532, 662.719 124.424, 660.498 126.645 M 368.099 129.401 C 365.460 130.864, 364.682 130.697, 382.879 132.570 C 390.311 133.335, 390.503 132.041, 383.321 129.594 C 377.680 127.672, 371.364 127.592, 368.099 129.401 M 592 134.587 C 592 135.460, 590.684 136.670, 589.076 137.278 C 586.953 138.079, 586.005 139.220, 585.620 141.441 C 584.306 149.004, 582.875 164.876, 583.223 168.029 L 583.605 171.500 585.389 167.500 C 592.269 152.079, 596.326 144.602, 599.937 140.684 L 604.091 136.177 601.823 134.589 C 598.757 132.441, 592 132.440, 592 134.587 M 601.374 145.250 C 597.192 153.554, 593 164.280, 593 166.678 C 593 169.535, 596.759 165.330, 603.559 154.865 C 607.003 149.565, 610.311 144.926, 610.910 144.556 C 612.807 143.383, 612.097 141.489, 609.096 139.716 C 607.498 138.772, 605.929 138, 605.608 138 C 605.288 138, 603.382 141.262, 601.374 145.250 M 618.741 144.865 C 614.983 149.024, 607.449 161.782, 608.267 162.601 C 608.541 162.874, 612.192 159.245, 616.382 154.536 C 621.535 148.744, 624 145.169, 624 143.487 C 624 140.051, 622.808 140.363, 618.741 144.865 M 623.050 154.728 C 618.759 160.464, 614.427 168.760, 615.278 169.611 C 616.103 170.436, 636 154.499, 636 153.014 C 636 152.677, 634.313 151.751, 632.250 150.956 C 630.188 150.161, 628.245 149.385, 627.934 149.233 C 627.623 149.081, 625.425 151.554, 623.050 154.728 M 662.974 151.049 C 659.743 157.086, 669.694 165.689, 673.960 160.548 C 675.470 158.729, 674.591 155.855, 671.342 151.995 C 668.378 148.472, 664.582 148.044, 662.974 151.049 M 252.512 159.876 C 249.477 160.526, 247.968 163.368, 249.726 165.126 C 251.341 166.741, 270.822 170, 278.785 169.988 C 286.280 169.977, 296.388 168.012, 298.183 166.217 C 299.119 165.281, 287.802 161.904, 277.566 160.066 C 271.226 158.927, 257.435 158.823, 252.512 159.876 M 624.564 171.693 C 614.056 182.328, 612.409 184.501, 615.750 183.317 C 619.653 181.933, 641.971 168.425, 641.985 167.437 C 642.001 166.324, 636.852 161, 635.759 161 C 635.412 161, 630.374 165.812, 624.564 171.693 M 207.500 168.931 C 205.850 169.331, 203.150 170.392, 201.500 171.289 L 198.500 172.920 202 172.951 C 203.925 172.969, 207.806 172.706, 210.624 172.367 C 215 171.841, 215.676 171.478, 215.257 169.876 C 214.740 167.899, 212.758 167.658, 207.500 168.931 M 215.989 175.021 C 215.358 176.200, 211.878 180.390, 208.255 184.332 C 204.633 188.274, 200.230 193.750, 198.471 196.500 C 193.807 203.793, 189.766 212.100, 190.518 212.849 C 191.405 213.733, 214.733 189.719, 218.947 183.584 C 222.078 179.027, 222.221 178.486, 220.912 176.164 C 219.020 172.810, 217.376 172.428, 215.989 175.021 M 231.763 177.786 C 228.477 181.293, 226.185 185.987, 221.160 199.500 C 215.510 214.694, 213.165 223.933, 212.228 234.695 C 211.289 245.474, 211.929 245.520, 217.769 235.097 C 228.396 216.132, 239.461 178.257, 235.153 175.595 C 234.687 175.307, 233.162 176.293, 231.763 177.786 M 243.158 182.866 C 240.967 190.181, 241.734 196.712, 246.345 210 C 251.710 225.459, 253.765 229.635, 255.271 228.129 C 256.725 226.675, 254.733 207.185, 252.064 196.750 C 249.958 188.516, 246.190 179, 245.035 179 C 244.640 179, 243.795 180.740, 243.158 182.866 M 259 179.836 C 259 181.266, 266.053 189.805, 268.629 191.493 C 271.067 193.090, 271.064 193.070, 268.044 187.086 C 265.243 181.538, 262.739 179, 260.066 179 C 259.480 179, 259 179.376, 259 179.836 M 553.923 186.351 C 552.624 186.999, 550.872 188.760, 550.030 190.264 C 548.656 192.720, 548.657 193.281, 550.031 195.750 C 552.276 199.781, 557.965 200.131, 560.885 196.419 C 563.457 193.149, 563.598 189.823, 561.250 187.807 C 558.534 185.475, 556.494 185.069, 553.923 186.351 M 518 194.176 C 518 194.766, 519.608 198.810, 521.574 203.164 C 523.540 207.517, 526.088 214.886, 527.236 219.540 C 528.385 224.193, 529.685 228, 530.124 228 C 531.446 228, 534 217.976, 534 212.786 C 534 206.334, 532.055 202.016, 527.435 198.207 C 523.123 194.653, 518 192.464, 518 194.176 M 430.500 203.681 C 416.689 206.783, 407.506 218.207, 404.494 236.033 C 403.795 240.175, 403.858 240.362, 405.505 238.996 C 406.471 238.194, 410.007 233.929, 413.362 229.519 C 416.717 225.108, 422.395 218.125, 425.981 214 C 435.341 203.233, 435.527 202.976, 433.872 203.116 C 433.118 203.180, 431.600 203.434, 430.500 203.681 M 376.320 208.077 C 371.174 209.981, 369.250 217.661, 373.223 220.443 C 376.419 222.682, 379.727 222.364, 382.545 219.545 C 387.854 214.237, 383.140 205.554, 376.320 208.077 M 632.011 223.487 C 630.090 225.801, 631.602 229.862, 634.670 230.632 C 639.671 231.887, 642.734 227.574, 639.433 223.926 C 637.356 221.631, 633.729 221.417, 632.011 223.487 M 695.039 225.189 C 692.127 228.314, 692.367 232.391, 695.547 233.839 C 699.861 235.805, 703.644 235.267, 705.927 232.365 C 708.559 229.020, 708.536 227.577, 705.811 225.039 C 702.863 222.293, 697.670 222.365, 695.039 225.189 M 678.553 227.724 C 677.569 230.286, 680.911 232.518, 682.841 230.587 C 683.629 229.800, 684.001 228.445, 683.668 227.578 C 682.858 225.466, 679.381 225.565, 678.553 227.724 M 353 265 C 351.011 266.989, 350.363 271.500, 351.765 273.600 C 354.440 277.606, 360.732 277.428, 364.016 273.253 C 366.608 269.958, 366.521 267.838, 363.686 265.174 C 360.740 262.407, 355.676 262.324, 353 265 M 558.500 264.928 C 549.413 267.616, 539.647 273.098, 544.191 272.960 C 548.148 272.840, 585.184 268.149, 585.620 267.713 C 585.905 267.428, 583.615 266.251, 580.531 265.098 C 573.762 262.565, 566.672 262.510, 558.500 264.928 M 669.618 269.525 C 667.337 271.806, 666.632 275.444, 667.982 277.967 C 669.598 280.985, 673.966 280.343, 675.948 276.796 C 677.340 274.305, 677.298 273.876, 675.419 271.359 C 672.829 267.890, 671.631 267.512, 669.618 269.525 M 565 279.605 C 560.875 280.368, 550.212 281.389, 541.304 281.873 C 522.383 282.900, 520.496 283.624, 514.811 292.040 C 509.775 299.494, 498.350 321.676, 499.139 322.469 C 499.490 322.822, 503.493 321.678, 508.035 319.926 C 526.477 312.814, 535.779 312.182, 550.319 317.054 L 559.434 320.107 578.217 301.251 C 588.548 290.880, 597 281.900, 597 281.295 C 597 277.950, 579.057 277.003, 565 279.605 M 281.614 284.401 C 279.850 288.119, 279.439 295.535, 280.946 296.467 C 281.980 297.106, 283.692 291.932, 284.658 285.250 C 285.409 280.052, 283.880 279.626, 281.614 284.401 M 141.963 289.750 C 138.922 291.564, 137.249 293.601, 135.322 297.837 C 132.784 303.418, 129.729 314, 130.656 314 C 132.644 314, 135.408 311.128, 137.620 306.764 C 142.744 296.651, 144.815 294.243, 148.816 293.743 C 154.453 293.039, 164.405 294.724, 171.001 297.500 C 174.267 298.875, 177.150 300, 177.406 300 C 177.663 300, 177.321 298.095, 176.647 295.767 C 175.550 291.977, 174.902 291.337, 170.461 289.661 C 167.099 288.392, 162.362 287.714, 155.764 287.557 C 147.013 287.350, 145.617 287.571, 141.963 289.750 M 522.128 294.564 C 519.678 297.679, 520.488 300.805, 524.309 302.979 C 526.686 304.332, 527.148 304.281, 529.704 302.381 C 533.358 299.665, 533.865 295.720, 530.835 293.597 C 527.537 291.287, 524.435 291.631, 522.128 294.564 M 345.146 302.524 C 335.010 307.220, 324 321.459, 324 329.871 L 324 333.349 326.587 330.924 C 328.010 329.591, 331.698 324.900, 334.781 320.500 C 337.865 316.100, 343.072 309.983, 346.353 306.907 C 349.633 303.831, 351.877 301.042, 351.340 300.710 C 350.803 300.378, 348.016 301.194, 345.146 302.524 M 151 301.977 C 149.195 302.420, 148.500 303.260, 148.500 305 C 148.500 307.833, 150.889 308.750, 158.661 308.900 C 163.136 308.987, 164.166 309.409, 166.411 312.077 C 169.660 315.938, 169.684 317.612, 166.500 318.411 C 164.926 318.806, 164 319.745, 164 320.946 C 164 323.723, 159.642 326.713, 153.637 328.057 C 148.950 329.106, 134.801 329.022, 131.059 327.923 C 129.019 327.324, 128.675 330.118, 130.003 336.515 C 131.096 341.777, 131.393 342.165, 136.199 344.601 C 139.786 346.419, 143.160 347.239, 147.857 347.435 C 159.129 347.906, 170.803 343.403, 167.325 339.925 C 166.488 339.088, 163.565 339.081, 156.058 339.897 C 150.483 340.504, 144.814 341, 143.461 341 C 140.286 341, 137 337.694, 137 334.500 C 137 331.575, 137.716 331.412, 140.871 333.622 C 142.861 335.016, 144.193 335.093, 150.343 334.170 C 154.280 333.580, 159.862 332.808, 162.749 332.455 C 165.636 332.101, 168.256 331.395, 168.572 330.884 C 168.887 330.373, 171.475 328.222, 174.323 326.104 C 177.170 323.985, 180.309 320.852, 181.298 319.141 L 183.096 316.029 179.798 314.018 C 177.984 312.912, 176.169 312.006, 175.763 312.004 C 175.358 312.002, 174.392 310.480, 173.616 308.623 C 172.177 305.180, 170.478 304.543, 155 301.645 C 154.175 301.491, 152.375 301.640, 151 301.977 M 470.032 310.568 C 469.982 316.954, 472.625 324.253, 476.549 328.564 L 480.131 332.500 479.553 327.523 C 478.985 322.623, 474.741 312.414, 471.645 308.500 C 470.134 306.589, 470.062 306.681, 470.032 310.568 M 141.479 318.022 C 139.004 320.606, 138.771 321.253, 140.018 322.090 C 142.682 323.879, 162.500 320.715, 162.500 318.500 C 162.500 317.950, 159.125 317.228, 155 316.895 C 150.875 316.563, 146.808 315.989, 145.962 315.620 C 144.964 315.184, 143.389 316.028, 141.479 318.022 M 398.851 317.701 C 398 318.691, 397.005 320.029, 396.639 320.675 C 395.538 322.621, 398.070 326.787, 401.124 328.051 C 403.488 329.030, 404.420 328.955, 406.459 327.619 C 407.818 326.728, 409.441 325.044, 410.067 323.875 C 412.801 318.766, 402.712 313.213, 398.851 317.701 M 613 320.242 C 613 323.206, 615.267 328.072, 617.105 329.056 C 621.909 331.627, 625.355 324.569, 620.750 321.591 C 617.114 319.239, 613 318.523, 613 320.242 M 519.500 325.890 C 516.200 326.851, 511.700 328.578, 509.500 329.727 C 504.727 332.221, 496.657 337.991, 497.193 338.527 C 497.402 338.735, 502.056 337.577, 507.536 335.953 C 517.039 333.137, 525.079 331.870, 544 330.209 C 551.417 329.558, 552.224 329.307, 550.332 328.240 C 546.554 326.109, 536.780 323.997, 531.040 324.071 C 527.993 324.110, 522.800 324.929, 519.500 325.890 M 469.667 337.667 C 469.300 338.033, 469.010 342.871, 469.022 348.417 L 469.044 358.500 470.995 356 C 472.067 354.625, 474.042 350.800, 475.384 347.500 L 477.824 341.500 475.737 339.250 C 473.694 337.046, 470.992 336.341, 469.667 337.667 M 534.240 338.071 C 527.064 338.642, 524.701 339.366, 516.240 343.589 L 506.500 348.449 496.626 348.354 L 486.751 348.259 482.919 356.554 C 478.781 365.509, 472.625 383.130, 471.462 389.344 L 470.742 393.188 476.121 390.029 C 489.629 382.096, 497.210 380.584, 509.312 383.410 C 513.059 384.284, 516.503 385, 516.966 385 C 518.914 385, 544.831 338.527, 543.293 337.793 C 542.857 337.584, 538.783 337.710, 534.240 338.071 M 377.836 350.134 C 375.131 351.124, 373.451 353.543, 374.862 354.415 C 375.706 354.936, 386 350.436, 386 349.546 C 386 348.684, 380.767 349.060, 377.836 350.134 M 233.593 356.250 C 229.682 359.745, 229.281 363.372, 232.455 366.545 C 235.346 369.436, 238.843 369.337, 242.250 366.267 C 244.647 364.107, 244.511 358.511, 242 356 C 239.389 353.389, 236.705 353.469, 233.593 356.250 M 487.526 361.950 C 485.538 365.793, 485.601 367.329, 487.829 369.345 C 490.228 371.516, 493.287 371.445, 495.345 369.171 C 497.648 366.626, 497.410 363.734, 494.686 361.174 C 491.528 358.208, 489.338 358.445, 487.526 361.950 M 596.589 369.077 C 593.609 372.618, 593.368 374.652, 595.557 377.777 C 596.711 379.426, 598.117 380, 601 380 C 605.588 380, 608 377.358, 608 372.334 C 608 365.966, 600.910 363.942, 596.589 369.077 M 566 373.935 C 566 377.040, 567.712 380.675, 569.496 381.360 C 574.208 383.168, 577.004 376.517, 572.777 373.557 C 569.588 371.322, 566 371.523, 566 373.935 M 487.500 395.890 C 485.300 396.905, 482.420 398.909, 481.100 400.342 C 478.987 402.636, 478.899 403.024, 480.362 403.586 C 483.701 404.867, 490.908 402.859, 496.922 398.972 C 500.265 396.812, 503 394.809, 503 394.522 C 503 393.166, 491.133 394.213, 487.500 395.890 M 480.994 484.750 C 480.985 490.839, 478.166 507.974, 475.979 515.237 C 473.758 522.612, 471.988 524.179, 464.581 525.323 C 462.425 525.657, 460.300 526.508, 459.858 527.215 C 457.198 531.467, 459.799 925, 462.488 925 C 462.645 925, 468.787 923.464, 476.137 921.587 C 495.670 916.597, 511.459 914.319, 539 912.516 C 568.045 910.615, 573.539 909.777, 576.781 906.750 C 580.182 903.574, 580.993 901.754, 588.256 881 C 595.665 859.829, 598.519 848.524, 600.604 832.092 C 602.125 820.105, 602.636 786.421, 601.419 778.310 C 600.743 773.801, 600.651 773.709, 593.618 770.463 C 575.985 762.325, 554.856 761.909, 540.233 769.412 C 534.549 772.328, 525.490 781.436, 520.749 789 C 517.031 794.931, 512.869 804.779, 511.028 812 C 509.073 819.667, 508.911 820.012, 506.530 821.572 C 503.275 823.705, 499.292 822.465, 497.353 818.715 C 492.517 809.365, 490.445 780.503, 493.423 764 C 496.029 749.566, 503.078 733.204, 513.072 718.393 C 515.853 714.273, 517.984 710.157, 517.809 709.247 C 517.634 708.338, 514.568 705.953, 510.995 703.947 C 498.617 696.998, 488 685.159, 488 678.306 C 488 675.756, 489.012 673.858, 492.236 670.360 C 496.902 665.298, 506.133 658.437, 512.799 655.077 C 515.163 653.885, 517.348 652.257, 517.654 651.459 C 517.962 650.655, 515.676 646.105, 512.526 641.254 C 494.800 613.955, 488.822 588.143, 493.519 559.181 C 495.904 544.475, 498.611 540.111, 504.438 541.574 C 508.381 542.564, 509.424 544.729, 510.125 553.384 C 511.674 572.517, 521.777 585.219, 532.908 582.026 C 538.217 580.504, 542.644 576.426, 545.642 570.299 C 548.158 565.156, 548.479 563.310, 548.833 551.939 C 549.441 532.441, 544.687 508.724, 537.722 496.500 L 535.443 492.500 520.472 491.861 C 504.201 491.167, 497.285 489.514, 487.265 483.922 C 484.386 482.315, 481.798 481, 481.515 481 C 481.232 481, 480.997 482.688, 480.994 484.750 M 413.836 485.084 C 404.568 489.917, 394.463 492, 380.275 492 L 367.870 492 364.431 499.444 C 354.684 520.539, 351.062 554.976, 357.112 569.039 C 359.727 575.118, 365.525 580.526, 371.011 582.003 C 381.888 584.932, 391.929 572.259, 393.595 553.500 C 394.406 544.378, 394.739 543.440, 397.640 542.118 C 401.063 540.559, 405.279 542.123, 406.830 545.527 C 410.930 554.525, 412.804 584.019, 410.070 596.500 C 406.784 611.496, 399.785 627.608, 390.137 642.388 C 387.367 646.630, 385.329 650.641, 385.607 651.301 C 385.886 651.960, 389.977 654.750, 394.700 657.500 C 404.533 663.226, 414.544 672.335, 415.592 676.510 C 417.202 682.926, 405.616 696.801, 393.200 703.325 C 389.359 705.344, 385.941 707.712, 385.604 708.588 C 385.226 709.575, 387.045 713.284, 390.388 718.340 C 396.496 727.579, 402.145 738.492, 405.681 747.885 C 409.807 758.846, 411 766.971, 411 784.108 C 411 807.804, 407.977 820.229, 401.672 822.446 C 397.570 823.889, 394.661 820.281, 392.040 810.500 C 386.333 789.208, 371.926 771.243, 356.657 766.379 C 348.094 763.652, 332.993 763.439, 323 765.906 C 306.349 770.016, 290.459 780.154, 288.072 788.192 C 285.831 795.735, 281.813 802.859, 277.088 807.670 C 272.409 812.434, 268.195 814.667, 248.198 822.981 C 242.532 825.336, 236.950 828.030, 235.794 828.966 L 233.691 830.668 235.846 838.652 C 237.667 845.401, 238 849.354, 238 864.207 C 238 879.485, 237.770 882.062, 236.241 883.950 C 233.854 886.899, 231.273 885.734, 230.030 881.147 C 229.486 879.141, 228.373 870.627, 227.557 862.227 C 226.070 846.919, 224.197 840.045, 220.734 837.187 C 219.411 836.095, 218.619 836.146, 216.020 837.489 C 214.303 838.378, 212.681 839.668, 212.417 840.356 C 212.153 841.044, 212.848 845.408, 213.961 850.054 C 217.539 864.980, 216.202 884, 211.574 884 C 208.443 884, 206.903 879.423, 205.969 867.337 C 205.466 860.827, 204.455 853.475, 203.722 851 C 202.563 847.082, 202.074 846.543, 199.945 846.832 C 195.791 847.395, 192.997 849.796, 193.032 852.773 C 193.049 854.273, 193.710 860.225, 194.500 866 C 196.610 881.423, 196.465 888.124, 193.961 890.811 C 191.607 893.338, 188.774 893.637, 187.035 891.543 C 186.370 890.741, 185.200 885.004, 184.434 878.793 C 182.679 864.550, 182.205 862.388, 179.799 857.635 C 177.898 853.880, 177.725 853.788, 173.766 854.421 C 171.525 854.780, 169.310 855.308, 168.845 855.596 C 168.380 855.883, 168 864.347, 168 874.404 C 168 891.526, 167.870 892.807, 165.965 894.532 C 163.984 896.324, 163.875 896.319, 161.913 894.358 C 160.236 892.680, 159.739 890.259, 158.957 879.955 C 157.960 866.821, 155.986 858.129, 153.418 855.561 C 151.705 853.848, 146.341 853.499, 144.045 854.951 C 142.867 855.696, 142.582 859.159, 142.544 873.186 C 142.487 894.661, 140.360 902.217, 135.688 897.545 C 133.970 895.827, 133.551 892.614, 132.039 869.581 C 131.465 860.825, 130.735 853.400, 130.417 853.081 C 129.395 852.052, 92.002 851.477, 75.500 852.236 C 43.279 853.717, 26.531 860.123, 15.421 875.214 C 9.215 883.645, 6.918 890.520, 5.971 903.500 C 5.530 909.550, 4.190 918.037, 2.994 922.360 C 0.372 931.832, 0.813 935.158, 5.507 941.305 C 9.368 946.362, 14.912 949.968, 32.500 958.864 C 45.793 965.588, 64.177 971.296, 99 979.513 C 155.121 992.756, 173.614 995.996, 193.153 996.009 C 200.494 996.014, 211.675 996.703, 218 997.541 C 224.325 998.378, 238.050 999.330, 248.500 999.656 C 265.983 1000.201, 269.416 999.999, 291.500 997.131 C 304.700 995.416, 321.350 993.580, 328.500 993.052 C 347.953 991.615, 364.958 986.045, 393.500 971.764 C 402.850 967.085, 413.650 962.120, 417.500 960.731 C 428.663 956.702, 430 955.919, 430 953.407 C 430 950.880, 427.753 949.800, 422.494 949.800 C 418.528 949.800, 400.503 956.886, 382 965.719 C 356.731 977.783, 350.777 979.307, 320.245 981.530 C 308.835 982.360, 293.875 983.702, 287 984.511 C 271.105 986.381, 244.310 986.374, 222.500 984.493 C 213.150 983.686, 199.647 983.020, 192.492 983.013 C 182.161 983.003, 175.268 982.271, 158.992 979.456 C 147.722 977.507, 135.125 975.068, 131 974.035 C 104.927 967.507, 80.351 960.714, 73.481 958.137 C 69.091 956.491, 61.456 953.939, 56.513 952.466 C 45.314 949.128, 16.074 934.375, 15.022 931.530 C 14.262 929.475, 15.310 924.290, 16.783 922.817 C 17.685 921.915, 28.441 925.417, 55 935.262 C 87.577 947.337, 113.460 954.522, 146 960.524 C 156.725 962.503, 167.975 964.741, 171 965.498 C 177.193 967.048, 206.834 971.353, 223.500 973.124 C 243.995 975.301, 285.574 974.254, 311.500 970.907 C 330.467 968.459, 347.480 963.869, 370.367 955.026 C 389.518 947.626, 392.661 946.581, 420 938.519 C 432.375 934.871, 444.478 930.939, 446.896 929.783 L 451.292 927.680 450.601 908.590 C 450.221 898.091, 449.456 879.150, 448.900 866.500 C 448.334 853.612, 447.916 786.345, 447.951 713.500 C 448.004 599.040, 447.204 540.107, 445.449 529.306 C 444.971 526.364, 444.559 526.060, 440.215 525.445 C 433.183 524.451, 427.360 521.597, 425.661 518.312 C 424.212 515.509, 421 493.045, 421 485.710 C 421 483.669, 420.663 482.029, 420.250 482.065 C 419.837 482.100, 416.951 483.459, 413.836 485.084 M 546 921.731 C 539.101 922.542, 473.556 932.019, 467.233 933.120 L 460.778 934.244 458.405 939.426 C 456.513 943.559, 455.727 948.039, 454.521 961.554 C 453.689 970.874, 452.752 980.130, 452.438 982.123 C 451.530 987.887, 454.097 992.713, 459.293 995.011 C 470.640 1000.031, 506.565 1002.217, 526.500 999.101 C 538.015 997.301, 564.129 991.027, 566.615 989.462 C 569.671 987.538, 577.484 971.812, 580.424 961.664 C 581.813 956.872, 583.444 947.997, 584.050 941.942 C 585.141 931.026, 585.129 930.896, 582.610 926.598 C 580.718 923.368, 579.265 922.103, 576.910 921.632 C 573.572 920.964, 551.936 921.034, 546 921.731"/>
</svg>