<svg xmlns="http://www.w3.org/2000/svg" id="Layer_1" data-name="Layer 1" version="1.1" viewBox="0.0 0.0 100.0 100.0">
  <g transform="scale(0.8)"><path d="M62.441,30.515c-.326,0-.596-.222-.661-.544-.316-1.574-.867-3.081-1.638-4.477-.842-1.526-1.932-2.895-3.239-4.069-.143-.129-.224-.31-.224-.497s.081-.369.222-.497c1.234-1.125,2.289-2.423,3.135-3.858.748-1.268,1.327-2.633,1.72-4.054.087-.311.368-.514.69-.496.32.018.58.254.63.574h0c.165,1.067,1.243,3.082,1.928,4.176.679,1.085,1.963,2.732,3.004,3.646.163.144.254.344.249.549-.004.194-.096.377-.25.501-1.362,1.09-2.483,2.408-3.332,3.919-.79,1.407-1.318,2.939-1.566,4.555-.052.331-.319.567-.652.575h-.016v-.003ZM57.718,20.925c1.294,1.201,2.379,2.588,3.227,4.124.634,1.148,1.128,2.365,1.473,3.631.309-1.315.797-2.571,1.457-3.746.859-1.53,1.98-2.875,3.334-4.002-1.075-.999-2.294-2.572-2.984-3.675-.537-.859-1.407-2.416-1.834-3.667-.397,1.202-.92,2.358-1.564,3.448-.848,1.436-1.893,2.742-3.109,3.886h0ZM57.52,21.108h0Z" fill="#000" stroke-width="0" data-sg-fill="sg-fill-0" />
  <path d="M62.438,40.55c-.294,0-.526-.127-.626-.346-.295-.651-.819-1.279-1.556-1.869-.833-.666-1.914-1.265-3.216-1.782-.267-.108-.362-.327-.362-.496s.094-.388.36-.495c1.231-.496,2.28-1.066,3.118-1.693.724-.542,1.28-1.12,1.653-1.717.156-.248.468-.305.702-.281.269.03.467.169.543.382v.002c.105.296.94,1.073,1.825,1.698.675.476,1.951,1.2,2.992,1.603.246.095.39.289.387.519-.003.175-.105.397-.385.495-1.36.481-2.475,1.059-3.314,1.718-.747.588-1.242,1.218-1.47,1.871-.081.231-.307.376-.604.389h-.047v.002h0ZM58.215,36.055c1.022.466,1.899.991,2.615,1.564.692.553,1.225,1.146,1.591,1.77.327-.646.853-1.257,1.57-1.822.726-.57,1.629-1.081,2.695-1.524-.887-.421-1.781-.946-2.337-1.339-.265-.187-1.441-1.039-1.957-1.771-.42.586-.985,1.148-1.685,1.672-.703.526-1.539,1.012-2.492,1.451h0ZM62.19,32.561h0Z" fill="#000" stroke-width="0" data-sg-fill="sg-fill-0" />
  <path d="M46.927,33.971c-.142,0-.281-.059-.396-.171-.916-.901-1.849-1.565-2.773-1.975-.837-.371-1.638-.518-2.381-.439-.256.03-.496-.13-.615-.399-.123-.277-.075-.569.12-.742.564-.503,1.032-1.182,1.389-2.016.399-.932.653-2.039.755-3.291.017-.22.141-.398.332-.475.19-.077.403-.035.571.114.888.79,1.793,1.406,2.689,1.829.777.367,1.539.586,2.263.649.251.022.467.217.55.499.077.265.006.522-.186.669h0c-.276.212-.787,1.185-1.138,2.169-.26.729-.576,2.041-.647,3.038-.016.238-.146.428-.349.506-.06.023-.122.035-.184.035ZM46.543,33.365v.002-.002ZM41.97,30.45c.698.028,1.422.207,2.16.535.839.371,1.676.924,2.496,1.647.136-.926.39-1.917.616-2.549.061-.17.519-1.427,1.064-2.176-.68-.113-1.378-.338-2.08-.67-.789-.373-1.579-.879-2.358-1.508-.14,1.064-.391,2.023-.75,2.862-.309.719-.693,1.343-1.147,1.86h0ZM41.496,30.929l-.002.002.002-.002ZM48.802,27.97h.002-.002ZM48.686,27.494h0ZM43.318,25.262h0ZM43.943,25.01v.002-.002Z" fill="#000" stroke-width="0" data-sg-fill="sg-fill-0" />
  <path d="M78.074,33.971c-.06,0-.121-.011-.181-.033-.203-.076-.334-.265-.353-.505-.07-.994-.385-2.308-.646-3.04-.352-.983-.862-1.956-1.139-2.169h0c-.192-.148-.264-.405-.186-.67.083-.281.299-.477.551-.498.724-.063,1.486-.282,2.262-.649.897-.424,1.802-1.04,2.69-1.83.167-.147.379-.189.568-.114.19.076.315.253.334.473.1,1.253.354,2.36.755,3.293.356.833.824,1.512,1.39,2.017.196.175.241.466.118.744-.119.268-.366.423-.614.397-.738-.078-1.545.069-2.381.439-.925.41-1.858,1.074-2.773,1.974-.114.113-.254.172-.396.172h0ZM77.825,33.144h0ZM76.695,27.907c.545.749,1.004,2.006,1.064,2.176.227.635.48,1.626.615,2.548.821-.723,1.658-1.275,2.497-1.647.738-.327,1.462-.506,2.16-.535-.455-.518-.84-1.141-1.147-1.86-.36-.84-.612-1.8-.75-2.862-.778.628-1.568,1.134-2.358,1.508-.703.332-1.401.557-2.08.67v.002h0ZM76.201,27.97h-.003.003Z" fill="#000" stroke-width="0" data-sg-fill="sg-fill-0" />
  <path d="M30.29,52.571c-1.304,0-2.614-.514-3.524-1.44-2.327-2.37-1.068-5.702-.444-6.683.388-.611.969-1.128,1.774-1.58,3.117-1.749,6.92-1.158,9.886-.449,1.306.313,2.622.677,3.894,1.029,2.794.774,5.685,1.575,8.594,1.85,1.983.187,3.989.136,5.963-.156l.135.909c-2.045.302-4.127.357-6.184.161-2.991-.283-5.921-1.094-8.754-1.879-1.264-.35-2.571-.712-3.862-1.021-2.803-.671-6.384-1.236-9.223.357-.67.376-1.144.792-1.449,1.272-.523.821-1.585,3.601.324,5.546.998,1.016,2.593,1.42,3.964,1.007,1.376-.414,2.399-1.74,2.378-3.086-.005-.34-.072-.628-.196-.855-.178-.325-.52-.607-1.017-.837-.421-.196-1.24-.479-1.975-.187-.51.202-.967.811-.807,1.362.067.231.305.43.591.494.102.025.364.06.525-.123l.689.607c-.336.381-.865.534-1.415.412-.613-.137-1.112-.583-1.273-1.135-.276-.958.329-2.066,1.351-2.472.782-.31,1.742-.237,2.701.208.678.315,1.162.729,1.435,1.229.197.36.301.791.31,1.282.026,1.742-1.277,3.453-3.033,3.98-.44.132-.9.196-1.359.196v.002h0Z" fill="#000" stroke-width="0" data-sg-fill="sg-fill-0" />
  <path d="M35.931,45.654c-1.181-.549-2.492-.809-3.798-.759l-.038-.918c1.451-.059,2.909.233,4.224.843l-.388.833h0Z" fill="#000" stroke-width="0" data-sg-fill="sg-fill-0" />
  <path d="M43.979,48.235c-1.702-.297-3.343-.854-4.876-1.655l-.095-.05c-.288-.152-.561-.295-.835-.346l.169-.903c.411.077.758.26,1.094.436l.092.048c1.45.758,3,1.284,4.608,1.565l-.158.905h0Z" fill="#000" stroke-width="0" data-sg-fill="sg-fill-0" />
  <path d="M61.438,53.877l-.915-.09c.053-.534.248-1.059.438-1.566.346-.928.533-1.525.208-1.996-.544-.785-1.626-1.274-2.897-1.31-.885-.026-1.739.131-2.651.296-.32.058-.641.116-.96.166-3.176.492-6.456.192-9.49-.872l.303-.867c2.892,1.013,6.021,1.302,9.045.831.313-.048.625-.105.937-.161.92-.166,1.87-.334,2.841-.31,1.584.045,2.907.667,3.626,1.706.622.899.237,1.93-.102,2.839-.169.452-.344.92-.384,1.335h.001Z" fill="#000" stroke-width="0" data-sg-fill="sg-fill-0" />
  <path d="M27.58,79.59c-2.065,0-4.193-.117-6.383-.351-3.201-.342-7.319-1.007-10.785-3.13l.479-.783c3.31,2.027,7.299,2.668,10.403,3,9.333.995,17.512-.166,24.324-3.45l.398.827c-5.363,2.586-11.544,3.887-18.436,3.887h0Z" fill="#000" stroke-width="0" data-sg-fill="sg-fill-0" />
  <path d="M15.121,80.708c-1.462-.162-2.882-.679-4.108-1.494-.285-.19-.607-.43-.828-.772-.276-.427-.328-.945-.136-1.351l.831.393c-.056.117-.024.302.077.46.129.2.348.361.565.505,1.104.735,2.384,1.2,3.701,1.346,0,0-.102.913-.102.913Z" fill="#000" stroke-width="0" data-sg-fill="sg-fill-0" />
  <path d="M24.505,82.032c-2.731,0-5.453-.311-8.121-.929l.208-.895c3.336.774,6.762,1.055,10.177.833l.059.917c-.774.05-1.549.075-2.323.075h0Z" fill="#000" stroke-width="0" data-sg-fill="sg-fill-0" />
  <path d="M30.23,82.032c-.588,0-1.177-.015-1.765-.046l.048-.918c2.587.135,5.194-.036,7.744-.506l.167.903c-2.042.376-4.118.566-6.194.566h0Z" fill="#000" stroke-width="0" data-sg-fill="sg-fill-0" />
  <path d="M37.816,81.245l-.109-.912c2.088-.251,4.126-.799,6.06-1.629.56-.24,1.007-.464,1.376-.781.39-.336.635-.76.673-1.162l.915.086c-.061.645-.412,1.275-.989,1.772-.484.417-1.061.693-1.614.929-2.014.864-4.137,1.435-6.312,1.697Z" fill="#000" stroke-width="0" data-sg-fill="sg-fill-0" />
  <path d="M27.997,87.264c-4.102,0-7.902-1.116-10.091-2.161-2.127-1.016-3.994-1.993-5.3-3.659l.723-.567c1.183,1.509,2.952,2.432,4.974,3.397.724.346,4.598,2.071,9.694,2.071,6.116,0,11.345-2.767,14.198-5.355l.617.68c-1.446,1.312-6.789,5.594-14.816,5.594h0Z" fill="#000" stroke-width="0" data-sg-fill="sg-fill-0" />
  <rect x="17.084" y="64.813" width="24.063" height=".918" transform="translate(-37.577 90.968) rotate(-87.031)" fill="#000" stroke-width="0" data-sg-fill="sg-fill-0" />
  <rect x="6.73" y="63.271" width="26.45" height=".918" transform="translate(-43.326 42.393) rotate(-53.981)" fill="#000" stroke-width="0" data-sg-fill="sg-fill-0" />
  <rect x="37.544" y="51.601" width=".919" height="24.184" transform="translate(-27.789 29.453) rotate(-31.683)" fill="#000" stroke-width="0" data-sg-fill="sg-fill-0" />
  <path d="M43.59,98.529l-.904-.161c.192-1.076.985-2.081,2.123-2.688,1-.534,2.114-.725,3.169-.852.847-.102,1.707-.17,2.568-.239,2.694-.215,5.48-.437,7.788-1.751.616-.351,2.063-1.322,2.195-2.764l.915.083c-.165,1.805-1.735,2.954-2.656,3.479-2.485,1.415-5.375,1.646-8.168,1.868-.85.068-1.697.135-2.533.236-.965.116-1.978.288-2.846.75-.891.475-1.508,1.238-1.651,2.039Z" fill="#000" stroke-width="0" data-sg-fill="sg-fill-0" />
  <path d="M49.122,98.379c-1.341-.214-2.709-.287-4.066-.217l-.047-.918c1.421-.071,2.853.003,4.258.227l-.145.907h0Z" fill="#000" stroke-width="0" data-sg-fill="sg-fill-0" />
  <path d="M58.359,45.801c-.283,0-.571-.009-.86-.02l.036-.918c1.129.044,2.208.044,3.041-.381-.416-.269-.784-.587-1.107-.952-.155-.176-.347-.417-.447-.717-.123-.371-.076-.763.126-1.049.246-.344.639-.46.954-.523.65-.13,1.311-.169,1.971-.11l-.081.915c-.569-.049-1.146-.017-1.71.096-.08.016-.32.064-.385.155-.026.037-.037.127-.004.227.047.142.16.281.264.399.345.392.755.717,1.217.968.402.217.458.545.376.779-.063.174-.186.267-.232.302-.895.685-1.992.83-3.16.83h0Z" fill="#000" stroke-width="0" data-sg-fill="sg-fill-0" />
  <path d="M94.711,52.571c-.46,0-.92-.064-1.36-.196-1.757-.527-3.061-2.239-3.033-3.98.007-.489.111-.92.31-1.282.274-.5.756-.914,1.434-1.229.959-.445,1.919-.519,2.701-.209,1.023.405,1.629,1.514,1.351,2.472-.16.552-.658.997-1.271,1.135-.546.123-1.078-.031-1.416-.412l.689-.607c.161.183.422.148.526.123.285-.064.523-.262.589-.494.16-.551-.297-1.16-.807-1.362-.736-.292-1.554-.009-1.975.187-.497.231-.839.513-1.016.837-.126.229-.192.517-.196.855-.022,1.346,1.001,2.672,2.378,3.086,1.374.413,2.965.008,3.963-1.007,1.908-1.943.847-4.725.325-5.546-.301-.473-.789-.901-1.45-1.272-2.839-1.592-6.42-1.028-9.223-.357-1.29.309-2.596.67-3.859,1.02-2.834.785-5.765,1.596-8.757,1.879-2.057.196-4.138.141-6.183-.161l.135-.909c1.971.291,3.975.344,5.962.156,2.911-.276,5.802-1.077,8.597-1.851,1.271-.352,2.586-.716,3.892-1.029,2.965-.71,6.77-1.299,9.886.449.806.452,1.386.969,1.775,1.58.623.981,1.881,4.315-.445,6.683-.909.925-2.219,1.44-3.522,1.44h0Z" fill="#000" stroke-width="0" data-sg-fill="sg-fill-0" />
  <path d="M89.069,45.654l-.388-.833c1.315-.61,2.777-.902,4.224-.843l-.038.918c-1.303-.051-2.616.209-3.798.759h0Z" fill="#000" stroke-width="0" data-sg-fill="sg-fill-0" />
  <path d="M81.021,48.235l-.158-.905c1.609-.28,3.16-.807,4.609-1.565l.093-.048c.336-.177.683-.36,1.093-.436l.169.903c-.274.051-.545.194-.834.346l-.095.05c-1.533.801-3.174,1.358-4.877,1.655Z" fill="#000" stroke-width="0" data-sg-fill="sg-fill-0" />
  <path d="M63.693,53.877c-.041-.423-.242-.904-.437-1.369-.374-.895-.798-1.91-.179-2.805.719-1.039,2.041-1.661,3.627-1.706.953-.021,1.919.144,2.838.31.312.057.625.113.938.161,3.03.47,6.153.183,9.045-.831l.303.867c-3.033,1.064-6.315,1.364-9.49.872-.32-.05-.641-.108-.961-.166-.913-.165-1.782-.323-2.649-.296-1.272.035-2.355.525-2.898,1.31-.31.449-.105,1.028.272,1.928.221.528.449,1.074.504,1.634l-.915.09h.002Z" fill="#000" stroke-width="0" data-sg-fill="sg-fill-0" />
  <path d="M97.42,79.59c-6.893,0-13.073-1.3-18.435-3.887l.398-.827c6.813,3.286,14.999,4.446,24.323,3.45,3.105-.332,7.093-.972,10.404-3l.479.783c-3.466,2.123-7.585,2.788-10.786,3.13-2.189.234-4.319.351-6.383.351h0Z" fill="#000" stroke-width="0" data-sg-fill="sg-fill-0" />
  <path d="M109.879,80.708l-.102-.913c1.318-.146,2.597-.611,3.701-1.346.218-.144.437-.305.566-.506.101-.157.133-.342.077-.459l.831-.393c.192.406.14.924-.136,1.351-.221.342-.543.583-.829.772-1.225.815-2.645,1.332-4.107,1.494h0Z" fill="#000" stroke-width="0" data-sg-fill="sg-fill-0" />
  <path d="M100.495,82.032c-.774,0-1.549-.025-2.323-.075l.059-.917c3.416.222,6.841-.059,10.177-.833l.208.895c-2.668.618-5.39.929-8.121.929h0Z" fill="#000" stroke-width="0" data-sg-fill="sg-fill-0" />
  <path d="M94.77,82.032c-2.076,0-4.152-.19-6.194-.566l.167-.903c2.549.47,5.154.641,7.744.506l.048.918c-.588.031-1.177.046-1.765.046h0Z" fill="#000" stroke-width="0" data-sg-fill="sg-fill-0" />
  <path d="M87.184,81.245c-2.175-.262-4.298-.833-6.313-1.697-.553-.237-1.13-.514-1.613-.93-.575-.495-.927-1.125-.989-1.771l.915-.087c.039.403.283.827.674,1.163.366.316.815.541,1.375.781,1.934.829,3.972,1.378,6.06,1.629l-.109.912Z" fill="#000" stroke-width="0" data-sg-fill="sg-fill-0" />
  <path d="M97.004,87.264c-8.027,0-13.37-4.281-14.817-5.594l.617-.68c2.854,2.589,8.082,5.355,14.199,5.355,5.098,0,8.969-1.726,9.693-2.071,2.021-.965,3.79-1.888,4.974-3.397l.723.567c-1.306,1.666-3.173,2.642-5.3,3.659-2.188,1.045-5.987,2.161-10.09,2.161h.001Z" fill="#000" stroke-width="0" data-sg-fill="sg-fill-0" />
  <rect x="95.426" y="53.24" width=".918" height="24.063" transform="translate(-3.265 5.075) rotate(-2.981)" fill="#000" stroke-width="0" data-sg-fill="sg-fill-0" />
  <rect x="104.586" y="50.506" width=".918" height="26.45" transform="translate(-17.392 73.994) rotate(-36.037)" fill="#000" stroke-width="0" data-sg-fill="sg-fill-0" />
  <rect x="74.904" y="63.233" width="24.185" height=".919" transform="translate(-12.889 104.289) rotate(-58.327)" fill="#000" stroke-width="0" data-sg-fill="sg-fill-0" />
  <path d="M81.411,98.529c-.144-.802-.761-1.564-1.652-2.039-.867-.462-1.88-.634-2.846-.75-.835-.1-1.683-.168-2.533-.236-2.794-.222-5.683-.453-8.168-1.868-.92-.524-2.49-1.673-2.656-3.478l.915-.084c.133,1.442,1.58,2.413,2.195,2.764,2.308,1.314,5.094,1.536,7.788,1.751.861.069,1.722.137,2.568.239,1.054.127,2.168.318,3.169.852,1.137.606,1.931,1.611,2.123,2.688l-.904.161h0Z" fill="#000" stroke-width="0" data-sg-fill="sg-fill-0" />
  <path d="M62.5,100.581c-8.069,0-16.137-.082-19.621-.245l.043-.918c6.953.326,32.203.326,39.158,0l.043.918c-3.484.163-11.554.245-19.622.245h0Z" fill="#000" stroke-width="0" data-sg-fill="sg-fill-0" />
  <path d="M75.879,98.379l-.145-.907c1.405-.224,2.837-.298,4.257-.227l-.047.918c-1.356-.069-2.724.004-4.065.217h0Z" fill="#000" stroke-width="0" data-sg-fill="sg-fill-0" />
  <path d="M66.642,45.801c-1.168,0-2.265-.145-3.161-.832-.046-.035-.173-.131-.232-.303-.08-.231-.024-.558.376-.776.462-.25.872-.575,1.218-.968.105-.118.218-.258.265-.399.033-.099.022-.189-.005-.228-.042-.059-.171-.111-.383-.153-.566-.114-1.142-.146-1.711-.096l-.081-.915c.658-.059,1.322-.02,1.972.11.315.063.709.179.953.523.203.287.25.679.127,1.049-.099.297-.282.529-.448.717-.325.368-.695.686-1.105.951.84.426,1.914.427,3.039.381l.036.918c-.289.012-.577.02-.859.02h-.001Z" fill="#000" stroke-width="0" data-sg-fill="sg-fill-0" />
  <path d="M64.044,59.381c-.285,0-.599-.057-.942-.171-.791-.263-1.54-.696-2.166-1.25l-.089-.078c-.493-.435-1.169-1.03-1.203-1.802-.022-.531.18-1.017.343-1.408l.849.353c-.142.338-.287.688-.273,1.014.016.381.522.827.892,1.153l.092.081c.533.473,1.171.841,1.846,1.066.341.114.804.207,1.077.004.384-.285.614-.535.656-.97.038-.39.052-.805-.09-1.197-.065-.18-.309-.539-.435-.641l.576-.716c.28.225.613.737.724,1.045.204.563.185,1.124.14,1.597-.079.816-.562,1.277-1.023,1.619-.27.201-.596.301-.973.301h0Z" fill="#000" stroke-width="0" data-sg-fill="sg-fill-0" />
  <path d="M64.189,64.154c-.256,0-.501-.032-.717-.074-.692-.137-1.347-.414-1.952-.693-.623-.287-1.333-.64-1.893-1.192-.648-.638-.984-1.478-.9-2.246.083-.773.749-1.558,1.556-1.483l-.079.915c-.288-.016-.529.339-.564.667-.054.492.182,1.05.631,1.492.456.448,1.057.746,1.634,1.012.64.295,1.181.514,1.746.626.345.068.981.133,1.366-.196.179-.153.306-.399.357-.69.08-.469-.059-.987-.365-1.351l.703-.591c.482.574.693,1.358.567,2.098-.088.502-.324.939-.665,1.231-.422.362-.942.474-1.425.474h0Z" fill="#000" stroke-width="0" data-sg-fill="sg-fill-0" />
  <path d="M64.199,69.433h-.007c-.575-.002-1.181-.143-1.906-.443-.657-.272-1.287-.615-1.873-1.021-.461-.318-1.111-.827-1.436-1.564-.362-.815-.208-1.754.374-2.283l.617.68c-.323.293-.319.853-.152,1.231.179.405.524.769,1.119,1.18.533.369,1.106.681,1.703.928.611.253,1.106.372,1.557.373h.004c.526,0,.998-.174,1.298-.479.512-.52.511-1.393.283-2.027l.865-.311c.397,1.104.205,2.276-.493,2.983-.472.479-1.183.753-1.953.753h0Z" fill="#000" stroke-width="0" data-sg-fill="sg-fill-0" />
  <path d="M64.629,74.519c-.088,0-.178-.003-.27-.009-1.8-.123-3.346-1.152-4.492-2.035-.443-.342-.94-.755-1.218-1.332-.346-.715-.24-1.548.261-2.027l.635.663c-.238.228-.214.667-.069.964.191.397.575.714.953,1.005,1.042.804,2.438,1.74,3.993,1.846.493.036.865-.048,1.094-.241.346-.295.414-.872.434-1.452.01-.272.004-.647-.163-.77l.545-.74c.577.425.548,1.208.536,1.543-.028.752-.139,1.592-.758,2.119-.366.31-.864.467-1.481.467h0Z" fill="#000" stroke-width="0" data-sg-fill="sg-fill-0" />
  <path d="M64.274,79.387c-.341,0-.711-.061-1.113-.183-1.401-.424-2.717-1.165-3.806-2.145-.385-.345-.852-.823-1.052-1.454-.237-.74-.012-1.536.548-1.934l.533.748c-.262.187-.301.607-.205.907.133.418.474.765.79,1.05.99.89,2.185,1.564,3.458,1.949.574.174,1.034.188,1.403.046.958-.372,1.104-1.569.913-2.106l.867-.307c.344.972.028,2.696-1.447,3.269-.275.107-.57.16-.889.16Z" fill="#000" stroke-width="0" data-sg-fill="sg-fill-0" />
  <path d="M64.168,83.839c-.614,0-1.218-.165-1.697-.324-.894-.297-2.032-.747-2.902-1.601-.278-.273-.463-.526-.58-.796-.301-.69-.155-1.408.036-2.144l.89.231c-.155.596-.268,1.123-.084,1.545.069.159.191.32.382.508.736.722,1.748,1.119,2.548,1.385,1.068.354,1.797.369,2.299.046.616-.397.764-1.279.59-1.945l.89-.231c.303,1.168-.1,2.38-.983,2.949-.432.279-.912.378-1.388.378h0Z" fill="#000" stroke-width="0" data-sg-fill="sg-fill-0" />
  <path d="M64.485,89.107c-.088,0-.171-.003-.251-.008-1.451-.085-2.838-.673-3.905-1.657-.59-.544-.972-1.124-1.138-1.726-.217-.792-.025-1.639.489-2.16l.653.646c-.287.291-.388.79-.256,1.271.118.433.413.868.875,1.293.899.828,2.115,1.345,3.336,1.416.247.015.557.014.774-.113.19-.111.339-.343.41-.636.075-.312.065-.655.054-1.019-.009-.288-.059-.504-.301-.822l.732-.554c.329.435.47.825.487,1.348.013.409.025.831-.079,1.263-.131.543-.43.974-.84,1.213-.339.199-.713.245-1.041.245h0Z" fill="#000" stroke-width="0" data-sg-fill="sg-fill-0" />
  <rect x="50.916" y="97.342" width="22.718" height=".919" fill="#000" stroke-width="0" data-sg-fill="sg-fill-0" />
  <rect x="62.199" y="103.383" width=".919" height="11.763" fill="#000" stroke-width="0" data-sg-fill="sg-fill-0" />
  <rect x="49.968" y="107.059" width="8.95" height=".919" transform="translate(-64.85 124.651) rotate(-71.317)" fill="#000" stroke-width="0" data-sg-fill="sg-fill-0" />
  <rect x="47.283" y="105.451" width="6.274" height=".919" transform="translate(-66.449 95.867) rotate(-59.631)" fill="#000" stroke-width="0" data-sg-fill="sg-fill-0" />
  <rect x="45.536" y="103.729" width="3.156" height=".919" transform="translate(-59.873 63.831) rotate(-45)" fill="#000" stroke-width="0" data-sg-fill="sg-fill-0" />
  <rect x="52.599" y="108.089" width="10.88" height=".919" transform="translate(-59.892 143.812) rotate(-78.515)" fill="#000" stroke-width="0" data-sg-fill="sg-fill-0" />
  <rect x="70.416" y="103.042" width=".919" height="8.95" transform="translate(-30.666 28.318) rotate(-18.654)" fill="#000" stroke-width="0" data-sg-fill="sg-fill-0" />
  <rect x="74.439" y="102.774" width=".919" height="6.274" transform="translate(-43.28 52.425) rotate(-30.382)" fill="#000" stroke-width="0" data-sg-fill="sg-fill-0" />
  <rect x="77.746" y="102.61" width=".919" height="3.156" transform="translate(-50.764 85.802) rotate(-44.994)" fill="#000" stroke-width="0" data-sg-fill="sg-fill-0" />
  <rect x="66.82" y="103.109" width=".919" height="10.88" transform="translate(-20.315 15.615) rotate(-11.515)" fill="#000" stroke-width="0" data-sg-fill="sg-fill-0" />
  <path d="M15.219,75.294l-.163-.904c3.57-.648,7.22-1.037,10.848-1.159l.031.918c-3.583.12-7.188.506-10.715,1.146h0Z" fill="#000" stroke-width="0" data-sg-fill="sg-fill-0" />
  <path d="M41.993,74.856c-3.617-.667-7.315-.884-10.983-.638l-.061-.917c3.749-.247,7.518-.029,11.211.652l-.167.903Z" fill="#000" stroke-width="0" data-sg-fill="sg-fill-0" />
  <path d="M34.575,76.401c-1.041-.218-2.107-.279-3.165-.179l-.086-.914c1.148-.109,2.308-.044,3.439.195l-.188.899h0Z" fill="#000" stroke-width="0" data-sg-fill="sg-fill-0" />
  <rect x="20.958" y="75.706" width="5.06" height=".919" transform="translate(-1.925 .621) rotate(-1.454)" fill="#000" stroke-width="0" data-sg-fill="sg-fill-0" />
  <rect x="48.71" y="35.419" width=".919" height="8.248" transform="translate(-10.005 17.642) rotate(-18.497)" fill="#000" stroke-width="0" data-sg-fill="sg-fill-0" />
  <rect x="52.544" y="16.167" width=".919" height="26.775" transform="translate(-3.746 8.052) rotate(-8.392)" fill="#000" stroke-width="0" data-sg-fill="sg-fill-0" />
  <path d="M109.746,75.294c-3.527-.64-7.132-1.025-10.715-1.146l.031-.918c3.628.122,7.278.511,10.848,1.159l-.163.904h0Z" fill="#000" stroke-width="0" data-sg-fill="sg-fill-0" />
  <path d="M82.972,74.856l-.167-.903c3.693-.68,7.462-.9,11.211-.652l-.061.917c-3.669-.244-7.364-.028-10.983.638Z" fill="#000" stroke-width="0" data-sg-fill="sg-fill-0" />
  <path d="M90.39,76.401l-.188-.899c1.131-.238,2.292-.302,3.439-.195l-.086.914c-1.058-.1-2.124-.039-3.165.179h0Z" fill="#000" stroke-width="0" data-sg-fill="sg-fill-0" />
  <rect x="101.016" y="73.636" width=".919" height="5.06" transform="translate(22.841 175.741) rotate(-88.593)" fill="#000" stroke-width="0" data-sg-fill="sg-fill-0" />
  <rect x="71.671" y="39.083" width="8.248" height=".919" transform="translate(14.258 98.887) rotate(-71.512)" fill="#000" stroke-width="0" data-sg-fill="sg-fill-0" />
  <rect x="58.572" y="29.095" width="26.775" height=".919" transform="translate(32.258 96.453) rotate(-81.641)" fill="#000" stroke-width="0" data-sg-fill="sg-fill-0" />
  <path d="M62.033,125c-15.917,0-30.607-14.026-37.424-35.732l.876-.275c6.695,21.316,21.041,35.089,36.548,35.089,15.378,0,29.673-13.61,36.416-34.673l.876.28c-6.974,21.781-21.263,35.312-37.292,35.312h0Z" fill="#000" stroke-width="0" data-sg-fill="sg-fill-0" />
  <path d="M21.652,58.157l-.917-.042C22.229,25.527,40.369,0,62.033,0c21.336,0,39.042,24.129,41.186,56.126l-.917.061C100.19,24.679,82.879.919,62.033.919,40.861.919,23.124,26.061,21.652,58.157Z" fill="#000" stroke-width="0" data-sg-fill="sg-fill-0" />
  <path d="M62.033,120.701c-13.81,0-26.395-11.93-32.843-31.134l.87-.292c6.319,18.818,18.57,30.508,31.973,30.508s25.6-11.641,31.931-30.381l.87.294c-6.461,19.125-19.03,31.006-32.801,31.006h0Z" fill="#000" stroke-width="0" data-sg-fill="sg-fill-0" />
  <path d="M28.574,40.716l-.888-.232C33.424,18.503,46.906,4.299,62.033,4.299c14.956,0,28.381,13.984,34.199,35.627l-.886.239c-5.708-21.229-18.784-34.947-33.313-34.947-14.695,0-27.829,13.934-33.458,35.498h-.001Z" fill="#000" stroke-width="0" data-sg-fill="sg-fill-0" />
</g></svg>