<svg xmlns="http://www.w3.org/2000/svg" id="Layer_1" data-name="Layer 1" version="1.1" viewBox="0.0 0.0 100.0 100.0">
  <g transform="scale(0.8)"><path d="M57.862,21.304c-.293,0-.55-.185-.645-.474-.586-1.801-1.437-3.489-2.529-5.017-1.197-1.673-2.661-3.128-4.352-4.323-.157-.112-.261-.284-.283-.471-.023-.188.038-.379.165-.525,1.296-1.483,2.358-3.145,3.158-4.94.708-1.587,1.202-3.261,1.47-4.977.05-.322.311-.559.634-.578.321-.01.612.189.699.504h0c.342,1.233,1.881,3.448,2.832,4.636.943,1.178,2.673,2.931,4.019,3.858.183.126.299.317.318.526.018.195-.053.389-.194.531-1.452,1.462-2.591,3.158-3.382,5.042-.738,1.756-1.15,3.623-1.223,5.548-.013.338-.255.606-.587.652-.034.005-.066.007-.099.007h-.001ZM50.994,10.907c1.7,1.228,3.176,2.71,4.39,4.407.977,1.365,1.768,2.852,2.361,4.43.154-1.722.568-3.393,1.235-4.98.808-1.921,1.956-3.657,3.416-5.163-1.401-1.002-3.083-2.711-4.056-3.925-.741-.927-2.137-2.86-2.76-4.311-.296,1.562-.773,3.086-1.421,4.539-.808,1.812-1.872,3.494-3.165,5.003Z" fill="#000" stroke-width="0" data-sg-fill="sg-fill-0" />
  <path d="M43.295,42.149c-.047,0-.095-.005-.142-.015-.298-.064-.506-.312-.506-.601.004-1.249-.217-2.499-.656-3.717-.482-1.336-1.218-2.611-2.187-3.786-.121-.148-.165-.333-.122-.508s.168-.319.341-.394c1.33-.575,2.529-1.318,3.562-2.208.908-.784,1.683-1.679,2.301-2.659.151-.24.445-.34.727-.251.281.089.458.337.443.617h0c-.04.73.472,2.369.975,3.541.415.969,1.276,2.496,2.053,3.417.137.164.187.366.135.556-.049.181-.183.323-.369.39-1.438.519-2.699,1.262-3.747,2.208-.972.879-1.727,1.907-2.247,3.058-.1.219-.318.352-.56.352h0ZM40.693,33.767c.92,1.172,1.628,2.435,2.105,3.758.37,1.027.596,2.076.674,3.129.533-.943,1.221-1.799,2.055-2.553,1.042-.942,2.277-1.696,3.674-2.245-.77-.994-1.55-2.394-1.96-3.352-.334-.78-.845-2.177-1-3.236-.594.838-1.297,1.609-2.097,2.299-1.012.873-2.171,1.612-3.45,2.199h0ZM49.559,35.723h0ZM46.611,28.717h0Z" fill="#000" stroke-width="0" data-sg-fill="sg-fill-0" />
  <path d="M78.347,82.941c-.04,0-.08-.004-.121-.013-.272-.057-.459-.288-.454-.562.013-.944-.128-1.883-.419-2.79-.319-.995-.812-1.936-1.466-2.797-.101-.134-.137-.299-.101-.457s.142-.291.289-.366c.916-.468,1.745-1.06,2.46-1.761.632-.619,1.171-1.316,1.602-2.072.133-.231.405-.335.659-.259.255.077.42.313.404.574h0c-.034.546.305,1.769.639,2.643.277.721.854,1.851,1.377,2.523.113.146.153.327.11.497-.042.163-.157.296-.315.364-.987.428-1.855,1.02-2.58,1.761-.673.689-1.201,1.486-1.567,2.369-.089.214-.292.346-.518.346h.001ZM78.629,82.378v.002-.002ZM76.783,76.551c.607.858,1.073,1.787,1.386,2.764.203.632.339,1.28.408,1.935.344-.587.759-1.13,1.241-1.623.716-.733,1.558-1.334,2.505-1.79-.511-.74-1.016-1.747-1.285-2.448-.194-.508-.477-1.363-.615-2.11-.377.547-.808,1.059-1.289,1.53-.694.679-1.483,1.264-2.352,1.743h.001ZM80.344,72.385v.003h0v-.003Z" fill="#000" stroke-width="0" data-sg-fill="sg-fill-0" />
  <path d="M40.012,64.42c-.196,0-.38-.101-.483-.279-.476-.818-1.08-1.551-1.796-2.179-.786-.689-1.693-1.242-2.696-1.644-.154-.062-.271-.185-.322-.338-.05-.154-.028-.323.059-.464.544-.872.949-1.806,1.204-2.776.224-.854.327-1.73.308-2.602-.006-.263.17-.493.429-.56.255-.064.524.05.645.284h0c.251.486,1.17,1.36,1.907,1.936.608.476,1.684,1.147,2.479,1.455.172.066.299.201.349.369.048.162.018.335-.084.476-.625.873-1.065,1.828-1.305,2.837-.223.935-.265,1.89-.124,2.837.04.269-.114.522-.375.614-.064.023-.131.034-.195.034ZM39.733,63.897v.002-.002ZM35.687,59.661c.962.424,1.839.98,2.611,1.656.499.438.95.923,1.346,1.449-.008-.681.069-1.36.228-2.03.238-.997.65-1.946,1.228-2.825-.821-.372-1.772-.975-2.361-1.437-.429-.335-1.111-.924-1.614-1.493-.042.664-.148,1.326-.318,1.976-.246.941-.622,1.849-1.119,2.704h-.001ZM41.436,58.053h0ZM41.315,57.597s-.002,0-.002.002l.002-.002ZM36.599,54.258h0Z" fill="#000" stroke-width="0" data-sg-fill="sg-fill-0" />
  <path d="M60.004,79.993c-.239,0-.503-.053-.782-.16-1.736-.674-3.221-2.01-4.074-3.666l.762-.393c.759,1.472,2.079,2.66,3.622,3.259.318.124.631.139.696.034.042-.066.04-.23.039-.328-.074-6.48-2.749-12.818-7.341-17.39-.395-.393-.822-.793-1.332-.984-.402-.152-.957-.162-1.288.156s-.41.912-.237,1.816c.488,2.557,1.567,5.011,3.121,7.098l-.689.512c-1.63-2.19-2.763-4.766-3.275-7.449-.147-.773-.257-1.883.487-2.595.529-.507,1.386-.64,2.183-.34.669.251,1.195.74,1.636,1.179,4.75,4.729,7.517,11.285,7.593,17.987.003.192.007.515-.17.795-.193.31-.533.47-.951.47h0Z" fill="#000" stroke-width="0" data-sg-fill="sg-fill-0" />
  <path d="M52.272,58.958c-.249,0-.498-.008-.746-.023l.054-.856c2.799.177,5.679-.713,7.897-2.431,2.219-1.718,3.796-4.284,4.327-7.039.182-.936.192-1.667.033-2.3-.261-1.036-1.03-2.011-2.354-2.983-.356-.262-.725-.508-1.092-.755-.79-.529-1.606-1.076-2.304-1.771-2.586-2.578-3.075-7.149-1.138-10.631,1.716-3.086,5.125-5.341,9.119-6.032,2.048-.356,3.697-.192,5.037.498,1.162.599,2.169,1.659,2.992,3.149.08.143.157.289.234.435.304.574.591,1.117,1.018,1.525.758.723,2.01,1.019,3.439.805.767-.114,1.504-.339,2.284-.577.528-.161,1.055-.321,1.591-.446,3.99-.932,8.601.033,13.709,2.869l-.417.75c-4.915-2.73-9.325-3.665-13.096-2.784-.518.121-1.027.277-1.536.432-.776.237-1.578.481-2.409.605-1.69.251-3.205-.126-4.156-1.033-.528-.504-.861-1.135-1.184-1.744-.075-.141-.149-.282-.226-.421-.74-1.339-1.627-2.282-2.635-2.802-1.165-.602-2.638-.738-4.497-.415-3.74.648-6.923,2.742-8.516,5.604-1.757,3.159-1.329,7.289.995,9.607.638.637,1.384,1.137,2.175,1.666.378.254.756.508,1.122.777,1.491,1.094,2.366,2.227,2.678,3.465.191.759.184,1.609-.022,2.673-.57,2.957-2.263,5.71-4.644,7.555-2.185,1.692-4.966,2.632-7.731,2.632v-.004h-.001Z" fill="#000" stroke-width="0" data-sg-fill="sg-fill-0" />
  <path d="M64.712,42.152c-.486-.77-1.319-1.228-2.202-1.714-.574-.316-1.168-.642-1.687-1.071-1.907-1.575-2.582-4.577-1.603-7.138.828-2.167,2.758-4.061,5.292-5.199,1.854-.832,4.393-1.18,5.963.33.589.565.999,1.355,1.22,2.348.293,1.318.158,2.61-.38,3.639-.328.626-.792,1.14-1.241,1.638-.331.367-.642.714-.9,1.097-.498.741-.782,1.602-1.081,2.513-.338,1.026-.687,2.087-1.373,2.98l-.68-.523c.597-.777.909-1.723,1.238-2.725.305-.926.621-1.884,1.184-2.723.292-.434.639-.82.975-1.193.432-.48.84-.933,1.118-1.463.444-.849.552-1.934.302-3.054-.183-.825-.512-1.469-.977-1.916-1.263-1.213-3.418-.882-5.018-.165-2.33,1.045-4.094,2.766-4.843,4.723-.851,2.227-.284,4.822,1.349,6.169.457.377.99.671,1.555.981.939.517,1.91,1.051,2.514,2.007l-.725.458h0Z" fill="#000" stroke-width="0" data-sg-fill="sg-fill-0" />
  <path d="M62.532,78.181l-.744-.426c1.833-3.2,3.945-5.807,6.277-7.746,2.77-2.304,5.912-3.731,9.087-4.124,1.694-.212,3.413-.128,5.075-.048l.658.031c3.081.138,6.349.143,9.371-.752,3.575-1.059,6.804-3.391,9.094-6.565,2.157-2.993,3.478-6.787,3.718-10.682l.856.053c-.254,4.113-1.595,7.962-3.879,11.131-2.399,3.327-5.789,5.772-9.546,6.886-3.142.931-6.496.928-9.652.786l-.661-.031c-1.627-.079-3.308-.16-4.929.042-3.011.374-6,1.734-8.645,3.932-2.253,1.874-4.3,4.402-6.081,7.513,0,0,0,0,.001,0Z" fill="#000" stroke-width="0" data-sg-fill="sg-fill-0" />
  <path d="M105.287,45.696l-.854-.076c.237-2.66-.885-5.031-1.867-6.551-1.325-2.05-3.16-3.781-4.775-5.243l.576-.636c1.655,1.499,3.537,3.276,4.919,5.413,1.055,1.633,2.26,4.19,2.001,7.093Z" fill="#000" stroke-width="0" data-sg-fill="sg-fill-0" />
  <path d="M107.793,48.729c-.329,0-.63-.112-.86-.324l.58-.632c.108.099.253.107.354.094.228-.026.467-.17.595-.358.274-.404.283-.969.253-1.52-.266-4.761-2.796-9.631-7.736-14.889-.503-.534-1.003-1.04-1.593-1.349-.619-.322-1.28-.372-1.767-.13-.453.223-.797.829-.579,1.307l-.781.356c-.394-.863.056-1.977.981-2.433.733-.361,1.684-.308,2.543.14.709.371,1.267.931,1.821,1.522,5.084,5.411,7.69,10.458,7.967,15.429.038.667.019,1.432-.4,2.049-.268.394-.73.673-1.205.728-.058.007-.116.01-.173.01Z" fill="#000" stroke-width="0" data-sg-fill="sg-fill-0" />
  <path d="M58.622,64.577c-.992-1.808-2.266-3.43-3.788-4.821l.578-.633c1.592,1.455,2.925,3.151,3.962,5.041l-.752.413Z" fill="#000" stroke-width="0" data-sg-fill="sg-fill-0" />
  <path d="M62.508,73.605c-.676-2.835-1.773-5.517-3.261-7.975l.734-.444c1.534,2.533,2.665,5.298,3.362,8.219l-.834.199h0Z" fill="#000" stroke-width="0" data-sg-fill="sg-fill-0" />
  <path d="M76.317,42.19c-.292,0-.565-.024-.824-.072-.401-.075-.748-.326-.952-.69-.215-.384-.249-.839-.092-1.248.233-.606.456-1.081.701-1.497.879-1.489,2.367-2.733,4.306-3.598,1.711-.764,3.535-1.156,5.298-1.537l.181.838c-1.721.371-3.5.755-5.129,1.481-1.238.553-2.923,1.565-3.918,3.251-.22.374-.424.81-.639,1.369-.064.167-.049.362.039.521.047.083.155.228.36.266.525.098,1.145.072,1.893-.078,3.377-.679,6.622-2.978,8.899-6.306l.709.484c-2.403,3.511-5.844,5.94-9.439,6.663-.508.102-.969.153-1.394.153,0,0,0,0,.001,0Z" fill="#000" stroke-width="0" data-sg-fill="sg-fill-0" />
  <path d="M84.184,50.796l-.114-.85c4.296-.577,8.258-3.519,10.094-7.495.035-.076-.003-.139-.014-.156-.028-.039-.074-.061-.107-.051-4.296.446-8.385,2.549-11.22,5.771-.603.686-1.302,1.604-1.354,2.632l-.856-.043c.064-1.293.871-2.366,1.566-3.156,2.975-3.382,7.267-5.59,11.774-6.058.348-.034.686.115.894.406.211.296.248.684.095,1.014-1.957,4.235-6.179,7.369-10.759,7.985h0Z" fill="#000" stroke-width="0" data-sg-fill="sg-fill-0" />
  <path d="M90.143,58.329c-.067,0-.134,0-.201-.003-.283-.008-.542-.146-.709-.378-.176-.244-.23-.562-.142-.851.418-1.395,1.3-2.722,2.55-3.839,1.117-.997,2.486-1.828,4.441-2.693.461-.204.954-.395,1.49-.283l-.174.84c-.286-.061-.622.074-.969.227-1.87.827-3.17,1.614-4.217,2.549-1.132,1.011-1.927,2.202-2.3,3.445-.013.042,0,.08.017.103,1.341.054,2.755-.333,4.001-1.081,1.263-.758,2.42-1.888,3.438-3.359l.705.488c-1.087,1.571-2.333,2.784-3.701,3.606-1.343.806-2.8,1.229-4.228,1.229,0,0,0,0-.001,0Z" fill="#000" stroke-width="0" data-sg-fill="sg-fill-0" />
  <path d="M72.567,64.778c-.505-2.651-1.279-4.805-2.366-6.586-1.289-2.113-3.088-3.727-5.066-4.543l.327-.793c2.145.886,4.089,2.622,5.472,4.89,1.141,1.87,1.951,4.118,2.476,6.872l-.843.161h0Z" fill="#000" stroke-width="0" data-sg-fill="sg-fill-0" />
  <path d="M76.272,64.41l-.444-.734c.919-.556,1.261-1.94.73-2.963-.354-.684-1.04-1.197-1.881-1.408-.712-.178-1.143-.929-.962-1.673.196-.805-.032-1.74-.582-2.384-.593-.693-1.518-1.137-2.604-1.252-.663-.07-1.182-.555-1.262-1.18-.035-.276-.117-.531-.243-.755-.466-.826-1.625-1.194-2.48-.788l-.369-.775c1.262-.6,2.911-.077,3.596,1.143.18.321.297.68.347,1.066.029.23.235.409.502.437,1.305.137,2.429.687,3.166,1.547.724.847,1.024,2.081.763,3.145-.07.288.081.574.337.638,1.081.27,1.968.942,2.436,1.845.739,1.427.259,3.301-1.049,4.092h0Z" fill="#000" stroke-width="0" data-sg-fill="sg-fill-0" />
  <path d="M86.35,63.796c-1.971,0-3.895-.195-5.628-.371l.087-.854c3.752.38,8.423.854,12.374-.83l.337.789c-2.284.974-4.762,1.265-7.17,1.265h0Z" fill="#000" stroke-width="0" data-sg-fill="sg-fill-0" />
  <path d="M95.235,61.636l-.278-.812c1.012-.347,1.953-.923,2.722-1.666l.596.617c-.859.83-1.911,1.473-3.041,1.86h0Z" fill="#000" stroke-width="0" data-sg-fill="sg-fill-0" />
  <rect x="58.226" y="56.9" width="6.678" height=".858" transform="translate(-22.432 52.711) rotate(-39.813)" fill="#000" stroke-width="0" data-sg-fill="sg-fill-0" />
  <rect x="60.14" y="59.405" width="8.034" height=".858" transform="translate(-23.234 52.15) rotate(-37.978)" fill="#000" stroke-width="0" data-sg-fill="sg-fill-0" />
  <rect x="61.674" y="62.367" width="8.892" height=".858" transform="translate(-23.581 46.396) rotate(-33.162)" fill="#000" stroke-width="0" data-sg-fill="sg-fill-0" />
  <rect x="63.646" y="66.518" width="6.64" height=".858" transform="translate(-25.386 46.031) rotate(-32.231)" fill="#000" stroke-width="0" data-sg-fill="sg-fill-0" />
  <path d="M77.65,101.114l-.826-.234c.3-1.058.365-2.523-1.02-3.486-1.344-.934-2.946-1.384-4.337-1.701-7.37-1.681-15.076-.864-22.307.269-1.393.218-2.787.45-4.181.682-5.976.996-12.144,2.023-18.32,1.922-2.778-.046-6.312-.356-9.007-2.358-.869-.645-1.48-1.362-1.818-2.129-.286-.653-.42-1.421-.417-2.417.005-3.955,3.847-8.578,9.79-11.778,2.305-1.241,6.512-2.585,9.086-3.117,1.638-.338,3.314-.634,4.933-.919,3.644-.642,7.412-1.306,10.957-2.503,2.345-.792,4.617-1.823,6.755-3.065l.431.741c-2.187,1.271-4.512,2.326-6.911,3.136-3.607,1.218-7.407,1.887-11.082,2.535-1.613.284-3.282.578-4.908.915-2.516.52-6.616,1.827-8.853,3.032-5.669,3.052-9.335,7.379-9.339,11.024-.002.873.108,1.531.345,2.071.276.63.796,1.231,1.543,1.786,2.5,1.856,5.862,2.145,8.511,2.189,6.066.098,12.226-.921,18.165-1.911,1.396-.232,2.793-.465,4.189-.684,7.314-1.145,15.118-1.971,22.63-.258,1.384.315,3.162.809,4.635,1.832,1.406.977,1.887,2.548,1.357,4.424v.002h-.001Z" fill="#000" stroke-width="0" data-sg-fill="sg-fill-0" />
  <path d="M78.393,90.76c-5.912-1.607-12.203-1.553-18.281-1.495-3.047.027-6.199.056-9.285-.123-2.602-.151-5.301-.503-7.417-2.046-.692-.505-1.116-1.031-1.298-1.609-.163-.519-.146-1.099.054-1.825.88-3.177,3.905-5.246,6.443-6.693,2.604-1.484,5.33-2.809,8.103-3.937l.323.794c-2.738,1.114-5.43,2.422-8,3.888-2.544,1.45-5.251,3.318-6.042,6.176-.154.56-.174.986-.063,1.34.126.402.439.774.985,1.173,1.937,1.412,4.491,1.739,6.962,1.883,3.056.178,6.196.149,9.227.121,6.143-.057,12.489-.113,18.514,1.525l-.224.828h-.001Z" fill="#000" stroke-width="0" data-sg-fill="sg-fill-0" />
  <path d="M76.447,120.026c-.343,0-.695-.033-1.055-.099-2.144-.395-4.228-1.928-5.07-3.727-1.112-2.307-.348-6.103,2.825-8.206,2.954-1.956,6.349-2.463,9.632-2.953,2.182-.325,4.438-.662,6.492-1.428,1.843-.686,2.695-1.753,2.531-3.169-.426-3.689-7.231-8.764-11.349-9.291l.109-.851c4.483.573,11.623,5.962,12.092,10.044.147,1.278-.268,3.022-3.083,4.071-2.139.797-4.44,1.14-6.665,1.472-3.191.476-6.49.968-9.285,2.82-2.789,1.847-3.482,5.136-2.525,7.123.733,1.568,2.562,2.903,4.45,3.251.967.179,2.355.167,3.46-.902,1.721-1.667,2.322-3.363,1.691-4.777-.604-1.354-2.357-2.325-3.983-2.211-.706.049-1.954.355-2.382,1.847-.331,1.153.266,1.758.652,2.016.661.442,1.594.489,2.079.104.471-.373.349-1.037.165-1.528l.802-.302c.565,1.501-.116,2.25-.435,2.503-.782.619-2.108.593-3.089-.064-.972-.65-1.344-1.759-.998-2.965.418-1.456,1.565-2.355,3.146-2.466,1.996-.138,4.073,1.027,4.827,2.717.457,1.024.82,3.131-1.878,5.743-.833.807-1.93,1.228-3.156,1.228h0Z" fill="#000" stroke-width="0" data-sg-fill="sg-fill-0" />
  <path d="M61.313,124.989c-2.075,0-4.146-.937-5.506-2.582-1.224-1.481-2.882-4.776-.229-10.204,2.701-5.217,8.1-6.714,13.321-8.163,2.402-.666,4.885-1.355,7.003-2.399l.379.769c-2.189,1.079-4.712,1.779-7.152,2.456-5.044,1.399-10.26,2.846-12.784,7.722-2.438,4.987-.969,7.95.124,9.272,1.534,1.856,4.093,2.691,6.369,2.07,2.09-.568,3.511-2.279,3.902-4.695.195-1.151-.089-2.235-.822-3.138-.938-1.156-2.559-1.914-4.23-1.979-1.492-.286-2.41.722-2.788,1.759-.464,1.276-.261,3.018,1.029,3.732.788.488,1.661.517,2.353.094.522-.319.834-.842.795-1.332-.044-.537-.498-1.009-1.281-1.329l.325-.794c1.48.606,1.77,1.547,1.81,2.054.066.822-.395,1.639-1.202,2.133-.973.595-2.181.564-3.233-.086-1.708-.944-2.003-3.115-1.402-4.765.626-1.721,2.075-2.63,3.692-2.315,1.874.067,3.692.925,4.797,2.288.894,1.1,1.24,2.421,1.002,3.819-.446,2.759-2.094,4.722-4.523,5.382-.573.155-1.162.231-1.75.231h0Z" fill="#000" stroke-width="0" data-sg-fill="sg-fill-0" />
  <path d="M49.947,113.543c-.39,0-.786-.056-1.165-.171-1.144-.347-1.993-1.164-2.389-2.298-.472-1.349-.491-2.55-.062-3.778.818-2.344,2.563-4.215,4.667-5.005,1.114-.418,2.304-.536,3.332-.614,1.168-.089,2.353-.138,3.5-.185,1.049-.043,2.097-.086,3.145-.16,2.036-.142,4.126-.444,5.633-1.683.352-.289.59-.571.73-.86.296-.615.21-1.39.135-2.074l.853-.094c.084.759.188,1.704-.215,2.54-.193.404-.507.781-.957,1.151-1.692,1.393-3.94,1.725-6.117,1.877-1.055.074-2.113.117-3.17.161-1.139.047-2.317.095-3.47.183-.969.074-2.088.184-3.096.562-1.869.702-3.424,2.378-4.16,4.485-.366,1.05-.347,2.04.062,3.212.304.869.954,1.495,1.829,1.76.869.264,1.868.129,2.485-.335.603-.453.833-1.91.466-2.941-.182-.508-.706-.886-1.246-.898-.534-.026-1.128.289-1.267.795-.108.395.02.537.063.583.203.225.67.265.78.243l.167.841c-.292.058-1.094.015-1.57-.495-.23-.245-.462-.688-.267-1.4.26-.95,1.293-1.441,2.113-1.426.896.02,1.733.623,2.035,1.467.446,1.248.244,3.163-.757,3.915-.558.42-1.31.642-2.085.642h-.002Z" fill="#000" stroke-width="0" data-sg-fill="sg-fill-0" />
  <path d="M22.424,94.082c-1.403-.075-2.703-1.271-3.024-2.781-.269-1.27.088-2.717.979-3.972.8-1.126,1.885-1.959,2.938-2.691,2.484-1.727,5.354-3.284,9.034-4.901l.345.786c-3.628,1.593-6.452,3.125-8.89,4.82-.989.688-2.005,1.465-2.728,2.484-.752,1.06-1.058,2.262-.838,3.297.243,1.143,1.202,2.047,2.23,2.102l-.045.857h0Z" fill="#000" stroke-width="0" data-sg-fill="sg-fill-0" />
  <path d="M30.407,95.671c-1.401,0-2.791-.196-4.144-.586l-.439-.132c-.528-.161-1.026-.313-1.536-.357l.074-.854c.601.051,1.166.224,1.713.391l.426.128c1.571.453,3.195.63,4.827.523l.055.856c-.326.021-.651.032-.976.032h0Z" fill="#000" stroke-width="0" data-sg-fill="sg-fill-0" />
  <path d="M33.121,95.337h-.122l.015-.858c1.206.035,5.258-.336,6.394-.513l.132.848c-1.153.18-5.04.524-6.419.524h0Z" fill="#000" stroke-width="0" data-sg-fill="sg-fill-0" />
  <path d="M33.269,92.468c-1.604,0-3.167-.357-4.681-.703-.71-.162-1.446-.33-2.137-.669-.507-.247-.865-.541-1.095-.896-.452-.7-.41-1.689.108-2.518.422-.677,1.046-1.14,1.703-1.594,1.285-.887,2.629-1.721,3.995-2.479.558-.31,1.158-.629,1.816-.83l.251.82c-.579.177-1.133.472-1.652.76-1.341.744-2.661,1.563-3.923,2.434-.58.4-1.127.804-1.463,1.342-.281.45-.425,1.118-.115,1.598.142.221.389.415.751.592.602.295,1.288.452,1.951.603,1.526.348,3.13.71,4.672.68l.017.858c-.066,0-.132.002-.199.002,0,0,0,0,.001,0Z" fill="#000" stroke-width="0" data-sg-fill="sg-fill-0" />
  <path d="M32.094,90.057c-.324-.069-.691-.147-1.029-.339-.425-.24-.712-.634-.768-1.052-.077-.573.245-1.056.536-1.413.629-.773,1.991-1.115,2.294-1.158l.121.849c-.253.036-1.335.34-1.75.849-.167.206-.385.508-.352.757.021.152.152.313.342.421.224.127.508.187.784.245l-.178.839v.002Z" fill="#000" stroke-width="0" data-sg-fill="sg-fill-0" />
  <path d="M45.377,91.071c-.609,0-1.173-.198-1.698-.401-1.393-.539-3.108-1.357-4.002-2.906-.735-1.273-.837-2.932-.278-4.551.551-1.6,1.649-2.914,2.427-3.763.83-.904,1.971-2.011,3.439-2.549l.295.805c-1.295.475-2.338,1.492-3.102,2.324-1.153,1.26-1.868,2.361-2.248,3.463-.471,1.364-.392,2.8.209,3.842.761,1.317,2.308,2.046,3.57,2.535.455.176.949.352,1.405.343l.007.858h-.024Z" fill="#000" stroke-width="0" data-sg-fill="sg-fill-0" />
  <rect x="53.715" y="84.922" width=".858" height="12.664" transform="translate(-39.767 140.646) rotate(-87.06)" fill="#000" stroke-width="0" data-sg-fill="sg-fill-0" />
  <path d="M65.421,91.96c-.947-.059-1.903-.072-2.848-.044l-.027-.857c.973-.031,1.958-.015,2.928.045l-.054.856h0Z" fill="#000" stroke-width="0" data-sg-fill="sg-fill-0" />
  <path d="M80.189,103.436l-.106-.851,4.524-.565c.726-.09,1.477-.184,2.106-.516.477-.251,1.033-.781,1.034-1.447,0-.294-.108-.615-.322-.955-.408-.647-1.215-1.597-1.906-2.085-1.486-1.05-5.322-3.52-8.85-3.789l.065-.855c3.74.285,7.735,2.852,9.279,3.943.791.558,1.674,1.594,2.137,2.329.302.479.455.955.454,1.413,0,.862-.586,1.728-1.491,2.205-.767.405-1.634.513-2.4.608l-4.525.565h0Z" fill="#000" stroke-width="0" data-sg-fill="sg-fill-0" />
  <path d="M80.823,100.669l-.174-.84,1.033-.215c.363-.075.738-.153,1.08-.278.255-.093.43-.223.445-.33.023-.17-.294-.43-.398-.515-.647-.529-1.315-1.077-2.093-1.3l.236-.824c.948.271,1.72.903,2.401,1.461.238.195.792.65.704,1.293-.059.444-.415.808-1.001,1.021-.4.146-.806.23-1.199.312l-1.033.215h0Z" fill="#000" stroke-width="0" data-sg-fill="sg-fill-0" />
  <path d="M61.557,111.526l-.704-.492c1.556-2.226,4.148-3.418,6.456-4.362,1.768-.723,3.684-1.449,5.71-1.868l.174.84c-1.959.405-3.83,1.115-5.56,1.822-2.195.897-4.655,2.024-6.077,4.059h0Z" fill="#000" stroke-width="0" data-sg-fill="sg-fill-0" />
  <path d="M64.899,112.276l-.652-.559c.784-.914,1.721-1.664,2.786-2.229.316-.167.661-.325,1.052-.355.081-.007.157-.008.247-.007.08,0,.16.003.239-.011l.151.844c-.129.023-.254.023-.391.025-.059,0-.119,0-.178.004-.236.018-.484.135-.718.258-.955.507-1.832,1.208-2.536,2.029h0Z" fill="#000" stroke-width="0" data-sg-fill="sg-fill-0" />
  <path d="M68.807,102.017l-.467-.719c.494-.322.959-.692,1.38-1.099.296-.286.495-.519.648-.755.39-.606.555-1.417.467-2.283l.853-.088c.11,1.058-.103,2.066-.598,2.835-.189.294-.427.573-.772.907-.461.446-.968.85-1.509,1.202,0,0-.002,0-.002,0Z" fill="#000" stroke-width="0" data-sg-fill="sg-fill-0" />
  <path d="M34.225,80.292l-.302-.803c.911-.342,1.851-.637,2.792-.875,1.031-.261,2.087-.462,3.109-.656l.168.841c-1.017.193-2.06.391-3.066.646-.911.23-1.819.516-2.701.847Z" fill="#000" stroke-width="0" data-sg-fill="sg-fill-0" />
  <path d="M46.066,93.609c-1.956,0-3.926-.492-5.642-1.42-1.125-.609-1.876-1.296-2.297-2.101l.761-.397c.338.648.974,1.218,1.945,1.743,1.87,1.013,4.07,1.467,6.185,1.274l.077.854c-.342.031-.686.046-1.029.046h0Z" fill="#000" stroke-width="0" data-sg-fill="sg-fill-0" />
  <path d="M74.525,92.861l-2.495-.514c-.842-.174-1.711-.353-2.568-.423-.692-.057-1.408-.046-2.103-.034l-.013-.858c.713-.011,1.452-.023,2.186.036.908.074,1.803.259,2.67.437l2.495.515-.173.84h0Z" fill="#000" stroke-width="0" data-sg-fill="sg-fill-0" />
  <path d="M51.108,106.375l-.627-.586c1.138-1.219,2.764-1.648,3.928-1.793,1.051-.132,2.116-.097,3.145-.064.34.011.68.022,1.02.027,1.215.02,2.618-.034,3.861-.563l.335.789c-1.391.592-2.905.651-4.209.632-.344-.005-.689-.016-1.035-.028-.995-.032-2.022-.065-3.011.058-1.022.128-2.443.496-3.407,1.528Z" fill="#000" stroke-width="0" data-sg-fill="sg-fill-0" />
  <path d="M54.387,108.105l-.518-.684c.489-.371,1.063-.645,1.659-.794.275-.068.556-.11.837-.152.35-.052.68-.1.988-.202l.271.813c-.379.126-.763.183-1.134.237-.254.037-.508.074-.756.136-.484.12-.95.343-1.348.645h0Z" fill="#000" stroke-width="0" data-sg-fill="sg-fill-0" />
  <path d="M85.904,60.615c-.53-1.9-.425-3.972.297-5.832.031-.082,0-.14-.021-.168-.022-.028-.059-.075-.162-.064-1.492.172-3.006.248-4.497.23-1.097-.014-2.154-.279-3.056-.766-.302-.163-.674-.4-.89-.79-.158-.288-.199-.593-.226-.882-.219-2.315.126-4.685,1.001-6.853.026-.064.005-.116-.018-.148-.017-.024-.085-.081-.15-.077-1.452.028-3.002-.003-4.491-.425-2.04-.578-3.641-1.89-4.285-3.51l.797-.317c.545,1.374,1.937,2.496,3.722,3.002,1.379.391,2.85.42,4.239.392.336.009.675.16.874.449.194.283.234.64.106.956-.823,2.041-1.148,4.271-.942,6.45.019.207.044.405.123.55.107.194.348.342.545.449.781.422,1.7.651,2.66.663,1.459.015,2.933-.057,4.388-.224.361-.044.715.105.937.392.221.286.274.661.142,1.002-.655,1.689-.751,3.568-.271,5.292l-.826.23h.004Z" fill="#000" stroke-width="0" data-sg-fill="sg-fill-0" />
  <path d="M101.668,47.956c-1.045-.738-2.393-1.04-3.689-.83-.35.054-.683-.085-.885-.366-.21-.292-.236-.673-.069-.995.734-1.406,1.116-2.979,1.106-4.55-.002-.24-.017-.484-.117-.639-.082-.128-.248-.235-.397-.324-1.896-1.145-4.235-1.51-6.419-1.001-.317.073-.642-.019-.869-.25-.229-.232-.317-.562-.238-.882.401-1.605.12-3.444-.106-4.922l.848-.13c.238,1.554.534,3.488.091,5.26l.177.507-.097-.418c2.399-.557,4.972-.157,7.056,1.102.23.139.493.312.674.593.22.34.253.73.255,1.099.011,1.71-.405,3.423-1.203,4.952-.025.047-.005.083.004.096,1.576-.224,3.147.132,4.373.997l-.494.701h0Z" fill="#000" stroke-width="0" data-sg-fill="sg-fill-0" />
  <path d="M22.4,79.394c-.956-5.131-1.441-10.462-1.441-15.847,0-26.937,12.077-50.239,29.368-56.666l.298.804c-16.962,6.305-28.809,29.277-28.809,55.862,0,5.332.48,10.611,1.426,15.689l-.843.157h0Z" fill="#000" stroke-width="0" data-sg-fill="sg-fill-0" />
  <path d="M53.006,121.057c-9.089-2.36-17.341-9.605-23.236-20.403l.752-.411c5.781,10.587,13.841,17.684,22.7,19.984l-.216.83Z" fill="#000" stroke-width="0" data-sg-fill="sg-fill-0" />
  <path d="M81.794,111.36l-.623-.589c1.226-1.298,2.416-2.723,3.535-4.237l.69.51c-1.14,1.542-2.352,2.994-3.602,4.316Z" fill="#000" stroke-width="0" data-sg-fill="sg-fill-0" />
  <path d="M92.056,95.304l-.787-.339c3.798-8.833,5.916-19.09,6.125-29.663l.858.017c-.211,10.683-2.353,21.052-6.195,29.986h0Z" fill="#000" stroke-width="0" data-sg-fill="sg-fill-0" />
  <path d="M89.2,27.775c-6.791-12.976-16.906-20.872-27.749-21.663l.062-.855c11.147.813,21.515,8.875,28.448,22.12,0,0-.761.398-.761.398Z" fill="#000" stroke-width="0" data-sg-fill="sg-fill-0" />
  <path d="M26.108,77.375c-.752-4.496-1.134-9.148-1.134-13.828,0-23.412,9.509-44.13,23.661-51.554l.399.76c-13.878,7.28-23.202,27.692-23.202,50.794,0,4.632.378,9.237,1.122,13.686,0,0-.846.142-.846.142Z" fill="#000" stroke-width="0" data-sg-fill="sg-fill-0" />
  <path d="M52.619,116.78c-7.106-2.29-13.482-7.946-18.439-16.356l.739-.436c4.848,8.226,11.06,13.75,17.963,15.975,0,0-.263.817-.263.817Z" fill="#000" stroke-width="0" data-sg-fill="sg-fill-0" />
  <path d="M77.95,109.652l-.601-.612c.718-.705,1.427-1.46,2.105-2.243l.648.562c-.694.8-1.418,1.572-2.152,2.294h0Z" fill="#000" stroke-width="0" data-sg-fill="sg-fill-0" />
  <path d="M88.885,92.602l-.796-.322c3.079-7.616,4.893-16.403,5.243-25.411l.858.034c-.355,9.106-2.19,17.992-5.305,25.699Z" fill="#000" stroke-width="0" data-sg-fill="sg-fill-0" />
  <path d="M84.705,27.788c-5.232-9.19-12.331-15.269-19.988-17.118l.201-.833c7.89,1.905,15.182,8.129,20.533,17.527l-.746.425h0Z" fill="#000" stroke-width="0" data-sg-fill="sg-fill-0" />
</g></svg>