<svg xmlns="http://www.w3.org/2000/svg" id="Layer_1" data-name="Layer 1" version="1.1" viewBox="0.0 0.0 100.0 100.0">
  <g transform="scale(0.8)"><path d="M56.679,45.264c-.287,0-.525-.196-.581-.48-.28-1.389-.765-2.715-1.443-3.941-.742-1.344-1.701-2.55-2.851-3.584-.125-.111-.197-.27-.198-.435,0-.166.07-.326.196-.44,1.085-.99,2.014-2.133,2.761-3.396.66-1.116,1.169-2.317,1.516-3.569.075-.274.333-.458.607-.437.283.016.51.224.554.505h0c.146.938,1.096,2.713,1.697,3.677.599.957,1.729,2.407,2.645,3.209.144.125.224.302.22.483-.004.171-.085.333-.221.442-1.2.962-2.186,2.122-2.933,3.45-.696,1.239-1.16,2.588-1.379,4.01-.046.292-.282.5-.576.506,0,0-.014,0-.014,0ZM56.891,44.624h0ZM52.522,36.819c1.139,1.059,2.094,2.28,2.84,3.633.558,1.008.992,2.079,1.297,3.197.272-1.158.701-2.264,1.283-3.298.755-1.344,1.742-2.529,2.935-3.524-.946-.879-2.019-2.264-2.627-3.235-.472-.757-1.238-2.128-1.614-3.229-.35,1.059-.811,2.077-1.378,3.036-.747,1.265-1.667,2.415-2.737,3.421h0ZM52.347,36.981h0ZM61.048,36.98h0ZM61.075,36.665h0ZM52.343,36.656l.002.002-.002-.002ZM56.439,29.61h0Z" fill="#000" stroke-width="0" data-sg-fill="sg-fill-0" />
  <path d="M56.679,96.767c-.287,0-.525-.196-.581-.48-.28-1.388-.765-2.714-1.443-3.941-.742-1.345-1.701-2.551-2.851-3.583-.126-.113-.198-.273-.198-.438s.071-.325.196-.438c1.087-.992,2.016-2.135,2.761-3.397.66-1.117,1.17-2.318,1.515-3.569.076-.273.328-.451.607-.437.283.017.51.224.554.506.146.938,1.096,2.712,1.697,3.676.598.956,1.727,2.405,2.645,3.21.143.125.224.3.22.482-.003.171-.083.333-.22.442-1.201.961-2.188,2.122-2.934,3.45-.696,1.239-1.16,2.588-1.379,4.01-.046.292-.282.5-.575.506h-.014,0ZM56.891,96.127h0ZM52.522,88.323c1.137,1.056,2.093,2.277,2.84,3.632.558,1.009.992,2.08,1.297,3.197.272-1.158.701-2.264,1.283-3.298.756-1.346,1.742-2.53,2.935-3.524-.948-.881-2.021-2.265-2.627-3.236-.472-.756-1.238-2.127-1.614-3.227-.349,1.058-.811,2.076-1.378,3.035-.746,1.263-1.666,2.413-2.737,3.422h0ZM52.347,88.485h0ZM61.048,88.485h0Z" fill="#000" stroke-width="0" data-sg-fill="sg-fill-0" />
  <path d="M73.088,42.164l-.708-.392c3.553-6.411,1.316-15.03-4.987-19.212-1.033-.686-2.205-1.299-3.337-1.893-2.849-1.494-5.795-3.038-7.004-5.911-.746-1.773-.716-3.964.085-6.337.893-2.649,2.506-5.058,4.662-6.964.181-.16.206-.368.153-.495-.045-.109-.152-.16-.296-.15-.405.025-1.611.945-2.803,2.141-2.484,2.486-3.975,4.461-4.74,7.774-.441,1.914-.439,3.493.006,4.826.374,1.118,1.081,2.113,1.656,2.855,1.272,1.639,2.767,3.121,4.444,4.406l-.491.642c-1.732-1.327-3.277-2.859-4.592-4.552-.615-.792-1.373-1.86-1.785-3.095-.493-1.479-.502-3.201-.026-5.264.809-3.503,2.366-5.572,4.957-8.164C58.973,1.683,60.687.06,61.604.002c.497-.028.916.217,1.094.648.198.476.051,1.043-.365,1.412-2.051,1.813-3.583,4.101-4.431,6.617-.513,1.522-.949,3.757-.105,5.765,1.096,2.605,3.786,4.015,6.633,5.508,1.151.603,2.342,1.227,3.409,1.935,6.646,4.411,9.001,13.508,5.248,20.279v-.002h0Z" fill="#000" stroke-width="0" data-sg-fill="sg-fill-0" />
  <path d="M67.519,41.264l-.717-.374c1.423-2.72,1.603-6.014.493-9.035-1.051-2.865-3.221-5.422-6.11-7.199l.423-.689c3.043,1.872,5.332,4.574,6.446,7.609,1.188,3.235.993,6.767-.536,9.689h.001Z" fill="#000" stroke-width="0" data-sg-fill="sg-fill-0" />
  <path d="M71.846,45.186l-.476-.654c.153-.111.35-.295.421-.535.051-.175.01-.373-.096-.469-.068-.062-.18-.108-.299-.156-1.312-.521-2.695-.81-4.111-.859-.239-.007-.506-.007-.678.098-.17.105-.254.359-.179.543l-.749.305c-.224-.551-.002-1.226.504-1.537.364-.224.778-.226,1.129-.218,1.509.053,2.983.361,4.381.916.183.073.375.156.543.308.34.306.47.816.33,1.295-.107.364-.356.697-.722.962h.002Z" fill="#000" stroke-width="0" data-sg-fill="sg-fill-0" />
  <path d="M70.842,48.067l-.474-.656c.168-.122.279-.329.303-.57.025-.24-.04-.466-.18-.62-.114-.125-.276-.224-.434-.311-1.316-.732-2.858-.991-4.34-.734-.16.028-.336.069-.412.152-.15.167.008.626.059.776l-.765.262c-.109-.317-.364-1.06.106-1.581.24-.265.575-.354.871-.406,1.667-.293,3.395.002,4.872.822.209.116.447.263.641.476.294.324.435.778.386,1.247s-.28.885-.634,1.141v.002h0Z" fill="#000" stroke-width="0" data-sg-fill="sg-fill-0" />
  <path d="M69.649,50.927l-.336-.736c.117-.053.178-.164.209-.247.065-.176.055-.399-.024-.567-.144-.306-.461-.567-.967-.797-.829-.378-1.818-.561-2.839-.536-.389.01-.946.059-1.279.367-.14.129-.226.348-.215.544.005.087.031.205.129.276l-.479.652c-.274-.201-.437-.515-.458-.883-.024-.438.157-.892.474-1.184.533-.494,1.287-.569,1.807-.582,1.145-.029,2.255.182,3.194.609.689.313,1.135.702,1.364,1.19.171.366.19.81.051,1.19-.118.321-.342.572-.631.705h0Z" fill="#000" stroke-width="0" data-sg-fill="sg-fill-0" />
  <path d="M68.477,60.894c-.133-1.285-.487-5.652.453-8.794l.774.232c-.92,3.075-.516,7.584-.426,8.456l-.802.105h0Z" fill="#000" stroke-width="0" data-sg-fill="sg-fill-0" />
  <path d="M62.28,60.892c-.227-2.344-.485-4.999.252-7.454.049-.165.103-.329.157-.493.175-.533.34-1.036.348-1.547l.809.013c-.009.633-.202,1.22-.389,1.787-.052.157-.104.315-.152.472-.691,2.303-.441,4.874-.22,7.143l-.806.079h0Z" fill="#000" stroke-width="0" data-sg-fill="sg-fill-0" />
  <path d="M71.859,40.402l-.787-.188c.555-2.327.846-4.72.865-7.111l.809.006c-.019,2.453-.318,4.907-.887,7.293Z" fill="#000" stroke-width="0" data-sg-fill="sg-fill-0" />
  <path d="M71.442,31.539c-.041-.636-.335-1.247-.806-1.678l.547-.597c.623.57,1.012,1.38,1.067,2.223l-.807.052h0Z" fill="#000" stroke-width="0" data-sg-fill="sg-fill-0" />
  <path d="M69.733,28.15c-1.333-1.59-2.888-2.975-4.622-4.115l.444-.676c1.8,1.184,3.414,2.622,4.797,4.272l-.619.52h0Z" fill="#000" stroke-width="0" data-sg-fill="sg-fill-0" />
  <polygon points="58.939 5.363 57.411 4.378 57.85 3.699 59.378 4.684 58.939 5.363" fill="#000" stroke-width="0" data-sg-fill="sg-fill-0" />
  <rect x="99.82" y="58.034" width="6.839" height=".809" transform="translate(-15.177 51.306) rotate(-26.065)" fill="#000" stroke-width="0" data-sg-fill="sg-fill-0" />
  <rect x="95.123" y="55.009" width="8.154" height=".809" transform="translate(-8.403 91.923) rotate(-47.93)" fill="#000" stroke-width="0" data-sg-fill="sg-fill-0" />
  <rect x="91.575" y="53.57" width="6.84" height=".809" transform="translate(3.708 114.008) rotate(-62.935)" fill="#000" stroke-width="0" data-sg-fill="sg-fill-0" />
  <rect x="87.546" y="52.089" width="6.042" height=".809" transform="translate(16.79 126.756) rotate(-75.285)" fill="#000" stroke-width="0" data-sg-fill="sg-fill-0" />
  <rect x="84.52" y="51.946" width="4.291" height=".809" transform="translate(32.632 137.977) rotate(-88.881)" fill="#000" stroke-width="0" data-sg-fill="sg-fill-0" />
  <path d="M21.85,61.362c-.806-.596-1.459-1.166-2.091-1.716-1.106-.966-2.062-1.8-3.567-2.552-.215-.107-.331-.347-.283-.581.05-.238.246-.407.49-.42,1.494-.081,3.013-.126,4.511-.136.87-.009,1.663.013,2.434.283.675.237,1.25.645,1.805,1.04l.138.098c.87.615,1.772,1.197,2.689,1.733-.403-1.058-1.093-2-1.987-2.701-.176-.137-.248-.372-.179-.583.07-.212.261-.354.487-.36l4.279-.122c.4-.01.894-.024,1.342.197.331.165.57.424.78.652l4.212,4.569-.594.548-4.212-4.569c-.171-.186-.349-.378-.547-.476-.266-.132-.63-.122-.959-.113l-3.559.102c.93.901,1.605,2.053,1.93,3.309.053.206-.024.423-.194.554-.171.132-.403.149-.588.044-1.148-.643-2.282-1.358-3.366-2.125l-.139-.099c-.533-.379-1.036-.738-1.605-.937-.647-.227-1.358-.248-2.16-.237-1.156.007-2.322.036-3.482.086,1.128.675,1.974,1.413,2.859,2.185.619.541,1.259,1.1,2.039,1.675l-.48.651h-.003,0ZM28.58,59.456h.002-.002ZM26.486,55.772h0Z" fill="#000" stroke-width="0" data-sg-fill="sg-fill-0" />
  <rect x="31.498" y="56.767" width=".809" height="3.691" transform="translate(-32.047 39.542) rotate(-44.835)" fill="#000" stroke-width="0" data-sg-fill="sg-fill-0" />
  <rect x="22.498" y="57.314" width=".809" height="3.72" transform="translate(-35.9 35.333) rotate(-46.772)" fill="#000" stroke-width="0" data-sg-fill="sg-fill-0" />
  <rect x="20.914" y="35.969" width="51.257" height=".809" transform="translate(-1.096 71.299) rotate(-74.254)" fill="#000" stroke-width="0" data-sg-fill="sg-fill-0" />

  <path d="M61.687,125c-.027,0-.055,0-.083-.002-.918-.059-2.631-1.682-3.325-2.377-2.591-2.592-4.148-4.661-4.957-8.164-.476-2.062-.467-3.784.026-5.264.413-1.235,1.171-2.303,1.784-3.094,1.315-1.694,2.86-3.226,4.592-4.552l.491.643c-1.677,1.284-3.172,2.765-4.444,4.405-.575.741-1.283,1.735-1.656,2.854-.445,1.334-.446,2.913-.006,4.826.765,3.313,2.256,5.288,4.74,7.774,1.194,1.195,2.398,2.115,2.804,2.141.157.011.251-.041.295-.151.053-.126.028-.336-.153-.494-2.156-1.908-3.769-4.316-4.662-6.964-.801-2.373-.83-4.565-.085-6.337,1.209-2.873,4.153-4.417,7.002-5.91,1.134-.595,2.306-1.209,3.34-1.895,6.303-4.182,8.541-12.801,4.987-19.212l.708-.392c3.753,6.772,1.399,15.869-5.248,20.279-1.068.709-2.259,1.333-3.411,1.937-2.848,1.492-5.536,2.902-6.632,5.506-.844,2.007-.408,4.243.105,5.765.848,2.515,2.381,4.803,4.431,6.617.416.367.563.934.365,1.412-.168.406-.551.65-1.011.65h.003Z" fill="#000" stroke-width="0" data-sg-fill="sg-fill-0" />
  <path d="M61.608,101.033l-.423-.689c2.889-1.778,5.058-4.334,6.11-7.197,1.11-3.023.93-6.316-.493-9.036l.717-.374c1.528,2.922,1.724,6.453.536,9.689-1.115,3.034-3.404,5.736-6.446,7.608h-.001Z" fill="#000" stroke-width="0" data-sg-fill="sg-fill-0" />
  <path d="M67.134,83.297c-.324,0-.655-.04-.949-.22-.507-.313-.728-.988-.505-1.538l.749.303c-.075.186.009.44.179.545.173.107.443.109.677.097,1.412-.048,2.795-.337,4.111-.859.123-.049.231-.096.298-.156.107-.097.148-.295.096-.471-.07-.239-.267-.422-.419-.532l.474-.656c.366.265.615.597.722.961.141.48.01.99-.33,1.297-.164.149-.349.231-.54.307-1.404.557-2.878.864-4.382.916-.06.002-.119.003-.18.003v.003h0Z" fill="#000" stroke-width="0" data-sg-fill="sg-fill-0" />
  <path d="M66.844,80.728c-.423,0-.846-.036-1.265-.11-.297-.052-.632-.141-.871-.405-.471-.522-.216-1.265-.107-1.582l.765.262c-.051.151-.209.61-.058.777.075.083.25.123.412.152,1.48.256,3.023-.002,4.338-.734.159-.088.321-.186.435-.311.14-.154.205-.38.18-.62-.024-.24-.135-.447-.303-.569l.474-.656c.354.256.585.671.634,1.141s-.092.924-.386,1.248c-.194.212-.432.359-.641.475-1.104.614-2.35.932-3.605.932,0,0-.002,0-.002,0Z" fill="#000" stroke-width="0" data-sg-fill="sg-fill-0" />
  <path d="M65.881,77.767c-.07,0-.14,0-.21-.002-.521-.013-1.274-.088-1.808-.582-.316-.292-.498-.746-.473-1.184.021-.368.184-.682.458-.883l.479.652c-.098.071-.124.19-.129.276-.011.197.075.415.214.544.333.308.89.357,1.28.367,1.037.029,2.011-.16,2.839-.536.507-.231.823-.491.968-.798.078-.168.088-.39.023-.566-.031-.083-.092-.194-.208-.246l.335-.736c.289.132.513.382.632.704.14.379.121.824-.05,1.189-.23.488-.676.878-1.365,1.19-.881.401-1.908.611-2.984.611h0Z" fill="#000" stroke-width="0" data-sg-fill="sg-fill-0" />
  <path d="M68.93,72.899c-.965-3.226-.548-7.874-.455-8.773l.806.062c-.092.894-.498,5.401.424,8.479l-.776.232h0Z" fill="#000" stroke-width="0" data-sg-fill="sg-fill-0" />
  <path d="M63.037,73.601c-.008-.511-.174-1.015-.349-1.549-.054-.164-.107-.326-.156-.49-.738-2.457-.479-5.112-.252-7.455l.806.079c-.221,2.269-.471,4.84.22,7.143.047.156.099.314.151.47.186.568.38,1.155.389,1.789,0,0-.809.013-.809.013Z" fill="#000" stroke-width="0" data-sg-fill="sg-fill-0" />
  <path d="M71.937,91.896c-.019-2.391-.31-4.784-.865-7.111l.787-.188c.57,2.387.868,4.841.887,7.293,0,0-.809.006-.809.006Z" fill="#000" stroke-width="0" data-sg-fill="sg-fill-0" />
  <path d="M71.182,95.735l-.547-.597c.472-.43.765-1.042.806-1.678l.807.052c-.055.843-.444,1.652-1.067,2.223h0Z" fill="#000" stroke-width="0" data-sg-fill="sg-fill-0" />
  <path d="M65.555,101.64l-.444-.676c1.734-1.141,3.288-2.525,4.622-4.115l.619.52c-1.383,1.65-2.997,3.088-4.797,4.272h0Z" fill="#000" stroke-width="0" data-sg-fill="sg-fill-0" />
  <polygon points="57.849 121.301 57.412 120.62 58.939 119.636 59.378 120.315 57.849 121.301" fill="#000" stroke-width="0" data-sg-fill="sg-fill-0" />
  <path d="M87.095,68.04c-.063,0-.128-.005-.194-.016-.419-.067-.724-.349-.947-.555-1.389-1.286-3.929-3.678-4.753-4.453-.149-.141-.235-.339-.235-.544s.088-.404.239-.545l4.747-4.396c.223-.206.528-.489.949-.556.407-.065.773.096,1.039.21,3.329,1.446,6.665,3.001,9.919,4.621h0c.273.136.442.41.442.716s-.17.581-.443.716c-2.944,1.461-6.096,2.915-9.916,4.576-.224.097-.519.226-.848.226h0ZM81.806,62.474c.87.82,3.338,3.142,4.697,4.401.155.144.349.322.527.351.16.025.361-.055.589-.154,3.802-1.652,6.937-3.099,9.865-4.551-3.236-1.611-6.555-3.156-9.864-4.594-.186-.081-.419-.18-.591-.154-.164.026-.336.175-.526.351l-4.697,4.349h0Z" fill="#000" stroke-width="0" data-sg-fill="sg-fill-0" />
  <rect x="101.598" y="62.101" width="7.504" height=".809" fill="#000" stroke-width="0" data-sg-fill="sg-fill-0" />
  <rect x="102.835" y="63.141" width=".809" height="6.838" transform="translate(-1.93 130.026) rotate(-63.92)" fill="#000" stroke-width="0" data-sg-fill="sg-fill-0" />
  <rect x="98.796" y="65.507" width=".809" height="8.154" transform="translate(-21.05 84.499) rotate(-42.118)" fill="#000" stroke-width="0" data-sg-fill="sg-fill-0" />
  <rect x="94.59" y="67.605" width=".809" height="6.839" transform="translate(-21.917 51.019) rotate(-27.074)" fill="#000" stroke-width="0" data-sg-fill="sg-fill-0" />
  <rect x="90.163" y="69.486" width=".809" height="6.041" transform="translate(-15.443 25.374) rotate(-14.71)" fill="#000" stroke-width="0" data-sg-fill="sg-fill-0" />
  <rect x="86.26" y="70.504" width=".809" height="4.291" transform="translate(-1.413 1.72) rotate(-1.128)" fill="#000" stroke-width="0" data-sg-fill="sg-fill-0" />
  <path d="M30.869,69.661c-.103,0-.201-.003-.295-.006l-4.279-.122c-.227-.008-.416-.149-.486-.361-.07-.213,0-.442.178-.582.895-.701,1.585-1.643,1.988-2.701-.92.539-1.822,1.119-2.689,1.732l-.138.098c-.555.395-1.13.803-1.805,1.041-.768.269-1.554.29-2.434.282-1.498-.009-3.017-.055-4.511-.136-.243-.013-.44-.182-.49-.42-.049-.238.065-.472.283-.581,1.505-.752,2.46-1.586,3.567-2.552.631-.551,1.284-1.121,2.091-1.717l.48.651c-.78.576-1.42,1.135-2.039,1.675-.885.773-1.73,1.51-2.857,2.185,1.159.05,2.325.079,3.481.086.803.009,1.515-.009,2.16-.236.568-.2,1.072-.558,1.604-.937l.14-.1c1.08-.763,2.212-1.478,3.368-2.126.187-.104.418-.084.588.046.17.131.246.348.193.554-.325,1.257-1.001,2.409-1.93,3.31l3.56.101c.323.013.69.021.958-.113.2-.099.376-.29.546-.475l4.213-4.57.594.548-4.212,4.569c-.198.216-.446.486-.78.652-.344.171-.715.203-1.047.203,0,0,0,.002,0,.002Z" fill="#000" stroke-width="0" data-sg-fill="sg-fill-0" />
  <rect x="30.056" y="65.982" width="3.691" height=".809" transform="translate(-37.665 42.194) rotate(-45.158)" fill="#000" stroke-width="0" data-sg-fill="sg-fill-0" />
  <rect x="21.043" y="65.42" width="3.72" height=".809" transform="translate(-38.886 33.583) rotate(-43.26)" fill="#000" stroke-width="0" data-sg-fill="sg-fill-0" />
  <rect x="46.138" y="62.997" width=".809" height="51.257" transform="translate(-22.347 15.997) rotate(-15.78)" fill="#000" stroke-width="0" data-sg-fill="sg-fill-0" />
  <rect x="21.309" y="62.101" width="58.631" height=".809" fill="#000" stroke-width="0" data-sg-fill="sg-fill-0" />
  <rect x="84.189" y="62.09" width="10.008" height=".809" fill="#000" stroke-width="0" data-sg-fill="sg-fill-0" />
  <rect x="87.302" y="58.691" width=".808" height="2.719" transform="translate(-18.587 60.509) rotate(-34.646)" fill="#000" stroke-width="0" data-sg-fill="sg-fill-0" />
  <rect x="86.348" y="64.533" width="2.719" height=".808" transform="translate(-15.582 100.162) rotate(-55.347)" fill="#000" stroke-width="0" data-sg-fill="sg-fill-0" />
  <path d="M23.174,53.716l-.804-.082c2.362-23.206,14.231-41.582,29.535-45.726l.212.78c-14.983,4.058-26.614,22.153-28.943,45.028Z" fill="#000" stroke-width="0" data-sg-fill="sg-fill-0" />
  <path d="M51.759,116.19c-14.978-4.151-26.752-22.171-29.3-44.84l.804-.09c2.511,22.344,14.05,40.086,28.712,44.151,0,0-.216.779-.216.779Z" fill="#000" stroke-width="0" data-sg-fill="sg-fill-0" />
  <path d="M60.088,117.04l-.055-.807c16.018-1.103,29.648-18.496,33.145-42.294l.801.117c-3.554,24.178-17.49,41.854-33.891,42.985h0Z" fill="#000" stroke-width="0" data-sg-fill="sg-fill-0" />
  <path d="M93.353,51.46c-3.137-24.032-16.555-41.92-32.631-43.499l.079-.806c16.452,1.617,30.168,19.792,33.354,44.2l-.803.104h0Z" fill="#000" stroke-width="0" data-sg-fill="sg-fill-0" />
  <path d="M27.054,53.013l-.804-.093c2.332-20.245,12.102-36.269,24.891-40.824l.272.761c-12.501,4.453-22.062,20.215-24.358,40.156h0Z" fill="#000" stroke-width="0" data-sg-fill="sg-fill-0" />
  <path d="M51.122,112.036c-12.619-4.508-22.355-20.304-24.803-40.242l.803-.098c2.412,19.636,11.939,35.173,24.272,39.579,0,0-.272.761-.272.761Z" fill="#000" stroke-width="0" data-sg-fill="sg-fill-0" />
  <path d="M59.173,113.299l-.03-.809c13.761-.506,25.71-14.875,29.731-35.754l.795.153c-4.095,21.256-16.35,35.888-30.496,36.41Z" fill="#000" stroke-width="0" data-sg-fill="sg-fill-0" />
  <path d="M89.111,48.688c-3.671-21.061-15.853-36.287-29.626-37.026l.043-.807c14.377.771,26.586,15.919,30.38,37.694l-.796.139h0Z" fill="#000" stroke-width="0" data-sg-fill="sg-fill-0" />
</g></svg>