<svg xmlns="http://www.w3.org/2000/svg" id="Layer_1" data-name="Layer 1" version="1.1" viewBox="0.0 0.0 100.0 100.0">
  <g transform="scale(0.8)"><path d="M62.283,35.615c-.313,0-.572-.213-.634-.522-.303-1.511-.832-2.956-1.572-4.296-.809-1.465-1.854-2.779-3.108-3.906-.136-.122-.215-.296-.215-.476s.077-.355.214-.479c1.184-1.079,2.196-2.325,3.009-3.702.718-1.215,1.273-2.524,1.65-3.891.084-.298.359-.497.662-.476.307.018.556.244.604.551h0c.158,1.024,1.193,2.958,1.85,4.008.653,1.043,1.885,2.623,2.883,3.498.157.138.244.331.239.529-.004.186-.092.361-.241.48-1.306,1.046-2.381,2.31-3.197,3.76-.758,1.35-1.265,2.821-1.503,4.371-.05.318-.307.544-.626.551h-.015ZM57.751,26.412c1.241,1.153,2.282,2.483,3.097,3.958.609,1.101,1.082,2.269,1.414,3.485.296-1.262.764-2.467,1.398-3.595.825-1.468,1.9-2.759,3.199-3.841-1.031-.957-2.2-2.467-2.863-3.526-.516-.824-1.35-2.319-1.76-3.519-.381,1.154-.884,2.265-1.501,3.309-.814,1.377-1.817,2.631-2.984,3.729ZM57.561,26.588h0Z" fill="#000" stroke-width="0" data-sg-fill="sg-fill-0" />
  <path d="M50.089,36.288c-.136,0-.27-.057-.381-.166-.877-.863-1.773-1.5-2.66-1.894-.803-.356-1.573-.497-2.285-.421-.242.029-.474-.124-.589-.38-.118-.266-.074-.546.112-.714.545-.486.993-1.137,1.335-1.936.385-.896.628-1.958.725-3.158.016-.211.135-.381.318-.455.182-.075.387-.035.547.107.852.759,1.721,1.35,2.582,1.757.746.353,1.476.562,2.172.623.243.022.449.21.528.48.074.254.006.5-.178.641-.266.204-.756,1.138-1.093,2.081-.251.703-.553,1.963-.62,2.915-.018.233-.144.414-.338.487-.058.021-.116.032-.174.032h0ZM50.326,35.494h0ZM45.331,32.91c.67.027,1.365.199,2.073.513.805.357,1.608.887,2.395,1.58.13-.884.374-1.835.591-2.445.058-.163.498-1.37,1.021-2.089-.652-.108-1.321-.324-1.996-.643-.758-.359-1.517-.845-2.263-1.448-.133,1.019-.374,1.94-.72,2.747-.295.69-.665,1.287-1.101,1.785ZM47.224,27.689h0Z" fill="#000" stroke-width="0" data-sg-fill="sg-fill-0" />
  <path d="M74.646,36.113c-.059,0-.118-.011-.176-.033-.195-.074-.321-.256-.337-.487-.068-.953-.37-2.213-.62-2.914-.337-.944-.827-1.878-1.094-2.082-.184-.141-.252-.386-.178-.641.078-.271.286-.459.529-.48.695-.061,1.426-.27,2.171-.623.858-.406,1.727-.997,2.582-1.757.159-.142.361-.183.547-.108.183.074.301.245.318.457.098,1.199.342,2.262.725,3.157.343.799.791,1.451,1.334,1.935.187.165.232.445.115.711-.114.259-.346.412-.59.383-.713-.074-1.482.066-2.284.421-.888.393-1.783,1.031-2.661,1.894-.109.108-.244.165-.38.165v.002h0ZM75.014,35.531h0ZM74.408,35.32h0ZM73.323,30.295c.523.719.963,1.925,1.021,2.089.217.608.461,1.559.591,2.445.788-.694,1.591-1.225,2.396-1.581.709-.314,1.403-.486,2.073-.513-.436-.497-.806-1.095-1.102-1.785-.344-.806-.585-1.727-.72-2.747-.748.604-1.507,1.09-2.263,1.448-.674.319-1.344.535-1.996.643h0ZM79.858,33.195l.002.002-.002-.002ZM72.847,30.356h-.002.002ZM72.955,29.898h.002l.002.002s-.003,0-.003-.002h0ZM77.51,27.517v.002-.002Z" fill="#000" stroke-width="0" data-sg-fill="sg-fill-0" />
  <rect x="61.868" y="36.388" width=".882" height="10.848" fill="#000" stroke-width="0" data-sg-fill="sg-fill-0" />
  <rect x="52.139" y="36.793" width=".881" height="11.847" transform="translate(-10.992 19.309) rotate(-18.877)" fill="#000" stroke-width="0" data-sg-fill="sg-fill-0" />
  <path d="M60.722,68.306l-.88-.05c.079-1.414-.226-2.824-.882-4.076l.78-.41c.732,1.394,1.071,2.962.982,4.536Z" fill="#000" stroke-width="0" data-sg-fill="sg-fill-0" />
  <path d="M54.087,65.791c-.761,0-1.521-.245-2.132-.716l.539-.698c.726.56,1.779.688,2.615.323l.158-.073c.127-.06.253-.119.385-.163.667-.224,1.355-.068,1.908.057l-.195.86c-.469-.107-1-.226-1.433-.081-.099.033-.194.079-.288.124l-.183.084c-.436.19-.907.283-1.376.283,0,0,.002,0,.002,0Z" fill="#000" stroke-width="0" data-sg-fill="sg-fill-0" />
  <path d="M48.591,73.964c-.219,0-.441-.034-.657-.103-.767-.247-1.416-.883-1.828-1.79-.266-.585-.407-1.201-.543-1.798l-.107-.457c-.275-1.129-.671-2.231-1.177-3.276l-.088-.179c-.281-.573-.571-1.165-.601-1.85-.035-.848.475-1.809,1.39-1.95.801-.127,1.598.433,2.124,1.49.524,1.057.82,2.24.852,3.42l-.882.024c-.029-1.053-.292-2.108-.761-3.051-.267-.537-.715-1.083-1.199-1.012-.408.063-.662.589-.643,1.041.022.5.259.985.511,1.499l.09.183c.533,1.102.95,2.263,1.239,3.452l.11.468c.133.579.258,1.127.486,1.63.304.669.777,1.148,1.296,1.316.483.156,1.174-.011,1.387-.503l.809.348c-.29.677-1.029,1.097-1.81,1.097h.002Z" fill="#000" stroke-width="0" data-sg-fill="sg-fill-0" />
  <path d="M49.421,60.466l-.761-.444c.795-1.365,2.205-2.462,4.311-3.356.556-.236,1.123-.448,1.691-.659,1.055-.394,2.147-.801,3.121-1.364,1.649-.952,2.722-2.299,2.945-3.697l.871.139c-.266,1.661-1.496,3.236-3.376,4.321-1.037.6-2.164,1.02-3.253,1.427-.555.207-1.111.414-1.655.645-1.925.817-3.198,1.794-3.895,2.988h0Z" fill="#000" stroke-width="0" data-sg-fill="sg-fill-0" />
  <path d="M52.539,55.777l-.542-.695c.473-.37.993-.68,1.544-.924.389-.172.792-.309,1.196-.445.486-.164.944-.319,1.376-.536.356-.179.969-.562,1.075-1.124l.866.164c-.169.888-.934,1.44-1.545,1.748-.486.244-.996.417-1.489.584-.379.128-.757.255-1.122.417-.485.214-.942.487-1.358.812h0Z" fill="#000" stroke-width="0" data-sg-fill="sg-fill-0" />
  <path d="M17.671,96.446l-.878-.061.007-.672h.098c.49-2.464,2.004-4.874,4.316-6.844,2.176-1.854,4.761-3.137,7.439-4.394l.108-.051c1.578-.74,3.21-1.505,4.484-2.665,1.428-1.299,2.412-3.114,2.771-5.109.245-1.36.203-2.802.162-4.197-.053-1.827-.108-3.715.462-5.51.402-1.263,1.125-2.525,2.275-3.968,1.825-2.29,3.667-3.636,5.633-4.113l.208.857c-1.768.43-3.453,1.674-5.153,3.806-1.08,1.357-1.755,2.528-2.124,3.686-.525,1.652-.474,3.383-.421,5.217.042,1.439.086,2.929-.176,4.379-.393,2.185-1.475,4.175-3.045,5.605-1.373,1.249-3.067,2.043-4.704,2.81l-.108.051c-2.621,1.23-5.149,2.484-7.242,4.268-2.337,1.992-3.799,4.445-4.114,6.905h.002Z" fill="#000" stroke-width="0" data-sg-fill="sg-fill-0" />
  <path d="M40.026,76.298l-.878-.086c.111-1.126.083-2.291.054-3.417-.024-.949-.048-1.93.009-2.902.158-2.662,1.004-4.748,2.447-6.034l.587.659c-1.599,1.424-2.054,3.737-2.154,5.427-.055.935-.031,1.897-.008,2.829.029,1.153.059,2.345-.057,3.525h0Z" fill="#000" stroke-width="0" data-sg-fill="sg-fill-0" />
  <path d="M21.097,101.995l-.873-.121c.723-5.242,4.032-10.119,8.636-12.728.799-.454,1.64-.845,2.454-1.224,1.22-.569,2.481-1.157,3.571-1.945,2.539-1.835,4.163-4.797,4.347-7.924l.88.052c-.198,3.389-1.959,6.599-4.71,8.587-1.158.837-2.458,1.443-3.716,2.029-.797.372-1.623.756-2.391,1.191-4.37,2.477-7.511,7.107-8.198,12.082h0Z" fill="#000" stroke-width="0" data-sg-fill="sg-fill-0" />
  <path d="M39.597,87.154l-.665-.58c2.151-2.462,3.422-5.617,3.579-8.883.039-.808.012-1.652-.014-2.468-.063-1.986-.127-4.039.71-5.904l.804.362c-.754,1.679-.696,3.542-.634,5.515.027.833.053,1.695.013,2.538-.165,3.463-1.513,6.809-3.794,9.421h0Z" fill="#000" stroke-width="0" data-sg-fill="sg-fill-0" />
  <path d="M25.054,109.04l-.873-.117c.108-.808.152-1.646.193-2.455.034-.674.068-1.348.139-2.019.764-7.335,6.193-14.061,13.202-16.356l.274.839c-6.689,2.19-11.87,8.609-12.599,15.609-.068.655-.102,1.314-.135,1.972-.042.827-.085,1.684-.2,2.528h-.001Z" fill="#000" stroke-width="0" data-sg-fill="sg-fill-0" />
  <path d="M44.899,85.028l-.771-.427c1.55-2.805,2.146-6.096,1.678-9.267l.873-.129c.495,3.361-.136,6.849-1.779,9.823h-.001Z" fill="#000" stroke-width="0" data-sg-fill="sg-fill-0" />
  <path d="M30.42,109.002c-.108-6.368,2.324-12.332,6.504-15.953.531-.46,1.095-.888,1.64-1.303.442-.335.882-.67,1.309-1.023,1.485-1.23,2.776-2.671,3.839-4.28l.735.486c-1.11,1.682-2.459,3.187-4.011,4.472-.436.362-.888.704-1.338,1.047-.535.405-1.086.825-1.597,1.266-3.985,3.452-6.303,9.161-6.199,15.271l-.882.015v.002h0Z" fill="#000" stroke-width="0" data-sg-fill="sg-fill-0" />
  <path d="M41.274,98.237l-.811-.346c.854-1.998,2.249-3.682,3.598-5.31.87-1.049,1.768-2.133,2.501-3.282,2.188-3.426,3.186-7.969,2.814-12.796l.878-.067c.275,3.548-.015,8.742-2.949,13.337-.763,1.195-1.68,2.3-2.566,3.37-1.37,1.652-2.663,3.213-3.466,5.093h.001Z" fill="#000" stroke-width="0" data-sg-fill="sg-fill-0" />
  <path d="M50.702,90.151l-.78-.41c1.56-2.972,2.225-6.447,1.872-9.786l.876-.093c.371,3.51-.328,7.164-1.968,10.289Z" fill="#000" stroke-width="0" data-sg-fill="sg-fill-0" />
  <path d="M60.549,43.165c-1.48-1.203-3.637-1.475-5.364-.68l-.368-.801c2.029-.933,4.557-.613,6.289.797l-.556.684h-.001Z" fill="#000" stroke-width="0" data-sg-fill="sg-fill-0" />
  <path d="M60.477,46.294c-1.107-1.325-2.985-1.984-4.677-1.634l-.177-.863c1.996-.413,4.222.365,5.531,1.933l-.677.565h0Z" fill="#000" stroke-width="0" data-sg-fill="sg-fill-0" />
  <path d="M57.719,47.357c-.346-.288-.817-.416-1.261-.343l-.143-.87c.691-.115,1.429.085,1.969.536l-.565.677Z" fill="#000" stroke-width="0" data-sg-fill="sg-fill-0" />
  <path d="M42.736,58.167l-.878-.07c.438-5.527,3.365-10.789,7.829-14.077.387-.285.848-.59,1.413-.591l.002.882c-.299,0-.616.217-.891.419-4.261,3.139-7.056,8.162-7.474,13.437h0Z" fill="#000" stroke-width="0" data-sg-fill="sg-fill-0" />
  <path d="M47.456,52.593l-.751-.462c.981-1.591,2.169-3.051,3.531-4.339.404-.381.85-.745,1.443-.713l-.029.881c-.255-.006-.543.223-.808.473-1.307,1.235-2.446,2.634-3.386,4.16Z" fill="#000" stroke-width="0" data-sg-fill="sg-fill-0" />
  <path d="M45.976,56.94l-.874-.099.014-.343.049.002c.19-.895.474-1.773.846-2.613l.806.356c-.382.865-.665,1.773-.841,2.696h0Z" fill="#000" stroke-width="0" data-sg-fill="sg-fill-0" />
  <rect x="66.499" y="42.276" width="11.847" height=".881" transform="translate(8.571 97.422) rotate(-71.122)" fill="#000" stroke-width="0" data-sg-fill="sg-fill-0" />
  <path d="M78.021,61.148c-.112-1.774-.834-3.562-2.089-5.169-1.071-1.368-2.497-2.587-4.362-3.723-2.273-1.385-4.747-2.384-7.354-2.968-1.236-.275-2.532-.272-3.749.01-2.38.555-4.682,1.523-7.034,2.958-1.866,1.137-3.292,2.355-4.363,3.724-1.255,1.606-1.978,3.393-2.089,5.168l-.88-.055c.123-1.954.91-3.91,2.275-5.657,1.136-1.454,2.64-2.74,4.598-3.933,2.434-1.485,4.82-2.487,7.294-3.064,1.343-.313,2.776-.317,4.142-.012,2.702.605,5.264,1.64,7.62,3.076,1.957,1.193,3.461,2.479,4.597,3.933,1.366,1.748,2.152,3.704,2.275,5.657l-.88.055h-.001Z" fill="#000" stroke-width="0" data-sg-fill="sg-fill-0" />
  <path d="M64.278,68.306c-.089-1.574.251-3.142.982-4.536l.78.41c-.657,1.252-.962,2.662-.882,4.076l-.88.05Z" fill="#000" stroke-width="0" data-sg-fill="sg-fill-0" />
  <path d="M70.913,65.791c-.469,0-.939-.093-1.376-.284l-.183-.084c-.094-.045-.189-.09-.288-.124-.432-.144-.963-.025-1.433.081l-.195-.86c.551-.125,1.241-.282,1.908-.057.132.044.258.103.385.163l.158.072c.837.366,1.89.238,2.615-.322l.539.698c-.61.471-1.371.716-2.132.716h.002Z" fill="#000" stroke-width="0" data-sg-fill="sg-fill-0" />
  <path d="M76.409,73.963c-.781,0-1.52-.419-1.81-1.096l.809-.348c.211.492.903.656,1.387.503.519-.168.992-.647,1.296-1.316.228-.503.354-1.05.486-1.63l.11-.468c.289-1.189.706-2.35,1.239-3.452l.09-.183c.252-.514.49-1,.511-1.5.019-.452-.235-.978-.643-1.041-.49-.071-.932.475-1.199,1.012-.47.943-.733,1.998-.761,3.051l-.882-.024c.032-1.18.327-2.363.853-3.42.524-1.057,1.322-1.616,2.123-1.49.915.141,1.426,1.102,1.39,1.95-.03.685-.32,1.278-.601,1.851l-.088.179c-.506,1.046-.901,2.148-1.177,3.276l-.107.457c-.136.597-.277,1.213-.543,1.798-.412.907-1.061,1.543-1.828,1.79-.216.07-.438.102-.657.102h.002Z" fill="#000" stroke-width="0" data-sg-fill="sg-fill-0" />
  <path d="M75.579,60.466c-.696-1.195-1.97-2.172-3.895-2.988-.544-.231-1.099-.438-1.655-.645-1.089-.407-2.216-.827-3.253-1.427-1.879-1.086-3.11-2.661-3.376-4.321l.871-.139c.223,1.398,1.297,2.745,2.945,3.697.974.563,2.065.97,3.121,1.364.567.211,1.135.423,1.691.659,2.107.894,3.517,1.991,4.311,3.356l-.761.444h0Z" fill="#000" stroke-width="0" data-sg-fill="sg-fill-0" />
  <path d="M72.461,55.777c-.416-.325-.873-.598-1.358-.812-.365-.161-.743-.288-1.122-.417-.493-.167-1.003-.339-1.489-.584-.611-.306-1.376-.859-1.545-1.748l.866-.164c.107.563.72.946,1.074,1.124.432.217.891.372,1.377.536.404.136.807.273,1.196.445.551.244,1.07.554,1.544.924l-.542.695h0Z" fill="#000" stroke-width="0" data-sg-fill="sg-fill-0" />
  <path d="M107.329,96.446c-.315-2.46-1.777-4.913-4.114-6.905-2.095-1.785-4.621-3.037-7.243-4.268l-.107-.05c-1.637-.767-3.331-1.561-4.704-2.81-1.57-1.43-2.652-3.42-3.045-5.605-.262-1.451-.218-2.94-.176-4.379.053-1.834.104-3.565-.421-5.217-.368-1.157-1.043-2.329-2.124-3.686-1.699-2.132-3.385-3.376-5.153-3.806l.208-.857c1.965.477,3.809,1.823,5.634,4.113,1.151,1.444,1.873,2.705,2.275,3.968.571,1.795.516,3.683.462,5.51-.041,1.395-.084,2.837.162,4.197.359,1.996,1.343,3.81,2.771,5.109,1.273,1.16,2.906,1.925,4.484,2.665l.108.05c2.678,1.258,5.262,2.54,7.44,4.395,2.312,1.97,3.825,4.379,4.316,6.843h.097l.008.672s-.878.061-.878.061Z" fill="#000" stroke-width="0" data-sg-fill="sg-fill-0" />
  <path d="M84.974,76.298c-.116-1.179-.086-2.369-.058-3.521.023-.932.047-1.896-.008-2.832-.099-1.689-.554-4.002-2.153-5.428l.587-.658c1.444,1.287,2.29,3.373,2.446,6.034.058.973.034,1.955.009,2.906-.028,1.125-.057,2.288.054,3.414l-.878.086h0Z" fill="#000" stroke-width="0" data-sg-fill="sg-fill-0" />
  <path d="M103.903,101.995c-.688-4.976-3.828-9.605-8.197-12.082-.769-.436-1.594-.82-2.392-1.191-1.258-.586-2.558-1.192-3.716-2.029-2.752-1.989-4.513-5.199-4.71-8.587l.88-.052c.183,3.127,1.807,6.088,4.347,7.924,1.09.788,2.351,1.376,3.571,1.945.814.379,1.655.771,2.454,1.224,4.602,2.609,7.911,7.486,8.635,12.728l-.873.121h0Z" fill="#000" stroke-width="0" data-sg-fill="sg-fill-0" />
  <path d="M85.403,87.154c-2.281-2.612-3.629-5.957-3.795-9.421-.04-.844-.014-1.705.013-2.54.062-1.971.121-3.834-.633-5.513l.804-.362c.838,1.865.772,3.918.709,5.903-.026.816-.053,1.661-.014,2.468.158,3.266,1.428,6.422,3.58,8.884l-.665.58h0Z" fill="#000" stroke-width="0" data-sg-fill="sg-fill-0" />
  <path d="M99.946,109.04c-.115-.844-.158-1.7-.2-2.528-.034-.659-.067-1.317-.135-1.972-.729-7-5.91-13.419-12.599-15.609l.274-.839c7.01,2.295,12.438,9.021,13.202,16.356.071.671.105,1.345.139,2.019.041.809.084,1.647.193,2.455l-.873.117h-.001Z" fill="#000" stroke-width="0" data-sg-fill="sg-fill-0" />
  <path d="M80.101,85.028c-1.643-2.974-2.275-6.462-1.779-9.823l.873.129c-.468,3.171.127,6.462,1.678,9.267l-.771.427h0Z" fill="#000" stroke-width="0" data-sg-fill="sg-fill-0" />
  <path d="M94.58,109.002l-.882-.015c.103-6.111-2.214-11.819-6.2-15.271-.511-.443-1.064-.863-1.599-1.269-.449-.342-.9-.684-1.335-1.044-1.551-1.285-2.901-2.789-4.012-4.472l.735-.486c1.063,1.61,2.355,3.049,3.84,4.28.425.352.865.687,1.306,1.021.546.415,1.11.844,1.642,1.304,4.181,3.62,6.613,9.584,6.505,15.953h0Z" fill="#000" stroke-width="0" data-sg-fill="sg-fill-0" />
  <path d="M83.726,98.237c-.803-1.88-2.096-3.441-3.466-5.093-.886-1.07-1.803-2.176-2.566-3.37-2.934-4.596-3.223-9.79-2.949-13.338l.878.067c-.372,4.826.627,9.37,2.814,12.796.733,1.148,1.631,2.233,2.501,3.282,1.349,1.628,2.744,3.312,3.598,5.31l-.811.346h0Z" fill="#000" stroke-width="0" data-sg-fill="sg-fill-0" />
  <path d="M74.298,90.151c-1.641-3.126-2.34-6.78-1.968-10.289l.876.093c-.354,3.337.312,6.812,1.872,9.786,0,0-.78.41-.78.41Z" fill="#000" stroke-width="0" data-sg-fill="sg-fill-0" />
  <path d="M62.562,85.371l-.049-.005c-1.291-.144-3.652-.641-4.952-2.358-.453-.598-.86-1.235-1.253-1.851-.519-.812-1.056-1.651-1.687-2.38-.287-.329-.595-.64-.902-.951-.401-.405-.815-.824-1.185-1.284-.815-1.015-1.229-2.073-1.196-3.058l.882.029c-.034.975.526,1.885,1.001,2.477.341.425.721.809,1.124,1.216.321.325.642.649.941.993.673.777,1.229,1.644,1.764,2.483.385.601.783,1.222,1.214,1.793,1.086,1.433,3.138,1.873,4.299,2.008,1.339-.156,3.13-.632,4.174-2.008.431-.571.829-1.192,1.214-1.793.535-.839,1.091-1.706,1.763-2.482.3-.345.621-.67.942-.994.403-.407.783-.791,1.124-1.216.475-.592,1.035-1.502,1.001-2.478l.882-.029c.034.985-.381,2.043-1.196,3.059-.369.46-.783.879-1.185,1.284-.307.312-.616.622-.903.952-.63.727-1.167,1.567-1.687,2.379-.393.616-.801,1.253-1.253,1.851-1.245,1.643-3.312,2.189-4.827,2.358l-.049.005h-.001Z" fill="#000" stroke-width="0" data-sg-fill="sg-fill-0" />
  <path d="M62.507,96.349c-1.939-.033-4.598-.371-6.347-1.797-1.173-.958-1.951-2.308-2.638-3.5-.135-.235-.322-.557-.325-.944-.003-.362.158-.67.287-.917,1.111-2.134,1.556-4.082,1.327-5.807l.875-.115c.252,1.907-.222,4.032-1.412,6.315-.104.201-.195.375-.195.517.002.141.091.307.207.51.681,1.181,1.384,2.402,2.432,3.257,1.552,1.266,4.004,1.569,5.789,1.599,1.769-.03,4.222-.332,5.774-1.599,1.048-.855,1.751-2.076,2.431-3.257.097-.168.207-.359.208-.511,0-.14-.09-.315-.187-.5-1.198-2.297-1.673-4.422-1.42-6.33l.875.115c-.229,1.725.214,3.674,1.319,5.791.137.263.297.57.294.931-.003.384-.189.708-.325.944-.687,1.192-1.464,2.542-2.638,3.5-1.749,1.426-4.409,1.764-6.332,1.797h0Z" fill="#000" stroke-width="0" data-sg-fill="sg-fill-0" />
  <path d="M67.314,106.218c-.911,0-1.793-.28-2.456-.838-.276-.233-.532-.515-.783-.86-.373-.514-.947-.809-1.575-.809s-1.202.295-1.575.809c-.251.345-.506.627-.783.859-1.303,1.099-3.455,1.12-5.004.052-1.297-.895-2.212-2.48-2.508-4.348-.022-.144-.042-.289-.062-.436-.096-.698-.185-1.357-.581-1.799-.535-.597-1.451-.63-2.42-.665-.374-.014-.746-.028-1.101-.071-1.535-.191-2.974-1.065-3.848-2.338l.727-.499c.734,1.068,1.942,1.803,3.23,1.963.331.04.677.053,1.024.065,1.059.038,2.259.081,3.044.956.577.644.695,1.507.798,2.269.019.14.039.281.06.418.258,1.631,1.037,3,2.138,3.76,1.233.851,2.925.85,3.935,0,.22-.186.429-.416.638-.703.541-.745,1.374-1.173,2.287-1.173s1.748.428,2.288,1.173c.209.288.418.517.638.704,1.011.849,2.702.851,3.935,0,1.1-.76,1.879-2.13,2.138-3.76.022-.137.041-.277.06-.418.103-.762.221-1.625.798-2.269.785-.876,1.985-.919,3.044-.956.348-.013.694-.025,1.024-.065,1.288-.16,2.496-.894,3.23-1.963l.727.499c-.875,1.273-2.313,2.147-3.848,2.338-.355.044-.727.058-1.101.071-.969.034-1.885.067-2.42.665-.396.443-.486,1.101-.581,1.799-.02.147-.04.293-.062.436-.296,1.867-1.21,3.452-2.508,4.348-.761.525-1.668.787-2.548.787h0Z" fill="#000" stroke-width="0" data-sg-fill="sg-fill-0" />
  <path d="M64.451,43.165l-.556-.684c1.732-1.41,4.259-1.73,6.289-.797l-.368.801c-1.729-.795-3.885-.522-5.364.68h-.001Z" fill="#000" stroke-width="0" data-sg-fill="sg-fill-0" />
  <path d="M64.523,46.294l-.677-.565c1.309-1.568,3.531-2.346,5.531-1.933l-.177.863c-1.694-.35-3.571.309-4.677,1.634h0Z" fill="#000" stroke-width="0" data-sg-fill="sg-fill-0" />
  <path d="M67.281,47.357l-.565-.677c.539-.45,1.274-.65,1.969-.536l-.145.87c-.445-.073-.915.056-1.26.343h0Z" fill="#000" stroke-width="0" data-sg-fill="sg-fill-0" />
  <path d="M82.264,58.167c-.418-5.275-3.213-10.298-7.474-13.437-.275-.203-.592-.419-.891-.419l.002-.882c.565,0,1.025.306,1.413.591,4.464,3.288,7.391,8.55,7.829,14.077l-.878.07h-.001Z" fill="#000" stroke-width="0" data-sg-fill="sg-fill-0" />
  <path d="M77.544,52.593c-.94-1.526-2.079-2.926-3.386-4.161-.264-.25-.575-.484-.808-.473l-.029-.881h.046c.562,0,1.004.342,1.397.713,1.362,1.288,2.55,2.748,3.531,4.339l-.751.462h0Z" fill="#000" stroke-width="0" data-sg-fill="sg-fill-0" />
  <path d="M79.024,56.94c-.177-.928-.461-1.835-.841-2.697l.806-.356c.37.838.654,1.715.845,2.613l.05-.002.014.343-.874.099Z" fill="#000" stroke-width="0" data-sg-fill="sg-fill-0" />
  <rect x="53.28" y="111.039" width="5.632" height=".881" transform="translate(-66.48 134.923) rotate(-74.116)" fill="#000" stroke-width="0" data-sg-fill="sg-fill-0" />
  <rect x="47.781" y="107.828" width="5.215" height=".882" transform="translate(-65.188 78.216) rotate(-50.467)" fill="#000" stroke-width="0" data-sg-fill="sg-fill-0" />
  <rect x="42.974" y="102.614" width="6.095" height=".881" transform="translate(-57.192 57.391) rotate(-42.07)" fill="#000" stroke-width="0" data-sg-fill="sg-fill-0" />
  <rect x="68.883" y="108.873" width=".881" height="5.632" transform="translate(-27.9 23.214) rotate(-15.87)" fill="#000" stroke-width="0" data-sg-fill="sg-fill-0" />
  <rect x="74.588" y="105.871" width=".882" height="5.216" transform="translate(-51.867 72.503) rotate(-39.502)" fill="#000" stroke-width="0" data-sg-fill="sg-fill-0" />
  <rect x="78.956" y="100.218" width=".881" height="6.095" transform="translate(-50.466 93.104) rotate(-47.971)" fill="#000" stroke-width="0" data-sg-fill="sg-fill-0" />
  <rect x="62.059" y="108.994" width=".882" height="6.579" fill="#000" stroke-width="0" data-sg-fill="sg-fill-0" />
  <rect x="61.868" width=".882" height="14.14" fill="#000" stroke-width="0" data-sg-fill="sg-fill-0" />
  <rect x="57.795" y="2.805" width=".882" height="12.792" transform="translate(-.604 12.941) rotate(-12.615)" fill="#000" stroke-width="0" data-sg-fill="sg-fill-0" />
  <rect x="54.986" y="8.055" width=".882" height="11.727" transform="translate(-.484 25.745) rotate(-26.04)" fill="#000" stroke-width="0" data-sg-fill="sg-fill-0" />
  <rect x="52.966" y="14.88" width=".882" height="7.768" transform="translate(-.711 35.365) rotate(-36.412)" fill="#000" stroke-width="0" data-sg-fill="sg-fill-0" />
  <rect x="51.541" y="19.658" width=".881" height="5.363" transform="translate(.505 45.819) rotate(-47.775)" fill="#000" stroke-width="0" data-sg-fill="sg-fill-0" />
  <rect x="60.081" y="8.761" width="12.792" height=".882" transform="translate(42.967 72.06) rotate(-77.374)" fill="#000" stroke-width="0" data-sg-fill="sg-fill-0" />
  <rect x="63.421" y="13.477" width="11.727" height=".882" transform="translate(26.339 70.041) rotate(-63.935)" fill="#000" stroke-width="0" data-sg-fill="sg-fill-0" />
  <rect x="67.422" y="18.323" width="7.768" height=".882" transform="translate(13.871 65.001) rotate(-53.578)" fill="#000" stroke-width="0" data-sg-fill="sg-fill-0" />
  <rect x="70.048" y="21.898" width="5.363" height=".881" transform="translate(3.862 54.679) rotate(-42.229)" fill="#000" stroke-width="0" data-sg-fill="sg-fill-0" />
  <path d="M63.101,76.032c-.137,0-.275-.015-.418-.051-.315-.077-.579-.24-.813-.384-.186-.115-.362-.224-.535-.272-.077-.022-.158-.036-.24-.052-.344-.066-.815-.158-1.027-.621-.072-.157-.147-.365-.22-.57-.053-.148-.104-.294-.155-.412l.811-.348c.056.133.115.296.175.463.063.178.127.359.191.498.023.053.273.1.393.123.106.021.212.041.31.069.293.082.542.235.761.371.195.121.379.234.559.278.496.118,1.048-.242,1.525-.612.065-.052.164-.128.192-.183.024-.05.027-.172.028-.225.003-.213-.005-.428-.028-.641l.876-.091c.026.248.036.498.033.747-.003.194-.021.4-.119.601-.119.238-.313.388-.442.488-.537.417-1.165.822-1.857.822v.002h0Z" fill="#000" stroke-width="0" data-sg-fill="sg-fill-0" />
  <path d="M58.762,62.755c-.523-.139-.95-.43-1.362-.712-.111-.076-.222-.152-.334-.224-1.947-1.246-4.61-1.327-6.626-.198l-.43-.77c2.293-1.283,5.32-1.193,7.532.225.12.077.238.157.356.238.367.251.714.487,1.092.588l-.227.852h0Z" fill="#000" stroke-width="0" data-sg-fill="sg-fill-0" />
  <path d="M65.945,62.755l-.227-.851c.377-.101.725-.338,1.092-.589.118-.08.236-.161.356-.237,2.213-1.417,5.239-1.508,7.531-.225l-.43.77c-2.016-1.128-4.677-1.049-6.626.198-.112.072-.223.148-.334.223-.412.282-.839.573-1.362.712h0Z" fill="#000" stroke-width="0" data-sg-fill="sg-fill-0" />
  <path d="M24.592,83.924c-1.334-6.076-2.011-12.437-2.011-18.903,0-29.14,13.766-53.975,32.733-59.053l.227.851c-18.587,4.977-32.078,29.454-32.078,58.202,0,6.403.67,12.699,1.99,18.713l-.861.189h0Z" fill="#000" stroke-width="0" data-sg-fill="sg-fill-0" />
  <path d="M62.308,125c-11.107,0-21.782-7.082-29.285-19.431l.754-.458c7.338,12.079,17.738,19.007,28.53,19.007,10.95,0,21.451-7.098,28.813-19.475l.758.451c-7.524,12.65-18.302,19.906-29.57,19.906Z" fill="#000" stroke-width="0" data-sg-fill="sg-fill-0" />
  <path d="M100.135,83.42l-.863-.184c1.249-5.864,1.883-11.992,1.883-18.214,0-28.676-13.453-53.143-31.986-58.177l.231-.851c18.912,5.136,32.637,29.96,32.637,59.027,0,6.283-.64,12.473-1.902,18.398h0Z" fill="#000" stroke-width="0" data-sg-fill="sg-fill-0" />
  <path d="M28.398,82.063c-1.123-5.493-1.692-11.227-1.692-17.041,0-24.553,10.032-45.977,24.963-53.312l.389.791c-14.636,7.189-24.47,28.296-24.47,52.521,0,5.755.563,11.429,1.674,16.864,0,0-.864.177-.864.177Z" fill="#000" stroke-width="0" data-sg-fill="sg-fill-0" />
  <path d="M62.308,120.875c-10.417,0-20.281-7.138-27.064-19.582l.775-.422c6.623,12.153,16.206,19.122,26.29,19.122,10.455,0,20.262-7.395,26.909-20.29l.783.405c-6.803,13.198-16.896,20.767-27.692,20.767h0Z" fill="#000" stroke-width="0" data-sg-fill="sg-fill-0" />
  <path d="M96.353,81.392l-.865-.169c1.023-5.232,1.541-10.683,1.541-16.202,0-23.921-10.103-45.538-24.569-52.569l.386-.793c14.992,7.286,25.064,28.731,25.064,53.362,0,5.576-.523,11.083-1.557,16.371Z" fill="#000" stroke-width="0" data-sg-fill="sg-fill-0" />
</g></svg>