<svg xmlns="http://www.w3.org/2000/svg" id="Layer_1" data-name="Layer 1" version="1.1" viewBox="0.0 0.0 100.0 100.0">
  <g transform="scale(0.8)"><path d="M79.492,44.901c-.059,0-.119-.01-.177-.032-.196-.074-.323-.257-.341-.49-.068-.964-.373-2.237-.626-2.946-.34-.953-.836-1.896-1.104-2.103h0c-.186-.143-.255-.391-.18-.648.079-.273.288-.463.532-.484.702-.061,1.44-.272,2.195-.629.869-.411,1.746-1.008,2.607-1.774.162-.144.366-.188.553-.11.185.075.305.247.321.462.097,1.208.343,2.281.732,3.189.345.806.798,1.464,1.347,1.954.189.168.234.45.116.719-.116.262-.355.411-.596.386-.72-.077-1.497.067-2.308.426-.898.398-1.803,1.042-2.687,1.913-.111.11-.248.166-.384.166h0ZM78.155,39.024c.529.726.973,1.944,1.031,2.11.22.616.465,1.576.597,2.47.792-.699,1.604-1.235,2.419-1.596.716-.317,1.417-.491,2.094-.518-.441-.503-.814-1.107-1.112-1.803-.349-.817-.593-1.747-.727-2.775-.754.61-1.521,1.1-2.286,1.463-.684.323-1.359.54-2.017.65h0ZM82.385,36.217v.002-.002Z" fill="#000" stroke-width="0" data-sg-fill="sg-fill-0" />
  <path d="M47.965,89.35c-.137,0-.272-.057-.383-.165-.89-.874-1.794-1.517-2.689-1.914-.81-.357-1.581-.497-2.307-.425-.243.024-.48-.124-.596-.386-.119-.269-.073-.551.116-.72.547-.488,1.001-1.146,1.347-1.955.387-.903.633-1.976.732-3.19.017-.213.137-.385.322-.46.184-.075.39-.034.553.111.86.765,1.737,1.362,2.606,1.772.751.356,1.49.568,2.195.63.242.02.451.209.531.482.077.257.007.506-.179.65h0c-.268.206-.764,1.15-1.104,2.103-.252.708-.557,1.981-.626,2.945-.016.231-.142.415-.338.49-.058.023-.118.033-.178.033h-.002,0ZM47.593,88.765v.002-.002ZM43.159,85.939c.677.028,1.378.201,2.094.518.812.359,1.624.895,2.42,1.597.132-.896.377-1.856.597-2.471.059-.165.504-1.384,1.031-2.11-.66-.11-1.336-.328-2.016-.65-.764-.362-1.531-.852-2.286-1.462-.136,1.031-.379,1.961-.727,2.774-.299.697-.672,1.302-1.113,1.803h0ZM49.781,83.535h.004-.004ZM49.67,83.073h0ZM44.467,80.911h0ZM45.072,80.666v.003-.003Z" fill="#000" stroke-width="0" data-sg-fill="sg-fill-0" />
  <path d="M68.457,69.702c-.362-4.229-.372-11.884,3.618-15.651,1.872-1.768,4.396-2.435,7.498-1.992,8.144.514,8.21,11.85,8.242,17.298l-.89.005c-.032-5.575-.093-15.953-7.443-16.418-2.858-.407-5.131.183-6.795,1.754-3.858,3.642-3.623,11.653-3.343,14.928l-.887.077h0Z" fill="#000" stroke-width="0" data-sg-fill="sg-fill-0" />
  <path d="M58.397,84.85c-.281,0-.548-.11-.753-.316-.254-.254-.369-.617-.309-.97.65-3.774,1.893-6.241,3.916-7.765,1.109-.836,2.406-1.323,3.661-1.794.749-.281,1.524-.571,2.234-.93.984-.497,1.537-1.044,1.693-1.674l.864.214c-.221.897-.926,1.634-2.156,2.255-.754.381-1.551.68-2.323.97-1.25.47-2.431.912-3.438,1.671-1.83,1.379-2.965,3.668-3.573,7.204-.017.1.036.166.06.19.03.031.083.067.157.051,2.295-.391,4.304-1.157,5.972-2.278,2.118-1.422,3.64-3.413,4.285-5.606l.854.25c-.704,2.392-2.352,4.557-4.643,6.094-1.773,1.191-3.898,2.004-6.319,2.418-.062.01-.123.016-.183.016h0Z" fill="#000" stroke-width="0" data-sg-fill="sg-fill-0" />
  <path d="M97.699,84.073c-2.108,0-4.239-.306-6.093-1.387-2.731-1.593-4.338-4.587-5.627-6.993l.784-.421c1.237,2.307,2.777,5.178,5.292,6.645,2.634,1.536,5.992,1.36,8.931,1.073.077-.007.122-.055.142-.083.021-.03.054-.093.033-.178-.515-2.095-2.058-4.08-4.345-5.589-1.831-1.209-3.942-2.031-5.983-2.825-.503-.196-1.004-.391-1.504-.592-2.364-.953-2.778-2.16-2.709-3.005l.887.073c-.081.99,1.127,1.692,2.155,2.106.496.2.994.394,1.493.589,2.084.811,4.24,1.651,6.151,2.912,2.475,1.632,4.151,3.805,4.719,6.119.077.313.015.643-.17.904-.183.258-.468.424-.782.456-1.085.105-2.226.196-3.373.196h0Z" fill="#000" stroke-width="0" data-sg-fill="sg-fill-0" />
  <path d="M48.436,105.02c-.664,0-1.263-.366-1.569-.977-.34-.678-.219-1.467.308-2.011.123-.127.252-.246.383-.356,2.258-1.893,5.136-2.652,7.919-3.386,1.712-.452,3.483-.919,5.079-1.645,6.285-2.858,10.06-10.639,8.417-17.344l.864-.212c1.77,7.221-2.145,15.289-8.913,18.367-1.664.757-3.471,1.234-5.22,1.696-2.811.742-5.468,1.443-7.573,3.207-.108.09-.214.189-.317.295-.315.323-.283.724-.15.99.136.27.44.54.894.477l7.038-.91c2.191-.283,4.458-.577,6.659-1.034,6.235-1.298,11.68-3.913,15.745-7.561,4.595-4.124,7.455-9.675,7.846-15.23l.889.063c-.407,5.784-3.374,11.554-8.14,15.83-4.182,3.753-9.769,6.439-16.159,7.77-2.235.465-4.518.76-6.726,1.046l-7.038.91c-.079.01-.158.015-.236.015h0Z" fill="#000" stroke-width="0" data-sg-fill="sg-fill-0" />
  <path d="M49.917,125c-.176,0-.349-.054-.496-.159-.235-.167-.366-.439-.352-.727.08-1.731.054-3.743-.741-5.54-.606-1.368-1.644-3.207-2.559-4.831-.334-.593-.65-1.151-.917-1.64-.532-.97-.845-1.931-.93-2.856-.122-1.331.243-2.726,1.002-3.843-2.693-.47-5.53.221-8.273.887l-.727.176c-3.426.824-7.027,1.376-10.131-.129-1.197-.58-2.253-1.455-3.055-2.531-.199-.266-.226-.614-.072-.907.153-.29.451-.456.78-.45,1.497.057,3.064.019,4.368-.664.626-.328,1.171-.789,1.75-1.277.182-.153.363-.307.548-.457,5.389-4.367,13.594-4.9,19.505-1.27l-.466.758c-5.601-3.439-13.371-2.932-18.479,1.204-.179.145-.357.295-.533.444-.59.498-1.198,1.013-1.912,1.387-1.489.779-3.197.828-4.815.765.757.896,1.701,1.678,2.77,2.196,2.853,1.384,6.27.848,9.536.064l.724-.175c2.862-.695,5.822-1.413,8.727-.884.281.052.513.242.622.509.109.265.077.562-.086.793-.673.958-.999,2.169-.893,3.321.074.803.351,1.647.824,2.51.266.486.579,1.042.911,1.631.925,1.641,1.975,3.5,2.598,4.908.876,1.977.896,4.214.816,5.942,2.422-1.021,3.588-3.91,3.836-6.087.197-1.737-.003-3.985-.197-6.16-.12-1.347-.234-2.619-.25-3.727-.01-.719.048-1.462.536-2.024l.672.584c-.292.336-.325.884-.317,1.427.016,1.074.127,2.331.246,3.66.197,2.219.402,4.513.195,6.34-.276,2.422-1.605,5.648-4.443,6.769-.103.042-.212.062-.319.062h-.003,0Z" fill="#000" stroke-width="0" data-sg-fill="sg-fill-0" />
  <path d="M30.269,104.048l-.217-.863c1.529-.386,2.995-1.103,4.413-1.796,1.386-.677,2.819-1.377,4.347-1.797,2.404-.658,5.032-.589,7.397.195l-.28.845c-2.201-.73-4.645-.794-6.882-.181-1.446.397-2.842,1.078-4.191,1.737-1.459.713-2.968,1.451-4.587,1.858,0,0,0,.002,0,.002Z" fill="#000" stroke-width="0" data-sg-fill="sg-fill-0" />
  <path d="M38.314,103.879l-.489-.744c2.561-1.683,5.289-1.656,6.845-1.118l-.289.842c-1.369-.471-3.776-.484-6.067,1.021h0Z" fill="#000" stroke-width="0" data-sg-fill="sg-fill-0" />
  <path d="M51.397,121.317l-.802-.388c1.03-2.127.708-4.67.325-6.886l-.089-.512c-.399-2.277-.811-4.631-.177-6.901l.857.24c-.579,2.076-.184,4.329.197,6.508l.09.514c.405,2.353.743,5.061-.402,7.426h0Z" fill="#000" stroke-width="0" data-sg-fill="sg-fill-0" />
  <path d="M47.121,111.548c-.157-.83-.317-1.689-.3-2.57.019-1.028.294-1.931.793-2.611l.718.527c-.493.671-.61,1.513-.621,2.101-.016.79.137,1.602.284,2.387l-.875.165h0Z" fill="#000" stroke-width="0" data-sg-fill="sg-fill-0" />
  <path d="M60.34,82.431l-.736-.503c.372-.544.708-1.138,1.032-1.712.467-.826.95-1.68,1.567-2.444,1.307-1.617,3.034-2.42,4.61-2.164l-.146.878c-1.477-.243-2.921.792-3.771,1.846-.57.706-1.014,1.491-1.484,2.323-.333.59-.678,1.201-1.071,1.777h0Z" fill="#000" stroke-width="0" data-sg-fill="sg-fill-0" />
  <path d="M63.106,80.831l-.812-.365c.312-.694.77-1.336,1.326-1.855.502-.47.997-.651,1.465-.542l-.203.866c-.157-.037-.389.077-.653.326-.47.439-.858.982-1.123,1.57Z" fill="#000" stroke-width="0" data-sg-fill="sg-fill-0" />
  <path d="M98.563,82.023c-1.164-.405-2.059-1.23-2.925-2.03-.402-.37-.817-.753-1.245-1.078-1.297-.984-2.905-1.564-4.531-1.633l.038-.89c1.804.078,3.591.722,5.03,1.814.463.351.895.749,1.311,1.134.837.77,1.626,1.498,2.615,1.844l-.293.84h0Z" fill="#000" stroke-width="0" data-sg-fill="sg-fill-0" />
  <path d="M94.025,81.479c-.631-.608-1.328-1.15-2.069-1.611l.47-.757c.795.494,1.54,1.074,2.217,1.725l-.617.642h-.001Z" fill="#000" stroke-width="0" data-sg-fill="sg-fill-0" />
  <path d="M70.824,62.28l-.53-.715.97-.719c1.178-.873,2.514-1.864,2.979-3.03.053-.131.072-.222.058-.267-.007-.02-.061-.082-.169-.098-.103-.016-.238.009-.343.032-1.024.228-1.778.974-1.649,1.631l-.873.172c-.229-1.157.794-2.331,2.328-2.672.182-.04.422-.083.672-.043.42.064.768.344.884.713.102.328.01.633-.081.862-.56,1.402-2.004,2.472-3.278,3.416l-.969.718s0,0,.001,0Z" fill="#000" stroke-width="0" data-sg-fill="sg-fill-0" />
  <path d="M85.021,61.677l-.968-.718c-1.275-.945-2.719-2.017-3.278-3.415-.091-.231-.183-.537-.081-.863.115-.369.463-.649.885-.713.246-.038.487.002.668.042,1.537.343,2.559,1.517,2.331,2.673l-.873-.172c.13-.657-.626-1.404-1.649-1.631-.103-.023-.238-.046-.341-.031-.11.017-.163.078-.17.099-.014.044.005.134.058.267.464,1.163,1.801,2.155,2.98,3.03l.97.718-.532.715h0Z" fill="#000" stroke-width="0" data-sg-fill="sg-fill-0" />
  <path d="M67.134,98.05l-.656-.604c.882-.957,2.043-1.581,3.165-2.184,1.369-.735,2.662-1.43,3.379-2.657.47-.804.631-1.741.801-2.734.119-.693.242-1.411.479-2.097.407-1.173,1.123-2.181,1.815-3.156.349-.49.708-.997,1.017-1.511,1.566-2.606,2.037-5.918,1.26-8.858-.158-.6-.372-1.206-.578-1.792-.345-.981-.702-1.995-.84-3.064-.279-2.167.363-4.324.93-6.227l.854.254c-.542,1.818-1.157,3.88-.901,5.859.126.976.451,1.902.797,2.882.212.603.431,1.225.599,1.86.85,3.216.355,6.694-1.357,9.545-.326.543-.696,1.063-1.054,1.567-.686.966-1.334,1.879-1.699,2.932-.214.617-.325,1.267-.443,1.955-.177,1.028-.358,2.09-.91,3.034-.844,1.443-2.31,2.23-3.727,2.991-1.057.568-2.151,1.156-2.931,2.003,0,0,0,.002,0,.002Z" fill="#000" stroke-width="0" data-sg-fill="sg-fill-0" />
  <path d="M76.022,55.208c-.067-.226-.225-.756.117-1.548l.817.353c-.213.495-.13.774-.08.941,0,0-.854.254-.854.254Z" fill="#000" stroke-width="0" data-sg-fill="sg-fill-0" />
  <path d="M80.074,55.116l-.877-.16c.042-.224-.043-.542-.225-.848l.765-.456c.298.501.417,1.021.337,1.464Z" fill="#000" stroke-width="0" data-sg-fill="sg-fill-0" />
  <path d="M72.658,68.604c-.23,0-.451-.017-.651-.055-.882-.165-1.231-.642-1.369-1.012l.835-.31c.025.069.103.277.51.401.75.226,1.877-.044,2.069-.183l.641.616c-.282.317-1.204.543-2.034.543h0Z" fill="#000" stroke-width="0" data-sg-fill="sg-fill-0" />
  <path d="M83.017,71.762c-.735,0-1.47-.254-2.03-.753l.591-.664c.719.639,1.897.702,2.678.143l.518.725c-.516.368-1.137.55-1.757.55h0Z" fill="#000" stroke-width="0" data-sg-fill="sg-fill-0" />
  <path d="M74.22,77.405c-.607,0-1.214-.156-1.744-.474l.457-.764c.875.524,2.085.442,2.878-.2l.56.692c-.61.493-1.381.745-2.152.745h.001Z" fill="#000" stroke-width="0" data-sg-fill="sg-fill-0" />
  <path d="M81.291,85.471c-.516,0-1.031-.156-1.457-.459-.483-.345-.693-.853-.536-1.295l.838.299c-.004.03.056.157.216.27.458.328,1.109.385,1.617.144l.381.805c-.332.157-.697.235-1.06.235h.001Z" fill="#000" stroke-width="0" data-sg-fill="sg-fill-0" />
  <path d="M72.385,88.552c-.259,0-.525-.043-.754-.113-.599-.183-1.004-.55-1.113-1.009l.866-.205c.027.112.167.23.375.316.385.157.826.138.928.075l.595.662c-.213.197-.548.275-.897.275h0Z" fill="#000" stroke-width="0" data-sg-fill="sg-fill-0" />
  <path d="M76.983,93.181c-.262,0-.548-.035-.817-.157-.262-.12-.49-.337-.624-.595-.157-.304-.173-.642-.043-.927l.81.37c-.023.049.009.118.023.146.043.083.121.157.203.195.234.11.544.083.895.044l.099.885c-.155.017-.343.038-.548.038h.002Z" fill="#000" stroke-width="0" data-sg-fill="sg-fill-0" />
  <path d="M63.516,100.072c-.814-.334-1.33-1.241-1.199-2.111l.88.132c-.07.468.218.975.657,1.154l-.337.824h0Z" fill="#000" stroke-width="0" data-sg-fill="sg-fill-0" />
  <path d="M55.885,101.934c-.352-.077-.67-.307-.872-.633-.202-.326-.266-.714-.177-1.063l.863.219c-.03.117-.003.253.072.375s.185.206.303.23l-.188.871h0Z" fill="#000" stroke-width="0" data-sg-fill="sg-fill-0" />
  <path d="M82.264,113.237c-.588,0-1.177-.107-1.751-.35-1.146-.486-2.051-1.568-2.422-2.893-.37-1.326-.156-2.72.573-3.731.653-.906,1.649-1.502,2.664-1.593,1.144-.108,2.284.456,2.824,1.395.588,1.024.348,2.425-.537,3.124-.465.368-1.115.518-1.744.403-.592-.11-1.092-.446-1.372-.922l.767-.452c.15.254.43.436.769.499.377.067.762-.014,1.029-.227.543-.428.688-1.336.317-1.981-.364-.632-1.165-1.028-1.971-.951-.762.069-1.517.527-2.022,1.227-.571.792-.735,1.903-.437,2.971.297,1.067,1.012,1.931,1.911,2.313,2.002.846,4.312-.349,5.612-1.821.611-.692,1.038-1.408,1.268-2.127.641-2-.207-4.467-2.062-5.999-2.011-1.659-4.612-2.012-6.46-2.012h-.052c-4.538.018-7.734,1.729-9.501,5.084l-.788-.416c1.905-3.617,5.462-5.539,10.286-5.559h.055c1.996,0,4.814.389,7.028,2.216,2.128,1.757,3.092,4.618,2.344,6.957-.269.837-.756,1.66-1.449,2.445-1.146,1.297-2.997,2.401-4.877,2.401h-.002Z" fill="#000" stroke-width="0" data-sg-fill="sg-fill-0" />
  <path d="M90.812,91.57c-.118,0-.236-.01-.35-.03-.671-.132-1.183-.769-1.171-1.45.01-.536.364-1.165,1.332-1.321l.143.878c-.263.043-.579.157-.584.458-.004.226.175.505.447.559.528.095,1.224-.224,1.518-.698.31-.5.23-.966-.279-1.611-.514-.488-1.217-.705-2.047-.59-1.692.229-3.399,1.691-4.146,2.95l-.765-.454c.874-1.475,2.801-3.109,4.792-3.378,1.095-.149,2.074.154,2.825.877.314.39,1.145,1.442.377,2.677-.421.679-1.289,1.134-2.091,1.134h0Z" fill="#000" stroke-width="0" data-sg-fill="sg-fill-0" />
  <path d="M46.454,73.076c-.573,0-1.17-.044-1.791-.133-8.146-.515-8.21-11.851-8.241-17.299l.89-.005c.032,5.575.091,15.953,7.442,16.419,2.859.408,5.13-.183,6.795-1.754,3.857-3.642,3.623-11.654,3.344-14.929l.887-.077c.361,4.229.37,11.885-3.619,15.652-1.497,1.414-3.411,2.125-5.706,2.125h0Z" fill="#000" stroke-width="0" data-sg-fill="sg-fill-0" />
  <path d="M55.398,53.599l-.864-.214c.222-.897.926-1.634,2.155-2.254.754-.381,1.552-.68,2.324-.97,1.25-.47,2.431-.913,3.438-1.671,1.83-1.379,2.965-3.669,3.573-7.205.017-.099-.036-.165-.06-.189-.03-.031-.084-.064-.159-.053-2.295.392-4.305,1.159-5.972,2.278-2.118,1.423-3.638,3.413-4.285,5.606l-.854-.252c.704-2.391,2.353-4.555,4.642-6.093,1.772-1.19,3.898-2.004,6.319-2.418.348-.058.69.052.938.302.253.254.368.616.308.969-.65,3.774-1.893,6.241-3.916,7.766-1.11.836-2.407,1.323-3.661,1.793-.75.282-1.524.572-2.235.931-.984.497-1.537,1.044-1.692,1.673h0Z" fill="#000" stroke-width="0" data-sg-fill="sg-fill-0" />
  <path d="M37.617,54.282l-.887-.073c.082-.99-1.126-1.692-2.154-2.106-.493-.198-.989-.391-1.484-.584-2.088-.813-4.246-1.653-6.159-2.916-2.475-1.632-4.151-3.806-4.719-6.12-.077-.313-.015-.644.171-.906.183-.257.467-.423.781-.453,3.077-.299,6.6-.48,9.467,1.191,2.733,1.594,4.338,4.587,5.626,6.992l-.784.421c-1.237-2.306-2.774-5.177-5.291-6.644-2.636-1.537-5.994-1.361-8.932-1.073-.073.007-.117.048-.141.082-.036.051-.048.116-.033.178.516,2.096,2.058,4.08,4.345,5.59,1.834,1.21,3.948,2.033,5.992,2.828.499.195.998.389,1.494.589,2.366.953,2.779,2.16,2.709,3.005h0Z" fill="#000" stroke-width="0" data-sg-fill="sg-fill-0" />
  <path d="M54.399,45.911c-1.771-7.221,2.145-15.289,8.913-18.367,1.664-.757,3.471-1.233,5.219-1.695,2.812-.742,5.469-1.443,7.576-3.208.108-.09.214-.189.315-.293.316-.325.284-.725.151-.992-.135-.27-.44-.542-.894-.477l-7.037.91c-2.229.289-4.482.581-6.659,1.035-6.234,1.297-11.679,3.912-15.746,7.56-4.596,4.125-7.455,9.675-7.846,15.23l-.889-.063c.407-5.783,3.373-11.553,8.14-15.83,4.184-3.754,9.771-6.44,16.159-7.769,2.211-.461,4.48-.756,6.675-1.04l7.087-.917c.759-.096,1.463.28,1.804.962.34.679.219,1.468-.308,2.011-.123.126-.251.245-.382.355-2.259,1.894-5.138,2.653-7.921,3.388-1.712.451-3.482.918-5.077,1.644-6.285,2.858-10.061,10.64-8.417,17.344l-.864.212h0Z" fill="#000" stroke-width="0" data-sg-fill="sg-fill-0" />
  <path d="M83.397,28.62c-3.08,0-6.153-.791-8.777-2.403l.466-.758c5.599,3.439,13.373,2.935,18.479-1.204.18-.146.357-.296.535-.446.588-.497,1.197-1.012,1.911-1.385,1.488-.777,3.197-.825,4.815-.765-.757-.895-1.7-1.677-2.771-2.196-2.852-1.383-6.269-.848-9.536-.064l-.722.175c-2.863.696-5.822,1.415-8.728.884-.278-.05-.51-.24-.621-.506-.109-.265-.077-.563.084-.795.675-.959,1.001-2.17.894-3.322-.073-.8-.35-1.644-.824-2.51-.264-.483-.575-1.033-.904-1.617-.929-1.645-1.981-3.51-2.604-4.92-.877-1.982-.897-4.217-.816-5.943-2.424,1.022-3.589,3.911-3.836,6.087-.198,1.737.003,3.986.197,6.161.12,1.347.234,2.619.25,3.727.01.718-.048,1.461-.536,2.023l-.671-.584c.291-.336.324-.884.317-1.426-.016-1.074-.128-2.331-.246-3.66-.197-2.219-.403-4.514-.195-6.341.275-2.422,1.604-5.647,4.442-6.769.275-.109.579-.071.817.098.233.166.364.437.352.724-.077,1.63-.061,3.731.74,5.543.607,1.371,1.647,3.215,2.565,4.843.332.588.645,1.142.91,1.627.533.974.845,1.935.93,2.856.123,1.331-.242,2.726-1.002,3.843,2.695.47,5.532-.221,8.275-.887l.725-.176c3.427-.823,7.027-1.377,10.132.129,1.198.582,2.255,1.457,3.055,2.531.198.266.226.614.071.908-.152.29-.424.452-.78.45-1.498-.059-3.064-.017-4.367.664-.626.327-1.171.788-1.748,1.276-.183.154-.364.309-.55.458-2.998,2.429-6.868,3.672-10.728,3.672v-.002h0Z" fill="#000" stroke-width="0" data-sg-fill="sg-fill-0" />
  <path d="M82.055,25.855c-1.368,0-2.737-.215-4.027-.643l.28-.845c2.199.729,4.643.793,6.882.181,1.445-.397,2.84-1.077,4.189-1.737,1.46-.713,2.969-1.451,4.588-1.858l.217.863c-1.529.385-2.996,1.103-4.415,1.796-1.385.677-2.818,1.377-4.345,1.796-1.092.299-2.231.448-3.37.448h0Z" fill="#000" stroke-width="0" data-sg-fill="sg-fill-0" />
  <path d="M81.689,23.309c-.821,0-1.551-.128-2.123-.324l.289-.842c1.366.468,3.776.484,6.067-1.022l.489.744c-1.62,1.064-3.307,1.444-4.722,1.444Z" fill="#000" stroke-width="0" data-sg-fill="sg-fill-0" />
  <path d="M73.583,18.37l-.857-.24c.579-2.075.184-4.326-.197-6.504l-.09-.518c-.405-2.354-.742-5.063.403-7.426l.802.388c-1.03,2.126-.709,4.669-.326,6.886l.09.517c.398,2.275.81,4.627.177,6.897h-.002Z" fill="#000" stroke-width="0" data-sg-fill="sg-fill-0" />
  <path d="M76.622,18.633l-.718-.527c.494-.673.61-1.514.622-2.102.015-.79-.137-1.602-.285-2.387l.875-.165c.157.83.317,1.689.301,2.57-.019,1.026-.294,1.93-.794,2.611h0Z" fill="#000" stroke-width="0" data-sg-fill="sg-fill-0" />
  <path d="M58.017,49.441c-.199,0-.398-.016-.595-.049l.146-.878c1.488.243,2.921-.792,3.771-1.846.571-.707,1.016-1.492,1.486-2.324.333-.59.677-1.199,1.07-1.775l.736.503c-.371.544-.707,1.137-1.031,1.711-.467.827-.95,1.682-1.569,2.446-1.144,1.417-2.607,2.213-4.015,2.213h0Z" fill="#000" stroke-width="0" data-sg-fill="sg-fill-0" />
  <path d="M59.42,46.962c-.09,0-.18-.01-.27-.031l.205-.866c.16.037.389-.079.651-.325.471-.44.859-.983,1.124-1.57l.812.365c-.312.694-.771,1.336-1.327,1.855-.408.381-.809.572-1.196.572h0Z" fill="#000" stroke-width="0" data-sg-fill="sg-fill-0" />
  <path d="M34.337,48.608c-1.805-.078-3.592-.722-5.032-1.814-.461-.35-.892-.748-1.309-1.132-.837-.771-1.626-1.499-2.616-1.844l.292-.842c1.164.405,2.061,1.232,2.927,2.031.402.37.817.753,1.244,1.077,1.296.984,2.904,1.564,4.531,1.633l-.038.89h0Z" fill="#000" stroke-width="0" data-sg-fill="sg-fill-0" />
  <path d="M31.811,45.887c-.796-.494-1.542-1.075-2.217-1.725l.617-.642c.63.608,1.327,1.15,2.069,1.611l-.47.757h0Z" fill="#000" stroke-width="0" data-sg-fill="sg-fill-0" />
  <path d="M50.179,68.444c-.068,0-.138-.004-.21-.016-.421-.064-.769-.344-.884-.714-.103-.328-.01-.633.082-.863.557-1.399,2.002-2.47,3.277-3.414l.968-.718.532.715-.97.718c-1.179.874-2.516,1.865-2.98,3.031-.053.131-.073.221-.058.266.007.021.061.083.169.099.106.016.237-.01.342-.032,1.024-.228,1.779-.974,1.65-1.631l.873-.172c.229,1.157-.794,2.331-2.329,2.672-.13.029-.289.058-.462.058h0Z" fill="#000" stroke-width="0" data-sg-fill="sg-fill-0" />
  <path d="M42.448,69.048c-.174,0-.333-.029-.463-.057-1.534-.342-2.556-1.516-2.327-2.673l.873.172c-.13.657.625,1.404,1.648,1.631.097.022.237.05.344.032.107-.017.161-.079.168-.1.014-.044-.005-.134-.058-.267-.464-1.163-1.801-2.154-2.98-3.029l-.969-.718.53-.715.969.718c1.274.944,2.718,2.016,3.277,3.414.092.231.183.537.082.863-.115.368-.462.648-.884.714-.072.01-.143.015-.21.015Z" fill="#000" stroke-width="0" data-sg-fill="sg-fill-0" />
  <path d="M46.33,61.832l-.854-.254c.542-1.819,1.157-3.881.901-5.859-.126-.977-.452-1.904-.797-2.884-.211-.603-.43-1.224-.598-1.858-.85-3.215-.356-6.694,1.357-9.546.326-.542.696-1.064,1.054-1.567.686-.966,1.334-1.879,1.699-2.932.214-.617.325-1.267.444-1.956.176-1.027.357-2.09.909-3.033.844-1.443,2.31-2.229,3.727-2.99,1.057-.568,2.151-1.156,2.931-2.003l.656.604c-.882.957-2.043,1.581-3.165,2.184-1.369.735-2.661,1.429-3.379,2.656-.47.804-.63,1.74-.8,2.733-.119.693-.242,1.411-.479,2.097-.407,1.173-1.123,2.181-1.815,3.156-.349.49-.709.997-1.017,1.511-1.567,2.607-2.037,5.919-1.26,8.859.158.599.371,1.205.577,1.791.345.981.703,1.996.841,3.065.279,2.165-.363,4.324-.93,6.227h-.002Z" fill="#000" stroke-width="0" data-sg-fill="sg-fill-0" />
  <path d="M48.097,71.341l-.817-.355c.214-.494.131-.773.081-.94l.854-.254c.067.226.225.757-.117,1.549h0Z" fill="#000" stroke-width="0" data-sg-fill="sg-fill-0" />
  <path d="M44.5,71.347c-.298-.502-.418-1.022-.337-1.464l.877.16c-.042.223.043.541.226.848l-.765.456h0Z" fill="#000" stroke-width="0" data-sg-fill="sg-fill-0" />
  <path d="M52.764,57.773c-.025-.069-.103-.278-.51-.402-.748-.225-1.878.044-2.07.183l-.64-.616c.36-.406,1.767-.663,2.687-.487.881.165,1.23.642,1.367,1.012l-.835.31h0Z" fill="#000" stroke-width="0" data-sg-fill="sg-fill-0" />
  <path d="M42.657,54.656c-.717-.64-1.894-.703-2.678-.143l-.518-.725c1.126-.804,2.754-.717,3.789.204l-.593.664Z" fill="#000" stroke-width="0" data-sg-fill="sg-fill-0" />
  <path d="M48.423,49.033l-.56-.692c1.091-.881,2.693-.994,3.896-.271l-.457.764c-.874-.524-2.085-.441-2.878.2h0Z" fill="#000" stroke-width="0" data-sg-fill="sg-fill-0" />
  <path d="M44.939,41.281l-.84-.297c.005-.029-.055-.157-.217-.272-.457-.327-1.108-.386-1.616-.143l-.381-.805c.804-.38,1.792-.294,2.516.225.482.346.692.853.537,1.292,0,0,0,0,.001,0Z" fill="#000" stroke-width="0" data-sg-fill="sg-fill-0" />
  <path d="M52.852,37.774c-.027-.111-.166-.229-.374-.314-.389-.159-.828-.138-.927-.075l-.596-.661c.37-.345,1.117-.326,1.65-.163.599.183,1.005.55,1.113,1.01l-.866.203Z" fill="#000" stroke-width="0" data-sg-fill="sg-fill-0" />
  <path d="M48.736,33.498l-.81-.37c.039-.084-.065-.268-.225-.341-.234-.107-.544-.083-.896-.044l-.099-.885c.466-.052.923-.083,1.365.119.263.12.49.337.623.596.157.303.173.641.043.926h-.001Z" fill="#000" stroke-width="0" data-sg-fill="sg-fill-0" />
  <path d="M61.92,27.038l-.88-.132c.069-.46-.225-.977-.656-1.153l.336-.824c.815.332,1.331,1.239,1.2,2.11h0Z" fill="#000" stroke-width="0" data-sg-fill="sg-fill-0" />
  <path d="M69.401,24.761l-.863-.219c.03-.117.003-.253-.072-.375s-.186-.205-.303-.23l.188-.871c.352.077.67.307.872.633.203.326.267.714.178,1.063h0Z" fill="#000" stroke-width="0" data-sg-fill="sg-fill-0" />
  <path d="M45.013,25.782c-1.994,0-4.81-.389-7.022-2.216-2.128-1.756-3.092-4.617-2.344-6.957.269-.837.756-1.659,1.449-2.444,1.505-1.704,4.218-3.076,6.627-2.051,1.146.486,2.052,1.568,2.422,2.895.37,1.325.157,2.719-.572,3.729-.654.906-1.65,1.502-2.664,1.593-1.145.108-2.284-.456-2.824-1.395-.588-1.024-.347-2.424.536-3.124.467-.369,1.121-.519,1.744-.403.593.11,1.094.446,1.374.922l-.767.452c-.15-.253-.43-.435-.77-.498-.382-.071-.763.015-1.029.226-.543.429-.687,1.336-.317,1.981.363.632,1.176,1.026,1.972.951.761-.069,1.517-.528,2.022-1.228.571-.791.735-1.901.437-2.968-.298-1.068-1.013-1.933-1.912-2.315-2.003-.847-4.312.35-5.612,1.822-.611.692-1.038,1.408-1.268,2.126-.64,2.002.208,4.469,2.063,5.999,2.03,1.677,4.674,2.01,6.513,2.012,4.537-.017,7.733-1.728,9.501-5.083l.788.416c-1.906,3.617-5.463,5.539-10.286,5.558,0,0-.061,0-.061,0Z" fill="#000" stroke-width="0" data-sg-fill="sg-fill-0" />
  <path d="M37.81,31.776c-1.567,0-3.012-.44-4.066-1.368-.945-.83-1.326-2.193-.97-3.471.3-1.076,1.075-1.825,2.073-2.005.696-.122,1.358.038,1.874.456.688.591.932,1.415.664,2.213-.22.656-.756,1.12-1.332,1.156-.337.026-.964-.083-1.416-1.024l.802-.386c.165.343.374.558.558.521.212-.013.441-.245.544-.551.07-.212.176-.758-.391-1.245-.39-.315-.839-.317-1.146-.263-.664.119-1.164.617-1.372,1.368-.217.778-.084,1.873.7,2.564,2.409,2.118,7.447,1.17,10.368-1.951l.65.609c-2.044,2.183-4.958,3.378-7.54,3.378h0Z" fill="#000" stroke-width="0" data-sg-fill="sg-fill-0" />
  <path d="M89.419,100.256c-.526,0-1.02-.17-1.423-.497-.688-.591-.933-1.415-.665-2.212.22-.656.756-1.121,1.333-1.157.337-.022.964.084,1.416,1.024l-.802.386c-.165-.343-.382-.546-.558-.521-.213.013-.442.245-.544.551-.071.212-.176.758.391,1.245.39.316.839.317,1.146.263.663-.119,1.164-.618,1.372-1.368.217-.778.084-1.873-.7-2.564-2.408-2.117-7.446-1.17-10.368,1.951l-.65-.609c3.284-3.506,8.816-4.468,11.607-2.011.945.83,1.326,2.193.97,3.471-.3,1.076-1.075,1.825-2.073,2.005-.152.027-.303.041-.451.041v.002h-.001Z" fill="#000" stroke-width="0" data-sg-fill="sg-fill-0" />
  <path d="M34.001,38.154c-.88,0-1.664-.311-2.29-.914-.314-.39-1.145-1.441-.378-2.676.484-.78,1.559-1.269,2.441-1.104.672.133,1.184.769,1.171,1.45-.009.537-.364,1.165-1.332,1.321l-.143-.878c.264-.043.58-.157.585-.458.003-.226-.175-.505-.447-.559-.525-.095-1.224.223-1.519.699-.31.5-.23.966.279,1.609.516.49,1.215.707,2.048.591,1.692-.229,3.399-1.691,4.145-2.95l.765.454c-.874,1.475-2.8,3.109-4.791,3.378-.182.024-.361.037-.536.037,0,0,.002,0,.002,0Z" fill="#000" stroke-width="0" data-sg-fill="sg-fill-0" />
  <path d="M26.515,38.554l-.857-.238c1.817-6.553,4.364-12.529,7.57-17.761l.76.466c-3.164,5.16-5.678,11.06-7.473,17.533Z" fill="#000" stroke-width="0" data-sg-fill="sg-fill-0" />
  <path d="M30.068,97.011c-4.911-10.333-7.506-22.54-7.506-35.305,0-4.305.3-8.602.892-12.772l.882.125c-.586,4.128-.884,8.383-.884,12.647,0,12.634,2.565,24.709,7.42,34.923l-.804.383h0Z" fill="#000" stroke-width="0" data-sg-fill="sg-fill-0" />
  <path d="M45.162,116.229c-2.892-2.122-5.616-4.774-8.096-7.883l.696-.555c2.431,3.047,5.099,5.645,7.927,7.72,0,0-.527.718-.527.718Z" fill="#000" stroke-width="0" data-sg-fill="sg-fill-0" />
  <path d="M62.691,122.289c-2.289,0-4.585-.293-6.823-.87l.223-.863c2.165.558,4.386.842,6.6.842,6.378,0,12.71-2.385,18.314-6.898l.558.694c-5.764,4.641-12.289,7.094-18.872,7.094h0Z" fill="#000" stroke-width="0" data-sg-fill="sg-fill-0" />
  <path d="M91.126,104.471l-.743-.49c3.431-5.201,6.171-11.233,8.141-17.928l.854.252c-1.996,6.779-4.772,12.891-8.253,18.166h0Z" fill="#000" stroke-width="0" data-sg-fill="sg-fill-0" />
  <path d="M101.547,76.911l-.878-.15c.837-4.89,1.261-9.955,1.261-15.056,0-12.371-2.468-24.24-7.139-34.322l.809-.374c4.724,10.199,7.22,22.196,7.22,34.696,0,5.151-.429,10.267-1.273,15.206Z" fill="#000" stroke-width="0" data-sg-fill="sg-fill-0" />
  <path d="M88.095,16.224c-2.97-3.842-6.281-6.98-9.843-9.327l.49-.744c3.644,2.402,7.027,5.606,10.057,9.527,0,0-.704.544-.704.544Z" fill="#000" stroke-width="0" data-sg-fill="sg-fill-0" />
  <path d="M43.599,9.552l-.577-.678c5.969-5.072,12.771-7.753,19.67-7.753,2.058,0,4.125.237,6.144.704l-.202.868c-1.951-.452-3.951-.682-5.942-.682-6.685,0-13.287,2.608-19.092,7.541h0Z" fill="#000" stroke-width="0" data-sg-fill="sg-fill-0" />
  <path d="M33.879,95.452c-4.678-9.809-7.15-21.479-7.15-33.747,0-3.151.167-6.307.497-9.384l.885.096c-.326,3.045-.491,6.169-.491,9.288,0,12.136,2.443,23.673,7.063,33.364l-.804.383Z" fill="#000" stroke-width="0" data-sg-fill="sg-fill-0" />
  <path d="M42.488,108.374c-.483-.515-.956-1.049-1.421-1.599l.68-.574c.455.538.919,1.06,1.391,1.564,0,0-.65.609-.65.609Z" fill="#000" stroke-width="0" data-sg-fill="sg-fill-0" />
  <path d="M62.691,118.122c-2.09,0-4.184-.283-6.224-.844l.237-.859c1.963.539,3.978.812,5.987.812,4.955,0,9.749-1.616,14.25-4.803l.515.727c-4.654,3.295-9.622,4.966-14.765,4.966h0Z" fill="#000" stroke-width="0" data-sg-fill="sg-fill-0" />
  <path d="M97.889,73.31l-.883-.118c.501-3.759.756-7.624.756-11.487,0-11.819-2.329-23.112-6.734-32.662l.809-.372c4.459,9.664,6.816,21.087,6.816,33.034,0,3.902-.257,7.806-.764,11.605Z" fill="#000" stroke-width="0" data-sg-fill="sg-fill-0" />
  <path d="M84.063,17.726c-.901-1.1-1.845-2.142-2.808-3.098l.628-.631c.984.977,1.949,2.041,2.869,3.165l-.689.564Z" fill="#000" stroke-width="0" data-sg-fill="sg-fill-0" />
  <path d="M47.576,11.616l-.539-.71c4.902-3.728,10.168-5.619,15.654-5.619,1.843,0,3.695.222,5.506.658l-.209.866c-1.742-.421-3.525-.634-5.297-.634-5.285,0-10.371,1.83-15.115,5.438h0Z" fill="#000" stroke-width="0" data-sg-fill="sg-fill-0" />
</g></svg>