<svg xmlns="http://www.w3.org/2000/svg" id="Layer_1" data-name="Layer 1" version="1.1" viewBox="0.0 0.0 100.0 100.0">
  <g transform="scale(0.8)"><path d="M62.144,28.518c-.326,0-.597-.222-.66-.546-.318-1.576-.869-3.082-1.639-4.476-.843-1.528-1.933-2.897-3.239-4.069-.143-.129-.224-.31-.224-.497s.081-.369.222-.497c1.234-1.125,2.289-2.423,3.135-3.858.749-1.267,1.328-2.631,1.721-4.054.085-.31.324-.517.69-.496.32.018.58.255.629.574h0c.166,1.065,1.244,3.08,1.928,4.175.679,1.085,1.963,2.732,3.004,3.646.162.142.254.342.249.548-.004.195-.095.378-.25.502-1.363,1.091-2.483,2.409-3.332,3.919-.79,1.407-1.318,2.939-1.566,4.555-.052.332-.32.568-.653.575h-.015,0ZM62.384,27.791h0ZM57.421,18.928c1.293,1.199,2.377,2.585,3.227,4.124.633,1.145,1.127,2.363,1.473,3.631.309-1.315.797-2.571,1.457-3.745.859-1.529,1.98-2.874,3.334-4.002-1.076-1-2.294-2.572-2.984-3.675-.536-.859-1.406-2.417-1.833-3.666-.397,1.203-.921,2.358-1.565,3.448-.848,1.436-1.893,2.742-3.109,3.886h0ZM57.223,19.112h0ZM67.106,19.111h0ZM61.871,10.739h0Z" fill="#000" stroke-width="0" data-sg-fill="sg-fill-0" />
  <path d="M49.437,29.219c-.142,0-.282-.06-.397-.173-.914-.899-1.847-1.563-2.772-1.973-.836-.371-1.641-.517-2.381-.439-.251.026-.495-.129-.615-.398-.122-.278-.074-.569.121-.743.564-.504,1.032-1.182,1.388-2.015.401-.934.655-2.041.755-3.291.019-.223.144-.4.333-.475.188-.076.402-.035.567.111.893.793,1.798,1.409,2.692,1.832.777.368,1.539.586,2.263.649.252.022.467.218.55.5.077.265.006.52-.186.667h0c-.278.214-.789,1.187-1.14,2.17-.26.73-.575,2.043-.646,3.038-.016.239-.147.429-.351.506-.06.023-.122.034-.183.034,0,0,.002,0,.002,0ZM49.054,28.615v.002-.002ZM49.685,28.392h0ZM44.48,25.699c.698.028,1.422.207,2.16.534.839.372,1.677.924,2.497,1.647.136-.924.389-1.915.615-2.548.06-.17.519-1.427,1.064-2.176-.678-.113-1.376-.337-2.079-.67-.788-.373-1.579-.879-2.358-1.509-.139,1.061-.391,2.022-.751,2.863-.309.719-.693,1.342-1.147,1.86h-.001ZM44.008,26.177s-.002,0-.003.002c0,0,.002,0,.003-.002ZM51.197,22.743h0Z" fill="#000" stroke-width="0" data-sg-fill="sg-fill-0" />
  <path d="M74.629,29.038c-.06,0-.121-.011-.181-.033-.203-.076-.334-.265-.353-.505-.07-.994-.385-2.308-.646-3.04-.352-.983-.862-1.956-1.139-2.169h0c-.192-.148-.263-.404-.186-.668.082-.281.297-.477.549-.5.726-.063,1.487-.282,2.264-.649.897-.424,1.802-1.04,2.69-1.83.168-.148.38-.189.571-.113.19.077.314.255.331.476.1,1.247.354,2.354.755,3.289.356.833.824,1.511,1.39,2.016.196.176.241.468.118.745-.119.267-.365.421-.614.396-.739-.078-1.545.069-2.381.439-.925.41-1.858,1.074-2.773,1.974-.114.113-.254.172-.396.172h0ZM74.38,28.211h0ZM73.25,22.974c.545.749,1.004,2.006,1.064,2.176.227.635.48,1.626.615,2.548.821-.723,1.658-1.275,2.497-1.647.738-.327,1.462-.506,2.16-.535-.455-.518-.84-1.141-1.147-1.86-.36-.841-.612-1.801-.75-2.862-.778.628-1.568,1.134-2.358,1.508-.703.332-1.401.557-2.08.67v.002h0ZM77.614,20.079h0Z" fill="#000" stroke-width="0" data-sg-fill="sg-fill-0" />
  <path d="M35.834,87.927c-1.395,0-2.858-.268-4.36-.81-6.945-2.503-12.899-10.112-13.555-17.323-.946-10.401,1.674-20.048,7.189-26.467,4.399-5.12,10.524-8.056,17.714-8.492,3.139-.055,8.357-.147,12.086,3.514l-.644.656c-3.188-3.13-7.389-3.325-11.406-3.252-6.917.42-12.821,3.246-17.053,8.173-5.355,6.232-7.895,15.631-6.971,25.786.626,6.883,6.316,14.149,12.952,16.542,4.018,1.449,7.721.782,10.446-1.873-.312,0-.896.068-1.426.138-2.465.324-7.058.929-11.116-2.209l.562-.727c3.755,2.903,7.936,2.354,10.435,2.025,1.329-.177,2.062-.272,2.409.205.183.251.18.579-.007.975l-.09.127c-1.984,1.994-4.444,3.012-7.163,3.012,0,0-.002,0-.002,0Z" fill="#000" stroke-width="0" data-sg-fill="sg-fill-0" />
  <path d="M27.644,80.127c-6.364-8.502-4.932-19.197-.691-26.025,4.266-6.866,11.242-10.328,18.182-9.038l-.167.903c-6.57-1.22-13.173,2.083-17.234,8.62-4.077,6.562-5.459,16.834.646,24.989l-.736.551Z" fill="#000" stroke-width="0" data-sg-fill="sg-fill-0" />
  <path d="M54.565,78.034c-.041-1.796.095-3.605.405-5.378l.904.158c-.299,1.713-.43,3.463-.39,5.199l-.919.022h0Z" fill="#000" stroke-width="0" data-sg-fill="sg-fill-0" />
  <path d="M60.374,90.788c-.445-.313-.89-.629-1.333-.945-1.643-1.172-3.072-2.274-3.889-3.902-.979-1.948-.817-4.262-.688-6.122l.917.065c-.128,1.838-.274,3.922.591,5.645.724,1.44,2.06,2.467,3.603,3.566.442.316.885.63,1.329.943l-.529.75h0Z" fill="#000" stroke-width="0" data-sg-fill="sg-fill-0" />
  <path d="M53.367,78.254l-.894-.212c.427-1.803-.039-3.812-1.215-5.243-.273-.331-.578-.632-.902-.951-.195-.191-.389-.383-.576-.582-2.015-2.133-3.164-5.04-3.154-7.974,0-.406-.081-.496-.082-.497l.255-.878c.497.134.747.597.745,1.378-.01,2.702,1.049,5.377,2.903,7.341.18.191.367.375.554.559.326.321.663.653.965,1.022,1.356,1.648,1.892,3.962,1.399,6.038h.002Z" fill="#000" stroke-width="0" data-sg-fill="sg-fill-0" />
  <path d="M38.613,64.852h-.069c-2.504-.024-4.444-1.021-5.464-2.809-.24-.422-.36-.832-.475-1.228-.197-.678-.368-1.263-1.136-1.846-.365-.276-1.461-1.299-1.925-2.024-.217-.34-.246-.758-.076-1.118.169-.358.506-.601.902-.649,1.55-.187,3.854-.584,6.03-1.41,2.357-.893,4.972-.806,6.998.229,2.262,1.155,3.757,3.52,3.723,5.885l-.919-.013c.03-2.023-1.266-4.054-3.222-5.053-1.799-.919-4.138-.991-6.255-.188-2.263.858-4.645,1.269-6.245,1.463-.112.013-.162.086-.182.128-.017.035-.048.128.018.232.377.589,1.382,1.542,1.706,1.787,1.011.767,1.251,1.593,1.463,2.322.105.361.204.702.391,1.03,1.09,1.912,3.144,2.331,4.675,2.345h.06c1.827,0,3.734-.757,5.379-2.135l.59.704c-1.81,1.517-3.928,2.349-5.969,2.349h.002,0Z" fill="#000" stroke-width="0" data-sg-fill="sg-fill-0" />
  <path d="M43.887,59.804c-.013-1.009-.828-1.854-1.629-2.243-1.007-.489-2.209-.52-3.134-.488-.465.014-.959.046-1.417.176-.195.055-.389.128-.585.201-.602.224-1.286.477-1.998.268l.257-.882c.425.125.909-.057,1.422-.248.218-.081.436-.161.653-.222.554-.157,1.116-.194,1.64-.21,1.031-.036,2.376.003,3.564.58,1.287.625,2.13,1.825,2.146,3.056l-.919.013h0Z" fill="#000" stroke-width="0" data-sg-fill="sg-fill-0" />
  <path d="M41.987,60.584c-.256-.524-.925-.783-1.442-.907-.682-.164-1.382-.211-2.083-.138l-.095-.913c.802-.085,1.609-.032,2.393.158,1.016.245,1.726.728,2.052,1.398,0,0-.825.402-.825.402Z" fill="#000" stroke-width="0" data-sg-fill="sg-fill-0" />
  <path d="M51.617,62.879c-1.145-.049-2.254-.658-2.826-1.552-.588-.918-.604-2.112-.041-3.043l.063-.105.16-.118c.114-.061.396-.164.725.122.395.341.99.462,1.622.591.455.093.926.189,1.365.375,1.036.44,1.784,1.388,1.905,2.416l-.911.108c-.083-.706-.615-1.364-1.353-1.678-.355-.151-.761-.234-1.19-.321-.606-.124-1.23-.251-1.757-.587-.211.571-.147,1.223.186,1.744.416.65,1.237,1.093,2.092,1.129l-.039.918h0Z" fill="#000" stroke-width="0" data-sg-fill="sg-fill-0" />
  <path d="M46.463,54.555l-.73-.557c.161-.21.271-.474.388-.753.534-1.275,1.199-2.861.956-4.348-.009-.061.055.002.148.011l.086-.915c.35.033.601.316.673.758.285,1.745-.437,3.467-1.016,4.85-.128.305-.274.651-.505.955h0Z" fill="#000" stroke-width="0" data-sg-fill="sg-fill-0" />
  <path d="M38.439,100.269l-.782-.481c2.564-4.177,5.216-8.496,7.19-13.05,2.201-5.076,3.283-9.891,3.215-14.314l.919-.014c.069,4.555-1.038,9.498-3.291,14.695-2.001,4.614-4.669,8.961-7.251,13.165h0Z" fill="#000" stroke-width="0" data-sg-fill="sg-fill-0" />
  <path d="M46.123,43.946c-.037-2.45,1.153-4.893,3.105-6.374l.554.732c-1.723,1.308-2.774,3.464-2.741,5.628l-.919.014h0Z" fill="#000" stroke-width="0" data-sg-fill="sg-fill-0" />
  <path d="M42.408,42.517c-.138-1.853.308-3.755,1.256-5.354l.789.468c-.852,1.439-1.253,3.15-1.129,4.818l-.917.068h0Z" fill="#000" stroke-width="0" data-sg-fill="sg-fill-0" />
  <path d="M38.838,43.127c-.397-1.561-.54-3.166-.424-4.769l.917.066c-.109,1.505.025,3.011.397,4.477,0,0-.89.226-.89.226Z" fill="#000" stroke-width="0" data-sg-fill="sg-fill-0" />
  <path d="M34.56,43.71c-.517-1.493-.645-3.105-.372-4.663l.904.159c-.246,1.404-.129,2.857.336,4.203,0,0-.868.301-.868.301Z" fill="#000" stroke-width="0" data-sg-fill="sg-fill-0" />
  <path d="M31.805,45.363c-.829-1.116-1.274-2.497-1.253-3.888l.919.013c-.017,1.19.363,2.371,1.072,3.327l-.737.547h0Z" fill="#000" stroke-width="0" data-sg-fill="sg-fill-0" />
  <path d="M28.697,47.85l-.768-.946c-.593-.73-1.222-1.692-.824-2.669l.85.346c-.216.531.253,1.211.685,1.744l.77.948-.714.578h0Z" fill="#000" stroke-width="0" data-sg-fill="sg-fill-0" />
  <path d="M26.389,50.699c-1.127-.558-1.938-1.726-2.066-2.977l.913-.094c.097.944.71,1.827,1.56,2.247l-.407.824Z" fill="#000" stroke-width="0" data-sg-fill="sg-fill-0" />
  <path d="M24.982,53.396c-.969-.118-1.862-.679-2.39-1.501l.773-.496c.376.585,1.037,1.001,1.728,1.085,0,0-.111.912-.111.912Z" fill="#000" stroke-width="0" data-sg-fill="sg-fill-0" />
  <path d="M23.66,56.397c-.927-.027-1.818-.434-2.445-1.118l.678-.621c.453.495,1.123.802,1.793.82l-.027.919h.001Z" fill="#000" stroke-width="0" data-sg-fill="sg-fill-0" />
  <path d="M22.365,59.521c-.763-.053-1.514-.286-2.175-.673l.465-.793c.539.316,1.153.506,1.775.55l-.065.916Z" fill="#000" stroke-width="0" data-sg-fill="sg-fill-0" />
  <path d="M21.721,63.024c-.576,0-1.148-.077-1.704-.231l.244-.885c.516.142,1.047.206,1.583.196l.022.919h-.145,0Z" fill="#000" stroke-width="0" data-sg-fill="sg-fill-0" />
  <path d="M20.81,66.188c-.371,0-.742-.057-1.098-.17l.278-.876c.445.141.921.166,1.381.068l.19.899c-.248.052-.499.078-.751.078h0Z" fill="#000" stroke-width="0" data-sg-fill="sg-fill-0" />
  <path d="M20.436,69.935c-.087,0-.174-.005-.261-.016l.115-.911c.297.039.612-.04.858-.214l.529.752c-.36.253-.8.389-1.241.389Z" fill="#000" stroke-width="0" data-sg-fill="sg-fill-0" />
  <path d="M21.441,73.452l-.041-.917c.257-.012.512-.135.683-.327l.689.608c-.338.382-.823.614-1.33.636h0Z" fill="#000" stroke-width="0" data-sg-fill="sg-fill-0" />
  <rect x="62.041" y="47.945" width=".919" height="3.753" fill="#000" stroke-width="0" data-sg-fill="sg-fill-0" />
  <rect x="62.041" y="42.483" width=".919" height="2.766" fill="#000" stroke-width="0" data-sg-fill="sg-fill-0" />
  <rect x="57.933" y="45.039" width=".919" height="3.959" transform="translate(-9.105 14.392) rotate(-13.044)" fill="#000" stroke-width="0" data-sg-fill="sg-fill-0" />
  <rect x="56.651" y="51.141" width=".918" height="3.357" transform="translate(-18.699 35.37) rotate(-29.802)" fill="#000" stroke-width="0" data-sg-fill="sg-fill-0" />
  <rect x="51.819" y="47.691" width=".918" height="2.845" transform="translate(-18.684 38.648) rotate(-34.823)" fill="#000" stroke-width="0" data-sg-fill="sg-fill-0" />
  <rect x="54.558" y="55.681" width=".919" height="2.92" transform="translate(-22.903 71.986) rotate(-56.871)" fill="#000" stroke-width="0" data-sg-fill="sg-fill-0" />
  <rect x="49.846" y="52.149" width=".919" height="2.429" transform="translate(-22.697 46.372) rotate(-41.219)" fill="#000" stroke-width="0" data-sg-fill="sg-fill-0" />
  <rect x="51.851" y="64.472" width=".918" height="3.646" transform="translate(-30.574 82.469) rotate(-62.767)" fill="#000" stroke-width="0" data-sg-fill="sg-fill-0" />
  <rect x="62.041" y="97.851" width=".919" height="5.47" fill="#000" stroke-width="0" data-sg-fill="sg-fill-0" />
  <rect x="62.041" y="108.79" width=".919" height="4.582" fill="#000" stroke-width="0" data-sg-fill="sg-fill-0" />
  <rect x="54.473" y="96.911" width="6.557" height=".918" transform="translate(-49.025 134.986) rotate(-78.734)" fill="#000" stroke-width="0" data-sg-fill="sg-fill-0" />
  <rect x="54.859" y="108.7" width="5.573" height=".919" transform="translate(-60.523 144.866) rotate(-78.975)" fill="#000" stroke-width="0" data-sg-fill="sg-fill-0" />
  <rect x="48.395" y="104.264" width="5.825" height=".919" transform="translate(-64.67 116.921) rotate(-69.902)" fill="#000" stroke-width="0" data-sg-fill="sg-fill-0" />
  <rect x="50.506" y="92.49" width="5.401" height=".919" transform="translate(-52.366 110.976) rotate(-69.902)" fill="#000" stroke-width="0" data-sg-fill="sg-fill-0" />
  <rect x="47.489" y="83.569" width="5.571" height=".918" transform="translate(-46.415 99.5) rotate(-68.199)" fill="#000" stroke-width="0" data-sg-fill="sg-fill-0" />
  <rect x="44.578" y="94.268" width="5.716" height=".918" transform="translate(-58.221 102.477) rotate(-67.595)" fill="#000" stroke-width="0" data-sg-fill="sg-fill-0" />
  <rect x="43.181" y="103.304" width="4.333" height=".918" transform="translate(-67.635 96.141) rotate(-62.534)" fill="#000" stroke-width="0" data-sg-fill="sg-fill-0" />
  <path d="M54.092,64.801c-.168-.754-.256-1.527-.261-2.297l.919-.006c.004.651.074,1.305.205,1.946h.007l.03.17-.9.188h0Z" fill="#000" stroke-width="0" data-sg-fill="sg-fill-0" />
  <path d="M47.904,47.153c-.554,0-1.11-.058-1.653-.176l.194-.898c2.002.434,4.168-.054,5.793-1.307,1.457-1.124,2.462-2.897,2.689-4.742.033-.272.177-.519.394-.678.216-.159.481-.22.751-.166,1.084.209,5.245.31,6.415.271,1.199.038,5.36-.062,6.444-.271.269-.049.535.008.752.166s.361.405.394.678c.226,1.844,1.231,3.617,2.689,4.741,1.623,1.251,3.785,1.742,5.792,1.307l.194.898c-2.263.489-4.712-.062-6.547-1.477-1.672-1.291-2.78-3.243-3.038-5.357-1.265.178-5.471.272-6.678.233-1.173.043-5.382-.055-6.588-.287-.32,2.168-1.427,4.121-3.099,5.411-1.394,1.076-3.143,1.652-4.895,1.653h-.003Z" fill="#000" stroke-width="0" data-sg-fill="sg-fill-0" />
  <path d="M89.167,87.927c-2.72,0-5.18-1.018-7.164-3.012l-.09-.127c-.187-.397-.19-.724-.007-.975.346-.476,1.08-.382,2.409-.205,2.498.328,6.678.878,10.436-2.025l.562.727c-4.06,3.139-8.653,2.533-11.117,2.209-.53-.07-1.129-.139-1.426-.138,2.725,2.656,6.429,3.321,10.448,1.873,6.636-2.393,12.324-9.659,12.95-16.542.925-10.155-1.616-19.554-6.97-25.786-4.233-4.927-10.136-7.754-17.074-8.174-4.001-.07-8.199.124-11.386,3.253l-.644-.656c3.731-3.661,8.954-3.57,12.066-3.515,7.211.437,13.336,3.374,17.734,8.493,5.515,6.42,8.135,16.067,7.189,26.467-.656,7.21-6.609,14.819-13.553,17.323-1.502.542-2.966.81-4.361.81,0,0-.002,0-.002,0Z" fill="#000" stroke-width="0" data-sg-fill="sg-fill-0" />
  <path d="M97.356,80.127l-.736-.551c6.105-8.155,4.724-18.427.647-24.989-4.06-6.537-10.66-9.839-17.234-8.62l-.167-.903c6.948-1.289,13.917,2.173,18.182,9.038,4.242,6.828,5.672,17.523-.692,26.025Z" fill="#000" stroke-width="0" data-sg-fill="sg-fill-0" />
  <path d="M55.915,71.334l-.761-.513c2.089-3.097,3.274-6.86,3.335-10.596l.004-.605c.003-1.054.005-2.143.407-3.169.484-1.234,2.132-2.398,3.599-2.114,1.469-.279,3.117.881,3.6,2.114.403,1.027.405,2.119.406,3.174l.004.6c.062,3.736,1.246,7.499,3.335,10.596l-.761.513c-2.187-3.242-3.428-7.182-3.492-11.094l-.004-.614c-.002-1.015-.004-1.973-.344-2.84-.378-.966-1.738-1.753-2.635-1.533l-.109.026-.109-.026c-.894-.22-2.255.567-2.634,1.533-.34.865-.342,1.822-.344,2.836l-.004.618c-.064,3.911-1.304,7.851-3.492,11.094h0Z" fill="#000" stroke-width="0" data-sg-fill="sg-fill-0" />
  <path d="M62.188,87.158c-.196-.182-.798-.539-1.28-.825-.458-.272-.853-.506-1.071-.677-1.764-1.382-2.542-3.846-1.891-5.99l.879.267c-.534,1.761.13,3.864,1.579,5,.171.135.579.376.972.61.601.357,1.168.693,1.436.943l-.624.673h0Z" fill="#000" stroke-width="0" data-sg-fill="sg-fill-0" />
  <path d="M62.812,87.158l-.624-.673c.268-.249.835-.586,1.436-.943.395-.233.802-.475.973-.61,1.448-1.136,2.112-3.239,1.579-5l.879-.266c.649,2.144-.128,4.607-1.891,5.989-.218.171-.614.405-1.071.677-.484.286-1.085.643-1.281.825h0Z" fill="#000" stroke-width="0" data-sg-fill="sg-fill-0" />
  <path d="M70.435,78.034l-.919-.022c.04-1.734-.091-3.483-.389-5.199l.904-.158c.31,1.774.445,3.584.404,5.378h0Z" fill="#000" stroke-width="0" data-sg-fill="sg-fill-0" />
  <path d="M64.626,90.789l-.529-.752c.445-.312.887-.627,1.33-.942,1.543-1.099,2.879-2.126,3.603-3.566.865-1.722.719-3.806.591-5.645l.917-.065c.129,1.86.291,4.174-.688,6.122-.817,1.627-2.245,2.73-3.89,3.902-.444.317-.888.632-1.333.946h0Z" fill="#000" stroke-width="0" data-sg-fill="sg-fill-0" />
  <path d="M71.633,78.254c-.492-2.075.044-4.389,1.399-6.038.305-.37.642-.702.969-1.024.187-.183.372-.366.552-.556,1.853-1.964,2.912-4.639,2.903-7.341-.002-.781.249-1.244.745-1.378l.239.887h0c.007,0-.067.098-.066.488.009,2.934-1.14,5.841-3.154,7.974-.187.198-.38.389-.574.58-.324.319-.631.621-.904.954-1.176,1.431-1.642,3.44-1.215,5.242l-.894.212h0Z" fill="#000" stroke-width="0" data-sg-fill="sg-fill-0" />
  <path d="M86.387,64.852c-2.041,0-4.158-.832-5.968-2.349l.59-.704c1.663,1.393,3.629,2.145,5.438,2.134,1.531-.014,3.586-.433,4.676-2.345.187-.328.286-.669.391-1.029.212-.729.451-1.555,1.463-2.322.325-.246,1.331-1.201,1.706-1.787.065-.103.035-.196.018-.231-.02-.042-.07-.115-.183-.129-1.599-.194-3.98-.605-6.245-1.463-2.118-.803-4.455-.732-6.255.188-1.957.999-3.251,3.03-3.222,5.053l-.919.013c-.034-2.365,1.461-4.73,3.722-5.885,2.027-1.035,4.645-1.121,6.997-.23,2.179.826,4.482,1.223,6.031,1.41.397.048.734.291.902.65.17.361.142.778-.075,1.118-.462.722-1.558,1.746-1.925,2.024-.769.583-.938,1.168-1.136,1.846-.115.397-.234.806-.475,1.228-1.02,1.788-2.96,2.785-5.465,2.809h-.069.003Z" fill="#000" stroke-width="0" data-sg-fill="sg-fill-0" />
  <path d="M81.114,59.804l-.919-.013c.016-1.232.859-2.432,2.146-3.056,1.189-.577,2.533-.614,3.564-.58.524.016,1.085.053,1.64.21.217.062.435.142.653.222.513.191.996.371,1.422.248l.257.882c-.711.209-1.396-.044-1.998-.268-.196-.073-.39-.145-.585-.201-.458-.13-.953-.161-1.417-.176-.926-.031-2.127,0-3.134.488-.801.389-1.616,1.234-1.629,2.243h0Z" fill="#000" stroke-width="0" data-sg-fill="sg-fill-0" />
  <path d="M83.013,60.585l-.825-.404c.327-.669,1.036-1.152,2.052-1.397.785-.19,1.59-.243,2.394-.158l-.095.913c-.702-.073-1.401-.026-2.084.138-.516.125-1.185.384-1.442.908Z" fill="#000" stroke-width="0" data-sg-fill="sg-fill-0" />
  <path d="M73.383,62.879l-.039-.918c.855-.037,1.676-.48,2.092-1.129.334-.523.397-1.176.187-1.745-.53.337-1.152.464-1.757.588-.43.087-.835.17-1.19.321-.738.314-1.269.972-1.354,1.678l-.911-.109c.122-1.028.87-1.976,1.906-2.415.44-.187.911-.283,1.365-.375.631-.129,1.227-.25,1.622-.592.332-.283.612-.18.719-.124l.11.06.118.167c.562.929.545,2.123-.042,3.042-.571.894-1.681,1.503-2.826,1.552h0Z" fill="#000" stroke-width="0" data-sg-fill="sg-fill-0" />
  <path d="M78.536,54.555c-.231-.304-.375-.649-.503-.954-.58-1.383-1.302-3.104-1.016-4.852.073-.441.325-.724.673-.756l.086.915c.094-.009.156-.068.17-.093-.266,1.569.4,3.156.934,4.431.118.279.228.543.388.753,0,0-.732.556-.732.556Z" fill="#000" stroke-width="0" data-sg-fill="sg-fill-0" />
  <path d="M86.561,100.269c-2.58-4.202-5.247-8.547-7.25-13.165-2.253-5.197-3.36-10.14-3.291-14.695l.919.014c-.067,4.423,1.014,9.238,3.215,14.314,1.976,4.559,4.626,8.876,7.189,13.05l-.782.481h0Z" fill="#000" stroke-width="0" data-sg-fill="sg-fill-0" />
  <path d="M78.877,43.946l-.919-.014c.033-2.164-1.017-4.32-2.74-5.628l.554-.732c1.952,1.481,3.141,3.923,3.104,6.374h0Z" fill="#000" stroke-width="0" data-sg-fill="sg-fill-0" />
  <path d="M82.593,42.517l-.917-.068c.125-1.669-.277-3.38-1.129-4.818l.789-.468c.947,1.598,1.393,3.5,1.256,5.354h0Z" fill="#000" stroke-width="0" data-sg-fill="sg-fill-0" />
  <path d="M86.163,43.127l-.89-.226c.372-1.463.506-2.97.397-4.477l.917-.065c.115,1.606-.028,3.21-.424,4.769h0Z" fill="#000" stroke-width="0" data-sg-fill="sg-fill-0" />
  <path d="M90.441,43.71l-.868-.301c.466-1.347.582-2.8.336-4.203l.904-.159c.274,1.556.145,3.169-.371,4.663h0Z" fill="#000" stroke-width="0" data-sg-fill="sg-fill-0" />
  <path d="M93.196,45.363l-.737-.547c.709-.955,1.089-2.137,1.072-3.327l.919-.013c.021,1.391-.424,2.771-1.253,3.888h0Z" fill="#000" stroke-width="0" data-sg-fill="sg-fill-0" />
  <path d="M96.302,47.851l-.712-.58.77-.947c.432-.532.902-1.212.684-1.743l.85-.347c.399.977-.23,1.94-.823,2.67l-.77.947h0Z" fill="#000" stroke-width="0" data-sg-fill="sg-fill-0" />
  <path d="M98.612,50.699l-.407-.824c.85-.421,1.462-1.303,1.56-2.247l.913.094c-.129,1.251-.94,2.419-2.066,2.977Z" fill="#000" stroke-width="0" data-sg-fill="sg-fill-0" />
  <path d="M100.019,53.396l-.111-.912c.691-.083,1.352-.499,1.727-1.084l.773.495c-.527.822-1.419,1.383-2.389,1.501Z" fill="#000" stroke-width="0" data-sg-fill="sg-fill-0" />
  <path d="M101.341,56.397l-.027-.919c.67-.019,1.34-.326,1.793-.82l.678.621c-.627.684-1.518,1.091-2.445,1.118h0Z" fill="#000" stroke-width="0" data-sg-fill="sg-fill-0" />
  <path d="M102.635,59.521l-.065-.916c.623-.044,1.237-.234,1.776-.55l.465.793c-.661.387-1.414.619-2.176.673Z" fill="#000" stroke-width="0" data-sg-fill="sg-fill-0" />
  <path d="M103.28,63.024h-.145l.022-.919c.535.013,1.068-.054,1.582-.196l.244.885c-.554.153-1.127.231-1.703.231h0Z" fill="#000" stroke-width="0" data-sg-fill="sg-fill-0" />
  <path d="M104.19,66.188c-.251,0-.503-.026-.751-.078l.19-.899c.457.098.936.074,1.382-.068l.278.876c-.356.113-.727.17-1.099.17h0Z" fill="#000" stroke-width="0" data-sg-fill="sg-fill-0" />
  <path d="M104.563,69.935c-.44,0-.88-.136-1.24-.389l.529-.752c.247.174.562.252.857.214l.115.911c-.086.011-.174.016-.261.016Z" fill="#000" stroke-width="0" data-sg-fill="sg-fill-0" />
  <path d="M103.56,73.452c-.508-.022-.992-.254-1.33-.636l.689-.608c.17.193.426.316.683.327l-.041.917h0Z" fill="#000" stroke-width="0" data-sg-fill="sg-fill-0" />
  <rect x="64.628" y="46.558" width="3.959" height=".919" transform="translate(5.781 101.307) rotate(-76.968)" fill="#000" stroke-width="0" data-sg-fill="sg-fill-0" />
  <rect x="66.211" y="52.361" width="3.357" height=".918" transform="translate(-11.697 85.453) rotate(-60.179)" fill="#000" stroke-width="0" data-sg-fill="sg-fill-0" />
  <rect x="71.299" y="48.654" width="2.845" height=".918" transform="translate(-9.14 80.722) rotate(-55.146)" fill="#000" stroke-width="0" data-sg-fill="sg-fill-0" />
  <rect x="68.524" y="56.681" width="2.92" height=".919" transform="translate(-19.853 47.541) rotate(-33.132)" fill="#000" stroke-width="0" data-sg-fill="sg-fill-0" />
  <rect x="73.48" y="52.904" width="2.429" height=".919" transform="translate(-14.672 74.354) rotate(-48.761)" fill="#000" stroke-width="0" data-sg-fill="sg-fill-0" />
  <rect x="70.868" y="65.835" width="3.646" height=".918" transform="translate(-22.272 40.585) rotate(-27.216)" fill="#000" stroke-width="0" data-sg-fill="sg-fill-0" />
  <rect x="66.79" y="94.092" width=".918" height="6.557" transform="translate(-17.717 15.004) rotate(-11.259)" fill="#000" stroke-width="0" data-sg-fill="sg-fill-0" />
  <rect x="66.897" y="106.373" width=".919" height="5.573" transform="translate(-19.663 14.924) rotate(-11.044)" fill="#000" stroke-width="0" data-sg-fill="sg-fill-0" />
  <rect x="73.234" y="101.813" width=".919" height="5.825" transform="translate(-31.531 31.746) rotate(-20.123)" fill="#000" stroke-width="0" data-sg-fill="sg-fill-0" />
  <rect x="71.335" y="90.248" width=".919" height="5.401" transform="translate(-27.579 30.348) rotate(-20.108)" fill="#000" stroke-width="0" data-sg-fill="sg-fill-0" />
  <rect x="74.267" y="81.242" width=".918" height="5.571" transform="translate(-25.834 33.706) rotate(-21.769)" fill="#000" stroke-width="0" data-sg-fill="sg-fill-0" />
  <rect x="77.106" y="91.868" width=".918" height="5.716" transform="translate(-30.215 36.651) rotate(-22.371)" fill="#000" stroke-width="0" data-sg-fill="sg-fill-0" />
  <rect x="79.195" y="101.598" width=".919" height="4.334" transform="translate(-38.933 48.546) rotate(-27.52)" fill="#000" stroke-width="0" data-sg-fill="sg-fill-0" />
  <path d="M70.908,64.802l-.901-.183.028-.157h.006c.135-.645.205-1.305.21-1.964l.919.006c-.005.772-.094,1.545-.262,2.298Z" fill="#000" stroke-width="0" data-sg-fill="sg-fill-0" />
  <rect x="62.041" y="86.822" width=".919" height="5.251" fill="#000" stroke-width="0" data-sg-fill="sg-fill-0" />
  <path d="M62.172,125c-17.187,0-32.328-15.603-38.575-39.753l.89-.23c6.138,23.73,20.929,39.064,37.685,39.064,16.57,0,31.302-15.104,37.53-38.479l.888.237c-6.34,23.789-21.42,39.16-38.419,39.16h.001Z" fill="#000" stroke-width="0" data-sg-fill="sg-fill-0" />
  <path d="M24.034,41.817l-.894-.21C28.979,16.721,44.665,0,62.172,0c17.389,0,33.04,16.571,38.943,41.236l-.894.214C94.418,17.207,79.127.919,62.172.919,45.1.919,29.774,17.355,24.034,41.817Z" fill="#000" stroke-width="0" data-sg-fill="sg-fill-0" />
  <path d="M62.172,120.701c-14.168,0-26.901-12.38-33.228-32.309l.876-.278c6.202,19.534,18.599,31.669,32.352,31.669,13.58,0,25.907-11.916,32.168-31.099l.874.285c-6.39,19.573-19.051,31.732-33.042,31.732Z" fill="#000" stroke-width="0" data-sg-fill="sg-fill-0" />
  <path d="M94.485,36.768c-6.215-19.461-18.597-31.55-32.314-31.55s-26.026,12.023-32.259,31.376l-.874-.282C35.398,16.566,48.093,4.299,62.172,4.299s26.848,12.334,33.189,32.189c0,0-.876.28-.876.28Z" fill="#000" stroke-width="0" data-sg-fill="sg-fill-0" />
</g></svg>