<svg xmlns="http://www.w3.org/2000/svg" id="Layer_1" data-name="Layer 1" version="1.1" viewBox="0.0 0.0 100.0 100.0">
  <g transform="scale(0.8)"><path d="M42.548,53.852c-3.23-.417-6.484-.983-9.671-1.683-4.867-1.069-10.254-2.744-13.31-7.055-1.848-2.607-2.777-6.095-2.84-10.663-.031-2.329.266-4.665.886-6.94.458-1.683,1.266-4.082,2.978-5.479.308-.253.726-.278,1.061-.067.342.214.509.623.414,1.018-.668,2.822-.897,5.719-.68,8.61.205,2.723.803,4.684,1.88,6.171,1.845,2.548,5.326,3.924,10.346,4.089.768.025,1.543.032,2.319.039,3.241.03,6.592.06,9.6,1.435l-.382.835c-2.83-1.294-6.081-1.324-9.226-1.352-.784-.007-1.566-.014-2.341-.04-5.318-.175-9.039-1.678-11.06-4.468-1.181-1.631-1.834-3.741-2.053-6.641-.223-2.986.013-5.977.703-8.891-1.133.896-2.008,2.534-2.674,4.981-.597,2.193-.885,4.442-.854,6.686.06,4.376.934,7.694,2.672,10.145,2.875,4.055,8.062,5.657,12.758,6.689,3.161.694,6.386,1.256,9.59,1.669l-.117.911h.001Z" fill="#000" stroke-width="0" data-sg-fill="sg-fill-0" />
  <path d="M42.782,46.791c-2.443-1.376-5.456-1.158-8.371-.946l-.375.027c-3.289.237-6.668.174-9.122-1.849l.585-.709c2.203,1.817,5.372,1.863,8.47,1.642l.375-.027c3.051-.222,6.203-.451,8.888,1.062l-.45.8Z" fill="#000" stroke-width="0" data-sg-fill="sg-fill-0" />
  <rect x="36.957" y="44.372" width=".919" height="8.197" transform="translate(-13.488 82.501) rotate(-86.097)" fill="#000" stroke-width="0" data-sg-fill="sg-fill-0" />
  <path d="M56.36,68.804c-1.212-4.318-4.396-7.954-8.515-9.725l.362-.844c4.372,1.88,7.751,5.738,9.037,10.322l-.885.248h0Z" fill="#000" stroke-width="0" data-sg-fill="sg-fill-0" />
  <path d="M50.516,69.912h-.022l-.155-.004c-1.073-.024-3.305-.074-4.575-1.632-.475-.582-.806-1.854-.536-2.684l.874.283c-.163.501.072,1.451.374,1.819,1.002,1.23,2.876,1.272,3.884,1.295l.098.003c-.032-1.155-.501-2.258-1.328-3.121-.99-1.033-2.497-1.691-4.028-1.759l.041-.918c1.762.079,3.5.842,4.651,2.042,1.023,1.067,1.585,2.446,1.584,3.885,0,.202-.083.394-.233.541-.164.159-.391.249-.628.249h-.001Z" fill="#000" stroke-width="0" data-sg-fill="sg-fill-0" />
  <path d="M33.05,66.509c-1.262,0-2.546-.175-3.805-.532-3.34-.948-6.454-3.085-9.004-6.182-1.132-1.374-1.808-2.683-2.007-3.889-.081-.485.11-.977.5-1.282.384-.3.876-.365,1.32-.174,1.993.86,4.395.744,6.718.633l.362-.017c2.234-.105,4.856-.134,7.367.434,1.984.449,3.771,1.261,5.17,2.35.134.103.31.133.478.079.157-.051.273-.166.316-.316.283-.98.797-1.884,1.483-2.614l.669.629c-.587.625-1.026,1.4-1.269,2.241-.128.441-.471.79-.916.934-.457.15-.952.062-1.324-.228-1.294-1.006-2.957-1.76-4.809-2.178-2.405-.544-4.95-.514-7.121-.412l-.362.017c-2.426.118-4.938.238-7.127-.707-.185-.08-.335.011-.388.054-.127.099-.187.252-.161.409.173,1.045.781,2.207,1.809,3.455,1.696,2.058,4.555,4.749,8.547,5.881,3.524,1.001,7.254.476,9.977-1.403l.522.756c-1.966,1.357-4.411,2.063-6.945,2.063h0Z" fill="#000" stroke-width="0" data-sg-fill="sg-fill-0" />
  <path d="M38.364,62.215c-1.449-1.555-3.392-2.657-5.47-3.103l.192-.898c2.261.485,4.374,1.683,5.951,3.375l-.673.626Z" fill="#000" stroke-width="0" data-sg-fill="sg-fill-0" />
  <path d="M25.022,59.257c-.972,0-1.932-.127-2.659-.782l.615-.683c.618.558,1.585.569,2.602.534l5.558-.201.034.918-5.558.201c-.196.007-.394.013-.591.013h0Z" fill="#000" stroke-width="0" data-sg-fill="sg-fill-0" />
  <path d="M45.604,77.063c-3.126-2.774-5.297-6.559-6.115-10.656l.901-.179c.779,3.902,2.847,7.506,5.824,10.148l-.61.687Z" fill="#000" stroke-width="0" data-sg-fill="sg-fill-0" />
  <path d="M58.826,91.902l-.919-.027c.147-5.07-.607-10.189-1.338-15.14l-.647-4.383.91-.135.646,4.383c.737,4.991,1.496,10.152,1.347,15.302h0Z" fill="#000" stroke-width="0" data-sg-fill="sg-fill-0" />
  <path d="M54.003,102.378l-.908-.145c.129-.802-.201-1.722-.981-2.735-.205-.266-.423-.523-.641-.78-.514-.607-1.046-1.234-1.417-1.983-.775-1.566-.693-3.308-.614-4.991.039-.818.079-1.663.016-2.462-.126-1.583-.668-3.13-1.193-4.625l-1.941-5.528.867-.305,1.941,5.528c.545,1.551,1.107,3.155,1.242,4.858.068.856.027,1.731-.013,2.576-.077,1.639-.151,3.187.519,4.54.32.647.793,1.205,1.294,1.796.228.268.455.537.668.815.94,1.221,1.33,2.379,1.16,3.44h.001Z" fill="#000" stroke-width="0" data-sg-fill="sg-fill-0" />
  <path d="M54.514,84.497c-.052-2.789-.28-6.418-1.595-9.761l-.146-.363c-.394-.975-.801-1.983-.641-3.077l.91.135c-.126.847.218,1.697.582,2.598l.149.371c1.369,3.48,1.606,7.215,1.66,10.08l-.919.018h0Z" fill="#000" stroke-width="0" data-sg-fill="sg-fill-0" />
  <path d="M51.946,80.666l-.895-.208c.251-1.076-.24-2.172-.761-3.333-.571-1.271-1.159-2.585-.793-3.981l.888.233c-.283,1.083.215,2.194.743,3.372.56,1.249,1.139,2.541.818,3.917Z" fill="#000" stroke-width="0" data-sg-fill="sg-fill-0" />
  <path d="M35.009,62.741c-.276-.314-.667-.578-1.197-.809-2.041-.89-4.498-.625-6.474-.411l-.099-.913c2.083-.226,4.675-.505,6.94.482.654.286,1.151.627,1.518,1.044l-.689.607h0Z" fill="#000" stroke-width="0" data-sg-fill="sg-fill-0" />
  <path d="M45.862,87.575c-4.076-4.702-6.845-10.678-7.799-16.829l.908-.141c.928,5.982,3.622,11.795,7.586,16.369l-.694.601h0Z" fill="#000" stroke-width="0" data-sg-fill="sg-fill-0" />
  <path d="M49.236,102.982c-.317-1.229-1.147-2.229-2.026-3.289-.77-.927-1.565-1.885-2.024-3.038-.276-.695-.414-1.423-.547-2.126-.08-.427-.161-.855-.273-1.273-.512-1.903-1.701-3.591-2.851-5.225-.38-.541-.762-1.082-1.12-1.631-1.156-1.77-2.108-3.67-3.029-5.507-1.716-3.422-3.662-7.302-3.919-11.458l.917-.057c.245,3.969,2.146,7.76,3.823,11.103.909,1.815,1.848,3.691,2.977,5.417.353.54.728,1.072,1.103,1.605,1.195,1.698,2.431,3.455,2.986,5.515.119.44.205.891.29,1.341.13.691.253,1.344.498,1.957.405,1.017,1.12,1.879,1.877,2.791.904,1.091,1.84,2.218,2.209,3.646l-.89.23h-.001Z" fill="#000" stroke-width="0" data-sg-fill="sg-fill-0" />
  <rect x="55.797" y="111.902" width="4.617" height=".919" transform="translate(-66.008 136.797) rotate(-73.793)" fill="#000" stroke-width="0" data-sg-fill="sg-fill-0" />
  <rect x="51.365" y="109.741" width="3.381" height=".919" transform="translate(-69.237 112.109) rotate(-65.186)" fill="#000" stroke-width="0" data-sg-fill="sg-fill-0" />
  <rect x="47.595" y="107.073" width="3.927" height=".919" transform="translate(-66.621 84.698) rotate(-54.137)" fill="#000" stroke-width="0" data-sg-fill="sg-fill-0" />
  <rect x="43.399" y="103.716" width="3.418" height=".919" transform="translate(-63.638 71.593) rotate(-49.908)" fill="#000" stroke-width="0" data-sg-fill="sg-fill-0" />
  <rect x="40.247" y="98.942" width="3.66" height=".918" transform="translate(-50.561 44) rotate(-36.176)" fill="#000" stroke-width="0" data-sg-fill="sg-fill-0" />
  <rect x="38.169" y="94.737" width="4.461" height=".918" transform="translate(-44.704 36.444) rotate(-32.385)" fill="#000" stroke-width="0" data-sg-fill="sg-fill-0" />
  <rect x="35.476" y="89.623" width="4.239" height=".918" transform="translate(-44.178 36.778) rotate(-34.249)" fill="#000" stroke-width="0" data-sg-fill="sg-fill-0" />
  <rect x="33.676" y="84.851" width="3.175" height=".919" transform="translate(-39.161 30.698) rotate(-31.271)" fill="#000" stroke-width="0" data-sg-fill="sg-fill-0" />
  <path d="M76.654,56.341l-.242-.886c1.328-.364,2.79-.848,3.329-1.989.283-.601.283-1.317.255-2.123-.059-1.706-.164-3.36-.79-4.839-.527-1.25-1.676-2.683-3.317-2.958-.863-.144-1.737.038-2.665.229l-.44.089c-3.46.68-17.107.681-20.567,0l-.44-.089c-.93-.191-1.808-.371-2.665-.229-1.641.275-2.789,1.708-3.317,2.957-.626,1.48-.731,3.134-.79,4.84-.029.806-.029,1.521.255,2.123.539,1.141,2.001,1.625,3.329,1.989l-.242.886c-1.525-.418-3.212-.989-3.918-2.483-.371-.787-.374-1.654-.343-2.548.063-1.795.176-3.541.862-5.165.795-1.882,2.332-3.225,4.013-3.506,1.025-.17,2.029.036,3.001.235l.432.087c3.305.65,16.907.65,20.212,0l.432-.087c.972-.199,1.977-.405,3.001-.235,1.68.281,3.218,1.624,4.013,3.506.686,1.624.799,3.37.862,5.165.031.894.029,1.761-.343,2.547-.706,1.494-2.393,2.065-3.918,2.483h.001Z" fill="#000" stroke-width="0" data-sg-fill="sg-fill-0" />
  <path d="M82.452,53.852l-.117-.911c3.205-.413,6.432-.975,9.59-1.669,4.695-1.032,9.883-2.633,12.758-6.689,1.738-2.45,2.611-5.769,2.672-10.145.031-2.244-.257-4.493-.854-6.686-.667-2.446-1.541-4.085-2.673-5.009.69,2.942.926,5.933.702,8.919-.218,2.898-.87,5.008-2.053,6.641-2.021,2.79-5.742,4.293-11.06,4.468-.775.026-1.557.033-2.341.04-3.144.028-6.395.058-9.226,1.352l-.382-.835c3.008-1.376,6.359-1.406,9.6-1.435.776-.007,1.551-.014,2.319-.039,5.02-.166,8.501-1.541,10.346-4.089,1.079-1.489,1.677-3.45,1.88-6.171.217-2.891-.012-5.788-.68-8.61-.094-.395.073-.804.414-1.018.336-.21.752-.184,1.061.067,1.713,1.397,2.52,3.796,2.978,5.479.62,2.276.918,4.611.886,6.94-.063,4.569-.992,8.056-2.84,10.663-3.056,4.311-8.444,5.985-13.31,7.055-3.185.7-6.438,1.266-9.671,1.683h0Z" fill="#000" stroke-width="0" data-sg-fill="sg-fill-0" />
  <path d="M82.218,46.791l-.45-.8c2.682-1.512,5.837-1.284,8.888-1.062l.375.027c3.097.221,6.267.175,8.47-1.642l.585.709c-2.454,2.023-5.835,2.084-9.122,1.849l-.375-.027c-2.919-.213-5.93-.431-8.371.946Z" fill="#000" stroke-width="0" data-sg-fill="sg-fill-0" />
  <rect x="83.485" y="48.011" width="8.197" height=".919" transform="translate(-3.107 6.098) rotate(-3.918)" fill="#000" stroke-width="0" data-sg-fill="sg-fill-0" />
  <path d="M68.64,68.804l-.885-.248c1.286-4.583,4.665-8.442,9.037-10.322l.362.844c-4.12,1.771-7.303,5.407-8.515,9.725h0Z" fill="#000" stroke-width="0" data-sg-fill="sg-fill-0" />
  <path d="M74.484,69.912c-.238,0-.466-.091-.629-.249-.151-.147-.233-.339-.233-.541,0-1.439.562-2.819,1.584-3.885,1.151-1.2,2.889-1.963,4.651-2.042l.041.918c-1.531.069-3.038.726-4.028,1.759-.827.863-1.296,1.966-1.328,3.12l.098-.002c1.007-.022,2.882-.065,3.884-1.295.302-.369.537-1.318.374-1.819l.874-.283c.27.83-.06,2.102-.536,2.684-1.27,1.557-3.502,1.608-4.575,1.632l-.153.004h-.024Z" fill="#000" stroke-width="0" data-sg-fill="sg-fill-0" />
  <path d="M91.949,66.509c-2.533,0-4.978-.706-6.944-2.063l.522-.756c2.722,1.879,6.452,2.404,9.976,1.403,3.992-1.132,6.851-3.823,8.547-5.881,1.028-1.248,1.636-2.41,1.809-3.455.026-.157-.034-.31-.161-.409-.055-.043-.204-.135-.388-.054-2.189.945-4.698.824-7.127.707l-.362-.017c-2.173-.101-4.717-.132-7.121.412-1.852.418-3.515,1.172-4.809,2.178-.372.29-.868.377-1.324.228-.445-.144-.788-.493-.916-.933-.243-.842-.683-1.617-1.269-2.242l.669-.629c.686.73,1.199,1.635,1.483,2.615.043.149.159.265.316.316.169.054.345.024.478-.079,1.4-1.089,3.188-1.901,5.17-2.35,2.511-.568,5.133-.539,7.367-.434l.362.017c2.323.11,4.726.227,6.718-.633.443-.191.935-.126,1.32.174.389.305.58.797.5,1.282-.199,1.206-.875,2.514-2.007,3.889-2.55,3.096-5.664,5.233-9.004,6.182-1.259.357-2.543.532-3.806.532h0Z" fill="#000" stroke-width="0" data-sg-fill="sg-fill-0" />
  <path d="M86.636,62.215l-.673-.626c1.576-1.691,3.69-2.89,5.951-3.375l.192.898c-2.078.446-4.021,1.548-5.47,3.103Z" fill="#000" stroke-width="0" data-sg-fill="sg-fill-0" />
  <path d="M99.978,59.257c-.197,0-.395-.005-.592-.013l-5.558-.201.034-.918,5.557.201c1.016.035,1.984.024,2.603-.534l.615.683c-.727.654-1.687.782-2.659.782Z" fill="#000" stroke-width="0" data-sg-fill="sg-fill-0" />
  <path d="M79.396,77.063l-.61-.687c2.977-2.642,5.045-6.246,5.824-10.148l.901.179c-.817,4.097-2.988,7.882-6.115,10.656Z" fill="#000" stroke-width="0" data-sg-fill="sg-fill-0" />
  <path d="M66.174,91.902c-.149-5.15.611-10.311,1.347-15.302l.647-4.383.91.135-.648,4.383c-.729,4.951-1.484,10.071-1.337,15.14,0,0-.919.027-.919.027Z" fill="#000" stroke-width="0" data-sg-fill="sg-fill-0" />
  <path d="M58.198,105.178c-.498,0-.942-.156-1.263-.453-.726-.671-.604-1.807-.121-2.535.361-.541.863-.911,1.348-1.27l.326-.243c.217-.166.444-.364.481-.571.056-.315-.339-.668-.755-.878-.687-.347-1.435-.552-2.228-.767-.904-.247-1.84-.501-2.689-.99-.903-.522-1.417-1.256-1.41-2.015.01-1.007.932-1.748,1.818-1.883.92-.141,1.802.227,2.386.517.583.29,1.138.631,1.674.961.446.275.892.549,1.354.793,1.078.571,2.383.871,3.332.769l.05-.005.05.005c.942.1,2.254-.198,3.333-.769.461-.244.906-.518,1.351-.792.536-.33,1.092-.672,1.675-.962.586-.289,1.47-.657,2.388-.517.885.135,1.807.876,1.817,1.883.007.759-.507,1.493-1.41,2.014-.849.49-1.784.745-2.689.991-.793.215-1.541.42-2.228.767-.416.21-.811.563-.755.879.037.206.264.405.48.571l.327.243c.485.359.988.729,1.347,1.269.484.729.606,1.865-.121,2.536-.429.398-1.08.544-1.787.398-.363-.074-.693-.209-1.013-.338-.143-.058-.285-.116-.431-.168-.719-.257-3.947-.257-4.667,0-.145.052-.288.109-.431.168-.319.129-.65.264-1.014.338-.179.037-.354.055-.524.055h-.001ZM54.117,94.458c-.092,0-.184.007-.275.021-.496.075-1.033.473-1.038.984-.005.593.663,1.043.951,1.21.745.43,1.583.658,2.472.9.801.218,1.63.444,2.401.833.905.457,1.371,1.152,1.245,1.859-.092.518-.469.867-.826,1.139l-.339.254c-.441.326-.859.633-1.129,1.04-.271.408-.356,1.042-.021,1.352.208.192.576.257.98.172.281-.057.559-.17.852-.289.155-.063.31-.126.467-.181.913-.327,4.371-.327,5.284,0,.157.056.312.118.467.181.293.119.571.231.851.289.408.085.773.02.98-.172.336-.31.251-.944-.021-1.353-.269-.405-.686-.713-1.128-1.039l-.34-.254c-.356-.273-.733-.622-.825-1.138-.126-.708.34-1.403,1.245-1.86.771-.389,1.6-.615,2.401-.833.888-.242,1.726-.47,2.472-.901.288-.166.956-.616.951-1.209-.005-.511-.542-.909-1.037-.984-.662-.098-1.367.198-1.841.432-.545.271-1.083.601-1.602.92-.462.284-.924.569-1.402.823-.968.51-2.477,1.004-3.813.875-1.347.129-2.846-.364-3.812-.875-.48-.254-.943-.539-1.405-.824-.519-.319-1.056-.65-1.601-.92-.407-.202-.988-.453-1.565-.453h0Z" fill="#000" stroke-width="0" data-sg-fill="sg-fill-0" />
  <path d="M61.711,108.779c-2.761,0-5.511-1.62-7.495-4.462l.754-.526c1.536,2.2,4.303,4.401,7.481,4.024l.056-.007.056.007c2.686.322,5.481-1.176,7.47-4.024l.754.526c-2.175,3.114-5.272,4.751-8.279,4.417-.265.03-.53.045-.795.045h-.002Z" fill="#000" stroke-width="0" data-sg-fill="sg-fill-0" />
  <path d="M70.997,102.378c-.17-1.061.22-2.219,1.16-3.44.214-.277.44-.546.668-.815.501-.591.973-1.149,1.294-1.796.67-1.354.597-2.901.519-4.54-.04-.846-.082-1.721-.013-2.576.135-1.703.697-3.307,1.242-4.858l1.941-5.528.867.305-1.941,5.528c-.525,1.495-1.068,3.041-1.193,4.625-.063.798-.022,1.643.016,2.462.08,1.683.161,3.424-.614,4.991-.371.748-.902,1.375-1.417,1.983-.218.257-.436.515-.641.78-.78,1.013-1.11,1.933-.981,2.735l-.908.145h.001Z" fill="#000" stroke-width="0" data-sg-fill="sg-fill-0" />
  <path d="M70.486,84.497l-.919-.018c.054-2.864.291-6.6,1.66-10.079l.149-.372c.364-.901.708-1.751.582-2.598l.91-.135c.161,1.094-.247,2.102-.641,3.077l-.146.364c-1.315,3.343-1.543,6.971-1.595,9.761Z" fill="#000" stroke-width="0" data-sg-fill="sg-fill-0" />
  <path d="M73.054,80.666c-.321-1.376.258-2.668.818-3.917.527-1.178,1.026-2.289.743-3.372l.888-.233c.366,1.396-.222,2.71-.793,3.981-.52,1.161-1.012,2.257-.761,3.333l-.895.208Z" fill="#000" stroke-width="0" data-sg-fill="sg-fill-0" />
  <path d="M89.991,62.741l-.689-.607c.367-.417.864-.758,1.518-1.044,2.265-.986,4.858-.707,6.94-.482l-.099.913c-1.975-.214-4.433-.48-6.474.411-.529.231-.92.495-1.197.809h0Z" fill="#000" stroke-width="0" data-sg-fill="sg-fill-0" />
  <path d="M79.138,87.575l-.694-.601c3.964-4.573,6.658-10.387,7.586-16.369l.908.141c-.955,6.151-3.724,12.127-7.799,16.829h0Z" fill="#000" stroke-width="0" data-sg-fill="sg-fill-0" />
  <path d="M75.764,102.982l-.89-.23c.369-1.428,1.304-2.555,2.209-3.646.757-.911,1.472-1.774,1.877-2.791.244-.613.367-1.265.498-1.955.085-.451.171-.902.291-1.344.554-2.06,1.79-3.816,2.986-5.515.375-.532.749-1.064,1.102-1.604,1.129-1.726,2.068-3.602,2.977-5.416,1.678-3.344,3.579-7.136,3.824-11.104l.917.057c-.257,4.155-2.203,8.035-3.919,11.459-.92,1.836-1.872,3.736-3.029,5.506-.359.549-.739,1.09-1.12,1.63-1.149,1.634-2.338,3.323-2.85,5.226-.113.42-.194.848-.275,1.276-.133.702-.27,1.429-.546,2.123-.458,1.154-1.254,2.112-2.024,3.038-.879,1.059-1.709,2.06-2.026,3.289h-.002,0Z" fill="#000" stroke-width="0" data-sg-fill="sg-fill-0" />
  <rect x="61.943" y="111.592" width=".919" height="4.32" fill="#000" stroke-width="0" data-sg-fill="sg-fill-0" />
  <rect x="66.435" y="110.052" width=".919" height="4.617" transform="translate(-28.712 23.146) rotate(-16.213)" fill="#000" stroke-width="0" data-sg-fill="sg-fill-0" />
  <rect x="71.485" y="108.51" width=".919" height="3.381" transform="translate(-39.611 40.375) rotate(-24.818)" fill="#000" stroke-width="0" data-sg-fill="sg-fill-0" />
  <rect x="74.983" y="105.568" width=".919" height="3.927" transform="translate(-48.723 64.666) rotate(-35.901)" fill="#000" stroke-width="0" data-sg-fill="sg-fill-0" />
  <rect x="79.43" y="102.467" width=".919" height="3.418" transform="translate(-48.308 75.884) rotate(-40.071)" fill="#000" stroke-width="0" data-sg-fill="sg-fill-0" />
  <rect x="82.466" y="97.572" width=".918" height="3.661" transform="translate(-46.257 107.729) rotate(-53.852)" fill="#000" stroke-width="0" data-sg-fill="sg-fill-0" />
  <rect x="84.141" y="92.964" width=".918" height="4.461" transform="translate(-41.113 115.577) rotate(-57.582)" fill="#000" stroke-width="0" data-sg-fill="sg-fill-0" />
  <rect x="86.945" y="87.963" width=".918" height="4.239" transform="translate(-36.257 111.583) rotate(-55.728)" fill="#000" stroke-width="0" data-sg-fill="sg-fill-0" />
  <rect x="89.278" y="83.725" width=".919" height="3.176" transform="translate(-29.765 117.72) rotate(-58.725)" fill="#000" stroke-width="0" data-sg-fill="sg-fill-0" />
  <path d="M64.67,102.917c-.414,0-.755-.243-.879-.332-.53-.376-.972-.876-1.291-1.446-.318.571-.761,1.07-1.29,1.446-.145.103-.586.419-1.085.31l.185-.899c.033.004.137.004.369-.16.589-.42,1.043-1.033,1.277-1.725.158-.472.931-.473,1.089,0,.234.692.688,1.304,1.278,1.724.23.163.332.164.368.16l.185.899c-.07.015-.138.022-.205.022h0Z" fill="#000" stroke-width="0" data-sg-fill="sg-fill-0" />
  <path d="M63.189,32.467c-.326,0-.596-.222-.661-.544-.316-1.574-.868-3.081-1.638-4.477-.843-1.526-1.932-2.895-3.239-4.069-.143-.129-.224-.31-.224-.497s.081-.369.222-.497c1.234-1.125,2.289-2.423,3.135-3.858.748-1.268,1.327-2.633,1.72-4.054.087-.311.377-.516.69-.496.32.018.58.254.63.574h0c.165,1.067,1.243,3.082,1.928,4.176.679,1.085,1.963,2.732,3.004,3.646.163.144.254.344.249.549-.004.194-.096.377-.25.501-1.362,1.09-2.483,2.408-3.332,3.919-.789,1.406-1.317,2.938-1.567,4.555-.05.329-.318.566-.65.574h-.017s0-.002,0-.002ZM58.467,22.877c1.294,1.201,2.378,2.587,3.227,4.124.633,1.148,1.127,2.365,1.473,3.631.309-1.317.798-2.572,1.457-3.745.859-1.53,1.98-2.875,3.334-4.002-1.075-.999-2.294-2.572-2.984-3.675-.537-.859-1.407-2.416-1.834-3.667-.397,1.202-.92,2.358-1.564,3.448-.848,1.436-1.893,2.742-3.109,3.886ZM58.268,23.06h0Z" fill="#000" stroke-width="0" data-sg-fill="sg-fill-0" />
  <path d="M47.675,35.922c-.142,0-.281-.059-.396-.171-.916-.901-1.849-1.565-2.774-1.975-.836-.371-1.638-.519-2.38-.439-.256.028-.495-.129-.615-.398-.123-.277-.075-.569.119-.743.565-.504,1.033-1.183,1.39-2.017.399-.932.653-2.039.755-3.291.017-.22.141-.398.333-.475.189-.076.404-.034.57.114.888.79,1.793,1.406,2.689,1.829.777.367,1.539.586,2.263.649.253.022.468.219.55.5.077.265.005.52-.186.668h0c-.276.212-.787,1.185-1.138,2.169-.26.729-.576,2.041-.647,3.038-.016.238-.146.428-.349.506-.06.023-.122.035-.184.035h0ZM47.291,35.317v.002-.002ZM42.718,32.402c.698.028,1.422.207,2.16.535.838.371,1.675.924,2.496,1.647.136-.926.39-1.917.616-2.549.061-.17.519-1.427,1.064-2.176-.68-.113-1.377-.338-2.08-.67-.789-.373-1.579-.879-2.358-1.508-.14,1.064-.391,2.023-.75,2.862-.309.719-.693,1.343-1.147,1.86h0ZM49.435,29.446h0ZM44.066,27.214h.002-.002ZM44.691,26.962v.002-.002Z" fill="#000" stroke-width="0" data-sg-fill="sg-fill-0" />
  <path d="M78.822,35.922c-.06,0-.121-.011-.181-.033-.203-.076-.334-.265-.353-.505-.07-.994-.385-2.308-.646-3.04-.352-.983-.862-1.956-1.139-2.169h0c-.192-.148-.263-.404-.186-.668.082-.281.297-.477.549-.5.726-.063,1.487-.282,2.264-.649.897-.424,1.802-1.04,2.69-1.83.166-.148.378-.19.568-.113.19.076.315.252.334.472.1,1.253.354,2.36.755,3.293.356.833.824,1.512,1.39,2.017.196.176.241.468.118.745-.119.267-.368.42-.614.396-.739-.079-1.545.069-2.381.439-.925.41-1.858,1.074-2.773,1.974-.114.113-.254.172-.396.172h0ZM78.573,35.096h0ZM77.443,29.859c.545.749,1.004,2.006,1.064,2.176.227.635.48,1.626.615,2.548.821-.723,1.658-1.275,2.497-1.647.738-.327,1.462-.506,2.16-.535-.455-.518-.84-1.141-1.147-1.86-.36-.84-.612-1.8-.75-2.862-.778.628-1.568,1.134-2.358,1.508-.703.332-1.401.557-2.08.67v.002h0Z" fill="#000" stroke-width="0" data-sg-fill="sg-fill-0" />
  <path d="M23.128,53.911l-.915-.084c.115-1.25.257-2.504.419-3.727l.911.121c-.162,1.211-.301,2.453-.415,3.691h0Z" fill="#000" stroke-width="0" data-sg-fill="sg-fill-0" />
  <path d="M63.216,125c-22.547,0-40.723-26.637-41.38-60.641l.919-.018c.31,16.092,4.678,31.141,12.298,42.375,7.596,11.198,17.598,17.365,28.164,17.365,22.097,0,40.255-27.341,40.477-60.948l.919.006c-.226,34.11-18.796,61.861-41.396,61.861h0Z" fill="#000" stroke-width="0" data-sg-fill="sg-fill-0" />
  <path d="M103.26,53.441c-.116-1.191-.257-2.401-.421-3.597l.91-.125c.166,1.208.309,2.431.426,3.633,0,0-.915.089-.915.089Z" fill="#000" stroke-width="0" data-sg-fill="sg-fill-0" />
  <path d="M26.199,37.56l-.882-.257C31.928,14.642,46.805,0,63.216,0c16.117,0,30.885,14.276,37.622,36.37l-.879.268C93.342,14.939,78.92.919,63.216.919c-15.993,0-30.523,14.383-37.017,36.642h0Z" fill="#000" stroke-width="0" data-sg-fill="sg-fill-0" />
  <path d="M27.443,53.912l-.915-.087c.075-.786.16-1.569.256-2.345l.911.112c-.094.768-.179,1.541-.252,2.319h0Z" fill="#000" stroke-width="0" data-sg-fill="sg-fill-0" />
  <path d="M63.216,120.701c-19.331,0-35.583-23.67-36.998-53.888l.917-.043c1.392,29.726,17.241,53.013,36.081,53.013,19.086,0,34.949-23.611,36.112-53.754l.919.036c-1.183,30.637-17.45,54.636-37.031,54.636Z" fill="#000" stroke-width="0" data-sg-fill="sg-fill-0" />
  <path d="M98.979,53.799c-.088-.91-.19-1.814-.305-2.711l.911-.117c.117.906.219,1.819.309,2.738l-.915.089h0Z" fill="#000" stroke-width="0" data-sg-fill="sg-fill-0" />
  <path d="M30.141,39.301l-.885-.248C35.196,17.941,48.526,4.299,63.216,4.299c14.497,0,27.756,13.392,33.778,34.116l-.883.257c-5.904-20.323-18.817-33.454-32.895-33.454-14.268,0-27.25,13.379-33.074,34.083h0Z" fill="#000" stroke-width="0" data-sg-fill="sg-fill-0" />
  <rect x="62.757" y="45.757" width=".919" height="4.8" fill="#000" stroke-width="0" data-sg-fill="sg-fill-0" />
  <rect x="62.757" y="53.431" width=".919" height="5.174" fill="#000" stroke-width="0" data-sg-fill="sg-fill-0" />
  <rect x="58.564" y="45.667" width=".918" height="3.889" transform="translate(-11.588 19.958) rotate(-17.505)" fill="#000" stroke-width="0" data-sg-fill="sg-fill-0" />
  <rect x="56.314" y="50.132" width=".919" height="4.409" transform="translate(-17.61 31.615) rotate(-27.105)" fill="#000" stroke-width="0" data-sg-fill="sg-fill-0" />
  <rect x="51.987" y="44.848" width=".919" height="2.946" transform="translate(-15.823 30.974) rotate(-28.782)" fill="#000" stroke-width="0" data-sg-fill="sg-fill-0" />
  <rect x="49.884" y="47.196" width=".919" height="5.093" transform="translate(-19.014 35.659) rotate(-33.178)" fill="#000" stroke-width="0" data-sg-fill="sg-fill-0" />
  <rect x="65.333" y="47.153" width="3.889" height=".918" transform="translate(1.626 97.442) rotate(-72.486)" fill="#000" stroke-width="0" data-sg-fill="sg-fill-0" />
  <rect x="67.324" y="51.877" width="4.408" height=".919" transform="translate(-8.713 90.438) rotate(-62.935)" fill="#000" stroke-width="0" data-sg-fill="sg-fill-0" />
  <rect x="72.381" y="45.861" width="2.946" height=".919" transform="translate(-2.292 88.768) rotate(-61.233)" fill="#000" stroke-width="0" data-sg-fill="sg-fill-0" />
  <rect x="73.411" y="49.284" width="5.093" height=".919" transform="translate(-7.214 86.163) rotate(-56.868)" fill="#000" stroke-width="0" data-sg-fill="sg-fill-0" />
</g></svg>