<?xml version="1.0" encoding="utf-8"?>
<svg xmlns="http://www.w3.org/2000/svg" width="490" height="1002" viewBox="0 0 490 1002">
  <path fill-rule="evenodd" d="M 366.498 3.754 C 361.543 7.154, 354 14.680, 354 16.224 C 354 16.855, 353.137 18.300, 352.083 19.436 C 348.758 23.017, 341.088 38.917, 338.361 47.880 C 336.919 52.621, 334.223 59.598, 332.370 63.384 C 330.516 67.171, 329 71.082, 329 72.075 C 329 73.069, 328.524 74.176, 327.942 74.536 C 326.222 75.599, 318.542 92.611, 314.190 105 C 309.925 117.139, 302.379 142.773, 301.827 147 C 301.562 149.025, 299.867 150.323, 292.911 153.832 C 285.531 157.553, 283.461 158.159, 278.212 158.134 C 271.408 158.101, 268.424 156.872, 261.918 151.421 C 257.235 147.498, 258.513 147.346, 266 150.934 C 269.691 152.703, 274.708 152.798, 284 151.275 C 290.584 150.196, 294 148.505, 294 146.325 C 294 145.443, 294.753 144.170, 295.673 143.497 C 297.190 142.388, 297.099 142.111, 294.696 140.537 C 292.755 139.264, 289.518 138.725, 282.596 138.519 C 274.314 138.272, 272.331 137.841, 266.550 135.025 C 262.923 133.257, 257.418 129.491, 254.317 126.656 C 251.216 123.820, 245.874 119.250, 242.446 116.500 C 233.251 109.123, 218.816 96.630, 208.545 87.160 C 203.570 82.572, 197.925 78.008, 196 77.016 C 194.075 76.024, 191.658 74.282, 190.629 73.144 C 189.600 72.006, 187.246 70.576, 185.398 69.966 C 183.243 69.255, 178.832 65.442, 173.104 59.339 C 163.579 49.190, 161.268 48.165, 159.852 53.460 C 159.278 55.609, 159.532 57.154, 160.780 59.102 C 164.896 65.523, 171.278 73.058, 178.905 80.500 C 188.552 89.913, 194.494 97.894, 198.908 107.367 C 204.537 119.447, 202.856 119.661, 191.500 108.314 C 186 102.818, 179.665 96.223, 177.423 93.660 C 172.718 88.281, 170.117 87.792, 166.335 91.574 C 164.027 93.882, 163.829 94.657, 164.418 99.096 L 165.075 104.044 161.787 102.263 C 158.776 100.631, 146.656 88.734, 140.636 81.500 C 138.600 79.053, 137.899 78.736, 136.838 79.782 C 135.771 80.832, 135.933 81.823, 137.737 85.282 C 138.947 87.602, 140.383 92.357, 140.929 95.850 C 141.475 99.342, 142.448 102.835, 143.092 103.610 C 143.735 104.386, 144.639 107.041, 145.101 109.510 C 145.562 111.979, 147.494 117.262, 149.394 121.250 C 151.295 125.237, 153.164 129.625, 153.549 131 L 154.248 133.500 152.036 130.730 C 150.819 129.207, 148.626 127.338, 147.162 126.577 C 144.296 125.087, 139.682 115.556, 138.543 108.772 C 138.199 106.722, 135.763 101.772, 133.130 97.772 C 130.496 93.773, 127.176 88.475, 125.751 86 C 119.508 75.158, 109.696 69.304, 105.238 73.762 C 104.144 74.856, 103.049 76.354, 102.802 77.093 C 102.147 79.059, 93.402 73.176, 87.142 66.557 C 84.340 63.594, 80.730 60.232, 79.119 59.085 C 74.118 55.523, 69 56.781, 69 61.572 C 69 64.656, 79.883 79.578, 90.768 91.418 C 95.866 96.963, 101.466 103.975, 103.212 107 C 108.546 116.237, 120.240 132.394, 131.079 145.500 C 134.263 149.350, 140.561 157.225, 145.075 163 C 154.034 174.462, 158.786 179.709, 172.641 193.441 C 177.668 198.423, 183.825 205.200, 186.324 208.500 C 188.822 211.800, 194.008 217.778, 197.849 221.784 C 201.691 225.790, 207.008 232.315, 209.667 236.284 C 212.325 240.253, 214.878 243.777, 215.340 244.115 C 215.803 244.453, 216.713 245.803, 217.364 247.115 C 218.831 250.073, 223.695 250.960, 224.660 248.444 C 225.504 246.244, 220.146 235.384, 214.081 227 C 208.148 218.800, 207.532 217.175, 209.518 214.981 C 210.379 214.029, 210.952 212.631, 210.792 211.875 C 210.624 211.086, 211.317 210.498, 212.418 210.496 C 214.767 210.491, 215.331 209.068, 214.198 206.005 C 213.342 203.692, 214.711 199.024, 216.250 199.008 C 216.662 199.004, 217.044 198.213, 217.098 197.250 C 217.152 196.287, 217.805 198.200, 218.549 201.500 C 222.089 217.202, 223.219 221.905, 224.677 227 C 227.615 237.272, 230.052 240.052, 233 236.500 C 235.169 233.886, 235.818 234.865, 234.822 239.250 C 233.808 243.716, 235.067 270.039, 237.153 288 C 237.760 293.225, 238.365 304.925, 238.498 314 C 238.631 323.075, 239.002 333.200, 239.323 336.500 C 239.643 339.800, 240.170 345.875, 240.492 350 C 240.815 354.125, 241.304 359.075, 241.579 361 C 242.053 364.312, 241.952 364.232, 239.704 359.500 C 238.397 356.750, 236.087 350.675, 234.571 346 C 231.100 335.299, 228.631 332.728, 222.691 333.635 C 215.997 334.656, 214.686 335.680, 215.413 339.317 C 215.758 341.040, 217.156 344.061, 218.520 346.029 C 219.884 347.997, 221 350.113, 221 350.731 C 221 351.349, 222.644 354.925, 224.654 358.677 C 231.851 372.117, 232.405 373.365, 231.338 373.721 C 228.538 374.654, 226.803 376.931, 225.930 380.817 C 224.853 385.608, 225.846 388.499, 228.901 389.469 C 230.905 390.104, 231.057 390.814, 232.818 407.764 C 233.704 416.280, 235.744 420.149, 240.075 421.524 C 242.771 422.380, 244.266 427.647, 242.572 430.325 C 241.815 431.521, 240.906 433.895, 240.552 435.600 C 240.013 438.190, 240.489 439.396, 243.451 442.941 C 246.598 446.708, 246.924 447.622, 246.365 451.117 C 245.886 454.114, 246.159 455.518, 247.510 457.011 C 248.932 458.583, 249.170 460.060, 248.714 464.486 C 247.930 472.074, 249.271 473.331, 257.400 472.634 C 271.076 471.461, 271.634 471.247, 273.453 466.483 C 275.017 462.387, 277.539 459.206, 278.477 460.144 C 278.714 460.380, 277.803 463.615, 276.453 467.332 C 275.104 471.050, 274 474.938, 274 475.973 C 274 479.358, 269.216 482.087, 263.570 481.924 C 258.529 481.779, 246.259 484.393, 244.666 485.953 C 242.885 487.694, 240.041 485.664, 238.630 481.644 C 237.830 479.365, 236.161 474.575, 234.922 471 C 230.350 457.816, 222.980 446, 219.329 446 C 217.528 446, 218.051 448.043, 222.137 456.967 C 225.265 463.799, 227.174 472.844, 225.234 471.645 C 224.640 471.278, 223.839 469.520, 223.455 467.739 C 222.411 462.899, 219.904 457, 218.891 457 C 218.401 457, 218 457.563, 217.999 458.250 C 217.999 458.938, 216.910 459.563, 215.580 459.639 C 212.873 459.795, 211.648 457.062, 212.671 453.148 C 213.065 451.642, 212.539 449.868, 211.135 447.969 C 209.961 446.381, 209 444.454, 209 443.688 C 209 441.501, 199.675 429.561, 197.664 429.174 C 196.475 428.945, 195.661 429.582, 195.279 431.040 L 194.700 433.254 192.822 430.877 C 191.789 429.570, 189.989 427.211, 188.822 425.635 L 186.700 422.770 189.100 423.503 C 190.420 423.907, 192.347 424.971, 193.383 425.868 C 195.163 427.411, 195.227 427.377, 194.566 425.250 C 193.460 421.700, 194.988 422.546, 201.712 429.211 C 206.279 433.736, 208.278 435.122, 209.081 434.319 C 209.885 433.515, 209.259 431.368, 206.774 426.405 C 203.761 420.388, 202.592 419.114, 196.736 415.471 C 193.091 413.203, 188.397 409.862, 186.304 408.048 C 182.118 404.417, 175.561 401.056, 172.596 401.022 C 171.550 401.010, 168.400 399.925, 165.596 398.610 C 160.652 396.292, 156.096 394.701, 145.312 391.527 C 141.889 390.519, 135.915 390, 127.749 390 L 115.374 390 112.538 392.960 C 110.594 394.989, 108.040 396.265, 104.417 397.017 C 101.458 397.632, 97.575 399.351, 95.597 400.923 C 93.653 402.467, 90.731 404.283, 89.104 404.957 C 87.476 405.631, 85.900 406.817, 85.603 407.592 C 84.788 409.716, 90.613 409.395, 94.382 407.108 C 96.097 406.067, 99.075 404.948, 101 404.620 C 102.925 404.292, 103.825 404.302, 103 404.642 C 99.699 406.004, 97.962 408.250, 99.126 409.652 C 99.741 410.393, 100.977 411, 101.872 410.999 C 105.243 410.998, 123.143 403.195, 124.385 401.186 C 124.675 400.717, 126.348 400.544, 128.104 400.802 C 131.141 401.248, 130.905 401.457, 123.204 405.139 C 118.753 407.267, 113.402 409.363, 111.311 409.798 C 106.761 410.743, 105.274 414, 109.391 414 C 110.944 414, 112.365 414.813, 113.050 416.094 C 113.876 417.637, 114.742 418.015, 116.336 417.529 C 117.526 417.166, 119.342 416.607, 120.370 416.287 C 122.171 415.725, 122.176 415.802, 120.488 418.378 C 119.326 420.152, 118.155 420.867, 117.009 420.503 C 114.476 419.699, 112.117 420.899, 110.622 423.753 L 109.304 426.268 108.677 423.134 C 107.920 419.350, 106.600 419.154, 104.408 422.500 C 102.348 425.644, 98.049 425.812, 93.386 422.930 C 91.544 421.791, 89.541 421.166, 88.936 421.540 C 88.330 421.914, 85.959 420.880, 83.667 419.242 C 77.270 414.670, 71.023 412, 66.725 412 C 63.311 412, 62.685 411.627, 61.694 409 C 61.061 407.322, 59.828 406, 58.897 406 C 57.982 406, 56.983 405.044, 56.678 403.876 C 56.233 402.174, 55.619 401.879, 53.588 402.389 C 51.639 402.878, 51.180 402.693, 51.604 401.589 C 51.925 400.753, 51.264 399.676, 50.022 399.012 C 47.894 397.873, 47.896 397.864, 50.695 395.123 C 52.238 393.611, 57.888 390.425, 63.250 388.041 C 68.612 385.658, 73 383.324, 73 382.854 C 73 382.384, 72.991 381.770, 72.980 381.490 C 72.936 380.379, 75.952 375.285, 77.331 374.140 C 78.135 373.473, 78.571 372.077, 78.300 371.038 C 77.910 369.547, 78.949 368.609, 83.250 366.575 C 86.243 365.159, 89.389 364, 90.240 364 C 91.091 364, 95.979 359.954, 101.102 355.008 C 106.225 350.062, 110.722 346.350, 111.096 346.758 C 111.469 347.166, 112.046 348.401, 112.376 349.502 C 112.852 351.087, 112.015 352.113, 108.358 354.426 C 101.104 359.016, 98 361.996, 98 364.373 C 98 367.130, 92.165 376.281, 88.084 379.925 C 86.388 381.439, 85 383.248, 85 383.945 C 85 384.642, 83.871 386.100, 82.490 387.186 C 79.893 389.229, 79.972 391, 82.662 391 C 84.768 391, 100.967 383.340, 103.273 381.253 C 104.965 379.722, 104.988 379.464, 103.523 378.393 C 102.109 377.359, 102.364 376.846, 105.620 374.162 C 107.659 372.481, 109.389 370.254, 109.466 369.212 C 109.676 366.357, 116.724 358.286, 119.465 357.762 C 124.521 356.795, 124.332 358.401, 117.951 370.610 C 114.534 377.150, 111.347 382.928, 110.869 383.450 C 110.391 383.973, 110 385.265, 110 386.322 C 110 387.980, 110.223 388.060, 111.619 386.902 C 112.509 386.163, 115.512 382.170, 118.293 378.029 C 129.070 361.979, 154.172 334.711, 164.353 327.994 C 167.734 325.764, 171.850 322.940, 173.500 321.720 C 175.150 320.499, 177.586 318.731, 178.914 317.791 C 180.242 316.851, 181.392 315.276, 181.470 314.291 C 181.549 313.306, 183.050 311.072, 184.806 309.327 C 191.444 302.732, 187.079 302.377, 172.862 308.353 C 168.263 310.287, 159.890 313.694, 154.256 315.924 C 148.623 318.154, 142.323 320.852, 140.256 321.921 C 125.880 329.356, 111.878 335, 107.811 335 C 106.800 335, 105.117 335.535, 104.071 336.188 C 102.626 337.090, 101.247 337.102, 98.334 336.236 C 96.225 335.609, 90.091 334.884, 84.702 334.625 C 75.034 334.161, 74.783 334.207, 65.702 338.131 C 55.809 342.406, 50.797 344.933, 50 346.049 C 49.725 346.434, 47.986 347.664, 46.135 348.783 C 42.366 351.062, 23.603 371.081, 21.490 375.077 C 20.016 377.866, 13.749 383.253, 7.750 386.890 C 3.648 389.377, 3.176 390.440, 5.578 391.784 C 6.919 392.534, 6.759 392.928, 4.517 394.397 C 0.994 396.705, 1.321 400.639, 5 400.205 C 6.375 400.043, 9.439 399.712, 11.809 399.470 C 14.179 399.228, 17.092 398.349, 18.282 397.515 C 21.311 395.394, 22.672 395.626, 22.579 398.250 C 22.513 400.118, 22.982 400.466, 25.341 400.299 C 26.904 400.189, 29.747 398.905, 31.660 397.446 C 34.665 395.154, 35.739 394.884, 39.569 395.458 C 42.006 395.824, 44 396.507, 44 396.977 C 44 397.446, 42.650 399.105, 41 400.662 C 39.350 402.219, 38 403.957, 38 404.524 C 38 405.091, 39.450 407.117, 41.222 409.027 C 42.995 410.937, 44.467 412.950, 44.495 413.500 C 44.522 414.050, 45.371 414.357, 46.380 414.181 C 47.390 414.006, 48.868 414.794, 49.665 415.931 C 50.461 417.069, 52.220 418, 53.572 418 C 57.822 418, 63.862 420.366, 64.347 422.220 C 64.877 424.247, 64.833 424.230, 75.429 426.605 C 82.510 428.193, 83.868 428.890, 88.114 433.114 C 90.729 435.715, 93.911 437.991, 95.185 438.172 C 97.416 438.488, 97.488 438.789, 97.178 446.500 C 97.001 450.900, 97.570 459.225, 98.443 465 C 99.315 470.775, 100.479 481.800, 101.030 489.500 C 101.580 497.200, 102.672 507.325, 103.455 512 C 104.239 516.675, 105.149 523.650, 105.478 527.500 C 105.807 531.350, 106.480 536.075, 106.973 538 C 107.467 539.925, 108.624 546.128, 109.545 551.785 C 111.362 562.941, 114.027 571.176, 116.040 571.847 C 117.001 572.167, 117.165 571.085, 116.717 567.385 C 116.337 564.245, 116.436 563.214, 116.993 564.500 C 117.469 565.600, 117.891 567.408, 117.930 568.518 C 117.968 569.628, 119.065 572.103, 120.366 574.018 C 121.667 575.933, 123.654 581.100, 124.782 585.500 C 126.681 592.911, 128.700 598.317, 130.944 602 C 131.446 602.825, 133.052 607.550, 134.512 612.500 C 137.201 621.611, 141.289 630, 143.042 630 C 143.569 630, 144.036 627.638, 144.079 624.750 C 144.122 621.862, 144.314 619.950, 144.504 620.500 C 144.695 621.050, 146.503 626.675, 148.522 633 C 151.824 643.342, 155.756 654.046, 163.666 674.233 C 166.271 680.880, 169.350 684.983, 170.712 683.621 C 171.755 682.578, 167.086 660.516, 162.011 642.500 C 156.799 624.001, 155.632 619.969, 154.399 616.203 C 153.031 612.026, 153.411 604, 154.977 604 C 155.374 604, 156.943 608.837, 158.465 614.750 C 159.987 620.663, 162.816 631.350, 164.751 638.500 C 168.420 652.055, 169.837 658.517, 172.402 673.385 C 173.246 678.273, 174.625 683.033, 175.468 683.964 C 176.310 684.896, 177 686.837, 177 688.280 C 177 689.722, 177.419 693.061, 177.931 695.701 C 179.435 703.450, 180.171 714.224, 179.154 713.595 C 178.649 713.283, 177.925 710.124, 177.545 706.576 C 176.829 699.888, 175.210 697.322, 172.391 698.404 C 171.127 698.889, 170.913 699.764, 171.447 702.265 C 172.590 707.623, 175.191 723.282, 175.499 726.661 C 175.901 731.082, 177.736 736.405, 181.517 744.119 C 187.458 756.238, 190.027 759.974, 192.848 760.596 C 194.307 760.918, 197.425 762.153, 199.779 763.341 C 203.502 765.219, 204.182 765.305, 205.013 764 C 206.521 761.634, 206.180 760.072, 203.636 757.702 C 202.336 756.491, 200.035 753.025, 198.522 750 C 197.010 746.975, 195.197 743.825, 194.495 743 C 193.793 742.175, 192.233 735.425, 191.028 728 C 189.823 720.575, 187.992 710.225, 186.960 705 C 185.928 699.775, 184.814 691.900, 184.486 687.500 C 183.876 679.316, 182.967 670.170, 181.007 652.500 C 178.684 631.554, 178.306 627.488, 178.648 627.083 C 179.495 626.081, 180.155 628.220, 180.975 634.632 C 182.138 643.722, 184.371 654.185, 185.542 656.023 C 186.059 656.835, 186.816 661.100, 187.225 665.500 C 187.633 669.900, 188.345 675.750, 188.806 678.500 C 189.566 683.032, 189.717 683.248, 190.417 680.807 C 190.841 679.326, 190.855 677.526, 190.447 676.807 C 189.839 675.734, 189.957 675.733, 191.103 676.800 C 192.186 677.807, 192.532 682.077, 192.643 695.800 C 192.721 705.535, 193.254 716.200, 193.828 719.500 C 194.401 722.800, 195.158 728.200, 195.509 731.500 C 196.007 736.174, 196.791 738.218, 199.060 740.750 C 200.661 742.538, 202.224 744, 202.531 744 C 202.839 744, 202.811 742.509, 202.469 740.686 C 202.023 738.308, 202.292 737.002, 203.424 736.063 C 204.838 734.889, 205 735.641, 205 743.378 C 205 751.146, 205.186 752, 206.878 752 C 211.173 752, 211.537 749.874, 210.426 731.250 C 209.941 723.122, 210.037 719, 210.713 719 C 211.274 719, 212.964 722.377, 214.469 726.504 C 215.974 730.632, 219.028 736.819, 221.254 740.254 C 228.686 751.719, 248.838 794.550, 250.957 803.384 C 256.165 825.092, 256.599 831.913, 254.111 853 C 250.789 881.155, 250.522 890.429, 252.466 910.012 C 253.451 919.941, 253.941 930.317, 253.597 934.004 C 252.088 950.204, 251.832 960.920, 252.504 979.825 C 253.103 996.703, 253.485 1000.249, 254.757 1000.737 C 255.637 1001.075, 256.909 1000.510, 257.744 999.412 C 258.889 997.907, 259.083 995.316, 258.656 987.250 C 258.148 977.683, 258.238 977, 259.997 977 C 262.520 977, 262.756 976.473, 264.068 967.897 C 265.282 959.960, 266.687 957.546, 270.674 956.546 C 274.811 955.507, 278.804 951.947, 280.453 947.827 C 281.545 945.097, 282 940.470, 282 932.102 C 282 923.129, 282.342 919.961, 283.407 919.077 C 284.555 918.124, 285.046 918.610, 286.065 921.704 C 286.753 923.792, 288.756 927.595, 290.515 930.155 C 292.275 932.715, 294.218 936.765, 294.834 939.155 C 298.395 952.979, 308.561 956.813, 319.954 948.628 C 322.732 946.633, 325.661 945, 326.464 945 C 327.341 945, 328.362 946.695, 329.024 949.250 C 332.628 963.167, 333.405 965.715, 334.659 967.750 C 335.561 969.213, 337.021 970, 338.832 970 C 344.104 970, 344.885 968.476, 346.527 955 C 348.472 939.040, 349.040 937.386, 356.392 926.247 L 362.500 916.995 363 929.037 C 363.383 938.253, 363.852 941.301, 365 942.024 C 367.196 943.408, 368.502 943.215, 370.222 941.250 C 371.433 939.867, 371.901 935.302, 372.452 919.500 C 372.836 908.500, 373.550 899.089, 374.038 898.587 C 376.077 896.490, 378.141 907.142, 379.922 928.962 C 380.663 938.028, 381.227 940.693, 382.620 941.712 C 386.896 944.838, 390.962 941.252, 391.081 934.250 L 391.162 929.500 392.831 933.038 C 393.749 934.983, 395.916 938.808, 397.648 941.538 C 399.379 944.267, 401.292 948.885, 401.898 951.800 C 404.155 962.649, 408.029 966.062, 412.741 961.350 C 415.071 959.020, 415.204 958.399, 414.501 953.164 C 414.082 950.049, 413.610 937.375, 413.453 925 L 413.166 902.500 418.083 915.840 C 420.787 923.178, 423 929.970, 423 930.935 C 423 932.808, 425.966 936, 427.706 936 C 428.283 936, 429.315 935.325, 430 934.500 C 432.871 931.040, 438.507 933.372, 441.426 939.227 C 442.032 940.444, 443.725 942.111, 445.186 942.931 C 447.468 944.212, 448.207 944.227, 450.421 943.042 C 453.653 941.313, 453.639 940.624, 450.094 926.818 C 445.112 907.418, 438.733 866.620, 436.997 843.063 C 436.162 831.730, 435.572 828.646, 433.410 824.309 C 431.802 821.086, 430.626 816.726, 430.307 812.809 C 430.025 809.339, 428.940 804.670, 427.897 802.434 C 426.155 798.701, 425.998 795.631, 425.972 764.934 C 425.942 730.165, 424.787 699.524, 423.053 687.500 C 422.497 683.650, 421.730 676, 421.348 670.500 C 420.966 665, 420.473 661.288, 420.253 662.250 C 419.658 664.854, 417.999 664.407, 412.827 660.250 C 409.240 657.366, 408.005 655.618, 407.482 652.683 C 407.108 650.583, 407.081 648.585, 407.424 648.243 C 407.766 647.901, 410.189 649.731, 412.807 652.310 C 415.426 654.890, 418.003 657, 418.534 657 C 419.129 657.001, 419.386 650.443, 419.204 639.928 L 418.907 622.855 421.954 618.256 C 424.897 613.813, 425 613.274, 425 602.388 C 425 590.150, 424.047 587.843, 420.822 592.270 C 419.790 593.686, 418.116 595.870, 417.101 597.123 C 415.262 599.395, 415.258 599.387, 415.975 594.666 C 416.448 591.550, 417.629 588.953, 419.428 587.075 C 423.241 583.095, 424.099 578.105, 423.049 566.015 C 422.526 559.999, 422.524 553.397, 423.044 550.114 C 423.534 547.026, 424.419 537.542, 425.012 529.039 C 425.604 520.535, 426.290 513.376, 426.536 513.131 C 426.782 512.885, 426.506 512.110, 425.924 511.409 C 425.160 510.488, 425.361 509.378, 426.651 507.410 C 428.953 503.897, 430.140 477.598, 427.899 479.751 C 426.570 481.029, 422.277 510.672, 421.925 521 L 421.737 526.500 420.712 521.153 C 419.927 517.060, 420.085 512.601, 421.386 502.153 C 422.322 494.644, 423.524 478.375, 424.058 466 C 424.592 453.625, 425.227 442.955, 425.469 442.288 C 425.711 441.621, 425.204 437.796, 424.344 433.788 C 423.050 427.760, 422.881 421.917, 423.371 400 C 423.696 385.425, 424.664 365.850, 425.521 356.500 C 426.379 347.150, 427.283 334.484, 427.531 328.354 L 427.982 317.208 423.873 316.816 C 420.472 316.492, 419.617 316.776, 418.913 318.462 C 417.994 320.664, 414.731 340.259, 412.995 354 C 411.840 363.147, 409.815 376.393, 407.492 390 C 405.163 403.645, 402.205 431.432, 401.584 445.500 C 400.518 469.658, 400.991 500.558, 402.463 502.941 C 402.865 503.591, 404.321 504.552, 405.699 505.076 C 407.549 505.779, 408.018 506.481, 407.492 507.764 C 401.626 522.082, 398.996 536.080, 398.564 555.279 C 398.406 562.307, 397.989 568.344, 397.638 568.695 C 396.139 570.194, 396.613 530.105, 398.178 523 C 398.723 520.525, 399.346 510.063, 399.562 499.750 C 399.883 484.401, 399.707 481, 398.592 481 C 395.817 481, 398.368 422.578, 402.500 391.500 C 405.555 368.529, 407.035 358.066, 409.151 344.500 C 410.352 336.800, 411.207 328.700, 411.050 326.500 C 410.533 319.233, 410.684 315.595, 411.871 306.645 C 413.192 296.685, 415.635 290.467, 420.657 284.282 C 422.540 281.962, 425.233 277.462, 426.641 274.282 C 428.048 271.102, 430.695 265.575, 432.523 262 C 435.173 256.815, 436.069 253.477, 436.950 245.500 C 437.557 240, 439.120 229.425, 440.422 222 C 441.724 214.575, 445.133 195, 447.996 178.500 C 453.919 144.373, 454.400 143.080, 462.548 139.349 C 467.291 137.178, 467.878 136.543, 468.902 132.476 C 471.383 122.621, 473.943 117.557, 477.930 114.618 C 480.898 112.431, 482.618 109.901, 485.069 104.118 C 488.557 95.892, 488.999 91.174, 486.623 87.548 C 484.762 84.707, 480.672 83.570, 477.815 85.099 C 472.813 87.776, 463.077 95.596, 457.500 101.416 C 454.200 104.859, 450.375 107.926, 449 108.230 C 446.395 108.806, 433.377 113.932, 429.890 115.755 C 429.555 115.930, 428.714 114.050, 428.021 111.577 C 426.745 107.017, 427.144 101.882, 429.178 96.711 C 430.124 94.306, 429.956 93.583, 427.963 91.461 C 425.244 88.566, 420.982 88.237, 418.769 90.750 C 417.921 91.713, 416.100 94.750, 414.722 97.500 C 413.344 100.250, 411.202 103.400, 409.961 104.500 L 407.707 106.500 408.282 101 C 408.599 97.975, 410.690 90.599, 412.929 84.609 C 415.168 78.619, 417 72.936, 417 71.981 C 417 69.365, 414.381 67.717, 411.009 68.212 C 407.483 68.730, 407.178 67.490, 409.655 62.700 C 410.989 60.122, 416.955 43.476, 419.708 34.652 C 420.464 32.229, 412.530 24.776, 409.649 25.204 C 406.784 25.629, 401.178 34.132, 397.961 42.933 C 392.365 58.239, 388.211 66.522, 386.291 66.200 C 384.043 65.823, 383.010 65.823, 380.500 66.200 C 378.783 66.457, 378.500 65.933, 378.500 62.500 C 378.500 59.263, 378.055 58.309, 376.168 57.500 C 374.154 56.636, 373.923 56.023, 374.471 53 C 374.821 51.075, 375.503 46.800, 375.989 43.500 C 376.474 40.200, 377.451 34.874, 378.160 31.665 C 379.340 26.322, 379.298 25.746, 377.663 24.831 C 376.347 24.095, 376.037 23.110, 376.483 21.079 C 376.816 19.562, 376.385 16.259, 375.523 13.721 C 374.663 11.187, 374.057 7.838, 374.176 6.279 C 374.623 0.413, 372.422 -0.310, 366.498 3.754 M 239 133.258 C 239 134.172, 245.749 140.967, 249.420 143.750 C 253.618 146.932, 254.847 146.558, 250.827 143.323 C 248.997 141.850, 245.588 138.831, 243.250 136.614 C 240.912 134.397, 239 132.887, 239 133.258 M 153.474 135.043 C 152.946 135.897, 159.343 145, 160.471 145 C 160.656 145, 159.467 142.525, 157.829 139.500 C 154.646 133.624, 154.465 133.439, 153.474 135.043 M 272.500 146.413 C 274.700 147.105, 276.950 147.420, 277.500 147.112 C 278.050 146.804, 280.525 146.263, 283 145.910 C 286.311 145.437, 284.989 145.252, 278 145.210 C 268.951 145.156, 268.690 145.214, 272.500 146.413 M 240.637 194.631 C 239.628 201.992, 239.792 204.608, 241.176 203.224 C 243.700 200.700, 244.998 203.923, 245.060 212.872 C 245.092 217.618, 245.559 223.750, 246.096 226.500 C 246.634 229.250, 247.714 243.650, 248.497 258.500 C 249.280 273.350, 250.596 289.100, 251.422 293.500 C 252.249 297.900, 253.683 308.925, 254.609 318 C 255.535 327.075, 256.695 334.945, 257.185 335.488 C 258.620 337.079, 257.971 290.891, 256.370 277.500 C 255.116 267.008, 253.705 253.760, 249.979 217.500 C 249.470 212.550, 249.042 205.766, 249.027 202.424 C 249.005 197.395, 248.613 196.009, 246.750 194.377 C 241.301 189.601, 241.327 189.600, 240.637 194.631 M 226.544 265.750 C 226.931 269.462, 227.657 273.288, 228.159 274.250 C 229.215 276.278, 231.641 276.574, 232.252 274.750 C 233.246 271.783, 228.961 259, 226.971 259 C 226.173 259, 226.047 260.982, 226.544 265.750 M 136 330.949 C 132.817 332.641, 126.888 338, 128.200 338 C 129.498 338, 137.843 332.831, 139.498 331.002 C 141.734 328.531, 140.582 328.513, 136 330.949 M 84.638 340.500 C 84.322 341.325, 83.266 342, 82.292 342 C 78.995 342, 72.008 345.460, 72.004 347.095 C 72.002 347.972, 71.079 349.524, 69.953 350.542 C 68.827 351.561, 66.060 355.119, 63.803 358.447 C 61.546 361.776, 58.417 365.978, 56.850 367.785 C 55.096 369.806, 54 372.210, 54 374.035 C 54 377.811, 54.710 377.730, 58.947 373.473 C 60.843 371.568, 63.164 369.765, 64.105 369.467 C 66.563 368.687, 67.245 366.102, 65.463 364.320 C 64.504 363.361, 64.178 361.989, 64.590 360.645 C 65.388 358.045, 64.704 358.647, 69.750 356.103 C 72.088 354.924, 74 353.448, 74 352.824 C 74 350.249, 79.125 345.224, 83.426 343.582 C 85.942 342.621, 88 341.197, 88 340.417 C 88 338.532, 85.369 338.597, 84.638 340.500 M 276.634 345.783 C 276.069 346.697, 277.671 390.450, 278.489 396.441 C 278.960 399.893, 282 434.182, 282 436.044 C 282 436.880, 286.694 439, 288.547 439 C 291.694 439, 290.337 418.644, 284.412 377 C 283.590 371.225, 282.486 362.068, 281.957 356.652 C 281.429 351.235, 280.746 346.397, 280.439 345.902 C 279.754 344.793, 277.293 344.716, 276.634 345.783 M 83.145 350.345 C 80.651 353.001, 80.409 355.264, 82.440 356.950 C 84.266 358.466, 89.204 357.930, 89.789 356.153 C 90.143 355.075, 89.804 355.034, 88.095 355.949 C 86.920 356.578, 85.518 356.820, 84.979 356.487 C 83.406 355.515, 83.852 351.182, 85.628 350.188 C 86.553 349.670, 86.832 349.014, 86.274 348.669 C 85.733 348.335, 84.325 349.089, 83.145 350.345 M 81.760 396.294 C 77.622 398.734, 76.838 401, 80.132 401 C 82.969 401, 89 397.204, 89 395.418 C 89 393.389, 86.090 393.741, 81.760 396.294 M 116 398.144 C 112.425 400.330, 110.400 401.899, 111.500 401.629 C 112.600 401.359, 116.088 400.625, 119.250 399.998 C 122.412 399.371, 125 398.477, 125 398.011 C 125 397.545, 125.273 396.452, 125.607 395.582 C 126.637 392.897, 122.987 393.870, 116 398.144 M 86.182 400.552 C 78.946 403.623, 74.103 409, 78.572 409 C 80.477 409, 88.346 404.493, 90.073 402.412 C 92.063 400.014, 89.894 398.977, 86.182 400.552 M 161.520 426.750 C 161.873 429.363, 162.552 432.850, 163.028 434.500 C 165.903 444.451, 168.866 475.504, 168.897 496 C 168.910 505.075, 169.388 515.875, 169.958 520 C 173.005 542.047, 174.237 557.010, 174.135 570.750 C 174.073 579.138, 174.387 586, 174.833 586 C 176.163 586, 178.450 567.149, 178.229 558 C 177.863 542.776, 175.995 527.933, 171.875 507.500 C 171.147 503.890, 170.502 488.951, 170.254 470 C 169.885 441.681, 169.665 438.298, 168.079 436.500 C 167.108 435.400, 165.289 431.688, 164.035 428.250 C 162.782 424.813, 161.558 422, 161.317 422 C 161.075 422, 161.166 424.137, 161.520 426.750 M 114.772 440.253 C 111.702 446.156, 110.460 450.714, 109.497 459.612 C 108.946 464.703, 109.104 465.826, 110.442 466.339 C 111.325 466.678, 112.424 467.971, 112.883 469.211 C 113.525 470.948, 113.879 469.860, 114.420 464.484 C 115.353 455.210, 115.779 454, 118.116 454 C 120.281 454, 123.939 460.708, 123.978 464.750 C 123.990 465.988, 124.340 467, 124.756 467 C 125.692 467, 129.423 475.119, 130.959 480.500 C 131.587 482.700, 132.416 488.672, 132.800 493.772 C 133.568 503.938, 135.367 505.933, 135.713 497 C 136.234 483.568, 137.334 472.401, 138.250 471.250 C 139.709 469.417, 143.786 469.726, 144.847 471.750 C 145.351 472.712, 146.528 480.025, 147.463 488 C 149.377 504.334, 151.796 513.784, 153.136 510.162 C 153.576 508.973, 154.544 508, 155.289 508 C 157.642 508, 159.313 483.948, 157.963 469.504 C 157.347 462.907, 156.653 457.319, 156.421 457.088 C 156.189 456.856, 156 457.255, 156 457.973 C 156 458.692, 155.266 459.816, 154.370 460.471 C 153.473 461.127, 152.453 463.427, 152.103 465.582 C 151.451 469.592, 149.351 470.832, 148.005 468 C 145.155 461.999, 144.095 458.987, 143.608 455.500 C 142.814 449.823, 140.074 441, 139.104 441 C 138.653 441, 138.011 443.617, 137.677 446.816 C 136.913 454.124, 134.974 460.009, 132.905 461.300 C 132.027 461.847, 130.151 462.004, 128.734 461.648 C 125.537 460.846, 124.580 457.212, 125.540 449.524 L 126.230 444.004 123.342 444.582 C 119.363 445.377, 116.500 442.249, 117.345 438.027 C 117.678 436.362, 117.849 435.002, 117.725 435.003 C 117.601 435.005, 116.272 437.368, 114.772 440.253 M 184 440.726 C 184 444.073, 181.207 446.181, 178.613 444.793 C 176.975 443.916, 176.801 444.038, 177.418 445.634 C 177.815 446.660, 178.587 451.100, 179.135 455.500 C 180.561 466.950, 181.362 470.508, 182.500 470.443 C 183.050 470.412, 183.729 469.062, 184.010 467.443 C 184.307 465.730, 185.143 464.500, 186.010 464.500 C 187.553 464.500, 187.670 465.929, 187.909 487.750 L 188 496 190.851 496 C 196.002 496, 200 494.038, 200 491.511 C 200 489.898, 199.258 489.031, 197.500 488.589 C 193.890 487.683, 194.264 485, 198 485 C 199.650 485, 201 484.832, 201 484.626 C 201 481.931, 192.621 463.773, 189.291 459.250 C 186.597 455.592, 184 449.839, 184 447.532 C 184 444.748, 185.927 445.938, 188 450 C 189.122 452.200, 190.637 454, 191.365 454 C 192.094 454, 193.505 454.900, 194.500 456 C 195.495 457.100, 196.827 458, 197.459 458 C 199.416 458, 204.784 464.274, 206.871 469 C 208.303 472.241, 208.878 472.880, 208.929 471.284 C 208.968 470.065, 208.231 467.455, 207.291 465.484 C 205.920 462.609, 205.818 461.521, 206.775 459.989 C 207.431 458.939, 207.700 457.381, 207.372 456.527 C 207.044 455.673, 207.293 454.351, 207.926 453.590 C 209.380 451.837, 206.359 445.676, 201.993 441.493 C 198.549 438.194, 198.424 438.376, 200.584 443.546 C 202.186 447.380, 201.372 452, 199.096 452 C 198.575 452, 196.202 449.217, 193.824 445.817 C 190.971 441.736, 188.565 439.385, 186.750 438.903 C 184.277 438.247, 184 438.431, 184 440.726 M 414.417 487.695 C 413.962 492.538, 413.569 496.837, 413.544 497.250 C 413.520 497.663, 413.950 498.078, 414.500 498.173 C 416.420 498.507, 421 487.741, 420.743 483.500 C 420.530 480, 420.172 479.462, 417.873 479.195 C 415.265 478.893, 415.239 478.957, 414.417 487.695 M 248.709 504.624 C 248.319 505.014, 248 506.143, 248 507.131 C 248 508.120, 247.196 509.360, 246.213 509.886 C 244.434 510.838, 244.043 512.565, 241.092 532.500 C 240.522 536.350, 239.380 541.916, 238.553 544.870 C 237.727 547.823, 236.127 557.273, 234.997 565.870 C 232.332 586.150, 227.845 608.372, 224.835 616.203 C 224.013 618.342, 224.270 620.324, 226.067 625.703 C 228.694 633.565, 229.120 644.584, 227.112 652.697 L 225.826 657.895 232.101 669.370 C 235.552 675.682, 239.979 683.018, 241.938 685.673 L 245.500 690.500 245.794 684.391 C 245.956 681.030, 245.590 674.055, 244.980 668.891 C 244.371 663.726, 243.723 655.675, 243.540 651 C 243.148 640.993, 241.624 626.134, 240.053 617 C 239.178 611.912, 239.243 608.197, 240.354 599.897 C 241.134 594.065, 242.290 588.327, 242.921 587.147 C 244.159 584.835, 247.430 584.269, 248.601 586.163 C 248.996 586.803, 249.305 592.991, 249.288 599.913 C 249.260 610.640, 249.347 611.362, 249.878 604.796 C 250.220 600.559, 251.063 596.532, 251.750 595.846 C 254.206 593.398, 253.320 589.532, 246.745 574 C 245.754 571.659, 245.065 565.174, 244.665 554.415 L 244.067 538.331 247.996 536.122 C 252.825 533.408, 253.496 530.892, 253.498 515.500 C 253.500 505.188, 253.372 504.482, 251.459 504.208 C 250.336 504.047, 249.099 504.235, 248.709 504.624 M 392 569.084 C 392 570.413, 391.333 574.651, 390.517 578.500 C 389.017 585.584, 388.524 599.621, 389.630 603.750 C 390.683 607.677, 391.774 606.176, 391.250 601.523 C 390.972 599.061, 391.296 590.479, 391.970 582.454 C 392.644 574.428, 392.926 567.593, 392.597 567.264 C 392.269 566.936, 392 567.754, 392 569.084 M 118.397 582.408 C 117.610 584.458, 119.559 591.609, 121.176 592.609 C 121.984 593.108, 122.099 591.790, 121.587 587.901 C 120.806 581.965, 119.458 579.643, 118.397 582.408 M 212.199 594.027 C 212.089 595.418, 211.390 597.443, 210.644 598.527 C 209.898 599.612, 209.051 603.200, 208.760 606.500 C 208.449 610.034, 207.340 614.011, 206.061 616.175 L 203.891 619.851 206.495 624.989 C 208.300 628.552, 209.614 630.028, 210.779 629.804 C 212.102 629.549, 212.394 628.569, 212.150 625.189 C 211.979 622.829, 212.365 620.266, 213.006 619.493 C 213.647 618.720, 213.911 617.666, 213.593 617.150 C 213.274 616.635, 213.655 614.395, 214.439 612.173 C 215.655 608.725, 215.661 607.963, 214.474 606.979 C 213.595 606.249, 212.958 603.193, 212.741 598.662 C 212.552 594.723, 212.308 592.637, 212.199 594.027 M 185.003 600.536 C 185.007 607.734, 188.671 625.496, 191.040 629.803 L 193.073 633.500 192.465 627.500 C 192.130 624.200, 190.457 617.295, 188.747 612.155 C 186.108 604.226, 185.829 602.503, 186.906 600.779 C 187.962 599.087, 187.909 598.481, 186.588 597.159 C 185.137 595.709, 185 596.001, 185.003 600.536 M 402 606.253 C 402 608.720, 408.839 618.494, 409.855 617.478 C 410.163 617.171, 409.355 614.800, 408.059 612.210 C 406.764 609.619, 405.402 606.852, 405.031 606.060 C 403.865 603.568, 402 603.686, 402 606.253 M 200.452 635.500 C 200.846 637.700, 201.694 640.175, 202.335 641 C 202.976 641.825, 204.579 644.646, 205.899 647.268 C 209.875 655.173, 209.246 651.991, 204.844 641.931 C 200.016 630.899, 199.488 630.125, 200.452 635.500 M 279.645 635.735 C 278.075 641.286, 278.013 646.456, 279.433 653.332 C 280.295 657.503, 281 662.875, 281 665.270 C 281 668.887, 281.800 670.714, 285.727 676.062 C 293.293 686.365, 294.748 686.668, 291.424 677.250 C 290.114 673.538, 289.033 669.345, 289.021 667.932 C 289.009 666.520, 288.111 662.020, 287.024 657.932 C 285.936 653.845, 285.034 649.375, 285.017 648 C 285.001 646.625, 284.315 644.211, 283.494 642.636 C 282.672 641.060, 282 638.724, 282 637.445 C 282 634.559, 280.322 633.341, 279.645 635.735 M 295 708.180 C 296.925 710.019, 299.878 713.292, 301.562 715.453 C 304.269 718.926, 305.140 719.394, 309.062 719.488 C 313.274 719.588, 313.516 719.753, 313.808 722.719 C 314.174 726.443, 317.528 728, 325.181 728 C 331.248 728, 336.007 729.922, 338.832 733.514 C 341.350 736.714, 341.686 742.171, 339.500 744.357 C 337.744 746.114, 337.627 747.378, 339 749.764 C 339.549 750.719, 340.457 752.786, 341.016 754.359 C 341.869 756.755, 342.276 757.016, 343.535 755.971 C 344.759 754.955, 345.424 755.074, 347.122 756.610 L 349.206 758.496 348.543 752.498 C 348.179 749.199, 346.600 742.900, 345.034 738.500 C 343.469 734.100, 341.791 729.211, 341.306 727.635 C 340.630 725.442, 339.290 724.340, 335.586 722.934 C 330.199 720.889, 324.394 717.216, 318.747 712.280 C 316.026 709.902, 314.024 709, 311.465 709 C 309.524 709, 306.480 708.392, 304.701 707.649 C 302.922 706.905, 299.224 705.969, 296.483 705.567 L 291.500 704.837 295 708.180 M 236.037 733.377 C 237.014 736.899, 238.334 740.756, 238.971 741.946 C 239.608 743.137, 239.955 744.634, 239.742 745.273 C 239.529 745.912, 237.588 743.190, 235.428 739.224 C 233.267 735.258, 231.151 732.010, 230.724 732.007 C 230.298 732.003, 230.714 733.462, 231.650 735.250 C 232.586 737.038, 236.176 744.793, 239.628 752.484 C 243.079 760.175, 246.375 766.625, 246.952 766.817 C 248.455 767.318, 248.205 765.269, 246 759 C 244.936 755.975, 244.051 751.284, 244.033 748.575 C 244.009 744.981, 243.026 741.679, 240.401 736.365 C 235.460 726.365, 233.772 725.209, 236.037 733.377 M 181 758.944 C 181 762.752, 181.561 764.533, 183.439 766.694 C 185.446 769.002, 186.200 769.304, 187.689 768.398 C 188.685 767.792, 189.631 766.427, 189.791 765.365 C 190.082 763.435, 183.503 754, 181.866 754 C 181.390 754, 181 756.225, 181 758.944 M 392.505 791.554 C 393.405 806.354, 394.571 809.082, 395.448 798.441 C 396.715 783.054, 396.706 782.928, 394.139 781.199 L 391.778 779.609 392.505 791.554 M 270.652 796.165 C 269.514 800.416, 269.975 811.056, 271.917 825.370 C 272.972 833.142, 274.369 846.227, 275.023 854.450 C 276.329 870.869, 278.149 878.945, 277.275 864.438 C 276.957 859.172, 277.149 854.564, 277.732 853.438 C 278.741 851.489, 278.044 843.819, 274.555 818.500 C 273.721 812.450, 273.023 805.025, 273.004 802 C 272.964 795.684, 271.653 792.430, 270.652 796.165 M 341.223 809.941 C 341.387 819.065, 341.907 825.470, 342.500 825.665 C 344.020 826.167, 343.684 797.284, 342.151 795.751 C 341.210 794.810, 341.006 797.924, 341.223 809.941 M 369.163 843.038 C 369.858 845.031, 371.121 845.942, 374.292 846.737 C 376.607 847.317, 380.969 848.739, 383.986 849.896 C 390.155 852.262, 391 852.401, 391 851.053 C 391 849.860, 381.436 845, 379.087 845 C 378.126 845, 375.292 843.964, 372.790 842.697 L 368.241 840.394 369.163 843.038"/>
</svg>