<?xml version="1.0" encoding="utf-8"?>
<svg xmlns="http://www.w3.org/2000/svg" width="1002" height="490" viewBox="0 0 1002 490">
  <path fill-rule="evenodd" d="M 848.162 3.138 C 835.426 4.471, 822.602 9.156, 812.255 16.258 C 800.029 24.648, 790.908 29.965, 774.057 38.524 C 753.921 48.752, 739.463 57.647, 727.698 67.046 C 722.197 71.442, 716.595 75.315, 715.249 75.652 C 713.901 75.991, 708.688 75.215, 703.651 73.927 C 693.672 71.376, 685.904 71.136, 619.500 71.332 C 603.550 71.379, 583.300 71.436, 574.500 71.459 C 561.146 71.493, 557.976 71.213, 555.328 69.765 C 553.213 68.607, 552.033 68.400, 551.786 69.141 C 551.543 69.870, 550.053 69.560, 547.458 68.240 C 540.756 64.833, 524.344 60.291, 505.500 56.628 C 495.600 54.704, 480.367 51.498, 471.649 49.505 C 450.088 44.574, 443.519 43.972, 423.500 45.087 C 375.590 47.756, 357.917 51.950, 317.500 70.245 C 307.516 74.765, 291.842 86.833, 277.310 101.192 L 269.119 109.284 258.810 110.608 C 240.802 112.922, 233.596 116.069, 217.200 128.781 C 213.734 131.467, 205.075 136.874, 197.957 140.797 C 190.839 144.719, 178.374 152.594, 170.258 158.296 C 140.705 179.059, 126.935 187.597, 119.500 189.769 C 106.987 193.425, 98.422 194.968, 76.278 197.560 C 46.895 200.999, 37.309 203.038, 27.347 207.967 C 20.373 211.417, 17.922 213.386, 10.406 221.574 C 0.929 231.898, 0.861 232.298, 8.382 233.329 C 10.667 233.642, 15.003 235.026, 18.018 236.404 C 21.033 237.782, 27.550 239.850, 32.500 241.001 C 37.450 242.151, 47.125 244.937, 54 247.192 C 65.697 251.029, 67.412 251.322, 80.706 251.756 C 97.195 252.295, 102.587 251.375, 124.500 244.281 C 142.413 238.483, 146.700 236.278, 168.396 221.703 C 190.409 206.915, 210.602 191.704, 222.500 180.948 C 234.296 170.283, 234.947 169.998, 239.792 173.356 C 241.902 174.818, 246.829 179.048, 250.743 182.757 C 256.422 188.139, 258.089 190.408, 259.004 194 C 261.426 203.514, 267.391 218.685, 270.320 222.779 C 274.762 228.988, 286.101 235.975, 303.856 243.441 C 314.602 247.961, 346.469 255.944, 356.500 256.629 L 365.500 257.245 370.309 261.872 C 376.839 268.155, 383.219 278.075, 388.941 290.842 C 397.014 308.856, 399.957 318.710, 401.144 331.700 C 402.626 347.911, 401.639 377.415, 399.044 394.500 C 395.579 417.313, 395.385 422.269, 397.802 426.177 C 401.997 432.959, 411.736 440.021, 439.539 456.440 C 446.710 460.676, 456.564 467.280, 461.436 471.117 C 466.308 474.954, 473.491 480.189, 477.397 482.749 L 484.500 487.404 506 488.339 C 534.736 489.588, 572.864 487.284, 579.152 483.918 C 582.300 482.234, 581.255 479.780, 573.863 471.497 C 564.116 460.575, 561.390 459.072, 549.303 457.947 C 543.911 457.446, 534.100 456.373, 527.500 455.564 C 520.900 454.755, 512.437 453.792, 508.694 453.424 C 501.259 452.693, 497.253 450.316, 483 438.180 C 476.368 432.533, 460 416.357, 460 415.450 C 460 414.654, 465.995 417.947, 472.233 422.171 C 480.903 428.040, 504.907 440, 508.017 440 C 509.525 440, 513.400 438.788, 516.629 437.306 C 519.858 435.824, 524.750 434.105, 527.500 433.486 L 532.500 432.361 536.397 421.930 C 539.233 414.340, 540.274 410.046, 540.222 406.158 C 540.182 403.220, 539.886 400.553, 539.565 400.232 C 539.244 399.910, 533.379 399.271, 526.532 398.812 L 514.084 397.976 499.292 390.309 C 481.800 381.243, 473.513 375.314, 472.708 371.289 C 472.400 369.749, 471.371 360.841, 470.421 351.494 C 468.909 336.612, 468.839 331.828, 469.858 313 C 470.498 301.175, 471.017 290.488, 471.011 289.250 C 471.004 287.899, 471.607 287, 472.520 287 C 475.040 287, 481.921 291.849, 487.910 297.845 C 492.500 302.441, 496.403 304.905, 508.745 311 C 517.098 315.125, 523.939 318.950, 523.948 319.500 C 523.956 320.050, 517.154 324.775, 508.833 330 C 471.464 353.464, 475.630 349.957, 476.294 357.391 C 476.594 360.751, 477.575 365.884, 478.473 368.797 C 480.407 375.073, 481.715 376.018, 496.782 382.019 L 507.343 386.226 512.922 383.930 C 515.990 382.668, 523.450 379.259, 529.500 376.355 L 540.500 371.075 541.679 373.787 C 543.890 378.878, 545.371 390.485, 545.404 403 C 545.436 414.758, 545.241 416.018, 542.135 424.220 C 537.627 436.124, 535.545 437.807, 520.138 442.004 C 513.462 443.822, 508 445.619, 508 445.997 C 508 447.666, 516.749 448.907, 532.500 449.472 C 552.493 450.189, 560.216 451.341, 565.575 454.403 L 569.500 456.646 578.405 448.573 C 589.154 438.829, 591.455 433.928, 593.936 415.483 C 594.452 411.642, 595.566 405.326, 596.410 401.447 C 597.364 397.061, 598.297 384.586, 598.878 368.447 C 599.391 354.176, 600.333 340.783, 600.970 338.685 C 602.683 333.049, 604.918 331.394, 612.626 330.053 C 624.204 328.039, 649.471 321.211, 655.652 318.426 C 668.119 312.808, 679.757 308.126, 685.154 306.557 C 689.775 305.214, 692.921 303.083, 702.642 294.710 C 719.863 279.877, 726.585 272.502, 734.935 259.276 C 750.492 234.637, 750.321 234.851, 760.684 226.864 C 766.083 222.703, 773.650 216.405, 777.500 212.868 C 789.824 201.547, 816.114 180.327, 826.500 173.317 C 834.778 167.730, 847.601 161.327, 853 160.085 C 855.475 159.515, 859.605 159.038, 862.177 159.024 C 865.570 159.007, 868.729 158.018, 873.677 155.425 C 881.595 151.276, 882.244 151.295, 897.750 156.136 C 905.986 158.706, 908 159.705, 908 161.217 C 908 163.906, 910.641 168.648, 912.545 169.379 C 915.416 170.481, 921.967 170.041, 925.658 168.499 C 928.853 167.163, 929.811 167.163, 934.307 168.499 C 941.283 170.570, 946.587 170.378, 951.774 167.867 C 959.272 164.238, 965.224 153.385, 961.908 149.389 C 961.172 148.502, 960.715 146.061, 960.874 143.859 C 961.056 141.342, 960.407 138.475, 959.079 135.928 C 957.936 133.734, 957 131.338, 957 130.604 C 957 129.870, 956.066 128.083, 954.925 126.632 C 952.413 123.438, 951.770 123.714, 967.924 121.040 C 974.757 119.909, 982.006 118.537, 984.034 117.991 C 988.363 116.825, 996.390 110.080, 998.650 105.709 C 1000.757 101.636, 1001.758 83.285, 1000.048 80.090 C 997.557 75.436, 985.285 71.617, 959.884 67.591 C 948.495 65.786, 942.362 63.856, 935.284 59.847 C 929.597 56.625, 930.448 58.339, 924.933 39.010 C 922.956 32.077, 922.272 31.016, 915.766 24.776 C 904.524 13.993, 897.132 9.488, 884.119 5.493 C 871.804 1.712, 865.646 1.309, 848.162 3.138 M 880.296 27.750 C 880.640 34.993, 880.294 50.434, 879.495 63.500 C 878.008 87.834, 876.622 94.751, 872.679 97.512 C 868.658 100.329, 865.706 99.295, 853.894 90.935 C 839.260 80.576, 837.489 78.842, 833.501 70.967 C 829.891 63.837, 819.035 48.530, 815.632 45.772 C 812.991 43.632, 808.660 43.499, 806.994 45.507 C 805.993 46.713, 805.997 47.919, 807.015 51.553 C 807.858 54.564, 808.101 59.443, 807.737 66.045 C 807.145 76.791, 807.978 78.980, 811.162 75.048 C 812.348 73.583, 813.005 71.134, 813.015 68.139 C 813.035 62.030, 814.177 60.120, 816.674 62.014 C 821.988 66.047, 824.654 69.389, 829.663 78.303 C 836.086 89.733, 838.971 92.229, 855.332 100.515 C 868.010 106.935, 872.092 107.476, 876.959 103.381 C 878.671 101.940, 880.679 99.578, 881.421 98.131 C 883.603 93.878, 885.142 72.517, 885.222 45.390 C 885.287 23.361, 885.081 19.773, 883.625 17.551 C 880.273 12.434, 879.659 14.316, 880.296 27.750 M 854.500 18.506 C 850.168 20.043, 847 23.192, 847 25.962 C 847 28.446, 849.052 34, 849.970 34 C 850.396 34, 851.020 32.275, 851.357 30.167 C 851.808 27.351, 852.650 26.025, 854.532 25.167 C 858.440 23.387, 858.750 23.582, 861.791 29.748 C 863.436 33.085, 865.394 35.645, 866.459 35.850 C 867.901 36.128, 868.127 35.809, 867.517 34.351 C 865.804 30.257, 865.739 28, 867.332 28 C 868.744 28, 868.749 27.631, 867.385 24.250 C 865.687 20.045, 862.604 16.978, 860.139 17.044 C 859.238 17.068, 856.700 17.726, 854.500 18.506 M 911.192 50.914 C 907.723 53.607, 905.274 56.051, 905.750 56.345 C 906.225 56.639, 908.944 57.189, 911.790 57.567 C 916.040 58.130, 917.076 57.966, 917.582 56.647 C 918.345 54.659, 918.685 45.994, 918 46.008 C 917.725 46.013, 914.661 48.221, 911.192 50.914 M 981.003 79.139 C 981.005 80.843, 982.048 82.056, 984.753 83.500 C 987.755 85.102, 988.563 86.156, 988.817 88.800 C 989.055 91.272, 989.780 92.346, 991.706 93.078 C 993.120 93.616, 994.395 93.931, 994.539 93.778 C 994.683 93.625, 994.958 90.800, 995.150 87.500 C 995.500 81.507, 995.496 81.498, 992 79.817 C 990.075 78.891, 986.813 77.829, 984.750 77.456 C 981.283 76.829, 981 76.956, 981.003 79.139 M 608.203 91.941 C 592.684 99.359, 589.984 101.211, 590.030 104.405 C 590.048 105.737, 587.629 108.713, 583.388 112.576 C 575.243 119.996, 575.244 122.403, 583.390 116.915 C 586.630 114.733, 589.476 113.142, 589.714 113.381 C 590.231 113.898, 587.857 118.198, 584.457 122.898 C 581.940 126.379, 581.152 131, 583.076 131 C 583.667 131, 587.302 129.160, 591.153 126.911 C 595.004 124.662, 598.399 123.065, 598.697 123.363 C 598.995 123.662, 597.483 126.739, 595.337 130.203 C 593.190 133.666, 590.893 138.621, 590.231 141.212 C 589.569 143.804, 587.619 148.214, 585.897 151.012 C 584.176 153.811, 582.973 156.306, 583.224 156.558 C 584.467 157.800, 607.675 135.003, 614.656 125.683 C 618.851 120.082, 624.104 113.597, 626.330 111.271 C 634.393 102.842, 628.774 105.971, 616.978 116.478 C 610.336 122.395, 604.693 127.026, 604.436 126.770 C 604.180 126.514, 606.202 122.310, 608.929 117.429 C 611.655 112.547, 613.724 108.390, 613.524 108.191 C 613.325 107.992, 609.714 110.156, 605.500 113 C 601.286 115.844, 597.601 117.935, 597.313 117.647 C 596.295 116.629, 606.269 104.841, 612.073 100.201 C 617.783 95.636, 618.777 93.134, 613.510 96.586 C 611.756 97.735, 610.566 97.966, 609.890 97.290 C 608.921 96.321, 611.113 94.684, 622.250 88.066 C 624.313 86.840, 626 85.649, 626 85.418 C 626 84.013, 620.806 85.917, 608.203 91.941 M 820.047 98.869 C 819.994 101.532, 825.178 110.515, 831.066 117.964 C 836.061 124.284, 839.516 125.382, 851 124.299 L 859.500 123.498 849.504 116.503 C 844.006 112.655, 837.818 107.818, 835.754 105.754 C 833.689 103.689, 832 102.485, 832 103.078 C 832 103.672, 833.800 105.939, 836 108.117 C 840.732 112.802, 841.117 114.479, 837.250 113.572 C 834.551 112.940, 828.142 106.921, 822.797 100 C 820.258 96.712, 820.091 96.643, 820.047 98.869 M 785.727 122.071 C 785.336 126.382, 784.421 129.207, 782.568 131.821 C 773.240 144.976, 767 155.090, 767 157.054 C 767 161.075, 769.178 172, 769.980 172 C 771.044 172, 774.673 163.328, 775.525 158.750 C 775.909 156.688, 776.648 155, 777.168 155 C 777.688 155, 779.151 157.350, 780.418 160.223 C 782.902 165.852, 783.175 165.674, 784.582 157.500 C 784.961 155.300, 786.138 151.775, 787.198 149.667 L 789.125 145.835 795.616 146.167 C 801.725 146.480, 802.069 146.382, 801.458 144.500 C 797.584 132.552, 797.740 130, 802.344 130 L 805.456 130 801.563 126.750 C 795.193 121.433, 787.853 116, 787.038 116 C 786.620 116, 786.030 118.732, 785.727 122.071 M 888.881 120.007 C 886.568 121.359, 884.665 126.529, 885.401 129.462 C 886.197 132.633, 889.509 134.330, 900.071 136.982 C 904.707 138.146, 909.344 139.349, 910.375 139.656 C 911.518 139.996, 912.002 139.812, 911.614 139.185 C 911.265 138.619, 907.946 137.180, 904.239 135.988 C 895.067 133.038, 891.586 129.366, 892.263 123.357 C 892.771 118.852, 892.061 118.149, 888.881 120.007 M 898.336 122.566 C 897.336 125.172, 903.660 130.702, 910.144 132.891 C 916.027 134.878, 917.774 134.458, 916.579 131.346 C 916.178 130.301, 915.233 129.976, 913.711 130.358 C 912.462 130.671, 910.461 130.672, 909.266 130.359 C 907.488 129.894, 907.195 129.275, 907.658 126.960 C 908.142 124.542, 907.946 124.201, 906.323 124.626 C 905.182 124.924, 903.675 124.299, 902.556 123.062 C 900.324 120.595, 899.146 120.457, 898.336 122.566 M 923.723 122.666 L 920.945 123.138 921.088 132.088 C 921.225 140.651, 921.057 141.394, 917.194 149.269 C 911.716 160.436, 911.484 161.484, 913.949 163.949 C 920.475 170.475, 937.079 160.684, 944.530 145.917 C 946.033 142.938, 948.596 138.635, 950.225 136.356 C 954.547 130.310, 953.842 128.977, 944.612 125.744 C 936.659 122.958, 928.809 121.801, 923.723 122.666 M 953.039 139.189 C 951.918 140.392, 951 141.951, 951 142.653 C 951 143.919, 953.995 146, 955.818 146 C 957.002 146, 957.929 141.446, 957.264 138.900 C 956.617 136.428, 955.543 136.501, 953.039 139.189 M 212.575 147.750 C 208.911 151.463, 204.252 156.975, 202.221 160 C 200.190 163.025, 196.976 167.282, 195.078 169.459 C 191.589 173.462, 177.109 184.442, 176.337 183.670 C 176.107 183.440, 179.343 178.651, 183.528 173.028 C 187.713 167.404, 190.903 162.569, 190.617 162.283 C 190.046 161.713, 182.023 168.230, 172.197 177.247 C 164.955 183.893, 154.629 189.409, 138 195.518 C 124.194 200.589, 113.341 203.176, 94 206.008 C 70.250 209.484, 57.040 212.730, 50 216.818 C 44.057 220.269, 46.289 220.609, 58.046 218.043 C 70.052 215.423, 70.835 215.419, 68.500 218 C 66.737 219.948, 66.753 220, 69.125 220 C 74.567 220, 96.990 216.841, 104.060 215.078 C 108.217 214.041, 114.692 211.799, 118.448 210.096 C 126.452 206.467, 126 206.553, 126 208.659 C 126 209.572, 123.872 212.272, 121.272 214.659 C 112.888 222.356, 119.384 219.754, 138.199 207.879 C 148.981 201.073, 161.715 191.199, 166.924 185.604 C 168.258 184.172, 169.732 183, 170.200 183 C 171.852 183, 168.094 188.535, 164.569 191.293 C 160.184 194.723, 159.713 197.540, 163.691 196.541 C 172.182 194.410, 185.868 185.484, 198.293 173.973 C 202.580 170.002, 206.322 166.988, 206.609 167.275 C 206.896 167.563, 205.745 170.543, 204.051 173.899 C 200.011 181.902, 202.093 182.131, 209.540 174.503 C 218.106 165.729, 226 151.047, 226 143.889 L 226 141.029 222.580 144.761 C 218.705 148.989, 217.619 148.817, 218.947 144.184 C 219.449 142.433, 219.720 141, 219.548 141 C 219.376 141, 216.238 144.037, 212.575 147.750 M 307.602 166.888 C 302.742 172.258, 300.659 184.948, 303.375 192.644 C 304.131 194.787, 305.083 199.006, 305.492 202.020 C 306.324 208.163, 308.591 213.371, 310.043 212.474 C 310.569 212.148, 311 209.745, 311 207.132 C 311 204.520, 311.646 201.509, 312.435 200.441 C 313.772 198.633, 314.158 199.115, 318.079 207.500 C 320.394 212.450, 323.648 218.411, 325.311 220.746 C 328.168 224.760, 336.902 232.432, 337.702 231.631 C 337.906 231.427, 337.157 228.935, 336.037 226.093 C 334.916 223.251, 334.008 220.380, 334.019 219.713 C 334.029 219.046, 337.835 222.438, 342.476 227.250 C 348.960 233.973, 351.535 236, 353.594 236 C 356.237 236, 356.210 235.932, 351.637 231.043 C 349.087 228.316, 347 225.857, 347 225.578 C 347 224.967, 353.311 227.676, 361.500 231.802 C 364.800 233.465, 367.636 234.691, 367.803 234.526 C 367.970 234.362, 365.191 229.113, 361.627 222.864 C 354.863 211.001, 351.680 202.935, 350.436 194.504 C 349.503 188.180, 348.174 190.813, 348.070 199.191 C 347.937 209.997, 344.064 206.417, 342.995 194.500 L 342.368 187.500 338.348 196 C 336.138 200.675, 334.033 205.316, 333.672 206.313 C 333.310 207.311, 332.515 207.818, 331.904 207.440 C 330.393 206.507, 331.642 195.355, 334.037 188.391 C 336.131 182.306, 335.861 181.420, 333.385 186.250 C 332.468 188.037, 330.594 190.847, 329.220 192.492 C 327.845 194.138, 325.812 197.513, 324.701 199.992 C 323.248 203.234, 322.562 203.991, 322.255 202.688 C 321.511 199.520, 323.888 181.513, 325.590 177.429 L 327.227 173.500 324.960 175.500 C 323.713 176.600, 321.173 180.762, 319.316 184.750 C 317.459 188.738, 315.664 192, 315.327 192 C 314.991 192, 314.994 189.332, 315.335 186.070 C 315.871 180.941, 317.083 176.868, 320.518 168.649 C 322.107 164.847, 315.206 169.812, 310.811 175.634 C 308.484 178.717, 306.407 180.721, 306.196 180.088 C 305.985 179.455, 306.980 176.022, 308.406 172.458 C 309.833 168.895, 311 165.759, 311 165.489 C 311 164.381, 309.200 165.122, 307.602 166.888 M 718.530 177.589 C 715.851 183.413, 712.671 188.825, 711.464 189.615 C 708.642 191.465, 705.051 190.194, 702.179 186.328 L 700.078 183.500 696.151 188 C 692.360 192.343, 692.156 192.439, 690.283 190.750 C 687.724 188.442, 687.426 188.516, 686.203 191.750 C 684.541 196.143, 684.027 199.426, 684.805 200.684 C 685.202 201.326, 688.370 203.085, 691.846 204.593 C 697.916 207.225, 698.277 207.267, 700.987 205.667 C 704.817 203.404, 708.752 203.572, 712.528 206.160 C 721.548 212.340, 727.483 231.856, 724.017 243.940 C 723.477 245.825, 723.227 247.561, 723.463 247.797 C 724.242 248.575, 728.005 241.589, 729.547 236.500 C 732.590 226.459, 732.460 221.599, 728.713 205.500 C 724.098 185.668, 723.659 183, 725.011 183 C 725.617 183, 727.040 185.137, 728.173 187.750 C 730.189 192.396, 734.570 198, 736.187 198 C 737.888 198, 736.491 175.419, 734.369 168.618 C 733.484 165.784, 732.216 168.425, 731.427 174.741 C 731.065 177.634, 730.484 179.993, 730.135 179.985 C 728.274 179.940, 727.113 177.927, 725.961 172.750 C 725.258 169.588, 724.394 167, 724.041 167 C 723.689 167, 721.209 171.765, 718.530 177.589 M 447.826 197.060 C 447.533 197.852, 445.764 205.811, 443.896 214.747 C 442.028 223.683, 440.275 230.994, 440 230.994 C 439.725 230.994, 437.598 227.508, 435.274 223.247 C 432.950 218.986, 431.037 216.287, 431.024 217.250 C 430.995 219.384, 430.093 219.454, 427.354 217.535 C 426.204 216.730, 425.030 216.303, 424.745 216.588 C 424.461 216.872, 423.260 215.538, 422.076 213.623 C 420.892 211.707, 418.353 208.761, 416.434 207.076 C 413.010 204.070, 405 199.452, 405 200.484 C 405 201.506, 430.331 239.002, 430.743 238.590 C 430.974 238.360, 430.646 237.208, 430.016 236.030 C 427.585 231.488, 429.868 231.772, 434.710 236.615 C 437.877 239.782, 441.336 244.823, 443.954 250.088 L 448.136 258.500 447.512 250.500 C 447.169 246.100, 446.638 241.037, 446.333 239.250 C 445.584 234.866, 447.007 235.157, 450 240 C 451.360 242.200, 452.761 244, 453.114 244 C 453.467 244, 453.126 240.993, 452.355 237.318 C 451.585 233.643, 451.114 230.157, 451.310 229.571 C 452.712 225.365, 460.286 255.014, 462.692 274.124 C 463.652 281.756, 464.722 288, 465.069 288 C 465.416 288, 465.997 283.107, 466.360 277.126 C 466.930 267.730, 466.621 263.885, 464.085 248.841 C 462.084 236.969, 460.134 228.897, 457.956 223.466 C 456.199 219.084, 454.170 213.025, 453.448 210 C 451.661 202.515, 448.501 195.240, 447.826 197.060 M 561.074 223.673 C 559.208 226.793, 554.570 233.641, 550.767 238.891 C 546.965 244.141, 542.257 251.376, 540.305 254.968 C 535.503 263.805, 529.967 272, 528.799 272 C 528.215 272, 528.111 269.366, 528.532 265.250 C 529.438 256.405, 528.137 257.710, 523.646 270.144 C 521.730 275.449, 518.529 282.947, 516.531 286.806 C 513.071 293.493, 512.966 293.981, 514.312 297.162 C 515.088 298.998, 516.686 301.357, 517.862 302.405 L 520 304.310 520 300.655 C 520 296.669, 522.772 292.988, 525.750 293.017 C 528.886 293.049, 540.273 314.355, 541.449 322.394 C 541.843 325.085, 543.019 329.135, 544.062 331.394 C 545.105 333.652, 546.436 337.413, 547.018 339.750 C 548.244 344.669, 549.409 345.136, 550.761 341.250 C 551.447 339.278, 551.196 335.955, 549.875 329.500 C 548.748 323.993, 548.027 316.192, 548.017 309.399 C 547.997 296.194, 546.779 291.510, 543.623 292.497 C 536.021 294.876, 534.791 293.658, 536.053 285 C 536.493 281.975, 536.887 275.843, 536.927 271.372 C 536.981 265.379, 537.400 262.913, 538.524 261.980 C 540.310 260.498, 540.433 260.592, 541.665 264.405 C 542.562 267.182, 542.803 266.851, 547.110 256.908 C 550.172 249.839, 552.202 246.392, 553.444 246.153 C 554.928 245.867, 555.178 246.290, 554.774 248.401 C 554.501 249.830, 554.564 251, 554.915 251 C 555.600 251, 566 237.396, 566 236.500 C 566 236.204, 564.895 236.239, 563.544 236.578 C 559.402 237.618, 559.109 233.138, 562.779 224.879 C 564.460 221.095, 565.527 218, 565.151 218 C 564.775 218, 562.940 220.553, 561.074 223.673 M 286.018 245.633 C 286.072 248.320, 292.214 265.492, 294.035 268.049 C 295.319 269.853, 299.441 272.708, 304.257 275.129 C 308.696 277.361, 318.891 283.558, 326.914 288.901 C 334.936 294.244, 344.646 300.328, 348.491 302.421 C 359.821 308.589, 377.756 321.939, 384.504 329.227 C 387.953 332.952, 391.248 336, 391.826 336 C 392.404 336, 393.180 333.981, 393.550 331.513 C 394.807 323.131, 389.176 305.062, 379.300 285.786 C 370.671 268.946, 366.077 264.835, 353.128 262.368 C 342.854 260.410, 324.782 255.777, 306 250.284 C 287.408 244.847, 285.995 244.519, 286.018 245.633 M 611.849 304.250 C 606.896 311.577, 605.375 312.924, 602 312.973 C 599.045 313.016, 593.215 318.148, 592.549 321.293 C 592.292 322.507, 591.831 327.100, 591.524 331.500 C 591.218 335.900, 590.862 340.804, 590.734 342.399 C 590.588 344.206, 589.729 345.642, 588.451 346.212 C 586.592 347.041, 586.407 347.991, 586.451 356.475 C 586.494 364.646, 586.216 366.209, 584.250 368.872 C 581.612 372.445, 581.329 377.187, 583.619 379.476 C 584.510 380.367, 585.440 380.894, 585.686 380.647 C 585.932 380.401, 586.756 377.342, 587.518 373.850 C 592.713 350.005, 597.124 331.172, 597.956 329.278 C 598.493 328.055, 601.572 323.733, 604.799 319.672 C 609.895 313.259, 618 300.314, 618 298.588 C 618 296.549, 615.498 298.853, 611.849 304.250 M 421.728 306.605 C 421.328 307.006, 421 310.166, 421 313.629 C 421 321.443, 423.809 329.309, 428.383 334.302 C 432.577 338.881, 434.407 339.131, 433.500 335 C 433.138 333.350, 433.129 332, 433.481 332 C 433.832 332, 436.183 333.575, 438.704 335.500 C 441.225 337.425, 443.593 339, 443.965 339 C 444.656 339, 440.581 318.248, 439.722 317.388 C 439.462 317.129, 438.523 318.736, 437.633 320.959 C 435.572 326.111, 434 326.129, 434 321 C 434 316.775, 432.569 315.630, 431.500 319 C 430.576 321.912, 429.006 321.447, 428.964 318.250 L 428.928 315.500 426.656 318.275 C 423.832 321.726, 422.926 320.944, 423.579 315.620 C 424.121 311.205, 422.930 305.403, 421.728 306.605 M 377.374 354.393 C 374.555 355.089, 370.178 356.747, 367.648 358.079 C 361.605 361.260, 348.972 371.984, 346.729 375.837 L 344.958 378.880 351.839 384.439 C 359.256 390.432, 361.634 391.219, 376 392.434 C 380.125 392.783, 385.572 393.311, 388.105 393.608 L 392.711 394.148 393.821 388.324 C 396.305 375.295, 397.181 361.695, 395.808 357.500 L 394.499 353.500 388.500 353.314 C 385.200 353.212, 380.193 353.697, 377.374 354.393 M 464.718 390.250 C 463.946 392.405, 465.747 394.628, 472.731 400.136 C 476.454 403.072, 482.271 407.802, 485.657 410.647 C 492.971 416.791, 498.175 418.233, 511.438 417.791 L 520.163 417.500 513.429 413.566 C 508.168 410.493, 507.094 409.493, 508.516 408.995 C 509.827 408.535, 508.316 407.607, 503.111 405.678 C 499.137 404.205, 495.686 403, 495.443 403 C 495.199 403, 495 404.350, 495 406 C 495 407.650, 494.760 409, 494.467 409 C 492.500 409, 483.391 403.311, 478.890 399.271 C 467.405 388.963, 465.593 387.810, 464.718 390.250"/>
</svg>