<?xml version="1.0" encoding="utf-8"?>
<svg xmlns="http://www.w3.org/2000/svg" width="1002" height="724" viewBox="0 0 1002 724">
  <path fill-rule="evenodd" d="M 851 1.243 C 851 1.464, 854.410 3.354, 858.579 5.442 C 867.256 9.788, 870.361 13.255, 882.219 31.833 C 886.223 38.107, 892.792 47.124, 896.817 51.870 C 906.498 63.290, 911.104 70.296, 914.861 79.320 C 918.116 87.140, 926.404 114.929, 925.693 115.640 C 925.466 115.867, 923.469 113.679, 921.256 110.777 C 919.042 107.874, 912.219 99.650, 906.094 92.500 C 896.690 81.524, 880.156 59.675, 877.042 54.110 C 876.551 53.234, 875.931 52.738, 875.664 53.008 C 874.491 54.195, 886.439 76.232, 892.467 84 C 913.259 110.796, 922.199 123.097, 925.815 129.887 C 933.916 145.101, 937.753 166.149, 933.586 172.510 C 931.542 175.629, 918.970 181.810, 903.500 187.301 C 889.390 192.310, 886.631 192.920, 873.322 193.978 C 866.820 194.495, 857.675 195.613, 853 196.462 C 841.222 198.602, 802.676 200.411, 795.833 199.146 C 786.284 197.380, 778.827 193.861, 765.382 184.775 C 743.738 170.147, 743.833 170.273, 712.497 115 C 699.635 92.313, 695 84.733, 695 86.387 C 695 88.023, 701.669 101.461, 709.364 115.330 C 713.993 123.674, 721.132 137.063, 725.229 145.085 C 733.733 161.738, 737.542 167.622, 743.963 174.025 C 750.574 180.619, 778.241 198.897, 786.986 202.449 L 794.500 205.500 814.750 205.500 C 825.888 205.500, 834.997 205.725, 834.993 206 C 834.988 206.275, 829.701 208.604, 823.242 211.175 C 811.028 216.038, 797.407 219.780, 771.036 225.518 C 762.491 227.378, 746.500 230.973, 735.500 233.508 C 724.500 236.043, 701.505 241.208, 684.400 244.986 C 667.295 248.764, 649.070 253.006, 643.900 254.411 C 626.101 259.251, 608.837 261.572, 602.779 259.941 C 595.298 257.926, 594.284 252.079, 598.019 232.500 C 600.494 219.529, 602.541 212.068, 608.446 194.500 C 610.849 187.350, 615.159 174.076, 618.023 165.001 C 620.887 155.927, 625.261 144.452, 627.744 139.501 C 633.249 128.525, 645.854 109.110, 658.826 91.627 C 670.152 76.361, 678.012 64.215, 677.971 62.041 C 677.936 60.232, 677.874 60.300, 657.500 84.463 C 623.838 124.384, 617.329 134.542, 598.200 177 C 594.359 185.525, 590.087 195.200, 588.707 198.500 C 575.783 229.400, 562.562 258.830, 560.103 262.175 C 555.656 268.222, 549.089 272.704, 532.964 280.698 C 503.808 295.153, 486.734 301.955, 428 322.515 C 368.203 343.447, 357.484 347.501, 325.407 361.315 C 313.603 366.399, 283.842 381.126, 274 386.754 C 249.201 400.935, 226.260 413.373, 197.500 428.231 C 147.282 454.174, 132.008 463.607, 108 483.502 C 103.325 487.376, 94.325 494.565, 88 499.477 C 68.436 514.672, 59.777 522.380, 48.474 534.660 C 42.481 541.172, 29.837 554.387, 20.376 564.026 C 5.767 578.910, 3.086 582.113, 2.587 585.276 C 2.264 587.324, 1.773 590.475, 1.496 592.278 C 0.727 597.285, 2.704 610.442, 5.043 615.879 C 6.193 618.551, 8.566 622.076, 10.316 623.713 C 13.544 626.730, 24.877 633.503, 30.668 635.877 C 33.454 637.018, 33.919 637.775, 34.520 642.143 C 35.934 652.428, 40.019 653.674, 85 657.537 C 116.050 660.204, 148.735 660.536, 179.268 658.494 C 205.232 656.757, 208.059 656.751, 240 658.355 C 279.636 660.345, 298.708 660.449, 313.576 658.756 C 319.584 658.072, 327.018 657.510, 330.096 657.506 L 335.692 657.500 344.596 665.577 C 368.437 687.202, 399.628 706.011, 425.500 714.364 C 433.031 716.795, 449.111 719.975, 461.962 721.574 C 478.431 723.623, 507.775 723.014, 500.500 720.774 C 499.400 720.436, 494.900 719.882, 490.500 719.543 C 464.841 717.570, 451.349 715.280, 433.955 709.945 C 419.023 705.365, 408.210 700.511, 394 692.010 C 351.995 666.880, 328.055 645.381, 328.010 632.750 C 328.002 630.512, 328.446 630, 330.396 630 C 333.306 630, 337.145 634.342, 342 643.123 C 347.144 652.428, 359.377 664.043, 375.363 674.798 C 382.864 679.846, 392.264 685.603, 396.251 687.592 C 405.251 692.082, 404.381 691.239, 390.500 682.016 C 369.496 668.061, 352.238 652.274, 347.580 642.753 C 344.996 637.472, 344.933 634, 347.422 634 C 348.086 634, 351.750 637.275, 355.565 641.277 C 359.379 645.280, 365.200 650.606, 368.500 653.114 C 375.362 658.328, 384.477 663.824, 383.893 662.396 C 383.677 661.867, 377.515 655.870, 370.199 649.069 C 357.448 637.215, 353.222 632.068, 354.518 629.971 C 355.673 628.103, 357.939 629.044, 365.689 634.608 C 374.050 640.612, 384.525 646.325, 386.167 645.778 C 386.719 645.594, 383.927 643.207, 379.963 640.474 C 372.313 635.200, 368.638 631.395, 369.635 629.782 C 370.647 628.143, 380.669 629.896, 394 634.043 C 400.875 636.182, 411.900 638.876, 418.500 640.030 C 435.713 643.040, 441.444 644.671, 450.241 649.060 C 461.005 654.432, 469.265 660.222, 476.424 667.417 C 482.331 673.353, 495.382 692.916, 501.829 705.500 C 504.451 710.617, 504.911 711.092, 504.952 708.728 C 505.052 702.970, 490.587 676.445, 481.955 666.558 C 468.902 651.607, 451.586 639.701, 439.633 637.459 C 434.264 636.452, 436.156 635.531, 446.500 634.117 C 456.085 632.807, 470.775 629.337, 493.500 623.017 C 501.200 620.876, 515.150 617.032, 524.500 614.476 C 579.507 599.436, 600.792 593.112, 626.906 584.051 C 637.683 580.311, 653.475 574.445, 662 571.014 C 670.525 567.583, 690.775 560.147, 707 554.489 C 748.797 539.915, 769.498 531.542, 783.463 523.564 C 795.676 516.587, 797.262 516.250, 802.306 519.565 C 804.613 521.082, 811.358 527.192, 817.296 533.144 C 823.233 539.096, 832.233 546.854, 837.296 550.385 C 842.358 553.915, 849.425 559.442, 853 562.668 C 864.556 573.095, 870.666 577.300, 892 589.513 C 898.875 593.448, 906.750 598.056, 909.500 599.752 C 912.250 601.448, 916.125 603.136, 918.110 603.503 C 921.255 604.084, 921.997 603.819, 923.860 601.450 C 927.500 596.823, 926.731 592.212, 919.881 577.575 C 909.426 555.236, 904.968 539.678, 903.529 520.500 C 901.763 496.977, 899.520 485.931, 894.495 476 C 891.895 470.861, 884.521 462.187, 883.554 463.129 C 883.199 463.475, 884.211 465.966, 885.803 468.666 C 892.411 479.873, 894.107 487.590, 896.535 517.500 C 898.591 542.830, 901.975 556.881, 909.780 572.500 C 916.662 586.274, 920.154 599, 917.050 599 C 916.528 599, 913.715 597.523, 910.800 595.717 C 907.885 593.911, 903.310 591.099, 900.633 589.467 C 890.426 583.244, 872.759 570.148, 862.905 561.500 C 853.430 553.185, 830.435 529.144, 825.840 522.750 L 823.864 520 826.464 520 C 829.642 520, 835.755 517.531, 838.320 515.212 C 839.361 514.270, 841.057 511.846, 842.089 509.824 C 844.251 505.588, 845.814 495, 844.277 495 C 843.728 495, 841.838 497.703, 840.077 501.006 C 836.135 508.403, 833.007 510.236, 824.409 510.187 C 819.219 510.157, 812.902 508.550, 814.164 507.580 C 814.349 507.438, 822.806 500.188, 832.959 491.468 C 843.111 482.748, 854.741 473.229, 858.804 470.314 C 862.866 467.399, 868.420 463.010, 871.145 460.560 C 873.870 458.109, 883.390 450.820, 892.300 444.360 C 913.921 428.685, 920.899 422.922, 931.022 412.377 C 955.099 387.297, 973.644 353.775, 986.829 311.500 C 997.740 276.515, 1001.911 253.483, 1000.023 238.652 C 997.812 221.281, 993.609 212.326, 975.781 187 C 968.749 177.010, 955.591 150.377, 953.067 141.026 C 951.851 136.518, 949.946 130.730, 948.834 128.165 C 947.723 125.599, 945.566 120.125, 944.042 116 C 939.131 102.708, 920.099 61.670, 916.241 56.055 C 911.757 49.528, 896.482 32.317, 886.180 22.185 C 876.786 12.946, 869.920 7.755, 862.968 4.636 C 857.763 2.300, 851 0.383, 851 1.243 M 668.806 96.263 C 658.987 111.403, 642.926 141.650, 635.526 158.940 C 631.994 167.190, 624.946 190.459, 619.151 213 C 616.355 223.874, 612.471 248.804, 613.424 249.757 C 615.259 251.593, 623.356 227.493, 627.957 206.500 C 630.832 193.381, 638.204 169.279, 643.555 155.500 C 648.669 142.332, 654.139 130.493, 666.079 106.750 C 670.988 96.987, 674.666 89.006, 674.252 89.013 C 673.839 89.020, 671.388 92.283, 668.806 96.263 M 930.268 105.048 C 932.441 111.591, 935.476 124.164, 938.462 139 C 942.594 159.521, 943.213 173.302, 940.250 178.746 C 936.937 184.831, 930.865 191.035, 925.688 193.622 C 922.835 195.048, 919.375 197.230, 918 198.471 C 916.625 199.712, 914.144 201.179, 912.486 201.730 C 910.828 202.281, 905.854 205.195, 901.432 208.206 C 888.551 216.977, 869.590 226.462, 859 229.432 C 853.775 230.897, 846.575 233.819, 843 235.925 C 827.183 245.243, 824.265 246.327, 813.262 246.977 C 803.198 247.571, 802.927 247.653, 797.262 251.791 C 787.205 259.139, 778.949 262.839, 768.788 264.556 C 763.592 265.434, 756.678 267.428, 753.095 269.083 C 748.081 271.398, 744.914 272.124, 738.509 272.427 C 732.191 272.726, 728.672 273.519, 723.059 275.907 C 717.740 278.170, 714.239 279, 710.005 279 C 700.804 279, 680.190 283.615, 671.087 287.712 C 668.703 288.785, 665.915 289.089, 661.838 288.719 C 654.738 288.075, 646.339 290.086, 640.791 293.757 C 637.606 295.865, 634.339 296.730, 624.479 298.079 C 613.649 299.560, 611.424 300.205, 606.193 303.382 C 602.918 305.372, 599.930 307, 599.553 307 C 599.175 307, 589.784 311.327, 578.683 316.616 C 567.583 321.904, 556.250 326.890, 553.500 327.695 C 550.750 328.499, 545.575 330.902, 542 333.033 C 532.237 338.853, 526.518 341.093, 518.634 342.181 C 514.710 342.723, 509.025 344.090, 506 345.220 C 502.975 346.349, 497.800 347.588, 494.500 347.972 C 491.200 348.356, 487.217 349.200, 485.649 349.849 C 484.082 350.497, 477.122 351.938, 470.184 353.051 C 458.052 354.997, 457.253 355.279, 449.344 360.402 C 441.985 365.169, 440.358 365.805, 433.885 366.443 C 429.108 366.913, 423.240 368.514, 416.616 371.153 C 411.097 373.352, 402.739 376.214, 398.041 377.515 C 393.343 378.815, 387.025 380.791, 384 381.904 C 380.975 383.018, 375.145 384.892, 371.044 386.068 C 366.943 387.245, 358.536 390.847, 352.362 394.072 C 346.187 397.298, 338.967 400.468, 336.318 401.116 C 333.668 401.764, 329.664 403.352, 327.419 404.643 C 325.175 405.935, 321.125 407.281, 318.419 407.635 C 311.557 408.531, 310 409.534, 310 413.060 C 310 418.667, 305.590 418.940, 278.523 415.009 C 266.660 413.286, 262.489 413.520, 259.403 416.080 C 255.437 419.372, 259.078 423.865, 268.162 426.887 C 274.152 428.881, 282 434.056, 282 436.013 C 282 436.490, 278.912 435.831, 275.138 434.547 C 266.429 431.585, 247.911 428.644, 243.703 429.555 C 239.247 430.519, 229.880 435.360, 227.614 437.870 C 226.027 439.627, 225.807 441.057, 226.225 446.904 C 227.038 458.259, 228.685 460.281, 257 484.690 C 267.447 493.696, 283.183 509.417, 290.341 518 L 294.094 522.500 293.482 516 C 293.145 512.425, 292.805 503.200, 292.726 495.500 C 292.589 482.181, 292.720 481.184, 295.405 475 C 299.267 466.107, 299.854 458.719, 297.179 452.673 C 294.931 447.591, 295.481 446.720, 298.709 450.250 C 304.190 456.244, 305.376 464.926, 302.500 478 C 300.608 486.603, 300.631 506.177, 302.549 517.999 C 305.628 536.990, 307.678 541.086, 322.153 557.186 C 332.829 569.060, 337.239 575.148, 341.026 583.243 C 344.746 591.191, 345.652 598.011, 344.061 606.096 C 343.323 609.847, 343.210 612.610, 343.771 613.171 C 344.636 614.036, 364.707 610.878, 379.500 607.550 C 382.800 606.808, 388.425 605.901, 392 605.535 C 402.295 604.482, 410.027 603.055, 416.500 601.014 C 419.800 599.973, 425.650 598.657, 429.500 598.088 C 433.350 597.520, 438.075 596.792, 440 596.472 L 443.500 595.889 440.808 597.446 C 439.327 598.302, 434.896 599.681, 430.960 600.508 C 427.024 601.336, 420.723 603.366, 416.958 605.018 C 413.194 606.671, 404.800 609.295, 398.307 610.851 C 386.110 613.773, 381.355 615.663, 378.970 618.536 C 377.684 620.086, 379.137 620.180, 399.543 619.875 C 411.619 619.694, 425.550 619.922, 430.500 620.381 C 445.316 621.755, 474.387 616.870, 504 608.031 C 509.225 606.472, 522.725 602.628, 534 599.490 C 587.682 584.548, 621.143 574.088, 646.136 564.439 C 675.995 552.911, 688.892 548.152, 701.500 544.010 C 740.582 531.171, 766.303 520.440, 786.088 508.720 C 790.261 506.248, 800.836 500.603, 809.588 496.174 C 821.182 490.308, 827.806 486.213, 834 481.085 C 838.675 477.214, 847 470.647, 852.500 466.492 C 863.309 458.325, 885.027 441.343, 904.670 425.697 C 944.740 393.784, 958.941 372.502, 977.524 316.519 C 992.060 272.730, 994.816 260.304, 993.549 244.264 C 992.185 227.003, 987.963 216.770, 972.656 193.629 C 966.425 184.208, 959.712 173.575, 957.740 170 C 954.027 163.270, 945.878 143.762, 944.582 138.500 C 943.392 133.673, 932.899 107.688, 931.256 105.500 C 930.366 104.314, 929.963 104.130, 930.268 105.048 M 685.619 117.778 C 684.095 120.925, 677.674 133.271, 671.350 145.212 C 649.756 185.991, 640.378 210.489, 636.599 236 C 635.825 241.225, 635.437 245.897, 635.737 246.383 C 636.535 247.675, 642.114 233.309, 649.465 211.035 C 658.611 183.322, 662.397 173.661, 674.757 146.500 C 686.312 121.108, 689.572 113.238, 688.839 112.506 C 688.592 112.258, 687.142 114.631, 685.619 117.778 M 700.809 145.204 C 694.111 154.717, 687.846 165.929, 679.498 183.340 C 666.168 211.141, 659.491 230.295, 660.188 238.730 L 660.500 242.500 662.153 239.487 C 663.062 237.831, 665.376 231.981, 667.294 226.487 C 674.820 204.943, 682.706 186.502, 694.167 163.647 C 700.745 150.528, 705.928 139.595, 705.685 139.351 C 705.441 139.107, 703.247 141.741, 700.809 145.204 M 710.505 178.250 C 692.501 200.178, 681 221.992, 681 234.210 C 681 239.057, 682.639 237.259, 685.522 229.250 C 690.522 215.362, 698.200 201.104, 711.049 181.851 C 721.611 166.026, 721.444 164.926, 710.505 178.250 M 726.317 192.381 C 711.422 208.120, 702.871 220.914, 701.508 229.500 L 700.873 233.500 703.019 231.037 C 704.199 229.683, 706.338 226.533, 707.772 224.037 C 710.552 219.201, 721.609 203.454, 727.460 196 C 733.279 188.586, 736.324 183.990, 735.778 183.444 C 735.494 183.161, 731.237 187.183, 726.317 192.381 M 948.081 190.563 C 944.403 196.857, 942.472 198.950, 936.581 203.032 C 932.686 205.729, 925 210.204, 919.500 212.976 C 914 215.748, 906.795 219.750, 903.488 221.869 C 891.982 229.243, 883.393 233.219, 878.617 233.379 C 875.340 233.490, 873.506 234.154, 871.994 235.776 C 870.844 237.010, 867.174 239.398, 863.837 241.082 C 860.500 242.767, 856.775 245.219, 855.559 246.531 C 852.109 250.254, 840.494 253.999, 832.379 254.006 C 822.666 254.013, 819.140 255.267, 814.268 260.445 C 811.131 263.778, 808.643 265.339, 804.584 266.519 C 801.580 267.392, 797.585 269.150, 795.706 270.425 C 790.191 274.168, 783.300 275.784, 770.213 276.404 C 761.598 276.813, 756.965 277.488, 754.713 278.663 C 752.946 279.585, 747.094 280.916, 741.709 281.620 C 734.044 282.622, 730.715 283.588, 726.371 286.074 C 721.761 288.712, 720.121 289.152, 716.662 288.682 C 710.416 287.832, 698.276 289.666, 694.436 292.040 C 692.109 293.478, 687.786 294.484, 680.231 295.345 C 672.506 296.226, 668.291 297.221, 665.628 298.792 C 663.570 300.006, 660.942 301, 659.789 301 C 658.626 301, 656.050 302.780, 654 305 C 651.969 307.200, 649.451 309.002, 648.404 309.004 C 645.965 309.009, 640.105 312.564, 639.367 314.485 C 639.056 315.296, 637.188 316.957, 635.216 318.176 C 630.287 321.222, 620.804 321.230, 611.919 318.197 L 605.339 315.950 597.214 320.072 C 592.202 322.616, 588.092 325.502, 586.486 327.607 C 585.055 329.483, 582.223 331.866, 580.192 332.903 C 578.161 333.939, 575.643 335.735, 574.595 336.894 C 573.271 338.358, 571.487 339, 568.742 339 C 566.198 339, 560.833 340.743, 553.647 343.904 C 533.351 352.833, 524.813 354.965, 509.261 354.985 C 496.343 355.002, 490.833 356.575, 483.816 362.247 C 477.324 367.495, 475.843 367.998, 466.816 368.024 C 460.129 368.043, 457.324 368.553, 452.500 370.627 C 449.200 372.046, 443.818 374.342, 440.541 375.728 C 437.263 377.114, 432.988 379.273, 431.041 380.525 C 428.118 382.404, 425.728 382.879, 417.346 383.244 C 408.215 383.642, 406.418 384.054, 399.493 387.343 C 395.258 389.354, 391.218 391, 390.517 391 C 389.815 391, 386.633 393.025, 383.446 395.500 C 379.536 398.536, 376.678 400, 374.663 400 C 373.020 400, 369.611 401.298, 367.088 402.885 C 364.564 404.472, 360.813 406.067, 358.750 406.430 C 356.688 406.793, 355 407.582, 355 408.182 C 355 409.889, 375.468 408.189, 382.218 405.921 C 385.364 404.865, 390.588 404, 393.828 404 C 398.508 404, 400.920 403.359, 405.570 400.877 C 409.993 398.517, 412.530 397.805, 415.961 397.958 C 423.498 398.296, 424.178 398.179, 426.380 396.163 C 432.397 390.651, 445.445 386.618, 460.500 385.616 C 465.836 385.261, 470.650 384.207, 474.957 382.449 C 480.151 380.331, 482.793 379.861, 488.457 380.046 C 498.957 380.390, 499.080 380.356, 505.007 375.490 C 508.028 373.010, 511.175 370.793, 512 370.563 C 526.077 366.637, 548.035 359.997, 557.184 356.900 C 563.610 354.724, 572.610 352.481, 577.184 351.916 C 581.758 351.350, 587.585 350.237, 590.134 349.444 C 592.683 348.650, 596.923 348, 599.555 348 C 602.528 348, 605.009 347.397, 606.100 346.410 C 607.066 345.535, 609.764 344.391, 612.095 343.867 C 614.426 343.344, 617.820 341.609, 619.639 340.012 C 623.071 336.999, 628.479 335.015, 633.290 335.006 C 634.824 335.003, 637.749 334.149, 639.790 333.109 C 643.361 331.288, 655.706 327.280, 664.926 324.948 C 668.131 324.137, 671.051 322.196, 675.511 317.914 C 679.716 313.876, 682.473 312, 684.200 312 C 685.592 312, 687.871 311.102, 689.266 310.005 C 691.078 308.580, 692.652 308.180, 694.779 308.606 C 696.416 308.933, 698.733 308.678, 699.927 308.039 C 701.545 307.173, 702.958 307.161, 705.476 307.992 C 708.411 308.961, 709.496 308.782, 713.730 306.637 C 716.412 305.278, 723.082 302.643, 728.553 300.782 C 738.468 297.408, 743.760 297.061, 749.184 299.428 C 750.380 299.951, 752.149 298.982, 755.296 296.082 C 758.085 293.511, 760.676 292, 762.297 292 C 766.716 292, 769.877 290.204, 772.739 286.067 C 774.812 283.070, 776.372 281.933, 779 281.503 C 780.925 281.189, 785.875 280.259, 790 279.438 C 795.225 278.398, 800.085 278.145, 806.022 278.603 L 814.544 279.260 820.795 274.243 C 824.471 271.293, 828.834 268.776, 831.385 268.133 C 833.948 267.488, 837.028 265.706, 838.913 263.777 C 841.692 260.935, 843.162 260.357, 850.302 259.299 C 854.811 258.631, 860.166 258.066, 862.203 258.042 C 867.486 257.982, 869.924 256.716, 884.500 246.462 C 891.650 241.432, 905.375 232.105, 915 225.735 C 936.075 211.789, 944.002 204.437, 949.350 193.877 C 954.636 183.440, 953.688 180.965, 948.081 190.563 M 745.375 199.873 C 731.746 209.444, 715.971 226.213, 716.012 231.088 C 716.018 231.864, 722.881 225.473, 731.262 216.884 C 739.643 208.294, 748.300 199.872, 750.500 198.167 C 756.874 193.227, 753.003 194.516, 745.375 199.873 M 965.537 203.281 C 963.036 207.615, 950.056 223.606, 945.316 228.192 C 941.863 231.534, 940.787 231.962, 934 232.692 C 927.018 233.444, 926.394 233.707, 924.970 236.500 C 921.791 242.735, 921.382 243.115, 917.450 243.480 C 914.362 243.767, 912.807 244.692, 910.022 247.897 C 906.764 251.646, 904.355 253.012, 889.500 259.533 C 887.850 260.258, 882.675 261.518, 878 262.334 C 873.325 263.150, 865.827 265.433, 861.338 267.409 C 856.849 269.384, 852.839 271, 852.428 271 C 850.860 271, 829.337 281.966, 826 284.465 C 824.075 285.907, 820.175 287.763, 817.334 288.590 C 814.492 289.417, 811.625 290.747, 810.961 291.547 C 810.238 292.419, 807.978 293, 805.312 293 C 802.868 293, 800.034 293.447, 799.014 293.993 C 797.994 294.538, 792.556 295.628, 786.931 296.415 C 780.333 297.337, 775.778 298.516, 774.101 299.737 C 772.670 300.778, 770.150 302.607, 768.500 303.801 C 766.096 305.540, 763.154 306.174, 753.697 306.994 C 740.160 308.168, 738.003 308.916, 726.434 316.458 C 714.640 324.145, 710.687 326, 706.097 326 C 703.907 326, 700.626 326.848, 698.807 327.884 C 696.814 329.020, 692.591 329.992, 688.177 330.332 C 679.802 330.977, 675.436 333.105, 667.083 340.615 C 662.136 345.063, 661.302 345.428, 653.432 346.592 C 648.247 347.359, 642.511 349.031, 638.390 350.978 C 634.726 352.709, 624.252 356.096, 615.114 358.505 C 605.977 360.914, 595.125 364.419, 591 366.294 C 582.879 369.987, 563.280 374.740, 542.627 378.027 C 535.548 379.154, 528.348 380.780, 526.627 381.642 C 524.907 382.504, 520.575 386.051, 517 389.526 C 505.004 401.185, 487.771 407.172, 483.403 401.198 C 480.900 397.775, 464.247 402.160, 457.470 408.026 C 452.057 412.710, 449.465 413.518, 443.179 412.479 C 438.235 411.661, 437.542 411.666, 426.515 412.600 C 420.404 413.117, 419.064 413.613, 415.795 416.566 C 408.742 422.938, 401.598 425.702, 387.478 427.522 C 380.414 428.433, 371.904 429.995, 368.567 430.993 C 365.230 431.991, 358.900 433.106, 354.500 433.472 C 345.519 434.218, 336.583 436.249, 337.638 437.305 C 338.583 438.249, 355.763 438.118, 371 437.049 C 379.643 436.442, 385.969 435.385, 391.500 433.623 C 402.603 430.085, 409.193 429.522, 421.858 431.028 C 435.238 432.619, 439.573 431.675, 448.005 425.337 C 453.593 421.136, 454.006 421, 461.137 420.999 C 467.144 420.999, 469.605 420.476, 474.500 418.164 C 483.145 414.080, 500.316 409.247, 508.828 408.504 C 516.286 407.852, 525.011 404.853, 549.343 394.579 C 555.307 392.060, 561.680 390, 563.505 390 C 570.240 390, 582.567 386.927, 590.201 383.345 C 598.404 379.495, 604.299 378.709, 612.108 380.424 C 615.128 381.086, 616.367 380.785, 619.700 378.580 C 622.009 377.052, 624.905 376.010, 626.591 376.101 C 630.016 376.285, 642.841 370.578, 643.631 368.519 C 643.931 367.736, 646.170 366.797, 648.605 366.432 C 652.460 365.854, 653.801 364.909, 658.964 359.134 L 664.895 352.500 677.198 352.311 C 703.922 351.901, 708.061 351.485, 715.460 348.462 C 719.343 346.876, 726.637 342.449, 731.960 338.446 C 743.495 329.773, 746.625 328.133, 759.503 324.013 C 765.001 322.254, 773.100 319.080, 777.500 316.960 C 781.900 314.841, 786.721 312.813, 788.214 312.454 C 789.707 312.095, 794.033 309.195, 797.826 306.010 C 806.585 298.655, 806.974 298.461, 816.624 296.631 C 821.052 295.791, 828.866 293.259, 833.989 291.005 C 843.861 286.661, 853.227 284.042, 859 284.011 C 860.925 284.001, 864.075 283.030, 866 281.853 C 867.925 280.676, 873.193 278.463, 877.706 276.935 C 882.219 275.407, 887.844 272.830, 890.206 271.209 C 892.568 269.589, 900.609 265.348, 908.076 261.786 C 933.425 249.695, 952.231 234.336, 962.441 217.388 C 965.505 212.302, 968.894 201.561, 967.785 200.451 C 967.570 200.237, 966.559 201.510, 965.537 203.281 M 771 209.496 C 764.371 210.830, 753.973 214.440, 747.886 217.522 C 743.806 219.588, 737.718 224.051, 738.252 224.586 C 738.463 224.797, 744.348 222.498, 751.330 219.477 C 758.311 216.456, 767.928 212.853, 772.701 211.470 C 777.473 210.087, 781.593 208.740, 781.856 208.478 C 782.664 207.669, 777.820 208.124, 771 209.496 M 973.981 226.420 C 971.565 234.134, 971.327 234.467, 964.878 239.158 C 960.315 242.477, 958.064 244.834, 957.640 246.737 C 957.200 248.710, 955.279 250.625, 950.922 253.433 C 947.566 255.596, 943.499 258.600, 941.883 260.109 C 940.268 261.618, 937.595 263.150, 935.943 263.513 C 930.338 264.744, 920.947 268.866, 917.891 271.438 C 916.216 272.847, 913.698 274, 912.295 274 C 909.703 274, 897.583 278.892, 884.028 285.408 C 879.919 287.384, 875.412 289, 874.013 289 C 872.615 289, 869.677 289.961, 867.486 291.136 C 864.922 292.510, 861.525 293.312, 857.956 293.386 C 854.163 293.464, 851.519 294.132, 849.586 295.500 C 843.785 299.606, 818.955 312.377, 808.562 316.600 C 805.289 317.930, 798.986 319.740, 794.556 320.621 C 790.041 321.520, 785.608 323.040, 784.472 324.079 C 783.356 325.098, 780.431 326.634, 777.972 327.491 C 775.512 328.349, 772.019 329.744, 770.208 330.592 C 768.397 331.440, 764.652 332.492, 761.886 332.929 C 757.851 333.567, 755.966 334.591, 752.348 338.112 C 749.869 340.525, 747.170 343.774, 746.352 345.331 C 745.445 347.057, 744.317 347.952, 743.461 347.623 C 741.880 347.017, 732.393 351.115, 727.165 354.663 C 724.917 356.188, 722.272 357, 719.550 357 C 712.520 357, 703.522 361.203, 698.431 366.866 C 693.025 372.878, 686.200 376.490, 681.877 375.625 C 680.042 375.258, 677.729 375.606, 675.979 376.511 C 674.395 377.330, 671.643 378, 669.864 378 C 668.055 378, 665.719 378.847, 664.564 379.923 C 663.220 381.174, 659.923 382.199, 655.112 382.860 C 649.128 383.682, 647.134 384.428, 644.612 386.791 C 640.073 391.044, 633.119 394, 627.652 394 C 622.339 394, 615.528 396.427, 616.487 397.979 C 618.754 401.647, 659.756 394.221, 672.210 387.887 C 674.251 386.849, 676.853 386, 677.994 386 C 679.292 386, 680.818 384.728, 682.075 382.597 C 684.261 378.893, 683.389 379.138, 701.500 377.135 C 714.314 375.718, 719.801 374.490, 721.931 372.562 C 724.285 370.432, 736.597 366.049, 740.306 366.021 C 742.173 366.007, 744.095 364.924, 746.047 362.787 C 748.725 359.855, 749.667 359.516, 756.844 358.899 C 765.946 358.117, 771.386 355.955, 781.382 349.149 C 790.945 342.638, 793.466 341.435, 800.500 340.028 C 805.139 339.101, 807.209 338.072, 809.627 335.493 C 812.611 332.310, 812.949 332.201, 817.002 333.112 C 820.502 333.898, 821.712 333.752, 823.875 332.283 C 825.319 331.302, 827.623 330.271, 828.996 329.991 C 830.599 329.664, 832.089 328.231, 833.157 325.991 C 834.072 324.071, 836.391 320.993, 838.310 319.151 C 841.729 315.870, 842.049 315.783, 854.150 314.839 C 866.207 313.899, 866.583 313.797, 870 310.560 C 873.672 307.080, 875.859 306.301, 885.199 305.143 C 888.333 304.754, 891.066 304.226, 891.272 303.968 C 891.479 303.711, 892.646 302.054, 893.865 300.288 C 895.371 298.107, 897.202 296.865, 899.568 296.421 C 901.486 296.062, 903.503 294.930, 904.050 293.906 C 905.739 290.751, 909.943 287.051, 913.553 285.542 C 915.446 284.751, 917.522 282.949, 918.165 281.537 C 919.028 279.643, 920.349 278.808, 923.203 278.352 C 925.330 278.011, 928.742 276.453, 930.785 274.888 C 939.149 268.483, 942.677 266.232, 946.085 265.121 C 949.816 263.906, 953.411 260.623, 956.621 255.500 C 957.654 253.850, 961.672 249.350, 965.548 245.500 C 974.305 236.803, 977.232 231.157, 976.786 223.821 L 976.462 218.500 973.981 226.420 M 816.500 226.886 C 807.834 229.405, 801.252 232.553, 796.488 236.457 C 790.747 241.161, 779.051 243.594, 767.557 242.475 C 752.914 241.050, 749.819 241.347, 743.772 244.760 C 740.742 246.470, 735.841 248.539, 732.881 249.358 C 729.921 250.177, 724.575 252.096, 721 253.621 C 715.715 255.876, 712.350 256.522, 703 257.074 C 690.040 257.839, 677.912 259.983, 670.500 262.819 C 667.750 263.871, 661.700 265.035, 657.054 265.406 C 648.166 266.115, 643.679 267.668, 635.554 272.847 C 630.881 275.827, 630.076 276, 620.929 276 C 612.922 276, 610.320 276.410, 605.874 278.371 C 602.918 279.675, 598.925 281.066, 597 281.463 C 595.075 281.860, 590.531 284.151, 586.902 286.554 C 582.564 289.427, 577.598 291.641, 572.402 293.020 C 568.056 294.174, 563.150 295.629, 561.500 296.253 C 558.018 297.570, 547.790 304.123, 548.347 304.680 C 548.554 304.888, 552.274 303.670, 556.612 301.975 C 561.177 300.191, 567.717 298.552, 572.136 298.084 C 578.338 297.426, 582.308 296.123, 593.257 291.147 L 606.741 285.019 616.121 285.221 C 629.973 285.518, 643.327 283.028, 651.131 278.693 C 661.256 273.068, 673.470 270, 685.737 270 C 694.757 270, 696.846 269.659, 702.280 267.295 C 707.732 264.925, 710.228 264.520, 722.500 264.017 C 736.140 263.458, 736.693 263.348, 744.009 259.712 C 749.338 257.064, 754.254 255.538, 760.941 254.457 C 766.123 253.619, 773.094 251.781, 776.432 250.374 C 779.769 248.967, 785.875 246.796, 790 245.549 C 805.065 240.995, 821.257 232.125, 824.058 226.892 C 825.314 224.545, 824.557 224.545, 816.500 226.886 M 984.942 244.250 C 984.318 246.588, 982.142 250.975, 980.105 254 C 978.069 257.025, 975.626 261.570, 974.676 264.099 C 972.591 269.654, 969.821 272.346, 964.500 273.988 C 958.284 275.906, 952.579 279.552, 949.520 283.563 C 947.436 286.295, 944.039 288.480, 936.140 292.168 C 928.065 295.939, 924.086 298.521, 919.364 303.056 C 915.959 306.325, 912.737 309, 912.204 309 C 911.671 309, 909.495 310.708, 907.368 312.796 C 904.148 315.956, 902.160 316.899, 895.500 318.423 C 891.100 319.431, 885.925 321.035, 884 321.989 C 880.046 323.949, 866.205 328.519, 861.178 329.525 C 853.402 331.082, 842.376 337.171, 833.869 344.606 C 831.167 346.968, 828.865 347.955, 824.869 348.465 C 815.184 349.700, 808.120 352.188, 800.332 357.106 C 796.113 359.770, 789.865 362.880, 786.446 364.018 C 783.028 365.156, 778.043 367.642, 775.369 369.543 C 770.785 372.802, 770.042 373, 762.394 373 C 754.365 373, 754.235 373.041, 749.777 376.965 C 746.821 379.567, 743.634 381.298, 740.509 381.998 C 733.909 383.477, 732.521 384.383, 728.990 389.515 L 725.904 394 715.702 394.004 C 703.764 394.008, 701.664 394.924, 693.764 403.568 L 688.799 409 681.014 409 C 672.758 409, 673.476 408.734, 658.050 417.500 C 648.129 423.137, 643.519 426.499, 643.166 428.356 C 642.667 430.975, 643.886 431.852, 649.475 432.896 C 654.941 433.918, 657.516 433.253, 663.175 429.360 C 665.741 427.595, 669.062 426.555, 674.175 425.917 C 682.446 424.884, 685.555 423.087, 688.500 417.637 C 691.131 412.767, 693.815 412.212, 701.543 414.940 C 708.273 417.316, 709.811 417.077, 713.416 413.093 C 714.706 411.667, 716.524 411, 719.116 411 C 722.230 411, 723.643 410.272, 726.883 407 C 730.194 403.656, 731.501 403, 734.856 403 C 740.037 403, 743.508 401.639, 747.686 397.971 C 749.539 396.344, 752.855 394.094, 755.055 392.972 C 757.255 391.850, 761.573 388.651, 764.651 385.863 C 771.616 379.556, 775.242 378.012, 783.218 377.956 C 792.602 377.891, 797.702 376.589, 802.332 373.076 C 806.850 369.648, 819.647 363, 821.728 363 C 822.435 363, 825.648 360.324, 828.868 357.054 C 835.219 350.603, 835.838 350.351, 847.044 349.654 C 853.775 349.236, 855.339 348.723, 861.544 344.895 C 865.370 342.536, 870.402 338.894, 872.728 336.803 C 875.157 334.618, 877.982 333, 879.368 333 C 880.696 333, 883.743 332.110, 886.141 331.022 C 888.538 329.934, 891.430 329.034, 892.566 329.022 C 893.702 329.010, 895.994 327.461, 897.659 325.581 C 899.594 323.396, 902.277 321.741, 905.093 320.996 C 907.517 320.356, 911.561 318.521, 914.081 316.920 C 916.600 315.319, 921.225 313.127, 924.358 312.049 C 927.492 310.971, 931.955 308.550, 934.278 306.669 C 936.600 304.788, 939.883 302.548, 941.573 301.690 C 943.263 300.833, 945.230 299.427, 945.945 298.566 C 946.721 297.631, 948.828 297, 951.174 297 C 954.661 297, 955.225 296.654, 956.173 293.933 C 956.930 291.762, 958.566 290.228, 961.774 288.683 C 965.372 286.949, 967.154 285.100, 970.430 279.699 C 972.699 275.959, 975.960 271.799, 977.677 270.456 C 979.963 268.666, 981.128 266.609, 982.034 262.757 C 982.715 259.866, 984.135 255.782, 985.191 253.682 C 987.490 249.109, 988.812 240, 987.178 240 C 986.572 240, 985.566 241.912, 984.942 244.250 M 974.820 294.750 C 974 295.712, 972.749 297.967, 972.039 299.760 C 970.637 303.302, 962.270 311.007, 954.816 315.618 C 952.240 317.212, 947.515 320.639, 944.316 323.235 C 941.117 325.830, 933.007 331.999, 926.293 336.944 C 918.556 342.642, 913.468 347.137, 912.401 349.217 C 911.475 351.023, 909.881 353.573, 908.859 354.885 C 906.893 357.407, 906.401 360, 907.888 360 C 909.282 360, 918.624 353.331, 926.404 346.781 C 930.307 343.496, 935.300 339.894, 937.500 338.777 C 939.700 337.659, 943.618 334.777, 946.207 332.373 C 948.796 329.968, 951.337 328, 951.853 328 C 952.369 328, 954.260 325.711, 956.055 322.914 C 957.851 320.116, 961.610 316.121, 964.410 314.036 C 971.777 308.549, 973.726 306.110, 975.984 299.546 C 977.093 296.323, 978 293.532, 978 293.343 C 978 292.383, 976.132 293.209, 974.820 294.750 M 468.870 327.963 C 466.282 329.677, 460.837 331.791, 455.949 332.979 C 437.221 337.532, 433.313 338.815, 429 341.826 C 426.022 343.905, 421.964 345.493, 417 346.521 C 411.631 347.632, 407.842 349.186, 403.666 351.988 C 399.893 354.520, 396.184 356.124, 393.166 356.530 C 382.668 357.941, 364.194 364.379, 348.500 372.095 C 341.197 375.686, 335.900 377.503, 328.860 378.835 C 319.277 380.647, 314.386 383.175, 309.904 388.634 C 309.132 389.574, 304.450 392.954, 299.500 396.144 C 285.411 405.223, 285.724 404.922, 291 404.330 C 298.672 403.469, 304.490 401.122, 308.048 397.450 C 310.142 395.290, 313.354 393.378, 316.421 392.468 C 319.157 391.655, 324.344 389.217, 327.948 387.051 C 338.454 380.734, 350.674 376, 356.476 376 C 364.521 376, 377.800 371.145, 383.733 366.034 C 387.789 362.540, 391.260 360.848, 401.632 357.307 C 414.297 352.983, 414.654 352.923, 424.264 353.504 L 434.029 354.094 440.095 348.065 C 445.328 342.865, 447.145 341.744, 453.330 339.907 C 457.274 338.736, 462.300 336.753, 464.500 335.500 C 466.700 334.247, 470.075 332.710, 472 332.085 C 473.925 331.460, 477.075 329.622, 479 328.001 L 482.500 325.054 477.921 325.027 C 474.490 325.007, 472.222 325.743, 468.870 327.963 M 950.437 347.092 C 948.822 348.792, 945.873 351.020, 943.885 352.043 C 941.897 353.066, 936.047 358.043, 930.885 363.103 C 902.981 390.458, 861.607 413.360, 786.500 443.026 C 702.246 476.304, 668.272 490.974, 657.204 498.854 C 655.192 500.287, 652.691 501, 649.672 501 C 645.259 501, 640.821 503.504, 637.368 507.942 C 636.553 508.991, 633.478 509.499, 626.368 509.761 C 614.925 510.182, 612.723 510.884, 604.198 516.831 C 600.732 519.249, 596.007 521.804, 593.698 522.509 C 591.389 523.215, 587.067 524.760, 584.094 525.943 C 581.120 527.126, 575.644 528.476, 571.925 528.943 C 567.054 529.555, 563.950 530.614, 560.831 532.728 C 558.449 534.343, 554.364 536.528, 551.754 537.582 C 549.143 538.637, 547.006 540.063, 547.004 540.750 C 546.998 542.720, 555.195 542.266, 560.141 540.022 C 562.538 538.934, 566.624 538.034, 569.221 538.022 C 572.824 538.005, 574.954 537.290, 578.221 535.002 C 581.010 533.049, 584.242 531.807, 587.500 531.438 C 595.903 530.485, 597.031 530.050, 598.052 527.364 C 598.922 525.076, 599.421 524.856, 602.460 525.427 C 607.169 526.310, 617.563 523.736, 626.819 519.394 C 632.475 516.741, 636.649 515.561, 642.652 514.920 C 647.733 514.376, 652.109 513.278, 654.268 512.004 C 656.174 510.880, 658.416 510.223, 659.252 510.543 C 661.168 511.278, 667.317 508.029, 670.489 504.606 C 671.870 503.116, 673.992 502, 675.444 502 C 676.840 502, 679.981 500.474, 682.424 498.610 C 684.867 496.745, 691.958 493.194, 698.183 490.719 C 730.617 477.822, 794.863 451.790, 816 442.981 C 822.875 440.116, 832.151 436.270, 836.614 434.435 C 860.312 424.689, 884.724 411.636, 905 397.867 C 918.568 388.654, 922.192 385.568, 924.299 381.433 C 925.243 379.580, 927.480 377.636, 929.947 376.524 C 933.870 374.755, 942.825 364.978, 945.998 359 C 946.728 357.625, 948.573 354.925, 950.099 353 C 952.531 349.933, 954.968 344, 953.795 344 C 953.564 344, 952.052 345.391, 950.437 347.092 M 900 353.006 C 898.075 354.019, 894.612 355.614, 892.305 356.551 C 889.998 357.488, 887.143 359.284, 885.960 360.542 L 883.811 362.830 886.367 364.505 C 888.524 365.918, 889.485 365.995, 892.510 364.997 C 894.482 364.346, 897.250 363.687, 898.661 363.532 C 901.451 363.226, 902.961 361.532, 902.985 358.684 C 902.993 357.686, 903.492 355.950, 904.093 354.827 C 905.740 351.750, 903.923 350.941, 900 353.006 M 873.043 369.637 C 869.585 370.937, 865.218 372, 863.338 372 C 860.665 372, 859.110 372.851, 856.210 375.900 C 854.148 378.067, 850.723 380.349, 848.500 381.037 C 839.017 383.968, 832.590 388.391, 831.843 392.500 C 831.524 394.254, 830.567 394.537, 824.065 394.797 C 818.480 395.021, 816.344 395.515, 815.406 396.797 C 814.340 398.255, 813.707 398.328, 810.999 397.306 C 808.746 396.455, 807.068 396.408, 805.168 397.140 C 803.701 397.705, 800.396 397.894, 797.824 397.559 C 792.778 396.903, 792.257 397.252, 790.500 402.470 C 789.755 404.683, 788.298 405.937, 784.789 407.389 C 780.483 409.170, 779.590 409.221, 774.420 407.981 C 767.077 406.219, 763.674 407.746, 763.168 413.027 C 762.676 418.166, 761.691 418.907, 757.009 417.657 C 753.828 416.808, 752.072 416.927, 748.264 418.252 C 745.644 419.163, 740.800 420.382, 737.500 420.959 C 733.095 421.731, 729.716 423.226, 724.786 426.587 C 720.698 429.374, 715.913 431.666, 712.551 432.447 C 709.514 433.153, 706.372 434.276, 705.568 434.943 C 704.095 436.166, 701.755 437.491, 689.316 444.147 C 685.567 446.153, 680.751 449.190, 678.612 450.897 C 675.679 453.239, 673.712 454, 670.598 454 C 665.940 454, 660.408 456.639, 654.546 461.657 C 652.165 463.695, 649.021 465.293, 646.643 465.673 C 642.530 466.331, 638.493 469.371, 639.523 471.036 C 640.592 472.768, 645.041 472.054, 651.869 469.057 C 655.557 467.439, 662.596 464.949, 667.513 463.524 C 678.132 460.447, 680.046 459.312, 683.061 454.301 C 684.318 452.210, 685.483 450.323, 685.649 450.107 C 685.816 449.892, 686.525 450.170, 687.226 450.725 C 688.090 451.410, 691.236 451.320, 697 450.445 C 704.862 449.252, 708.861 447.917, 719.515 442.929 C 722.213 441.666, 724.685 441.237, 727.053 441.621 C 731.748 442.383, 757.668 432.850, 765.424 427.508 C 771.034 423.644, 772.467 423.446, 779.612 425.542 C 781.086 425.974, 782.576 425.370, 784.549 423.542 C 786.626 421.617, 788.054 421.072, 789.937 421.485 C 791.890 421.912, 793.809 421.079, 798 417.986 C 801.025 415.754, 804.670 412.579, 806.100 410.931 C 808.446 408.228, 808.979 408.041, 811.561 409.023 C 815.382 410.476, 817.990 409.686, 822.891 405.591 C 826.746 402.370, 837.346 398.172, 846 396.438 C 853.101 395.016, 866.671 387.151, 879.267 377.159 C 886.307 371.574, 886.797 370.868, 884.750 369.267 C 882.168 367.247, 879.146 367.342, 873.043 369.637 M 571.655 409.622 C 569.328 410.883, 568.283 410.946, 565.919 409.966 C 562.118 408.392, 554.926 409.497, 548.814 412.594 C 545.475 414.286, 542.400 415, 538.451 415 C 534.397 415, 530.934 415.834, 526 418 C 522.241 419.650, 518.720 421, 518.176 421 C 517.631 421, 515.276 423.281, 512.942 426.069 L 508.698 431.138 500.599 430.673 C 496.145 430.417, 491.085 429.892, 489.356 429.506 C 486.847 428.946, 484.438 429.636, 477.424 432.922 C 472.591 435.187, 465.897 437.676, 462.549 438.452 C 459.201 439.229, 453.919 441.201, 450.813 442.836 C 446.376 445.169, 443.270 445.963, 436.332 446.536 C 429.002 447.141, 426.992 447.691, 424.510 449.770 C 421.622 452.190, 421.170 452.254, 411.132 451.686 C 400.406 451.078, 388.373 452.721, 383 455.525 C 379.132 457.544, 367.295 460.234, 359 460.980 C 353.103 461.510, 350.217 462.380, 345.500 465.048 C 340.540 467.853, 338.547 468.419, 334 468.314 C 330.975 468.244, 328.050 468.061, 327.500 467.908 C 326.950 467.755, 323.238 467.983, 319.250 468.416 C 314.090 468.976, 312 469.605, 312 470.598 C 312 471.664, 313.593 471.969, 318.750 471.891 C 322.462 471.834, 327.525 472.334, 330 473.001 C 332.613 473.706, 336.712 473.955, 339.777 473.595 C 343.544 473.153, 345.890 473.409, 347.977 474.488 C 351.705 476.416, 356.400 476.427, 357.990 474.512 C 360.225 471.819, 365.685 468.998, 370.350 468.127 C 372.874 467.655, 382.715 467.644, 392.219 468.101 C 412.385 469.070, 415.754 468.500, 419.592 463.469 C 422.504 459.650, 424.419 459.205, 427.786 461.563 C 431.445 464.126, 436.069 463.048, 438.779 459 C 442.824 452.960, 456.725 448.388, 469.500 448.898 C 472.250 449.008, 476.300 449.164, 478.500 449.246 C 484.239 449.460, 493.081 446.718, 504 441.341 C 511.426 437.683, 515.028 436.516, 520.500 435.993 C 524.350 435.626, 528.696 434.829, 530.158 434.222 C 531.620 433.616, 536.795 432.824, 541.658 432.463 C 548.302 431.970, 552.082 431.085, 556.862 428.903 C 560.362 427.306, 564.457 426, 565.963 426 C 567.470 426, 570.740 424.917, 573.230 423.593 C 575.946 422.148, 580.507 420.891, 584.629 420.451 C 588.408 420.047, 593.933 418.880, 596.907 417.858 C 599.880 416.836, 604.493 416, 607.157 416 C 609.820 416, 612 415.587, 612 415.082 C 612 413.750, 605.603 410, 603.332 410 C 602.269 410, 600.973 410.395, 600.450 410.879 C 599.181 412.052, 582.081 410.680, 579.316 409.183 C 576.500 407.658, 575.135 407.736, 571.655 409.622 M 867 436.032 C 863.828 439.226, 860.582 441.252, 856 442.897 C 852.425 444.180, 847.025 446.702, 844 448.500 C 834.626 454.073, 830.263 455.976, 823.707 457.350 C 818.429 458.456, 815.818 459.849, 807.941 465.762 C 802.748 469.659, 796.033 473.816, 793.018 475.001 C 790.002 476.185, 785.215 479.136, 782.379 481.560 C 776.879 486.258, 773.371 488, 769.410 488 C 768.057 488, 764.374 488.964, 761.225 490.142 C 758.076 491.320, 751.900 493.542, 747.500 495.079 C 738.255 498.308, 732 502.925, 732 506.521 C 732 514.780, 749.108 511.099, 764.713 499.483 C 769.765 495.723, 772.063 494.698, 777.006 493.999 C 784.500 492.940, 790.381 489.595, 799.029 481.473 C 804.407 476.422, 806.603 475.059, 811.054 474.007 C 819.375 472.041, 834.681 463.911, 842.669 457.214 C 847.053 453.539, 852.104 450.364, 855.669 449.043 C 866.601 444.992, 872.604 439.279, 871.810 433.684 C 871.528 431.700, 871.088 431.915, 867 436.032 M 611 433.918 C 600.253 440.245, 599.944 440.343, 596.299 438.606 C 591.082 436.118, 587.978 436.648, 580.396 441.323 C 573.190 445.766, 565.916 447.974, 556 448.728 C 552.975 448.958, 548.700 449.966, 546.500 450.967 C 544.300 451.969, 539.302 453.058, 535.394 453.387 C 527.177 454.081, 521.004 456.041, 515.888 459.582 C 513.901 460.956, 510.526 462.345, 508.388 462.668 C 506.250 462.990, 502.247 464.517, 499.494 466.061 C 496.063 467.985, 491.353 469.372, 484.524 470.471 C 476.988 471.684, 473.434 472.797, 469.942 475.037 C 466.019 477.554, 464.333 478, 458.733 478 C 453.339 478, 450.265 478.751, 441.821 482.132 C 432.273 485.954, 430.564 486.312, 419 486.903 C 408.214 487.454, 405.814 487.899, 401.500 490.149 C 397.100 492.443, 395.247 492.769, 386.058 492.862 C 379.496 492.928, 373.853 493.552, 370.872 494.542 C 366.519 495.988, 365.867 495.982, 362.943 494.470 C 358.290 492.064, 354.285 493.257, 347.447 499.086 C 344.176 501.874, 339.813 505.029, 337.750 506.098 C 331.340 509.419, 333.653 512.016, 341.145 509.909 C 343.540 509.235, 347.750 508.561, 350.500 508.411 C 365.708 507.580, 385.075 505.889, 389 505.050 C 391.475 504.520, 399.236 504.068, 406.247 504.044 L 418.994 504 422.747 500.641 C 426.858 496.961, 431.146 495.914, 443.500 495.573 C 448.802 495.427, 451.412 494.824, 454.259 493.086 C 457.234 491.270, 458.903 490.914, 462.259 491.380 C 471.699 492.688, 481.002 493.216, 483.513 492.586 C 484.976 492.219, 488.293 489.935, 490.884 487.511 C 497.179 481.623, 499.622 480.790, 506.525 482.177 C 513.342 483.546, 518.496 482.259, 523.383 477.969 C 527.385 474.455, 537.657 471.031, 544.250 471.013 C 549.210 470.999, 550.554 470.165, 554.598 464.590 C 556.560 461.885, 556.909 461.772, 559.997 462.849 C 564.988 464.589, 566.308 464.309, 571.389 460.429 C 573.961 458.466, 579.313 455.714, 583.283 454.314 C 589.503 452.121, 592.158 451.773, 602.500 451.797 C 612.380 451.819, 615.338 451.465, 619.242 449.792 C 627.680 446.177, 633.556 437.366, 629.676 434.146 C 628.947 433.541, 625.235 432.779, 621.426 432.452 C 615.549 431.948, 613.970 432.170, 611 433.918 M 175.308 455.815 C 161.853 463.902, 133 488.605, 133 492.038 C 133 493.309, 135.532 492.026, 143.056 486.943 C 146.112 484.878, 150.235 482.511, 152.218 481.682 C 155.897 480.145, 160.826 475.606, 171.500 463.923 C 174.800 460.312, 179.300 455.941, 181.500 454.212 C 187.417 449.560, 184.428 450.334, 175.308 455.815 M 193.227 460.433 C 189.102 462.311, 170.280 480.544, 164.254 488.500 C 161.755 491.800, 158.606 496.886, 157.258 499.801 L 154.806 505.103 139.041 504.410 C 125.681 503.823, 122.149 503.989, 115.888 505.502 C 107.323 507.573, 94.642 513.619, 89.621 518.028 C 86.194 521.037, 75.494 537.898, 71.044 547.302 C 68.389 552.911, 66.305 554.486, 59.541 555.996 C 52.696 557.523, 51.800 558.469, 52.525 563.404 C 52.919 566.093, 52.675 568.074, 51.813 569.172 C 51.091 570.091, 43.300 574.449, 34.500 578.857 C 25.700 583.265, 17.487 587.817, 16.250 588.974 C 14.275 590.821, 14 592.068, 14 599.173 C 14 609.984, 15.516 614.584, 20.761 619.693 C 26.109 624.901, 33.146 628.266, 43.439 630.535 C 50.395 632.068, 52.687 632.139, 61.939 631.110 C 98.073 627.088, 98.269 627.045, 107.510 621.083 L 112.500 617.863 107 618.414 C 103.975 618.717, 92.950 619.204, 82.500 619.497 C 72.050 619.789, 58.550 620.526, 52.500 621.134 C 39.033 622.488, 35.134 621.631, 28.596 615.876 C 26.021 613.609, 24.089 611.578, 24.304 611.362 C 24.519 611.147, 27.293 612.160, 30.467 613.614 C 36.001 616.147, 36.512 616.206, 42.870 615.030 C 46.516 614.356, 58.950 613.412, 70.500 612.932 C 102.513 611.602, 114.482 610.447, 126.500 607.527 C 134.233 605.648, 141.383 604.691, 150.576 604.303 L 163.653 603.751 169.076 608.455 C 175.059 613.644, 180.962 620.033, 180.985 621.344 C 180.993 621.808, 178.637 620.485, 175.750 618.405 C 163.029 609.239, 164.320 609.744, 155.500 610.471 C 143.932 611.424, 135.010 613.458, 128.874 616.540 C 123.178 619.402, 111.594 627.582, 108.683 630.798 C 106.981 632.679, 107.178 632.731, 118.222 633.294 C 124.425 633.611, 136.025 634.397, 144 635.042 C 161.273 636.438, 175.010 635.903, 180.404 633.623 C 184.619 631.842, 186.609 632.350, 183.713 634.468 C 180.556 636.776, 165.153 640.038, 153.161 640.938 C 141.445 641.817, 125.061 641.225, 97.826 638.939 C 86.295 637.971, 78.905 637.964, 63.326 638.907 C 52.422 639.568, 43.060 640.546, 42.522 641.082 C 41.044 642.554, 43.184 645.266, 46.577 646.217 C 51.853 647.696, 83.496 649.891, 109.238 650.563 C 137.939 651.313, 157.502 650.313, 189.733 646.450 C 210.233 643.993, 214.424 643.831, 261.714 643.671 C 319.036 643.476, 314.720 644.227, 315.896 634.247 C 316.766 626.869, 318.321 624.417, 325.677 618.827 C 333.897 612.579, 337.274 607.396, 337.777 600.255 C 338.508 589.891, 333.529 580.488, 318.550 563.944 C 314.843 559.850, 309.055 553.035, 305.688 548.800 C 302.322 544.565, 299.433 541.233, 299.270 541.396 C 299.107 541.559, 300.160 544.799, 301.609 548.596 C 303.059 552.393, 305.338 559.009, 306.675 563.298 C 308.012 567.587, 310.463 573.212, 312.123 575.798 C 315.465 581.008, 315.521 584.516, 312.425 594.941 C 309.325 605.379, 299.115 612.646, 283.465 615.553 C 265.315 618.924, 253.437 622.127, 248.264 625.046 C 241.967 628.600, 241.436 627.495, 247.107 622.640 C 252.172 618.305, 262.057 614.729, 276.500 612.008 C 288.584 609.732, 298.678 605.496, 301.959 601.326 C 308.885 592.519, 306.600 575.700, 295.595 554.500 C 291.963 547.503, 290.612 543.535, 289.524 536.671 C 288.755 531.814, 287.360 526.639, 286.423 525.171 C 282.452 518.942, 277.288 513.518, 269.077 506.953 C 264.208 503.060, 257.271 496.152, 253.420 491.364 C 241.317 476.315, 230.404 467.280, 218.025 462.060 C 211 459.097, 198.031 458.246, 193.227 460.433 M 624.625 469.517 C 622.533 471.610, 622.569 472.729, 624.750 473.417 C 627.786 474.374, 632.500 472.556, 632.500 470.428 C 632.500 467.855, 626.932 467.211, 624.625 469.517 M 603.141 479.967 C 600.743 481.085, 597.871 482, 596.759 482 C 595.646 482, 593.171 482.968, 591.257 484.150 C 587.956 486.190, 587.636 486.216, 584.985 484.650 C 579.096 481.172, 562.205 484.002, 552.294 490.127 C 550.449 491.268, 546.365 492.777, 543.220 493.481 C 540.074 494.186, 536.049 495.360, 534.275 496.091 C 531.698 497.153, 530.377 497.177, 527.704 496.210 C 522.588 494.360, 520.634 494.724, 517.437 498.123 C 513.251 502.575, 509.326 503.988, 502.914 503.353 C 498.884 502.953, 495.328 503.448, 489 505.288 C 484.325 506.647, 477.238 508.263, 473.250 508.879 C 469.262 509.496, 462.738 510.505, 458.750 511.121 C 451.218 512.286, 446 514.313, 446 516.073 C 446 516.750, 452.838 516.943, 466.250 516.646 C 483.685 516.259, 487.334 515.898, 492.500 514.053 C 497.789 512.164, 499.803 511.984, 509.500 512.534 L 520.500 513.159 526 509.558 C 531.411 506.015, 539.862 502.378, 545.132 501.324 C 547.172 500.916, 548.086 501.292, 548.943 502.893 C 550.586 505.964, 554.980 505.592, 559.500 502 C 563.855 498.539, 563.184 498.739, 566.363 499.948 C 569.567 501.166, 575.867 498.890, 581.914 494.329 C 585.375 491.719, 587.288 491, 590.770 491 C 597.030 491, 606.428 488.442, 613.750 484.746 C 619.843 481.670, 621.883 479, 618.140 479 C 617.116 479, 614.304 478.760, 611.890 478.467 C 608.704 478.081, 606.305 478.492, 603.141 479.967 M 852 486.152 C 852.001 488.683, 870.052 489.984, 878.372 488.054 C 886.332 486.207, 883.445 485.500, 867.947 485.500 C 859.176 485.500, 851.999 485.793, 852 486.152 M 190.040 486.750 C 190.062 487.163, 195.301 490.415, 201.682 493.979 C 221.871 505.253, 230.834 516.422, 233.166 533.213 C 233.722 537.221, 234.025 548.611, 233.839 558.524 L 233.500 576.548 230.215 583.218 C 227.503 588.724, 224.737 591.947, 214.365 601.686 C 200.572 614.638, 197.226 619.292, 196.341 626.765 C 195.688 632.278, 197.295 637.266, 198.511 633.500 C 201.772 623.401, 206.136 617.968, 223.309 602.627 C 233.545 593.483, 241.333 582.999, 242.919 576.228 C 243.528 573.627, 244.692 567, 245.507 561.500 C 249.265 536.129, 245.290 516.052, 234.547 506.150 C 225.882 498.163, 189.810 482.440, 190.040 486.750 M 855.500 501.644 C 860.885 505.901, 874.234 510, 882.710 510 C 889.250 510, 889.645 508.497, 883.334 507.632 C 880.767 507.281, 873.801 505.419, 867.852 503.496 C 861.904 501.573, 856.241 500.014, 855.268 500.032 C 853.671 500.061, 853.693 500.216, 855.500 501.644 M 713.890 508.470 C 711.904 509.201, 708.497 510.924, 706.319 512.299 C 701.755 515.180, 693.986 518, 690.614 518 C 682.083 518, 676.787 525.675, 683.018 529.010 C 685.292 530.227, 694.526 527.288, 699.755 523.684 C 701.815 522.263, 705.750 520.604, 708.500 519.995 C 711.250 519.387, 714.887 518.074, 716.581 517.078 C 718.276 516.082, 721.314 514.722, 723.331 514.056 C 725.833 513.230, 727 512.244, 727 510.958 C 727 507.146, 720.722 505.955, 713.890 508.470 M 113.821 512.397 C 103.373 515.206, 97.028 524.032, 97.010 535.782 C 96.999 542.841, 98.856 548.195, 102.712 552.220 C 105.163 554.780, 105.205 554.981, 103.409 555.614 C 88.794 560.767, 80 565.019, 80 566.931 C 80 567.460, 82.439 567.053, 85.420 566.027 C 88.401 565.002, 95.039 563.891, 100.170 563.559 C 126.438 561.859, 130.955 561.039, 139.500 556.416 C 145.063 553.405, 149.784 549.758, 155 544.440 C 160.661 538.667, 161.887 536.968, 160 537.508 C 158.625 537.902, 155.514 539.748, 153.086 541.612 C 150.658 543.475, 148.348 545, 147.953 545 C 146.885 545, 146.032 541.091, 145.990 536 C 145.969 533.525, 145.537 529.700, 145.028 527.500 C 142.746 517.618, 125.480 509.263, 113.821 512.397 M 848.978 513.959 C 850.685 517.148, 859.729 524.457, 868.213 529.504 C 876.571 534.475, 889.830 540.504, 890.635 539.698 C 890.885 539.448, 886.457 536.131, 880.795 532.327 C 875.133 528.523, 867.125 523.109, 863 520.297 C 858.875 517.485, 853.808 514.489, 851.740 513.639 C 848.138 512.159, 848.022 512.172, 848.978 513.959 M 110.212 519.716 C 104.674 523.307, 102.681 527.725, 102.643 536.496 C 102.610 543.975, 104.005 547.820, 108.155 551.683 C 112.373 555.611, 115.656 556.255, 124.816 554.955 C 131.570 553.996, 133.930 553.173, 137.321 550.593 C 141.062 547.746, 141.532 546.914, 141.807 542.658 C 142.458 532.562, 136.746 521.463, 129.298 518.351 C 127.519 517.608, 123.440 517, 120.232 517 C 115.583 517, 113.551 517.551, 110.212 519.716 M 115.298 524.782 C 114.087 524.972, 111.724 526.689, 110.048 528.598 C 104.436 534.990, 106.349 544.544, 114.039 548.520 C 120.736 551.983, 126.197 548.971, 127.938 540.852 C 129.241 534.780, 128.504 529.767, 125.974 527.477 C 123.909 525.608, 118.596 524.267, 115.298 524.782 M 840 525.224 C 840 527.560, 847.135 537.191, 853.543 543.506 C 856.991 546.903, 868.066 555.768, 878.156 563.207 C 895.642 576.099, 902.673 580.661, 903.611 579.722 C 903.845 579.488, 898.071 574.167, 890.780 567.898 C 883.489 561.629, 872.741 552, 866.896 546.500 C 854.458 534.796, 840 523.359, 840 525.224 M 661.500 528.552 C 657.650 529.951, 652.427 531.765, 649.893 532.582 C 643.984 534.486, 640.740 537.858, 641.174 541.646 C 641.457 544.128, 641.885 544.472, 644.460 544.283 C 646.088 544.164, 648.735 543.094, 650.342 541.905 C 651.950 540.717, 657.104 538.905, 661.796 537.880 C 673.445 535.334, 678.314 531.841, 674.887 528.488 C 672.283 525.941, 668.633 525.958, 661.500 528.552 M 631.655 539.829 C 629.416 542.303, 629.572 545.303, 632.059 547.553 C 635.766 550.908, 639.111 546.561, 637.564 540.398 C 636.840 537.515, 633.997 537.241, 631.655 539.829 M 179.139 542 C 177.291 542.436, 175.041 543.567, 174.139 544.513 C 172.600 546.128, 172.720 546.194, 176.111 545.597 C 178.097 545.248, 182.133 545.479, 185.080 546.110 C 189.149 546.983, 193.691 546.969, 203.968 546.052 C 211.411 545.389, 218.287 544.625, 219.250 544.355 C 221.962 543.596, 221.315 542.283, 218.250 542.325 C 216.738 542.346, 208.075 542.103, 199 541.785 C 189.925 541.467, 180.988 541.563, 179.139 542 M 502.470 542.770 C 494.297 547.052, 479.186 551.197, 469 551.949 C 461.896 552.474, 456.961 553.406, 453.743 554.830 C 451.127 555.988, 445.277 557.591, 440.743 558.392 C 430.690 560.169, 424.789 562.085, 424.243 563.750 C 423.949 564.646, 425.363 565, 429.241 565 C 435.506 565, 454.107 562.418, 458.500 560.938 C 460.150 560.382, 468.268 559.058, 476.540 557.996 C 484.812 556.933, 493.812 555.194, 496.540 554.130 C 499.949 552.801, 505.892 551.907, 515.547 551.270 C 528.206 550.435, 530.132 550.055, 535.038 547.422 C 544.795 542.184, 543.468 541.512, 523.147 541.408 C 509.288 541.337, 504.617 541.645, 502.470 542.770 M 607 547.440 C 604.525 548.730, 601.600 550.803, 600.500 552.046 L 598.500 554.305 602 553.520 C 603.925 553.087, 609.775 552.456, 615 552.117 C 624.890 551.475, 627 550.835, 627 548.476 C 627 544.360, 614.180 543.695, 607 547.440 M 88.555 572.574 C 83.099 574.480, 79.562 575.004, 72.055 575.017 C 62.755 575.034, 51.578 576.777, 45.500 579.159 C 43.850 579.805, 39.350 582.601, 35.500 585.371 C 19.556 596.842, 18.946 599.050, 33.770 591.631 C 44.162 586.429, 48.666 585.074, 68.769 581.097 C 83.826 578.119, 89.124 576.379, 96 572.157 C 100.753 569.238, 97.601 569.415, 88.555 572.574 M 403.500 647.589 C 409.550 650.574, 417.383 653.920, 420.908 655.025 C 429.261 657.642, 448.234 661.041, 453.425 660.850 C 456.815 660.726, 456.996 660.628, 454.500 660.271 C 443.703 658.726, 434.564 655.909, 405.178 645.070 C 392.107 640.249, 391.245 641.543, 403.500 647.589 M 395.884 657.987 C 398.764 660.464, 412.586 668.220, 431.400 677.914 C 439.044 681.854, 446.469 685.894, 447.900 686.893 C 453.661 690.917, 468.547 698, 471.244 698 C 475.111 698, 474.090 696.751, 467.769 693.752 C 464.871 692.377, 458.450 688.226, 453.500 684.528 C 439.717 674.231, 432.453 670.327, 416.324 664.551 C 408.171 661.630, 399.700 658.497, 397.500 657.588 L 393.500 655.935 395.884 657.987 M 398.491 676.985 C 399.910 679.282, 412.294 687.170, 422.500 692.279 C 440.357 701.217, 453.537 705.301, 474.743 708.470 C 486.483 710.224, 487.040 710.256, 484.998 709.059 C 484.171 708.574, 480.571 707.657, 476.998 707.021 C 462.074 704.365, 424.626 690, 406.377 679.930 C 399.038 675.881, 397.439 675.284, 398.491 676.985"/>
</svg>