<?xml version="1.0" encoding="utf-8"?>
<svg xmlns="http://www.w3.org/2000/svg" width="1002" height="632" viewBox="0 0 1002 632">
  <path fill-rule="evenodd" d="M 230.250 1.710 C 229.012 1.946, 228 2.495, 228 2.930 C 228 3.365, 224.798 4.732, 220.885 5.967 C 216.646 7.305, 212.301 9.508, 210.135 11.418 C 208.136 13.181, 204.778 15.614, 202.673 16.824 C 200.568 18.034, 194.493 22.745, 189.173 27.293 C 183.853 31.841, 177.564 36.863, 175.197 38.453 C 172.831 40.044, 169.613 42.955, 168.046 44.922 C 166.479 46.890, 162.387 50.750, 158.953 53.500 C 155.519 56.250, 150.845 60.300, 148.567 62.500 C 138.272 72.442, 130.447 79.324, 126.865 81.585 C 124.728 82.935, 115.255 91.890, 105.815 101.486 C 90.118 117.443, 88.157 119.101, 82.865 120.888 C 76.423 123.064, 72.642 125.769, 59.500 137.607 C 54.550 142.066, 49.488 146.244, 48.250 146.892 C 47.013 147.540, 46 148.524, 46 149.078 C 46 150.534, 38.205 161.131, 35.330 163.582 C 32.724 165.805, 30.134 173.948, 27.407 188.500 C 25.943 196.311, 20.790 209, 19.083 209 C 18.612 209, 17.918 211.061, 17.540 213.581 C 16.880 217.981, 17.003 218.293, 20.677 221.522 C 22.779 223.371, 25.655 225.152, 27.067 225.481 C 31.432 226.497, 49.403 241.394, 52.971 246.955 C 56.702 252.768, 56.439 254.672, 51.803 255.429 C 35.429 258.101, 6.553 264.776, 5.761 266.072 C 3.616 269.585, 2 273.632, 2 275.492 C 2 279.862, 10.733 285.362, 29.018 292.507 C 34.198 294.531, 40.625 297.296, 43.301 298.653 C 45.977 300.009, 50.140 301.234, 52.553 301.376 C 54.965 301.519, 57.740 302.324, 58.719 303.165 C 61.083 305.197, 63.579 306.134, 69 307.023 C 71.475 307.429, 77.059 308.715, 81.410 309.881 C 85.760 311.046, 91.218 312, 93.538 312 C 95.894 312, 98.258 312.606, 98.895 313.373 C 99.877 314.556, 107.300 316.300, 112 316.452 C 112.825 316.478, 113.950 317.054, 114.500 317.732 C 116.748 320.501, 145.227 323.099, 175.916 323.335 L 197.332 323.500 198.688 328 C 201.591 337.628, 202.865 342.851, 204.542 352 C 206.669 363.597, 206.806 363.980, 208.857 364.079 C 209.895 364.129, 210.039 364.344, 209.250 364.662 C 207.509 365.365, 207.684 367, 209.500 367 C 211.222 367, 211.537 368.654, 209.918 369.194 C 208.608 369.631, 213.086 385.841, 216.603 393.395 C 217.911 396.203, 218.985 399.482, 218.990 400.682 C 218.996 401.955, 220.243 403.749, 221.984 404.989 C 223.626 406.158, 226.481 409.451, 228.328 412.307 C 233.777 420.728, 237.698 427.473, 238.361 429.563 C 238.702 430.637, 241.588 434.325, 244.775 437.758 C 249.474 442.820, 251.154 444, 253.662 444 C 255.363 444, 257.271 443.378, 257.902 442.618 C 259.224 441.025, 259.096 435.095, 257.701 433.250 C 257.181 432.562, 257.068 432, 257.451 432 C 257.834 432, 256.729 429.522, 254.996 426.492 C 252.603 422.310, 251.998 420.284, 252.484 418.073 C 252.921 416.085, 252.470 413.881, 251.062 411.121 C 249.928 408.898, 249 406.354, 249 405.467 C 249 404.580, 248.134 400.175, 247.075 395.677 C 246.016 391.180, 244.885 383.450, 244.563 378.500 L 243.977 369.500 245.997 371.871 C 247.108 373.176, 251.004 379.926, 254.654 386.871 C 269.010 414.188, 276.369 426.321, 283.634 434.654 C 286.585 438.038, 289 441.231, 289 441.748 C 289 443.446, 306.387 457.988, 311.446 460.523 C 319.969 464.791, 326.035 463.295, 321.919 457.938 C 320.888 456.597, 320.034 455.128, 320.022 454.672 C 320.010 454.217, 317.337 449.267, 314.082 443.672 C 310.827 438.078, 306.543 429.225, 304.562 424 C 302.581 418.775, 300.527 413.730, 299.996 412.790 C 299.466 411.849, 299.274 410.449, 299.570 409.679 C 299.865 408.908, 298.774 402.703, 297.145 395.889 C 295.516 389.075, 293.689 379.121, 293.085 373.768 C 290.651 352.217, 283.814 343.126, 255.500 323.788 C 252.200 321.534, 249.305 319.528, 249.067 319.329 C 248.828 319.130, 249.115 318.485, 249.704 317.896 C 250.464 317.136, 250.969 317.140, 251.446 317.913 C 252.489 319.601, 258.128 319.194, 260.245 317.278 C 261.576 316.074, 262.051 315.966, 261.824 316.920 C 261.324 319.025, 273.412 319.494, 278.490 317.566 C 280.696 316.728, 284.525 316.054, 287 316.068 C 289.475 316.081, 296.450 315.677, 302.500 315.171 C 308.710 314.651, 315.850 314.618, 318.896 315.096 C 322.209 315.616, 326.059 315.547, 328.866 314.918 C 331.381 314.354, 334.559 314.174, 335.928 314.518 C 337.296 314.862, 342.260 315.346, 346.958 315.595 C 351.656 315.843, 356.400 316.149, 357.500 316.273 C 358.928 316.435, 359.595 315.820, 359.836 314.120 L 360.173 311.739 372.837 312.439 C 399.123 313.891, 405.322 314.753, 407.345 317.236 C 408.360 318.481, 413.523 324.155, 418.818 329.845 C 424.112 335.534, 429.098 341.159, 429.897 342.345 C 430.695 343.530, 432.958 346.361, 434.924 348.635 C 439.567 354.003, 443.623 360.680, 445.538 366.108 C 446.379 368.492, 447.901 371.356, 448.921 372.472 C 449.940 373.587, 451.960 377.041, 453.411 380.148 C 456.709 387.209, 457.915 388.207, 462.680 387.815 C 466.306 387.516, 466.516 387.310, 466.810 383.750 C 467.143 379.727, 468.017 379.111, 470 381.500 C 471.729 383.583, 475.001 383.419, 474.996 381.250 C 474.994 380.288, 474.094 378.027, 472.996 376.226 C 469.282 370.134, 471.086 365.370, 476.093 368.050 C 477.997 369.069, 478.540 368.966, 479.637 367.377 C 482.186 363.682, 483.114 363, 485.589 363 C 486.970 363, 489.358 362.349, 490.895 361.554 C 493.759 360.073, 494.891 360.014, 513 360.398 C 524.472 360.640, 528.550 361.276, 534.260 363.710 C 537.518 365.099, 538.563 365.134, 542.078 363.974 C 545.701 362.779, 547.116 362.876, 555.317 364.888 C 561.172 366.324, 566.934 368.573, 571.215 371.094 C 574.907 373.268, 579.960 375.427, 582.442 375.890 C 586.090 376.572, 587.827 377.704, 591.510 381.800 C 596.828 387.714, 601.886 389.934, 605.564 387.966 C 607.739 386.802, 608.371 387.128, 613.947 392.291 C 618.936 396.909, 620.801 397.992, 624.739 398.556 C 627.638 398.972, 632.274 400.906, 636.592 403.502 C 640.492 405.846, 644.767 408.102, 646.092 408.513 C 647.416 408.925, 652.392 411.006, 657.149 413.138 C 661.905 415.270, 666.405 416.780, 667.149 416.492 C 668.895 415.816, 672 410.375, 672 407.992 C 672 406.976, 670.959 405.325, 669.686 404.323 C 666.937 402.157, 661.557 391, 663.262 391 C 663.895 391, 666.979 392.800, 670.116 395 C 673.252 397.200, 676.759 399, 677.909 399 C 679.059 399, 680 399.621, 680 400.380 C 680 401.139, 682.362 403.548, 685.250 405.733 C 688.138 407.918, 694.194 413.260, 698.709 417.603 C 703.225 421.946, 709.449 427.904, 712.542 430.842 C 719.835 437.770, 727.993 449.758, 728.022 453.589 C 728.034 455.190, 728.871 458.320, 729.881 460.544 C 730.891 462.769, 732.036 467.133, 732.425 470.243 C 732.816 473.376, 733.994 476.994, 735.066 478.356 C 736.223 479.827, 737 482.373, 737 484.692 C 737 486.825, 737.862 491.029, 738.916 494.035 C 739.970 497.041, 741.319 502.875, 741.915 507 C 742.510 511.125, 743.659 517.425, 744.468 521 C 745.277 524.575, 746.163 530.325, 746.437 533.777 C 746.712 537.229, 747.371 541.729, 747.903 543.777 C 748.435 545.825, 749.394 550.875, 750.033 555 C 750.672 559.125, 751.826 563.807, 752.597 565.404 C 753.369 567.001, 754 569.713, 754 571.431 C 754 573.149, 754.592 575.443, 755.315 576.527 C 756.920 578.934, 759 585.933, 759 588.925 C 759 590.345, 759.413 590.863, 760.170 590.395 C 760.965 589.903, 761.128 590.225, 760.677 591.399 C 760.312 592.349, 760.686 594.426, 761.507 596.014 C 762.328 597.602, 763 599.979, 763 601.297 C 763 602.615, 763.854 604.678, 764.897 605.882 C 765.941 607.085, 766.578 608.896, 766.314 609.906 C 765.712 612.208, 769.544 621.277, 772.092 623.584 C 773.142 624.533, 774.007 626.028, 774.015 626.905 C 774.024 627.782, 774.435 629.139, 774.930 629.921 C 775.699 631.137, 776.181 631.112, 778.261 629.748 C 781.843 627.401, 783.586 622.551, 782.251 618.647 C 780.954 614.856, 781.426 584.420, 782.809 582.682 C 784.466 580.599, 784.806 574.597, 783.420 571.881 C 781.498 568.113, 783.401 545.090, 786.593 533.500 C 787.351 530.750, 788.636 523.394, 789.449 517.153 C 790.792 506.841, 791.376 504.971, 795.841 496.653 C 801.103 486.853, 814.725 470.752, 818.720 469.611 C 820.888 468.992, 827.255 465.277, 832.237 461.725 C 833.606 460.748, 836.475 459.897, 838.613 459.833 C 840.751 459.769, 843.788 459.068, 845.362 458.275 C 846.937 457.481, 852.337 456.620, 857.362 456.359 C 862.388 456.099, 869.425 455.260, 873 454.494 C 876.575 453.728, 885.350 452.825, 892.500 452.487 C 899.650 452.149, 909.550 451.635, 914.500 451.344 C 919.450 451.053, 926.875 450.917, 931 451.043 C 935.125 451.168, 942.550 451.322, 947.500 451.385 C 952.450 451.448, 956.725 451.748, 957 452.050 C 957.938 453.083, 993.900 456.181, 997.013 455.497 C 999.637 454.921, 1000.068 454.412, 999.808 452.195 C 999.553 450.026, 998.550 449.222, 994 447.535 C 990.975 446.414, 985.700 444.035, 982.279 442.248 C 978.857 440.462, 975.257 438.993, 974.279 438.985 C 971.474 438.962, 961.433 435.604, 959.588 434.073 C 958.321 433.021, 957.634 432.966, 956.758 433.842 C 955.226 435.374, 953.940 435.320, 954.543 433.748 C 955.092 432.317, 951.706 429.916, 948.595 429.530 C 946.263 429.240, 937.381 426.548, 932 424.500 C 925.678 422.093, 918.166 420, 915.812 419.990 C 914.540 419.984, 909.225 419.062, 904 417.940 C 898.775 416.819, 886.175 415.275, 876 414.509 C 855.046 412.933, 842.954 411.634, 828.500 409.405 C 804.417 405.693, 800.032 405.106, 792 404.516 C 787.325 404.173, 781.638 403.476, 779.362 402.967 C 777.086 402.458, 769.052 401.573, 761.508 401.001 C 753.965 400.428, 746.969 399.519, 745.962 398.980 C 744.955 398.441, 742.548 398, 740.613 398 C 737.415 398, 736.916 397.598, 735.147 393.599 C 734.072 391.168, 732.288 388.909, 731.162 388.551 C 730.015 388.187, 728.626 386.398, 727.987 384.460 C 727.362 382.565, 726.310 380.674, 725.649 380.258 C 723.453 378.872, 715.938 368.686, 716.299 367.584 C 716.839 365.936, 722.831 365.692, 729.268 367.058 C 734.913 368.255, 735.174 368.211, 741.521 364.989 C 745.088 363.179, 748.515 361.084, 749.138 360.334 C 750.761 358.378, 750.777 335.438, 749.163 324.142 C 748.027 316.191, 747.083 313.416, 742.884 305.689 C 740.166 300.687, 737.333 295.898, 736.588 295.047 C 735.843 294.196, 734.217 291.475, 732.974 289 C 730.433 283.937, 705.686 258.573, 692.482 247.500 C 687.892 243.650, 676.568 233.556, 667.318 225.069 C 631.261 191.987, 621.066 182.861, 609.359 173.190 C 602.681 167.674, 596.912 162.666, 596.538 162.061 C 596.164 161.457, 593.528 159.781, 590.679 158.339 C 585.210 155.568, 574.563 147.580, 559.250 134.758 C 554.162 130.498, 548.087 125.660, 545.750 124.006 C 543.412 122.353, 539.475 119.410, 537 117.466 C 527.928 110.339, 522.312 107.106, 520.041 107.700 C 518.328 108.148, 517.921 107.884, 518.175 106.492 C 518.507 104.673, 516.839 103.385, 508 98.635 C 505.525 97.305, 502.652 95.278, 501.616 94.132 C 500.580 92.985, 499.343 92.288, 498.866 92.583 C 498.390 92.877, 498 92.705, 498 92.201 C 498 91.260, 488.780 84.839, 485.893 83.768 C 485.009 83.441, 478.553 79.759, 471.547 75.586 C 464.540 71.414, 458.266 68, 457.604 68 C 456.942 68, 455.972 67.585, 455.450 67.078 C 454.927 66.571, 449.325 63.797, 443 60.914 C 436.675 58.031, 430.446 54.992, 429.158 54.161 C 426.584 52.500, 413.692 46.669, 407.708 44.459 C 405.623 43.689, 397.073 39.723, 388.708 35.646 C 380.344 31.568, 370.044 27.083, 365.819 25.678 C 361.595 24.272, 356.768 22.414, 355.094 21.549 C 353.419 20.683, 346.295 18.442, 339.261 16.569 C 332.227 14.697, 322.878 11.493, 318.486 9.450 C 310.982 5.960, 309.713 5.695, 297.467 5.061 C 290.299 4.690, 283.774 3.963, 282.967 3.446 C 282.160 2.928, 271.150 2.463, 258.500 2.412 C 245.850 2.362, 234.825 2.086, 234 1.800 C 233.175 1.515, 231.488 1.474, 230.250 1.710 M 244.023 9.957 C 243.433 11.059, 241.425 12.205, 239.427 12.580 C 237.184 13, 235.102 14.296, 233.767 16.101 C 231.740 18.843, 224.289 25.545, 210.814 36.750 C 207.341 39.637, 199.550 46.113, 193.500 51.140 C 187.450 56.168, 178.675 63.713, 174 67.908 C 169.325 72.102, 162.364 78.227, 158.532 81.517 C 145.530 92.680, 138 100.236, 138 102.121 C 138 103.155, 138.299 104, 138.664 104 C 139.029 104, 142.291 101.390, 145.914 98.201 C 149.536 95.011, 154.075 91.314, 156 89.984 C 157.925 88.655, 162.724 84.771, 166.665 81.353 C 170.606 77.935, 175.106 74.476, 176.665 73.666 C 178.224 72.856, 183.100 69.016, 187.500 65.133 C 191.900 61.250, 196.625 57.502, 198 56.803 C 200.848 55.356, 202.447 54.008, 209.625 47.002 C 212.444 44.251, 215.369 41.996, 216.125 41.991 C 216.881 41.986, 220.124 39.736, 223.331 36.991 C 226.538 34.246, 229.722 32, 230.407 32 C 231.091 32, 232.708 30.875, 234 29.500 C 236.603 26.729, 241 26.101, 241 28.500 C 241 29.325, 240.530 30, 239.955 30 C 239.380 30, 237.855 31.054, 236.568 32.341 C 235.280 33.629, 231.138 37.206, 227.363 40.289 C 223.588 43.373, 218.700 47.488, 216.500 49.433 C 206.884 57.936, 190.633 70.073, 189.464 69.625 C 188.075 69.091, 184.630 72.297, 185.577 73.243 C 185.896 73.563, 179.710 79.197, 171.829 85.765 C 151.541 102.671, 148.552 105.466, 149.363 106.779 C 150.527 108.662, 154.996 106.374, 160.500 101.076 C 163.250 98.430, 168.200 94.443, 171.500 92.217 C 174.800 89.991, 178.990 86.781, 180.812 85.085 C 182.633 83.388, 184.520 82, 185.005 82 C 185.489 82, 188.499 79.617, 191.693 76.704 C 194.887 73.791, 199.797 69.961, 202.605 68.192 C 205.413 66.424, 208.563 64.034, 209.605 62.882 C 210.647 61.730, 213.075 59.983, 215 59 C 216.925 58.017, 219.366 56.255, 220.425 55.085 C 221.483 53.914, 225.846 50.892, 230.119 48.369 C 234.392 45.845, 238.658 42.930, 239.599 41.890 C 240.540 40.851, 241.901 40, 242.623 40 C 243.345 40, 246.299 37.711, 249.187 34.913 C 252.075 32.114, 255.702 29.171, 257.248 28.372 C 260.229 26.830, 262.312 27.336, 261.805 29.478 C 261.180 32.124, 244.463 45.344, 189.250 86.854 C 179.873 93.904, 166.469 106.512, 169.332 105.590 C 170.339 105.266, 172.498 105, 174.130 105 C 175.907 105, 177.978 104.086, 179.298 102.719 C 180.509 101.464, 184.650 97.703, 188.500 94.359 C 195.190 88.550, 199.590 85.418, 213.588 76.500 C 217.042 74.300, 221.545 71.011, 223.596 69.192 C 225.646 67.372, 228.714 65.179, 230.412 64.317 C 235.335 61.820, 243 56.728, 243 55.955 C 243 55.566, 246.037 53.637, 249.750 51.668 C 253.463 49.699, 258.269 46.493, 260.432 44.544 C 262.594 42.595, 265.166 41, 266.146 41 C 267.127 41, 268.408 40.105, 268.994 39.012 C 269.579 37.918, 271.255 36.723, 272.718 36.356 C 274.181 35.989, 276.883 34.183, 278.723 32.344 C 280.562 30.505, 282.632 29, 283.322 29 C 284.012 29, 286.342 28.100, 288.500 27 C 293.122 24.644, 294 24.539, 294 26.345 C 294 28.266, 290.928 30.786, 286.935 32.140 C 285.046 32.780, 281.390 35.253, 278.811 37.635 C 276.231 40.018, 270.381 44.388, 265.811 47.348 C 261.240 50.307, 256.643 53.690, 255.595 54.864 C 254.547 56.039, 253.241 57, 252.693 57 C 251.686 57, 245.504 61.315, 239.668 66.092 C 237.925 67.518, 233.800 70.378, 230.500 72.447 C 227.200 74.517, 223.150 77.461, 221.500 78.991 C 216.722 83.419, 197.752 97.560, 193.959 99.520 C 190.708 101.200, 188.104 103.676, 188.032 105.155 C 188.014 105.515, 189.912 105.566, 192.250 105.269 C 195.680 104.832, 197.657 103.634, 202.500 99.056 C 205.800 95.937, 210.637 91.927, 213.250 90.145 C 215.863 88.362, 218 86.495, 218 85.994 C 218 85.494, 220.137 83.845, 222.750 82.331 C 225.363 80.817, 229.678 77.873, 232.340 75.789 C 235.002 73.705, 237.608 72, 238.133 72 C 238.657 72, 241.306 69.923, 244.020 67.384 C 247.009 64.589, 249.535 62.991, 250.426 63.333 C 251.418 63.714, 251.717 63.425, 251.342 62.449 C 250.967 61.473, 251.458 61, 252.846 61 C 256.214 61, 260 58.810, 260 56.863 C 260 55.864, 261.238 54.289, 262.750 53.363 C 264.262 52.437, 267.099 50.627, 269.054 49.340 C 271.008 48.053, 273.345 47, 274.246 47 C 275.146 47, 278.455 44.750, 281.597 42 C 284.740 39.250, 287.816 37, 288.433 37 C 289.051 37, 290.326 36.100, 291.268 35 C 292.210 33.900, 293.870 33, 294.956 33 C 296.043 33, 298.517 32.244, 300.454 31.321 C 304.758 29.268, 306.393 30.411, 302.985 33.090 C 290.407 42.974, 284.294 47.554, 275.073 54 C 269.173 58.125, 263.082 62.513, 261.538 63.750 C 258.641 66.071, 256.411 66.762, 257.500 65 C 257.840 64.450, 257.593 64, 256.952 64 C 256.311 64, 256.016 64.599, 256.297 65.331 C 256.807 66.660, 248.049 75, 246.144 75 C 245.603 75, 242.311 77.391, 238.830 80.313 C 235.348 83.235, 229.575 87.722, 226 90.285 C 222.425 92.847, 217.025 97.198, 214 99.953 C 209.484 104.067, 208.768 105.143, 210 105.967 C 212.740 107.798, 215.040 107.040, 219 103 C 221.156 100.800, 223.276 98.984, 223.710 98.964 C 224.145 98.944, 228.100 95.532, 232.500 91.381 C 236.900 87.230, 241.738 83.185, 243.250 82.391 C 244.762 81.598, 246 80.545, 246 80.051 C 246 78.747, 257.111 72, 259.258 72 C 260.260 72, 262.844 70.200, 265 68 C 267.156 65.800, 269.482 64, 270.167 64 C 271.419 64, 281.070 57.621, 286.302 53.337 C 287.843 52.075, 292.423 49.467, 296.480 47.542 C 300.537 45.616, 304.156 43.556, 304.522 42.964 C 305.555 41.293, 315.571 37, 318.436 37 C 319.846 37, 320.996 37.563, 320.991 38.250 C 320.982 39.629, 310.873 46.378, 307.139 47.497 C 305.841 47.886, 303.141 49.653, 301.139 51.423 C 299.138 53.192, 293.225 57.300, 288 60.551 C 269.915 71.804, 231 102.207, 231 105.084 C 231 105.588, 232.716 106, 234.813 106 C 237.723 106, 239.290 105.307, 241.430 103.073 C 242.973 101.463, 245.532 99.608, 247.117 98.951 C 248.703 98.295, 250 97.392, 250 96.946 C 250 96.500, 250.926 95.841, 252.059 95.481 C 253.191 95.122, 256.848 92.392, 260.185 89.414 C 263.522 86.436, 266.912 84, 267.718 84 C 269.410 84, 273.561 81.010, 278.823 76 C 280.846 74.075, 285.588 70.945, 289.362 69.043 C 293.137 67.142, 296.947 64.485, 297.829 63.138 C 298.712 61.790, 302.599 59.241, 306.467 57.471 C 310.335 55.702, 314.357 53.297, 315.405 52.127 C 316.453 50.957, 317.937 50, 318.703 50 C 319.469 50, 321.180 48.830, 322.505 47.400 C 323.830 45.971, 327.567 43.546, 330.809 42.013 C 334.144 40.436, 337.666 37.873, 338.920 36.113 C 340.663 33.664, 341.869 33, 344.568 33 C 346.456 33, 348 32.550, 348 32 C 348 31.450, 347.212 30.998, 346.250 30.996 C 343.444 30.990, 338.031 27.213, 337.021 24.556 C 336.100 22.133, 335.855 22.031, 319.588 17.316 C 318.536 17.012, 315.068 16.665, 311.880 16.546 C 307.382 16.379, 305.177 15.702, 302.033 13.523 C 298.156 10.836, 297.394 10.700, 284.413 10.383 C 276.951 10.201, 269.192 9.592, 267.173 9.031 C 265.153 8.470, 259.353 8.009, 254.285 8.006 C 246.158 8.001, 244.947 8.231, 244.023 9.957 M 206.395 30.999 C 204.137 32.599, 201.562 35.020, 200.672 36.379 C 199.781 37.737, 198.035 39.172, 196.790 39.567 C 194.134 40.409, 188.343 44.088, 181.937 49 C 170.446 57.811, 161.415 65.401, 160.500 67.015 C 159.602 68.599, 154.820 72.784, 145.660 80 C 143.915 81.375, 140.396 84.750, 137.840 87.500 C 135.284 90.250, 128.875 96.310, 123.597 100.967 C 114.625 108.884, 112.263 112.005, 115.250 111.997 C 115.938 111.995, 120.325 108.333, 125 103.859 C 134.532 94.736, 163.322 69.212, 166.681 66.906 C 167.881 66.082, 174.410 60.479, 181.191 54.454 C 187.972 48.429, 197.678 40.372, 202.760 36.549 C 211.076 30.294, 213.452 27.914, 211.250 28.045 C 210.838 28.069, 208.653 29.399, 206.395 30.999 M 353.956 34.553 C 352.750 36.007, 352.872 36.155, 355.022 35.847 C 359.317 35.233, 358.538 38.557, 353.117 43.978 C 350.355 46.740, 347.681 49, 347.174 49 C 346.667 49, 343.503 51.453, 340.143 54.451 C 336.782 57.450, 331.438 61.729, 328.267 63.960 C 309.775 76.971, 276.910 102.071, 276.307 103.643 C 275.652 105.348, 275.819 105.542, 278.697 106.426 C 280.366 106.939, 281.524 106.394, 283.513 104.163 C 284.953 102.546, 287.419 100.966, 288.993 100.651 C 290.567 100.337, 293.426 98.507, 295.347 96.587 C 297.268 94.666, 300.457 92.418, 302.434 91.592 C 304.411 90.766, 306.287 89.417, 306.602 88.594 C 306.918 87.770, 308.825 86.556, 310.838 85.895 C 312.852 85.234, 317.164 82.287, 320.420 79.347 C 323.677 76.406, 326.746 74, 327.240 74 C 327.735 74, 331.446 71.993, 335.487 69.540 C 339.529 67.087, 343.885 64.813, 345.167 64.487 C 346.450 64.162, 350.980 60.791, 355.234 56.996 C 360.893 51.948, 363.979 49.927, 366.734 49.464 C 368.805 49.116, 371.810 48.236, 373.412 47.509 C 378.420 45.235, 380.948 47.493, 376.591 50.348 C 375.266 51.217, 372.950 53.068, 371.445 54.463 C 369.940 55.859, 367.884 57, 366.877 57 C 365.870 57, 364.324 58.102, 363.441 59.449 C 362.558 60.797, 360.336 62.394, 358.502 62.999 C 356.669 63.604, 353.218 65.793, 350.834 67.862 C 348.450 69.932, 343.575 73.296, 340 75.338 C 336.425 77.380, 330.800 81.196, 327.500 83.818 C 324.200 86.441, 320.070 89.467, 318.323 90.543 C 306.541 97.799, 291 109.449, 291 111.023 C 291 111.560, 292.340 112, 293.977 112 C 296.076 112, 297.454 111.237, 298.651 109.411 C 299.584 107.986, 302.744 105.468, 305.674 103.815 C 308.603 102.162, 311 100.432, 311 99.972 C 311 99.511, 311.819 98.875, 312.820 98.557 C 313.821 98.239, 316.921 95.781, 319.708 93.094 C 322.496 90.407, 327.865 86.746, 331.638 84.958 C 335.412 83.170, 340.144 80.420, 342.154 78.846 C 344.163 77.272, 347.096 75.425, 348.672 74.742 C 350.247 74.059, 352.653 72.696, 354.018 71.712 C 359.688 67.629, 365.572 64.035, 366.615 64.018 C 367.228 64.008, 368.932 63.055, 370.400 61.900 C 372.150 60.523, 373.864 60, 375.377 60.380 C 377.021 60.792, 378.570 60.173, 380.756 58.230 C 384.362 55.024, 391.819 52.419, 393.262 53.862 C 394.462 55.062, 393.360 57, 391.476 57 C 390.703 57, 389.573 57.930, 388.964 59.067 C 387.662 61.499, 379.338 67, 376.959 67 C 376.052 67, 374.453 67.965, 373.405 69.145 C 372.357 70.325, 369.606 72.138, 367.291 73.174 C 364.977 74.209, 362.809 75.501, 362.474 76.043 C 362.138 76.585, 359.982 77.979, 357.682 79.141 C 353.737 81.135, 341.961 88.766, 328.500 98.053 C 320.712 103.425, 309 113.008, 309 114.006 C 309 114.643, 311.344 116, 312.444 116 C 312.599 116, 314.474 114.609, 316.612 112.910 C 318.751 111.210, 321.850 109.247, 323.500 108.547 C 325.150 107.847, 328.975 105.401, 332 103.112 C 335.177 100.708, 339.097 98.693, 341.282 98.342 C 343.460 97.992, 345.808 96.788, 346.819 95.503 C 347.784 94.276, 349.940 92.565, 351.610 91.702 C 353.280 90.838, 355.268 89.382, 356.029 88.464 C 358.100 85.970, 366.468 80.840, 377.025 75.595 C 382.197 73.024, 387.156 70.264, 388.043 69.461 C 388.931 68.657, 390.454 68, 391.428 68 C 392.401 68, 394.755 67.261, 396.657 66.358 C 399.381 65.066, 400.370 64.977, 401.308 65.941 C 402.237 66.894, 401.767 67.782, 399.184 69.961 C 397.359 71.498, 394.278 73.599, 392.335 74.628 C 390.393 75.658, 387.356 77.850, 385.587 79.500 C 383.818 81.150, 379.925 83.824, 376.935 85.443 C 371.964 88.134, 333.840 113.093, 329.750 116.334 C 327.689 117.967, 327.446 120, 329.312 120 C 330.034 120, 332.427 119.129, 334.630 118.065 C 336.832 117.001, 339.786 115.841, 341.192 115.488 C 342.598 115.135, 344.256 113.734, 344.876 112.374 C 345.495 111.014, 347.689 109.128, 349.751 108.184 C 353.655 106.396, 354.381 105.960, 367.500 97.536 C 376.029 92.059, 382.139 89, 384.548 89 C 385.362 89, 387.259 87.625, 388.764 85.945 C 390.875 83.587, 393.551 82.312, 400.475 80.365 C 407.627 78.353, 410.314 77.044, 413.703 73.920 C 417.665 70.268, 421 68.867, 421 70.856 C 421 71.327, 419.400 73.808, 417.443 76.370 C 415.028 79.534, 411.899 82.022, 407.693 84.124 C 404.287 85.827, 400.030 88.325, 398.233 89.674 C 396.437 91.023, 392.837 93.069, 390.233 94.219 C 387.630 95.370, 385.050 96.889, 384.500 97.597 C 383.950 98.304, 379.900 100.786, 375.500 103.113 C 371.100 105.440, 365.700 108.869, 363.500 110.732 C 361.300 112.595, 356.575 116.037, 353 118.380 C 349.425 120.724, 346.500 123.273, 346.500 124.043 C 346.500 124.920, 348.155 125.727, 350.919 126.199 C 354.996 126.895, 356.042 126.570, 364.419 122.006 C 369.414 119.285, 375.075 115.552, 377 113.710 C 380.316 110.537, 385.843 107.547, 399.500 101.535 C 402.800 100.083, 408.200 97.168, 411.500 95.059 C 414.800 92.949, 419.821 90.476, 422.658 89.562 C 425.494 88.648, 429.005 86.798, 430.459 85.450 C 433.268 82.847, 433.916 82.647, 436.418 83.607 C 440.178 85.050, 437.068 89.366, 431.114 90.969 C 429.026 91.532, 426.541 92.850, 425.591 93.899 C 424.642 94.948, 421.195 96.805, 417.933 98.025 C 414.670 99.245, 412 100.606, 412 101.050 C 412 101.493, 409.188 103.265, 405.750 104.989 C 391.978 111.893, 367 127.762, 367 129.606 C 367 130.287, 368.603 131.374, 370.562 132.020 C 373.918 133.128, 374.712 132.902, 384.312 128.102 C 389.915 125.301, 395.175 122.593, 396 122.084 C 396.825 121.575, 399.300 120.326, 401.500 119.307 C 403.700 118.288, 407.300 116.521, 409.500 115.380 C 422.602 108.584, 427.880 106.181, 430.954 105.610 C 432.854 105.257, 436.584 103.134, 439.243 100.892 C 442.155 98.437, 444.679 97.047, 445.591 97.396 C 446.425 97.717, 446.838 97.547, 446.511 97.018 C 445.802 95.871, 450.785 94.437, 451.797 95.497 C 452.183 95.903, 451.630 96.744, 450.567 97.367 C 449.503 97.990, 447.157 99.932, 445.352 101.681 C 443.547 103.431, 439.017 106.523, 435.285 108.553 C 431.553 110.583, 425.957 113.764, 422.849 115.622 C 419.741 117.480, 416.214 119, 415.010 119 C 413.806 119, 412.050 119.952, 411.108 121.115 C 410.166 122.279, 405.174 125.766, 400.016 128.865 C 386.441 137.021, 386.519 139.463, 400.186 134.165 C 405.087 132.265, 408.836 129.983, 411.549 127.248 C 414.237 124.539, 416.871 122.927, 419.382 122.456 C 421.462 122.066, 425.040 120.715, 427.332 119.454 C 435.695 114.854, 441.644 112.173, 448.239 110.032 C 451.946 108.829, 455.263 107.383, 455.612 106.819 C 457.005 104.564, 466.623 101.019, 471.372 101.010 C 477.558 100.997, 476.563 102.494, 468.056 106 C 464.719 107.375, 461.752 109.238, 461.462 110.141 C 460.991 111.606, 452.550 116, 450.206 116 C 448.746 116, 438.942 121.196, 434 124.589 C 431.525 126.288, 424.434 130.338, 418.242 133.589 C 411.096 137.341, 407.078 140.018, 407.242 140.918 C 407.384 141.698, 409.787 142.972, 412.581 143.749 L 417.663 145.162 428.581 139.982 C 434.587 137.133, 440.850 133.790, 442.500 132.553 C 444.150 131.316, 447.300 129.732, 449.500 129.033 C 451.700 128.334, 455.635 126.710, 458.245 125.425 C 460.854 124.139, 466.254 122.129, 470.245 120.956 C 474.518 119.701, 478.441 117.833, 479.790 116.412 C 481.385 114.733, 483.208 113.987, 485.790 113.956 C 487.831 113.932, 491.300 113.264, 493.500 112.471 C 495.700 111.679, 497.613 111.023, 497.750 111.015 C 497.887 111.007, 498 111.863, 498 112.917 C 498 114.292, 496.657 115.329, 493.250 116.584 C 490.637 117.546, 487.600 119.075, 486.500 119.982 C 483.428 122.515, 479.928 124.475, 475.068 126.386 C 471.003 127.985, 465.944 130.358, 437.826 143.856 C 432.505 146.410, 428.117 148.849, 428.076 149.275 C 427.970 150.357, 432.605 152, 435.765 152 C 438.086 152, 452.491 145.565, 466.147 138.429 C 468.703 137.093, 472.143 136, 473.790 136 C 475.531 136, 477.027 135.371, 477.362 134.500 C 477.678 133.675, 478.566 133, 479.334 133 C 480.102 133, 481.943 132.046, 483.425 130.880 C 484.908 129.714, 487.362 128.697, 488.879 128.621 C 490.397 128.545, 493.104 127.249, 494.896 125.741 C 498.408 122.786, 499.994 122.394, 501.666 124.066 C 502.422 124.822, 503.720 124.531, 506.116 123.070 C 509.711 120.879, 513.496 120.375, 514.474 121.957 C 514.799 122.484, 513.755 123.592, 512.154 124.420 C 510.553 125.249, 508.982 126.604, 508.664 127.434 C 508.049 129.036, 497.348 134.297, 490.231 136.496 C 487.883 137.222, 483.833 139.169, 481.231 140.824 C 478.629 142.478, 473.350 145.375, 469.500 147.261 C 457.384 153.197, 451 157.101, 451 158.575 C 451 159.359, 451.337 160.020, 451.750 160.044 C 452.163 160.068, 454.410 160.457, 456.745 160.908 C 460.239 161.584, 461.893 161.311, 466.094 159.365 C 468.902 158.064, 472.189 157, 473.399 157 C 474.610 157, 476.027 156.605, 476.550 156.123 C 477.072 155.641, 479.857 154.481, 482.738 153.546 C 485.619 152.612, 488.233 151.431, 488.547 150.924 C 488.861 150.416, 490.111 150, 491.324 150 C 492.537 150, 495.209 149.100, 497.261 148 C 499.314 146.900, 501.869 146, 502.940 146 C 504.010 146, 505.562 145.036, 506.388 143.857 C 507.671 142.025, 509.129 141.648, 516.444 141.254 C 523.778 140.860, 525 141.020, 525 142.378 C 525 143.282, 523.820 144.240, 522.250 144.609 C 520.737 144.966, 518.150 146.065, 516.500 147.053 C 514.850 148.041, 511.376 149.383, 508.780 150.036 C 506.184 150.688, 503.563 151.821, 502.955 152.554 C 502.347 153.286, 498.171 155.078, 493.675 156.534 C 483.339 159.883, 473 164.855, 473 166.477 C 473 167.162, 474.957 168.760, 477.350 170.030 C 481.576 172.272, 481.818 172.290, 485.870 170.669 C 488.164 169.751, 491.651 169, 493.619 169 C 496.290 169, 497.895 168.254, 499.946 166.057 C 501.458 164.439, 504.001 162.804, 505.598 162.424 C 507.194 162.045, 512.100 160.060, 516.500 158.013 C 527.381 152.952, 529 152.488, 529 154.433 C 529 155.295, 529.450 156, 530 156 C 530.550 156, 531 155.116, 531 154.035 C 531 151.441, 534.405 149.611, 536.823 150.905 C 538.552 151.831, 541.277 151.748, 552.250 150.435 C 555.421 150.056, 557 150.239, 557 150.985 C 557 152.376, 550.893 155, 547.655 155 C 546.329 155, 544.714 155.640, 544.065 156.422 C 543.416 157.204, 540.998 158.158, 538.692 158.542 C 536.387 158.927, 530.368 161.167, 525.318 163.521 C 520.267 165.874, 514.538 168.327, 512.586 168.972 C 506.673 170.923, 495 176.907, 495 177.987 C 495 178.544, 495.922 179, 497.050 179 C 498.177 179, 500.426 179.686, 502.048 180.525 C 504.774 181.934, 505.631 181.865, 513.397 179.614 C 518.018 178.274, 522.870 176.476, 524.180 175.617 C 527.863 173.204, 539.246 169.853, 541.689 170.462 C 542.893 170.762, 544.171 170.532, 544.531 169.950 C 545.570 168.268, 555.106 164.383, 559.712 163.765 C 562.777 163.354, 564.262 163.611, 565.173 164.709 C 566.199 165.945, 566.082 166.467, 564.521 167.608 C 563.474 168.374, 561.535 169, 560.212 169 C 558.830 169, 555.874 170.701, 553.263 173 C 550.763 175.200, 547.994 177.037, 547.109 177.081 C 541.426 177.368, 539.844 177.836, 536.338 180.265 C 534.187 181.756, 530.307 183.698, 527.715 184.581 C 521.956 186.544, 521.135 187.649, 524.346 189.112 C 528.389 190.954, 545.326 187.037, 550.792 182.996 C 552.943 181.405, 554.585 180.930, 556.374 181.379 C 558.248 181.849, 559.448 181.436, 560.979 179.792 C 562.743 177.899, 564.209 177.543, 570.888 177.391 C 579.726 177.190, 582.108 177.960, 580.105 180.374 C 578.228 182.635, 570.768 186, 567.632 186 C 566.128 186, 563.232 186.869, 561.198 187.930 C 555.345 190.985, 545.399 195, 543.684 195 C 540.782 195, 540.764 197.144, 543.641 200.149 C 545.850 202.456, 547.069 202.998, 549 202.529 C 550.375 202.196, 552.549 201.751, 553.832 201.540 C 555.115 201.330, 556.751 200.355, 557.469 199.374 C 558.186 198.393, 560.962 197.055, 563.637 196.402 C 566.311 195.749, 569.850 194.744, 571.500 194.169 C 573.150 193.594, 576.300 192.687, 578.500 192.154 C 580.700 191.621, 586.100 190.239, 590.500 189.083 C 600.368 186.491, 603.165 186.180, 603.680 187.620 C 604.238 189.182, 595.422 194.589, 590 196.011 C 587.525 196.659, 582.350 198.683, 578.500 200.508 C 574.650 202.333, 568.350 205.256, 564.500 207.004 L 557.500 210.182 563 212.717 C 566.025 214.112, 568.650 215.646, 568.833 216.126 C 569.401 217.615, 571.090 217.102, 574.182 214.500 C 575.816 213.125, 577.694 212, 578.354 212 C 579.015 212, 580.326 211.100, 581.268 210 C 582.502 208.559, 584.218 208, 587.409 208 C 589.845 208, 593.112 207.316, 594.669 206.480 C 600.375 203.416, 610.282 200.198, 616.500 199.388 C 621.933 198.680, 623.153 197.225, 620 195.217 C 618.625 194.341, 611.989 188.196, 605.252 181.562 C 591.657 168.173, 585.732 162.927, 582 160.974 C 577.791 158.772, 565.763 149.371, 552.607 138 C 543.269 129.929, 540.892 128, 540.286 128 C 539.100 128, 532.213 121.120, 532.806 120.528 C 533.154 120.179, 532.762 120.154, 531.935 120.472 C 531.037 120.816, 525.401 117.737, 517.965 112.839 C 511.109 108.324, 504.150 103.906, 502.500 103.021 C 496.554 99.832, 492.025 96.476, 492.012 95.250 C 492.006 94.563, 491.642 94.113, 491.205 94.250 C 490.038 94.617, 471.394 84.484, 465 80.009 C 461.975 77.891, 455.113 74.030, 449.750 71.429 C 444.387 68.827, 440 66.413, 440 66.063 C 440 65.714, 439.212 65.387, 438.250 65.336 C 437.288 65.286, 428.175 61.339, 418 56.566 C 384.640 40.916, 380.253 39, 377.787 39 C 376.446 39, 372.233 37.924, 368.424 36.608 C 357.915 32.979, 355.542 32.642, 353.956 34.553 M 341.543 40.295 C 340.716 41.556, 336.543 45.153, 332.270 48.286 C 321.504 56.180, 296.124 74.128, 286.500 80.653 C 282.100 83.636, 276.025 88.075, 273 90.518 C 269.975 92.961, 265.475 96.152, 263 97.610 C 258.233 100.418, 252 105.850, 252 107.196 C 252 110.845, 264.333 103.088, 266.873 97.842 C 267.653 96.232, 269.238 94.422, 270.396 93.819 C 271.553 93.216, 277.450 89.439, 283.500 85.426 C 289.550 81.412, 295.796 77.811, 297.381 77.423 C 298.965 77.035, 300.467 75.931, 300.718 74.970 C 301.204 73.111, 305.465 69.928, 321.500 59.444 C 327 55.848, 332.050 52.183, 332.721 51.301 C 333.393 50.418, 337.218 48.073, 341.221 46.089 C 346.623 43.413, 348.582 41.905, 348.820 40.242 C 349.091 38.340, 348.677 38, 346.093 38 C 344.019 38, 342.566 38.733, 341.543 40.295 M 145.225 117.180 C 144.276 117.554, 142.098 117.891, 140.385 117.930 C 138.672 117.968, 136.051 118.958, 134.562 120.130 C 132.226 121.967, 131.532 122.087, 129.508 121.005 C 128.139 120.272, 125.776 120.004, 123.831 120.362 C 121.999 120.699, 118.025 121.397, 115 121.912 C 104.669 123.673, 99.660 126.060, 101.800 128.200 C 102.460 128.860, 103 130.037, 103 130.817 C 103 132.368, 100.710 132.104, 95.397 129.938 C 92.330 128.687, 91.723 128.797, 87.175 131.419 C 84.218 133.124, 73 143.939, 73 145.085 C 73 145.560, 71.537 146.687, 69.750 147.588 C 64.504 150.236, 61 154.065, 61 157.152 C 61 159.022, 60.264 160.309, 58.750 161.091 C 55.217 162.916, 50 168.804, 50 170.968 C 50 172.047, 48.650 174.468, 47 176.347 C 44.756 178.903, 44 180.754, 44 183.691 C 44 185.851, 43.339 188.491, 42.532 189.559 C 41.724 190.626, 41.049 192.527, 41.032 193.783 C 41.014 195.039, 39.875 198.287, 38.500 201 C 37.125 203.713, 36 206.994, 36 208.290 C 36 211.203, 44.989 220.644, 52.529 225.651 C 55.649 227.722, 58.269 230.331, 58.822 231.919 C 59.344 233.415, 62.570 237.308, 65.992 240.570 C 69.414 243.831, 72.954 248.067, 73.857 249.983 C 75.148 252.721, 76.249 253.592, 79 254.055 C 81.404 254.459, 84.065 256.205, 87.500 259.632 C 93.131 265.250, 103.251 272.388, 108.803 274.658 C 110.836 275.489, 114.975 277.739, 118 279.657 C 130.875 287.821, 140.505 293.005, 145.484 294.452 C 152.511 296.495, 153 296.433, 153 293.500 C 153 290.596, 154.924 290.249, 158.397 292.525 C 159.677 293.363, 163.694 294.327, 167.323 294.666 C 176.082 295.484, 178.495 293.974, 186.108 282.912 C 188.314 279.706, 188.743 277.920, 188.896 271.311 C 189.194 258.462, 183.210 229.089, 178.129 218.457 C 171.744 205.097, 169.408 200.774, 167.777 199.298 C 165.580 197.310, 165.449 194, 167.567 194 C 170.149 194, 176.199 199.233, 177.661 202.731 C 178.412 204.529, 179.480 206, 180.035 206 C 180.589 206, 181.577 207.238, 182.230 208.750 C 182.883 210.262, 184.786 213.143, 186.459 215.151 C 190.774 220.332, 193.321 224.053, 194.660 227.133 C 196.277 230.853, 200.426 231.578, 206.045 229.121 C 217.276 224.210, 249.213 219.328, 263.341 220.362 C 284.665 221.924, 289.003 223.134, 303 231.426 C 304.925 232.567, 308.588 234.400, 311.140 235.500 C 314.001 236.733, 317.573 239.553, 320.452 242.853 C 324.825 247.864, 325.020 248.321, 323.496 250.004 C 321.827 251.848, 319.388 252.382, 305.500 253.943 C 288.779 255.822, 278.891 258.929, 271.845 264.520 C 267.624 267.869, 260.036 270.968, 247.286 274.549 C 238.583 276.994, 224.440 276.128, 213.175 272.461 C 208.446 270.921, 204.481 270.129, 203.996 270.625 C 203.526 271.106, 202.624 275.323, 201.990 279.995 C 201.356 284.668, 200.421 288.993, 199.912 289.606 C 199.404 290.219, 197.869 290.506, 196.502 290.245 C 194.623 289.886, 193.255 290.586, 190.890 293.117 C 189.171 294.958, 187.440 297.339, 187.045 298.408 C 186.140 300.854, 177.260 304.103, 170.500 304.462 C 167.750 304.608, 163.827 305.464, 161.782 306.364 C 159.684 307.287, 155.436 308, 152.032 308 C 148.714 308, 146 308.360, 146 308.801 C 146 309.876, 159.366 312.140, 165 312.020 C 167.475 311.968, 176.636 311.946, 185.357 311.972 C 194.721 312, 202.910 311.535, 205.357 310.836 C 207.636 310.185, 211.686 309.756, 214.358 309.883 C 217.793 310.046, 219.771 309.612, 221.111 308.400 C 222.737 306.928, 223.558 306.851, 226.906 307.854 C 231.662 309.279, 242.725 307.096, 244.745 304.334 C 245.796 302.897, 247.877 302.571, 257.018 302.413 C 263.730 302.298, 268.580 301.763, 269.447 301.044 C 270.411 300.244, 277.423 299.780, 291.255 299.602 C 302.469 299.457, 312.061 299.096, 312.572 298.800 C 313.344 298.352, 341.953 299.336, 393 301.566 C 405.146 302.096, 403.840 301.953, 415.500 304.036 C 421 305.018, 430.675 306.567, 437 307.478 C 443.325 308.388, 450.075 309.522, 452 309.997 C 453.925 310.472, 460 311.406, 465.500 312.072 C 471 312.738, 476.602 313.692, 477.949 314.192 C 479.297 314.693, 485.597 315.986, 491.949 317.066 C 498.302 318.146, 505.525 319.644, 508 320.396 C 510.475 321.148, 516.100 322.542, 520.500 323.494 C 536.161 326.884, 549.347 330.154, 552.897 331.530 C 559.260 333.996, 580.092 339, 583.993 339 C 586.918 339, 588.139 339.564, 589.408 341.500 C 590.753 343.552, 591.850 344, 595.537 344 C 598.006 344, 600.809 344.443, 601.764 344.984 C 604.655 346.623, 625.009 353.543, 635.500 356.454 C 638.800 357.370, 642.957 358.757, 644.737 359.537 C 646.535 360.325, 649.259 360.698, 650.866 360.377 C 654.377 359.675, 655.954 361.582, 653.403 363.447 C 651.546 364.805, 652.558 365.590, 665.767 373.041 C 667.270 373.889, 671.200 377.128, 674.500 380.240 C 677.800 383.351, 681.617 386.179, 682.982 386.525 C 686.050 387.303, 699 396.791, 699 398.261 C 699 398.851, 699.286 399.047, 699.637 398.697 C 699.987 398.347, 702.510 400.072, 705.245 402.530 C 709.294 406.171, 710.923 407, 714.026 407 C 718.167 407, 718.860 407.855, 724.151 419.500 C 729.012 430.200, 734.557 440.360, 735.750 440.754 C 736.607 441.037, 737 439.938, 737 437.258 C 737 432.617, 741.102 427.702, 743.213 429.813 C 745.239 431.839, 746.141 431.133, 745.814 427.780 C 745.378 423.309, 747.780 423.078, 754.124 426.981 C 756.926 428.705, 759.471 429.863, 759.780 429.554 C 760.700 428.633, 755.763 423.926, 752.013 422.149 C 747.988 420.242, 746.674 417, 749.927 417 C 751.067 417, 752 416.587, 752 416.082 C 752 415.577, 752.273 414.452, 752.607 413.582 C 753.005 412.544, 752.662 412, 751.607 412 C 750.723 412, 750 412.375, 750 412.833 C 750 413.291, 748.159 415.144, 745.910 416.952 L 741.820 420.239 737.660 416.274 C 735.372 414.094, 732.044 411.738, 730.264 411.039 C 728.001 410.151, 725.626 407.626, 722.360 402.635 C 719.792 398.711, 716.413 394.025, 714.852 392.222 C 713.290 390.419, 711.111 387.177, 710.009 385.017 C 708.854 382.754, 705.038 378.722, 701.008 375.507 C 697.160 372.436, 691.460 367.432, 688.340 364.387 C 685.220 361.341, 680.380 357.338, 677.584 355.492 C 674.788 353.645, 669.401 349.179, 665.614 345.567 C 661.827 341.955, 658.376 339, 657.945 339 C 657.515 339, 655.851 339.752, 654.249 340.672 C 652.648 341.591, 650.586 342.055, 649.668 341.703 C 647.338 340.809, 647.587 337.739, 650.117 336.159 C 652.220 334.846, 652.212 334.814, 648.959 331.457 C 647.157 329.599, 645.324 328.300, 644.885 328.571 C 644.447 328.842, 643.341 327.924, 642.429 326.532 C 640.567 323.691, 638.503 323.246, 637.638 325.500 C 636.884 327.467, 633.594 327.420, 631.933 325.419 C 630.849 324.114, 630.850 323.469, 631.938 321.727 C 633.106 319.857, 632.974 319.383, 630.772 317.559 C 629.406 316.426, 627.436 314.982, 626.394 314.349 C 624.538 313.221, 624.539 313.182, 626.415 312.429 C 629.364 311.244, 637.334 315.960, 647 324.607 C 651.675 328.789, 657.075 333.026, 659 334.022 C 660.925 335.019, 663.066 336.771, 663.758 337.917 C 664.451 339.063, 665.597 340, 666.306 340 C 667.014 340, 669.352 341.800, 671.500 344 C 673.648 346.200, 675.990 348, 676.703 348 C 679.365 348, 677.851 345.122, 673.250 341.433 C 670.637 339.339, 666.152 335.572, 663.283 333.063 C 660.414 330.553, 656.251 326.985, 654.033 325.134 C 650.046 321.807, 648.790 319, 651.288 319 C 651.996 319, 654.134 320.332, 656.038 321.959 C 657.942 323.587, 659.837 324.937, 660.250 324.959 C 662.185 325.064, 660.497 322.650, 654.906 317.315 C 651.554 314.117, 646.839 308.539, 644.428 304.921 C 642.017 301.302, 638.896 297.818, 637.493 297.179 C 636.090 296.540, 634.011 294.438, 632.872 292.508 C 630.437 288.380, 627 287.691, 627 291.331 C 627 293.937, 623.073 296.626, 620.633 295.689 C 617.567 294.513, 616.892 291.407, 619.095 288.607 C 620.222 287.173, 622.012 286, 623.073 286 C 625.290 286, 625.615 283.758, 623.678 281.821 C 622.951 281.095, 620.704 279.375, 618.685 278 C 616.666 276.625, 615.011 275.193, 615.007 274.818 C 614.994 273.531, 597.502 259.296, 592 256.094 C 588.975 254.334, 584.475 251.372, 582 249.513 C 579.525 247.654, 577.083 246.103, 576.573 246.066 C 575.207 245.969, 565 238.792, 565 237.929 C 565 237.523, 562.413 235.747, 559.250 233.983 C 556.087 232.218, 552.599 229.952, 551.499 228.946 C 548.907 226.579, 532.148 216.486, 529.342 215.603 C 528.156 215.230, 526.956 214.329, 526.677 213.602 C 526.398 212.874, 522.869 210.574, 518.835 208.489 C 514.801 206.404, 509.925 203.722, 508 202.529 C 506.075 201.336, 502.475 199.573, 500 198.612 C 497.525 197.651, 493.925 195.813, 492 194.528 C 482.345 188.082, 453.716 175, 449.265 175 C 448.154 175, 446.636 174.266, 445.892 173.370 C 443.445 170.422, 421.275 161.088, 391 150.260 C 380.049 146.343, 376 145.585, 376 147.452 C 376 148.600, 390.064 155, 392.585 155 C 394.185 155, 416.621 166.304, 417.650 167.628 C 418.556 168.795, 418.316 169.651, 416.514 171.668 C 415.256 173.076, 413.476 175.102, 412.557 176.171 C 411.355 177.569, 409.879 178.028, 407.294 177.807 C 401.100 177.278, 400.184 172.084, 405.832 169.513 C 409.916 167.653, 408.311 166.413, 396 161.918 C 391.875 160.412, 386.031 158.239, 383.014 157.090 C 379.997 155.940, 376.941 155, 376.224 155 C 375.506 155, 373.674 154.080, 372.153 152.955 C 370.631 151.830, 366.937 150.309, 363.943 149.576 C 360.949 148.843, 354.675 146.808, 350 145.054 C 337.875 140.506, 335.885 139.958, 332.341 140.190 C 330.604 140.303, 328.538 139.861, 327.749 139.207 C 326.961 138.553, 326.096 138.237, 325.827 138.506 C 325.098 139.235, 313.688 136.970, 312.291 135.819 C 311.626 135.271, 309.746 135.116, 308.114 135.475 C 306.273 135.879, 304.074 135.573, 302.323 134.669 C 299.522 133.223, 292.811 132.046, 275.500 129.967 C 270.550 129.372, 264.062 128.461, 261.083 127.943 C 258.104 127.424, 253.581 127, 251.033 127 C 248.485 127, 245.879 126.479, 245.242 125.842 C 244.605 125.205, 242.827 124.527, 241.292 124.335 C 239.756 124.144, 235.575 123.537, 232 122.986 C 228.425 122.435, 220.550 121.572, 214.500 121.069 C 208.450 120.566, 200.350 119.630, 196.500 118.989 C 189.702 117.858, 181.365 117.093, 175.750 117.087 C 174.238 117.085, 170.863 117.093, 168.250 117.105 C 165.637 117.116, 159.776 116.985, 155.225 116.813 C 150.673 116.641, 146.173 116.806, 145.225 117.180 M 128.529 124.355 C 126.144 126.099, 127.119 128.741, 130.455 129.578 C 133.809 130.420, 136 129.493, 136 127.231 C 136 123.350, 132.006 121.813, 128.529 124.355 M 200.242 125.034 C 197.118 126.289, 195.293 130.444, 196.975 132.470 C 198.432 134.225, 203.223 134.486, 206.066 132.965 C 208.690 131.561, 208.531 127.485, 205.777 125.557 C 203.264 123.796, 203.312 123.800, 200.242 125.034 M 145.223 135.557 C 141.876 137.900, 142.386 140, 146.300 140 C 149.977 140, 152 138.509, 152 135.800 C 152 133.523, 148.315 133.390, 145.223 135.557 M 348.667 138.667 C 347.310 140.023, 348.071 141.711, 350.547 142.839 C 354.214 144.510, 355.694 144.280, 356.305 141.943 C 356.734 140.302, 356.569 140.113, 355.491 141.007 C 354.449 141.872, 353.886 141.656, 353.035 140.065 C 351.940 138.019, 349.951 137.382, 348.667 138.667 M 110.637 141.506 C 106.379 145.763, 108.057 150, 114 150 C 119.320 150, 120.808 147.918, 118.678 143.452 C 116.858 139.635, 113.356 138.787, 110.637 141.506 M 284.250 141.685 C 282.725 141.993, 282 142.858, 282 144.370 C 282 147.344, 283.816 149, 287.078 149 C 290.342 149, 292.265 146.896, 291.827 143.805 C 291.488 141.414, 289.018 140.723, 284.250 141.685 M 182.655 144.829 C 179.404 148.421, 181.778 153.664, 186 152.215 C 189.437 151.035, 190.135 145.678, 187.066 144.035 C 184.560 142.694, 184.592 142.688, 182.655 144.829 M 89.011 152.487 C 87.284 154.568, 88.425 156.817, 91.612 157.617 C 94.710 158.395, 97.343 157.084, 97.848 154.513 C 98.510 151.144, 91.465 149.530, 89.011 152.487 M 233.937 153.340 C 228.949 155.817, 231.298 163, 237.096 163 C 240.599 163, 241.367 161.768, 240.556 157.447 C 239.761 153.210, 237.287 151.675, 233.937 153.340 M 328.657 153.262 C 326.375 154.930, 326.718 160.335, 329.135 160.793 C 330.034 160.963, 332.059 159.982, 333.635 158.612 C 335.995 156.560, 336.306 155.802, 335.398 154.311 C 333.995 152.007, 331.009 151.542, 328.657 153.262 M 197.750 156.080 C 196.615 156.741, 196 158.320, 196 160.574 C 196 163.385, 196.491 164.236, 198.565 165.025 C 202.064 166.355, 206.349 166.251, 207.800 164.800 C 209.099 163.501, 209.370 160.128, 208.382 157.552 C 207.821 156.092, 207.646 156.101, 206.513 157.651 C 205.356 159.233, 205.176 159.198, 204.096 157.180 C 202.843 154.839, 200.560 154.443, 197.750 156.080 M 264.630 157.523 C 263.771 159.760, 267.539 163, 271 163 C 273.522 163, 274 162.607, 274 160.535 C 274 156.549, 265.991 153.974, 264.630 157.523 M 141.025 159.940 C 139.404 163.852, 140.327 165, 145.090 165 C 149.801 165, 150.979 163.143, 148.587 159.492 C 146.271 155.958, 142.584 156.177, 141.025 159.940 M 307.038 170.962 C 303.414 174.586, 304.477 181.161, 309.072 183.537 C 315.189 186.700, 322 184.435, 322 179.236 C 322 173.461, 319.454 170.796, 312.788 169.593 C 309.811 169.056, 308.673 169.327, 307.038 170.962 M 365.792 170.057 C 362.625 171.903, 366.589 178, 370.955 178 C 374.198 178, 376 176.334, 376 173.335 C 376 169.620, 369.900 167.662, 365.792 170.057 M 427 174.326 C 427 177.077, 436.089 183.229, 438.750 182.279 C 441.108 181.438, 439.996 179.927, 435.644 178.062 C 433.249 177.035, 431.013 175.476, 430.676 174.597 C 429.937 172.672, 427 172.455, 427 174.326 M 255.200 179.404 C 251.367 180.728, 250.037 182.458, 250.015 186.143 C 249.992 190.201, 255.331 191.502, 258.345 188.171 C 260.004 186.338, 260.658 179.493, 259.250 178.691 C 258.837 178.456, 257.015 178.776, 255.200 179.404 M 444.609 188.971 C 442.831 192.682, 442.818 193.073, 444.382 195.460 C 446.748 199.071, 450.203 198.730, 454.467 194.467 C 456.410 192.523, 458 190.588, 458 190.166 C 458 189.260, 449.497 184.995, 447.723 185.011 C 447.050 185.018, 445.649 186.800, 444.609 188.971 M 350.571 189.571 C 346.852 193.291, 350.384 197.945, 355.460 196.015 C 359.158 194.609, 359.813 192.076, 357.056 189.844 C 354.269 187.588, 352.624 187.519, 350.571 189.571 M 379.200 190.200 C 378.540 190.860, 378 192.683, 378 194.251 C 378 196.579, 378.660 197.378, 381.598 198.605 C 386.282 200.563, 388.241 200.099, 389.417 196.755 C 390.216 194.485, 389.981 193.609, 388.014 191.515 C 385.488 188.826, 381.212 188.188, 379.200 190.200 M 464 195.823 C 464 197.195, 469.117 200.796, 472.977 202.142 C 474.663 202.730, 476.519 204.101, 477.102 205.190 C 478.470 207.746, 484.889 210.511, 486.264 209.136 C 488.047 207.353, 486.152 204.994, 481.271 202.917 C 478.647 201.801, 474.925 199.816, 473 198.507 C 468.942 195.747, 464 194.274, 464 195.823 M 421.250 197.662 C 417.642 199.118, 421.706 206, 426.173 206 C 429.509 206, 430.577 199.784, 427.588 197.765 C 426.373 196.945, 423.158 196.893, 421.250 197.662 M 622.102 204.586 C 619.966 206.103, 617.314 207, 614.959 207 C 612.659 207, 611.005 207.544, 610.673 208.410 C 610.375 209.185, 607.525 210.578, 604.338 211.504 C 601.151 212.430, 597.409 213.977, 596.022 214.941 C 594.635 215.905, 591.956 217.218, 590.069 217.858 C 584.826 219.637, 578 223.922, 578 225.435 C 578 226.178, 578.735 227.068, 579.634 227.413 C 581.626 228.177, 588 227.087, 588 225.982 C 588 225.544, 590.362 224.474, 593.250 223.604 C 596.138 222.733, 603.900 220.368, 610.500 218.348 C 617.100 216.328, 625.502 214.409, 629.171 214.083 C 632.840 213.758, 636.146 213.187, 636.518 212.816 C 637.163 212.170, 627.134 201.908, 626.031 202.086 C 625.739 202.133, 623.971 203.258, 622.102 204.586 M 506.166 208.596 C 503.005 210.810, 503.437 216.349, 506.808 216.827 C 509.469 217.204, 513.461 214.875, 514.963 212.069 C 517.179 207.929, 510.745 205.389, 506.166 208.596 M 365.088 211.394 C 364.405 212.217, 363.994 213.927, 364.173 215.195 C 364.450 217.151, 365.090 217.500, 368.391 217.500 C 372.953 217.500, 375.203 215.139, 373.394 212.250 C 371.972 209.979, 366.712 209.437, 365.088 211.394 M 83.169 214.539 C 77.331 216.288, 75 218.586, 75 222.590 C 75 228.411, 76.606 230.828, 82.340 233.641 C 88.709 236.765, 91.771 236.383, 96.248 231.905 C 99.005 229.148, 99.205 228.480, 98.783 223.397 C 98.251 216.984, 96.245 214.495, 91 213.744 C 89.075 213.468, 85.551 213.826, 83.169 214.539 M 463.655 214.829 C 460.004 218.863, 462.576 223, 468.734 223 C 473.691 223, 474.269 221.191, 470.689 216.879 C 467.087 212.538, 466.011 212.225, 463.655 214.829 M 638.121 218.354 C 637.460 219.151, 635.699 220.108, 634.209 220.479 C 632.719 220.850, 630.150 221.783, 628.500 222.552 C 622.372 225.407, 617.402 226.682, 614 226.271 C 609.725 225.755, 605 227.419, 605 229.440 C 605 231.476, 601.842 233, 597.625 233 C 595.696 233, 593.817 233.486, 593.450 234.081 C 593.082 234.676, 591.431 235.983, 589.781 236.987 C 586.930 238.720, 586.879 238.865, 588.759 239.871 C 590.677 240.897, 596.817 240.134, 612.500 236.917 C 615.250 236.353, 620.278 235.514, 623.673 235.053 C 627.068 234.591, 630.377 233.885, 631.025 233.485 C 631.980 232.895, 640.092 231.620, 649 230.661 C 650.938 230.453, 651.557 232.307, 649.827 233.139 C 640.369 237.689, 636.170 239.136, 628.737 240.406 C 623.918 241.230, 618.980 242.601, 617.765 243.452 C 616.519 244.325, 613.471 245, 610.777 245 C 607.333 245, 605.442 245.558, 604 247 C 601.048 249.952, 601.484 251.195, 606.928 255.347 C 611.712 258.996, 611.915 259.053, 613.928 257.330 C 615.067 256.354, 616 254.969, 616 254.253 C 616 252.657, 620.106 251, 624.061 251 C 625.673 251, 629.733 250.052, 633.082 248.892 C 636.820 247.599, 640.308 247.012, 642.111 247.372 C 643.727 247.695, 648.054 247.263, 651.726 246.411 C 656.701 245.258, 659.002 245.135, 660.749 245.931 C 662.039 246.519, 663.973 247, 665.047 247 C 666.121 247, 667 247.604, 667 248.342 C 667 249.803, 661.372 251.767, 653.500 253.051 C 642.048 254.920, 617.846 261.961, 617.306 263.582 C 617.131 264.108, 618.453 265.297, 620.244 266.223 C 624.153 268.246, 633.310 268.147, 637 266.041 C 639.718 264.491, 644.385 263.633, 659 261.997 C 664.225 261.412, 669.341 260.461, 670.370 259.884 C 671.398 259.306, 674.572 258.813, 677.423 258.787 C 686.140 258.709, 689.900 260.947, 684.500 263 C 683.125 263.523, 682 264.318, 682 264.766 C 682 265.814, 671.120 268.697, 664 269.536 C 659.307 270.089, 644.774 274.193, 637.250 277.091 C 634.427 278.178, 634.443 278.791, 637.382 282.464 L 639.754 285.429 643.707 282.813 C 650.932 278.031, 664.240 275.191, 683.364 274.350 C 697.317 273.735, 699.061 274.482, 694.075 278.933 C 691.541 281.196, 689.453 282.023, 685.134 282.475 C 679.296 283.086, 654.721 288.941, 649.563 290.949 L 646.626 292.093 650.186 295.653 C 653.710 299.177, 653.772 299.195, 656.393 297.478 C 658.289 296.236, 660.290 295.885, 663.450 296.242 C 665.886 296.516, 668.329 296.271, 668.905 295.695 C 669.552 295.048, 677.275 294.623, 689.224 294.576 C 707.781 294.503, 708.500 294.574, 708.500 296.476 C 708.500 297.805, 707.519 298.745, 705.500 299.348 C 703.850 299.841, 701.375 300.810, 700 301.501 C 696.475 303.274, 684.946 304.310, 681.851 303.134 C 679.932 302.404, 678.917 302.512, 677.873 303.556 C 677.102 304.327, 673.364 305.304, 669.567 305.729 C 662.007 306.573, 660.507 307.976, 664.421 310.540 C 666.640 311.994, 667.626 312.049, 672.129 310.969 C 674.969 310.288, 680.489 309.624, 684.396 309.494 C 688.303 309.365, 694.200 308.768, 697.500 308.168 C 707.053 306.432, 716.858 306.560, 723.750 308.509 C 732.813 311.073, 732.155 312.540, 721.173 314.256 C 717.503 314.830, 712.250 315.254, 709.500 315.199 C 706.750 315.144, 700.840 316.213, 696.366 317.574 C 691.893 318.936, 685.872 320.218, 682.988 320.424 C 676.854 320.862, 674.997 322.697, 678.212 325.144 C 679.731 326.301, 680.983 326.529, 682.435 325.913 C 685.737 324.513, 705.532 321.772, 717.500 321.058 C 728.690 320.390, 734.460 318.571, 735.709 315.316 C 736.018 314.510, 735.776 312.197, 735.171 310.176 C 734.565 308.154, 733.765 305.375, 733.391 304 C 732.527 300.814, 689.098 257.760, 682.750 253.795 C 680.138 252.163, 678 250.455, 678 249.999 C 678 249.543, 675.720 247.497, 672.933 245.451 C 670.146 243.405, 662.222 236.279, 655.324 229.616 C 648.426 222.952, 642.005 217.366, 641.054 217.202 C 640.103 217.038, 638.783 217.556, 638.121 218.354 M 85.750 221.080 C 84.787 221.641, 84 222.977, 84 224.050 C 84 225.555, 84.692 226, 87.031 226 C 90.447 226, 91.898 223.787, 89.989 221.487 C 88.550 219.753, 88.103 219.710, 85.750 221.080 M 530.667 227.667 C 529.294 229.039, 530.075 231.939, 532.223 233.443 C 535.243 235.559, 536.991 235.398, 540.374 232.690 C 543.076 230.528, 543.146 230.289, 541.552 228.695 C 539.867 227.010, 532.061 226.272, 530.667 227.667 M 436.667 229.667 C 435.435 230.899, 435.985 234.743, 437.584 236.070 C 440.701 238.657, 444.608 233.642, 441.960 230.452 C 440.706 228.941, 437.820 228.513, 436.667 229.667 M 510.500 229.907 C 506.454 230.387, 505.444 230.892, 505.206 232.555 C 505.044 233.686, 505.820 235.432, 506.930 236.437 C 508.668 238.009, 509.360 238.093, 511.902 237.041 C 515.762 235.442, 518.393 232.466, 517.653 230.537 C 517.328 229.692, 516.711 229.071, 516.281 229.157 C 515.852 229.244, 513.250 229.581, 510.500 229.907 M 251.831 235.907 C 242.227 236.761, 242.267 238, 251.899 238 C 256.427 238, 260.948 238.437, 261.946 238.971 C 262.943 239.505, 267.526 240.379, 272.130 240.913 C 282.223 242.084, 291.395 243.704, 295.606 245.060 C 299.042 246.166, 305.050 244.620, 303.413 243.051 C 301.471 241.189, 285.052 236.986, 276 236.034 C 265.937 234.975, 262.519 234.958, 251.831 235.907 M 483.223 239.557 C 480.412 241.525, 480.270 245.634, 482.984 246.495 C 485.298 247.229, 489.861 245.232, 491.350 242.834 C 493.756 238.957, 487.615 236.480, 483.223 239.557 M 515.989 248.021 C 514.608 250.602, 515.486 252, 518.488 252 C 521.394 252, 524.116 249.465, 523.351 247.471 C 522.491 245.230, 517.274 245.620, 515.989 248.021 M 235.508 248.840 C 236.053 249.349, 240.262 250.079, 244.859 250.461 C 251.591 251.021, 253.133 250.898, 252.779 249.828 C 252.467 248.887, 249.741 248.415, 243.427 248.208 C 237.931 248.027, 234.895 248.270, 235.508 248.840 M 259.520 248.861 C 256.164 250.262, 264.012 253.396, 269.150 252.707 C 273.376 252.140, 275.908 250.575, 274.645 249.312 C 273.583 248.249, 261.825 247.899, 259.520 248.861 M 455.529 249.355 C 452.823 251.334, 454.242 254, 458 254 C 461.446 254, 462.906 251.797, 460.989 249.487 C 459.458 247.641, 457.923 247.604, 455.529 249.355 M 565.713 252.621 C 564.135 254.199, 565.041 257.878, 567.174 258.555 C 569.593 259.323, 572.273 256.677, 571.770 254.019 C 571.470 252.431, 566.947 251.387, 565.713 252.621 M 544.518 254.625 C 543.625 255.518, 543.030 257.206, 543.197 258.375 C 543.451 260.146, 544.084 260.452, 547.001 260.213 C 551.456 259.848, 553.078 258.216, 551.933 255.250 C 550.890 252.549, 546.928 252.215, 544.518 254.625 M 230.569 258.888 C 229.965 259.866, 249.606 264.362, 250.924 263.547 C 252.665 262.471, 252.165 261.012, 249.750 260.116 C 246.747 259.003, 231.117 258.002, 230.569 258.888 M 593.654 266.264 C 591.037 268.178, 591.794 272.400, 594.832 272.830 C 597.787 273.249, 601.179 270.247, 600.794 267.555 C 600.435 265.048, 596.332 264.306, 593.654 266.264 M 574.557 268.223 C 570.744 273.665, 575.104 279.128, 580.459 275.619 C 581.857 274.703, 583 273.164, 583 272.199 C 583 269.555, 580.133 266, 578 266 C 576.962 266, 575.413 267, 574.557 268.223 M 43.500 268.193 C 37.450 268.670, 31.150 269.548, 29.500 270.145 C 27.850 270.741, 25.262 271.453, 23.750 271.728 C 22.237 272.002, 21 272.533, 21 272.908 C 21 274.460, 30.956 280.914, 37 283.280 C 46.264 286.906, 50.968 288.010, 59.234 288.494 C 63.230 288.729, 68.975 289.405, 72 289.996 C 75.025 290.588, 82.450 291.468, 88.500 291.952 C 94.550 292.436, 103.980 293.316, 109.456 293.909 C 120.318 295.086, 123.021 294.321, 118.357 291.392 C 116.786 290.406, 109.875 285.938, 103 281.464 C 86.386 270.653, 86.614 270.763, 83.702 272.090 C 81.760 272.975, 80.526 272.799, 77.363 271.185 C 72.902 268.909, 63.364 266.921, 58.066 267.163 C 56.105 267.252, 49.550 267.716, 43.500 268.193 M 596.243 287.157 C 594.165 289.235, 594.790 291.909, 597.513 292.593 C 600.622 293.373, 603.203 291.417, 602.798 288.588 C 602.449 286.146, 598.185 285.215, 596.243 287.157 M 576.667 291.667 C 575.303 293.031, 576.067 295.965, 578.064 297.034 C 580.697 298.443, 583 296.737, 583 293.378 C 583 291.434, 582.483 291, 580.167 291 C 578.608 291, 577.033 291.300, 576.667 291.667 M 121 300.770 C 121 301.318, 122.013 302.038, 123.250 302.370 C 126.898 303.347, 140.829 303.085, 141.484 302.027 C 141.854 301.427, 139.282 301.076, 134.793 301.114 C 130.782 301.147, 126.037 300.859, 124.250 300.474 C 122.288 300.051, 121 300.168, 121 300.770 M 598.250 304.031 C 594.195 305.661, 596.024 310.360, 600.508 309.830 C 604.422 309.367, 606.130 306.351, 603.559 304.441 C 601.355 302.805, 601.309 302.801, 598.250 304.031 M 612.982 306.548 C 612.182 308.652, 612.299 309.807, 613.496 311.635 C 615.383 314.515, 616.014 314.544, 621.040 311.980 C 627.187 308.844, 626.055 305.812, 618.258 304.527 C 614.285 303.871, 613.951 303.999, 612.982 306.548 M 127 307.925 C 127 308.434, 129.904 308.806, 133.452 308.753 C 137.001 308.699, 139.675 308.282, 139.393 307.827 C 138.688 306.686, 127 306.778, 127 307.925 M 421.564 317.897 C 421.259 318.390, 422.963 320.978, 425.351 323.647 C 427.739 326.316, 430.882 330.300, 432.336 332.500 C 436.006 338.055, 437.732 340.629, 442.211 347.230 C 444.350 350.381, 449.113 359.156, 452.797 366.730 L 459.494 380.500 459.797 374.153 C 460.128 367.226, 459.677 366.037, 451.391 352 C 447.007 344.574, 441.706 336.852, 433 325.208 C 427.834 318.298, 423.162 315.311, 421.564 317.897 M 437 320.892 C 437 321.382, 439.137 324.148, 441.750 327.038 C 448.830 334.871, 456.385 345.524, 461.114 354.343 C 465.340 362.223, 467.273 364.127, 469.146 362.254 C 470.194 361.206, 466.069 351.778, 464.004 350.502 C 463.435 350.151, 462.361 348.432, 461.617 346.682 C 460.873 344.932, 458.491 341.475, 456.324 339 C 454.157 336.525, 451.388 332.856, 450.170 330.847 C 446.220 324.327, 437 317.358, 437 320.892 M 464 325.418 C 464 325.648, 466.063 328.236, 468.584 331.168 C 471.104 334.101, 473.986 338.075, 474.987 340 C 475.988 341.925, 477.975 344.850, 479.403 346.500 C 480.830 348.150, 481.998 349.822, 481.999 350.215 C 482.001 351.365, 485.949 353.149, 487.023 352.486 C 488.365 351.656, 486.847 349.021, 481.674 343.195 C 479.342 340.570, 475.199 335.402, 472.467 331.711 C 469.631 327.879, 466.749 325, 465.750 325 C 464.788 325, 464 325.188, 464 325.418 M 480 327.789 C 480 328.222, 482.662 331.576, 485.915 335.241 C 489.169 338.906, 492.656 343.309, 493.665 345.024 C 494.785 346.927, 496.584 348.361, 498.281 348.703 C 499.810 349.010, 501.954 350.397, 503.045 351.784 C 504.135 353.171, 505.299 354.034, 505.631 353.702 C 506.339 352.994, 502.684 347.956, 498.711 344.163 C 497.176 342.698, 492.724 338.238, 488.817 334.250 C 482.176 327.474, 480 325.879, 480 327.789 M 724.500 328.471 C 719 329.038, 713.375 330.154, 712 330.953 C 710.524 331.810, 707.147 332.361, 703.755 332.299 C 697.311 332.180, 688.649 334.830, 688.243 337.046 C 688.096 337.846, 689.518 339.544, 691.402 340.820 C 694.606 342.990, 695.018 343.042, 697.758 341.625 C 701.106 339.894, 705.311 339.303, 723.408 338.021 C 737.140 337.048, 738.475 336.476, 737.444 332 C 736.447 327.670, 735.305 327.359, 724.500 328.471 M 497 333 C 497.589 334.100, 498.465 335, 498.948 335 C 499.431 335, 502.565 337.697, 505.913 340.993 C 512.591 347.569, 513.755 346.992, 508.826 339.551 C 505.563 334.625, 500.864 331.010, 497.715 331.004 C 496.239 331.001, 496.115 331.347, 497 333 M 518.015 336.642 C 518.037 337.863, 518.948 338.928, 524.256 343.938 C 526.842 346.378, 529.156 348.177, 529.398 347.936 C 529.640 347.694, 530.128 346.338, 530.483 344.923 C 531.036 342.720, 530.557 341.973, 527.145 339.715 C 522.866 336.883, 517.990 335.242, 518.015 336.642 M 543.337 344.520 C 545.281 347.673, 551.104 353.230, 551.767 352.566 C 552.549 351.784, 548.768 347.060, 545.176 344.332 L 541.500 341.540 543.337 344.520 M 559 347.651 C 559 349.128, 570.007 359, 571.653 359 C 572.904 359, 571.662 357.206, 567.500 353 C 562.259 347.704, 559 345.653, 559 347.651 M 719 348.654 C 715.975 349.288, 711.138 349.851, 708.250 349.904 C 703.731 349.987, 703 350.273, 703 351.965 C 703 353.708, 706.131 356.466, 707.119 355.592 C 707.328 355.407, 714.019 354.956, 721.986 354.592 C 729.953 354.227, 736.854 353.546, 737.321 353.079 C 737.787 352.613, 738.019 351.166, 737.835 349.865 C 737.522 347.655, 737.074 347.500, 731 347.500 C 727.425 347.500, 722.025 348.019, 719 348.654 M 579 352.544 C 579 352.978, 579.668 354.045, 580.485 354.916 C 581.301 355.787, 583.063 357.850, 584.399 359.500 C 587.590 363.438, 588.661 362.264, 585.758 358.012 C 583.497 354.700, 579 351.062, 579 352.544 M 270 360.476 C 270 361.516, 279.220 371, 280.232 371 C 280.728 371, 280.990 369.813, 280.816 368.362 C 280.577 366.364, 279.225 365.005, 275.250 362.765 C 272.363 361.138, 270 360.108, 270 360.476 M 600.619 360.715 C 600.316 361.018, 600.972 362.443, 602.077 363.883 C 603.182 365.322, 605.699 368.975, 607.670 372 C 611.474 377.838, 617.085 384.249, 617.781 383.553 C 618.010 383.323, 616.016 380.077, 613.349 376.340 C 609.833 371.413, 608.497 368.602, 608.488 366.119 C 608.478 363.078, 608.066 362.551, 604.823 361.428 C 602.814 360.733, 600.922 360.411, 600.619 360.715 M 617.501 367.998 C 617.151 368.564, 619.182 371.609, 622.014 374.764 C 624.846 377.919, 628.020 382.075, 629.067 384 C 631.498 388.470, 636.778 394.556, 637.552 393.781 C 638.074 393.259, 629.482 377.889, 625.656 372.500 C 623.646 369.670, 618.294 366.715, 617.501 367.998 M 284 411.767 C 284 412.962, 293.037 423, 294.113 423 C 295.510 423, 293.392 419.439, 289.301 414.912 C 285.960 411.213, 284 410.051, 284 411.767 M 788.549 413.784 C 788.247 414.086, 788 414.672, 788 415.085 C 788 416.409, 794.377 419.809, 798.185 420.515 C 800.211 420.891, 802.609 422.016, 803.513 423.015 C 805.415 425.116, 815.778 429.556, 816.678 428.655 C 817.601 427.732, 814.973 425.004, 813.128 424.968 C 812.232 424.951, 810.626 424.276, 809.559 423.468 C 808.491 422.661, 806.744 422, 805.677 422 C 804.610 422, 802.262 420.436, 800.459 418.526 C 797.418 415.300, 789.990 412.343, 788.549 413.784 M 824 418.375 C 824 420.052, 845.162 427.970, 860.573 432.058 C 864.463 433.090, 868.963 434.622, 870.573 435.461 C 872.183 436.301, 874.247 436.990, 875.161 436.994 C 876.074 436.997, 881.178 438.159, 886.501 439.576 C 891.825 440.993, 896.373 441.960, 896.608 441.725 C 896.844 441.490, 895.228 440.044, 893.018 438.513 C 890.808 436.981, 888.993 435.227, 888.985 434.614 C 888.975 433.894, 888.692 433.936, 888.186 434.734 C 887.587 435.676, 885.784 435.381, 880.554 433.484 C 876.788 432.118, 872.722 431, 871.520 431 C 870.317 431, 869.022 430.689, 868.642 430.309 C 868.262 429.929, 865.699 429.484, 862.947 429.320 C 857.324 428.985, 852.582 426.905, 850.748 423.969 C 850.072 422.886, 848.480 422, 847.210 422 C 845.940 422, 843.644 421.350, 842.108 420.556 C 839.215 419.060, 824 417.227, 824 418.375 M 796.441 430.904 C 796.805 431.493, 799.217 433.396, 801.801 435.134 C 804.385 436.872, 807.625 439.294, 809 440.517 C 811.831 443.033, 831.424 452, 834.091 452 C 836.523 452, 839 450.952, 839 449.923 C 839 449.448, 835.513 447.372, 831.250 445.308 C 826.987 443.245, 821.025 440.122, 818 438.369 C 814.975 436.616, 810.115 434.691, 807.200 434.091 C 804.285 433.491, 800.523 432.288, 798.840 431.417 C 797.157 430.547, 796.077 430.316, 796.441 430.904 M 830 434.424 C 832.475 435.706, 836.075 437.080, 838 437.476 C 839.925 437.872, 842.400 438.758, 843.500 439.444 C 846.921 441.577, 856.943 445, 859.769 445 C 861.830 445, 860.588 444.042, 854.481 440.919 C 844.280 435.703, 833.640 431.987, 829.075 432.047 L 825.500 432.093 830 434.424 M 778 436.844 C 778 437.795, 788.677 447.584, 793.944 451.463 C 795.839 452.859, 798.231 454, 799.260 454 C 801.574 454, 804.815 455.627, 807.665 458.219 L 809.830 460.189 811.614 457.467 C 813.389 454.758, 813.382 454.730, 810.238 451.921 C 808.500 450.369, 805.148 448.594, 802.789 447.977 C 800.430 447.360, 798.050 446.283, 797.500 445.583 C 796.207 443.937, 787.302 440, 784.873 440 C 783.843 440, 783 439.550, 783 439 C 783 438.450, 783.477 438, 784.059 438 C 784.641 438, 784.840 437.550, 784.500 437 C 783.752 435.790, 778 435.652, 778 436.844 M 762.639 455.694 C 761.394 456.939, 762.031 459.850, 764.488 464.148 C 765.856 466.542, 766.981 469.224, 766.988 470.110 C 766.995 470.995, 768.311 474.370, 769.913 477.610 C 771.515 480.849, 773.568 485.922, 774.476 488.882 C 776.536 495.596, 778.947 499.453, 780.264 498.136 C 780.886 497.514, 780.611 495.549, 779.494 492.623 C 778.539 490.122, 778.001 487.439, 778.299 486.662 C 778.598 485.885, 778.202 484.016, 777.421 482.510 C 776.639 481.004, 776.004 479.260, 776.009 478.636 C 776.014 478.011, 774.630 476.359, 772.933 474.964 C 770.150 472.676, 769.962 472.177, 771.013 469.872 C 772.042 467.613, 771.761 466.665, 768.600 461.724 C 764.818 455.811, 763.677 454.657, 762.639 455.694 M 786.543 469.931 C 786.226 470.443, 786.425 471.144, 786.984 471.490 C 787.543 471.835, 788 473.156, 788 474.424 C 788 475.693, 788.914 477.892, 790.031 479.313 L 792.063 481.895 795.531 479.849 C 800.588 476.865, 800.069 474.564, 793.654 471.529 C 787.662 468.695, 787.350 468.625, 786.543 469.931 M 757.035 477.750 C 757.055 479.262, 757.714 481.625, 758.500 483 C 759.286 484.375, 759.945 486.565, 759.965 487.866 C 759.999 490.163, 768.912 516.098, 771.021 520.040 C 772.619 523.025, 774.354 522.481, 773.544 519.250 C 773.165 517.737, 772.234 512.747, 771.475 508.160 C 770.717 503.574, 769.683 499.299, 769.178 498.660 C 768.674 498.022, 767.735 495.867, 767.093 493.871 C 766.450 491.875, 765.042 489.443, 763.962 488.466 C 762.701 487.324, 762 485.397, 762 483.068 C 762 479.471, 759.752 475, 757.943 475 C 757.424 475, 757.016 476.238, 757.035 477.750 M 751 494.679 C 751 497.584, 753.349 503, 754.609 503 C 755.500 503, 755.397 501.689, 754.217 498 C 752.644 493.082, 751 491.384, 751 494.679 M 760.403 525.619 C 762.185 533.097, 763.053 536.033, 765.545 543 C 768.560 551.429, 769.294 552.554, 771.064 551.460 C 771.995 550.885, 771.869 550.378, 770.561 549.421 C 769.459 548.615, 769.042 547.443, 769.427 546.231 C 769.798 545.062, 769.247 543.313, 768.018 541.749 C 766.895 540.322, 766 537.680, 766 535.792 C 766 533.927, 765.502 531.902, 764.893 531.293 C 764.284 530.684, 763.485 528.715, 763.117 526.917 C 762.749 525.120, 761.834 523.445, 761.083 523.194 C 760.042 522.847, 759.880 523.425, 760.403 525.619"/>
</svg>