<?xml version="1.0" encoding="utf-8"?>
<svg xmlns="http://www.w3.org/2000/svg" width="1002" height="251" viewBox="0 0 1002 251">
  <path fill-rule="evenodd" d="M 586.200 2.050 C 584.935 2.557, 582.010 4.263, 579.700 5.840 C 577.390 7.417, 573.138 9.484, 570.251 10.434 C 563.029 12.809, 561.730 14.852, 563.723 20.701 C 564.656 23.438, 564.889 25.472, 564.315 25.860 C 563.794 26.212, 560.587 28.662, 557.189 31.304 C 551.224 35.943, 549.760 38.301, 550.263 42.462 C 550.576 45.050, 535.112 55.802, 525.750 59.506 C 518.047 62.554, 517.302 64.310, 521.375 69.831 C 522.681 71.601, 524.709 75.680, 525.881 78.895 C 528.361 85.696, 531.761 89.502, 536.139 90.378 C 543.063 91.763, 553.485 90.979, 561.288 88.487 C 565.572 87.119, 570.197 86, 571.567 86 C 572.936 86, 576.773 84.629, 580.093 82.953 C 586.926 79.504, 588.182 79.639, 593.942 84.451 C 599.254 88.889, 608.104 90.563, 617.558 88.916 C 621.165 88.288, 627.089 87.964, 630.723 88.195 C 636.837 88.584, 637.559 88.883, 640.414 92.202 C 642.111 94.174, 644.345 98.198, 645.378 101.144 C 647.223 106.405, 652.807 113, 655.416 113 C 656.757 113, 660.616 116.754, 659.911 117.372 C 659.685 117.570, 655.406 121.120, 650.403 125.261 C 640.127 133.765, 636.172 138.267, 629.601 148.938 C 623.306 159.159, 622.995 161.550, 627.026 168.729 C 628.808 171.903, 632.569 177.386, 635.383 180.913 C 638.197 184.440, 643.425 191.640, 647 196.913 C 652.590 205.158, 654.260 206.885, 658.929 209.250 C 661.915 210.763, 665.342 212, 666.543 212 C 668.605 212, 668.763 211.427, 669.365 201.750 C 670.053 190.708, 669.459 186.650, 666.251 180.466 C 665.119 178.285, 663.483 174.814, 662.614 172.753 C 661.701 170.585, 659.345 167.846, 657.025 166.253 C 651.179 162.239, 650.279 157, 655.437 157 C 656.712 157, 658.370 156.259, 659.122 155.353 C 659.874 154.447, 665.892 151.031, 672.495 147.763 C 683.956 142.090, 684.772 141.842, 690.500 142.294 C 695.007 142.649, 698.366 143.768, 704 146.792 C 712.936 151.590, 728.132 156.576, 736.804 157.557 C 742.359 158.186, 742.984 158.476, 742.443 160.181 C 741.272 163.868, 744.386 166.693, 750.456 167.451 C 755.162 168.039, 756.560 167.817, 759.474 166.016 C 768.635 160.354, 781.804 157.992, 794 159.824 C 797.967 160.420, 798.537 160.826, 798.816 163.250 C 799.159 166.228, 799.022 166.285, 792.249 166.017 C 788.714 165.877, 787.479 166.367, 784.922 168.924 C 781.424 172.422, 780.988 172.497, 775.500 170.553 C 769.078 168.277, 764.606 169.966, 763.480 175.092 C 763.021 177.183, 761.724 178.610, 759.039 179.980 C 754.650 182.219, 753.680 184.028, 755.003 187.509 C 756.285 190.881, 758 190.660, 758 187.122 C 758 183.148, 759.999 181.846, 767.259 181.089 C 773.856 180.402, 776.390 179.440, 775.481 177.969 C 775.169 177.464, 773.841 177.571, 772.427 178.215 C 770.376 179.150, 769.621 179.050, 768.230 177.659 C 766.924 176.353, 766.784 175.564, 767.619 174.231 C 769.199 171.710, 772.303 171.605, 776.136 173.942 C 780.650 176.694, 781.836 176.551, 785.719 172.788 C 788.492 170.100, 789.722 169.606, 793.266 169.760 C 800.728 170.084, 801 169.791, 801 161.457 L 801 154.049 808.750 149.477 C 817.136 144.530, 820.383 144.201, 824.452 147.886 C 827.343 150.504, 848.237 151.635, 853.453 149.455 C 855.906 148.430, 859.454 148.104, 865.200 148.376 C 872.229 148.709, 873.638 149.076, 874.838 150.883 C 875.966 152.582, 875.998 153.297, 875 154.500 C 874.315 155.325, 873.227 156, 872.581 156 C 871.934 156, 869.648 157.800, 867.500 160 C 865.352 162.200, 863.102 164, 862.499 164 C 861.214 164, 849.140 170.088, 845.836 172.403 C 844.545 173.307, 841.548 174, 838.932 174 C 833.921 174, 831 176.073, 831 179.629 C 831 182.252, 829.121 184, 826.300 184 C 824.388 184, 823.987 183.452, 823.921 180.750 C 823.878 178.963, 823.583 178.175, 823.265 179 C 822.948 179.825, 821.745 181.850, 820.592 183.500 C 819.439 185.150, 818.001 187.400, 817.397 188.500 C 815.685 191.617, 810.559 191.648, 806.895 188.565 C 803.211 185.465, 802.821 185.435, 800.433 188.074 C 799.154 189.488, 797.754 189.995, 796.039 189.667 C 792.934 189.074, 790.259 190.405, 787 194.167 C 784.705 196.817, 784.215 196.969, 781.023 196.031 C 777.197 194.907, 774.420 195.429, 771.750 197.773 C 769.893 199.404, 769.312 205, 771 205 C 771.550 205, 772 203.930, 772 202.622 C 772 198.788, 774.130 197.802, 780.785 198.555 L 786.725 199.227 789.527 195.554 C 792.107 192.171, 792.624 191.930, 796.062 192.510 C 798.313 192.891, 800.057 192.716, 800.456 192.071 C 801.429 190.496, 805.562 190.768, 807 192.500 C 807.751 193.405, 809.940 194, 812.519 194 C 816.151 194, 817.254 193.475, 819.866 190.500 C 822.288 187.741, 823.687 187, 826.469 187 C 830.654 187, 834 184.127, 834 180.535 C 834 175.479, 841.581 174.796, 845.960 179.458 C 847.785 181.400, 847.976 182.177, 847.050 183.906 C 846.434 185.058, 845.146 186, 844.187 186 C 841.418 186, 838.003 188.914, 837.968 191.307 C 837.951 192.513, 837.276 194.374, 836.468 195.441 C 835.661 196.509, 835 199.088, 835 201.172 C 835 204.444, 835.364 205.053, 837.669 205.632 C 839.735 206.150, 840.751 205.791, 842.169 204.040 C 843.176 202.796, 844 201.153, 844 200.389 C 844 198.045, 845.745 198.849, 846.411 201.500 C 847.192 204.612, 849.615 204.710, 852.759 201.756 C 854.976 199.674, 855.218 199.638, 856.124 201.256 C 858.268 205.089, 862.136 201.615, 861.321 196.589 C 860.863 193.766, 861.155 192.987, 863.057 191.970 C 865.114 190.869, 865.614 191.077, 868.028 194.035 C 869.846 196.262, 871.244 197.121, 872.357 196.693 C 873.260 196.347, 874 195.599, 874 195.031 C 874 194.464, 876.067 194, 878.593 194 C 882.967 194, 883.601 194.390, 891.949 202.229 C 900.120 209.901, 900.571 210.529, 898.607 211.502 C 896.204 212.692, 895.279 217.784, 896.911 220.835 C 897.806 222.507, 897.534 222.843, 894.846 223.381 C 893.143 223.721, 889.133 224, 885.934 224 C 880.207 224, 877.503 225.212, 880.588 226.395 C 881.454 226.728, 885.839 226.995, 890.332 226.989 C 905.350 226.969, 909.376 225.194, 903.250 221.296 C 901.737 220.334, 900.188 219.101, 899.807 218.557 C 898.942 217.320, 900.778 215, 902.622 215 C 904.008 215, 904.373 213.936, 904.062 210.808 C 903.850 208.676, 907.397 206.349, 912.198 205.473 C 914.231 205.101, 916.694 204.213, 917.670 203.499 C 919.206 202.376, 919.271 201.875, 918.150 199.781 C 917.024 197.676, 917.139 196.878, 919.034 193.667 C 921.085 190.192, 921.117 189.827, 919.583 187.487 C 918.311 185.545, 917.104 185, 914.075 185 C 910.614 185, 910.076 184.657, 909.085 181.815 C 906.787 175.222, 902.798 173.352, 898.080 176.657 C 896.656 177.654, 894.035 178.250, 891.496 178.154 C 886.596 177.969, 883.111 180.222, 880.747 185.102 C 879.700 187.265, 878.002 188.701, 875.458 189.576 C 872.023 190.756, 871.570 190.691, 870.029 188.788 C 866.540 184.478, 858 188.778, 858 194.845 C 858 196.766, 857.726 197.018, 856.627 196.105 C 854.946 194.710, 852.378 195.572, 851.515 197.821 C 850.963 199.261, 850.625 199.155, 849.031 197.041 C 847.389 194.864, 846.898 194.726, 844.573 195.785 C 843.136 196.440, 841.465 198.218, 840.861 199.738 C 839.214 203.877, 838.518 200.561, 840 195.634 C 840.683 193.360, 841.327 191.083, 841.430 190.574 C 841.533 190.064, 843.387 189.151, 845.549 188.544 C 849.336 187.482, 849.509 187.246, 850.242 182.152 C 851.275 174.973, 852.420 173.199, 856.519 172.430 C 859.795 171.816, 867.551 172.507, 870.628 173.687 C 871.551 174.042, 872.001 173.443, 872.004 171.857 C 872.009 168.759, 875.250 163.538, 878.484 161.419 C 881.514 159.433, 889.039 159.935, 893.897 162.447 C 900.241 165.727, 904 163.725, 904 157.066 C 904 153.208, 903.139 153.210, 899.749 157.073 C 897.923 159.153, 896.321 160.042, 894.786 159.823 C 891.013 159.285, 891.656 156.584, 896.909 150.903 L 901.905 145.500 905.321 147.337 C 909.868 149.782, 913.105 149.218, 914.243 145.785 C 914.990 143.534, 914.618 142.305, 912.072 138.604 C 908.213 132.996, 908.038 129.316, 911.565 127.975 C 915.166 126.606, 915.565 126.693, 918.595 129.500 C 921.230 131.943, 926.329 132.895, 927.410 131.146 C 927.700 130.677, 926.826 129.786, 925.469 129.168 C 921.537 127.376, 922.539 125.657, 929.519 122.215 C 936.934 118.558, 940.089 118.295, 947.716 120.700 C 953.034 122.376, 953.166 122.368, 957.343 120.086 C 962.991 117, 965.190 117.566, 966.785 122.514 C 968.386 127.476, 970.343 129, 975.120 129 C 978.880 129, 982 131.018, 982 133.449 C 982 134.167, 982.694 135.331, 983.542 136.035 C 987.228 139.094, 987.511 131.999, 983.860 128.080 C 982.549 126.673, 980.683 126, 978.096 126 C 973.488 126, 969 122.836, 969 119.586 C 969 118.339, 968.356 115.178, 967.569 112.562 C 965.950 107.183, 966.286 105.420, 969.069 104.692 C 970.525 104.311, 971 103.303, 971 100.594 C 971 96.009, 972.934 95.887, 976.416 100.250 C 980.865 105.823, 982.211 106.935, 984.245 106.714 C 985.330 106.596, 986.618 107.287, 987.109 108.250 C 987.599 109.213, 988.370 110.761, 988.821 111.690 C 990.607 115.364, 992 114.221, 992 109.083 C 992 104.762, 992.284 104, 993.893 104 C 997.497 104, 998.218 111.636, 995 115.727 C 991.983 119.563, 992.416 123.652, 996.216 127.202 C 999.744 130.497, 1001.177 129.445, 998.572 125.470 C 997.063 123.166, 997.093 122.738, 999.033 118.935 C 1000.830 115.413, 1001.001 113.970, 1000.305 108.206 C 999.567 102.102, 999.264 101.462, 996.669 100.551 C 994.537 99.802, 993.178 99.927, 991.169 101.055 C 987.918 102.880, 982.775 101.552, 980.498 98.300 C 979.224 96.481, 979.222 96.061, 980.483 95.014 C 981.278 94.354, 983.520 91.417, 985.464 88.488 C 988.761 83.521, 989 82.629, 989 75.291 C 989 56.702, 980.886 41.633, 967.500 35.362 C 958.350 31.075, 951.737 33.202, 959.430 37.957 C 971.679 45.527, 979.467 66.298, 974.132 77.165 C 971.586 82.353, 966.295 86.490, 964.312 84.844 C 963.590 84.245, 963 83.317, 963 82.782 C 963 80.315, 958.775 76.249, 955.053 75.134 C 949.765 73.550, 948.374 71.104, 947.588 62 C 947.232 57.875, 946.490 52.825, 945.939 50.777 C 944.722 46.252, 940.055 42.448, 934.500 41.451 C 928.335 40.344, 925.375 38.416, 921.908 33.249 C 917.575 26.790, 916.368 26, 910.844 26 C 907.023 26, 905.847 26.418, 904.950 28.093 C 903.569 30.673, 904.303 33.890, 906.973 36.969 C 908.088 38.254, 909 40.153, 909 41.188 C 909 42.739, 908.660 42.888, 907.066 42.035 C 906.002 41.466, 904.202 41, 903.066 41 C 901.317 41, 901 40.376, 901 36.941 C 901 32.044, 899.500 32.523, 898.523 37.731 C 897.555 42.890, 897.083 43.385, 894.962 41.466 C 893.334 39.992, 892.884 39.968, 891.044 41.257 C 889.399 42.409, 888.147 42.495, 885.043 41.666 C 881.771 40.793, 880.545 40.930, 877.636 42.496 L 874.151 44.373 868.728 38.863 C 865.746 35.833, 862.999 32.130, 862.623 30.636 C 861.493 26.134, 860 28.718, 860 35.176 C 860 40.862, 859.870 41.199, 857.873 40.677 C 856.703 40.371, 854.790 40.715, 853.623 41.442 C 852.455 42.169, 848.135 43.055, 844.022 43.410 C 839.909 43.766, 836.084 44.536, 835.522 45.122 C 834.342 46.352, 859.724 45.907, 861.738 44.662 C 862.471 44.209, 862.705 42.774, 862.342 40.961 C 861.944 38.970, 862.151 38, 862.974 38 C 864.547 38, 869.710 43.511, 870.516 46.051 C 871.313 48.561, 874.579 48.554, 878.711 46.035 C 881.386 44.404, 882.443 44.258, 885.039 45.163 C 887.329 45.962, 888.833 45.941, 890.708 45.087 C 892.813 44.128, 893.587 44.221, 895.130 45.617 C 896.888 47.209, 897.117 47.204, 898.965 45.532 C 900.375 44.255, 901.716 43.950, 903.715 44.448 C 905.247 44.830, 907.962 45.385, 909.750 45.681 C 912.133 46.075, 913 46.744, 913 48.186 C 913 50.819, 918.044 55.731, 921.622 56.583 C 925.730 57.562, 928 59.879, 928 63.096 C 928 67.060, 926.259 67.622, 923.165 64.658 C 921.695 63.250, 917.580 61.191, 914.019 60.083 C 908.348 58.318, 907.278 58.243, 905.394 59.477 C 902.792 61.182, 901.340 67.500, 903.070 69.585 C 903.725 70.373, 905.955 71.289, 908.027 71.620 C 911.172 72.123, 911.889 72.695, 912.367 75.085 C 913.088 78.690, 916.698 79.763, 922.705 78.156 C 929.544 76.327, 930 76.504, 930 80.992 C 930 83.900, 930.543 85.322, 932 86.232 C 937.341 89.567, 931.828 89.896, 921.064 86.883 C 908.816 83.456, 904.913 81.019, 900.672 74.148 C 893.430 62.414, 885.868 58, 873.012 58 C 868.744 58, 867.534 57.491, 863.500 54 C 860.003 50.973, 858.026 50, 855.373 50 C 850.766 50, 848.373 51.376, 847.596 54.474 C 847.234 55.916, 846.244 57, 845.289 57 C 842.699 57, 830.902 49.590, 827 45.512 C 824.800 43.213, 819.268 39.839, 812.104 36.427 C 796.721 29.102, 791.425 29.303, 792.182 37.185 C 792.389 39.347, 791.891 41.109, 790.750 42.250 C 788.420 44.580, 788.533 48.533, 791 51 C 793.534 53.534, 796.613 53.533, 800.774 50.996 C 805.324 48.222, 808.144 48.497, 811.545 52.047 L 814.464 55.094 810.762 54.845 C 808.085 54.664, 806.410 55.205, 804.715 56.798 C 801.917 59.427, 799.289 59.591, 796.073 57.338 C 793.448 55.500, 786.377 53.918, 784.318 54.708 C 783.593 54.986, 783 56.516, 783 58.107 C 783 60.843, 782.769 61, 778.750 61.006 C 776.413 61.010, 773.242 61.669, 771.703 62.471 C 769.039 63.861, 768.661 63.755, 763.703 60.227 C 760.842 58.190, 753.847 52.869, 748.161 48.401 C 742.047 43.597, 732.546 37.489, 724.911 33.453 C 714.397 27.896, 712 26.224, 712 24.448 C 712 22.286, 711.948 22.280, 705.750 23.715 C 697.116 25.714, 690.573 24.743, 683.862 20.469 C 680.886 18.573, 675.941 16.539, 672.750 15.897 C 669.273 15.197, 667 14.223, 667 13.433 C 667 12.490, 665.994 12.289, 663.385 12.712 C 659.970 13.267, 659.811 13.172, 660.501 10.998 C 661.052 9.259, 660.897 8.840, 659.865 9.281 C 642.096 16.870, 635.780 17.839, 628 14.167 C 621.456 11.080, 612.320 11.230, 605.319 14.542 C 602.364 15.940, 599.459 16.784, 598.865 16.417 C 598.199 16.005, 598.030 14.212, 598.426 11.740 C 598.778 9.536, 598.567 6.217, 597.956 4.366 C 596.925 1.243, 596.544 1.005, 592.672 1.063 C 590.378 1.098, 587.465 1.542, 586.200 2.050 M 76.023 19.958 C 75.103 21.677, 74.903 24.828, 75.329 30.874 C 75.920 39.242, 75.900 39.344, 74.022 37.437 C 72.974 36.372, 71.288 33.250, 70.277 30.500 C 68.123 24.646, 66.609 24.085, 66.230 29 C 66.082 30.925, 65.705 33.625, 65.393 35 L 64.826 37.500 62.465 34.548 C 60.283 31.821, 59.966 31.716, 58.302 33.168 C 57.311 34.032, 55.150 35.173, 53.500 35.703 C 49.249 37.069, 50.231 38.484, 55.505 38.592 C 58.169 38.646, 60.737 39.357, 61.825 40.342 C 64.358 42.634, 67 42.460, 67 40 C 67 37.286, 68.384 37.481, 69.955 40.416 C 71.453 43.214, 73.347 43.896, 77.805 43.242 C 80.723 42.814, 81.001 42.457, 81.016 39.137 L 81.033 35.500 83.317 39.500 L 85.601 43.500 98.200 43.278 C 105.129 43.155, 112.756 42.511, 115.149 41.847 C 117.542 41.182, 123.886 40.544, 129.247 40.428 C 148.168 40.021, 149.026 37.588, 130.624 36.527 C 119.295 35.873, 117.804 35.993, 113.481 37.906 C 108.205 40.239, 95.434 40.838, 91.850 38.920 C 90.739 38.325, 89.112 36.188, 88.235 34.170 C 87.089 31.535, 86.528 30.994, 86.246 32.250 C 86.030 33.212, 85.519 34, 85.111 34 C 84.436 34, 80.610 26.194, 78.260 20.021 L 77.316 17.541 76.023 19.958 M 262.056 21.500 C 262.050 24.134, 262.547 27.010, 264.510 35.680 C 265.534 40.204, 267.518 41, 277.771 41 C 283.722 41, 287.037 40.645, 286.450 40.070 C 284.931 38.583, 276.893 35.842, 272 35.143 C 267.970 34.567, 267.375 34.135, 266.306 31 C 265.650 29.075, 265.087 26.349, 265.056 24.941 C 265.025 23.534, 264.339 21.509, 263.532 20.441 C 262.136 18.595, 262.063 18.647, 262.056 21.500 M 758.667 23.667 C 757.294 25.039, 758.069 30.069, 759.943 31.943 C 761.011 33.011, 763.731 34.438, 765.986 35.114 C 769.391 36.134, 770.326 36.101, 771.498 34.921 C 772.714 33.697, 772.682 33.031, 771.268 30.121 C 768.827 25.100, 761.160 21.173, 758.667 23.667 M 776.571 25.571 C 775.707 26.436, 775 28.215, 775 29.525 C 775 31.401, 775.997 32.348, 779.698 33.984 C 787.468 37.421, 788.927 34.717, 783.333 27.250 C 780.633 23.647, 778.921 23.222, 776.571 25.571 M 761.667 25.667 C 759.371 27.962, 762.917 33, 766.829 33 C 769.903 33, 769.641 29.649, 766.365 27.073 C 763.551 24.859, 762.722 24.611, 761.667 25.667 M 364.866 27.036 C 364.792 27.841, 364.841 32.043, 364.974 36.374 C 365.279 46.258, 364.420 46.992, 357.273 42.959 C 351.058 39.451, 346.954 39.244, 327.896 41.473 C 314.955 42.987, 312 43.641, 312 44.993 C 312 46.389, 317.225 46.555, 333.125 45.668 C 348.005 44.837, 348.983 44.899, 353.625 46.964 C 356.306 48.157, 360.575 49.383, 363.111 49.689 C 367.323 50.198, 368.059 49.947, 371.611 46.790 C 376.905 42.085, 378.700 41.557, 380.120 44.287 C 380.753 45.504, 381.396 46.648, 381.549 46.830 C 381.701 47.011, 382.949 46.424, 384.321 45.526 C 386.072 44.378, 387.020 44.224, 387.505 45.007 C 387.884 45.621, 389.343 46.560, 390.748 47.094 C 392.843 47.891, 393.737 47.656, 395.725 45.789 C 397.959 43.690, 398.223 43.647, 399.115 45.240 C 399.646 46.190, 402.651 47.728, 405.791 48.657 C 413.755 51.013, 476.312 51.043, 494.730 48.699 C 501.456 47.843, 507.477 46.823, 508.108 46.433 C 511.140 44.560, 504.894 44.148, 488.397 45.135 C 467.082 46.410, 444.697 45.859, 440.697 43.961 C 438.279 42.813, 437.503 42.862, 435.043 44.315 C 432.819 45.630, 429.685 46, 420.793 46 C 409.597 46, 409.318 45.944, 405.140 42.872 C 401.359 40.091, 400.378 39.813, 396.304 40.372 C 392.715 40.864, 391.462 40.647, 390.531 39.373 C 389.577 38.068, 388.926 37.969, 387.237 38.873 C 383.971 40.621, 383.273 40.267, 382.566 36.500 C 381.824 32.546, 381.289 32.251, 379.392 34.750 C 378.157 36.377, 378.061 36.347, 378.032 34.332 C 377.987 31.245, 376.943 28.917, 375.895 29.565 C 375.403 29.869, 375 31.239, 375 32.609 C 375 35.949, 372.083 41.483, 370.930 40.330 C 370.435 39.835, 369.565 36.978, 368.997 33.982 C 367.970 28.569, 365.158 23.841, 364.866 27.036 M 778.011 27.487 C 776.261 29.595, 777.341 31.575, 780.920 32.822 C 783.600 33.756, 784 33.667, 784 32.137 C 784 30.653, 780.651 26, 779.583 26 C 779.397 26, 778.689 26.669, 778.011 27.487 M 181.514 29.956 C 181.172 31.032, 181.192 33.507, 181.558 35.456 C 182.355 39.708, 180.357 40.455, 179.436 36.250 C 178.267 30.915, 177.551 30.551, 177.228 35.126 L 176.901 39.751 172.200 40.289 C 168.922 40.665, 167.022 40.399, 165.919 39.412 C 164.147 37.825, 163 38.472, 163 41.060 C 163 43.389, 161.009 44, 153.418 44 C 149.806 44, 147 44.437, 147 45 C 147 46.556, 162.528 46.273, 163.840 44.693 C 164.930 43.379, 165.835 43.424, 180.750 45.536 C 184.559 46.075, 186 45.952, 186 45.088 C 186 44.434, 187.623 43.220, 189.607 42.391 C 192.914 41.009, 193.376 41.031, 195.166 42.650 C 196.749 44.083, 197.436 44.187, 198.809 43.202 C 202.005 40.907, 203.078 40.761, 204.866 42.379 C 207.139 44.436, 209.410 44.433, 212.559 42.370 C 215.282 40.585, 225.939 39.933, 229.750 41.317 C 231.912 42.103, 232 41.916, 232 36.567 C 232 30.655, 231.515 29.941, 229.408 32.750 C 228.217 34.337, 228.033 34.198, 227.426 31.266 C 226.418 26.396, 224.662 28.519, 225.378 33.742 L 225.992 38.221 222.746 37.636 C 220.961 37.314, 217.700 37.520, 215.500 38.095 C 213.300 38.669, 210.552 39.373, 209.394 39.659 C 207.661 40.086, 206.985 39.421, 205.575 35.895 L 203.861 31.612 201.653 35.548 C 198.958 40.352, 196.457 41.097, 194.850 37.571 C 193.384 34.353, 192.623 34.338, 191.182 37.500 C 189.886 40.343, 189.122 40.541, 186.590 38.689 C 185.489 37.884, 184.593 35.569, 184.268 32.689 C 183.715 27.779, 182.567 26.639, 181.514 29.956 M 908.492 30.013 C 907.851 31.050, 912.573 41.618, 914.099 42.561 C 914.564 42.849, 915.474 44.851, 916.121 47.011 C 917.156 50.463, 917.871 51.129, 922.031 52.510 C 927.698 54.393, 929.902 56.603, 930.624 61.126 C 931.970 69.568, 926.955 72.533, 920.668 67.013 C 916.416 63.280, 907.343 60.845, 905.941 63.061 C 905.440 63.853, 905.024 65.267, 905.015 66.205 C 905.001 67.815, 905.976 68.157, 914 69.358 C 914.876 69.489, 915.408 70.460, 915.279 71.693 C 914.906 75.258, 917.017 76.101, 923.119 74.821 C 926.119 74.191, 929.795 73.983, 931.287 74.357 C 933.612 74.941, 934 75.555, 934 78.654 C 934 81.227, 934.721 82.939, 936.500 84.588 C 940.632 88.417, 939.558 92.069, 933.881 93.494 C 930.688 94.295, 906.232 86.757, 902.500 83.821 C 901.124 82.739, 898.789 79.749, 897.311 77.177 C 891.475 67.023, 886.610 63.150, 879.500 62.998 C 871.432 62.826, 866.945 61.352, 863.121 57.618 C 860.275 54.839, 858.594 54, 855.875 54 C 851.558 54, 850.758 54.679, 852.105 57.195 C 852.842 58.573, 852.797 59.540, 851.947 60.564 C 848.765 64.398, 838.373 60.088, 828.125 50.684 C 822.618 45.630, 819.606 43.699, 814.657 42.052 C 811.151 40.886, 806.179 38.597, 803.607 36.966 C 797.885 33.337, 794.994 33.096, 795.015 36.250 C 795.024 37.487, 795.456 39.172, 795.975 39.994 C 796.674 41.099, 796.214 42.059, 794.210 43.677 C 791.976 45.481, 791.694 46.184, 792.607 47.683 C 794.223 50.335, 796.859 50.481, 800.083 48.097 C 805.254 44.274, 812.930 46.282, 818.057 52.800 C 819.206 54.261, 821.330 56.233, 822.777 57.182 C 826.534 59.646, 823.954 60.347, 815.376 59.190 C 808.910 58.318, 808.332 58.404, 805.673 60.631 C 802.038 63.678, 798.249 63.635, 794 60.500 C 789.958 57.518, 787 57.241, 787 59.845 C 787 62.698, 783.964 64.792, 778.492 65.712 L 773.500 66.552 778.191 69.783 C 783.535 73.465, 798.702 81, 800.769 81 C 801.524 81, 802.818 80.325, 803.643 79.500 C 804.468 78.675, 806.744 78, 808.700 78 C 811.361 78, 813.234 77.118, 816.132 74.500 C 820.873 70.217, 824.521 69.978, 832.129 73.453 C 839.707 76.914, 847.346 78.720, 857.888 79.545 C 864.189 80.038, 867 80.648, 867 81.522 C 867 84.116, 859.799 84.872, 854.080 82.878 C 850.511 81.634, 839 83.438, 839 85.242 C 839 85.775, 840.013 87.486, 841.250 89.043 C 842.487 90.601, 844.309 93.028, 845.297 94.438 C 847.547 97.647, 849.588 97.643, 859 94.410 C 863.132 92.990, 869.939 91.585, 874.159 91.280 C 881.422 90.755, 881.951 90.861, 884.409 93.318 C 886.403 95.313, 886.995 96.898, 886.978 100.205 L 886.957 104.500 879.228 108.844 C 874.978 111.233, 869.480 113.488, 867.012 113.855 C 859.908 114.910, 860.251 119.947, 867.429 119.985 C 869.040 119.993, 871.850 120.540, 873.674 121.199 C 876.624 122.266, 877.294 122.154, 879.745 120.184 C 881.260 118.967, 886.280 115.390, 890.901 112.235 L 899.302 106.500 908.496 106.500 C 914.784 106.500, 918.210 106.070, 919.333 105.138 C 921.620 103.241, 924.313 104.440, 923.502 106.995 C 922.513 110.108, 924.987 109.437, 928.088 105.750 L 930.821 102.500 935.376 104.960 C 939.885 107.396, 939.978 107.403, 944.715 105.705 C 947.347 104.762, 950.651 103.992, 952.059 103.995 C 953.466 103.998, 955.421 103.412, 956.403 102.694 C 958.087 101.463, 958.095 101.162, 956.542 97.445 C 955.297 94.466, 955.057 91.986, 955.559 87.294 L 956.224 81.086 951.681 78.342 C 949.182 76.833, 946.598 74.451, 945.937 73.049 C 945.277 71.647, 944.510 66.101, 944.233 60.725 C 943.756 51.453, 943.582 50.826, 940.840 48.518 C 939.250 47.181, 935.403 45.283, 932.291 44.302 C 926.553 42.494, 922.857 39.556, 917.707 32.712 C 915.611 29.926, 914.192 29, 912.016 29 C 910.422 29, 908.836 29.456, 908.492 30.013 M 1 33.965 C 1 37.027, 15.298 48.945, 16.547 46.924 C 16.878 46.389, 16.854 44.612, 16.495 42.976 C 15.878 40.170, 16.020 40, 18.968 40 C 20.958 40, 22.897 40.854, 24.298 42.348 C 28.709 47.051, 33.420 48.324, 34.278 45.046 C 34.696 43.448, 35.401 43.189, 38.144 43.628 C 40.945 44.076, 41.973 43.668, 44.360 41.163 C 48.310 37.017, 47.348 34.995, 43.119 38.553 C 40.035 41.148, 39.581 41.250, 36.334 40.076 C 33.350 38.997, 32.686 39.043, 31.677 40.396 C 30.620 41.813, 29.989 41.728, 25.500 39.568 C 17.167 35.559, 15.195 35.357, 14.040 38.395 C 12.680 41.972, 11.063 41.672, 6.500 37 C 2.611 33.017, 1 32.128, 1 33.965 M 118.200 62.200 C 117.540 62.860, 117 64.435, 117 65.700 C 117 68.432, 116.351 68.521, 112.054 66.377 C 105.827 63.271, 83.303 66.703, 86.823 70.223 C 88.952 72.352, 88.131 74, 84.941 74 C 80.621 74, 82.191 75.767, 87.756 77.169 C 91.477 78.106, 92.008 78.487, 90.446 79.098 C 88.648 79.802, 88.671 79.865, 90.750 79.930 C 91.987 79.968, 93 80.420, 93 80.934 C 93 81.447, 94.237 82.055, 95.750 82.284 C 97.263 82.513, 95.875 82.768, 92.667 82.850 C 88.497 82.957, 86.951 83.356, 87.245 84.250 C 87.471 84.938, 88.634 85.644, 89.828 85.820 C 91.023 85.995, 92 86.558, 92 87.070 C 92 87.581, 94.362 88.053, 97.250 88.118 C 101.513 88.214, 101.936 88.363, 99.500 88.910 L 96.500 89.583 98.883 90.898 C 100.377 91.722, 102.708 91.982, 105.127 91.596 C 109.387 90.914, 115.373 87.706, 114.330 86.663 C 113.965 86.298, 114.362 86, 115.211 86 C 117.083 86, 119.178 88.337, 118.785 89.988 C 118.628 90.647, 119.264 91.689, 120.197 92.305 C 122.582 93.876, 127.603 92.001, 127.203 89.689 C 127.040 88.745, 127.602 87.706, 128.453 87.380 C 131.101 86.364, 130.153 85.003, 126.750 84.937 C 123.501 84.873, 123.501 84.873, 126 83.702 C 128.161 82.690, 127.144 82.454, 118.500 81.959 L 108.500 81.387 117.917 81.194 C 128.062 80.985, 129.006 80.375, 121.348 78.977 C 117.034 78.190, 117.244 78.151, 123.250 78.626 C 131.097 79.246, 137.810 78.233, 134.500 76.929 C 133.400 76.495, 131.315 76.109, 129.867 76.070 C 128.306 76.029, 126.982 75.287, 126.616 74.250 C 126.276 73.287, 125.714 71.870, 125.366 71.100 C 124.860 69.981, 125.560 69.812, 128.867 70.255 C 133.878 70.927, 134.663 68.775, 130 67.150 C 128.350 66.575, 127 65.663, 127 65.123 C 127 61.844, 120.661 59.739, 118.200 62.200 M 435.114 66.582 C 433.997 68.003, 432.823 69.983, 432.505 70.983 C 432.188 71.983, 430.707 73.101, 429.214 73.468 C 425.625 74.350, 421.804 76.873, 422.457 77.930 C 422.743 78.393, 425.967 78.532, 429.621 78.238 C 433.403 77.935, 436.073 78.092, 435.820 78.602 C 435.575 79.096, 434.503 81.408, 433.438 83.740 C 431.618 87.721, 431.249 87.980, 427.390 87.990 C 425.129 87.995, 421.098 88.299, 418.433 88.664 C 410.474 89.755, 415.955 90.837, 430.500 91.047 C 437.650 91.150, 446.425 91.563, 450 91.964 C 455.396 92.571, 454.089 92.721, 442.309 92.848 C 428.492 92.996, 423.094 94.249, 430.722 95.537 C 438.387 96.831, 438.640 97.004, 435.916 99.098 C 434.269 100.364, 431.803 100.963, 428.167 100.978 C 422.082 101.003, 421.218 103.265, 427.077 103.830 C 428.960 104.011, 430.860 104.799, 431.300 105.580 C 431.749 106.378, 433.611 107, 435.550 107 C 437.950 107, 439 107.456, 439 108.500 C 439 110.708, 445.273 110.461, 447.345 108.171 C 449.715 105.553, 449.411 104.413, 445.962 102.984 C 440.896 100.886, 443.034 99.522, 451.884 99.209 C 459.321 98.945, 460.078 99.089, 459.803 100.709 C 459.569 102.095, 460.292 102.584, 463 102.869 L 466.500 103.239 463 104.503 L 459.500 105.768 462.315 106.884 C 468.096 109.176, 483.324 107.819, 486.406 104.737 C 487.228 103.915, 490.397 102.931, 493.450 102.550 C 496.502 102.168, 499 101.492, 499 101.046 C 499 100.601, 495.063 99.880, 490.250 99.444 C 483.521 98.834, 482.193 98.487, 484.500 97.944 C 486.150 97.555, 490.061 97.183, 493.191 97.118 C 501.102 96.954, 501.554 95.168, 493.779 94.798 C 485.937 94.426, 485.935 92.523, 493.776 92.438 C 496.924 92.403, 500.625 92.259, 502 92.117 C 504.322 91.878, 504.357 91.798, 502.500 91 C 501.400 90.527, 498.250 90.089, 495.500 90.025 C 490.512 89.910, 490.507 89.907, 493.500 88.631 C 495.150 87.928, 496.381 86.935, 496.235 86.426 C 496.089 85.917, 498.002 85.363, 500.485 85.195 C 502.968 85.028, 505 84.521, 505 84.070 C 505 83.107, 500.038 82, 495.720 82 C 492.848 82, 492.776 81.905, 494.345 80.171 C 497.400 76.795, 496.351 75.568, 488.250 73.045 C 473.705 68.514, 458.445 69.230, 451.884 74.751 L 449 77.178 449 73.523 C 449 69.783, 447.560 66.074, 445.600 64.765 C 444.995 64.361, 442.845 64.024, 440.823 64.015 C 438.049 64.004, 436.646 64.635, 435.114 66.582 M 279.313 66.102 C 276.062 67.043, 272 71.205, 272 73.594 C 272 75.587, 266.973 79.847, 263.798 80.544 C 260.649 81.236, 260.300 82.174, 262.510 84.008 C 263.982 85.230, 268.503 84.989, 273.884 83.400 C 277.247 82.408, 276.289 84.352, 272 87.222 C 269.762 88.720, 268.390 90.505, 268.194 92.173 C 267.903 94.657, 267.562 94.799, 260.998 95.170 C 254.579 95.533, 251.974 96.307, 253.164 97.498 C 253.438 97.771, 256.438 98.285, 259.831 98.640 C 263.224 98.995, 266 99.635, 266 100.063 C 266 100.491, 267.431 101.155, 269.179 101.539 L 272.359 102.238 269.929 103.583 C 267.688 104.825, 268.004 104.933, 274 104.980 C 281.799 105.041, 284.950 106.412, 279.599 107.415 C 276.408 108.014, 274.411 110, 277 110 C 277.550 110, 278 110.463, 278 111.028 C 278 111.695, 275.716 111.822, 271.500 111.390 C 266.976 110.926, 265 111.064, 265 111.843 C 265 112.458, 266.168 113.255, 267.595 113.613 C 269.523 114.097, 269.845 114.487, 268.845 115.132 C 267.737 115.847, 267.764 116.174, 269 116.985 C 269.825 117.526, 271.512 117.976, 272.750 117.985 C 275.418 118.003, 275.616 118.829, 273.347 120.488 C 270.898 122.279, 272.609 124.003, 276.809 123.977 C 281.909 123.946, 294.278 120.666, 294.761 119.218 C 294.979 118.564, 293.975 117.490, 292.530 116.832 C 290.382 115.853, 290.181 115.478, 291.429 114.780 C 293.832 113.435, 302.700 115.012, 304.611 117.123 C 307.045 119.812, 315.140 119.696, 318.898 116.917 C 321.648 114.884, 322.083 114.864, 337.229 116.074 C 352.335 117.280, 358.136 116.938, 355.037 115.023 C 354.263 114.545, 350.901 113.781, 347.565 113.327 L 341.500 112.500 349.761 112 C 354.305 111.725, 358.044 111.050, 358.070 110.500 C 358.096 109.950, 355.729 108.981, 352.809 108.346 C 349.889 107.712, 347.275 107.121, 347 107.033 C 346.725 106.945, 347.550 106.452, 348.834 105.938 C 353.485 104.074, 350.565 102.518, 341.031 101.778 C 328.436 100.802, 328.039 99.618, 340.500 100.195 C 346 100.449, 351.288 100.477, 352.250 100.256 C 354.877 99.652, 354.357 98.130, 351.250 97.331 L 348.500 96.624 350.926 96.034 C 354.327 95.208, 354.805 93, 351.583 93 C 347.971 93, 348.358 91.869, 352.936 89.039 C 355.101 87.701, 357.440 85.546, 358.134 84.249 C 359.272 82.123, 359.113 81.665, 356.520 79.598 C 353.741 77.382, 352.784 77.285, 328.157 76.714 C 307.525 76.236, 301.892 76.395, 298.585 77.547 C 293.164 79.436, 293 79.405, 293 76.468 C 293 72.206, 290.290 67.061, 287.483 65.994 C 284.455 64.842, 283.631 64.853, 279.313 66.102 M 818.412 77.388 C 815.671 80.051, 813.829 81, 811.406 81 C 802.333 81, 811.361 85.104, 830 89.454 C 839.031 91.561, 839.527 91.485, 837.073 88.365 C 834.443 85.022, 834.459 83.492, 837.147 81.609 C 839.233 80.148, 839.125 80.030, 833.397 77.487 C 823.869 73.256, 822.675 73.248, 818.412 77.388 M 976.534 85.352 C 975.351 86.216, 974.915 87.336, 975.334 88.429 C 976.176 90.623, 979.365 90.058, 979.832 87.632 C 980.356 84.913, 978.699 83.768, 976.534 85.352 M 747.067 95.874 C 745.223 99.321, 745.780 100.139, 749.750 99.810 C 753.001 99.541, 753.500 99.167, 753.500 97 C 753.500 93.672, 748.696 92.832, 747.067 95.874 M 781.742 95.836 C 780.127 96.475, 780.112 96.714, 781.549 98.766 C 783.451 101.482, 785.589 101.636, 786.918 99.153 C 788.586 96.036, 785.781 94.238, 781.742 95.836 M 864.250 96.145 C 861.362 96.699, 859 97.545, 859 98.025 C 859 98.505, 860.521 100.058, 862.379 101.475 C 866.431 104.566, 877.879 106.176, 880.476 104.020 C 882.623 102.238, 882.376 98.272, 880.040 97.022 C 877.038 95.415, 870.072 95.028, 864.250 96.145 M 180.309 102.953 C 178.099 104.301, 176.583 106.406, 175.377 109.802 C 173.942 113.842, 172.702 115.302, 168.332 118.102 C 162.727 121.693, 161.269 123.669, 162.972 125.372 C 163.688 126.088, 166.578 125.573, 172.314 123.705 C 183.038 120.212, 184 120.233, 184 123.952 C 184 126.322, 183.119 127.510, 179.530 129.979 C 171.270 135.663, 168.041 142.472, 170.993 147.987 C 171.902 149.685, 171.413 149.898, 165.243 150.492 C 151.966 151.772, 153.714 153.706, 168.500 154.098 C 173.450 154.229, 175.813 154.513, 173.750 154.728 C 167.179 155.416, 169.709 156.799, 178.750 157.462 C 194.402 158.609, 195.847 159.782, 181.750 159.897 C 171.510 159.980, 169 160.277, 169 161.406 C 169 162.355, 170.707 163.019, 174.250 163.448 C 184.845 164.730, 186.997 165.196, 186.445 166.089 C 186.135 166.590, 184.446 167.007, 182.691 167.015 C 179.280 167.032, 176.140 168.473, 177.202 169.535 C 177.556 169.890, 181.241 170.656, 185.390 171.238 C 193.119 172.323, 194.799 173.988, 188.191 174.015 C 184.712 174.030, 180.996 175.406, 182.029 176.298 C 182.288 176.522, 183.400 177.208, 184.500 177.822 C 186.073 178.701, 184.206 178.946, 175.750 178.970 C 165.849 178.998, 163.141 179.733, 166.132 181.581 C 166.754 181.966, 169.757 182.780, 172.804 183.390 C 178.867 184.604, 180.207 185.981, 176.818 187.511 C 171.193 190.052, 175.287 193, 184.443 193 C 187.721 193, 190.190 192.475, 190.892 191.630 C 191.518 190.876, 193.885 190.011, 196.152 189.706 C 198.420 189.402, 200.937 188.492, 201.746 187.683 C 203.040 186.389, 202.707 186.126, 198.977 185.496 C 196.002 184.993, 195.150 184.519, 196.119 183.905 C 196.879 183.424, 198.457 183.024, 199.628 183.015 C 200.798 183.007, 202.322 182.317, 203.016 181.481 C 204.045 180.241, 203.964 179.617, 202.573 178.081 C 200.674 175.982, 201.065 175.543, 205.728 174.543 C 209.624 173.708, 213 174.626, 213 176.522 C 213 178.578, 218.751 179.308, 230.977 178.805 C 242.133 178.345, 247 176.733, 247 173.496 C 247 171.972, 248.652 171.438, 255.789 170.652 C 260.936 170.085, 263.519 168.331, 261.965 166.457 C 261.155 165.482, 261.625 165.022, 263.952 164.510 C 265.628 164.142, 267 163.443, 267 162.956 C 267 161.055, 262.983 160.143, 251.487 159.435 C 235.195 158.432, 231.799 157.197, 245 157.076 C 256.367 156.971, 279.131 155.202, 279.976 154.357 C 280.262 154.071, 279.624 153.198, 278.557 152.418 C 277.230 151.448, 273.835 151, 267.809 151 C 262.964 151, 259 150.735, 259 150.411 C 259 150.088, 261.025 147.508, 263.500 144.679 C 268.897 138.509, 269.194 136.421, 264.813 135.459 C 263.060 135.074, 260.922 133.949, 260.063 132.958 C 258.197 130.809, 246.215 126.438, 236.700 124.437 C 228.165 122.641, 216.264 122.616, 208.779 124.378 C 205.632 125.118, 202.820 125.486, 202.529 125.195 C 202.238 124.905, 201.966 121.929, 201.924 118.583 C 201.824 110.556, 200.068 105.996, 196.021 103.250 C 191.775 100.370, 184.763 100.237, 180.309 102.953 M 300 104.775 C 303.338 105.260, 303.384 105.321, 301 106.073 C 299.213 106.638, 300.069 106.811, 304 106.682 C 311.720 106.427, 310.892 104.525, 303 104.383 C 299.404 104.318, 298.063 104.493, 300 104.775 M 838 112.568 L 838 116.136 841 114 C 844.373 111.598, 844.730 110.494, 842.418 109.607 C 838.982 108.288, 838 108.946, 838 112.568 M 906.187 115.225 C 906.462 118.060, 907.072 118.661, 911.229 120.199 C 915.852 121.910, 915.981 121.904, 917.030 119.944 C 917.892 118.333, 917.651 117.368, 915.801 115.025 C 914.001 112.746, 912.669 112.099, 909.687 112.055 C 905.983 112.002, 905.882 112.093, 906.187 115.225 M 40.418 120.250 C 40.772 122.037, 41.207 127.100, 41.383 131.500 C 41.778 141.349, 44.254 149.408, 48.051 153.205 C 50.105 155.259, 51.221 157.712, 51.958 161.790 C 53.046 167.809, 57 195.693, 57 197.344 C 57 197.876, 55.538 195.446, 53.750 191.946 C 49.487 183.598, 48.015 183.163, 49.181 190.597 C 50.326 197.903, 49.584 198.663, 48.001 191.804 C 47.328 188.887, 45.760 184.025, 44.516 181 C 43.272 177.975, 41.752 172.824, 41.139 169.554 C 39.699 161.877, 36.096 154.608, 33.500 154.139 C 32.400 153.940, 30.306 152.365, 28.848 150.639 C 25.655 146.861, 23.958 147.719, 26.765 151.692 C 27.956 153.379, 28.744 156.107, 28.738 158.524 C 28.724 163.849, 33.439 173.787, 36.681 175.264 C 40.469 176.990, 43.985 185.009, 49.467 204.425 C 53.236 217.775, 55.423 219.683, 54.548 208.857 L 53.953 201.500 55.854 207.500 C 56.899 210.800, 58.147 216.200, 58.627 219.500 C 59.250 223.779, 59.930 225.500, 61 225.500 C 62.185 225.500, 62.648 223.419, 63.206 215.594 C 64.142 202.462, 65.552 201.401, 66.409 213.184 C 67.146 223.327, 68.474 228, 70.621 228 C 72.304 228, 72.307 228.406, 70.560 221.331 C 68.668 213.670, 66.818 192.099, 67.593 186.731 C 67.929 184.404, 69.042 179.575, 70.067 176 C 72.806 166.448, 74.865 156, 74.010 156 C 72.098 156, 65.595 176.197, 63.626 188.250 C 62.481 195.262, 61.271 201, 60.937 201 C 60.603 201, 59.786 195.394, 59.122 188.542 C 58.457 181.690, 57.255 171.696, 56.450 166.333 C 55.645 160.971, 55.262 154.504, 55.599 151.962 C 56.801 142.906, 52.237 128.340, 47.526 126.194 C 46.181 125.581, 44.154 123.262, 43.020 121.040 C 40.530 116.159, 39.547 115.861, 40.418 120.250 M 468.139 128.750 C 466.450 131.363, 462.825 135.419, 460.082 137.765 C 453.216 143.636, 447.581 154.956, 447.298 163.446 C 447.174 167.151, 445.902 172.949, 444.017 178.390 C 442.324 183.280, 440.165 191.266, 439.219 196.137 C 438.152 201.633, 437.026 204.995, 436.250 204.997 C 435.563 204.998, 435 206.098, 435 207.441 C 435 208.784, 434.610 210.123, 434.133 210.418 C 433.149 211.026, 431 201.368, 431 196.333 C 431 191.685, 429.499 192.173, 428.182 197.250 C 427.223 200.951, 427.149 200.340, 427.611 192.521 C 427.903 187.583, 428.391 182.296, 428.696 180.771 C 429.297 177.765, 427.427 176.787, 426.741 179.750 C 426.519 180.713, 426.357 177.450, 426.383 172.500 C 426.435 162.420, 424.860 154.734, 421.975 151 C 419.597 147.920, 419.451 149.618, 421.511 156.409 C 423.385 162.586, 423.389 168.687, 421.530 181.985 C 419.984 193.041, 417.781 223.114, 418.466 223.800 C 419.642 224.975, 421 222.397, 421 218.990 C 421 213.667, 423.286 203.709, 423.789 206.845 C 424.074 208.630, 424.642 209.065, 426.166 208.667 C 428.012 208.184, 428.124 208.508, 427.610 212.822 C 427.028 217.699, 426.649 226.177, 426.871 229.333 C 427.136 233.099, 429.520 230.161, 430.045 225.422 L 430.589 220.500 431.373 224.500 C 432.638 230.962, 432.906 231.494, 434.233 230.167 C 436.084 228.316, 437.026 228.776, 438.184 232.099 C 439.122 234.789, 439.628 235.124, 442.028 234.644 C 444.241 234.202, 444.899 234.507, 445.336 236.176 C 445.677 237.482, 446.422 238.052, 447.330 237.704 C 448.331 237.320, 448.961 238.054, 449.365 240.074 C 450.188 244.191, 451.481 243.714, 451.599 239.250 C 451.654 237.188, 452.062 234.417, 452.507 233.094 C 453.086 231.368, 452.988 230.890, 452.158 231.403 C 451.470 231.828, 451 231.485, 451 230.559 C 451 228.080, 449.279 228.752, 448.589 231.500 C 448.244 232.875, 447.488 234, 446.909 234 C 446.216 234, 446.091 232.119, 446.543 228.500 C 447.392 221.706, 445.722 221.076, 444.086 227.572 C 442.722 232.988, 441.042 232.974, 439.229 227.531 C 438.125 224.215, 438.289 221.856, 440.482 209.508 C 444.842 184.960, 449.526 169.619, 452.935 168.727 C 455.369 168.091, 461.090 160.301, 465.503 151.616 C 468.264 146.181, 469.001 143.549, 469.004 139.116 C 469.006 135.269, 469.636 132.469, 471.004 130.226 C 475.330 123.130, 472.660 121.754, 468.139 128.750 M 828.441 132.429 C 826.345 133.971, 826.190 133.816, 831.468 135.456 C 833.498 136.087, 834.428 134.221, 832.964 132.456 C 831.459 130.643, 830.872 130.639, 828.441 132.429 M 812.829 136 C 812.523 139.208, 812.775 140, 814.101 140 C 816.955 140, 818.456 137.295, 817.168 134.470 C 815.416 130.625, 813.269 131.382, 812.829 136 M 786.046 135.950 C 783.821 137.358, 786.601 142, 789.669 142 C 792.413 142, 792.596 140.840, 790.385 137.465 C 788.606 134.750, 788.179 134.601, 786.046 135.950 M 723.446 146.087 C 722.242 148.036, 724.717 149.276, 728.425 148.580 C 732.488 147.818, 733.071 146.520, 729.750 145.630 C 726.358 144.721, 724.193 144.878, 723.446 146.087 M 683.500 149.670 C 678.384 151.509, 677.893 152.048, 677.782 155.958 C 677.679 159.568, 679.187 160.962, 683.216 160.985 C 684.710 160.993, 687.539 161.766, 689.504 162.703 C 692.962 164.352, 693.302 164.329, 700.187 161.953 C 704.099 160.604, 707.786 158.721, 708.382 157.769 C 710.028 155.140, 707.014 152.734, 701.814 152.525 C 699.397 152.428, 695.961 151.396, 694 150.179 C 690.028 147.714, 689.072 147.668, 683.500 149.670 M 685 152.501 C 682.340 153.460, 681.500 154.331, 681.500 156.131 C 681.500 157.909, 682.124 158.577, 684 158.808 C 685.375 158.977, 688.064 159.834, 689.976 160.712 C 693.192 162.189, 693.829 162.176, 698.476 160.542 C 706.803 157.615, 708.183 155, 701.401 155 C 699.487 155, 696.156 154.100, 694 153 C 689.604 150.757, 689.804 150.769, 685 152.501 M 932.178 153.878 C 930.722 154.791, 929.084 160.772, 929.747 162.750 C 930.248 164.242, 933.623 164.419, 934.500 163 C 934.840 162.450, 936.363 162, 937.885 162 C 940.923 162, 944.626 158.693, 945.163 155.500 C 945.466 153.704, 944.887 153.477, 939.500 153.274 C 936.200 153.149, 932.905 153.421, 932.178 153.878 M 754.500 158.692 C 746.287 159.235, 744.830 159.794, 745.185 162.261 C 745.432 163.979, 746.416 164.608, 749.745 165.173 C 753.194 165.759, 755.049 165.409, 759.638 163.308 C 762.745 161.886, 767.238 160.502, 769.624 160.233 C 772.009 159.964, 773.717 159.352, 773.421 158.872 C 772.908 158.042, 765.391 157.970, 754.500 158.692 M 923.040 165.452 C 922.377 166.251, 921.990 167.708, 922.179 168.690 C 922.624 171.004, 932.886 172.783, 934.164 170.768 C 935.390 168.834, 934.596 167.537, 931.950 167.151 C 930.634 166.960, 928.656 166.172, 927.556 165.401 C 925.048 163.645, 924.535 163.651, 923.040 165.452 M 719.789 167.555 C 719.080 168.410, 717.277 170.436, 715.782 172.057 C 712.644 175.459, 713.016 177.625, 716.884 178.475 C 719.701 179.093, 726.959 176.711, 725.329 175.703 C 724.820 175.389, 723.751 175.545, 722.952 176.051 C 721.065 177.245, 717 177.265, 717 176.081 C 717 174.249, 720.539 168.982, 722.112 168.474 C 724.937 167.561, 732.795 171.589, 733.245 174.181 C 733.616 176.315, 733.715 176.349, 734.483 174.614 C 735.711 171.842, 734.086 170.022, 728.481 167.893 C 722.438 165.598, 721.444 165.559, 719.789 167.555 M 231 168 C 233.020 169.306, 242.307 169.306, 241.500 168 C 241.160 167.450, 238.321 167.007, 235.191 167.015 C 231.148 167.026, 229.934 167.311, 231 168 M 931.511 183.982 C 931.178 184.522, 931.689 187.172, 932.648 189.871 L 934.391 194.778 931.445 198.317 C 929.825 200.263, 928.024 201.888, 927.441 201.928 C 926.859 201.968, 925.509 202.649, 924.441 203.442 C 922.532 204.861, 922.537 204.922, 924.728 207.143 C 926.416 208.853, 927.994 209.366, 931.228 209.257 C 944.157 208.820, 945.435 209.002, 947.333 211.544 C 949.348 214.243, 952 214.823, 952 212.565 C 952 209.598, 949.957 205.929, 947.768 204.967 C 939.691 201.417, 937.471 198.347, 940.534 194.963 C 942.466 192.828, 941.865 190, 939.480 190 C 938.610 190, 937.240 188.425, 936.436 186.500 C 935.021 183.116, 932.761 181.960, 931.511 183.982 M 307.036 189.378 C 307.016 190.411, 308.303 193.561, 309.895 196.378 C 311.487 199.195, 314.382 205.775, 316.328 211 C 322.306 227.049, 328.922 240.139, 330.887 239.806 C 331.829 239.646, 334.548 241.058, 336.928 242.943 C 341.067 246.221, 341.316 246.289, 342.628 244.494 C 343.383 243.462, 344 240.904, 344 238.809 C 344 236.714, 344.395 235, 344.879 235 C 345.745 235, 346.136 235.872, 349.475 245.250 C 350.405 247.863, 351.578 250, 352.083 250 C 353.845 250, 352.974 245.765, 349.648 238.162 C 347.804 233.948, 345.511 228.118, 344.553 225.206 C 342.517 219.022, 338.625 211.764, 336.318 209.849 C 334.451 208.300, 334.466 208.421, 337.995 223.452 C 340.121 232.509, 340.329 238.960, 338.500 239.141 C 337.415 239.248, 333.134 229.056, 330.283 219.572 C 328.168 212.542, 325.350 210.451, 326.298 216.617 C 326.627 218.753, 327.205 221.625, 327.584 223 C 328.913 227.828, 326.322 223.588, 323.030 215.549 C 319.367 206.602, 312.858 194.572, 309.383 190.324 C 307.444 187.954, 307.066 187.802, 307.036 189.378 M 895 194.276 C 895 195.608, 898.928 198, 901.117 198 C 901.679 198, 901.995 196.988, 901.820 195.750 C 901.575 194.025, 900.741 193.427, 898.250 193.187 C 895.979 192.968, 895 193.296, 895 194.276 M 96.980 198.524 C 95.155 200.723, 96.195 201.191, 100.672 200.185 C 102.853 199.695, 109.042 199.658, 114.554 200.102 C 129.169 201.279, 142.596 201.162, 149.190 199.800 C 152.385 199.140, 155 198.352, 154.999 198.050 C 154.999 197.747, 142.229 197.388, 126.622 197.250 C 102.210 197.035, 98.068 197.213, 96.980 198.524 M 867 203.739 C 863.267 205.135, 863.026 209.316, 866.546 211.622 C 868.766 213.076, 869.598 213.123, 873.046 211.985 C 877.562 210.494, 877.945 209.214, 874.750 206.289 C 872.160 203.919, 869.159 202.931, 867 203.739 M 867.323 207.601 C 866.315 210.227, 870.071 211.873, 872.936 210.061 C 874.126 209.308, 874.147 208.883, 873.063 207.576 C 871.370 205.536, 868.110 205.550, 867.323 207.601 M 882.750 210.067 C 880.741 211.252, 880.432 215.032, 882.200 216.800 C 883.558 218.158, 892 218.458, 892 217.148 C 892 215.497, 887.412 209.511, 885.965 209.274 C 885.159 209.142, 883.712 209.499, 882.750 210.067 M 884.036 212.456 C 882.421 214.402, 883.559 216, 886.559 216 C 889.296 216, 889.439 215.689, 887.965 212.934 C 886.728 210.624, 885.665 210.494, 884.036 212.456 M 355 214.431 C 345.419 215.452, 344.710 215.667, 346.895 216.888 C 351.161 219.271, 379.079 216.555, 377.448 213.916 C 376.748 212.783, 368.757 212.966, 355 214.431 M 14.250 216.706 C 13.012 216.944, 12 217.558, 12 218.070 C 12 218.590, 17.127 219, 23.640 219 C 33.581 219, 35.915 219.317, 39.623 221.169 C 43.227 222.969, 44.393 223.142, 46.482 222.190 C 50.090 220.546, 49.638 219.696, 44.116 217.735 C 40.455 216.435, 36.385 216.034, 27.866 216.136 C 21.615 216.211, 15.488 216.467, 14.250 216.706 M 514.119 216.885 C 512.455 217.963, 516.326 218.625, 529.824 219.571 C 536.384 220.030, 539.307 220.636, 539.681 221.612 C 540.100 222.703, 543.160 223, 553.982 223 C 561.554 223, 569.149 222.720, 570.859 222.378 C 576.424 221.265, 573.076 220, 564.567 220 C 559.993 220, 554.507 219.391, 552.376 218.648 C 547.740 217.030, 516.141 215.574, 514.119 216.885 M 858.272 218.220 C 854.198 220.169, 854.255 225.559, 858.360 226.516 C 861.262 227.193, 869.500 224.591, 869.500 222.998 C 869.500 221.512, 865.413 218.395, 862.500 217.660 C 861.400 217.382, 859.497 217.634, 858.272 218.220 M 859.500 220.643 C 858.037 222.106, 858.022 222.450, 859.363 223.791 C 860.651 225.080, 861.331 225.106, 864.073 223.970 L 867.277 222.643 865.028 220.821 C 862.263 218.582, 861.582 218.560, 859.500 220.643"/>
</svg>