<?xml version="1.0" encoding="utf-8"?>
<svg xmlns="http://www.w3.org/2000/svg" width="834" height="1002" viewBox="0 0 834 1002">
  <path fill-rule="evenodd" d="M 317.500 2.687 C 296.630 7.610, 291.519 9.897, 281.198 18.931 C 269.880 28.837, 262.907 38.737, 252.976 59 C 249.973 65.125, 247.483 72.632, 243.520 87.500 C 242.054 93, 240.400 98.696, 239.844 100.158 C 239.288 101.621, 239.115 105.221, 239.460 108.158 C 239.805 111.096, 240.531 122.275, 241.074 133 C 242.331 157.804, 243.723 168.569, 248.316 189 C 249.921 196.136, 251.561 206.280, 255.997 236.500 C 257.612 247.500, 259.607 259.650, 260.430 263.500 C 264.135 280.829, 261.049 301.771, 253.777 308.660 C 241.225 320.549, 226.116 322.557, 180 318.463 C 165.894 317.210, 151.186 320.424, 130.169 329.352 C 121.270 333.132, 117.567 335.594, 104.682 346.296 C 89.006 359.315, 83.248 365.714, 59 397.064 C 56.525 400.264, 51.162 409.546, 47.083 417.691 C 43.003 425.836, 37.550 436.100, 34.966 440.500 C 32.381 444.900, 29.946 449.843, 29.555 451.484 C 29.164 453.126, 27.778 456.799, 26.475 459.648 C 25.172 462.497, 23.343 467.454, 22.411 470.664 C 21.478 473.874, 20.095 477.447, 19.338 478.605 C 18.580 479.762, 16.651 486.512, 15.051 493.605 C 13.451 500.697, 11.480 509.200, 10.673 512.500 C 7.135 526.958, 2.292 551.300, 1.419 559.011 L 0.759 564.851 6.061 566.425 C 13.789 568.720, 16.143 568.440, 20.318 564.725 C 22.343 562.923, 24 561.128, 24 560.736 C 24 559.587, 32.859 548.266, 38.669 541.991 C 41.613 538.811, 47.055 533.738, 50.761 530.718 C 59.146 523.886, 89.011 506.687, 97.318 503.906 C 100.718 502.768, 106.200 500.811, 109.500 499.558 C 119.006 495.948, 135.198 490.865, 135.674 491.340 C 135.912 491.579, 135.404 499.137, 134.545 508.137 C 133.082 523.451, 133.091 524.580, 134.682 525.750 C 135.617 526.438, 137.245 527, 138.300 527 C 139.783 527, 140.093 527.509, 139.670 529.250 C 139.369 530.487, 138.632 538.025, 138.033 546 C 137.433 553.975, 136.520 564.100, 136.004 568.500 C 135.487 572.900, 134.371 584.150, 133.524 593.500 C 132.676 602.850, 131.486 613.200, 130.880 616.500 C 130.273 619.800, 129.416 628.892, 128.976 636.705 C 128.535 644.517, 127.947 651.277, 127.669 651.726 C 127.391 652.176, 126.910 658.608, 126.599 666.022 C 126.038 679.393, 124.422 699.198, 123.499 704 C 123.235 705.375, 122.573 711, 122.029 716.500 C 121.484 722, 120.590 729.785, 120.041 733.801 C 119.090 740.755, 118.668 744.688, 117.475 757.750 C 117.186 760.913, 116.523 765.975, 116.002 769 C 114.935 775.199, 113.045 803.868, 110.104 858.500 C 109.511 869.500, 108.571 881.252, 108.013 884.615 C 107.456 887.979, 107 897.271, 107 905.266 C 107 915.235, 106.372 923.476, 105 931.500 C 103.900 937.934, 102.994 944.617, 102.986 946.349 C 102.963 951.643, 101.962 954.214, 100.422 952.935 C 98.931 951.698, 97 952.479, 97 954.318 C 97 954.979, 96.135 956.059, 95.077 956.720 C 92.795 958.145, 91.424 966.634, 92.474 972.845 C 93.047 976.235, 93.609 976.975, 96.019 977.504 C 97.594 977.850, 99.782 977.652, 100.881 977.064 C 102.204 976.356, 103.088 976.333, 103.498 976.997 C 103.839 977.549, 104.980 978, 106.033 978 C 107.988 978, 109.990 974.955, 112.517 968.136 C 120.438 946.764, 121.538 942, 118.548 942 C 117.107 942, 111.369 950.875, 109.144 956.545 C 108.130 959.130, 108.055 958.749, 108.547 953.500 C 109.324 945.228, 110.867 933.484, 111.964 927.500 C 112.468 924.750, 112.908 914.937, 112.940 905.693 C 112.973 896.449, 113.442 886.999, 113.982 884.693 C 114.522 882.387, 115.460 870.375, 116.066 858 C 116.673 845.625, 117.569 828.525, 118.057 820 C 118.546 811.475, 119.375 796.175, 119.899 786 C 120.783 768.868, 122.520 750.602, 124.893 733.500 C 127.336 715.886, 128.082 709.354, 129.516 693 C 130.361 683.375, 131.745 668.975, 132.592 661 C 133.440 653.025, 134.526 641.550, 135.006 635.500 C 136.693 614.233, 138.004 600.436, 138.950 594 C 139.475 590.425, 140.181 583.900, 140.518 579.500 C 140.855 575.100, 141.517 568.800, 141.990 565.500 C 142.463 562.200, 143.108 555.675, 143.423 551 C 144.972 528.039, 144.897 528.409, 148.355 526.885 L 151.500 525.500 152.752 510 C 154.509 488.253, 155.033 485.567, 157.595 485.201 C 159.576 484.918, 159.726 485.483, 160.345 495.606 C 160.705 501.494, 161 509.786, 161 514.033 C 161 522.073, 162.189 524.738, 165 523 C 167.205 521.637, 169 523.800, 169 527.821 C 169 529.787, 169.435 535.020, 169.968 539.448 C 170.500 543.877, 171.450 552.900, 172.078 559.500 C 172.707 566.100, 173.580 574.200, 174.018 577.500 C 174.456 580.800, 175.765 591.150, 176.926 600.500 C 178.087 609.850, 179.263 618.223, 179.540 619.107 C 180.388 621.811, 185 651.946, 186.029 661.500 C 186.562 666.450, 187.650 674.100, 188.446 678.500 C 190.659 690.724, 191.790 697.962, 192.430 704 C 193.575 714.808, 194.068 718.569, 194.988 723.500 C 195.807 727.887, 198.617 753.080, 201.959 786 C 203.122 797.453, 206.162 819.700, 207.972 830 C 208.600 833.575, 209.968 841.225, 211.011 847 C 212.054 852.775, 213.189 860.843, 213.532 864.929 C 213.875 869.015, 214.800 875.990, 215.586 880.429 C 216.861 887.625, 217.683 893.594, 220.968 919.500 C 221.456 923.350, 222.588 931.853, 223.483 938.395 C 224.623 946.736, 224.794 950.606, 224.055 951.345 C 223.475 951.925, 222.993 955.347, 222.985 958.950 C 222.974 963.548, 222.680 965.053, 222 964 C 221.467 963.175, 221.024 961.472, 221.015 960.217 C 221.007 958.955, 219.433 956.367, 217.500 954.433 C 215.575 952.508, 214 950.034, 214 948.935 C 214 946.638, 211.151 945.138, 210.079 946.871 C 209.363 948.031, 211.019 962.082, 212.976 971.431 C 214.140 976.997, 216.307 980.817, 218.808 981.714 C 219.739 982.047, 221.326 983.171, 222.336 984.211 C 224.803 986.750, 227 984.944, 227 980.378 C 227 978.042, 227.463 977, 228.500 977 C 229.543 977, 230 978.049, 230 980.441 C 230 985.500, 232.642 986.135, 234.408 981.500 C 235.842 977.736, 238.840 960.747, 238.313 959.373 C 237.475 957.189, 236.371 957.755, 234.648 961.250 C 233.767 963.038, 233.035 964.011, 233.023 963.413 C 233.010 962.815, 232.315 957.865, 231.478 952.413 C 229.827 941.663, 229.301 937.901, 225.547 910 C 224.178 899.825, 222.333 887.675, 221.446 883 C 220.560 878.325, 219.387 870.900, 218.841 866.500 C 218.295 862.100, 217.181 854.900, 216.366 850.500 C 214.167 838.626, 213.280 832.634, 211.996 821 C 211.358 815.225, 210.444 808.475, 209.964 806 C 208.943 800.736, 206.289 776.027, 205.506 764.500 C 205.207 760.100, 204.549 753.350, 204.044 749.500 C 201.924 733.336, 199.872 716.985, 199.025 709.500 C 196.314 685.542, 195.803 681.490, 195.412 680.858 C 194.588 679.524, 192.037 663.461, 192.020 659.500 C 192.005 655.695, 190.728 647.275, 187.471 629.500 C 185.732 620.011, 182.862 600.336, 182.803 597.500 C 182.733 594.093, 180.017 572.796, 178.915 567 C 178.339 563.975, 177.489 554.975, 177.025 547 C 176.561 539.025, 175.855 529.921, 175.455 526.770 C 174.801 521.603, 174.945 520.865, 176.923 519.263 C 178.910 517.654, 179.023 517.062, 178.119 512.993 C 177.569 510.522, 177.028 501.622, 176.916 493.217 L 176.712 477.933 191.106 470.838 C 209.957 461.546, 215.817 456.823, 231.234 438.500 C 237.077 431.555, 240.469 426.893, 250.516 412 C 255.896 404.025, 262.031 395.597, 264.149 393.272 C 266.268 390.946, 269.501 385.996, 271.336 382.272 C 273.170 378.547, 276.930 371.822, 279.692 367.328 C 283.966 360.373, 289.457 348.452, 293.892 336.500 C 295.296 332.716, 298.771 317.390, 300.014 309.500 C 302.368 294.563, 299.709 258.090, 294.590 235.102 C 293.782 231.471, 292.438 224.900, 291.604 220.500 C 289.745 210.690, 287.689 201.427, 285.612 193.500 C 283.545 185.611, 279.133 157.733, 277.462 142 C 275.493 123.468, 275.675 110.860, 278.032 102.500 C 279.117 98.650, 280.507 93.292, 281.119 90.593 C 281.732 87.895, 282.906 84.070, 283.729 82.093 C 286.312 75.891, 298.363 58.770, 301.500 56.847 C 307.033 53.455, 309.469 54.284, 316.741 62.035 C 325.710 71.596, 338.459 77.700, 354.158 79.950 C 358.838 80.620, 360.879 81.621, 365.971 85.740 C 369.356 88.479, 373.141 92.246, 374.383 94.110 C 378.361 100.082, 381.231 109.572, 381.894 118.936 C 382.663 129.824, 384.127 132, 390.680 132 C 395.880 132, 396.078 131.639, 399.212 116.500 C 401.645 104.750, 402.207 82.920, 400.245 76.417 C 399.567 74.172, 395.245 66.692, 390.639 59.795 L 382.264 47.255 381.819 38.769 C 381.246 27.861, 378.035 20.998, 369.518 12.481 C 363.285 6.248, 361.148 5.230, 352.500 4.375 C 350.300 4.158, 346.181 3.309, 343.346 2.490 C 337.092 0.682, 325.628 0.769, 317.500 2.687 M 335.455 26.455 C 330.753 31.156, 332.975 39.062, 339.500 40.850 C 344.191 42.135, 348.407 40.517, 350.502 36.626 C 352.099 33.661, 352.167 32.817, 351.030 30.072 C 349.301 25.899, 346.393 24, 341.732 24 C 339.006 24, 337.205 24.705, 335.455 26.455 M 663.500 334.087 C 630.586 336.633, 619.362 341.217, 606.176 357.500 C 587.359 380.737, 585.057 384.686, 575.414 410.285 C 573.768 414.656, 571.500 426.754, 569.375 442.500 C 561 504.564, 560.214 508.809, 554.188 524.500 C 550.627 533.774, 541.062 543.691, 531.458 548.068 C 522.251 552.263, 515.270 551.828, 507.075 546.548 C 496.514 539.744, 489.925 527.534, 488.433 512 C 488.037 507.875, 487.080 502.700, 486.307 500.500 C 485.535 498.300, 484.485 490.689, 483.975 483.587 C 483.465 476.485, 482.597 469.285, 482.047 467.587 C 480.796 463.731, 479.194 450.437, 477.939 433.500 C 475.562 401.429, 472.197 387.290, 462.234 367.506 C 454.749 352.643, 437.564 339.446, 422.517 337.006 C 408.783 334.779, 389.224 341.471, 379.035 351.883 C 372.879 358.174, 370.624 363.023, 369.446 372.500 C 368.938 376.582, 368.039 378.326, 364.552 382 C 355.499 391.538, 351.803 399.063, 348.344 415 C 345.743 426.986, 345.726 455.513, 348.314 465.500 C 350.656 474.535, 351.682 476.534, 354.685 477.902 C 357.330 479.107, 358.263 478.815, 361.725 475.701 C 363.753 473.875, 363.897 473.074, 363.356 466.600 C 362.218 452.973, 366.269 438.579, 375.658 422.890 C 382.154 412.037, 386.679 406.900, 393 403.205 C 395.475 401.759, 397.950 400.053, 398.500 399.414 C 399.050 398.776, 402.406 397.705, 405.958 397.035 C 409.510 396.366, 416.171 393.991, 420.759 391.760 C 425.981 389.220, 429.454 388.054, 430.044 388.644 C 431.579 390.179, 435.883 401.837, 438.481 411.500 C 439.813 416.450, 441.574 426.800, 442.394 434.500 C 443.795 447.635, 444.267 456.905, 445.555 496.500 C 445.873 506.262, 446.637 514.255, 447.516 517 C 448.308 519.475, 449.675 525.325, 450.552 530 C 454.821 552.734, 468.846 573.894, 487.140 585.204 C 491.143 587.679, 504.895 592.254, 506.489 591.642 C 507.238 591.355, 509.456 591.563, 511.419 592.105 C 516.857 593.607, 537.545 589.653, 546 585.497 C 563.893 576.701, 572.987 569.412, 583.455 555.474 C 594.645 540.577, 602.612 523.935, 615.760 488 C 616.892 484.906, 618.472 482.360, 619.373 482.179 C 621.312 481.791, 624.599 485.306, 630.558 494.141 L 635.037 500.781 634.051 508.641 C 633.508 512.963, 632.556 520.308, 631.935 524.962 C 630.848 533.099, 630.887 533.490, 632.950 535.160 L 635.095 536.897 633.525 550.443 C 632.661 557.894, 631.574 565.004, 631.110 566.245 C 630.645 567.485, 629.950 571.650, 629.566 575.500 C 628.542 585.772, 624.147 615.940, 623.083 620 C 622.578 621.925, 621.638 628.864, 620.994 635.419 C 620.349 641.975, 619.455 648.304, 619.006 649.484 C 618.557 650.664, 617.899 654.301, 617.543 657.565 C 617.187 660.829, 616.271 667.325, 615.507 672 C 614.743 676.675, 613.680 685.225, 613.144 691 C 612.279 700.338, 611.134 710.657, 606.989 746.500 C 606.353 752, 605.225 762.575, 604.482 770 C 603.233 782.481, 601.438 798.026, 600.554 804 C 599.186 813.254, 596.911 831.057, 596.018 839.500 C 595.436 845, 594.511 852.200, 593.963 855.500 C 591.262 871.745, 589.062 887.173, 588.570 893.309 C 588.270 897.054, 587.409 900.734, 586.656 901.487 C 585.145 902.998, 583.334 931.101, 584.544 934.255 C 585.453 936.622, 587.328 936.450, 591.869 933.583 C 595.363 931.377, 596.163 929.952, 600.993 917.333 C 603.904 909.725, 606.768 902.269, 607.357 900.764 C 608.128 898.795, 608.118 897.718, 607.321 896.921 C 605.847 895.447, 602.360 897.290, 601.500 899.999 C 601.151 901.100, 600.022 902, 598.992 902 C 597.961 902, 596.840 902.450, 596.500 903 C 595.390 904.796, 593.871 904.115, 594.828 902.250 C 595.321 901.288, 596.014 896.900, 596.368 892.500 C 597.298 880.905, 599.559 860.852, 602.005 842.500 C 605.769 814.264, 606.935 804.806, 608.477 790 C 609.308 782.025, 610.701 770.100, 611.572 763.500 C 612.444 756.900, 613.539 746.325, 614.005 740 C 614.472 733.675, 615.078 727.530, 615.351 726.345 C 615.785 724.466, 616.628 716.210, 618.552 695 C 618.827 691.975, 619.966 683.875, 621.085 677 C 622.203 670.125, 623.495 661.575, 623.956 658 C 624.418 654.425, 625.251 649.475, 625.808 647 C 626.364 644.525, 627.116 639.125, 627.479 635 C 627.841 630.875, 628.816 623.900, 629.646 619.500 C 631.285 610.806, 634.632 587.274, 636.046 574.500 C 636.534 570.100, 637.394 563.800, 637.958 560.500 C 638.522 557.200, 639.469 550.675, 640.063 546 C 641.220 536.887, 641.441 536.382, 644.500 535.840 C 646.045 535.566, 646.804 534.121, 647.837 529.492 C 650.003 519.788, 653.184 509.599, 654.489 508.184 C 655.174 507.442, 658.972 506.621, 663.193 506.302 L 670.683 505.735 671.336 514.118 C 671.694 518.728, 671.991 524.762, 671.994 527.527 C 672.001 533.096, 674.054 537, 676.977 537 C 679.114 537, 679.267 538.138, 681.019 567 C 681.603 576.625, 682.503 588.775, 683.019 594 C 683.536 599.225, 684.445 609.125, 685.040 616 C 685.635 622.875, 686.743 632.550, 687.503 637.500 C 688.263 642.450, 689.164 651.675, 689.506 658 C 689.847 664.325, 690.780 676.250, 691.579 684.500 C 692.378 692.750, 693.479 705.575, 694.025 713 C 694.571 720.425, 695.434 729.875, 695.944 734 C 696.453 738.125, 697.334 748.925, 697.900 758 C 698.467 767.075, 699.167 776.525, 699.455 779 C 699.744 781.475, 700.221 788.450, 700.515 794.500 C 700.810 800.550, 701.696 812.700, 702.485 821.500 C 703.273 830.300, 704.399 843.800, 704.988 851.500 C 705.577 859.200, 706.511 869.550, 707.065 874.500 C 708.873 890.665, 712.069 922.163, 713.560 938.500 C 714.363 947.300, 715.445 957.875, 715.966 962 C 717.242 972.116, 717.216 973, 715.635 973 C 714.884 973, 713.126 972.100, 711.727 971 C 710.329 969.900, 708.101 969, 706.777 969 C 705.011 969, 703.926 968.068, 702.701 965.500 C 701.447 962.870, 700.407 962, 698.516 962 C 694.850 962, 695.192 964.493, 701.141 981.126 C 707.498 998.896, 709.076 1001.051, 713.079 997.429 C 714.668 995.991, 715.159 996.075, 718.887 998.429 C 723.668 1001.447, 723.824 1001.469, 726.055 999.450 C 727.390 998.242, 727.594 997.135, 726.982 994.422 C 726.551 992.509, 725.702 990.346, 725.095 989.615 C 723.954 988.239, 723.024 980.176, 720.468 949.500 C 719.643 939.600, 718.034 922.725, 716.891 912 C 715.748 901.275, 714.439 888.225, 713.982 883 C 713.526 877.775, 712.662 868.775, 712.063 863 C 711.464 857.225, 710.534 846.650, 709.996 839.500 C 709.459 832.350, 708.562 821.325, 708.004 815 C 707.446 808.675, 706.310 791.575, 705.480 777 C 704.650 762.425, 703.535 746.900, 703.002 742.500 C 702.469 738.100, 701.598 728.875, 701.065 722 C 700.533 715.125, 699.422 702.975, 698.596 695 C 697.770 687.025, 696.900 675.775, 696.662 670 C 696.424 664.225, 695.508 652.750, 694.626 644.500 C 693.745 636.250, 692.538 624.325, 691.945 618 C 691.351 611.675, 690.461 603.125, 689.966 599 C 689.471 594.875, 688.812 587, 688.501 581.500 C 688.190 576, 687.500 566.550, 686.967 560.500 C 686.435 554.450, 685.868 546.501, 685.708 542.836 L 685.416 536.172 688.818 534.550 C 691.788 533.134, 692.138 532.583, 691.576 530.214 C 691.221 528.721, 690.509 521.484, 689.992 514.131 C 688.968 499.550, 688.720 500.569, 695.096 493.172 C 699.218 488.390, 700.660 488.160, 708.740 491 C 717.839 494.198, 723.171 493.706, 733.137 488.750 C 737.838 486.412, 743.442 483.763, 745.592 482.863 C 755.339 478.780, 761.736 475.718, 765.998 473.096 C 768.534 471.536, 771.573 469.953, 772.751 469.579 C 775.988 468.552, 785.948 476.298, 792.057 484.594 C 794.854 488.392, 800.473 494.762, 804.543 498.750 L 811.944 506 819.022 506 C 828.259 506, 831.513 504.363, 832.351 499.296 C 833.605 491.708, 833.444 490.906, 824.989 462.500 C 817.468 437.229, 809.130 421.165, 793.175 401.202 C 788.030 394.766, 781.571 386.693, 778.821 383.262 C 772.278 375.099, 746.818 355.985, 731.193 347.507 C 721.781 342.400, 717.083 340.556, 707.108 338.056 C 700.293 336.348, 694.528 335.139, 694.298 335.369 C 694.068 335.599, 691.544 335.165, 688.690 334.405 C 683.128 332.925, 679.173 332.875, 663.500 334.087 M 406.115 363.581 C 401.375 369.606, 405.735 376.023, 413.569 374.553 C 416.392 374.024, 417.092 373.331, 417.960 370.212 C 419.347 365.230, 416.877 361.635, 411.765 361.196 C 408.917 360.952, 407.818 361.416, 406.115 363.581 M 567.326 877.592 C 566.781 879.014, 568.296 893.914, 570.571 909.500 C 570.812 911.150, 571.634 917.225, 572.398 923 C 574.072 935.662, 574.559 937, 577.500 937 C 581.334 937, 581.573 934.113, 578.990 919 C 578.472 915.975, 577.122 907.875, 575.988 901 C 572.483 879.741, 571.682 876.555, 569.747 876.186 C 568.776 876.001, 567.696 876.628, 567.326 877.592 M 613.908 907.250 C 608.696 916.914, 604.039 927.309, 604.018 929.323 C 604.006 930.521, 604.600 931.036, 605.750 930.823 C 608.324 930.348, 616.117 914.692, 619.475 903.250 C 620.870 898.494, 617.213 901.122, 613.908 907.250 M 636.601 914.250 C 635.806 915.487, 633.018 922.932, 630.406 930.793 C 626.098 943.759, 625.802 945.231, 627.221 946.650 C 628.641 948.069, 628.968 948.032, 630.745 946.255 C 634.222 942.778, 642.578 917.396, 641.433 913.789 C 640.651 911.326, 638.337 911.547, 636.601 914.250 M 555.390 917.582 C 554.454 921.313, 561.490 931.500, 565.003 931.500 C 568.971 931.500, 568.528 928.598, 563.481 921.525 C 558.472 914.506, 556.414 913.503, 555.390 917.582 M 623.250 929.718 C 621.702 930.274, 621.594 935.631, 623.112 936.569 C 624.489 937.420, 625.964 935.232, 625.985 932.309 C 626.002 929.872, 625.128 929.045, 623.250 929.718 M 68.667 934.667 C 65.983 937.350, 71.881 964.115, 76.159 968.669 C 77.725 970.337, 78.011 971.282, 77.232 972.221 C 75.665 974.109, 78.434 980.256, 80.658 979.826 C 82.494 979.472, 85.490 968.925, 84.016 968.005 C 83.572 967.727, 81.537 961.650, 79.495 954.500 C 74.762 937.935, 73.134 934, 71.015 934 C 70.090 934, 69.033 934.300, 68.667 934.667 M 184.264 938.500 C 185.019 946.263, 188.665 964.026, 191.063 971.629 C 194.121 981.320, 195.356 983, 199.416 983 C 203.728 983, 204.224 981.629, 203.009 973.066 C 201.853 964.912, 200.655 961.465, 198.719 960.722 C 197.930 960.420, 196.990 958.700, 196.630 956.902 C 196.271 955.103, 195.345 952.927, 194.574 952.066 C 193.803 951.205, 191.977 947.504, 190.517 943.842 C 189.056 940.180, 186.942 936.355, 185.820 935.342 C 183.787 933.508, 183.780 933.521, 184.264 938.500 M 644.932 937.950 C 642.758 940.236, 640.625 941.886, 640.192 941.619 C 639.095 940.941, 637.752 942.032, 635.685 945.278 C 633.941 948.018, 634.136 950, 636.149 950 C 636.716 950, 637.930 950.928, 638.848 952.061 C 641.246 955.023, 643.236 953.811, 648.009 946.486 C 650.867 942.099, 652.046 939.289, 651.823 937.395 C 651.330 933.214, 649.281 933.379, 644.932 937.950 M 256.024 940.781 C 253.906 945.322, 248.947 961.113, 247.555 967.750 C 246.516 972.703, 246.503 974, 247.490 974 C 248.695 974, 259 944.257, 259 940.777 C 259 937.934, 257.351 937.937, 256.024 940.781 M 247.271 949.159 C 243.623 953.596, 237.256 978.399, 239.173 980.708 C 241.522 983.539, 242.155 982.513, 245.160 971 C 247.798 960.890, 249.155 953.100, 248.796 950.125 C 248.543 948.024, 248.321 947.883, 247.271 949.159 M 123.589 963.504 C 120.755 967.830, 120.476 971.649, 122.900 972.947 C 124.675 973.897, 125.406 973.685, 127.466 971.625 C 130.134 968.957, 131.552 964.881, 130.639 962.502 C 129.714 960.090, 125.427 960.699, 123.589 963.504 M 774.218 967.560 C 772.993 968.418, 769.438 973.031, 766.319 977.810 C 761.917 984.553, 760.630 987.396, 760.573 990.500 C 760.513 993.768, 760.866 994.552, 762.500 994.787 C 764.105 995.017, 765.654 993, 770.340 984.577 C 773.578 978.757, 776.421 972.280, 776.721 970.040 C 777.334 965.472, 777.278 965.416, 774.218 967.560 M 735.889 973.750 C 733.144 980.865, 732.585 995.495, 735 997.021 C 737.263 998.452, 737.911 998.216, 738.494 995.750 C 739.551 991.283, 740.847 975.133, 740.313 973.090 C 739.541 970.138, 737.145 970.496, 735.889 973.750 M 254.571 977.571 C 252.259 979.884, 252.511 984, 254.965 984 C 257.135 984, 259 981.258, 259 978.066 C 259 975.616, 256.775 975.367, 254.571 977.571 M 744.525 989.378 C 741.322 993.578, 739.866 1001, 742.246 1001 C 744.331 1001, 745.477 999.351, 747.614 993.276 C 748.960 989.447, 749.155 987.755, 748.341 986.941 C 747.527 986.127, 746.508 986.778, 744.525 989.378"/>
</svg>