<?xml version="1.0" encoding="utf-8"?>
<svg xmlns="http://www.w3.org/2000/svg" width="1002" height="747" viewBox="0 0 1002 747">
  <path fill-rule="evenodd" d="M 775.896 1.937 C 774.464 2.384, 766.139 7.170, 757.396 12.572 C 748.653 17.975, 732.950 27.286, 722.500 33.263 C 691.393 51.054, 616.346 87.451, 603.861 90.801 C 601.558 91.419, 598.063 93.928, 594.335 97.639 C 585.984 105.953, 574.448 111.736, 573.246 108.209 C 572.563 106.206, 578.619 101.151, 590.868 93.500 C 610.681 81.123, 624.423 71.887, 627.500 68.876 C 630.029 66.402, 630.264 65.785, 629 64.949 C 627.498 63.956, 623.558 64.316, 617 66.045 C 615.075 66.552, 610.176 69.693, 606.113 73.023 C 602.050 76.354, 592.375 83.254, 584.613 88.357 C 569.971 97.984, 543.730 116.958, 538.500 121.700 C 536.850 123.195, 533.475 125.726, 531 127.323 C 528.525 128.919, 520.425 136.173, 513 143.443 C 505.575 150.712, 490.275 164.339, 479 173.725 C 467.725 183.110, 449.304 199.624, 438.064 210.422 C 426.053 221.961, 416.570 230.291, 415.064 230.628 C 405.242 232.821, 405.324 232.765, 394.782 244.760 C 389.127 251.195, 367.449 273.344, 346.610 293.980 C 324.727 315.649, 301.308 339.949, 291.177 351.500 C 264.757 381.622, 240.521 405.626, 211 430.912 C 201.188 439.316, 199.006 442.435, 201.319 444.747 C 204.038 447.467, 209.020 445.555, 215.006 439.494 C 217.990 436.472, 221.235 434, 222.216 434 C 225.123 434, 224.305 435.432, 218.750 440.068 C 215.862 442.478, 204.938 452.786, 194.473 462.975 C 184.008 473.164, 166.122 490.423, 154.726 501.328 C 133.117 522.008, 108.936 547.648, 105.500 553.525 C 103.943 556.188, 103.744 557.339, 104.602 558.723 C 106.620 561.977, 109.371 561.278, 115.440 555.967 C 121.338 550.806, 122.944 550.649, 122.985 555.227 C 123.005 557.571, 126.606 559.756, 131.817 560.588 C 137.267 561.458, 139.357 563.429, 138.501 566.894 C 136.889 573.423, 127.473 579.143, 118.338 579.143 C 111.438 579.143, 109 580.271, 109 583.463 C 109 586.110, 113.198 590, 116.054 590 C 117.035 590, 120.687 589.268, 124.169 588.373 C 132.329 586.277, 141.666 586.928, 161.500 590.974 C 235.604 606.092, 302.172 633.083, 366.834 674.229 C 388.944 688.298, 418.124 707.996, 431.081 717.598 C 444.585 727.605, 449 729.327, 449 724.585 C 449 721.546, 444.853 717.859, 422.017 700.594 C 402.356 685.729, 393.385 679.590, 381 672.526 C 376.325 669.859, 363.637 662.160, 352.805 655.418 C 308.489 627.833, 281.606 615.538, 225 596.966 C 212.075 592.725, 197.450 587.309, 192.500 584.929 C 184.010 580.848, 183.689 580.582, 186.827 580.232 C 194.732 579.352, 232.198 588.869, 258.156 598.351 C 276.740 605.140, 285.471 609.155, 335 633.687 C 377.273 654.626, 388 659.159, 388 656.084 C 388 650.525, 351.726 630.070, 304 608.716 C 281.066 598.454, 280.491 598.206, 260.786 590.036 C 250.493 585.768, 240.852 581.478, 239.362 580.502 C 236.777 578.808, 236.739 578.664, 238.518 577.363 C 241.743 575.005, 246.521 575.855, 256.161 580.501 C 272.776 588.510, 293.929 591.276, 314.188 588.091 L 321.876 586.882 327.050 590.441 C 329.896 592.398, 332.977 594, 333.897 594 C 336.415 594, 364.054 589.406, 385.500 585.423 C 404.934 581.813, 419.288 578.442, 440.500 572.504 C 447.100 570.657, 458.575 567.509, 466 565.510 C 483.464 560.807, 496.939 554.291, 507.500 545.440 C 511.900 541.752, 516.424 538.125, 517.554 537.381 C 518.684 536.636, 522.284 532.690, 525.554 528.613 C 528.824 524.535, 532.326 520.676, 533.335 520.038 C 539.421 516.188, 570.800 513.938, 584.636 516.361 C 637.451 525.608, 672.245 561.505, 671.920 606.410 C 671.818 620.390, 670.462 626.025, 666.777 627.784 C 664.840 628.708, 663.735 630.296, 662.946 633.291 C 662.336 635.606, 660.791 639.300, 659.512 641.500 C 656.076 647.415, 642.596 660.046, 633.483 665.889 C 625.757 670.844, 607.548 678.881, 606.476 677.810 C 606.187 677.520, 604.236 672.157, 602.141 665.891 C 596.732 649.714, 595.178 649.909, 582.288 668.380 C 571.460 683.896, 555.338 697.917, 535.870 708.749 C 532.773 710.472, 524.448 714.433, 517.370 717.551 C 510.291 720.670, 503.713 723.916, 502.750 724.765 C 500.534 726.721, 500.480 730.863, 502.660 731.700 C 505.812 732.909, 566.931 721.620, 593 715.013 C 622.463 707.545, 643.984 695.526, 666.385 674.027 C 676.739 664.091, 681.448 658.034, 686.278 648.438 C 703.516 614.191, 704.594 574.132, 688.985 547.858 C 683.043 537.856, 657.859 513.505, 638.310 498.860 C 621.099 485.966, 599.763 478.533, 576.334 477.270 C 570.742 476.968, 565.631 476.390, 564.977 475.985 C 562.117 474.218, 567.813 466.157, 574.235 462.880 C 576.425 461.763, 585.931 457.920, 595.359 454.341 C 642.051 436.615, 706.943 410.142, 745 393.295 C 784.215 375.935, 803.137 365.656, 825.842 349.379 C 833.066 344.201, 843.318 338.384, 857.659 331.328 C 869.297 325.602, 881.462 319.208, 884.693 317.120 C 892.129 312.314, 897.490 306.081, 898.857 300.652 C 899.821 296.823, 899.503 292, 898.286 292 C 898.021 292, 894.361 294.417, 890.152 297.371 C 885.944 300.324, 876.200 306.475, 868.500 311.038 C 860.800 315.601, 846.175 324.601, 836 331.037 C 806.141 349.925, 794.635 354.916, 776 357.064 C 762.737 358.592, 742.101 357.720, 731.826 355.196 L 724.153 353.311 715.726 356.606 C 711.091 358.418, 702.620 360.857, 696.900 362.025 C 686.473 364.155, 672.050 365.774, 673.014 364.707 C 674.105 363.500, 714.006 348.029, 723.500 345.133 C 736.820 341.068, 746.516 339.408, 771 337 C 782.275 335.892, 795.089 334.278, 799.476 333.416 C 811.086 331.133, 826.203 326.103, 825.718 324.683 C 824.973 322.503, 785.581 324.162, 755.230 327.652 C 747.381 328.555, 740.664 328.998, 740.303 328.636 C 739.420 327.753, 741.699 326.103, 753.500 319.082 C 771.187 308.558, 787.593 302.520, 806.988 299.394 C 827.344 296.113, 855.517 292.916, 878 291.335 C 890.925 290.426, 902.513 289.315, 903.750 288.866 C 905.274 288.313, 906 287.234, 906 285.525 L 906 283 892.704 283 C 859.911 283, 821.812 285.904, 786.730 291.076 C 775.307 292.761, 765.182 293.987, 764.230 293.801 C 762.092 293.383, 777.220 286.723, 812.736 272.448 C 827.716 266.426, 839.978 261.117, 839.986 260.649 C 840.019 258.617, 791.775 265.332, 782.225 268.688 C 781.002 269.118, 780.794 268.972, 781.511 268.186 C 783.844 265.629, 832.137 249.058, 865.096 239.505 C 886.500 233.301, 897.782 231.140, 914.133 230.113 C 921.825 229.630, 926.569 228.863, 928.133 227.847 C 929.517 226.950, 934.119 226.038, 939.209 225.653 C 949.339 224.887, 952.814 223.588, 953.651 220.255 C 954.599 216.479, 952.611 215.528, 942.992 215.152 L 934.082 214.804 932.066 211.387 C 930.957 209.507, 928.801 207.483, 927.275 206.888 C 923.045 205.239, 898.438 206.286, 893.695 208.316 C 891.092 209.430, 887.299 209.902, 881.695 209.811 C 874.781 209.698, 869.569 210.635, 848.357 215.801 C 834.529 219.169, 814.954 224.430, 804.857 227.492 C 780.942 234.744, 771.043 236.687, 750.847 238.095 C 734.058 239.266, 724.574 238.779, 725.239 236.782 C 726.095 234.215, 763.635 221.504, 792.320 214.068 C 809.910 209.508, 819.274 207.603, 834.322 205.524 C 846.458 203.847, 847 203.652, 847 200.964 C 847 197.580, 842.476 195.666, 833.338 195.187 C 822.239 194.604, 814.243 195.987, 787.090 203.186 C 752.630 212.322, 723.590 218.010, 726.557 215.043 C 729.109 212.491, 790.182 186.996, 849 163.928 C 853.125 162.311, 863.925 158.008, 873 154.368 C 882.075 150.727, 894.526 145.808, 900.670 143.436 C 924.509 134.230, 925.615 132.404, 906.750 133.400 C 898.617 133.830, 893.886 133.743, 894.500 133.175 C 897.132 130.739, 925.537 121.222, 944.500 116.422 C 950 115.029, 956.141 113.460, 958.147 112.934 C 960.153 112.408, 962.052 111.308, 962.366 110.489 C 963.156 108.430, 962.142 106.180, 960.135 105.543 C 958.079 104.890, 914.987 115.391, 860 129.944 C 853.675 131.618, 847.616 132.990, 846.536 132.994 C 837.191 133.024, 869.424 122.169, 941.500 101.012 C 985.510 88.093, 983.200 88.968, 985.820 84.221 C 988.213 79.885, 988.067 76, 985.512 76 C 984.030 76, 959.727 82.666, 940 88.484 C 892.360 102.533, 828.938 123.302, 802.151 133.626 C 788.719 138.803, 786.603 139.117, 790.076 135.417 C 798.052 126.920, 867.598 97.190, 911.500 83.510 C 940.190 74.570, 947.445 71.898, 950.250 69.236 C 953.372 66.273, 953.805 63.523, 951.299 62.561 C 950.364 62.202, 945.302 62.174, 940.049 62.499 L 930.500 63.089 934 61.078 C 939.623 57.847, 946.988 55.298, 963.113 51.002 C 978.313 46.953, 991.824 41.051, 998.500 35.546 L 1001.500 33.072 996.500 33.040 C 978.461 32.925, 950.301 41.354, 891.585 64.444 C 853.437 79.445, 815.181 93.258, 817.532 91.180 C 818.065 90.710, 826.859 85.798, 837.076 80.265 C 847.293 74.731, 857.643 68.805, 860.076 67.095 C 862.509 65.386, 869.323 61.837, 875.218 59.208 C 887.019 53.947, 895.368 48.607, 894.742 46.719 C 894.470 45.898, 891.096 45.399, 884.419 45.191 C 871.008 44.773, 863.111 46.853, 857.959 52.162 C 853.840 56.406, 848.384 58.690, 813 70.988 C 778.347 83.032, 736.720 100.735, 722.340 109.543 C 715.930 113.470, 713.435 114.429, 708.664 114.799 C 703.021 115.238, 702.839 115.176, 703.164 112.929 C 703.626 109.731, 719.334 101.612, 736.930 95.476 C 749.176 91.206, 765.528 84.762, 791 74.167 C 841.860 53.013, 866.465 43.352, 882.970 38.052 C 904.355 31.186, 916.699 25.999, 927.451 19.361 C 934.277 15.147, 940 10.672, 940 9.548 C 940 6.948, 920.973 11.743, 904.199 18.570 C 896.665 21.637, 885.100 25.432, 878.500 27.004 C 855.102 32.577, 830.665 41.731, 794.500 58.468 C 775.569 67.230, 751.139 77.786, 733 85.043 C 689.060 102.622, 673.395 109.805, 641.503 126.999 C 629.053 133.710, 618.643 138.976, 618.367 138.701 C 617.333 137.666, 654.131 105.502, 657.063 104.878 C 660.436 104.160, 659.794 104.628, 675.500 91.427 C 697.890 72.607, 738.937 40.966, 780.885 10.190 C 789.453 3.904, 789.998 1.605, 782.991 1.313 C 780.521 1.210, 777.328 1.491, 775.896 1.937 M 268.825 64.717 C 256.733 76.633, 251.825 83.260, 240.579 102.849 C 230.679 120.096, 230.268 120.697, 227.953 121.302 C 226.782 121.608, 226 122.671, 226 123.957 C 226 125.136, 220.438 135.866, 213.639 147.800 C 174.721 216.120, 150.262 267.191, 134.282 313.500 C 128.761 329.500, 119.353 370.402, 120.192 374.759 C 120.658 377.179, 130.128 362.068, 136.582 348.603 C 139.510 342.496, 145.109 328.725, 149.025 318 C 169.500 261.928, 187.898 221.825, 226.748 148.587 C 243.098 117.764, 248.884 107.736, 259.107 92.500 C 270.411 75.655, 277.725 64.563, 279.734 61.218 C 282.170 57.162, 282.660 54, 280.851 54 C 280.218 54, 274.807 58.823, 268.825 64.717 M 653 78.373 C 648.875 80.200, 640.775 83.953, 635 86.713 C 629.225 89.473, 620.535 93.626, 615.689 95.942 C 610.843 98.258, 606.626 100.810, 606.318 101.614 C 606.010 102.417, 606.542 103.941, 607.501 105.001 C 609.185 106.862, 608.935 107.247, 600.122 116.374 C 592.353 124.419, 589.248 129, 591.566 129 C 593.072 129, 597.245 126.055, 605 119.521 C 618.202 108.398, 625.336 103.052, 641 92.543 C 654.840 83.257, 662 77.550, 662 75.804 C 662 74.545, 661.005 74.829, 653 78.373 M 577.887 118.234 C 569.986 123.511, 563 130.124, 563 132.329 C 563 135.953, 569.047 133.469, 578.500 125.962 C 586.233 119.821, 589.375 116.416, 588.546 115.074 C 587.311 113.077, 584.252 113.984, 577.887 118.234 M 464 121.702 C 460.551 123.005, 448.552 132.280, 434.500 144.504 C 411.835 164.221, 405.227 169.465, 384 184.583 C 349.164 209.393, 336.634 220.484, 310.124 249.978 C 300.472 260.715, 284.124 278.205, 273.795 288.844 C 247.679 315.742, 228.379 340.086, 211.040 367.997 C 199.714 386.228, 197.359 391.275, 198.571 394.722 C 200.806 401.076, 206.718 396.999, 213.020 384.759 C 228.381 354.923, 246.315 330.339, 277.040 297 C 333.692 235.527, 372.962 196.629, 375.653 199.320 C 375.983 199.650, 367.984 208.387, 357.877 218.736 C 334.640 242.528, 322.325 255.918, 291.896 290.478 C 261.142 325.405, 255.808 331.881, 250.844 340.318 C 244.572 350.977, 242.477 359, 245.966 359 C 248.380 359, 256.529 349.942, 276.978 324.533 C 288.944 309.665, 303.684 291.875, 309.735 285 C 332.769 258.828, 387.837 203.370, 448.788 144.963 C 463.703 130.670, 469 124.991, 468.788 123.521 C 468.489 121.445, 466.589 120.723, 464 121.702 M 581.070 134.084 C 576.425 138.729, 579.120 141.054, 584.365 136.927 C 587.178 134.715, 587.937 131, 585.577 131 C 584.794 131, 582.766 132.388, 581.070 134.084 M 728.500 134.351 C 722.191 137.292, 720.265 139.410, 722 141.500 C 724.341 144.321, 729.038 143.052, 734.250 138.191 C 737.373 135.278, 737.904 131.995, 735.250 132.010 C 734.288 132.015, 731.250 133.069, 728.500 134.351 M 702.359 149.336 C 693.872 152.778, 673.253 164.190, 669.923 167.289 C 667.600 169.450, 667.528 170.385, 669.529 172.386 C 671.421 174.278, 672.694 173.832, 681.500 168.188 C 685.350 165.721, 693.225 160.884, 699 157.440 C 708.448 151.805, 714 147.741, 714 146.461 C 714 145.279, 709.810 146.313, 702.359 149.336 M 241.300 154.250 C 237.184 158.576, 234.989 162.299, 215.517 198 C 197.558 230.928, 163.630 298.064, 155.126 317.500 C 152.239 324.100, 145.442 341.650, 140.022 356.500 C 134.603 371.350, 129.857 384.288, 129.477 385.250 C 129.097 386.212, 127.930 387, 126.884 387 C 125.838 387, 122.319 389.449, 119.063 392.442 C 115.807 395.436, 111.323 399.033, 109.100 400.437 C 106.876 401.841, 104.410 404.240, 103.619 405.770 C 101.250 410.350, 88.743 452.215, 78.603 489.500 C 76.659 496.650, 73.842 508.696, 72.344 516.270 L 69.620 530.040 71.996 535.270 C 73.428 538.420, 74.303 542.091, 74.197 544.500 C 74.100 546.700, 74.530 551.382, 75.153 554.905 C 76.946 565.050, 84.631 571.839, 91.761 569.576 C 94.942 568.566, 96.063 564.405, 97.561 548.054 C 101.115 509.251, 107.959 480.904, 120.624 452.525 C 127.113 437.986, 130.426 433.048, 135.215 430.778 C 139.747 428.630, 140.219 427.854, 141.144 421.036 C 142.557 410.623, 156.298 387.291, 183.055 349.870 C 216.843 302.617, 236.911 279.473, 277.647 240.781 C 291.316 227.798, 305.875 213.284, 310 208.529 C 322.694 193.894, 330.730 181, 327.157 181 C 322.695 181, 279.213 222.763, 234.768 269.738 C 197.168 309.477, 168.471 345.563, 155.035 370 C 152.162 375.225, 148.954 380.387, 147.906 381.472 C 146.020 383.423, 146 383.402, 146 379.466 C 146 372.490, 158.315 332.145, 166.747 311.500 C 173.032 296.109, 184.735 273.046, 202.267 241.500 C 224.468 201.551, 236.617 180.527, 243.004 171 C 248.990 162.070, 252 156.757, 252 155.121 C 252 153.369, 248.910 151, 246.625 151 C 245.397 151, 243.001 152.463, 241.300 154.250 M 368.361 168.895 C 361.837 173.300, 352.675 179.930, 348 183.630 C 336.630 192.628, 308.018 221.395, 282.944 249.038 C 259.544 274.836, 250.331 285.743, 225.963 316.500 C 177.882 377.188, 157.812 407.497, 143.521 441 C 139.733 449.881, 138.780 454.065, 140.096 456.047 C 140.882 457.231, 141.657 456.826, 144.280 453.863 C 147.465 450.267, 150.282 445.647, 169.509 412.500 C 182.687 389.781, 190.175 378.630, 209.797 352.500 C 231.917 323.045, 253.956 295.578, 269.376 278.249 C 280.417 265.841, 332.833 211.338, 369.360 174.284 C 375.983 167.566, 381.136 161.803, 380.811 161.478 C 380.487 161.153, 374.884 164.491, 368.361 168.895 M 159.030 165.124 C 138.738 185.416, 112.843 258.133, 97.646 337.500 C 92.534 364.196, 92.098 372.028, 95.466 376.615 C 96.784 378.409, 96.902 378.364, 97.926 375.683 C 98.518 374.133, 102.169 360.183, 106.039 344.683 C 124.623 270.261, 135.488 231.376, 143.254 211.500 C 145.188 206.550, 150.243 194.857, 154.486 185.515 C 161.397 170.302, 164.300 162, 162.708 162 C 162.403 162, 160.748 163.406, 159.030 165.124 M 529.947 182.165 C 523.940 186.439, 514 196.134, 514 197.719 C 514 200.179, 517.824 198.967, 523.640 194.664 C 529.818 190.093, 538 181.751, 538 180.022 C 538 178.057, 534.358 179.026, 529.947 182.165 M 126.325 187.500 C 122.818 195.230, 108.916 229.115, 103.549 243.012 C 91.329 274.652, 71 365.137, 71 387.885 C 71 397.461, 73.717 402.455, 76.864 398.664 C 79.352 395.666, 81.273 387.204, 86.077 358.076 C 94.428 307.433, 98.739 289.976, 115.557 238.681 C 125.820 207.380, 130.396 189.684, 129.801 183.590 C 129.524 180.746, 129.247 181.058, 126.325 187.500 M 490.628 194.480 C 464.980 214.243, 460.762 218.042, 405.509 271.148 C 365.024 310.060, 362.636 312.505, 353.542 324.341 C 344.849 335.655, 318.174 363.711, 285.884 395.500 C 254.081 426.809, 236.689 442.923, 220.033 456.511 C 206.400 467.632, 204.549 469.651, 198.948 479.500 C 196.487 483.829, 189.415 491.543, 173.553 507.201 C 161.462 519.137, 151.873 529.206, 152.244 529.577 C 153.100 530.434, 161.844 525.888, 169 520.867 C 172.025 518.745, 179.547 512.605, 185.716 507.224 C 191.884 501.842, 200.659 495.238, 205.216 492.548 C 209.772 489.858, 214.467 487.079, 215.649 486.372 C 216.831 485.665, 222.056 479.554, 227.260 472.793 C 254.243 437.736, 279.793 410.997, 335.987 359 C 395.011 304.386, 398.917 300.460, 422.036 272.500 C 439.843 250.965, 449.243 240.744, 477.901 211.750 C 491.899 197.588, 502.935 186.023, 502.426 186.051 C 501.917 186.079, 496.607 189.872, 490.628 194.480 M 109.289 188.510 C 103.631 192.473, 92.875 215.369, 83.567 243.262 C 69.655 284.952, 55.708 352.097, 54.335 384 C 53.715 398.390, 54.948 408.144, 59.072 421.498 C 61.381 428.973, 62.998 429.898, 63.006 423.750 C 63.020 412.544, 65.196 375.131, 66.483 363.968 C 68.437 347.015, 74.050 317.804, 80.102 293.100 C 87.773 261.786, 96.958 235.228, 111.436 202.500 C 115.278 193.816, 115.974 188.588, 113.418 187.607 C 111.415 186.838, 111.794 186.755, 109.289 188.510 M 403.276 208.856 C 392.436 218.224, 374.763 236.990, 356.994 258 C 335.880 282.966, 326.346 293.521, 295.574 326 C 241.711 382.850, 222.258 403.519, 216.222 410.310 C 207.518 420.103, 206.382 425.326, 213.789 421.491 C 220.870 417.825, 278.911 358.211, 335.483 296.500 C 348.592 282.200, 365.001 264.425, 371.949 257 C 392.274 235.277, 404.414 219.999, 409.859 209.290 C 414.025 201.098, 412.378 200.989, 403.276 208.856 M 71.930 235.198 C 64.111 247.236, 44.832 288.624, 40.967 301.671 C 39.832 305.500, 39.915 306.074, 41.975 308.671 C 44.123 311.379, 44.190 312.034, 43.545 324 C 43.175 330.875, 42.221 341.225, 41.425 347 C 39.947 357.732, 35.662 376.995, 34.154 379.689 C 33.636 380.615, 33.071 377.191, 32.675 370.725 C 31.676 354.392, 28.884 344, 25.495 344 C 24.695 344, 23.048 345.913, 21.835 348.250 C 19.895 351.989, 19.651 353.878, 19.813 363.964 C 20.100 381.839, 25.051 424.111, 31.003 459.500 C 32.575 468.850, 34.816 485.725, 35.983 497 C 39.534 531.306, 40.591 537.117, 44.013 541.155 L 46 543.500 48 541.139 C 49.786 539.031, 50 537.325, 50 525.191 C 50 517.718, 50.507 507.980, 51.126 503.552 C 52.165 496.123, 52.004 494.030, 49.035 476.500 C 45.144 453.520, 44.311 436.681, 45.917 413.500 C 49.961 355.120, 56.980 314.050, 72.881 255.721 C 79.962 229.745, 79.663 223.293, 71.930 235.198 M 772.707 247.887 C 766.009 249.633, 761.884 252.217, 763.390 253.724 C 765.034 255.367, 773.363 254.071, 778.819 251.322 C 788.982 246.203, 785.871 244.454, 772.707 247.887 M 738 256.997 C 736.625 257.458, 729.323 259.644, 721.774 261.855 C 714.224 264.065, 707.249 266.322, 706.274 266.870 C 702.488 268.995, 708.191 269.315, 718.308 267.544 C 735.673 264.505, 750.025 259.467, 748.473 256.956 C 747.762 255.806, 741.478 255.830, 738 256.997 M 715 285.102 C 693.108 291.802, 680 296.291, 680 297.086 C 680 298.277, 680.201 298.265, 690.619 296.468 C 708.478 293.388, 726.324 287.521, 728.488 284.019 C 729.526 282.340, 722.066 282.939, 715 285.102 M 729 312.940 C 709.789 317.007, 695 321.776, 695 323.903 C 695 325.872, 698.474 327.375, 702.869 327.309 C 709.468 327.209, 725.947 322.247, 735.443 317.500 C 748.441 311.002, 746.073 309.326, 729 312.940 M 623 359.689 C 596.233 362.506, 552.715 369.800, 531.294 375.057 C 508.267 380.709, 473.279 393.003, 459.851 400.160 C 451.022 404.866, 446.828 413.166, 452.553 414.603 C 459.644 416.382, 475.345 411.822, 503.105 399.919 C 532.815 387.180, 536.921 385.690, 538.555 387.046 C 539.291 387.656, 540.029 390.033, 540.196 392.328 C 540.497 396.453, 540.547 396.503, 544.672 396.804 C 546.967 396.971, 549.384 397.758, 550.045 398.554 C 550.788 399.449, 553.080 400, 556.063 400 C 558.714 400, 561.157 400.445, 561.493 400.989 C 561.829 401.533, 561.326 403.618, 560.375 405.623 C 558.716 409.118, 558.722 409.323, 560.514 410.634 C 561.541 411.385, 563.366 412, 564.569 412 C 567.543 412, 569.281 414.369, 569.944 419.327 C 570.435 422.995, 570.851 423.542, 573.500 423.997 C 576.317 424.481, 576.535 424.847, 577.067 430.006 C 577.835 437.448, 579.676 441, 582.763 441 C 586.545 441, 639.436 423.514, 656.891 416.492 C 684.844 405.248, 713.105 391.814, 747 373.660 L 758.500 367.500 751 367.195 C 741.614 366.813, 714.636 369.484, 701.810 372.064 C 686.522 375.140, 662.714 383.047, 664.217 384.550 C 664.439 384.772, 667.876 385.415, 671.855 385.979 C 678.577 386.933, 686.133 389.788, 687.413 391.858 C 687.714 392.346, 684.707 393.057, 680.730 393.439 C 676.754 393.820, 656.400 397.657, 635.500 401.966 C 579.629 413.483, 577.911 413.679, 572.803 409.115 C 569.863 406.489, 569.681 405.996, 570.766 403.615 C 571.421 402.177, 572.529 400.993, 573.229 400.985 C 573.928 400.976, 575.122 400.575, 575.883 400.094 C 577.042 399.359, 577.002 398.840, 575.633 396.886 C 574.735 395.604, 574 394.073, 574 393.484 C 574 392.894, 581.087 388.481, 589.750 383.675 C 610.247 372.305, 627.257 361.823, 627.764 360.250 C 627.985 359.563, 627.792 359.072, 627.333 359.160 C 626.875 359.248, 624.925 359.486, 623 359.689 M 489.908 421.984 C 481.988 426.075, 473.574 428.737, 459.620 431.568 C 444.134 434.709, 444.263 434.666, 401 451.195 C 338.011 475.261, 322.350 481.614, 293.500 494.798 C 286.350 498.065, 272.625 504.335, 263 508.730 C 235.233 521.410, 218.844 529.544, 214.157 532.971 C 205.052 539.629, 207.702 538.686, 264 515.227 C 374.147 469.328, 397.880 459.877, 402.200 460.192 C 406.125 460.478, 406.533 460.787, 407.891 464.500 C 408.696 466.700, 409.474 468.662, 409.620 468.859 C 409.765 469.057, 411.373 468.157, 413.192 466.859 C 417.181 464.014, 424.460 463.761, 428.381 466.330 C 433.973 469.994, 436.109 481.022, 432.557 487.890 C 431.007 490.887, 430.995 491.337, 432.427 492.920 C 433.292 493.875, 434 495.231, 434 495.932 C 434 496.633, 436.090 499.522, 438.644 502.353 C 443.356 507.574, 446 512.411, 446 515.808 C 446 516.838, 444.582 520.517, 442.850 523.985 L 439.700 530.289 441.931 534.394 C 444.794 539.664, 444.139 541.412, 435.969 550.308 C 432.154 554.462, 430.076 557.476, 430.638 558.038 C 431.934 559.334, 443.246 557.368, 449.434 554.771 C 457.405 551.426, 464.935 546.105, 465.633 543.325 C 465.975 541.965, 465.758 539.764, 465.152 538.434 C 464.111 536.149, 464.543 535.653, 472.964 529.472 C 484.173 521.245, 490.060 514.732, 492.830 507.491 C 496.240 498.583, 495.719 495.918, 490 493 C 485.552 490.731, 485 489.562, 485 482.418 L 485 477 481.081 477 C 478.926 477, 475.800 477.781, 474.136 478.737 C 471.216 480.413, 471.013 480.400, 468.305 478.381 C 466.762 477.230, 465.351 475.532, 465.170 474.608 C 464.984 473.665, 468.166 468.792, 472.420 463.504 C 476.589 458.320, 480 453.783, 480 453.422 C 480 453.060, 478.650 451.226, 477 449.347 C 475.350 447.468, 474 444.811, 474 443.443 C 474 440.207, 480.403 433.237, 489.750 426.301 C 493.738 423.342, 497 420.489, 497 419.961 C 497 418.538, 496.063 418.806, 489.908 421.984 M 362.343 488.483 C 331.859 498.668, 322.931 505.649, 323.032 519.218 C 323.069 524.237, 323.868 525.418, 330.349 530.030 C 336.615 534.490, 338.001 537.331, 337.994 545.700 C 337.987 555.134, 336.626 559.202, 332.116 563.276 C 327.589 567.366, 321.972 569.356, 309 571.465 C 303.775 572.315, 297.979 573.264, 296.120 573.575 C 294.090 573.914, 293.103 574.503, 293.649 575.049 C 298.167 579.567, 362.625 579.451, 376.734 574.899 C 380.914 573.550, 384 569.574, 384 565.537 C 384 563.623, 382.729 560.424, 380.829 557.555 C 378.414 553.909, 377.898 552.377, 378.665 551.134 C 379.220 550.235, 384.809 545.788, 391.087 541.251 C 397.364 536.714, 403.521 531.841, 404.770 530.422 L 407.039 527.843 404.836 523.921 C 402.471 519.715, 402.508 519.734, 396.518 519.593 C 392.835 519.507, 392.345 519.147, 389.976 514.786 C 388.568 512.193, 386.438 509.031, 385.244 507.760 C 383.332 505.725, 383.038 504.135, 382.786 494.474 C 382.522 484.344, 382.346 483.484, 380.500 483.292 C 379.400 483.178, 371.229 485.513, 362.343 488.483 M 611 506.066 C 611 508.574, 613.408 511.193, 618.285 513.990 C 626.395 518.642, 632.798 517.607, 627.935 512.431 C 623.426 507.631, 611 502.961, 611 506.066 M 52 568.166 C 44.342 572.548, 34.289 583.098, 29.267 592.023 C 24.411 600.653, 21.663 610.356, 20.053 624.558 C 18.401 639.131, 18.398 639.138, 11.573 649.221 C 1.145 664.625, -0.018 668.210, 2.577 676.949 C 6.564 690.373, 18.127 702, 27.492 702 C 31.442 702, 38.001 699.597, 39.200 697.711 C 40.708 695.338, 39.962 688.866, 37.474 682.744 C 32.623 670.805, 32.951 664.274, 38.723 657.885 C 40.708 655.687, 44.170 652.822, 46.416 651.518 C 50.490 649.152, 66.575 642.835, 77 639.507 C 85.260 636.870, 97.693 630.154, 100.509 626.807 C 101.879 625.178, 103.265 622.643, 103.588 621.173 C 105.164 613.998, 105.515 613.512, 109.358 613.188 C 114.530 612.752, 123.263 615.500, 129.352 619.480 C 133.178 621.980, 136.410 623.131, 141.937 623.960 C 156.977 626.217, 168.303 631.041, 206.578 651.492 C 249.015 674.167, 265.511 684.094, 301.500 708.612 C 315.914 718.432, 322.833 722.501, 323.678 721.655 C 324.754 720.579, 321.573 716.770, 312.440 708.199 C 295.751 692.536, 282.206 683.627, 236.359 658.155 C 210.145 643.592, 188.621 632.422, 173.435 625.502 C 169.432 623.678, 164.103 620.293, 161.595 617.980 C 156.630 613.404, 154.052 612.606, 124.500 606.494 C 117.350 605.015, 111.115 603.442, 110.645 602.998 C 109.014 601.457, 124.571 600.880, 138 601.982 C 167.732 604.424, 166.651 604.395, 165 602.721 C 162.780 600.471, 150.041 596.202, 140.162 594.397 C 134.967 593.448, 123.721 592.657, 112.063 592.421 C 101.373 592.204, 92.314 591.683, 91.934 591.263 C 91.553 590.843, 90.734 588.907, 90.113 586.961 C 88.684 582.481, 79.351 573.224, 71.559 568.558 C 63.873 563.955, 59.511 563.868, 52 568.166 M 69.293 607.964 C 66.262 611.243, 61.809 614.882, 59.397 616.050 C 54.292 618.521, 53.646 619.308, 54.503 622.009 C 55.358 624.704, 57.921 624.512, 62.056 621.443 C 63.950 620.037, 69.140 617.175, 73.589 615.083 C 78.038 612.992, 81.974 610.510, 82.336 609.568 C 83.491 606.558, 79.656 602, 75.968 602 C 75.328 602, 72.324 604.684, 69.293 607.964 M 225.522 620.964 C 225.111 621.630, 225.163 622.528, 225.637 622.960 C 226.112 623.392, 241.991 632.183, 260.924 642.494 C 314.212 671.515, 315.831 672.495, 344.261 692.904 C 368.950 710.627, 374.034 714, 376.057 714 C 378.991 714, 378.403 711.257, 374.750 707.902 C 372.962 706.259, 365.200 700.583, 357.500 695.287 C 334.739 679.633, 324.338 672.265, 309 660.927 C 301.025 655.032, 290.675 647.886, 286 645.048 C 274.336 637.966, 249.877 625.732, 242.037 623.059 C 233.808 620.253, 226.532 619.330, 225.522 620.964 M 208 627.194 C 208 627.791, 208.787 628.891, 209.750 629.638 C 215.838 634.363, 247.453 654.816, 257.348 660.430 C 263.864 664.127, 277.589 672.585, 287.848 679.225 C 298.107 685.866, 314.896 696.608, 325.157 703.097 C 335.419 709.586, 353.995 721.664, 366.437 729.936 C 378.879 738.209, 390.170 745.256, 391.527 745.596 C 397.575 747.114, 398.807 743.090, 393.750 738.339 C 391.962 736.660, 385.100 731.602, 378.500 727.100 C 371.900 722.598, 360.650 714.850, 353.500 709.882 C 325.467 690.406, 255.365 646.216, 241.258 639.127 C 226.425 631.674, 208 625.063, 208 627.194 M 124 633.396 C 124 635.525, 131.609 639.958, 153 650.291 C 215.540 680.502, 231.115 688.692, 249.680 701.130 C 257.281 706.222, 266.507 711.656, 270.183 713.204 C 277.626 716.340, 285.393 717.791, 286.360 716.227 C 288.258 713.155, 255.972 691.183, 215.500 668.002 C 192.289 654.708, 154.686 635.515, 148.068 633.584 C 140.932 631.503, 124 631.370, 124 633.396"/>
</svg>