<?xml version="1.0" encoding="utf-8"?>
<svg xmlns="http://www.w3.org/2000/svg" width="1002" height="555" viewBox="0 0 1002 555">
  <path fill-rule="evenodd" d="M 851.853 9.312 C 846.432 17.697, 845.043 20.368, 840.493 31.157 C 836.622 40.337, 833.105 45.355, 828.634 48.081 C 826.014 49.679, 823.532 49.996, 813.500 50.011 C 800.014 50.032, 793.787 51.230, 780.224 56.411 C 771.646 59.688, 769.691 60.030, 754.224 60.967 C 745.026 61.525, 736.600 61.992, 735.500 62.006 C 732.133 62.048, 730.422 63.599, 731.847 65.316 C 732.886 66.567, 731.952 67.032, 725.533 68.460 C 721.390 69.382, 718 70.485, 718 70.911 C 718 71.337, 719.575 72.533, 721.500 73.570 C 723.425 74.607, 724.986 75.690, 724.970 75.977 C 724.953 76.265, 719.515 78.251, 712.884 80.391 C 701.260 84.142, 698.519 85.919, 700.814 88.214 C 701.587 88.987, 699.777 90.294, 694.447 92.813 C 687.752 95.978, 685.238 98, 688 98 C 691.059 98, 687.820 100.355, 678.500 104.907 C 667.818 110.124, 665.822 111.963, 670.750 112.047 C 673.209 112.088, 672.970 112.373, 668.500 114.733 C 665.750 116.185, 658.325 119.278, 652 121.606 C 643.686 124.667, 640.538 126.277, 640.639 127.420 C 640.751 128.691, 639.665 129, 635.080 129 C 631.935 129, 628.572 129.592, 627.574 130.322 C 625.894 131.551, 626.059 131.895, 629.917 135.197 C 633.884 138.592, 633.966 138.776, 631.784 139.361 C 630.528 139.697, 627.995 139.979, 626.156 139.986 C 623.660 139.997, 622.680 140.507, 622.290 142 C 621.856 143.660, 620.893 144.012, 616.633 144.070 C 613.810 144.109, 610.669 144.468, 609.653 144.867 C 607.976 145.527, 607.953 145.716, 609.403 146.920 C 610.281 147.648, 611 148.601, 611 149.036 C 611 149.472, 604.958 151.248, 597.572 152.983 C 584.919 155.956, 583.653 156.481, 575.627 162.081 C 565.938 168.841, 560.780 171.281, 552.578 172.984 C 547.339 174.071, 546.384 173.981, 541.679 171.957 C 537.085 169.981, 535.493 169.811, 527.113 170.400 C 521.938 170.764, 513.726 171.947, 508.863 173.031 C 498.258 175.393, 492.718 175.500, 484.974 173.493 C 478.141 171.723, 455.547 170.036, 438.385 170.015 C 428.134 170.002, 425.903 169.715, 423.885 168.149 C 422.573 167.131, 417 164.811, 411.500 162.994 C 406 161.177, 399.475 158.824, 397 157.765 C 394.525 156.706, 390.700 155.651, 388.500 155.421 C 386.300 155.191, 378.650 153.447, 371.500 151.547 C 357.089 147.716, 351 147.108, 351 149.500 C 351 151.566, 350.927 151.546, 340.639 146.661 C 326.786 140.084, 322.119 138.481, 320.767 139.833 C 319.913 140.687, 320.220 141.605, 321.988 143.487 C 323.286 144.869, 323.933 146.004, 323.424 146.009 C 322.916 146.014, 317.828 144.359, 312.118 142.330 C 302.601 138.949, 301.634 138.780, 300.517 140.308 C 299.396 141.841, 298.594 141.736, 290.452 138.984 C 284.537 136.984, 281.274 136.326, 280.603 136.997 C 280.051 137.549, 278.602 138, 277.383 138 C 276.164 138, 275.017 138.397, 274.833 138.883 C 274.641 139.392, 264.126 139.359, 250 138.805 C 233.806 138.170, 221.940 138.186, 215 138.852 C 207.831 139.539, 202.755 139.529, 199 138.821 C 195.975 138.251, 189.450 138.009, 184.500 138.283 C 179.550 138.557, 172.879 138.295, 169.677 137.701 C 164.992 136.831, 163.691 136.882, 163.023 137.962 C 162.351 139.050, 160.413 139.114, 152.847 138.302 C 143.021 137.247, 140.745 137.783, 143.086 140.603 C 144.388 142.173, 143.776 142.257, 134.322 141.801 C 126.250 141.413, 123.061 140.796, 118.829 138.806 C 109.166 134.263, 101.581 131.227, 95.789 129.585 C 91.077 128.250, 88.933 126.822, 83.537 121.426 C 79.939 117.828, 76.589 115.136, 76.092 115.443 C 74.758 116.268, 67.417 107.072, 62.450 98.357 C 59.526 93.226, 57.893 88.994, 57.441 85.373 C 57.012 81.943, 56.295 80, 55.456 80 C 53.100 80, 51.056 70.829, 48.381 48.250 C 47.897 44.163, 47.744 44, 44.407 44 C 38.744 44, 34.124 46.609, 27.070 53.790 C 14.300 66.789, 5.280 85.243, 2.380 104.300 C -0.239 121.516, 1.836 131.433, 10.114 141.250 C 14.188 146.082, 14.423 148, 10.941 148 C 7.159 148, 9.109 150.717, 18 157.836 C 26.932 164.988, 28.488 167.215, 25.387 168.405 C 22.993 169.324, 25.428 171.864, 31 174.260 C 42.975 179.409, 49 182.368, 49 183.100 C 49 183.542, 46.991 183.160, 44.536 182.250 C 34.637 178.581, 39.101 184.008, 56 196.189 C 67.205 204.266, 67.217 204.280, 62.500 203.464 L 58.500 202.773 60.500 204.838 C 62.389 206.789, 70.629 210.578, 83 215.183 C 87.180 216.739, 91.811 217.354, 102.302 217.745 L 116.105 218.260 114.052 220.444 C 112.924 221.646, 112 223.006, 112 223.467 C 112 223.928, 119.763 224.050, 129.250 223.738 L 146.500 223.170 138.547 226.089 C 123.592 231.576, 126.173 232.832, 148.957 231.157 C 158.056 230.488, 169.549 229.090, 174.498 228.051 C 179.446 227.012, 183.618 226.285, 183.768 226.435 C 183.919 226.585, 181.023 227.814, 177.334 229.165 C 173.644 230.517, 170.448 232.157, 170.230 232.811 C 169.777 234.168, 176.799 234.292, 186.391 233.097 L 192.282 232.364 189.434 234.634 C 184.433 238.622, 188.852 238.444, 204.175 234.038 C 212.054 231.773, 219.332 229.649, 220.349 229.317 C 222.110 228.744, 222.121 228.866, 220.574 231.857 C 219.156 234.599, 219.140 235, 220.451 235 C 221.278 235, 222.723 233.826, 223.663 232.391 C 226.186 228.541, 240.072 216.817, 245.654 213.824 C 255.459 208.568, 255.504 208.985, 246.550 222.224 C 234.659 239.806, 228.348 244.975, 218.750 244.994 C 215.938 245, 214.825 247.427, 217.250 248.265 C 217.938 248.503, 214.675 249.870, 210 251.305 C 205.325 252.739, 200.644 254.539, 199.597 255.305 C 197.575 256.784, 198.152 259, 200.559 259 C 203.067 259, 202.135 260.564, 197.750 263.715 C 192.897 267.202, 188 271.897, 188 273.063 C 188 273.498, 188.735 273.999, 189.633 274.177 C 190.929 274.433, 190.504 275.410, 187.572 278.918 C 180.843 286.965, 179.199 292.296, 183.129 293.323 C 185.128 293.846, 184.983 294.226, 180.721 299.598 C 176.369 305.084, 175.635 308, 178.607 308 C 180.600 308, 180.407 308.393, 176.500 312.300 C 172.845 315.955, 171.936 319, 174.500 319 C 176.636 319, 176.399 319.972, 172.901 325.554 C 168.742 332.193, 164.631 336.427, 157.805 341.101 C 152.660 344.623, 151.498 345, 145.777 345 C 138.588 345, 138.106 345.255, 126.998 354.951 C 119.576 361.429, 114.819 364.028, 93 373.520 C 88.325 375.554, 77.786 380.589, 69.580 384.710 C 56.406 391.325, 54.211 392.129, 50.818 391.587 C 40.379 389.918, 26.555 406.099, 23.921 423.071 C 21.818 436.618, 24.598 448.441, 30.949 452.964 C 33.814 455.004, 35.008 455.195, 42.325 454.791 C 49.022 454.420, 51.653 453.752, 56.876 451.091 C 64.487 447.215, 71.415 440.949, 78.243 431.767 C 82.574 425.943, 84.994 423.937, 95.881 417.151 C 127.181 397.640, 138.007 392.151, 152.386 388.504 C 165.159 385.264, 187.285 383.830, 211.509 384.673 L 229.842 385.311 226.978 390.405 C 225.403 393.207, 222.551 400.336, 220.641 406.247 C 218.730 412.158, 216.204 418.551, 215.029 420.454 C 211.673 425.883, 204.136 431.992, 192.872 438.412 C 172.689 449.915, 170.541 451.872, 150.718 476.823 C 148.087 480.134, 143.487 485.411, 140.494 488.551 C 130.526 499.009, 128.029 507.930, 129.929 526.297 C 131.404 540.562, 132.261 543.666, 135.964 548.148 C 142.320 555.843, 146.773 554.979, 157.988 543.875 C 163.094 538.819, 165.840 535.037, 168.546 529.335 C 172.602 520.788, 217.008 460.868, 226.860 450.649 C 232.693 444.598, 240.247 438.734, 258.358 426.197 C 265.669 421.136, 271.301 418.093, 276.704 416.285 C 285.915 413.203, 288.531 411.653, 305 399.511 C 321.716 387.187, 333.774 379.095, 336.406 378.434 C 337.594 378.136, 340.551 378.339, 342.979 378.884 C 347.715 379.948, 349 379.660, 349 377.535 C 349 376.696, 349.729 376.378, 350.930 376.692 C 352.423 377.082, 353.355 376.214, 355.052 372.848 C 357.827 367.348, 357.673 367.484, 359.463 368.969 C 361.650 370.784, 363.711 369.593, 364.485 366.068 C 365.302 362.347, 366.304 362.176, 367.818 365.500 C 369.635 369.488, 371.339 368.468, 374.917 361.250 C 378.451 354.122, 378.917 354.122, 380.448 361.250 C 381.554 366.404, 383.663 364.255, 386.826 354.750 C 393.125 335.821, 396.104 330.321, 406.566 318.307 C 411.926 312.150, 417.604 306.578, 419.184 305.924 C 421.395 305.008, 423.730 305.005, 429.338 305.909 C 433.344 306.556, 438.415 306.797, 440.606 306.447 C 443.630 305.963, 448.202 306.809, 459.546 309.950 C 477.316 314.871, 486.475 318.303, 493.970 322.850 C 497.011 324.696, 501.300 326.802, 503.500 327.531 C 505.700 328.260, 510.582 330.023, 514.349 331.448 C 518.140 332.882, 527.072 334.895, 534.349 335.956 C 541.582 337.010, 554.475 339.441, 563 341.358 C 602.012 350.132, 619.031 350.171, 663.500 341.589 C 686.546 337.142, 685.621 337.121, 692.520 342.241 C 695.809 344.682, 699.314 346.972, 700.308 347.330 C 702.182 348.005, 707.531 345.663, 714.218 341.237 C 717.131 339.309, 720.068 338.540, 727.240 337.829 C 732.333 337.324, 747.422 334.707, 760.771 332.015 C 779.767 328.183, 785.635 327.334, 787.771 328.110 C 791.235 329.368, 804.229 347.530, 810.374 359.703 C 815.390 369.640, 817.957 372.367, 830 380.550 C 849.236 393.620, 859.041 401.254, 871.498 412.860 C 887.908 428.147, 897.093 434.538, 916.788 444.370 C 934.929 453.426, 938.481 454.473, 951 454.457 C 964.016 454.440, 968.201 452.753, 971.981 446 C 974.156 442.115, 974.500 440.263, 974.500 432.456 C 974.500 420.942, 973.425 419.181, 963.629 414.655 C 959.581 412.784, 949.707 407.342, 941.688 402.561 C 933.670 397.780, 925.456 393.412, 923.436 392.855 L 919.762 391.840 922.697 388.670 C 924.310 386.927, 927.747 381.784, 930.333 377.243 C 933.852 371.062, 934.877 368.359, 934.408 366.491 C 933.718 363.739, 929.387 360.007, 921 354.935 C 908.100 347.134, 899.180 339.455, 877 317.053 C 852.039 291.842, 842.904 284.125, 834.853 281.451 C 828.269 279.264, 823.483 274.366, 821.541 267.826 C 819.384 260.564, 819.503 260, 823.196 260 L 826.392 260 823.031 256.532 C 820.285 253.699, 819.960 252.952, 821.258 252.455 C 824.127 251.354, 824.183 248.800, 821.401 245.897 C 818.638 243.012, 818.672 240, 821.469 240 C 823.396 240, 823.386 239.519, 821.400 236.488 C 819.531 233.636, 819.311 228.155, 820.943 225.107 C 821.608 223.865, 827.402 220.300, 834.793 216.587 C 841.782 213.075, 851.550 207.205, 856.500 203.540 C 877.333 188.120, 892.118 180.626, 905.500 178.706 C 911.644 177.824, 914.189 178.035, 926.313 180.431 L 940.127 183.160 949.313 181.478 C 961.155 179.309, 966.841 177.564, 975.681 173.386 C 982.710 170.063, 989 164.271, 989 161.121 C 989 160.339, 991.475 157.301, 994.500 154.372 C 1003.028 146.112, 1002.060 143.071, 988.775 136.394 C 984.774 134.382, 979.573 131.414, 977.218 129.798 C 974.863 128.182, 969.913 125.358, 966.218 123.523 C 952.597 116.757, 951.962 116.022, 942.886 96.504 C 938.075 86.159, 928.330 76.906, 915.426 70.432 C 903.172 64.284, 902.015 62.526, 901.977 50 C 901.948 40.487, 901.297 37.001, 896.786 22.189 C 894.331 14.128, 892.793 10.910, 889.738 7.439 C 887.588 4.998, 885.202 3, 884.435 3 C 882.766 3, 877.401 12.001, 875.967 17.208 C 875.405 19.247, 874.506 21.187, 873.968 21.520 C 873.431 21.852, 871.305 19.358, 869.245 15.977 C 862.951 5.647, 860.066 1.997, 858.244 2.062 C 857.214 2.099, 854.598 5.067, 851.853 9.312 M 856.306 22.172 C 854.284 24.685, 845 44.804, 845 46.672 C 845 46.853, 845.675 47, 846.500 47 C 848.431 47, 848.435 46.969, 845.549 54.072 C 843.154 59.965, 843.145 60.089, 845.154 59.451 C 847.069 58.843, 847.162 59.080, 846.517 62.899 C 845.944 66.292, 846.103 67, 847.437 67 C 848.408 67, 849.275 68.127, 849.616 69.831 C 850.149 72.494, 850.476 72.658, 855.102 72.581 C 858.862 72.519, 860.152 72.088, 860.578 70.750 C 861.425 68.088, 862.853 68.655, 863.721 71.999 L 864.500 74.998 870.364 68.441 L 876.228 61.885 874.505 57.192 C 871.344 48.582, 860.935 25.531, 859.143 23.172 C 857.720 21.300, 857.165 21.104, 856.306 22.172 M 35.556 56.497 C 33.538 58.959, 31.192 63.014, 30.343 65.508 C 29.326 68.492, 28.286 69.949, 27.298 69.771 C 26.246 69.581, 24.968 71.837, 23.015 77.334 C 19.725 86.595, 18.370 88.377, 16.773 85.544 C 15.679 83.603, 15.665 83.603, 14.906 85.544 C 14.485 86.620, 14.109 91.187, 14.070 95.693 C 14.008 102.901, 13.741 104.068, 11.849 105.393 L 9.698 106.900 12.812 111.687 C 16.309 117.063, 15.908 118.408, 11.210 117.060 C 9.444 116.554, 8 116.407, 8 116.735 C 8 117.062, 10.700 120.142, 14 123.579 C 17.300 127.015, 20 130.285, 20 130.844 C 20 131.403, 18.992 132.005, 17.760 132.180 C 12.819 132.885, 14.845 135.556, 24.215 140.684 C 30.827 144.303, 33.592 146.375, 33.820 147.883 C 34.110 149.806, 33.668 150, 28.986 150 C 22.194 150, 22.764 151.503, 31.260 156 C 34.897 157.925, 39.138 160.466, 40.686 161.647 C 43.092 163.482, 43.331 164.077, 42.332 165.751 C 41.238 167.586, 41.617 167.789, 48.332 168.978 C 58.025 170.693, 67.491 173.681, 69.003 175.503 C 70.715 177.566, 68.629 179.995, 65.128 180.015 C 63.682 180.024, 61.825 180.474, 61 181.015 C 58.887 182.402, 60.730 183.441, 68.939 185.489 C 75.945 187.237, 80 189.329, 80 191.194 C 80 191.826, 79.230 193.193, 78.290 194.232 C 75.735 197.055, 77.993 197.967, 87.583 197.985 C 92.029 197.993, 95.987 198.320, 96.378 198.712 C 96.770 199.103, 96.057 200.218, 94.795 201.189 C 92.543 202.922, 92.649 202.956, 100.445 202.978 C 107.675 202.998, 108.641 203.240, 111.174 205.666 L 113.957 208.333 125.351 206.072 L 136.744 203.812 147.011 205.906 C 152.658 207.058, 158.186 208, 159.294 208 C 161.184 208, 161.206 207.885, 159.655 206.171 C 157.265 203.531, 157.574 203, 161.500 203 C 165.484 203, 165.871 202.098, 163 199.500 C 161.900 198.505, 161 197.327, 161 196.884 C 161 196.441, 164.938 195.948, 169.750 195.789 L 178.500 195.500 174.187 192.698 C 171.566 190.995, 169.996 189.274, 170.187 188.313 C 170.393 187.272, 174.708 185.292, 182.782 182.533 C 201.772 176.044, 201.754 174.632, 182.665 173.120 C 168.905 172.030, 165.846 170.932, 168.475 168.028 C 171.865 164.282, 170.412 163.591, 156.675 162.419 C 150.118 161.859, 148.478 161.349, 146.552 159.272 C 144.637 157.207, 143.910 156.978, 142.193 157.897 C 139.275 159.458, 138.775 159.284, 139.512 156.961 C 140.060 155.235, 139.802 154.995, 137.830 155.400 C 132.734 156.447, 125.318 156.985, 124.686 156.353 C 124.318 155.985, 124.466 155.143, 125.015 154.482 C 125.762 153.582, 124.693 153.124, 120.758 152.658 C 117.257 152.243, 114.081 151.032, 111.239 149.029 C 108.244 146.918, 104.445 145.526, 98.487 144.355 C 90.316 142.750, 88.728 141.904, 91.112 140.431 C 91.726 140.051, 86.543 136.732, 79.539 133.021 C 72.563 129.324, 65.973 125.417, 64.895 124.340 C 63.818 123.262, 62.673 120.607, 62.352 118.440 C 61.679 113.909, 57.917 107.831, 54.330 105.481 C 52.398 104.214, 52.113 103.569, 53.009 102.490 C 53.903 101.413, 53.235 99.764, 49.942 94.914 L 45.733 88.716 48.539 89.420 L 51.345 90.125 47.628 86.010 C 42.488 80.321, 41.845 78.177, 41.247 64.724 C 40.959 58.246, 40.386 52.739, 39.974 52.484 C 39.561 52.229, 37.573 54.035, 35.556 56.497 M 924 90.773 C 923.175 91.050, 918.288 94.196, 913.139 97.764 C 904.122 104.014, 903.604 104.232, 899.026 103.689 C 890.298 102.656, 889.831 106.560, 897 120.599 C 902.403 131.178, 902.953 133.832, 900.250 136.265 C 899.288 137.131, 891.975 141.314, 884 145.561 C 856.957 159.963, 850.078 165.432, 836.738 183.130 C 828.261 194.377, 827.337 195.046, 819.792 195.392 C 816.228 195.555, 812.723 196.053, 812.002 196.499 C 811.281 196.944, 806.637 198.122, 801.681 199.116 C 789.735 201.513, 775.109 208.829, 771.289 214.319 C 767.273 220.092, 764.440 236.884, 768.395 231.475 C 769.032 230.604, 770.216 230.155, 771.026 230.477 C 771.837 230.799, 775.707 237.686, 779.626 245.781 C 787.751 262.564, 794.612 272.614, 798.635 273.623 C 802.366 274.560, 804.575 272.857, 804.165 269.359 C 803.434 263.128, 803.524 262.558, 805.298 262.199 C 807.795 261.694, 809.716 263.540, 812.828 269.437 L 815.500 274.500 815.807 269.113 C 816.074 264.421, 815.740 263.259, 813.219 260.113 C 808.616 254.367, 807.724 252.083, 808.340 247.606 C 808.650 245.348, 808.182 239.114, 807.299 233.752 C 805.774 224.491, 805.786 223.801, 807.532 219.930 C 809.751 215.009, 813.326 212, 816.953 212 C 823.384 212, 829.958 208.749, 845.699 197.784 C 892.800 164.974, 891.506 165.642, 908 165.620 C 916.803 165.608, 920.278 166.115, 929.500 168.751 C 943.733 172.820, 952.510 174.328, 957.496 173.560 C 964.756 172.442, 970.657 169.985, 974.989 166.277 C 980.299 161.732, 982.243 157.374, 981.378 151.960 C 980.839 148.592, 981.112 147.509, 983.012 145.487 C 984.993 143.378, 985.111 142.839, 983.911 141.393 C 983.151 140.476, 980.497 138.863, 978.014 137.807 C 975.531 136.752, 967.700 132.426, 960.612 128.194 C 946.490 119.764, 943.832 116.946, 942.031 108.500 C 940.465 101.153, 939.125 99.155, 933.016 95.052 C 925.811 90.214, 925.751 90.186, 924 90.773 M 916.250 108.591 C 913.913 110.028, 912 111.553, 912 111.981 C 912 113.579, 920.732 119.839, 924.544 120.974 C 926.720 121.622, 930.327 122.006, 932.560 121.826 L 936.620 121.500 935.560 116.047 C 934.694 111.592, 933.949 110.273, 931.495 108.847 C 926.120 105.725, 921.052 105.640, 916.250 108.591 M 732.303 183.761 C 727.856 187.816, 709 214.619, 709 216.885 C 709 217.288, 709.600 218.438, 710.333 219.440 C 711.607 221.182, 711.937 221.140, 717.853 218.485 C 721.257 216.958, 724.309 215.976, 724.636 216.303 C 725.173 216.839, 724.525 219.241, 722.495 224.250 C 721.584 226.498, 723.980 226.579, 728.117 224.440 C 734.798 220.985, 734.423 223.089, 726.078 235.889 C 718.373 247.706, 717.167 250, 718.663 250 C 719.027 250, 724.129 247.300, 730 244 C 735.871 240.700, 740.973 238, 741.337 238 C 742.994 238, 741.610 240.556, 736.873 246.248 C 731.961 252.150, 731.836 252.448, 733.873 253.357 C 735.043 253.879, 736 255.016, 736 255.884 C 736 258.048, 724.226 269.135, 716.236 274.496 C 708.832 279.462, 706.687 279.313, 705.167 273.727 C 704.684 271.952, 703.803 270.603, 703.209 270.729 C 702.615 270.854, 699.062 272.930, 695.314 275.342 C 687.812 280.170, 681.474 282.809, 680.275 281.606 C 679.849 281.178, 681.871 278.729, 684.770 276.164 C 687.668 273.599, 690.031 271.163, 690.020 270.750 C 690.009 270.337, 688.165 270, 685.923 270 C 682.750 270, 681.198 269.352, 678.923 267.077 C 677.315 265.469, 676 263.460, 676 262.612 C 676 258.782, 666.588 257.734, 661.277 260.973 C 657.486 263.284, 656.616 266.009, 657.179 273.804 C 657.740 281.551, 661.724 289.663, 672.754 305.515 C 684.987 323.096, 694.703 332, 701.655 332 C 702.600 332, 707.727 329.965, 713.048 327.478 C 732.264 318.495, 747.910 315.860, 784.500 315.445 C 799.859 315.270, 813.006 314.677, 814.993 314.069 C 821.016 312.226, 821.332 312.440, 820.609 317.888 L 819.961 322.776 824.730 323.672 L 829.500 324.567 829.235 328.753 L 828.970 332.940 838.497 340.101 C 846.134 345.841, 849.895 349.666, 857.453 359.381 C 862.639 366.046, 869.946 374.509, 873.691 378.186 L 880.500 384.873 895.724 385.186 L 910.949 385.500 914.338 382 C 916.202 380.075, 919.141 375.966, 920.869 372.868 C 924.538 366.292, 924.606 366.449, 914.692 358.525 C 905.936 351.526, 900.403 348.293, 893.109 345.912 C 886.659 343.807, 885.922 343.182, 862.500 319.958 C 848.318 305.895, 836.766 295.270, 834.260 293.984 C 828.304 290.928, 819.090 290.035, 800 290.664 C 778.467 291.373, 765.924 289.608, 755.634 284.422 C 742.453 277.779, 740.435 273.238, 751.164 274.359 C 754.402 274.698, 758.232 275.271, 759.677 275.634 C 762.268 276.284, 762.294 276.238, 761.632 272.103 C 760.765 266.676, 759.197 264.264, 755.757 263.065 C 752.245 261.841, 751.285 259.447, 753.379 257.134 C 754.369 256.040, 755 253.588, 755 250.838 C 755 245.535, 755.771 244.380, 757.718 246.766 C 758.948 248.272, 759.063 246.397, 758.594 232.500 C 758.297 223.700, 757.572 213.625, 756.983 210.111 C 756.013 204.326, 756.094 203.524, 757.841 201.611 C 758.902 200.450, 760.064 198.529, 760.423 197.343 C 761.016 195.384, 757.770 180.437, 756.470 179.136 C 756.169 178.836, 754.478 179.193, 752.712 179.930 C 747.474 182.115, 742.570 182.391, 741.072 180.587 C 739.086 178.193, 737.963 178.599, 732.303 183.761 M 352 203 C 349.525 203.421, 345.701 204.263, 343.502 204.871 C 340.256 205.768, 338.700 205.669, 335.233 204.345 C 331.255 202.825, 330.700 202.831, 327.156 204.430 C 325.062 205.374, 322.040 207.191, 320.438 208.467 L 317.527 210.789 321.264 212.993 C 323.319 214.206, 325 215.975, 325 216.924 C 325 219.502, 321.047 222.676, 316.250 223.949 C 311.427 225.229, 310.547 227.699, 314.741 228.184 C 316.327 228.367, 317.615 229.198, 317.797 230.155 C 318.139 231.965, 313.609 235.387, 297.043 245.831 C 291.519 249.314, 287 252.801, 287 253.581 C 287 254.362, 287.258 255, 287.572 255 C 287.887 255, 293.092 252.534, 299.139 249.519 C 310.349 243.930, 318.472 241, 322.755 241 C 327.701 241, 324.490 244.931, 311.500 254.773 L 308.500 257.046 321.250 256.388 C 335.781 255.637, 336.496 256.088, 330.896 262.465 C 329.189 264.409, 328.077 266, 328.425 266 C 328.773 266, 331.731 264.650, 335 263 C 338.269 261.350, 342.074 260, 343.456 260 C 346.754 260, 350.943 256.100, 356.884 247.500 C 362.409 239.502, 365.291 238.320, 365.820 243.836 C 366.277 248.602, 361.480 264.610, 357.830 270.500 C 355.426 274.380, 354.696 276.757, 354.573 281.110 C 354.478 284.447, 353.730 287.763, 352.726 289.295 C 351.798 290.712, 346.117 296.204, 340.101 301.500 C 330.525 309.931, 328 312.675, 328 314.649 C 328 315.540, 332.416 313.864, 341.500 309.523 C 352.346 304.341, 365.342 300.127, 373.500 299.148 C 376.800 298.752, 383.575 298.851, 388.556 299.369 C 395.676 300.110, 398.562 300.008, 402.056 298.893 C 406.096 297.603, 406.481 297.203, 406.288 294.487 C 406.009 290.557, 400.495 285.483, 394.830 283.944 C 392.216 283.234, 387.647 283.005, 383.299 283.367 C 372.251 284.286, 372.246 281.115, 383.289 276.627 C 388.790 274.391, 388.887 274.284, 387.373 272.122 C 385.067 268.829, 386.293 267, 390.807 267 C 394.577 267, 410.448 274.065, 417.372 278.826 L 420.245 280.801 424.818 277.900 C 427.334 276.305, 429.926 275, 430.579 275 C 431.233 275, 433.385 276.791, 435.362 278.979 C 438.405 282.347, 439.400 282.870, 441.834 282.383 C 444.447 281.861, 444.771 282.106, 445.362 285.059 C 446.027 288.387, 447.637 291, 449.023 291 C 449.451 291, 450.343 288.741, 451.005 285.979 C 452.330 280.454, 454.779 278.276, 457.829 279.908 C 458.834 280.447, 461.551 284.796, 463.865 289.574 C 466.179 294.352, 468.320 298.013, 468.624 297.710 C 468.927 297.406, 469.923 295.687, 470.838 293.889 C 471.752 292.090, 472.950 290.484, 473.500 290.319 C 474.050 290.154, 478.550 292.939, 483.500 296.507 C 489.900 301.121, 494.522 303.607, 499.500 305.112 C 503.350 306.276, 509.117 308.549, 512.315 310.161 L 518.129 313.094 521.605 310.042 C 524.892 307.156, 525.232 307.069, 527.875 308.435 C 529.411 309.230, 532.890 311.636, 535.605 313.782 C 543.144 319.741, 544.205 320.086, 558.483 321.214 L 571.794 322.267 582.315 318.633 C 588.102 316.635, 594.154 315, 595.763 315 C 598.797 315, 601.996 317.603, 602.006 320.079 C 602.015 322.589, 604.068 329, 604.862 329 C 605.284 329, 606.370 327.447, 607.275 325.549 C 608.180 323.651, 610.116 321.315, 611.576 320.358 C 613.936 318.812, 614.514 318.779, 616.785 320.059 C 618.190 320.852, 620.741 323.493, 622.453 325.928 C 624.166 328.363, 626.056 330.519, 626.655 330.718 C 627.253 330.918, 628.241 329.100, 628.850 326.680 C 629.460 324.260, 630.530 321.809, 631.229 321.235 C 631.928 320.661, 637.337 317.634, 643.250 314.509 C 649.163 311.384, 654 308.605, 654 308.334 C 654 307.366, 647.390 309.260, 640.832 312.106 C 633.056 315.481, 630.449 315.708, 629.068 313.128 C 627.092 309.435, 629.810 303.497, 638.205 293.165 C 641.483 289.131, 643.905 285.572, 643.589 285.255 C 642.543 284.210, 635.524 286.891, 624.664 292.484 C 618.774 295.518, 613.741 298, 613.478 298 C 611.771 298, 613.681 293.133, 617.671 287.313 C 620.240 283.566, 624.290 277.659, 626.671 274.187 C 629.052 270.715, 631 267.414, 631 266.852 C 631 266.290, 628.799 267.446, 626.108 269.421 C 616.929 276.158, 610.343 277.379, 607.891 272.796 C 606.915 270.972, 606.290 271.349, 599.667 277.754 C 589.319 287.763, 589.089 287.837, 583.502 283.002 C 580.935 280.780, 577.833 279, 576.529 279 C 575.237 279, 571.856 280.837, 569.015 283.082 C 562.901 287.915, 557.934 290.195, 556.052 289.032 C 554.737 288.219, 554.885 285.145, 556.597 277.750 C 557.538 273.682, 554.758 274.163, 549.237 279.023 C 543.739 283.862, 541.108 284.649, 535.770 283.049 C 533.228 282.288, 529.538 282.089, 525.856 282.517 C 515.253 283.747, 505 279.733, 505 274.350 C 505 271.829, 508.290 267.921, 513 264.849 C 514.375 263.952, 515.214 262.921, 514.865 262.557 C 514.231 261.898, 504.661 265.609, 489.500 272.395 C 480.985 276.206, 476.525 276.836, 473.535 274.649 C 471.885 273.443, 471.811 272.807, 472.844 268.706 C 473.480 266.181, 474 262.964, 474 261.557 C 474 258.107, 471.564 258.206, 461.655 262.061 C 457.170 263.805, 452.458 264.981, 450.655 264.806 C 447.605 264.510, 447.509 264.357, 447.771 260.224 C 448.315 251.649, 445.193 250.371, 431.698 253.645 C 423.774 255.568, 421.860 254.798, 423.827 250.480 C 424.472 249.064, 425 247.551, 425 247.117 C 425 246.683, 420.310 246.537, 414.577 246.792 C 408.844 247.047, 402.980 246.961, 401.546 246.601 C 397.965 245.702, 395.176 240.680, 394.388 233.710 C 393.564 226.429, 392.156 224.808, 387.755 226.070 C 378.654 228.680, 377.565 225.862, 385.428 220.053 C 395.384 212.699, 395.724 209.345, 386.998 204.595 C 382.523 202.160, 381.437 202.007, 369.365 202.118 C 362.289 202.182, 354.475 202.579, 352 203 M 235.500 319.631 C 218.335 325.351, 217.307 325.845, 215.998 329.005 C 213.657 334.656, 205.584 340.825, 192.371 347.061 C 185.449 350.327, 179.159 353, 178.393 353 C 177.584 353, 177 351.980, 177 350.567 C 177 347.043, 174.598 346.704, 162.854 348.571 C 143.222 351.693, 137.691 354.189, 127.500 364.530 C 117.756 374.418, 105 381.382, 88.343 385.909 C 64.845 392.294, 46.538 400.449, 40.367 407.279 C 27.685 421.316, 28.311 446, 41.348 446 C 43.830 446, 45.597 444.768, 50.463 439.645 C 53.783 436.150, 58.075 432.234, 60 430.942 C 61.925 429.651, 67.775 424.477, 73 419.445 C 82.097 410.683, 98.763 398.716, 109.500 393.235 C 115.596 390.123, 132.698 382.874, 143.352 378.886 L 151.204 375.947 165.852 377.135 C 179.146 378.214, 182.163 378.127, 198.500 376.194 C 219.949 373.656, 243.836 368.372, 253.447 364.039 C 264.980 358.839, 282.117 343.897, 283.884 337.500 C 285.354 332.177, 285.295 328.002, 283.750 327.993 C 283.063 327.990, 278.271 329.183, 273.103 330.645 C 262.516 333.641, 260.954 333.321, 259.852 327.931 C 259.472 326.074, 258.563 324.357, 257.831 324.117 C 257.099 323.876, 254.915 321.952, 252.978 319.840 C 250.939 317.616, 248.624 316.063, 247.478 316.150 C 246.390 316.232, 241 317.799, 235.500 319.631 M 324.781 361.507 C 314.994 365.103, 302.292 372.630, 297.295 377.795 C 292.390 382.865, 290 383.732, 290 380.441 C 290 379.648, 289.511 379, 288.913 379 C 286.435 379, 271.935 390.137, 263.042 398.872 C 257.794 404.026, 248.887 411.349, 243.249 415.145 C 237.610 418.941, 229.960 424.658, 226.249 427.851 C 219.450 433.697, 215.148 436.669, 200.525 445.619 C 196.106 448.323, 189.193 453.893, 185.025 458.107 C 180.886 462.291, 173.675 468.780, 169 472.529 C 143.324 493.114, 136.996 503.881, 137.004 526.960 C 137.008 538.650, 138.555 542.929, 143.611 545.233 C 146.054 546.346, 146.485 546.129, 150.115 541.962 C 157.221 533.807, 169.566 514.409, 181.276 493 C 183.231 489.425, 189.106 481.598, 194.330 475.606 C 199.555 469.615, 205.331 462.016, 207.165 458.720 C 211.963 450.097, 217.262 444.583, 223.663 441.553 C 228.979 439.036, 276.323 404.006, 288 393.950 C 291.025 391.345, 298.450 386.176, 304.500 382.464 C 321.463 372.054, 323.578 370.407, 326.893 365.019 C 330.257 359.553, 330.229 359.506, 324.781 361.507 M 880.823 396.932 C 884.082 399.645, 888.998 403.248, 891.746 404.939 C 894.495 406.630, 897.915 409.784, 899.347 411.949 C 907.467 424.218, 926.487 436.619, 942.420 440.031 C 947.938 441.213, 951.727 440.654, 957.291 437.836 C 965.129 433.869, 967.085 428.920, 962.912 423.615 C 960.058 419.987, 957.134 418.625, 941.124 413.470 C 930.049 409.904, 926.560 408.321, 923.579 405.509 C 921.532 403.579, 919.603 402, 919.292 402 C 915.057 402, 891.901 397.162, 885.467 394.933 C 880.812 393.320, 876.530 392, 875.950 392 C 875.370 392, 877.563 394.219, 880.823 396.932"/>
</svg>