<?xml version="1.0" encoding="utf-8"?>
<svg xmlns="http://www.w3.org/2000/svg" width="1002" height="282" viewBox="0 0 1002 282">
  <path fill-rule="evenodd" d="M 918.739 3.875 C 916.616 13.569, 919.656 25.551, 926.888 36 C 930.453 41.151, 934 43.631, 934 40.973 C 934 40.328, 931.514 35.410, 928.476 30.045 C 923.268 20.846, 920.903 13.606, 919.804 3.500 L 919.478 0.500 918.739 3.875 M 929 3.374 C 929 5.346, 933.256 14.056, 940.056 26 C 949.223 42.100, 950.162 52.604, 944.460 75.219 C 942.413 83.337, 941 91.401, 941 94.969 C 941 99.144, 940.615 100.990, 939.750 100.969 C 937.447 100.911, 934.854 95.975, 933.807 89.655 C 932.861 83.944, 933.104 81.851, 936.559 65.946 C 938.643 56.351, 940.542 46.813, 940.779 44.750 C 941.450 38.913, 939.284 40.296, 938.469 46.226 C 938.074 49.100, 936.248 55.603, 934.411 60.677 C 927.385 80.086, 927.595 94.830, 935.003 102.238 C 939.261 106.496, 940.783 106.806, 944.129 104.097 C 946.306 102.334, 946.487 101.434, 946.588 91.847 C 946.673 83.783, 947.317 79.294, 949.508 71.500 C 953.359 57.804, 954.157 47.387, 951.999 38.996 C 949.940 30.991, 949.532 30.196, 940.462 16.484 C 932.526 4.488, 929 0.454, 929 3.374 M 902 16.427 C 902 19.559, 909.392 31.805, 914.296 36.797 C 919.909 42.511, 928.675 48.658, 929.720 47.614 C 930.074 47.260, 925.374 42.095, 919.276 36.138 C 912.099 29.126, 907.267 23.487, 905.577 20.152 C 902.897 14.863, 902 13.929, 902 16.427 M 893 30.532 C 893 32.487, 896.360 38.432, 898.699 40.616 C 906.501 47.898, 925 57.258, 925 53.923 C 925 51.817, 921.020 47.222, 918.689 46.637 C 914.274 45.529, 902.591 38.493, 898.120 34.250 C 893.643 30.001, 893 29.534, 893 30.532 M 890 44.540 C 890 46.439, 894.466 53.163, 898.137 56.792 C 901.293 59.911, 903.984 61.490, 907.989 62.572 C 915.116 64.497, 920.182 65.998, 921.750 66.648 C 922.438 66.933, 923 66.784, 923 66.317 C 923 65.107, 913.413 59.615, 907.500 57.438 C 904.151 56.204, 900.609 53.682, 896.775 49.798 C 891.381 44.335, 890 43.263, 890 44.540 M 430 65.545 C 430 67.102, 432.383 74.553, 433.169 75.450 C 435.697 78.339, 432.784 80.372, 428.057 79.016 C 424.301 77.939, 424.123 79.165, 427.635 81.927 C 432.043 85.395, 443.326 84.838, 456.570 80.500 C 462.446 78.575, 467.824 77, 468.520 77 C 469.216 77, 470.045 76.325, 470.362 75.500 C 471.008 73.814, 475.691 73.508, 478 75 C 479.246 75.805, 479.161 75.979, 477.500 76.027 C 476.400 76.059, 473.524 77.821, 471.108 79.942 L 466.716 83.799 472.226 84.943 C 475.257 85.572, 478.498 86.644, 479.428 87.324 C 480.795 88.323, 478.562 88.491, 467.810 88.197 C 458.485 87.942, 453.325 88.232, 450.577 89.166 C 445.417 90.920, 444.706 93, 449.267 93 C 451.156 93, 454.149 93.505, 455.918 94.121 L 459.134 95.242 455.817 98.109 C 451.605 101.748, 440.396 107.610, 432.030 110.548 C 424.226 113.289, 423.133 114.994, 429.167 115.015 C 433.912 115.032, 437.243 116.494, 435.398 117.750 C 434.792 118.162, 430.861 120.750, 426.661 123.500 C 419.752 128.024, 416.649 131.116, 420.500 129.638 C 422.723 128.785, 422.399 129.545, 418 135.500 C 413.864 141.098, 412.817 144.391, 415.500 143.362 C 416.695 142.903, 417 143.692, 417 147.238 C 417 150.319, 417.577 152.212, 418.873 153.385 C 420.678 155.019, 420.762 154.883, 421.198 149.628 C 421.686 143.740, 423.213 141.285, 432.271 131.829 C 437.741 126.119, 439.624 125.983, 439.163 131.332 C 438.691 136.808, 441.441 137.411, 445.496 132.720 C 448.357 129.410, 452.068 127.149, 456 126.320 C 460.993 125.267, 468.573 124.318, 468.986 124.695 C 469.253 124.939, 467.228 127.159, 464.486 129.630 C 461.744 132.101, 460.175 133.899, 461 133.627 C 461.825 133.355, 465.468 132.204, 469.094 131.070 C 480.450 127.519, 485.346 122.868, 487.961 113.150 C 488.976 109.377, 489.420 108.879, 491.315 109.387 C 492.517 109.709, 494.038 109.979, 494.695 109.986 C 495.353 109.994, 497.556 113.169, 499.592 117.042 C 502.919 123.375, 506.915 128, 509.058 128 C 509.492 128, 511.184 126.875, 512.818 125.500 C 514.452 124.125, 516.650 123, 517.703 123 C 518.756 123, 520.491 122.339, 521.559 121.532 C 522.626 120.724, 524.063 120.049, 524.750 120.032 C 526.512 119.987, 526.311 122.667, 524.500 123.362 C 521.964 124.335, 522.838 126, 525.885 126 C 533.258 126, 547 118.480, 547 114.445 C 547 112.087, 542.306 109.689, 538.988 110.352 C 537.345 110.681, 536 110.537, 536 110.032 C 536 108.801, 540.084 106, 541.878 106 C 543.610 106, 557 96.989, 557 95.823 C 557 94.530, 556.156 94.822, 552.280 97.456 C 550.292 98.806, 548.299 99.685, 547.851 99.408 C 547.402 99.131, 545.348 100.050, 543.286 101.452 C 538.568 104.658, 536.955 104.649, 533.924 101.405 C 530.239 97.460, 526.646 96, 520.622 96 C 515.887 96, 514.863 96.359, 513.059 98.653 C 511.911 100.112, 510.833 101.124, 510.662 100.903 C 510.492 100.681, 509.301 98.925, 508.015 97 C 503.879 90.806, 500.632 87.928, 494.441 84.973 C 487.787 81.796, 483.379 78, 486.345 78 C 488.383 78, 488.509 75.667, 486.559 74.049 C 485.767 73.392, 485.333 72.296, 485.595 71.614 C 486.535 69.164, 482.246 66.798, 475.803 66.213 C 462.560 65.011, 456.262 65.690, 459.886 67.929 C 461.685 69.042, 460.547 69.598, 452.784 71.398 C 446.873 72.769, 445.601 72.774, 441.122 71.444 C 438.357 70.623, 434.724 68.797, 433.047 67.386 C 431.371 65.976, 430 65.148, 430 65.545 M 899.004 73.095 C 899.002 73.422, 899.823 74.435, 900.829 75.345 C 904.497 78.664, 919.512 77.014, 920.787 73.152 C 921.147 72.062, 919.106 71.871, 910.120 72.152 C 904.008 72.343, 899.006 72.768, 899.004 73.095 M 917.640 80.426 C 916.419 82.290, 914.308 83.240, 908.528 84.526 C 904.391 85.446, 901.256 86.605, 901.562 87.100 C 902.546 88.692, 913.294 88.100, 917 86.248 C 919.768 84.866, 920.566 83.820, 920.813 81.250 C 921.185 77.399, 919.851 77.052, 917.640 80.426 M 505 82.883 C 505 84.146, 508.712 84.970, 514.500 84.992 C 521.999 85.021, 526.743 86.722, 531.467 91.076 C 533.808 93.234, 536.236 95, 536.862 95 C 540.682 95, 533.812 85.655, 528.298 83.351 C 524.670 81.835, 505 81.440, 505 82.883 M 961.229 91.438 C 957.689 94.978, 954.985 98.456, 955.222 99.166 C 955.747 100.741, 963.892 105.812, 966.072 105.921 C 966.937 105.965, 970.312 104.554, 973.572 102.786 C 976.833 101.019, 982.181 98.601, 985.458 97.413 C 988.735 96.225, 991.570 94.790, 991.759 94.224 C 991.947 93.658, 989.716 92.425, 986.801 91.485 C 983.885 90.544, 979.620 88.700, 977.322 87.387 C 970.652 83.576, 968.566 84.101, 961.229 91.438 M 914.649 92.971 C 912.530 94.574, 909.493 96.172, 907.899 96.522 C 904.967 97.166, 903.840 99, 906.375 99 C 911.903 99, 920 94.305, 920 91.099 C 920 89.399, 918.825 89.810, 914.649 92.971 M 919.177 99.512 C 918.196 101.664, 911.107 107.067, 907.614 108.325 C 907.001 108.546, 906.793 109.043, 907.151 109.430 C 908.175 110.539, 917.577 105.353, 919.901 102.398 C 922.044 99.674, 922.668 97, 921.161 97 C 920.699 97, 919.806 98.130, 919.177 99.512 M 946.864 105.400 C 946.184 106.891, 943.598 109.018, 940.720 110.452 C 937.985 111.815, 935.131 114.121, 934.375 115.579 C 932.621 118.959, 932.628 119, 934.941 119 C 938.337 119, 938.127 120.758, 934.460 123.025 C 930.088 125.727, 930.439 127.315, 935.578 128.095 L 939.500 128.690 936.250 130.064 C 934.462 130.820, 933 131.781, 933 132.200 C 933 133.936, 938.346 134.205, 941.639 132.635 C 943.525 131.736, 945.347 131, 945.689 131 C 947.279 131, 942.518 134.913, 938.998 136.501 C 931.024 140.097, 938.181 141.337, 947.775 138.022 C 954.174 135.811, 958.655 131.505, 962.594 123.783 C 966.125 116.862, 965.790 115.011, 960.250 110.805 C 957.638 108.822, 953.821 106.215, 951.769 105.012 L 948.037 102.824 946.864 105.400 M 929.638 106.500 C 928.949 108.296, 924.885 108.485, 923.200 106.800 C 922.267 105.867, 922 106.085, 922 107.781 C 922 110.408, 925.391 111.525, 930.471 110.571 C 934.362 109.841, 935.285 108.906, 934.396 106.590 C 933.624 104.577, 930.400 104.516, 929.638 106.500 M 915 110.795 C 913.075 111.743, 911.500 113.183, 911.500 113.996 C 911.500 116.177, 893.325 124.041, 873 130.653 C 863.375 133.785, 853.043 137.430, 850.039 138.754 C 835.643 145.100, 822.245 155.314, 817.343 163.678 C 813.787 169.746, 815.142 170.256, 820.040 164.692 C 825.968 157.957, 837.377 150.724, 846.934 147.642 C 851.438 146.189, 855.627 145, 856.243 145 C 856.858 145, 853.463 148.985, 848.697 153.855 C 840.301 162.435, 836.068 169.080, 836.022 173.750 C 836.010 174.988, 836.337 175.969, 836.750 175.931 C 837.163 175.892, 840.161 172.238, 843.413 167.809 C 852.059 156.035, 866.509 146.055, 875 145.994 C 876.925 145.981, 879.108 145.584, 879.851 145.113 C 880.649 144.608, 883.105 144.829, 885.846 145.654 C 890.929 147.184, 893.902 146.816, 900.685 143.815 C 904.119 142.296, 906.283 141.989, 909.969 142.496 C 914.257 143.085, 914.952 142.906, 916.399 140.841 C 917.922 138.666, 917.897 138.431, 915.982 136.986 C 913.970 135.468, 913.989 135.403, 917.471 132.028 C 919.412 130.147, 921 127.851, 921 126.926 C 921 126.002, 921.675 124.685, 922.500 124 C 924.640 122.224, 924.354 120.674, 922 121.290 C 919.327 121.989, 919.480 121.211, 922.581 118.337 L 925.162 115.945 923.128 112.723 C 920.670 108.828, 919.537 108.560, 915 110.795 M 561.382 112.829 C 562.417 113.995, 565.342 115.972, 567.882 117.222 C 571.741 119.121, 574.129 119.495, 582.417 119.497 L 592.333 119.500 593.297 122.500 C 593.827 124.150, 594.939 126.279, 595.768 127.231 C 597.140 128.806, 596.859 129.450, 592.638 134.390 C 587.862 139.981, 586.993 142, 589.363 142 C 591.408 142, 599.810 132.585, 600.664 129.336 C 601.074 127.776, 601.430 124.025, 601.455 121 L 601.500 115.500 593 114.746 C 574.033 113.063, 565.350 112.119, 562.500 111.432 C 559.506 110.711, 559.504 110.713, 561.382 112.829 M 29 132.621 C 24.395 133.499, 17 136.385, 17 137.305 C 17 137.805, 17.690 137.949, 18.533 137.626 C 24.485 135.342, 33.249 134.746, 42.141 136.020 C 52.337 137.482, 59.232 140.660, 97.500 161.541 C 121.772 174.785, 128.470 177.428, 146.801 180.995 C 168.708 185.259, 188.521 182.735, 210.309 172.904 C 216.352 170.178, 225.167 166.854, 229.898 165.517 C 234.629 164.181, 241.150 162.171, 244.388 161.050 C 253.916 157.753, 265.791 155.956, 278.965 155.818 C 289.552 155.706, 291.034 155.498, 289.456 154.344 C 286.013 151.826, 250.023 153.806, 240 157.065 C 231.075 159.966, 213.609 166.687, 204.948 170.553 C 193.333 175.737, 189.112 176.949, 177.531 178.423 C 166.171 179.869, 156.790 178.915, 139.646 174.570 C 125.876 171.080, 124.165 170.274, 72 142.704 C 65.125 139.070, 56.800 135.395, 53.500 134.537 C 47.201 132.898, 33.260 131.808, 29 132.621 M 551.455 140.455 C 550.105 141.805, 549 143.513, 549 144.252 C 549 146.378, 556.362 153, 558.727 153 C 564.551 153, 568.465 148.917, 564 147.500 C 562.900 147.151, 562 146.265, 562 145.530 C 562 144.432, 562.841 144.451, 566.750 145.635 C 571.594 147.102, 576.565 146.724, 575.482 144.971 C 575.152 144.437, 573.829 144, 572.543 144 C 571.256 144, 567.637 142.650, 564.500 141 C 557.577 137.358, 554.672 137.237, 551.455 140.455 M 15 147.065 C 9.373 147.969, 2 150.890, 2 152.216 C 2 152.765, 2.655 152.963, 3.456 152.655 C 4.257 152.348, 7.519 151.564, 10.706 150.913 C 15.751 149.882, 17.980 150.014, 27.954 151.934 C 44.109 155.043, 57.313 159.458, 61.529 163.160 C 65.574 166.711, 66.415 164.819, 62.615 160.718 C 55.166 152.681, 28.190 144.945, 15 147.065 M 434.152 153.723 C 433.495 154.946, 432.855 157.756, 432.729 159.968 C 432.439 165.053, 430.932 164.633, 429 158.928 L 427.500 154.500 427.197 159.194 C 426.818 165.087, 428.673 168.797, 436.315 177.431 C 442.900 184.871, 445.566 186.137, 441.159 179.731 C 438.106 175.294, 436.012 169.304, 436.009 165 C 436.008 162.573, 436.064 162.593, 437.958 165.698 C 439.030 167.457, 443.641 172.670, 448.204 177.282 C 455.625 184.783, 457.367 186.001, 464.718 188.834 C 474.810 192.722, 479.194 192.897, 482.545 189.545 C 483.895 188.195, 485 186.170, 485 185.045 C 485 183.920, 484.999 182.662, 484.997 182.250 C 484.996 181.838, 482.833 181.494, 480.192 181.486 C 476.216 181.475, 473.593 180.471, 464.945 175.652 C 459.109 172.400, 452.073 167.495, 449 164.537 C 445.975 161.625, 442.260 158.954, 440.745 158.601 C 438.884 158.168, 437.560 156.910, 436.668 154.730 C 435.362 151.539, 435.331 151.527, 434.152 153.723 M 399.500 153.721 C 397.850 153.953, 389.300 155.945, 380.500 158.148 C 359.466 163.413, 349.267 164.564, 340.859 162.621 C 337.368 161.815, 334.327 161.339, 334.102 161.564 C 333.877 161.790, 335.450 162.767, 337.596 163.737 C 340.842 165.203, 344.031 165.468, 356.508 165.309 C 364.762 165.205, 373.537 164.613, 376.008 163.994 C 378.478 163.375, 382.075 162.461, 384 161.964 C 385.925 161.466, 391.866 160.017, 397.202 158.744 C 407.581 156.267, 409.293 155.429, 406.971 153.961 C 405.467 153.010, 404.730 152.986, 399.500 153.721 M 526 156.442 C 521.875 157.737, 517.375 159.241, 516 159.785 C 511.828 161.436, 501.419 169.584, 498.370 173.585 C 495.782 176.982, 495.500 178.111, 495.500 185.091 C 495.500 193.424, 494.225 194.243, 491.957 187.368 C 491.326 185.459, 490.291 184.070, 489.655 184.281 C 487.294 185.067, 487.926 188.315, 491.483 193.673 C 493.497 196.705, 496.265 202.632, 497.635 206.843 C 500.208 214.755, 503.140 220.312, 507.480 225.500 C 510.694 229.341, 510.643 228.425, 506.955 216.009 C 505.280 210.371, 504.153 205.514, 504.450 205.216 C 504.748 204.919, 506.140 205.198, 507.543 205.838 C 510.588 207.225, 516 207.379, 516 206.078 C 516 205.570, 514.525 204.668, 512.723 204.074 C 505.831 201.799, 498.992 193.927, 499.004 188.282 C 499.006 187.054, 499.613 187.493, 500.956 189.696 C 503.055 193.137, 507.662 196.672, 508.698 195.635 C 509.048 195.285, 507.914 193.233, 506.179 191.073 C 501.916 185.769, 500.621 182.646, 501.398 179.549 C 503.058 172.938, 515.732 163.641, 527.065 160.721 C 533.946 158.947, 538.505 156.820, 538.253 155.500 C 537.912 153.713, 533.654 154.040, 526 156.442 M 21.750 156.688 C 16.932 157.467, 18.794 159, 24.558 159 C 29.894 159, 30.285 159.185, 34.308 163.614 C 44.370 174.689, 58.057 183.731, 72 188.516 C 91.212 195.108, 94.947 196.975, 97.012 201.023 C 98.095 203.147, 98.735 205.526, 98.434 206.311 C 98.105 207.169, 98.647 207.936, 99.795 208.236 C 101.054 208.565, 102.812 211.416, 104.963 216.618 C 112.250 234.235, 119.712 247.327, 126.861 255.038 C 137.516 266.530, 137.672 261.914, 127.094 248.151 C 123.860 243.943, 119.406 236.877, 117.196 232.449 C 112.992 224.025, 108 212.269, 108 210.793 C 108 210.318, 112.612 210.058, 118.250 210.215 L 128.500 210.500 129.195 219 C 129.665 224.748, 131.652 233.449, 135.333 245.875 C 140.503 263.331, 140.981 264.439, 144.888 268.010 C 147.149 270.077, 149 272.651, 149 273.729 C 149 277.390, 154.840 280.686, 156.517 277.973 C 156.866 277.408, 156.177 274.931, 154.985 272.469 C 152.167 266.647, 150.798 247.309, 152.056 231.076 C 153.235 215.852, 153.231 204.261, 152.047 203.529 C 150.069 202.307, 146.685 223.298, 145.371 244.940 C 144.995 251.129, 144.355 255.587, 143.948 254.847 C 141.659 250.676, 134.884 225.540, 133.057 214.437 C 131.886 207.322, 130.462 200.044, 129.891 198.264 C 128.070 192.582, 126.886 193.411, 127.203 200.146 L 127.500 206.468 117 206.144 C 105.259 205.781, 103.049 204.708, 100.951 198.351 C 100.194 196.057, 96.472 191.997, 89.172 185.502 C 79.248 176.672, 73.979 173.031, 78.677 178.250 C 82.374 182.356, 82.688 183.675, 79.461 181.543 C 77.833 180.466, 72.675 177.383, 68 174.691 C 63.325 171.999, 56.284 167.800, 52.352 165.359 C 41.479 158.607, 29.998 155.354, 21.750 156.688 M 290.750 159.327 C 284.919 161.518, 283.392 163, 286.965 163 C 288.046 163, 291.051 163.720, 293.643 164.600 C 297.948 166.062, 298.644 166.063, 301.678 164.616 C 305.689 162.704, 305.804 161.778, 302.365 159.073 C 299.160 156.551, 298.071 156.575, 290.750 159.327 M 41.547 166.076 C 46.387 171.066, 57.906 178.898, 66.287 182.898 C 74.601 186.866, 89.145 192.189, 89.822 191.512 C 90.758 190.576, 83.825 184.130, 82.449 184.658 C 80.929 185.241, 63.990 176.739, 54.806 170.782 C 48.232 166.518, 39.793 162, 38.402 162 C 37.958 162, 39.373 163.834, 41.547 166.076 M 237.773 167.604 C 232.886 170.746, 230.605 174.290, 231.409 177.493 C 232.208 180.679, 232.817 180.640, 237.723 177.086 C 240.730 174.908, 241.921 173.234, 242.442 170.456 C 243.380 165.456, 242.218 164.746, 237.773 167.604 M 257.105 168.803 C 256.370 170.177, 256.596 170.891, 258.057 171.803 C 259.111 172.461, 260.638 173, 261.451 173 C 263.187 173, 265.364 169.399, 264.487 167.979 C 263.434 166.275, 258.142 166.865, 257.105 168.803 M 374.370 168.440 C 370.432 170.154, 369.478 171.666, 371.100 173.620 C 372.137 174.870, 372.107 175.337, 370.936 176.152 C 369.841 176.915, 369.796 177.273, 370.750 177.659 C 371.438 177.938, 372 179.029, 372 180.083 C 372 182.704, 372.883 182.527, 379.411 178.596 C 386.133 174.548, 388.230 172.897, 387.533 172.200 C 387.249 171.916, 387.547 171.046, 388.194 170.266 C 389.110 169.162, 389.053 168.646, 387.936 167.939 C 385.807 166.592, 377.951 166.882, 374.370 168.440 M 982.787 170.500 C 981.943 172.150, 978.938 178.986, 976.110 185.691 C 971.351 196.976, 970.785 199.206, 968.503 215.691 C 967.147 225.486, 965.587 239.492, 965.037 246.815 C 964.488 254.138, 963.742 260.609, 963.380 261.195 C 963.010 261.794, 963.294 262.069, 964.030 261.823 C 966.140 261.120, 967.732 255.023, 968.978 242.870 C 969.620 236.617, 970.787 227.115, 971.572 221.757 C 972.358 216.398, 973 210.299, 973 208.203 C 973 204.721, 975.285 197.250, 982.491 177.178 C 985.241 169.516, 985.426 165.343, 982.787 170.500 M 411.200 173.200 C 407.081 177.319, 414.683 185.887, 421.188 184.459 C 424.377 183.758, 424.531 183.287, 422.468 180.559 C 421.661 179.491, 421 177.804, 421 176.809 C 421 175.571, 420.250 175, 418.622 175 C 417.315 175, 415.685 174.325, 415 173.500 C 413.495 171.686, 412.771 171.629, 411.200 173.200 M 350.775 175.559 C 345.580 178.378, 345.010 184, 349.919 184 C 352.136 184, 359.419 176.486, 358.556 175.090 C 357.622 173.579, 354.025 173.795, 350.775 175.559 M 269.608 178.881 C 268.635 179.956, 267.988 181.885, 268.170 183.168 C 268.432 185.019, 269.119 185.500, 271.500 185.500 C 274.332 185.500, 274.500 185.276, 274.500 181.514 C 274.500 176.888, 272.423 175.770, 269.608 178.881 M 293.923 179.923 C 289.944 183.902, 290.050 190.732, 294.100 191.345 C 294.870 191.461, 296.035 191.890, 296.688 192.299 C 298.334 193.328, 304.224 184.590, 303.816 181.724 C 303.614 180.304, 302.687 179.384, 301.250 179.180 C 300.012 179.005, 299 178.442, 299 177.930 C 299 176.161, 296.835 177.011, 293.923 179.923 M 993.711 188.070 C 992.996 197.944, 991.182 203.570, 983.161 220.800 C 979.910 227.785, 976.746 234.850, 976.130 236.500 C 974.549 240.735, 970.036 259.369, 970.482 259.815 C 971.101 260.435, 973.491 255.077, 977.983 243 C 980.336 236.675, 984.867 226.289, 988.053 219.919 C 995.716 204.599, 997.409 198.647, 996.505 190.205 C 995.357 179.485, 994.387 178.743, 993.711 188.070 M 249.743 183.084 C 247.762 184.237, 244 191.078, 244 193.526 C 244 194.409, 244.442 195.957, 244.982 196.967 C 245.883 198.651, 246.285 198.501, 249.867 195.151 C 255.041 190.310, 256.259 187.811, 255.025 184.565 C 253.985 181.831, 252.574 181.435, 249.743 183.084 M 56 184.955 C 56 187.622, 81.809 199.789, 84.302 198.298 C 84.949 197.910, 57.807 184, 56.404 184 C 56.182 184, 56 184.430, 56 184.955 M 229.687 189.805 C 226.218 193.426, 226.160 196.572, 229.546 197.422 C 232.956 198.278, 233.755 197.623, 235.018 192.935 C 236.765 186.447, 234.294 184.996, 229.687 189.805 M 397.067 188.874 C 395.567 191.678, 395.741 194.540, 397.500 196 C 399.912 198.001, 402.165 195.431, 401.801 191.094 C 401.453 186.961, 398.766 185.700, 397.067 188.874 M 334.382 189.191 C 333.977 189.846, 334.176 190.559, 334.823 190.774 C 335.470 190.990, 336 192.029, 336 193.083 C 336 195.309, 339.165 195.711, 340.836 193.698 C 342.782 191.353, 341.079 188, 337.942 188 C 336.389 188, 334.787 188.536, 334.382 189.191 M 380.333 192.371 C 378.893 194.596, 375.625 197.023, 370.587 199.609 C 366.419 201.749, 363.007 203.838, 363.004 204.250 C 363.002 204.662, 364.575 205, 366.500 205 C 368.425 205, 370 205.372, 370 205.826 C 370 207.790, 365.171 211, 362.217 211 C 359.824 211, 359.202 211.362, 359.638 212.500 C 360.034 213.531, 359.577 214, 358.178 214 C 355.817 214, 352.717 216.733, 353.550 218.081 C 353.862 218.586, 355.441 219, 357.059 219 C 360.543 219, 360.708 219.830, 357.927 223.365 C 356.209 225.549, 356.124 226, 357.427 226 C 358.292 226, 359 226.689, 359 227.531 C 359 230.438, 361.956 230.246, 365.532 227.106 C 367.478 225.398, 369.481 224, 369.984 224 C 371.577 224, 375.794 230.305, 384.069 245.062 C 388.488 252.941, 393.848 261.281, 395.981 263.595 C 398.113 265.908, 400.902 269.758, 402.179 272.151 L 404.500 276.500 404.828 271.500 C 405.639 259.162, 401.459 239.759, 395.425 227.853 C 393.006 223.078, 385.147 213.520, 384.321 214.346 C 384.108 214.559, 385.944 218.731, 388.401 223.616 C 393.849 234.450, 397.718 245.748, 398.627 253.481 C 399.555 261.383, 397.830 260.617, 391.781 250.440 C 389.186 246.073, 384.011 237.775, 380.281 232 C 376.045 225.441, 373.500 220.455, 373.500 218.716 C 373.500 217.185, 372.938 215.584, 372.252 215.159 C 371.349 214.599, 372.804 211.634, 377.502 204.459 C 381.542 198.288, 384 193.487, 384 191.767 C 384 188.122, 382.975 188.291, 380.333 192.371 M 919.815 193.250 C 921.416 195.588, 925.315 202, 928.480 207.500 C 931.645 213, 936.950 221.696, 940.269 226.825 C 947.731 238.358, 950.546 245.871, 955.412 267.250 C 956.258 270.964, 957.610 270.712, 958.972 266.585 C 960.214 262.823, 959.246 257.901, 954.561 244.162 C 951.506 235.200, 938.274 210.519, 932.495 203 C 927.782 196.869, 919.621 189, 917.974 189 C 917.386 189, 918.214 190.912, 919.815 193.250 M 999.649 194.759 C 999.391 195.177, 998.444 198.439, 997.546 202.009 C 995.480 210.215, 994.463 212.836, 985.516 233 C 981.490 242.075, 977.084 253.100, 975.726 257.500 C 971.362 271.643, 969.837 283.942, 973.064 278.971 C 973.589 278.162, 975.214 273.675, 976.675 269 C 978.136 264.325, 984.038 248.575, 989.789 234 C 998.328 212.361, 1000.340 206.262, 1000.758 200.750 C 1001.225 194.578, 1000.887 192.755, 999.649 194.759 M 207.823 198.632 C 205.334 201.121, 204.564 201.282, 193.625 201.606 C 182.728 201.928, 175.001 203.626, 174.999 205.699 C 174.999 206.140, 179.012 206.344, 183.916 206.154 C 188.820 205.963, 193.564 206.216, 194.457 206.716 C 195.876 207.510, 195.686 208.118, 192.941 211.562 C 187.139 218.839, 183.118 229.645, 184.542 234.132 C 185.009 235.604, 185.834 234.622, 188.213 229.765 C 190.472 225.154, 193.876 220.965, 201.110 213.897 C 210.192 205.023, 213 201.135, 213 197.435 C 213 195.208, 210.719 195.736, 207.823 198.632 M 420.740 200.750 C 418.367 203.227, 414.425 210.842, 415.191 211.468 C 415.361 211.606, 417.824 211.982, 420.665 212.303 C 426.472 212.958, 427.010 212.437, 426.986 206.168 C 426.968 201.212, 426.018 198, 424.570 198 C 423.913 198, 422.189 199.238, 420.740 200.750 M 577.683 207.153 C 573.383 210.478, 570.077 213.411, 570.336 213.669 C 571.665 214.999, 583.931 206.948, 586.807 202.858 C 589.355 199.234, 585.694 200.958, 577.683 207.153 M 740 207.480 C 740 226.259, 736.119 245.394, 730.014 256.712 C 727.806 260.805, 726 264.435, 726 264.780 C 726 265.124, 727.758 263.689, 729.908 261.590 C 740.385 251.359, 746.360 227.415, 743.054 208.912 C 741.434 199.848, 740 199.176, 740 207.480 M 271 204.429 C 271 207.103, 273.359 210, 275.537 210 C 276.303 210, 278.514 211.390, 280.448 213.089 C 282.383 214.788, 284.416 216.025, 284.965 215.839 C 285.514 215.653, 284.552 212.463, 282.825 208.750 L 279.687 202 275.344 202 C 271.411 202, 271 202.230, 271 204.429 M 619.989 207.341 C 616.420 209.728, 608.398 214.731, 602.162 218.459 C 595.927 222.187, 586.286 228.615, 580.739 232.743 C 569.560 241.063, 551.737 257.765, 552.581 259.130 C 553.406 260.465, 556.141 258.643, 563.653 251.755 C 576.541 239.936, 591.889 228.645, 614.576 214.294 C 620.361 210.634, 629.004 203.102, 627.489 203.041 C 626.933 203.018, 623.558 204.953, 619.989 207.341 M 766.384 204.140 C 765.811 204.888, 764.321 207.975, 763.074 211 C 757.805 223.777, 742.340 250.591, 736.727 256.680 C 731.367 262.495, 732.836 263.559, 738.521 257.979 L 743 253.584 743 257.792 C 743 260.172, 743.475 262, 744.094 262 C 744.696 262, 748.859 259.353, 753.344 256.117 C 757.830 252.881, 766 247.841, 771.500 244.916 C 777 241.992, 781.956 238.997, 782.514 238.262 C 783.072 237.526, 790.497 235.351, 799.014 233.428 C 813.466 230.166, 818.818 228.047, 819.763 225.212 C 819.993 224.521, 818.270 224.878, 815.537 226.087 C 812.998 227.210, 802.727 229.926, 792.711 232.123 C 777.185 235.528, 773.411 236.735, 767.117 240.309 C 763.057 242.614, 758.332 246.116, 756.617 248.091 C 753.404 251.793, 748.267 255.600, 747.508 254.841 C 747.272 254.605, 748.928 251.324, 751.188 247.550 C 755.945 239.608, 761.828 225.631, 765.547 213.439 C 768.126 204.985, 768.443 201.455, 766.384 204.140 M 879.598 206.735 C 879.263 207.070, 882.339 209.535, 886.434 212.211 C 897.670 219.557, 902.956 226.543, 914.324 249.076 C 923.407 267.080, 929.671 274.358, 937.084 275.518 C 940.228 276.011, 940.301 275.967, 938 274.969 C 932.786 272.708, 929.546 267.957, 919.955 248.500 C 909.209 226.700, 904.316 219.968, 894.756 213.826 C 888.097 209.548, 880.390 205.943, 879.598 206.735 M 488.109 212.735 C 488.044 223.617, 490.158 229.003, 491.561 221.527 C 492.227 217.975, 490.462 208.404, 488.971 207.482 C 488.515 207.201, 488.127 209.564, 488.109 212.735 M 182 209.412 C 180.075 210.141, 176.475 211.665, 174 212.799 C 171.525 213.934, 166.575 215.644, 163 216.600 C 154.369 218.908, 153.412 220.005, 160.050 219.979 C 168.742 219.945, 188.242 211.818, 186.478 208.964 C 186.150 208.434, 185.796 208.020, 185.691 208.044 C 185.586 208.068, 183.925 208.684, 182 209.412 M 908.961 210.750 C 910.114 212.262, 912.611 215.525, 914.510 218 C 916.408 220.475, 918.732 224.525, 919.674 227 C 920.615 229.475, 922.510 233.300, 923.885 235.500 C 925.259 237.700, 929.451 245.712, 933.200 253.304 C 939.375 265.810, 942 269.035, 942 264.116 C 942 261.046, 937.441 248.815, 933.026 240.043 C 926.405 226.887, 921.414 219.598, 914.891 213.560 C 908.487 207.631, 905.505 206.218, 908.961 210.750 M 318.925 212.117 C 324.879 221.908, 336.988 232.455, 349.500 238.747 C 357.098 242.568, 363.204 246.702, 381.209 260.213 C 387.649 265.046, 393.162 269, 393.459 269 C 394.607 269, 393.894 267.145, 391.250 263.249 C 386.098 255.659, 365.770 240.900, 350 233.300 C 344.424 230.613, 336.626 224.796, 324.952 214.614 C 321.412 211.526, 318.181 209, 317.772 209 C 317.364 209, 317.882 210.403, 318.925 212.117 M 585.885 216.322 C 564.994 228.208, 562.025 230.423, 548.500 244.204 C 541.350 251.489, 536.850 256.283, 538.500 254.857 C 544.828 249.386, 575.437 226.730, 583.716 221.389 C 594.703 214.301, 601.694 208.979, 599.894 209.072 C 599.127 209.112, 592.823 212.374, 585.885 216.322 M 235.142 214.750 C 237.654 217.363, 242.540 223.325, 246 228 C 254.808 239.900, 259.828 244.895, 272.827 254.694 C 283.881 263.026, 284.473 263.326, 297.327 267.088 C 304.572 269.209, 311.159 270.957, 311.964 270.972 C 314.627 271.023, 310.941 268.480, 305.500 266.512 C 297.516 263.624, 283.157 256.167, 275.058 250.702 C 265.637 244.345, 259.806 238.994, 254.677 232 C 248.210 223.182, 240.040 214.188, 236.522 212.013 C 230.972 208.583, 230.367 209.784, 235.142 214.750 M 302.103 214.193 C 302.749 215.399, 307.152 220.272, 311.888 225.021 C 320.863 234.021, 334.779 243.981, 344.077 248.059 C 347.059 249.368, 354.603 253.074, 360.839 256.296 C 367.076 259.518, 372.441 261.893, 372.761 261.573 C 373.081 261.253, 372.023 259.361, 370.410 257.368 C 367.384 253.629, 356.501 246.844, 349.536 244.355 C 344.856 242.682, 327.851 231.476, 312.732 220.101 C 306.809 215.646, 301.731 212, 301.446 212 C 301.162 212, 301.458 212.987, 302.103 214.193 M 52 216.099 C 53.375 217.217, 57.330 220.465, 60.788 223.316 C 67.864 229.150, 76.950 234.632, 87.926 239.688 C 96.274 243.535, 101.561 247.491, 113.779 259.035 C 118.416 263.416, 122.409 267, 122.653 267 C 124.026 267, 116.188 257.476, 110.048 251.685 C 99.732 241.953, 96.226 239.641, 79.458 231.516 C 71.184 227.507, 61.413 221.926, 57.744 219.113 C 51.416 214.263, 46.695 211.786, 52 216.099 M 274 215.826 C 274 216.280, 275.134 217.716, 276.519 219.018 C 280.259 222.532, 284.748 229.949, 286.844 236.081 C 289.300 243.263, 290.378 251.648, 288.959 252.525 C 287.758 253.268, 290.550 257, 292.307 257 C 293.901 257, 329.254 274.104, 331.885 276.147 C 333.197 277.166, 334.997 277.983, 335.885 277.962 C 338.316 277.904, 327.222 267.972, 322.500 265.978 C 320.300 265.049, 313.253 262.152, 306.841 259.541 L 295.182 254.792 294.473 247.646 C 292.999 232.801, 287.330 220.739, 280.091 217.047 C 275.804 214.859, 274 214.498, 274 215.826 M 454.610 220.335 C 455.486 227.789, 453.875 234.101, 447.912 246.588 C 441.282 260.471, 440.732 264.059, 444.612 268.140 C 446.200 269.811, 448.738 271.825, 450.250 272.615 L 453 274.051 453 269.085 C 453 266.353, 452.550 263.840, 452 263.500 C 451.450 263.160, 451 262.031, 451 260.992 C 451 259.224, 451.223 259.195, 454.468 260.551 C 456.380 261.350, 461.089 262, 464.962 262 C 471.150 262, 473.194 262.542, 482.111 266.550 C 487.678 269.052, 492.429 270.904, 492.668 270.665 C 493.618 269.715, 488.130 264.967, 481.500 261.003 L 474.500 256.818 465.500 257.397 C 460.550 257.715, 455.446 257.692, 454.157 257.347 C 451.129 256.534, 451.480 254.594, 457.015 241.536 C 460.822 232.555, 461.186 230.992, 460.706 225.692 C 460.323 221.469, 459.536 219.135, 457.912 217.406 C 454.564 213.843, 453.914 214.420, 454.610 220.335 M 718 215.393 C 718 215.829, 718.893 220.570, 719.985 225.929 C 722.151 236.556, 722.969 252.887, 721.692 260 L 720.884 264.500 722.998 261.317 C 727.968 253.832, 727.716 239.886, 722.322 224 C 720.047 217.298, 718 213.222, 718 215.393 M 220.570 220.907 C 223.511 226.099, 238.643 241.644, 245.561 246.581 C 252.926 251.837, 262.995 256.638, 268.500 257.520 C 272.099 258.097, 271.583 257.641, 263.366 252.980 C 251.548 246.277, 239.106 236.898, 227.731 226.117 C 220.836 219.582, 219.106 218.323, 220.570 220.907 M 541.018 220.967 C 540.389 222.142, 535.515 227.694, 530.187 233.303 C 516.843 247.353, 507.845 259.562, 501.145 272.710 C 496.896 281.049, 499.044 282.666, 503.930 274.806 C 509.729 265.477, 531.303 235.608, 535.570 231 C 539.785 226.448, 543.559 220.226, 542.655 219.321 C 542.384 219.050, 541.647 219.791, 541.018 220.967 M 707 220.343 C 707 221.082, 707.877 224.236, 708.949 227.353 C 713.284 239.953, 713.365 261.369, 709.115 271.250 C 706.729 276.796, 708.056 277.639, 712.260 273.250 C 717.079 268.219, 718.401 263.549, 718.291 251.960 C 718.169 239.211, 717.014 234.561, 711.781 225.750 C 707.641 218.780, 707 218.055, 707 220.343 M 484.596 225.125 C 483.705 230.694, 482.072 233.734, 480.947 231.914 C 479.927 230.264, 479.912 230.284, 477.426 236.500 C 476.273 239.385, 474.788 241.507, 473.917 241.517 C 472.361 241.536, 467 245.315, 467 246.394 C 467 247.703, 472.692 246.904, 475.027 245.267 C 476.387 244.314, 478.261 243.663, 479.192 243.820 C 480.123 243.977, 481.626 242.975, 482.532 241.591 C 484.689 238.299, 487.952 225.533, 487.287 222.988 C 486.448 219.782, 485.305 220.690, 484.596 225.125 M 194.338 228.065 C 191.892 231.760, 191.500 233.331, 191.500 239.427 C 191.500 248.241, 193.761 258.761, 196.173 261.173 C 197.178 262.178, 199.223 263, 200.719 263 C 202.654 263, 204.957 264.501, 208.711 268.208 C 212.676 272.124, 214.268 273.132, 215.131 272.269 C 215.993 271.407, 215.287 269.997, 212.284 266.585 C 210.087 264.090, 207.483 259.900, 206.497 257.274 C 205.511 254.648, 203.036 249.125, 200.997 245 C 197.526 237.977, 197.336 237.118, 198.016 231.500 C 198.415 228.200, 198.389 225.112, 197.959 224.638 C 197.528 224.164, 195.899 225.706, 194.338 228.065 M 609 229.595 C 579.528 245.790, 567.432 253.509, 562.504 259.266 C 560.584 261.510, 559.173 263.506, 559.369 263.703 C 559.566 263.899, 564.063 261.160, 569.363 257.617 C 574.663 254.073, 582.469 249.302, 586.710 247.015 C 595.390 242.333, 611.513 231.332, 614.405 228.117 C 616.916 225.327, 616.619 225.408, 609 229.595 M 215 228.728 C 215 230.961, 223.390 241.580, 231.907 250.127 C 240.277 258.527, 242.839 260.426, 252 265.016 C 260.639 269.346, 264.162 270.526, 271.878 271.677 C 277.036 272.447, 281.386 272.947, 281.543 272.788 C 281.701 272.630, 280.715 271.205, 279.353 269.622 C 277.381 267.331, 275.417 266.466, 269.723 265.381 C 255.032 262.582, 239.412 252.785, 226.056 237.995 C 219.255 230.462, 215 226.896, 215 228.728 M 296.611 230.820 C 295.737 232.234, 306.148 244.129, 312.356 248.809 C 321.900 256.005, 334.064 261.276, 344.243 262.627 C 353.004 263.789, 348.630 261.023, 330.662 254.037 C 320.904 250.244, 314.083 245.756, 304.566 236.869 C 300.489 233.060, 296.909 230.339, 296.611 230.820 M 637.407 236.816 C 619.142 249.552, 605.960 255.443, 591 257.555 C 579.907 259.121, 574.353 260.923, 567.937 265.040 C 562.687 268.409, 559.048 272, 560.883 272 C 561.540 272, 566.447 270.019, 571.788 267.598 C 579.698 264.014, 583.302 262.992, 591.211 262.094 C 608.540 260.125, 625.971 252.013, 639.750 239.505 C 645.586 234.208, 647.176 232, 645.157 232 C 644.693 232, 641.206 234.167, 637.407 236.816 M 536.567 239.469 C 529.370 246.773, 524.471 252.804, 525.167 253.501 C 525.413 253.746, 529.803 249.436, 534.923 243.923 C 545.410 232.632, 546.671 229.215, 536.567 239.469 M 48.083 242.410 C 48.313 242.636, 56.375 246.063, 66 250.025 C 75.625 253.988, 85.231 258.110, 87.347 259.185 C 89.463 260.260, 91.417 260.916, 91.690 260.643 C 93.470 258.863, 70.928 246.817, 59.846 243.627 C 54.774 242.167, 47.022 241.365, 48.083 242.410 M 528 256.768 C 528 262.078, 550.759 280.574, 553.689 277.644 C 554.658 276.675, 552.336 274.449, 540.473 264.978 C 529.440 256.170, 528 255.223, 528 256.768"/>
</svg>