<?xml version="1.0" encoding="utf-8"?>
<svg xmlns="http://www.w3.org/2000/svg" width="1002" height="475" viewBox="0 0 1002 475">
  <path fill-rule="evenodd" d="M 447.175 4.195 L 447.500 7.389 438.500 8.681 C 428.634 10.096, 419.218 12.105, 411.519 14.435 L 406.537 15.944 403.471 12.972 C 398.328 7.987, 393.549 9.833, 398.424 14.921 L 401.067 17.679 391.783 21.948 C 386.677 24.295, 380.314 27.595, 377.642 29.281 C 373.604 31.830, 372.468 32.149, 370.906 31.173 C 369.873 30.528, 368.346 30, 367.514 30 C 365.720 30, 365.501 33.101, 367.176 34.776 C 368.076 35.676, 367.070 37.301, 362.873 41.726 C 359.860 44.901, 355.916 49.663, 354.110 52.308 C 350.860 57.064, 350.798 57.098, 348.332 55.482 C 343.490 52.309, 340.851 56.267, 345.533 59.678 L 348.066 61.523 345.142 67.012 C 343.534 70.030, 340.730 76.467, 338.912 81.315 C 335.984 89.124, 335.372 90.059, 333.553 89.501 C 329.628 88.298, 328.499 88.512, 328.212 90.512 C 328.016 91.876, 328.924 93.115, 331.031 94.359 C 332.967 95.503, 333.931 96.736, 333.589 97.630 C 332.141 101.402, 329.761 112.088, 328.642 119.836 C 327.511 127.669, 327.184 128.484, 324.956 129.010 C 321.652 129.790, 321.369 132.324, 324.405 133.949 C 326.812 135.237, 326.869 135.522, 326.403 143.888 C 326.139 148.624, 325.676 155.340, 325.375 158.811 C 324.831 165.085, 324.812 165.118, 322.073 164.516 C 320.238 164.113, 318.902 164.413, 318.070 165.416 C 317.024 166.676, 317.365 167.252, 320.161 168.957 C 321.997 170.076, 323.865 170.994, 324.311 170.996 C 325.121 171, 324.852 173.974, 322.790 187.833 L 321.699 195.166 318.099 194.460 C 312.164 193.297, 311.514 193.408, 311.196 195.638 C 310.947 197.376, 311.695 198.033, 315.195 199.149 C 320.243 200.759, 320.263 201.157, 315.799 211.141 L 312.770 217.915 307.635 217.708 C 303.097 217.524, 302.500 217.733, 302.500 219.500 C 302.500 220.877, 303.278 221.604, 305 221.835 C 309.504 222.438, 309.374 223.756, 304.289 229.088 L 299.309 234.307 285.554 233.220 C 273.292 232.251, 271.358 231.841, 267.734 229.443 C 262.998 226.308, 246.979 213.824, 232 201.594 C 226.225 196.879, 220.986 193.016, 220.357 193.010 C 219.728 193.005, 218.951 193.685, 218.630 194.523 C 218.013 196.130, 219.447 197.884, 224.776 202.038 L 228.032 204.576 224.521 207.980 L 221.009 211.383 218.255 209.347 C 209.570 202.927, 206.083 200.831, 205.101 201.438 C 202.818 202.848, 204.190 205.027, 210.250 209.618 C 213.688 212.222, 216.694 214.505, 216.932 214.692 C 217.498 215.136, 210.837 222, 209.839 222 C 209.416 222, 205.233 219.525, 200.544 216.500 C 191.354 210.571, 189 209.860, 189 213.012 C 189 214.364, 190.890 216.250, 194.750 218.752 C 201.519 223.139, 200.493 223.721, 188.815 222.117 C 181.536 221.118, 181.476 221.084, 176.581 215.306 C 173.876 212.113, 161.276 199.126, 148.581 186.447 C 97.656 135.585, 50.629 98.412, 17.673 82.968 C 0.636 74.984, -3.374 77.149, 9.186 87.549 C 44.856 117.085, 82.064 150.853, 98.020 168.169 C 117.978 189.828, 130.539 207.014, 133.936 217.308 C 135.133 220.932, 135.021 221.243, 128.830 231.568 C 116.519 252.097, 100.136 272.123, 83.213 287.328 C 66.860 302.021, 57.158 308.709, 23.072 328.786 C 22.234 329.280, 21.911 330.325, 22.290 331.314 C 23.175 333.618, 29.611 333.529, 39.190 331.079 C 62.973 324.997, 80.888 314.198, 126.275 278.586 C 150.609 259.493, 163.859 250.678, 171.616 248.423 L 176.839 246.905 190.669 254.899 C 198.276 259.296, 205.400 263.572, 206.500 264.402 C 208.444 265.869, 208.424 265.912, 205.785 265.955 C 204.292 265.980, 198.442 265.101, 192.785 264.003 C 179.276 261.380, 177.773 261.399, 178.180 264.183 C 178.538 266.622, 177.435 266.222, 200 272.088 C 218.550 276.910, 237 282.846, 237 283.992 C 237 284.446, 233.738 285.355, 229.750 286.012 C 220.026 287.612, 220 287.623, 220 290.112 C 220 292.222, 220.244 292.267, 228.061 291.615 C 232.494 291.246, 239.511 290.295, 243.654 289.502 C 251.047 288.087, 251.275 288.106, 255.988 290.494 C 264.795 294.957, 291.242 305.226, 315 313.407 L 338.500 321.500 338.807 325.750 C 339.089 329.635, 338.913 330, 336.757 330 C 335.461 330, 333.895 330.505, 333.278 331.122 C 331.588 332.812, 332.902 335, 335.607 335 C 337.451 335, 337.977 335.516, 337.900 337.250 C 337.643 343.052, 336.589 344.383, 330.963 346.006 C 326.591 347.268, 325.433 348.045, 325.167 349.897 C 324.844 352.134, 325.005 352.187, 329.981 351.503 L 335.129 350.795 331.653 357.697 C 329.741 361.493, 326.562 366.532, 324.588 368.894 C 320.540 373.740, 319.904 377, 323.006 377 C 324.109 377, 332.547 372.443, 341.756 366.874 C 350.965 361.304, 366.609 351.860, 376.520 345.886 L 394.540 335.024 409.520 337.956 C 450.535 345.982, 476.140 348.436, 518 348.354 C 564.426 348.263, 606.851 344.862, 641.719 338.436 C 648.990 337.096, 655.498 336, 656.182 336 C 659.723 336, 632.157 359.627, 614 372.153 C 608.775 375.758, 592.800 386.043, 578.500 395.008 C 547.196 414.634, 537.978 420.748, 523.262 431.647 C 503.385 446.369, 480 467.780, 480 471.259 C 480 475.752, 483.262 473.898, 495.224 462.608 C 516.057 442.944, 535.440 428.908, 581 400.491 C 624.686 373.243, 640.226 361.797, 660.500 341.931 C 669.680 332.936, 670.998 332.005, 676.569 330.586 C 679.907 329.735, 684.546 328.366, 686.879 327.543 C 691.092 326.056, 691.116 326.061, 690.463 328.273 C 688.404 335.248, 681.117 343.271, 658.567 363.392 C 638.384 381.399, 628.272 392.669, 618.969 407.520 C 612.536 417.789, 602.839 439.553, 601.327 447.117 C 600.772 449.888, 600.934 450.145, 603.044 449.838 C 604.950 449.562, 606.028 447.863, 608.969 440.500 C 613.909 428.135, 621.857 413.328, 628.739 403.670 C 634.832 395.118, 649.345 380.118, 672.713 358.222 C 687.468 344.395, 695.889 334.365, 698.566 327.426 C 699.804 324.215, 700.917 323.080, 703.819 322.068 C 720.520 316.241, 754.839 299.523, 778.230 285.819 C 789.044 279.484, 791.737 277.222, 812.730 256.837 C 845.838 224.688, 859.806 213.070, 871.639 207.835 C 881.356 203.537, 873.333 200.304, 860.928 203.519 C 849.663 206.438, 833.675 216.013, 816 230.428 L 806.500 238.175 805.900 233.337 C 805.569 230.677, 804.967 226.700, 804.562 224.500 L 803.825 220.500 815.662 208.951 C 844.659 180.662, 881.587 153.941, 955.500 107.768 C 999.039 80.569, 1000 79.923, 1000 77.863 C 1000 75.162, 997.254 75.525, 990.428 79.129 C 969.101 90.388, 947.869 102.056, 895.500 131.297 C 846.972 158.392, 825.688 169.991, 800.979 182.804 L 781.459 192.928 776.080 190.354 C 766.387 185.714, 753.512 183.720, 737 184.300 C 729.025 184.580, 721.756 185.109, 720.846 185.475 C 719.477 186.026, 718.934 184.966, 717.690 179.320 C 716.863 175.569, 712.727 156.525, 708.498 137 C 696.732 82.681, 692.107 62.707, 691.050 61.650 C 689.145 59.745, 687.104 62.863, 687.729 66.720 L 688.313 70.316 680.992 69.636 C 669.716 68.588, 669.173 68.340, 667.845 63.644 C 667.200 61.365, 666.115 58.884, 665.432 58.132 C 663.431 55.924, 661.714 57.852, 662.326 61.620 L 662.872 64.985 660.186 63.538 C 651.744 58.992, 640.286 46.484, 635.068 36.120 C 633.512 33.029, 630.294 25.163, 627.917 18.641 C 623.709 7.096, 621.997 4.603, 619.793 6.807 C 619.029 7.571, 619.777 10.825, 622.392 18.106 C 624.413 23.730, 626.329 30.852, 626.651 33.931 C 627.372 40.838, 624.866 51.442, 621.713 54.822 C 618.921 57.816, 611.693 61.580, 611.256 60.268 C 609.488 54.964, 604.341 54.723, 605.500 59.999 L 606.159 63 600.008 63 C 595.786 63, 590.879 62.013, 584.367 59.853 L 574.877 56.707 571.426 49.853 C 568.135 43.318, 565.587 41.306, 564.428 44.328 C 564.148 45.058, 564.399 46.920, 564.987 48.466 C 565.575 50.012, 565.852 51.481, 565.604 51.730 C 564.923 52.411, 545.635 41.149, 526.500 28.899 C 510.520 18.668, 509.208 17.590, 504.643 10.935 C 499.585 3.563, 497.615 1.985, 495.773 3.827 C 494.983 4.617, 495.449 6.080, 497.454 9.110 C 499.754 12.585, 499.909 13.176, 498.364 12.565 C 491.179 9.727, 480.091 7.778, 468.303 7.279 C 455.409 6.733, 455.043 6.655, 452.366 3.860 C 448.658 -0.010, 446.759 0.112, 447.175 4.195 M 440.712 13.126 C 432.604 14.169, 417.668 17.380, 413.559 18.963 L 410.618 20.096 416.059 25.381 C 419.051 28.287, 437.917 46.603, 457.983 66.083 C 501.837 108.655, 566.759 171.827, 591.377 195.880 L 609.253 213.347 613.877 212.115 C 616.419 211.437, 618.807 210.572, 619.183 210.192 C 619.827 209.540, 608.813 196.298, 545 121.002 C 530.425 103.805, 516.925 87.823, 515 85.488 C 513.075 83.153, 509.432 78.825, 506.905 75.871 C 502.409 70.615, 466.015 27.635, 457.268 17.250 C 452.416 11.490, 452.762 11.576, 440.712 13.126 M 461.018 13.737 C 461.833 14.874, 476.225 31.882, 493 51.531 C 509.775 71.180, 525.075 89.173, 527 91.515 C 530.064 95.244, 539.946 106.864, 592.469 168.500 C 598.562 175.650, 608.675 187.508, 614.942 194.851 L 626.336 208.202 630.322 207.565 C 632.514 207.214, 634.853 206.606, 635.519 206.214 C 636.343 205.728, 632.694 199.859, 624.115 187.868 C 617.177 178.171, 608.520 166.021, 604.877 160.868 C 601.235 155.716, 592.662 143.625, 585.826 134 C 578.990 124.375, 566.700 107.050, 558.514 95.500 C 550.328 83.950, 538.187 66.850, 531.533 57.500 C 524.879 48.150, 516.524 36.354, 512.967 31.286 C 508.067 24.305, 505.367 21.452, 501.825 19.514 C 495.006 15.784, 483.040 13.028, 470.518 12.303 C 459.551 11.669, 459.538 11.671, 461.018 13.737 M 393.979 26.384 C 384.276 30.763, 377.035 34.949, 377.012 36.189 C 377.003 36.734, 458.195 107.030, 479.013 124.500 C 487.272 131.431, 560.909 194.252, 578.500 209.374 C 584 214.102, 589.313 217.977, 590.307 217.985 C 592.739 218.005, 601.308 215.899, 602.269 215.045 C 602.985 214.409, 588.261 199.861, 501 114.986 C 482.575 97.065, 453.655 68.924, 436.732 52.451 C 419.810 35.978, 405.410 22.407, 404.732 22.293 C 404.055 22.179, 399.216 24.020, 393.979 26.384 M 523.662 37.750 C 526.282 41.462, 531.173 48.325, 534.533 53 C 537.892 57.675, 547.323 70.950, 555.491 82.500 C 570.782 104.123, 574.453 109.291, 591.995 133.897 C 597.640 141.816, 604.818 151.941, 607.945 156.397 C 616.232 168.207, 641.200 203.430, 641.626 203.911 C 642.331 204.710, 653 201.666, 653 200.666 C 653 200.108, 648.874 192.642, 643.831 184.076 C 638.787 175.509, 629.507 159.725, 623.207 149 C 616.908 138.275, 608.956 124.775, 605.537 119 C 602.117 113.225, 592.893 97.564, 585.038 84.198 L 570.756 59.896 561.057 55.028 C 551.905 50.436, 532.117 38.870, 524.153 33.458 C 522.163 32.106, 520.167 31, 519.717 31 C 519.267 31, 521.042 34.038, 523.662 37.750 M 365.525 46.146 C 358.341 53.906, 354.393 59.798, 355.590 60.975 C 356.091 61.467, 368.274 70.786, 382.665 81.685 C 406.517 99.749, 443.054 127.499, 509.823 178.261 C 523.395 188.579, 542.260 202.899, 551.744 210.083 L 568.989 223.144 574.744 221.964 C 583.416 220.185, 583.642 219.849, 578.781 215.961 C 576.427 214.078, 566.625 205.795, 557 197.554 C 547.375 189.313, 533.650 177.577, 526.500 171.473 C 460.320 114.975, 394.708 58.652, 376.594 42.791 C 374.892 41.300, 372.986 40.063, 372.358 40.041 C 371.729 40.018, 368.655 42.766, 365.525 46.146 M 630.534 48.843 C 629.512 53.499, 624.409 59.829, 618.934 63.232 C 616.220 64.919, 614 66.371, 614 66.458 C 614 66.546, 617.650 74.466, 622.112 84.059 C 630.756 102.644, 639.594 121.697, 648.988 142 C 652.169 148.875, 658.243 161.925, 662.486 171 C 666.729 180.075, 670.943 189.183, 671.850 191.240 C 673.618 195.247, 674.507 195.543, 680.107 193.987 L 683.714 192.985 678.426 177.742 C 675.518 169.359, 669.253 151.475, 664.505 138 C 652.415 103.689, 643.727 78.923, 637.845 62 C 635.073 54.025, 632.444 47.118, 632.003 46.651 C 631.563 46.184, 630.902 47.171, 630.534 48.843 M 642.611 60.684 C 644.026 64.433, 647.357 73.800, 650.015 81.500 C 652.673 89.200, 658.508 105.850, 662.983 118.500 C 667.457 131.150, 673.554 148.475, 676.531 157 C 684.925 181.035, 688.456 190.666, 689 191.015 C 690.275 191.832, 698 189.844, 698 188.699 C 698 187.996, 694.138 173.939, 689.418 157.461 C 684.698 140.982, 678.922 120.750, 676.582 112.500 C 674.243 104.250, 670.612 91.620, 668.515 84.433 L 664.701 71.367 658.467 68.135 C 655.039 66.357, 649.490 62.420, 646.137 59.386 L 640.040 53.869 642.611 60.684 M 580.265 66.102 C 581.886 68.684, 595.312 91.501, 620.511 134.500 C 629.214 149.350, 641.439 170.139, 647.678 180.699 L 659.022 199.898 663.761 198.460 C 666.367 197.669, 668.588 197.017, 668.695 197.011 C 669.083 196.989, 665.478 189.110, 643.524 142 C 640.063 134.575, 634.098 121.750, 630.268 113.500 C 626.438 105.250, 620.045 91.525, 616.061 83 L 608.818 67.500 601.991 67.829 C 595.915 68.122, 591.934 67.464, 581.130 64.380 C 578.846 63.728, 578.814 63.791, 580.265 66.102 M 346.747 75.250 C 340.574 89.414, 339.508 92.908, 340.924 94.324 C 341.928 95.328, 398.905 132.697, 485.500 189.146 C 500.900 199.185, 520.607 212.081, 529.294 217.804 L 545.088 228.210 551.794 226.962 C 563.580 224.768, 563.924 225.638, 545.871 211.977 C 536.867 205.163, 519.148 191.693, 506.495 182.044 C 493.843 172.395, 476.374 159.100, 467.676 152.500 C 458.977 145.900, 440.009 131.500, 425.524 120.500 C 360.066 70.790, 352.377 65, 351.813 65 C 351.484 65, 349.204 69.612, 346.747 75.250 M 671.005 74.119 C 671.010 74.579, 679.032 102.821, 693.083 151.849 L 703.500 188.198 708.386 187.630 C 711.073 187.318, 713.441 186.892, 713.649 186.684 C 713.857 186.476, 712.008 177.125, 709.541 165.903 C 700.874 126.490, 692.161 86.442, 691.016 80.750 L 689.858 75 684.179 74.989 C 681.056 74.983, 676.813 74.699, 674.750 74.358 C 672.688 74.017, 671.002 73.910, 671.005 74.119 M 336.571 105.658 C 334.408 114.269, 331.903 131.033, 332.608 132.175 C 332.912 132.666, 339.986 136.486, 348.330 140.665 C 356.673 144.843, 388.475 161.180, 419 176.969 C 449.525 192.758, 485.975 211.529, 500 218.683 L 525.500 231.689 531.500 230.548 L 537.500 229.407 521 218.536 C 488.501 197.124, 457.896 177.056, 420.256 152.475 C 399.222 138.739, 372.897 121.518, 361.756 114.207 C 350.615 106.896, 340.764 100.496, 339.865 99.984 C 338.477 99.193, 337.979 100.050, 336.571 105.658 M 919.473 123.373 C 917.618 124.664, 906.882 130.695, 865 153.972 C 839.758 168.001, 808.034 185.038, 796.750 190.624 C 791.388 193.279, 787 195.869, 787 196.379 C 787 196.889, 789.239 199.674, 791.975 202.567 C 794.711 205.460, 797.720 209.441, 798.660 211.414 C 800.204 214.651, 803 216.372, 803 214.086 C 803 212.586, 827.469 190.577, 842.500 178.557 C 859.835 164.694, 876.686 152.616, 901.417 136.327 C 911.913 129.414, 920.928 123.363, 921.450 122.879 C 922.909 121.529, 921.681 121.836, 919.473 123.373 M 331.683 138.747 C 331.441 139.161, 330.927 145.812, 330.540 153.526 L 329.837 167.553 356.668 178.210 C 371.426 184.072, 399.025 195.013, 418 202.524 C 436.975 210.035, 463.127 220.404, 476.116 225.565 C 499.615 234.903, 499.764 234.947, 506.366 234.330 C 510.015 233.990, 512.991 233.438, 512.981 233.105 C 512.970 232.772, 502.733 227.159, 490.231 220.631 C 460.447 205.080, 335.988 140.039, 333.811 138.888 C 332.882 138.397, 331.924 138.333, 331.683 138.747 M 102.235 152.250 C 116.539 164.823, 136.103 185.066, 149.408 201.060 C 156.472 209.552, 162.758 217.028, 163.376 217.673 C 163.994 218.317, 166.731 219.170, 169.458 219.567 L 174.416 220.289 160.778 205.395 C 140.606 183.364, 125.188 168.513, 109.586 156.084 C 101.934 149.988, 95.293 145, 94.830 145 C 94.366 145, 97.699 148.262, 102.235 152.250 M 104.033 165.715 C 104.068 166.551, 108.516 172.052, 121.657 187.510 C 128.869 195.994, 134.628 205.450, 137.886 214.159 C 138.803 216.608, 139.467 216.873, 146.286 217.512 C 157.937 218.604, 157.945 218.585, 149.929 209.185 C 146.029 204.612, 139.597 197.637, 135.636 193.685 C 126.622 184.693, 103.989 164.661, 104.033 165.715 M 328.233 182.750 C 327.570 188.113, 326.760 193.449, 326.434 194.609 C 325.882 196.571, 326.913 197.016, 341.170 200.960 C 374.349 210.141, 407.880 219.609, 437.300 228.105 C 467.763 236.903, 472.637 237.810, 480.436 236.132 C 482.997 235.581, 481.399 234.708, 467.936 229.303 C 459.446 225.895, 445.975 220.438, 438 217.176 C 356.766 183.955, 329.867 173, 329.530 173 C 329.480 173, 328.897 177.387, 328.233 182.750 M 744.108 191.082 C 739.657 191.956, 728.968 196.641, 725.731 199.136 C 724.223 200.300, 727.086 200.487, 745.231 200.410 C 765.448 200.325, 766.723 200.205, 771 197.993 L 775.500 195.667 771.299 193.817 C 763.216 190.258, 753.354 189.266, 744.108 191.082 M 717 191.695 C 705.002 192.980, 674.802 200.138, 646.135 208.491 C 608.128 219.567, 569.269 229.079, 540.031 234.464 C 503.181 241.252, 485.993 242.675, 430 243.578 C 368.945 244.562, 320.859 242.368, 262.130 235.919 C 247.076 234.266, 234.301 233.066, 233.742 233.253 C 232.318 233.727, 265.386 240.469, 283.850 243.469 C 304.007 246.743, 350.473 252.521, 370 254.182 C 393.625 256.191, 457.115 255.920, 478.500 253.719 C 503.295 251.167, 539.809 246.348, 559.409 243.039 C 596.889 236.713, 650.701 223.427, 694 209.808 C 712.491 203.992, 713.688 203.462, 717.129 199.571 C 719.126 197.314, 721.923 194.844, 723.345 194.083 C 724.768 193.321, 725.696 192.316, 725.407 191.849 C 724.884 191.004, 723.663 190.981, 717 191.695 M 776.576 201.157 C 772.963 203.062, 772.805 203.315, 774.576 204.352 C 775.634 204.971, 777.808 205.933, 779.406 206.489 C 787.938 209.457, 788.630 223.114, 780.439 226.846 C 774.926 229.358, 768.179 227.181, 765.517 222.033 C 763.358 217.857, 763.629 214.825, 766.548 210.525 L 769.096 206.770 765.798 207.261 C 763.984 207.531, 752.375 212.461, 740 218.216 C 727.625 223.972, 716.600 229.013, 715.500 229.420 C 713.937 229.998, 715.033 230.648, 720.524 232.401 C 735.234 237.094, 746.462 245.006, 753.192 255.419 C 756.668 260.796, 758.344 265.158, 760.526 274.500 L 761.227 277.500 762.285 275 C 769.679 257.543, 778.582 242.710, 790.319 228.294 C 793.994 223.781, 797 219.498, 797 218.776 C 797 215.988, 783.149 198.869, 781.034 199.044 C 780.740 199.069, 778.734 200.019, 776.576 201.157 M 323.187 206.165 C 322.472 208.456, 321.016 212.134, 319.950 214.339 C 318.885 216.543, 318.135 218.468, 318.282 218.616 C 318.587 218.920, 347.564 223.710, 394 231.132 C 422.393 235.671, 449.002 238.464, 449.001 236.907 C 449 236.581, 442.813 234.623, 435.250 232.557 C 420.440 228.511, 390.065 219.979, 351.109 208.923 C 337.694 205.115, 326.216 202, 325.603 202 C 324.989 202, 323.902 203.874, 323.187 206.165 M 729 205.679 C 716.809 207.660, 716.214 207.929, 713.236 212.811 C 710.069 218.002, 706.674 226.007, 707.352 226.685 C 708.108 227.441, 752.833 207.500, 754.805 205.529 C 755.406 204.927, 732.816 205.058, 729 205.679 M 228.203 211.290 L 225.014 214.581 235.757 221.694 C 245.070 227.861, 247.299 228.902, 252.500 229.513 C 257.780 230.134, 258.320 230.043, 257 228.752 C 254.775 226.578, 232.173 208, 231.753 208 C 231.555 208, 229.957 209.481, 228.203 211.290 M 684 218.084 C 671.625 221.867, 655.081 226.614, 647.235 228.632 C 639.389 230.651, 633.104 232.437, 633.268 232.601 C 633.664 232.998, 701.096 229.271, 701.381 228.837 C 701.504 228.652, 702.421 225.800, 703.419 222.500 C 704.418 219.200, 705.869 215.262, 706.643 213.750 C 707.418 212.238, 707.702 211.047, 707.276 211.103 C 706.849 211.160, 696.375 214.302, 684 218.084 M 845.834 215.341 C 831.716 223.387, 805 244.500, 805 247.611 C 805 248.403, 804.100 251.611, 803 254.740 C 801.900 257.870, 801 260.603, 801 260.813 C 801 261.024, 809.212 253.219, 819.250 243.470 C 829.288 233.720, 841.438 222.597, 846.250 218.751 C 851.063 214.905, 855 211.588, 855 211.379 C 855 210.408, 852.887 211.322, 845.834 215.341 M 218.100 221.079 C 216.848 222.772, 216.035 224.368, 216.293 224.626 C 217.004 225.338, 229.862 227.213, 231.130 226.790 C 232.024 226.492, 221.977 218, 220.731 218 C 220.536 218, 219.352 219.385, 218.100 221.079 M 310.708 229.538 C 307.053 234.801, 306.998 235.001, 309.208 235.016 C 310.468 235.025, 322.800 235.684, 336.610 236.481 C 367.003 238.235, 405.696 239.491, 404.980 238.700 C 404.228 237.871, 319.308 223.924, 315.703 224.038 C 315.042 224.059, 312.793 226.534, 310.708 229.538 M 129.354 240.229 C 119.847 256.581, 111.986 267.130, 103.868 274.429 C 96.083 281.428, 99.501 279.855, 108 272.527 C 131.701 252.093, 136.216 248.622, 146.726 242.761 C 152.900 239.317, 157.962 236.242, 157.976 235.928 C 158.004 235.250, 140.239 225, 139.035 225 C 138.580 225, 134.223 231.853, 129.354 240.229 M 163.500 232.244 C 175.502 240.327, 192.153 250.155, 216.081 263.281 C 295.839 307.031, 378.369 332.418, 465.500 340.002 C 508.273 343.726, 579.881 341.617, 617.503 335.527 C 631.593 333.246, 657 327.770, 657 327.014 C 657 325.864, 633.988 315.311, 626.500 313.027 C 613.684 309.119, 602.189 308.012, 574.357 308.006 C 547.715 308, 546.482 307.827, 547.723 304.273 C 548.241 302.788, 563.226 297.892, 579.153 294.003 C 597.752 289.461, 613.811 287.730, 637.500 287.712 C 668.064 287.689, 689.481 290.976, 718.809 300.193 L 732.118 304.375 744.059 298.471 C 750.627 295.223, 756 291.989, 756 291.283 C 756 290.425, 754.476 290, 751.394 290 C 734.477 290, 714.953 277.754, 707.114 262.226 C 703.698 255.459, 701.038 245.656, 701.015 239.750 C 701.007 237.688, 700.748 236, 700.441 236 C 700.133 236, 693.721 238.428, 686.191 241.396 C 645.284 257.520, 597.195 268.176, 535 274.900 C 496.378 279.075, 487.981 279.500, 445 279.458 C 401.023 279.415, 389.100 278.722, 350.500 273.965 C 293.003 266.879, 238.762 252.855, 193 233.244 L 175.500 225.745 164 225.290 L 152.500 224.836 163.500 232.244 M 791.256 235.271 C 784.418 243.981, 777.256 254.737, 773.652 261.706 C 771.691 265.499, 767.628 275.695, 768.356 275 C 768.643 274.725, 776.106 267.331, 784.939 258.569 C 799.890 243.739, 801 242.384, 801 238.958 C 801 233.851, 799.855 225.996, 799.114 226.021 C 798.776 226.033, 795.240 230.195, 791.256 235.271 M 209 234.309 C 209 235.367, 230.421 243.105, 246.869 247.990 C 293.931 261.966, 345.944 270.471, 406.420 274.077 C 431.346 275.564, 487.309 274.758, 510 272.586 C 555.268 268.252, 599.061 260.057, 646.500 247.043 C 662.384 242.686, 683.342 236.008, 682.808 235.475 C 682.633 235.300, 664.376 236.227, 642.236 237.535 C 609.703 239.458, 599.538 240.409, 589.241 242.495 C 501.052 260.357, 421.463 265.127, 340 257.433 C 306.707 254.288, 243.035 242.882, 211.250 234.369 C 210.012 234.038, 209 234.011, 209 234.309 M 706 238.815 C 706 262.659, 727.897 284.931, 751.395 284.988 L 756.290 285 755.684 277.771 C 754.548 264.224, 745.384 250.366, 732.810 243.181 C 727.515 240.155, 715.414 235.771, 709.250 234.644 L 706 234.050 706 238.815 M 159.243 243.040 C 147.365 248.437, 130.220 260.901, 114 275.932 L 109.500 280.102 113.780 277.801 C 116.134 276.535, 122.434 272.480, 127.780 268.789 C 144.830 257.018, 160.741 247.068, 165.518 245.192 C 170.083 243.399, 170.211 242.822, 166.500 240.754 C 165.950 240.448, 162.684 241.476, 159.243 243.040 M 783.247 267.253 C 775.411 275.103, 769 281.883, 769 282.321 C 769 284.233, 781.995 276.049, 787 270.985 C 792.365 265.557, 798.480 255.940, 797.822 253.966 C 797.641 253.424, 791.082 259.403, 783.247 267.253 M 628.500 294.587 C 626.300 294.802, 620.675 295.307, 616 295.708 C 608.044 296.391, 608.685 296.480, 626 297.097 C 656.434 298.182, 673.257 301.472, 689.560 309.525 C 694.542 311.986, 699.241 314, 700 314 C 702.284 314, 718 308.644, 718 307.866 C 718 305.615, 693.171 298.874, 676.500 296.598 C 665.460 295.091, 635.982 293.856, 628.500 294.587 M 627.500 306.911 C 642.545 310.704, 654.209 315.359, 663.319 321.205 L 668.202 324.338 675.102 322.682 C 678.896 321.772, 683.688 320.310, 685.750 319.435 L 689.500 317.843 684.701 315.377 C 677.409 311.631, 660.558 306.275, 650.619 304.546 C 645.162 303.596, 636.103 303.025, 627.119 303.064 L 612.500 303.129 627.500 306.911 M 346 326.500 C 346 329.888, 346.120 329.998, 349.750 329.942 C 351.813 329.911, 355.300 329.560, 357.500 329.164 L 361.500 328.443 354.193 325.721 C 350.174 324.225, 346.686 323, 346.443 323 C 346.199 323, 346 324.575, 346 326.500 M 345.667 335.667 C 344.750 336.583, 344.822 342.006, 345.750 341.973 C 346.163 341.958, 350.054 340.678, 354.399 339.128 C 361.968 336.427, 362.161 336.282, 359.024 335.655 C 354.772 334.804, 346.522 334.812, 345.667 335.667 M 354.083 345.063 C 348.353 346.643, 343.337 348.287, 342.936 348.717 C 342.534 349.148, 341.888 351.453, 341.500 353.840 C 340.664 358.975, 339.734 359.249, 355.500 349.716 C 370.501 340.646, 370.471 340.546, 354.083 345.063"/>
</svg>