<?xml version="1.0" encoding="utf-8"?>
<svg xmlns="http://www.w3.org/2000/svg" width="775" height="1002" viewBox="0 0 775 1002">
  <path fill-rule="evenodd" d="M 528.233 1.668 C 527.536 1.949, 522.370 8.299, 516.754 15.780 C 507.397 28.242, 497.058 40.481, 494.440 42.193 C 493.858 42.574, 490.033 45.693, 485.940 49.124 C 481.848 52.555, 474 58.318, 468.500 61.931 C 459.364 67.933, 458.068 68.489, 453.500 68.378 C 447.797 68.238, 434.959 65.525, 430.500 63.518 C 425.896 61.445, 422.949 61.094, 417.500 61.968 C 414.750 62.409, 412.275 62.484, 412 62.135 C 410.162 59.801, 402.313 57.684, 392.500 56.875 C 386.450 56.377, 377.450 55.325, 372.500 54.537 C 360.346 52.603, 338.895 52.278, 302.500 53.475 C 293.150 53.783, 283.795 54.015, 281.711 53.990 C 279.627 53.966, 274.002 54.632, 269.211 55.470 C 264.420 56.308, 256.450 56.990, 251.500 56.987 C 245.318 56.982, 240.621 57.586, 236.500 58.915 C 233.200 59.979, 227.800 61.291, 224.500 61.829 C 221.200 62.367, 216.700 63.271, 214.500 63.838 C 212.300 64.404, 203.850 65.590, 195.722 66.473 C 183.602 67.790, 179.065 67.876, 170.496 66.953 C 161.600 65.996, 158.986 66.070, 152.892 67.456 C 146.984 68.800, 144.825 68.880, 140.519 67.917 C 132.675 66.161, 89.707 70.184, 83.500 73.255 C 80.788 74.597, 77.472 78.446, 76.031 81.925 C 74.266 86.186, 76.824 90.231, 84.811 95.809 C 88.490 98.378, 94.650 103.684, 98.500 107.601 C 106.178 115.412, 108.545 117, 112.508 117 C 116.005 117, 126.375 126.846, 129.624 133.250 C 130.949 135.862, 132.524 138, 133.124 138 C 133.723 138, 133.939 138.717, 133.602 139.594 C 133.208 140.623, 134.146 142.268, 136.245 144.229 C 138.035 145.901, 139.500 147.659, 139.500 148.135 C 139.500 148.611, 140.850 150.646, 142.500 152.658 C 144.150 154.669, 146.636 158.382, 148.024 160.908 C 150.592 165.580, 152.564 166.500, 152.421 162.959 C 152.377 161.882, 152.767 161, 153.287 161 C 154.260 161, 153.868 164.035, 152.459 167.414 C 151.960 168.610, 152.031 169.099, 152.649 168.717 C 153.249 168.346, 153.467 169.270, 153.204 171.062 C 152.966 172.688, 153.264 174.614, 153.868 175.341 C 154.673 176.311, 154.626 177.129, 153.693 178.406 C 152.272 180.348, 149.651 180.321, 116 178.019 C 97.351 176.743, 89.366 176.732, 43 177.916 C 12.547 178.693, 8.501 179.241, 4.340 183.150 C -1.610 188.740, 3.497 197.006, 15.335 200.945 C 18.845 202.113, 23.806 204.394, 26.359 206.013 C 28.912 207.632, 33.907 209.631, 37.460 210.454 C 41.012 211.278, 49.449 214.268, 56.209 217.098 C 70.325 223.007, 87.091 229.527, 101.500 234.709 C 107 236.688, 112.400 239.081, 113.500 240.028 C 116.255 242.401, 118.609 243.529, 126.071 246.056 C 129.607 247.253, 137.450 250.374, 143.500 252.991 C 175.858 266.988, 200.906 275.610, 232 283.456 C 237.775 284.913, 244.879 286.982, 247.788 288.053 C 250.696 289.124, 254.132 290, 255.424 290 C 256.717 290, 259.833 291.462, 262.349 293.250 C 264.865 295.037, 270.203 298.807, 274.212 301.628 C 278.220 304.448, 282.967 308.379, 284.761 310.363 C 286.554 312.347, 289.817 314.886, 292.011 316.005 C 296.666 318.380, 297.031 320.207, 293.351 322.703 C 291.895 323.691, 286.589 328.385, 281.561 333.134 C 271.860 342.298, 263.096 348.440, 251.205 354.409 C 243.656 358.198, 241.966 360.049, 243.913 362.395 C 244.819 363.486, 249.056 363.712, 264.775 363.507 C 284.785 363.245, 296.812 361.739, 298.300 359.307 C 299.237 357.775, 302 357.545, 302 359 C 302 360.521, 306.804 360.211, 318.699 357.922 C 342.710 353.302, 353.062 349.050, 365.372 338.750 C 375.160 330.561, 377.066 330.668, 396.600 340.500 C 404.794 344.625, 412.147 348, 412.938 348 C 413.730 348, 419.805 350.562, 426.439 353.694 C 433.072 356.825, 442.775 360.550, 448 361.971 L 457.500 364.555 457.371 368.527 C 457.299 370.712, 456.297 375.042, 455.143 378.148 C 451.389 388.255, 449.780 413.340, 452.043 426.500 C 452.611 429.800, 453.303 435.200, 453.583 438.500 C 454.225 446.097, 456.834 454.540, 459.200 456.681 C 462.539 459.703, 466.877 458.785, 471.209 454.142 C 474.036 451.111, 474.946 449.405, 474.494 447.981 C 474.032 446.527, 474.248 446.158, 475.321 446.570 C 476.240 446.922, 478.336 445.275, 481.023 442.088 C 483.360 439.316, 486.204 436.753, 487.342 436.391 C 490.654 435.340, 496.871 428.203, 497.529 424.697 C 498.166 421.299, 497.816 420.084, 493.433 410.500 C 491.924 407.200, 490.557 403.825, 490.395 403 C 490.233 402.175, 489.667 399.475, 489.137 397 C 487.436 389.057, 489.605 390.374, 494.570 400.299 C 498.788 408.730, 502.036 414.253, 503.283 415.112 C 503.771 415.448, 504.152 416.003, 504.129 416.344 C 503.770 421.646, 531.341 463.143, 534.093 461.443 C 534.594 461.133, 535.478 462.127, 536.057 463.651 C 538.286 469.512, 551.072 478, 557.673 478 C 560.071 478, 561.396 477.326, 562.596 475.493 C 564.062 473.257, 564.110 471.774, 563.046 461.743 C 562.390 455.560, 561.620 447.125, 561.335 443 C 560.843 435.888, 556.958 414.503, 555.477 410.750 C 554.954 409.426, 555.288 409, 556.846 409 C 558.115 409, 562.474 412.586, 568.203 418.343 C 584.394 434.615, 589.773 440.821, 596.697 451.223 L 603.444 461.357 603.841 471.428 C 604.060 476.968, 604.708 481.797, 605.282 482.159 C 605.960 482.588, 605.800 483.343, 604.826 484.316 C 603.773 485.369, 602.980 489.971, 602.156 499.804 C 600.959 514.088, 599.446 519.727, 595.730 523.750 C 594.587 524.987, 594.033 526, 594.500 526 C 594.967 526, 594.359 527.053, 593.150 528.340 C 590.313 531.360, 589 536.065, 589 543.208 C 589 546.355, 588.273 551.072, 587.384 553.690 C 585.314 559.788, 578.148 575.034, 576.413 577.033 C 575.681 577.876, 573.403 581.924, 571.349 586.028 C 568.840 591.044, 565.356 595.787, 560.721 600.495 C 556.929 604.348, 551.672 610.650, 549.039 614.500 C 544.572 621.032, 536.427 628.396, 522.500 638.494 C 520.300 640.089, 518.275 641.643, 518 641.947 C 517.725 642.251, 516.375 643.130, 515 643.901 C 513.625 644.671, 507.113 649.619, 500.528 654.895 C 493.943 660.172, 485.399 666.629, 481.540 669.244 C 471.722 675.900, 469.365 675.776, 457.745 667.991 C 452.813 664.686, 447.590 661.700, 446.138 661.354 C 444.687 661.009, 440.350 657.705, 436.500 654.011 C 432.650 650.317, 426.301 645.248, 422.392 642.745 C 418.482 640.242, 413.236 635.788, 410.735 632.847 C 408.233 629.906, 402.932 623.675, 398.956 619 C 394.979 614.325, 389.821 608.250, 387.494 605.500 C 385.167 602.750, 380.405 597.125, 376.913 593 C 366.592 580.809, 352.674 567, 350.709 567 C 349.698 567, 349.169 566.535, 349.525 565.960 C 349.879 565.387, 348.219 563.250, 345.837 561.210 C 343.455 559.169, 336.681 552.888, 330.784 547.250 C 324.886 541.612, 319.669 537, 319.190 537 C 318.712 537, 314.536 533.135, 309.910 528.412 C 301.767 520.097, 287.521 509.545, 281.460 507.340 C 279.832 506.747, 275.454 505.079, 271.730 503.631 C 264.039 500.642, 258.863 500.280, 256.571 502.571 C 253.843 505.300, 254.407 506.141, 262.500 511.418 C 270.300 516.504, 279.360 525.790, 281.809 531.209 C 282.876 533.569, 286.055 538.342, 288.874 541.816 C 291.693 545.290, 294 548.729, 294 549.458 C 294 550.187, 297.179 554.544, 301.065 559.141 C 304.951 563.739, 309.536 569.975, 311.252 573 C 317.195 583.471, 325.087 595.195, 331.475 603.044 C 335.004 607.379, 340.487 615.330, 343.661 620.713 C 350.587 632.463, 365.939 662.891, 366.004 665 C 366.030 665.825, 367.839 670.095, 370.025 674.489 C 372.211 678.883, 373.999 683.608, 373.997 684.989 C 373.995 686.370, 376.491 692.466, 379.543 698.536 C 383.452 706.309, 385.482 711.779, 386.409 717.036 C 387.134 721.141, 388.309 726.413, 389.021 728.750 C 390.149 732.449, 390.685 733, 393.158 733 C 394.721 733, 396 733.480, 396 734.067 C 396 734.680, 395.147 734.864, 394 734.500 C 391.426 733.683, 391.434 735.052, 394.045 742.593 C 397.445 752.414, 400.950 768.611, 402.553 781.916 C 404.644 799.263, 404.959 801, 406.014 801 C 406.522 801, 406.692 801.639, 406.393 802.419 C 406.093 803.200, 406.507 804.887, 407.312 806.169 C 408.117 807.451, 409.091 810.300, 409.476 812.500 C 409.862 814.700, 411.937 823.113, 414.089 831.196 C 416.240 839.279, 418.006 847.379, 418.014 849.196 C 418.034 854.162, 419.050 857, 420.808 857 C 422.103 857, 422.054 857.240, 420.529 858.355 C 419.251 859.290, 418.905 860.299, 419.417 861.605 C 419.825 862.647, 420.559 871.375, 421.050 881 C 421.540 890.625, 422.650 901.650, 423.517 905.500 C 424.384 909.350, 425.537 919.250, 426.081 927.500 C 426.624 935.750, 427.565 947.675, 428.172 954 C 429.773 970.681, 429.418 980.882, 426.948 989.174 C 425.791 993.061, 425.112 997.312, 425.441 998.620 C 426.341 1002.206, 430.179 1001.731, 433.646 997.604 C 437.852 992.599, 443.547 982, 443.186 979.853 C 443.013 978.826, 443.535 977.732, 444.344 977.421 C 445.154 977.111, 446.300 975.651, 446.891 974.178 C 448.942 969.063, 452 953.893, 452.024 948.711 C 452.038 945.845, 452.454 941.700, 452.950 939.500 C 453.445 937.300, 454.567 929.650, 455.442 922.500 C 456.317 915.350, 457.878 904.100, 458.911 897.500 C 459.944 890.900, 460.829 884.600, 460.878 883.500 C 460.927 882.400, 461.379 862.150, 461.882 838.500 C 462.581 805.685, 463.147 794.316, 464.274 790.500 C 466.773 782.038, 472.086 759.926, 472.443 756.500 C 472.558 755.400, 473.218 753.150, 473.911 751.500 C 474.604 749.850, 476.016 744.675, 477.050 740 C 479.620 728.373, 481.877 721.945, 484.385 719.106 C 485.548 717.789, 489.762 715.188, 493.750 713.325 C 497.737 711.463, 501 709.477, 501 708.911 C 501 708.345, 501.437 708.152, 501.971 708.482 C 503.076 709.165, 509 706.362, 509 705.156 C 509 704.721, 510.633 704.493, 512.630 704.650 C 514.987 704.836, 518.756 703.858, 523.380 701.861 C 527.296 700.170, 534.325 697.254, 539 695.382 C 543.675 693.511, 548.641 691.340, 550.037 690.559 C 551.432 689.778, 554.989 688.187, 557.942 687.023 C 572.139 681.427, 600.733 662.305, 612.526 650.520 C 617.491 645.559, 627.098 636.550, 633.876 630.500 C 640.653 624.450, 649.233 615.675, 652.942 611 C 656.651 606.325, 661.816 600.349, 664.419 597.720 C 667.141 594.971, 670.404 590.181, 672.095 586.450 C 674.466 581.221, 676.142 579.138, 680.723 575.730 C 691.019 568.069, 701.966 556.810, 706.701 549.011 C 709.204 544.887, 713.257 539.283, 715.707 536.559 C 721.101 530.560, 722.239 528.376, 729.297 510.500 C 739.262 485.259, 744.525 466.425, 747.460 445.500 C 749.295 432.423, 750.235 384.628, 748.765 379.141 C 748.229 377.139, 747.865 372.125, 747.958 368 C 748.094 361.917, 747.657 359.461, 745.642 355 C 744.194 351.794, 742.059 343.245, 740.523 334.500 C 737.274 316.005, 733.782 300.336, 729.270 284 C 727.372 277.125, 725.442 269.700, 724.983 267.500 C 724.523 265.300, 723.664 262.233, 723.074 260.685 C 722.483 259.137, 722 255.874, 722 253.435 C 722 249.505, 722.256 248.999, 724.250 248.991 C 727.735 248.978, 748.478 253.869, 758.624 257.097 C 771.338 261.142, 773.935 260.861, 772.611 255.585 C 771.255 250.184, 731.689 221.255, 717.267 215.120 C 707.439 210.940, 703.722 207.171, 700.168 197.782 C 699.068 194.877, 696.962 189.890, 695.488 186.700 C 693.824 183.099, 692.744 178.929, 692.639 175.700 C 692.506 171.594, 691.236 167.976, 686.601 158.500 C 683.373 151.900, 678.579 141.418, 675.947 135.206 C 673.315 128.995, 668.087 119.095, 664.331 113.206 C 660.574 107.318, 656.562 99.800, 655.415 96.500 C 649.677 79.983, 635.766 63.041, 611.136 42.575 C 596.255 30.209, 595.228 29.477, 581.500 21.433 C 576 18.210, 570.022 14.320, 568.215 12.787 C 565.900 10.823, 563.829 10, 561.200 10 C 559.149 10, 555.902 9.160, 553.985 8.133 C 552.068 7.107, 548.925 5.933, 547 5.525 C 545.075 5.118, 542.097 3.933, 540.382 2.892 C 537.468 1.124, 531.163 0.489, 528.233 1.668 M 548.163 19.878 C 547.427 20.345, 546.977 21.800, 547.163 23.113 C 547.432 25.021, 548.100 25.500, 550.486 25.500 C 554.062 25.500, 555.228 22.371, 552.418 20.316 C 550.319 18.782, 549.952 18.744, 548.163 19.878 M 543.448 27.765 C 542.018 28.763, 530 45.479, 530 46.469 C 530 46.904, 522.332 54.954, 512.960 64.359 C 500.572 76.791, 496.001 82.010, 496.214 83.479 C 496.959 88.623, 501.203 85.338, 524.857 61.303 C 545.803 40.019, 550 35.116, 550 31.935 C 550 30.813, 546.312 26.994, 545.250 27.015 C 544.837 27.024, 544.026 27.361, 543.448 27.765 M 557.052 42.187 C 549.954 52.219, 543.509 60, 542.299 60 C 541.584 60, 541 60.581, 541 61.290 C 541 62, 536.725 67.176, 531.500 72.793 C 526.275 78.409, 522 83.468, 522 84.034 C 522 85.903, 524.773 86.169, 527.824 84.591 C 529.476 83.737, 532.554 80.958, 534.664 78.415 C 536.774 75.873, 539.400 72.952, 540.500 71.925 C 550.135 62.926, 551.539 61.278, 562.792 45.744 C 565.565 41.916, 565.351 38.621, 562.302 38.187 C 560.670 37.955, 559.317 38.985, 557.052 42.187 M 579.030 42.676 C 577.883 44.779, 575.044 49.472, 572.722 53.105 C 570.400 56.738, 567.153 61.913, 565.507 64.605 C 563.861 67.297, 559.507 72.490, 555.832 76.144 C 552.156 79.798, 548.245 84.559, 547.140 86.725 C 546.036 88.890, 543.527 91.886, 541.566 93.382 C 537.589 96.415, 537.326 97.183, 539.513 99.370 C 540.864 100.721, 541.270 100.639, 543.297 98.612 C 544.546 97.363, 546.260 95.927, 547.107 95.421 C 547.953 94.914, 550.463 92.025, 552.685 89 C 554.906 85.975, 561.174 78.724, 566.612 72.888 C 576.927 61.817, 582.166 53.271, 583.451 45.421 C 583.946 42.392, 583.732 41.022, 582.617 40.097 C 581.356 39.051, 580.783 39.462, 579.030 42.676 M 591.539 55.581 C 589.190 59.167, 588.308 65.005, 590.119 64.985 C 592.409 64.959, 593.840 63.610, 595.326 60.076 C 597.907 53.938, 594.931 50.405, 591.539 55.581 M 607.196 61.271 C 606.638 61.947, 605.262 65.235, 604.138 68.577 C 601.394 76.741, 595.500 87.818, 591.943 91.500 C 590.348 93.150, 584.084 99.614, 578.022 105.865 C 571.960 112.116, 567 118.026, 567 118.999 C 567 121.111, 569.734 122.012, 572.754 120.895 C 575.144 120.011, 609.610 86.064, 612.313 81.931 C 614.884 77.999, 615.673 67.676, 613.639 64.571 C 611.405 61.163, 608.509 59.679, 607.196 61.271 M 313.500 65.961 C 290.736 66.964, 277 69.801, 277 73.500 C 277 74.286, 276.212 75.335, 275.250 75.831 C 271.588 77.718, 256.697 79.272, 248.391 78.633 C 239.479 77.948, 239.560 77.907, 239.981 82.905 L 240.184 85.311 225.342 84.654 C 217.179 84.293, 209.262 83.720, 207.750 83.382 C 205.933 82.976, 205 83.175, 205 83.970 C 205 84.631, 209.044 89.837, 213.987 95.539 C 220.014 102.492, 222.774 106.424, 222.368 107.482 C 221.953 108.564, 221.093 108.852, 219.632 108.399 C 215.287 107.054, 205.253 101.552, 197 95.991 C 183.521 86.908, 173.537 82.103, 165.538 80.849 C 154.530 79.123, 131.625 80.975, 128.778 83.822 C 127.375 85.225, 135.924 90, 139.838 90 C 142.923 90, 147 92.872, 147 95.046 C 147 95.621, 153.426 99.168, 161.280 102.928 C 169.135 106.689, 176.165 110.494, 176.903 111.383 C 177.641 112.272, 178.719 113, 179.299 113 C 180.659 113, 192.575 120.951, 201.331 127.701 C 205.088 130.597, 210.038 133.448, 212.331 134.037 C 214.624 134.626, 216.950 135.237, 217.500 135.395 C 218.050 135.553, 218.500 137.411, 218.500 139.524 C 218.500 142.933, 219.007 143.729, 223 146.590 C 225.475 148.364, 229.075 151.317, 231 153.152 C 232.925 154.988, 237.425 158.894, 241 161.833 C 249.103 168.492, 250.712 170.479, 252.068 175.500 C 252.662 177.700, 254.868 182.425, 256.970 186 C 259.072 189.575, 260.733 192.725, 260.660 193 C 260.587 193.275, 263.293 196.133, 266.674 199.352 C 273.648 205.993, 274.577 208.066, 272 211.248 C 270.343 213.295, 269.463 213.464, 261.843 213.198 C 248.646 212.738, 243.800 212.099, 241.351 210.494 C 238.339 208.521, 233.383 208.560, 232.614 210.563 C 232.284 211.423, 232.724 213.500, 233.592 215.178 C 234.642 217.208, 234.836 218.564, 234.172 219.228 C 232.604 220.796, 231.082 219.243, 228.531 213.473 C 225.515 206.655, 225.104 206.540, 196 204.425 C 183.625 203.525, 173.155 202.581, 172.734 202.326 C 172.312 202.070, 172.226 201.443, 172.543 200.931 C 172.859 200.419, 172.416 200, 171.559 200 C 170.702 200, 170 200.472, 170 201.050 C 170 201.722, 166.585 202.036, 160.518 201.923 C 152.938 201.782, 150.497 202.099, 148.348 203.508 C 146.077 204.995, 144.328 205.167, 137.080 204.611 C 132.361 204.250, 125.800 203.516, 122.500 202.981 C 119.200 202.446, 110.200 201.313, 102.500 200.465 C 94.800 199.616, 83.100 198.028, 76.500 196.935 C 50.852 192.688, 50.905 192.695, 49.784 193.816 C 49.013 194.587, 49.817 195.549, 52.603 197.193 C 54.746 198.458, 56.617 199.373, 56.760 199.226 C 57.165 198.813, 63.307 202.072, 65.132 203.669 C 66.030 204.454, 71.430 206.158, 77.132 207.455 C 83.147 208.823, 91.908 211.819, 98 214.592 C 110.484 220.274, 115.003 221.150, 125.075 219.838 C 131.779 218.965, 134.655 219.201, 150.075 221.891 C 159.659 223.563, 174.700 225.635, 183.500 226.495 C 192.300 227.355, 202.129 228.523, 205.343 229.090 C 212.123 230.287, 226.404 235.166, 233.217 238.613 C 235.811 239.926, 239.660 241, 241.770 241 C 244.466 241, 246.828 241.899, 249.720 244.025 C 251.982 245.689, 256.458 247.949, 259.667 249.047 C 262.875 250.146, 269.030 253.090, 273.343 255.590 C 278.224 258.418, 283.201 260.463, 286.518 261.003 C 289.450 261.480, 293.211 262.575, 294.875 263.435 C 298.514 265.317, 301.240 265.404, 305.724 263.783 C 308.702 262.706, 310.013 262.894, 317.107 265.415 C 323.835 267.805, 326.173 268.180, 331.634 267.741 C 335.653 267.419, 340.125 267.746, 343.322 268.598 C 350.778 270.583, 354.172 270.349, 366.500 267 C 372.550 265.356, 378.400 264.006, 379.500 263.998 C 382.026 263.981, 384.467 259.393, 382.378 258.591 C 379.544 257.504, 381.076 254.896, 385.718 252.906 C 389.760 251.174, 391.662 250.980, 398.987 251.553 C 403.880 251.936, 409.082 251.795, 411.149 251.225 C 413.928 250.457, 415.479 250.576, 417.880 251.739 C 419.596 252.570, 421 253.591, 421 254.008 C 421 254.426, 422.012 255.001, 423.250 255.288 C 424.488 255.574, 429.550 256.971, 434.500 258.392 C 448.288 262.350, 449.680 262.136, 456.582 255 C 459.774 251.700, 463.225 249, 464.252 249 C 465.326 249, 465.837 248.545, 465.455 247.927 C 465.090 247.337, 466.072 244.075, 467.636 240.677 C 470.186 235.140, 470.481 233.412, 470.490 224 L 470.500 213.500 462.024 196.598 C 457.362 187.301, 452.049 177.732, 450.216 175.332 C 445.427 169.060, 443.785 164.695, 445.007 161.483 C 445.553 160.046, 446 157.920, 446 156.758 C 446 153.237, 437.103 141.157, 425.936 129.514 C 413.799 116.861, 410.745 112.828, 411.604 110.591 C 412.617 107.950, 415.347 108.766, 421.575 113.571 C 428.300 118.760, 447.486 138.264, 455.441 148 C 458.362 151.575, 461.995 155.625, 463.513 157 C 466.865 160.035, 476.058 172.257, 478.390 176.780 C 481.565 182.934, 487 203.847, 487 209.908 C 487 213.029, 487.672 214.619, 490 217 C 492.745 219.808, 493 220.653, 493 226.949 C 493 237.631, 485.287 255.871, 478.849 260.415 C 460.842 273.126, 461.014 273.065, 437.379 275.007 C 424.824 276.038, 422.717 275.982, 418.379 274.494 C 411.910 272.276, 399.033 272.400, 398.271 274.687 C 397.773 276.182, 399.799 277.476, 406.500 279.944 C 409.800 281.159, 414.540 283.262, 417.033 284.618 C 421.267 286.919, 426.441 288.288, 446.500 292.414 C 450.900 293.319, 456.075 294.490, 458 295.016 C 461.590 295.996, 470.386 294.399, 486.118 289.911 C 493.651 287.762, 500.123 282.390, 502.675 276.169 C 503.503 274.151, 506.164 268.576, 508.588 263.780 C 513.857 253.357, 520.604 228.475, 521.585 215.853 C 522.036 210.054, 522.715 207.118, 523.808 206.250 C 525.174 205.166, 525.182 205, 523.875 205 C 523.022 205, 521.153 202.458, 519.570 199.147 C 517.294 194.384, 516.980 192.906, 517.886 191.212 C 518.499 190.068, 519 187.784, 519 186.137 C 519 182.946, 521.205 180, 523.593 180 C 525.514 180, 533 191.663, 533 194.655 C 533 196.210, 532.411 197.010, 531.250 197.030 C 529.583 197.059, 529.583 197.109, 531.250 198.080 C 533.470 199.373, 533.656 205.534, 531.500 206.362 C 530.675 206.678, 530 207.362, 530 207.882 C 530 208.811, 534.577 207.691, 538.236 205.866 C 539.191 205.390, 540.991 204.993, 542.236 204.985 C 546.545 204.956, 547.287 203.704, 546.454 197.873 C 546.031 194.918, 545.595 191.825, 545.484 191 C 545.374 190.175, 544.759 188.207, 544.119 186.627 C 543.479 185.046, 543.226 182.310, 543.557 180.546 C 544.161 177.328, 539.600 157.765, 536.536 150.431 C 535.734 148.511, 534.570 144.141, 533.951 140.720 C 533.331 137.299, 532.489 134.050, 532.079 133.500 C 531.670 132.950, 529.801 128.675, 527.927 124 C 524.931 116.525, 523.615 114.627, 517.010 108.256 C 509.721 101.226, 509.352 101.013, 504.473 101.006 C 500.058 101.001, 495.982 99.441, 494 97 C 492.270 94.869, 488.038 93, 484.945 93 C 479.499 93, 461.892 86.555, 459.376 83.641 C 454.829 78.375, 444.493 75.288, 426.949 73.956 C 418.895 73.345, 412.867 72.252, 407.402 70.413 C 401.122 68.299, 396.524 67.583, 385 66.927 C 361.067 65.565, 331.543 65.166, 313.500 65.961 M 484.750 69.117 C 481.345 70.870, 479.572 74, 481.984 74 C 483.305 74, 489.632 68.296, 488.999 67.676 C 488.725 67.407, 486.813 68.056, 484.750 69.117 M 582.681 73.967 C 579.725 77.481, 579.949 80.673, 583.018 78.757 C 585.424 77.254, 587.372 72.972, 586.188 71.788 C 585.643 71.243, 584.238 72.116, 582.681 73.967 M 330.104 79.914 C 326.735 82.048, 332.369 85.363, 346.275 89.429 C 351.024 90.818, 352.472 91.788, 354.432 94.892 C 359.278 102.568, 372.797 112.396, 377.708 111.813 C 381.636 111.347, 381.475 109.707, 377.283 107.481 C 372.341 104.856, 367 100.138, 367 98.396 C 367 95.720, 369.114 96.268, 392.802 105.081 C 395.718 106.166, 398.530 106.790, 399.052 106.468 C 401.537 104.932, 399.490 102.623, 392.750 99.360 C 388.762 97.429, 383.257 94.561, 380.515 92.986 C 377.773 91.411, 373.273 89.816, 370.515 89.441 C 367.757 89.065, 364.225 87.856, 362.668 86.752 C 355.716 81.829, 334.212 77.313, 330.104 79.914 M 615.884 95.750 C 614.515 97.263, 612.178 100.300, 610.691 102.500 C 609.204 104.700, 603.040 111.418, 596.994 117.429 C 586.472 127.888, 583.871 132, 587.777 132 C 590.353 132, 593.782 129.322, 595.526 125.950 C 596.359 124.339, 599.065 120.654, 601.541 117.761 C 604.016 114.867, 607.269 110.984, 608.770 109.131 C 611.527 105.729, 613.244 103.992, 618.250 99.538 C 621.102 97, 621.982 93, 619.687 93 C 618.965 93, 617.254 94.237, 615.884 95.750 M 299.547 108.272 C 293.859 111.494, 289 118.231, 289 122.896 C 289 128.549, 291.770 136.807, 294.082 138.044 C 295.425 138.763, 295.901 139.738, 295.510 140.970 C 294.497 144.159, 308.515 157, 313.008 157 C 313.707 157, 314.877 156.213, 315.608 155.250 C 316.832 153.637, 316.939 153.685, 316.968 155.861 C 316.998 158.041, 317.288 158.170, 320.750 157.542 C 326.100 156.570, 331.599 152.463, 333.305 148.166 C 335.352 143.010, 336.341 136.329, 335.164 135.602 C 334.627 135.270, 334.416 134.126, 334.695 133.060 C 336.161 127.454, 328.032 113.879, 320.257 108.948 C 314.206 105.111, 305.622 104.831, 299.547 108.272 M 307.500 116.719 C 301.950 118.071, 300.102 125.748, 303.739 132.346 C 308.746 141.429, 314.417 145.967, 320.795 145.994 C 323.609 146.007, 327 141.192, 327 137.186 C 327 131.341, 321.792 121.960, 316.722 118.673 C 312.647 116.031, 311.405 115.768, 307.500 116.719 M 636.673 121.178 C 630.673 130.587, 626.814 137.941, 627.226 139.179 C 627.779 140.836, 636.201 132.922, 640.020 127.156 C 642.074 124.056, 642.993 121.548, 642.795 119.587 C 642.326 114.925, 640.330 115.443, 636.673 121.178 M 617.935 121.714 C 609.328 130.916, 604.740 137.140, 605.789 138.189 C 606.531 138.931, 607.538 138.512, 609.173 136.782 C 613.421 132.284, 619.652 124.533, 620.900 122.195 C 623.094 118.082, 621.564 117.834, 617.935 121.714 M 229 123.916 C 229 126.059, 235.904 132, 238.394 132 C 240.832 132, 240.330 129.856, 236.927 125.728 C 233.479 121.545, 229 120.521, 229 123.916 M 549.321 129.606 C 548.982 130.489, 549.721 133.302, 550.964 135.856 C 552.600 139.219, 553.476 143.534, 554.139 151.500 C 554.643 157.550, 555.718 167.353, 556.528 173.284 C 557.337 179.216, 558 188.034, 558 192.879 C 558 205.480, 557.974 205.465, 574.500 202.269 C 581.650 200.886, 589.862 199.123, 592.750 198.350 L 598 196.944 598 187.902 C 598 179.708, 596.387 168.088, 593.787 157.543 C 592.281 151.435, 580.125 139.708, 573.152 137.638 C 570.249 136.776, 564.584 134.254, 560.564 132.035 C 552.613 127.646, 550.267 127.139, 549.321 129.606 M 247.707 143.627 C 246.694 144.639, 249.193 148.875, 268.869 179.500 C 270.282 181.700, 271.327 183.876, 271.191 184.336 C 270.828 185.558, 274.473 191.156, 277.455 193.957 C 278.873 195.290, 281.286 198.885, 282.815 201.946 C 285.832 207.982, 292.944 218, 294.213 218 C 294.646 218, 295 218.627, 295 219.393 C 295 221.143, 297.267 222.071, 298.972 221.018 C 299.998 220.383, 299.808 218.716, 298.040 212.860 C 294.487 201.088, 288.377 189.466, 283.858 185.887 C 281.694 184.174, 278.978 180.911, 277.821 178.636 C 274.581 172.263, 268.340 163.416, 263.045 157.689 C 260.406 154.835, 256.334 150.363, 253.996 147.750 C 249.754 143.010, 248.890 142.443, 247.707 143.627 M 611.449 173.083 C 611.081 173.679, 611.355 179.328, 612.058 185.638 C 613.110 195.075, 613.673 197.290, 615.232 198.124 C 616.274 198.682, 621.043 199.392, 625.830 199.702 C 633.130 200.175, 634.754 200.002, 635.892 198.630 C 637.075 197.204, 636.720 196.420, 633.125 192.520 C 630.856 190.058, 629 187.683, 629 187.242 C 629 186.800, 625.884 183.190, 622.075 179.219 C 615.392 172.251, 612.865 170.792, 611.449 173.083 M 655.750 179.456 C 649.217 186.499, 647.845 189.168, 650.057 190.535 C 652.437 192.006, 656.144 189.899, 657.657 186.214 C 658.495 184.171, 660.533 181.085, 662.185 179.356 C 665.031 176.375, 665.680 172.953, 663.500 172.423 C 662.950 172.289, 659.462 175.454, 655.750 179.456 M 685.035 199.135 C 687.002 206.783, 688.124 208.659, 690.027 207.483 C 691.810 206.381, 690.632 199.943, 687.867 195.677 C 684.010 189.725, 682.948 191.022, 685.035 199.135 M 615.276 211.763 C 614.571 212.237, 619.874 213.117, 627.776 213.837 C 651.802 216.026, 665.195 217.998, 676.700 221.039 C 689.114 224.321, 698 224.947, 698 222.539 C 698 218.426, 660.124 212.352, 628 211.312 C 621.675 211.108, 615.949 211.310, 615.276 211.763 M 592.582 221.390 C 587.491 222.104, 584.498 222.997, 584.201 223.892 C 583.848 224.956, 584.417 225.131, 586.619 224.637 C 588.204 224.281, 591.975 223.744, 595 223.443 C 604.442 222.504, 607.075 221.931, 606.469 220.949 C 605.773 219.823, 603.180 219.905, 592.582 221.390 M 615.577 220.875 C 614.818 222.103, 621.371 223.716, 636.500 226.025 C 649.988 228.084, 677 229.822, 677 228.631 C 677 226.293, 656.126 222.319, 637.021 221.019 C 619.010 219.793, 616.257 219.775, 615.577 220.875 M 126.667 225.667 C 124.473 227.860, 129.175 230.394, 144 235.006 C 149.775 236.803, 157.073 239.112, 160.218 240.137 C 166.313 242.123, 169.008 242.465, 168.988 241.250 C 168.972 240.312, 162.399 236, 160.986 236 C 160.412 236, 157.275 234.653, 154.015 233.007 C 142.622 227.256, 128.790 223.544, 126.667 225.667 M 604.578 238.874 C 604.175 239.525, 604.651 240.266, 605.687 240.601 C 606.684 240.923, 608.625 241.561, 610 242.018 C 616.169 244.068, 623.535 245.200, 627.673 244.733 C 631.912 244.256, 634.991 242.658, 633.857 241.524 C 631.857 239.524, 605.642 237.151, 604.578 238.874 M 671.760 255.250 C 670.639 256.965, 670.475 258.808, 671.072 263 C 672.233 271.163, 672.184 289, 671 289 C 669.480 289, 669.805 292.773, 671.555 295.444 C 673.634 298.616, 674.147 319.903, 672.201 322.253 C 671.216 323.443, 671.188 323.998, 672.085 324.552 C 673.377 325.351, 672.774 341.121, 670.921 355 C 670.370 359.125, 669.927 364.188, 669.937 366.250 C 669.946 368.313, 669.514 370, 668.977 370 C 668.440 370, 668 370.665, 668 371.478 C 668 374.487, 661.515 385.973, 659.809 385.987 C 658.879 385.994, 657.840 386.450, 657.500 387 C 657.160 387.550, 657.734 388, 658.776 388 C 660.586 388, 660.549 388.501, 657.946 399.250 C 656.447 405.438, 654.921 414.449, 654.556 419.275 C 653.716 430.365, 648.930 444, 645.878 444 C 644.240 444, 641 440.010, 641 437.993 C 641 436.890, 642.175 434.977, 643.610 433.743 C 647.278 430.591, 647.996 428.059, 646.256 424.410 C 644.943 421.657, 644.958 420.982, 646.391 418.210 C 647.297 416.458, 648 412.697, 648 409.599 C 648 405.488, 648.424 403.862, 649.681 403.159 C 651.255 402.278, 651.255 402.112, 649.681 400.538 C 647.551 398.408, 647.512 393.631, 649.607 391.536 C 650.491 390.652, 651.376 388.032, 651.575 385.714 C 651.773 383.396, 652.323 376.671, 652.796 370.768 C 653.453 362.589, 654.097 359.550, 655.505 357.994 C 656.922 356.429, 657.078 355.678, 656.176 354.776 C 654.605 353.205, 654.693 346.260, 656.409 336.500 C 658.095 326.907, 658.639 320.306, 657.813 319.480 C 656.581 318.248, 658.259 310.454, 660.103 308.840 C 662.279 306.935, 662.462 305.862, 660.882 304.282 C 659.576 302.976, 659.352 291.019, 660.632 290.960 C 661.110 290.939, 661.641 291.817, 661.813 292.913 C 661.986 294.009, 663.032 295.193, 664.139 295.544 C 666.405 296.263, 668.034 295.264, 666.337 294.196 C 665.729 293.813, 665.064 292.620, 664.860 291.544 C 664.654 290.457, 663.394 289.329, 662.023 289.005 C 659.433 288.394, 659.513 288.615, 657.101 275.413 C 654.151 259.265, 652.877 257.591, 642.626 256.386 C 633.728 255.340, 618.560 261.142, 617.267 266.086 C 616.992 267.139, 616.032 268.007, 615.133 268.015 C 614.235 268.024, 612.825 268.487, 612 269.044 C 610.852 269.819, 611.204 269.992, 613.500 269.779 L 616.500 269.500 616.381 274.740 C 616.316 277.621, 615.742 280.606, 615.106 281.373 C 614.215 282.446, 614.273 282.891, 615.360 283.308 C 617.199 284.013, 616.456 291.581, 613.870 298.500 C 612.842 301.250, 611.993 305.075, 611.983 307 C 611.959 311.739, 608.407 325.130, 606.932 326.042 C 606.278 326.446, 606.031 327.241, 606.381 327.808 C 606.732 328.376, 606.347 333.630, 605.525 339.483 C 604.412 347.411, 603.148 351.986, 600.572 357.416 C 598.142 362.536, 597.055 366.313, 596.919 370.103 C 596.732 375.337, 592.579 387.458, 589.558 391.589 C 588.209 393.434, 588.137 393.434, 586.090 391.582 C 583.613 389.340, 583.442 385.685, 585.461 378.101 C 586.873 372.794, 589 369.108, 589 371.967 C 589 372.718, 589.297 373.036, 589.661 372.673 C 590.024 372.310, 589.499 371.104, 588.495 369.995 C 586.724 368.037, 586.734 367.835, 588.833 363.238 C 591.298 357.839, 594 343.302, 594 335.434 C 594 332.517, 594.509 328.863, 595.131 327.315 C 596.508 323.888, 596.510 323.875, 597.377 306.500 C 597.762 298.800, 598.787 288.578, 599.656 283.783 C 600.541 278.897, 600.944 273.514, 600.572 271.533 C 599.995 268.456, 599.536 268, 597.017 268 C 595.426 268, 591.059 268.721, 587.312 269.603 C 575.362 272.416, 560.669 270.031, 557.931 264.835 C 554.256 257.860, 552.557 260.582, 549.433 278.452 C 548.573 283.376, 547.582 287.868, 547.232 288.434 C 546.881 289.001, 546.532 290.148, 546.455 290.982 C 545.600 300.307, 537.863 332.241, 534.276 341.250 C 532.733 345.125, 529.730 346.345, 528.652 343.535 C 527.411 340.302, 529.861 315.426, 531.940 310.152 C 533.127 307.140, 534.022 302.505, 534.053 299.213 C 534.082 296.071, 534.674 290.327, 535.369 286.449 C 537.512 274.491, 536.352 274.278, 523.710 284.308 C 518.645 288.327, 513.223 292.413, 511.663 293.388 C 507.164 296.198, 509.115 296.220, 515.968 293.435 C 525.123 289.715, 525.656 291.588, 517.337 298.238 C 511.982 302.519, 507.683 304.790, 497.500 308.719 C 490.350 311.478, 481.350 314.544, 477.500 315.532 C 473.650 316.521, 469.285 317.930, 467.800 318.664 C 466.315 319.399, 462.857 320.481, 460.116 321.068 C 456.293 321.888, 454.528 322.930, 452.535 325.543 L 449.937 328.950 434.218 329.225 C 415.926 329.545, 414.352 330.563, 425.105 335.117 C 433.880 338.834, 443.952 339.917, 447.587 337.535 C 451.074 335.250, 455.552 335.342, 461.582 337.823 C 464.287 338.935, 468.137 340.116, 470.138 340.447 C 472.139 340.778, 474.839 342.103, 476.138 343.392 C 477.437 344.681, 480.831 346.912, 483.679 348.349 C 486.528 349.786, 489.142 351.421, 489.488 351.981 C 489.835 352.541, 491.186 353, 492.492 353 C 495.192 353, 496.405 350.463, 495.476 346.761 C 495.084 345.197, 495.418 343.898, 496.431 343.058 C 498.203 341.587, 500.094 342.561, 508 349.015 C 510.475 351.036, 513.960 353.263, 515.745 353.964 C 517.530 354.665, 522.066 357.357, 525.825 359.947 C 534.493 365.918, 534.012 365.746, 549.805 368.545 C 563.625 370.995, 574.534 374.957, 573.731 377.235 C 573.446 378.043, 571.787 378.403, 569.142 378.232 C 563.415 377.861, 563.578 380.599, 569.498 384.190 C 572.470 385.994, 574.152 387.807, 574.600 389.690 C 575.552 393.692, 577.426 395.512, 585.958 400.726 C 603.489 411.438, 617.972 421.848, 617.989 423.750 C 617.995 424.438, 618.450 425, 619 425 C 619.550 425, 620 425.675, 620 426.500 C 620 427.325, 620.620 428, 621.379 428 C 622.612 428, 623.658 429.896, 625.363 435.218 C 625.665 436.163, 625.414 437.244, 624.805 437.621 C 624.034 438.097, 624.128 438.639, 625.112 439.403 C 625.891 440.006, 627.386 441.850, 628.434 443.500 C 629.483 445.150, 632.065 448.554, 634.171 451.064 C 636.277 453.575, 638 456.361, 638 457.255 C 638 458.150, 638.460 459.166, 639.022 459.514 C 640.418 460.376, 646 471.568, 646 473.503 C 646 474.361, 645.328 475.321, 644.506 475.636 C 643.684 475.952, 643.303 476.681, 643.658 477.256 C 644.066 477.915, 644.756 477.687, 645.521 476.640 C 646.473 475.339, 646.941 475.252, 647.680 476.239 C 649.174 478.237, 655 491.525, 655 492.935 C 655 494.911, 665.120 525.342, 666.246 526.750 C 667.965 528.901, 669.978 528.126, 671.440 524.750 C 672.214 522.962, 675.109 516.550, 677.872 510.500 C 680.635 504.450, 683.815 497.132, 684.938 494.237 C 686.062 491.342, 690.074 482.792, 693.855 475.237 C 697.635 467.682, 701.788 458.155, 703.083 454.067 C 704.378 449.979, 706.576 445.280, 707.969 443.626 C 710.144 441.040, 710.541 439.484, 710.788 432.559 C 711.187 421.410, 711.454 420.605, 716.505 415.333 C 719.325 412.390, 721.214 409.376, 721.631 407.153 C 723.127 399.177, 720.421 370.459, 717.442 362.708 C 716.142 359.323, 714.540 361.662, 713.423 368.576 C 710.087 389.219, 704.845 413.823, 703.224 416.447 C 702.891 416.986, 702.466 418.911, 702.280 420.725 C 701.824 425.169, 700.290 429, 698.966 429 C 698.370 429, 698.118 429.382, 698.406 429.849 C 698.695 430.315, 697.824 434.301, 696.471 438.706 C 692.630 451.216, 688.136 455.189, 684.355 449.419 C 682.731 446.941, 682.769 446.632, 685.297 441.638 C 686.746 438.777, 688.587 432.626, 689.388 427.968 C 690.190 423.311, 691.532 417.475, 692.372 415 C 693.211 412.525, 694.361 406.450, 694.927 401.500 C 695.492 396.550, 697.088 385.525, 698.472 377 C 701.078 360.955, 703.493 323.612, 702.478 315.069 C 702.180 312.556, 701.765 308.475, 701.556 306 C 700.454 292.915, 694.279 279.011, 684.803 268.276 C 681.092 264.073, 678.995 260.841, 679.141 259.550 C 679.563 255.823, 678.014 253, 675.548 253 C 674.247 253, 672.585 253.987, 671.760 255.250 M 534.079 257.405 C 533.492 258.112, 532.738 260.060, 532.403 261.733 C 532.052 263.488, 530.510 265.725, 528.759 267.020 C 526.009 269.053, 525.890 269.359, 527.500 270.260 C 528.838 271.008, 529.506 270.847, 530.200 269.606 C 530.708 268.700, 531.549 268.221, 532.070 268.544 C 533.851 269.644, 536.784 267.937, 537.950 265.120 C 539.989 260.199, 536.889 254.020, 534.079 257.405 M 706.433 258.315 C 705.828 259.890, 706.561 261.814, 710.409 268.754 C 715.318 277.608, 716.504 274.452, 712.382 263.500 C 710.038 257.273, 707.636 255.179, 706.433 258.315 M 280.243 274.250 C 280.875 276.182, 287.773 277.627, 289.261 276.139 C 290.993 274.407, 288.535 273.035, 283.667 273.015 C 281.043 273.005, 279.963 273.395, 280.243 274.250 M 349.500 285.507 C 348.950 285.682, 347.297 286.089, 345.827 286.412 C 341.152 287.439, 337 291.739, 337 295.554 C 337 299.342, 339.045 301, 343.719 301 C 346.993 301, 356.074 304.028, 361.888 307.059 C 364.074 308.198, 368.481 309.368, 371.681 309.658 C 374.882 309.948, 379.054 310.884, 380.953 311.736 C 382.852 312.589, 390.277 313.866, 397.453 314.575 C 404.629 315.284, 411.954 316.310, 413.731 316.856 C 415.859 317.511, 418.179 317.513, 420.531 316.864 C 422.995 316.183, 425.158 316.227, 427.515 317.005 C 430.207 317.894, 433.280 317.757, 442.059 316.357 C 453.236 314.575, 456.866 313.210, 455.652 311.245 C 455.292 310.664, 452.186 308.781, 448.749 307.061 C 445.312 305.342, 441.303 303.269, 439.839 302.456 C 435.038 299.786, 398.023 290.263, 389.500 289.504 C 386.750 289.259, 381.350 288.798, 377.500 288.479 C 373.650 288.161, 367.800 287.497, 364.500 287.005 C 355.246 285.624, 350.594 285.159, 349.500 285.507 M 462.473 304.044 C 461.429 305.733, 464.023 308, 467 308 C 469.977 308, 472.571 305.733, 471.527 304.044 C 471.172 303.470, 469.135 303, 467 303 C 464.865 303, 462.828 303.470, 462.473 304.044 M 344.309 333.636 C 343.643 335.373, 344.942 338.147, 346.696 338.732 C 348.141 339.214, 354.141 334.037, 353.444 332.909 C 352.422 331.256, 344.996 331.847, 344.309 333.636 M 716.595 449.428 C 713.693 454.379, 713.239 458.494, 715.498 459.361 C 718.156 460.381, 722.691 450.754, 721.428 446.773 C 720.550 444.008, 719.402 444.639, 716.595 449.428 M 701.161 479.547 C 699.563 483.052, 699.707 485.950, 701.513 486.643 C 704.008 487.601, 706 485.041, 706 480.878 C 706 477.779, 705.630 477, 704.161 477 C 703.149 477, 701.799 478.146, 701.161 479.547 M 636.278 487.648 C 634.953 490.501, 635.355 492, 637.442 492 C 638.813 492, 639.947 488.342, 639.237 486.212 C 638.602 484.307, 637.604 484.792, 636.278 487.648 M 619.627 491.529 C 617.966 495.858, 620.176 509.082, 625.555 527 C 626.958 531.675, 628.706 537.525, 629.439 540 C 630.171 542.475, 631.239 545.680, 631.812 547.123 C 632.556 548.997, 632.532 550.068, 631.727 550.873 C 630.891 551.709, 631.018 552, 632.218 552 C 633.320 552, 634.519 554.050, 635.971 558.413 C 638.051 564.663, 640.212 567.084, 641.643 564.768 C 642.863 562.795, 641.957 543.818, 640.510 541.019 C 639.769 539.587, 638.642 535.540, 638.005 532.026 C 637.368 528.512, 635.781 522.807, 634.479 519.349 C 633.178 515.891, 631.592 510.414, 630.955 507.179 C 628.710 495.765, 621.712 486.097, 619.627 491.529 M 674.526 543.950 C 672.813 547.262, 672.516 551.583, 673.940 552.463 C 675.307 553.308, 678.798 549.198, 679.524 545.889 C 680.716 540.463, 677.062 539.045, 674.526 543.950 M 610.346 550.750 C 610.022 551.712, 608.398 555.528, 606.739 559.229 C 602.732 568.169, 603.152 574.971, 608.455 587.037 C 612.965 597.300, 613.676 598.228, 616.391 597.408 C 620.782 596.080, 629 585.884, 629 581.764 C 629 579.350, 625.449 572.451, 621.925 568.020 C 620.386 566.084, 618.843 563.150, 618.496 561.500 C 617.440 556.464, 613.739 549, 612.298 549 C 611.549 549, 610.671 549.788, 610.346 550.750 M 589.027 589.440 C 584.089 600.445, 583.545 603.146, 584.942 609.708 C 586.714 618.034, 590.008 624.430, 592.724 624.816 C 594.883 625.123, 599.905 622.288, 599.969 620.726 C 599.986 620.300, 601.575 617.662, 603.500 614.864 C 607.488 609.066, 607.626 608.338, 605.347 605.085 C 604.438 603.787, 602.056 598.400, 600.055 593.113 C 597.103 585.318, 595.996 583.439, 594.198 583.179 C 592.328 582.909, 591.516 583.892, 589.027 589.440 M 631.313 591.229 C 628.469 594.342, 620 606.917, 620 608.028 C 620 608.524, 620.993 609.461, 622.207 610.111 C 624.186 611.170, 624.800 610.856, 628.166 607.063 C 633.033 601.578, 636.691 592.262, 634.742 590.313 C 633.603 589.174, 633.058 589.320, 631.313 591.229 M 566.195 611.750 C 562.541 616.926, 558.002 626.883, 559.012 627.507 C 560.428 628.383, 561.999 627.166, 562.003 625.191 C 562.005 624.261, 563.804 620.800, 566 617.500 C 568.196 614.200, 569.995 610.938, 569.997 610.250 C 570.002 608.155, 568.243 608.849, 566.195 611.750 M 570.091 626.006 C 568.216 628.757, 564.278 633.365, 561.341 636.246 C 556.592 640.904, 556 641.943, 556 645.620 C 556 647.962, 556.613 650.263, 557.413 650.927 C 559.442 652.611, 565.194 649.992, 571.015 644.732 C 573.591 642.404, 577.362 639.083, 579.394 637.350 C 583.537 633.818, 583.583 631.858, 579.687 624.750 C 576.794 619.472, 574.324 619.795, 570.091 626.006 M 535.750 645.060 C 533.272 646.532, 533.581 648.488, 536.500 649.818 C 541.364 652.034, 538.809 655.910, 529.740 660.073 C 524.690 662.392, 523.048 663.656, 523.015 665.250 C 522.966 667.664, 539.341 662.779, 541.466 659.745 C 543.037 657.502, 543.342 651.458, 542.109 647 C 541.352 644.261, 538.539 643.403, 535.750 645.060 M 572.750 654.162 C 571.056 654.781, 570 655.903, 570 657.083 C 570 659.499, 570.485 659.481, 574.632 656.918 C 579.970 653.619, 578.826 651.943, 572.750 654.162"/>
</svg>