<svg id="a" xmlns="http://www.w3.org/2000/svg" width="112.712" height="125.114" viewBox="0 0 112.712 125.114" xmlns:svgjs="http://svgjs.com/svgjs"><path d="M77.407,68.411c-1.279,1.849-2.732,3.567-4.373,5.003-7.6,6.5-17.7,9.1-25.6,9.2-.321,0-.617-.02-.926-.031,4.295,4.585,12.111,6.015,15.526,5.731,6.9-.6,16.8-4.4,23.6-13.3.439-.572.84-1.187,1.225-1.819l-1.825-7.481-7.627,2.697Z" fill="none"></path><path d="M2.934,93.814c1.5,4.1,5,5.5,5.1,5.5.4.2.7.6.7,1,0,.2.5,6.3,6.8,7.4,2,.3,3.5.4,5.2.4.028.001.057.002.085.003-1.019-.607-1.952-1.393-2.808-2.31-.132-.04-.26-.1-.376-.193-5.4-4-11.6-17.6-14.1-23.5-.9,3-2,7.9-.6,11.7Z" fill="none"></path><path d="M68.718,110.992c.229-.163.499-.278.816-.278.888-.02,1.745-.043,2.583-.067-1.374-.791-2.885-1.65-4.883-2.233-1.1-.4-2.6-.8-4.2-1-2.372-.316-3.619,1.123-4.828,3.617,3.665.039,7.243.022,10.513-.039Z" fill="none"></path><path d="M72.034,30.714c8.9,2.1,21.4-.3,24.3-.9l1.219-3.465c-5.066.81-12.173,1.879-15.519,2.065-.5-.1-1-.1-1.4-.1-7.8,0-11.8-2.7-15.1-4.9-.545-.363-1.09-.724-1.635-1.059-.044.228-.146.445-.301.639.6,2.59,2.5,6.315,8.436,7.719Z" fill="none"></path><path d="M58.134,59.714c-1.1,1.1-2.1,2.2-3.3,3.1-3.6,3.2-8.9,6.3-10.4,7.2-.359,1.125-.596,2.207-.728,3.249,6.656-.916,15.072-4.465,21.204-10.713l-.418-8.281c-2.534,1.63-4.463,3.549-6.358,5.445Z" fill="none"></path><path d="M44.808,80.173c7.778.699,18.852-1.655,26.725-8.459,1.375-1.19,2.612-2.625,3.723-4.185l-1.323-6.615-7.15,2.86c-6.701,6.974-15.939,10.861-23.17,11.729.062,1.697.463,3.258,1.195,4.67Z" fill="none"></path><path d="M99.134,23.014c-.02-.016-.029-.039-.048-.056-2.481-1.367-6.268-2.772-10.752-2.244-6.961.763-19.361-.836-24.4-1.594v.716c.945.522,1.807,1.098,2.8,1.677,3.4,2.2,7.2,4.8,15.1,4.5,3.9-.2,13.5-1.7,18.2-2.5-.228-.142-.476-.288-.736-.435-.055-.022-.117-.041-.164-.065Z" fill="none"></path><path d="M21.734,45.014c.9.3,2,.7,4,.5,4-.4,6.2-4.8,6.2-4.8.1-.3.4-.5.7-.6.3-.1.6-.1.9.1.1.1,3.9,1.9,8.9-.3,3.1-1.5,5.2-6.4,6.2-9.8-1.6.7-3.9,1.6-6.9,2.5-1.8.5-3.8,1-5.9,1.4-4.5.9-9.6,2-14.3,4.7-3.2,1.9-5.9,5.7-7.6,9.1,1.3-1.3,2.7-2.4,3.8-2.8,1.8-.7,2.9-.4,4,0Z" fill="none"></path><path d="M67.534,59.514c1.606-2.114,2.995-4.949,4.051-8.311-1.87.491-3.484,1.113-4.913,1.826l.334,7.137c.175-.219.359-.429.528-.653Z" fill="none"></path><path d="M88.134,15.414c-6.417-.696-18.269.819-23.41,1.543,5.088.718,17.052,2.257,23.51,1.557,4.646-.516,8.562.727,11.315,2.091l2.803-3.684-2.844-3.668c-2.756,1.388-6.694,2.68-11.374,2.16Z" fill="none"></path><path d="M66.834,12.214c-.963.722-1.863,1.309-2.8,1.773v.62c5.039-.757,17.439-2.357,24.4-1.594,5.1.6,9.3-1.3,11.7-2.8-.076-.013-.164-.028-.242-.041-.021.012-.036.03-.058.041-.409.136-.811.026-1.125-.239-5.005-.828-13.234-2.08-16.775-2.261-7.9-.3-11.8,2.2-15.1,4.5Z" fill="none"></path><path d="M65.434,10.514c3.5-2.4,7.8-5.3,16.5-5,3.39.126,10.641,1.197,15.718,2.026l-1.218-3.526c-2.9-.6-15.4-3-24.3-.9-5.924,1.401-7.828,5.073-8.433,7.658.154.185.256.413.298.674.478-.3.956-.613,1.434-.932Z" fill="none"></path><path d="M29.034,122.714c6.5-.6,8.6-4.4,8.7-4.5.1-.3.4-.5.7-.6.3-.1.6,0,.9.1.1,0,6,3.6,10.7,1.4,2.5-1.1,3.8-4.1,5-6.9.8-1.9,1.7-3.9,3-5.3h-.1c-5,0-11.3,1.2-18.2,5-8.9,4.8-21.7,6.4-27.7,6.9,3.2,1.9,9.2,4.6,17,3.9Z" fill="none"></path><path d="M88.469,70.088c3.126-7.106,3.805-15.815,3.965-18.774-.503-.112-1.197-.258-2.046-.411-.442,3.598-1.719,8.645-3.364,13.278l1.445,5.908Z" fill="none"></path><path d="M99.834,89.914c-5.947,0-13.545-1.207-19.715-6.069-7.566,5.529-15.2,6.645-17.885,6.869-.3.1-.6.1-1,.2-4.2,0-12.9-1.7-17.4-7.5-3.016-3.794-3.564-8.537-1.843-14.131-.321-.671-1.206-2.273-2.753-3.917-.035-.02-.069-.029-.104-.052-.057-.057-.089-.129-.136-.193-1.473-1.502-3.494-2.998-6.164-3.807-5.177-1.49-11.751.706-14.401,1.773.989,2.038,1.65,5.012-.019,7.476.553,1.316,2.406,5.261,5.62,7.651,3.8,2.9,11,3.4,11.1,3.4.5,0,1,.4,1.1.9.182.547,3.704,11.578,24.216,12.9,4.897.295,10.89-1.502,16.584-3.2,4.8-1.5,9.4-2.9,12.9-2.7,6.321.26,14.887,5.24,17.396,6.702.954-.851,2.343-2.37,2.504-3.902.147-1.69-.46-2.78-.793-3.282-1.619.324-5.021.882-9.207.882ZM35.734,71.014h-2.8c-.4,0-.8-.2-1-.5s-.3-.8-.2-1.2c.4-1-.2-2.1-1.2-2.5-.206-.083-.416-.113-.624-.116.324.422.524.943.524,1.516,0,1.381-1.119,2.5-2.5,2.5s-2.5-1.119-2.5-2.5c0-.345.07-.675.197-.974.003-.008,0-.018.003-.026.8-2.3,3.4-3.6,5.7-2.8,1.1.4,2,1.2,2.6,2.3.3.6.4,1.1.4,1.7h1.3c.7,0,1.3.6,1.3,1.3.1.8-.5,1.3-1.2,1.3Z" fill="none"></path><path d="M10.464,66.433c-.002.224-.003.447-.004.672l6.074,1.909c1-1.7.2-3.8-.4-4.9l-5.67,2.319Z" fill="none"></path><path d="M53.234,60.914c1.1-.9,2.1-1.9,3.1-3,1.749-1.749,3.595-3.608,5.957-5.264l-6.765-1.465c-.364.27-.728.539-1.092.829-4.621,3.567-10.554,9.958-12.689,12.304,1.007,1.182,1.72,2.302,2.17,3.118,2.035-1.225,6.279-3.927,9.32-6.522Z" fill="none"></path><path d="M97.334,85.014c-4.986-.254-11.312-3.356-13.338-4.434-.671.65-1.351,1.255-2.034,1.824,9.957,7.376,23.984,4.91,26.917,4.321.589-1.174,1.08-2.422,1.255-3.212-2.7.6-8.5,1.8-12.8,1.5Z" fill="none"></path><path d="M106.391,98.391c-1.817-1.14-10.55-6.308-16.557-6.577-3-.1-7.4,1.2-12.1,2.6-.743.221-1.498.448-2.26.673,7.874-.389,13.015-.291,18.56,3.526,5.5,3.8,9.7,7.9,11.3,9.6,1-.7,2.5-2.2,2.5-4.6-.1-3.6-1.3-5-1.3-5-.049-.074-.098-.148-.143-.223Z" fill="none"></path><path d="M79.184,50.1c-.474,1.833-1.49,5.44-3.176,9.402l1.016,5.272c3.283-5.656,5.134-12.028,5.809-14.686-1.168-.041-2.389-.044-3.65.012Z" fill="none"></path><path d="M84.92,63.2c1.737-4.988,2.798-9.633,3.18-12.657-.91-.125-1.908-.238-2.982-.325-.578,2.459-2.351,8.94-5.721,14.979l5.523-1.998Z" fill="none"></path><path d="M72.25,48.422c.315-1.304.615-2.677.855-4.105-4.094.346-9.381,1.631-14.929,5.07l6.884,1.573c1.996-1.049,4.343-1.932,7.19-2.538Z" fill="none"></path><path d="M81.134,44.714c-1.125-.187-3.134-.545-5.686-.508-.221,1.292-.454,2.55-.726,3.758,1.977-.296,3.913-.434,5.752-.464l.66-2.785Z" fill="none"></path><path d="M74.087,58.315c1.339-3.2,2.247-6.177,2.727-8.038-.89.091-1.788.216-2.692.377-1.068,3.752-2.493,6.918-4.215,9.372l4.181-1.71Z" fill="none"></path><path d="M112.334,81.314c-.3-.5-.9-.7-1.4-.6-.1,0-8.3,2.1-13.5,1.8-3.982-.225-9.204-2.651-11.598-3.845.61-.68,1.211-1.397,1.798-2.155,7.2-9.2,7.4-25.5,7.4-26.2,0-.5-.4-1-.9-1.2-.156-.039-1.802-.502-4.386-.924-.102-.037-.203-.076-.314-.076-.024,0-.047.013-.071.014-1.731-.269-3.845-.511-6.195-.6l.767-3.415c.1-.6-.3-1.3-.9-1.5-.2-.1-3.3-1-8.2-.9-.007,0-.012.004-.019.004-5.5.12-13.74,1.742-22.081,8.296-4.694,3.723-10.565,9.998-12.793,12.468-1.629-1.445-3.731-2.789-6.407-3.568-7.5-2.2-17,2.2-17.4,2.4l-5.613,2.317c.124-3.483.423-6.867.874-10.086,1.725-2.028,5.171-5.831,7.039-6.631,1-.4,1.4-.2,2.3.1,1.1.4,2.5.9,5.1.6,4-.4,6.5-3.5,7.5-5.1,1.7.5,5.4,1.3,9.9-.7,5.9-2.6,8.1-13.2,8.2-13.7.1-.4,0-.8-.4-1.1-.3-.3-.8-.3-1.2-.1,0,.1-3.2,1.9-8.7,3.5-1.7.6-3.6,1-5.7,1.4-4.7.9-10,2-14.9,4.9-3.087,1.801-5.584,4.999-7.447,8.104,1.518-5.991,3.606-10.949,6.047-14.204,6.1-8,15.8-12.2,29-12.6,3.085-.066,5.688-.045,7.147-.023.154.312.357.601.653.823l5.401,4.17c.592,3.218,2.73,8.212,10.199,9.93,2.8.7,5.9.9,9,.9,8.5,0,16.6-1.8,17-1.9.4-.1.7-.3.8-.7l1.852-5.292c1.724-.283,2.891-.482,3.048-.508.4-.1.8-.4.9-.8.1-.5,0-.9-.3-1.2-.104-.104-.936-.842-2.333-1.719l2.933-3.781c.091-.182.173-.44.189-.637.228-.391.214-.884-.089-1.263l-3.021-3.896c1.329-.846,2.12-1.537,2.221-1.604.3-.3.4-.8.3-1.2-.1-.4-.5-.7-.9-.8-.152-.051-1.236-.254-2.857-.534l-1.843-5.266c-.1-.3-.4-.6-.8-.7-.7-.2-15.4-3.6-26-1.1-7.38,1.698-9.555,6.594-10.177,9.815l-5.523,4.285c-.242.182-.422.408-.57.652-1.479-.043-4.12-.081-7.23.048-13.9.4-24.2,5-30.7,13.5-4.192,5.531-6.849,14.09-8.14,23.565-.087.236-.141.387-.16.435-.103.309-.096.59,0,.832-.418,3.415-.662,6.933-.74,10.464l-3.159,1.304c-.5.2-.8.7-.8,1.2,0,.6.4,1,.9,1.2l3.054.954c.144,7.431,1.013,14.715,2.546,20.946.303,1.392.683,2.863,1.14,4.345-4.087-7.299-7.475-15.816-7.54-15.945-.1-.4-.5-.7-1-.7s-.9.3-1.1.7-4.1,9.4-1.6,16.1c1.5,3.9,4.4,5.8,5.7,6.5.5,2.9,2.6,7.8,8.7,8.8,2.2.4,3.8.5,5.6.5,2.5,0,5.2.1,10.7,1h.104c.883.151,1.784.294,2.715.423-11.03,4.426-25.542,4.977-25.719,4.977-.4,0-.8.3-1,.7-.2.4,0,.9.3,1.2.4.2,7.2,6.3,18.4,6.3,1,0,2,0,3.1.1,5.7-.5,8.6-3.3,9.8-4.8,2.1,1,7.2,3.1,11.8,1,3.355-1.48,4.859-4.907,6.147-7.976,1.511.028,3.013.076,4.453.076,2.531,0,4.963-.027,7.25-.069.195.099.408.169.65.169,8.8-.1,15.3-.6,15.4-.6.8,0,1.4-.7,1.3-1.5,0-.8-.7-1.3-1.5-1.3,0,0-3.204.197-8.114.383-.775-.325-1.599-.812-2.586-1.383-1.6-.9-3.6-2-6.2-2.9-5.3-1.8-16.1-3.6-29.4,3.7-.053.03-.109.057-.163.087-6.434-.705-12.009-1.759-15.537-3.387-4-1.9-7.5-7.9-9.7-17-1.583-6.5-2.382-13.239-2.545-19.789l5.554,1.736c.628,1.633,2.701,5.948,6.391,8.654,3.6,2.7,9.4,3.6,11.6,3.8,1.4,3.3,8,14.9,32.9,14,2.2-.1,4.3-.2,6.2-.3,9.1-.4,14.1-.7,19.4,3,6.6,4.6,11.6,9.8,11.6,9.9.2.3.5.4.9.4.2,0,.4,0,.6.2.2-.1,4.8-2.3,4.7-7.4,0-2.8-.7-4.6-1.2-5.6,1.1-1.1,3-3.1,3.2-5.5.3-2.3-.5-4-1.1-4.9.9-1.8,2.1-4.8,1.1-6.5ZM21.534,38.714c4.7-2.7,9.8-3.8,14.3-4.7,2.1-.4,4.1-.9,5.9-1.4,3-.9,5.3-1.8,6.9-2.5-1,3.4-3.1,8.3-6.2,9.8-5,2.2-8.8.4-8.9.3-.3-.2-.6-.2-.9-.1-.3.1-.6.3-.7.6,0,0-2.2,4.4-6.2,4.8-2,.2-3.1-.2-4-.5-1.1-.4-2.2-.7-4,0-1.1.4-2.5,1.5-3.8,2.8,1.7-3.4,4.4-7.2,7.6-9.1ZM81.834,26.014c-7.9.3-11.7-2.3-15.1-4.5-.993-.579-1.854-1.155-2.8-1.677v-.716c5.039.757,17.439,2.357,24.4,1.594,4.484-.528,8.271.878,10.752,2.244.019.017.028.04.048.056.047.023.109.042.164.065.259.147.508.293.736.435-4.7.8-14.3,2.3-18.2,2.5ZM102.352,16.921l-2.803,3.684c-2.753-1.364-6.669-2.608-11.315-2.091-6.458.7-18.422-.839-23.51-1.557,5.141-.724,16.993-2.239,23.41-1.543,4.68.52,8.618-.772,11.374-2.16l2.844,3.668ZM98.709,9.975c.314.265.716.375,1.125.239.022-.011.036-.029.058-.041.079.013.166.028.242.041-2.4,1.5-6.6,3.4-11.7,2.8-6.961-.763-19.361.836-24.4,1.594v-.62c.937-.465,1.837-1.052,2.8-1.773,3.3-2.3,7.2-4.8,15.1-4.5,3.541.182,11.77,1.434,16.775,2.261ZM72.134,3.114c8.9-2.1,21.4.3,24.3.9l1.218,3.526c-5.078-.83-12.328-1.901-15.718-2.026-8.7-.3-13,2.6-16.5,5-.478.319-.956.632-1.434.932-.042-.261-.144-.489-.298-.674.604-2.586,2.509-6.257,8.433-7.658ZM63.898,22.355c.545.335,1.09.695,1.635,1.059,3.3,2.2,7.3,4.9,15.1,4.9.4,0,.9,0,1.4.1,3.346-.186,10.453-1.255,15.519-2.065l-1.219,3.465c-2.9.6-15.4,3-24.3.9-5.937-1.404-7.837-5.129-8.436-7.719.154-.195.257-.411.301-.639ZM63.034,107.414c1.6.2,3.1.6,4.2,1,1.998.583,3.509,1.442,4.883,2.233-.837.024-1.695.047-2.583.067-.317,0-.586.115-.816.278-3.27.061-6.848.078-10.513.039,1.209-2.494,2.456-3.933,4.828-3.617ZM39.734,111.914c6.9-3.8,13.2-5,18.2-5h.1c-1.3,1.4-2.2,3.4-3,5.3-1.2,2.8-2.5,5.8-5,6.9-4.7,2.2-10.6-1.4-10.7-1.4-.3-.1-.6-.2-.9-.1-.3.1-.6.3-.7.6-.1.1-2.2,3.9-8.7,4.5-7.8.7-13.8-2-17-3.9,6-.5,18.8-2.1,27.7-6.9ZM17.634,105.614c.116.093.245.153.376.193.856.917,1.789,1.703,2.808,2.31-.028-.001-.057-.002-.085-.003-1.7,0-3.2-.1-5.2-.4-6.3-1.1-6.8-7.2-6.8-7.4,0-.4-.3-.8-.7-1-.1,0-3.6-1.4-5.1-5.5-1.4-3.8-.3-8.7.6-11.7,2.5,5.9,8.7,19.5,14.1,23.5ZM85.634,75.014c-6.8,8.9-16.7,12.7-23.6,13.3-3.415.285-11.231-1.146-15.526-5.731.309.011.605.031.926.031,7.9-.1,18-2.7,25.6-9.2,1.641-1.436,3.094-3.154,4.373-5.003l7.627-2.697,1.825,7.481c-.384.632-.786,1.246-1.225,1.819ZM66.784,63.774l7.15-2.86,1.323,6.615c-1.112,1.56-2.348,2.995-3.723,4.185-7.873,6.804-18.948,9.158-26.725,8.459-.732-1.412-1.133-2.973-1.195-4.67,7.231-.868,16.469-4.755,23.17-11.729ZM43.706,73.263c.131-1.042.368-2.124.728-3.249,1.5-.9,6.8-4,10.4-7.2,1.2-.9,2.2-2,3.3-3.1,1.895-1.895,3.824-3.815,6.358-5.445l.418,8.281c-6.132,6.248-14.548,9.797-21.204,10.713ZM66.672,53.03c1.429-.713,3.043-1.335,4.913-1.826-1.057,3.362-2.445,6.197-4.051,8.311-.169.224-.353.434-.528.653l-.334-7.137ZM90.387,50.902c.849.153,1.544.3,2.046.411-.16,2.959-.839,11.668-3.965,18.774l-1.445-5.908c1.645-4.633,2.922-9.68,3.364-13.278ZM85.119,50.218c1.074.086,2.072.2,2.982.325-.382,3.024-1.443,7.669-3.18,12.657l-5.523,1.998c3.371-6.039,5.144-12.521,5.721-14.979ZM77.025,64.775l-1.016-5.272c1.686-3.962,2.701-7.569,3.176-9.402,1.261-.056,2.482-.053,3.65-.012-.675,2.658-2.526,9.03-5.809,14.686ZM75.448,44.206c2.552-.037,4.562.32,5.686.508l-.66,2.785c-1.839.031-3.775.168-5.752.464.272-1.207.505-2.465.726-3.758ZM76.814,50.277c-.48,1.861-1.388,4.838-2.727,8.038l-4.181,1.71c1.723-2.454,3.147-5.62,4.215-9.372.904-.16,1.802-.286,2.692-.377ZM73.105,44.316c-.24,1.428-.541,2.801-.855,4.105-2.847.607-5.194,1.49-7.19,2.538l-6.884-1.573c5.548-3.439,10.836-4.724,14.929-5.07ZM54.434,52.014c.364-.29.728-.559,1.092-.829l6.765,1.465c-2.362,1.656-4.207,3.515-5.957,5.264-1,1.1-2,2.1-3.1,3-3.04,2.595-7.285,5.297-9.32,6.522-.449-.816-1.162-1.936-2.17-3.118,2.135-2.346,8.068-8.737,12.689-12.304ZM16.534,69.014l-6.074-1.909c0-.224.002-.448.004-.672l5.67-2.319c.6,1.1,1.4,3.2.4,4.9ZM105.334,108.214c-1.6-1.7-5.8-5.8-11.3-9.6-5.545-3.818-10.687-3.916-18.56-3.526.762-.226,1.518-.452,2.26-.673,4.7-1.4,9.1-2.7,12.1-2.6,6.007.269,14.74,5.438,16.557,6.577.045.075.094.149.143.223,0,0,1.2,1.4,1.3,5,0,2.4-1.5,3.9-2.5,4.6ZM109.834,92.314c-.161,1.532-1.549,3.052-2.504,3.902-2.51-1.462-11.075-6.442-17.396-6.702-3.5-.2-8.1,1.2-12.9,2.7-5.694,1.698-11.687,3.495-16.584,3.2-20.512-1.323-24.034-12.353-24.216-12.9-.1-.5-.6-.9-1.1-.9-.1,0-7.3-.5-11.1-3.4-3.214-2.39-5.067-6.335-5.62-7.651,1.669-2.464,1.008-5.438.019-7.476,2.65-1.067,9.224-3.263,14.401-1.773,2.67.809,4.691,2.305,6.164,3.807.046.064.079.136.136.193.035.023.069.031.104.052,1.547,1.644,2.432,3.246,2.753,3.917-1.721,5.594-1.173,10.337,1.843,14.131,4.5,5.8,13.2,7.5,17.4,7.5.4-.1.7-.1,1-.2,2.685-.224,10.319-1.34,17.885-6.869,6.17,4.862,13.768,6.069,19.715,6.069,4.186,0,7.588-.558,9.207-.882.333.502.94,1.593.793,3.282ZM108.879,86.726c-2.933.589-16.96,3.055-26.917-4.321.683-.57,1.362-1.175,2.034-1.824,2.026,1.078,8.352,4.18,13.338,4.434,4.3.3,10.1-.9,12.8-1.5-.176.79-.666,2.038-1.255,3.212Z" fill="#010101" data-sg-fill="sg-fill-0"></path><path d="M35.634,68.414h-1.3c0-.6-.1-1.1-.4-1.7-.6-1.1-1.5-1.9-2.6-2.3-2.3-.8-4.9.5-5.7,2.8-.003.008,0,.018-.003.026-.127.299-.197.628-.197.974,0,1.381,1.119,2.5,2.5,2.5s2.5-1.119,2.5-2.5c0-.573-.2-1.094-.524-1.516.208.003.418.033.624.116,1,.4,1.6,1.5,1.2,2.5-.1.4,0,.9.2,1.2s.6.5,1,.5h2.8c.7,0,1.3-.5,1.2-1.3,0-.7-.6-1.3-1.3-1.3Z" fill="#010101" data-sg-fill="sg-fill-0"></path></svg>