<svg xmlns="http://www.w3.org/2000/svg" version="1.1" id="Layer_1" x="0px" y="0px" viewBox="0.0 0.0 100.0 91.19" xml:space="preserve">
<g transform="scale(1.1111111111111112)"><g id="Layer_1-2">
	<path fill="#010101" d="M46.312,41.931c-0.161,0.81-0.283,1.483-0.428,2.148c-0.092,0.405-0.206,0.803-0.329,1.2   c-0.084,0.26-0.214,0.497-0.512,0.573c-0.199,0.046-0.466-0.191-0.596-0.581c-0.138-0.421-0.252-0.856-0.352-1.284   c-0.084-0.344-0.138-0.696-0.199-1.047c-0.046-0.291-0.122-0.573-0.252-1.002c-0.092,0.428-0.153,0.703-0.214,0.986   c-0.237,1.193-0.489,2.385-0.711,3.578c-0.138,0.719-0.436,1.361-0.917,1.896c-0.352,0.398-0.52,0.841-0.581,1.361   c-0.199,1.766-0.451,3.532-0.635,5.299c-0.138,1.33-0.206,2.661-0.275,3.999c-0.076,1.422-0.13,2.844-0.191,4.266   c-0.031,0.833-0.061,1.659-0.069,2.493c-0.008,2.08,0,4.159,0,6.231c0,0.864-0.061,1.72-0.214,2.569   c-0.298,1.651-1.101,2.997-2.424,4.022c-1.063,0.826-2.263,0.994-3.54,0.665c-1.193-0.306-2.179-0.917-2.837-2.003   c-0.061-0.099-0.153-0.176-0.245-0.283c-0.176,0.084-0.329,0.161-0.489,0.229c-0.543,0.237-1.078,0.489-1.629,0.711   c-0.589,0.229-1.208,0.306-1.835,0.321c-1.445,0.038-2.661-0.474-3.693-1.476c-0.902-0.872-1.491-1.911-1.72-3.15   c-0.008-0.061-0.023-0.115-0.038-0.176c-0.031-0.122-0.199-0.176-0.283-0.092c-0.382,0.382-0.719,0.795-0.94,1.292   c-0.489,1.086-0.887,2.202-0.826,3.425c0.031,0.535,0,1.07-0.153,1.59c-0.229,0.78-0.703,1.376-1.392,1.781   c-0.459,0.275-0.979,0.428-1.499,0.55c-0.421,0.099-0.757-0.038-1.002-0.398c-0.237-0.344-0.39-0.734-0.512-1.132   c-0.291-0.91-0.451-1.843-0.627-2.775c-0.13-0.703-0.176-1.407-0.191-2.126c-0.031-1.193,0.283-2.286,0.826-3.334   c0.138-0.26,0.26-0.52,0.413-0.81c-0.321-0.268-0.673-0.421-1.009-0.604c-0.711-0.382-1.2-0.963-1.529-1.682   c-0.138-0.291-0.237-0.612-0.321-0.925c-0.367-1.346-0.619-2.714-0.658-4.121c-0.031-1.032,0.222-1.988,0.642-2.928   c0.428-0.94,0.81-1.911,1.2-2.829c-0.176-0.505-0.413-0.917-0.658-1.323c-0.566-0.94-0.81-1.965-0.856-3.051   c0-0.122,0-0.237,0-0.359c-0.092-0.956,0.229-1.812,0.68-2.63c0.199-0.367,0.428-0.711,0.642-1.07   c0.298-0.482,0.696-0.887,1.116-1.262s0.833-0.765,1.246-1.147c0.833-0.788,1.46-1.713,1.85-2.798   c0.153-0.421,0.344-0.818,0.512-1.231c0.596-1.453,1.491-2.707,2.584-3.808c0.497-0.505,1.093-0.91,1.651-1.353   c0.229-0.183,0.512-0.298,0.734-0.573c-0.13-0.054-0.229-0.115-0.329-0.13c-0.26-0.046-0.528-0.084-0.795-0.115   c-0.55-0.076-1.04-0.298-1.392-0.726c-0.344-0.421-0.78-0.612-1.3-0.673c-0.39-0.046-0.749-0.176-1.086-0.382   c-1.759-1.063-3.272-2.378-4.228-4.228c-0.604-1.17-0.994-2.408-0.91-3.754c0.023-0.352,0-0.711-0.031-1.063   c-0.038-0.466-0.26-0.849-0.596-1.162c-0.283-0.26-0.581-0.505-0.879-0.757c-0.474-0.405-0.948-0.81-1.422-1.208   c-0.803-0.68-1.43-1.514-1.904-2.447c-0.849-1.69-0.986-1.881-0.971-3.999c0-0.68,0.031-1.361,0.138-2.041   c0.138-0.849,0.153-1.713,0.076-2.577c-0.054-0.604-0.283-1.055-0.795-1.407c-0.711-0.489-1.392-1.017-2.057-1.56   C2.922,8.206,1.745,6.562,1.049,4.582c-0.367-0.979-0.757-1.98-0.895-3.051C0.109,1.149,0.048,0.766,0.002,0.384   c-0.023-0.214,0.176-0.405,0.39-0.382c0.145,0.015,0.291,0.046,0.436,0.084c0.313,0.084,0.635,0.168,0.94,0.283   c1.476,0.558,3.02,0.879,4.557,1.193c1.338,0.275,2.676,0.543,4.014,0.81c1.751,0.344,3.456,0.856,5.161,1.346   c3.739,1.086,7.363,2.477,10.826,4.274c1.606,0.833,3.165,1.774,4.603,2.875c2.011,1.544,3.815,3.303,5.169,5.482   c0.39,0.627,0.726,1.292,1.078,1.95c0.505,0.94,1.002,1.889,1.491,2.837c0.726,1.399,1.277,2.875,1.843,4.335   c0.619,1.606,1.132,3.249,1.59,4.909c0.183,0.658,0.26,1.338,0.398,2.011c0.054,0.26,0.107,0.52,0.176,0.78   c0.008,0.046,0.061,0.076,0.115,0.145c0.138-0.275,0.268-0.543,0.398-0.803c0.13-0.268,0.252-0.543,0.39-0.803   c0.222-0.421,0.443-0.841,0.688-1.246c0.107-0.176,0.237-0.344,0.375-0.497c0.268-0.306,0.589-0.313,0.826,0   c0.214,0.283,0.413,0.581,0.573,0.895c0.398,0.795,0.772,1.598,1.162,2.408c0.199-0.015,0.199-0.183,0.222-0.306   c0.145-0.665,0.291-1.33,0.421-2.003c0.26-1.346,0.658-2.653,1.116-3.938c0.497-1.399,1.04-2.775,1.59-4.152   c0.268-0.658,0.581-1.3,0.91-1.934c0.65-1.269,1.307-2.531,1.996-3.777c1.116-2.018,2.561-3.777,4.335-5.26   c2.592-2.171,5.497-3.823,8.579-5.199c3.257-1.453,6.629-2.6,10.069-3.532c1.606-0.436,3.227-0.788,4.855-1.093   c1.659-0.313,3.311-0.703,4.954-1.07c0.229-0.054,0.443-0.168,0.665-0.252c0.864-0.336,1.751-0.573,2.676-0.642   C89.74,0.101,89.885,0.124,90,0.285c-0.054,0.887-0.222,1.797-0.466,2.676c-0.619,2.271-1.674,4.305-3.356,5.987   c-0.573,0.573-1.231,1.025-1.858,1.522c-0.352,0.275-0.703,0.55-1.07,0.803c-0.398,0.275-0.589,0.658-0.635,1.124   c-0.015,0.176-0.031,0.359-0.023,0.535c0.031,0.833,0.054,1.659,0.122,2.493c0.061,0.772,0.122,1.544,0.054,2.309   c-0.13,1.606-0.612,3.089-1.636,4.35c-0.619,0.757-1.292,1.476-2.049,2.103c-0.183,0.153-0.375,0.298-0.543,0.466   c-0.313,0.313-0.627,0.635-0.925,0.963c-0.359,0.39-0.512,0.856-0.535,1.384c-0.023,0.505-0.061,1.009-0.107,1.506   c-0.099,1.025-0.459,1.965-0.963,2.844c-0.489,0.849-1.07,1.636-1.751,2.355c-1.025,1.07-2.263,1.82-3.601,2.416   c-0.107,0.046-0.214,0.099-0.329,0.138c-0.375,0.13-0.696,0.329-0.917,0.673c-0.283,0.436-0.703,0.619-1.2,0.658   c-0.298,0.023-0.596,0.038-0.887,0.076c-0.107,0.015-0.206,0.069-0.321,0.107c0.13,0.275,0.367,0.359,0.558,0.482   c1.957,1.262,3.326,3.02,4.312,5.1c0.206,0.428,0.39,0.864,0.55,1.315c0.413,1.139,1.063,2.118,1.942,2.944   c0.344,0.321,0.688,0.658,1.047,0.963c0.596,0.505,1.086,1.086,1.483,1.759c0.359,0.619,0.742,1.216,0.933,1.911   c0.046,0.168,0.115,0.344,0.122,0.52c0.099,1.537-0.031,3.028-0.879,4.373c-0.191,0.298-0.344,0.627-0.505,0.94   c-0.084,0.168-0.092,0.344-0.015,0.512c0.367,0.872,0.719,1.759,1.116,2.622c0.413,0.902,0.658,1.827,0.635,2.837   c-0.031,1.59-0.321,3.127-0.788,4.633c-0.298,0.971-0.887,1.736-1.812,2.217c-0.291,0.145-0.566,0.321-0.826,0.474   c-0.099,0.183,0,0.306,0.061,0.436c0.214,0.459,0.459,0.902,0.658,1.361c0.252,0.573,0.39,1.185,0.398,1.82   c0,0.887,0.015,1.774-0.153,2.661c-0.176,0.933-0.336,1.866-0.612,2.775c-0.13,0.428-0.291,0.841-0.543,1.216   c-0.245,0.359-0.589,0.512-1.002,0.382c-0.482-0.145-0.979-0.283-1.422-0.512c-0.742-0.382-1.239-1.017-1.46-1.827   c-0.107-0.398-0.122-0.818-0.176-1.231c-0.008-0.084-0.008-0.176,0-0.268c0.092-1.162-0.252-2.225-0.696-3.272   c-0.245-0.581-0.604-1.086-1.055-1.529c-0.038-0.038-0.107-0.038-0.191-0.061c-0.046,0.138-0.107,0.275-0.13,0.413   c-0.245,1.307-0.91,2.37-1.896,3.242c-0.841,0.749-1.82,1.208-2.967,1.284c-1.063,0.069-2.072-0.13-3.035-0.558   c-0.459-0.206-0.91-0.428-1.361-0.642c-0.222,0-0.306,0.168-0.398,0.321c-0.596,0.956-1.483,1.529-2.531,1.85   c-1.499,0.459-2.86,0.222-4.075-0.818c-1.208-1.04-1.835-2.385-2.148-3.899c-0.168-0.788-0.206-1.59-0.206-2.393   c0-2.584,0-5.169-0.015-7.753c0-0.535-0.046-1.07-0.069-1.598c-0.023-0.413-0.038-0.833-0.054-1.246   c-0.076-1.629-0.107-3.265-0.245-4.893c-0.161-1.858-0.321-3.723-0.619-5.574c-0.076-0.466-0.145-0.94-0.183-1.414   c-0.038-0.459-0.176-0.872-0.512-1.2c-0.061-0.061-0.115-0.138-0.168-0.206c-0.382-0.505-0.658-1.055-0.78-1.682   c-0.252-1.277-0.497-2.561-0.757-3.838c-0.046-0.222-0.122-0.443-0.222-0.795L46.312,41.931z M67.239,39.714   c0.306,0.405,0.451,0.528,0.887,0.719c0.031,0.199,0.191,0.291,0.329,0.398c0.665,0.558,1.216,1.216,1.629,1.98   c0.497,0.91,0.971,1.827,1.445,2.752c0.245,0.474,0.466,0.956,0.711,1.43c0.076,0.153,0.161,0.321,0.336,0.398   c0.023,0.237,0.138,0.428,0.352,0.535c0.329,0.658,0.872,1.124,1.437,1.56c0.046,0.031,0.107,0.038,0.161,0.054   c0.115,0.245,0.298,0.413,0.535,0.535c0.161,0.245,0.313,0.497,0.489,0.734c0.436,0.612,0.765,1.277,0.879,2.018   c0.069,0.436,0.069,0.887,0.099,1.323c0.061,0.94-0.183,1.82-0.512,2.684c-0.138,0.359-0.306,0.703-0.619,0.948   c-0.387-0.357-0.507-0.729-0.359-1.116c0.038-0.115,0.084-0.222,0.122-0.336c0.321-1.009,0.413-2.049,0.214-3.081   c-0.382-1.942-1.56-3.227-3.425-3.869c-0.39-0.138-0.803-0.191-1.208-0.283c-0.199-0.046-0.398-0.092-0.573-0.138   c-0.474-0.841-0.917-1.644-1.392-2.431c-0.497-0.81-1.025-1.598-1.544-2.393c-0.505-0.772-1.116-1.468-1.72-2.156   c-1.3-1.499-1.514-1.705-2.034-1.98c0.015,0.252,0.054,0.482,0.046,0.719c0,0.352,0.038,0.734-0.069,1.063   c-0.558,1.759-1.552,2.523-3.15,2.73c-0.237,0.031-0.474,0.015-0.711,0.015c-0.206,0-0.413,0-0.612,0   c-0.076,0.222,0.069,0.352,0.168,0.489c1.04,1.522,1.965,3.112,2.814,4.748c0.069,0.13,0.138,0.268,0.214,0.39   c0.466,0.696,0.826,1.445,1.147,2.21c0.528,1.262,1.04,2.523,1.522,3.8c0.673,1.774,1.315,3.563,1.85,5.39   c0.313,1.063,0.749,2.057,1.307,3.012c0.398,0.688,0.986,1.185,1.667,1.56c0.313,0.176,0.665,0.291,1.025,0.245   c0.81-0.107,1.468-0.459,1.827-1.239c0.115-0.245,0.183-0.497,0.283-0.749c0.015-0.038,0.084-0.054,0.13-0.084   c0.023,0.008,0.069,0.015,0.076,0.038c0.275,1.032,0.543,2.057,0.81,3.089c0.038,0.138,0.023,0.291,0.031,0.413   c-1.223,1.254-1.124,0.872-2.309,3.089c-0.099-0.031-0.222-0.046-0.321-0.099c-0.841-0.489-1.774-0.665-2.714-0.81   c-0.145-0.023-0.306,0-0.436-0.054c-0.099-0.038-0.199-0.13-0.245-0.229c-0.13-0.283-0.069-0.566,0.031-0.864   c0.291-0.879,0.474-1.774,0.451-2.707c0-0.214-0.061-0.405-0.191-0.581c-0.948-1.246-1.56-2.661-2.026-4.136   c-0.359-1.162-0.742-2.317-1.17-3.456c-0.627-1.667-1.231-3.341-1.973-4.962c-1.116-2.462-2.424-4.824-3.861-7.118   c-0.145-0.229-0.291-0.451-0.451-0.665c-0.046-0.061-0.138-0.099-0.206-0.145c-0.046,0.054-0.092,0.099-0.122,0.145   c-0.038,0.046-0.061,0.099-0.099,0.153c-0.589,0.849-1.346,1.323-2.424,1.139c-0.076-0.015-0.161,0.038-0.275,0.069   c0.183,0.459,0.359,0.895,0.528,1.338c0.65,1.751,1.307,3.502,1.942,5.26c0.313,0.864,0.642,1.728,0.849,2.622   c0.535,2.309,1.109,4.61,1.384,6.981c0.222,1.896,0.398,3.777,0.122,5.681c-0.038,0.252,0.015,0.466,0.138,0.68   c0.826,1.437,2.11,2.11,3.731,2.21c1.147-0.115,2.225-0.382,2.982-1.369c0.015-0.023,0.031-0.054,0.061-0.069   c0.076-0.031,0.153-0.069,0.237-0.076c0.031,0,0.084,0.076,0.099,0.122c0.054,0.199,0.099,0.405,0.138,0.612   c0.214,1.414,0.092,2.768-0.65,4.045c-0.512,0.887-1.239,1.506-2.156,1.911c-0.237,0.107-0.505,0.176-0.765,0.214   c-1.361,0.183-2.661-0.046-3.922-0.566c-0.298-0.122-0.558-0.336-0.826-0.512c-0.268-0.183-0.39-0.421-0.313-0.757   c0.222-1.002,0.191-2.003,0.015-3.005c-0.038-0.237-0.054-0.474-0.084-0.703c-0.023-0.183,0.031-0.344,0.115-0.505   c0.168-0.313,0.344-0.627,0.459-0.956c0.199-0.619,0.321-1.262,0.352-1.919c0.069-1.43,0.054-2.844-0.153-4.266   c-0.107-0.703-0.145-1.422-0.275-2.118c-0.336-1.843-0.772-3.655-1.269-5.459c-0.55-2.003-1.223-3.968-1.95-5.918   c-0.367-0.971-0.749-1.934-1.132-2.905c-0.046-0.107-0.084-0.222-0.26-0.222c-0.107,0.161-0.206,0.336-0.336,0.497   c-0.13,0.161-0.283,0.306-0.451,0.428c-0.168,0.122-0.352,0.229-0.543,0.291c-0.222,0.076-0.459,0.122-0.696,0.145   c-0.206,0.015-0.413-0.031-0.619-0.046c-0.199-0.008-0.375-0.199-0.612-0.069c0,0.069-0.038,0.161-0.015,0.237   c0.076,0.321,0.168,0.635,0.237,0.948c0.505,2.141,0.925,4.289,0.979,6.499c0,0.206,0.038,0.413,0.046,0.619   c0.046,0.742,0.084,1.483,0.122,2.225c0.023,0.413,0.015,0.833,0.046,1.246c0.115,1.598,0.229,3.196,0.344,4.794   c0.092,1.307,0.291,2.592,0.627,3.861c0.153,0.581,0.421,1.116,0.757,1.598c0.398,0.573,0.917,1.009,1.606,1.208   c0.703,0.206,1.399,0.291,2.08-0.076c0.046-0.023,0.107-0.015,0.206-0.031c0.046,0.161,0.13,0.321,0.145,0.489   c0.054,0.589,0.115,1.185,0.13,1.774c0.015,0.627-0.084,1.239-0.245,1.85c-0.283,1.063-0.94,1.835-1.873,2.385   c-0.122,0.076-0.268,0.138-0.405,0.176c-0.864,0.222-1.705,0.145-2.531-0.168c-0.191-0.069-0.375-0.183-0.535-0.313   c-0.833-0.658-1.476-1.468-1.843-2.462c-0.245-0.665-0.405-1.369-0.459-2.08c-0.076-0.948-0.122-1.896-0.153-2.844   c-0.031-0.948-0.023-1.896-0.038-2.852c-0.054-2.76-0.115-5.52-0.183-8.28c-0.015-0.535-0.076-1.063-0.122-1.598   c-0.069-0.742-0.153-1.476-0.229-2.217c-0.092-0.856-0.176-1.713-0.275-2.569c-0.138-1.177-0.398-2.34-0.421-3.532   c0-0.321-0.138-0.573-0.367-0.78c-0.673-0.596-1.032-1.369-1.223-2.225c-0.313-1.392-0.596-2.783-0.887-4.175   c-0.031-0.161-0.084-0.344,0.069-0.512c0.069,0.054,0.145,0.092,0.199,0.161c0.375,0.451,0.466,1.017,0.581,1.567   c0.168,0.81,0.336,1.629,0.482,2.447c0.138,0.788,0.421,1.476,1.063,1.996c0.306,0.252,0.474,0.604,0.52,1.002   c0.023,0.176,0.061,0.352,0.084,0.528c0.214,1.674,0.428,3.356,0.635,5.031c0.115,0.91,0.222,1.827,0.306,2.745   c0.092,1.032,0.153,2.072,0.206,3.112c0.046,0.856,0.099,1.72,0.099,2.577c0,3.058,0.031,6.117,0.214,9.167   c0.046,0.772,0.153,1.537,0.344,2.286c0.138,0.55,0.344,1.07,0.619,1.567c0.451,0.826,1.147,1.361,2.049,1.598   c0.986,0.26,1.889,0.076,2.607-0.703c0.917-0.986,1.193-2.156,1.009-3.464c-0.015-0.107-0.084-0.206-0.13-0.306   c-1.055,0.13-1.269,0.122-1.965-0.076c-1.254-0.359-2.148-1.109-2.561-2.378c-0.015-0.054-0.031-0.115-0.054-0.168   c-0.26-0.795-0.428-1.606-0.52-2.431c-0.199-1.713-0.329-3.425-0.344-5.153c0-0.68-0.054-1.361-0.076-2.049   c-0.031-0.856-0.084-1.72-0.084-2.584c0-1.728-0.191-3.433-0.451-5.138c-0.268-1.766-0.703-3.486-1.208-5.199   c-0.52-1.774-1.223-3.471-2.11-5.092c-0.413-0.757-0.887-1.476-1.445-2.133c-0.13-0.153-0.291-0.275-0.459-0.428   c-0.076,0.107-0.161,0.168-0.168,0.245c-0.046,0.382-0.069,0.765,0,1.155c0.298,1.544,0.581,3.089,0.872,4.633   c0.176,0.956,0.535,1.82,1.246,2.508c0.046,0.038,0.076,0.092,0.122,0.13c0.367,0.352,0.497,0.788,0.543,1.277   c0.038,0.505,0.115,1.002,0.176,1.499c0.069,0.558,0.153,1.116,0.222,1.674c0.092,0.795,0.176,1.59,0.26,2.385   c0.168,1.567,0.352,3.127,0.39,4.702c0.061,2.401,0.107,4.809,0.145,7.21c0.023,1.338,0.015,2.668,0.061,4.006   c0.023,0.742,0.084,1.483,0.183,2.217c0.161,1.193,0.558,2.286,1.346,3.242c0.78,0.94,1.697,1.537,2.936,1.651   c0.841,0.076,1.59-0.115,2.248-0.642c0.52-0.413,0.948-0.902,1.262-1.483c0.099-0.183,0.183-0.367,0.298-0.581   c0.176,0.115,0.313,0.214,0.459,0.306c0.252,0.153,0.497,0.344,0.772,0.443c1.063,0.382,2.148,0.665,3.303,0.619   c1.575-0.061,2.775-0.765,3.639-2.057c0.535-0.803,0.872-1.682,0.956-2.653c0.008-0.115,0.023-0.237,0.038-0.352   c0.023-0.161,0.145-0.26,0.306-0.252c0.512,0.015,0.994,0.176,1.453,0.39c0.673,0.313,1.315,0.696,1.896,1.155   c0.115,0.092,0.222,0.199,0.436,0.138c0.054-0.13,0.138-0.291,0.184-0.451c0.145-0.52,0.375-0.994,0.642-1.46   c0.382-0.658,0.856-1.208,1.575-1.514c0.046-0.023,0.076-0.084,0.138-0.153c0.031-0.115,0.069-0.26,0.115-0.398   c0.268-0.795,0.589-1.002,1.46-0.963c0.107,0,0.214-0.038,0.367-0.069c-0.046-0.298-0.084-0.566-0.13-0.826   c-0.084-0.482,0.023-0.879,0.482-1.139c0.038-0.023,0.054-0.099,0.076-0.153c-0.153-1.361-0.107-1.651,0.489-2.852   c-0.054-0.138-0.115-0.306-0.191-0.459c-0.688-1.483-1.177-3.043-1.743-4.572c-0.092-0.237-0.092-0.459,0.061-0.673   c0.038-0.046,0.061-0.099,0.092-0.153c0.581-0.895,0.81-1.904,0.902-2.944c0.031-0.382-0.023-0.772-0.015-1.155   c0.008-0.543-0.099-1.07-0.298-1.567c-0.298-0.742-0.658-1.453-1.307-1.965c-0.092-0.268-0.275-0.443-0.535-0.543   c-0.505-0.52-1.017-1.04-1.521-1.56c-0.015-0.023-0.054-0.023-0.076-0.038c-0.046-0.229-0.145-0.421-0.367-0.528   c-0.023-0.084-0.023-0.176-0.061-0.252c-0.313-0.635-0.627-1.269-0.94-1.904c-0.466-0.956-0.963-1.889-1.514-2.798   c-0.436-0.719-0.994-1.315-1.644-1.835c-0.084-0.069-0.206-0.099-0.306-0.145c-0.199-0.359-0.489-0.604-0.887-0.719   c-0.352-0.413-0.566-0.55-1.07-0.711c-0.115-0.268-0.39-0.336-0.596-0.505c-0.115-0.092-0.214-0.191-0.329-0.291   c0.321-0.78,0.719-1.46,1.353-2.026c0.176,0.138,0.344,0.26,0.497,0.382c0.161,0.13,0.313,0.275,0.474,0.398   c0.069,0.054,0.153,0.099,0.237,0.107c0.298,0.015,0.596-0.008,0.856-0.168c0.229-0.145,0.413-0.336,0.436-0.65   c-0.443-0.78-0.818-1.621-1.369-2.439c-0.535,0.306-0.902-0.008-1.254-0.352c-0.168-0.161-0.313-0.359-0.428-0.566   c-0.275-0.459-0.489-0.948-0.604-1.476c-0.038-0.168-0.099-0.336-0.161-0.52c-0.268-0.069-0.535-0.122-0.78-0.206   c-0.68-0.237-1.338-0.512-1.621-1.269c-0.038-0.107-0.138-0.199-0.222-0.268c-0.26-0.222-0.55-0.344-0.902-0.199   c-0.421,0.176-0.864,0.191-1.315,0.199c-1.124,0.015-2.255,0.031-3.379,0.046c-0.092,0-0.176,0-0.268,0   c-0.306-0.015-0.443-0.168-0.375-0.451c0.061-0.237,0.084-0.459-0.038-0.688c-0.176-0.321-0.191-0.665-0.145-1.032   c0.092-0.795-0.436-1.514-1.239-1.69c-0.306-0.069-0.573-0.168-0.788-0.382c-0.268-0.26-0.55-0.428-0.94-0.413   c-0.237,0.008-0.359-0.222-0.268-0.443c0.252-0.573,0.505-1.139,0.772-1.697c0.252-0.535,0.52-1.063,0.788-1.59   c0.291-0.566,0.688-1.032,1.231-1.376c0.153-0.099,0.298-0.199,0.436-0.306c0.26-0.191,0.398-0.436,0.344-0.765   c-0.099-0.543,0.115-0.986,0.466-1.384c0.138-0.153,0.275-0.306,0.421-0.459c0.726-0.795,1.629-1.376,2.5-1.996   c0.52-0.375,1.078-0.482,1.674-0.168c0.229,0.122,0.459,0.122,0.688,0.054c0.482-0.153,0.956-0.329,1.43-0.482   c0.359-0.115,0.512-0.375,0.581-0.719c0.015-0.084,0.023-0.176,0.023-0.268c0.008-0.39,0.206-0.68,0.497-0.902   c0.283-0.206,0.589-0.405,0.902-0.566c1.277-0.635,2.607-1.139,3.968-1.56c0.191-0.061,0.39-0.122,0.535-0.168   c0.076-0.099,0.122-0.138,0.145-0.191c0.306-0.826,0.979-1.239,1.751-1.522c0.306-0.115,0.619-0.214,0.933-0.298   c0.627-0.183,1.254-0.352,1.889-0.528c0.887-0.252,1.789-0.436,2.707-0.535c0.237-0.023,0.474-0.031,0.703,0   c0.291,0.031,0.505,0.252,0.489,0.543c-0.015,0.252,0.031,0.459,0.161,0.665c0.076,0.122,0.145,0.306,0.099,0.421   c-0.13,0.359-0.069,0.688,0.031,1.032c0.023,0.076,0,0.183-0.031,0.26c-0.061,0.168-0.099,0.329-0.084,0.52   c0.031,0.398-0.183,0.688-0.543,0.833c-0.298,0.122-0.612,0.222-0.933,0.283c-1.636,0.321-3.303,0.367-4.962,0.375   c-0.115,0-0.237,0-0.352-0.023c-0.359-0.061-0.68-0.214-0.94-0.474c-0.122-0.13-0.229-0.275-0.344-0.405   c-0.161-0.191-0.375-0.283-0.619-0.313c-0.237-0.031-0.474,0-0.703,0.076c-1.231,0.436-2.462,0.864-3.632,1.453   c-0.26,0.138-0.52,0.291-0.765,0.451c-0.229,0.153-0.382,0.367-0.413,0.65c-0.031,0.237-0.076,0.466-0.145,0.696   c-0.076,0.268-0.245,0.474-0.512,0.573c-0.497,0.183-1.002,0.367-1.506,0.543c-0.145,0.054-0.275,0.099-0.329,0.26   c0.107,0.283,0.229,0.55,0.306,0.833c0.252,0.94,0.084,1.766-0.688,2.416c-0.183,0.153-0.382,0.291-0.543,0.459   c-0.183,0.191-0.359,0.398-0.489,0.627c-0.191,0.329-0.176,0.68,0.038,1.009c0.161,0.252,0.367,0.459,0.612,0.635   c0.443,0.313,0.772,0.734,1.017,1.216c0.466,0.917,0.359,1.781-0.26,2.584c-0.161,0.214-0.375,0.382-0.543,0.589   c-0.145,0.184-0.291,0.375-0.39,0.589c-0.138,0.306-0.161,0.635,0.054,0.933c0.214,0.298,0.291,0.642,0.344,1.002   c0.015,0.115,0.038,0.222,0.061,0.336c0.206,0.054,0.375,0.092,0.543,0.145c0.443,0.145,0.818,0.413,0.971,0.856   c0.145,0.413,0.443,0.619,0.795,0.788c0.68,0.336,1.353,0.352,2.057,0.023c0.619-0.283,1.254-0.55,1.896-0.765   c1.369-0.443,2.691-0.26,3.976,0.359c0.138,0.061,0.26,0.145,0.321,0.298c0.076,0.191-0.023,0.336-0.107,0.497   c-0.023,0.038,0.015,0.099,0.031,0.191c0.979,0.268,1.965,0.573,3.012,0.642c0.604-0.872,0.91-1.812,1.04-2.829   c0.084-0.635,0.191-1.277,0.031-1.957c-0.268,0.031-0.505,0.038-0.734,0.092c-1.506,0.329-3.043,0.512-4.572,0.673   c-0.65,0.069-1.3,0.115-1.95,0.214c-0.78,0.122-1.537,0.031-2.301-0.084c-0.451-0.069-0.849-0.26-1.2-0.558   c-0.558-0.474-0.956-1.047-1.162-1.751c-0.153-0.52-0.183-1.047-0.145-1.583c0.107-1.453,0.291-2.898,0.749-4.282   c0.214-0.65,0.436-1.3,0.726-1.911c0.512-1.086,1.307-1.904,2.47-2.309c0.642-0.222,1.292-0.436,1.95-0.619   c1.025-0.291,2.064-0.558,3.089-0.833c1.399-0.382,2.798-0.772,4.205-1.139c1.468-0.375,2.936-0.734,4.366-1.231   c0.145-0.046,0.283-0.092,0.336-0.283c-0.076-0.413-0.153-0.849-0.237-1.284c-0.176-0.971-0.199-1.95-0.008-2.921   c0.199-1.025,0.482-2.018,1.047-2.913c0.061-0.099,0.092-0.214,0.153-0.359c-0.153-0.008-0.268-0.038-0.382-0.023   c-0.474,0.054-0.94,0.115-1.414,0.183c-0.619,0.084-1.239,0.145-1.85,0.26c-1.017,0.191-2.034,0.413-3.051,0.635   c-1.483,0.321-2.928,0.742-4.358,1.262c-0.665,0.245-1.346,0.459-2.026,0.665c-0.971,0.291-1.927,0.612-2.829,1.063   c-1.613,0.818-3.227,1.636-4.809,2.508c-1.866,1.025-3.448,2.416-4.924,3.922c-1.155,1.177-2.064,2.531-2.898,3.938   c-1.223,2.072-2.355,4.19-3.402,6.354c-0.443,0.91-0.818,1.843-1.155,2.798c-0.497,1.43-0.81,2.913-1.216,4.366   c-0.046,0.168-0.015,0.352-0.023,0.528c-0.008,0.015-0.015,0.031-0.031,0.038c-0.008-0.015-0.015-0.023-0.023-0.038   c0.015,0,0.023,0.008,0.038,0.015c0.528-0.711,1.025-1.453,1.445-2.24c0.459-0.864,0.933-1.72,1.399-2.577   c0.13-0.237,0.252-0.474,0.382-0.703c0.099-0.168,0.26-0.237,0.451-0.229c0.459,0.023,0.864,0.176,1.262,0.482   c-0.13,0.145-0.245,0.275-0.367,0.398c-0.122,0.115-0.122,0.352-0.367,0.344c-0.291-0.13-0.512-0.413-0.895-0.428   c-0.061,0.076-0.145,0.153-0.199,0.252c-0.367,0.68-0.726,1.361-1.078,2.041c-0.015,0.038,0.023,0.099,0.031,0.153   c0.237,0.122,0.528-0.176,0.749,0.084c0.092,0.176-0.161,0.405,0.076,0.558c0.772-0.306,1.537-0.612,2.309-0.925   c0.122-0.046,0.168-0.161,0.13-0.291c-0.046-0.168-0.107-0.329-0.161-0.489c0.214-0.168,0.39-0.313,0.581-0.451   c0.038-0.031,0.107-0.015,0.191-0.031c0.199,0.291,0.306,0.619,0.321,0.979c0,0.168-0.054,0.336-0.084,0.505   c-0.176,0.061-0.313,0.115-0.451,0.153c-1.132,0.291-2.171,0.788-3.181,1.353c-0.726,0.405-1.407,0.879-2.041,1.422   c-0.046,0.038-0.054,0.13-0.099,0.245c0.26-0.076,0.459-0.138,0.658-0.183c0.222-0.054,0.451-0.176,0.688,0.008   c-0.145,0.566-0.283,1.132-0.421,1.682c-0.076,0.038-0.13,0.076-0.183,0.084c-0.176,0.023-0.352,0.038-0.528,0.046   c-0.566,0.031-1.124,0.046-1.69,0.076c-0.252,0.015-0.336,0.145-0.336,0.421c0,0.336,0.138,0.535,0.459,0.68   c1.667,0.734,3.158,1.759,4.633,2.814c0.581,0.413,1.147,0.841,1.69,1.307c1.116,0.94,2.095,2.011,3.02,3.135   c0.245,0.298,0.474,0.612,0.734,0.895c0.115,0.13,0.26,0.26,0.421,0.306c0.627,0.199,1.269,0.298,1.934,0.206   c0.627-0.092,1.223-0.298,1.674-0.757c0.795-0.818,1.139-1.797,0.887-2.936c-0.061-0.26-0.161-0.505-0.26-0.757   c-0.168-0.428-0.436-0.772-0.826-1.017c-0.428-0.268-0.833-0.566-1.262-0.833c-1.751-1.086-3.594-1.95-5.604-2.439   c-1.124-0.268-2.255-0.497-3.402-0.68c-0.061-0.008-0.107-0.076-0.183-0.138c0.099-0.038,0.153-0.076,0.206-0.076   c1.07-0.031,2.141,0.061,3.188,0.268c1.369,0.26,2.714,0.627,4.037,1.063c2.424,0.81,4.756,1.835,6.942,3.181   c0.122,0.076,0.268,0.107,0.405,0.153c0.344,0.375,0.589,0.535,1.07,0.711L67.239,39.714z M41.763,32.588c0,0,0-0.046,0-0.069   c0-0.008-0.038,0-0.054-0.008c0.023,0.023,0.054,0.038,0.076,0.061c-0.054,0.153,0,0.291,0.076,0.413   c0.115,0.191,0.222,0.398,0.451,0.505c0.13-0.245,0.038-0.443-0.046-0.619c-0.092-0.176-0.245-0.336-0.497-0.283H41.763z    M40.356,31.288l0.031,0.054l-0.015-0.038c-0.168-0.275-0.344-0.543-0.512-0.826c-0.161-0.268-0.405-0.421-0.703-0.482   c-0.031,0-0.115,0.061-0.115,0.092c0,0.206,0.015,0.421,0.199,0.558c0.313,0.222,0.627,0.436,0.948,0.642   C40.226,31.311,40.303,31.288,40.356,31.288z M72.988,8.382c0.352-0.054,0.703-0.092,1.055-0.161   c0.581-0.107,1.162-0.229,1.743-0.329c0.55-0.099,1.109-0.183,1.667-0.26c0.268-0.038,0.528-0.099,0.749-0.252   c0.054-0.038,0.061-0.138,0.107-0.245c-0.367-0.038-0.688,0-1.002,0.046c-1.407,0.214-2.768,0.635-4.129,1.032   c-0.069,0.023-0.107,0.122-0.161,0.183h-0.298c0,0,0,0.038,0,0.054C72.812,8.427,72.896,8.405,72.988,8.382z M21.456,40.769   c-0.107,0.046-0.229,0.069-0.306,0.138c-0.474,0.405-0.872,0.879-1.2,1.414c-0.688,1.109-1.292,2.255-1.82,3.448   c-0.635,1.422-1.506,2.653-2.73,3.655c-1.025,0.841-1.72,1.934-2.026,3.249c-0.115,0.497-0.076,1.002-0.115,1.499   c-0.069,0.963,0.191,1.873,0.528,2.76c0.115,0.298,0.222,0.612,0.528,0.788c0.061,0.321,0.061,0.635-0.061,0.956   c-0.589,1.552-1.07,3.142-1.804,4.641c-0.038,0.076-0.038,0.168-0.076,0.321c0.581,0.612,0.589,1.414,0.55,2.225   c-0.008,0.206,0,0.405,0,0.589c0.612,0.543,0.543,0.55,0.505,1.246c-0.008,0.176-0.061,0.352-0.092,0.528   c-0.008,0.061-0.015,0.122,0,0.176c0.015,0.046,0.069,0.122,0.107,0.122c0.145,0.008,0.291,0,0.436-0.008   c0.512-0.054,0.841,0.214,1.101,0.612c0.061,0.099,0.099,0.214,0.138,0.329c0.069,0.191,0.13,0.39,0.199,0.589   c0.849,0.313,1.353,0.963,1.743,1.713c0.206,0.39,0.352,0.818,0.52,1.223c0.076,0.184,0.069,0.413,0.275,0.528   c0.206,0.023,0.321-0.13,0.459-0.237c0.65-0.482,1.33-0.895,2.08-1.193c0.39-0.153,0.78-0.283,1.208-0.275   c0.13,0,0.229,0.076,0.26,0.199c0.038,0.145,0.069,0.291,0.076,0.436c0.054,1.04,0.474,1.957,1.047,2.798   c0.612,0.887,1.468,1.46,2.5,1.736c1.002,0.268,2.003,0.183,2.997-0.061c0.864-0.206,1.713-0.489,2.416-1.078   c0.031-0.023,0.099,0,0.184,0c0.092,0.168,0.183,0.352,0.283,0.528c0.313,0.581,0.749,1.07,1.269,1.476   c0.352,0.283,0.749,0.489,1.193,0.558c1.101,0.184,2.141,0.015,3.028-0.688c1.025-0.81,1.759-1.835,2.072-3.127   c0.206-0.872,0.352-1.743,0.367-2.638c0.015-1.07,0.023-2.133,0.046-3.204c0.031-1.361,0.076-2.73,0.099-4.09   c0.054-2.73,0.046-5.459,0.375-8.173c0.191-1.56,0.283-3.135,0.528-4.687c0.092-0.558,0.168-1.116,0.214-1.674   c0.054-0.673,0.252-1.254,0.765-1.736c0.642-0.612,0.979-1.407,1.139-2.271c0.298-1.575,0.589-3.15,0.887-4.725   c0.076-0.413,0.054-0.826,0.008-1.239c0-0.054-0.054-0.13-0.084-0.138c-0.076,0-0.183,0-0.237,0.046   c-0.138,0.115-0.26,0.245-0.367,0.39c-0.413,0.581-0.849,1.147-1.2,1.759c-0.673,1.155-1.262,2.355-1.69,3.624   c-0.375,1.124-0.726,2.256-1.047,3.402c-0.421,1.514-0.696,3.066-0.902,4.626c-0.199,1.506-0.321,3.005-0.313,4.526   c0,0.887-0.046,1.781-0.084,2.668c-0.023,0.65-0.084,1.307-0.084,1.957c0,1.697-0.168,3.379-0.382,5.054   c-0.115,0.887-0.313,1.751-0.658,2.577c-0.245,0.589-0.596,1.109-1.139,1.445c-0.933,0.566-1.919,0.948-3.043,0.658   c-0.054-0.015-0.115,0.008-0.191,0.015c-0.038,0.061-0.107,0.138-0.107,0.214c-0.023,0.321-0.038,0.65-0.046,0.979   c-0.023,0.971,0.359,1.789,0.986,2.508c0.382,0.436,0.856,0.742,1.437,0.826c0.596,0.092,1.185,0.015,1.736-0.252   c0.719-0.344,1.262-0.864,1.621-1.583c0.482-0.971,0.726-2.003,0.818-3.074c0.069-0.856,0.122-1.72,0.145-2.577   c0.054-1.988,0.099-3.976,0.107-5.964c0-1.69,0.084-3.379,0.168-5.069c0.038-0.742,0.084-1.483,0.168-2.217   c0.161-1.445,0.344-2.89,0.528-4.327c0.138-1.116,0.313-2.233,0.436-3.356c0.061-0.558,0.252-1.032,0.688-1.392   c0.482-0.398,0.749-0.91,0.849-1.514c0.031-0.206,0.092-0.405,0.138-0.604c0.176-0.872,0.359-1.743,0.52-2.615   c0.084-0.451,0.252-0.849,0.55-1.2c0.031-0.031,0.099-0.031,0.168-0.046c0.092,0.298,0.015,0.589-0.046,0.872   c-0.145,0.696-0.275,1.399-0.428,2.095c-0.138,0.635-0.268,1.277-0.436,1.904c-0.191,0.726-0.512,1.392-1.086,1.904   c-0.023,0.023-0.038,0.046-0.061,0.061c-0.275,0.26-0.39,0.566-0.405,0.948c-0.023,0.535-0.084,1.063-0.145,1.59   c-0.145,1.208-0.321,2.408-0.466,3.616c-0.107,0.887-0.191,1.766-0.275,2.653c-0.069,0.711-0.145,1.414-0.168,2.126   c-0.061,1.598-0.099,3.204-0.13,4.802c-0.038,1.866-0.061,3.739-0.069,5.612c0,1.162-0.031,2.317-0.168,3.464   c-0.153,1.284-0.505,2.477-1.353,3.517c-0.765,0.933-1.682,1.468-2.898,1.491c-0.734,0.015-1.407-0.145-1.988-0.619   c-0.719-0.581-1.2-1.3-1.422-2.202c-0.298-1.208-0.275-2.408-0.046-3.624c0.023-0.13,0-0.298,0.214-0.375   c0.321,0.161,0.673,0.313,1.07,0.306c1.177-0.023,2.126-0.482,2.775-1.491c0.329-0.497,0.589-1.032,0.726-1.621   c0.283-1.216,0.52-2.439,0.581-3.685c0.023-0.535,0.084-1.063,0.122-1.598c0.092-1.453,0.183-2.905,0.26-4.35   c0.076-1.33,0.099-2.668,0.222-3.999c0.145-1.567,0.39-3.119,0.742-4.656c0.054-0.229,0.069-0.466,0.107-0.703l-0.015-0.031   l0.038,0.038c-0.084-0.008-0.176-0.046-0.252-0.023c-0.168,0.046-0.336,0.115-0.497,0.183c-0.91,0.352-2.148-0.138-2.622-0.986   c-0.099-0.176-0.13-0.398-0.359-0.52c-0.076,0.161-0.161,0.321-0.214,0.482c-0.466,1.284-0.94,2.561-1.384,3.853   c-0.619,1.797-1.132,3.632-1.491,5.49c-0.39,2.034-0.688,4.09-1.025,6.14c-0.199,1.231-0.268,2.477-0.168,3.723   c0.084,1.078,0.283,2.118,0.933,3.02c0.015,0.023,0.015,0.054,0.038,0.122c-0.069,0.52-0.145,1.078-0.214,1.636   c-0.076,0.589-0.084,1.185,0.023,1.774c0.031,0.176,0.038,0.352,0.084,0.528c0.076,0.336-0.076,0.566-0.329,0.757   c-0.405,0.306-0.841,0.55-1.323,0.711c-1.032,0.344-2.08,0.466-3.158,0.375c-1.17-0.099-2.087-0.688-2.775-1.59   c-1.208-1.575-1.392-3.356-0.895-5.237c0.031-0.115,0.206-0.168,0.283-0.084c0.313,0.359,0.612,0.719,1.055,0.933   c0.933,0.451,1.881,0.65,2.928,0.421c1.239-0.275,2.141-0.963,2.798-2.026c0.115-0.183,0.168-0.375,0.138-0.596   c-0.038-0.321-0.061-0.65-0.099-0.971c-0.138-1.284,0.038-2.546,0.176-3.815c0.222-2.126,0.558-4.236,1.063-6.315   c0.206-0.864,0.39-1.736,0.65-2.584c0.734-2.347,1.476-4.694,2.408-6.981c0.069-0.161,0.099-0.336,0.153-0.55   c-0.245-0.008-0.451-0.008-0.65-0.023c-0.94-0.069-1.674-0.635-1.98-1.529c-0.038-0.122-0.015-0.298-0.214-0.329   c-0.061,0.069-0.122,0.122-0.176,0.199c-0.68,0.971-1.338,1.957-1.896,3.012c-0.581,1.101-1.139,2.217-1.728,3.311   c-0.703,1.307-1.246,2.691-1.766,4.075c-0.734,1.942-1.33,3.93-1.919,5.925c-0.367,1.239-0.895,2.385-1.682,3.41   c-0.214,0.275-0.306,0.566-0.283,0.902c0.054,0.864,0.176,1.713,0.474,2.523c0.13,0.359,0.13,0.688-0.092,1.047   c-0.237,0.031-0.505,0.054-0.765,0.092c-0.237,0.038-0.466,0.084-0.696,0.138c-0.26,0.061-0.52,0.122-0.772,0.206   c-0.229,0.069-0.443,0.168-0.665,0.245c-0.237,0.084-0.436,0.313-0.788,0.291c-0.229-0.612-0.497-1.208-0.925-1.705   c-0.421-0.489-0.879-0.948-1.338-1.437c0.268-1.132,0.52-2.256,0.841-3.364c0.015-0.061,0.092-0.107,0.153-0.168   c0.168,0.382,0.291,0.749,0.482,1.086c0.558,0.971,1.804,1.315,2.783,0.78c0.497-0.275,0.933-0.627,1.277-1.086   c0.528-0.688,0.956-1.43,1.208-2.263c0.115-0.367,0.237-0.734,0.352-1.101c0.489-1.522,0.956-3.058,1.468-4.572   c0.696-2.057,1.506-4.06,2.554-5.964c0.084-0.153,0.161-0.313,0.245-0.474c0.895-1.812,1.889-3.563,3.058-5.214   c0.275-0.39,0.535-0.788,0.795-1.177c0.046-0.069,0.054-0.153,0.076-0.229c-0.046-0.031-0.061-0.061-0.084-0.061   c-0.115,0-0.237-0.008-0.352-0.008c-1.506,0.015-2.699-0.589-3.555-1.835c-0.459-0.665-0.68-1.376-0.489-2.187   c0.023-0.092,0.084-0.222-0.099-0.298c-0.099,0.084-0.229,0.161-0.329,0.26c-1.315,1.254-2.538,2.584-3.586,4.068   c-1.009,1.43-1.95,2.905-2.745,4.473c-0.206,0.405-0.443,0.658-0.933,0.688c-0.382,0.023-0.765,0.122-1.124,0.252   c-1.896,0.65-3.081,1.934-3.486,3.915c-0.092,0.443-0.107,0.887-0.076,1.33c0.046,0.742,0.145,1.483,0.474,2.156   c0.153,0.321,0.076,0.566-0.145,0.803c-0.023,0.023-0.038,0.046-0.054,0.069c-0.145,0.206-0.313,0.069-0.474,0.031   c-0.008-0.061,0-0.122-0.031-0.176c-0.398-0.673-0.596-1.407-0.757-2.164c-0.176-0.795-0.145-1.59-0.015-2.378   c0.237-1.437,1.017-2.569,2.126-3.486c0.948-0.788,1.705-1.72,2.263-2.814c0.183-0.367,0.359-0.749,0.535-1.116   c0.466-0.986,0.971-1.957,1.537-2.898c0.321-0.535,0.703-1.025,1.139-1.468c0.122-0.122,0.291-0.214,0.313-0.413   c0.466-0.222,0.719-0.428,1.078-0.887c0.229,0,0.375-0.168,0.543-0.283c1.376-0.94,2.821-1.751,4.327-2.454   c2.271-1.055,4.626-1.827,7.057-2.401c1.216-0.283,2.454-0.421,3.708-0.428c0.138,0,0.275,0.031,0.512,0.061   c-0.168,0.092-0.237,0.145-0.313,0.161c-0.933,0.183-1.866,0.344-2.791,0.535c-2.294,0.482-4.389,1.43-6.354,2.691   c-0.665,0.428-1.17,1.002-1.537,1.69c-0.367,0.68-0.352,1.369,0.015,2.041c0.673,1.239,1.759,1.812,3.127,1.866   c0.375,0.015,0.757-0.115,1.132-0.199c0.099-0.023,0.206-0.122,0.275-0.214c0.658-0.849,1.453-1.567,2.187-2.34   c0.757-0.795,1.598-1.506,2.493-2.141c1.338-0.94,2.722-1.797,4.167-2.561c0.443-0.237,0.887-0.482,1.307-0.711   c0.107-0.313,0.153-0.604,0.046-0.933c-0.13-0.031-0.268-0.092-0.405-0.099c-0.566-0.031-1.124-0.046-1.69-0.061   c-0.176,0-0.359,0-0.482-0.168c-0.13-0.52-0.268-1.032-0.39-1.552c-0.008-0.038,0.046-0.099,0.084-0.183   c0.153,0.023,0.329,0.061,0.497,0.076c0.153,0.015,0.313,0.183,0.482-0.023c-0.092-0.084-0.168-0.161-0.26-0.237   c-0.818-0.642-1.713-1.17-2.645-1.636c-0.795-0.398-1.621-0.734-2.462-1.025c-0.382-0.13-0.459-0.275-0.352-0.673   c0.061-0.229,0.13-0.459,0.222-0.673c0.038-0.092,0.138-0.161,0.206-0.245c0.145,0.122,0.252,0.229,0.375,0.306   c0.145,0.099,0.298,0.176,0.413,0.237c0.069,0.291-0.229,0.474-0.092,0.726c0.023,0.015,0.038,0.046,0.061,0.054   c0.841,0.367,1.674,0.742,2.523,1.101c0.038,0.015,0.099-0.038,0.168-0.069c-0.008-0.115-0.031-0.229-0.031-0.344   c0-0.183,0.054-0.229,0.283-0.237c0.084,0,0.161-0.015,0.298-0.023c-0.306-0.589-0.589-1.139-0.879-1.682   c-0.153-0.291-0.313-0.566-0.482-0.849c-0.023-0.038-0.099-0.054-0.168-0.092c-0.145,0.076-0.298,0.168-0.451,0.252   s-0.268,0.245-0.443,0.199c-0.229-0.222-0.443-0.421-0.658-0.627c-0.015-0.015-0.015-0.054-0.031-0.122   c0.321-0.283,0.719-0.459,1.132-0.619c0.229-0.084,0.405-0.031,0.528,0.191c0.382,0.703,0.734,1.422,1.132,2.118   c0.573,1.002,1.17,1.996,1.766,2.982c0.084,0.145,0.229,0.26,0.344,0.39l-0.015,0.015c-0.008-0.206,0.008-0.413-0.038-0.612   c-0.161-0.665-0.329-1.323-0.512-1.98c-0.428-1.544-0.925-3.066-1.606-4.519c-0.696-1.476-1.476-2.913-2.24-4.35   c-0.887-1.682-1.843-3.326-2.989-4.847c-0.199-0.26-0.398-0.52-0.604-0.765c-1.185-1.384-2.546-2.577-4.014-3.639   c-0.528-0.382-1.078-0.742-1.651-1.055c-1.353-0.734-2.73-1.437-4.098-2.156c-1.132-0.596-2.324-1.032-3.555-1.399   c-0.856-0.252-1.69-0.566-2.538-0.833c-0.818-0.26-1.636-0.528-2.47-0.749c-0.887-0.237-1.781-0.451-2.684-0.642   c-0.757-0.161-1.514-0.291-2.278-0.405c-0.849-0.13-1.705-0.229-2.561-0.336c-0.199-0.023-0.405,0-0.604,0   C6.585,3.58,6.722,3.71,6.814,3.863c0.612,1.002,0.971,2.095,1.185,3.242c0.076,0.443,0.099,0.887,0.046,1.33   C7.969,9.169,7.877,9.911,7.8,10.645c-0.008,0.084,0.008,0.176,0.015,0.245c0.061,0.054,0.099,0.107,0.145,0.122   c0.772,0.222,1.537,0.436,2.309,0.658c0.229,0.061,0.459,0.115,0.688,0.176c0.91,0.268,1.82,0.535,2.73,0.803   c0.68,0.199,1.369,0.398,2.049,0.596c1.055,0.306,2.11,0.596,3.165,0.91c0.963,0.291,1.927,0.589,2.882,0.902   c1.032,0.344,1.804,1.009,2.355,1.942c0.107,0.176,0.222,0.352,0.321,0.535c0.765,1.346,1.101,2.806,1.147,4.343   c0.023,0.765-0.275,1.392-0.803,1.911c-0.229,0.222-0.497,0.428-0.772,0.589c-1.33,0.788-2.73,1.437-4.19,1.95   c-0.864,0.306-1.713,0.665-2.561,1.017c-0.826,0.336-1.636,0.696-2.454,1.047c-0.382,0.161-0.757,0.321-1.155,0.489   c-0.046,0.711,0.237,1.277,0.55,1.858c0.145,0,0.26,0.015,0.375,0c0.94-0.145,1.873-0.298,2.814-0.459   c0.099-0.015,0.191-0.099,0.283-0.145c-0.031-0.061-0.046-0.092-0.061-0.115c-0.145-0.428-0.107-0.566,0.222-0.726   c0.076-0.038,0.161-0.076,0.245-0.115c1.33-0.497,2.668-0.55,3.991,0c0.604,0.252,1.185,0.55,1.766,0.841   c0.596,0.298,1.193,0.306,1.804,0.069c0.107-0.046,0.222-0.092,0.329-0.138c0.245-0.115,0.451-0.268,0.566-0.535   c0.245-0.566,0.688-0.872,1.292-0.971c0.115-0.015,0.229-0.023,0.306-0.168c-0.214-0.543-0.069-1.032,0.329-1.46   c0.038-0.046,0.076-0.092,0.115-0.138c0.298-0.398,0.321-0.826,0.069-1.246c-0.153-0.252-0.352-0.474-0.55-0.696   c-0.283-0.306-0.589-0.589-0.872-0.895c-0.466-0.505-0.65-1.116-0.635-1.797c0.015-0.505,0.184-0.925,0.581-1.246   c0.183-0.145,0.375-0.291,0.558-0.443c0.573-0.474,0.726-1.063,0.436-1.751c-0.13-0.298-0.298-0.581-0.459-0.864   c-0.191-0.336-0.352-0.688-0.451-1.063c-0.092-0.359-0.092-0.703,0.038-1.047c0.084-0.214,0.176-0.428,0.252-0.627   c-0.099-0.168-0.245-0.206-0.382-0.26c-0.382-0.161-0.765-0.329-1.155-0.474c-0.474-0.176-0.688-0.535-0.772-1.002   c-0.015-0.084-0.031-0.176-0.023-0.268c0.038-0.443-0.214-0.719-0.55-0.948c-0.168-0.115-0.344-0.229-0.528-0.336   c-1.162-0.658-2.393-1.185-3.632-1.674c-0.55-0.222-1.047-0.168-1.437,0.329c-0.405,0.512-0.94,0.696-1.575,0.65   c-0.176-0.015-0.359-0.015-0.535-0.031c-0.65-0.054-1.3-0.122-1.95-0.176c-0.895-0.069-1.759-0.252-2.622-0.482   c-0.252-0.069-0.512-0.161-0.742-0.291c-0.336-0.183-0.52-0.474-0.482-0.879c0.008-0.115,0.031-0.237,0-0.344   c-0.076-0.268-0.076-0.528,0.069-0.772c0.153-0.268-0.122-0.512-0.031-0.78c0.023-0.054,0.031-0.115,0.054-0.168   c0.138-0.26,0.26-0.52,0.26-0.833c0-0.229,0.252-0.443,0.482-0.459C12.22,5.79,12.434,5.79,12.633,5.82   c0.352,0.054,0.703,0.122,1.047,0.199c1.476,0.352,2.898,0.879,4.32,1.392c0.306,0.107,0.589,0.291,0.872,0.443   c0.375,0.206,0.658,0.497,0.833,0.895c0.084,0.191,0.183,0.367,0.268,0.535c0.107,0.054,0.183,0.099,0.268,0.13   c1.384,0.466,2.707,1.07,3.983,1.759c0.336,0.183,0.658,0.405,0.963,0.635c0.344,0.26,0.566,0.604,0.558,1.063   c0,0.115,0.015,0.237,0.031,0.352c0.031,0.26,0.168,0.436,0.398,0.55c0.612,0.306,1.246,0.55,1.881,0.711   c0.229-0.084,0.421-0.153,0.619-0.222c0.298-0.099,0.589-0.076,0.864,0.061c0.161,0.076,0.321,0.161,0.459,0.268   c0.558,0.443,1.132,0.872,1.651,1.353c0.413,0.382,0.78,0.818,1.139,1.246s0.558,0.91,0.413,1.483   c-0.069,0.252,0.031,0.459,0.168,0.665c0.237,0.352,0.535,0.543,0.963,0.512c0.535-0.031,0.895,0.268,1.162,0.688   c0.099,0.153,0.183,0.306,0.252,0.466c0.398,0.925,0.795,1.85,1.193,2.783c0.046,0.107,0.069,0.229,0.092,0.344   c0.038,0.183-0.076,0.359-0.283,0.367c-0.306,0.015-0.581,0.069-0.788,0.329c-0.199,0.252-0.489,0.321-0.795,0.336   c-0.482,0.023-0.833,0.291-1.155,0.604c-0.291,0.283-0.428,0.642-0.405,1.047c0.008,0.176,0.038,0.352,0.084,0.528   c0.046,0.206,0.038,0.405-0.023,0.612c-0.054,0.199-0.069,0.405-0.107,0.612c-0.023,0.138-0.115,0.199-0.237,0.229   c-0.084,0.023-0.176,0.023-0.268,0.031c-1.246,0.046-2.493,0.023-3.701,0.443c-0.229,0.076-0.474,0.046-0.696-0.046   c-0.138-0.054-0.268-0.122-0.405-0.184c-0.336-0.153-0.642-0.069-0.91,0.153c-0.13,0.115-0.252,0.26-0.321,0.421   c-0.161,0.344-0.443,0.55-0.765,0.719c-0.375,0.191-0.765,0.329-1.177,0.39c-0.145,0.023-0.283,0.046-0.451,0.076   c-0.084,0.245-0.161,0.459-0.229,0.688c-0.153,0.482-0.39,0.925-0.673,1.353c-0.237,0.352-0.543,0.627-0.925,0.818   c-0.168,0.084-0.336,0.107-0.512,0.038c-0.076-0.031-0.161-0.046-0.275-0.076c-0.535,0.757-0.925,1.575-1.361,2.385   c0.275,0.543,0.696,0.818,1.254,0.925c0.252,0.046,0.466,0.015,0.658-0.161c0.214-0.199,0.451-0.39,0.68-0.573   c0.038-0.031,0.107-0.031,0.161-0.038c0.497,0.482,1.055,1.246,1.43,1.95c-0.107,0.084-0.206,0.183-0.321,0.26   c-0.52,0.344-1.047,0.673-1.567,1.017c-0.168,0.115-0.367,0.199-0.428,0.428c-0.512,0.245-0.772,0.466-1.055,0.902L21.456,40.769z    M20.049,32.412c-0.153-0.069-0.291,0-0.421,0.069c-0.543,0.298-1.093,0.589-1.636,0.887c-0.313,0.168-0.619,0.344-0.925,0.528   c-0.092,0.054-0.206,0.115-0.199,0.313c0.933,0.841,1.973,1.506,3.311,1.529c0.581-0.833,0.971-1.56,1.124-2.11   c-0.229-0.13-0.459-0.252-0.68-0.39c-0.313-0.199-0.52-0.474-0.596-0.841l0.031-0.038v0.054L20.049,32.412z M87.897,5.453   c0.191-0.008,0.222-0.176,0.283-0.298c0.344-0.726,0.627-1.476,0.81-2.255c0.153-0.635,0.245-1.277,0.352-1.919   c0.015-0.099-0.038-0.222-0.061-0.344c-1.216,0.099-2.278,0.535-3.295,1.109c-0.734,0.413-1.078,0.703-1.43,1.193   c0.099,0,0.184,0.015,0.26,0c0.321-0.069,0.635-0.168,0.956-0.214c0.864-0.107,1.598,0.26,1.927,1.093   c0.107,0.268,0.145,0.573,0.176,0.864c0.031,0.26,0.015,0.535,0.023,0.803v0.031V5.461L87.897,5.453z M82.148,11.677   c-0.176,0.023-0.268,0.023-0.352,0.046c-1.437,0.489-2.905,0.826-4.373,1.208c-2.462,0.65-4.924,1.323-7.378,2.003   c-0.543,0.153-1.07,0.352-1.598,0.535c-0.948,0.336-1.59,1.009-2.064,1.866c-0.13,0.229-0.252,0.474-0.344,0.726   c-0.459,1.315-0.887,2.645-1.04,4.037c-0.054,0.505-0.069,1.009-0.122,1.506c-0.038,0.329,0,0.65,0.046,0.971   c0.237,1.43,1.208,2.34,2.638,2.447c0.65,0.054,1.307,0.038,1.957-0.038c1.292-0.161,2.592-0.306,3.884-0.474   c1.116-0.145,2.217-0.375,3.295-0.604c0.52-0.742,1.116-1.353,1.781-1.904c0.734-0.604,1.384-1.3,2.018-2.003   c1.093-1.223,1.59-2.691,1.728-4.297c0.069-0.803-0.008-1.598-0.069-2.401c-0.084-1.177-0.191-2.363-0.015-3.632L82.148,11.677z    M7.8,11.623c0.283,1.162,0.222,2.286,0.061,3.395c-0.13,0.917-0.153,1.835-0.145,2.752c0,0.268,0.015,0.535,0.061,0.795   c0.313,1.583,1.025,2.974,2.148,4.129c0.535,0.55,1.139,1.04,1.713,1.552c0.336,0.298,0.68,0.573,1.017,0.864   c0.535,0.474,0.826,1.078,0.849,1.797c0,0.298,0,0.596,0,0.887c0,0.115,0,0.245,0.046,0.352c0.023,0.069,0.115,0.138,0.183,0.153   c0.076,0.015,0.176-0.015,0.26-0.054c1.009-0.428,2.026-0.856,3.028-1.292c0.841-0.367,1.69-0.734,2.561-1.025   c1.414-0.466,2.76-1.093,4.037-1.85c0.206-0.122,0.405-0.245,0.596-0.39c0.612-0.466,0.925-1.086,0.887-1.85   c-0.031-0.535-0.092-1.063-0.183-1.59c-0.184-1.009-0.642-1.904-1.124-2.798c-0.52-0.971-1.277-1.629-2.309-1.973   c-0.902-0.298-1.804-0.581-2.714-0.856c-0.879-0.26-1.774-0.482-2.653-0.742c-1.514-0.436-3.02-0.879-4.526-1.323   c-0.512-0.153-1.025-0.306-1.537-0.459c-0.482-0.138-0.971-0.275-1.453-0.413C8.374,11.623,8.16,11.509,7.8,11.593L7.8,11.623z    M35.348,21.555c-0.092-0.214-0.13-0.329-0.183-0.436c-0.206-0.436-0.512-0.703-1.04-0.68c-0.199,0.008-0.421-0.046-0.596-0.138   c-0.382-0.191-0.612-0.55-0.826-0.91c-0.161-0.268-0.153-0.558-0.061-0.856c0.084-0.275,0.008-0.528-0.161-0.757   c-0.069-0.092-0.138-0.191-0.206-0.291c-0.749-1.109-1.827-1.843-2.913-2.577c-0.046-0.031-0.099-0.061-0.161-0.084   c-0.176-0.069-0.352-0.076-0.52,0c-0.726,0.359-1.216,1.055-0.895,1.98c0.099,0.275,0.245,0.535,0.375,0.803   c0.161,0.321,0.344,0.627,0.474,0.956c0.329,0.803,0.115,1.606-0.543,2.164c-0.184,0.153-0.375,0.298-0.566,0.436   c-0.313,0.229-0.451,0.55-0.466,0.917c-0.023,0.55,0.122,1.063,0.505,1.476c0.283,0.306,0.573,0.596,0.872,0.887   c0.275,0.275,0.52,0.566,0.696,0.917c0.26,0.528,0.237,1.032-0.084,1.522c-0.115,0.176-0.26,0.321-0.375,0.497   c-0.191,0.268-0.184,0.558-0.031,0.841c0.13,0.237,0.306,0.436,0.604,0.573c0.321-0.122,0.711-0.115,1.063-0.336   c-0.046-0.222-0.099-0.413-0.122-0.612c-0.054-0.428,0.214-0.994,0.742-1.055c0.138-0.015,0.298,0,0.428-0.153   c-0.038-0.061-0.069-0.153-0.13-0.191c-0.336-0.245-0.489-0.589-0.558-0.979c-0.038-0.237-0.092-0.466-0.107-0.703   c-0.054-0.986,0.191-1.346,1.124-1.644c0.902-0.291,1.277-0.298,2.179-0.069c0-0.122,0-0.237,0-0.352   c0.023-0.642,0.229-0.902,0.864-1.04c0.168-0.038,0.336-0.061,0.596-0.107L35.348,21.555z M59.822,28.566   c0.39,0.084,0.749,0.076,1.101,0.038c0.199-0.023,0.382-0.214,0.405-0.413c0.031-0.237,0.015-0.474-0.092-0.696   c-0.061-0.13-0.145-0.26-0.222-0.39c-0.214-0.359-0.222-0.726-0.099-1.116c0.115-0.344,0.275-0.658,0.535-0.91   c0.168-0.168,0.336-0.336,0.497-0.512c0.512-0.581,0.673-1.43,0.183-2.225c-0.237-0.382-0.512-0.726-0.887-0.986   c-0.352-0.245-0.604-0.566-0.788-0.948c-0.115-0.252-0.153-0.505-0.099-0.78c0.084-0.428,0.283-0.78,0.589-1.07   c0.237-0.229,0.482-0.436,0.734-0.642c0.451-0.367,0.642-0.841,0.596-1.414c-0.015-0.145-0.015-0.298-0.046-0.443   c-0.145-0.558-0.375-1.063-0.94-1.33c-0.229-0.107-0.451-0.138-0.68-0.015c-0.183,0.099-0.367,0.199-0.535,0.313   c-0.367,0.252-0.726,0.52-1.086,0.772c-0.612,0.436-1.109,0.979-1.575,1.56c-0.237,0.298-0.359,0.604-0.237,0.986   c0.099,0.313-0.023,0.596-0.214,0.826c-0.153,0.176-0.336,0.329-0.52,0.474c-0.191,0.145-0.398,0.26-0.589,0.398   c-0.268,0.191-0.482,0.443-0.642,0.734c-0.145,0.252-0.321,0.497-0.313,0.841c0.252,0.023,0.489,0.038,0.719,0.076   c0.443,0.084,0.719,0.39,0.795,0.849c0.031,0.168-0.069,0.352,0.099,0.543c0.084-0.023,0.191-0.054,0.298-0.076   c0.627-0.115,1.239-0.107,1.843,0.122c0.658,0.252,1.009,0.734,0.971,1.437c-0.046,0.742-0.13,1.491-0.788,2.026   c0.099,0.061,0.161,0.099,0.229,0.138c0.696,0.344,0.879,0.658,0.818,1.399c-0.008,0.138-0.031,0.283-0.046,0.436L59.822,28.566z    M42.612,36.923c-0.329,0.092-0.55,0.298-0.788,0.482c-0.329,0.26-0.65,0.52-0.979,0.772c-0.872,0.673-1.636,1.46-2.34,2.309   c-1.009,1.216-1.789,2.584-2.531,3.968c-0.367,0.68-0.658,1.392-0.986,2.095c-0.099,0.214-0.176,0.436-0.161,0.68   c0.023,0.39,0.115,0.765,0.283,1.116c0.298,0.635,1.124,1.055,1.781,0.902c0.466-0.107,0.895-0.321,1.254-0.642   c0.138-0.122,0.245-0.26,0.291-0.436c0.038-0.145,0.084-0.283,0.122-0.428c0.68-2.408,1.682-4.679,2.921-6.858   c0.39-0.68,0.849-1.284,1.468-1.766c0.046-0.031,0.061-0.099,0.115-0.206c-0.115-0.642-0.153-1.346-0.466-1.996L42.612,36.923z    M46.924,39.041c0.505,0.39,0.956,0.788,1.254,1.307c0.474,0.818,0.971,1.636,1.369,2.493c0.573,1.231,1.17,2.462,1.544,3.777   c0.191,0.68,0.673,1.017,1.338,1.132s1.254-0.061,1.667-0.596c0.421-0.543,0.573-1.162,0.214-1.827   c-0.115-0.206-0.214-0.421-0.321-0.635c-0.558-1.078-1.2-2.11-1.85-3.135c-0.589-0.933-1.246-1.804-2.057-2.554   c-0.673-0.627-1.376-1.216-2.08-1.797c-0.176-0.145-0.359-0.321-0.673-0.298c-0.168,0.673-0.344,1.353-0.405,2.141L46.924,39.041z    M30.478,71.199c-0.191-0.405-0.359-0.749-0.528-1.093c-0.054-0.107-0.222-0.138-0.298-0.054c-0.199,0.222-0.39,0.451-0.596,0.658   c-0.466,0.466-0.994,0.856-1.636,1.025c-0.635,0.168-1.277,0.252-1.934,0.229c-0.788-0.023-1.522-0.229-2.156-0.711   c-0.092-0.069-0.191-0.138-0.291-0.206c-0.092-0.061-0.268,0.023-0.275,0.13c-0.138,1.392,0.183,2.653,1.078,3.739   c0.482,0.589,1.101,0.979,1.843,1.17c0.765,0.199,1.529,0.122,2.294,0.015c0.696-0.099,1.3-0.398,1.881-0.757   c0.245-0.153,0.359-0.359,0.344-0.665C30.157,73.516,30.248,72.369,30.478,71.199z M59.799,74.953   c0.176,0.313,0.421,0.436,0.642,0.573c0.925,0.55,1.934,0.696,2.989,0.688c1.002-0.008,1.858-0.352,2.546-1.078   c1.063-1.124,1.437-2.477,1.262-3.976c-0.199-0.092-0.321,0-0.451,0.069c-0.375,0.237-0.757,0.451-1.193,0.581   c-0.849,0.245-1.697,0.176-2.554,0.038c-0.635-0.107-1.185-0.375-1.674-0.765c-0.252-0.199-0.459-0.459-0.688-0.688   c-0.161-0.168-0.306-0.344-0.497-0.55c-0.122,0.191-0.222,0.336-0.306,0.489c-0.443,0.826-0.382,0.658-0.252,1.43   c0.107,0.642,0.161,1.292,0.168,1.942c0,0.443,0,0.887,0,1.262L59.799,74.953z M42.405,35.868c-0.122,0.046-0.26,0.092-0.382,0.153   c-1.537,0.78-2.982,1.705-4.419,2.653c-1.797,1.193-3.257,2.745-4.71,4.312c-0.076,0.084-0.138,0.191-0.222,0.283   c-0.505,0.55-0.688,1.231-0.818,1.934c-0.061,0.336,0.008,0.658,0.214,0.925c0.451,0.604,1.315,0.91,2.064,0.543   c0.168-0.084,0.298-0.191,0.382-0.352c0.107-0.214,0.206-0.428,0.306-0.642c0.68-1.483,1.414-2.936,2.355-4.274   c0.994-1.422,2.141-2.691,3.509-3.746c0.612-0.474,1.216-0.94,1.82-1.407c0-0.061,0.008-0.122,0-0.183   c-0.015-0.054-0.054-0.099-0.099-0.191L42.405,35.868z M56.03,45.991c1.2,0.023,1.774-0.688,1.911-1.33   c0.046-0.214,0.031-0.405-0.115-0.581c-0.413-0.505-0.81-1.025-1.231-1.529c-1.399-1.667-2.974-3.142-4.832-4.305   c-0.581-0.359-1.132-0.765-1.69-1.155c-0.635-0.443-1.3-0.826-2.003-1.147c-0.107-0.046-0.214-0.107-0.329-0.122   c-0.069-0.008-0.183,0.046-0.214,0.107c-0.031,0.061-0.015,0.176,0.023,0.252c0.038,0.076,0.115,0.13,0.191,0.176   c0.849,0.55,1.606,1.223,2.347,1.904c0.833,0.765,1.583,1.606,2.202,2.554c0.818,1.239,1.59,2.5,2.271,3.823   c0.138,0.26,0.268,0.528,0.398,0.795c0.122,0.26,0.344,0.413,0.604,0.482C55.762,45.968,55.969,45.983,56.03,45.991z M2.372,5.033   C2.426,5.27,2.456,5.599,2.563,5.897c0.275,0.772,0.78,1.399,1.46,1.858C4.582,8.129,5.216,8.267,5.889,8.19   C6.294,8.145,6.6,7.938,6.852,7.617c0.375-0.482,0.443-1.04,0.306-1.606C6.99,5.323,6.715,4.666,6.294,4.077   c-0.642-0.91-1.544-1.155-2.577-1.04c-0.665,0.069-1.132,0.543-1.262,1.2C2.41,4.467,2.403,4.704,2.372,5.033z M87.538,4.941   c-0.015-0.168-0.015-0.291-0.031-0.405c-0.015-0.115-0.046-0.229-0.084-0.344c-0.268-0.902-0.994-1.338-1.911-1.124   c-0.428,0.099-0.856,0.237-1.239,0.459c-0.421,0.245-0.765,0.558-0.994,0.986c-0.268,0.497-0.459,1.025-0.566,1.583   c-0.076,0.398,0,0.772,0.229,1.101c0.138,0.191,0.291,0.375,0.459,0.543c0.55,0.528,1.193,0.619,1.881,0.321   c0.612-0.26,1.124-0.658,1.514-1.2c0.428-0.581,0.665-1.246,0.749-1.919H87.538z M53.713,23.872   c0.26,0.191,0.512,0.344,0.726,0.543c0.229,0.206,0.482,0.313,0.78,0.39c0.971,0.252,1.636,1.185,1.575,2.194   c-0.023,0.336,0,0.642,0.145,0.948c0.099,0.206,0.145,0.436,0.222,0.673c0.497,0.038,0.963,0.015,1.437,0   c0.115,0,0.229-0.046,0.344-0.092c0.275-0.115,0.405-0.336,0.413-0.627c0.008-0.283-0.153-0.505-0.421-0.604   c-0.168-0.061-0.344-0.099-0.497-0.176c-0.367-0.191-0.413-0.612-0.107-0.879c0.092-0.076,0.199-0.13,0.283-0.214   c0.084-0.076,0.183-0.168,0.222-0.268c0.145-0.421,0.275-0.849,0.252-1.3c-0.023-0.359-0.191-0.627-0.52-0.765   c-0.183-0.084-0.39-0.145-0.596-0.168c-0.321-0.046-0.65-0.031-0.963,0.076c-0.191,0.069-0.398,0.115-0.604,0.138   c-0.474,0.046-0.734-0.229-0.658-0.696c0.023-0.145,0.092-0.291,0.084-0.428c0-0.099-0.076-0.237-0.161-0.291   c-0.122-0.076-0.275-0.122-0.421-0.122c-0.268,0-0.535,0.023-0.78,0.176c-0.291,0.466-0.512,0.979-0.742,1.514L53.713,23.872z    M36.357,23.925c-0.183-0.466-0.352-0.879-0.512-1.292c-0.107-0.283-0.321-0.421-0.604-0.443c-0.145-0.008-0.291,0-0.436,0.023   c-0.184,0.031-0.313,0.191-0.313,0.375c0,0.237,0.023,0.474,0,0.703c-0.015,0.237-0.26,0.436-0.497,0.405   c-0.168-0.023-0.352-0.069-0.505-0.145c-0.283-0.138-0.558-0.176-0.856-0.099c-0.176,0.038-0.352,0.054-0.52,0.099   c-0.979,0.291-1.07,0.39-0.986,1.445c0.038,0.451,0.191,0.864,0.604,1.132c0.099,0.061,0.184,0.153,0.252,0.245   c0.115,0.153,0.122,0.329,0.038,0.505c-0.092,0.199-0.245,0.336-0.459,0.382c-0.176,0.031-0.352,0.046-0.528,0.076   c-0.176,0.038-0.298,0.206-0.306,0.39c0,0.283,0.099,0.512,0.352,0.703c0.604-0.015,1.223,0.015,1.858-0.107   c0.168-0.359,0.26-0.696,0.153-1.109c-0.138-0.543-0.015-1.063,0.321-1.514c0.382-0.52,0.895-0.879,1.529-0.986   c0.344-0.061,0.604-0.161,0.841-0.421c0.138-0.145,0.336-0.229,0.573-0.375V23.925z M5.14,2.739C5.063,2.64,5.01,2.54,4.926,2.464   c-0.581-0.52-1.239-0.917-1.965-1.177c-0.665-0.237-1.346-0.436-2.026-0.65C0.858,0.614,0.774,0.614,0.69,0.606   C0.552,0.881,0.636,1.149,0.675,1.401c0.214,1.323,0.68,2.569,1.185,3.8C1.875,5.247,1.944,5.27,2.02,5.331   c0.023-0.13,0.046-0.229,0.061-0.336c0.046-0.321,0.061-0.65,0.13-0.963C2.38,3.29,2.884,2.861,3.618,2.739   c0.26-0.046,0.528,0,0.795,0c0.229,0.008,0.451,0.13,0.719,0L5.14,2.739z M14.521,31.411c0.015,0.084,0.015,0.176,0.054,0.245   c0.398,0.658,0.849,1.277,1.414,1.804c0.107,0.099,0.229,0.168,0.329,0.245c1.04-0.466,2.439-1.269,2.829-1.621   c-0.52-0.459-0.52-0.459-0.589-1.101c-0.015-0.115,0-0.237-0.145-0.291c-2.278,0.283-3.311,0.466-3.899,0.711L14.521,31.411z    M71.421,30.975c-0.031,0.275-0.038,0.451-0.076,0.619c-0.092,0.413-0.313,0.696-0.788,0.688c-0.031,0-0.069,0.061-0.107,0.092   c0.543,0.558,1.774,1.392,2.523,1.72c0.757-0.543,1.483-1.307,1.919-2.041c0.038-0.069,0.023-0.168,0.038-0.283   c-1.177-0.184-2.286-0.596-3.525-0.795L71.421,30.975z M72.415,34.423c-0.826-0.581-1.674-1.17-2.554-1.789   c-0.214,0.734-0.864,0.925-1.414,1.216c0.359,0.895,0.803,1.667,1.185,2.072c0.734-0.206,1.598-0.596,2.408-1.093   c0.145-0.092,0.329-0.153,0.382-0.398L72.415,34.423z M70.886,9.873c0.245,0.275,0.543,0.344,0.887,0.298   c1.086-0.138,2.171-0.237,3.249-0.413c0.635-0.107,1.254-0.329,1.873-0.512c0.199-0.061,0.382-0.161,0.558-0.26   c0.099-0.054,0.206-0.153,0.153-0.283c-0.023-0.069-0.115-0.138-0.184-0.161c-0.199-0.054-0.405-0.115-0.604-0.115   c-0.443,0-0.887,0-1.323,0.046c-0.528,0.061-1.047,0.176-1.567,0.275c-0.81,0.161-1.621,0.336-2.431,0.489   C71.123,9.307,70.931,9.513,70.886,9.873z M19.384,9.498c-0.015-0.321-0.145-0.558-0.489-0.642   c-0.145-0.031-0.283-0.092-0.421-0.13c-1.147-0.291-2.286-0.589-3.433-0.849c-0.604-0.138-1.223-0.191-1.85-0.115   c-0.138,0.015-0.283,0.076-0.413,0.138c-0.031,0.015-0.061,0.122-0.046,0.153c0.061,0.099,0.13,0.214,0.222,0.26   c0.313,0.161,0.635,0.306,0.963,0.436c1.499,0.589,3.089,0.742,4.656,1.025c0.313,0.054,0.581-0.046,0.803-0.275L19.384,9.498z    M82.874,10.813c0.107-0.038,0.229-0.061,0.313-0.122c0.994-0.788,2.095-1.453,2.921-2.447c0.023-0.023,0-0.092-0.015-0.153   c-0.237,0.115-0.466,0.252-0.711,0.336c-0.78,0.268-1.522,0.214-2.171-0.329c-0.199-0.168-0.359-0.39-0.55-0.573   c-0.031-0.031-0.107-0.023-0.161-0.038c-0.161,1.009-0.038,2.126,0.375,3.318L82.874,10.813z M7.518,7.525   C7.288,7.502,7.25,7.678,7.158,7.778C6.493,8.504,5.69,8.733,4.742,8.466C4.597,8.427,4.459,8.374,4.314,8.343   c-0.054-0.015-0.115,0-0.168,0.008c0.031,0.076,0.054,0.153,0.092,0.222C4.268,8.619,4.314,8.665,4.36,8.695   c0.833,0.658,1.674,1.315,2.515,1.965c0.069,0.054,0.161,0.076,0.229,0.107c0.199-0.099,0.214-0.283,0.237-0.451   C7.411,9.758,7.479,9.2,7.525,8.642c0.031-0.375,0.069-0.749-0.008-1.124V7.525z M18.076,10.392   c-0.115-0.031-0.199-0.061-0.283-0.076c-1.216-0.245-2.431-0.497-3.647-0.719c-0.665-0.122-1.346-0.199-2.018-0.283   c-0.084-0.008-0.176,0-0.26,0.031c-0.046,0.015-0.099,0.076-0.107,0.122c-0.008,0.046,0.023,0.122,0.061,0.145   c0.206,0.107,0.413,0.245,0.635,0.298c0.658,0.153,1.323,0.313,1.996,0.405c0.933,0.13,1.881,0.199,2.821,0.291   c0.206,0.015,0.413,0,0.619-0.031c0.061-0.008,0.115-0.099,0.191-0.176L18.076,10.392z M72.086,11.004   c0.382,0.031,0.589,0.061,0.788,0.054c0.68-0.008,1.361-0.038,2.034-0.046c0.979-0.015,1.942-0.168,2.898-0.359   c0.084-0.015,0.176-0.038,0.26-0.061c0.084-0.031,0.161-0.069,0.245-0.107c0.122-0.054,0.229-0.222,0.168-0.268   c-0.061-0.046-0.145-0.107-0.222-0.107c-0.703,0.038-1.414,0.061-2.118,0.145c-1.086,0.13-2.148,0.382-3.242,0.451   c-0.229,0.015-0.466,0.038-0.81,0.306L72.086,11.004z M66.734,30.967c0.099,0.229,0.115,0.313,0.161,0.375   c0.291,0.413,0.573,0.826,0.879,1.223c0.145,0.183,0.313,0.352,0.489,0.52c0.176,0.168,0.329,0.168,0.566,0.031   c0.076-0.046,0.145-0.099,0.222-0.153c0.161-0.122,0.199-0.291,0.115-0.466c-0.168-0.367-0.474-0.604-0.818-0.78   c-0.474-0.237-0.963-0.451-1.598-0.757L66.734,30.967z M20.653,32.535c0.138,0.275,0.375,0.421,0.696,0.52   c0.81-0.474,1.262-1.292,1.843-1.98c0.015-0.023-0.023-0.092-0.038-0.168c-0.543,0.222-1.093,0.436-1.629,0.68   c-0.405,0.184-0.765,0.451-0.864,0.948H20.653z M22.74,30.31c-0.275,0-0.451-0.015-0.627,0c-0.558,0.054-1.109,0.115-1.667,0.191   c-0.26,0.038-0.52,0.092-0.78,0.161c-0.168,0.046-0.336,0.122-0.474,0.222c-0.076,0.054-0.122,0.199-0.13,0.298   c0,0.145,0.153,0.313,0.268,0.306c0.229-0.023,0.474-0.038,0.688-0.115c0.833-0.275,1.667-0.566,2.5-0.864   c0.046-0.015,0.084-0.076,0.222-0.206V30.31z M67.17,30.508c1.07,0.466,1.98,0.872,2.936,1.185   c0.138,0.046,0.291,0.061,0.436,0.084c0.138,0.023,0.291-0.092,0.313-0.252c0.015-0.107,0-0.26-0.069-0.321   c-0.13-0.115-0.298-0.191-0.459-0.26c-0.665-0.268-1.392-0.26-2.08-0.428c-0.291-0.069-0.581-0.099-1.07-0.015L67.17,30.508z    M17.488,7.946c0-0.038,0.015-0.076,0.023-0.115c-0.443-0.161-0.887-0.321-1.33-0.474c-0.979-0.336-1.965-0.665-2.982-0.872   c-0.344-0.069-0.696-0.153-1.078-0.076c0.054,0.099,0.084,0.206,0.138,0.229C12.503,6.745,12.747,6.852,13,6.914   c1.155,0.275,2.309,0.543,3.464,0.81c0.176,0.038,0.352,0.069,0.52,0.107s0.336,0.076,0.505,0.122V7.946z M73.065,77.698   c0.421,0,0.726-0.291,0.726-0.703c0-0.375-0.336-0.734-0.703-0.757c-0.398-0.023-0.765,0.344-0.772,0.78   c-0.008,0.382,0.321,0.673,0.757,0.68H73.065z M16.884,77.698c0.459,0.015,0.795-0.245,0.81-0.635   c0.015-0.405-0.291-0.78-0.658-0.818c-0.421-0.038-0.795,0.321-0.795,0.765c0,0.405,0.252,0.68,0.65,0.696L16.884,77.698z    M68.11,44.08c0.421-0.099,0.78-0.359,1.147-0.596c0.092-0.061,0.153-0.168,0.222-0.252c-0.046-0.107-0.076-0.191-0.122-0.268   c-0.031-0.054-0.069-0.092-0.107-0.138c-0.161-0.168-0.298-0.199-0.466-0.115c-0.413,0.222-0.795,0.489-1.116,0.81   c0.061,0.275,0.176,0.466,0.443,0.55V44.08z M22.381,43.56c-0.382-0.375-0.772-0.665-1.231-0.864   c-0.069-0.031-0.176-0.008-0.245,0.031c-0.153,0.084-0.283,0.222-0.313,0.398c-0.015,0.076,0,0.191,0.046,0.237   c0.352,0.313,0.757,0.543,1.2,0.688c0.069,0.023,0.191-0.008,0.237-0.061c0.115-0.122,0.199-0.275,0.306-0.436L22.381,43.56z    M71.673,48.667c0,0,0-0.008,0-0.015c0.115,0.008,0.237,0.023,0.352,0.031c0.031,0,0.061,0,0.084,0c0.26,0,0.382-0.176,0.252-0.398   c-0.122-0.199-0.237-0.405-0.382-0.589c-0.061-0.076-0.214-0.138-0.306-0.122c-0.375,0.069-0.719,0.229-1.009,0.489   c-0.054,0.046-0.076,0.161-0.069,0.237c0,0.122,0.092,0.229,0.214,0.245c0.291,0.046,0.581,0.069,0.872,0.107L71.673,48.667z    M18.191,48.667c0.268-0.015,0.382-0.023,0.497-0.038c0.176-0.015,0.359-0.023,0.52-0.076c0.092-0.031,0.206-0.145,0.229-0.229   c0.015-0.092-0.054-0.229-0.122-0.306c-0.076-0.084-0.191-0.13-0.298-0.183c-0.841-0.436-0.887-0.336-1.315,0.375   c-0.099,0.168-0.138,0.375-0.061,0.398c0.107,0.038,0.222,0.061,0.336,0.069c0.115,0,0.237-0.015,0.206-0.015L18.191,48.667z    M19.56,44.928c0.229,0.329,0.52,0.428,0.757,0.581c0.145,0.092,0.306,0.161,0.466,0.229c0.161,0.069,0.321-0.015,0.428-0.206   c0.107-0.191,0.107-0.367-0.046-0.474c-0.336-0.229-0.68-0.451-1.032-0.665c-0.122-0.076-0.283-0.015-0.375,0.122   c-0.076,0.122-0.138,0.252-0.206,0.398L19.56,44.928z M70.175,47.49c0.054,0,0.122,0,0.168-0.023   c0.306-0.161,0.619-0.329,0.917-0.505c0.107-0.061,0.145-0.268,0.092-0.398c-0.031-0.076-0.076-0.161-0.122-0.229   c-0.13-0.206-0.306-0.26-0.52-0.138c-0.252,0.145-0.497,0.306-0.734,0.474c-0.252,0.191-0.229,0.52,0.031,0.742   c0.038,0.038,0.107,0.046,0.161,0.069L70.175,47.49z M69.089,45.762c0.046,0,0.084,0,0.107,0c0.451-0.153,0.841-0.405,1.193-0.711   c0.046-0.038,0.054-0.168,0.031-0.245c-0.031-0.107-0.099-0.214-0.168-0.306c-0.084-0.122-0.26-0.161-0.39-0.084   c-0.344,0.222-0.688,0.443-1.025,0.673c-0.115,0.076-0.122,0.245-0.038,0.398C68.867,45.616,68.944,45.746,69.089,45.762z    M19.888,47.49c0,0,0.054-0.015,0.084-0.023c0.26-0.122,0.359-0.581,0.138-0.742c-0.283-0.206-0.581-0.382-0.887-0.558   c-0.099-0.054-0.237-0.038-0.321,0.069c-0.084,0.115-0.168,0.237-0.229,0.367c-0.046,0.107-0.038,0.237,0.061,0.321   c0.313,0.268,0.665,0.466,1.063,0.581c0.023,0,0.061,0,0.084,0L19.888,47.49z M68.592,29.889c0.864,0.099,1.72,0.191,2.569,0.283   c0.115,0.015,0.237,0,0.352-0.008c0.023,0,0.069-0.031,0.069-0.046c0-0.046,0-0.13-0.023-0.145c-0.68-0.329-1.407-0.436-2.156-0.39   c-0.26,0.015-0.52,0.099-0.78,0.161C68.607,29.744,68.607,29.82,68.592,29.889z M21.525,29.69c-0.138-0.107-0.191-0.191-0.26-0.206   c-0.933-0.214-1.858-0.206-2.76,0.153c-0.038,0.015-0.069,0.099-0.054,0.145c0.008,0.038,0.076,0.076,0.122,0.076   c0.963,0.031,1.911-0.122,2.951-0.176V29.69z M68.263,41.687c0,0-0.015-0.061-0.031-0.084c-0.229-0.306-0.474-0.375-0.749-0.183   c-0.214,0.153-0.428,0.313-0.635,0.482c-0.099,0.084-0.107,0.214-0.046,0.321c0.199,0.344,0.367,0.375,0.635,0.191   c0.26-0.183,0.528-0.375,0.78-0.573C68.255,41.817,68.248,41.74,68.263,41.687z M23.275,42.107   c-0.015-0.054-0.015-0.138-0.054-0.161c-0.275-0.214-0.558-0.421-0.849-0.612c-0.054-0.038-0.176-0.015-0.252,0.015   c-0.099,0.046-0.191,0.13-0.275,0.214c-0.092,0.084-0.092,0.245,0,0.306c0.283,0.206,0.566,0.413,0.864,0.604   c0.252,0.161,0.489-0.084,0.558-0.367L23.275,42.107z M49.791,31.158c0,0,0.061,0.069,0.092,0.099   c0.344-0.222,0.68-0.443,1.025-0.665c0.26-0.168,0.398-0.421,0.451-0.719c0-0.031-0.061-0.107-0.099-0.115   c-0.336-0.023-0.642,0.069-0.833,0.367C50.204,30.463,50.005,30.814,49.791,31.158z M35.142,15.576   c-0.252,0.084-0.443,0.245-0.604,0.512c0.122,0.199,0.206,0.451,0.466,0.589c0.252-0.069,0.466-0.199,0.635-0.421   c-0.107-0.27-0.27-0.5-0.489-0.688L35.142,15.576z M6.807,2.319c0.023,0.245,0.031,0.39,0.046,0.535   c0.023,0.176,0.161,0.275,0.39,0.283c0.153,0,0.268-0.107,0.275-0.275c0-0.145,0-0.298,0-0.443c0-0.283-0.352-0.421-0.589-0.39   c-0.038,0-0.092,0.076-0.107,0.122c-0.015,0.084,0,0.176,0,0.168H6.807z M54.852,15.569c-0.214,0.13-0.336,0.329-0.421,0.55   c-0.023,0.061,0,0.183,0.054,0.229c0.161,0.161,0.336,0.306,0.589,0.313c0.206-0.168,0.359-0.367,0.398-0.627   C55.304,15.798,55.12,15.63,54.852,15.569z M23.788,31.586c-0.352,0.283-0.65,0.596-0.917,0.94   c-0.107,0.138-0.199,0.291-0.268,0.443c-0.031,0.061,0,0.153,0.015,0.283C23.329,32.894,23.581,32.252,23.788,31.586z    M52.337,19.996c0.604,0.528,0.734,0.237,0.963-0.229c0.046-0.099,0-0.252-0.099-0.298c-0.153-0.069-0.306-0.176-0.505-0.138   c-0.222,0.168-0.306,0.413-0.367,0.665L52.337,19.996z M9.016,3.328c0.161,0.031,0.306,0.069,0.451,0.084   C9.628,3.427,9.75,3.335,9.781,3.167C9.804,3.053,9.819,2.93,9.811,2.816c0-0.153-0.107-0.275-0.275-0.306   C9.062,2.418,8.94,2.426,8.963,2.961c0,0.115,0.031,0.229,0.046,0.359L9.016,3.328z M33.98,14.085   c-0.13-0.252-0.313-0.451-0.558-0.566c-0.26,0.122-0.413,0.275-0.505,0.505c0.191,0.206,0.291,0.459,0.573,0.535   C33.704,14.468,33.903,14.353,33.98,14.085z M56.611,13.489c-0.122,0.092-0.222,0.153-0.298,0.237   c-0.359,0.359-0.352,0.443,0.054,0.749c0.061,0.046,0.161,0.054,0.229,0.076c0.222-0.176,0.428-0.336,0.482-0.65   c-0.145-0.13-0.298-0.268-0.459-0.413L56.611,13.489z M81.032,2.533c-0.099-0.023-0.176-0.061-0.26-0.054   c-0.505,0.023-0.604,0.145-0.535,0.65c0.008,0.084,0.061,0.161,0.107,0.283c0.222-0.023,0.443-0.046,0.688-0.069V2.54V2.533z    M66.038,31.663c0.245,0.573,0.428,1.124,0.895,1.514c0.061,0.046,0.153,0.069,0.229,0.076c0.076,0,0.084-0.199,0.015-0.321   c-0.268-0.466-0.581-0.887-0.971-1.254C66.191,31.663,66.153,31.678,66.038,31.663z M36.625,19.552   c0.138,0.336,0.206,0.596,0.505,0.742c0.161-0.076,0.344-0.161,0.558-0.26c-0.092-0.214-0.161-0.405-0.252-0.581   c-0.038-0.069-0.13-0.115-0.206-0.176c-0.183,0.084-0.367,0.168-0.612,0.275H36.625z M83.218,2.334c0,0,0-0.069,0-0.122   c0-0.115-0.115-0.229-0.229-0.191c-0.138,0.046-0.313,0.076-0.382,0.176c-0.168,0.26-0.161,0.55-0.031,0.833   c0.023,0.046,0.084,0.076,0.13,0.092c0.176,0.046,0.398-0.069,0.428-0.214c0.031-0.168,0.054-0.344,0.084-0.566L83.218,2.334z    M76.245,4.245c0.199-0.046,0.367-0.084,0.528-0.13c0.046-0.015,0.115-0.084,0.115-0.115c-0.023-0.168-0.038-0.344-0.107-0.489   c-0.054-0.115-0.199-0.084-0.313-0.046c-0.115,0.038-0.222,0.069-0.329,0.115c-0.099,0.038-0.153,0.183-0.107,0.298   c0.061,0.13,0.138,0.245,0.222,0.382L76.245,4.245z M74.234,4.758c0.092-0.031,0.306-0.099,0.52-0.191   c0.038-0.015,0.069-0.092,0.076-0.145c0.015-0.161-0.168-0.398-0.298-0.375c-0.199,0.031-0.398,0.076-0.589,0.138   c-0.122,0.038-0.161,0.153-0.122,0.283c0.046,0.191,0.145,0.298,0.413,0.283V4.758z M53.621,17.465   c-0.046,0.069-0.122,0.153-0.176,0.252c-0.092,0.161-0.069,0.298,0.061,0.382c0.122,0.076,0.252,0.153,0.39,0.199   c0.069,0.023,0.176-0.015,0.229-0.069c0.245-0.237,0.222-0.451-0.061-0.635C53.943,17.518,53.828,17.419,53.621,17.465z    M16.226,4.345c-0.199-0.268-0.497-0.291-0.788-0.283c-0.069,0-0.153,0.084-0.191,0.153c-0.054,0.092-0.115,0.206,0.015,0.382   c0.168,0.046,0.382,0.13,0.604,0.176c0.122,0.023,0.222-0.046,0.268-0.168c0.031-0.084,0.061-0.168,0.092-0.252L16.226,4.345z    M39.339,24.239c0,0,0.115,0,0.153-0.031c0.054-0.054,0.13-0.145,0.115-0.206c-0.023-0.145-0.084-0.283-0.153-0.413   c-0.092-0.199-0.191-0.229-0.436-0.145c-0.237,0.076-0.291,0.183-0.206,0.39c0.099,0.222,0.199,0.436,0.52,0.413L39.339,24.239z    M32.19,12.342c-0.13-0.138-0.245-0.275-0.375-0.39c-0.115-0.099-0.26-0.076-0.382,0.069c-0.076,0.084-0.13,0.191-0.206,0.306   c0.138,0.138,0.245,0.268,0.375,0.382c0.115,0.099,0.26,0.076,0.382-0.061C32.06,12.564,32.114,12.457,32.19,12.342z    M57.804,12.388c0.13,0.138,0.26,0.283,0.421,0.451c0.199-0.183,0.375-0.336,0.535-0.482c-0.359-0.589-0.428-0.596-0.849-0.161   c-0.038,0.038-0.061,0.099-0.115,0.191L57.804,12.388z M30.462,10.928c-0.183-0.145-0.336-0.275-0.505-0.382   c-0.183-0.115-0.451,0.115-0.443,0.421c0.161,0.115,0.344,0.245,0.55,0.405c0.138-0.153,0.245-0.283,0.39-0.443H30.462z    M41.029,29.958c0.008,0.122,0,0.214,0.023,0.291c0.076,0.329,0.237,0.466,0.604,0.505c0.038,0,0.13-0.054,0.13-0.084   c0-0.138,0-0.283-0.023-0.428c-0.061-0.283-0.145-0.336-0.497-0.359c-0.054,0-0.107,0.031-0.229,0.069L41.029,29.958z    M13.986,3.756c-0.031-0.046-0.054-0.145-0.115-0.183c-0.092-0.061-0.214-0.076-0.321-0.115c-0.183-0.076-0.375,0.008-0.428,0.283   c-0.054,0.26,0.008,0.375,0.268,0.443c0.031,0.008,0.054,0.015,0.084,0.023c0.291,0.061,0.489-0.099,0.512-0.443L13.986,3.756z    M11.027,3.611c0.161,0.038,0.291,0.084,0.428,0.107c0.122,0.023,0.229-0.038,0.283-0.153c0.046-0.107,0.076-0.222,0.084-0.329   c0-0.076-0.038-0.183-0.092-0.214c-0.298-0.168-0.55-0.229-0.627,0.222c-0.015,0.107-0.038,0.222-0.069,0.367L11.027,3.611z    M78.707,2.884C78.6,2.915,78.485,2.93,78.378,2.968c-0.176,0.069-0.237,0.168-0.199,0.321c0.023,0.084,0.046,0.168,0.084,0.245   c0.061,0.153,0.145,0.199,0.344,0.176c0.107-0.015,0.214-0.054,0.321-0.084c0.069-0.306-0.023-0.528-0.222-0.749L78.707,2.884z    M36.304,17.411c-0.183,0.115-0.359,0.206-0.52,0.329c-0.054,0.038-0.076,0.161-0.054,0.229c0.122,0.39,0.313,0.413,0.573,0.268   c0.054-0.031,0.099-0.061,0.145-0.092c0.168-0.115,0.199-0.252,0.092-0.443C36.487,17.61,36.403,17.526,36.304,17.411z    M37.772,21.632c0.038,0.115,0.054,0.229,0.107,0.321c0.076,0.153,0.191,0.191,0.359,0.145c0.084-0.023,0.168-0.054,0.245-0.084   c0.153-0.069,0.191-0.183,0.122-0.352c-0.13-0.313-0.245-0.375-0.52-0.237c-0.099,0.054-0.199,0.122-0.313,0.199V21.632z    M48.988,29.989c-0.489-0.168-0.696-0.076-0.78,0.336c-0.031,0.145-0.054,0.291,0.054,0.421   C48.649,30.684,48.891,30.432,48.988,29.989z M50.403,24.155c0.482,0.145,0.604,0.107,0.772-0.275   c0.107-0.237,0.031-0.367-0.245-0.443c-0.176-0.046-0.306-0.008-0.367,0.138c-0.076,0.183-0.222,0.352-0.153,0.581H50.403z    M24.743,7.548c-0.138-0.076-0.291-0.168-0.451-0.229c-0.145-0.061-0.359,0.076-0.405,0.26c-0.038,0.138,0.061,0.214,0.168,0.268   c0.076,0.046,0.153,0.092,0.237,0.122c0.176,0.069,0.298,0.008,0.413-0.214c0.023-0.046,0.015-0.115,0.031-0.214L24.743,7.548z    M59.608,10.866c0,0.206,0.092,0.321,0.214,0.39c0.061,0.038,0.176,0.054,0.237,0.023c0.13-0.061,0.245-0.153,0.344-0.252   c0.092-0.084,0.092-0.199,0.015-0.306c-0.115-0.161-0.252-0.245-0.352-0.176c-0.168,0.107-0.321,0.229-0.459,0.329L59.608,10.866z    M64.18,8.634c-0.061-0.168-0.122-0.336-0.382-0.367c-0.122,0.069-0.283,0.138-0.421,0.245c-0.054,0.038-0.076,0.161-0.061,0.229   c0.076,0.252,0.252,0.336,0.466,0.222C63.936,8.879,64.119,8.825,64.18,8.634z M25.776,8.665c0.184,0.115,0.344,0.229,0.512,0.329   c0.122,0.069,0.229,0.015,0.306-0.076c0.069-0.084,0.099-0.191,0.168-0.329c-0.191-0.115-0.359-0.229-0.535-0.306   c-0.061-0.023-0.176,0.015-0.229,0.061c-0.084,0.076-0.13,0.183-0.214,0.313L25.776,8.665z M69.647,5.767   c0.054,0.168,0.115,0.352,0.321,0.367c0.206,0.015,0.398-0.046,0.558-0.191c0.015-0.015,0.023-0.046,0.023-0.076   c0.015-0.183-0.222-0.413-0.39-0.382c-0.199,0.031-0.405,0.076-0.512,0.275V5.767z M68.347,6.707c0-0.076,0.008-0.107,0-0.13   c-0.099-0.268-0.183-0.336-0.352-0.26c-0.191,0.076-0.367,0.176-0.55,0.268c-0.084,0.046-0.061,0.245,0.038,0.298   c0.076,0.038,0.176,0.092,0.245,0.076c0.222-0.069,0.428-0.168,0.627-0.245L68.347,6.707z M66.543,40.716   c0.023-0.245-0.107-0.436-0.306-0.474c-0.206-0.038-0.421,0.13-0.428,0.344c-0.008,0.222,0.13,0.382,0.367,0.421   C66.359,41.037,66.528,40.899,66.543,40.716z M24.208,40.586c-0.015-0.206-0.214-0.367-0.421-0.344   c-0.229,0.023-0.382,0.26-0.336,0.512c0.031,0.161,0.222,0.283,0.398,0.252c0.214-0.038,0.382-0.229,0.359-0.413V40.586z    M73.623,79.541c0-0.183-0.13-0.375-0.291-0.398c-0.183-0.031-0.382,0.176-0.382,0.398c0,0.191,0.153,0.352,0.329,0.344   C73.455,79.877,73.623,79.709,73.623,79.541z M12.709,8.856c-0.191-0.206-0.298-0.336-0.421-0.451   c-0.115-0.107-0.275-0.107-0.421-0.076c-0.122,0.023-0.229,0.076-0.245,0.214c-0.008,0.115,0.084,0.252,0.191,0.26   C12.074,8.825,12.342,8.833,12.709,8.856z M17.404,5.17c0.076,0.176,0.206,0.245,0.352,0.275c0.076,0.015,0.183,0,0.245-0.038   c0.138-0.099,0.214-0.367,0.168-0.474c-0.076-0.183-0.482-0.222-0.612-0.054C17.488,4.972,17.449,5.086,17.404,5.17z M19.414,5.95   c0.153,0.061,0.26,0.115,0.367,0.145c0.329,0.092,0.344,0.084,0.573-0.359c-0.084-0.061-0.168-0.145-0.268-0.183   C19.728,5.407,19.636,5.461,19.414,5.95z M61.711,10.087c0.145-0.076,0.298-0.145,0.443-0.237c0.168-0.107,0.168-0.229,0-0.428   c-0.038-0.038-0.092-0.061-0.168-0.115c-0.161,0.092-0.329,0.191-0.497,0.298c-0.092,0.061-0.092,0.191,0,0.298   c0.054,0.061,0.13,0.107,0.229,0.183H61.711z M52.207,21.723c0,0,0-0.061-0.015-0.076c-0.13-0.168-0.306-0.268-0.52-0.283   c-0.046,0-0.115,0.038-0.145,0.076c-0.214,0.275-0.206,0.512,0.115,0.612c0.054,0.015,0.115,0.038,0.168,0.046   c0.176,0.023,0.405-0.191,0.398-0.382V21.723z M66.168,7.701c-0.291-0.451-0.336-0.466-0.65-0.306   c-0.023,0.015-0.054,0.031-0.076,0.046c-0.161,0.092-0.199,0.214-0.122,0.359c0.084,0.153,0.222,0.237,0.352,0.176   c0.153-0.069,0.306-0.161,0.505-0.275L66.168,7.701z M40.471,26.25c-0.031-0.107-0.061-0.222-0.099-0.329   c-0.122-0.321-0.206-0.336-0.596-0.138c0.008,0.084,0,0.168,0.031,0.252c0.115,0.359,0.222,0.398,0.665,0.222V26.25z    M48.805,28.368c0.061,0.038,0.107,0.084,0.161,0.092c0.375,0.054,0.596-0.161,0.566-0.543c0-0.038-0.061-0.099-0.107-0.115   c-0.275-0.092-0.459,0-0.543,0.237c-0.038,0.107-0.054,0.222-0.076,0.321V28.368z M27.97,9.253   c-0.13,0.183-0.206,0.298-0.313,0.443c0.191,0.13,0.352,0.245,0.52,0.336c0.115,0.069,0.222,0,0.298-0.092   c0.054-0.061,0.076-0.145,0.13-0.26c-0.191-0.13-0.375-0.252-0.642-0.436L27.97,9.253z M77.721,9.536   c0.252,0.107,0.512,0.069,0.765,0.023c0.061-0.008,0.13-0.107,0.168-0.183c0.038-0.092-0.069-0.252-0.168-0.268   c-0.115-0.015-0.245-0.046-0.344,0C77.95,9.184,77.767,9.291,77.721,9.536z M41.174,28.383c0-0.054,0-0.115,0-0.168   c-0.008-0.054-0.031-0.107-0.054-0.161c-0.107-0.252-0.184-0.298-0.459-0.268c-0.138,0.015-0.206,0.099-0.191,0.222   C40.547,28.475,40.677,28.543,41.174,28.383z M49.913,26.372c0,0,0.145-0.076,0.206-0.153c0.069-0.092,0.099-0.214,0.122-0.321   c0.008-0.046-0.023-0.115-0.054-0.153c-0.107-0.122-0.39-0.122-0.466,0c-0.061,0.099-0.099,0.206-0.138,0.313   C49.516,26.273,49.615,26.387,49.913,26.372z M21.884,6.279c-0.283,0.275-0.291,0.39-0.031,0.505   c0.13,0.061,0.268,0.13,0.405,0.153c0.191,0.031,0.329-0.069,0.367-0.283C22.434,6.417,22.152,6.355,21.884,6.279z M48.308,32.466   c-0.428,0.183-0.673,0.39-0.658,0.803c0,0.054,0.015,0.122,0.054,0.153c0.015,0.015,0.107,0,0.138-0.031   C48.055,33.162,48.247,32.909,48.308,32.466z M72.575,5.178c0-0.183-0.191-0.405-0.367-0.405c-0.199,0-0.375,0.13-0.367,0.283   c0.015,0.206,0.13,0.39,0.26,0.405C72.292,5.492,72.568,5.323,72.575,5.178z M12.472,7.357c-0.153-0.076-0.275-0.161-0.405-0.199   c-0.199-0.061-0.421,0.138-0.367,0.344c0.023,0.099,0.122,0.199,0.206,0.252c0.054,0.031,0.176,0,0.237-0.054   C12.258,7.609,12.342,7.495,12.472,7.357z M16.715,79.135c-0.145-0.015-0.306,0.161-0.321,0.352   c-0.015,0.184,0.107,0.344,0.291,0.382c0.176,0.031,0.344-0.107,0.359-0.298c0.023-0.229-0.122-0.421-0.329-0.443L16.715,79.135z    M77.966,8.175c0.084,0.092,0.161,0.206,0.268,0.298c0.092,0.084,0.214,0.069,0.313,0c0.107-0.076,0.115-0.191,0.092-0.306   c-0.023-0.122-0.115-0.214-0.229-0.222c-0.168,0-0.344,0.008-0.443,0.237V8.175z M27.114,38.307c0-0.099-0.13-0.229-0.229-0.237   c-0.176-0.015-0.375,0.138-0.382,0.298c-0.008,0.13,0.138,0.275,0.291,0.275C26.984,38.644,27.121,38.498,27.114,38.307z    M4.796,1.653C5.033,1.929,5.239,2.135,5.537,2.25c0.061-0.199,0.038-0.367-0.099-0.505C5.277,1.577,5.079,1.554,4.796,1.653z    M63.485,38.406c0.023-0.183-0.115-0.329-0.321-0.329c-0.13,0-0.222,0.061-0.26,0.183c-0.046,0.168,0.084,0.352,0.268,0.375   C63.324,38.659,63.469,38.552,63.485,38.406z M85.183,1.653c-0.428-0.115-0.642-0.015-0.734,0.298   c-0.008,0.031-0.015,0.076,0,0.084c0.046,0.023,0.122,0.069,0.153,0.054c0.168-0.115,0.329-0.237,0.589-0.436H85.183z    M25.539,39.408c0.008-0.107-0.092-0.222-0.206-0.237c-0.153-0.023-0.291,0.092-0.291,0.245c0,0.115,0.099,0.237,0.206,0.252   c0.145,0.015,0.283-0.107,0.298-0.252L25.539,39.408z M64.945,39.339c-0.008-0.084-0.115-0.183-0.229-0.176   c-0.161,0-0.283,0.153-0.237,0.291c0.046,0.161,0.199,0.26,0.329,0.206c0.122-0.054,0.153-0.161,0.138-0.313V39.339z" data-sg-fill="sg-fill-0" />
	<path fill="#010101" d="M76.1,65.281c-0.375,0.55-0.589,1.132-0.635,1.797c-0.229,0.061-0.451,0.107-0.673,0.183   c-0.191,0.061-0.382,0.145-0.535,0.214c-0.191-0.038-0.222-0.153-0.245-0.268c-0.275-1.155-0.573-2.301-0.818-3.456   c-0.084-0.375-0.076-0.765-0.069-1.147c0.008-0.535,0.061-1.063,0.092-1.598c0.061-1.032,0.099-2.064-0.054-3.242   c0.466,0.65,0.619,1.277,0.872,1.866c0.268,0.627,0.512,1.262,0.742,1.904c0.222,0.612,0.421,1.231,0.635,1.85   c0.214,0.612,0.436,1.231,0.68,1.911L76.1,65.281z" data-sg-fill="sg-fill-0" />
	<path fill="#010101" d="M73.47,55.548c-0.023,0.161,0.069,0.283,0.153,0.405c0.482,0.642,0.956,1.284,1.437,1.919   c0.199,0.26,0.359,0.535,0.466,0.849c0.352,1.009,0.703,2.011,1.078,3.012c0.115,0.298,0.122,0.558-0.046,0.841   c-0.275,0.459-0.39,0.979-0.466,1.491c-0.184,0-0.237-0.107-0.275-0.222c-0.229-0.673-0.451-1.346-0.688-2.018   c-0.222-0.612-0.451-1.223-0.68-1.827c-0.581-1.522-1.17-3.043-1.743-4.565c-0.13-0.352-0.321-0.703-0.268-1.109l-0.015,0.015   c0.069,0.046,0.138,0.092,0.214,0.122c0.046,0.023,0.099,0.031,0.153,0.046l-0.023-0.031c-0.015,0.283,0.115,0.466,0.375,0.566   l-0.023-0.031c-0.008,0.283,0.115,0.466,0.375,0.566l-0.031-0.031L73.47,55.548z" data-sg-fill="sg-fill-0" />
	<path fill="#010101" d="M72.782,54.501c0.038-0.191-0.084-0.336-0.161-0.489c-0.428-0.81-0.849-1.613-1.269-2.431   c-0.107-0.206-0.206-0.428-0.291-0.642c-0.023-0.069-0.023-0.191,0.023-0.229c0.046-0.046,0.161-0.038,0.237-0.023   c0.482,0.076,0.887,0.298,1.262,0.604c1.002,0.81,1.537,1.85,1.521,3.15c0,0.413-0.023,0.826-0.145,1.269   c-0.176-0.054-0.329-0.107-0.489-0.153l0.031,0.031c0.015-0.283-0.122-0.466-0.375-0.566l0.023,0.031   c0.008-0.283-0.122-0.459-0.375-0.566l0.023,0.031L72.782,54.501z" data-sg-fill="sg-fill-0" />
	<path fill="#010101" d="M72.43,54.317l-0.015,0.015L72.43,54.317z" data-sg-fill="sg-fill-0" />
	<path fill="#010101" d="M14.529,67.063c-0.023-0.658-0.26-1.223-0.612-1.781c0.214-0.612,0.436-1.216,0.65-1.835   c0.222-0.642,0.428-1.292,0.665-1.934c0.222-0.612,0.459-1.216,0.719-1.82c0.252-0.589,0.443-1.208,0.772-1.82   c0.061,0.107,0.099,0.153,0.099,0.191c-0.107,0.979-0.046,1.957,0,2.936c0.023,0.413,0.023,0.833,0.061,1.246   c0.069,0.719,0,1.422-0.168,2.118c-0.214,0.864-0.413,1.728-0.619,2.592c-0.038,0.168-0.115,0.336-0.183,0.535   c-0.443-0.138-0.849-0.268-1.353-0.428L14.529,67.063z" data-sg-fill="sg-fill-0" />
	<path fill="#010101" d="M14.101,64.05c-0.099-0.084-0.199-0.122-0.206-0.183c-0.107-0.589-0.336-1.132-0.635-1.674   c0.061-0.191,0.115-0.39,0.183-0.581c0.336-0.948,0.688-1.889,1.017-2.837c0.099-0.283,0.199-0.55,0.39-0.788   c0.94-1.147,1.774-2.37,2.6-3.594c0.015-0.023,0.046-0.031,0.076-0.046c0.031,0.031,0.084,0.069,0.076,0.099   c-0.084,0.313-0.161,0.635-0.275,0.933c-0.566,1.491-1.132,2.982-1.72,4.473c-0.336,0.856-0.665,1.705-0.94,2.584   c-0.168,0.535-0.375,1.055-0.573,1.621L14.101,64.05z" data-sg-fill="sg-fill-0" />
	<path fill="#010101" d="M18.94,50.617c0,0.176,0.023,0.268,0,0.336c-0.711,1.598-1.514,3.15-2.554,4.572   c-0.031,0.046-0.076,0.115-0.122,0.122c-0.076,0.008-0.161-0.015-0.237-0.038c-0.015,0-0.031-0.054-0.031-0.076   c-0.161-0.856-0.183-1.728,0.153-2.538C16.654,51.794,17.495,50.923,18.94,50.617z" data-sg-fill="sg-fill-0" />
	<path fill="#010101" d="M33.857,34.622c-0.497,0.222-0.986,0.313-1.476,0.428c-0.13,0.031-0.229-0.046-0.283-0.161   c-0.038-0.076-0.069-0.161-0.099-0.245c-0.122-0.398-0.245-0.795-0.359-1.185c-0.115-0.367-0.229-0.734-0.336-1.078   c0.054-0.199,0.206-0.245,0.344-0.268c0.466-0.076,0.933-0.145,1.407-0.206c0.252-0.031,0.413,0.069,0.474,0.298   c0.183,0.719,0.329,1.445,0.382,2.179C33.911,34.438,33.888,34.5,33.857,34.622z" data-sg-fill="sg-fill-0" />
	<path fill="#010101" d="M30.432,35.631c-0.466,0.252-0.933,0.413-1.384,0.535c-0.084-0.054-0.161-0.069-0.184-0.115   c-0.421-0.849-0.734-1.736-1.07-2.661c0.176-0.115,0.306-0.237,0.459-0.298c1.392-0.558,1.262-0.619,1.759,0.803   c0.122,0.367,0.229,0.734,0.329,1.109c0.054,0.199,0.054,0.398,0.084,0.627H30.432z" data-sg-fill="sg-fill-0" />
	<path fill="#010101" d="M24.568,35.218c0.428-0.466,0.956-0.726,1.414-1.032c0.321,0.107,0.375,0.367,0.459,0.573   c0.283,0.703,0.749,1.338,0.91,2.087c-0.076,0.069-0.115,0.122-0.161,0.145c-1.208,0.573-1.002,0.765-1.789-0.405   c-0.214-0.321-0.436-0.642-0.642-0.963C24.682,35.501,24.636,35.363,24.568,35.218z" data-sg-fill="sg-fill-0" />
	<path fill="#010101" d="M35.448,31.908c0.153-0.031,0.268-0.069,0.382-0.076c0.298-0.008,0.589,0,0.887,0   c0.757,0,0.742,0.084,0.902,0.703c0.107,0.398,0.13,0.81,0.168,1.223c0.015,0.191-0.122,0.344-0.313,0.359   c-0.413,0.031-0.826,0.061-1.239,0.076c-0.084,0-0.168-0.031-0.291-0.046c-0.031-0.107-0.069-0.214-0.092-0.321   C35.715,33.2,35.585,32.565,35.448,31.908z" data-sg-fill="sg-fill-0" />
	<path fill="#010101" d="M56.473,31.885c0.78,0.046,1.476,0.122,2.187,0.329c0.008,0.13,0.046,0.245,0.031,0.352   c-0.176,0.81-0.306,1.621-0.352,2.447c0,0.054-0.046,0.107-0.084,0.183c-0.719-0.092-1.407-0.359-2.148-0.543   c-0.038-0.161-0.099-0.329-0.107-0.497c-0.031-0.658,0.076-1.292,0.298-1.911c0.038-0.107,0.107-0.206,0.191-0.359H56.473z" data-sg-fill="sg-fill-0" />
	<path fill="#010101" d="M60.403,32.665c0.642,0.099,1.208,0.336,1.766,0.658c-0.153,0.505-0.321,0.979-0.436,1.46   c-0.122,0.482-0.199,0.979-0.306,1.506c-0.13-0.015-0.245-0.015-0.352-0.046c-0.306-0.107-0.612-0.229-0.91-0.344   c-0.183-0.069-0.275-0.214-0.298-0.405c-0.008-0.092-0.031-0.176-0.031-0.268c0.031-0.772,0.122-1.537,0.375-2.263   c0.038-0.107,0.122-0.191,0.191-0.291L60.403,32.665z" data-sg-fill="sg-fill-0" />
	<path fill="#010101" d="M62.827,36.946c0.153-1.002,0.512-1.889,1.055-2.699c0.558,0.145,0.917,0.375,1.575,1.002   c-0.038,0.298-0.291,0.489-0.436,0.734c-0.145,0.26-0.306,0.512-0.443,0.772c-0.138,0.26-0.252,0.528-0.375,0.772   c-0.092,0.023-0.153,0.054-0.199,0.038c-0.413-0.161-0.81-0.344-1.193-0.619H62.827z" data-sg-fill="sg-fill-0" />
	<path fill="#010101" d="M54.287,34.201c-0.726,0-1.422,0-2.141-0.168c0-0.772,0.099-1.476,0.505-2.133   c0.658-0.092,1.292-0.115,1.919-0.008c0.023,0.092,0.054,0.145,0.046,0.199c-0.099,0.696-0.214,1.384-0.321,2.11L54.287,34.201z" data-sg-fill="sg-fill-0" />
	<path fill="#010101" d="M72.147,16.073c1.07-0.451,2.087-0.398,3.081-0.008c1.063,0.421,1.85,1.17,2.34,2.21   c0.986,2.11,0.099,4.649-1.98,5.704c-0.68,0.344-1.399,0.482-2.156,0.451c-0.726-0.023-1.407-0.222-2.026-0.596   c-0.321-0.191-0.665-0.382-0.833-0.772c1.216,0.069,1.544,0.038,2.118-0.191c0.451-0.176,0.841-0.428,1.193-0.765   c0.344-0.336,0.604-0.734,0.78-1.177c0.13-0.329,0.245-0.673,0.237-1.032c0-0.329,0.008-0.658-0.061-0.971   c-0.076-0.344-0.206-0.68-0.375-0.994c-0.153-0.283-0.359-0.55-0.589-0.772c-0.252-0.245-0.566-0.428-0.849-0.642   c-0.252-0.191-0.627-0.145-0.887-0.436L72.147,16.073z" data-sg-fill="sg-fill-0" />
	<path fill="#010101" d="M20.997,20.431c-0.031,2.21-1.82,4.312-4.442,4.259c-2.5-0.046-4.327-2.003-4.305-4.412   c0.023-2.424,1.957-4.435,4.542-4.35c2.347,0.084,4.289,2.049,4.205,4.496L20.997,20.431z" data-sg-fill="sg-fill-0" />
</g>
</g></svg>