<svg id="a" xmlns="http://www.w3.org/2000/svg" width="100" height="135.215" viewBox="0 0 100 135.215" xmlns:svgjs="http://svgjs.com/svgjs"><path d="M24.837,85.393c-.026.55.226,1.002.676,1.176.513.2,1.126-.013,1.565-.526l2.843-3.193,3.156,3.38c.3.287.663.439,1.026.439v.037c.137,0,.276-.026.413-.076.439-.163.739-.563.789-1.065l1.076-8.713,4.106-.063c.389,0,.739-.213.913-.563.176-.339.137-.752-.1-1.076l-4.293-5.583,2.165-6.798c.087-.413-.063-.852-.4-1.115-.339-.276-.789-.326-1.165-.15l-6.146,2.58-4.232-4.557c-.237-.263-.626-.363-.965-.237s-.589.439-.589.713l-1.339,5.383-7.248.05c-.389.026-.713.263-.839.626s-.026.752.226.976l5.033,5.596-3.756,3.456c-.326.363-.4.876-.163,1.315.226.439.689.676,1.152.602l6.272-.613-.176,8h0ZM29.219,68.828c1.728,0,3.13,1.402,3.13,3.13s-1.402,3.13-3.13,3.13-3.13-1.402-3.13-3.13,1.402-3.13,3.13-3.13Z" fill="#010101" data-sg-fill="sg-fill-0"></path><path d="M98.322,0h-59.226C17.539,0,0,17.852,0,39.796v93.741c0,.926.752,1.678,1.678,1.678h96.644c.926,0,1.678-.752,1.678-1.678V1.678c0-.926-.752-1.678-1.678-1.678ZM17.509,131.861c2.919-16.354,18.485-25.628,31.052-33.113,9.302-5.546,16.663-9.928,16.4-15.898-.276-6.198-6.176-9.513-16.615-9.339l-2.091-3.887c13.167-.717,22.613,2.302,25.813,8.531,1.741,3.406,1.176,7.361-1.439,10.102-2.817,2.954-6.435,6.183-10.254,9.602-11.228,10.056-23.894,21.406-26.972,34.002,0,0-15.894,0-15.894,0ZM21.548,81.198c-.476-.526-1.152-.852-1.865-.852h-.18l-10.578.837,5.846-6.309c.063-.063.126-.137.176-.226.463-.726.513-1.628.163-2.417-.026-.063-.1-.187-.1-.187l-4.081-6.346-2.404-3.743,11.443-.126c1.065.05,2.104-.589,2.517-1.615.026-.087.05-.176.076-.276l1.715-9.039,6.722,6.922c.702.902,1.928,1.226,2.993.802l11.517-4.681-3.206,13.983c-.076.363-.026.739.15,1.065l6.196,11.517-7.711-.55c-.689-.037-1.352.187-1.865.652-.513.463-.813,1.089-.839,1.691l-1.452,13.394-4.569-6.585c-.05-.087-.126-.163-.2-.237-.526-.5-1.226-.752-1.965-.702-.726.05-1.389.413-1.841,1.002l-6.446,8.513.439-14.546c.063-.713-.176-1.415-.652-1.941h.001ZM36.561,131.859c3.167-11.411,15.182-22.172,25.857-31.735,3.856-3.469,7.511-6.735,10.415-9.765,3.53-3.693,4.307-9.039,1.954-13.607-1.889-3.7-8.398-11.487-29.043-10.191l.993-4.317c4.572-.217,11.281-.265,18.181.624,9.522,2.011,15.328,7.796,17.68,13.044,2.217,4.92,1.778,9.965-1.176,13.82-5.044,6.585-9.252,11.167-12.631,14.859-7.343,8.009-11.846,12.967-15.148,27.267h-17.082ZM56.767,131.861c3.096-12.994,7.157-17.45,14.263-25.2,3.419-3.732,7.674-8.387,12.807-15.072,3.669-4.781,4.219-10.941,1.539-16.926-1.411-3.137-3.552-5.906-6.235-8.213,2.98,1.259,5.683,2.857,7.887,4.896,2.517,2.326,4.537,4.2,6.067,7.033.028.119.065.237.12.352,3.38,7.035,1.065,12.707-1.328,16.876-3.356,5.82-6.159,10.102-8.426,13.544-5.354,8.146-8.124,12.391-8.996,22.709h-17.698ZM96.643,131.861h-18.791v-.002c.824-9.263,3.289-13.043,8.426-20.856,2.291-3.48,5.133-7.8,8.526-13.707.424-.735,1.026-1.787,1.611-3.098.152,2.707.228,5.809.228,9.393v28.27ZM96.644,77.952c-1.726-3.704-4.148-6.135-7.335-9.087-10.709-9.906-31.02-10.522-41.781-10.063l1.62-7.052c.126-.55-.063-1.126-.5-1.502-.439-.363-1.039-.463-1.565-.25l-13.92,5.659-7.174-7.385c-.539-.702-1.428-1.076-2.304-.976-.952.1-1.752.713-2.104,1.602-.026.087-.063.176-.076.276l-1.815,9.602-11.919.137c-.876-.05-1.741.363-2.254,1.115-.513.739-.589,1.678-.213,2.504.026.063.1.187.1.187l6.748,10.504-6.446,6.961c-.063.076-.126.15-.176.226-.489.789-.513,1.778-.076,2.591.439.813,1.289,1.328,2.217,1.339h.15l11.317-.902-.476,15.524c-.1,1.152.55,2.204,1.628,2.617.311.111.622.174.931.174.774-.002,1.522-.365,2.022-1.013l6.961-9.176,4.931,7.111c.05.087.126.163.2.237.739.702,1.791.902,2.73.526s1.565-1.239,1.602-2.167l1.539-14.246,9.978.713c.576.037,1.089-.226,1.389-.689.3-.463.326-1.065.063-1.552l-2.487-4.628c5.452.12,11.237,1.402,11.439,6.117.163,3.981-6.759,8.1-14.772,12.868-12.611,7.504-29.807,17.754-32.743,36.006H3.356V39.796C3.356,19.704,19.393,3.354,39.096,3.354h57.548v74.598Z" fill="#010101" data-sg-fill="sg-fill-0"></path><path d="M77.756,45.889l.276.137c.013.013.037.013.05.013.5.226,1.015.4,1.502.576l.063.026h.063v-.037h3.419l-2.428,2.428c-.013.013-.037.05-.037.05l-.026.05c-.276.563-.55,1.165-.776,1.815v.139c.013.026.037.05.063.076.013.026.026.026.037.026.013.013.063.013.063.013l-.013-.013h.063l.287-.1c.026-.013.037-.026.05-.026.526-.2,1.015-.439,1.489-.663l.05-.026c.013-.013.05-.037.05-.037l2.417-2.417v3.481l.063.163c.2.563.413,1.152.689,1.728.026.063.087.1.163.1v-.026c.063,0,.126-.037.163-.1.263-.576.476-1.152.676-1.702l.063-.187c.013-.026.013-.063.013-.063v-3.359l2.404,2.407c.013.013.076.05.087.05.576.276,1.176.563,1.828.789h.063l.037.013h.063c.026-.013.076-.063.076-.063.013-.013.026-.026.026-.037v-.126l-.1-.287c-.013-.026-.026-.037-.026-.05-.2-.513-.426-1.002-.652-1.465l-.037-.076c-.013-.013-.037-.05-.037-.05l-2.454-2.454h3.493l.126-.037c.576-.2,1.176-.426,1.765-.702.063-.026.1-.1.1-.163s-.043-.148-.106-.172c-.576-.276-1.152-.489-1.715-.689l-.176-.063c-.026-.013-.063-.013-.063-.013h-3.393l2.391-2.391c.013-.013.037-.05.037-.05l.05-.113c.263-.563.526-1.139.752-1.752.013-.063,0-.15-.05-.187s-.126-.063-.187-.037c-.613.213-1.189.489-1.741.752l-.113.05c-.013.013-.05.037-.05.037l-2.404,2.404v-3.419c0-.013-.026-.063-.026-.087-.213-.613-.426-1.239-.739-1.865-.013-.026-.076-.076-.076-.076h-.122c-.037.013-.1.087-.1.087l-.137.276c-.013.013-.013.037-.013.05-.237.513-.413,1.026-.589,1.515l-.026.063v3.469l-2.391-2.391c-.013-.013-.05-.037-.05-.037l-.087-.037c-.563-.263-1.152-.539-1.778-.763-.063-.026-.137-.013-.187.037s-.076.126-.05.187c.213.613.476,1.176.739,1.728l.063.137c.013.013.037.05.037.05l2.363,2.367h-3.363c-.026,0-.087.026-.1.026-.6.213-1.239.439-1.852.739-.026.013-.063.037-.076.076v.026c-.013.026-.013.05-.013.076v.076c.013.05.087.1.087.1h0Z" fill="#010101" data-sg-fill="sg-fill-0"></path><path d="M85.991,17.163c1.202,0,2.178-.976,2.178-2.178s-.976-2.178-2.178-2.178-2.178.976-2.178,2.178.976,2.178,2.178,2.178ZM85.991,14.272c.389,0,.713.326.713.713s-.326.713-.713.713-.713-.326-.713-.713.313-.713.713-.713Z" fill="#010101" data-sg-fill="sg-fill-0"></path><path d="M62.193,29.894c1.202,0,2.178-.976,2.178-2.178s-.976-2.178-2.178-2.178-2.178.976-2.178,2.178.976,2.178,2.178,2.178ZM62.193,27.004c.389,0,.713.326.713.713s-.324.713-.713.713-.713-.326-.713-.713.313-.713.713-.713Z" fill="#010101" data-sg-fill="sg-fill-0"></path><path d="M47.096,16.413c.839,0,1.528-.689,1.528-1.528-.002-.839-.689-1.528-1.528-1.528s-1.528.689-1.528,1.528.689,1.528,1.528,1.528Z" fill="#010101" data-sg-fill="sg-fill-0"></path><path d="M50.213,14.948c.839,0,1.528-.689,1.528-1.528s-.689-1.528-1.528-1.528-1.528.689-1.528,1.528.676,1.528,1.528,1.528Z" fill="#010101" data-sg-fill="sg-fill-0"></path><path d="M47.383,12.996c.839,0,1.528-.689,1.528-1.528s-.689-1.528-1.528-1.528-1.528.689-1.528,1.528.676,1.528,1.528,1.528Z" fill="#010101" data-sg-fill="sg-fill-0"></path><path d="M17.576,20.343c-.839,0-1.528.689-1.528,1.528s.676,1.528,1.528,1.528c.839,0,1.528-.689,1.528-1.528s-.689-1.528-1.528-1.528Z" fill="#010101" data-sg-fill="sg-fill-0"></path><path d="M17.576,28.054c-.839,0-1.528.689-1.528,1.528s.676,1.528,1.528,1.528c.839,0,1.528-.689,1.528-1.528s-.689-1.528-1.528-1.528Z" fill="#010101" data-sg-fill="sg-fill-0"></path><path d="M13.444,25.287c.213.113.463.176.702.176.15,0,.313-.026.463-.076.389-.126.713-.389.902-.752.187-.363.226-.776.1-1.165-.126-.389-.389-.713-.752-.902-.752-.389-1.678-.1-2.065.652-.187.363-.226.776-.1,1.165.124.389.387.715.75.902Z" fill="#010101" data-sg-fill="sg-fill-0"></path><path d="M21.707,26.152c-.363-.187-.776-.226-1.165-.1-.4.126-.713.389-.902.752-.389.752-.1,1.678.652,2.065.226.126.463.176.702.176.55,0,1.089-.3,1.365-.826.187-.363.226-.776.1-1.165s-.389-.715-.752-.902Z" fill="#010101" data-sg-fill="sg-fill-0"></path><path d="M13.444,26.215c-.363.2-.626.526-.739.915s-.076.802.126,1.165c.287.513.813.802,1.352.802.237,0,.489-.063.726-.187.739-.4,1.015-1.339.613-2.078-.4-.743-1.339-1.018-2.078-.617Z" fill="#010101" data-sg-fill="sg-fill-0"></path><path d="M20.969,25.413c.237,0,.489-.063.726-.187.739-.4,1.015-1.339.613-2.078-.4-.739-1.339-1.015-2.078-.613-.739.4-1.015,1.339-.613,2.078.289.513.815.8,1.352.8Z" fill="#010101" data-sg-fill="sg-fill-0"></path><path d="M9.47,113.781c.411-.002.796-.163,1.083-.45.602-.602.602-1.565,0-2.167-.6-.602-1.565-.602-2.167,0-.287.287-.45.676-.45,1.089,0,.4.163.789.45,1.076.287.289.672.45,1.083.452h0Z" fill="#010101" data-sg-fill="sg-fill-0"></path><path d="M12.569,116.887v.013c.389,0,.776-.15,1.076-.45.289-.287.45-.676.45-1.089s-.163-.802-.45-1.089c-.6-.602-1.565-.602-2.165,0-.602.6-.602,1.565,0,2.167.3.298.702.448,1.089.448Z" fill="#010101" data-sg-fill="sg-fill-0"></path><path d="M9.476,116.887l-.013-.013c.4,0,.789-.15,1.089-.45.602-.6.602-1.565,0-2.167-.6-.6-1.565-.6-2.167,0-.287.3-.45.676-.45,1.089s.163.802.45,1.089c.304.302.704.452,1.091.452Z" fill="#010101" data-sg-fill="sg-fill-0"></path><path d="M12.569,113.783c.4,0,.789-.163,1.076-.45.289-.287.45-.663.45-1.076s-.163-.802-.45-1.089c-.6-.602-1.565-.602-2.165,0-.602.6-.602,1.578,0,2.167.289.285.676.448,1.089.448Z" fill="#010101" data-sg-fill="sg-fill-0"></path><path d="M69.917,24.85c.839,0,1.528-.689,1.528-1.528s-.689-1.528-1.528-1.528-1.528.689-1.528,1.528.676,1.528,1.528,1.528Z" fill="#010101" data-sg-fill="sg-fill-0"></path><path d="M69.917,47.235c.839,0,1.528-.689,1.528-1.528s-.689-1.528-1.528-1.528-1.528.689-1.528,1.528.676,1.528,1.528,1.528Z" fill="#010101" data-sg-fill="sg-fill-0"></path><path d="M88.17,57.937c.844,0,1.528.684,1.528,1.528s-.684,1.528-1.528,1.528-1.528-.684-1.528-1.528.684-1.528,1.528-1.528Z" fill="#010101" data-sg-fill="sg-fill-0"></path><path d="M39.763,35.891c-.717.002-1.093.009-1.278.037v-.026c-.952-.113-1.652.126-2.367.789-.037.037-.063.087-.063.137s.026.1.063.137c.589.55,1.202.813,1.928.813v-.026c.137,0,.276-.013.413-.026h1.302v2.417c0,.037.026.1.026.1l.05.087c.2.339.413.689.702,1.039.026.037.137.063.137.063h.026c.05,0,.1-.026.137-.063.276-.35.489-.702.702-1.039l.05-.087c.026-.037.026-.1.026-.1v-2.415h2.378c.037,0,.1-.026.1-.026l.087-.05c.339-.2.689-.413,1.039-.702.037-.026.063-.087.063-.137s-.026-.1-.063-.137c-.354-.283-.704-.496-1.041-.696l-.087-.063c-.037-.026-.1-.026-.1-.026h-2.378v-1.252c.113-.952-.126-1.652-.789-2.367-.037-.037-.137-.063-.137-.063-.05,0-.1.026-.137.063-.652.702-.902,1.428-.789,2.341v1.278Z" fill="#010101" data-sg-fill="sg-fill-0"></path><path d="M12.319,44.63c-1.541,0-2.793,1.265-2.793,2.804s1.252,2.791,2.793,2.791c1.552,0,2.804-1.239,2.804-2.791s-1.265-2.804-2.804-2.804ZM12.319,48.761c-.726,0-1.328-.589-1.328-1.328s.589-1.339,1.328-1.339,1.339.613,1.339,1.339-.613,1.328-1.339,1.328Z" fill="#010101" data-sg-fill="sg-fill-0"></path></svg>