<svg xmlns="http://www.w3.org/2000/svg" version="1.1" id="Layer_1" x="0px" y="0px" viewBox="0.0 0.0 100.0 240.3792650626544" xml:space="preserve">
<g transform="scale(2.2257339357653185)"><path fill="#010101" d="M44.875,26.537c-0.043-0.074-1.123-1.962-1.927-3.058c-0.829-1.129-2.393-2.712-4.052-3.437  c-1.391-0.61-2.687-1.154-3.603-1.525c-0.017-0.017-0.026-0.017-0.035-0.017c-0.528-0.215-0.908-0.37-1.105-0.45  c-0.813-1.032-1.801-2.03-2.999-2.913c-2.67-1.97-6.687-3.602-9.616-4.797c-0.792-0.319-1.528-0.618-2.155-0.891  c1.021,0.131,1.782,0.19,1.853,0.19c0.173,0.008,0.346-0.082,0.423-0.231c0.078-0.148,0.052-0.33-0.069-0.453  c-0.086-0.099-1.521-1.632-3.283-2.876c2.108-0.058,4.329-0.132,4.484-0.132c0.199-0.008,0.363-0.14,0.406-0.33  c0.043-0.181-0.06-0.371-0.242-0.453c0,0-1.693-0.758-3.94-1.788C18.48,3.13,17.737,3.015,16.891,2.94  c0.838-0.94,2.03-2.242,2.048-2.258c0.138-0.148,0.147-0.371,0.017-0.528c-0.121-0.157-0.354-0.198-0.536-0.107  c-0.017,0.008-1.572,0.783-4.225,1.607c-2.506,0.783-4.268,1.648-4.7,3.272C9.477,4.968,9.46,5.009,9.46,5.042  C9.253,5.108,9.123,5.157,9.097,5.166c-0.13,0.033-2.981,0.981-3.352,4.253c-0.251,2.209,0.613,3.684,1.149,4.368  c0.164,0.223,0.199,0.495,0.078,0.742C6.09,16.35,6.142,16.713,6.16,16.869c0.043,0.354,0.389,0.725,1.002,1.343l0.095,0.099  c0.242,0.239,0.881,0.89,0.899,1.104c0,0.148-0.009,0.28-0.009,0.396c-0.017,0.453-0.043,0.882,0.363,1.269  c0.553,0.528,1.365,0.56,2.557,0.091c0.251-0.099,0.475-0.198,0.691-0.288c0.752-0.33,1.201-0.528,1.875-0.354  c0.51,0.132,1.123,0.429,1.339,0.882c0.13,0.272,0.095,0.569-0.086,0.923c-0.605,1.154-3.637,2.357-5.46,2.423  c-0.562,0.025-1.192,0.008-1.84-0.008c-1.624-0.033-3.309-0.074-4.605,0.371c-1.002,0.338-2.203,0.857-2.652,1.846  c-0.268,0.585-0.233,1.261,0.138,2.077c0.035,0.041,2.739,4.047,3.309,5.431c0.086,0.206,0.19,0.462,0.302,0.75  c0.536,1.343,1.261,3.173,1.953,4.08c0.916,1.187,1.754,2.53,1.115,4.772c-0.276,0.964-1.884,4.137-3.292,6.94  c-1.089,2.159-2.117,4.203-2.445,5.036c-0.674,1.731-2.67,7.855-0.225,14.201l0.821,2.11c0.518,1.352,1.08,2.778,1.624,4.22  c-0.017,0-0.026,0-0.043,0c-0.078,0.017-0.147,0.049-0.207,0.091c-0.104,0.082-1.063,0.824-1.598,2.06  C1.243,79.986,0.414,84.7,0.5,85.335C0.595,86.068,0.777,86.843,1.373,87c0.588,0.157,1.063-0.429,1.218-0.618  c1.106-1.36,1.806-6.074,1.788-7.146c0.207,0.371,0.441,0.775,0.691,1.212c1.184,3.231,2.151,6.165,2.462,7.929  c0.302,1.69,1.106,5.357,1.909,8.778c-0.017,0.016-0.026,0.033-0.035,0.049c-0.467,0.865-2.808,5.25-2.411,6.536  c0.19,0.643,0.648,1.03,1.21,1.047h0.026c0.708,0,1.382-0.593,1.719-1.516c0.216-0.585,0.251-1.582,0.294-2.637  c0-0.033,0-0.058,0-0.091c0.475,1.945,0.873,3.462,1.045,3.931c0.518,1.409,1.547,2.736,2.255,3.272  c0.173,0.124,0.423,0.223,0.7,0.223L14.238,108c0.156,0,0.311-0.033,0.467-0.099c0.242-0.115,0.648-0.42,0.648-1.22  c0-0.618-0.207-3.585-1.115-5.151c0.501,0.313,0.924,0.503,1.166,0.56c0.665,0.157,1.305,0.017,1.668-0.371  c0.199-0.214,0.484-0.692,0.164-1.508c-0.596-1.517-4.234-2.827-5.936-3.198c-0.441-0.989-0.674-2.143-0.518-3.462  c0.199-1.714,0.432-3.033,0.7-3.964c0.769,0.783,1.521,1.385,2.212,1.714c0.752,0.346,2.894,1.17,2.981,1.203  c0.181,0.066,0.397,0.008,0.51-0.14c0.112-0.148,0.104-0.354-0.017-0.503c-0.009-0.008-0.657-0.783-1.054-1.541  c-0.397-0.758-2.255-3.247-3.482-3.247c-0.588,0-1.054,0.28-1.443,0.94c-1.935-2.275-3.94-5.506-5.34-7.912  c-0.959-2.637-2.056-5.456-3.041-8.003l-0.812-2.11c-2.35-6.074-0.432-11.967,0.216-13.624c0.311-0.799,1.331-2.827,2.411-4.97  c1.495-2.967,3.05-6.041,3.344-7.08c0.812-2.81-0.527-4.55-1.244-5.481c-0.622-0.808-1.356-2.662-1.84-3.882  c-0.112-0.297-0.216-0.56-0.302-0.766c-0.605-1.459-3.275-5.407-3.352-5.514c-0.242-0.536-0.276-0.981-0.104-1.36  c0.242-0.536,0.924-0.981,2.151-1.401c1.149-0.396,2.748-0.354,4.294-0.321c0.665,0.008,1.305,0.025,1.892,0.008  c1.927-0.066,5.374-1.302,6.204-2.876c0.38-0.725,0.268-1.286,0.104-1.632c-0.415-0.874-1.469-1.228-1.901-1.335  c-0.968-0.239-1.659,0.058-2.454,0.404c-0.207,0.091-0.423,0.181-0.665,0.28c-1.21,0.478-1.503,0.198-1.616,0.091  c-0.121-0.115-0.121-0.223-0.104-0.651c0.009-0.124,0.009-0.272,0.009-0.429c0-0.486-0.484-1.022-1.123-1.673l-0.095-0.099  c-0.294-0.297-0.734-0.742-0.778-0.882c0-0.017-0.009-0.346,0.743-1.896c0.259-0.519,0.19-1.129-0.173-1.582  c-0.458-0.585-1.192-1.854-0.976-3.783c0.259-2.291,1.953-3.223,2.566-3.486C9.089,7.317,9.814,8.726,9.823,8.743  c0.052,0.107,0.104,0.255,0.156,0.42c0.13,0.412,0.302,0.923,0.7,1.385c1.477,1.706,5.201,3.528,8.122,4.451  c0.216,0.074,0.432,0.14,0.657,0.206c0.467,1.319,0.778,2.415,0.752,2.992c-0.043,1.203-0.242,2.332-0.553,3.272  c-0.086,0-0.173,0-0.259,0c-0.043-0.017-0.095-0.017-0.138-0.017c-0.13,0-0.311,0.049-0.484,0.148  c-0.121,0.049-0.225,0.107-0.32,0.181c-0.052,0.041-0.095,0.091-0.13,0.157c-1.14,1.055-2.48,3.437-2.566,3.643  c-0.259,0.61-0.13,0.981,0.026,1.179c0.147,0.19,0.458,0.412,1.089,0.346c0.579-0.049,1.071-0.701,1.702-1.797  c0.233,0.931,0.484,1.698,0.518,1.78c0.173,0.371,0.536,0.775,1.028,0.808c0.199,0.025,0.579-0.025,0.873-0.47  c0.311-0.47,0.216-1.335,0.052-2.506c-0.043-0.28-0.078-0.536-0.095-0.742c-0.035-0.412-0.173-1.038-0.423-1.591  c0.259,0.173,0.544,0.429,0.804,0.824l0.311,0.486c0.665,1.038,1.106,1.723,1.97,1.945c0.734,0.198,4.476,1.426,6.515,2.192  c-0.086,0.989-0.51,1.797-0.899,2.547c-0.164,0.321-0.32,0.626-0.441,0.915c-0.32,0.766-0.613,1.838-0.924,2.967  c-0.033,0.12-0.069,0.247-0.102,0.37c-0.832-0.895-2.22-1.749-3.725-0.914c-1.287,0.717-1.788,3.198-1.832,5.291  c-0.043,2.019,0.216,3.659,0.873,5.489c0.06,0.173,0.138,0.371,0.225,0.602c-0.095-0.115-0.199-0.198-0.311-0.231  c-0.009-0.008-0.026-0.008-0.043-0.008c-0.968-0.231-1.728,0.569-2.532,1.418c-0.389,0.412-0.994,1.129-1.633,1.879  c-0.76,0.89-1.538,1.805-2.013,2.283c-0.233,0.231-0.588,0.577-0.994,0.964c-2.782,2.662-2.868,2.843-2.817,3.157  c0.026,0.148,0.121,0.28,0.268,0.363c0.423,0.247,1.4,0.033,2.134-0.19c1.123-0.338,3.629-2.662,4.683-4.146  c0.821-1.154,2.169-3.404,2.817-4.5c0.009,0.058,0.026,0.115,0.043,0.181c-0.57,1.269-1.858,4.154-2.324,5.456  c-0.622,1.747-0.743,4.014-0.7,4.772c0.026,0.47,0.112,1.03,0.588,1.245c0.501,0.231,1.071-0.099,1.46-0.371  c1.201-0.841,2.03-2.761,2.212-5.143c0-0.033,0.069-1.896-0.06-3.734c0.268,1.088,0.242,3.256,0.216,5.011  c-0.009,0.923-0.026,1.805,0.009,2.423c0.104,1.887,1.14,3.89,1.184,3.973c0.078,0.14,0.225,0.231,0.389,0.231v-0.008  c0.009,0,0.026,0,0.043,0c0.181-0.025,0.328-0.148,0.372-0.313c0.009-0.016,0.372-1.418,0.639-2.679  c0.259-1.228,0.112-2.637,0-3.775c-0.017-0.231-0.043-0.453-0.06-0.659c-0.078-0.898-1.037-3.429-2.186-6.404  c-0.328-0.841-0.613-1.582-0.786-2.06c-0.622-1.739-0.873-3.297-0.829-5.209c0.052-2.275,0.622-4.162,1.4-4.591  c1.443-0.809,2.696,0.763,3.01,1.202c-0.24,0.833-0.502,1.679-0.806,2.449c-0.933,2.357-0.89,5.275-0.89,5.398  c0,0.19,0.147,0.354,0.346,0.396c0.207,0.041,0.406-0.066,0.484-0.239c0.017-0.025,1.054-2.275,2.411-3.8  c0.209-0.236,0.417-0.531,0.622-0.859c-0.268,1.916-0.595,4.25-0.682,4.882c-0.164,1.179-0.804,7.179-0.855,8.572l-0.017,0.47  c-0.06,1.574-0.173,4.212,0.026,5.349c0.052,0.288,0.095,0.593,0.13,0.898c0.086,0.684,0.164,1.36,0.389,1.846  c-0.017,0.008-0.026,0.017-0.035,0.025c-0.06-0.017-0.121-0.025-0.181-0.025h-0.035c-1.987,0-7.569,3.42-8.364,4.088  c-0.484,0.404-1.737,1.846-1.287,2.695c0.233,0.437,0.786,0.569,1.65,0.379c1.797-0.396,5.098-2.036,7.284-3.725  c0,0.635,0,1.269,0,1.896v1.343c-0.009,1.731,0,3.577,0.199,5.398c0.017,0.148,0.026,0.305,0.043,0.478  c0.086,1.063,0.199,2.506,1.227,3.157c0.112,0.074,0.242,0.099,0.38,0.099l-0.017,0.008c0.311,0,0.639-0.14,0.847-0.247  c0.76-0.387,1.564-1.195,1.564-2.308c0-0.091-0.423-5.86-1.443-9.758c0.173,0.132,0.372,0.255,0.588,0.379  c0.778,0.445,1.581,0.923,2.376,1.393c2.894,1.714,5.625,3.33,7.206,3.544c0.38,0.058,1.089,0.148,1.382-0.313  c0.294-0.47-0.086-1.096-0.536-1.706c-1.408-1.896-4.726-4.146-6.48-4.97c-0.544-0.255-1.624-0.626-2.661-0.973  c1.642,0.074,3.473,0.132,4.095,0.074c2.488-0.247,4.89-1.212,5.34-2.159c0.251-0.536,0.19-1.286-0.173-1.863  c-0.294-0.478-0.734-0.758-1.236-0.791c-1.011-0.074-5.659,0.651-8.044,1.756c-1.192,0.544-2.212,1.071-2.989,1.591  c-0.112-0.387-0.19-0.948-0.242-1.401c-0.035-0.321-0.078-0.635-0.13-0.94c-0.19-1.055-0.078-3.742-0.017-5.184l0.017-0.47  c0.052-1.335,0.683-7.352,0.847-8.489c0.149-1.019,0.91-6.458,1.048-7.44c0.597-1.447,1.072-2.966,1.293-3.942  c0.078,1.442,0.156,2.728,0.259,3.437c0.237,1.648,1.534,3.713,2.375,4.966c-0.218,0.832-0.407,1.64-0.517,2.287  c-1.158,0.247-3.197,3.478-3.335,5.003c-0.13,1.426-0.665,3.396-0.665,3.412c-0.043,0.157,0.017,0.321,0.147,0.42  c0.138,0.099,0.32,0.115,0.467,0.049c0.121-0.058,2.583-1.277,3.534-5.712c0.337,1.756,0.942,3.701,1.279,4.467  c0.51,1.154,0.691,2.332,0.691,2.341c0.035,0.19,0.19,0.338,0.389,0.354c0.017,0,0.043,0,0.043,0l-0.009-0.008  c0.181,0,0.346-0.115,0.406-0.28c0.043-0.107,0.959-2.646,0.441-4.797c-0.639-2.67-1.572-4.5-2.549-5.085  c0.07-0.427,0.182-0.948,0.317-1.506c0.386,0.532,3.315,3.537,4.107,3.344c0.181-0.041,0.363-0.247,0.38-0.429  c0.026-0.297-0.199-0.734-1.097-2.341c-0.785-1.407-1.813-3.249-2.25-4.581c0.13-0.4,0.246-0.734,0.332-0.957  c0.078-0.198,1.875-4.871,1.097-7.302c-0.181-0.569-0.51-0.915-0.873-1.096c0.06-0.816,0.104-1.813,0.13-3.008  c0.022-1.191-0.386-3.061-1.386-5.05c1.04,1.317,2.667,2.956,5.257,4.794c2.056,1.459,3.283,1.607,3.335,1.607  c0.017,0,0.052,0,0.052,0l-0.009,0.016c0.147,0,0.285-0.066,0.363-0.181C44.945,26.834,44.953,26.669,44.875,26.537z M1.909,85.879  c-0.173,0.214-0.285,0.288-0.302,0.321c-0.052-0.074-0.164-0.288-0.251-0.964c-0.052-0.486,0.726-5.019,1.227-6.19  c0.207-0.494,0.51-0.89,0.769-1.187v0.008c0.06,0.429,0.13,0.94,0.164,1.343C3.585,80.06,2.833,84.75,1.909,85.879z M12.64,87.873  c0.553,0,2.22,1.871,2.704,2.794c0.095,0.173,0.199,0.354,0.302,0.519c-0.596-0.231-1.236-0.494-1.564-0.651  c-0.7-0.33-1.477-0.989-2.281-1.854C12.052,88.137,12.337,87.873,12.64,87.873z M9.14,102.997c-0.233,0.643-0.631,0.964-0.907,0.964  c-0.242-0.008-0.363-0.321-0.406-0.453c-0.172-0.567,0.719-2.704,1.649-4.57c-0.042,0.474-0.068,1.026-0.094,1.661  C9.348,101.547,9.313,102.527,9.14,102.997z M16.433,100.467c0.069,0.173,0.164,0.494,0,0.668c-0.138,0.148-0.467,0.198-0.812,0.115  c-0.345-0.082-2.443-1.199-3.774-3.275C13.573,98.472,16.071,99.555,16.433,100.467z M13.158,101.472  c0.942,0.832,1.339,4.039,1.339,5.176c0,0.255-0.06,0.429-0.156,0.478c-0.086,0.041-0.216,0.008-0.251-0.025  c-0.51-0.387-1.495-1.582-1.979-2.901c-0.19-0.535-0.716-2.599-1.319-5.107C11.588,99.942,12.571,100.946,13.158,101.472z   M10.756,97.805c-0.035-0.033-0.086-0.091-0.086-0.091h0.009c0.009,0,0.017,0,0.026,0C10.722,97.739,10.739,97.772,10.756,97.805z   M9.927,93.437c-0.156,1.311,0.035,2.481,0.432,3.511c-0.026,0.008-0.043,0.025-0.069,0.033c-0.795-3.429-1.607-7.105-1.901-8.736  c-0.198-1.084-0.62-2.579-1.187-4.303c1.122,1.737,2.381,3.506,3.615,4.905C10.454,89.86,10.169,91.36,9.927,93.437z M18.247,24.13  c-0.397,0.717-1.132,2.052-1.46,2.135c-0.233,0.025-0.311-0.016-0.311-0.016l-0.009,0.008c-0.017-0.025-0.026-0.14,0.078-0.379  c0.207-0.478,0.976-1.681,1.659-2.571c0.026,0.231,0.06,0.47,0.104,0.717C18.29,24.056,18.264,24.097,18.247,24.13z M19.344,50.348  c-1.08,1.533-3.439,3.585-4.225,3.824c-0.38,0.115-0.691,0.181-0.933,0.223c0.553-0.593,1.59-1.582,2.22-2.192  c0.406-0.387,0.769-0.742,1.002-0.973c0.501-0.503,1.287-1.434,2.056-2.341c0.631-0.742,1.218-1.442,1.598-1.838  c0.354-0.379,0.639-0.659,0.881-0.857h0.009C21.262,47.356,20.07,49.318,19.344,50.348z M26.075,53.653  c0.104,1.08,0.233,2.423,0,3.536c-0.104,0.478-0.216,0.973-0.32,1.409c-0.259-0.701-0.544-1.624-0.588-2.497  c-0.026-0.593-0.009-1.459,0-2.374c0.017-1.216,0.034-2.523-0.034-3.625c0.466,1.285,0.846,2.422,0.881,2.884  C26.032,53.191,26.049,53.414,26.075,53.653z M23.284,52.375c-0.164,2.11-0.873,3.849-1.858,4.533  c-0.389,0.272-0.562,0.288-0.562,0.297c-0.017-0.017-0.086-0.132-0.112-0.544c-0.043-0.791,0.104-2.909,0.657-4.459  c0.337-0.931,1.132-2.778,1.754-4.17C23.31,49.367,23.388,51.065,23.284,52.375z M27.734,62.744  c-0.009,0.272-0.026,0.544-0.026,0.816c-1.996,1.723-5.659,3.602-7.5,4.006c-0.518,0.115-0.691,0.049-0.691,0.049l0.009-0.008  c-0.095-0.231,0.501-1.22,1.089-1.706c0.743-0.618,5.322-3.354,7.301-3.816C27.803,62.299,27.742,62.521,27.734,62.744z   M28.753,62.34v-0.008c0.009,0.025,0.026,0.041,0.035,0.058c-0.052,0.074-0.104,0.157-0.164,0.231  C28.65,62.529,28.693,62.439,28.753,62.34z M32.71,59.81c2.246-1.038,6.791-1.739,7.603-1.681c0.276,0.016,0.458,0.223,0.562,0.387  c0.216,0.338,0.268,0.816,0.13,1.104c-0.251,0.511-2.22,1.442-4.648,1.681c-0.795,0.074-4.044-0.074-6.169-0.19h-0.009  C31.06,60.568,32.097,60.09,32.71,59.81z M29.842,62.126c1.002,0.305,3.845,1.195,4.787,1.64c1.711,0.799,4.882,2.984,6.16,4.706  c0.311,0.412,0.423,0.643,0.458,0.758c-0.078,0-0.225,0-0.475-0.033c-1.408-0.19-4.19-1.838-6.877-3.429  c-0.795-0.47-1.598-0.948-2.385-1.393c-0.907-0.519-1.391-1.088-1.65-1.566l0,0.008c-0.052-0.115-0.095-0.222-0.147-0.33  C29.764,62.365,29.816,62.241,29.842,62.126z M29.159,63.312c0.026,0.041,0.043,0.074,0.069,0.115  c0.95,2.86,1.832,9.247,1.832,11.044c0,0.56-0.32,0.973-0.588,1.22c-0.363,0.33-0.76,0.478-0.916,0.503  c-0.622-0.462-0.708-1.632-0.778-2.489c-0.009-0.181-0.026-0.346-0.043-0.503c-0.19-1.78-0.199-3.536-0.19-5.316v-1.352  c0-0.865,0-1.747,0.017-2.629l0.009,0.008C28.788,63.708,28.987,63.51,29.159,63.312z M31.397,50.917  c0.156-0.701,0.328-1.591,0.397-2.357c0.095-1.08,1.244-2.893,2.03-3.767C33.497,48.205,32.261,50.035,31.397,50.917z M20.156,8.701  c-0.743-0.082-1.763-0.214-2.756-0.404v0.008c-0.285-0.585-0.544-1.088-0.752-1.475c-0.138-0.264-0.311-0.495-0.501-0.701  c0.216-0.008,0.449-0.016,0.691-0.016C18.117,6.863,19.379,7.96,20.156,8.701z M16.32,8.059c-0.294-0.074-0.579-0.157-0.838-0.239  c-1.866-0.602-3.715-1.426-4.622-2.003V5.809c0.933,0.132,2.367,0.288,3.931,0.313c0.441,0.255,0.829,0.602,1.08,1.071  C16.009,7.457,16.165,7.745,16.32,8.059z M18.653,4.119c0.881,0.412,1.676,0.775,2.324,1.063c-1.149,0.033-2.644,0.074-3.905,0.099  c-0.475-0.272-0.959-0.486-1.434-0.635c-0.207-0.058-0.406-0.107-0.613-0.148h0.009c0.458-0.223,0.873-0.478,1.184-0.783  C17.21,3.781,18.126,3.88,18.653,4.119z M14.48,2.446c1.011-0.321,1.866-0.626,2.54-0.89c-0.423,0.47-0.864,0.964-1.175,1.319  c-0.216-0.016-0.423-0.025-0.639-0.033c-0.302-0.017-0.605-0.033-0.907-0.049c-0.225-0.016-0.441-0.016-0.639-0.016l0.009,0.008  c-0.069,0-0.13,0-0.199,0C13.78,2.677,14.117,2.561,14.48,2.446z M13.659,3.6l0.009,0.008c0.181,0,0.372,0.008,0.579,0.017  c0.207,0.008,0.423,0.025,0.631,0.033c-0.605,0.321-1.391,0.569-2.169,0.75c-0.76,0.058-1.469,0.181-2.056,0.321  c-0.043,0.008-0.078,0.008-0.121,0.008C10.86,4.243,11.672,3.6,13.659,3.6z M19.051,14.199c-3.205-1.005-6.532-2.81-7.724-4.187  c-0.294-0.338-0.423-0.75-0.544-1.113c-0.069-0.214-0.13-0.396-0.207-0.544c-0.156-0.297-0.57-1.311-0.544-2.143l-0.009-0.008  c1.253,1.055,4.121,2.052,5.184,2.398c0.484,0.157,1.028,0.297,1.59,0.412c0.76,1.574,1.616,3.486,2.272,5.184  C19.059,14.199,19.051,14.199,19.051,14.199z M18.999,22.853c-0.026-0.223-0.017-0.387,0.009-0.462  c0.052-0.041,0.156-0.091,0.294-0.115l0.009,0.008C19.215,22.49,19.111,22.68,18.999,22.853z M20.269,26.957  c-0.052,0.074-0.086,0.091-0.086,0.091c-0.043,0-0.199-0.099-0.302-0.321c-0.164-0.354-0.467-1.517-0.674-2.555  c0.173-0.313,0.337-0.61,0.501-0.857c0.043-0.066,0.086-0.132,0.121-0.198c0.13,0.338,0.225,0.725,0.259,1.104  c0.026,0.223,0.06,0.495,0.104,0.783C20.269,25.597,20.433,26.702,20.269,26.957z M23.846,25.02c-0.518-0.14-0.838-0.61-1.46-1.582  l-0.32-0.486c-0.501-0.766-1.089-1.146-1.572-1.335v-0.008c0.32-1.006,0.518-2.176,0.57-3.42c0.026-0.593-0.216-1.574-0.605-2.728  c0.337,0.099,0.665,0.19,1.002,0.28c-0.017,0.025-0.026,0.041-0.043,0.066c-0.164,0.272-0.311,0.849,0.518,1.64  c0.752,0.725,1.823,1.352,3.076,1.83c0.043,0.058,0.095,0.115,0.138,0.157l0.164,0.148c0.657,0.593,2.385,2.184,4.052,5.283  c0.458,0.849,0.683,1.591,0.76,2.25C27.863,26.281,24.347,25.152,23.846,25.02z M22.731,16.094c0.009,0,0.017,0,0.026,0  c0.665,0.19,1.218,1.195,1.624,2.003c-0.734-0.363-1.365-0.783-1.84-1.236c-0.354-0.346-0.423-0.577-0.38-0.643  c0.052-0.082,0.242-0.148,0.432-0.148l-0.009,0.008C22.636,16.078,22.688,16.086,22.731,16.094z M25.323,18.048  c-0.233-0.47-0.501-1.022-0.829-1.508c1.175,0.313,2.143,0.585,2.635,0.791c0.76,0.321,1.953,1.335,2.696,2.003  c-0.57,0.008-1.365-0.025-2.316-0.214c-0.665-0.132-1.305-0.305-1.909-0.519v-0.008C25.513,18.435,25.41,18.229,25.323,18.048z   M31.388,32.125c-0.148,0.938-0.685,2.715-1.362,4.344l-0.003,0c0,0-0.001,0.01-0.002,0.011c-0.511,1.228-1.102,2.372-1.666,3.006  c-0.631,0.701-1.175,1.533-1.607,2.25c0.104-0.964,0.311-2.143,0.717-3.181c0.492-1.236,0.881-2.654,1.227-3.907  c0.302-1.104,0.588-2.151,0.89-2.876c0.112-0.272,0.259-0.552,0.415-0.849c0.294-0.552,0.622-1.187,0.821-1.929v-0.008  C31.172,30.139,31.501,31.4,31.388,32.125z M30.931,26.084c0-0.115,0.009-0.181,0.009-0.198c0.13,0.008,0.449,0.173,0.665,0.429  c0.086,0.165,0.164,0.742,0.233,1.525c-0.121-0.074-0.311-0.165-0.553-0.264v0.008C31.086,26.933,30.931,26.372,30.931,26.084z   M31.656,28.795c0.086,0.107,0.173,0.239,0.276,0.387c0.017,0.247,0.035,0.511,0.052,0.775  C31.89,29.578,31.777,29.183,31.656,28.795z M33.255,36.106c-0.121-0.824-0.207-2.514-0.302-4.302  c-0.017-0.321-0.035-0.626-0.052-0.915c1.106,2.176,2.367,5.275,2.627,6.717c0.031,0.173,0.079,0.361,0.137,0.557  c-0.178,0.561-0.381,1.232-0.579,1.932C34.329,38.913,33.433,37.345,33.255,36.106z M36.814,48.938c0.216,0.898,0.138,1.904,0,2.72  c-0.095-0.272-0.199-0.56-0.328-0.849c-0.457-1.037-1.397-4.333-1.46-6.115C35.545,45.28,36.244,46.566,36.814,48.938z   M38.05,43.095c0.181,0.321,0.372,0.659,0.536,0.956c-0.916-0.742-2.186-1.945-2.462-2.39c-0.069-0.107-0.181-0.272-0.32-0.478  c-0.029-0.044-0.067-0.1-0.099-0.147c0.144-0.537,0.298-1.077,0.449-1.584C36.686,40.66,37.437,42.005,38.05,43.095z M34.585,30.279  c-0.164,0.841,0.086,1.821,0.579,2.275c0.242,0.231,0.544,0.321,0.838,0.256c0.225-0.049,0.726-0.157,1.028-2.984  c0.052,0.091,0.104,0.198,0.138,0.313c0.537,1.692-0.458,5.069-0.987,6.525c-0.602-2.086-2.2-5.835-3.394-7.712  c-0.138-2.052-0.268-2.86-0.492-3.124c-0.337-0.404-1.071-0.923-1.659-0.717c-0.052,0.017-0.112,0.041-0.173,0.082  c-0.095-0.222-0.207-0.453-0.337-0.692c-1.236-2.291-2.506-3.791-3.378-4.69c0.19,0.041,0.38,0.082,0.579,0.124  c2.091,0.404,3.491,0.148,3.551,0.14c0.156-0.025,0.285-0.132,0.328-0.28c0.043-0.148,0.009-0.305-0.104-0.412  c-0.095-0.091-2.316-2.25-3.637-2.802c-0.691-0.288-2.117-0.668-3.767-1.096c-0.233-0.058-0.467-0.115-0.708-0.181  c-0.009,0-0.026,0-0.026,0c-0.009,0-0.017,0-0.017,0c-0.933-0.247-1.909-0.511-2.843-0.783c-0.569-1.54-1.319-3.25-2.014-4.743  c0.775,0.379,1.848,0.814,3.112,1.331c2.886,1.17,6.843,2.778,9.426,4.69c4.044,2.984,5.797,7.632,5.754,9.973  c-0.026,1.063-0.069,2.027-0.13,2.868C35.441,28.729,34.758,29.389,34.585,30.279z M36.184,29.496  c-0.121,1.278-0.285,2.143-0.432,2.464c-0.19-0.173-0.458-0.849-0.32-1.533C35.536,29.924,35.855,29.603,36.184,29.496z   M41.644,24.864c-2.834-2.019-4.484-3.767-5.443-5.094h0.009c0.7,0.297,1.503,0.635,2.341,1.005c1.4,0.618,2.877,2.036,3.707,3.165  c0.432,0.577,0.95,1.418,1.331,2.052C43.096,25.779,42.448,25.433,41.644,24.864z" data-sg-fill="sg-fill-0" />
</g></svg>