<svg xmlns="http://www.w3.org/2000/svg" version="1.1" id="Layer_1" x="0px" y="0px" viewBox="0.0 0.0 100.0 102.78703703703704" xml:space="preserve">
<g transform="scale(1.8518518518518519)"><g>
	<polygon fill="#010101" points="0.995,28.234 0.986,28.233 0.979,28.234  " data-sg-fill="sg-fill-0" />
	<path fill="#010101" d="M54,32.041c0-0.276-0.224-0.5-0.5-0.5c-0.004,0-0.18,0-0.559-0.018c-0.424-0.588-1.303-1.874-1.519-2.773   c-0.211-0.87-0.114-2.328-0.044-3.08c0.339,0.167,0.693,0.315,1.002,0.388c0.932,0.213,1.297,0.089,1.385,0.042   s0.156-0.125,0.177-0.224c0.021-0.094,0-0.198-0.062-0.276c-2.208-2.885-2.322-10.024-2.322-10.097c0-0.172-0.13-0.312-0.302-0.328   c-0.167-0.016-0.323,0.099-0.359,0.266c-0.016,0.073-1.515,7.165-4.317,10.274c-0.083,0.089-0.109,0.219-0.068,0.333   c0.036,0.115,0.141,0.198,0.26,0.219c0.016,0.005,0.286,0.047,0.651,0.047l0.005,0c0.187,0,0.396-0.016,0.614-0.047   c0.28-0.042,0.712-0.269,1.134-0.529c0.039,0.997-0.08,3.108-1.662,3.8c-1.756-2.29-3.727-6.322-4.852-8.618   c-0.122-0.25-0.237-0.485-0.347-0.71c0.032-0.23,0.121-0.497,0.332-0.779c0.115-0.151,0.271-0.312,0.437-0.484   c0.875-0.901,2.187-2.26,0.552-5.322c-0.312-0.578-0.661-1.041-0.974-1.448c-0.68-0.888-1.126-1.484-0.807-2.688   c0.074-0.05,0.151-0.084,0.229-0.082c0.13,0.005,0.406,0.115,0.802,0.776c1.1,1.832,5.584,9.366,5.662,9.497l0.571-0.343   c0,0-4.556-7.655-5.666-9.503c-0.432-0.724-0.87-1.083-1.349-1.099c-0.625-0.047-1.021,0.552-1.239,0.859l-0.078,0.109   c-0.316,0.413-2.238,2.985-2.957,3.948c-0.704-0.794-1.427-1.549-2.12-2.193c-1.895-1.765-5.494-7.446-5.973-8.243   c-0.422-0.698-0.953-0.896-1.521-1.109C27.932,2,27.609,1.875,27.24,1.672c-0.135-0.078-0.375-0.141-0.698-0.016   c-0.493,0.194-1.303,1.006-2.248,2.147c-0.033,0.024-0.068,0.044-0.095,0.077c-0.076,0.091-0.152,0.198-0.227,0.318   c-0.586,0.729-1.213,1.565-1.843,2.448c-0.343-0.474-0.915-1.244-1.373-1.772c-0.349-0.401-0.651-0.698-1.057-0.698   c-0.411,0.01-0.745,0.37-1.015,0.724c-1.088,1.416-8.207,10.92-8.28,11.013c-0.109,0.146-0.078,0.359,0.068,0.469   c0.057,0.047,0.13,0.068,0.198,0.068h0.005c0.099,0,0.198-0.047,0.266-0.135c0.065-0.088,5.651-7.548,7.683-10.231   c-0.572,1.263-1.261,3.138-1.044,4.467c0.242,1.49,0.155,2.606,0.051,3.255c-0.27,0.528-0.468,0.97-0.572,1.291   c-0.849,2.619-4.827,7.853-4.869,7.905c-0.167,0.219-0.125,0.536,0.094,0.703c0.219,0.167,0.536,0.125,0.703-0.094   c0.167-0.219,4.124-5.421,5.025-8.202c0.489-1.514,2.686-5.046,4.799-8.022c-0.549,2.189-0.964,4.967-1.138,7.418   c-0.292,4.135-1.385,7.504-6.119,12.482c-1.846,1.942-4.038,2.982-5.98,3.535c-0.215-0.33-0.589-0.958-0.878-1.76   c-0.335-0.931-0.276-3.168-0.237-4.066c0.416,0.131,0.85,0.388,1.346,0.686c0.302,0.177,0.62,0.37,0.953,0.542   c0.979,0.505,2.463,0.802,2.526,0.812c0.135,0.026,0.276-0.036,0.349-0.156c0.073-0.12,0.062-0.271-0.026-0.38l-3.958-4.9   c0.693,0.25,1.562,0.411,2.468,0.187c0.13-0.031,0.224-0.13,0.25-0.26c0.026-0.125-0.026-0.26-0.135-0.333   c-0.036-0.026-3.083-2.182-4.51-3.968l2.203,0.141c0.151,0.01,0.292-0.089,0.338-0.234s-0.016-0.307-0.146-0.385   c-3.494-2.114-3.614-4.822-3.614-4.937c-0.005-0.172-0.146-0.318-0.323-0.323c-0.177,0-0.328,0.125-0.344,0.302   c-0.005,0.031-0.37,3.525-3.223,4.619c-0.151,0.057-0.24,0.219-0.208,0.375c0.026,0.161,0.167,0.276,0.328,0.276h1.932   c-0.505,1.364-2.203,5.494-4.452,6.348C0.083,23.454,0,23.579,0,23.719c0,0.141,0.089,0.266,0.219,0.307   c0.073,0.026,1.494,0.531,3.291-0.432c-0.625,1.094-1.682,2.723-2.999,3.968c-0.094,0.089-0.125,0.229-0.083,0.354   c0.021,0.057,0.083,0.187,0.271,0.266c0.081,0.035,0.177,0.051,0.288,0.051c0.343-0.002,0.815-0.157,1.451-0.473   c0.667-0.328,1.312-0.755,1.942-1.172c0.507-0.334,1.022-0.672,1.55-0.963c0.112,0.473,0.264,1.362,0.163,2.463   c-0.119,1.247-0.865,2.702-1.222,3.339c-0.21-0.007-0.332-0.016-0.341-0.016c-0.281-0.031-0.521,0.177-0.547,0.453   c-0.014,0.122,0.024,0.235,0.088,0.329c0.051,0.794,0.138,1.578,0.261,2.35c0.002,0.03,0.005,0.058,0.015,0.086   C6.292,46.528,16.611,55.5,28.942,55.5v0.005c13.056,0,23.893-10.104,24.85-23.069C53.915,32.344,54,32.205,54,32.041z    M18.236,10.441c-0.307-1.906,1.63-5.358,1.651-5.395c0.016-0.027,0.022-0.057,0.03-0.086c0.122,0.108,0.258,0.265,0.335,0.352   c0.504,0.575,1.171,1.491,1.471,1.911c-1.228,1.757-2.432,3.635-3.32,5.176C18.4,11.838,18.357,11.185,18.236,10.441z    M52.822,34.825c-0.579-0.249-1.742-0.693-3.248-0.972c-2.343-0.432-7.863-1.219-11.966-1.135   c-2.312,0.052-4.176,0.307-6.332,0.609c-1.713,0.234-3.645,0.505-6.051,0.687c-2.645,0.203-4.9-0.036-7.082-0.271   c-2.895-0.307-5.895-0.63-9.774,0.104c-1.821,0.344-2.94,0.365-3.41,0.352c-0.087-0.582-0.148-1.172-0.193-1.767   c0.152,0.007,0.349,0.014,0.588,0.014l-0.005-0.01c0.679,0,1.687-0.052,2.867-0.261c3.279-0.455,8.03-0.197,12.229,0.026   c1.744,0.094,3.39,0.182,4.806,0.213c0.24,0.01,0.479,0.01,0.719,0.01l0.005-0.005c2.437,0,4.556-0.266,6.613-0.521   c1.77-0.219,3.447-0.427,5.259-0.469c3.841-0.088,10.625,0.694,11.52,0.8c0.034,0.006,0.069,0.014,0.103,0.017   c1.974,0.204,3.111,0.268,3.644,0.288C53.052,33.311,52.954,34.074,52.822,34.825z M41.037,34.43   c-0.188-0.248-0.453-0.602-0.748-0.996c0.332,0.017,0.665,0.037,1,0.06C41.156,33.78,41.064,34.085,41.037,34.43z M41.798,35.357   c-0.198-0.774-0.074-1.298,0.219-1.809c0.48,0.039,0.958,0.081,1.429,0.129c-0.247,0.413-0.455,0.761-0.601,1.004   c-0.396,0.667-0.672,0.776-0.802,0.776C41.963,35.458,41.879,35.417,41.798,35.357z M24.927,40.355   c-0.004-0.006-0.005-0.013-0.01-0.019c-0.578-0.688-1.223-2.91-1.696-5.578c0.661,0,1.343-0.022,2.055-0.077   c1.483-0.111,2.785-0.256,3.967-0.406c-0.678,4.812-2.153,7.017-2.777,7.756C26.086,41.714,25.549,41.121,24.927,40.355z    M22.766,37.483c-0.647-0.912-1.296-1.872-1.907-2.814c0.438,0.031,0.884,0.056,1.34,0.071   C22.364,35.707,22.554,36.639,22.766,37.483z M18.589,38.8c-0.799-1.055-2.155-2.861-3.512-4.668   c0.825,0.053,1.637,0.131,2.453,0.217C17.333,35.685,18.021,37.549,18.589,38.8z M19.876,39.907   c-0.007-0.033-0.014-0.066-0.031-0.097c-0.021-0.031-1.956-3.485-1.651-5.392c0.473,0.051,0.949,0.102,1.433,0.148   c0.639,1.01,1.337,2.065,2.048,3.083c-0.303,0.422-0.965,1.331-1.466,1.906C20.136,39.641,19.999,39.798,19.876,39.907z    M29.93,34.185c0.499-0.066,0.978-0.133,1.439-0.197c0.938-0.13,1.821-0.252,2.709-0.354c-2.031,2.382-4.832,6.802-5.255,7.503   c-0.24,0.396-0.495,0.489-1.01,0.682c-0.144,0.053-0.303,0.112-0.476,0.185C28.129,40.893,29.348,38.546,29.93,34.185z    M47.939,25.604c-0.151,0.021-0.297,0.036-0.432,0.036c1.708-2.213,2.88-5.676,3.505-7.91v-0.005   c0.198,2.239,0.698,5.65,1.989,7.759c-0.125-0.016-0.281-0.042-0.469-0.083c-0.818-0.187-2.109-1.057-2.119-1.067   c-0.12-0.078-0.276-0.073-0.391,0.01C49.365,24.839,48.288,25.552,47.939,25.604z M49.822,25.313   c0.159-0.11,0.303-0.213,0.413-0.292c0.124,0.079,0.299,0.187,0.499,0.303c-0.071,0.63-0.238,2.474,0.032,3.582   c0.199,0.82,0.838,1.864,1.316,2.566c-0.608-0.042-1.427-0.111-2.496-0.222c-0.001,0-0.002-0.001-0.002-0.001   c-0.003,0-0.009-0.001-0.013-0.002c-0.475-0.053-1.03-0.494-1.621-1.176C49.737,29.157,49.976,26.728,49.822,25.313z    M41.083,10.427c0.063,0.867,0.528,1.479,1.045,2.154c0.312,0.401,0.63,0.823,0.916,1.354c1.406,2.635,0.38,3.692-0.443,4.541   c-0.182,0.187-0.359,0.37-0.495,0.552c-0.084,0.113-0.151,0.224-0.21,0.334c-0.207-0.41-0.384-0.747-0.53-0.99   c-0.75-1.276-1.871-2.787-3.085-4.206C38.823,13.443,40.428,11.295,41.083,10.427z M28.875,3.728   c0.484,0.812,4.171,6.618,6.15,8.462c1.989,1.854,4.244,4.608,5.473,6.691c0.281,0.474,0.734,1.406,1.26,2.479   c1.97,4.037,3.896,7.784,5.69,9.653c-2.544-0.263-6.792-0.642-9.621-0.582c-1.869,0.036-3.567,0.25-5.364,0.474   c-1.066,0.132-2.149,0.267-3.282,0.366c-0.596-0.826-2.308-3.624-1.54-7.562c0.349-1.802,0.833-3.192,1.297-4.536   c0.792-2.296,1.479-4.275,1.166-7.384c-0.509-5.09-1.872-7.733-2.729-8.935c0.18,0.075,0.345,0.137,0.49,0.192   C28.38,3.239,28.635,3.333,28.875,3.728z M16.278,27.974c4.942-5.197,6.087-8.738,6.395-13.102   c0.318-4.437,1.39-9.269,2.296-10.347c0.005-0.006,0.006-0.014,0.011-0.021c0.62-0.763,1.156-1.353,1.536-1.669   c0.683,0.802,2.353,3.296,2.926,9.016c0.302,2.963-0.365,4.879-1.13,7.098c-0.453,1.302-0.963,2.781-1.323,4.629   c-0.743,3.803,0.645,6.567,1.421,7.752c-0.998,0.069-2.035,0.106-3.14,0.08c-1.396-0.031-3.036-0.12-4.775-0.214   c-2.717-0.143-5.665-0.3-8.321-0.272C13.576,30.263,14.996,29.324,16.278,27.974z M4.025,26.031   c-0.641,0.422-1.245,0.823-1.869,1.13c-0.219,0.104-0.401,0.187-0.552,0.245c1.906-2.073,3.104-4.619,3.161-4.739   c0.062-0.141,0.021-0.312-0.104-0.406c-0.062-0.047-0.13-0.068-0.203-0.068v0.01c-0.078,0-0.156,0.026-0.219,0.083   c-1.125,0.979-2.161,1.219-2.864,1.239c2.463-1.807,4.015-6.473,4.088-6.691c0.031-0.104,0.016-0.213-0.047-0.302   c-0.062-0.089-0.161-0.141-0.271-0.141H4.051c1.187-0.87,1.812-2.119,2.13-3.088c0.359,0.932,1.088,2.171,2.578,3.322l-1.687-0.109   c-0.12-0.005-0.245,0.052-0.307,0.161c-0.068,0.109-0.068,0.245,0,0.349c0.901,1.474,3.213,3.317,4.385,4.202   c-1.396-0.042-2.567-0.948-2.583-0.958c-0.13-0.109-0.323-0.094-0.443,0.026c-0.12,0.12-0.13,0.312-0.021,0.443l4.374,5.41   c-0.453-0.13-0.984-0.307-1.401-0.521c-0.323-0.167-0.625-0.349-0.917-0.521c-0.901-0.542-1.755-1.052-2.718-0.818   C6.197,24.599,5.093,25.328,4.025,26.031z M6.764,28.151c0.122-1.321-0.089-2.355-0.218-2.833c0.34-0.155,0.686-0.286,1.041-0.374   c0.069-0.017,0.137-0.024,0.205-0.03C7.75,25.811,7.68,28.22,8.066,29.291c0.267,0.733,0.591,1.322,0.829,1.708   c-1.309,0.31-2.462,0.406-3.253,0.428C6.052,30.651,6.654,29.343,6.764,28.151z M28.942,54.833   c-11.877,0-21.837-8.556-23.87-19.964c0.571,0.007,1.691-0.039,3.42-0.365c2.149-0.409,3.984-0.482,5.717-0.415   c1.897,2.528,3.891,5.181,4.427,5.878c0.271,0.349,0.604,0.713,1.015,0.724h0.026c0.396,0,0.693-0.302,1.036-0.698   c0.457-0.526,1.024-1.293,1.367-1.767c0.652,0.914,1.3,1.778,1.903,2.524c0.055,0.083,0.111,0.166,0.167,0.233   c0.017,0.02,0.041,0.029,0.061,0.045c0.957,1.16,1.779,1.988,2.277,2.183c0.13,0.052,0.245,0.073,0.349,0.073l-0.01-0.005   c0.151,0,0.266-0.042,0.349-0.089c0.37-0.203,0.693-0.323,0.979-0.432c0.568-0.214,1.104-0.411,1.521-1.109   c0.759-1.267,4.115-6.449,5.888-8.158c0.659-0.052,1.337-0.091,2.059-0.106c0.577-0.012,1.183-0.005,1.802,0.015   c0.608,0.812,1.164,1.555,1.322,1.761l0.078,0.109c0.109,0.157,0.266,0.379,0.473,0.559c0.007,0.005,0.013,0.011,0.02,0.015   c0.194,0.164,0.43,0.29,0.715,0.29v-0.005c0.016,0,0.026,0,0.036,0c0.474-0.016,0.916-0.375,1.349-1.099   c0.176-0.295,0.443-0.742,0.762-1.276c2.165,0.238,4.113,0.541,5.274,0.755c1.567,0.289,2.768,0.777,3.246,0.989   C50.424,46.582,40.638,54.833,28.942,54.833z" data-sg-fill="sg-fill-0" />
	<polygon fill="#010101" points="48.553,19.684 48.549,19.678 48.548,19.678  " data-sg-fill="sg-fill-0" />
	<path fill="#010101" d="M34.384,6.087c-0.146,0.01-0.266,0.115-0.302,0.255c-0.036,0.141,0.026,0.286,0.146,0.365   c0.583,0.37,1.25,0.562,1.922,0.562v-0.01c2,0,3.63-1.63,3.63-3.63S38.149,0,36.149,0c-0.672,0-1.338,0.198-1.922,0.562   c-0.12,0.078-0.182,0.224-0.146,0.364c0.036,0.141,0.156,0.245,0.302,0.255c1.286,0.094,2.291,1.172,2.291,2.453   S35.67,5.994,34.384,6.087z M37.342,3.64c0-1.271-0.781-2.385-1.901-2.869c0.229-0.057,0.469-0.089,0.708-0.089   c1.63,0,2.958,1.328,2.958,2.958s-1.328,2.958-2.958,2.958c-0.24,0-0.474-0.031-0.708-0.089C36.561,6.025,37.342,4.911,37.342,3.64   z" data-sg-fill="sg-fill-0" />
	<path fill="#010101" d="M36.993,8.576c0,0.302,0.245,0.547,0.547,0.547c0.302,0,0.547-0.245,0.547-0.547   c0-0.302-0.245-0.547-0.547-0.547C37.238,8.03,36.993,8.274,36.993,8.576z" data-sg-fill="sg-fill-0" />
	<path fill="#010101" d="M36.102,37.81c-0.672,0-1.338,0.198-1.922,0.562c-0.12,0.078-0.182,0.224-0.146,0.364   c0.036,0.141,0.156,0.245,0.302,0.255c1.286,0.099,2.291,1.172,2.291,2.453c0,1.281-1.005,2.359-2.291,2.453   c-0.146,0.01-0.266,0.115-0.302,0.255c-0.036,0.141,0.021,0.286,0.146,0.364c0.583,0.37,1.25,0.562,1.922,0.562v-0.01   c2,0,3.63-1.63,3.63-3.629C39.732,39.44,38.102,37.81,36.102,37.81z M36.102,44.408c-0.24,0-0.474-0.031-0.708-0.089v-0.005   c1.12-0.484,1.901-1.599,1.901-2.869s-0.781-2.385-1.901-2.869c0.229-0.057,0.469-0.089,0.708-0.089   c1.63,0,2.958,1.323,2.958,2.958C39.06,43.08,37.732,44.408,36.102,44.408z" data-sg-fill="sg-fill-0" />
	<path fill="#010101" d="M37.493,36.837c0.302,0,0.547-0.245,0.547-0.547s-0.245-0.547-0.547-0.547s-0.547,0.245-0.547,0.547   S37.191,36.837,37.493,36.837z" data-sg-fill="sg-fill-0" />
</g>
</g></svg>