<svg id="a" xmlns="http://www.w3.org/2000/svg" width="100" height="95.753" viewBox="0 0 100 95.753" xmlns:svgjs="http://svgjs.com/svgjs"><path d="M71.679,56.666c.64.007,1.38,0,2.041-.196,1.127-.334,2.049-1.22,2.646-1.86,2.465-2.643,3.631-5.776,3.19-8.589-.413-2.625-2.173-4.744-3.581-6.06-1.074-1.007-2.788-2.312-4.855-2.835-1.199-.302-2.504-.452-3.944-.452-.74,0-1.519.039-2.337.117-2.973.284-5.26,1.01-6.996,2.209-2.941,2.034-4.535,5.776-3.969,9.308.128.811.356,1.526.676,2.127v.004h.007c1.085,2.041,3.453,3.172,5.139,3.848,3.827,1.529,7.86,2.33,11.982,2.379h.001ZM69.648,47.155c.54,0,.978.438.978.978s-.438.978-.978.978-.978-.438-.978-.978.438-.978.978-.978ZM60.551,49.837c.146-.132.37-.121.502.025.445.498.932.754,1.444.761h.021c.903,0,1.636-.758,1.643-.765.135-.142.359-.149.501-.014s.149.359.014.501c-.039.039-.946.989-2.162.989h-.025.007c-.718-.007-1.383-.345-1.97-.996-.132-.146-.121-.37.025-.501ZM58,45.555c-.54,0-.978-.438-.978-.978s.438-.978.978-.978.978.438.978.978-.438.978-.978.978Z" fill="none"></path><path d="M16.513,8.833c1.103-.21,2.088-.59,3.066-1.227-.864-.004-1.846.1-2.799.281l-.267.946Z" fill="none"></path><path d="M57.343,70.003c.537.523,1.167.989,1.881,1.384,1.238.686,2.721,1.167,4.528,1.472l.1.018c.782.132,1.664.281,2.312.907.217.21.373.441.523.665.11.164.213.32.331.445.203.22.544.356.843.338.185-.011.324-.075.409-.192.156-.213.146-.555.135-.95-.011-.43-.025-.921.189-1.384v-.004c.21-.448.569-.74.957-.957-2.717.228-7.081.117-12.206-1.743h-.002Z" fill="none"></path><path d="M15.076,8.517c.025.132.231.235.445.267v.004l.206-.694c-.334.057-.676.274-.651.423Z" fill="none"></path><path d="M11.744,14.709c1.657-1.273,2.714-3.13,3.468-5.04-.768-.16-1.056-.733-1.113-1.049-.114-.654.857-1.22,1.91-1.508.139-.679.245-1.369.331-2.059.05-.391.206-.487.459-.53.267-.046.509.153.516.48-.018.608-.178,1.273-.295,1.881,1.188-.21,2.408-.334,3.599-.043.953-.772,2.408-2.216,2.166-3.606-.142-.818-.729-1.32-2.02-1.095-1.12.196-2.415.886-2.934,1.184-1.86,1.099-3.493,3.318-4.702,5.79h.004c-.864,1.775-1.7,3.614-1.387,5.594h-.002Z" fill="none"></path><path d="M22.872,68.534c-1.81,1.383-3.998,2.298-6.256,2.596-.562.075-1.131.11-1.7.11-.651,0-1.302-.053-1.949-.149-.064.309-.11.622-.135.939-.171,2.184.768,4.296,2.344,5.257,1.48.907,3.642.903,5.779-.007v.004c2.379-1.017,4.399-2.884,5.609-5.175-1.558-.729-2.849-2.002-3.692-3.574h0Z" fill="none"></path><path d="M28.314,71.724c.388.22.75.509.957.957.217.462.203.95.188,1.384-.011.395-.021.736.135.95.085.117.224.181.409.192.302.018.64-.117.843-.338.114-.125.22-.281.331-.445.149-.224.306-.455.523-.665.647-.63,1.533-.775,2.312-.907l.1-.018v.004c1.807-.306,3.29-.786,4.528-1.472.711-.395,1.344-.861,1.881-1.383-5.129,1.86-9.492,1.97-12.206,1.743v-.002Z" fill="none"></path><path d="M21.507,54.571c.598.64,1.519,1.526,2.646,1.86.661.196,1.401.203,2.041.196,4.122-.05,8.152-.85,11.982-2.379,1.686-.672,4.051-1.807,5.139-3.848.32-.598.548-1.316.679-2.127.569-3.532-1.028-7.273-3.969-9.308-1.736-1.199-4.023-1.921-6.996-2.209-.818-.078-1.597-.117-2.337-.117-1.444,0-2.746.149-3.944.452-2.066.523-3.781,1.828-4.855,2.835-1.408,1.316-3.172,3.436-3.581,6.06l.004-.004c-.441,2.813.722,5.943,3.19,8.589h0ZM39.866,43.57c.54,0,.978.438.978.978s-.438.978-.978.978-.978-.438-.978-.978.438-.978.978-.978ZM32.895,50.285c.142-.135.366-.128.501.014.018.018.758.779,1.664.765.509-.007.996-.263,1.444-.761.132-.146.356-.156.502-.025s.156.356.025.501c-.587.654-1.248.989-1.97.996h-.025.007c-1.216,0-2.123-.95-2.162-.989-.135-.142-.128-.366.014-.501ZM28.218,47.127c.54,0,.978.438.978.978s-.438.978-.978.978-.978-.438-.978-.978.438-.978.978-.978Z" fill="none"></path><path d="M17.861,64.006c1.462-.694,2.774-1.014,3.998-.985.224-1.91.985-3.823,2.209-5.509-.075-.018-.149-.032-.224-.053-1.376-.405-2.44-1.426-3.123-2.155-1.526-1.636-2.593-3.453-3.14-5.296-2.461-.171-4.705.146-6.665.939-2.219.9-4.022,2.426-5.079,4.3-.836,1.483-1.273,3.308-1.259,5.271.021,2.635.854,4.958,2.347,6.537.669.704,1.526,1.323,2.55,1.839h-.004c.864.434,1.782.754,2.724.967.21-.63.494-1.234.846-1.8,1.024-1.647,2.692-3.048,4.819-4.055h.001Z" fill="none"></path><path d="M21.798,64.088c-1.042-.014-2.18.274-3.475.886-1.942.918-3.453,2.18-4.371,3.653-.281.448-.509.928-.69,1.426,1.063.146,2.148.16,3.212.018,2.152-.288,4.236-1.188,5.936-2.543-.284-.739-.479-1.524-.565-2.333h0v-.004.004h.003c-.039-.366-.05-.736-.05-1.106h0Z" fill="none"></path><path d="M34.701,9.445c.032-.132-.071-.21-.238-.249v-.004c-.864-.185-2.66.843-3.368,1.917.804,0,1.864-.345,2.71-.829.445-.245.843-.605.896-.836h0Z" fill="none"></path><path d="M28.47,8.197c.007-.135-.107-.192-.277-.203-.882-.036-2.479,1.28-2.995,2.458.793-.139,1.778-.658,2.532-1.277.391-.317.726-.74.74-.978Z" fill="none"></path><path d="M39.834,59.443c.253-.341.391-.754.391-1.184,0-.59-.263-1.149-.722-1.529-.349-.292-.797-.452-1.259-.452-.324,0-.647.082-.928.235-.761.409-1.156,1.245-1.021,2.066-.466.861-1.085,1.561-1.803,2.038-.114.075-.235.146-.356.21-5.182.747-9.567.153-10.648-.021-.523,1.405-.733,2.863-.587,4.264.053.501.156.996.302,1.472,2.956.58,5.883.694,8.557.551.153.128.309.249.469.363.391.274.8.501,1.159.701.487.27,1.131.63,1.874.797.37.491.957.793,1.583.793h.103c.605-.032,1.156-.331,1.508-.825.356-.494.459-1.117.292-1.711h-.004v-.011c-.103-.363-.313-.679-.587-.925,2.145-.43,3.774-.914,4.634-1.191.331-2.209.089-4.488-.669-6.583-.758.359-1.522.669-2.29.942h.002ZM36.914,69.046h-.068c-.501,0-.939-.295-1.145-.726-.747-.1-1.412-.469-1.963-.775-.285-.16-.576-.327-.861-.512-.078-.05-.156-.096-.235-.149-.683-.477-1.302-1.095-1.878-1.889-.181-.245-.121-.597.135-.765.089-.06.192-.089.292-.089.167,0,.327.075.43.217.509.697,1.046,1.241,1.632,1.65.313.221.665.416,1.003.605.142.078.292.156.441.235.324.167.665.32,1.007.388.124-.274.345-.494.619-.619.16-.071.338-.114.526-.114.036,0,.075.011.11.011.046.004.089.004.132.011v.007c.459.082.846.434.974.882.235.822-.356,1.59-1.152,1.633h.001ZM39.072,59.248c-.235.196-.523.292-.807.292-.142,0-.281-.021-.413-.068-.139.253-.288.491-.448.722-.388.562-.829,1.06-1.33,1.476-.189.16-.388.306-.59.441-1.01.672-2.166,1.024-3.301,1.024-.196,0-.391-.011-.583-.032-.317-.032-.53-.341-.459-.651.053-.245.274-.413.519-.413h.057c.146.014.295.021.445.021.932,0,1.903-.295,2.728-.843.281-.185.544-.402.793-.644.541-.523,1.01-1.167,1.369-1.896-.192-.562.021-1.216.605-1.533.181-.096.388-.146.59-.146h.007c.292,0,.58.1.807.288.63.526.608,1.458.011,1.96v.002Z" fill="none"></path><path d="M89.835,11.7c.473-.178.918-.477,1.007-.697.05-.128-.043-.221-.199-.281h0c-.829-.309-2.756.448-3.61,1.408.797.11,1.896-.075,2.803-.43h0Z" fill="none"></path><path d="M74.962,65.109c.146-1.401-.064-2.863-.587-4.264-1.081.174-5.466.768-10.648.021-.121-.064-.242-.135-.356-.21-.718-.477-1.337-1.177-1.803-2.038.135-.822-.263-1.654-1.021-2.066-.281-.153-.601-.235-.928-.235-.462,0-.91.16-1.259.452-.459.384-.722.939-.722,1.529,0,.434.139.846.391,1.184-.767-.273-1.53-.586-2.287-.941v.009c-.726,2.009-.982,4.19-.708,6.32h.007l-.007.007c.011.085.021.171.036.256.861.277,2.49.761,4.634,1.191-.274.242-.484.562-.587.925-.167.594-.06,1.216.292,1.711s.903.793,1.508.825h.103c.626,0,1.213-.302,1.583-.793.743-.167,1.387-.526,1.874-.797.359-.199.765-.427,1.156-.701.16-.114.317-.235.469-.363,2.675.139,5.602.028,8.557-.551.146-.477.249-.971.302-1.472h0ZM59.612,59.567h.003-.007.004c-.283,0-.57-.096-.804-.291-.598-.501-.619-1.437.011-1.96.228-.192.519-.288.807-.288.203,0,.409.046.59.146.583.317.797.974.605,1.533.359.729.825,1.373,1.369,1.896.249.242.516.459.793.644.825.548,1.796.843,2.728.843.149,0,.299-.007.445-.021h.057c.245,0,.462.167.519.413.071.309-.142.615-.459.651-.196.021-.388.032-.583.032-1.135,0-2.29-.352-3.301-1.024-.206-.135-.402-.285-.59-.441-.501-.42-.946-.918-1.33-1.476-.16-.231-.309-.469-.448-.722-.134.046-.271.067-.409.067v-.002ZM67.102,65.013c-.58.79-1.195,1.412-1.878,1.889-.078.053-.156.1-.235.149-.284.185-.576.352-.861.512-.548.306-1.216.676-1.963.775-.206.43-.644.726-1.145.726h-.068c-.797-.043-1.387-.811-1.152-1.632.128-.448.516-.8.974-.882.046-.011.089-.011.132-.011.036-.004.075-.011.11-.011.192,0,.366.039.526.114.274.128.491.349.619.619.341-.068.683-.221,1.007-.388.149-.075.299-.156.441-.235.338-.188.69-.384,1.003-.605.587-.409,1.124-.95,1.632-1.65v-.007c.103-.142.267-.217.43-.217.1,0,.203.029.292.089.256.167.317.516.135.765h0Z" fill="none"></path><path d="M85.03,72.055c-.025-.317-.071-.63-.135-.939-.644.096-1.298.149-1.949.149-.569,0-1.138-.036-1.7-.11-2.255-.299-4.442-1.213-6.256-2.596-.843,1.572-2.134,2.845-3.692,3.574,1.213,2.29,3.229,4.161,5.612,5.175,2.138.91,4.296.91,5.779.007,1.576-.96,2.518-3.073,2.344-5.257l-.004-.004h0Z" fill="none"></path><path d="M81.392,70.099c1.06.142,2.145.128,3.212-.018-.181-.498-.409-.978-.69-1.426-.918-1.472-2.429-2.735-4.371-3.653-1.295-.612-2.433-.9-3.475-.886.004.37-.011.736-.05,1.103h.004c-.085.811-.277,1.597-.565,2.337,1.7,1.359,3.781,2.255,5.936,2.543h0Z" fill="none"></path><path d="M86.947,50.979c-1.96-.797-4.204-1.11-6.665-.939-.548,1.842-1.615,3.66-3.141,5.296-.683.729-1.746,1.746-3.123,2.155-.075.021-.149.036-.224.053,1.223,1.689,1.985,3.599,2.209,5.509,1.22-.028,2.532.292,3.998.985,2.127,1.007,3.795,2.408,4.819,4.055.349.562.633,1.17.846,1.8.946-.213,1.864-.534,2.724-.967,1.024-.516,1.881-1.135,2.55-1.839h-.004c1.497-1.579,2.33-3.902,2.347-6.537.011-1.963-.423-3.788-1.259-5.271-1.056-1.874-2.859-3.4-5.079-4.3h.002Z" fill="none"></path><path d="M40.534,14.086c-.473-.199-.935-.37-1.376-.509l-.263.85c.413.128.846.288,1.291.477l.349-.818h0Z" data-sg-fill="sg-fill-0"></path><path d="M48.348,27.658l-.857-.238c-.05.185-.096.37-.139.558-.117.544-.174,1.099-.174,1.657,0,.203.007.402.025.601l.886-.071c-.014-.178-.021-.356-.021-.533,0-.494.053-.989.156-1.469.036-.171.078-.338.124-.505Z" data-sg-fill="sg-fill-0"></path><path d="M52.367,30.991v-.004h.004c.117-.537.178-1.117.178-1.732,0-.352-.021-.715-.06-1.085l-.886.092c.036.341.053.676.053.996,0,.548-.053,1.067-.156,1.54l.868.192h-.001Z" data-sg-fill="sg-fill-0"></path><path d="M45.247,16.871c-.736-.558-1.497-1.074-2.269-1.533l-.455.765c.74.441,1.476.939,2.187,1.476,0,0,.537-.708.537-.708Z" data-sg-fill="sg-fill-0"></path><path d="M54.216,19.051h-.004l-.605-.651c-.637.594-1.273,1.263-1.885,1.988l.679.576c.59-.697,1.202-1.341,1.814-1.913h0Z" data-sg-fill="sg-fill-0"></path><path d="M49.358,25.286c.235-.42.501-.857.843-1.373l.064-.096c.263.498.48.996.654,1.487.05.139.096.281.142.423l.846-.27c-.05-.149-.1-.299-.149-.448-.245-.69-.573-1.394-.974-2.095l-.114.064-.612-.43c-.203.288-.402.58-.597.875-.352.533-.633.989-.878,1.43l.775.434h0Z" data-sg-fill="sg-fill-0"></path><path d="M49.525,34.053c.085.014.174.025.267.025.413,0,.832-.174,1.213-.501l-.58-.672c-.171.149-.434.331-.74.274-.306-.053-.583-.345-.761-.58-.032-.039-.06-.082-.089-.121l-.733.501c.036.053.075.107.114.16.398.523.839.829,1.309.914Z" data-sg-fill="sg-fill-0"></path><path d="M49.209,20.652c-.558-.683-1.188-1.359-1.871-2.006l-.612.644c.654.622,1.258,1.269,1.795,1.922l.688-.56Z" data-sg-fill="sg-fill-0"></path><path d="M55.703,16.654l.569.683.05-.043c.164-.135.231-.192,1.056-.811l-.534-.711c-.843.633-.918.694-1.092.839l-.05.043h0Z" data-sg-fill="sg-fill-0"></path><path d="M7.919,15.5l-.539-.706c-.384.295-.761.612-1.12.939l.601.654c.337-.309.696-.607,1.058-.888h0Z" data-sg-fill="sg-fill-0"></path><path d="M2.319,40.68l-.833.301c.334.918.743,1.817,1.252,2.746l.779-.427c-.487-.889-.878-1.746-1.198-2.62Z" data-sg-fill="sg-fill-0"></path><path d="M4.922,18.514v-.004l-.704-.541c-.605.786-1.156,1.64-1.64,2.539l.782.423c.462-.857.985-1.672,1.561-2.418h0Z" data-sg-fill="sg-fill-0"></path><path d="M.893,31.023h-.004c0-.601.025-1.213.075-1.814l-.886-.071c-.05.626-.078,1.259-.078,1.885,0,.373.011.75.028,1.124l.889-.043c-.018-.359-.025-.722-.025-1.081h0Z" data-sg-fill="sg-fill-0"></path><path d="M2.177,23.568s.004-.004,0-.004h.004l-.836-.302c-.338.932-.619,1.906-.832,2.895l.868.188c.206-.95.473-1.885.797-2.778h0Z" data-sg-fill="sg-fill-0"></path><path d="M1.142,35.02l-.886.089c.114,1.113.256,2.084.43,2.963l.871-.174c-.171-.85-.306-1.792-.416-2.877h.001Z" data-sg-fill="sg-fill-0"></path><path d="M5.168,47.454v-.004l.715-.526c-.292-.395-.562-.775-.818-1.145l-.733.505c.26.377.541.768.836,1.17Z" data-sg-fill="sg-fill-0"></path><path d="M95.288,18.536v-.004c-.359-.334-.74-.651-1.135-.939l-.526.718c.366.27.722.565,1.056.875l.605-.651h0Z" data-sg-fill="sg-fill-0"></path><path d="M98.428,22.985h.004c-.381-.85-.832-1.65-1.344-2.383l-.729.509c.48.683.903,1.437,1.259,2.237l.811-.363h0Z" data-sg-fill="sg-fill-0"></path><path d="M99.84,28.224c-.11-.918-.281-1.817-.505-2.667l-.861.228c.213.811.377,1.668.484,2.547l.882-.107h0Z" data-sg-fill="sg-fill-0"></path><path d="M97.98,38.666l-.004.004.861.224c.21-.8.402-1.657.59-2.618l-.871-.171c-.185.943-.373,1.778-.576,2.561Z" data-sg-fill="sg-fill-0"></path><path d="M96.145,43.531l.786.413c.416-.793.775-1.604,1.099-2.475l-.832-.309c-.309.836-.654,1.611-1.053,2.372h0Z" data-sg-fill="sg-fill-0"></path><path d="M99.107,30.923c0,.854-.05,1.729-.142,2.6l.886.096c.1-.903.149-1.81.149-2.696h-.893Z" data-sg-fill="sg-fill-0"></path><path d="M93.964,46.889l.704.544c.302-.391.59-.786.854-1.167l-.733-.505c-.256.37-.533.75-.825,1.127h0Z" data-sg-fill="sg-fill-0"></path><path d="M28.218,49.083c.54,0,.978-.438.978-.978s-.438-.978-.978-.978-.978.438-.978.978.438.978.978.978Z" data-sg-fill="sg-fill-0"></path><path d="M39.866,45.527c.54,0,.978-.438.978-.978s-.438-.978-.978-.978-.978.438-.978.978.438.978.978.978Z" data-sg-fill="sg-fill-0"></path><path d="M38.254,57h-.007c-.203,0-.409.05-.59.146-.583.317-.797.971-.605,1.533-.359.729-.829,1.373-1.369,1.896-.249.242-.512.459-.793.644-.825.548-1.796.843-2.728.843-.149,0-.299-.007-.445-.021h-.057c-.245,0-.466.167-.519.413-.071.309.142.619.459.651.192.021.388.032.583.032,1.135,0,2.29-.352,3.301-1.024.203-.135.402-.281.59-.441.501-.416.942-.914,1.33-1.476.16-.231.309-.469.448-.722.132.046.27.068.413.068.284,0,.573-.096.807-.292.597-.502.619-1.433-.011-1.96-.228-.188-.516-.288-.807-.288v-.002Z" data-sg-fill="sg-fill-0"></path><path d="M37.091,66.532v-.007c-.043-.007-.085-.007-.132-.011-.036,0-.075-.011-.11-.011-.189,0-.366.043-.526.114-.274.124-.494.345-.619.619-.341-.068-.683-.221-1.007-.388-.149-.078-.299-.156-.441-.235-.338-.188-.69-.384-1.003-.605-.587-.409-1.124-.953-1.632-1.65-.103-.142-.263-.217-.43-.217-.1,0-.203.028-.292.089-.256.167-.317.519-.135.765.576.793,1.195,1.412,1.878,1.889.078.053.156.1.235.149.285.185.576.352.861.512.551.306,1.216.676,1.963.775.206.43.644.726,1.145.726h.068c.797-.043,1.387-.811,1.152-1.633-.128-.448-.516-.8-.974-.882h-.001Z" data-sg-fill="sg-fill-0"></path><path d="M48.444,68.989l-.014.011h0c.445-.541.366-1.337-.174-1.785-.519-.43-1.28-.366-1.732.121-1.323-.558-2.34-1.376-2.717-1.789.299-1.746.26-3.542-.085-5.274.245-.007.48-.075.943-.224l.142-.046c.985-.32,1.899-.786,2.788-1.248.188.114.409.185.647.185.331,0,.626-.128.854-.334.253-.231.416-.562.416-.932s-.146-.672-.381-.903c-.228-.224-.541-.366-.889-.366-.701,0-1.266.569-1.266,1.266,0,.068.011.128.018.192-.814.423-1.654.843-2.518,1.124l-.142.046c-.356.117-.505.164-.669.164-.06,0-.125-.007-.203-.018-.512-1.828-1.369-3.557-2.547-5.054,1.298-.75,2.575-1.778,3.343-3.222.373-.704.64-1.533.79-2.461.63-3.93-1.145-8.091-4.417-10.353-1.889-1.305-4.343-2.088-7.501-2.394-.818-.078-1.597-.117-2.344-.121-.032-1.344.402-2.699,1.231-3.763.871-1.12,2.159-1.896,3.553-2.159.231.277.576.455.964.455.701,0,1.266-.569,1.266-1.266s-.569-1.266-1.266-1.266c-.626,0-1.142.455-1.245,1.049-1.615.327-3.101,1.234-4.115,2.536-.978,1.255-1.49,2.849-1.455,4.439-.999.046-1.935.171-2.824.366-.004-.861-.27-1.753-.772-2.529-.544-.846-1.373-1.586-2.397-2.141-1.408-.765-3.066-1.113-4.666-.985v.046c-.228-.277-.573-.455-.96-.455-.701,0-1.266.569-1.266,1.266s.569,1.266,1.266,1.266c.633,0,1.152-.466,1.248-1.074,1.334-.071,2.699.231,3.87.868.864.469,1.561,1.088,2.009,1.782.452.701.658,1.504.59,2.248-1.981.661-3.606,1.903-4.656,2.884-2.194,2.052-3.542,4.36-3.905,6.676-.156,1.014-.132,2.059.064,3.105-2.493-.132-4.784.21-6.804,1.031-2.443.989-4.435,2.682-5.609,4.766-.928,1.647-1.408,3.653-1.394,5.801.021,2.909.957,5.488,2.639,7.263.754.797,1.711,1.487,2.845,2.059.925.466,1.91.814,2.92,1.049-.071.345-.121.697-.149,1.049-.206,2.614.911,5.068,2.849,6.252.918.562,2.009.843,3.187.843s2.347-.26,3.567-.779c2.632-1.12,4.858-3.197,6.174-5.737.345.156.637.334.761.601.107.231.1.558.089.903-.014.519-.032,1.106.341,1.615.274.373.704.598,1.206.626h.114c.583,0,1.177-.256,1.572-.679.174-.188.306-.384.438-.576.053-.082.107-.16.164-.231-.043,1.405-.413,2.803-1.081,4.044-.651-.071-1.259.359-1.384,1.014-.132.686.317,1.352,1.007,1.483.686.132,1.352-.317,1.483-1.007.064-.338-.014-.672-.188-.939.878-1.611,1.305-3.461,1.231-5.292.285-.082.594-.135.9-.185l.103-.018c1.885-.32,3.446-.825,4.773-1.544.135,1.729-.231,3.493-1.053,5.018-.651-.071-1.259.359-1.383,1.014-.132.686.317,1.352,1.006,1.483.686.132,1.352-.317,1.483-1.007.064-.338-.014-.672-.188-.939,1.006-1.846,1.419-4.008,1.167-6.092l-.203.025c1.305-.864,2.322-1.963,2.963-3.219.277-.541.501-1.156.69-1.86.736.622,1.782,1.227,2.657,1.59.039.309.188.605.448.818.541.445,1.337.366,1.785-.174l-.002-.002ZM18.313,45.985c.409-2.625,2.173-4.744,3.581-6.06,1.074-1.006,2.788-2.312,4.855-2.835,1.199-.302,2.5-.452,3.944-.452.74,0,1.519.039,2.337.117,2.973.288,5.26,1.01,6.996,2.209,2.941,2.034,4.538,5.776,3.969,9.308-.132.811-.359,1.529-.679,2.127-1.088,2.041-3.453,3.176-5.139,3.848-3.83,1.529-7.86,2.33-11.982,2.379-.64.007-1.38,0-2.041-.196-1.127-.334-2.049-1.22-2.646-1.86-2.468-2.646-3.631-5.776-3.19-8.589l-.004.004h0ZM9.471,68.893h.004c-1.024-.516-1.881-1.135-2.55-1.839-1.494-1.579-2.326-3.902-2.347-6.537-.014-1.963.423-3.788,1.259-5.271,1.056-1.874,2.859-3.4,5.079-4.3,1.96-.793,4.204-1.11,6.665-.939.548,1.842,1.615,3.66,3.14,5.296.683.729,1.746,1.75,3.123,2.155.075.021.149.036.224.053-1.223,1.686-1.985,3.599-2.209,5.509-1.223-.028-2.536.292-3.998.985-2.127,1.007-3.795,2.408-4.819,4.055-.352.565-.637,1.17-.846,1.8-.943-.213-1.86-.534-2.724-.967h0ZM22.41,67.527c-1.7,1.355-3.784,2.255-5.936,2.543-1.063.142-2.148.128-3.212-.018.181-.498.409-.978.69-1.426.918-1.472,2.429-2.735,4.371-3.653,1.295-.612,2.433-.9,3.475-.886,0,.37.011.74.05,1.106h-.003c.086.81.281,1.594.565,2.333h0ZM20.955,77.283v-.004c-2.138.911-4.3.914-5.779.007-1.576-.96-2.514-3.073-2.344-5.257.025-.317.071-.63.135-.939.647.096,1.298.149,1.949.149.569,0,1.138-.036,1.7-.11,2.258-.299,4.446-1.213,6.256-2.596.843,1.572,2.134,2.845,3.692,3.574-1.209,2.29-3.229,4.158-5.609,5.175h0ZM38.639,71.365c-1.238.686-2.721,1.167-4.528,1.472v-.004l-.1.018c-.779.132-1.664.277-2.312.907-.217.21-.373.441-.523.665-.11.164-.217.32-.331.445-.203.221-.541.356-.843.338-.185-.011-.324-.075-.409-.192-.156-.213-.146-.555-.135-.95.014-.434.028-.921-.188-1.384-.206-.448-.569-.736-.957-.957,2.714.228,7.078.117,12.206-1.743-.537.523-1.17.989-1.881,1.383v.002ZM42.793,65.084c-.861.277-2.49.761-4.634,1.191.274.245.484.562.587.925v.011h.004c.167.594.064,1.216-.292,1.711-.352.494-.903.793-1.508.825h-.103c-.626,0-1.213-.302-1.583-.793-.743-.167-1.387-.526-1.874-.797-.359-.199-.768-.427-1.159-.701-.16-.114-.317-.235-.469-.363-2.674.142-5.602.028-8.557-.551-.146-.477-.249-.971-.302-1.472-.146-1.401.064-2.859.587-4.264,1.081.174,5.466.768,10.648.021.121-.064.242-.135.356-.21.718-.477,1.337-1.177,1.803-2.038-.135-.822.26-1.657,1.021-2.066.281-.153.605-.235.928-.235.462,0,.91.16,1.259.452.459.381.722.939.722,1.529,0,.43-.139.843-.391,1.184.768-.274,1.533-.583,2.29-.942.758,2.095.999,4.375.669,6.583h-.002Z" data-sg-fill="sg-fill-0"></path><path d="M69.648,49.112c.54,0,.978-.438.978-.978s-.438-.978-.978-.978-.978.438-.978.978.438.978.978.978Z" data-sg-fill="sg-fill-0"></path><path d="M58,43.599c-.54,0-.978.438-.978.978s.438.978.978.978.978-.438.978-.978-.438-.978-.978-.978Z" data-sg-fill="sg-fill-0"></path><path d="M87.36,49.997l-.011-.011h0c-2.02-.818-4.311-1.159-6.804-1.031.196-1.049.22-2.095.064-3.105-.363-2.315-1.711-4.624-3.905-6.676-.48-.452-1.088-.953-1.789-1.433.181-.697.626-1.369,1.248-1.874.644-.519,1.497-.889,2.468-1.063,1.312-.235,2.703-.096,3.948.388-.1.605.249,1.209.85,1.408.665.221,1.38-.142,1.6-.807.221-.665-.142-1.38-.807-1.6-.37-.121-.75-.06-1.06.128l.018-.043c-1.479-.626-3.162-.811-4.737-.526-1.145.206-2.162.651-2.948,1.284-.708.573-1.234,1.32-1.512,2.12-.782-.445-1.654-.832-2.6-1.07-.007,0-.014,0-.021-.004.573-1.526.601-3.251.053-4.787-.551-1.547-1.675-2.87-3.098-3.688.092-.601-.256-1.199-.854-1.394-.665-.221-1.38.142-1.6.807-.221.665.142,1.38.807,1.6.366.121.743.06,1.049-.124,1.238.686,2.212,1.825,2.689,3.158.484,1.355.441,2.881-.103,4.207-1.657-.288-3.485-.338-5.562-.135-3.158.306-5.612,1.088-7.501,2.394-3.272,2.266-5.047,6.427-4.417,10.353.149.928.416,1.757.79,2.461.768,1.444,2.045,2.475,3.343,3.222-1.12,1.423-1.949,3.052-2.468,4.78-.228-.071-.484-.146-.761-.228-.829-.245-1.832-.537-2.493-.825.007-.06.018-.117.018-.181,0-.701-.569-1.266-1.266-1.266-.135,0-.263.029-.384.068.274.317.445.722.445,1.17s-.185.896-.484,1.22c.132.046.274.078.423.078.242,0,.462-.071.654-.185.729.345,1.817.665,2.788.95.288.085.558.164.793.238-.313,1.401-.423,2.849-.317,4.282-.601.064-1.835.028-3.133-.359-.039-.665-.587-1.195-1.259-1.195s-1.266.569-1.266,1.266.569,1.266,1.266,1.266c.334,0,.637-.132.864-.345.878.27,2.027.462,2.977.462.238,0,.462-.014.669-.039.06.402.132.8.228,1.195.203.832.455,1.536.768,2.152.509.996,1.259,1.892,2.198,2.657-1.152,1.362-1.949,3.027-2.262,4.784-.306.096-.573.309-.736.612-.327.619-.092,1.387.526,1.714s1.387.092,1.714-.526c.313-.587.11-1.305-.445-1.657.292-1.579,1.014-3.076,2.063-4.293.203.132.416.26.633.381,1.344.743,2.938,1.266,4.865,1.59l.103.018c.306.05.612.103.9.185-.075,1.832.352,3.681,1.231,5.292-.178.267-.256.601-.188.939.132.686.797,1.138,1.483,1.006.686-.132,1.138-.797,1.007-1.483-.124-.654-.733-1.088-1.383-1.014-.665-1.241-1.039-2.635-1.081-4.044.053.075.107.153.164.235.128.192.263.391.437.576.395.427.989.679,1.572.679h.114c.501-.029.932-.253,1.206-.626.373-.509.356-1.095.341-1.615-.011-.345-.021-.669.089-.903.125-.267.413-.445.761-.601,1.32,2.539,3.542,4.613,6.174,5.737,1.22.519,2.436.779,3.567.779s2.269-.281,3.187-.843c1.938-1.184,3.059-3.638,2.849-6.252-.028-.352-.078-.704-.149-1.049,1.014-.235,1.995-.583,2.92-1.049,1.135-.569,2.091-1.263,2.845-2.059,1.682-1.775,2.618-4.357,2.639-7.263.014-2.152-.469-4.158-1.394-5.801-1.174-2.084-3.165-3.777-5.609-4.766v-.003ZM54.558,50.438h-.007v-.004c-.32-.601-.548-1.316-.676-2.127-.565-3.532,1.028-7.273,3.969-9.308,1.736-1.199,4.023-1.924,6.996-2.209.818-.078,1.597-.117,2.337-.117,1.44,0,2.746.149,3.944.452,2.066.523,3.781,1.828,4.855,2.835,1.408,1.316,3.169,3.436,3.581,6.06.441,2.813-.726,5.947-3.19,8.589-.598.64-1.519,1.526-2.646,1.86-.661.196-1.401.203-2.041.196-4.122-.05-8.155-.85-11.982-2.379-1.686-.676-4.054-1.807-5.139-3.848h-.001ZM68.592,72.702v.004c-.213.462-.199.953-.189,1.384.011.395.021.736-.135.95-.085.117-.224.181-.409.192-.299.018-.64-.117-.843-.338-.117-.125-.221-.281-.331-.445-.149-.224-.306-.455-.523-.665-.647-.626-1.529-.775-2.312-.907l-.1-.018c-1.807-.306-3.29-.786-4.528-1.472-.715-.395-1.344-.861-1.881-1.384,5.125,1.86,9.489,1.97,12.206,1.743-.388.217-.747.509-.957.957h.002ZM66.102,67.133c-.153.128-.309.249-.469.363-.391.274-.797.501-1.156.701-.487.27-1.131.63-1.874.797-.37.491-.957.793-1.583.793h-.103c-.605-.032-1.156-.331-1.508-.825s-.459-1.117-.292-1.711c.103-.363.313-.683.587-.925-2.145-.43-3.774-.914-4.634-1.191-.014-.085-.025-.171-.036-.256l.007-.007h-.007c-.274-2.13-.018-4.311.708-6.32v-.009c.756.355,1.52.667,2.287.941-.253-.338-.391-.75-.391-1.184,0-.59.263-1.145.722-1.529.349-.292.797-.452,1.259-.452.327,0,.647.082.928.235.758.413,1.156,1.245,1.021,2.066.466.861,1.085,1.561,1.803,2.038.114.075.235.146.356.21,5.182.747,9.567.153,10.648-.021.523,1.401.733,2.863.587,4.264-.053.501-.156.996-.302,1.472-2.956.58-5.883.69-8.557.551h0ZM82.69,77.315c-1.483.903-3.642.903-5.779-.007-2.383-1.014-4.399-2.884-5.612-5.175,1.558-.729,2.849-2.002,3.692-3.574,1.814,1.384,4.001,2.298,6.256,2.596.562.075,1.131.11,1.7.11.651,0,1.305-.053,1.949-.149.064.309.11.622.135.939l.004.004c.174,2.184-.768,4.296-2.344,5.257h0ZM76.018,65.219c.039-.366.053-.733.05-1.103,1.042-.014,2.18.274,3.475.886,1.942.918,3.453,2.18,4.371,3.653.281.448.509.928.69,1.426-1.067.146-2.152.16-3.212.018-2.155-.288-4.236-1.184-5.936-2.543.288-.74.48-1.526.565-2.337h-.004,0ZM90.938,67.086h.004c-.669.704-1.526,1.323-2.55,1.839-.861.434-1.778.754-2.724.967-.213-.63-.498-1.238-.846-1.8-1.024-1.647-2.692-3.048-4.819-4.055-1.465-.693-2.778-1.014-3.998-.985-.224-1.91-.985-3.82-2.209-5.509.075-.018.149-.032.224-.053,1.376-.409,2.44-1.426,3.123-2.155,1.526-1.636,2.593-3.453,3.141-5.296,2.461-.171,4.705.142,6.665.939,2.219.9,4.022,2.426,5.079,4.3.836,1.483,1.27,3.308,1.259,5.271-.018,2.635-.85,4.958-2.347,6.537h-.002Z" data-sg-fill="sg-fill-0"></path><path d="M60.469,60.222c.384.558.829,1.056,1.33,1.476.189.156.384.306.59.441,1.01.672,2.166,1.024,3.301,1.024.196,0,.388-.011.583-.032.317-.036.53-.341.459-.651-.057-.245-.274-.413-.519-.413h-.057c-.146.014-.295.021-.445.021-.932,0-1.903-.295-2.728-.843-.277-.185-.544-.402-.793-.644-.544-.523-1.01-1.167-1.369-1.896.192-.558-.021-1.216-.605-1.533-.181-.1-.388-.146-.59-.146-.288,0-.58.096-.807.288-.63.523-.608,1.458-.011,1.96.234.195.52.29.804.291.137,0,.275-.021.409-.067.139.253.288.491.448.722v.002Z" data-sg-fill="sg-fill-0"></path><path d="M66.675,64.159c-.164,0-.327.075-.43.217v.007c-.509.701-1.046,1.241-1.632,1.65-.313.221-.665.416-1.003.605-.142.078-.292.16-.441.235-.324.167-.665.32-1.007.388-.128-.27-.345-.491-.619-.619-.16-.075-.334-.114-.526-.114-.036,0-.075.007-.11.011-.043,0-.085,0-.132.011-.459.082-.846.434-.974.882-.235.822.356,1.59,1.152,1.632h.068c.501,0,.939-.295,1.145-.726.747-.1,1.416-.469,1.963-.775.284-.16.576-.327.861-.512.078-.05.156-.096.235-.149.683-.477,1.298-1.099,1.878-1.889.181-.249.121-.597-.135-.765-.089-.06-.192-.089-.292-.089h0Z" data-sg-fill="sg-fill-0"></path><path d="M34.591,84.361s.388.363,1.046.971l.601-.654c-.654-.601-1.039-.964-1.039-.964,0,0-.608.647-.608.647Z" data-sg-fill="sg-fill-0"></path><path d="M37.799,87.302c.665.597,1.405,1.255,2.187,1.942l.587-.669c-.779-.683-1.515-1.337-2.18-1.935,0,0-.594.662-.594.662Z" data-sg-fill="sg-fill-0"></path><path d="M42.202,91.154h.004c.793.672,1.554,1.302,2.255,1.871l.558-.694c-.697-.562-1.451-1.188-2.241-1.857l-.576.679h0Z" data-sg-fill="sg-fill-0"></path><path d="M48.206,94.771h-.004c-.292-.206-.59-.427-.893-.654l-.533.711c.398.299.786.58,1.159.843.078.053.167.082.256.082.078,0,.16-.021.231-.064.014-.011.391-.238,1.202-.829l-.523-.718c-.416.302-.711.505-.896.629h.001Z" data-sg-fill="sg-fill-0"></path><path d="M55.865,88.606l.585.667c.679-.598,1.408-1.248,2.191-1.953l-.598-.658c-.775.7-1.503,1.347-2.178,1.944Z" data-sg-fill="sg-fill-0"></path><polygon points="55.863 88.607 55.865 88.606 55.863 88.604 55.863 88.607" data-sg-fill="sg-fill-0"></polygon><path d="M51.403,92.37l.555.694c.701-.562,1.465-1.191,2.269-1.871l-.576-.679c-.797.672-1.554,1.298-2.248,1.857h0Z" data-sg-fill="sg-fill-0"></path><path d="M60.202,84.681l.605.651c.341-.317.686-.64,1.042-.971l-.608-.647c-.356.331-.701.654-1.039.967Z" data-sg-fill="sg-fill-0"></path><path d="M10.798,14.666c.121.686.473,1.024,1.042.921.302-.053.69-.206,1.224-.715.8-.761,2.372-3.123,3.108-5.029.206,0,.427-.021.63-.057,1.423-.249,2.842-1.117,3.966-1.899.907.359,1.33.907,1.444,1.561.171.971-.356,2.116-.932,3.062-1.042,1.65-3.155,3.382-5.2,3.738-1.174.206-1.814-.114-1.942-.836-.121-.704-1.202-.256-.978.43.413,1.273,1.775,1.572,3.133,1.334,2.244-.391,4.538-2.191,5.779-4.168.775-1.206,1.305-2.507,1.103-3.677-.135-.772-.605-1.483-1.536-2.081,1.622-1.284,2.312-2.977,2.088-4.247-.221-1.273-1.32-2.116-3.261-1.778-.871.153-1.921.558-3.13,1.255-3.116,1.839-6.804,8.18-6.583,11.833.004.121.025.238.046.356v-.004h-.001ZM15.521,8.787v-.004c-.213-.032-.42-.135-.445-.267-.025-.149.317-.366.651-.423l-.206.694ZM16.513,8.833l.267-.946c.953-.181,1.935-.285,2.799-.281-.978.637-1.963,1.017-3.066,1.227ZM13.127,9.114c1.209-2.472,2.842-4.691,4.702-5.79.519-.299,1.814-.989,2.934-1.184,1.291-.224,1.878.277,2.02,1.095.242,1.391-1.213,2.835-2.166,3.606-1.191-.292-2.411-.167-3.599.043.117-.608.277-1.273.295-1.881-.007-.327-.249-.526-.516-.48-.253.043-.409.139-.459.53-.085.69-.192,1.38-.331,2.059-1.053.288-2.024.854-1.91,1.508.057.317.345.889,1.113,1.049-.754,1.91-1.81,3.766-3.468,5.04-.313-1.981.523-3.82,1.387-5.594h-.004.002Z" data-sg-fill="sg-fill-0"></path><path d="M25.97,13.36v-.003c1.416.085,2.795-.651,3.806-1.444-.171.946.188,1.867,1.593,2.198,2.664.626,5.733-1.796,5.833-2.226.043-.181-.071-.437-.253-.48-.149-.036-.334.007-.48.114-1.526,1.074-3.183,2.027-4.872,1.633-.349-.082-.786-.377-.811-1.01,1.714.071,4.727-1.231,5.068-2.685.124-.53-.206-1.131-.9-1.295-1.006-.238-2.685.491-3.866,1.608-.025-.007-.046-.014-.071-.014-.153-.011-.327.064-.455.192-1.323,1.316-2.795,2.536-4.528,2.429-.356-.021-.836-.238-.967-.861,1.7-.221,4.449-2.009,4.542-3.503.032-.544-.395-1.081-1.106-1.124-1.579-.096-4.332,2.29-4.46,4.428-.064,1.015.426,1.949,1.928,2.044h-.001ZM34.463,9.193v.004c.167.039.27.117.238.249-.053.231-.452.59-.896.836-.846.484-1.906.829-2.71.829.708-1.074,2.504-2.102,3.368-1.917h0ZM28.193,7.994c.171.011.284.068.277.203-.014.238-.349.661-.74.978-.754.619-1.739,1.138-2.532,1.277.516-1.177,2.113-2.493,2.995-2.458Z" data-sg-fill="sg-fill-0"></path><path d="M55.066,13.934l.011.014h0c1.014-.391,2.546-1.387,3.784-3.599.185-.327.701-1.11.565-1.458-.068-.174-.277-.384-.626-.249-.285.11-.43.587-.551.832-.445.921-.989,1.732-1.629,2.344-.573.548-1.252.96-1.903,1.209-.459.178-.882.267-1.07-.224-.637-1.65,2.81-5.883,5.666-6.985.743-.288,1.43-.352,2.013-.032.327.185.637.519.822.996.178.459.249,1.07.188,1.896-.135,1.675-.935,4.225-1.512,5.47-.128.284-.868,1.483-.651,1.857.078.206.405.391.601.277.238-.092.669-1.099.754-1.348.544-1.561,1.053-2.65,1.775-6.249.217-1.088.285-1.295.477-1.736.534-1.17,1.832-3.517,3.084-4.001.605-.235.349,1.323.313,2.031-.128,2.728-.089,2.55-.349,3.909-.249,1.337-.288,1.515-.459,2.255-.064.263-.277.928-.156,1.245.078.206.434.324.64.245.096-.036.164-.1.242-.313.096-.274.441-1.828.505-2.184.238-1.078.58-2.411,1.081-3.756.925-2.507,2.219-4.961,3.297-5.378.445-.171.164,1.835.021,2.927-.277,2.205-.733,4.752-.107,6.366.192.491.665,1.11,1.476.797,1.014-.391,2.5-3.336,2.735-4.286.05-.203.064-.352,0-.512-.085-.221-.253-.324-.459-.242-.078.032-.135.071-.253.242-.242.366-.498,1.305-.836,1.892-.438.754-.982,1.746-1.444,1.924-.889.345-.469-4.083-.149-6.469.217-1.654.181-2.219.153-2.482-.021-.192-.057-.381-.125-.555-.178-.459-.562-.747-1.227-.53-1.398.487-2.827,3.155-3.653,5.168.053-.804.128-1.928-.103-2.532-.146-.381-.437-.704-.896-.765-.21-.028-.398.007-.573.075-1.426.551-3.023,3.45-3.503,4.417-.338-.637-.665-1.202-1.284-1.526-.779-.409-1.846-.341-2.941.082-3.315,1.284-6.953,5.826-6.004,8.283.356.921,1.167,1.081,2.258.658h.002Z" data-sg-fill="sg-fill-0"></path><path d="M78.533,6.01v.004c.103.004.206-.025.327-.121l.914-.747c.124-.114.181-.231.185-.334.011-.27-.217-.519-.473-.53-.103-.004-.224.043-.327.121l-.914.747c-.125.096-.178.231-.185.349-.011.256.217.501.473.512h0Z" data-sg-fill="sg-fill-0"></path><path d="M74.66,11.746c-.027.677.399,1.035,1.01,1.06.736.028,1.725-.516,2.632-1.181-.082.156-.156.32-.189.487-.057.284.075.569.292.615.398.082,1.113-.519,1.319-.686,1.088-.925,3.062-2.102,4.545-2.739-.843.903-2.237,2.479-2.426,3.411-.089.434.206.701.672.797.761.153,2.07-.391,3.212-1.042-.021.043-.046.085-.064.132-.373.95-.199,1.988,1.206,2.543,2.547,1.007,5.929-.946,6.092-1.359.068-.174-.007-.441-.181-.512-.142-.057-.331-.039-.491.043-1.668.839-3.443,1.547-5.057.907-.331-.132-.722-.487-.654-1.117,1.682.317,4.855-.533,5.402-1.924.199-.505-.039-1.149-.704-1.412-.839-.331-2.294-.011-3.535.697-.039-.025-.085-.043-.142-.057-.149-.028-.338.036-.462.132-.999.733-3.35,1.992-3.87,1.889-.085-.018-.128-.06-.107-.16.153-.75,2.059-2.707,2.888-3.372.167-.139.238-.317.27-.484.057-.285-.096-.558-.395-.619-.1-.021-.221-.028-.349.014-1.561.341-4.083,1.825-5.52,2.767.349-.605.697-.953,1.152-1.501.306-.388.669-.644.943-1.056.068-.075.103-.171.117-.238.043-.217-.1-.366-.317-.409-.199-.039-.437.014-.629.203-.377.341-.818.822-1.216,1.305-.043.025-.085.057-.128.089-.281.228-.548.523-.814.782-.761.701-2.674,2.152-3.318,2.127-.153-.025-.235-.096-.228-.281.032-.814,1.6-2.504,2.596-3.567.089-.1.128-.217.132-.334.011-.22-.203-.466-.455-.477-.117-.004-.256.057-.381.171-.512.473-1.177,1.33-1.625,1.874-.376.462-1.185,1.597-1.223,2.482ZM90.643,10.722h0c.156.06.249.153.199.281-.089.221-.534.519-1.007.697-.907.356-2.006.541-2.803.43.854-.96,2.781-1.718,3.61-1.408h.001Z" data-sg-fill="sg-fill-0"></path><path d="M35.043,51.775h.018c.722-.007,1.383-.341,1.97-.996.132-.146.121-.37-.025-.501s-.37-.121-.502.025c-.448.498-.935.754-1.444.761-.907.014-1.647-.747-1.664-.765-.135-.142-.359-.149-.501-.014s-.149.359-.014.501c.039.039.946.989,2.162.989Z" data-sg-fill="sg-fill-0"></path><path d="M62.496,51.334h.018c1.216,0,2.123-.95,2.162-.989.135-.142.128-.366-.014-.501s-.366-.128-.501.014c-.007.007-.74.765-1.643.765h-.021c-.512-.007-.999-.263-1.444-.761-.132-.146-.356-.156-.502-.025-.146.132-.156.356-.025.501.587.651,1.252.989,1.97.996Z" data-sg-fill="sg-fill-0"></path></svg>