<svg xmlns="http://www.w3.org/2000/svg" id="a" version="1.1" viewBox="0.0 0.0 100.0 150.1701542248932">
    <g transform="scale(0.362030265730215)"><path d="M210.97,311.56c.95-.78,1.86-1.27,2.41-2.02,3.74-5.08,8.84-5.55,14.35-4.13,4.02,1.04,7.21,3.57,9.95,6.63,3.16,3.53,5.55,7.54,7.11,12.04.29.84.64,1.66,1.08,2.78,1.2-.63,2.18-1.19,3.2-1.65,2.84-1.28,5.61-2.85,8.58-3.68,7.21-2.02,12.74.61,15.33,7.64,1.55,4.22,2.63,8.78,2.96,13.25.95,12.94-.51,25.74-3.54,38.36-.12.51-.25,1.01-.37,1.52-2.72,11.84-9.81,19.46-21.51,23-11.75,3.55-23.63,6.3-35.86,7.5-24.42,2.41-48.88,2.43-73.35,1.16-21.08-1.09-42.03-3.24-62.79-7.22-11.75-2.25-22.88-6.01-33.26-12-3.15-1.82-6.51-3.28-9.74-4.96-3.51-1.83-7.12-2.14-10.99-1.35-3.29.67-6.67,1.27-10.01,1.27-8.17,0-13.9-5.07-14.47-12.35-.6-7.75,4.79-14.35,12.8-15.62,1.4-.22,2.81-.3,4.39-.47.08-.57.31-1.1.2-1.53-1.92-7.74-.96-15.55-.5-23.33.25-4.16.68-8.31,1-12.46.68-8.75-.05-17.43-1.06-26.12-.99-8.54-1.79-17.11-1.08-25.72.72-8.69,3.15-16.9,7.38-24.51,1.37-2.47,3.18-4.78,5.14-6.83,5.64-5.87,9.22-6.29,16.29-2.23,1.63-1.47,1.41-3.35.51-4.9-2.68-4.6-1.79-8.98.3-13.41,1.99-4.24,1.36-8.68.8-13.07-.76-5.94-1.78-11.85-2.5-17.8-1.06-8.73.36-17.14,3.59-25.28,1.63-4.1,3.63-8.09,4.88-12.3,1.09-3.7,1.71-7.62,1.91-11.48.27-5.07.89-9.73,4.77-13.58,2.44-2.41,2.25-3.31.49-6.21-1.28-2.12-2.69-4.15-3.92-6.3-1.03-1.81-1.68-3.76-1.15-6.06h10.69c1.34-4.41,2.65-8.73,4.05-13.35,3.15.49,6.1.81,8.98,1.46,2.26.51,3.61-.1,4.82-2.09,2.15-3.52,4.57-6.88,7.13-10.66.91,1.17,1.59,1.91,2.12,2.73,3.65,5.7,7.27,11.43,10.91,17.14.77,1.21,1.5,2.4,3.17,2.61,7.22.89,14.44,1.84,21.63,2.76,1.61-2.44,3.05-4.74,4.61-6.95,1.44-2.03,1.04-4.16.71-6.38-.88-5.94,1.58-10.01,7.02-11.88,6.64-2.28,11.97,1.99,11.19,8.98-.07.64-.12,1.35-.43,1.9-2.36,4.26-.9,7.88,1.45,11.65,4.59,7.37,6.37,15.45,4.2,23.96-.92,3.59-2.74,7.02-4.61,10.25-1.13,1.96-1.33,3.46-.83,5.71,1.18,5.31,3.5,9.15,8.78,11.43,3.36,1.45,4.66,5.16,5.32,8.71.61,3.33,1.06,6.69,1.33,10.07.27,3.47,1.73,6.17,4.31,8.44,1.86,1.63,3.67,3.34,5.3,5.2,3.18,3.62,5.04,7.64,2.81,12.5-.72,1.57-.1,2.82.93,3.9,1.53,1.6,3.22,3.05,4.72,4.67,1.76,1.9,3.6,3.79,5.04,5.93,3.14,4.65,2.41,10.27-1.7,14.07-1.53,1.41-2.44,2.98-2.53,5.07-.23,5.1-2.37,9.25-6.3,12.51-.5.41-.92.92-1.35,1.41-2.53,2.86-2.57,3.2-.62,6.41,10.53,17.38,21.06,34.75,31.61,52.12.59.98,1.31,1.87,2.24,3.18l-.02-.04h0ZM130.18,223.41c.84,5.16,1.61,9.9,2.4,14.64,2.98,17.99,5.97,35.98,8.93,53.97.68,4.11.27,4.84-3.45,6.73-.58.3-1.17.57-1.78.81-6.8,2.71-13.77,4.91-21.03,5.78-3.28.39-6.73-.1-10.03-.64-3.55-.57-5.63-2.9-6.36-6.53-2.31-11.52-4.18-23.08-3.95-34.88.14-7.04.42-14.07.51-21.11.04-3.06.35-6.18-.8-9.38-1.82.09-3.5.11-5.16.25-12.19,1.06-24.38,2.24-36.58,3.14-2.58.19-3.88,1.04-4.96,3.37-13.31,28.65-23.35,58.26-26.96,89.82-1.28,11.21-1.46,22.36,1.25,33.42.17.7.21,1.44.34,2.39-1.32,0-2.36-.14-3.35.03-3.19.53-6.5.79-9.51,1.86-4.88,1.74-6.98,5.63-6.09,10.04,1.13,5.61,4.95,9.18,10.12,9.09,2.58-.05,5.27-.25,7.7-1.04,6.73-2.19,12.68-1.16,18.45,2.93,9.49,6.73,20.36,10.37,31.49,13.34,18.61,4.96,37.65,7.14,56.82,7.46,27.47.45,54.96.27,82.44.16,13.54-.06,26.56-3.22,39.37-7.48,9.76-3.24,15.6-9.77,18.23-19.66,3.11-11.68,3.77-23.62,4.62-35.58.4-5.62-.89-10.87-2.47-16.11-.36-1.19-1.47-2.15-2.7-3.86-.87,2.11-1.41,3.39-1.93,4.68-.46,1.15-.09,3.06-2.43,2.65-1.01-3.09,1.16-5.5,1.7-8.14-5.59-2.56-7.84-1.52-9.17,4.11-.09.38,0,.86-.21,1.14-.34.47-.84.82-1.28,1.22-.39-.56-1.08-1.1-1.1-1.67-.04-1.25.25-2.5.48-4.32-5.56,2.96-8.93,7.08-10.74,12.43-.86,2.53.2,4.1,2.9,5.04,1.96.68,3.99,1.21,5.92,1.95,1.27.49,2.62,1.11,2.35,3.38-1.8-.42-3.41-.77-5.01-1.19-17.03-4.43-34.17-8.32-51.8-9.41-16.17-1-32.01.34-47.11,6.81-1.67.72-3.33,1.5-5.06,2.05-.58.18-1.71-.08-1.95-.51-.29-.51-.16-1.73.25-2.07,1.08-.88,2.35-1.63,3.67-2.11,3.05-1.11,6.21-1.94,9.26-3.09,1.36-.51,2.53-1.51,4.06-2.44-.96-.91-1.49-1.46-2.07-1.95-2.99-2.51-6.09-4.9-8.96-7.54-1.61-1.48-2.91-3.32-4.22-5.08-.29-.4-.28-1.56,0-1.72.56-.34,1.58-.56,2.05-.26,1.3.84,2.47,1.9,3.59,2.99,3.35,3.28,6.63,6.63,9.99,9.91,1.63,1.59,3.5,2.53,5.92,2.54,15.76.03,31.52.15,47.28.21.95,0,1.89-.29,3.1-.49-.58-1.79-.99-3.15-1.46-4.5-3.56-10.11-8.05-19.83-13.64-28.95-8.91-14.55-18.17-28.89-27.32-43.29-4.37-6.89-4.38-6.83,1.35-12.77,1.8-1.86,3.57-3.81,5.01-5.96,1.11-1.66,1.92-3.69.38-5.76-1.68.34-3.19.88-4.71.9-1.64.02-3.43-.11-4.9-.75-2.97-1.29-4.3-5.38-3.17-8.78.83-2.48,3.31-3.58,6.84-3,2.81.46,5.18,1.66,6.8,4.12.41.62.9,1.17,1.32,1.71,3.6-1.57,4.52-3.09,3.62-6.33-1.55-5.61-5.02-9.89-9.46-13.53-2.09-1.71-3.98-1.79-6.44-.68-12.22,5.52-24.68,10.42-37.55,14.26-1.11.33-2.18.76-3.61,1.27l-.02-.04h0ZM146.53,144.67c-2.4.81-4.33,1.64-6.34,2.09-2.81.63-5.7.84-8.41-.43-.55-.26-1.18-1.22-1.09-1.73.09-.49,1.04-1.08,1.67-1.16,1.01-.13,2.06.17,3.1.21,5.74.22,10.35-1.86,13.8-6.58,5.68-7.75,5.51-22.22-.47-30.59-.26-.04-.53-.15-.76-.09-.88.23-1.75.49-2.6.8-3.8,1.39-6.97.62-9.5-2.3-4.17,1-3.26,5.47-5.48,8.26-1.76-.29-3.66-.51-5.53-.92-3.18-.68-6.31-1.6-9.5-2.19-3.21-.59-6.43-.58-9.42.74-3.31,15.96-21.05,30.69-39.92,23.66-1.98,2.88-4.14,5.79-6.06,8.86-9.08,14.52-13.87,30.21-12.68,47.49.4,5.86.39,5.89,6.15,6.91,11.47,2.03,22.84,1.2,34.1-1.4,19.07-4.4,36.41-12.38,51.32-25.27,3.98-3.44,7.32-7.41,9.15-12.45,1.74-4.81,1.38-9.4-1.53-13.9h0ZM59.6,111.77c.23,1.29.19,1.86.43,2.26,3.33,5.72,6.66,11.45,10.08,17.11,1.09,1.81,3,2.67,5,2.51,2.55-.21,5.22-.5,7.56-1.45,6.78-2.73,12.28-7.23,16.54-13.19.97-1.36,1.75-2.89,2.46-4.42,1.05-2.25.96-4.39-.4-6.65-3.22-5.34-6.22-10.81-9.34-16.22-.49-.85-1.12-1.63-1.97-2.85-1.78,2.76-3.56,5-4.77,7.53-1.63,3.39-4.06,4.24-7.55,3.66-2.26-.37-4.6-.28-7.17-.41-.6,4.16-1.14,7.96-1.74,12.12h-9.14.01ZM145.56,169.98c1.56,5.15,2.81,9.35,4.1,13.54.87,2.84,1.4,5.88,2.76,8.47,2.3,4.35,5.13,8.43,7.79,12.58.53.83,1.31,1.5,2.1,2.39,3.82-1.86,7.44-3.59,11.02-5.39,3.34-1.67,3.89-3.19,2.05-6.47-.87-1.55-2.12-2.95-3.4-4.2-1.38-1.36-2.95-2.55-4.53-3.68-2.48-1.78-3.83-4.19-4.29-7.15-.3-1.93-.45-3.87-.74-5.8-.43-2.82-.71-5.7-1.46-8.44-1-3.65-3.17-6.45-7.26-7.77-2.88,4.22-5.73,8.38-8.15,11.92h0,0ZM23.35,301.91c.19-.87.31-1.37.41-1.87,2.78-13.67,6.31-27.1,11.93-39.92,1.66-3.8,2.9-7.8,4.17-11.76.51-1.59.78-3.32.8-4.98.04-3.13-1.53-4.27-4.5-3.42-1.11.32-2.2.82-3.2,1.4-3.25,1.91-5.39,4.84-7.11,8.11-2.93,5.6-4.59,11.61-5.5,17.82-1.53,10.35-2.13,20.71.19,31.05.34,1.51.46,3.1,2.82,3.57h-.01ZM228.55,308.61c-1.9-.27-3.26-.62-4.62-.62-6.26.03-11.39,6.97-8.9,12.5,2.29,5.09,4.29,10.31,6.36,15.5.7,1.75,1.85,2.58,3.74,2.86,3.46.51,6.87,1.35,10.32,1.94,3.2.55,3.87.17,4.74-3.01.75-2.75,1.44-5.55,1.74-8.38.46-4.27-.82-8.13-3.29-11.5-3.16,1.41-1.47,5.57-4.69,7.06-1.35-3.96,1.12-6.66,2.51-9.97-1.77-1.56-3.52-3.11-5.72-5.06-1.05,2.28-1.69,3.96-2.56,5.5-.77,1.37.42,3.92-2.53,4.21-1.02-3.96,1.02-7.08,2.89-11.03h0,0ZM110.32,225.5c4.76-1.03,8.95-1.9,13.11-2.87,1.13-.26,2.25-.7,3.27-1.25,2.3-1.25,2.68-2.29,1.64-4.78-3.33-7.92-6.71-15.82-10.12-23.71-1.13-2.6-1.6-3.03-4.15-2.15-3.66,1.27-7.16,3.01-10.7,4.63-1.42.65-1.62,1.87-1.17,3.3.94,2.98,1.81,5.98,2.71,8.97,1.76,5.84,3.53,11.67,5.4,17.85h.01s0,0,0,0ZM98.87,270.63c-.03,2.86-.3,5.45-.02,7.97.51,4.64,2.84,6.78,7.46,6.76,7.43-.04,14.77-1.15,21.86-3.28,7.71-2.31,10.09-9.82,5.57-16.9-11.42,1.79-22.92,3.58-34.87,5.45h0ZM84.28,231.57c-1.3-10.39-2.42-20.11-4.21-30.13-5.5.51-10.6.97-16.22,1.49.93,10.15,1.55,19.9,2.83,29.95,5.94-.44,11.45-.85,17.6-1.31ZM105.32,246.53c6.82-.36,13.07-1.49,19.2-3.32.74-.22,1.46-.56,2.15-.92,1.52-.78,2.55-2.05,2.31-3.75-.56-3.98-1.28-7.93-2.06-11.87-.3-1.51-1.4-2.09-2.96-1.7-7.68,1.93-15.37,3.85-23.06,5.77-1.27.32-2.02,1.07-2.16,2.42-.3,2.98-.76,5.94-.94,8.92-.14,2.42.55,3.32,2.91,3.89,1.62.39,3.34.4,4.6.54v.02s0,0,0,0ZM147.81,92.14c-.1-3.09-2.84-5.88-5.7-5.81-3.61.08-5.69,2.32-5.62,6.05.07,3.89,2.49,6.68,5.7,6.56,3.01-.12,5.74-3.42,5.63-6.8h-.01ZM180.43,231.36c-.57-3.76-2.75-5.61-6.05-5.64-2.05-.02-3.28.84-3.38,2.39-.12,1.89.97,3.02,2.67,3.19,2.13.22,4.31.05,6.76.05h0s0,0,0,0ZM58.64,139.21c3.25-3.15,5.61-6.33,6.76-10.66-5.17.49-7.7,4.49-6.76,10.66Z" data-sg-fill="sg-fill-0" />
  <path d="M112.97,55.32c1.94,1.49,3.27,2.5,4.79,3.67-.96,1.12-1.58,1.84-2.3,2.68-1.76-1.26-3.3-2.36-5.17-3.7-.51,1.51-.87,2.71-1.31,3.88-.83,2.2-.92,2.21-3.77.89.33-1.58.66-3.18,1.09-5.26-1.96.42-3.54.76-5.1,1.09-1.77-2.65-1.74-2.8.77-3.8.84-.33,1.67-.68,2.5-1.03.09-.04.13-.19.54-.84-1.23-.88-2.58-1.85-3.8-2.73,1.45-3.16,1.82-3.3,3.87-1.78.52.39.97.87,1.47,1.27.4.32.83.59,1.67,1.18.47-1.39.84-2.57,1.26-3.73.8-2.24.81-2.23,3.89-1.33-.36,1.69-.72,3.4-1.18,5.55,2.04-.46,3.72-.84,5.37-1.21,1.4,2.87,1.41,2.88-.83,3.8-.95.39-1.92.73-3.76,1.42,0,0,0-.02,0-.02Z" data-sg-fill="sg-fill-0" />
  <path d="M144.13,7c0,4.05-3.76,7.87-7.66,7.81-3.57-.06-6.97-3.2-7.06-6.51-.1-3.94,3.91-8.22,7.8-8.3,3.57-.08,6.92,3.31,6.92,7ZM133.69,7.34c-.03,2.19,1.36,3.72,3.48,3.82,1.87.09,2.99-.9,3.04-2.67.06-2.18-2.03-4.5-3.98-4.44-1.48.05-2.51,1.39-2.54,3.3,0,0,0-.01,0,0Z" data-sg-fill="sg-fill-0" />
  <path d="M207.32,250.2c3.73.05,6.98,3.17,6.87,6.58-.12,3.54-3.47,6.96-6.71,6.87-3.51-.11-7-3.86-7.07-7.6-.06-3.36,2.94-5.89,6.91-5.84h0s0,0,0,0ZM211.05,254.79c-2.58-.67-4.52-1.18-6.36.22,0,.66.04,1.18,0,1.69-.13,1.33-.27,2.96,1.34,3.17,1.07.14,2.57-.51,3.36-1.32.85-.87,1.08-2.34,1.68-3.77h-.02s0,.01,0,.01Z" data-sg-fill="sg-fill-0" />
  <path d="M165.28,56.9c-.06,3.4-2.89,6.23-6.2,6.2-3.23-.03-5.94-2.59-5.85-5.53.1-3.27,3.42-6.62,6.54-6.59,2.95.03,5.56,2.83,5.51,5.92h0ZM158.73,54.36c-1.44.14-2.05,1.13-2.08,2.63-.03,1.98,1.19,3.25,3.1,3.19,1.35-.04,2.25-.65,2.4-2.04.18-1.72-1.61-3.75-3.42-3.78h0Z" data-sg-fill="sg-fill-0" />
  <path d="M77.49,303.89c-3.01-.75-4.59-2.99-5.68-5.52-1.7-3.93-3.32-7.91-4.67-11.98-.6-1.8-.56-3.84-.58-5.78-.01-1.7.94-2.95,2.56-3.58,1.68-.65,3.15-.13,4.22,1.16.98,1.19,2,2.49,2.48,3.92,1.5,4.43,2.75,8.93,4.09,13.41.35,1.18.67,2.37,1.04,3.68,2.15-.63,1.97-2.09,2.11-3.3.59-5.04,1.1-10.09,1.7-15.13.18-1.52.53-3.03.8-4.51,3.32.34,4.1.81,3.9,3.24-.45,5.57-.9,11.18-1.97,16.65-.44,2.24-2.19,4.43-3.85,6.15-1.71,1.76-2.46,3.6-2.37,5.91.14,3.77.24,7.55.52,11.32.35,4.77-.12,9.36-2.37,13.67-1.5,2.87-1.82,5.82-1.33,9.07.86,5.65,1.41,11.36,1.9,17.06.19,2.19.09,4.45-.28,6.62-1.13,6.65-7.12,9-12.56,4.95-1.23-.92-2.43-2.09-3.17-3.41-2.98-5.33-6.13-10.6-8.58-16.17-10.69-24.28-13.48-49.58-8.97-75.69,1.52-8.79,4.32-17.21,8.8-24.93,1.67-2.87,3.89-5.54,6.31-7.83,3.81-3.61,11.9-4.1,15.36,2.58,1.86,3.57,3.79,7.12,5.4,10.81,1.06,2.42.83,2.59-.75,5.46-.87-1.16-1.75-2.06-2.29-3.13-.98-1.98-1.76-4.05-2.61-6.1-.35-.84-.59-1.73-1.02-2.52-3.87-7.09-9.51-7.58-14.37-1.16-5.37,7.1-8.13,15.38-10.18,23.91-5.2,21.63-3.59,42.97,3.22,63.96,2.37,7.29,5.41,14.38,8.59,21.36,1.59,3.49,3.94,6.75,6.43,9.7,2.32,2.74,4.1,2.19,5.29-1.28,2.03-5.93,1.62-12.08,1.29-18.2-.09-1.68-.45-3.35-.69-5.03-.41-2.99-1.84-5.14-4.42-6.96-7.79-5.49-10.29-13.71-10.92-22.74-.04-.51.09-1.04.17-1.55.81-4.98,4.34-6.51,8.32-3.39,1.36,1.06,2.48,2.71,3.15,4.32.99,2.39,1.43,5,2.18,7.49.65,2.18,1.41,4.32,2.64,6.39.87-7.63,1.56-15.15,1.14-22.9,0,0,.02,0,.02,0ZM64.92,310.44c-.4.22-.81.45-1.21.67-.38,7.87,2,14.94,6.8,21.24.42.56,1.43.67,3.09,1.39-1.9-6.73-3.38-12.61-5.27-18.35-.6-1.83-2.25-3.31-3.42-4.95,0,0,.01,0,0,0ZM71.03,282.34c.19,4.94.54,9.82,4.65,13.4-.67-4.77-.38-9.88-4.65-13.4Z" data-sg-fill="sg-fill-0" />
  <path d="M77.96,157.69c3.85.83,6.7-.04,8.47-3.48.29-.57.63-1.31,1.13-1.54.71-.32,1.69-.48,2.37-.22.4.15.79,1.42.57,1.91-1.45,3.27-3.42,6.23-6.91,7.56-1.37.52-3.1.61-4.55.31-4.37-.89-7.78-6.54-7.24-11.61.5-4.72,4.13-8.02,9.31-8.28.42,1.32-.37,2.08-1.24,2.89-4.37,4.06-4.79,6.72-1.91,12.46h0Z" data-sg-fill="sg-fill-0" />
  <path d="M108.81,130.09c0-1.66.57-2.71,2.51-2.48.64.07,1.31.12,1.93,0,2.85-.54,3.97-3.66,2.12-5.91-.48-.58-1.16-1.01-1.75-1.5.44-1.08.76-1.89,1.08-2.69,4.94,1.87,6.33,4.93,4.45,9.41-1.73,4.12-5.82,5.39-10.34,3.17Z" data-sg-fill="sg-fill-0" />
  <path d="M203.75,161.19c2.44.2,4.1.33,6.02.48-.2,1.47-.33,2.4-.48,3.5-2.17-.1-4.06-.19-6.35-.3.39,1.54.74,2.75,1,3.97.5,2.3.43,2.35-2.68,2.79-.58-1.5-1.17-3.03-1.94-5.01l-3.69,3.69c-2.93-1.27-2.98-1.41-1.41-3.61.52-.73,1.03-1.48,1.54-2.22.05-.08,0-.23,0-1-1.51-.07-3.17-.16-4.67-.23-.49-3.44-.26-3.76,2.29-3.6.65.04,1.28.2,1.93.27.51.05,1.02.04,2.04.08-.36-1.42-.69-2.61-.97-3.82-.54-2.31-.53-2.31,2.54-3.22.61,1.61,1.24,3.25,2.02,5.3,1.46-1.49,2.67-2.72,3.86-3.93,1.83,1.1,2.28,2.31,1.36,3.64-.59.84-1.22,1.65-2.39,3.23h-.02s0,0,0,0Z" data-sg-fill="sg-fill-0" />
</g></svg>