<svg xmlns="http://www.w3.org/2000/svg" id="a" version="1.1" viewBox="0.0 0.0 100.0 131.4312688821752">
    <g transform="scale(0.377643504531722)"><path d="M205.5,243c2.44,6.23,4.63,12.37,7.24,18.34,3.51,8.02,7.45,15.85,10.98,23.86,2.08,4.73,3.8,9.63,5.51,14.51.64,1.84.86,3.84,1.16,5.79.88,5.73-.91,10.6-5.37,14.17-3.35,2.68-6.96,5.12-10.7,7.22-29.93,16.76-62,23.53-96.16,20.39-24.73-2.27-47.67-10.03-69.01-22.65-11.43-6.76-14.27-14.19-10.2-26.76.64-1.98,1.57-3.87,2.52-5.73,2.75-5.38,5.56-10.73,8.38-16.07,3.85-7.3,7.74-14.57,11.59-21.87,1.31-2.49,2.55-5.01,3.88-7.66-1.06-.8-1.79-1.42-2.59-1.94C30.1,223.24,9.59,193.53,2.43,155.15c-7.43-39.79,2.19-75.5,28.28-106.39C52.28,23.22,79.82,7.43,112.83,1.9c35.49-5.95,67.9,2.1,96.83,23.41,27.85,20.5,46.14,47.52,52.57,81.72,7.84,41.73-2.35,78.99-29.53,111.57-6.83,8.19-14.84,15.13-23.37,21.49-1.08.81-2.15,1.63-3.81,2.9h-.02s0,0,0,0ZM4.28,132.56c-.1,69.91,57.95,128.38,127.88,128.22,72.08-.17,128.6-56.51,128.63-129.34.03-70.05-56.86-127.13-127.11-127.24C64.16,4.1,5.15,57.64,4.28,132.56h0ZM214.83,277.57c-.61.64-.93,1-1.27,1.33-7.4,6.9-15.84,11.7-26.08,12.75-3.73.38-3.97.08-4.13-3.64-.18-4.16-1.35-8.05-3.77-11.44-3.18-4.46-9.04-5.58-13.03-2.64-6.27,4.62-6.09,13.3.52,17.38,2.06,1.27,4.52,1.91,6.8,2.83,1.31.53,2.63,1.05,4.08,1.63-2.82,6.61-7.39,10.68-13.7,12.64-9.54,2.97-18.77,1.89-27.55-2.85-1.13-.61-2.07-1.55-3.29-2.48,1.04-1.13,1.81-1.91,2.51-2.74,4.71-5.51,7.05-11.84,6.28-19.12-.44-4.16-2.67-6.71-6.33-7.13-4.98-.57-9.3.81-12.28,5.15-3.92,5.72-3.46,15.42.92,20.83.59.73,1.03,1.57,1.72,2.62-1.31.74-2.32,1.4-3.39,1.91-6.03,2.86-12.42,4.02-19.05,3.7-8.73-.42-15.94-3.96-21.39-10.87-.95-1.2-1.61-2.62-2.52-4.13,1.34-.76,2.29-1.29,3.22-1.85,3.35-1.98,6.12-4.56,8.12-7.92,1.59-2.67,2.05-5.54,1.31-8.56-1.23-4.97-5.38-7.52-10.36-6.51-4.14.84-6.79,3.39-8.18,7.24-1.46,4.03-1.79,8.15-.56,12.35.7,2.39.38,2.89-1.92,3.32-3.06.57-6.1.57-9.12-.43-4.49-1.5-8.53-3.59-11.09-8.38-1.11,1.77-1.88,2.99-2.7,4.29.71.81,1.21,1.5,1.83,2.08,5.79,5.37,12.75,7.22,20.47,6.76,1.7-.1,3.4-.31,5.05-.47.91,1.36,1.63,2.51,2.43,3.59,6.87,9.25,15.85,14.18,27.58,13.65,7.25-.33,14.16-1.98,20.63-5.24,1.99-1.01,3.45-.97,5.35.3,8.34,5.57,17.6,7.63,27.5,6.22,10.18-1.45,18.01-6.4,22.39-16.06.25-.54.62-1.03.92-1.53.74-.06,1.35-.12,1.96-.15,10.99-.56,20.59-4.64,29.01-11.62,3.12-2.59,3.1-2.62,1.11-6.83v.02h0Z" data-sg-fill="sg-fill-0" />
  <path d="M135.67,252.2c-45.67,2.49-84.13-24.81-101.83-53.15-1.67-2.67-2.22-5.11-1.12-7.98,3.08-8.06,6.09-16.14,9.27-24.16,7.18-18.11,14.23-36.28,21.74-54.26,5.38-12.86,11.51-25.41,19.08-37.16,2.38-3.7,5.32-7.11,8.44-10.23,3.23-3.23,7.28-5.07,12.1-4.23,3.33.58,5.33,2.28,6.47,5.69,2.9,8.65,6.5,17.06,9.3,25.74,6.54,20.31,12.63,40.76,19.17,61.07,3.36,10.44,7.19,20.74,11,31.03,1.9,5.13,4.86,9.66,8.77,13.57,1.41,1.41,2.69,1.64,4.59,1.28,5.08-.97,9.11-3.71,12.7-7.17,4.71-4.53,9.15-9.35,13.92-13.81,6.64-6.2,14.08-11.23,22.82-14.03,6.8-2.18,13.58-2.38,20.17.86,7.56,3.72,10.08,9.25,7.84,17.34-2,7.23-5.6,13.71-9.94,19.73-15.69,21.75-36.05,37.27-61.63,45.7-9,2.96-18.35,3.6-27.71,4.15-1.72.1-3.45,0-5.17,0h.02s0,.01,0,.01ZM224.01,204.77c-.19-.18-.39-.37-.58-.55-.6.28-1.25.49-1.79.86-12.46,8.56-26.28,11.43-41.17,9.98-6.73-.65-12.54-3.26-17.81-7.45-8.56-6.8-14.35-15.51-18.17-25.65-5.87-15.59-11.19-31.37-15.66-47.43-.38-1.38-.84-2.74-1.25-4.09-.62.18-.92.17-1.05.32-.87,1.04-1.7,2.1-2.55,3.16-4.55,5.69-10.2,9.24-17.72,9.05-2.64-.07-4.76.88-6.7,2.58-1.67,1.46-3.35,2.97-5.24,4.08-6.24,3.69-12.65,1.83-15.89-4.63-1.03-2.06-1.84-4.35-2.17-6.63-.45-3.11-.36-6.3-.51-9.89-4.92,1.01-9.12-1.1-13.24-4.22-.72,1.45-1.27,2.39-1.66,3.39-1.52,3.91-2.93,7.86-4.47,11.76-5.15,13.08-10.36,26.14-15.51,39.22-1.31,3.33-2.64,6.66-3.71,10.06-1.29,4.1-.67,7.94,1.78,11.63,5.93,8.91,12.83,16.92,21.28,23.49,26.67,20.74,57.01,27.98,90.15,23.64,28.61-3.75,52.15-17.25,71.03-38.99.98-1.13,1.75-2.46,2.61-3.69h0ZM105.66,140c2.67-.59,4.78-.78,6.67-1.51,6.34-2.46,10.6-7.1,12.89-13.45.4-1.11.12-2.64-.26-3.84-2.32-7.28-4.72-14.54-7.18-21.78-3.38-9.92-6.7-19.86-10.33-29.69-1.98-5.35-6.82-6.75-11.61-3.55-2.02,1.35-3.93,3.06-5.39,4.99-2.6,3.43-5.19,6.96-7.15,10.77-5.96,11.64-11.63,23.42-17.38,35.16-1.56,3.19-1.17,4.52,1.93,6.32,1.36.79,2.9,1.43,4.43,1.73,2.95.57,3.94-.17,4.82-3.11.64-2.12,1.1-4.3,1.83-6.39,1.36-3.89,4.65-5.84,7.58-4.64,3.04,1.24,4.14,5.4,2.12,8.95-.83,1.46-2.13,2.68-3.37,3.85-.79.74-1.94,1.09-2.79,1.78-.83.67-1.92,1.45-2.14,2.37-1.25,5.24-1.66,10.52.97,15.51,1.78,3.37,4.78,4.86,8.29,4.16,3.78-.76,6.58-3.03,9.12-5.97-3.6-4.06-3.96-8.45-2.49-13.08.57-1.81,1.52-3.49,3.73-3.62,2.07-.12,3.79.99,4.45,2.75.85,2.25,1.17,4.73,1.47,7.14.18,1.41-.1,2.88-.22,5.17,0,0,.01-.02,0-.02ZM101.52,137.53c1.97-3.54,1.39-6.56-1.47-8.57-1.89,4.27-1.54,6.61,1.47,8.57ZM85.5,114.41c-3.41,1.43-4.62,3.61-4.29,7.34,4.12-1.95,4.86-3.16,4.29-7.34Z" data-sg-fill="sg-fill-0" />
  <path d="M139.68,108.52c-1.3-.82-2.37-1.58-3.52-2.2-1.62-.88-3.33-1.6-4.95-2.5-4.8-2.66-6.44-5.96-5.26-10.42,1.1-4.15,1.42-4.42,6.02-4.81-.69-2.1-1.48-4.12-1.98-6.2-.4-1.65-.72-3.4-.62-5.08.15-2.48,2.37-3.66,4.12-2.03,5.07,4.71,11.29,6.13,17.78,7.36,6.23,1.17,11.2,5.03,15.94,8.98,5.39,4.49,10.62,9.18,15.84,13.89,4.15,3.75,8.68,6.36,14.5,6.45,2.3.04,4.64.61,6.89,1.23,3.42.94,5.72,3.18,6.96,6.58,1.38,3.81,2.96,7.54,4.38,11.33.34.91.56,1.92.56,2.88-.02,2.75-1.63,4.05-4.06,2.81-4.87-2.49-9.58-1.59-14.36-.1-3.41,1.07-6.88,2.01-10.15,3.43-9.08,3.94-17.12,1.74-24.56-3.92-2.23-1.7-4.37-3.67-6.08-5.87-2.46-3.17-5.33-5.31-9.32-6.05-2.82-.52-5.42-1.76-7.48-3.8-1.3-1.28-2.55-2.71-3.46-4.28-1.81-3.12-1.3-4.72,1.73-6.72.27-.18.5-.44,1.09-.96h-.01ZM195.29,133.42c-1.71-4.24-5.52-6.63-10.54-5.93-4.54.63-8.6-.05-12.18-2.88-4.26-3.36-8.92-2.95-13.7-1.69-.74.2-1.37.79-2.35,1.38,4.27,4.76,8.37,9.11,13.79,12,4.48,2.38,9.1,2.8,13.9,1.04,3.68-1.35,7.38-2.61,11.07-3.92h.01ZM137.72,91.32c.87,6.7,2.71,12.23,5.79,17.32.96,1.59,2.58,1.74,4.25.99,3.05-1.37,5.78-3.19,8.14-5.78-5.26-4.96-10.12-10.21-18.18-12.54h0ZM133.26,94.21c-1,1.47-1.87,2.75-2.74,4.03.75,1.37,2.82,3.39,6.35,3.96-1.08-3.17-.41-6.68-3.61-7.99h0ZM208.83,132.19c1.3,1.61,2.65,1.88,4.69,1.52-.5-1.26-.91-2.28-1.46-3.67-1.29.86-2.14,1.43-3.23,2.15h0ZM204.56,122.42l-.65.93,2.82,1.93.57-.84c-.91-.67-1.82-1.35-2.74-2.02h0Z" data-sg-fill="sg-fill-0" />
  <path d="M97.07,41.59c1.25,0,2.18-.1,3.08.02,4.26.57,7.99,2.39,11.28,5.09,5.61,4.6,9.93,10.21,12.79,16.89.62,1.45,1.02,3.04,1.21,4.6.08.66-.53,1.85-1.07,2.01-.58.18-1.6-.4-2.15-.93-.58-.57-.92-1.45-1.2-2.25-2.17-6.2-6.05-11.19-10.71-15.69-2.79-2.69-5.82-4.88-9.71-5.7-1.74-.37-3.25-1.15-3.52-4.04h0Z" data-sg-fill="sg-fill-0" />
  <path d="M41.21,90.6c4.1,0,6.73,2.61,6.67,6.63-.07,4.55-3.47,8.08-7.81,8.09-4.21,0-6.77-2.48-6.74-6.55.04-5.02,3.08-8.17,7.88-8.18h0ZM43.92,97.38c0-1.87-1.12-2.94-2.98-2.87-1.98.08-4.03,2.34-4.04,4.47,0,1.49,1.46,2.65,3.33,2.62,1.98-.02,3.7-1.99,3.69-4.23h0Z" data-sg-fill="sg-fill-0" />
  <path d="M170.95,45.27c5.17.03,7.43,2.05,7.36,6.63-.06,4.34-2.93,7.27-7.14,7.27-4.46,0-7.11-2.66-7.12-7.14,0-4.41,2.41-6.78,6.9-6.76h0ZM174.52,52.21c.05-1.8-1.3-3.11-3.3-3.2-1.97-.09-3.44,1.2-3.43,3,0,1.82,1.39,3.4,3.09,3.52,1.92.14,3.59-1.38,3.65-3.32h0Z" data-sg-fill="sg-fill-0" />
  <path d="M158.42,28.95c4.6.17,7.46,2.74,7.29,6.57-.18,4.05-3.83,7.38-7.89,7.19-3.77-.18-6.17-2.96-5.99-6.98.19-4.38,2.67-6.93,6.59-6.78h0ZM155.91,35.94c.02,2,1.07,3.14,2.8,3.04,1.8-.11,3.03-1.56,2.96-3.5-.06-1.83-1.23-3.05-2.95-3.06s-2.84,1.37-2.82,3.52h0Z" data-sg-fill="sg-fill-0" />
  <path d="M227.37,95.8c-.05,4.05-2.82,6.88-6.66,6.79-3.65-.08-6.28-3.11-6.28-7.21s2.45-6.96,6.39-6.96,6.6,3.18,6.55,7.38h0ZM223.68,95.67c.04-1.78-1.19-3.07-2.94-3.1-1.53-.03-2.56.96-2.57,2.49-.02,1.87,1.41,3.64,2.96,3.66,1.41.02,2.52-1.31,2.56-3.05h0Z" data-sg-fill="sg-fill-0" />
  <path d="M72.28,55.21c.06,4.02-3.13,7.21-7.2,7.18-3.64-.02-6.14-1.96-6.26-4.84-.18-4.49,3.02-8.09,7.18-8.08,3.63,0,6.23,2.39,6.28,5.74h0ZM65.25,58.9c1.31,0,2.93-1.71,2.98-3.19.05-1.51-.78-2.18-2.24-2.19-1.84,0-3.18,1.13-3.18,2.73,0,1.37,1.19,2.67,2.45,2.66,0,0-.01,0-.01-.01Z" data-sg-fill="sg-fill-0" />
  <path d="M174.03,171.73c-.05,3.58-3.38,6.86-6.86,6.78-3.29-.08-6.29-3.13-6.35-6.43-.05-3.03,3.55-6.74,6.59-6.78,3.63-.05,6.67,2.91,6.62,6.43h0ZM166.53,174.42c1.94.05,3.55-1.37,3.58-2.7.04-1.48-.86-2.19-2.24-2.3-1.58-.13-3.13,1.12-2.83,2.54.21.99,1.1,1.84,1.49,2.46Z" data-sg-fill="sg-fill-0" />
  <path d="M133.42,67.39c-.48-.67-.9-1.11-1.17-1.63-2.94-5.56-5.87-11.12-8.77-16.7-.67-1.29-1.74-2.91-.04-3.91,1.61-.96,2.84.53,3.52,1.81,2.88,5.44,5.69,10.92,8.38,16.45.77,1.59.47,3.14-1.91,3.98,0,0,0,0,0,0Z" data-sg-fill="sg-fill-0" />
  <path d="M124.82,289.14c.47-2.32.48-4.3,1.29-5.85.86-1.64,2.25-3.34,3.84-4.2,5.08-2.72,8.9-.05,8.39,5.68-.42,4.79-2.5,8.98-5.38,12.72-2.16,2.81-4.35,2.6-5.85-.7-1.14-2.51-1.63-5.32-2.31-7.65h.02Z" data-sg-fill="sg-fill-0" />
  <path d="M77.86,289.42c-1.56-5.49-1.43-10.45,1.58-15.02,1.57-2.37,4.29-2.72,6.86-1.35,2.41,1.28,3.22,3.4,2.03,6.26-1.97,4.71-5.31,8.08-10.47,10.11h0Z" data-sg-fill="sg-fill-0" />
  <path d="M179.32,290.55c-4.94.07-9.02-1.19-12.14-4.64-2.37-2.63-1.54-6.04,1.78-8.53,2.55-1.91,5.08-1.34,7.09,1.79,2.15,3.34,3.28,7.01,3.27,11.38h0Z" data-sg-fill="sg-fill-0" />
</g></svg>