<svg xmlns="http://www.w3.org/2000/svg" id="a" version="1.1" viewBox="0.0 0.0 100.0 94.41766647456384">
    <g transform="scale(0.26195840100592027)"><path d="M117.54,113.31l1.63-1.89c-1.32-1.14-2.71-2.21-4.13-3.23.73-1.21,1.15-2.62,1.15-4.13,0-2.16-.86-4.12-2.25-5.56l3.53-3.18-1.67-1.86-3.88,3.5c-1.13-.6-2.42-.95-3.79-.95-.8,0-1.57.12-2.3.34-.56-1.69-1.22-3.36-1.97-4.98l-2.27,1.05c.76,1.63,1.42,3.32,1.97,5.02-1.73,1.2-2.97,3.06-3.36,5.21-.76.15-1.58.15-2.45.13-.72-.01-1.47-.03-2.23.05l.25,2.49c.61-.06,1.25-.05,1.92-.03.8.02,1.63.03,2.46-.08.33,2.32,1.64,4.33,3.5,5.58-.25,1.73-.61,3.46-1.1,5.14l2.4.7c.45-1.56.79-3.16,1.05-4.77.67.18,1.38.29,2.11.29,2.03,0,3.88-.76,5.3-2.01,1.41,1,2.79,2.07,4.1,3.2,0,0,.03-.03.03-.03ZM108.14,109.61c-3.06,0-5.56-2.49-5.56-5.56s2.49-5.56,5.56-5.56,5.56,2.49,5.56,5.56-2.49,5.56-5.56,5.56Z" data-sg-fill="sg-fill-0" />
  <path d="M169.66,283.79c4.44-4.09,7.12-10.46,7.36-17.47.19-5.53-1-11.4-3.72-18.48-2.01-5.22-4.54-10.32-6.98-15.25-4.05-8.17-8.23-16.62-10.02-25.6-1.65-8.3-1.25-17.01-.86-25.44.17-3.53.33-7.19.35-10.78.08-15.85-3.47-27.28-10.85-34.93-.4-.42-1.04-.5-1.54-.21-.5.3-.73.9-.55,1.45,3,9.4.86,19.09-1.42,29.35-1.12,5.04-2.27,10.26-2.75,15.41-1.12,12.16,1.67,24.64,7.75,35.22-4.19-3.34-8.19-6.95-11.38-11.24-5.08-6.83-8.11-15.65-8.55-24.81-.19-3.99.1-8.08.37-12.04.22-3.14.45-6.39.44-9.61-.02-10.69-2.59-21.32-7.43-30.81,4.23.77,8.83-.64,11.93-3.79,3.46-3.51,4.83-8.91,3.49-13.77-1.03-3.76-3.63-7.05-7.04-9.07,4.59-2.4,7.96-7.1,8.55-12.27.24-2.13,0-4.01-.73-5.58-.7-1.51-1.94-2.9-3.68-4.12-3.62-2.55-8.22-3.68-12.62-3.09-3.18.43-6.23,1.76-8.74,3.76.12-1.86.03-3.78-.6-5.65-1.4-4.15-5.56-7.42-10.6-8.33-5.8-1.04-11.58,1.18-14.38,5.53-1.92,2.98-2.45,6.96-1.47,10.91.64,2.57,1.89,5.17,3.82,7.91-4.07,1.04-7.63,3.24-9.94,6.21-3.09,3.97-3.9,9.28-2.06,13.53,1.59,3.68,5.12,6.55,9.44,7.67,1.86.48,4.09.59,6.1-.05-.69,1.9-1.24,3.9-1.37,5.97-.26,4.11,1.33,7.87,4.16,9.81,1.54,1.06,3.51,1.61,5.61,1.61.77,0,1.56-.08,2.36-.23,3.6-.69,6.77-2.94,8.88-5.92.02.03.03.06.04.09,7.08,10.66,7.49,24.23,7.31,37.22l-.02,1.55c-.06,3.96-.12,7.96,0,11.94-5.44-8.13-12.09-14.1-21.08-19-11.32-6.17-24.7-6.91-34.9-1.94-.54.26-.82.88-.66,1.46s.71.95,1.33.9c8.63-.86,17.96,2.3,26.26,8.87,7.12,5.63,12.66,12.83,18.79,21.92l.44.66c1.13,1.68,2.3,3.42,3.57,5.07,4.39,5.72,8.15,8.41,13.88,11.54,2.22,3.41,4.97,6.5,8.1,9.07,2.07,1.7,4.3,3.18,6.47,4.62,1.98,1.31,4.02,2.67,5.88,4.16,5.98,4.78,10.96,11.46,15.66,21.02,2.22,4.5,4.49,9.86,4.52,15.4.03,5.68-2.61,10.8-6.72,13.04-2.27,1.24-5.3,1.42-7.89.46-2.18-.8-3.77-2.27-4.5-4.15-.8-2.07-.41-4.49.93-5.88l.13-.13c.27-.27.62-.62.84-1.12.38-.87.27-1.89-.32-2.9-.87-1.49-2.39-2.42-4.28-2.64-2.25-.25-4.55.56-6.03,2.12-2.23,2.37-3.02,6.09-2.16,10.22,1.45,6.91,6.72,12.76,13.44,14.91,1.93.62,3.95.92,5.96.92,4.98,0,9.95-1.84,13.65-5.25l.03.05h0ZM101.67,133.08c-2.31.44-4.52.08-6.08-.99-2.52-1.73-3.24-5.06-3.08-7.59.2-3.1,1.48-6.09,2.73-8.98.25-.58.03-1.26-.52-1.58-.2-.11-.41-.17-.63-.17-.38,0-.76.17-1,.5-1.67,2.22-4.91,2.31-7.19,1.73-3.58-.93-6.49-3.26-7.78-6.24-1.46-3.37-.76-7.8,1.74-11,2.3-2.95,6.07-5.02,10.34-5.68.44-.07.81-.36.97-.78.16-.41.1-.88-.18-1.23-2.39-3.05-3.88-5.85-4.55-8.57-.81-3.29-.4-6.55,1.15-8.96,2.22-3.45,7.09-5.27,11.83-4.42,4.15.75,7.56,3.36,8.67,6.66.85,2.52.45,5.45.09,8.03-.08.55.22,1.09.74,1.32.51.22,1.11.08,1.47-.35,2.42-2.94,5.97-4.92,9.75-5.44,3.78-.51,7.73.46,10.84,2.65,1.38.97,2.34,2.03,2.86,3.13.53,1.15.71,2.57.52,4.24-.59,5.19-4.51,9.82-9.53,11.27-.52.15-.89.62-.9,1.16-.02.54.32,1.04.83,1.22,3.96,1.4,7.09,4.71,8.17,8.64,1.1,4.01-.02,8.46-2.86,11.35-2.85,2.9-7.46,4-11.2,2.69-2.51-.88-4.52-2.8-5.22-5.01-.19-.6-.79-.96-1.41-.85-.61.11-1.06.65-1.03,1.28.2,5.55-4.07,10.91-9.52,11.96h-.02s0,0,0,0ZM114.07,196.84c-1.22-1.59-2.37-3.3-3.48-4.95l-.44-.66c-6.26-9.28-11.94-16.65-19.31-22.48-6.57-5.2-13.78-8.38-20.87-9.28,8.28-1.82,17.77-.4,26.1,4.13,9.95,5.42,16.91,12.2,22.54,21.97.2,2.67.53,5.31,1.02,7.91-2.35-2.27-3.95-4.93-5.61-7.73-2.06-3.48-4.2-7.08-7.94-9.91-.55-.42-1.33-.31-1.75.24s-.31,1.33.24,1.75c3.35,2.53,5.27,5.77,7.3,9.19,2.05,3.46,4.17,7.04,7.88,9.87.21.16.44.23.68.24.75,2.9,1.76,5.73,3.09,8.46-3.57-2.25-6.3-4.65-9.46-8.76h.01s0,0,0,0ZM139.07,272.7c-.33-1.57-.84-5.49,1.53-7.99.82-.87,2.11-1.39,3.4-1.39.18,0,.35,0,.53.03.63.07,1.79.35,2.41,1.42.19.32.21.56.19.62-.03.07-.2.24-.32.36l-.16.16c-2.03,2.1-2.62,5.52-1.47,8.52.99,2.56,3.1,4.55,5.97,5.6,3.3,1.21,7.01.98,9.95-.62,4.91-2.67,8.05-8.66,8.02-15.25-.03-6.05-2.43-11.73-4.77-16.49-4.87-9.9-10.07-16.85-16.35-21.87-1.95-1.56-4.04-2.94-6.06-4.29-2.11-1.4-4.3-2.85-6.27-4.47-4.01-3.3-7.36-7.49-9.69-12.13-5.5-10.97-5.31-23.9-5.12-36.4l.02-1.55c.18-13.14-.24-26.89-7.33-38.03.21-.5.4-1.08.55-1.71,1,.92,2.16,1.65,3.43,2.15,4.77,9.22,7.3,19.59,7.32,30,0,3.13-.22,6.33-.44,9.43-.28,4.03-.57,8.2-.38,12.33.46,9.66,3.67,18.96,9.04,26.19,4.89,6.59,11.46,11.53,17.82,16.3.5.37,1.2.32,1.64-.12s.49-1.14.11-1.64c-8.57-11.22-12.73-25.73-11.43-39.79.46-5,1.6-10.13,2.7-15.1,1.85-8.34,3.75-16.91,2.57-25.29,4.66,6.99,6.91,16.56,6.84,29.07-.02,3.54-.19,7.17-.35,10.68-.4,8.57-.81,17.44.9,26.04,1.85,9.3,6.11,17.9,10.23,26.22,2.42,4.88,4.91,9.92,6.88,15.03,2.6,6.75,3.73,12.31,3.56,17.49-.21,6.35-2.6,12.07-6.56,15.72-4.47,4.12-11.36,5.64-17.15,3.79s-10.51-7.1-11.76-13.04v.02h0Z" data-sg-fill="sg-fill-0" />
  <path d="M55.04,151.51c.41-.33.57-.88.39-1.38-5.75-16.48-5.97-34.66-.65-51.27.09,0,.19.01.28.01,1.67,0,3.37-.31,4.99-.95,1.23-.48,2.41-1.16,3.52-1.98,1.42-.74,2.65-1.84,3.46-3.2.04-.06.04-.13.07-.19.75-.93,1.44-1.93,2.06-3.02,2.18-3.87,3.21-8.18,3.87-11.5.29-1.44.54-2.89.78-4.34.41-2.37.83-4.82,1.41-7.17,1.42-5.74,3.93-11.33,7.27-16.23.06,0,.11.02.17.02.14,0,.27-.02.41-.07l8.9-3.06c.41-.14.71-.49.8-.9,6.05.72,12.09,2.58,17.48,5.42,2.15,1.13,4.26,2.45,6.3,3.72,1.25.78,2.49,1.55,3.76,2.3,2.92,1.72,6.82,3.81,11.16,4.75,1.23.27,2.45.42,3.64.48.06.02.11.06.17.07.51.1,1.03.15,1.55.15,1.07,0,2.15-.21,3.15-.6,1.35-.29,2.64-.73,3.82-1.32.84-.43,1.63-.94,2.35-1.52,12.61,8.84,14.58,14.73,19.54,29.59l.61,1.82c.17.5.63.84,1.16.85h.03c.52,0,.98-.32,1.17-.8,1.28-3.32,2.01-6.91,2.13-10.48,3.26,2.13,6.06,4.93,8.19,8.2.32.49.93.69,1.48.49.55-.2.88-.76.81-1.34-.9-6.79-4.58-12.83-8.06-17.84l-.99-1.42c-8.22-11.83-11.99-17.26-24.08-26.1-.84-1.09-1.84-2.09-2.99-2.95-3.67-2.76-8.08-3.88-11.52-4.55-15.13-2.96-30.69-.45-44.46,1.8-.28-.12-.59-.15-.89-.05-3,1-5.98,2.17-8.86,3.49-.05.02-.09.07-.13.1-.27,0-.55.07-.78.26-10.89,8.83-23.24,18.84-31.14,32.21-1.78,3.01-3.87,7.06-4.25,11.63-.15,1.78,0,3.52.42,5.15-4.83,16.78-7.08,33.83-6.35,48.04.31,6.09,1.1,13.12,4.54,19.04.23.39.65.62,1.08.62.12,0,.25-.02.37-.06.56-.17.92-.71.87-1.29-.32-3.88.18-7.81,1.46-11.49,2.29,2.75,5.06,5.14,8.1,6.98.45.27,1.02.23,1.43-.1v-.02h0ZM72.81,65.91c-.6,2.44-1.03,4.94-1.45,7.35-.25,1.43-.49,2.86-.77,4.28-.62,3.14-1.59,7.19-3.6,10.75-1.28,2.27-2.92,4.16-4.75,5.54-.77.37-1.61.59-2.46.6-2.06.06-4.12-1.04-5.24-2.76-.13-.21-.25-.42-.37-.65.62,0,1.25-.12,1.87-.35,1.01-.38,1.95-1.02,2.96-2.02,3.84-3.81,5.31-9.17,6.34-14.4l.33-1.74c.79-4.16,1.62-8.45,3.72-12,2.68-2.79,5.69-5.59,9.02-8.43-2.5,4.32-4.42,9.02-5.6,13.83h0ZM53.47,86.11c.27-2.14,1.14-4.21,1.95-5.94,2.26-4.84,5.26-9.53,9.1-14.21-.54,2.01-.94,4.06-1.32,6.09-.11.58-.22,1.15-.33,1.72-.95,4.83-2.29,9.77-5.65,13.1-.75.74-1.41,1.21-2.08,1.46-.6.23-1.22.24-1.72.08-.08-.73-.06-1.51.04-2.31,0,0,0,.01.01.01ZM121.58,55.55c-1.25-.73-2.48-1.5-3.7-2.26-2.08-1.3-4.23-2.64-6.46-3.81-4.38-2.31-9.17-4.01-14.05-5.01,4.34-.6,8.43-.99,12.3-1.14,4.06.79,7.81,3.03,11.44,5.2.51.3,1.01.61,1.52.91,4.3,2.54,8.96,4.87,13.98,4.87.33,0,.66,0,.99-.03,1.42-.09,2.53-.36,3.48-.87.58-.31,1.09-.71,1.5-1.16.09.23.18.47.24.7.54,1.99-.02,4.25-1.42,5.75-.58.62-1.3,1.1-2.09,1.44-2.25.46-4.75.42-7.3-.13-4-.87-7.67-2.84-10.42-4.46h-.01ZM116.96,43.33c6.05.24,11.55,1.12,16.67,2.64,1.83.55,3.95,1.27,5.74,2.49.66.45,1.25.96,1.75,1.5-.21.48-.64.93-1.21,1.23-.63.33-1.42.52-2.47.58-4.72.3-9.3-1.99-13.54-4.49-.5-.3-1-.6-1.51-.9-1.77-1.06-3.56-2.12-5.42-3.06,0,0-.01,0,0,.01ZM170.15,70.22l.99,1.43c2.33,3.35,4.74,7.16,6.26,11.3-2.13-2.2-4.58-4.08-7.27-5.55-.4-.22-.87-.2-1.26.03-.38.24-.61.66-.59,1.11.1,2.72-.19,5.48-.84,8.14-4.55-13.57-7.08-19.94-19.46-28.73,1.73-2.02,2.81-4.48,2.94-6.99.06-1.08-.06-2.17-.33-3.25,8.77,6.98,12.48,12.32,19.56,22.51h0ZM133.15,37.63c4.71.92,7.95,2.19,10.49,4.1,3.14,2.36,4.98,5.84,4.8,9.09-.11,2.06-1.04,4.1-2.54,5.74-.2-.08-.41-.12-.61-.09.32-1.37.32-2.82-.05-4.17-.61-2.26-2.19-4.35-4.45-5.9-2.07-1.42-4.41-2.22-6.43-2.82-7.29-2.17-15.28-3.08-24.46-2.75-.05,0-.1-.03-.16-.03-.22-.04-.43,0-.63.07-5.18.23-10.74.84-16.76,1.85-.32-1.22-.79-2.39-1.41-3.48,13.22-2.16,28.01-4.37,42.22-1.6h0s0,0,0,0ZM88.21,39.59c1.12,1.64,1.83,3.55,2.04,5.53l-6.56,2.26c-.35-1.85-1.02-3.63-1.97-5.25,2.13-.93,4.3-1.78,6.49-2.53h0ZM45.6,84.82c.26-3.17,1.47-6.43,3.91-10.56,7.53-12.73,19.36-22.45,29.93-31.03.67,1.1,1.17,2.28,1.51,3.51-.02,0-.04,0-.05.03-4.96,3.96-9.26,7.83-12.99,11.67-.18.1-.35.23-.47.42-.03.05-.05.1-.08.14-6.35,6.63-10.98,13.21-14.2,20.1-.89,1.91-1.85,4.2-2.17,6.68-.35,2.72.17,5.29,1.45,7.25.95,1.45,2.38,2.58,3.99,3.24-2.66.33-5.3-.3-7.22-1.83-2.54-2.03-3.92-5.72-3.6-9.63h0ZM46.17,141.38c-.26-.37-.7-.56-1.15-.51s-.83.33-1.01.74c-1.22,2.81-2.02,5.8-2.35,8.84-1.34-4.21-1.76-8.7-1.97-12.77-.66-12.9,1.31-28.84,5.43-44.22.69,1.14,1.53,2.15,2.54,2.95,1.32,1.05,2.91,1.77,4.62,2.15-4.96,15.82-5.07,32.98-.33,48.85-2.19-1.73-4.15-3.77-5.77-6.02h0Z" data-sg-fill="sg-fill-0" />
  <path d="M127.38,258.54c-5.35-3.03-10.38-6.65-14.94-10.78,3.06-6.32,3.84-13.76,2.15-20.58-1.77-7.12-6.26-13.59-12.32-17.74-.33-.23-.76-.28-1.14-.14s-.67.46-.77.85c-1.39,5.13-3.12,11.51-3.1,17.88.01,3.84.69,7.41,1.95,10.53-5.23-4.59-9.97-9.71-14.15-15.28,3.7-4.82,5.66-11.19,5.52-18.07-.12-5.94-1.79-12.36-4.98-19.09-.16-.34-.47-.59-.84-.68s-.76,0-1.06.23c-6.61,5.17-10.09,13.75-9.49,22.04l-7.94-12.92c6.89-4.76,10.48-13.8,8.59-22-.13-.58-.64-1.02-1.26-.97-5.63.2-10.82,3.93-13.16,8.98l-2.95-10.55c-1.03-3.68-3.07-5.59-5.47-5.12-2.1.42-3.15,2.58-3.07,4.4,0,.03.13,2.02.96,2.98,11.26,38.78,37.48,73.08,72.02,94.16.2.12.42.18.65.18h.1c1.7-.14,3.35-1.02,4.4-2.37,1.2-1.52,1.51-3.45.85-5.29-.1-.28-.3-.52-.56-.67v.02s.01,0,.01,0ZM125.11,262.95c-.56.71-1.38,1.2-2.26,1.37-33.96-20.87-59.71-54.72-70.68-92.96-.08-.27-.24-.5-.46-.66-.12-.29-.25-.77-.28-1.27-.03-.77.39-1.71,1.06-1.84,1.24-.25,2.2,1.98,2.58,3.34l4.14,14.83c.16.58.72.97,1.31.91.6-.05,1.08-.52,1.14-1.12.57-5.53,5.47-10.41,10.96-11.14,1.2,7.29-2.35,15.11-8.71,18.92-.29.17-.49.45-.57.78-.08.32-.03.67.15.95l12.72,20.68c.34.56,1.06.76,1.64.45.58-.3.83-1.01.57-1.61-3.8-8.7-1.38-19.54,5.59-25.91,2.59,5.87,3.96,11.44,4.06,16.59.13,6.65-1.84,12.75-5.56,17.19-.37.44-.39,1.08-.05,1.54,5.99,8.14,13.13,15.34,21.21,21.42.52.39,1.26.32,1.69-.17s.41-1.23-.05-1.7c-3.57-3.65-5.54-9.16-5.57-15.52-.02-5.33,1.3-10.81,2.54-15.45,4.83,3.8,8.39,9.26,9.87,15.22,1.62,6.54.76,13.71-2.37,19.67-.26.5-.16,1.12.26,1.5,4.77,4.41,10.03,8.28,15.66,11.51.25,1.11-.17,1.95-.59,2.49h0s0,0,0,0Z" data-sg-fill="sg-fill-0" />
  <path d="M84.46,200.92c-.66-.22-1.36.14-1.58.8-1.81,5.51-2.9,11.24-3.23,17.03-.04.69.49,1.28,1.18,1.32h.07c.66,0,1.21-.51,1.25-1.18.32-5.57,1.36-11.08,3.11-16.39.22-.66-.14-1.36-.8-1.58h0Z" data-sg-fill="sg-fill-0" />
  <path d="M69.82,179.83c-.49-.49-1.28-.48-1.77,0-3.09,3.11-5.55,6.73-7.31,10.75-.28.63,0,1.37.65,1.65.16.07.33.1.5.1.48,0,.94-.28,1.15-.75,1.63-3.74,3.91-7.1,6.79-9.99.49-.49.48-1.28,0-1.77h-.01Z" data-sg-fill="sg-fill-0" />
  <path d="M105.1,224.69c-.66.22-1.01.92-.79,1.58,1.91,5.78,2.54,12.03,1.81,18.08-.08.69.41,1.31,1.09,1.39h.15c.62,0,1.16-.47,1.24-1.1.77-6.41.1-13.03-1.92-19.16-.22-.66-.92-1.01-1.58-.79h0Z" data-sg-fill="sg-fill-0" />
  <path d="M169.35,304.24c-1.61-.14-3.14.14-4.63.42-1.16.22-2.28.4-3.35.42-2.91,0-5.66-1.79-6.55-4.25-.45-1.26-.34-2.8.3-4.1.57-1.16,1.47-1.98,2.53-2.33,1.19-.38,2.51-.17,3.36.56.84.71,1.18,1.98.77,2.9-.39.87-1.57,1.39-2.38,1.04-.63-.27-1.37.02-1.64.66-.27.63.02,1.37.66,1.64,2.06.89,4.7-.2,5.65-2.32.86-1.94.26-4.39-1.44-5.82-1.52-1.29-3.72-1.68-5.74-1.03-1.72.56-3.14,1.84-4.01,3.61-.95,1.93-1.09,4.13-.41,6.05,1.25,3.46,4.9,5.89,8.89,5.9h.04c1.31,0,2.56-.23,3.78-.46,1.38-.26,2.68-.5,3.95-.39,2.53.22,4.87,2.05,5.71,4.45.36,1.04.29,2.32-.16,3.19-.26.5-.63.81-1.08.94-.67.18-1.06.87-.88,1.53.15.56.66.92,1.21.92.11,0,.22-.01.33-.04,1.13-.31,2.05-1.06,2.64-2.18.79-1.49.91-3.47.31-5.17-1.16-3.35-4.32-5.81-7.85-6.12v-.02s0,0,0,0Z" data-sg-fill="sg-fill-0" />
  <path d="M183.68,136.67c.8.9,1.67,1.73,2.51,2.53.9.86,1.75,1.67,2.52,2.56,1.15,1.33,2.51,3.38,2.45,5.59-.02.69.53,1.26,1.22,1.28h.03c.09,0,.17-.03.26-.05.09.02.17.05.26.05h.03c.69-.02,1.24-.59,1.22-1.28-.06-2.21,1.3-4.26,2.45-5.59.77-.89,1.62-1.7,2.52-2.56.84-.8,1.71-1.63,2.51-2.53,2.12-2.39,3.21-4.81,3.24-7.19.04-2.83-1.83-6.04-5.01-6.5-1.88-.28-3.95.52-5.53,2.12-.67.68-1.22,1.45-1.7,2.24-.48-.79-1.02-1.56-1.7-2.24-1.58-1.6-3.65-2.39-5.53-2.12-3.18.47-5.04,3.67-5.01,6.5.03,2.38,1.12,4.8,3.24,7.19h.02,0ZM185.82,125.45c1.09-.16,2.36.36,3.39,1.4.89.9,1.54,2.08,2.15,3.26,0,.47.23.92.68,1.15.21.11.43.12.65.11.22.02.44,0,.65-.11.45-.22.69-.68.68-1.15.6-1.18,1.26-2.36,2.15-3.26,1.02-1.04,2.29-1.57,3.39-1.4,1.74.25,2.89,2.27,2.87,4-.02,1.76-.9,3.63-2.61,5.56-.73.82-1.52,1.58-2.36,2.38-.9.86-1.84,1.75-2.69,2.73-.88,1.02-1.57,2.06-2.07,3.11-.51-1.05-1.19-2.09-2.07-3.11-.85-.98-1.78-1.87-2.69-2.73-.84-.8-1.63-1.55-2.36-2.38-1.71-1.93-2.59-3.8-2.61-5.56-.02-1.72,1.12-3.74,2.87-4h-.02,0Z" data-sg-fill="sg-fill-0" />
  <path d="M267.8,113.31c1.31-1.13,2.69-2.2,4.1-3.2,1.42,1.24,3.27,2.01,5.3,2.01.73,0,1.44-.11,2.11-.29.26,1.61.59,3.21,1.05,4.77l2.4-.7c-.49-1.68-.85-3.41-1.1-5.14,1.87-1.25,3.18-3.26,3.5-5.58.84.11,1.66.1,2.46.08.68-.02,1.31-.03,1.92.03l.25-2.49c-.76-.08-1.51-.06-2.23-.05-.87.02-1.7.03-2.45-.13-.39-2.15-1.62-4.01-3.36-5.21.56-1.7,1.22-3.39,1.97-5.02l-2.27-1.05c-.75,1.61-1.4,3.29-1.97,4.98-.73-.22-1.5-.34-2.3-.34-1.37,0-2.66.35-3.79.95l-3.88-3.5-1.67,1.86,3.53,3.18c-1.39,1.45-2.24,3.41-2.24,5.56,0,1.51.43,2.92,1.15,4.13-1.42,1.01-2.81,2.09-4.13,3.23l1.63,1.89.02.03h0ZM282.77,104.06c0,3.06-2.49,5.56-5.56,5.56s-5.56-2.49-5.56-5.56,2.49-5.56,5.56-5.56,5.56,2.49,5.56,5.56Z" data-sg-fill="sg-fill-0" />
  <path d="M273.26,198.36c1.27-1.66,2.45-3.4,3.58-5.09l.43-.64c6.13-9.08,11.67-16.29,18.79-21.92,8.3-6.57,17.63-9.72,26.26-8.87.6.06,1.16-.32,1.33-.9.16-.58-.11-1.2-.66-1.46-10.21-4.97-23.58-4.23-34.9,1.94-8.99,4.9-15.64,10.87-21.08,19,.12-3.98.06-7.98,0-11.94l-.02-1.55c-.18-12.99.23-26.56,7.31-37.22.02-.03.03-.06.04-.09,2.11,2.99,5.28,5.23,8.88,5.92.79.15,1.58.23,2.36.23,2.1,0,4.07-.55,5.61-1.61,2.83-1.94,4.42-5.7,4.16-9.81-.13-2.07-.68-4.07-1.37-5.97,2.01.64,4.24.53,6.1.05,4.32-1.12,7.85-3.98,9.45-7.67,1.84-4.25,1.03-9.56-2.06-13.53-2.32-2.97-5.87-5.18-9.94-6.21,1.93-2.74,3.18-5.34,3.82-7.91.98-3.95.44-7.93-1.47-10.91-2.8-4.35-8.57-6.57-14.38-5.53-5.04.9-9.2,4.17-10.6,8.33-.63,1.86-.71,3.79-.59,5.65-2.51-2-5.56-3.33-8.74-3.76-4.39-.59-8.99.53-12.62,3.09-1.74,1.23-2.98,2.62-3.68,4.12-.73,1.57-.98,3.45-.73,5.58.59,5.17,3.96,9.88,8.55,12.27-3.41,2.02-6.01,5.3-7.04,9.07-1.34,4.86.03,10.26,3.49,13.77,3.1,3.14,7.7,4.55,11.93,3.79-4.85,9.49-7.42,20.12-7.43,30.81,0,3.22.22,6.47.44,9.61.28,3.96.56,8.05.37,12.04-.43,9.17-3.47,17.98-8.55,24.81-3.19,4.29-7.19,7.9-11.38,11.24,6.08-10.58,8.87-23.06,7.75-35.22-.48-5.16-1.63-10.37-2.75-15.41-2.27-10.26-4.42-19.94-1.42-29.35.18-.55-.05-1.16-.55-1.45-.5-.3-1.14-.21-1.54.21-7.38,7.66-10.93,19.08-10.85,34.93.02,3.59.19,7.25.35,10.78.39,8.42.8,17.14-.86,25.44-1.79,8.98-5.97,17.42-10.02,25.6-2.44,4.93-4.97,10.03-6.98,15.25-2.73,7.08-3.91,12.95-3.72,18.48.24,7.01,2.92,13.38,7.36,17.47,3.7,3.41,8.66,5.25,13.65,5.25,2.01,0,4.03-.3,5.96-.92,6.72-2.15,12-8.01,13.44-14.91.86-4.13.08-7.85-2.16-10.22-1.48-1.57-3.79-2.38-6.03-2.12-1.89.21-3.42,1.15-4.29,2.64-.59,1-.7,2.03-.32,2.9.22.5.56.84.84,1.12l.13.13c1.35,1.39,1.73,3.81.93,5.88-.72,1.88-2.32,3.35-4.5,4.15-2.59.95-5.61.77-7.89-.46-4.11-2.24-6.75-7.36-6.72-13.04.03-5.54,2.3-10.89,4.52-15.4,4.71-9.56,9.68-16.24,15.66-21.02,1.86-1.49,3.9-2.84,5.88-4.16,2.17-1.44,4.4-2.92,6.47-4.62,3.13-2.57,5.88-5.66,8.11-9.07,5.73-3.13,9.49-5.82,13.88-11.54v-.05s0,0,0,0ZM289.27,163.61c8.33-4.54,17.82-5.96,26.1-4.13-7.09.9-14.3,4.08-20.87,9.28-7.37,5.83-13.05,13.2-19.31,22.48l-.43.64c-1.12,1.66-2.27,3.37-3.49,4.96-3.16,4.11-5.89,6.51-9.46,8.76,1.33-2.74,2.34-5.57,3.09-8.46.24,0,.48-.09.68-.24,3.71-2.83,5.83-6.41,7.88-9.87,2.03-3.42,3.95-6.66,7.3-9.19.55-.42.66-1.2.24-1.75s-1.2-.66-1.75-.24c-3.74,2.83-5.88,6.43-7.94,9.91-1.66,2.8-3.25,5.46-5.61,7.73.49-2.6.82-5.24,1.02-7.91,5.63-9.76,12.59-16.55,22.54-21.97h.01,0ZM255.3,123.02c-2.84-2.88-3.96-7.34-2.86-11.35,1.08-3.93,4.21-7.24,8.17-8.64.51-.18.85-.67.83-1.22-.02-.54-.38-1.01-.9-1.16-5.02-1.45-8.94-6.08-9.54-11.27-.19-1.67-.02-3.1.52-4.24.52-1.11,1.48-2.16,2.86-3.13,3.11-2.2,7.07-3.16,10.84-2.65s7.33,2.49,9.75,5.44c.35.43.95.58,1.47.35.51-.22.81-.76.74-1.32-.36-2.58-.76-5.51.09-8.03,1.11-3.3,4.52-5.92,8.67-6.66,4.74-.85,9.61.97,11.83,4.42,1.54,2.4,1.96,5.67,1.15,8.96-.67,2.71-2.16,5.52-4.55,8.57-.27.35-.34.82-.18,1.23s.53.71.97.78c4.27.66,8.04,2.73,10.34,5.68,2.5,3.21,3.2,7.63,1.74,11-1.29,2.98-4.19,5.31-7.78,6.24-2.27.59-5.52.49-7.19-1.73-.38-.51-1.08-.65-1.63-.33-.55.32-.77,1-.52,1.58,1.25,2.89,2.53,5.88,2.73,8.98.16,2.54-.56,5.86-3.08,7.59-1.56,1.07-3.78,1.43-6.08.99-5.45-1.05-9.72-6.41-9.53-11.96.02-.62-.42-1.17-1.03-1.28-.07-.01-.14-.02-.22-.02-.53,0-1.02.34-1.19.87-.71,2.21-2.71,4.13-5.22,5.01-3.74,1.31-8.35.21-11.2-2.69h0s0-.01,0-.01ZM249.7,217.05c-1.97,1.62-4.15,3.07-6.27,4.47-2.02,1.34-4.11,2.73-6.06,4.29-6.28,5.02-11.47,11.97-16.35,21.87-2.34,4.76-4.74,10.44-4.77,16.49-.03,6.59,3.11,12.58,8.02,15.25,2.93,1.6,6.65,1.83,9.95.62,2.86-1.05,4.98-3.04,5.97-5.6,1.15-3,.56-6.42-1.47-8.52l-.16-.16c-.12-.12-.29-.29-.32-.36-.02-.05,0-.28.19-.62.62-1.07,1.78-1.35,2.41-1.42,1.45-.16,3,.37,3.93,1.36,2.36,2.5,1.86,6.42,1.53,7.99-1.25,5.95-5.97,11.19-11.76,13.04s-12.68.33-17.15-3.79c-3.95-3.64-6.34-9.37-6.56-15.72-.18-5.18.96-10.74,3.56-17.49,1.97-5.11,4.47-10.16,6.88-15.04,4.12-8.32,8.38-16.92,10.23-26.22,1.71-8.6,1.3-17.47.9-26.04-.16-3.51-.33-7.14-.35-10.68-.07-12.51,2.18-22.08,6.84-29.07-1.18,8.38.72,16.95,2.57,25.29,1.1,4.97,2.24,10.1,2.7,15.1,1.3,14.06-2.87,28.56-11.43,39.79-.38.5-.33,1.2.11,1.64s1.14.49,1.64.12c6.35-4.78,12.92-9.71,17.82-16.3,5.37-7.23,8.58-16.53,9.04-26.19.2-4.14-.1-8.3-.38-12.33-.22-3.1-.44-6.3-.44-9.43.02-10.42,2.55-20.78,7.32-30,1.27-.5,2.43-1.24,3.43-2.15.15.63.34,1.22.55,1.71-7.09,11.15-7.52,24.89-7.33,38.03l.02,1.55c.18,12.5.37,25.42-5.12,36.4-2.33,4.64-5.68,8.84-9.69,12.13h0s0,0,0,0Z" data-sg-fill="sg-fill-0" />
  <path d="M205.12,147.4c-1.38,1.53-2.8,3.12-4.1,4.78-3.94,5.04-6.79,10.94-8.34,17.15-1.55-6.21-4.4-12.11-8.34-17.15-1.3-1.67-2.73-3.25-4.11-4.78-2.17-2.41-4.21-4.68-5.87-7.29-3.69-5.81-5.11-12.9-6.14-19.53.07.02.13.05.2.07,1.79.51,3.68.2,5.07-.83,2.57-1.9,3.27-5.95,1.52-8.84-.9-1.48-2.34-2.61-4.03-3.24.88-.9,1.51-2.04,1.78-3.28.56-2.66-.65-5.54-2.94-7.01s-5.41-1.37-7.6.25c-1.36,1-2.21,2.39-2.78,3.88-1.46-1.99-3.66-3.45-6.1-3.92-2.26-.43-4.31.14-5.48,1.54-1.14,1.37-1.38,3.39-.66,5.7.45,1.44,1.26,2.88,2.36,3.97-1.23.71-2.23,1.84-2.68,3.22-.94,2.91.76,6.35,3.64,7.37,1.38.49,2.9.37,4.23-.2-.04.89.04,1.72.24,2.52.66,2.64,2.79,4.65,5.18,4.9.17.02.35.03.52.03,2.1,0,4.21-1.3,5.39-3.36,0-.02.02-.05.04-.08,1.05,6.2,2.61,12.67,6.13,18.21,1.77,2.79,3.98,5.25,6.12,7.62.14.16.29.33.43.49-1.51-.34-3.07-.45-4.59-.56-1.41-.1-2.74-.19-4.02-.45-4.36-.88-8.27-3.92-10.2-7.92-.28-.57-.94-.85-1.54-.64s-.95.84-.8,1.46c.78,3.33,1.66,7.11,3.44,10.53,2,3.84,4.95,6.64,8.29,7.89,2.6.97,5.34,1,7.98,1.03.95,0,1.93.02,2.87.08,2.32.14,6.45.82,8.04,3.83.13.24.33.42.56.53.77,2.08,1.41,4.22,1.85,6.4.12.59.64,1,1.22,1,.08,0,.17,0,.25-.03.2-.04.38-.14.53-.27.15.12.32.22.53.27.08.02.17.03.25.03.58,0,1.1-.41,1.22-1,.44-2.18,1.07-4.31,1.85-6.4.23-.11.43-.29.56-.53,1.59-3.01,5.72-3.69,8.04-3.83.94-.06,1.92-.07,2.87-.08,2.64-.03,5.38-.06,7.98-1.03,3.34-1.24,6.29-4.05,8.29-7.89,1.78-3.42,2.66-7.19,3.44-10.53.15-.62-.2-1.25-.8-1.46s-1.27.06-1.54.64c-1.93,4-5.84,7.04-10.2,7.92-1.28.26-2.61.35-4.02.45-1.53.11-3.08.23-4.59.56.14-.16.29-.33.43-.49,2.14-2.38,4.35-4.84,6.12-7.63,3.52-5.54,5.08-12,6.13-18.21,0,.02.02.05.04.08,1.17,2.06,3.29,3.36,5.39,3.36.18,0,.35,0,.52-.03,2.39-.25,4.52-2.27,5.18-4.9.2-.79.28-1.63.24-2.52,1.33.57,2.85.69,4.23.2,2.88-1.02,4.58-4.46,3.64-7.37-.45-1.38-1.44-2.5-2.67-3.22,1.1-1.08,1.91-2.53,2.36-3.97.72-2.31.48-4.33-.66-5.7-1.17-1.4-3.22-1.97-5.48-1.54-2.44.47-4.64,1.93-6.1,3.92-.58-1.49-1.43-2.88-2.78-3.88-2.19-1.61-5.31-1.71-7.6-.25-2.29,1.47-3.49,4.35-2.94,7.01.26,1.25.9,2.38,1.78,3.28-1.68.63-3.13,1.76-4.03,3.24-1.75,2.89-1.05,6.94,1.52,8.84,1.39,1.03,3.28,1.34,5.07.83.07-.02.13-.05.2-.07-1.02,6.63-2.45,13.72-6.14,19.53-1.66,2.61-3.71,4.89-5.87,7.3h-.02,0ZM164.76,117.2c.11,2.06-.17,3.66-.86,4.88-.78,1.36-2.2,2.23-3.48,2.09-1.52-.16-2.67-1.64-3.01-3.02-.36-1.44-.17-3.15.59-5.21.24-.64-.09-1.36-.74-1.6-.14-.05-.29-.08-.44-.08-.5,0-.98.31-1.17.8-.62,1.63-2.68,2.6-4.31,2.02-1.6-.57-2.62-2.63-2.1-4.24.42-1.29,1.79-2.23,3.16-2.32.45.11.92.16,1.4.16.62-.01,1.13-.47,1.22-1.08.08-.61-.29-1.19-.89-1.37-.45-.13-.92-.2-1.38-.22-1.52-.53-2.68-2.25-3.19-3.87-.21-.68-.62-2.38.19-3.35.68-.81,2.04-.89,3.09-.69,2.65.51,4.99,2.68,5.69,5.29.15.56.66.95,1.25.92.58-.02,1.07-.43,1.19-1,.42-2.09,1.07-4.4,2.72-5.61,1.35-1,3.35-1.06,4.76-.15s2.19,2.75,1.84,4.39-1.79,3.02-3.45,3.29c-.67.11-1.13.73-1.04,1.4.09.67.7,1.15,1.37,1.08,2.28-.25,4.62.81,5.68,2.57,1.09,1.8.68,4.39-.87,5.54-.76.56-1.87.73-2.9.43-.55-.15-1.01-.43-1.36-.78-.07-.35-.28-.63-.57-.8-.23-.56-.83-.87-1.43-.74s-1.01.68-.98,1.29l.02-.02ZM180.38,158.48c-1-.06-2.01-.07-2.99-.08-2.54-.03-4.94-.06-7.14-.88-2.76-1.03-5.23-3.41-6.95-6.7-.65-1.24-1.17-2.56-1.61-3.89,2.26,2.02,5.04,3.47,8,4.07,1.44.29,2.92.39,4.34.5,2.49.18,4.85.34,6.81,1.45,2.33,1.32,3.81,3.95,5.1,6.76-1.98-.84-4.08-1.13-5.57-1.22h0s0,0,0,0ZM211.32,151.49c1.43-.1,2.9-.2,4.34-.5,2.96-.6,5.74-2.04,8-4.07-.44,1.33-.97,2.65-1.61,3.89-1.72,3.29-4.19,5.67-6.95,6.7-2.19.82-4.59.84-7.14.88-.98,0-1.99.02-2.99.08-1.49.09-3.59.38-5.57,1.22,1.29-2.81,2.77-5.44,5.1-6.76,1.97-1.11,4.32-1.28,6.81-1.45h0s0,0,0,0ZM216.26,118.24c-1.04.29-2.15.13-2.9-.43-1.55-1.15-1.96-3.74-.87-5.54,1.06-1.75,3.4-2.81,5.68-2.57.68.08,1.28-.41,1.37-1.08s-.37-1.29-1.04-1.4c-1.66-.26-3.11-1.65-3.45-3.29s.43-3.49,1.84-4.39c1.41-.91,3.41-.84,4.76.15,1.64,1.21,2.29,3.52,2.72,5.61.11.57.61.98,1.19,1,.57.03,1.1-.36,1.25-.92.7-2.6,3.04-4.78,5.69-5.29,1.05-.2,2.41-.12,3.09.69.81.97.4,2.66.19,3.35-.51,1.63-1.67,3.34-3.19,3.87-.46.01-.93.08-1.38.22-.59.17-.97.75-.89,1.37.08.61.6,1.07,1.22,1.08.49,0,.96-.05,1.4-.16,1.37.09,2.74,1.03,3.16,2.32.52,1.62-.5,3.68-2.1,4.24-1.63.58-3.69-.39-4.31-2.02-.25-.64-.96-.96-1.61-.72-.64.24-.97.96-.74,1.6.76,2.07.95,3.78.59,5.21-.34,1.38-1.49,2.86-3.01,3.02-1.28.14-2.7-.72-3.48-2.09-.7-1.22-.98-2.81-.86-4.88.03-.61-.38-1.16-.98-1.29-.09-.02-.18-.03-.27-.03-.5,0-.96.3-1.16.78-.28.18-.49.45-.56.8-.35.35-.81.62-1.36.78h0s0,0,0,0Z" data-sg-fill="sg-fill-0" />
  <path d="M342.23,84.62c-.38-4.58-2.47-8.62-4.25-11.63-7.9-13.37-20.25-23.38-31.14-32.21-.23-.19-.51-.26-.78-.26-.05-.03-.08-.07-.13-.1-2.88-1.32-5.86-2.49-8.86-3.49-.3-.1-.61-.07-.89.05-13.76-2.25-29.33-4.76-44.45-1.8-3.43.67-7.85,1.8-11.51,4.55-1.15.87-2.16,1.87-2.99,2.95-12.09,8.84-15.87,14.27-24.08,26.1l-.99,1.43c-3.48,5.01-7.16,11.04-8.06,17.84-.08.58.26,1.13.81,1.34.55.2,1.16,0,1.48-.49,2.12-3.27,4.93-6.07,8.19-8.2.13,3.58.85,7.16,2.13,10.48.19.48.65.8,1.17.8h.03c.53-.01.99-.35,1.16-.85l.61-1.82c4.96-14.86,6.93-20.75,19.54-29.59.72.58,1.51,1.09,2.35,1.52,1.18.6,2.46,1.03,3.82,1.32,1.01.38,2.08.6,3.15.6.52,0,1.04-.05,1.55-.15.06,0,.11-.05.17-.07,1.2-.06,2.42-.21,3.64-.48,4.34-.94,8.25-3.03,11.16-4.75,1.27-.74,2.51-1.52,3.76-2.3,2.04-1.27,4.16-2.59,6.3-3.72,5.39-2.84,11.43-4.71,17.48-5.42.09.41.39.76.8.9l8.9,3.06c.13.05.27.07.41.07.06,0,.11-.02.17-.02,3.34,4.9,5.85,10.48,7.27,16.23.58,2.35,1,4.8,1.41,7.18.25,1.45.5,2.9.78,4.34.66,3.32,1.69,7.63,3.87,11.5.61,1.09,1.31,2.1,2.06,3.03.02.06.03.13.07.19.82,1.37,2.05,2.47,3.46,3.2,1.12.82,2.29,1.49,3.52,1.98,1.62.64,3.32.95,4.99.95.09,0,.19,0,.28-.01,5.31,16.61,5.09,34.8-.65,51.27-.17.5-.02,1.05.39,1.38s.98.37,1.43.1c3.05-1.84,5.81-4.23,8.1-6.98,1.27,3.68,1.78,7.61,1.46,11.49-.05.58.31,1.12.87,1.29.12.04.25.06.37.06.44,0,.85-.23,1.08-.62,3.45-5.92,4.23-12.95,4.54-19.04.73-14.21-1.53-31.26-6.35-48.04.42-1.62.57-3.37.42-5.15h-.02s0-.01,0-.01ZM241.71,41.73c2.55-1.91,5.78-3.18,10.49-4.1,14.2-2.78,29-.56,42.22,1.6-.62,1.09-1.09,2.27-1.41,3.48-6.02-1.01-11.57-1.63-16.76-1.85-.2-.07-.41-.11-.63-.07-.05,0-.1.02-.16.03-9.18-.33-17.17.58-24.46,2.75-2.02.6-4.36,1.41-6.43,2.82-2.26,1.55-3.85,3.64-4.46,5.9-.37,1.36-.36,2.8-.05,4.17-.21-.03-.41,0-.61.09-1.5-1.64-2.43-3.68-2.54-5.74-.18-3.25,1.66-6.73,4.8-9.09h0s0,.01,0,.01ZM268.39,43.33c-1.86.93-3.66,2-5.42,3.06-.5.3-1.01.6-1.51.9-4.24,2.51-8.83,4.8-13.54,4.49-1.05-.06-1.84-.25-2.47-.58-.57-.3-.99-.75-1.21-1.23.5-.54,1.08-1.05,1.75-1.51,1.78-1.22,3.9-1.94,5.74-2.49,5.12-1.52,10.62-2.4,16.67-2.64h-.01,0ZM217.9,86.68c-.65-2.66-.94-5.42-.84-8.14.02-.45-.21-.87-.59-1.11s-.86-.25-1.26-.03c-2.69,1.47-5.14,3.35-7.27,5.55,1.52-4.14,3.94-7.96,6.26-11.3l.99-1.43c7.07-10.19,10.78-15.53,19.55-22.5-.27,1.08-.39,2.17-.33,3.25.14,2.51,1.21,4.98,2.94,6.99-12.38,8.79-14.92,15.16-19.46,28.73,0,0,0-.01,0,0ZM273.92,49.48c-2.23,1.17-4.38,2.51-6.46,3.81-1.23.77-2.46,1.53-3.71,2.27-2.75,1.62-6.43,3.59-10.42,4.46-2.55.55-5.05.59-7.3.13-.79-.33-1.51-.81-2.09-1.44-1.4-1.51-1.96-3.77-1.42-5.75.06-.24.15-.47.24-.71.41.46.92.86,1.5,1.16.96.5,2.06.78,3.48.87.33.02.66.03.99.03,5.02,0,9.67-2.32,13.98-4.87.51-.3,1.01-.6,1.52-.91,3.63-2.17,7.38-4.41,11.44-5.2,3.86.15,7.96.54,12.3,1.14-4.89,1-9.67,2.7-14.05,5.01h0ZM295.1,45.12c.21-1.97.92-3.89,2.04-5.53,2.19.75,4.37,1.6,6.49,2.53-.95,1.62-1.62,3.4-1.97,5.25l-6.56-2.26h0ZM314.77,77.54c-.28-1.42-.53-2.85-.77-4.28-.42-2.41-.84-4.91-1.45-7.35-1.19-4.81-3.1-9.51-5.6-13.83,3.33,2.84,6.34,5.64,9.02,8.43,2.1,3.56,2.93,7.85,3.72,12,.11.58.22,1.16.33,1.74,1.02,5.23,2.5,10.59,6.34,14.4.99.99,1.96,1.65,2.96,2.02.62.23,1.25.35,1.87.35-.11.22-.23.44-.37.65-1.13,1.72-3.19,2.8-5.24,2.76-.85-.02-1.69-.24-2.46-.6-1.84-1.38-3.47-3.26-4.76-5.54-2.01-3.56-2.98-7.62-3.6-10.75h.01ZM331.92,88.41c-.5.16-1.12.14-1.72-.08-.67-.25-1.33-.71-2.08-1.46-3.36-3.33-4.7-8.27-5.65-13.1-.11-.57-.22-1.15-.33-1.72-.38-2.02-.78-4.07-1.32-6.09,3.84,4.68,6.84,9.37,9.11,14.21.81,1.73,1.68,3.8,1.95,5.94.1.8.11,1.57.04,2.31h0s0-.01,0-.01ZM328.92,96.28c1.61-.66,3.04-1.79,3.99-3.24,1.28-1.96,1.79-4.53,1.45-7.25-.32-2.49-1.27-4.77-2.17-6.68-3.22-6.89-7.86-13.47-14.2-20.1-.03-.05-.05-.1-.08-.14-.12-.19-.29-.32-.47-.42-3.73-3.85-8.04-7.71-12.99-11.67-.02,0-.04,0-.05-.03.34-1.23.85-2.42,1.51-3.51,10.57,8.57,22.4,18.3,29.93,31.03,2.44,4.13,3.65,7.39,3.91,10.56.32,3.91-1.06,7.6-3.6,9.63-1.92,1.53-4.57,2.16-7.22,1.83,0,0-.01-.01-.01-.01ZM345.67,137.68c-.21,4.07-.63,8.57-1.97,12.77-.34-3.04-1.13-6.03-2.35-8.84-.18-.41-.57-.7-1.01-.74-.45-.05-.89.15-1.15.51-1.62,2.25-3.58,4.29-5.77,6.02,4.74-15.87,4.63-33.03-.33-48.85,1.71-.38,3.3-1.09,4.62-2.15,1-.8,1.84-1.81,2.54-2.95,4.12,15.38,6.09,31.32,5.43,44.22h-.01Z" data-sg-fill="sg-fill-0" />
  <path d="M333.35,165.14c-2.39-.49-4.44,1.43-5.47,5.12l-2.94,10.55c-2.35-5.05-7.53-8.78-13.16-8.98-.61-.05-1.13.38-1.26.97-1.89,8.19,1.7,17.23,8.59,22l-7.94,12.92c.6-8.28-2.87-16.87-9.49-22.04-.3-.23-.69-.32-1.06-.23s-.68.34-.84.68c-3.19,6.73-4.86,13.16-4.98,19.09-.14,6.88,1.82,13.25,5.52,18.07-4.19,5.57-8.93,10.69-14.15,15.28,1.27-3.12,1.94-6.7,1.95-10.53.02-6.36-1.71-12.75-3.1-17.88-.11-.39-.39-.71-.77-.85s-.8-.09-1.14.14c-6.06,4.15-10.55,10.61-12.32,17.74-1.69,6.81-.9,14.25,2.15,20.58-4.57,4.13-9.59,7.75-14.94,10.78-.26.15-.46.39-.56.67-.66,1.84-.34,3.77.85,5.29,1.06,1.34,2.7,2.23,4.4,2.37h.1c.23,0,.45-.06.65-.18,34.54-21.08,60.76-55.38,72.02-94.16.83-.96.96-2.95.96-2.98.08-1.82-.97-3.99-3.07-4.4v-.02h0ZM333.64,170.71c-.21.16-.38.39-.46.66-10.97,38.23-36.72,72.09-70.68,92.96-.88-.17-1.71-.66-2.26-1.37-.42-.53-.83-1.38-.59-2.48,5.63-3.23,10.89-7.1,15.66-11.51.42-.38.52-1,.26-1.5-3.13-5.97-4-13.14-2.37-19.67,1.48-5.96,5.04-11.42,9.87-15.22,1.24,4.65,2.56,10.12,2.54,15.46-.02,6.36-2,11.88-5.57,15.52-.46.47-.48,1.21-.05,1.7.43.49,1.17.57,1.69.17,8.08-6.07,15.21-13.28,21.21-21.42.34-.46.32-1.1-.05-1.54-3.72-4.43-5.69-10.54-5.56-17.18.1-5.15,1.47-10.73,4.06-16.59,6.97,6.37,9.39,17.22,5.59,25.91-.26.6-.02,1.3.57,1.61.58.3,1.3.11,1.64-.45l12.72-20.68c.17-.29.23-.63.15-.95-.08-.33-.29-.6-.57-.78-6.36-3.81-9.91-11.63-8.71-18.92,5.49.74,10.39,5.61,10.96,11.14.06.6.54,1.07,1.14,1.12.59.06,1.15-.33,1.31-.91l4.14-14.83c.38-1.36,1.34-3.59,2.58-3.34.67.13,1.09,1.08,1.06,1.84-.02.5-.16.98-.28,1.27v-.02h0Z" data-sg-fill="sg-fill-0" />
  <path d="M300.9,200.92c-.66.22-1.01.92-.8,1.58,1.74,5.3,2.79,10.81,3.11,16.39.04.67.59,1.18,1.25,1.18h.07c.69-.04,1.22-.63,1.18-1.32-.33-5.79-1.42-11.52-3.23-17.03-.22-.66-.92-1.01-1.58-.8h0Z" data-sg-fill="sg-fill-0" />
  <path d="M317.3,179.83c-.49-.49-1.28-.49-1.77,0s-.49,1.28,0,1.77c2.87,2.89,5.16,6.25,6.79,9.99.21.47.66.75,1.15.75.17,0,.34-.03.5-.1.63-.28.92-1.01.65-1.64-1.75-4.02-4.21-7.64-7.31-10.75v-.02Z" data-sg-fill="sg-fill-0" />
  <path d="M281.05,226.27c.22-.66-.14-1.36-.79-1.58-.66-.22-1.36.14-1.58.79-2.03,6.13-2.69,12.75-1.92,19.16.08.63.62,1.1,1.24,1.1h.15c.69-.08,1.17-.71,1.09-1.39-.73-6.04-.1-12.3,1.81-18.08h0Z" data-sg-fill="sg-fill-0" />
  <path d="M228.46,292.02c-2.02-.65-4.22-.26-5.74,1.03-1.7,1.44-2.3,3.88-1.44,5.82.94,2.12,3.58,3.21,5.65,2.32.63-.27.93-1.01.66-1.64-.27-.64-1.01-.93-1.64-.66-.81.35-1.99-.17-2.38-1.04-.41-.92-.07-2.19.77-2.9.85-.72,2.17-.94,3.36-.56,1.07.34,1.97,1.17,2.53,2.33.64,1.3.75,2.84.3,4.1-.88,2.45-3.64,4.24-6.55,4.25-1.11-.03-2.18-.2-3.35-.42-1.49-.28-3.02-.57-4.63-.42-3.53.31-6.68,2.77-7.85,6.12-.59,1.7-.47,3.68.31,5.17.59,1.12,1.5,1.88,2.64,2.18.11.03.22.04.33.04.55,0,1.05-.37,1.21-.92.18-.67-.21-1.35-.88-1.53-.46-.12-.82-.44-1.08-.94-.46-.87-.52-2.15-.16-3.19.83-2.4,3.18-4.23,5.7-4.45,1.27-.11,2.57.13,3.95.39,1.23.23,2.45.46,3.81.46,3.99-.01,7.65-2.44,8.89-5.9.69-1.92.54-4.12-.41-6.05-.87-1.77-2.29-3.05-4.01-3.61v.02s.01,0,.01,0Z" data-sg-fill="sg-fill-0" />
  <path d="M197.49,300.18c-1.87.33-3.62,1.55-4.8,3.33-1.18-1.78-2.93-2.99-4.81-3.33-3.15-.56-6.61,1.56-7.87,4.82-1.05,2.71-.71,6,.93,9.02,1.43,2.63,3.57,4.7,5.68,6.55.81.71,1.46,1.19,2.03,1.61.92.68,1.64,1.22,2.66,2.44.25.3.6.45.96.45.28,0,.56-.09.8-.29.06-.05.1-.13.15-.19.12-.07.24-.16.33-.27.85-1.03,1.59-1.44,2.54-1.96.77-.43,1.65-.92,2.65-1.79,2.11-1.85,4.26-3.92,5.68-6.55,1.64-3.02,1.98-6.31.93-9.02-1.26-3.26-4.71-5.38-7.87-4.82h.01ZM202.23,312.82c-1.24,2.28-3.2,4.17-5.13,5.86-.8.7-1.49,1.08-2.22,1.49-.83.46-1.67.94-2.57,1.82-.78-.79-1.46-1.3-2.17-1.82-.56-.42-1.14-.85-1.87-1.48-1.94-1.7-3.9-3.58-5.14-5.86-1.27-2.34-1.57-4.93-.79-6.93.83-2.15,3.12-3.61,5.1-3.26,1.2.21,2.36,1.03,3.16,2.25.35.53.62.81.86,1.01.02.1.04.25.07.48v.02c.02.1.06.19.1.29.02.06.03.12.06.17.05.09.14.16.21.24.04.04.06.08.1.11.08.06.18.1.28.14.05.02.1.06.15.07,0,0,.02.01.03.01.08.02.16,0,.25,0,.07,0,.13.02.21.02h.03c.08-.01.15-.05.22-.08.08-.03.16-.05.24-.09.06-.03.1-.09.15-.13.07-.06.15-.11.2-.19.04-.05.05-.11.08-.17.05-.09.1-.17.12-.27v-.02c.1-.41.16-.7.21-.91.25-.23.44-.51.57-.71.81-1.21,1.96-2.03,3.16-2.25,1.98-.35,4.27,1.11,5.1,3.26.77,2,.48,4.59-.79,6.93h.02,0Z" data-sg-fill="sg-fill-0" />
  <path d="M212.21,207.69c-.69-5.42-6.06-9.62-11.49-9-3.49.4-6.49,2.75-8.05,5.81-1.56-3.06-4.56-5.41-8.05-5.81-5.43-.62-10.8,3.58-11.49,9-.62,4.84,2.24,8.93,4,10.94,1.74,1.99,3.79,3.65,5.78,5.26.86.69,1.71,1.39,2.54,2.11,2.07,1.8,4.95,4.6,6,8.13.16.54.66.9,1.2.9h.06c.54,0,1.04-.35,1.2-.9,1.04-3.54,3.92-6.33,6-8.13.83-.72,1.69-1.41,2.54-2.11,1.98-1.61,4.04-3.27,5.78-5.26,1.76-2.01,4.62-6.1,4-10.94h-.02,0ZM206.34,216.99c-1.6,1.83-3.48,3.35-5.47,4.97-.88.71-1.75,1.42-2.6,2.16-1.77,1.53-4.05,3.73-5.58,6.54-1.53-2.81-3.82-5.01-5.59-6.54-.85-.74-1.73-1.45-2.6-2.16-1.99-1.61-3.87-3.14-5.47-4.97-1.48-1.69-3.89-5.11-3.4-8.98.52-4.04,4.67-7.3,8.72-6.84,4.05.47,7.36,4.59,6.94,8.64-.07.69.43,1.3,1.11,1.37.1,0,.19-.02.28-.03.09,0,.18.04.28.03.69-.07,1.19-.68,1.12-1.37-.42-4.06,2.89-8.18,6.94-8.64,4.06-.46,8.21,2.79,8.73,6.84.49,3.87-1.92,7.29-3.4,8.98h0Z" data-sg-fill="sg-fill-0" />
  <path d="M201.95,248.48c0-5.1-4.15-9.24-9.24-9.24s-9.24,4.15-9.24,9.24,4.15,9.24,9.24,9.24,9.24-4.15,9.24-9.24ZM192.71,255.22c-3.72,0-6.74-3.02-6.74-6.74s3.02-6.74,6.74-6.74,6.74,3.02,6.74,6.74-3.02,6.74-6.74,6.74Z" data-sg-fill="sg-fill-0" />
  <path d="M198.01,270.24c0-2.89-2.35-5.25-5.25-5.25s-5.25,2.35-5.25,5.25,2.35,5.25,5.25,5.25,5.25-2.35,5.25-5.25ZM192.76,272.99c-1.51,0-2.75-1.23-2.75-2.75s1.23-2.75,2.75-2.75,2.75,1.23,2.75,2.75-1.23,2.75-2.75,2.75Z" data-sg-fill="sg-fill-0" />
  <path d="M188.99,287.79c0,1.98,1.61,3.59,3.59,3.59s3.59-1.61,3.59-3.59-1.61-3.59-3.59-3.59-3.59,1.61-3.59,3.59ZM193.68,287.79c0,.6-.49,1.09-1.09,1.09s-1.09-.49-1.09-1.09.49-1.09,1.09-1.09,1.09.49,1.09,1.09Z" data-sg-fill="sg-fill-0" />
  <path d="M192.59,183.3c-2.89,0-5.25,2.35-5.25,5.25s2.35,5.25,5.25,5.25,5.25-2.35,5.25-5.25-2.35-5.25-5.25-5.25ZM192.59,191.29c-1.51,0-2.75-1.23-2.75-2.75s1.23-2.75,2.75-2.75,2.75,1.23,2.75,2.75-1.23,2.75-2.75,2.75Z" data-sg-fill="sg-fill-0" />
  <path d="M267.7,20.37c-34.48,2.13-66.15,26.97-76.88,59.7-10.74-32.73-42.41-57.57-76.88-59.7-35.86-2.2-71.76,20.32-85.34,53.59-6.57,16.1-8.71,35.49-6.36,57.63,4.6,43.28,25.12,87.71,57.77,125.11,27.49,31.49,63.29,58.83,109.4,83.56,0,.03,0,.06.02.08.23.42.66.66,1.1.66.09,0,.19-.01.28-.03.09.02.19.03.28.03.45,0,.88-.24,1.1-.66,0-.03,0-.06.02-.08,46.1-24.72,81.9-52.06,109.4-83.56,32.65-37.4,53.17-81.83,57.77-125.11,2.35-22.14.22-41.53-6.36-57.63-13.58-33.27-49.46-55.79-85.34-53.59h.02ZM356.9,131.33c-4.55,42.77-24.85,86.72-57.17,123.73-27.34,31.32-62.98,58.51-108.93,83.12-45.95-24.61-81.59-51.81-108.93-83.12-32.32-37.01-52.62-80.96-57.17-123.73-2.31-21.73-.23-40.71,6.18-56.42,13.19-32.31,48.05-54.2,82.87-52.04,34.83,2.15,66.72,28.16,75.83,61.85,0,.05.05.09.07.14.03.08.07.16.12.23.04.06.09.12.15.17.06.06.12.11.19.16s.14.08.21.11c.05.02.09.06.15.07h.08c.08.02.16.01.24.02.08,0,.17,0,.25-.02h.08c.05-.01.09-.05.14-.07.08-.03.15-.06.22-.11s.13-.1.18-.16c.06-.06.11-.11.15-.17.05-.07.08-.15.12-.23.02-.05.05-.08.07-.14,9.11-33.68,41-59.7,75.83-61.85,34.84-2.16,69.68,19.74,82.87,52.04,6.41,15.71,8.5,34.7,6.18,56.42h.02Z" data-sg-fill="sg-fill-0" />
  <path d="M381.64,117.58c.65-6.54-2.09-13.31-7.05-17.61,4.63-6.12,6.15-14.57,3.86-21.9-2.24-7.16-8.08-13.12-15.15-15.62,3.27-4.99,3.81-11.8,1.2-17.17-2.68-5.52-8.59-9.38-14.71-9.73.11-6.35-3.08-12.58-8.38-16.15-5.04-3.39-11.86-4.09-17.54-1.91-.49-4.8-3.87-9.23-8.48-10.78-4.47-1.51-9.67-.16-12.99,3.14-2.06-4.97-6.74-8.8-12.07-9.66-5.58-.9-11.49,1.5-14.96,5.92-4.47-4.65-11.36-6.76-17.67-5.28-6.17,1.45-11.33,6.22-13.37,12.18-4.41-3.37-10.6-4.19-15.71-1.92-5.12,2.27-8.66,7.39-9.14,12.92-4.57-1.85-10.17-.88-13.75,2.58-3.21,3.09-4.48,7.87-3.51,12.16-3.72-1.35-8.15-.8-11.36,1.51-3.21-2.31-7.65-2.87-11.36-1.51.97-4.29-.3-9.06-3.51-12.16-3.58-3.46-9.18-4.42-13.75-2.58-.47-5.53-4.02-10.65-9.14-12.92s-11.3-1.45-15.72,1.92c-2.04-5.96-7.19-10.74-13.36-12.18-6.31-1.48-13.21.63-17.67,5.28-3.47-4.42-9.39-6.82-14.96-5.92-5.33.86-10.02,4.7-12.07,9.66-3.31-3.3-8.51-4.65-12.99-3.14-4.61,1.55-7.99,5.99-8.48,10.78-5.68-2.18-12.5-1.48-17.54,1.91-5.3,3.57-8.49,9.79-8.38,16.15-6.12.35-12.03,4.21-14.7,9.73-2.61,5.37-2.07,12.18,1.2,17.17-7.07,2.5-12.91,8.46-15.15,15.62-2.29,7.33-.77,15.78,3.86,21.9C2.18,104.27-.56,111.04.09,117.58c.64,6.45,4.57,12.47,10.16,15.73-3.97,5.34-5.56,12.43-4.37,19.71,1.21,7.37,5.06,13.65,10.65,17.42-3.71,6.14-4.14,14.07-1.02,20.55,3.08,6.39,9.39,10.97,16.38,11.99-1.91,6.25-1.14,13.35,2.17,19.74,3.34,6.43,8.76,11.17,15.02,13.18-2.28,5.9-.88,13.1,3.58,17.63,4.21,4.28,10.85,5.88,16.58,4.2-1.13,5.82.35,12.25,4.18,17.67,4,5.67,9.9,9.3,16.06,9.97-1.85,6.4.23,13.83,5.29,18.21,4.97,4.31,12.44,5.37,18.46,2.81.48,6.88,4.29,13.6,10.46,18.29,6.12,4.66,13.55,6.54,20.27,5.22-1.38,6.68,1.04,14.01,6.29,18.45,5.29,4.48,13.02,5.63,19.42,3.07.46,3.96,3.36,7.56,7.26,8.66.86.24,1.69.35,2.5.35,1.19,0,2.34-.24,3.48-.6,2.64-.69,5.66-2.09,8.07-3.98.24.19.5.38.78.58,2.4,1.7,5.07,2.76,7.13,3.5.21.08.43.07.64.03.99.27,1.97.44,2.96.44.78,0,1.56-.1,2.33-.32,3.9-1.11,6.79-4.7,7.26-8.66,6.4,2.56,14.12,1.41,19.42-3.07,5.24-4.44,7.67-11.76,6.29-18.45,6.72,1.32,14.15-.56,20.27-5.22,6.17-4.69,9.98-11.41,10.46-18.29,6.02,2.56,13.49,1.51,18.46-2.81,5.06-4.39,7.14-11.81,5.29-18.21,6.16-.66,12.06-4.3,16.06-9.96,3.82-5.42,5.31-11.85,4.18-17.67,5.73,1.68,12.37.08,16.58-4.2,4.46-4.53,5.85-11.73,3.58-17.63,6.26-2.01,11.68-6.74,15.02-13.18,3.32-6.39,4.08-13.49,2.17-19.74,6.99-1.02,13.31-5.59,16.38-11.99,3.12-6.49,2.7-14.42-1.02-20.55,5.58-3.77,9.44-10.04,10.65-17.42,1.2-7.28-.39-14.37-4.37-19.71,5.59-3.27,9.51-9.28,10.16-15.73h-.02s0,0,0,0ZM190.87,55.63c-2.76-3.32-2.78-8.67,0-11.98,2.78,3.32,2.76,8.66,0,11.98ZM189.93,346.86c.05-.58.33-1.1.71-1.33.17-.11.39-.16.61-.16.41,0,.85.17,1.17.47.53.51.81,1.36.75,2.28-.06.84-.39,1.76-1.01,2.8-.29.49-.65.97-1.06,1.43-.36-.56-.66-1.23-1.05-2.18-.17-.42-.23-2.06-.12-3.31h0ZM369.02,131.79c-.35.17-.6.49-.68.87s.02.78.28,1.07c4.2,4.89,5.93,11.77,4.77,18.88-1.17,7.11-5.02,13.08-10.55,16.37-.3.18-.51.47-.58.81s0,.69.2.98c3.8,5.46,4.41,13.15,1.53,19.14s-9.27,10.31-15.9,10.75c-.4.03-.76.24-.97.57s-.26.75-.11,1.12c2.29,5.93,1.73,12.93-1.53,19.21s-8.67,10.76-14.83,12.31c-.37.09-.67.35-.83.69-.16.35-.15.74.02,1.08,2.62,5.19,1.56,11.97-2.52,16.12s-10.84,5.32-16.08,2.79c-.45-.22-.99-.15-1.37.19-.38.33-.52.86-.36,1.33,1.9,5.65.7,12.33-3.21,17.87s-9.8,8.91-15.76,9.01c-.41,0-.79.22-1.02.56s-.27.78-.11,1.16c2.36,5.77.65,12.91-4.05,17-4.7,4.08-12.02,4.76-17.4,1.62-.39-.23-.88-.23-1.27,0s-.63.66-.61,1.11c.18,6.77-3.38,13.6-9.52,18.27-6.14,4.67-13.67,6.27-20.15,4.28-.45-.14-.94-.01-1.26.33-.33.34-.44.83-.29,1.27,2.09,6.15,0,13.67-4.96,17.87s-12.72,5.01-18.44,1.93c-.41-.22-.9-.2-1.29.06s-.6.71-.55,1.17c.37,3.5-2.09,7.12-5.47,8.08-3.17.9-6.75-1.07-10.53-3.15l-.74-.4c.56-.61,1.06-1.25,1.45-1.92.82-1.39,1.26-2.66,1.35-3.89.12-1.66-.45-3.25-1.52-4.27-1.32-1.26-3.35-1.53-4.81-.64-1.06.65-1.77,1.86-1.9,3.24,0,.03-.27,3.1.3,4.49.5,1.22.91,2.12,1.49,2.93-.34.26-.7.5-1.07.74-.66.3-1.31.61-1.95.92-1.44.69-2.75,1.31-4,1.72-.15.04-.31.08-.46.12-.06.01-.11.05-.16.07-1.33.36-2.62.44-3.98.06-3.38-.96-5.83-4.58-5.47-8.08.05-.46-.16-.91-.55-1.17s-.88-.28-1.29-.06c-5.72,3.08-13.48,2.27-18.44-1.93s-7.05-11.71-4.96-17.87c.15-.44.04-.94-.29-1.27-.33-.34-.81-.46-1.26-.33-6.48,1.98-14.01.38-20.15-4.28-6.14-4.67-9.7-11.5-9.52-18.27.01-.45-.22-.88-.61-1.11-.39-.23-.88-.23-1.27,0-5.37,3.15-12.69,2.47-17.4-1.62-4.71-4.08-6.41-11.23-4.05-17,.16-.38.11-.82-.11-1.16s-.61-.55-1.02-.56c-5.96-.11-11.85-3.48-15.76-9.01-3.91-5.54-5.11-12.22-3.21-17.87.16-.48.02-1-.36-1.33s-.92-.41-1.37-.19c-5.23,2.53-12,1.36-16.08-2.79s-5.14-10.93-2.52-16.12c.17-.34.18-.74.02-1.08s-.46-.6-.83-.69c-6.17-1.54-11.57-6.03-14.83-12.31-3.26-6.28-3.82-13.28-1.53-19.21.14-.37.1-.79-.11-1.12s-.57-.55-.97-.57c-6.63-.44-13.02-4.76-15.9-10.75-2.88-5.99-2.27-13.68,1.53-19.14.2-.29.27-.64.2-.98s-.29-.63-.58-.81c-5.54-3.29-9.39-9.25-10.55-16.37-1.17-7.11.57-14,4.77-18.88.25-.29.35-.69.28-1.07-.08-.38-.33-.7-.68-.87-5.54-2.66-9.52-8.34-10.13-14.46s2.16-12.47,7.07-16.18c.27-.21.45-.52.49-.86s-.07-.68-.29-.95c-4.71-5.54-6.35-13.59-4.18-20.53s8.11-12.62,15.13-14.49c.41-.11.74-.42.87-.83.13-.41.04-.85-.23-1.18-3.61-4.32-4.42-10.88-1.96-15.95s8.11-8.53,13.74-8.34c.36,0,.7-.13.95-.39s.37-.61.33-.97c-.54-5.82,2.36-11.92,7.21-15.19,4.85-3.26,11.59-3.65,16.79-.97.4.21.88.18,1.26-.07.38-.25.59-.68.56-1.13-.31-4.35,2.69-8.84,6.82-10.24,4.13-1.39,9.24.37,11.63,4.01.27.42.77.64,1.26.54.49-.09.88-.46,1-.95,1.19-5.08,5.62-9.21,10.77-10.04,5.15-.83,10.65,1.69,13.38,6.13.21.35.58.57.99.59.42.02.8-.15,1.05-.47,3.73-4.69,10.4-7.01,16.24-5.65,5.83,1.37,10.78,6.41,12.04,12.27.1.45.43.81.87.94s.92,0,1.24-.32c3.64-3.7,9.73-4.87,14.48-2.76s7.98,7.39,7.69,12.58c-.03.47.21.91.61,1.15s.9.23,1.3-.02c3.81-2.4,9.33-1.83,12.57,1.3,3.24,3.12,4.01,8.62,1.75,12.51-.3.52-.19,1.19.27,1.58s1.14.39,1.6,0c3.06-2.54,7.79-2.62,11.1-.5-3.75,4.44-3.53,11.77.57,15.92.35.36.86.45,1.31.29.44.16.96.07,1.31-.29,4.1-4.15,4.33-11.48.57-15.92,3.31-2.13,8.04-2.04,11.1.5.47.39,1.14.38,1.6,0,.46-.39.58-1.06.27-1.58-2.26-3.89-1.49-9.39,1.75-12.51s8.76-3.7,12.57-1.3c.4.25.9.26,1.3.02.4-.24.64-.68.61-1.15-.3-5.19,2.94-10.48,7.69-12.58,4.75-2.11,10.84-.94,14.48,2.76.32.33.8.45,1.24.32s.78-.49.87-.94c1.26-5.86,6.21-10.9,12.04-12.27,5.83-1.37,12.51.96,16.24,5.65.25.32.64.5,1.05.47.41-.02.78-.25.99-.59,2.73-4.44,8.23-6.97,13.38-6.13,5.15.83,9.58,4.96,10.77,10.04.11.49.51.86,1,.94.5.09.99-.13,1.26-.54,2.39-3.64,7.5-5.41,11.62-4.01,4.13,1.39,7.12,5.89,6.82,10.24-.03.45.18.88.56,1.13s.86.28,1.26.07c5.19-2.69,11.94-2.3,16.79.97,4.85,3.26,7.75,9.37,7.21,15.19-.03.36.09.71.33.97.25.26.59.4.95.39,5.61-.17,11.28,3.27,13.74,8.34s1.65,11.63-1.96,15.95c-.27.33-.36.77-.23,1.18.13.41.46.72.87.83,7.02,1.87,12.96,7.55,15.13,14.49,2.17,6.94.53,15-4.18,20.53-.22.26-.33.6-.29.95s.21.65.49.86c4.91,3.71,7.68,10.06,7.07,16.18s-4.59,11.79-10.13,14.46h-.02s0,0,0,0Z" data-sg-fill="sg-fill-0" />
</g></svg>