<svg xmlns="http://www.w3.org/2000/svg" id="Layer_2" data-name="Layer 2" viewBox="0.0 0.0 100.0 151.49444444444444">
  <g transform="scale(1.8518518518518519)"><defs data-sg-fill="sg-fill-0">
    <style data-sg-fill="sg-fill-0">
      .cls-1 {
        stroke-width: 0px;
      }
    </style>
  </defs>
  <g id="Layer_1-2" data-name="Layer 1-2" data-sg-fill="sg-fill-0">
    <g id="ou0vsp.tif" data-sg-fill="sg-fill-0">
      <g data-sg-fill="sg-fill-0">
        <path class="cls-1" d="M21.87,78.512c.025.278.045.454.057.626.016.266.061.532.037.798-.065.753-.463,1.101-1.22,1.113-1.138.025-2.153-.417-3.18-.819-1.244-.483-2.251-1.351-3.352-2.067-.503-.327-1.048-.593-1.58-.872-.237-.123-.467-.102-.684.094-.356.323-.79.368-1.252.291-1.207-.201-2.186-.843-3.062-1.637-2.75-2.497-4.556-5.571-5.497-9.156-.569-2.165-.729-4.38-.778-6.61-.012-.585-.127-1.162-.164-1.748-.033-.544-.033-1.089-.041-1.637-.008-.675.025-1.355-.012-2.03-.041-.745-.143-1.486-.225-2.227-.012-.106-.025-.241-.09-.303-.409-.385-.34-.872-.311-1.347.143-2.137.389-4.269,1.109-6.287.602-1.686,1.412-3.299,2.137-4.94.156-.348.417-.634.098-1.064-.102-.139.008-.536.143-.733.512-.745,1.048-1.482,1.625-2.177.921-1.109,1.891-2.177,2.828-3.27.602-.704,1.154-1.449,1.486-2.329.221-.585.282-1.167-.049-1.744-.467-.802-.332-1.506.303-2.182.397-.426.729-.917,1.048-1.408.54-.827.368-1.67-.045-2.48-.438-.855-.937-1.678-1.355-2.538-.164-.336-.176-.749-.262-1.126-.037-.168-.065-.344-.143-.495-.205-.393-.442-.774-.647-1.162-.221-.413-.266-.88-.135-1.297.111-.368.393-.679.647-1.097-.123-.499-.323-1.113-.405-1.744-.057-.446-.016-.925.09-1.363.111-.475.434-.655.925-.614.262.02.54.074.765.196.639.344,1.285.692,1.875,1.113.692.495,1.326,1.072,1.989,1.609.233.188.479.368.729.561.458-.258.9-.516,1.351-.757.192-.102.229-.241.192-.442-.053-.278-.086-.561-.115-.843-.049-.458.045-.872.311-1.265.139-.209.225-.483.246-.733.074-.79.287-1.543.61-2.255.311-.684.925-.749,1.379-.139.536.72.872,1.551,1.113,2.407.188.667.332,1.347.512,2.071.413.053.868.09,1.314.18.503.102,1.04.164,1.478.401.704.381,1.314.921,1.711,1.641.966,1.74,2.378,2.98,4.163,3.831.626.299,1.244.614,1.838.974.372.225.692.544,1.068.847.192-.074.417-.168.651-.25.188-.065.258-.188.323-.377.344-.97.7-1.94,1.081-2.898.102-.258.258-.512.442-.724.413-.467,1.007-.413,1.351.111.094.143.16.319.201.491.229.991.417,1.985.287,3.012-.008.07,0,.139,0,.172.823.258,1.613.508,2.407.749.348.106.647-.045.876-.274.503-.499.982-1.027,1.465-1.547.327-.352.614-.749.974-1.056.315-.274.688-.516,1.076-.663.729-.274,1.285.111,1.351.88.082.982.082,1.961-.266,2.898-.102.278-.065.479.123.724.565.733.52,1.564.254,2.39-.106.327-.172.634-.119.982.09.602-.029,1.175-.389,1.674-.307.434-.356.892-.295,1.416.094.794.307,1.531.741,2.202.585.913,1.162,1.83,1.744,2.746.18.287.364.569.548.851.315.487.446.978-.065,1.478.524.655.999,1.322,1.547,1.92.671.729,1.212,1.527,1.564,2.452.033.082.065.168.119.237.974,1.285,1.473,2.796,2.006,4.285.368,1.036.659,2.104.974,3.16.156.52.123.995-.36,1.257,0,.933.029,1.821-.008,2.701-.025.655-.147,1.306-.205,1.961-.147,1.756-.34,3.504-.9,5.19-.111.336-.209.684-.258,1.036-.065.454-.119.917-.102,1.375.037,1.085-.135,2.112-.544,3.123-.778,1.932-1.887,3.663-3.086,5.345-.884,1.244-1.916,2.329-3.225,3.135-.115.07-.168.241-.237.372-.164.311-.266.671-.495.925-.393.43-.839.819-1.302,1.179-.769.598-1.555,1.171-2.353,1.727-.377.262-.774.516-1.195.684-.974.389-1.956.765-3.008.884-.254.029-.45.102-.573.381-.176.397-.553.618-.945.729-.888.25-1.776.516-2.685.655-2.444.377-4.813-.029-7.142-.786-.729-.237-1.461-.454-2.194-.663-.196-.057-.409-.061-.716-.106l-.004.037ZM15.804,24.734c.36-.151.643-.25.905-.389.532-.282,1.105-.389,1.699-.397.532-.008,1.068.061,1.6.025,1.641-.119,3.213.254,4.801.569,1.461.287,2.926.303,4.388-.049,1.064-.258,1.854-.851,2.423-1.78.503-.823.372-1.686-.389-2.272-.156-.119-.319-.229-.491-.319-.598-.315-1.195-.634-1.805-.925-1.821-.872-3.225-2.19-4.228-3.937-.385-.667-.905-1.195-1.629-1.473-.995-.381-2.034-.544-3.086-.442-1.584.151-2.922.941-4.22,1.793-.34.225-.487.278-.81.041-.372-.27-.733-.565-1.089-.855-1.052-.847-2.063-1.752-3.319-2.308-.217-.098-.45-.164-.684-.246-.221.381-.188.72-.111,1.044.156.639.336,1.273.512,1.903.123.438.065.63-.258.819-.573.332-.679.598-.405,1.195.176.385.409.749.639,1.109.201.307.364.593.237.991-.049.147.02.352.086.512.102.262.241.516.372.765.368.708.786,1.396,1.097,2.128.495,1.162.524,2.321-.266,3.393-.327.442-.667.876-1.011,1.306-.389.483-.385.692,0,1.162.098.115.196.27.205.409.041.585.045,1.171-.192,1.731-.377.888-.798,1.748-1.42,2.493-1.109,1.322-2.231,2.632-3.336,3.958-.377.45-.712.933-1.068,1.4-.123.16-.209.315-.065.528.192.282.119.589-.008.868-.172.372-.389.72-.553,1.093-.598,1.347-1.257,2.677-1.756,4.06-.733,2.018-1.019,4.138-1.175,6.275-.016.209-.049.463.045.626.36.61.434,1.285.479,1.952.074,1.081.061,2.169.115,3.25.02.422.045.864.176,1.261.278.843.626,1.662.95,2.489.053.131.119.262.151.397.053.225.016.438-.225.536-.213.086-.385-.012-.508-.184-.098-.139-.18-.287-.27-.43-.07.123-.078.225-.07.327.106,1.187.156,2.382.34,3.553.389,2.484,1.191,4.834,2.546,6.97,1.056,1.662,2.263,3.197,3.888,4.351.512.364,1.06.639,1.678.79.319.078.585.061.839-.168.348-.315.765-.389,1.195-.209.54.225,1.085.446,1.584.745.626.372,1.212.81,1.801,1.244,1.171.855,2.489,1.359,3.88,1.703.188.045.385.065.581.074.475.016.577-.074.565-.54-.008-.282-.082-.565-.09-.847-.025-.749.409-1.175,1.154-1.126.229.016.458.061.679.123.786.225,1.572.454,2.349.708,2.177.708,4.392,1.064,6.672.704.819-.131,1.621-.389,2.423-.61.217-.057.422-.16.483-.438.115-.503.225-.569.753-.647,1.78-.258,3.483-.716,4.887-1.928.135-.115.295-.196.434-.307.782-.614,1.568-1.224,2.337-1.854.164-.135.262-.348.446-.593-.291-.049-.479-.119-.667-.111-.655.037-1.314.061-1.961.16-1.052.16-2.087.43-3.168.372-.9-.045-1.719-.299-2.407-.88-.192-.164-.36-.397-.458-.634-.397-.966-.393-.978-1.428-.95-.192.004-.389.029-.581.07-.991.201-1.981.43-2.976.614-.651.119-.929-.102-1.048-.737-.016-.078-.041-.151-.078-.27-.172.119-.307.201-.43.299-.503.393-.819.929-1.121,1.478-.409.737-.986,1.306-1.735,1.682-.164.082-.377.139-.553.115-.123-.016-.287-.184-.307-.303-.02-.115.106-.27.205-.377.065-.07.201-.074.291-.127.299-.188.626-.348.81-.671-.09-.012-.156.008-.221.037-.503.221-.999.467-1.514.663-.512.192-1.052.184-1.453-.213-.405-.401-.794-.385-1.257-.176-.778.352-1.555.704-2.345,1.031-1.437.589-2.931.745-4.449.446-.851-.168-1.674-.479-2.525-.663-.978-.209-1.85-.622-2.669-1.171-.495-.332-.909-.753-1.113-1.33-.201-.569.098-.97.692-.925.299.025.593.102.892.151.618.098,1.232.061,1.854-.012-1.306-.585-2.472-1.363-3.626-2.165-1.216-.847-2.19-1.92-3.017-3.135-.217-.319-.16-.63.086-.745.319-.147.442.098.577.315.02.029.033.061.053.09.741,1.007,1.576,1.924,2.595,2.665,1.519,1.109,3.16,1.985,4.932,2.607.176.061.393.123.561.074,1.318-.389,2.427-1.142,3.487-1.989-.422-.553-.389-.802.123-1.183.086-.065.176-.119.266-.18,1.981-1.375,4.191-2.165,6.549-2.583.164-.029.323-.078.503-.123-.36-1.081-.442-2.12-.315-3.176.057-.475.156-.945.213-1.424.016-.143.025-.348-.057-.438-.295-.332-.327-.704-.233-1.101.119-.483.229-.97.397-1.437.258-.716.565-1.412.847-2.116-.246-.09-.508-.123-.688-.262-.291-.229-.229-.565-.139-.888.295-1.048.806-1.973,1.519-2.791.209-.237.241-.45.196-.765-.098-.688-.393-1.388-.004-2.087.045-.078.016-.209-.008-.307-.168-.639-.471-1.212-.802-1.78-.319.16-.593.34-.892.434-.196.061-.548.094-.634-.016-.311-.401-.63-.254-.995-.151-1.171.323-2.345.454-3.5-.053-1.175-.512-2.333-1.048-3.336-1.871-.81-.663-1.69-1.248-2.329-2.108-.892-1.199-1.805-2.386-2.435-3.753-.123-.27-.209-.561-.287-.847-.053-.205,0-.401.233-.475.213-.065.385.025.487.221.049.094.078.201.127.295,1.113,2.165,2.358,4.224,4.367,5.706.905.667,1.842,1.248,2.853,1.752,1.216.602,2.403.696,3.659.274.569-.192,1.109-.258,1.613.176.389-.229.745-.467,1.121-.659,1.207-.622,2.366-.315,3.115.806.037.053.082.102.123.147.057-.029.098-.037.119-.061,1.117-1.441,2.644-2.427,4.048-3.54.778-.618,1.604-1.179,2.435-1.727,1.424-.937,2.902-1.805,4.298-2.783,1.007-.704,1.568-1.735,1.609-2.992.02-.733.106-1.207.442-1.92.258-.553.115-.937-.45-1.187-.352-.156-.446-.352-.327-.724.057-.188.147-.364.205-.548.098-.303.213-.606.045-.999-.246.057-.516.082-.745.184-.905.413-1.809.827-2.689,1.285-.819.426-1.613.905-2.415,1.367-2.296,1.326-4.691,1.4-7.142.528-.352-.123-.659-.364-1.105-.618-.585.127-1.318.094-2.063-.049-1.322-.258-2.439-.847-3.328-1.866-.385-.438-.63-.945-.757-1.51-.209-.929.131-1.609,1.011-1.989.291-.127.606-.205.909-.307.397-.135.798-.27,1.195-.405,0-.045-.008-.09-.012-.131-1.207-.164-2.374-.557-3.618-.524-.835.025-1.674.041-2.505-.012-.446-.029-.835.041-1.232.221-.385.176-.778.352-1.183.475-.864.266-1.167-.029-.991-.925.008-.037.02-.07.029-.102.078-.422.045-.458-.377-.61-.282-.102-.577-.196-.827-.36-.847-.557-.917-1.052-.299-1.85.045-.057.086-.115.135-.164.225-.217.291-.446.176-.765-.176-.503-.049-.982.287-1.4.217-.27.487-.352.692-.217.205.131.229.389.016.704-.184.274-.233.528-.115.851.164.434.07.839-.237,1.195-.172.201-.327.413-.491.622.258.413.659.512,1.048.634.7.221.872.479.823,1.22-.004.086-.012.172-.029.393l-.025-.008ZM34.46,31.41c.307-.156.561-.278.81-.417,1.322-.733,2.64-1.469,3.958-2.214.111-.061.233-.184.258-.299.127-.544.225-1.093.348-1.727-.397,0-.7.016-.995-.004-.237-.02-.393-.172-.389-.426,0-.237.221-.413.475-.401.352.016.704.041,1.056.053.417.016.573.156.581.589.004.319-.037.639-.057.958-.012.225-.025.45-.037.7.332-.078.602-.168.884-.201.827-.102,1.265.278,1.24,1.109-.012.417-.119.835-.184,1.252.913.851.999,1.629.323,2.701-.094.151-.176.356-.16.528.176,1.948-.63,3.405-2.198,4.502-1.862,1.306-3.884,2.37-5.685,3.774-1.081.843-2.202,1.633-3.254,2.509-.581.483-1.068,1.089-1.584,1.649-.458.499-.872.491-1.269-.053-.106-.143-.18-.307-.278-.454-.34-.503-.892-.696-1.555-.495.082.225.16.454.246.675.196.512.417,1.019.589,1.539.053.168.049.409-.033.561-.27.479-.102.925.004,1.383.045,0,.065,0,.078-.008.098-.074.196-.147.291-.229.724-.63,1.555-1.048,2.493-1.277,1.265-.307,2.542-.225,3.823-.151.884.049,1.731.262,2.505.675.508.274.958.663,1.42,1.015.172.131.225.327.082.52-.139.18-.332.196-.528.098-.078-.041-.16-.09-.217-.151-.577-.634-1.347-.913-2.137-1.138-1.15-.327-2.329-.246-3.5-.209-1.359.041-2.599.479-3.565,1.465-.618.63-1.183,1.326-1.703,2.042-.303.417-.471.937-.72,1.457.205.025.307.033.409.053.471.09.696.434.585.896-.033.139-.094.266-.151.397-.315.753-.651,1.502-.945,2.263-.135.344-.209.716-.291,1.076-.025.106-.004.278.065.336.405.34.287.765.241,1.187-.094.864-.225,1.727-.262,2.595-.025.639.123,1.265.446,1.821.626.057.696.045,1.023-.192-.037-.131-.082-.266-.111-.405-.123-.565.057-.843.639-.933.295-.045.602-.045.9-.02,1.31.106,2.542.508,3.721,1.076.72.348,1.428.716,2.153,1.06,1.22.581,2.452,1.134,3.663,1.727,1.228.602,2.431,1.257,3.659,1.862.876.434,1.785.729,2.771.344.016-.008.037-.016.053-.008.151.07.356.102.442.217.127.176.041.381-.135.512-.098.074-.213.139-.327.172-.52.143-1.044.196-1.584.09-.974-.192-1.846-.634-2.71-1.089-1.212-.639-2.407-1.306-3.635-1.916-1.24-.614-2.501-1.187-3.77-1.74-1.007-.438-2.03-.855-3.07-1.216-.577-.201-1.195-.282-1.85-.254.02.156.037.258.049.36.061.647-.192,1.011-.819,1.171-.156.037-.315.053-.475.057-1.42.016-2.783.352-4.138.733-1.416.401-2.701,1.072-3.95,1.911.266.548.065.966-.352,1.322-1.891,1.621-4.06,2.534-6.573,2.534-.651,0-1.297-.037-2.038-.061.184.18.299.348.458.438.639.348,1.265.733,1.94.982.831.307,1.703.503,2.566.72.831.205,1.674.295,2.538.184.782-.098,1.531-.307,2.251-.626.716-.319,1.424-.651,2.149-.941.663-.266,1.322-.303,1.875.278.209.217.467.254.737.147.299-.115.589-.246.884-.372.602-.266,1.203-.532,1.797-.815.164-.078.323-.192.454-.315.36-.34.684-.724,1.068-1.036.626-.503,1.523-.434,1.588.651,0,.012.025.025.09.098.647-.143,1.338-.282,2.026-.446.712-.172,1.42-.303,2.161-.274.798.033,1.383.348,1.576,1.167.111.467.397.765.806.921.426.164.872.303,1.322.36.876.111,1.731-.09,2.587-.258,1.134-.221,2.276-.413,3.434-.143.135.033.323-.02.442-.098,1.064-.696,2.063-1.457,2.693-2.607.102-.184.237-.356.368-.52,1.343-1.707,2.386-3.581,3.143-5.612.139-.377.25-.802.225-1.195-.102-1.74.307-3.385.786-5.026.151-.524.233-1.076.299-1.621.151-1.236.307-2.472.397-3.712.057-.794.053-1.604-.02-2.394-.049-.548-.119-1.04.483-1.318-.34-1.506-.819-2.918-1.33-4.322-.422-1.154-.88-2.292-1.625-3.291-.127-.168-.184-.385-.303-.561-.368-.565-.729-1.134-1.134-1.67-.557-.737-1.162-1.437-1.727-2.169-.262-.34-.291-.72,0-1.081.053-.065.09-.143.156-.246-.291-.438-.581-.864-.86-1.293-.999-1.551-2.128-3.041-2.362-4.961,0-.033-.037-.061-.061-.102-.106.057-.213.164-.323.164-.16.004-.364-.016-.479-.111-.172-.143-.123-.356.008-.528.074-.098.18-.172.258-.27.327-.417.659-.835.974-1.265.233-.315.332-.696.237-1.064-.127-.499-.004-.925.164-1.388.246-.671.241-1.326-.397-1.838-.262-.209-.205-.512-.127-.79.102-.377.233-.749.319-1.13.156-.679.123-1.355-.012-2.153-.352.213-.655.336-.876.544-.401.377-.741.815-1.126,1.207-.532.544-1.052,1.117-1.641,1.592-.483.389-1.093.512-1.715.291-.417-.147-.819-.356-1.244-.454-1.232-.291-2.472-.532-3.737-.188-.319.086-.622.221-.945.34.07.675.053,1.281-.254,1.83-.622,1.113-1.494,1.92-2.746,2.3-.986.299-1.985.385-3.004.352-.225-.008-.467.012-.675.09-.798.299-1.584.622-2.378.937-.123.049-.246.098-.385.156.467.119.9.217,1.322.34.209.061.446.18.393.43-.041.18-.205.372-.368.467-.237.139-.52.196-.786.287-.008.094-.012.164-.016.233-.02.217-.041.446-.323.475-.315.029-.434-.176-.491-.45-.029-.135-.07-.27-.111-.422-.217-.033-.417-.065-.651-.106.098.528.348.888.659,1.216.765.798,1.699,1.261,2.783,1.461.585.111,1.154.135,1.744.025.958-.18,1.924-.413,2.89-.446,1.457-.049,2.947-.061,4.13,1.121v-.016ZM19.958,12.419c-.241-1.31-.585-2.615-1.334-3.847-.348.729-.483,1.437-.581,2.161-.033.254-.111.536-.266.733-.417.54-.299,1.081-.164,1.625.782-.225,1.51-.434,2.345-.675v.004ZM35.638,16.692c-.344.332-1.236,2.587-1.24,3.107h1.559c.168-1.064-.025-2.075-.319-3.107ZM28.75,31.406c1.555.647,3.078.634,4.695.397-.749-.712-3.254-.909-4.695-.397Z" data-sg-fill="sg-fill-0" />
        <path class="cls-1" d="M33.522,6.733c.782-.344,1.502-.684,2.243-.982.716-.291,1.457-.438,2.239-.27.917.196,1.519.941,1.482,1.875-.029.675-.262,1.281-.667,1.821-.544.72-1.203,1.306-1.977,1.764-1.486.88-3.029,1.637-4.658,2.214-.336.119-.655.274-.982.409-.393.164-.622.106-.794-.266-.823-1.772-1.707-3.52-2.169-5.436-.229-.958-.352-1.924-.282-2.906.086-1.228.966-2.276,2.145-2.57.929-.229,1.928.164,2.341,1.036.319.667.52,1.396.753,2.1.127.385.217.786.332,1.212h-.004ZM30.997,12.635c1.715-.52,3.303-1.265,4.842-2.112.876-.483,1.719-1.027,2.272-1.887.225-.348.397-.757.491-1.162.123-.536-.192-.995-.724-1.13-.25-.061-.532-.086-.786-.049-1.052.156-1.977.663-2.914,1.13-.123.061-.221.176-.327.27-.487.43-.868.323-1.048-.307-.168-.581-.299-1.171-.475-1.748-.176-.577-.34-1.162-.593-1.707-.344-.741-1.06-.941-1.789-.577-.675.34-1.044.913-1.121,1.641-.049.491-.045.999.02,1.49.291,2.198,1.195,4.183,2.153,6.144v.004Z" data-sg-fill="sg-fill-0" />
        <path class="cls-1" d="M23.797,5.346c.233-.372.417-.72.647-1.027.27-.364.671-.512,1.117-.532.659-.029,1.126.348,1.22,1.007.074.52.065,1.048-.205,1.506-.561.966-1.154,1.911-1.748,2.861-.135.217-.364.295-.606.16-.978-.544-1.899-1.179-2.697-1.973-.389-.389-.577-.855-.397-1.408.176-.536.561-.896,1.113-.945.389-.033.798.082,1.191.156.131.025.25.131.364.192v.004ZM24.289,8.395c.581-.847,1.199-1.649,1.559-2.607.065-.18.119-.385.098-.569-.025-.188-.123-.499-.237-.52-.188-.037-.491.057-.598.201-.205.274-.368.614-.442.945-.168.769-.516.917-1.13.426-.111-.09-.209-.201-.332-.266-.172-.086-.356-.164-.54-.192-.299-.049-.573.029-.72.332-.147.303.025.524.233.696.573.475,1.162.933,1.752,1.392.094.074.217.102.36.164h-.004Z" data-sg-fill="sg-fill-0" />
        <path class="cls-1" d="M42.077,13.053c.237.123.467.225.675.356.536.34.741.847.684,1.461-.053.573-.442.884-.937,1.048-.774.258-1.568.319-2.349.02-.397-.151-.786-.323-1.171-.512-.503-.246-.643-.729-.602-1.207.074-.933.385-1.805.945-2.57.323-.446.729-.765,1.289-.872.802-.147,1.478.323,1.539,1.138.025.364-.041.737-.07,1.138h-.004ZM41.397,15.275c.201-.037.483-.078.753-.151.205-.057.45-.164.413-.413-.033-.205-.151-.442-.307-.569-.164-.135-.413-.188-.639-.229-.639-.115-.741-.287-.512-.909.061-.168.139-.332.172-.503.053-.295.139-.614-.16-.835-.217-.164-.622-.057-.917.217-.041.037-.078.074-.111.115-.52.618-.774,1.347-.921,2.124-.045.241.037.438.241.544.598.311,1.203.618,1.985.61Z" data-sg-fill="sg-fill-0" />
        <path class="cls-1" d="M36.641,1.437c-.057.151-.082.258-.135.348-.356.593-.716,1.183-1.081,1.772-.045.074-.102.172-.176.192-.139.041-.332.098-.43.033-.098-.065-.196-.315-.147-.397.426-.733.876-1.453,1.347-2.157.053-.078.27-.111.381-.074.106.037.168.192.241.282Z" data-sg-fill="sg-fill-0" />
        <path class="cls-1" d="M42.228,9.66c-.299-.045-.422-.188-.381-.413.029-.143.111-.307.221-.405.532-.471,1.076-.925,1.621-1.375.164-.135.364-.18.528-.004.156.168.127.368-.008.536-.111.139-.237.262-.372.377-.43.368-.864.737-1.302,1.097-.106.086-.233.143-.311.188h.004Z" data-sg-fill="sg-fill-0" />
        <path class="cls-1" d="M19.389,1.801c.188.131.34.196.43.311.372.471.741.945,1.081,1.441.07.102.078.332.012.422-.074.094-.274.131-.413.127-.106-.004-.237-.098-.303-.188-.344-.45-.671-.909-.999-1.371-.057-.082-.115-.213-.086-.295.049-.147.164-.27.282-.45l-.004.004Z" data-sg-fill="sg-fill-0" />
        <path class="cls-1" d="M44.238,10.507c.164-.025.405-.065.651-.09.237-.025.495-.02.544.278.045.282-.168.426-.405.467-.344.057-.696.102-1.044.086-.36-.012-.569-.233-.516-.471.074-.315.319-.336.581-.295.037.004.07.008.188.025Z" data-sg-fill="sg-fill-0" />
        <path class="cls-1" d="M18.182,4.454c.417.176.815.315,1.183.512.094.049.147.282.123.409-.02.094-.225.241-.303.217-.463-.143-.921-.315-1.367-.508-.061-.025-.106-.262-.061-.323.094-.123.258-.192.426-.307Z" data-sg-fill="sg-fill-0" />
        <path class="cls-1" d="M26.843,11.78c-.012.237-.168.36-.405.385-.258.025-.479-.188-.479-.45,0-.241.188-.475.397-.491.225-.016.479.266.487.557Z" data-sg-fill="sg-fill-0" />
        <path class="cls-1" d="M31.198,16.278c-.188-.008-.299-.156-.315-.372-.016-.246.217-.479.463-.487.237-.008.405.16.397.393-.008.237-.254.467-.544.463v.004Z" data-sg-fill="sg-fill-0" />
        <path class="cls-1" d="M36.338,13.364c-.004.237-.192.442-.397.426-.229-.016-.344-.156-.348-.381-.004-.217.192-.417.397-.409.233.012.332.16.352.36l-.004.004Z" data-sg-fill="sg-fill-0" />
        <path class="cls-1" d="M27.15,1.093c-.213.172-.319.311-.454.348-.225.061-.43-.115-.43-.332,0-.237.151-.381.356-.348.151.025.287.176.528.332Z" data-sg-fill="sg-fill-0" />
        <path class="cls-1" d="M12.059,15.873c-.209.287-.258.573-.172.876.139.475.303.945.446,1.42.061.201.135.413.131.618,0,.127-.127.332-.229.352-.139.033-.311-.074-.471-.127-.025-.008-.045-.057-.053-.09-.27-.913-.729-1.776-.626-2.775.098-.986.876-1.404,1.699-.851.372.25.671.618.978.958.074.082.094.303.037.381-.078.102-.278.201-.393.172-.172-.041-.344-.172-.463-.307-.237-.266-.446-.553-.88-.63l-.004.004Z" data-sg-fill="sg-fill-0" />
        <path class="cls-1" d="M30.44,22.594c-.053.299-.012.684-.413.716-.422.033-.442-.389-.618-.684-.188-.012-.397-.008-.602-.037-.237-.033-.487-.131-.503-.393-.012-.209.049-.471.176-.622.274-.327.679-.45,1.097-.471.405-.02.815,0,1.224.004.278,0,.417.143.434.426.049.733.025.769-.786,1.064l-.008-.004Z" data-sg-fill="sg-fill-0" />
        <path class="cls-1" d="M22.295,75.246c.442.045.884.086,1.326.135.086.008.172.037.254.07.217.086.381.229.323.483-.057.258-.266.303-.503.278-.618-.07-1.236-.135-1.854-.205-.053-.004-.106-.008-.16-.02-.237-.053-.471-.139-.438-.438.033-.299.27-.348.516-.336.176.008.352.037.528.057v-.029l.008.004Z" data-sg-fill="sg-fill-0" />
        <path class="cls-1" d="M18.603,17.539c.385-.008.761.176,1.081.479.172.164.229.368.065.569-.147.18-.34.164-.528.057-.09-.053-.176-.119-.266-.172-.323-.196-.622-.196-.925.061-.295.246-.483.246-.639.053-.147-.188-.098-.43.131-.659.258-.254.606-.385,1.081-.385v-.004Z" data-sg-fill="sg-fill-0" />
        <path class="cls-1" d="M6.594,42.956c-.111.495-.229,1.068-.377,1.633-.065.25-.254.397-.528.315-.258-.078-.282-.295-.229-.52.131-.553.258-1.105.401-1.654.057-.213.217-.327.442-.291.233.041.307.213.291.516Z" data-sg-fill="sg-fill-0" />
        <path class="cls-1" d="M28.639,76.474c.282,0,.569-.012.851.004.205.012.385.111.405.348.02.27-.164.405-.393.409-.565.008-1.13-.008-1.695-.041-.221-.012-.356-.172-.327-.401.029-.225.192-.332.413-.336.25-.004.495,0,.745,0v.02-.004Z" data-sg-fill="sg-fill-0" />
        <path class="cls-1" d="M40.718,30.919c.102.086.299.176.327.303.029.131-.07.36-.184.438-.454.303-.933.577-1.416.827-.111.057-.34.033-.43-.049-.09-.082-.086-.282-.094-.43,0-.057.057-.131.106-.18.467-.43,1.019-.704,1.695-.909h-.004Z" data-sg-fill="sg-fill-0" />
        <path class="cls-1" d="M14.568,46.521c.168.156.287.229.36.336.241.368.471.745.704,1.117.029.045.061.086.086.135.156.291.131.553-.074.659-.262.135-.438-.012-.581-.217-.241-.348-.491-.692-.708-1.056-.086-.143-.151-.344-.123-.499.029-.151.192-.282.336-.475Z" data-sg-fill="sg-fill-0" />
        <path class="cls-1" d="M18.124,77.252c0,.323-.27.528-.516.368-.516-.336-.999-.724-1.465-1.126-.082-.07-.065-.348.008-.467.053-.086.323-.143.413-.086.495.336.97.704,1.441,1.076.074.057.094.18.119.233Z" data-sg-fill="sg-fill-0" />
        <path class="cls-1" d="M7.356,60.069c-.127.16-.213.36-.336.389-.127.029-.372-.078-.426-.188-.241-.508-.442-1.04-.634-1.568-.065-.188-.045-.422.18-.491.123-.037.372.012.417.098.282.565.528,1.15.802,1.764l-.004-.004Z" data-sg-fill="sg-fill-0" />
        <path class="cls-1" d="M19.401,35.74c-.053.061-.123.221-.229.246-.131.033-.356,0-.422-.09-.323-.458-.626-.937-.896-1.433-.057-.111.016-.356.115-.458.065-.07.364-.065.413.008.356.499.675,1.027,1.003,1.547.016.025.008.07.016.18Z" data-sg-fill="sg-fill-0" />
        <path class="cls-1" d="M11.666,43.423c-.09.106-.176.303-.299.327-.131.025-.311-.094-.438-.192-.074-.053-.098-.188-.119-.291-.098-.45-.196-.9-.278-1.351-.037-.221-.004-.442.27-.499.229-.049.393.086.45.287.147.544.266,1.101.413,1.719Z" data-sg-fill="sg-fill-0" />
        <path class="cls-1" d="M9.631,36.67c-.176.606-.323,1.154-.512,1.686-.037.106-.278.233-.372.201-.131-.045-.327-.254-.307-.352.131-.581.303-1.158.508-1.723.033-.094.307-.168.446-.139.106.025.172.225.237.323v.004Z" data-sg-fill="sg-fill-0" />
        <path class="cls-1" d="M21.337,47.496c.045-.057.115-.217.217-.241.131-.033.344,0,.422.09.192.225.336.495.479.757.135.246.282.499.344.765.029.123-.082.344-.196.426-.086.057-.36.008-.413-.078-.303-.495-.561-1.015-.835-1.531-.016-.029-.008-.07-.02-.188h.004Z" data-sg-fill="sg-fill-0" />
        <path class="cls-1" d="M11.604,63.188c.053.037.192.094.274.196.282.344.548.7.815,1.056.061.082.139.192.131.282-.016.143-.057.344-.16.409-.098.061-.352.041-.422-.041-.36-.413-.712-.843-1.007-1.306-.18-.287,0-.585.368-.598h0Z" data-sg-fill="sg-fill-0" />
        <path class="cls-1" d="M9.087,55.186c.045-.241.074-.463.34-.512.262-.049.389.127.45.352.119.426.237.855.352,1.285.061.233.098.471-.18.598-.217.102-.442-.016-.557-.348-.16-.45-.274-.917-.405-1.375Z" data-sg-fill="sg-fill-0" />
        <path class="cls-1" d="M14.568,29.274c.029-.229.041-.454.323-.491.291-.037.409.151.463.405.09.434.188.868.274,1.302.065.336-.041.548-.287.585-.295.041-.426-.16-.479-.397-.111-.467-.196-.937-.291-1.408l-.004.004Z" data-sg-fill="sg-fill-0" />
        <path class="cls-1" d="M4.601,50.054c0,.229.004.463,0,.692-.008.233-.082.434-.352.446-.233.008-.377-.16-.389-.364-.029-.548-.041-1.101-.008-1.649.008-.111.237-.291.356-.282.123.004.319.18.344.307.053.274.016.565.016.847h.029l.004.004Z" data-sg-fill="sg-fill-0" />
        <path class="cls-1" d="M18.206,40.038c-.135-.065-.266-.094-.344-.176-.311-.315-.618-.63-.9-.974-.201-.246-.184-.54.008-.659.25-.156.426-.025.593.164.282.315.598.606.855.941.09.115.094.327.065.483-.012.082-.176.143-.278.221Z" data-sg-fill="sg-fill-0" />
        <path class="cls-1" d="M20.605,52.6c.053.041.192.102.262.205.237.352.467.712.671,1.081.172.307.131.544-.086.647-.266.123-.442-.016-.573-.229-.225-.36-.471-.708-.663-1.085-.168-.336,0-.626.385-.618h.004Z" data-sg-fill="sg-fill-0" />
        <path class="cls-1" d="M29.638,40.963c-.315-.033-.634-.057-.945-.106-.135-.02-.303-.07-.377-.164-.09-.123-.156-.323-.119-.463.025-.094.241-.205.368-.201.422.02.839.086,1.257.143.254.037.52.094.479.434-.037.323-.299.352-.557.352-.037,0-.07,0-.106-.004v.008Z" data-sg-fill="sg-fill-0" />
        <path class="cls-1" d="M29.094,74.157c-.258-.008-.467-.049-.508-.319-.041-.266.131-.397.352-.446.45-.09.9-.168,1.355-.233.233-.033.426.065.471.319.045.262-.127.397-.352.446-.45.094-.9.164-1.318.233Z" data-sg-fill="sg-fill-0" />
        <path class="cls-1" d="M9.243,48.498c.045.221-.033.397-.262.442-.221.041-.417-.086-.442-.291-.061-.54-.09-1.089-.09-1.633,0-.09.221-.25.336-.25.119,0,.25.147.348.258.049.053.029.172.033.258.025.405.049.815.074,1.22l.004-.004Z" data-sg-fill="sg-fill-0" />
        <path class="cls-1" d="M18.951,30.395c-.115.131-.209.336-.348.377-.115.033-.356-.094-.417-.213-.192-.377-.344-.778-.479-1.179-.078-.225-.074-.479.213-.573.25-.082.405.082.495.291.176.405.336.815.532,1.297h.004Z" data-sg-fill="sg-fill-0" />
        <path class="cls-1" d="M14.658,53.148c-.074-.057-.254-.131-.332-.266-.201-.332-.368-.684-.52-1.04-.098-.233-.07-.471.205-.573.246-.094.397.065.503.266.192.356.393.708.573,1.072.147.299-.016.548-.43.536v.004Z" data-sg-fill="sg-fill-0" />
        <path class="cls-1" d="M22.836,42.961c-.241-.045-.61-.098-.97-.188-.233-.057-.446-.201-.385-.487.061-.299.311-.299.553-.266.352.049.7.098,1.048.164.241.045.45.151.45.438,0,.229-.225.356-.696.336v.004Z" data-sg-fill="sg-fill-0" />
        <path class="cls-1" d="M18.198,64.297c0,.295-.34.512-.553.307-.336-.323-.634-.704-.868-1.109-.151-.262.143-.54.43-.458.221.061.986,1.04.991,1.261Z" data-sg-fill="sg-fill-0" />
        <path class="cls-1" d="M34.632,75.578c-.094-.025-.241-.033-.36-.094-.278-.143-.295-.553-.004-.614.475-.098.974-.102,1.461-.098.078,0,.241.25.217.348-.033.139-.188.311-.323.344-.303.078-.626.078-.991.119v-.004Z" data-sg-fill="sg-fill-0" />
        <path class="cls-1" d="M25.75,38.188c-.422-.233-.815-.43-1.179-.667-.184-.119-.221-.364-.061-.512.098-.094.332-.139.467-.09.348.123.692.287,1.003.487.115.074.205.307.176.438-.029.123-.229.209-.401.348l-.004-.004Z" data-sg-fill="sg-fill-0" />
        <path class="cls-1" d="M17.695,59.472c-.008.295-.36.495-.569.278-.315-.323-.565-.716-.802-1.105-.053-.086.033-.319.127-.409.074-.07.327-.074.381-.008.307.364.573.757.851,1.142.016.025.008.07.012.102h0Z" data-sg-fill="sg-fill-0" />
        <path class="cls-1" d="M25.07,33.559c.409.123.737.205,1.048.323.213.082.356.254.282.499-.078.25-.278.311-.512.241-.336-.106-.675-.205-.982-.368-.106-.057-.192-.311-.156-.442.033-.119.237-.192.319-.254Z" data-sg-fill="sg-fill-0" />
        <path class="cls-1" d="M32.27,35.446c.409.205.786.36,1.121.581.094.061.139.352.074.463-.057.106-.311.192-.438.156-.336-.102-.667-.25-.966-.438-.115-.07-.205-.307-.176-.438.029-.123.233-.205.381-.323h.004Z" data-sg-fill="sg-fill-0" />
        <path class="cls-1" d="M17.425,20.907c-.012.196.012.401-.045.581-.041.127-.201.307-.299.303-.143-.008-.381-.156-.389-.262-.033-.401-.016-.81.029-1.216.025-.217.225-.36.434-.27.131.057.241.237.287.385.041.143-.012.315-.025.475h.008v.004Z" data-sg-fill="sg-fill-0" />
        <path class="cls-1" d="M36.805,36.805c-.168-.041-.385-.041-.532-.143-.119-.082-.213-.291-.201-.43.008-.102.205-.246.332-.262.295-.041.606-.045.896,0,.135.02.327.188.344.307.016.123-.123.323-.246.397-.16.09-.372.086-.593.131Z" data-sg-fill="sg-fill-0" />
        <path class="cls-1" d="M5.461,68.288c.078.094.254.225.327.397.135.311.499.561.319.962-.102.225-.458.246-.63.008-.196-.266-.356-.573-.467-.888-.094-.27.086-.483.45-.483v.004Z" data-sg-fill="sg-fill-0" />
        <path class="cls-1" d="M20.134,21.394c-.09.106-.168.282-.282.315-.123.033-.372-.037-.405-.123-.147-.368-.254-.757-.332-1.146-.016-.082.147-.266.241-.282.131-.016.356.049.401.143.151.332.246.692.377,1.093Z" data-sg-fill="sg-fill-0" />
        <path class="cls-1" d="M23.585,60.63c-.115.168-.168.327-.27.372-.106.049-.323.045-.385-.029-.25-.291-.475-.602-.667-.933-.049-.082.02-.295.106-.368.082-.074.319-.115.372-.057.295.315.553.659.843,1.015Z" data-sg-fill="sg-fill-0" />
        <path class="cls-1" d="M18.743,21.513c-.061.078-.139.27-.25.291-.143.025-.409-.053-.446-.151-.119-.327-.18-.679-.205-1.023-.008-.094.192-.27.315-.282.119-.012.327.102.368.213.106.278.139.585.217.958v-.004Z" data-sg-fill="sg-fill-0" />
        <path class="cls-1" d="M41.07,33.788c-.041.082-.074.221-.16.287-.237.18-.487.352-.761.471-.106.045-.336-.025-.409-.119-.07-.098-.074-.364,0-.426.282-.225.593-.434.929-.573.201-.086.352.102.401.36Z" data-sg-fill="sg-fill-0" />
        <path class="cls-1" d="M26.867,23.22c0,.254-.217.483-.43.487-.217.004-.393-.176-.393-.409,0-.25.188-.422.45-.409.225.012.356.127.377.332h-.004Z" data-sg-fill="sg-fill-0" />
        <path class="cls-1" d="M23.932,22.598c0,.237-.18.426-.405.413-.225-.012-.364-.127-.377-.36-.012-.225.16-.385.405-.385.233,0,.36.115.377.332Z" data-sg-fill="sg-fill-0" />
        <path class="cls-1" d="M25.402,23.015c-.012.233-.147.393-.389.401-.225.012-.36-.131-.356-.364,0-.25.139-.405.381-.417.225-.008.352.135.36.377l.004.004Z" data-sg-fill="sg-fill-0" />
        <path class="cls-1" d="M42.052,22.516c-.241.233-.438.397-.606.589-.156.18-.315.295-.548.184-.192-.094-.254-.377-.106-.614.262-.413.585-.761,1.101-.855.479-.086.831.053.974.52.102.323.123.7.07,1.036-.106.663-.299,1.314-.438,1.973-.057.258-.164.446-.45.413-.262-.029-.36-.237-.323-.467.09-.557.196-1.113.315-1.666.07-.323.229-.639.008-1.113h.004Z" data-sg-fill="sg-fill-0" />
        <path class="cls-1" d="M33.629,50.475c.07,0,.16-.029.209.004.135.086.344.188.356.303.016.123-.131.348-.254.393-.712.262-1.437.483-2.157.72-.213.07-.397.041-.499-.168-.111-.229-.02-.438.192-.544.684-.34,1.383-.63,2.153-.712v.004Z" data-sg-fill="sg-fill-0" />
        <path class="cls-1" d="M45.49,38.086c-.061.086-.123.266-.217.287-.147.033-.356,0-.471-.086-.127-.098-.188-.291-.262-.45-.233-.495-.467-.991-.692-1.49-.098-.217-.061-.43.164-.548.237-.123.413.008.52.217.291.585.573,1.175.855,1.764.037.078.057.164.106.307h-.004Z" data-sg-fill="sg-fill-0" />
        <path class="cls-1" d="M46.387,63.913c.037-.151.053-.241.082-.323.18-.536.36-1.076.548-1.609.115-.327.307-.458.54-.368.282.106.287.34.213.577-.168.54-.344,1.081-.524,1.617-.037.115-.098.25-.188.311-.123.078-.307.147-.426.111-.115-.037-.18-.221-.241-.311l-.004-.004Z" data-sg-fill="sg-fill-0" />
        <path class="cls-1" d="M22.226,69.213c-.078-.065-.266-.156-.327-.299-.09-.209.065-.377.262-.454.495-.192.991-.372,1.494-.544.115-.041.258-.07.364-.033.147.053.336.143.393.266.094.205-.053.372-.262.446-.532.192-1.068.372-1.6.557-.065.025-.139.025-.323.057v.004Z" data-sg-fill="sg-fill-0" />
        <path class="cls-1" d="M36.453,25.447c-.061.09-.127.291-.233.315-.139.033-.397-.025-.458-.127-.278-.487-.643-.536-1.134-.372-.123.041-.377-.053-.434-.16-.061-.119-.029-.393.065-.475.426-.356.937-.266,1.416-.131.43.123.667.446.774.945l.004.004Z" data-sg-fill="sg-fill-0" />
        <path class="cls-1" d="M45.036,55.612c.184-.659.34-1.24.516-1.817.061-.201.217-.344.446-.287.246.061.336.258.278.495-.119.499-.25.995-.385,1.49-.033.115-.086.262-.176.315-.135.078-.327.143-.467.102-.106-.033-.164-.229-.213-.303v.004Z" data-sg-fill="sg-fill-0" />
        <path class="cls-1" d="M15.701,72.09c-.25-.045-.454-.115-.508-.36-.061-.262.115-.381.344-.446.508-.147,1.015-.307,1.523-.458.241-.074.475-.07.589.192.119.274-.049.45-.287.532-.548.192-1.105.36-1.658.54h-.004Z" data-sg-fill="sg-fill-0" />
        <path class="cls-1" d="M28.455,56.668c.053-.16.065-.254.106-.327.25-.45.487-.905.761-1.338.168-.266.463-.336.634-.188.225.192.135.409.016.622-.262.463-.512.933-.778,1.392-.106.18-.287.315-.487.196-.127-.074-.188-.258-.254-.356h0Z" data-sg-fill="sg-fill-0" />
        <path class="cls-1" d="M38.487,43.083c-.065.639-.115,1.183-.184,1.723-.016.115-.07.258-.151.327-.098.078-.262.143-.372.111-.106-.029-.262-.188-.258-.282.045-.647.106-1.297.209-1.94.033-.196.262-.319.467-.229.135.057.225.221.291.291Z" data-sg-fill="sg-fill-0" />
        <path class="cls-1" d="M50.263,48.564c-.025.319-.041.639-.074.954-.02.192-.139.368-.34.323-.143-.033-.36-.192-.364-.299-.012-.618.012-1.236.065-1.854.008-.098.246-.27.336-.25.139.033.319.192.348.323.057.254.016.528.016.794h.012v.008Z" data-sg-fill="sg-fill-0" />
        <path class="cls-1" d="M42.539,61.895c-.065.164-.098.291-.16.389-.258.397-.52.798-.798,1.183-.143.196-.34.344-.585.172-.233-.164-.201-.405-.065-.61.287-.442.577-.888.905-1.302.086-.106.307-.176.446-.151.106.02.18.217.258.323v-.004Z" data-sg-fill="sg-fill-0" />
        <path class="cls-1" d="M42.826,41.561c0,.07.008.143,0,.213-.02.196-.115.377-.319.344-.143-.02-.36-.156-.389-.274-.127-.548-.213-1.113-.295-1.67-.029-.205.025-.405.266-.454.258-.053.413.111.467.332.115.499.205,1.007.303,1.51-.008,0-.02,0-.029.004l-.004-.004Z" data-sg-fill="sg-fill-0" />
        <path class="cls-1" d="M49.984,54.707c-.041.315-.07.634-.123.945-.045.254-.143.508-.463.479-.364-.033-.311-.327-.299-.569.025-.479.074-.954.102-1.428.012-.225.111-.389.336-.405.254-.016.389.151.409.393.016.192,0,.389,0,.585h.037Z" data-sg-fill="sg-fill-0" />
        <path class="cls-1" d="M38.839,69.95c-.368-.086-.839-.172-1.297-.303-.319-.09-.463-.315-.377-.54.106-.282.336-.27.573-.217.483.111.966.209,1.445.327.201.049.352.176.332.417-.02.217-.172.295-.364.311-.07.008-.139,0-.311,0v.004Z" data-sg-fill="sg-fill-0" />
        <path class="cls-1" d="M47.475,49.44c-.025.295-.041.577-.082.855-.037.258-.184.426-.463.397-.287-.029-.303-.25-.295-.475.02-.458.037-.917.07-1.375.016-.225.094-.438.364-.438.287,0,.389.209.401.463.012.192,0,.389,0,.569l.004.004Z" data-sg-fill="sg-fill-0" />
        <path class="cls-1" d="M38.806,58.199c.307.008.483.233.417.499-.115.467-.254.925-.397,1.383-.065.205-.217.34-.442.299-.233-.041-.34-.233-.287-.438.127-.516.278-1.023.45-1.527.037-.106.201-.172.258-.217Z" data-sg-fill="sg-fill-0" />
        <path class="cls-1" d="M46.62,41.741c.102-.115.192-.299.34-.368.209-.094.377.049.442.258.143.454.278.913.401,1.371.053.201.008.401-.213.487-.246.09-.434-.037-.508-.254-.164-.467-.291-.941-.458-1.498l-.004.004Z" data-sg-fill="sg-fill-0" />
        <path class="cls-1" d="M31.464,68.615c-.213,0-.426.016-.639-.004-.229-.02-.413-.127-.413-.397,0-.25.18-.348.385-.356.458-.016.921-.025,1.375.016.127.012.303.188.344.323.065.221-.111.381-.315.409-.241.037-.495.008-.741.008h.004Z" data-sg-fill="sg-fill-0" />
        <path class="cls-1" d="M42.564,47.496c.008.192.053.393.016.581-.025.131-.143.336-.233.344-.143.012-.385-.074-.434-.188-.229-.536-.217-1.105-.061-1.658.029-.094.229-.221.319-.201.127.025.299.16.332.278.065.27.057.561.082.839h-.02v.004Z" data-sg-fill="sg-fill-0" />
        <path class="cls-1" d="M29.18,65.767c.16,0,.319-.016.475,0,.225.029.377.184.319.401-.037.131-.205.303-.336.323-.417.07-.843.086-1.265.111-.258.016-.471-.09-.495-.364-.025-.266.172-.36.405-.393.299-.037.593-.078.892-.115v.037h.004Z" data-sg-fill="sg-fill-0" />
        <path class="cls-1" d="M41.307,52.469c-.053.131-.074.217-.119.291-.184.299-.364.606-.565.892-.188.27-.434.344-.622.196-.233-.18-.18-.401-.045-.61.209-.327.405-.663.655-.958.082-.098.315-.127.463-.102.098.016.164.192.237.287l-.004.004Z" data-sg-fill="sg-fill-0" />
        <path class="cls-1" d="M35.434,28.177c0,.213.008.422,0,.634-.012.246-.131.409-.393.401-.233-.008-.348-.16-.352-.381-.008-.405-.016-.81,0-1.216.012-.237.156-.405.405-.401.274,0,.344.196.344.434v.528h-.008.004Z" data-sg-fill="sg-fill-0" />
        <path class="cls-1" d="M34.214,27.468c-.143.463-.241.876-.405,1.261-.045.111-.303.225-.417.192-.123-.037-.287-.266-.266-.385.074-.413.188-.827.348-1.216.045-.111.295-.221.426-.196.123.02.213.221.311.344h.004Z" data-sg-fill="sg-fill-0" />
        <path class="cls-1" d="M33.551,55.968c.168-.516.405-.929.778-1.236.086-.07.336-.049.422.025.09.078.151.315.098.417-.18.36-.401.708-.643,1.031-.07.094-.303.147-.417.102-.111-.041-.168-.233-.237-.34Z" data-sg-fill="sg-fill-0" />
        <path class="cls-1" d="M30.76,60.745c.192-.45.336-.851.54-1.216.057-.102.34-.172.45-.115.111.053.209.303.18.434-.082.36-.213.716-.372,1.048-.061.123-.291.262-.401.233-.143-.037-.25-.233-.393-.385h-.004Z" data-sg-fill="sg-fill-0" />
        <path class="cls-1" d="M36.715,28.144c0,.16.045.336-.012.471-.057.139-.201.299-.332.327-.098.02-.336-.139-.348-.237-.045-.381-.053-.774-.012-1.154.012-.098.258-.229.401-.233.094,0,.246.176.287.303.049.16.012.352.012.528h0l.004-.004Z" data-sg-fill="sg-fill-0" />
        <path class="cls-1" d="M27.776,28.647c.168.205.323.311.352.45.045.201-.111.327-.319.336-.205.008-.372-.106-.348-.311.016-.139.164-.262.311-.479l.004.004Z" data-sg-fill="sg-fill-0" />
        <path class="cls-1" d="M26.687,29.249c-.241.135-.372.266-.516.282-.201.02-.332-.131-.315-.34s.168-.34.364-.291c.139.037.25.18.467.352v-.004Z" data-sg-fill="sg-fill-0" />
        <path class="cls-1" d="M28.774,28.766c.229-.143.352-.278.491-.295.205-.029.319.127.311.332-.008.209-.143.348-.34.303-.135-.033-.25-.176-.463-.336v-.004Z" data-sg-fill="sg-fill-0" />
      </g>
    </g>
  </g>
</g></svg>