<svg xmlns="http://www.w3.org/2000/svg" id="Layer_2" data-name="Layer 2" viewBox="0.0 0.0 100.0 88.44074074074075">
  <g transform="scale(1.8518518518518519)"><defs data-sg-fill="sg-fill-0">
    <style data-sg-fill="sg-fill-0">
      .cls-1 {
        stroke-width: 0px;
      }
    </style>
  </defs>
  <g id="Layer_1-2" data-name="Layer 1-2" data-sg-fill="sg-fill-0">
    <g id="jc8UZU.tif" data-sg-fill="sg-fill-0">
      <g data-sg-fill="sg-fill-0">
        <path class="cls-1" d="M38.172,47.319c-.53-.403-.68-1.292-.226-1.815.359-.41.311-.827.273-1.285-.041-.468-.055-.943-.058-1.415,0-.12.065-.28.154-.349.103-.079.27-.113.4-.096.068.01.157.174.161.27.034.858.055,1.716.075,2.574,0,.031,0,.062-.01.089-.314.643-.417,1.347-.595,2.027h-.178.003Z" data-sg-fill="sg-fill-0" />
        <path class="cls-1" d="M52.348,21.607c-.116.051-.26.072-.342.157-.113.109-.202.26-.27.407-.383.817-1.039,1.401-1.678,2-.157.147-.362.27-.564.342-.335.12-.622-.109-.595-.465.038-.544.096-1.084.082-1.648-.034.147-.082.291-.099.438-.041.335-.048.68-.109,1.012-.082.448-.335.779-.677,1.108-.496.472-.892,1.049-1.302,1.6-.195.26-.332.561-.482.851-.096.185-.209.373-.246.571-.226,1.203-.814,2.263-1.395,3.309-.243.434-.69.769-1.09,1.094-.622.506-1.268.978-2.024,1.285-.297.12-.557.335-.831.513-.226.147-.472.246-.69.027-.212-.215-.161-.502.031-.684.338-.325.711-.622,1.101-.885.198-.133.335-.25.373-.502.161-1.07.362-2.136.502-3.21.089-.677.103-1.36.144-2.044.079-1.261.25-2.509.588-3.733.311-1.128.67-2.259.831-3.415.219-1.555.273-3.135.393-4.704.106-1.378.202-2.755.308-4.136.099-1.309.072-2.615-.103-3.914-.133-.984-.328-1.965-.434-2.953-.058-.554-.014-1.121.021-1.682.017-.263.15-.513.468-.489.304.021.407.26.438.533.267,2.362.687,4.71.68,7.093-.01,3.63-.14,7.254-.872,10.822-.181.882-.479,1.747-.769,2.605-.52,1.525-.721,3.094-.732,4.69-.007,1.207-.089,2.403-.355,3.582-.024.099-.031.205-.058.393.226-.109.414-.167.561-.28,1.118-.855,1.798-1.986,2.136-3.346.075-.308.215-.622.4-.882.458-.639.981-1.234,1.432-1.877.229-.325.513-.557.824-.786.349-.26.448-.677.479-1.066.051-.632.144-1.234.605-1.76-.434-.14-.581-.461-.697-.807-.417-1.244-.345-2.41.608-3.401.605-.629,1.254-1.217,1.88-1.832.147-.144.304-.297.383-.482.26-.595.732-1.005,1.183-1.436.325-.311.673-.273.889.123.154.287.26.646.25.971-.027.844-.164,1.682-.202,2.526-.062,1.347-.769,2.263-1.842,2.977-.492.328-.954.708-1.425,1.066-.058.044-.14.085-.161.144-.246.732-.663,1.436-.393,2.318.164-.123.332-.246.499-.373.506-.373.957-.779,1.196-1.398.103-.267.314-.506.52-.711.338-.335.708-.636,1.073-.937.226-.188.414-.144.55.096.273.472.181.885-.215,1.241-.229.205-.417.458-.591.714-.219.318-.393.663-.608.984-.434.649-.961,1.207-1.62,1.634-.185.12-.342.28-.482.397.133.591.26,1.145.386,1.699l-.075.017c.096.089.205.171.284.273.352.455.742.882,1.118,1.313.338.39.499.933.735,1.412.598,1.22.468,2.468.031,3.681-.284.79-.721,1.525-1.094,2.283-.15.308-.318.605-.479.906-.232.438-.516.448-.776.003-.338-.578-.636-1.176-.978-1.747-.526-.878-.841-1.829-1.008-2.837-.113-.69-.031-1.36.195-2.017.209-.605.438-1.2.622-1.812.103-.338.123-.701.191-1.049.038-.191.15-.39.123-.567-.038-.25-.174-.489-.28-.755-.988.544-1.48,1.33-1.531,2.383-.027.574.01,1.155-.027,1.726-.062.872-.297,1.709-.837,2.406-.892,1.152-1.562,2.406-2.058,3.777-.229.632-.612,1.207-1.077,1.726-.448.499-.742,1.094-.728,1.815.021,1.217-.007,2.43-.236,3.637-.096.509-.085,1.036-.13,1.552-.007.096-.041.188-.065.287-.485-.171-.66-.379-.636-.906.041-.858.137-1.716.202-2.571.017-.25.014-.502.01-.752-.021-1.118-.055-2.229.742-3.165.161-.191.212-.475.308-.718.103-.26.171-.54.301-.786.321-.602.68-1.183.998-1.788.393-.742.861-1.422,1.449-2.02.82-.834,1.162-1.87,1.261-3.015.085-1.015.191-2.024.721-2.943.284-.492.732-.766,1.149-1.09.072-.055.304-.007.39.072.332.297.523.656.441,1.142-.041.25.031.523.085.779.103.482.048.943-.092,1.405-.126.41-.219.837-.383,1.231-.263.639-.335,1.302-.253,1.969.167,1.391.728,2.642,1.46,3.941.397-.738.749-1.419,1.121-2.085.431-.773.605-1.596.619-2.475.01-.649-.232-1.22-.479-1.788-.205-.475-.424-.954-.926-1.213-.14-.072-.26-.185-.403-.287.027.191.038.42.096.639.185.704.4,1.398.571,2.102.215.882.219,1.767-.137,2.622-.096.226-.219.441-.359.718-.256-.314-.27-.612-.198-.889.321-1.19.12-2.355-.147-3.517-.215-.947-.308-1.89-.219-2.864.034-.379-.113-.776-.188-1.159-.024-.113-.089-.219-.133-.328-.267-.639-.212-.848.383-1.217,1.131-.704,1.894-1.73,2.485-2.947l-.014.007ZM52.768,14.422c-.038-.007-.075-.017-.113-.024-.379.345-.779.673-1.008,1.159-.089.185-.212.359-.338.52-.523.663-1.06,1.319-1.583,1.986-.137.174-.263.362-.362.557-.239.472-.219,1.46.021,1.853.475-1.548,1.354-2.738,2.191-2.902-.14.656-.714.988-1.019,1.49-.321.526-.66,1.036-.742,1.689.831-.69,1.795-1.207,2.502-2.034.239-.277.321-.615.332-.988.014-.561.092-1.121.113-1.685.021-.54.003-1.08.003-1.62h.003Z" data-sg-fill="sg-fill-0" />
        <path class="cls-1" d="M21.276,30.563c.133.161.277.277.349.431.564,1.193,1.114,2.393,1.675,3.586.065.14.178.256.277.379.397.482.831.937,1.183,1.446.42.608.714,1.306,1.159,1.894.677.896.981,1.942,1.367,2.96.099.26.25.523.113.851-.044.113.154.325.246.502.301-.296.57-.369.807-.219.544-.465,1.087-.947,1.651-1.401.547-.441.981-.95,1.347-1.562.513-.851,1.138-1.631,1.716-2.444.027-.038.048-.082.085-.103.523-.314.649-.878.882-1.381.273-.591.547-1.19.878-1.75.28-.468.653-.878.967-1.326.188-.267.338-.554.506-.834.031-.051.085-.123.072-.157-.226-.502.055-.93.212-1.364.246-.684.526-1.354.817-2.02.113-.26.232-.55.677-.626-.062.308-.113.564-.164.82.017.007.031.014.048.024.205-.338.455-.656.602-1.019.092-.226.031-.513.038-.769.027-.964.328-1.866.632-2.765.027-.082.068-.164.116-.239.178-.267.284-.27.533-.034.021-.021.065-.044.062-.058-.161-.571.089-1.138-.01-1.73-.137-.827-.137-1.682-.147-2.526-.007-.468.103-.554.502-.663-.089-.355-.164-.714-.273-1.063-.051-.164-.15-.328-.267-.451-.516-.533-1.043-1.056-1.572-1.576-.198-.195-.294-.373.058-.646-.243-.017-.4-.058-.54-.031-.827.174-1.644.383-2.475.537-.291.055-.612.01-.902-.055-.12-.027-.202-.222-.338-.393-.147.13-.328.253-.468.414-.561.636-1.104,1.285-1.658,1.924-.106.123-.232.232-.369.321-.25.161-.376.109-.53-.195-.181.267-.352.526-.526.779-.075.109-.144.239-.246.311-.096.065-.28.13-.345.085-.096-.068-.137-.232-.164-.362-.014-.075.044-.171.089-.246.619-1.036,1.299-2.027,2.195-2.851.144-.133.311-.239.468-.359.034.031.068.065.103.096-.109.171-.222.342-.332.513.021.024.041.051.058.075.229-.15.451-.314.687-.455.308-.178.612-.376.94-.499.694-.256,1.398-.475,2.106-.69.161-.051.345-.031.516-.044.01.027.017.058.027.085l-.694.287c.007.024.01.048.017.072.359-.075.735-.106,1.073-.236.25-.096.468-.082.687,0,.834.328,1.631.718,2.314,1.309.106.092.277.157.144.352-.017.027-.017.096,0,.113.55.431.39,1.08.482,1.644.062.359.01.738.01,1.138.144-.188.27-.352.393-.516.051.017.099.038.15.055-.075,1.108-.154,2.215-.232,3.37.209-.126.355-.215.502-.304.027.021.051.041.079.062-.021.109-.027.222-.062.325-.273.872-.718,1.668-1.268,2.386-.455.595-.564,1.282-.766,1.979.058-.027.092-.031.109-.051.123-.154.27-.342.472-.198.202.147,0,.318-.068.465-.585,1.261-1.364,2.396-2.259,3.507.075-.007.126-.021.171-.014.109.017.263.014.308.079.044.068.01.229-.044.314-.468.704-.926,1.419-1.436,2.092-.215.284-.345.564-.386.93.287-.219.376-.632.841-.714-.014.137.01.26-.038.342-.236.41-.461.827-.738,1.207-.342.465-.735.892-1.104,1.333.157.082.39.126.424.236.051.157-.007.376-.082.544-.338.749-.923,1.302-1.521,1.839-.12.109-.246.209-.376.318.123.089.27.147.314.246.031.072-.051.226-.126.304-.93.961-1.839,1.942-2.964,2.69-.147.099-.28.222-.427.024-.786.581-1.579,1.159-2.359,1.754-.147.109-.243.284-.379.444-.393-.116-.516.434-.981.499.195-.338.366-.629.533-.916-.335-.458-.677-.906-.998-1.367-.133-.191-.246-.41-.325-.629-.044-.126-.007-.284-.007-.526.212.144.318.215.431.291,0-.038.017-.089,0-.116-.123-.178-.239-.366-.39-.523-.793-.844-1.6-1.678-2.396-2.519-.041-.041-.096-.092-.103-.144-.01-.123-.041-.291.024-.359.065-.065.256-.072.352-.027.164.079.297.222.475.362-.055-.499-.267-.82-.646-1.111-.776-.595-1.507-1.254-2.239-1.904-.314-.277-.284-.397.092-.653-.475-.933-.961-1.866-1.425-2.81-.12-.243-.178-.513-.301-.882-.831-.588-1.357-1.566-1.825-2.581-.051-.113-.092-.318-.034-.379.229-.232.055-.42-.01-.632-.229-.759-.311-1.538-.294-2.331.007-.239,0-.475.003-.714.007-.304.089-.561.41-.608-.021-.858-.065-1.689-.048-2.516.01-.561.099-1.121.174-1.678.014-.109.133-.297.198-.294.256.01.304-.133.362-.328.171-.564.373-1.121.54-1.689.044-.147.007-.314.007-.461.267-.438.54-.878.831-1.357-.167.014-.284.024-.4.038-.01-.034-.021-.065-.031-.099,1.272-1.043,2.738-1.576,4.41-1.665-.171-.113-.352-.229-.564-.369.277-.154.523-.075.755.041,1.07.537,2.119,1.159,2.878,2.071,1.104,1.33,2.126,2.748,2.594,4.464.007.024-.01.055-.017.082-1.439-.684-1.371-.837-2.092-1.907-.397-.588-.701-1.237-1.06-1.887-1.183-.068-1.955-.872-2.7-1.709-.253-.287-.349-.304-.656-.092-.95.66-1.901,1.319-2.871,1.945-.308.198-.547.393-.571.773.373.157.383.157.345.574-.079.82-.328,1.593-.67,2.341-.072.154-.12.338-.106.506.079.957-.027,1.897-.222,2.827-.068.321-.243.622-.373.943.038.386.113.807.113,1.227,0,.889-.041,1.781-.058,2.67,0,.065.034.188.062.191.072.007.174-.014.222-.062.174-.185.297-.085.39.068.547.95,1.09,1.904,1.627,2.861.031.058-.017.161-.024.212l.01.007ZM31.425,40.425c.718-.656,1.432-1.316,2.065-2.188-1.104.434-1.436,1.446-2.065,2.188ZM22.619,34.077c-.062.407.12.687.55.796-.185-.267-.369-.533-.55-.796Z" data-sg-fill="sg-fill-0" />
        <path class="cls-1" d="M4.41,2.94c.626.465,1.172.933,1.88,1.104.53.13,1.077.209,1.62.267.185.021.4-.068.578-.157.468-.226.916-.489,1.381-.718.171-.085.362-.14.55-.178.663-.126.896.027,1.039.67.397-.041.444-.106.468-.472.021-.321.051-.649.137-.961.041-.154.191-.304.332-.393.215-.137.414-.017.438.239.01.116,0,.239-.031.352-.106.417-.096.834.068,1.227.468,1.128.557,2.331.766,3.514.031.167.068.335.15.509.626-.844,1.224-1.689,1.282-2.776.027-.52.014-1.039.01-1.559-.003-.667-.236-1.053-.865-1.443-.188,1.309.294,2.567.311,3.852-.041.01-.082.021-.123.031-.058-.154-.113-.308-.171-.461-.492-1.278-.66-2.612-.598-3.972.007-.154.089-.345.205-.438.058-.044.287.072.4.164.325.26.632.54.937.824.335.308.496.708.489,1.155-.014.759,0,1.521-.096,2.27-.062.475-.28.933-.465,1.381-.15.369-.373.711-.53,1.077-.15.352-.273.718-.376,1.084-.055.198-.096.383-.328.42-.243.038-.427-.099-.489-.304-.178-.608-.335-1.227-.468-1.849-.167-.796-.301-1.603-.458-2.403-.021-.106-.096-.205-.188-.393-.147.345-.291.602-.362.878-.342,1.289-1.145,2.263-2.095,3.145-.236.219-.455.458-.718.732.209.096.352.164.499.226.598.239,1.155.537,1.654.95.212.178.472.308.732.414,1.391.557,2.533,1.419,3.326,2.707.062.099.14.191.215.284.034.041.085.068.167.13.113-.321.226-.608.314-.902.311-1.036.714-2.054.656-3.165-.014-.28-.027-.571-.116-.831-.277-.81-.42-1.637-.393-2.492.027-.831.031-1.658.079-2.485.017-.308.123-.612.212-.909.072-.232.181-.458.291-.721.332.174.393.431.386.69-.014.444-.079.885-.103,1.33-.092,1.555-.164,3.097.219,4.645.349,1.415.273,2.861-.178,4.266-.14.438-.273.878-.441,1.306-.092.236-.096.417.106.591.099.085.198.185.263.301.051.089.109.246.068.304-.051.075-.205.116-.308.106-.126-.01-.273-.058-.362-.14-.301-.284-.602-.574-.861-.896-.366-.448-.656-.961-1.049-1.381-.328-.352-.728-.66-1.149-.902-.537-.311-1.121-.54-1.685-.807-.027-.014-.055-.021-.082-.034-1.084-.605-2.167-1.213-3.169-1.952-.089-.065-.25-.109-.345-.079-.94.308-1.829.034-2.704-.239-.636-.198-.684-.537-.263-1.056.287-.355.513-.762.762-1.149.468-.721.933-1.446,1.401-2.171.038-.058.072-.123.133-.232-.239-.041-.438-.092-.639-.103-1.272-.079-2.222-.786-3.1-1.603-.376-.349-.314-.814.109-1.104.229-.157.499-.256.759-.362.759-.304,1.531-.564,2.277-.896,1.484-.66,2.916-.588,4.307.229.226.13.42.328.588.53.065.075.075.294.017.355-.082.082-.263.123-.386.099-.154-.031-.287-.147-.431-.226-1.152-.656-2.341-.766-3.534-.154-.786.403-1.603.697-2.451.926-.137.038-.27.099-.479.178l.007.003ZM6.095,8.871c.984.236,1.883.314,2.639-.472.164-.171.342-.332.533-.472,1.196-.878,1.709-2.177,2.222-3.606-.988.807-1.849,1.583-2.447,2.615-.14.243-.297.482-.479.694-.123.144-.273.321-.496.222.355-1.812,1.48-2.994,3.052-3.852-.188-.034-.366-.051-.509.01-.824.355-1.607.793-2.239,1.429-.971.978-1.552,2.225-2.273,3.432h-.003Z" data-sg-fill="sg-fill-0" />
        <path class="cls-1" d="M6.222,13.075c-.355.694-.684,1.292-.971,1.907-.325.697-.817,1.22-1.456,1.644-.742.489-1.46,1.019-2.181,1.538-.427.308-.885.154-.961-.369-.034-.239-.01-.516.075-.742.479-1.231.656-2.523.875-3.811.215-1.278.776-2.369,1.942-3.059.205-.12.414-.239.639-.311.215-.072.461-.072.578.185.103.222-.003.403-.181.544-.068.055-.14.113-.215.157-1.043.626-1.589,1.569-1.788,2.741-.068.397-.109.796-.198,1.186-.137.591-.301,1.176-.458,1.764-.038.137-.089.27-.068.461.721-.458,1.446-.913,2.157-1.384.144-.096.27-.243.359-.393.4-.66.817-1.313,1.159-2.003.28-.567.301-1.2.15-1.894-1.111,1.234-2.054,2.495-2.307,4.163-.051-.014-.103-.027-.154-.041,0-.342-.021-.684.003-1.022.103-1.439.926-2.478,1.962-3.37.185-.157.513-.167.779-.191.075-.007.212.164.243.273.106.397.178.8.277,1.261.352.075.615.379.878.711.181.226.427.41.68.561.663.393,1.343.759,2.017,1.135.116.065.246.123.338.215,1.036,1.015,2.15,1.948,2.806,3.305.41.848.967,1.637,1.548,2.383.636.817,1.005,1.685,1.06,2.728.062,1.261.209,2.516.318,3.774v.044c-.072,2.256-.058,4.526-.547,6.741-.226,1.015-.52,2.013-.567,3.059-.024.489-.051.981-.031,1.466.051,1.275.144,2.55.191,3.828.014.366-.051.738-.099,1.108-.034.25-.185.403-.451.4-.267,0-.417-.157-.451-.403-.048-.321-.079-.646-.106-.971-.096-1.169-.198-2.338-.277-3.511-.065-.961-.137-1.928-.123-2.888.007-.526.106-1.077.294-1.566.475-1.251.612-2.567.844-3.866.147-.817.236-1.648.314-2.475.038-.397,0-.8-.027-1.196-.058-.814-.133-1.627-.202-2.441-.038-.458-.062-.92-.099-1.378-.051-.591-.263-1.118-.626-1.593-.448-.591-.889-1.19-1.299-1.812-.253-.383-.448-.803-.649-1.217-.311-.632-.732-1.169-1.21-1.689-.728-.793-1.576-1.364-2.523-1.86-.834-.438-1.658-.937-2.253-1.825l-.01-.003Z" data-sg-fill="sg-fill-0" />
        <path class="cls-1" d="M36.302,8.109c.014.403-.212.591-.639.475-.256-.072-.502-.178-.755-.263-.8-.273-1.596-.554-2.396-.817-1.251-.417-2.29-1.176-3.258-2.037-.41-.362-.649-.848-.769-1.381-.13-.578-.246-1.159-.359-1.743-.075-.39.041-.523.444-.554.041,0,.106.007.116-.014.291-.513.831-.42,1.268-.458,1.128-.099,2.222.075,3.199.708.41.267.81.55,1.231.8,1.09.643,1.613,1.624,1.73,2.847.075.796.123,1.596.188,2.437ZM28.898,2.178c.185.701.318,1.354.533,1.979.106.311.308.632.557.837.653.533,1.306,1.101,2.051,1.48,1.039.53,2.16.899,3.251,1.333.038.014.085,0,.14,0,.01-.885-.164-1.736-.376-2.584-.133-.523-.393-.961-.827-1.282-.547-.407-1.104-.8-1.654-1.207-.738-.544-1.603-.673-2.482-.742-.085-.007-.178.031-.311.058.656.629,1.265,1.217,2.041,1.593,1.043.502,1.709,1.384,2.304,2.355-.14-.021-.28-.055-.376-.14-.209-.188-.41-.39-.591-.605-.42-.499-.913-.892-1.538-1.101-.605-.198-1.118-.544-1.586-.964-.362-.325-.725-.646-1.135-1.012Z" data-sg-fill="sg-fill-0" />
        <path class="cls-1" d="M34.371,19.136c.219.537.461.961.544,1.412.041.236-.15.574-.338.769-.25.26-.595.431-.906.629-.195.126-.397.239-.667.397.277.188.472.376.708.468.15.058.379.034.526-.044.328-.167.632-.383.94-.588.161-.106.291-.144.366.106.308-.222.588-.427.872-.632.021.024.041.044.065.068-.608.766-1.436,1.319-2.109,2.068.212.256.41.509.626.745.13.14.267.277.092.448-.167.167-.366.109-.516-.041-.133-.137-.226-.311-.352-.455-.096-.109-.212-.198-.352-.328-.123.14-.26.243-.325.379-.198.407-.557.639-.909.882-.434.301-.892.308-1.34.055-.253-.144-.499-.328-.701-.537-.106-.109-.13-.311-.157-.479-.024-.133-.007-.277.003-.414.007-.099.007-.267.055-.284.349-.116.311-.468.461-.704.116-.185.232-.379.386-.53.065-.065.229-.024.349-.034.007.031.014.065.017.096.164-.147.325-.294.499-.451-.185-.468-.349-.94-.554-1.395-.109-.243-.099-.431.092-.598.349-.301.69-.612,1.066-.875.226-.157.496-.178.793-.075.215.072.468.311.766-.068v.01ZM33.445,23.945c-.386-.42-.752-.82-1.121-1.224-.236.174-.451.355-.69.499-.349.209-.547.52-.694.882-.133.328.072.643.427.66.338.017.677.065,1.015.048.171-.007.369-.092.496-.209.226-.209.407-.465.567-.66v.003ZM34.446,20.667c-.277-.369-.513-.684-.766-1.015-.479.226-.697.667-.889,1.135-.157.379-.079.704.277.984.41-.41.68-.988,1.378-1.104Z" data-sg-fill="sg-fill-0" />
        <path class="cls-1" d="M24.615,24.41c.109-.167.198-.301.267-.403-.092-.14-.26-.284-.236-.383.031-.12.205-.232.338-.294.742-.325.735-.318.622-1.097-.106-.745-.198-1.494-.28-2.242-.021-.178-.044-.4.243-.444.137.232.273.461.441.745.031-.181.048-.301.068-.42h.099c.335,1.19.297,2.417.318,3.671-.212.038-.431.048-.39.321-.448.106-.547.646-.984.779-.646.191-1.292.332-1.959.106-.267-.089-.451-.25-.516-.554-.048-.229-.178-.438-.263-.66-.157-.407-.219-.807-.144-1.258.058-.352-.044-.732-.072-1.101-.024-.311-.041-.622-.062-.933-.021-.277.096-.414.386-.407.202.003.403-.024.653-.041.007.048.021.126.027.209.027.458.058.916.075,1.374.007.222.034.455-.021.663-.167.619.072,1.097.448,1.552.195.236.383.482.619.779.044.003.174.017.325.031l-.003.007Z" data-sg-fill="sg-fill-0" />
        <path class="cls-1" d="M24.81,27.654c.13.048.267.15.321.116.301-.185.407.027.509.229.239.458.465.926.725,1.439.14-.198.27-.369.39-.55.205-.308.397-.629.612-.926.338-.468.359-.468.913-.308.246.786.031,4.926-.321,5.432-.267-.612-.185-1.234-.28-1.822-.099-.608-.092-1.234-.137-1.904-.42.485-.465,1.224-1.162,1.419-.26-.191-.386-.455-.492-.796-.154-.496-.479-.94-.732-1.408l-.106.014c0,.15.01.301,0,.448-.055.738-.116,1.477-.181,2.212-.01.116-.051.236-.113.335-.038.058-.15.113-.212.096-.236-.058-.475-.383-.448-.643.055-.544.103-1.094.219-1.627.13-.598.335-1.179.506-1.757l-.01.003Z" data-sg-fill="sg-fill-0" />
        <path class="cls-1" d="M42.404,14.118c-.277-.41-.335-.872-.256-1.354.137-.837.263-1.672.13-2.523-.144-.923-.195-1.856-.509-2.752-.451-1.282-.311-2.612-.253-3.931.01-.253.027-.506.068-.755.034-.219.147-.41.403-.397.246.014.294.205.304.417.027.711.082,1.425.089,2.136.01.882.157,1.736.321,2.601.171.913.27,1.853.284,2.782.014,1.005-.092,2.013-.181,3.018-.024.263-.167.516-.256.776-.048-.007-.096-.014-.144-.021Z" data-sg-fill="sg-fill-0" />
        <path class="cls-1" d="M33.223,30.187c-.82.335-1.648.639-2.618.509-.12.407-.239.824-.376,1.292.69.068,1.35.137,2.054.209-.099.096-.185.174-.321.304.335.13.626.239.95.366-.677.335-1.364.308-2.054.229-.219-.024-.438-.079-.646-.154-.42-.15-.54-.475-.373-.882.075-.185.137-.39.15-.588.062-.916.082-1.836.164-2.748.058-.622.038-.516.561-.749.957-.424,1.904-.253,2.882-.062.062.256-.007.438-.287.485-.667.109-1.337.209-2.007.308-.103.014-.209.01-.352.021-.041.294-.085.595-.133.943.824.188,1.685-.007,2.434.332-.01.062-.017.123-.027.188v-.003Z" data-sg-fill="sg-fill-0" />
        <path class="cls-1" d="M16.835,35.468c.308.554.4,1.155.137,1.747-.205.458-.273.92-.198,1.388.092.595.28,1.179.407,1.771.065.297.147.608.126.906-.044.738-.133,1.477-.219,2.212-.055.461-.212.646-.485.615-.27-.031-.42-.246-.386-.694.048-.619.157-1.234.209-1.853.017-.212,0-.455-.089-.639-.472-.998-.632-2.068-.52-3.128.075-.732.458-1.429.708-2.14.027-.082.096-.15.144-.222l.164.041.003-.003Z" data-sg-fill="sg-fill-0" />
        <path class="cls-1" d="M37.174,44.66c-.085-.198-.191-.39-.25-.595-.126-.441-.267-.885-.325-1.34-.089-.649.15-1.244.523-1.754.561-.766.766-1.658.817-2.553.031-.547.13-1.155-.178-1.699-.096-.174-.072-.4.133-.506.205-.109.444-.072.547.137.12.243.195.52.226.79.041.366,0,.738.031,1.104.072.926-.171,1.798-.468,2.656-.055.161-.181.308-.294.444-.41.496-.591,1.049-.482,1.695.048.291.085.591.068.885-.014.25-.113.492-.178.742-.058,0-.116,0-.174-.003l.003-.003Z" data-sg-fill="sg-fill-0" />
        <path class="cls-1" d="M18.763,11.554c-.133-.749.027-1.432.171-2.112.215-1.008.243-1.983-.243-2.947-.386-.766-.294-1.62-.287-2.451,0-.209.024-.417.055-.622.027-.198.15-.362.352-.318.126.027.267.178.314.308.062.157.044.352.044.526,0,.971.089,1.907.465,2.83.332.81.209,1.702.113,2.557-.065.554-.25,1.097-.393,1.641-.075.28-.222.509-.591.585v.003Z" data-sg-fill="sg-fill-0" />
        <path class="cls-1" d="M22.226,44.342c-.085-.099-.181-.188-.253-.294-.718-1.046-1.138-2.188-1.019-3.473.031-.349.14-.697.26-1.029.226-.619.181-1.217-.051-1.822-.157-.41-.352-.827-.041-1.309.072.092.144.157.188.239.178.325.349.653.516.984.263.52.304,1.063.072,1.593-.663,1.504-.461,2.919.397,4.28.263.417.253.523-.065.824l-.003.007Z" data-sg-fill="sg-fill-0" />
        <path class="cls-1" d="M20.527,45.446c-.034-.161-.096-.318-.096-.479,0-.54-.154-.995-.513-1.419-.742-.878-.786-1.914-.564-2.988.051-.246.198-.441.485-.441.229,0,.4.212.393.554-.014.978.215,1.897.502,2.827.157.506.103,1.084.113,1.627,0,.113-.123.226-.188.338l-.133-.024v.003Z" data-sg-fill="sg-fill-0" />
        <path class="cls-1" d="M27.736,11.66c0-.222-.038-.403.007-.564.212-.759-.144-1.408-.431-2.041-.386-.848-.52-1.658-.116-2.523.126-.267.195-.561.291-.841.034-.099.055-.219.123-.28.099-.089.253-.202.352-.178.089.021.205.229.185.332-.085.482-.161.974-.335,1.425-.232.605-.157,1.121.106,1.706.239.526.379,1.135.407,1.713.017.379-.239.773-.383,1.155-.014.038-.096.048-.209.099l.003-.003Z" data-sg-fill="sg-fill-0" />
        <path class="cls-1" d="M16.06,19.611c-.085.031-.12.058-.137.051-.684-.359-1.425-.714-1.641-1.518-.256-.95-.803-1.706-1.367-2.468-.27-.366-.544-.732-.865-1.159.42-.123.711,0,.909.219.475.523.954,1.056,1.343,1.644.246.373.318.855.506,1.272.144.318.325.622.523.913.157.229.379.414.55.639.089.116.12.273.178.414v-.007Z" data-sg-fill="sg-fill-0" />
        <path class="cls-1" d="M26.048,7.329c0,.643-.034,1.231.01,1.808.034.434.157.865.256,1.292.157.708.178,1.405-.106,2.089-.089.212-.256.338-.496.267-.253-.075-.209-.284-.188-.479.044-.397.092-.793.123-1.19.01-.13,0-.273-.048-.393-.318-.824-.355-1.637.01-2.458.089-.198.116-.427.198-.632.044-.109.15-.191.246-.304h-.007Z" data-sg-fill="sg-fill-0" />
        <path class="cls-1" d="M41.112,11.506c-.284-.113-.332-.314-.342-.526-.014-.267-.01-.533-.014-.8-.01-.571-.195-1.077-.585-1.497-.574-.622-.561-1.367-.455-2.13.014-.103.147-.267.226-.267.096,0,.25.123.28.222.089.294.154.602.185.906.031.318.14.581.308.858.219.355.417.769.468,1.176.075.598.017,1.213.007,1.822,0,.065-.044.133-.082.236h.003Z" data-sg-fill="sg-fill-0" />
        <path class="cls-1" d="M29.921,34.443c0,.291.031.523-.01.742-.038.215-.126.427-.229.622-.362.677-.622,1.36-.537,2.157.048.438-.109.612-.352.602s-.328-.191-.359-.615c-.055-.742.109-1.395.598-1.986.205-.25.28-.612.4-.93.082-.219.12-.461.489-.595v.003Z" data-sg-fill="sg-fill-0" />
        <path class="cls-1" d="M19.208,34.515c.106.126.167.181.209.25.246.417.526.824.718,1.265.154.359.236.759.28,1.149.058.513.055,1.032.055,1.548,0,.092-.099.253-.171.263-.106.017-.287-.041-.332-.123-.089-.161-.144-.362-.147-.547-.007-.472.038-.943.024-1.415-.007-.205-.051-.451-.171-.605-.444-.571-.557-.899-.468-1.784h.003Z" data-sg-fill="sg-fill-0" />
        <path class="cls-1" d="M6.519,3.357c.062-.314.304-.506.567-.605.509-.188,1.032-.366,1.566-.448.461-.075.947-.021,1.422-.01.116,0,.25.01.342.068.109.068.181.195.27.297-.109.075-.209.195-.328.219-.185.038-.383.024-.574.01-1.066-.082-2.092.106-3.087.482-.038.014-.082.024-.123.031-.01,0-.024-.017-.055-.041v-.003Z" data-sg-fill="sg-fill-0" />
        <path class="cls-1" d="M35.239,47.179c-.068-.492.048-.851.263-1.179.157-.236.178-.468.133-.752-.126-.848-.256-1.702-.051-2.56.021-.085.034-.185.085-.246.048-.055.147-.096.222-.092.044,0,.109.092.123.154.024.099.014.205.017.311.027.858.034,1.716.089,2.574.024.4-.079.725-.314,1.029-.178.229-.349.468-.571.762h.003Z" data-sg-fill="sg-fill-0" />
        <path class="cls-1" d="M24.246,16.446c.133-.369.253-.745.403-1.108.085-.202.294-.304.472-.188.113.075.154.284.195.441.017.072-.027.178-.072.25-.263.414-.246.834-.062,1.272.085.202.14.42.191.636.055.246-.092.386-.321.287-.14-.062-.277-.185-.352-.314-.219-.386-.427-.783-.366-1.258-.031-.007-.058-.017-.089-.024v.007Z" data-sg-fill="sg-fill-0" />
        <path class="cls-1" d="M17.488,33.899c-.13.273-.246.557-.397.824-.103.185-.308.297-.489.181-.137-.085-.284-.301-.273-.448.027-.362.106-.732.236-1.073.051-.14.294-.308.427-.291.14.021.28.229.373.383.065.106.048.26.068.39.017.01.038.021.055.031v.003Z" data-sg-fill="sg-fill-0" />
        <path class="cls-1" d="M18.251,14.029c-.294-.913-.082-1.634.52-1.829.352.608.062,1.675-.52,1.829Z" data-sg-fill="sg-fill-0" />
        <path class="cls-1" d="M26.656,4.872c.065.373.181.687.161.988-.027.373-.161.742-.277,1.104-.027.085-.164.133-.25.202-.058-.103-.144-.202-.167-.311-.021-.092.01-.212.055-.297.154-.291.14-.591.106-.902-.031-.27-.062-.564.376-.779l-.003-.003Z" data-sg-fill="sg-fill-0" />
        <path class="cls-1" d="M42.944,15.632c-.096.232-.161.513-.311.735-.157.236-.366.191-.461-.068-.147-.4-.062-.793.109-1.159.113-.236.355-.236.489-.014.082.133.106.301.174.506Z" data-sg-fill="sg-fill-0" />
        <path class="cls-1" d="M9.267,13.01c.564-.123,1.005.106,1.425.386.082.055.178.219.15.28-.044.096-.178.188-.291.212-.502.116-1.118-.297-1.285-.878Z" data-sg-fill="sg-fill-0" />
        <path class="cls-1" d="M30.686,34.713c.345.369.332.732.188,1.08-.099.243-.277.451-.438.663-.044.058-.171.109-.226.085-.075-.034-.126-.14-.174-.222-.021-.034-.021-.092,0-.13.209-.479.42-.957.649-1.477Z" data-sg-fill="sg-fill-0" />
        <path class="cls-1" d="M18.698,44.732c-.109-.39-.232-.779-.321-1.172-.044-.195,0-.407.236-.458.226-.048.308.137.362.308.144.455.209.906-.096,1.309-.062.003-.123.01-.185.014h.003Z" data-sg-fill="sg-fill-0" />
        <path class="cls-1" d="M23.098,41.966c-.54-.085-.913-.807-.663-1.196.058-.092.215-.167.325-.164.082,0,.215.133.229.219.055.373.075.752.109,1.142Z" data-sg-fill="sg-fill-0" />
        <path class="cls-1" d="M28.994,11.671c-.12.513-.048,1.025-.352,1.528-.26-.465-.239-.906-.144-1.347.038-.174.123-.191.496-.181Z" data-sg-fill="sg-fill-0" />
        <path class="cls-1" d="M34.228,45.084c.055.608.034,1.114-.431,1.531-.191-.66-.062-1.155.431-1.531Z" data-sg-fill="sg-fill-0" />
        <path class="cls-1" d="M19.546,33.585c-.383-.359-.379-.694.007-1.066.202.362.219.704-.007,1.066Z" data-sg-fill="sg-fill-0" />
        <path class="cls-1" d="M39.994,4.807c-.557-.113-.714-.509-.376-.94.126.321.246.615.376.94Z" data-sg-fill="sg-fill-0" />
      </g>
    </g>
  </g>
</g></svg>