<svg xmlns="http://www.w3.org/2000/svg" id="Layer_2" data-name="Layer 2" viewBox="0.0 0.0 100.0 121.33555555555556">
  <g transform="scale(1.1111111111111112)"><defs data-sg-fill="sg-fill-0">
    <style data-sg-fill="sg-fill-0">
      .cls-1 {
        stroke-width: 0px;
      }
    </style>
  </defs>
  <g id="Layer_1-2" data-name="Layer 1-2" data-sg-fill="sg-fill-0">
    <g id="OkaK7n.tif" data-sg-fill="sg-fill-0">
      <g data-sg-fill="sg-fill-0">
        <path class="cls-1" d="M.5,55.684c.053-.288.152-.576.159-.864.091-3.04.834-5.92,2.039-8.702.682-1.569,1.812-2.676,3.259-3.585,1.842-1.16,3.79-1.569,5.913-1.554,1.008.008,2.024-.174,3.017-.341.705-.121,1.251-.561,1.713-1.122-.076-.091-.121-.212-.19-.235-2.971-.902-4.086-3.161-4.245-6.011-.136-2.403-.174-4.813-.159-7.224.015-1.978.523-3.828,1.69-5.488,3.07-4.374,7.103-7.474,12.136-9.248,1.054-.371,2.115-.697,3.169-1.038.136-1.023.637-1.774,1.304-2.57,1.85-2.221,4.131-3.775,6.762-4.836,2.479-.993,5.071-1.675,7.739-1.887,2.592-.205,5.192-.409,7.785-.371,2.699.038,5.397.424,7.868,1.622.902.44,1.751,1.061,2.486,1.743,1.099,1.023,1.243,2.426,1.122,3.843-.121,1.44-.303,2.88-.455,4.321-.023.19,0,.387,0,.659.212,0,.402.015.584,0,3.904-.432,6.86,1.16,9.02,4.336,1.486,2.183,2.221,4.624,2.259,7.269.015,1.213,0,2.426,0,3.616,1.258.091,2.395.182,3.532.258.993.068,1.834.515,2.608,1.092.819.614,1.607,1.266,2.403,1.91,2.16,1.759,3.313,4.169,4.177,6.716.932,2.767,1.471,5.617,1.258,8.558-.091,1.251-.235,2.494-.364,3.745-.19,1.797-.258,3.616-.796,5.352-.985,3.191-2.153,6.292-4.571,8.748-1.183,1.198-2.577,1.971-4.192,2.244-1.683.28-3.404.599-5.086.531-5.64-.227-11.128-1.296-16.229-3.813-2.979-1.471-5.42-3.616-6.928-6.678-.478-.963-.781-1.956-.766-3.04v-1.372h-6.481c0,.349-.015.796,0,1.243.053,1.122.205,2.236.167,3.35-.061,1.546-.258,3.085-.394,4.624-.303,3.366-1.599,6.36-3.35,9.195-.735,1.19-1.743,2.069-2.964,2.691-1.592.819-3.267,1.387-5.094,1.372-1.774-.023-3.555.053-5.329,0-2.32-.076-4.541-.758-6.769-1.319-5.64-1.418-10.461-4.412-15.047-7.861-.879-.659-1.577-1.478-2.16-2.418-1.198-1.956-2.206-3.98-2.456-6.307-.015-.129-.091-.243-.136-.364v-.796l-.008.008ZM34.354,27.44c.053,1.046.03,2.107.182,3.146.606,4.063,1.781,7.906,4.571,11.075,1.031,1.167,2.221,2.107,3.798,2.289,2.342.273,4.662.061,6.951-.5,2.054-.5,3.942-1.387,5.844-2.312,3.54-1.713,6.913-3.669,10.029-6.072,1.258-.97,2.418-2.024,3.404-3.282,1.925-2.448,3.313-5.139,3.836-8.24.205-1.22.121-2.456-.334-3.593-.311-.781-.826-1.508-1.342-2.183-1.175-1.539-2.63-2.683-4.647-2.88-1.319-.129-2.63-.091-3.919.28-1.107.318-2.229.599-3.313.97-1.675.576-3.396.743-5.147.75-1.486,0-2.736-.523-3.661-1.637-.705-.849-1.327-1.804-1.842-2.782-.599-1.137-1.433-1.834-2.676-2.13-2.494-.599-6.049.788-7.451,3.002-.705,1.114-1.395,2.244-1.971,3.426-.485,1.001-.894,2.054-1.175,3.131-.644,2.464-.978,4.98-1.145,7.535l.008.008ZM42.806,51.765c-.28-.106-.553-.22-.834-.303-2.395-.75-3.911-2.486-4.995-4.624-.652-1.289-1.114-2.668-1.63-4.025-1.092-2.888-2.448-5.708-2.259-8.937.015-.288-.273-.659-.515-.879-1.41-1.228-3.229-1.539-4.92-1.387-3.29.296-5.928,1.872-7.398,5.018-.318.69-.591,1.402-.963,2.062-1.076,1.941-2.539,3.366-4.889,3.555-1.569.121-3.146.212-4.722.341-1.471.121-2.714.864-3.82,1.721-.804.622-.713,1.789-1.016,2.721-.053.159-.068.326-.099.485-.44,2.63.152,5.018,1.903,7.012,1.63,1.865,3.525,3.426,5.625,4.783,3.517,2.266,7.353,3.798,11.204,5.321,2.676,1.061,5.488,1.607,8.308,2.085,1.562.265,3.169.167,4.662-.44,2.577-1.046,4.29-2.987,5.344-5.526.326-.781.402-1.668.735-2.448.917-2.145.652-4.313.258-6.534h.023ZM75.666,29.487c-.531,1.971-.872,3.873-1.546,5.647-1.774,4.669-5.185,8.043-9.058,10.999-2.403,1.834-5.094,3.153-7.906,4.222-.455.174-.887.387-1.425.622,1.038,1.66,2.069,3.146,3.745,4.093,3.404,1.925,7.027,3.297,10.764,4.412,2.63.781,5.314,1.266,8.035,1.501,2.433.212,4.563-.417,6.14-2.441,2.357-3.032,3.608-6.443,3.699-10.317.076-3.131-.28-6.178-1.16-9.187-.985-3.381-2.448-6.428-5.609-8.3-.728-.432-1.516-.834-2.327-.993-1.122-.22-2.282-.19-3.343-.258h-.008ZM32.769,30.76c0-.22-.008-.478,0-.735.121-2.729.197-5.465.379-8.194.182-2.668.925-5.185,2.418-7.444.508-.766.932-1.592,1.395-2.395.099-.182.167-.379.288-.659-1.304,0-2.486.038-3.669-.008-2.585-.106-5.048.394-7.413,1.387-2.244.948-4.472,1.948-6.284,3.661-.697.659-1.395,1.304-2.077,1.978-1.372,1.349-2.494,2.896-3.419,4.586-.743,1.364-.773,2.714.19,3.987.455.599.91,1.243,1.493,1.698,1.243.978,2.547,1.872,3.866,2.744.485.318,1.076.485,1.615.72.364.152.667.076,1.016-.129.675-.402,1.387-.758,2.107-1.084,1.683-.758,3.426-1.175,5.276-.781.925.197,1.842.44,2.82.675v-.008ZM30.958,9.869c.334-.015.622-.053.91-.045,2.069.045,4.146.045,6.208.182.553.038.993.03,1.478-.25,1.349-.773,2.744-1.471,4.328-1.539,3.441-.136,5.556.985,6.792,3.555.273.561.614,1.092.993,1.584.576.743,1.296,1.334,2.274,1.448,2.176.25,4.215-.311,6.193-1.092-.121-.387-.28-.682-.303-.993-.083-1.076.091-2.1.713-3.017.538-.788,1.038-1.599,1.569-2.395.379-.576.349-1.167.144-1.797-.205-.614-.637-.97-1.167-1.281-2.699-1.577-5.708-1.971-8.725-2.183-2.661-.19-5.336,0-7.974.379-3.009.432-5.928,1.205-8.611,2.691-1.448.804-2.782,1.766-3.904,2.994-.432.478-.879.97-.917,1.759Z" data-sg-fill="sg-fill-0" />
        <path class="cls-1" d="M59.437,108.594c-.894-.19-1.789-.356-2.676-.576-2.289-.561-4.442-1.44-6.405-2.744-.569-.379-1.129-.826-1.546-1.364-1.501-1.91-2.752-3.987-3.062-6.443-.19-1.463-.243-2.964-.121-4.427.174-2.1.569-4.177.872-6.261.28-1.933,1.213-3.608,2.077-5.314,1.099-2.16,2.448-4.139,4.222-5.822,1.387-1.319,2.964-2.297,4.813-2.812.637-.174,1.281-.318,1.895-.538,3.616-1.289,7.459,1.069,8.793,4.321.235.576.424,1.175.644,1.766.47,1.258,1.357,1.88,2.714,1.872,1.88-.015,3.752,0,5.632.038.553.015,1.129.099,1.637.296,2.911,1.114,6.329,4.472,6.413,8.664.076,3.911-.872,7.504-3.214,10.764-2.145,2.994-4.935,4.957-8.316,6.193-.834.303-1.652.675-2.509.879-1.016.243-2.077.303-3.108.508-1.607.311-3.206.667-4.806,1.001h-3.957.008ZM60.354,101.719c1.349-.061,2.706-.03,4.04-.197,3.237-.417,6.329-1.44,9.468-2.282,2.122-.576,4.048-1.516,5.875-2.706,1.486-.97,2.714-2.198,3.601-3.737.523-.917.985-1.887.917-2.979-.212-3.388-2.054-5.776-4.836-7.474-.659-.402-1.554-.584-2.342-.584-1.842-.008-3.684.114-5.518.25-2.236.167-3.813-1.342-4.381-3.009-.205-.591-.394-1.19-.584-1.781-.697-2.191-3.995-4.063-6.284-3.191-.493.19-1.001.334-1.516.447-2.964.675-5.109,2.479-6.837,4.882-2.365,3.275-3.881,6.883-4.124,10.953-.076,1.311-.144,2.645.03,3.942.258,1.925,1.395,3.464,2.676,4.859.804.879,1.834,1.41,3.002,1.781,2.236.713,4.503.894,6.822.826h-.008Z" data-sg-fill="sg-fill-0" />
        <path class="cls-1" d="M51.508,24.037c.985-.25,1.819-.561,2.676-.644.887-.091,1.311.455,1.266,1.357-.03.743-.356,1.364-.955,1.766-.591.402-1.251.713-1.903,1.023-.652.303-1.334.546-2.001.826-.697.303-.917.265-1.334-.326-1.054-1.486-1.122-3.131-.705-4.813.227-.902,1.198-1.152,1.941-.576.258.197.47.462.659.735.167.235.273.515.349.652h.008Z" data-sg-fill="sg-fill-0" />
        <path class="cls-1" d="M60.953,29.858c.804-.053,1.364-.432,1.69-1.107.28-.591.5-1.213.75-1.827.099-.243.152-.538.318-.713.152-.159.478-.303.659-.243.174.061.409.432.364.584-.546,1.721-.978,3.517-2.82,4.434-.75.371-1.478.334-2.183.023-.705-.318-1.205-.872-1.099-1.706.114-.879.318-1.743.493-2.608.099-.485.197-.97.341-1.44.114-.364.341-.682.781-.576.417.099.584.447.5.841-.159.735-.356,1.463-.553,2.191-.061.22-.159.432-.235.652-.303.94.068,1.478.985,1.493h.008Z" data-sg-fill="sg-fill-0" />
        <path class="cls-1" d="M40.577,25.644c.258-.819.47-1.471.682-2.13.273-.849.538-1.698.819-2.539.061-.19.121-.424.258-.523.197-.136.478-.235.697-.197.152.03.341.303.364.493.038.28-.015.599-.114.864-.478,1.334-.978,2.653-1.478,3.98-.038.091-.061.212-.129.265-.22.167-.455.303-.682.455-.159-.25-.318-.5-.424-.667h.008Z" data-sg-fill="sg-fill-0" />
        <path class="cls-1" d="M20.937,48.119c.341.076.629.182.917.19,1.372.038,1.918,1.925.902,2.843-.614.553-1.402.978-2.191,1.258-.341.121-1.016-.159-1.273-.47-.872-1.061-1.637-2.213-2.426-3.343-.296-.424-.144-.826.212-1.137.758-.667,1.683-1.023,2.645-1.236.538-.121,1.001.265,1.122.857.068.318.061.652.091,1.038ZM20.194,51.583c.576-.5,1.137-.948,1.63-1.455.129-.129.129-.546.015-.705-.106-.152-.485-.243-.667-.167-.652.258-1.273.606-1.978.948.364.5.652.902,1.001,1.38ZM17.768,48.369c.334.44.546.72.766,1.008.659-.553,1.175-1.092,1.236-2.1-.713.394-1.296.713-2.001,1.099v-.008Z" data-sg-fill="sg-fill-0" />
        <path class="cls-1" d="M20.421,58.83c.28.705.508,1.243.713,1.781.091.243.212.5.205.75,0,.197-.144.515-.288.561-.205.053-.584-.015-.682-.167-.667-1.069-1.22-2.198-1.069-3.51.068-.622.713-.91,1.38-.622.659.28,1.281.652,1.986,1.016,0-.697-.008-1.334,0-1.963,0-.258.008-.538.099-.773.22-.606.781-.811,1.243-.364.796.773,1.524,1.63,2.236,2.494.106.129-.015.455-.03.682-.205-.023-.47.023-.614-.091-.561-.44-1.084-.932-1.713-1.493,0,.72-.045,1.327.008,1.925.099.985-.258,1.304-1.16.917-.72-.311-1.41-.697-2.312-1.145Z" data-sg-fill="sg-fill-0" />
        <path class="cls-1" d="M26.122,47.558c.675-.432,1.273-.826,1.895-1.198.296-.174.675-.318.841.091.076.19-.083.561-.258.743-.409.432-.864.811-1.334,1.175-.735.576-1.433.523-1.963-.22-.743-1.046-1.418-2.145-2.107-3.229-.243-.379-.19-.819.114-1.099.652-.599,1.349-1.145,2.054-1.675.273-.205.697-.28.826.129.076.235-.053.667-.243.841-.455.417-1.001.743-1.584,1.152.167.349.318.652.47.963.485-.296.887-.614,1.334-.781.265-.099.735-.061.887.121.152.174.129.659-.008.894-.243.417-.599.788-.963,1.107-.417.364-.387.644.038.97v.015Z" data-sg-fill="sg-fill-0" />
        <path class="cls-1" d="M32.898,52.356c-.44-1.145-1.251-2.039-.91-3.214.136,0,.19,0,.197.015.705,1.129,1.493,2.213,2.077,3.404.334.675-.227,1.137-.978.91-.341-.106-.652-.318-.978-.47-.644-.303-1.296-.591-1.948-.887-.053.053-.106.106-.167.159.265.455.538.91.804,1.372.182.311.409.614.493.955.045.19-.114.553-.28.637-.167.083-.584-.023-.667-.167-.591-1.023-1.175-2.062-1.66-3.138-.265-.576.19-1.084.826-.94.667.152,1.304.424,1.933.69.379.159.735.394,1.258.682v-.008Z" data-sg-fill="sg-fill-0" />
        <path class="cls-1" d="M34.869,47.596c.159.311.265.508.402.758.197-.068.379-.121.546-.197.349-.152.728-.296.985.068.265.371.099.758-.205,1.069-.136.144-.28.28-.478.478.167.28.341.576.515.864.553-.121,1.031-.227,1.531-.334.106.841-.091,1.236-.705,1.524-.523.25-.963.136-1.357-.394-.766-1.031-1.516-2.069-2.244-3.123-.462-.675-.387-1.198.243-1.743.273-.235.584-.424.887-.614.334-.205.697-.303.963.068.28.379.038.682-.258.925-.25.205-.508.402-.826.652Z" data-sg-fill="sg-fill-0" />
        <path class="cls-1" d="M26.311,52.781c.258.212.508.334.637.531.531.834,1.038,1.675,1.524,2.532.182.318.28.766-.136.932-.205.083-.659-.114-.811-.326-.576-.796-1.084-1.645-1.584-2.494-.106-.182-.144-.455-.091-.659.045-.182.265-.311.47-.531l-.008.015Z" data-sg-fill="sg-fill-0" />
        <path class="cls-1" d="M69.336,50.992v-1.683c0-.394-.099-.917.364-1.016.311-.068.72.182,1.038.371.364.212.667.515,1.076.841.326-.948-.659-1.842.03-2.835.19.265.356.424.424.614.28.804.576,1.615.758,2.441.068.334-.03.879-.258,1.046-.227.167-.758.083-1.076-.068-.515-.25-.963-.644-1.41-.963,0,.682.038,1.334-.008,1.978-.053.72-.538.963-1.061.531-.758-.637-1.463-1.327-2.183-2.009-.136-.129-.28-.311-.318-.493-.038-.197-.03-.546.076-.606.182-.099.538-.121.682,0,.447.379.826.841,1.243,1.273.136.136.28.265.622.591v-.015Z" data-sg-fill="sg-fill-0" />
        <path class="cls-1" d="M65.387,51.742c1.099-.023,1.486.19,1.812.985.258.614.136,1.228-.349,1.721-.546.553-1.622.637-2.153.114-.159-.159-.303-.493-.243-.667.061-.152.409-.235.644-.273.182-.03.409.121.569.068.182-.061.424-.25.44-.409.015-.159-.182-.455-.334-.493-.341-.083-.72-.038-1.076-.068-.925-.083-1.425-.697-1.319-1.592.114-.902.864-1.554,1.69-1.395.235.045.424.311.637.47-.19.144-.371.303-.576.424-.068.038-.197-.038-.288-.008-.402.114-.652.424-.561.796.038.167.447.265.705.349.144.045.326-.015.394-.023h.008Z" data-sg-fill="sg-fill-0" />
        <path class="cls-1" d="M79.532,44.299c-.5.569-.917,1.046-1.41,1.607.083.167.205.409.326.659.702-.374,1.258-.536,1.668-.485.205.5-.174.735-.493.932-.379.235-.796.417-1.22.523-.129.03-.379-.22-.493-.402-.485-.735-.993-1.463-1.38-2.251-.144-.288-.106-.826.076-1.092.326-.47.811-.841,1.266-1.205.288-.227.644-.19.857.152.205.326.106.637-.205.857-.212.152-.462.25-.667.409-.159.121-.288.288-.538.553.819.045,1.319-.675,2.229-.25l-.015-.008Z" data-sg-fill="sg-fill-0" />
        <path class="cls-1" d="M74.286,46.656c.538-.061.985-.106,1.463-.159.121.758-.5.932-.834,1.364.099.349.22.652.713.387.03-.015.061-.038.091-.038.334-.015.864-.167.97-.023.303.417-.182.69-.44.948-.819.804-1.342.75-1.963-.235-.455-.72-.879-1.471-1.236-2.244-.379-.811.47-2.077,1.349-2.062.136,0,.364.114.387.22.053.205.053.462-.03.652-.068.159-.288.258-.44.371-.356.265-.326.531-.03.804v.015Z" data-sg-fill="sg-fill-0" />
        <path class="cls-1" d="M78.652,35.263c.515-.326.993-.796,1.706-.5.25.925-.713,1.061-1.092,1.69.212.045.387.136.523.091.212-.068.387-.25.599-.334.265-.114.553-.561.819-.129.091.152-.136.584-.318.804-1.084,1.266-1.531,1.243-2.479-.099-.28-.402-.546-.819-.773-1.258-.394-.766-.28-1.175.417-1.69.265-.197.538-.402.841-.5.205-.068.462.038.697.061-.076.227-.083.5-.235.659-.197.205-.523.288-.728.485-.136.136-.152.394-.22.599.083.045.167.083.25.129l-.008-.008Z" data-sg-fill="sg-fill-0" />
        <path class="cls-1" d="M75.059,39.091c.136.364.28.69.364,1.031.03.129-.045.356-.144.424-.106.068-.402.061-.447-.008-.44-.758-1.054-1.44-1.16-2.395,1.622.045,2.198-.894,1.463-2.244-.197-.356-.311-.705.099-.932.402-.227.682.045.887.371.379.599.417,1.236.174,1.88-.114.303-.28.591-.47.985.409.106.811.167,1.183.318.356.144.894.045,1.001.72-.993.561-1.933-.364-2.941-.152h-.008Z" data-sg-fill="sg-fill-0" />
        <path class="cls-1" d="M82.7,41.585c.432.788.788,1.455,1.152,2.115.076.144.19.28.243.432.129.341.288.75-.106.978-.462.258-.705-.091-.887-.485-.387-.834-.788-1.652-1.236-2.57-.432.167-.781.356-1.152.424-.212.038-.576-.053-.652-.197-.091-.167,0-.508.136-.69.144-.197.409-.334.652-.424.917-.349,1.842-.675,2.782-.978.167-.053.387.068.576.114-.083.19-.114.455-.258.561-.364.265-.781.455-1.258.72h.008Z" data-sg-fill="sg-fill-0" />
        <path class="cls-1" d="M73.271,41.077c-.053.948-.591,1.728-1.622,2.176-.356.152-.713.265-.932-.152-.227-.424.053-.69.409-.841.804-.349,1.372-.857,1.402-1.812,0-.129.227-.258.349-.387.129.152.288.288.387.455.053.099.008.258.008.561Z" data-sg-fill="sg-fill-0" />
        <path class="cls-1" d="M68.594,44.223c.47.341.364.652.106.887-.265.25-.584.462-.91.637-.068.038-.311-.121-.364-.235-.045-.114,0-.349.091-.432.341-.318.728-.591,1.069-.864l.008.008Z" data-sg-fill="sg-fill-0" />
        <path class="cls-1" d="M25.727,24.969c-1.637.121-2.206-.584-2.38-1.759-.152-1.001.659-1.994,1.675-2.016.515-.008,1.054.068,1.539.227,1.054.349,1.569,1.251,1.41,2.289-.114.735-.894,1.228-1.978,1.258-.129,0-.265,0-.258,0h-.008ZM26.872,22.801c-.485-.243-.902-.5-1.357-.667-.591-.22-1.061.023-1.236.584-.152.485.182,1.084.697,1.251.948.303,1.524-.015,1.895-1.16v-.008Z" data-sg-fill="sg-fill-0" />
        <path class="cls-1" d="M26.569,18.435c.364.455.728.841,1.001,1.281.106.167.03.447.03.682-.205-.015-.417-.023-.622-.038-.03,0-.061-.03-.083-.053-.72-1.016-1.698-1.107-2.827-.864-.387.083-1.061.19-1.16-.402-.121-.735.644-.675,1.046-.72.834-.091,1.493-.326,1.986-1.046.19-.273.553-.462.872-.591.159-.061.485.03.591.167.091.121.053.44-.045.599-.205.334-.485.622-.796,1.001l.008-.015Z" data-sg-fill="sg-fill-0" />
        <path class="cls-1" d="M27.069,26.152c.303,0,.424-.038.493,0,.205.129.379.288.569.432-.167.174-.311.455-.508.493-.637.129-1.296.167-1.941.243-.129.015-.265,0-.394.03-.932.212-1.107.735-.478,1.448.212.243.538.455.28.826-.311.432-.713.265-1.046.038-.591-.394-.872-.978-.781-1.69.083-.667.44-1.213,1.107-1.364.955-.22,1.925-.341,2.699-.462v.008Z" data-sg-fill="sg-fill-0" />
        <path class="cls-1" d="M31.655,23.544c-.47-.19-.455-.591-.5-.985-.061-.584-.19-1.16-.227-1.743-.038-.622.22-.857.796-.841.523.015.796.356.508.75s-.159.72-.129,1.099c.061.614.106,1.251-.447,1.713v.008Z" data-sg-fill="sg-fill-0" />
        <path class="cls-1" d="M30.018,16.138c.243-.311.371-.637.546-.667.872-.144,1.759-.227,2.638-.28.159-.008.371.22.462.394.03.061-.19.371-.334.402-1.023.235-2.054.394-3.32.144l.008.008Z" data-sg-fill="sg-fill-0" />
        <path class="cls-1" d="M53.751,7.519c-.811-.75-.819-.758-1.554-.235-.349.243-.675.523-1.016.781-.606.447-1.251.523-1.956.25-1.198-.47-1.478-2.062-.478-2.88.182-.152.47-.243.713-.243.447,0,.606.394.326.758-.205.273-.455.508-.75.826.622.364,1.038.205,1.463-.083.462-.311.94-.599,1.425-.864,1.243-.667,2.638.591,2.858,1.486.136.553-.356,1.577-.872,1.728-.22.068-.576.053-.713-.083-.121-.114-.076-.485.008-.697.106-.258.334-.47.546-.743Z" data-sg-fill="sg-fill-0" />
        <path class="cls-1" d="M39.91,8.611c-.015-.258-.038-.515-.045-.781v-.553c-.28-.811-1.448-.167-1.334-1.357,1.546.083,3.07.144,4.594.265.417.03.766.318.644.811-.121.47-.523.546-.948.47-.606-.106-1.205-.22-1.834-.334-.25.629-.008,1.577-1.099,1.448,0,0,.023.03.023.03Z" data-sg-fill="sg-fill-0" />
        <path class="cls-1" d="M52.387,11.499c-.485,0-1.054.114-1.205-.546-.091-.387.455-.659,1.243-.652.099,0,.197,0,.296.008.379.023.766.083.781.561.023.546-.402.606-.811.629h-.303Z" data-sg-fill="sg-fill-0" />
        <path class="cls-1" d="M39.887,8.581c-.326.569-1.137.887-1.622.606-.144-.083-.311-.296-.311-.44,0-.152.167-.371.318-.432.599-.243,1.152-.114,1.637.303l-.023-.03v-.008Z" data-sg-fill="sg-fill-0" />
        <path class="cls-1" d="M70.769,89.386c.129.622.25,1.122.334,1.63.03.167.015.432-.083.508-.114.091-.379.099-.531.023-.485-.227-.69-.652-.796-1.167-.121-.591-.326-1.167-.515-1.834-.402.318-.629.606-.925.697-.265.083-.667.03-.864-.136-.136-.114-.159-.614-.03-.781.872-1.076,1.827-2.107,3.1-2.699.857-.402,1.584.144,2.229.675.523.432.766,1.023.5,1.683-.311.766-.804,1.372-1.743,1.364-.159,0-.318.015-.675.03v.008ZM71.959,87.461c-.864-.766-1.228-.728-1.918.197,1.076.538,1.508.493,1.918-.197Z" data-sg-fill="sg-fill-0" />
        <path class="cls-1" d="M61.074,83.64c.781.917,1.311,1.001,2.138.371.47-.356.902-.766,1.395-1.084.174-.106.508-.076.705.023.099.045.106.424.038.606-.394,1.107-2.213,2.388-3.313,2.229-.584-.083-1.205-.349-1.66-.72-.955-.773-.955-1.615-.152-2.555.379-.447.766-.902,1.16-1.334.152-.167.326-.379.523-.424.22-.053.531-.015.697.121.114.091.159.462.068.606-.326.523-.72,1.008-1.092,1.508-.167.227-.349.447-.515.659l.008-.008Z" data-sg-fill="sg-fill-0" />
        <path class="cls-1" d="M66.077,94.51c-.227.174-.44.326-.652.485.053.114.076.22.136.28.265.243.576.447.804.72.121.144.19.462.106.591-.091.144-.394.243-.584.212-.28-.045-.561-.19-.811-.341-.553-.334-.993-.243-1.357.334.424.44.864.894,1.433,1.486-.424.091-.659.227-.826.167-.553-.205-1.099-.447-1.599-.743-.394-.235-.485-.637-.167-1.016.735-.887,1.44-1.804,2.251-2.615.948-.948,1.228-.917,2.282-.121.311.235.622.478.932.728.28.227.493.569.174.826-.182.144-.591.068-.879.008-.167-.038-.303-.235-.455-.364-.25-.212-.5-.417-.781-.652l-.008.015Z" data-sg-fill="sg-fill-0" />
        <path class="cls-1" d="M59.907,89.697c-.045.197-.03.387-.121.5-.652.887-1.41,1.652-2.494,2.009-.819.273-1.425.068-1.918-.599-.591-.796-.614-1.251-.068-2.062.273-.409.546-.826.879-1.183.258-.288.576-.561.932-.705.212-.083.629.03.766.205.121.167.068.561-.045.788-.129.25-.402.424-.622.622-.265.243-.553.47-.804.728-.25.258-.606.584-.235.91.212.19.72.296.963.174.546-.273,1.023-.697,1.516-1.076.334-.265.637-.591,1.243-.318l.008.008Z" data-sg-fill="sg-fill-0" />
        <path class="cls-1" d="M53.153,89.712c-.394-.053-.682-.023-.879-.144-.462-.265-.864-.637-.917-1.213-.023-.25,0-.546.106-.766.5-1.084,1.258-1.933,2.426-2.32.811-.265,1.584-.023,1.986.667.136.235.212.569.167.834-.038.212-.273.493-.47.546-.174.053-.485-.114-.637-.273-.485-.515-.644-.576-1.213-.22-.25.159-.455.371-.682.569-.455.402-.569.849-.227,1.402.129.212.182.47.349.917h-.008Z" data-sg-fill="sg-fill-0" />
        <path class="cls-1" d="M62.021,92.335c-.561.546-1.122,1.092-1.69,1.63-.19.182-.364.409-.591.508-.197.083-.462,0-.705-.015.023-.235-.038-.546.083-.682.614-.675,1.281-1.304,1.971-1.994-.114-.243-.258-.447-.318-.682-.136-.523.341-1.016.773-.766,1.092.637,2.016,1.478,2.721,2.661-1.016.356-1.478-.652-2.244-.644v-.015Z" data-sg-fill="sg-fill-0" />
      </g>
    </g>
  </g>
</g></svg>