<?xml version="1.0" encoding="utf-8"?>
<svg xmlns="http://www.w3.org/2000/svg" width="1002" height="294" viewBox="0 0 1002 294">
  <path fill-rule="evenodd" d="M 660.500 2.651 C 654.674 3.703, 644.553 4.086, 623.251 4.057 L 594.001 4.019 591.851 8.594 C 590.533 11.397, 588.207 14.158, 585.850 15.718 C 583.185 17.481, 582 18.994, 582 20.633 C 582 23.451, 580.798 23.387, 607.446 21.986 C 617.866 21.438, 627.180 21.240, 628.145 21.546 C 630.254 22.215, 629.783 23.848, 625.773 29.765 C 624.184 32.111, 622.186 36.386, 621.333 39.265 C 620.480 42.144, 619.059 45.850, 618.175 47.500 C 617.291 49.150, 616.488 51.400, 616.390 52.500 C 616.293 53.600, 614.799 58.100, 613.071 62.500 C 608.961 72.963, 605.003 89.188, 605.001 95.576 C 605 99.578, 605.476 101.076, 607.250 102.662 C 610.242 105.335, 620.581 111, 622.467 111 C 623.291 111, 626.078 113.025, 628.661 115.500 C 633.242 119.889, 637.125 121.225, 638.559 118.905 C 638.931 118.303, 638.283 116.521, 637.118 114.945 C 635.948 113.363, 635 110.575, 635 108.715 C 635 102.962, 638.918 82.959, 642.020 72.875 C 643.648 67.581, 646.135 57.912, 647.545 51.387 C 652.177 29.967, 656.174 20.508, 661.829 17.592 C 663.298 16.835, 670.535 15.480, 677.912 14.583 C 686.346 13.556, 693.027 12.174, 695.912 10.859 L 700.500 8.768 697.500 7.429 C 695.850 6.693, 693.938 6.070, 693.250 6.045 C 692.563 6.020, 692 5.161, 692 4.136 C 692 2.676, 690.993 2.134, 687.360 1.636 C 680.173 0.651, 669.292 1.062, 660.500 2.651 M 513.098 10.584 C 500.178 14.058, 484.307 26.529, 479.780 36.765 C 477.465 41.997, 478.306 45.494, 483.522 52.325 C 488.147 58.383, 491.966 60.526, 504.306 63.991 C 519.127 68.153, 524.954 70.960, 529.291 76.027 C 533.300 80.711, 537 89.338, 537 94.003 C 537 100.329, 524.871 109, 516.022 109 C 511.075 109, 505.109 106.131, 501.876 102.197 C 500.569 100.607, 497.957 97.438, 496.072 95.153 C 494.187 92.869, 492.063 91, 491.353 91 C 490.617 91, 490.310 90.356, 490.638 89.500 C 491.320 87.725, 488.834 87.483, 485.922 89.042 C 484.324 89.897, 484.171 90.451, 485.068 92.128 C 486.424 94.661, 485.730 95.585, 484.020 93.524 C 482.315 91.470, 476 91.470, 476 93.525 C 476 96.795, 483.312 109.333, 487.635 113.474 C 493.482 119.077, 503.859 124.069, 511 124.715 C 524.839 125.966, 544.178 113.895, 550.221 100.233 C 553.126 93.666, 553.699 83.621, 551.540 77.120 C 546.651 62.401, 529.306 48.652, 510.290 44.421 C 506.277 43.528, 502.727 42.368, 502.402 41.842 C 501.165 39.840, 503.155 35.970, 506.264 34.328 C 508.068 33.376, 513.484 32.252, 518.500 31.790 C 531.441 30.597, 532.061 30.586, 536.750 31.462 C 540.523 32.167, 541 32.045, 541 30.378 C 541 28.454, 541.206 28.390, 549.851 27.596 C 555.211 27.105, 556.575 25.944, 555.079 23.148 C 552.762 18.818, 542.727 13.378, 531.500 10.365 C 525.198 8.674, 519.969 8.737, 513.098 10.584 M 420.500 28.509 C 404.941 32.617, 402.040 32.709, 391 29.446 L 382.500 26.934 379.471 30.502 C 374.536 36.314, 366.258 52.318, 363.049 62.248 C 361.405 67.337, 358.522 76.675, 356.644 83 C 354.765 89.325, 351.376 99.589, 349.112 105.809 C 345.498 115.741, 345.074 117.781, 345.636 122.559 C 346.068 126.238, 346.727 128, 347.669 128 C 348.436 128, 349.310 128.644, 349.612 129.430 C 349.913 130.217, 351.474 131.318, 353.080 131.878 C 356.478 133.062, 356.803 134.963, 354.037 137.466 C 352.212 139.118, 352.182 139.451, 353.608 142.209 C 354.542 144.016, 356.829 145.921, 359.457 147.084 C 363.329 148.797, 364.119 148.848, 367.144 147.584 C 373.416 144.964, 399.439 138.244, 409.500 136.647 C 415 135.774, 425.350 134.313, 432.500 133.401 C 446.454 131.622, 448 131.272, 448 129.893 C 448 129.402, 444.850 129, 441 129 C 436.921 129, 434 128.576, 434 127.983 C 434 127.423, 436.583 125.727, 439.740 124.214 C 442.968 122.666, 445.628 120.693, 445.818 119.705 C 446.264 117.390, 442.526 114.432, 437.278 112.949 C 433.242 111.808, 431.606 111.902, 426 113.593 C 423.781 114.262, 423.649 114.165, 424.827 112.728 C 425.557 111.837, 428.558 110.571, 431.496 109.913 C 439.203 108.189, 439.538 107.788, 436.229 104.245 L 433.357 101.171 416.928 104.061 C 407.893 105.650, 398.700 107.850, 396.500 108.948 C 394.300 110.047, 390.925 110.895, 389 110.833 C 387.075 110.771, 384.488 111.061, 383.250 111.477 C 381.252 112.149, 381 111.901, 381 109.265 C 381 102.823, 384.170 100.332, 404.500 90.800 C 420.621 83.241, 427.027 80.778, 442.250 76.283 C 443.212 75.999, 444 75.160, 444 74.419 C 444 72.477, 440.713 71, 436.394 71 C 434.266 71, 431.841 70.261, 430.760 69.283 C 428.963 67.657, 428.378 67.689, 419.681 69.889 C 414.632 71.166, 407.500 73.514, 403.832 75.106 C 395.926 78.538, 395 78.631, 395 76 C 395 74.829, 394.333 74, 393.392 74 C 392.190 74, 391.937 73.389, 392.391 71.580 C 392.725 70.249, 393.940 65.068, 395.092 60.066 C 396.615 53.450, 397.720 50.685, 399.144 49.923 C 402.384 48.189, 423.940 42.091, 432.500 40.487 C 447.555 37.665, 458.950 34.765, 460.013 33.485 C 461.659 31.501, 456.639 28.154, 450.868 27.388 C 448.166 27.030, 445.714 26.346, 445.419 25.868 C 444.275 24.018, 432.975 25.216, 420.500 28.509 M 317.250 45.662 C 316.563 45.940, 316 46.778, 316 47.524 C 316 49.730, 313.794 50.439, 312.487 48.652 C 310.839 46.398, 300.623 45.429, 293.291 46.831 C 287.038 48.027, 277.235 48.257, 269.938 47.378 C 260.946 46.295, 239 51.764, 239 55.087 C 239 56.443, 228.655 67, 227.327 67 C 225.673 67, 225.600 69.200, 227.200 70.800 C 229.096 72.696, 233.155 72.226, 242.148 69.066 C 252.429 65.454, 282.925 58.933, 292.750 58.245 C 299.865 57.746, 300 57.781, 299.987 60.118 C 299.980 61.428, 297.842 65.698, 295.237 69.607 C 292.632 73.515, 288.925 79.682, 287 83.311 C 284.831 87.399, 282.712 90.106, 281.427 90.429 C 277.698 91.365, 270.304 97.806, 267.535 102.530 C 266.044 105.075, 264.612 106.945, 264.353 106.686 C 264.094 106.427, 264.584 102.517, 265.441 97.997 C 266.298 93.477, 267 88.005, 267 85.837 C 267 81.289, 264.187 67.928, 262.951 66.608 C 262.469 66.093, 260.658 66.409, 258.657 67.358 C 256.755 68.261, 254.003 69, 252.544 69 C 250.269 69, 249.532 69.822, 247.388 74.750 C 242.158 86.774, 241.168 88.617, 237.709 92.753 C 235.753 95.092, 233.607 98.692, 232.939 100.753 C 232.271 102.814, 230.434 107.082, 228.855 110.237 C 227.276 113.392, 225.483 118.342, 224.869 121.237 C 224.256 124.132, 222.970 128.075, 222.012 130 C 221.054 131.925, 219.802 135.075, 219.229 137 C 218.655 138.925, 216.028 147.617, 213.390 156.316 C 209.727 168.394, 208.844 172.530, 209.654 173.816 C 211.432 176.639, 214.221 176.460, 216.699 173.363 C 218.894 170.620, 218.990 170.594, 218.995 172.750 C 219.005 177.263, 224.399 174.363, 225.637 169.180 C 225.989 167.706, 226.462 166.169, 226.689 165.764 C 226.915 165.359, 230.582 166.779, 234.837 168.918 C 239.093 171.058, 244.525 173.334, 246.909 173.976 C 254.121 175.918, 268 175.223, 268 172.921 C 268 172.414, 266.009 172, 263.577 172 L 259.153 172 260.607 169.085 C 261.903 166.488, 262.848 166.039, 269.281 164.963 C 282.469 162.756, 301.202 154.846, 303.099 150.682 C 303.663 149.444, 306.133 147.365, 308.587 146.063 C 311.747 144.387, 314.426 141.677, 317.774 136.770 C 324.943 126.263, 325.346 125.208, 325.815 115.716 C 326.347 104.915, 326.012 104.451, 314.461 99.985 C 309.807 98.186, 306 96.149, 306 95.458 C 306 94.767, 308.602 91.330, 311.782 87.821 C 319.160 79.680, 321.484 75.868, 324.533 66.904 C 329.573 52.086, 326.140 42.075, 317.250 45.662 M 911 60.500 C 910.299 61.344, 908.119 62, 906.012 62 C 900.971 62, 897 65.163, 897 69.178 C 897 70.912, 895.983 73.420, 894.626 75.033 C 891.357 78.918, 889.482 91.486, 891.068 98.882 C 893.081 108.267, 901.844 114.592, 911.703 113.775 C 919.063 113.164, 921.802 110.405, 922.968 102.426 C 923.445 99.167, 924.588 95.021, 925.509 93.213 C 926.724 90.828, 926.889 89.572, 926.112 88.635 C 925.380 87.753, 925.351 86.264, 926.020 83.929 C 926.559 82.050, 927 77.776, 927 74.431 C 927 67.765, 926.415 66.883, 918.518 61.642 C 913.937 58.602, 912.727 58.419, 911 60.500 M 99.750 61.082 C 98.787 61.641, 98 63.007, 98 64.115 C 98 67.773, 96.101 70, 92.984 70 C 90.622 70, 89.887 70.545, 89.276 72.750 C 87.944 77.555, 88.907 101.361, 90.545 104.096 C 91.070 104.974, 93.151 107.599, 95.168 109.930 C 100.306 115.867, 104.624 116.363, 111.500 111.809 C 114.765 109.646, 117.352 106.884, 118.956 103.848 L 121.413 99.199 119.629 91.634 C 118.166 85.427, 118.060 83.477, 119.037 80.775 C 120.014 78.073, 119.945 76.804, 118.655 73.716 C 117.789 71.645, 117.343 69.270, 117.662 68.438 C 117.981 67.606, 117.459 66.059, 116.500 65 C 113.610 61.806, 102.837 59.286, 99.750 61.082 M 48.975 67.658 C 48.136 67.879, 44.536 69.519, 40.975 71.302 C 34.777 74.404, 34.507 74.692, 34.673 78.021 C 34.768 79.935, 34.939 85.150, 35.053 89.612 C 35.236 96.782, 35.680 98.522, 38.880 104.612 C 42.006 110.560, 43.497 112.178, 49.805 116.470 C 57.510 121.712, 58.948 121.678, 58.985 116.250 C 58.994 114.923, 59.616 114, 60.500 114 C 61.325 114, 62 114.648, 62 115.441 C 62 118.081, 64.244 118.327, 66.126 115.894 C 67.697 113.864, 67.883 112.398, 67.351 106.250 C 66.806 99.946, 66.938 99, 68.362 99 C 70.784 99, 70.419 95.709, 66.906 85.889 C 64.420 78.941, 62.896 76.352, 59.156 72.726 C 54.507 68.219, 51.853 66.898, 48.975 67.658 M 956.011 71.647 C 954.091 73.009, 951.806 74.771, 950.932 75.562 C 948.709 77.574, 947.753 77.353, 948.500 75 C 948.849 73.900, 948.724 73, 948.222 73 C 946.443 73, 944.013 76.695, 941.026 83.938 C 938.453 90.177, 938 92.576, 938 99.967 C 938 108.400, 938.112 108.819, 941.775 114.062 C 943.852 117.034, 946.664 120.030, 948.025 120.718 C 952.084 122.772, 959.099 122.256, 962.255 119.672 C 965.587 116.945, 971.858 107.459, 972.617 104 C 972.919 102.625, 974.028 99.392, 975.083 96.815 C 978.011 89.659, 977.701 80.620, 974.364 75.804 C 972.881 73.664, 970.899 72, 969.833 72 C 968.790 72, 967.678 71.325, 967.362 70.500 C 966.455 68.138, 960.043 68.786, 956.011 71.647 M 717.905 92.484 C 709.420 93.914, 706.396 95.227, 703.699 98.655 C 702.688 99.940, 699.305 102.486, 696.180 104.311 C 689.946 107.954, 689.208 109.698, 693 111.826 C 695.299 113.116, 695.913 112.972, 700.639 110.034 C 706.322 106.501, 711.276 105.060, 717.867 105.024 C 721.914 105.002, 722.189 105.165, 721.622 107.250 C 721.286 108.487, 720.242 112.763, 719.302 116.750 C 718.362 120.737, 717.186 124, 716.688 124 C 716.190 124, 716.085 122.797, 716.454 121.326 C 719.446 109.404, 718.488 105.608, 714.655 114.198 C 713.354 117.114, 711.278 120.399, 710.042 121.498 C 707.061 124.149, 705.858 126.617, 701.621 138.789 C 696.562 153.324, 689.754 191.764, 690.337 202.500 C 690.457 204.703, 690.101 205.409, 689 205.156 C 688.175 204.967, 685.967 204.559, 684.092 204.250 C 680.870 203.718, 680.724 203.818, 681.403 206.094 C 681.798 207.417, 682.718 210.896, 683.447 213.824 C 684.941 219.826, 688.589 224.019, 693.899 225.837 C 699.131 227.627, 702.584 227.252, 709.832 224.106 C 713.500 222.514, 717.956 220.905, 719.736 220.529 C 721.590 220.139, 723.809 218.673, 724.930 217.099 C 726.080 215.484, 728.621 213.831, 731.093 213.090 C 735.605 211.738, 744.631 203.952, 747.995 198.508 C 749.071 196.768, 751.048 194.844, 752.388 194.233 C 753.729 193.622, 760.310 186.553, 767.014 178.523 C 775.539 168.313, 779.549 164.211, 780.352 164.877 C 782.771 166.884, 787.608 163.444, 790.933 157.353 C 795.345 149.270, 796.482 142.956, 795.260 133.315 C 794.716 129.017, 794.638 124.783, 795.087 123.906 C 796.398 121.347, 792.634 115.070, 785.619 108.118 C 779.349 101.904, 779.019 101.726, 769.360 99.370 C 763.937 98.047, 755.242 96.270, 750.038 95.421 C 744.833 94.572, 737.858 93.237, 734.538 92.454 C 727.556 90.807, 727.867 90.806, 717.905 92.484 M 740.757 106.386 C 739.863 107.280, 738.910 108.797, 738.639 109.756 C 738.369 110.715, 735.899 119.150, 733.151 128.500 C 726.531 151.024, 723.209 162.649, 720.341 173.332 C 719.036 178.189, 716.401 185.194, 714.484 188.897 C 710.128 197.316, 710.017 198.803, 713.928 196.342 C 728.709 187.045, 763.063 154.833, 767.086 146.500 C 770.375 139.688, 771.095 121.472, 768.293 116 C 764.722 109.028, 745.001 102.142, 740.757 106.386 M 862.942 105.948 C 861.534 106.375, 859.444 107.227, 858.295 107.842 C 856.106 109.014, 850.700 119.539, 849.513 124.939 C 848.694 128.668, 851.392 141.843, 854.043 147.067 C 856.492 151.892, 857.907 152.889, 863.369 153.637 C 867.139 154.154, 868.438 153.914, 870.125 152.388 C 872.881 149.895, 875.556 144.453, 876.456 139.508 C 877.356 134.555, 878.021 133.416, 879.046 135.074 C 880.424 137.305, 881.257 129.588, 880.091 125.389 C 879.497 123.250, 879.009 119.668, 879.006 117.430 C 879.001 114.212, 878.251 112.485, 875.422 109.180 C 871.678 104.806, 868.995 104.111, 862.942 105.948 M 291.783 112.460 C 288.638 113.766, 282.788 117.095, 278.783 119.857 C 269.769 126.072, 267.376 126.994, 262.097 126.286 C 258.143 125.756, 257.681 125.975, 253.460 130.381 C 249.235 134.790, 248.531 134.847, 248.948 130.750 C 249.165 128.617, 248.701 128.586, 245.021 130.489 C 243.437 131.308, 241.824 132.996, 241.436 134.239 C 240.554 137.065, 238.914 138.173, 237.432 136.943 C 236.624 136.273, 235.801 137.950, 234.579 142.751 C 233.634 146.463, 232.217 150.694, 231.431 152.154 C 229.631 155.494, 229.634 156.078, 231.450 155.381 C 232.430 155.005, 233.403 156.028, 234.453 158.541 L 236.006 162.258 242.166 161.561 C 254.466 160.169, 271.131 155.261, 281.882 149.863 C 290.127 145.724, 293.860 143.091, 300.017 137.075 C 306.499 130.743, 308.061 128.571, 309.541 123.834 C 311.013 119.126, 311.105 117.669, 310.089 115.214 C 307.751 109.570, 301.135 108.574, 291.783 112.460 M 136.103 116.379 C 134.785 117.788, 132.085 119.464, 130.103 120.101 C 123.734 122.151, 123.662 122.326, 124.414 133.954 C 124.821 140.255, 125.617 145.054, 126.406 145.972 C 127.129 146.812, 128.268 150.425, 128.938 154 C 130.502 162.342, 131.998 164.589, 136.558 165.445 C 139.449 165.987, 140.683 165.719, 142.364 164.182 C 143.539 163.108, 145.531 161.917, 146.792 161.534 C 148.395 161.048, 148.917 160.313, 148.528 159.087 C 148.192 158.031, 148.812 156.575, 150.088 155.420 C 153.156 152.644, 154.799 148.998, 155.557 143.285 C 155.993 139.994, 155.839 138.019, 155.112 137.569 C 154.468 137.171, 154 133.944, 154 129.901 C 154 122.993, 153.955 122.877, 149.750 118.847 C 144.210 113.538, 139.548 112.695, 136.103 116.379 M 5.947 123.250 C 0.820 132.249, 0.567 135.394, 4.375 142.759 C 5.269 144.487, 6 148.118, 6 150.829 C 6 155.392, 6.229 155.852, 9.084 157.035 C 10.780 157.737, 12.571 159.373, 13.064 160.668 C 13.557 161.964, 15.094 163.541, 16.480 164.173 C 17.866 164.804, 19 165.852, 19 166.500 C 19 167.912, 23.271 170, 26.161 170 C 30.518 170, 35.802 165.848, 38.941 159.959 C 42.059 154.109, 42.678 151.146, 41.136 149.450 C 39.126 147.238, 38.072 141.936, 39.166 139.536 C 40.969 135.579, 39.494 132.415, 35.009 130.620 C 32.418 129.584, 31 128.382, 31 127.224 C 31 123.749, 19.631 119.057, 15.966 121.018 C 14.268 121.927, 13.478 121.838, 12.088 120.580 C 9.474 118.214, 8.599 118.595, 5.947 123.250 M 974.887 127.203 C 969.396 131.652, 961.538 144.013, 963.735 144.745 C 964.390 144.963, 963.995 146.973, 962.690 150.061 C 960.804 154.523, 960.712 155.594, 961.773 160.652 C 963.631 169.512, 967.182 173.506, 974.215 174.647 C 977.176 175.128, 978.108 174.726, 981.071 171.693 C 990.901 161.630, 994.297 156.261, 995.408 149.026 C 995.786 146.565, 996.692 143.865, 997.421 143.026 C 998.150 142.187, 999.321 139.716, 1000.022 137.536 L 1001.296 133.572 996.532 129.380 C 993.387 126.612, 990.534 125.025, 988.134 124.708 C 986.135 124.443, 983.549 123.915, 982.387 123.533 C 980.783 123.006, 978.975 123.890, 974.887 127.203 M 71.740 127.110 C 67.552 129.251, 65.109 131.370, 62.788 134.877 C 61.033 137.529, 58.684 140.104, 57.568 140.600 C 54.624 141.905, 51.294 148.491, 50.545 154.487 C 50.166 157.522, 48.253 162.877, 45.948 167.356 C 43.776 171.576, 42 176.404, 42 178.085 C 42 179.767, 41.343 181.800, 40.539 182.604 C 38.152 184.991, 37.498 190.788, 39.381 192.869 C 41.469 195.176, 41.550 198.425, 39.500 197.638 C 37.659 196.932, 37.629 198.705, 39.367 205.500 C 40.529 210.041, 41.234 210.890, 47.041 214.750 C 54.772 219.888, 58.061 220.133, 70.597 216.500 C 80.848 213.529, 83.150 213.483, 97.447 215.959 C 107.366 217.676, 108.775 217.714, 112.447 216.361 C 114.676 215.540, 117.400 214.609, 118.500 214.293 C 121.311 213.485, 123.695 211.271, 127.972 205.500 C 134.173 197.130, 134.364 196.519, 132.385 191.338 C 130.959 187.604, 130.854 186.224, 131.807 183.702 C 132.727 181.264, 132.691 180.298, 131.633 179.061 C 130.898 178.203, 129.275 175.637, 128.026 173.359 C 126.776 171.082, 123.785 167.572, 121.377 165.559 C 118.164 162.874, 117 161.172, 117 159.163 C 117 157.201, 115.583 155.029, 112 151.500 C 108.111 147.670, 107 145.879, 107 143.441 C 107 141.212, 105.989 139.266, 103.500 136.703 C 101.575 134.721, 100 132.196, 100 131.092 C 100 129.767, 98.453 128.178, 95.448 126.417 L 90.896 123.749 88.634 125.875 C 85.824 128.514, 84.498 128.537, 81.273 126 C 78.195 123.579, 78.784 123.510, 71.740 127.110 M 914 126.499 C 912.625 127.285, 909.250 128.675, 906.500 129.589 C 899.862 131.795, 897.778 133.875, 894.514 141.556 C 891.984 147.509, 891.055 148.530, 888.592 148.066 C 887.082 147.781, 886.032 150.287, 886.015 154.215 C 886.004 156.854, 885.440 158.229, 884.066 158.965 C 881.123 160.540, 880.817 160.283, 881.172 156.536 C 881.762 150.303, 879.737 152.335, 876.878 160.845 C 874.570 167.713, 873.271 169.937, 869.537 173.415 L 865 177.640 865 185.820 C 865 192.276, 864.696 194, 863.559 194 C 860.462 194, 860.723 195.106, 866.849 207.966 C 868.081 210.553, 869.335 211.601, 871.791 212.098 C 873.601 212.464, 875.851 213.454, 876.791 214.298 C 880.357 217.497, 890.903 219.464, 904.592 219.482 C 912.722 219.493, 918.218 219.924, 919.092 220.620 C 919.867 221.235, 922.211 222.048, 924.302 222.425 C 926.393 222.802, 930.154 224.410, 932.660 225.999 C 939.037 230.043, 941.866 230.413, 951.133 228.411 C 958.809 226.752, 959.322 226.473, 960.682 223.218 C 961.473 221.326, 963.668 217.527, 965.560 214.777 C 967.452 212.026, 969 209.219, 969 208.540 C 969 204.709, 964.836 188.705, 962.616 184 C 961.188 180.975, 960.015 177.037, 960.010 175.250 C 960 172.105, 958.278 169.636, 954.604 167.500 C 953.480 166.846, 952.621 164.544, 952.123 160.851 C 951.705 157.744, 950.606 154.047, 949.681 152.636 C 947.676 149.576, 947.570 147.675, 949.250 144.933 C 950.356 143.128, 950.123 142.581, 947.237 140.196 C 945.443 138.713, 943.193 135.925, 942.237 134 C 940.715 130.933, 939.510 130.163, 932.500 127.780 C 923.609 124.756, 917.759 124.351, 914 126.499 M 648.711 132.763 C 647.861 134.889, 645.051 143.800, 642.467 152.564 C 634.251 180.430, 619.036 215.554, 609.924 227.688 C 605.365 233.760, 600.157 238, 597.258 238 C 595.520 238, 595.036 237.030, 594.103 231.668 C 592.379 221.770, 592.790 210.098, 595.459 193.130 C 599.061 170.229, 599.856 160.109, 599.256 144.788 L 598.719 131.076 596.225 133.038 C 594.853 134.117, 592.912 135, 591.912 135 C 587.429 135, 585.097 137.157, 584.460 141.892 C 583.197 151.273, 580.995 162.141, 579.970 164.057 C 579.388 165.143, 576.927 168.268, 574.499 171.001 C 572.071 173.735, 569.641 177.665, 569.099 179.736 C 564.375 197.785, 564 200.174, 564 212.235 C 564 226.109, 565.513 233.080, 569.572 237.904 C 574.039 243.212, 583.779 249.794, 589.728 251.523 C 592.869 252.436, 597.253 254.109, 599.468 255.239 C 605.270 258.199, 615.017 258.068, 621.002 254.951 C 623.991 253.393, 624.942 252.486, 623.836 252.247 C 622.475 251.952, 622.334 251.322, 623.062 248.783 C 623.552 247.076, 624.807 244.739, 625.851 243.590 C 628.975 240.152, 631.683 233.917, 628.800 236.800 C 626.406 239.194, 626.155 237.904, 628.140 233.417 C 629.255 230.896, 629.953 228.619, 629.690 228.357 C 629.428 228.095, 627.781 229.370, 626.031 231.190 C 622.860 234.488, 622.864 234.468, 627.326 225.500 C 635.132 209.812, 641.196 199.280, 640.569 202.500 L 639.985 205.500 643.313 201.790 C 645.414 199.450, 647.675 195.022, 649.442 189.790 C 650.982 185.231, 653.739 178.522, 655.568 174.881 C 660.323 165.415, 664.244 151.669, 664.233 144.499 C 664.224 138.922, 663.951 138.204, 660.362 134.347 C 658.118 131.936, 655.193 129.925, 653.379 129.548 C 650.473 128.942, 650.152 129.164, 648.711 132.763 M 480.793 148.923 C 475.567 150.624, 466.833 156.263, 462.108 160.987 C 459.484 163.611, 456.361 166.068, 455.168 166.447 C 452.595 167.263, 452.381 168.827, 454.619 170.463 C 455.872 171.380, 455.998 172.082, 455.177 173.573 C 451.012 181.139, 447.929 189.383, 447.352 194.500 C 446.979 197.802, 446.039 200.969, 445.260 201.543 C 443.855 202.579, 440 214.823, 440 218.250 C 440 219.236, 438.369 224.196, 436.375 229.272 C 433.677 236.141, 432.741 240.034, 432.711 244.500 C 432.666 251.347, 434.729 260.866, 436.681 262.821 C 437.406 263.548, 438 264.800, 438 265.603 C 438 267.646, 440.453 268.363, 442.922 267.042 C 444.305 266.302, 445 266.276, 445 266.965 C 445 268.460, 446.907 268.236, 448.600 266.542 C 449.402 265.741, 450.666 265.318, 451.409 265.603 C 452.151 265.888, 453.706 264.918, 454.863 263.447 C 456.107 261.866, 457.565 261.003, 458.433 261.336 C 459.373 261.697, 460.654 260.677, 462.004 258.494 C 463.855 255.498, 465.532 248.829, 469.983 226.750 L 471.142 221 476.488 221 C 479.612 221, 483.773 220.169, 486.500 219 C 492.268 216.528, 497.179 216.431, 499.262 218.750 C 501.836 221.614, 503.226 231.834, 501.897 238.112 C 500.803 243.280, 498.484 248.946, 497.032 250 C 496.653 250.275, 495.078 252.846, 493.532 255.713 C 489.193 263.764, 477.879 275.411, 470.258 279.672 L 463.675 283.354 458.953 281.677 C 453.829 279.857, 440 279.346, 440 280.977 C 440 283.571, 452.411 287.931, 469.934 291.492 C 479.769 293.492, 481.632 293.142, 495 286.787 C 507.301 280.940, 515.059 272.803, 521.844 258.632 C 524.644 252.784, 527.420 248, 528.013 248 C 528.606 248, 530.195 246.895, 531.545 245.545 C 533.515 243.576, 534 242.075, 534 237.947 C 534 235.117, 533.289 231.303, 532.420 229.472 C 528.870 221.992, 519.723 215.419, 509.373 212.909 C 506.693 212.260, 504.081 211.348, 503.569 210.883 C 503.021 210.386, 504.440 208.485, 507.014 206.269 C 522.888 192.598, 531.617 182.012, 533.983 173.559 C 536.628 164.113, 531.436 159.208, 512.110 152.896 C 498.968 148.603, 486.600 147.035, 480.793 148.923 M 488.640 161.456 C 484.316 163.343, 480.509 165.157, 480.180 165.487 C 479.851 165.816, 479.533 169.104, 479.475 172.793 C 479.416 176.482, 478.573 183.739, 477.601 188.921 C 476.256 196.094, 476.096 198.915, 476.930 200.746 C 477.532 202.068, 477.768 203.566, 477.454 204.075 C 476.561 205.519, 478.622 205.160, 479.872 203.655 C 480.486 202.915, 481.279 200.855, 481.635 199.076 C 482.038 197.058, 483.092 195.535, 484.442 195.022 C 485.630 194.570, 488.579 191.568, 490.996 188.350 C 493.414 185.133, 495.912 182.048, 496.549 181.497 C 499.731 178.740, 505.776 162.466, 504.680 159.608 C 503.665 156.963, 497.233 157.704, 488.640 161.456"/>
</svg>