<?xml version="1.0" encoding="utf-8"?>
<svg xmlns="http://www.w3.org/2000/svg" width="1002" height="997" viewBox="0 0 1002 997">
  <path fill-rule="evenodd" d="M 553.444 3.290 C 550.664 4.506, 545.264 7.355, 541.444 9.622 C 537.625 11.890, 533.528 14.045, 532.340 14.411 C 526.699 16.151, 527.309 17.216, 542.705 32.522 C 550.842 40.612, 556.825 46.881, 556 46.454 C 555.175 46.027, 549.100 41.984, 542.500 37.469 C 519.119 21.474, 521.300 22.676, 518.816 24.416 C 515.476 26.756, 506.138 37.750, 501.759 44.500 C 499.618 47.800, 495.217 56.033, 491.980 62.796 C 484.646 78.116, 478.407 84.827, 463.500 93.430 C 442.084 105.790, 431.131 112.525, 422 118.947 C 409.217 127.938, 392.940 136.841, 385.004 139.182 C 371.785 143.081, 370.707 143.216, 359 142.439 C 352.675 142.018, 344.615 141.635, 341.089 141.587 L 334.679 141.500 332.385 151 C 329.876 161.389, 330.166 164.777, 334.138 171.510 C 335.746 174.235, 335.900 175.091, 334.846 175.456 C 314.581 182.485, 300.344 187.768, 293.222 190.902 C 227.265 219.927, 176.502 265.099, 149.711 318.607 C 142.647 332.715, 134.113 356.979, 132.405 367.809 C 132.031 370.178, 130.933 373.096, 129.965 374.292 C 128.277 376.376, 127.649 376.446, 114.852 375.983 C 87.930 375.009, 33.623 375.594, 18.500 377.021 L 3.500 378.436 13 379.170 C 18.225 379.574, 34.425 380.623, 49 381.501 C 63.575 382.378, 80 383.523, 85.500 384.043 C 94.395 384.885, 121.713 387.042, 162 390.084 C 169.425 390.644, 180.900 392.239, 187.500 393.628 C 194.100 395.017, 203.404 396.977, 208.175 397.984 C 218.017 400.059, 231.256 401.932, 261.500 405.527 C 292.434 409.204, 331.235 415.838, 332.692 417.700 C 333.633 418.903, 333.463 420.287, 331.881 424.302 C 329.434 430.509, 330.033 433.440, 334.277 436.027 C 338.742 438.750, 343.859 438.555, 347.994 435.504 C 352.989 431.819, 353.191 431.002, 350.318 426.100 C 347.935 422.032, 347.860 421.575, 349.397 420.451 C 351.615 418.830, 358.784 420.389, 361.500 423.083 C 363.500 425.067, 363.499 425.068, 360.904 429.783 C 359.476 432.378, 353.926 441.700, 348.571 450.500 C 332.672 476.627, 325.334 493.436, 321.565 512.357 C 318.481 527.842, 320.404 549.421, 325.745 559.261 C 328.615 564.548, 339.133 575.100, 339.735 573.295 C 339.946 572.663, 338.760 569.525, 337.101 566.323 C 332.479 557.405, 330.887 549.963, 330.293 534.500 C 329.215 506.456, 334.455 490.466, 357.003 453 C 370.890 429.926, 370.470 431.227, 368.956 415.935 C 368.178 408.080, 367.911 397.253, 368.263 387.829 L 368.836 372.500 366.891 377.500 C 364.635 383.299, 361.271 397.693, 360.815 403.500 C 360.538 407.016, 360.198 407.500, 358 407.500 C 355.628 407.500, 355.485 407.175, 355.200 401.177 C 355.027 397.519, 355.554 392.606, 356.450 389.523 C 358.743 381.636, 358.516 379.168, 355.426 378.392 C 351.519 377.412, 348.353 379.413, 344.612 385.228 C 342.746 388.127, 340.045 391.591, 338.610 392.924 C 337.174 394.258, 336 396.084, 336 396.983 C 336 397.882, 335.384 399.460, 334.632 400.489 C 332.776 403.027, 325.824 402.779, 308.765 399.567 C 271.851 392.617, 210.298 384.073, 186 382.526 C 168.742 381.427, 144.529 378.818, 142.750 377.866 C 141.788 377.351, 141 376.081, 141 375.044 C 141 366.203, 155.530 323.540, 159.290 321.342 C 160.081 320.879, 161.465 319.061, 162.363 317.302 C 164.328 313.458, 167.952 310.633, 178.277 304.899 C 182.997 302.278, 188.390 298.161, 191.998 294.423 C 199.292 286.870, 202.930 285.104, 207.374 286.962 C 216.192 290.650, 221.052 288.778, 225.515 279.971 C 229.477 272.151, 233.981 270.416, 243.169 273.169 C 246.623 274.204, 247.382 274.103, 249.785 272.294 C 252.084 270.563, 252.500 269.506, 252.500 265.404 C 252.500 261.072, 252.779 260.459, 255.133 259.627 C 257.219 258.890, 258.392 259.143, 260.787 260.848 C 262.449 262.032, 264.786 263, 265.981 263 C 268.088 263, 271.843 259.677, 275.079 254.950 C 276.251 253.238, 278.056 252.452, 282.079 251.900 C 285.061 251.492, 288.380 251.010, 289.457 250.829 C 291.174 250.540, 291.379 251.012, 291.135 254.680 C 290.901 258.208, 291.251 259.118, 293.380 260.513 C 294.767 261.422, 296.753 261.896, 297.793 261.566 C 300.768 260.622, 304.163 256.441, 304.900 252.815 C 305.395 250.379, 306.180 249.413, 307.860 249.171 C 311.534 248.642, 313.242 249.679, 312.128 251.761 C 309.762 256.182, 316.764 258.955, 321.651 255.532 C 323.543 254.207, 323.927 254.262, 325.587 256.096 C 326.599 257.214, 330.368 260.237, 333.963 262.814 C 341.216 268.013, 342.299 268.172, 359.500 266.562 C 366.844 265.874, 367.974 266.025, 373.279 268.406 C 376.457 269.833, 379.869 271, 380.862 271 C 383.697 271, 383.944 271.867, 382.490 276.699 C 379.083 288.019, 388.662 290.650, 397.534 280.831 C 402.218 275.646, 408.013 274.739, 416.401 277.877 C 423.614 280.576, 424.737 280.542, 429.217 277.498 C 432.399 275.336, 433.249 275.156, 435.479 276.172 C 437.457 277.073, 440.212 277.072, 447.279 276.167 C 458.169 274.773, 468.545 274.532, 475.551 275.510 C 479.902 276.118, 481.613 275.786, 487.906 273.108 C 496.117 269.614, 501.199 269.229, 509.856 271.445 C 513.740 272.440, 520.489 272.857, 531.500 272.781 C 546.587 272.678, 547.909 272.510, 554.667 269.836 C 563.933 266.169, 569.594 266.136, 576.650 269.709 L 582 272.418 582 277.509 C 582 283.413, 583.179 285, 587.564 285 C 593.107 285, 596.058 280.778, 597.323 271.036 C 597.608 268.843, 604.508 267.534, 608.860 268.848 C 610.862 269.452, 614.656 271.732, 617.290 273.916 C 622.644 278.353, 629.227 281.093, 639.224 283.044 C 645.521 284.273, 645.911 284.505, 645.364 286.686 C 644.473 290.237, 647.408 294, 651.069 294 C 654.087 294, 659 290.270, 659 287.978 C 659 286.467, 661.656 287.335, 673 292.549 C 683.483 297.368, 692.398 300, 698.241 300 C 700.979 300, 702.238 300.496, 702.680 301.750 C 703.950 305.347, 707.305 308, 710.585 308 C 715.184 308, 719.402 302.957, 718.560 298.468 C 717.815 294.496, 719.789 292.600, 724.670 292.600 C 727.528 292.600, 728.907 293.422, 732.357 297.179 C 737.110 302.356, 738.290 302.711, 759.975 305.487 C 777.635 307.748, 780.009 308.511, 786.530 314.025 C 789.675 316.684, 793.488 319.374, 795.003 320.001 C 797.466 321.022, 797.681 321.483, 797.030 324.365 C 796.040 328.758, 797.373 331.805, 800.647 332.626 C 804.348 333.555, 809.906 330.425, 811.928 326.273 C 812.793 324.498, 814.059 323.035, 814.741 323.023 C 817.138 322.979, 830.572 329.459, 837.405 333.956 C 842.987 337.629, 845.162 338.500, 848.750 338.500 C 854.683 338.500, 857.399 335.125, 859.617 325 C 862.373 312.422, 863.857 311.422, 870.075 317.959 C 872.894 320.921, 874.134 323.330, 875.007 327.535 C 877.346 338.798, 877.809 344.645, 876.755 349.588 C 876.178 352.290, 875.644 362.375, 875.567 372 L 875.427 389.500 870.591 402 C 861.162 426.369, 855.618 436.219, 845.908 445.850 C 839.088 452.615, 833.235 456.050, 825 458.122 C 820.762 459.188, 818.389 460.312, 818.182 461.350 C 817.903 462.748, 819.421 462.915, 830.682 462.721 C 844.599 462.481, 850.209 463.653, 852.105 467.197 C 853.605 470, 851.926 471.387, 844.500 473.480 C 838.120 475.278, 825.551 480.885, 826.276 481.609 C 826.514 481.847, 833.175 480.907, 841.079 479.521 C 857.087 476.713, 861.115 476.497, 867.496 478.103 C 872.427 479.345, 875.345 481.937, 874.447 484.278 C 873.560 486.588, 871.602 487.098, 859.881 488.069 C 854.041 488.554, 847.966 489.511, 846.381 490.198 C 843.740 491.342, 844.290 491.494, 853 492.019 C 863.166 492.631, 866 493.409, 866 495.584 C 866 497.668, 862.279 499.600, 853.921 501.855 C 843.329 504.713, 835 507.949, 835 509.208 C 835 509.895, 836.608 510.051, 839.539 509.650 C 842.036 509.307, 849.590 508.733, 856.326 508.373 C 867.433 507.779, 869.016 507.914, 873.321 509.818 C 884.644 514.826, 882.319 528.005, 867.555 542.500 C 854.094 555.715, 830.693 570.827, 818 574.501 C 814.446 575.530, 815.892 574.336, 828 566.249 C 833.775 562.391, 840.354 557.720, 842.621 555.868 C 847.847 551.597, 859.269 538.245, 858.610 537.178 C 858.336 536.735, 854.149 536.945, 849.306 537.645 C 834.956 539.720, 812.683 540.381, 799.500 539.124 C 788.675 538.091, 786.374 538.179, 776 540.025 C 765.218 541.943, 735.787 544.976, 728 544.971 C 723.144 544.969, 725.437 543.650, 735.891 540.432 C 759.204 533.257, 778.436 530.956, 814 531.084 C 840.919 531.182, 861.523 529.507, 867.783 526.713 C 870.136 525.663, 868.958 525.468, 859 525.260 C 852.675 525.128, 836.209 524.608, 822.408 524.105 C 774.158 522.346, 744.077 526.748, 720.178 539.065 C 708.752 544.954, 699.718 548.016, 682 552.006 C 660.528 556.841, 637.737 569.206, 634.997 577.508 C 634.339 579.502, 634.023 581.356, 634.294 581.628 C 634.566 581.899, 640.123 579.452, 646.644 576.188 C 668.691 565.155, 681.785 561.748, 702 561.785 C 722.602 561.823, 742.534 565.089, 761.953 571.609 C 780.619 577.877, 789.188 580.038, 807 582.967 C 813.875 584.097, 820.493 585.246, 821.707 585.520 C 823.247 585.866, 824.848 585.104, 827.001 582.999 C 830.378 579.698, 838.210 573.815, 856.269 561.015 C 881.686 543, 892.954 525.943, 892.988 505.432 C 893.002 497.367, 891.071 489.942, 886.896 482 C 883.355 475.266, 883.318 472.862, 886.544 459.242 C 895.027 423.429, 897 409.762, 897 386.822 C 897 355.887, 891.535 331.443, 875.802 292 C 858.517 248.666, 845.856 229.147, 823.158 210.836 C 809.270 199.633, 799.059 193.584, 771.023 179.947 C 748.898 169.186, 740.170 160.284, 714.071 121.856 C 698.991 99.652, 692.129 91.120, 677.510 76.399 C 662.647 61.433, 649.163 50.056, 623.500 30.829 C 601.355 14.238, 598.299 12.160, 589.500 7.714 C 575.379 0.578, 563.097 -0.929, 553.444 3.290 M 571.500 22.464 C 577.431 27.653, 588.691 35.849, 599 42.481 C 619.096 55.410, 622.753 58.057, 636.585 69.695 C 652.128 82.772, 663.880 94.339, 673.153 105.687 C 681.293 115.649, 694.423 135.381, 699.818 145.760 C 703.554 152.947, 703.894 154.103, 702.438 154.662 C 701.517 155.016, 693.280 154.780, 684.132 154.139 C 664.120 152.736, 650.222 152.638, 651.550 153.910 C 652.997 155.294, 676.561 159.726, 694.500 161.987 C 703.300 163.096, 714.691 164.724, 719.813 165.605 C 724.935 166.487, 729.343 166.990, 729.608 166.725 C 729.874 166.459, 727.588 164.829, 724.528 163.103 C 716.164 158.383, 711.466 153.603, 706.873 145.144 C 684.821 104.528, 675.553 93.253, 640.741 64.695 C 625.520 52.209, 618.973 47.859, 593.168 33.086 C 570.561 20.145, 566.666 18.235, 571.500 22.464 M 577.607 61.791 C 579.865 63.831, 586.573 68.391, 592.514 71.924 C 606.527 80.259, 612.524 85.211, 629.500 102.469 C 642.877 116.067, 659.757 131.555, 666.209 136.149 C 674.763 142.240, 661.548 127.468, 632.256 98.197 C 611.211 77.167, 604.266 71.535, 592 65.556 C 585.759 62.513, 574.946 57.979, 574.078 58.041 C 573.760 58.064, 575.348 59.751, 577.607 61.791 M 495.040 109.452 C 493.126 111.758, 494.203 114.464, 497.173 114.808 C 499.150 115.038, 499.999 114.578, 500.497 113.010 C 501.723 109.146, 497.551 106.426, 495.040 109.452 M 592.517 119.981 C 591.050 121.603, 590.953 122.238, 591.984 123.481 C 594.367 126.353, 599 124.653, 599 120.907 C 599 119.388, 597.125 118, 595.073 118 C 594.653 118, 593.503 118.892, 592.517 119.981 M 510.571 125.571 C 508.706 127.436, 508.517 131.117, 510.200 132.800 C 510.860 133.460, 512.570 134, 514 134 C 515.430 134, 517.140 133.460, 517.800 132.800 C 520.628 129.972, 518.049 124, 514 124 C 512.979 124, 511.436 124.707, 510.571 125.571 M 460.750 129.572 C 457.709 131.222, 457.417 132.017, 459.200 133.800 C 461.649 136.249, 469 134.968, 469 132.093 C 469 128.150, 465.400 127.049, 460.750 129.572 M 480.750 129.547 C 477.553 131.310, 476.908 135.620, 479.750 136.227 C 482.467 136.808, 488.110 135.319, 489.874 133.555 C 493.703 129.725, 486.313 126.479, 480.750 129.547 M 607.098 138.265 C 601.788 140.996, 602.356 145.566, 608.507 149.596 C 615.191 153.976, 624.036 143.963, 618.171 138.655 C 616.021 136.709, 610.502 136.514, 607.098 138.265 M 652 139 C 649.592 141.408, 649.553 141.917, 651.557 144.777 C 653.094 146.972, 656.446 147.664, 658.615 146.235 C 660.951 144.696, 661.165 141.165, 659.051 139.051 C 656.470 136.470, 654.544 136.456, 652 139 M 579.128 141.564 C 575.818 145.773, 578.900 148.995, 584.817 147.510 C 588.518 146.581, 590 145.144, 590 142.485 C 590 138.189, 582.296 137.537, 579.128 141.564 M 477 151.693 C 458.877 152.550, 418.735 157.647, 411.500 160.009 C 409.092 160.795, 409.685 160.889, 414.500 160.484 C 417.800 160.207, 430.625 159.111, 443 158.048 C 455.375 156.985, 477.538 155.317, 492.250 154.339 C 506.962 153.362, 519 152.211, 519 151.781 C 519 151.054, 491.721 150.997, 477 151.693 M 431.021 176.116 C 425.607 178.276, 423.143 183.259, 426.250 185.762 C 428.299 187.413, 433.772 188.214, 438.056 187.490 C 445.336 186.261, 450.366 179.766, 446.800 176.200 C 445.362 174.762, 434.559 174.704, 431.021 176.116 M 487.499 179.595 C 485.083 182.202, 483.189 189.879, 484.456 191.929 C 485.730 193.991, 488.757 192.966, 493.359 188.915 C 498.576 184.323, 499.340 181.052, 495.777 178.557 C 492.599 176.331, 490.252 176.625, 487.499 179.595 M 562.923 180.923 C 559.485 184.361, 559.366 185.117, 561.902 187.411 C 563.180 188.568, 565.060 189.029, 567.634 188.816 C 570.723 188.561, 571.640 187.996, 572.375 185.890 C 572.877 184.455, 572.989 182.093, 572.625 180.640 C 571.672 176.846, 566.860 176.986, 562.923 180.923 M 641.766 182.943 C 637.358 186.915, 638.677 189.368, 645.458 189.809 C 652.752 190.283, 656.575 185.640, 652.171 181.655 C 649.396 179.143, 645.439 179.633, 641.766 182.943 M 450.200 190.200 C 447.395 193.005, 449.508 198, 453.500 198 C 457.849 198, 459.443 193.616, 456.171 190.655 C 454.012 188.701, 451.863 188.537, 450.200 190.200 M 362.990 193.250 C 358.520 196.292, 355.571 200.439, 356.379 202.544 C 357.432 205.288, 366.891 204.084, 371.420 200.629 C 374.951 197.935, 376.795 194.095, 375.535 192.057 C 374.333 190.112, 366.506 190.857, 362.990 193.250 M 699 198.945 C 695.006 200.149, 688.087 203.913, 685.959 206.041 C 683.342 208.658, 683.463 212.511, 686.223 214.443 C 689.267 216.575, 698.373 216.483, 702.099 214.283 C 705.462 212.296, 709.022 205.800, 708.287 202.991 C 707.359 199.441, 703.268 197.660, 699 198.945 M 737.911 200.281 C 730.564 205.232, 732.397 212.455, 741 212.455 C 748.443 212.455, 752.415 204.184, 747.056 199.844 C 744.062 197.420, 742.011 197.518, 737.911 200.281 M 767.009 200.290 C 762.576 202.532, 763.611 208, 768.467 208 C 772.823 208, 776.107 201.023, 772.418 199.607 C 770.278 198.786, 769.883 198.836, 767.009 200.290 M 316.272 204.907 C 309.586 206.687, 307.811 213.243, 313.859 213.822 C 319.634 214.374, 324.758 207.455, 320.250 205.192 C 319.288 204.709, 317.498 204.581, 316.272 204.907 M 781.590 207.627 C 780.225 211.184, 785.478 213.539, 788 210.500 C 788.993 209.303, 788.993 208.697, 788 207.500 C 786.346 205.507, 782.373 205.585, 781.590 207.627 M 381.624 214.026 C 374.774 220.040, 375.200 225.935, 382.388 224.587 C 389.016 223.344, 394.176 217.066, 391.965 212.935 C 390.376 209.966, 385.684 210.461, 381.624 214.026 M 625.793 215.351 C 617.504 218.560, 614 221.429, 614 225.004 C 614 233.689, 633.814 232.476, 637.538 223.564 C 639.475 218.927, 639.382 216.655, 637.171 214.655 C 634.814 212.522, 632.776 212.647, 625.793 215.351 M 462.255 218.250 C 459.635 221.558, 458.937 224.013, 460.032 226.060 C 461.545 228.886, 465.744 228.250, 468.304 224.807 C 470.200 222.256, 470.217 221.980, 468.629 219.557 C 466.836 216.819, 463.870 216.211, 462.255 218.250 M 276.367 221.918 C 270.200 225.678, 268.033 231.877, 272.120 234.064 C 276.919 236.632, 289 230.159, 289 225.020 C 289 220.309, 281.875 218.559, 276.367 221.918 M 676.245 222.250 C 674.337 224.634, 673.992 227.606, 675.398 229.530 C 676.567 231.128, 677.286 231.286, 679.635 230.459 C 683.093 229.243, 684.978 224.883, 683.050 222.560 C 681.496 220.687, 677.636 220.512, 676.245 222.250 M 346 227.820 C 340.260 230.421, 330 242.162, 330 246.129 C 330 250.711, 336.335 252.391, 342.300 249.390 C 346.403 247.325, 352.739 241.311, 354.652 237.666 C 356.571 234.008, 356.699 229.056, 354.905 227.920 C 353.276 226.889, 348.182 226.832, 346 227.820 M 524.245 228.493 C 517.878 231.260, 513.794 237.940, 517.582 239.393 C 521.458 240.880, 525.075 239.927, 528.997 236.384 C 536.267 229.816, 533.141 224.626, 524.245 228.493 M 718.250 233.989 C 715.740 235.519, 715 236.657, 715 238.985 C 715 245.741, 723.065 248.341, 728.870 243.456 C 733.116 239.883, 733.688 237.361, 730.920 234.415 C 728.077 231.389, 722.806 231.211, 718.250 233.989 M 439.576 234.916 C 437.550 237.154, 438.021 241.410, 440.395 242.321 C 442.967 243.308, 446.011 241.804, 446.658 239.226 C 447.933 234.145, 442.994 231.139, 439.576 234.916 M 553.500 237.159 C 549.575 239.314, 543.008 246.447, 541.923 249.733 C 540.500 254.045, 542.747 258, 546.619 258 C 554.861 258, 565.321 240.383, 559.066 237.035 C 556.680 235.759, 556.024 235.773, 553.500 237.159 M 793.974 239.872 C 789.029 244.817, 788.771 252.027, 793.462 254.165 C 799.897 257.096, 810.708 243.108, 805.800 238.200 C 805.140 237.540, 802.855 237, 800.723 237 C 797.787 237, 796.149 237.697, 793.974 239.872 M 376.698 241.781 C 374.171 244.573, 374.485 248.654, 377.280 249.355 C 382.632 250.699, 386.910 246.272, 384.296 242.095 C 382.833 239.757, 378.685 239.585, 376.698 241.781 M 227.635 247.073 C 224.522 249.521, 224.273 252.032, 226.906 254.415 C 231.628 258.688, 240.745 253.126, 238.195 247.529 C 236.719 244.289, 231.462 244.062, 227.635 247.073 M 576.021 246.116 C 566.788 249.800, 568.666 258.500, 578.693 258.500 C 583.571 258.500, 586.412 256.189, 587.663 251.205 C 588.869 246.403, 582.394 243.573, 576.021 246.116 M 653.028 250.471 C 651.102 252.520, 650.923 253.202, 651.976 254.471 C 654.750 257.813, 664 255.182, 664 251.050 C 664 247.232, 656.445 246.833, 653.028 250.471 M 447.817 253.750 C 443.873 257.990, 441.721 261.832, 442.359 263.494 C 442.678 264.324, 444.462 265.729, 446.324 266.617 C 449.444 268.105, 449.979 268.104, 453.149 266.600 C 458.811 263.913, 462.109 255.509, 458.800 252.200 C 456.527 249.927, 450.594 250.764, 447.817 253.750 M 643.723 262.637 C 639.526 264.836, 636.115 272.826, 639.250 273.115 C 644.501 273.599, 649 269.877, 649 265.051 C 649 261.567, 647.273 260.777, 643.723 262.637 M 210.941 268.059 C 209.529 269.471, 208.979 271.121, 209.191 273.309 C 209.443 275.915, 209.983 276.556, 212.134 276.805 C 216.653 277.329, 220.837 270.237, 217.800 267.200 C 216.004 265.404, 213.252 265.748, 210.941 268.059 M 663.714 267.619 C 662.002 269.332, 663.075 273.077, 665.610 274.232 C 667.860 275.257, 668.416 275.152, 669.647 273.468 C 671.944 270.327, 670.975 267.547, 667.464 267.203 C 665.794 267.039, 664.107 267.227, 663.714 267.619 M 753.500 272.959 C 752.400 273.417, 750.158 275.210, 748.518 276.943 C 746.029 279.573, 745.781 280.250, 747.018 281.032 C 750.783 283.413, 760.297 280.790, 761.486 277.043 C 762.783 272.958, 758.618 270.829, 753.500 272.959 M 554.259 284.487 C 552.299 285.339, 550.359 287.277, 549.353 289.386 C 547.828 292.584, 547.822 293.079, 549.277 295.299 C 550.694 297.463, 554.596 299, 558.670 299 C 559.452 299, 561.195 297.895, 562.545 296.545 C 565.866 293.225, 565.990 286.807, 562.777 284.557 C 560.078 282.666, 558.478 282.653, 554.259 284.487 M 467.228 286.207 C 464.696 287.453, 463.486 290.806, 464.461 293.877 C 466.553 300.468, 481.625 295.271, 480.815 288.237 C 480.518 285.654, 480.191 285.488, 475 285.295 C 471.975 285.182, 468.478 285.592, 467.228 286.207 M 794.635 288.073 C 791.550 290.499, 791.270 293.029, 793.829 295.345 C 798.023 299.140, 805 296.243, 805 290.706 C 805 285.992, 799.165 284.509, 794.635 288.073 M 280.750 291.572 C 278.075 293.023, 277.489 294.423, 277.866 298.456 C 278.262 302.677, 284.752 303.339, 288.545 299.545 C 294.601 293.490, 288.575 287.327, 280.750 291.572 M 373.346 292.700 C 366.459 296.132, 366.460 302.602, 373.347 302.389 C 379.756 302.191, 385.004 296.866, 382.847 292.750 C 381.714 290.588, 377.627 290.566, 373.346 292.700 M 490.571 295.571 C 488.465 297.678, 488.592 299.592, 491 302 C 493.408 304.408, 493.917 304.447, 496.777 302.443 C 499.195 300.750, 499.709 297.109, 497.800 295.200 C 496.117 293.517, 492.436 293.706, 490.571 295.571 M 389.223 302.557 C 385.345 305.272, 386.961 310, 391.766 310 C 395.380 310, 398 308.178, 398 305.665 C 398 301.150, 393.503 299.558, 389.223 302.557 M 461.200 302.200 C 460.540 302.860, 460 304.120, 460 305 C 460 309.429, 466.335 310.401, 469.972 306.529 C 471.898 304.480, 472.077 303.798, 471.024 302.529 C 469.511 300.706, 462.916 300.484, 461.200 302.200 M 320.357 306.992 C 318.002 307.942, 315 311.714, 315 313.723 C 315 315.689, 318.764 319, 321 319 C 326.163 319, 329.435 309.373, 325.066 307.035 C 322.858 305.854, 323.169 305.857, 320.357 306.992 M 837.200 307.200 C 835.542 308.858, 835.696 312.503, 837.487 313.989 C 841.264 317.124, 847.124 311.264, 843.989 307.487 C 842.503 305.696, 838.858 305.542, 837.200 307.200 M 190.200 313.200 C 188.379 315.021, 188.763 317.803, 191 319 C 194.679 320.969, 199.433 316.431, 196.895 313.373 C 195.490 311.680, 191.815 311.585, 190.200 313.200 M 670 313.709 C 666.860 314.864, 665 317.402, 665 320.533 C 665 327.127, 670.375 327.558, 676.481 321.452 C 680.234 317.699, 681 314.598, 678.418 313.607 C 676.534 312.884, 672.098 312.938, 670 313.709 M 617.395 322.029 C 611.128 323.952, 606.125 332.036, 609.034 335.541 C 610.474 337.276, 616.849 337.447, 622.421 335.900 C 629.793 333.853, 634.507 326.325, 630.499 323 C 628.528 321.363, 621.309 320.829, 617.395 322.029 M 428.200 323.200 C 426.374 325.026, 426.765 328.477, 429.030 330.527 C 430.634 331.979, 431.628 332.165, 433.762 331.415 C 437.097 330.242, 438.940 325.837, 437.050 323.560 C 435.519 321.716, 429.912 321.488, 428.200 323.200 M 538.563 323.583 C 536.398 324.376, 527.901 326.163, 519.682 327.554 C 511.462 328.945, 503.334 330.677, 501.618 331.402 C 499.903 332.127, 494.809 335.518, 490.297 338.936 C 481.519 345.587, 476.572 351.916, 472.970 361.106 C 471.807 364.073, 469.062 370.033, 466.869 374.351 C 464.676 378.669, 462.021 385.644, 460.970 389.851 C 459.919 394.058, 457.661 401.550, 455.953 406.500 C 451.767 418.630, 450.996 429.453, 453.798 436.760 C 460.062 453.094, 485.436 478, 495.814 478 C 497.877 478, 496.910 476.707, 489.276 469.250 C 479.057 459.269, 475.345 452.737, 472.028 438.901 C 469.639 428.935, 469.511 423.295, 471.427 412.410 C 474.383 395.611, 483.181 368.788, 489.607 356.981 C 495.251 346.611, 507.049 338.288, 522.607 333.699 C 525.416 332.871, 531.041 330.652, 535.107 328.768 C 545.928 323.755, 548.459 319.958, 538.563 323.583 M 281.115 327.632 C 278.195 329.677, 278.432 332.784, 281.617 334.235 C 283.925 335.287, 284.456 335.155, 286.103 333.121 C 289.323 329.145, 285.290 324.707, 281.115 327.632 M 712.174 333.314 C 707.772 338, 710.580 343.896, 716.506 342.409 C 719.370 341.690, 721 339.280, 721 335.766 C 721 330.779, 715.890 329.360, 712.174 333.314 M 565.517 334.392 C 562.501 337.408, 562.278 341.037, 564.960 343.464 C 567.285 345.568, 571.050 344.950, 574.025 341.975 C 576.460 339.540, 576.517 337.819, 574.250 335.198 C 571.325 331.815, 568.367 331.542, 565.517 334.392 M 320.455 338.455 C 317.460 341.449, 317.387 342.951, 320.073 346.365 C 322.808 349.843, 326.885 349.842, 330.364 346.364 C 333.387 343.341, 333.648 341.370, 331.443 338.223 C 329.243 335.081, 323.711 335.198, 320.455 338.455 M 668.250 338.584 C 665.767 340.540, 665 341.917, 665 344.417 C 665 351.111, 671.230 353.061, 675.984 347.856 C 679.762 343.720, 680.587 340.306, 678.394 337.882 C 676.035 335.276, 672.102 335.548, 668.250 338.584 M 465.039 341.189 C 463.918 342.392, 463 343.877, 463 344.489 C 463 346.393, 465.288 348, 468 348 C 471.144 348, 473 346.330, 473 343.500 C 473 338.889, 468.420 337.560, 465.039 341.189 M 221 341.714 C 215.289 343.754, 212.179 351.037, 215.571 354.429 C 221.146 360.003, 232.618 349.984, 227.750 343.792 C 226.284 341.927, 223.126 340.954, 221 341.714 M 772.315 343.075 C 769.117 344.264, 767.701 347.659, 768.276 352.761 C 769.514 363.739, 779.058 366.518, 782.983 357.042 C 784.091 354.367, 784.022 353.376, 782.497 349.994 C 779.768 343.942, 776.308 341.591, 772.315 343.075 M 445.323 351.601 C 444.791 352.988, 446.368 354.938, 448.059 354.985 C 449.575 355.026, 452.217 352.161, 451.594 351.152 C 450.534 349.437, 446.030 349.760, 445.323 351.601 M 510.750 354.080 C 508.447 355.421, 508.493 360.231, 510.829 362.345 C 513.262 364.547, 516.784 364.429, 520.750 362.011 C 523.217 360.507, 524 359.329, 524 357.122 C 524 355.393, 523.359 353.968, 522.418 353.607 C 519.945 352.658, 512.686 352.952, 510.750 354.080 M 452.500 357.647 C 442.718 360.996, 442.489 371, 452.194 371 C 459.053 371, 463.110 364.812, 460.028 359.052 C 458.614 356.410, 456.994 356.108, 452.500 357.647 M 584.746 358.086 C 575.067 360.367, 566.053 367.162, 563.969 373.749 C 563.179 376.245, 559.659 380.679, 553.450 387 C 548.318 392.225, 543.832 397.685, 543.480 399.134 C 543.052 400.900, 543.568 403.193, 545.046 406.090 C 546.977 409.876, 547.152 411.224, 546.451 416.956 C 544.922 429.462, 545.337 431.536, 551.956 444.501 C 555.325 451.101, 558.695 457.116, 559.445 457.868 C 562.260 460.693, 562.681 458.021, 560.876 448.786 C 558.099 434.583, 558.411 425.246, 562.076 412.880 C 566.970 396.370, 570.133 390.636, 579.392 381.496 C 591.315 369.725, 600.351 365.558, 619.606 362.951 C 623.948 362.363, 629.974 361.121, 632.998 360.191 L 638.496 358.500 632.998 357.849 C 624.867 356.886, 589.091 357.062, 584.746 358.086 M 266.892 359.250 C 264.062 361.624, 263.002 363.717, 262.028 368.851 C 260.939 374.593, 261.923 378.649, 264.658 379.699 C 268.612 381.216, 276.099 367.022, 274.108 361.784 C 272.738 358.182, 269.515 357.050, 266.892 359.250 M 834.631 362.250 C 833.853 363.488, 832.641 366.149, 831.938 368.166 C 830.832 371.337, 830.886 372.177, 832.342 374.400 C 836.865 381.302, 846 376.614, 846 367.389 C 846 364.178, 841.798 360, 838.569 360 C 837.039 360, 835.489 360.885, 834.631 362.250 M 536 372 C 533.150 374.850, 533.165 382.600, 536.022 383.507 C 540.941 385.068, 547 381.329, 547 376.732 C 547 374.276, 542.583 370, 540.045 370 C 538.920 370, 537.100 370.900, 536 372 M 729.535 378.104 C 724.343 382.662, 724.931 389, 730.545 389 C 734.787 389, 739.141 381, 737.038 377.071 C 735.511 374.218, 733.671 374.472, 729.535 378.104 M 491.522 378.250 C 489.970 379.598, 488.695 381.994, 488.339 384.230 C 487.815 387.517, 488.128 388.317, 490.978 390.980 C 495.522 395.225, 500.811 395.202, 504.411 390.923 C 507.930 386.741, 507.907 381.745, 504.354 378.452 C 500.860 375.214, 495.120 375.124, 491.522 378.250 M 640.500 377.658 C 614.928 379.601, 614.009 379.959, 595.013 395.387 C 586.336 402.433, 583.677 407.442, 581.939 420.018 C 579.310 439.038, 586.231 450.693, 605.419 459.558 C 613.714 463.391, 622.745 465.387, 627.349 464.405 C 631.260 463.571, 630.047 462.848, 618.500 459.131 C 602.707 454.046, 594.575 446.649, 593.343 436.246 C 592.346 427.826, 593.489 424.619, 599.952 417.710 C 608.076 409.026, 613.303 406.549, 623.500 406.550 C 630.909 406.552, 632.055 406.847, 639 410.541 C 649.704 416.234, 663.649 426.854, 665.521 430.739 C 667.307 434.442, 666.469 439.150, 663.027 444.750 C 659.714 450.139, 663.522 448.893, 669.628 442.588 C 677.539 434.421, 679.938 423.888, 676.513 412.355 C 674.886 406.876, 663.514 388.996, 657.369 382.255 C 653.166 377.644, 650.445 376.903, 640.500 377.658 M 621.332 386.851 C 615.571 388.842, 610.845 392.066, 603.668 398.899 C 599.216 403.137, 593.244 412.578, 594.329 413.662 C 594.584 413.917, 597.039 412.130, 599.786 409.690 C 607.933 402.454, 614.584 399.732, 624.295 399.660 C 633.387 399.592, 639.180 401.515, 648.487 407.691 C 651.229 409.511, 653.817 411, 654.237 411 C 654.656 411, 654.994 408.863, 654.987 406.250 C 654.970 400.235, 648.279 387.437, 644.375 385.952 C 640.223 384.374, 627.009 384.889, 621.332 386.851 M 388.493 391.420 C 384.759 396.316, 384.662 400.890, 388.250 402.934 C 390.706 404.332, 391.284 404.340, 393.659 403 C 397.531 400.815, 400.420 394.766, 399.262 391.267 C 398.520 389.028, 397.662 388.442, 394.765 388.195 C 391.676 387.932, 390.816 388.374, 388.493 391.420 M 684 399.505 C 684 399.821, 684.933 401.909, 686.074 404.146 C 687.731 407.394, 690.900 419.020, 690.983 422.156 C 690.992 422.517, 693.362 423.105, 696.250 423.464 C 699.138 423.822, 705.025 424.801, 709.334 425.640 C 713.642 426.479, 717.467 426.867, 717.833 426.501 C 718.957 425.376, 709.849 418.075, 703.297 414.848 C 699.885 413.167, 696.460 410.826, 695.685 409.646 C 692.852 405.331, 684 397.648, 684 399.505 M 411.120 401.776 C 409.790 404.261, 411.553 407, 414.482 407 C 416.006 407, 417.100 406.261, 417.515 404.952 C 418.816 400.853, 413.126 398.027, 411.120 401.776 M 783.692 402.282 C 779.001 405.848, 780.138 413.224, 785.474 413.836 C 790.481 414.410, 793.197 407.197, 789.250 403.807 C 786.303 401.276, 785.357 401.016, 783.692 402.282 M 128.607 405.582 C 126.552 410.937, 128.812 452.245, 132.500 476.720 C 136.261 501.685, 138.363 507.290, 150.077 523.595 C 158.232 534.946, 158.594 536.897, 157.083 561.415 C 156.402 572.462, 155.434 586.450, 154.931 592.500 C 153.764 606.548, 153.729 634, 154.878 634 C 159.272 634, 166.581 608.484, 170.020 581.138 C 172.893 558.291, 174.810 551, 177.944 551 C 178.880 551, 182.538 552.405, 186.073 554.122 C 192.682 557.332, 200 559.005, 200 557.306 C 200 555.798, 196.153 552.612, 187.500 546.953 C 178.364 540.977, 163.608 526.577, 156.789 516.983 C 151.064 508.929, 144.795 497.136, 142.709 490.500 C 140.947 484.894, 140.379 481.476, 139.052 468.500 C 138.546 463.550, 137.231 451.625, 136.131 442 C 135.030 432.375, 133.830 421.350, 133.465 417.500 C 132.870 411.227, 130.832 404, 129.658 404 C 129.414 404, 128.941 404.712, 128.607 405.582 M 390.446 410.442 C 388.523 413.377, 388.864 416.897, 391.214 418.370 C 393.410 419.746, 398.348 416.325, 398.827 413.095 C 399.576 408.039, 393.318 406.059, 390.446 410.442 M 619.182 414.597 C 607.616 420.360, 604.708 434.904, 613.191 444.564 C 617.436 449.400, 620.943 451, 627.293 451 C 638.110 451, 648 442.075, 648 432.313 C 648 428.252, 647.484 427.308, 642.250 421.786 C 636.605 415.831, 630.510 412.065, 626.446 412.022 C 625.317 412.010, 622.048 413.169, 619.182 414.597 M 255.313 416.760 C 253.375 418.034, 252.187 422.316, 253.095 424.750 C 255.030 429.931, 263.486 424.967, 262.798 419.055 C 262.561 417.021, 261.889 416.447, 259.500 416.239 C 257.850 416.096, 255.966 416.330, 255.313 416.760 M 235.099 422.601 C 230.941 427.888, 231.587 437.099, 236.219 438.570 C 238.944 439.434, 240.944 437.198, 242.118 431.972 C 243.304 426.693, 242.453 422.313, 239.984 420.992 C 237.458 419.640, 237.418 419.653, 235.099 422.601 M 296.500 431.791 C 291.457 435.605, 290.293 438.046, 291.404 442.475 C 292.243 445.817, 297.149 447.595, 301.061 445.975 C 304.567 444.523, 308.532 439.753, 309.518 435.800 C 310.044 433.692, 309.633 432.542, 307.641 430.550 C 304.219 427.128, 302.398 427.331, 296.500 431.791 M 403.897 432.424 C 397.327 436.889, 395.109 442.979, 398.829 446.345 C 400.896 448.216, 405.185 448.506, 408.055 446.970 C 412.482 444.601, 414.367 436.397, 411.443 432.223 C 409.466 429.400, 408.302 429.431, 403.897 432.424 M 684.942 439.750 C 682.976 445.828, 680.290 450.566, 675.418 456.548 C 672.899 459.641, 671.075 462.408, 671.365 462.698 C 671.655 462.988, 674.054 462.738, 676.696 462.143 C 684.796 460.319, 689.654 459.978, 713.689 459.550 C 730.026 459.258, 737.560 458.756, 739.189 457.851 C 741.308 456.673, 740.918 456.500, 734.500 455.766 C 724.666 454.642, 705.623 449.475, 698.500 445.999 C 694.668 444.128, 691.641 441.793, 690.121 439.535 C 688.813 437.591, 687.385 436, 686.949 436 C 686.512 436, 685.609 437.688, 684.942 439.750 M 264.733 453.750 C 262.204 456.556, 261.715 460.382, 263.376 464.358 C 264.646 467.398, 265.393 468, 267.892 468 C 271.756 468, 274 464.853, 274 459.432 C 274 452.955, 268.492 449.578, 264.733 453.750 M 385.098 458.644 C 382.214 460.664, 382.639 464.378, 385.805 464.827 C 390.357 465.472, 393.004 460.143, 389.155 458.083 C 387.821 457.369, 386.696 457.525, 385.098 458.644 M 310.388 459.980 C 307.954 460.963, 304 465.658, 304 467.563 C 304 470.058, 307.018 472.032, 309.822 471.372 C 313.799 470.437, 318 466.095, 318 462.920 C 318 459.261, 315.018 458.110, 310.388 459.980 M 550.460 465.281 C 548.242 467.189, 547.829 468.184, 548.368 470.329 C 548.896 472.435, 549.635 473, 551.864 473 C 555.087 473, 558.339 469.975, 557.838 467.444 C 557.652 466.506, 556.538 465.101, 555.361 464.322 C 553.439 463.047, 552.944 463.144, 550.460 465.281 M 417.651 471.964 C 413.293 476.789, 409.958 483.213, 406.992 492.500 C 404.202 501.236, 402.982 529.149, 404.952 539.164 C 408.444 556.913, 419.676 569.679, 440.500 579.568 C 451.622 584.850, 463.553 587.420, 486.774 589.537 C 496.275 590.403, 507.412 591.696, 511.524 592.411 C 517.691 593.484, 519 593.482, 519 592.398 C 519 588.313, 501.426 582.624, 485.485 581.548 C 466.994 580.301, 453.447 576.593, 438.666 568.734 C 425.443 561.703, 417.795 546.043, 415.760 521.834 C 414.313 504.621, 415.623 490.281, 419.842 477.163 C 421.463 472.123, 422.438 468, 422.011 468 C 421.583 468, 419.621 469.784, 417.651 471.964 M 937.500 472.718 C 935.300 472.928, 927.718 473.974, 920.651 475.042 C 908.483 476.883, 902.550 478.609, 902.862 480.219 C 902.938 480.615, 911.888 481.128, 922.750 481.361 C 933.613 481.593, 943.435 482.089, 944.578 482.463 C 946.392 483.057, 944.728 485.077, 931.515 498.322 C 916.448 513.425, 905.176 526.597, 882.724 555.333 C 870.926 570.434, 864.999 578.880, 865.001 580.588 C 865.002 581.089, 876.590 569.763, 890.751 555.418 C 927.614 518.078, 942.127 506.706, 974.590 489.730 C 987.692 482.879, 997.656 477.044, 1000.971 474.284 C 1001.230 474.068, 1000.780 473.473, 999.971 472.961 C 998.583 472.083, 946.287 471.880, 937.500 472.718 M 386.756 478.977 C 383.782 481.317, 382.772 485.306, 384.542 487.726 C 386.450 490.335, 391.030 488.333, 393.455 483.829 C 395.100 480.773, 395.200 479.945, 394.082 478.599 C 392.303 476.455, 389.799 476.584, 386.756 478.977 M 477.250 479.220 C 474.454 480.569, 474.225 484.989, 476.829 487.345 C 479.206 489.496, 481.291 489.440, 483.345 487.171 C 485.431 484.867, 485.467 481.609, 483.429 479.571 C 481.625 477.768, 480.406 477.699, 477.250 479.220 M 362.400 482.854 C 356.973 486.825, 355.367 488.886, 354.105 493.500 C 352.648 498.830, 352.703 508.303, 354.200 509.800 C 357.429 513.029, 364.281 508.937, 366.767 502.293 C 369.509 494.962, 372.786 482.606, 372.314 481.376 C 371.438 479.093, 366.542 479.823, 362.400 482.854 M 904.989 495.250 C 901.837 500.420, 902.890 504, 907.564 504 C 909.995 504, 915 499.489, 915 497.298 C 915 491.321, 908.229 489.936, 904.989 495.250 M 500.021 494.283 C 495.537 495.852, 493.941 499.735, 496.300 503.336 C 499.585 508.348, 507.054 507.561, 511.355 501.750 L 513.391 499 511.346 496.250 C 508.997 493.089, 505.281 492.443, 500.021 494.283 M 778.146 495.054 C 757.023 497.552, 744.425 500.435, 731.500 505.729 C 677.916 527.675, 668.939 529.990, 637.308 530.012 C 625.866 530.020, 618.744 530.486, 615 531.472 C 606.905 533.604, 593.429 540.748, 589.883 544.786 C 586.967 548.107, 586.815 548.681, 587.209 554.903 C 587.500 559.484, 589.035 565.320, 592.234 574 C 598.690 591.517, 599.595 593.469, 603.101 597.463 C 605.781 600.515, 606.816 601, 610.646 601 C 616.114 601, 625.830 599.073, 646.020 593.985 C 674.644 586.770, 688.603 586.601, 719.748 593.091 C 727.861 594.782, 743.050 597.487, 753.500 599.103 C 763.950 600.718, 776.938 603.177, 782.362 604.566 C 787.786 605.955, 792.691 606.936, 793.262 606.746 C 793.833 606.556, 790.970 604.782, 786.900 602.804 C 779.651 599.280, 768.389 596.527, 751 594.026 C 746.875 593.433, 741.475 592.290, 739 591.485 C 736.525 590.681, 728.021 588.653, 720.102 586.979 C 712.183 585.305, 705.366 583.726, 704.952 583.470 C 704.539 583.215, 699.955 582.566, 694.766 582.028 C 678.539 580.345, 659.683 583.063, 618.153 593.072 C 608.770 595.333, 608.124 595.136, 605.043 589.067 C 601.993 583.060, 600.689 574.318, 601.380 564.500 C 602.183 553.094, 603.499 548.375, 606.406 546.470 C 609.510 544.436, 621.308 542.280, 633.500 541.520 C 644.622 540.826, 660.556 539.137, 663.250 538.366 C 664.212 538.091, 664.994 538.233, 664.988 538.683 C 664.981 539.132, 661.792 540.789, 657.900 542.365 C 654.009 543.940, 647.377 547.533, 643.163 550.349 C 634.945 555.840, 617.131 572.464, 618.257 573.590 C 619.183 574.516, 622.590 572.166, 630.488 565.156 C 637.905 558.572, 644.723 554.943, 661.276 548.766 C 667.449 546.463, 679.925 540.796, 689 536.174 C 723.020 518.846, 735.702 512.761, 742.701 510.406 C 751.726 507.370, 774.635 501.653, 786.500 499.477 C 794.854 497.944, 804 494.850, 804 493.556 C 804 492.596, 794.067 493.171, 778.146 495.054 M 351.406 569.121 C 355.913 584.888, 372.458 595.999, 401.266 602.604 C 409.645 604.526, 422.575 607.630, 430 609.504 C 450.614 614.706, 468.555 616.994, 488.500 616.964 C 497.850 616.950, 508.734 616.518, 512.687 616.004 C 518.287 615.277, 520.976 615.398, 524.862 616.552 C 530.870 618.336, 533.425 621.145, 539.181 632.293 C 544.585 642.761, 553.375 651.862, 561.607 655.511 C 564.848 656.948, 570.425 659.288, 574 660.710 C 577.575 662.132, 585.632 666.231, 591.904 669.819 C 611.758 681.178, 627.761 686.284, 647.151 687.446 C 657.281 688.053, 657.415 688.033, 653.500 686.501 C 651.300 685.641, 646.086 684.310, 641.914 683.544 C 629.611 681.285, 624.077 679.321, 613.500 673.461 C 608 670.414, 598.775 665.827, 593 663.269 C 580.176 657.588, 573.068 652.925, 566.478 645.874 C 561.471 640.515, 559.153 637.099, 551.036 623.114 C 545.774 614.049, 540.557 608.137, 536.213 606.318 C 533.564 605.209, 527.739 605.065, 506.213 605.578 C 482.587 606.140, 477.535 605.970, 462.500 604.106 C 453.150 602.947, 443.250 601.735, 440.500 601.413 C 425.052 599.605, 394.355 593.705, 383.371 590.432 C 371.282 586.829, 361.178 579.360, 352.292 567.457 L 350.085 564.500 351.406 569.121 M 210 566.309 C 210 566.518, 211.161 567.996, 212.579 569.594 C 222.808 581.117, 229 589.004, 229 590.510 C 229 592.101, 228.258 592.209, 221.491 591.595 C 211.397 590.681, 208.551 592.070, 203.725 600.271 C 201.709 603.697, 198.242 608.474, 196.020 610.888 C 193.313 613.827, 191.774 616.561, 191.356 619.172 C 190.493 624.571, 187.805 627.572, 182.149 629.451 C 176.254 631.409, 173.053 634.643, 166.528 645.235 C 163.441 650.246, 159.762 654.717, 157 656.814 C 149.504 662.504, 151.221 665.032, 159.232 660.101 C 163.197 657.661, 173.902 647.091, 175.461 644.076 C 177.460 640.209, 180.057 638.332, 184.500 637.542 C 186.700 637.150, 195.301 633.495, 203.614 629.420 C 212.111 625.254, 224.907 620.012, 232.841 617.447 C 240.603 614.938, 247.215 612.460, 247.536 611.942 C 249.372 608.971, 221.176 613.421, 208.176 618.155 C 203.598 619.821, 199.577 620.910, 199.241 620.574 C 198.905 620.238, 200.919 617.834, 203.716 615.232 C 207.165 612.024, 209.204 609.143, 210.049 606.286 C 212.269 598.778, 214.424 597.636, 227.809 596.878 C 234.239 596.513, 239.613 596.167, 239.750 596.108 C 241.116 595.520, 239.066 591.544, 235.218 587.313 C 228.143 579.536, 210 564.424, 210 566.309 M 849.566 596.771 C 856.178 601.072, 859.685 604.896, 860.691 608.904 C 862.328 615.427, 854.094 635.130, 845.877 644.348 C 837.927 653.268, 814.465 667.913, 803.314 670.915 C 801.053 671.524, 791.845 673.153, 782.851 674.534 C 773.858 675.916, 761.550 678.163, 755.500 679.528 C 741.171 682.760, 715.310 684.345, 699.150 682.980 C 686.568 681.918, 679.207 680.200, 663.233 674.600 C 650.721 670.212, 649.164 670.107, 655 674.043 C 675 687.532, 685.133 690.197, 716.500 690.222 C 737.941 690.238, 753.775 688.897, 779.721 684.867 C 786.992 683.738, 793.485 682.995, 794.149 683.216 C 794.813 683.438, 788.864 686.456, 780.928 689.923 C 772.993 693.391, 756.627 700.943, 744.560 706.705 C 732.493 712.468, 717.868 718.818, 712.060 720.817 C 701.711 724.378, 701.190 724.451, 686 724.475 C 668.498 724.503, 663.458 723.645, 627.499 714.508 C 587.872 704.440, 560.047 695.729, 524.500 682.262 C 497.677 672.101, 468.953 662.099, 452 657.018 C 446.225 655.287, 440.375 653.478, 439 652.998 C 437.625 652.518, 432.675 650.984, 428 649.588 C 390.665 638.441, 378.193 634.791, 369.500 632.469 C 351.644 627.699, 343.815 625.262, 324.500 618.460 C 288.089 605.636, 278.775 602.796, 271.385 602.265 C 266.656 601.926, 264.035 602.134, 263.570 602.886 C 262.239 605.040, 264.106 607.860, 268.898 610.935 C 276.860 616.044, 277.240 616.747, 274.884 622.017 C 270.850 631.037, 226.697 672.280, 198.593 693.279 C 154.337 726.346, 106.429 749.636, 57.333 761.951 C 47.575 764.399, 47.634 764.396, 48.362 762.500 C 50.259 757.557, 35.617 765.933, 29.813 773.112 C 22.939 781.612, 22.486 784.004, 27.750 783.990 C 32.475 783.978, 56.623 779.833, 68.500 776.996 C 92.308 771.307, 125.684 758.128, 148.417 745.438 C 184.988 725.024, 224.179 693.065, 254.278 659.111 C 256.906 656.147, 259.243 653.910, 259.472 654.139 C 259.702 654.368, 259.475 656.344, 258.969 658.528 C 257.569 664.565, 257.823 677.230, 259.508 685.387 C 261.431 694.695, 261.715 706.354, 260.644 732 C 259.546 758.279, 260.438 764.550, 269.532 794.500 C 278.116 822.772, 279.651 830.094, 281.495 851.574 C 282.322 861.208, 283.562 869.421, 284.588 872.074 C 286.381 876.705, 290.565 883, 291.851 883 C 292.264 883, 293.133 873.663, 293.782 862.250 C 296.314 817.787, 305.879 776.105, 326.957 717.678 C 330.762 707.130, 335.254 694.241, 336.939 689.036 C 342.173 672.867, 347.759 647.778, 346.780 644.839 C 346.553 644.159, 344.438 648.529, 342.080 654.551 C 336.974 667.592, 328.591 685.025, 319.503 701.500 C 301.787 733.618, 292.928 756.233, 290.517 775.500 C 289.419 784.267, 288.974 785.705, 287.932 783.844 C 286.091 780.553, 282.003 761.334, 282.001 755.960 C 281.999 748.104, 283.962 741.488, 291.352 724.440 C 294.914 716.223, 298.359 707.475, 299.007 705 C 299.656 702.525, 302.384 693.671, 305.069 685.325 C 307.755 676.979, 310.218 668.204, 310.543 665.825 C 311.132 661.507, 311.126 661.513, 307.035 669 C 300.842 680.334, 287.877 706.947, 281.702 721 C 272.048 742.971, 272.913 741.799, 273.584 732 C 274.289 721.719, 278.124 697.837, 281.051 685.500 C 283.732 674.196, 288.884 658.672, 294.590 644.703 C 297.015 638.764, 299 633.640, 299 633.315 C 299 632.303, 292.987 640.184, 288.281 647.363 C 278.674 662.021, 272.917 675.637, 270.535 689.334 L 269.289 696.500 268.570 690 C 266.668 672.799, 273.237 649.735, 283.872 636.282 C 294.475 622.867, 299.962 621.957, 324.500 629.542 C 330.550 631.413, 340 634.255, 345.500 635.859 C 356.068 638.941, 363.219 641.067, 387.500 648.346 C 395.750 650.819, 408.125 654.481, 415 656.483 C 421.875 658.485, 431.325 661.261, 436 662.651 C 440.675 664.042, 448.325 666.231, 453 667.517 C 470.551 672.342, 494.262 680.056, 517.500 688.500 C 553.843 701.706, 584.590 711.902, 600.500 716.024 C 602.150 716.451, 607.829 717.954, 613.121 719.364 C 633.478 724.786, 663.017 730.846, 674.250 731.903 C 690.181 733.402, 707.139 730.618, 723.389 723.834 C 733.246 719.719, 736.048 718.710, 736.441 719.134 C 736.628 719.335, 737.304 724.900, 737.943 731.500 C 738.582 738.100, 739.724 746.421, 740.479 749.990 C 741.234 753.560, 741.690 756.644, 741.491 756.842 C 741.292 757.041, 740.100 756.483, 738.842 755.602 C 732.853 751.407, 733.772 756.363, 741 767.242 C 744.300 772.210, 747.019 776.774, 747.042 777.387 C 747.066 777.999, 747.928 784.800, 748.958 792.500 C 749.988 800.200, 750.640 806.691, 750.407 806.925 C 750.173 807.159, 746.261 804.797, 741.713 801.675 C 728.322 792.485, 728.557 793.606, 743.964 812.415 C 751.772 821.947, 756.264 828.321, 756.895 830.761 C 758.433 836.718, 760.790 853.224, 762.497 870 C 765.515 899.657, 768.410 912.641, 775.859 929.920 C 778.013 934.914, 779.348 939, 778.828 939 C 776.713 939, 760.873 925.995, 751.500 916.563 C 746 911.028, 736.008 899.691, 729.296 891.369 C 722.583 883.047, 712.305 871.122, 706.455 864.869 C 700.605 858.616, 693.238 850.350, 690.085 846.500 C 681.372 835.862, 658.818 804.651, 645.282 784.500 C 627.315 757.751, 617.218 746.744, 602.380 737.731 C 595.833 733.754, 585.604 729.632, 583.786 730.238 C 583.136 730.455, 586.181 733.025, 590.552 735.951 C 604.818 745.498, 610.735 751.962, 625.378 774 C 635.081 788.601, 638.825 794.857, 646.027 808.500 C 663.482 841.563, 667.242 847.402, 694.974 884.500 C 706.897 900.450, 721.334 919.795, 727.055 927.489 C 755.150 965.269, 768.005 976.986, 791.972 986.658 C 808.167 993.195, 831.217 997.725, 834.483 995.014 C 837.078 992.860, 836.233 990.713, 828.550 979.943 C 799.695 939.494, 783.591 895.563, 764.420 805 C 756.905 769.503, 756.553 767.950, 753.533 757 C 746.893 732.924, 746.319 716.641, 751.933 711.561 C 752.828 710.751, 764.723 705.125, 778.367 699.059 C 815.650 682.483, 829.758 674.328, 844.244 660.979 C 863.313 643.409, 872.233 627.598, 870.438 614.551 C 869.847 610.249, 869.016 608.866, 864.128 604.048 C 858.519 598.519, 852.196 594.729, 846.500 593.482 C 844.118 592.961, 844.750 593.638, 849.566 596.771 M 595.899 610.083 C 592.380 612.897, 586.404 617.009, 582.620 619.220 C 575.899 623.147, 567.539 629.872, 568.359 630.692 C 568.585 630.918, 573.871 628.518, 580.105 625.358 C 591.060 619.806, 597.468 614.795, 601.519 608.612 C 604.399 604.216, 602.670 604.668, 595.899 610.083 M 597.153 620.750 C 589.916 627.872, 587.866 630.577, 586.131 635.288 C 583.704 641.880, 583.607 643.046, 585.060 648.276 C 586.352 652.929, 587.566 652.378, 588.409 646.755 C 589.350 640.482, 593.207 632.868, 599.550 624.760 C 605.751 616.836, 608.592 612, 607.048 612 C 606.496 612, 602.043 615.938, 597.153 620.750 M 631.163 616.456 C 628.764 622.039, 627.604 634.394, 628.801 641.618 C 629.845 647.921, 633.214 656.152, 636.499 660.427 C 638.507 663.041, 639.303 661.925, 637.954 658.389 C 634.841 650.232, 633.694 643.299, 633.089 629 C 632.507 615.247, 632.290 613.833, 631.163 616.456 M 229.500 633.366 C 212.445 640.012, 198.251 646.331, 176.500 656.960 C 153.379 668.259, 146.220 670.956, 144.898 668.869 C 144.421 668.116, 144.024 666.712, 144.015 665.750 C 143.990 662.826, 142.321 663.712, 134.754 670.668 C 130.764 674.335, 123.450 680.332, 118.500 683.995 C 105.266 693.788, 101.794 698.164, 98.659 709 C 96.467 716.578, 94.810 718.564, 87.678 722.156 C 82.223 724.904, 65.071 735.921, 61 739.291 C 58.414 741.432, 56.264 744.409, 55.502 746.906 L 54.766 749.311 63.633 748.705 C 79.283 747.636, 96.729 741.850, 120.420 729.873 C 144.631 717.632, 167.825 702.832, 177.839 693.233 C 180.953 690.249, 186.990 684.700, 191.256 680.903 C 196.084 676.607, 198.349 674.001, 197.256 674.004 C 194.911 674.009, 190.312 676.868, 179.500 685.046 C 168.187 693.602, 136.297 713.347, 120.500 721.577 C 112.214 725.894, 103.420 729.412, 92.085 732.943 C 83.057 735.756, 75.209 737.903, 74.646 737.715 C 74.082 737.527, 79.669 733.867, 87.061 729.580 C 94.452 725.294, 101.922 720.597, 103.659 719.143 C 116.258 708.602, 122.310 703.788, 127.750 699.980 C 131.188 697.575, 134 695.209, 134 694.724 C 134 693.194, 127.799 695, 119.274 699.013 C 111.678 702.588, 109.097 702.997, 110.816 700.352 C 111.192 699.773, 114.827 696.524, 118.893 693.132 C 126.733 686.592, 131.843 683.854, 149.500 676.726 C 168.304 669.136, 239.735 634.056, 242.414 631.095 C 244.276 629.038, 244.276 629.001, 242.405 629.040 C 241.357 629.061, 235.550 631.008, 229.500 633.366 M 544.500 668.968 C 540.100 670.014, 533.861 671.163, 530.636 671.521 C 527.106 671.913, 525.135 672.535, 525.684 673.084 C 526.963 674.363, 547.763 674.344, 551.993 673.060 C 557.029 671.532, 567.825 671.756, 575.559 673.550 C 585.449 675.844, 586.571 674.836, 578.500 670.907 C 572.211 667.846, 570.535 667.478, 562 667.282 C 555.465 667.133, 550.003 667.659, 544.500 668.968 M 642.655 739.829 C 640.484 742.228, 640.555 745.287, 642.829 747.345 C 645.125 749.423, 647.405 749.452, 649.429 747.429 C 651.569 745.288, 651.402 742.402, 649 740 C 646.517 737.517, 644.789 737.470, 642.655 739.829 M 699.980 747.037 C 697.437 751.790, 701.005 755.727, 707.046 754.833 C 713.334 753.902, 711.421 745.750, 704.784 745.194 C 701.886 744.950, 700.893 745.331, 699.980 747.037 M 681.455 768.455 C 678.238 771.671, 677.992 778.992, 681 782 C 683.555 784.555, 688.177 784.567, 690.478 782.025 C 693.161 779.059, 692.071 771.318, 688.543 768.283 C 685.204 765.411, 684.480 765.429, 681.455 768.455 M 716.333 785.615 C 714.797 787.959, 714.772 788.503, 716.094 790.858 C 718.002 794.258, 720.350 794.650, 722.990 792.010 C 724.472 790.528, 724.901 789.241, 724.429 787.699 C 722.797 782.373, 719.083 781.417, 716.333 785.615 M 697.571 798.571 C 695.288 800.854, 695.643 804.422, 698.488 807.804 C 701.640 811.549, 704.422 812.289, 707.125 810.100 C 709.825 807.914, 709.024 803.297, 705.300 799.573 C 702.359 796.632, 699.838 796.305, 697.571 798.571 M 731.035 822.934 C 730.466 823.998, 730 825.728, 730 826.779 C 730 828.999, 732.974 832, 735.174 832 C 738.949 832, 741.556 824.956, 738.800 822.200 C 736.899 820.299, 732.208 820.742, 731.035 822.934 M 729.400 850.765 C 727.329 852.148, 726.220 855.456, 727.071 857.710 C 728.044 860.286, 735.543 866, 737.950 866 C 741.732 866, 743.232 860.797, 740.915 855.712 C 739.035 851.586, 732.424 848.746, 729.400 850.765"/>
</svg>