<?xml version="1.0" encoding="utf-8"?>
<svg xmlns="http://www.w3.org/2000/svg" width="1002" height="688" viewBox="0 0 1002 688">
  <path fill-rule="evenodd" d="M 128.926 2.607 C 117.121 4.342, 100.455 9.927, 93.697 14.413 C 86.207 19.385, 78.600 27.778, 70.203 40.334 C 62.249 52.230, 61.706 53.992, 59.086 76.455 C 57.342 91.401, 57.055 92.556, 54.556 94.705 C 52.509 96.466, 50.671 97, 46.656 97 C 40.107 97, 33.232 100.304, 30.741 104.648 C 29.748 106.379, 28.264 111.640, 27.444 116.338 C 25.518 127.373, 23.745 132.272, 19.934 137.084 C 15.550 142.619, 14.696 146.582, 15.949 155.587 C 16.527 159.744, 17 164.441, 17 166.025 C 17 168.895, 16.982 168.904, 11.985 168.312 C 5.797 167.579, 3.706 169.138, 2.048 175.722 C 0.040 183.699, 1.361 185.290, 14.249 190.408 L 17.998 191.897 15.499 196.598 C 14.125 199.183, 13 202.332, 13 203.597 C 13 208.733, 36.815 233.626, 45.685 237.763 C 51.282 240.373, 52.326 240.498, 73.500 241.103 C 100.175 241.865, 103.485 242.736, 112.907 251.472 C 125.057 262.738, 136.517 270.992, 142.294 272.638 C 148.481 274.400, 151 276.812, 151 280.973 L 151 283.500 167.250 283.546 C 182.310 283.588, 184.123 283.797, 192 286.400 C 206.027 291.036, 214.498 295.412, 220.579 301.163 C 226.818 307.064, 229.816 311.675, 233.027 320.310 C 237.210 331.554, 243.615 341.434, 251.728 349.158 C 255.970 353.196, 267.779 364.623, 277.970 374.552 C 288.162 384.480, 299.008 394.830, 302.072 397.552 C 310.419 404.963, 313.760 409.780, 317.561 419.882 C 325.351 440.580, 325.896 461.068, 319.619 497.201 C 317.641 508.586, 315.519 523.428, 314.903 530.182 C 314.052 539.498, 313.326 543.042, 311.891 544.866 C 309.182 548.309, 309.433 554.948, 312.500 561 C 313.875 563.713, 315 566.172, 315 566.464 C 315 566.756, 313.369 568.799, 311.376 571.005 C 307.040 575.805, 301.701 577.544, 288.500 578.457 C 275.240 579.373, 270.732 581.139, 265.796 587.349 C 260.684 593.780, 257.413 601.030, 255.888 609.305 C 254.567 616.473, 255.020 619.485, 257.987 623.256 C 260.336 626.243, 268.841 628.483, 291 631.953 C 298.425 633.116, 305.962 634.297, 307.750 634.579 C 309.538 634.860, 310.997 635.633, 310.993 636.295 C 310.988 636.958, 308.924 641.100, 306.406 645.500 C 295.859 663.926, 292.760 670.683, 293.889 672.793 C 295.203 675.248, 299.948 676.992, 305.399 677.024 C 311.768 677.062, 317.841 678.798, 322.365 681.872 C 331.104 687.812, 335.006 688.111, 357.206 684.541 C 365.618 683.188, 379.025 681.615, 387 681.045 C 402.329 679.950, 407.089 679.003, 413.390 675.796 C 418.318 673.288, 455.528 636.456, 456.943 632.685 C 457.655 630.788, 457.674 629.259, 457 628 C 454.165 622.703, 456.198 618.862, 465.940 611.109 C 475.077 603.838, 476.602 595.546, 470.567 585.956 C 461.145 570.983, 461.507 571.800, 461.503 565.500 L 461.500 559.500 465.843 559.188 C 469.743 558.908, 470.132 558.653, 469.654 556.688 C 467.359 547.242, 467.989 535.188, 472.040 511.012 C 474.861 494.174, 474.270 494.657, 493.104 493.795 C 501.572 493.408, 524.025 492.632, 543 492.072 C 573.188 491.181, 611.701 488.286, 632 485.382 C 644.462 483.599, 659.064 477.296, 675.118 466.773 C 688.808 457.798, 714.111 437.824, 726.491 426.218 L 735.483 417.789 738.991 421.778 C 756.385 441.555, 782.269 467.814, 790.379 473.909 C 796.361 478.406, 800.195 482.055, 801.015 484.037 C 804.789 493.146, 797.074 543.598, 789.705 558 C 787.139 563.015, 786.107 563.478, 771.194 566.302 C 760.539 568.321, 754.733 571.167, 748.454 577.451 C 744.854 581.053, 742.802 584.219, 741.292 588.500 C 733.767 609.833, 733.771 609.792, 738.838 614.129 C 742.891 617.599, 762.305 625.910, 771.082 627.933 C 780.315 630.061, 789.720 629.259, 800.500 625.426 C 809.147 622.351, 812.258 621.770, 823.500 621.130 C 837.576 620.329, 840.569 619.354, 848.500 612.988 C 850.700 611.223, 856.179 607.347, 860.675 604.375 C 865.776 601.004, 870.215 597.112, 872.481 594.026 C 874.479 591.305, 879.255 586.793, 883.095 584 C 896.831 574.009, 897.395 570.220, 889.489 541 C 888.075 535.775, 887.049 529.700, 887.209 527.500 L 887.500 523.500 895.904 536 C 900.527 542.875, 905.834 550.400, 907.698 552.722 C 913.050 559.388, 915.068 564.950, 915.139 573.231 C 915.207 581.099, 912.590 600.914, 910.936 605.059 C 909.219 609.364, 904.997 611.022, 893.257 612.006 C 872.164 613.773, 861.670 618.232, 850.612 630.129 C 840.439 641.072, 836.309 651.029, 840.054 655.580 C 843.845 660.187, 870.618 668.932, 887.378 671.038 C 899.949 672.617, 909.851 671.889, 928 668.049 C 935.975 666.362, 948.440 664.361, 955.701 663.603 C 972.771 661.820, 978.023 658.842, 981.513 648.972 C 986.614 634.544, 995.592 590.709, 998.507 566 C 999.318 559.125, 999.986 546.882, 999.991 538.793 C 999.999 525.116, 999.748 523.120, 996.402 510.293 C 994.423 502.707, 992.467 493.350, 992.055 489.500 C 991.417 483.536, 990.123 480.132, 983.313 466.500 C 978.917 457.700, 971.165 444.200, 966.088 436.500 C 956.359 421.746, 950.483 410.563, 947.080 400.322 C 944.761 393.343, 943.177 380, 944.668 380 C 946.611 380, 950 375.844, 950 373.462 C 950 372.108, 948.769 368.796, 947.264 366.102 L 944.529 361.202 946.848 359.324 L 949.167 357.446 941.976 344.164 C 938.021 336.859, 935.034 330.632, 935.339 330.327 C 935.644 330.022, 939.119 330.753, 943.061 331.950 C 955.342 335.680, 956.278 333.101, 945.628 324.872 C 933.851 315.773, 932.001 309.029, 936.333 291 C 940.144 275.142, 941.999 264.396, 942.006 258.140 C 942.017 246.963, 944.496 243, 951.480 243 C 954.569 243, 961.788 234.848, 962.430 230.636 C 963.645 222.658, 963.713 204.364, 962.542 200.472 C 960.371 193.259, 944.557 171.010, 932.463 158.154 C 922.668 147.742, 910.045 138.220, 898.500 132.535 C 883.842 125.316, 880.680 124.831, 853.229 125.592 C 822.111 126.454, 810.745 125.352, 799.800 120.410 C 790.281 116.112, 781.383 114.429, 760.439 112.964 C 743.348 111.769, 719.883 112.804, 703.419 115.479 C 698.424 116.290, 686.049 119.506, 675.919 122.625 C 632.582 135.969, 633.541 135.805, 627.388 130.903 C 621.528 126.234, 618.574 124.999, 613.300 125.012 C 599.595 125.046, 582.089 133.889, 576 143.855 C 574.625 146.105, 573.119 147.958, 572.654 147.973 C 572.189 147.988, 568.088 145.972, 563.540 143.493 C 556.182 139.482, 554.040 138.824, 544.065 137.509 C 532.366 135.966, 525.230 133.507, 521 129.561 C 516.367 125.238, 512.688 124.103, 501.377 123.502 C 477.159 122.218, 479.297 122.848, 468.832 113.910 C 459.487 105.928, 455.611 103.997, 449 104.028 C 444.424 104.049, 437.332 107.310, 433.218 111.284 C 428.607 115.738, 423.879 115.645, 417.640 110.977 C 414.070 108.307, 413.123 107.036, 413.560 105.500 C 413.872 104.400, 414.381 101.598, 414.691 99.274 C 415.196 95.489, 415.006 94.955, 412.877 94.162 C 411.570 93.675, 404.427 92.954, 397.004 92.559 C 389.582 92.165, 383.377 91.710, 383.215 91.549 C 383.054 91.387, 383.840 87.945, 384.961 83.898 C 386.082 79.851, 387 76.420, 387 76.272 C 387 76.125, 380.587 76.049, 372.750 76.104 C 356.431 76.219, 350.716 75.070, 330 67.509 C 316.065 62.423, 314.103 60.868, 311.457 52.811 C 306.804 38.647, 299.674 28.244, 291.211 23.269 C 286.779 20.664, 285.522 20.454, 270 19.725 C 260.925 19.298, 251.945 18.848, 250.044 18.725 C 246.804 18.514, 246.517 18.750, 245.458 22.500 C 243.525 29.351, 240.100 28.510, 225.013 17.479 C 220.331 14.056, 214.686 10.340, 212.470 9.220 C 200.458 3.151, 183.772 1.792, 172.188 5.939 C 164.820 8.577, 161.129 8.352, 152.500 4.738 C 144.814 1.520, 139.555 1.045, 128.926 2.607 M 122.500 14.607 C 115.350 16.513, 107.224 19.172, 104.443 20.516 C 100.043 22.641, 99.096 23.657, 97.160 28.328 C 95.935 31.282, 92.917 35.715, 90.449 38.182 L 85.964 42.668 91.508 42.208 C 100.172 41.489, 104.639 43.725, 112.941 52.935 C 118.187 58.754, 121.780 61.687, 127.057 64.461 C 140.050 71.288, 142.211 74.100, 146.555 89.831 C 148.617 97.298, 148.720 98.612, 147.551 102.496 C 146.834 104.880, 144.316 109.582, 141.957 112.946 L 137.667 119.061 140.685 122.281 C 146.584 128.575, 160.999 151.335, 159.827 152.506 C 159.606 152.727, 157.642 153.191, 155.462 153.536 C 151.806 154.115, 150.881 153.721, 143.500 148.442 C 122.663 133.540, 107.057 120.583, 104.786 116.299 C 102.767 112.490, 101.682 111.674, 95.500 109.317 C 91.650 107.850, 87.302 105.373, 85.839 103.814 C 82.663 100.430, 74.547 86.803, 72.297 81.075 C 71.417 78.834, 70.366 77, 69.963 77 C 69.559 77, 69.288 79.813, 69.361 83.250 C 69.514 90.532, 67.282 95.311, 62.240 98.500 C 60.500 99.600, 59.060 100.836, 59.039 101.247 C 59.017 101.658, 60.641 103.810, 62.646 106.030 C 67.017 110.869, 67.524 110.293, 52.035 118.094 C 35.738 126.303, 32.405 129.535, 29.874 139.585 C 28.897 143.465, 29.047 144.943, 31.004 150.778 C 39.839 177.105, 57.723 196.010, 83.419 206.184 C 98.377 212.107, 104.579 210.882, 127.500 197.479 C 146.591 186.316, 149.272 185.047, 153.816 185.023 C 160.194 184.989, 161.693 186.206, 162.994 192.470 C 164.576 200.090, 164.014 203.933, 161 206.099 C 158.125 208.166, 107.648 218, 99.914 218 C 97.040 218, 89.481 216.212, 80.890 213.500 C 73.050 211.025, 66.005 209, 65.234 209 C 64.464 209, 60.462 210.350, 56.341 212 C 44.972 216.553, 38.144 215.755, 32.964 209.270 L 30.752 206.500 31.480 209 C 32.950 214.050, 36.917 219.602, 41.312 222.757 C 49.356 228.535, 60.607 230.212, 103.500 232.027 C 130.855 233.184, 133.766 233.711, 147.262 239.946 C 154.400 243.244, 155.835 244.277, 155.299 245.731 C 153.672 250.137, 148.084 250.073, 135.291 245.500 C 129.906 243.575, 124.911 242, 124.192 242 C 122.187 242, 131.580 253.622, 137.131 258.010 C 143.236 262.835, 152.607 267.458, 160.500 269.538 C 168.600 271.673, 187.406 272.459, 198.900 271.143 C 204.070 270.552, 208.663 270.292, 209.106 270.566 C 210.559 271.463, 209.015 273.537, 205.475 275.443 C 203.564 276.473, 202 277.720, 202 278.214 C 202 278.709, 205.430 280.677, 209.621 282.587 C 233.083 293.279, 245.708 307.138, 250.989 328 C 254.698 342.653, 259.823 348.877, 270.060 351.162 C 277.038 352.719, 279.127 354.377, 285.176 363.158 C 291.318 372.074, 297.231 378.698, 305.849 386.318 C 315.109 394.504, 338.412 411.265, 338.822 410.034 C 339.516 407.951, 336.648 401.617, 333.368 397.985 C 327.221 391.181, 317.172 366.319, 314.581 351.500 C 312.744 340.997, 312.618 338, 314.014 338 C 314.572 338, 319.033 344.051, 323.928 351.446 C 332.813 364.870, 334 365.760, 334 359 C 334 353.386, 336.264 350.932, 337.372 355.345 C 337.695 356.635, 342.077 363.947, 347.109 371.595 C 352.141 379.243, 357.559 388.239, 359.147 391.588 C 364.894 403.696, 366.509 420.918, 363.500 438 C 362.677 442.675, 362.002 448.634, 362.001 451.242 C 362 455.287, 362.456 456.390, 365.101 458.742 C 371.817 464.716, 372.356 469.052, 368.281 484.316 C 366.173 492.212, 365.566 496.747, 365.578 504.500 C 365.594 514.807, 366.526 518.912, 371.673 531.324 C 374.734 538.707, 374.145 540.683, 368.456 542.115 C 363.642 543.328, 363.832 542.924, 362.514 554.760 C 361.112 567.358, 364.533 571.110, 391.956 587.047 C 398.458 590.826, 401.595 593.244, 401.798 594.634 C 402.365 598.511, 400.172 599.018, 389.453 597.486 C 374.127 595.296, 375.268 594.844, 376.147 602.750 C 376.560 606.462, 376.920 610.052, 376.949 610.726 C 376.977 611.400, 378.636 613.425, 380.636 615.226 C 385.135 619.278, 387.799 624.878, 385.824 626.130 C 383.493 627.608, 376.761 627.094, 374.764 625.286 C 372.691 623.411, 375.485 623.108, 344.500 628.568 C 339.356 629.474, 333.736 631.177, 331.383 632.541 C 322.746 637.550, 313.471 650.255, 311.507 659.770 C 310.932 662.557, 311.267 663.447, 313.777 665.792 C 317.478 669.249, 333.796 676, 338.451 676 C 340.373 676, 349.845 674.650, 359.500 673 C 369.155 671.350, 380.979 669.966, 385.777 669.924 C 390.575 669.882, 395.968 669.315, 397.763 668.665 C 403.877 666.447, 417.353 655.556, 435.250 638.369 L 445 629.006 445 622.971 C 445 615.595, 446.393 612.117, 452.195 605 C 454.662 601.975, 457.202 598.517, 457.840 597.316 C 459.873 593.487, 459.119 587.263, 455.500 578 C 450.979 566.430, 450.939 560.606, 455.131 524.500 C 458.586 494.738, 458.426 487.558, 454.045 475.850 C 452.135 470.744, 451.598 470.147, 448.378 469.543 C 440.207 468.010, 440.426 468.297, 431.484 447.461 C 417.070 413.878, 414.853 407, 418.440 407 C 419.114 407, 426.386 413.864, 434.599 422.253 L 449.532 437.507 457.956 453.855 C 462.767 463.192, 467.371 470.852, 468.690 471.717 C 470.763 473.075, 471.252 473.065, 473.453 471.623 C 476.492 469.632, 477.500 465.241, 477.500 454 C 477.500 444.894, 477.364 444.496, 470.306 433 C 463.228 421.472, 442.034 366.093, 433.942 337.984 C 431.079 328.037, 430.641 325.028, 430.671 315.500 C 430.707 303.828, 431.232 300.793, 436.170 283.696 C 437.980 277.431, 439.663 273.263, 440.176 273.776 C 440.662 274.262, 441.950 282.049, 443.038 291.080 C 445.367 310.428, 451.957 346.734, 455.457 359.500 C 456.814 364.450, 459.033 373.225, 460.388 379 C 463.513 392.314, 467.693 403.627, 474.088 416.076 C 478.675 425.006, 486.380 434.953, 487.693 433.640 C 488.448 432.885, 486.118 407.116, 484.380 397 C 483.051 389.258, 481.532 384.388, 473.560 362.292 C 469.013 349.686, 467.700 337.251, 468.464 314 C 468.834 302.725, 469.444 291.025, 469.818 288 L 470.500 282.500 473.223 286.059 C 474.720 288.016, 477.164 292.741, 478.652 296.559 C 481.280 303.297, 481.352 304.031, 481.132 321.640 C 480.875 342.203, 481.884 348.501, 487.429 360.940 C 489.812 366.283, 491.424 372.312, 492.927 381.500 C 496.760 404.918, 498.195 412, 499.104 412 C 499.604 412, 500.011 402.178, 500.026 389.750 L 500.051 367.500 503.500 372.914 C 508.071 380.087, 512.820 391.662, 514.558 399.862 C 516.261 407.897, 516.402 424.121, 514.846 433 C 513.370 441.420, 513.294 443.427, 514.439 443.831 C 515.341 444.150, 519.226 435.806, 526.015 418.962 C 527.781 414.583, 529.590 411, 530.036 411 C 531.894 411, 536.896 416.255, 537.439 418.777 C 537.761 420.275, 537.331 425.093, 536.484 429.484 C 535.637 433.876, 535.236 438.800, 535.594 440.428 C 536.212 443.243, 536.312 443.294, 537.647 441.467 C 538.419 440.412, 542.249 433.575, 546.158 426.274 C 550.066 418.973, 553.582 413, 553.972 413 C 555.188 413, 557 417.949, 557.008 421.297 C 557.013 423.059, 556.243 427.518, 555.298 431.206 C 554.353 434.895, 553.881 438.215, 554.250 438.584 C 554.619 438.953, 557.724 437.172, 561.148 434.627 C 567.453 429.942, 570 428.972, 570 431.257 C 570 431.948, 568.455 436.448, 566.568 441.257 C 564.680 446.066, 563.467 450, 563.872 450 C 565.803 450, 573.977 443.826, 578.058 439.284 C 582.365 434.490, 583.272 432.504, 587.771 418 C 588.057 417.077, 589.148 418.424, 590.605 421.500 C 593.293 427.174, 593.580 432.374, 591.894 444.901 C 591.285 449.422, 590.965 453.299, 591.182 453.516 C 591.914 454.247, 605.867 441.542, 609.322 437 C 611.204 434.525, 614.240 428.787, 616.069 424.250 C 617.897 419.712, 619.710 416, 620.097 416 C 621.567 416, 623.235 426.482, 622.742 432.621 C 622.085 440.813, 618.672 447.811, 611.438 455.805 C 604.610 463.351, 604.861 463.543, 620.340 462.611 C 640.912 461.372, 652.958 457.338, 662.972 448.335 C 669.510 442.457, 677.349 430.912, 680.717 422.202 C 684.297 412.944, 684.083 403.929, 679.621 376.069 C 677.645 363.732, 676.197 353.470, 676.402 353.265 C 676.607 353.060, 678.288 353.815, 680.137 354.942 C 686.964 359.104, 687.308 357.854, 682.883 344.973 C 681.169 339.983, 680.041 335.625, 680.377 335.289 C 681.258 334.409, 687.696 338.067, 690.427 341 C 691.707 342.375, 693.514 345.842, 694.442 348.703 C 695.506 351.984, 697.375 355, 699.499 356.865 C 702.999 359.938, 706.717 361.616, 707.746 360.588 C 708.906 359.427, 701.626 342.327, 694.908 330.434 C 687.014 316.459, 679.459 300.821, 678.514 296.500 C 677.677 292.668, 677.594 292.576, 690.397 309.750 C 700.504 323.308, 704.023 326.819, 702.426 321.750 C 702.036 320.512, 698.855 312.372, 695.358 303.661 C 688.975 287.760, 688.148 284.645, 690 283.500 C 692.273 282.095, 690.890 275.770, 686.485 267.418 C 684.002 262.710, 682.205 258.477, 682.493 258.012 C 683.464 256.441, 691.324 260.414, 695.266 264.470 C 697.420 266.687, 700.424 270.649, 701.941 273.275 L 704.700 278.051 705.303 270.224 C 706.509 254.589, 711.725 235.629, 718.983 220.500 C 723.496 211.091, 731.044 200.763, 732.424 202.107 C 732.766 202.440, 731.494 206.340, 729.597 210.773 C 724.056 223.718, 720.251 236.790, 718.381 249.302 C 716.724 260.381, 716.875 263.532, 718.961 261.433 C 719.471 260.920, 722.382 252.204, 725.429 242.065 C 728.476 231.926, 731.426 223.174, 731.985 222.615 C 732.672 221.928, 733 229.262, 733 245.300 C 733 258.335, 733.392 269, 733.870 269 C 734.349 269, 735.759 263.814, 737.005 257.476 C 738.250 251.137, 739.613 245.739, 740.033 245.480 C 740.913 244.936, 742.443 253.185, 744.110 267.464 C 744.876 274.034, 744.998 281.698, 744.466 289.964 C 743.339 307.494, 743.646 315.418, 745.763 323.432 C 749.174 336.349, 750 333.312, 750 307.861 C 750 285.031, 750.038 284.596, 751.877 286.528 C 752.911 287.614, 754.700 292.544, 755.860 297.500 C 757.018 302.450, 760.873 318.953, 764.427 334.172 C 767.981 349.392, 771.926 364.017, 773.195 366.672 C 775.855 372.244, 779.496 374.436, 787.899 375.527 L 793.299 376.229 792.714 372.864 C 792.392 371.014, 791.819 368.037, 791.439 366.250 C 790.130 360.076, 793.722 362.701, 806.241 377.066 C 823.345 396.692, 825.152 400.472, 817.978 401.620 C 815.766 401.973, 813.773 402.558, 813.550 402.919 C 813.327 403.280, 816.198 407.043, 819.931 411.280 C 826.250 418.452, 826.759 419.380, 827.309 424.742 C 827.707 428.619, 829.111 432.787, 831.610 437.500 C 833.650 441.350, 836.936 447.650, 838.910 451.500 C 844.669 462.728, 850.356 467.660, 866.826 475.707 C 874.622 479.516, 881 482.370, 881 482.048 C 881 481.727, 879.875 479.809, 878.500 477.785 C 875.357 473.159, 875.357 472, 878.500 472 C 881.555 472, 881.555 471.799, 878.500 460 C 875.908 449.992, 875.509 447, 876.763 447 C 877.183 447, 880.623 451.060, 884.407 456.023 C 888.192 460.985, 891.483 464.850, 891.721 464.612 C 892.299 464.034, 888.372 450.094, 885.387 442.131 C 882.264 433.799, 882.251 431, 885.333 431 C 888.074 431, 893.185 436.887, 895.990 443.275 C 897.747 447.278, 904.377 468.269, 911.537 492.500 C 913.324 498.550, 917.523 512.500, 920.867 523.500 C 930.150 554.034, 931.336 560.437, 931.425 580.500 C 931.466 589.850, 931.160 598.715, 930.744 600.200 C 930.328 601.685, 927.299 605.960, 924.015 609.700 C 920.730 613.440, 916.354 619.762, 914.292 623.750 C 912.230 627.737, 910.033 631, 909.412 631 C 908.790 631, 906.115 629.092, 903.466 626.761 L 898.650 622.522 888.575 622.527 C 877.292 622.533, 873.487 623.888, 866.986 630.217 C 862.287 634.791, 857 644.885, 857 649.281 C 857 652.458, 857.388 652.938, 861.179 654.455 C 868.779 657.496, 888.046 662, 893.453 662 C 897.151 662, 904.529 660.196, 917.673 656.077 C 937.499 649.864, 947.831 647.907, 959.541 648.149 C 963.414 648.228, 967.541 647.781, 968.711 647.155 C 971.677 645.567, 972.602 641.959, 975.034 622.500 C 976.202 613.150, 978.715 596.275, 980.618 585 C 985.523 555.938, 986.777 534.530, 984.633 516.443 C 983.724 508.775, 982.985 499.094, 982.990 494.932 C 983.006 482.891, 980.671 477.089, 970.545 464 C 968.630 461.525, 963.687 452.750, 959.561 444.500 C 955.435 436.250, 949.732 426.350, 946.889 422.500 C 939.541 412.550, 934.119 400.544, 926.045 376.345 C 922.170 364.733, 919 354.730, 919 354.116 C 919 351.549, 921.047 353.430, 925.908 360.462 C 931.814 369.004, 932.353 369.484, 933.921 367.596 C 934.828 366.502, 933.755 364.500, 928.784 358.016 C 925.328 353.508, 921.263 347.948, 919.750 345.660 C 916.771 341.152, 914.306 334.360, 915.293 333.374 C 915.630 333.037, 918.143 334.402, 920.876 336.409 C 926.005 340.174, 927.706 339.949, 926.627 335.650 C 926.318 334.420, 922.860 328.483, 918.942 322.457 C 909.839 308.456, 900.219 289.369, 898.901 282.692 C 897.735 276.788, 898.741 247.339, 900.063 248.667 C 900.787 249.394, 914.187 280.960, 918.777 292.750 C 921.154 298.857, 923.443 298.426, 925.459 291.495 C 929.046 279.154, 931.235 265.557, 930.767 258.513 C 930.239 250.542, 928.470 245.773, 915.745 218 C 911.083 207.825, 906.420 197.025, 905.384 194 C 903.367 188.111, 897.792 181.790, 886.637 172.746 L 880.774 167.992 884.482 166.443 C 888.830 164.626, 888.477 164.457, 900.489 174.120 C 908.516 180.578, 914.822 188.826, 917.079 195.822 C 917.732 197.845, 921.417 207.525, 925.269 217.334 C 931.440 233.047, 933.889 237.445, 935.545 235.789 C 935.797 235.536, 936.734 231.318, 937.628 226.415 C 939.959 213.630, 940.202 213.465, 944.406 221.814 C 946.397 225.766, 948.435 229, 948.935 229 C 950.566 229, 952.368 221.648, 952.368 215 C 952.367 206.674, 951.488 205.037, 937.117 186.579 C 917.503 161.388, 899.844 144.357, 887.823 139.040 C 880.028 135.592, 870.577 134.730, 853.226 135.886 C 832.122 137.292, 795.145 135.981, 791.669 133.703 C 790.331 132.826, 784.966 130.284, 779.747 128.055 C 770.341 124.036, 770.147 124, 757.879 124.027 C 751.070 124.042, 736.500 124.475, 725.500 124.990 C 696.530 126.345, 685.137 128.654, 664.279 137.396 C 649.115 143.751, 648.422 143.978, 641.146 144.971 C 632.374 146.168, 622.707 144.525, 613.725 140.310 C 604.220 135.849, 598.053 135.402, 593.246 138.825 C 589.675 141.368, 588.942 143.297, 585.582 159 C 581.576 177.723, 578.665 196.996, 578.671 204.750 C 578.675 208.738, 578.305 212, 577.849 212 C 577.393 212, 574.958 207.895, 572.438 202.877 C 566.716 191.483, 564.612 181.704, 565.423 170.276 L 566.008 162.053 561.063 158.144 C 551.308 150.433, 541.932 147.547, 534.550 149.983 C 531.741 150.911, 531.019 151.593, 531.518 152.850 C 531.879 153.758, 534.172 161.925, 536.613 171 C 540.421 185.150, 541.025 188.710, 540.856 196 C 540.470 212.713, 540.507 220.581, 541 225.987 L 541.500 231.474 536.672 232.359 C 532.442 233.135, 531.906 233.508, 532.342 235.372 C 535.032 246.878, 540.075 274.258, 539.593 274.741 C 539.253 275.081, 537.406 274.610, 535.487 273.695 C 533.489 272.743, 532 272.474, 532 273.067 C 532 273.636, 533.575 280.356, 535.500 288 C 537.425 295.644, 539 302.098, 539 302.342 C 539 303.873, 535.480 303.626, 532.535 301.888 C 527.939 299.176, 526.366 300.221, 528.859 304.329 C 529.918 306.073, 532.857 311.603, 535.392 316.619 C 539.086 323.929, 540 326.755, 540 330.869 C 540 334.101, 539.570 336, 538.838 336 C 538.198 336, 535.527 334.622, 532.902 332.937 C 524.963 327.843, 512.293 305.217, 509.909 291.879 C 508.766 285.481, 508.855 283.698, 510.827 273.644 C 513.173 261.676, 513.009 259.641, 508.978 250.761 C 506.054 244.320, 506.359 238.460, 509.789 235.173 C 511.323 233.703, 513.452 232.006, 514.520 231.403 C 516.333 230.379, 516.380 229.905, 515.232 224.342 C 513.518 216.044, 513.680 213.254, 516.104 209.332 C 518.557 205.362, 519.726 205.849, 522.497 211.994 C 524.609 216.676, 527 217.312, 527 213.193 C 527 211.649, 526.089 202.986, 524.975 193.943 C 522.589 174.560, 518.352 157.709, 512.976 146.220 C 508.268 136.158, 505.716 134.610, 494.863 135.235 C 491.110 135.450, 487.824 135.843, 487.561 136.106 C 487.297 136.370, 487.787 139.266, 488.649 142.543 C 491.478 153.292, 491.791 158.887, 490.263 171.467 C 488.515 185.865, 488.184 212.994, 489.416 240.854 C 490.288 260.565, 490.256 261.196, 488.416 260.842 C 486.934 260.556, 486.171 258.830, 484.944 252.988 C 484.078 248.870, 482.148 242.009, 480.654 237.742 C 476.615 226.205, 475.656 212.640, 476.432 178 C 477.179 144.649, 477.040 143.709, 469.978 134.354 C 467.534 131.117, 466 128.002, 466 126.275 C 466 122.425, 461.844 116.628, 457.660 114.643 C 453.554 112.694, 447.054 112.497, 444.714 114.250 C 443.196 115.387, 443.418 116.134, 447.166 122.500 C 459.352 143.196, 464.382 159.465, 462.210 171.149 C 459.930 183.406, 454.975 189.676, 449.528 187.195 C 446.322 185.734, 445.437 181.952, 446.859 175.792 C 449.566 164.064, 447.505 151.823, 440.122 135.766 C 435.849 126.473, 433.486 124.599, 429.041 126.978 C 427.207 127.959, 426.098 127.596, 421.385 124.467 C 413.993 119.561, 387.468 107, 384.498 107 C 383.196 107, 380.863 106.523, 379.315 105.941 C 375.584 104.537, 364 96.985, 364 95.956 C 364 95.511, 366.511 93.710, 369.581 91.954 C 372.650 90.198, 374.787 88.442, 374.331 88.052 C 373.874 87.662, 368.348 86.549, 362.051 85.580 C 347.245 83.299, 338.001 80.921, 324.796 75.994 C 318.908 73.797, 313.330 72, 312.400 72 C 310.865 72, 310.758 73.364, 311.235 86.836 C 311.674 99.216, 312.125 102.485, 313.960 106.586 C 316.443 112.136, 316.778 116.645, 314.968 120.129 C 312.875 124.154, 297.378 144.302, 293.529 148 C 290.323 151.080, 289.287 151.491, 284.897 151.426 C 281.371 151.374, 279.341 150.785, 277.976 149.420 C 272.738 144.183, 253.725 106.154, 250.982 95.430 C 249.078 87.985, 247.009 69.623, 247.003 60.112 L 247 54.724 240.596 55.380 C 234.481 56.006, 234.106 55.917, 232.270 53.396 C 229.794 49.998, 226 50.776, 226 54.681 C 226 58.392, 230.029 64.964, 233.359 66.686 C 236.505 68.313, 236.412 66.988, 234.389 81.334 C 233.680 86.360, 235.791 91.481, 238.990 92.497 C 241.662 93.345, 242.631 95.403, 243.465 102 C 244.692 111.714, 245.824 114.628, 249.442 117.388 C 255.320 121.872, 254.619 128.341, 247.045 139.501 C 244.431 143.352, 241.971 147.515, 241.579 148.752 C 240.501 152.147, 238.093 152.973, 232.801 151.762 C 227.428 150.532, 223.606 151.662, 219.940 155.563 C 217.744 157.902, 217.727 158.077, 219.315 162.121 C 220.213 164.406, 220.708 166.664, 220.415 167.138 C 220.122 167.612, 217.665 168, 214.956 168 C 209.520 168, 207.841 167.139, 188.444 154.409 C 170.987 142.951, 164.383 135.111, 163.293 124.547 C 162.734 119.134, 162.781 119, 165.240 119 C 167.044 119, 168.839 120.347, 171.566 123.750 C 173.659 126.362, 175.420 128.595, 175.480 128.710 C 175.539 128.826, 176.629 128.648, 177.901 128.316 C 181.697 127.323, 179.990 122.007, 172.207 110.578 C 167.139 103.135, 165.021 99.004, 164.107 94.779 C 162.415 86.958, 158.171 78.916, 151.030 70 C 147.726 65.875, 143.640 59.911, 141.951 56.746 L 138.878 50.991 135.482 53.581 C 131.502 56.617, 129.998 56.098, 130.006 51.691 C 130.017 45.233, 132.053 41.181, 139.652 32.488 C 145.510 25.788, 146.946 23.580, 145.882 22.906 C 145.122 22.425, 143.900 22.024, 143.167 22.015 C 140.825 21.988, 142.514 19.566, 146.315 17.500 C 150.889 15.014, 151.131 12.476, 146.875 11.625 C 141.047 10.459, 135.531 11.134, 122.500 14.607 M 100 71.774 C 96.533 72.900, 95 75.335, 95 79.721 C 95 85.236, 96.210 87.540, 100.184 89.595 C 105.333 92.258, 114 89.567, 114 85.305 C 114 83.264, 110.496 76.756, 108.355 74.820 C 105.935 72.632, 101.895 71.159, 100 71.774 M 71 124.920 C 71 125.426, 73.424 128.689, 76.388 132.170 C 79.351 135.652, 83.197 141.650, 84.935 145.500 C 90.518 157.871, 97.066 162.686, 117.684 169.585 C 123.621 171.571, 129.763 173.860, 131.332 174.672 C 132.902 175.483, 134.399 175.934, 134.660 175.673 C 135.555 174.778, 129.985 165.036, 127.742 163.573 C 126.509 162.769, 123.329 161.626, 120.675 161.034 C 110.050 158.664, 104.046 154.043, 99.195 144.500 C 95.219 136.679, 79.856 124, 74.356 124 C 72.510 124, 71 124.414, 71 124.920 M 276.022 183.171 L 276 203.841 279 204.500 C 280.650 204.862, 282 205.489, 282 205.892 C 282 206.295, 280.650 210.619, 279 215.500 C 273.668 231.273, 275.702 242.079, 284.873 246.706 C 291.437 250.018, 292.635 251.517, 294.430 258.659 C 296.833 268.228, 301.423 276.817, 304.552 277.602 C 305.950 277.953, 307.348 277.986, 307.659 277.675 C 308.276 277.058, 307.498 272.002, 302.938 247 C 298.658 223.534, 299.234 225.478, 297.124 227.388 C 296.144 228.274, 295.122 229, 294.853 229 C 294.584 229, 295.156 225.963, 296.124 222.250 C 297.092 218.537, 297.911 212.662, 297.942 209.193 C 298.003 202.569, 296.323 194, 294.964 194 C 294.525 194, 293.675 196.363, 293.074 199.250 C 289.716 215.407, 288.555 219.351, 287.876 216.922 C 287.504 215.590, 287.155 209.252, 287.100 202.838 C 286.947 185.018, 283.966 172.620, 278.001 165 L 276.044 162.500 276.022 183.171 M 11.185 176.081 C 6.864 177.397, 7.275 179.901, 12.208 182.312 C 16.111 184.220, 32.392 185.831, 35.545 184.621 C 37.159 184.002, 37.148 183.819, 35.386 181.834 C 31.086 176.991, 18.229 173.934, 11.185 176.081 M 250.181 200.281 C 249.596 200.986, 248.428 204.869, 247.586 208.910 C 244.631 223.083, 242.261 225.957, 222.087 239.836 C 210.222 247.999, 210.221 247.998, 227.918 245.483 C 233.647 244.668, 238.497 244.164, 238.695 244.362 C 238.893 244.560, 235.443 247.817, 231.028 251.600 C 226.612 255.383, 223 258.806, 223 259.207 C 223 259.607, 227.946 260.062, 233.992 260.217 L 244.983 260.500 239.081 272.672 C 235.834 279.367, 233.380 285.047, 233.627 285.293 C 234.426 286.093, 246.407 283.412, 249.648 281.709 C 253.226 279.828, 256.460 273.826, 257.532 267.075 C 257.919 264.641, 257.649 257.068, 256.934 250.245 C 255.905 240.435, 255.885 236.621, 256.837 232.008 C 258.395 224.466, 259.472 208.016, 258.628 204.652 C 258.258 203.181, 256.687 201.372, 255.035 200.518 C 251.484 198.682, 251.508 198.683, 250.181 200.281 M 309.477 246.037 C 308.435 247.723, 310.103 262.014, 312.106 268.554 C 314.576 276.622, 325.866 290, 330.205 290 C 331.742 290, 333 289.590, 333 289.090 C 333 288.589, 331.240 285.953, 329.088 283.231 C 323.671 276.377, 320.539 269.781, 318.578 261.099 C 316.972 253.982, 312.723 245, 310.964 245 C 310.499 245, 309.830 245.467, 309.477 246.037 M 800 318.533 C 800 319.377, 801.105 322.247, 802.455 324.911 C 803.805 327.576, 804.630 330.036, 804.288 330.378 C 803.946 330.720, 802.392 331, 800.833 331 C 799.275 331, 798 331.472, 798 332.050 C 798 333.707, 801.036 339.284, 803.267 341.724 C 805.406 344.064, 805.080 344.474, 800.500 345.200 C 797.924 345.608, 797.358 349.887, 799.378 353.684 C 800.203 355.233, 805.176 361.880, 810.431 368.455 C 817.429 377.211, 821.555 381.408, 825.855 384.142 C 830.241 386.930, 832.013 387.587, 832.863 386.737 C 833.488 386.112, 834 385.085, 834 384.455 C 834 383.825, 830.362 378.478, 825.916 372.572 C 821.470 366.667, 817.988 361.679, 818.178 361.489 C 818.368 361.298, 822.251 363.437, 826.807 366.240 C 834.251 370.822, 835.246 371.183, 836.624 369.804 C 838.003 368.426, 837.731 367.421, 833.944 359.885 C 828.607 349.265, 823.921 342.335, 812.566 328.269 C 804.123 317.810, 800 314.616, 800 318.533 M 785.149 413.147 C 787.218 421.603, 793.726 440.982, 794.500 440.992 C 795.114 441, 795.375 437.725, 795.177 432.502 C 794.900 425.230, 795.085 424, 796.458 424 C 797.341 424, 798.212 424.563, 798.394 425.250 C 800.236 432.196, 807.739 453.537, 814.477 471 C 824.812 497.785, 828.778 510.901, 826.894 512.066 C 826.022 512.605, 824.063 511.654, 821.184 509.295 C 817.682 506.425, 816.623 505.984, 815.916 507.102 C 815.429 507.871, 815.024 509.199, 815.015 510.054 C 814.991 512.566, 821.051 517.698, 827.306 520.460 C 834.119 523.469, 841.554 530.109, 847.506 538.500 C 852.473 545.504, 857.397 554.936, 856.535 555.798 C 856.206 556.127, 851.788 552.316, 846.718 547.328 C 836.863 537.632, 832.178 534.334, 829.640 535.308 C 828.770 535.642, 826.427 538.184, 824.435 540.958 C 821.658 544.824, 820.193 546.004, 818.156 546.015 C 812.946 546.045, 812.424 547.220, 814.829 553.504 C 817.914 561.568, 817.695 564.380, 813.750 567.323 C 809.547 570.459, 800.395 573.812, 791.223 575.577 C 787.220 576.347, 782.720 577.597, 781.223 578.355 C 779.725 579.113, 775.575 580.050, 772 580.438 C 759.265 581.819, 753.864 586.257, 750.626 598 C 747.626 608.881, 746.474 607.667, 764 612.089 C 772.525 614.240, 780.850 615.997, 782.500 615.993 C 784.150 615.989, 789.594 614.441, 794.598 612.554 C 803.917 609.038, 815.107 606.612, 827.500 605.421 C 831.350 605.051, 835.850 604.067, 837.500 603.233 C 844.640 599.626, 859.926 588.220, 864.839 582.834 C 867.775 579.614, 872.137 575.832, 874.531 574.429 C 882.059 570.017, 882.380 566.113, 876.923 545.417 C 875.315 539.322, 874 532.336, 874 529.895 C 874 525.782, 873.723 525.309, 870.250 523.477 C 861.638 518.936, 855.346 511.015, 852 500.500 C 849.954 494.071, 846.100 487.029, 840.438 479.372 C 837.532 475.443, 832.562 468.014, 829.393 462.864 C 822.772 452.101, 809.298 432.521, 804.143 426.170 C 800.780 422.027, 797.078 419.128, 788.649 414.038 C 785.908 412.382, 784.899 412.126, 785.149 413.147 M 925.835 444.224 C 924.358 445.389, 924.507 446.921, 927.552 461.892 C 932.555 486.482, 940.168 500.607, 950.557 504.575 C 955.999 506.653, 957.034 505.967, 957.692 499.837 C 958.184 495.249, 957.374 493.623, 936.569 457.430 C 928.593 443.555, 927.847 442.638, 925.835 444.224 M 345.327 481.500 C 344.872 482.600, 344.502 487.550, 344.505 492.500 C 344.508 499.332, 345.074 503.139, 346.855 508.306 C 349.608 516.295, 349.822 521.097, 347.577 524.523 C 345.203 528.146, 343.196 527.645, 342.480 523.250 C 341.242 515.655, 340.504 515.112, 338.513 520.328 C 336.796 524.824, 336.786 525.411, 338.348 531.027 C 339.257 534.296, 340 538.371, 340 540.084 C 340 544.497, 337.458 549.298, 334.058 551.306 L 331.149 553.025 329.524 547.262 C 328.630 544.093, 327.310 539.700, 326.590 537.500 L 325.282 533.500 324.120 537.500 C 323.481 539.700, 322.432 544.790, 321.790 548.812 L 320.622 556.123 325.734 561.025 C 330.143 565.252, 331.042 566.790, 332.279 572.213 C 333.067 575.671, 333.527 578.835, 333.300 579.245 C 333.073 579.655, 330.224 578.111, 326.967 575.814 L 321.046 571.639 314.753 577.682 C 305.584 586.487, 301.356 588.402, 291.500 588.218 C 287.100 588.135, 282.996 588.390, 282.381 588.784 C 281.351 589.443, 272.900 601.769, 266.711 611.638 C 262.398 618.516, 262.740 618.629, 291 619.631 C 320.498 620.677, 337.783 620.478, 346.220 618.995 C 356.421 617.201, 364 614.835, 364 613.444 C 364 612.733, 362.643 608.763, 360.985 604.623 C 358.361 598.069, 357.990 595.955, 358.120 588.297 C 358.202 583.450, 357.555 576.133, 356.678 572 C 355.803 567.875, 354.622 557.975, 354.054 550 C 350.834 504.798, 348.918 484.724, 347.583 482.200 C 346.231 479.645, 346.110 479.608, 345.327 481.500"/>
</svg>