<?xml version="1.0" encoding="utf-8"?>
<svg xmlns="http://www.w3.org/2000/svg" width="1002" height="590" viewBox="0 0 1002 590">
  <path fill-rule="evenodd" d="M 102.189 3.039 C 100.054 5.028, 100 5.673, 100 29.198 L 100 53.318 96.146 58.409 C 90.068 66.437, 78.783 78.492, 72.186 84.005 C 67.292 88.093, 65.818 90.047, 64.437 94.277 C 60.405 106.622, 57.470 111.581, 51.552 116.049 C 46.521 119.847, 25.369 133.569, 8.075 144.253 C 3.662 146.980, 2 148.600, 2 150.176 C 2 152.206, 9.378 161.623, 15 166.767 C 20.049 171.388, 26.888 174.109, 35.859 175.066 C 45.291 176.073, 50.104 177.289, 63 181.920 C 67.675 183.599, 72.589 184.979, 73.919 184.987 C 75.249 184.994, 82.641 182.940, 90.346 180.422 C 101.194 176.876, 105.155 175.994, 107.908 176.511 C 115.672 177.967, 117.110 180.234, 119.394 194.619 C 121.493 207.845, 121.420 213.038, 119 222.500 C 117.900 226.801, 117 230.698, 117 231.160 C 117 232.596, 121.688 232.081, 123 230.500 C 125.019 228.067, 125.533 228.678, 126.855 235.077 C 127.849 239.892, 128.382 240.928, 129.418 240.068 C 130.445 239.216, 131.205 240.296, 132.953 245.092 C 136.590 255.066, 141.522 262.395, 151.074 272.020 C 156.032 277.016, 160.520 282.237, 161.046 283.622 C 161.573 285.007, 162.503 289.371, 163.113 293.320 C 164.851 304.568, 169.783 326.183, 170.856 327.256 C 172.227 328.627, 173.850 327.354, 175.318 323.755 L 176.580 320.664 179.820 325.082 C 186.768 334.556, 216.463 363.066, 218.603 362.318 C 219.209 362.105, 221.445 363.859, 223.571 366.216 C 225.697 368.572, 229.025 371.247, 230.968 372.159 C 232.911 373.072, 237.875 376.688, 242 380.195 C 248.542 385.757, 249.540 387.046, 249.810 390.287 C 249.981 392.330, 248.477 402.888, 246.467 413.748 C 244.457 424.608, 242.424 438.984, 241.948 445.695 C 240.111 471.611, 225.187 513.775, 214.738 522.567 C 210.871 525.821, 208.614 526.696, 200.882 527.942 C 197.180 528.538, 193.544 529.873, 191.614 531.345 C 188.820 533.476, 181 545.044, 181 547.046 C 181 547.457, 184.796 548.358, 189.436 549.048 C 200.188 550.648, 200.612 550.915, 198.594 554.818 C 194.346 563.033, 198.032 565.033, 217.218 564.925 C 224.523 564.884, 236.892 564.538, 244.705 564.155 C 258.688 563.471, 258.959 563.413, 262.047 560.480 C 263.772 558.841, 266.047 555.821, 267.102 553.770 C 268.471 551.108, 270.887 548.966, 275.533 546.294 C 282.772 542.130, 282.975 541.740, 285.063 528 C 285.689 523.875, 288.152 515.100, 290.534 508.500 C 304.660 469.373, 315 436.977, 315 431.846 C 315 429.177, 319.998 418.647, 322.452 416.145 C 323.569 415.007, 324.765 415.231, 329.924 417.547 C 335.828 420.196, 336.284 420.251, 341.620 418.971 C 346.421 417.819, 348.324 417.861, 355.679 419.279 C 360.986 420.302, 365.875 421.969, 368.676 423.709 C 378.694 429.936, 381.130 431.164, 382.453 430.656 C 383.215 430.364, 385.338 427.558, 387.171 424.420 C 390.475 418.766, 390.576 418.694, 398.502 416.359 C 422.537 409.278, 430.184 407.979, 435.633 410.051 C 437.153 410.629, 442.695 411.492, 447.948 411.969 C 453.202 412.446, 459.750 413.355, 462.500 413.989 C 469.237 415.541, 480.753 414.543, 491.084 411.511 C 495.713 410.153, 500.030 409.033, 500.678 409.021 C 501.360 409.009, 502.145 411.309, 502.542 414.486 C 503.313 420.658, 507.189 429.519, 513.109 438.643 C 520.293 449.714, 546.421 466.975, 569 475.567 C 573.675 477.346, 580.425 479.984, 584 481.430 C 587.575 482.876, 594.696 485.705, 599.824 487.716 C 604.952 489.727, 609.805 492.302, 610.608 493.437 C 612.916 496.697, 617.285 511.731, 616.652 514.233 C 616.029 516.693, 595.860 533.342, 591.491 535.004 C 590.049 535.552, 584.633 536, 579.455 536 C 566.579 536, 563.469 537.376, 557.249 545.826 C 550.501 554.995, 550.529 554.928, 552.650 556.535 C 554.142 557.665, 560.302 557.934, 584.500 557.925 C 616.001 557.912, 621.757 557.413, 625.514 554.364 C 626.778 553.339, 633.142 548.385, 639.656 543.356 C 646.170 538.326, 653.605 532.026, 656.179 529.356 C 661.425 523.911, 675 502.024, 675 499.010 C 675 497.936, 673.869 494.500, 672.487 491.375 C 671.105 488.250, 670.097 485.569, 670.248 485.419 C 670.398 485.268, 681.523 485.529, 694.969 485.999 L 719.416 486.853 734.458 494.309 C 742.731 498.410, 751.351 503.127, 753.613 504.790 C 757.401 507.575, 761.530 513.904, 768.102 527 C 770.213 531.208, 776.943 559.959, 776.245 561.793 C 775.584 563.529, 769.762 566.383, 762.785 568.391 C 754.539 570.764, 752.160 573.233, 751.373 580.234 C 750.365 589.200, 749.857 589, 773.688 589 C 786.725 589, 794.923 588.597, 796.316 587.887 C 797.517 587.275, 801.323 584.012, 804.774 580.637 C 808.224 577.262, 813.370 573.375, 816.209 572 C 819.047 570.625, 821.832 568.736, 822.396 567.803 C 824.117 564.958, 821.626 552.133, 814.462 526.952 C 808.744 506.856, 807.876 502.763, 808.392 498.346 C 808.943 493.639, 808.603 492.411, 804.477 484.168 C 801.946 479.111, 798.539 473.944, 796.730 472.415 C 794.953 470.914, 786.750 466.390, 778.500 462.363 C 760.557 453.603, 755.563 450.062, 750.595 442.577 C 747.232 437.511, 737.345 428.322, 736.339 429.328 C 735.612 430.055, 747.012 450.403, 749.775 453.309 C 753.927 457.677, 765.081 463.799, 775.726 467.555 C 794.862 474.305, 796.969 477.211, 799.976 501 C 802.130 518.043, 805.430 532.641, 811.520 552.063 C 813.457 558.241, 814.781 564.016, 814.463 564.897 C 813.865 566.553, 800.162 577.160, 794.631 580.248 C 790.163 582.743, 760.552 582.880, 759.604 580.410 C 759.268 579.535, 759.229 578.438, 759.517 577.973 C 759.805 577.507, 765.038 574.510, 771.146 571.313 C 784.992 564.066, 785.635 563.212, 783.980 554.252 C 781.126 538.797, 772.604 515.102, 767.485 508.391 C 764.487 504.461, 756.370 498.255, 747.274 492.940 C 741.751 489.712, 741.175 489.100, 742.574 487.939 C 743.450 487.211, 747.392 486.355, 751.334 486.036 L 758.500 485.455 748.301 482.214 C 742.691 480.432, 737.831 478.535, 737.500 478 C 737.169 477.465, 732.430 474.080, 726.968 470.479 C 721.506 466.878, 714.497 461.707, 711.391 458.989 C 706.245 454.487, 695.509 449.157, 694.207 450.459 C 693.916 450.751, 695.653 453.332, 698.067 456.195 C 702.671 461.655, 702.481 461.662, 694.638 456.315 C 690.199 453.288, 684 451.818, 684 453.792 C 684 454.227, 686.016 456.562, 688.479 458.979 C 690.943 461.397, 692.771 463.563, 692.541 463.792 C 691.647 464.686, 676.642 455.569, 673.658 452.319 C 671.921 450.427, 669.330 447.589, 667.900 446.013 C 665.480 443.345, 658.694 440.972, 657.344 442.322 C 657.035 442.632, 657.667 444.148, 658.749 445.692 C 659.831 447.237, 661.298 449.610, 662.009 450.966 L 663.301 453.431 660.105 450.742 C 655.864 447.174, 649.175 445.100, 648.006 446.991 C 647.361 448.033, 645.362 447.034, 639.334 442.658 C 631.205 436.757, 629.284 436.781, 632.368 442.746 C 636.654 451.033, 651.242 462.979, 664.762 469.273 C 670.842 472.104, 672.476 472.417, 681.500 472.485 C 690.155 472.550, 692.240 472.915, 697 475.197 L 702.500 477.833 688.500 477.908 C 672.712 477.992, 653.545 476.538, 649.332 474.936 C 647.787 474.349, 643.525 470.973, 639.859 467.434 C 633.966 461.745, 632.740 461, 629.267 461 C 626.963 461, 623.305 459.924, 620.419 458.398 C 617.714 456.967, 613.700 454.892, 611.500 453.787 C 605.770 450.909, 603.335 448.392, 598.826 440.688 C 595.252 434.582, 592.700 431.966, 591.494 433.173 C 591.262 433.404, 591.732 435.781, 592.537 438.456 C 594.521 445.047, 594.429 445.925, 591.831 445.246 C 590.106 444.794, 589.794 445.020, 590.304 446.351 C 590.886 447.866, 590.690 447.890, 588.223 446.607 C 583.920 444.368, 581.181 440.840, 579.139 434.904 C 575.598 424.613, 571.428 418.239, 569.497 420.169 C 569.268 420.398, 569.963 423.419, 571.040 426.882 C 573.513 434.828, 573.503 435, 570.552 435 C 566.711 435, 556.159 425.636, 553.781 420.118 C 552.687 417.578, 550.717 413.250, 549.404 410.500 C 546.180 403.749, 543.306 390.161, 541.843 374.750 C 541.177 367.738, 540.353 362, 540.013 362 C 539.673 362, 538.612 364.137, 537.654 366.750 C 535.614 372.318, 526.642 384.884, 524.193 385.604 C 523.262 385.878, 521.223 386.756, 519.661 387.555 L 516.823 389.009 517.422 385.254 C 517.752 383.189, 517.550 380.825, 516.974 380 C 516.097 378.745, 515.487 379.072, 513.237 382 C 508.361 388.347, 503.532 392.438, 495.236 397.250 C 487.906 401.501, 484 402.974, 484 401.487 C 484 401.204, 486.335 397.615, 489.189 393.509 C 492.043 389.404, 494.112 385.778, 493.786 385.453 C 493.009 384.676, 487.534 387.524, 476.689 394.344 C 464.874 401.774, 462.549 402.468, 454.200 401.051 C 443.323 399.204, 443.260 399.166, 446.620 396.481 C 448.204 395.215, 449.173 393.850, 448.774 393.447 C 448.200 392.868, 425.393 397.096, 415.500 399.616 C 413.802 400.048, 413.877 399.823, 415.993 398.125 C 418.236 396.325, 418.309 396.056, 416.719 395.446 C 414.467 394.582, 399.769 398.243, 392.394 401.504 C 384.802 404.862, 383.468 404.702, 380.554 400.086 C 377.350 395.010, 374.103 392.670, 372.318 394.151 C 371.593 394.753, 371 395.835, 371 396.557 C 371 397.279, 370.534 399.096, 369.964 400.596 L 368.927 403.322 365.714 400.222 C 362.021 396.660, 358.213 395, 353.739 395 L 350.608 395 353.606 398.250 C 359.700 404.856, 359.926 405.532, 355.156 402.894 C 352.776 401.577, 349.404 399.713, 347.664 398.752 C 343.871 396.656, 341.988 396.557, 339.565 398.329 C 337.907 399.541, 338.464 400.159, 345.959 405.410 C 350.475 408.575, 353.937 411.397, 353.652 411.682 C 353.367 411.966, 348.111 409.117, 341.972 405.350 L 330.810 398.500 331.405 392.603 C 331.732 389.360, 332 385.423, 332 383.853 C 332 381.476, 332.417 381, 334.500 381 C 336.817 381, 337 380.651, 337 376.237 C 337 372.443, 336.282 370.408, 333.473 366.237 C 331.534 363.356, 330.129 361, 330.351 361 C 330.574 361, 332.297 361.644, 334.181 362.431 C 336.331 363.330, 338.141 363.531, 339.046 362.972 C 341.206 361.637, 334.563 355.281, 322.197 346.851 C 309.216 338.002, 305.830 334.598, 301.547 326.094 C 297.525 318.106, 292.215 312.864, 290.767 315.451 C 289.431 317.840, 291.702 327.277, 294.678 331.699 C 296.085 333.790, 299.320 337.953, 301.868 340.952 C 316.823 358.554, 319.345 363.811, 319.402 377.500 C 319.438 385.924, 319.069 387.570, 313.644 403.210 C 307.601 420.629, 305.094 431.649, 305.035 441.047 C 304.994 447.504, 299.950 463.165, 292.097 481.216 C 289.294 487.660, 287 493.680, 287 494.595 C 287 495.510, 285.943 499.237, 284.652 502.879 C 283.361 506.521, 281.795 512.200, 281.172 515.500 C 280.549 518.800, 279.570 523.982, 278.997 527.016 C 277.549 534.681, 275.388 537.753, 268.520 541.908 C 265.140 543.953, 260.982 547.618, 258.866 550.419 C 256.822 553.124, 254.522 555.688, 253.756 556.117 C 252.304 556.929, 207.978 559.312, 207.281 558.614 C 206.353 557.686, 209.928 551.277, 212.207 549.784 C 213.571 548.890, 217.281 547.680, 220.453 547.093 C 230.825 545.176, 234.431 541.828, 243.535 525.660 C 248.008 517.717, 249.150 516.379, 252.202 515.506 C 256.912 514.158, 258.711 512.504, 261.542 506.917 C 265.247 499.605, 265.988 491.682, 266.173 457.367 C 266.322 429.901, 266.054 423.331, 264.233 409.798 C 263.072 401.161, 261.570 393.065, 260.896 391.806 C 260.222 390.547, 257.357 387.263, 254.529 384.508 C 251.701 381.754, 248.048 377.925, 246.411 376 C 244.773 374.075, 240.974 370.308, 237.967 367.629 C 230.878 361.313, 226.283 354.452, 221.017 342.322 C 216.525 331.976, 207.001 318, 204.442 318 C 203.202 318, 203.053 318.920, 203.612 323.132 L 204.293 328.264 198.349 321.875 C 191.874 314.915, 192.195 315.820, 186.399 288.225 C 184.706 280.163, 184.711 279.879, 186.601 277.225 C 189.818 272.707, 192.806 265.111, 196.043 253.218 C 199.227 241.525, 199.208 238.717, 195.932 236.964 C 194.170 236.021, 194 236.287, 194 239.997 C 194 242.234, 193.230 245.737, 192.289 247.782 L 190.578 251.500 190.039 245.078 C 189.717 241.245, 188.996 238.490, 188.250 238.245 C 187.563 238.018, 187 238.292, 187 238.852 C 187 239.412, 185.120 245.168, 182.822 251.643 L 178.644 263.416 176.986 258.458 C 176.074 255.731, 174.916 253.576, 174.414 253.670 C 173.911 253.763, 172.600 256.696, 171.500 260.188 C 168.671 269.167, 168.679 269.159, 162.761 268.374 C 158.037 267.747, 157.723 267.835, 158.405 269.599 C 158.809 270.645, 159.388 272.850, 159.691 274.500 L 160.242 277.500 157.576 274 C 152.650 267.535, 149.821 260.305, 148.288 250.264 C 146.410 237.966, 145.591 235.780, 142.087 233.710 C 139.154 231.978, 138 228.764, 138 222.327 C 138 219.910, 137.222 218.184, 135.354 216.452 C 132.739 214.028, 132.721 213.919, 133.851 207.250 C 134.480 203.537, 135.256 199.555, 135.575 198.400 C 135.995 196.878, 135.033 195.004, 132.077 191.589 L 128 186.878 128 174.564 C 128 167.791, 127.719 160.847, 127.377 159.133 C 127.024 157.372, 123.941 152.721, 120.292 148.443 C 116.738 144.278, 112.956 138.893, 111.887 136.477 C 110.818 134.060, 109.477 131.795, 108.908 131.443 C 108.339 131.092, 106.113 132.711, 103.961 135.042 L 100.048 139.281 94.274 138.395 C 91.098 137.908, 81.129 137.507, 72.120 137.504 C 57.810 137.501, 55.604 137.286, 54.659 135.803 C 52.697 132.726, 55.062 128.768, 60.814 125.500 L 66.093 122.500 65.529 118 C 65.114 114.687, 65.695 111.126, 67.732 104.501 L 70.500 95.502 87.707 78.648 C 100.080 66.528, 105.249 60.775, 106.109 58.169 C 106.975 55.547, 107.129 48.474, 106.667 32.587 C 106.316 20.510, 106.404 11.050, 106.864 11.564 C 109.590 14.618, 115.376 38.153, 115.084 45 C 114.465 59.529, 115.304 65, 118.153 65 C 118.892 65, 119.019 62.699, 118.554 57.732 C 118.138 53.296, 118.287 49.375, 118.936 47.668 C 119.727 45.588, 119.627 43.081, 118.546 37.897 C 117.168 31.290, 117.303 28, 118.952 28 C 120.400 28, 122.971 31.666, 124.437 35.820 C 126.740 42.348, 129.995 60.827, 130.017 67.500 C 130.028 70.800, 130.693 77.211, 131.495 81.746 C 132.945 89.939, 132.390 95, 130.043 95 C 129.178 95, 121.614 80.192, 118.166 71.750 C 116.382 67.381, 114.227 68.241, 114.406 73.250 C 114.558 77.494, 115.747 81.304, 121.037 94.500 C 122.580 98.350, 124.392 102.984, 125.062 104.797 C 126.654 109.101, 130.955 111.352, 135.966 110.506 C 139.505 109.908, 139.792 110.049, 140.403 112.683 C 141.362 116.820, 149.160 134, 150.079 134 C 150.511 134, 151.151 133.100, 151.500 132 C 151.849 130.900, 152.461 130, 152.860 130 C 153.259 130, 154.816 133.938, 156.320 138.750 C 159.802 149.890, 160.339 150.793, 162.448 149.043 C 163.328 148.313, 164.254 147.921, 164.506 148.173 C 164.758 148.425, 167 152.989, 169.490 158.315 C 173.820 167.583, 175.134 169.210, 176.500 167 C 177.588 165.240, 178.588 165.912, 180.335 169.577 C 182.331 173.762, 184.650 173.662, 184.172 169.413 C 183.627 164.569, 176.050 129.661, 175.029 127.287 C 174.505 126.069, 172.167 123.868, 169.834 122.395 C 164.266 118.880, 162.454 116.539, 160.630 110.500 C 158.859 104.635, 155.430 80.237, 156.260 79.407 C 156.573 79.093, 159.455 80.898, 162.665 83.418 C 172.348 91.020, 174.932 89.217, 167.505 80.040 C 165.074 77.038, 163.247 74.420, 163.443 74.223 C 163.640 74.026, 166.081 75.021, 168.867 76.433 C 173.951 79.009, 181 79.900, 181 77.966 C 181 77.398, 179.313 75.935, 177.250 74.716 C 173.848 72.706, 173.712 72.470, 175.782 72.176 C 179.478 71.652, 185.944 75.440, 194.784 83.308 C 204.909 92.320, 209.015 94.435, 222.766 97.722 C 228.670 99.134, 233.882 100.628, 234.349 101.043 C 234.816 101.458, 233.803 102.104, 232.099 102.478 C 228.392 103.292, 228.092 104.555, 231.408 105.388 C 232.732 105.720, 239.714 109.144, 246.922 112.996 C 254.131 116.848, 260.472 120, 261.014 120 C 262.954 120, 261.945 117.324, 258.788 114.094 C 257.022 112.288, 252.102 109.063, 247.857 106.928 C 241.359 103.661, 240.087 102.614, 239.819 100.312 C 239.522 97.767, 238.668 97.300, 227.510 93.581 C 215.799 89.677, 215.334 89.408, 207.510 81.988 C 199.259 74.164, 193.451 70.384, 174.500 60.508 C 168.450 57.355, 161.844 53.190, 159.820 51.253 C 157.796 49.316, 153.309 43.179, 149.847 37.616 C 137.409 17.624, 134.749 15, 126.916 15 C 124.335 15, 122.534 13.737, 116.932 8 C 109.415 0.302, 106.264 -0.758, 102.189 3.039 M 82.143 93.012 C 76.220 97.302, 75.426 99.512, 77.384 106.249 C 78.262 109.268, 79.665 112.307, 80.502 113.002 C 81.675 113.975, 81.759 114.585, 80.870 115.657 C 78.946 117.975, 80.650 118.348, 87.009 116.998 C 90.806 116.192, 95.837 115.946, 100.485 116.339 C 112.491 117.354, 111.762 113.289, 99.341 109.958 C 92.201 108.043, 83 103.514, 83 101.915 C 83 100.867, 85.630 98.316, 89.405 95.703 C 92.495 93.564, 93.161 89.308, 90.153 90.918 C 88.955 91.559, 87.964 91.564, 87.332 90.932 C 86.700 90.300, 84.878 91.030, 82.143 93.012 M 242 116.890 C 242 119.256, 249.259 129.061, 255.376 134.958 C 257.919 137.410, 260 139.720, 260 140.092 C 260 140.463, 259.053 141.014, 257.895 141.317 C 256.737 141.620, 255.974 142.423, 256.201 143.102 C 256.784 144.852, 270.732 150.531, 279.555 152.611 C 283.650 153.576, 286.997 154.621, 286.994 154.933 C 286.990 155.245, 285.632 156.271, 283.976 157.213 C 279.187 159.939, 279.096 161.876, 283.574 165.774 C 287.382 169.087, 287.440 169.232, 285.500 170.610 C 274.993 178.070, 274.501 178.571, 274.199 182.128 C 274.006 184.410, 274.451 186.129, 275.449 186.958 C 277.067 188.301, 277.577 191, 276.212 191 C 275.779 191, 273.882 192.287, 271.998 193.861 L 268.571 196.722 270.452 200.894 C 271.864 204.024, 272.048 205.352, 271.190 206.210 C 270.333 207.067, 269.604 206.966, 268.274 205.805 C 267.298 204.954, 265.531 203.757, 264.347 203.145 L 262.195 202.034 263.750 206.898 C 264.606 209.573, 265 212.558, 264.627 213.531 C 263.997 215.172, 263.783 215.145, 261.659 213.150 C 258.706 210.375, 257 210.418, 257 213.268 C 257 217.483, 261.614 222.826, 266.262 223.994 C 268.593 224.579, 272.212 225.693, 274.304 226.470 C 278.957 228.196, 279.766 227.060, 278.221 220.971 C 277.276 217.248, 278.084 214.709, 279.490 216.984 C 280.527 218.661, 281.823 218.139, 282.552 215.750 C 282.929 214.512, 284.180 211.475, 285.331 209 C 286.568 206.341, 287.444 202.382, 287.473 199.322 C 287.500 196.474, 287.843 193.824, 288.235 193.432 C 288.626 193.040, 291.321 194.348, 294.223 196.338 C 297.126 198.329, 300.625 200.079, 302 200.228 C 304.273 200.475, 304.528 200.119, 304.805 196.298 C 304.973 193.988, 304.179 189.081, 303.040 185.394 C 301.185 179.387, 301.127 178.517, 302.485 177.017 C 303.318 176.096, 304 174.815, 304 174.171 C 304 170.614, 313.065 174.166, 326.698 183.066 C 333.271 187.357, 335.051 188.075, 338.471 187.815 L 342.500 187.510 346.089 198.248 C 349.964 209.841, 352.008 213, 355.636 213 C 357.385 213, 358.596 211.822, 360.520 208.250 L 363.078 203.500 362.620 214.500 C 362.253 223.323, 361.454 227.872, 358.581 237.483 C 354.647 250.646, 354.252 254.135, 356.487 255.989 C 358.674 257.804, 360.891 256.506, 362.604 252.406 C 365.496 245.483, 365.088 249.856, 361.554 263.637 C 357.827 278.174, 357.205 284.674, 359.191 288.316 C 359.867 289.555, 360.272 293.403, 360.126 297.209 C 359.939 302.111, 360.392 305.098, 361.809 308.301 C 364.887 315.260, 372.519 319.556, 373.710 315 C 373.998 313.900, 374.673 313, 375.210 313 C 375.747 313, 380.307 316.077, 385.343 319.839 C 402.770 332.854, 411.071 337.827, 416.573 338.547 C 423.342 339.433, 425 337.835, 425 330.429 C 425 327.443, 425.372 325, 425.826 325 C 426.280 325, 427.742 326.185, 429.076 327.632 C 431.456 330.217, 440.292 334.971, 442.750 334.990 C 443.438 334.996, 444.905 334.095, 446.011 332.989 L 448.022 330.978 452.978 333.489 C 458.800 336.439, 466.982 336.932, 469.037 334.456 C 470.098 333.177, 469.946 332.249, 468.159 329.070 C 465.317 324.012, 465.433 323.460, 468.834 325.882 C 472.336 328.376, 501.771 341, 504.084 341 C 506.136 341, 506.968 338.189, 506.986 331.193 L 507 325.887 510.163 327.693 C 515.321 330.640, 520.097 335.971, 522.553 341.523 C 524.871 346.765, 526.571 347.955, 531.786 347.986 C 533.565 347.997, 534.522 346.948, 536.107 343.251 C 537.872 339.132, 538.277 338.744, 539.163 340.326 C 539.724 341.329, 542.266 343.042, 544.812 344.134 C 549.202 346.016, 549.507 346.028, 550.720 344.368 C 551.424 343.405, 552 340.454, 552 337.809 C 552 335.164, 552.387 333, 552.861 333 C 553.887 333, 557.213 339.625, 559.516 346.252 C 560.771 349.865, 561.786 351.159, 563.752 351.653 C 566.844 352.429, 568.676 350.488, 573.330 341.503 C 576.050 336.254, 576.424 334.570, 576.311 328.096 C 576.239 324.024, 575.888 318.737, 575.529 316.346 C 575.171 313.956, 575.251 312, 575.708 312 C 576.165 312, 577.880 315.359, 579.519 319.464 C 581.589 324.649, 582.689 326.405, 583.122 325.214 C 583.567 323.992, 584.080 324.720, 584.912 327.750 C 586.228 332.549, 587.198 332.983, 589.443 329.777 C 590.555 328.190, 591 325.132, 591 319.077 C 591 312.484, 591.267 310.867, 592.200 311.800 C 594.453 314.053, 595 312.999, 595.081 306.250 C 595.158 299.864, 595.232 299.658, 596.453 302.425 L 597.743 305.349 598.941 303.111 C 600.817 299.604, 598.694 292.093, 592.400 279.980 C 584.287 264.364, 576.134 254.146, 560.809 240.382 C 553.489 233.808, 545.800 227.145, 543.723 225.575 C 541.645 224.005, 540.090 222.576, 540.267 222.399 C 540.862 221.805, 574.431 236.084, 581 239.726 C 596.284 248.199, 647.909 285.820, 645.931 287.043 C 645.103 287.555, 647.794 291.238, 654.353 298.568 C 659.655 304.493, 663.819 309.515, 663.606 309.727 C 663.394 309.939, 660.150 308.234, 656.397 305.937 C 650.829 302.529, 643.187 299, 641.374 299 C 639.631 299, 642.555 301.842, 651.591 308.930 C 666.762 320.831, 674.499 328.376, 679.565 336.207 C 682.004 339.977, 684 343.304, 684 343.599 C 684 343.893, 683.034 343.828, 681.854 343.454 C 680.033 342.876, 679.791 343.093, 680.260 344.886 C 680.958 347.556, 679.843 347.588, 677.471 344.968 C 675.119 342.369, 669.060 338.607, 668.358 339.309 C 667.564 340.103, 674.825 350.385, 682.535 359.385 C 689.539 367.561, 694.221 370.933, 717 384.211 C 722.775 387.577, 729.898 392.169, 732.829 394.416 C 735.759 396.662, 739.764 399.738, 741.727 401.250 C 743.691 402.762, 745.936 404, 746.716 404 C 749.558 404, 746.772 399.476, 739.171 391.750 C 734.978 387.488, 731.928 384, 732.394 384 C 732.860 384, 737.478 387.591, 742.658 391.980 C 747.837 396.369, 754.195 401.157, 756.787 402.620 C 765.058 407.290, 769.200 410.133, 768.603 410.731 C 768.283 411.050, 766.347 411.583, 764.300 411.916 L 760.579 412.521 765.539 415.670 C 768.268 417.403, 772.075 419.270, 774 419.820 C 782.398 422.220, 800.469 429.671, 812 435.489 C 829.654 444.397, 854.007 452.415, 855.596 449.844 C 856.343 448.637, 856.806 448.927, 848.836 445.616 C 842.830 443.121, 838.015 439.646, 839.089 438.581 C 839.315 438.357, 841.525 438.565, 844 439.043 C 846.475 439.522, 852.325 439.934, 857 439.961 C 862.415 439.991, 870.762 441.103, 880 443.026 C 887.975 444.685, 897.913 446.319, 902.084 446.657 C 909.218 447.234, 909.811 447.125, 912.084 444.815 C 913.413 443.465, 915.760 441.579, 917.300 440.624 C 919.247 439.417, 919.926 438.341, 919.529 437.091 C 919.026 435.508, 919.824 435.221, 926.208 434.686 C 931.828 434.215, 935.147 433.226, 940.978 430.289 C 949.430 426.032, 950.679 423.680, 944.750 423.190 C 942.688 423.019, 941.014 422.569, 941.032 422.190 C 941.050 421.810, 947.237 418.490, 954.782 414.812 C 962.327 411.134, 973.179 405.163, 978.899 401.544 C 984.618 397.925, 989.469 395.136, 989.680 395.347 C 990.454 396.120, 976.002 410.636, 970.114 415 C 966.775 417.475, 964.033 419.829, 964.021 420.231 C 964.010 420.633, 966.095 420.675, 968.656 420.324 C 971.407 419.946, 973.080 420.062, 972.744 420.606 C 972.431 421.112, 966.539 424.896, 959.651 429.013 C 952.764 433.131, 947.461 436.839, 947.867 437.253 C 948.274 437.667, 952.618 436.650, 957.522 434.993 C 962.425 433.335, 966.892 432.131, 967.449 432.316 C 968.869 432.790, 960.724 438.523, 954.606 441.355 C 951.798 442.656, 946.350 444.487, 942.500 445.424 C 934.678 447.328, 926.596 451.538, 927.611 453.180 C 928.015 453.833, 930.251 454.033, 933.385 453.696 C 937.548 453.249, 938.035 453.342, 936 454.197 C 934.625 454.775, 926.163 455.633, 917.195 456.105 C 898.763 457.074, 895.387 457.990, 901.218 460.439 C 903.263 461.297, 906.525 462, 908.468 462 C 913.605 462, 912.794 463.752, 907.250 464.630 C 901.189 465.591, 896.060 465.569, 888.357 464.550 C 881.958 463.704, 875 464.447, 875 465.977 C 875 466.465, 878.488 467.623, 882.750 468.551 C 894.055 471.013, 894.432 472.431, 883.500 471.372 C 872.800 470.335, 856.516 470.612, 854.271 471.868 C 852.866 472.654, 852.904 472.827, 854.587 473.302 C 860.008 474.832, 881.917 477.174, 887.222 476.790 C 892.222 476.429, 893.683 475.896, 895.405 473.810 C 896.932 471.959, 898.856 471.095, 902.500 470.622 C 905.275 470.263, 911.506 468, 916.500 465.538 C 921.450 463.099, 930 459.738, 935.500 458.069 C 941 456.401, 947.604 453.790, 950.176 452.268 C 961.353 445.652, 977.158 430.395, 977.489 425.903 C 977.569 424.819, 979.319 421.916, 981.378 419.452 C 983.437 416.989, 986.244 412.617, 987.615 409.737 C 988.987 406.856, 991.434 402.250, 993.054 399.500 C 997.145 392.558, 1001.409 378.764, 1000.538 375.294 L 999.850 372.554 996.400 376.707 C 990.307 384.043, 980.401 390.870, 952.500 406.965 C 928.003 421.097, 909.151 424.264, 874.500 420.072 C 864.600 418.874, 853.350 417.046, 849.500 416.011 C 845.650 414.975, 838.465 413.391, 833.533 412.491 C 821.836 410.356, 802.154 403.176, 792.735 397.607 C 753.365 374.331, 737.313 361.351, 697.672 320.736 C 679.186 301.796, 664.927 288.064, 660.172 284.621 C 655.953 281.566, 645.113 273.835, 636.084 267.443 C 627.055 261.050, 616.659 253.419, 612.982 250.486 C 594.629 235.842, 576.596 227.044, 538.500 214.145 C 528.600 210.794, 514.200 205.745, 506.500 202.926 C 479.910 193.191, 440.689 181.336, 425.810 178.536 C 421.240 177.676, 413.675 175.879, 409 174.543 C 395.973 170.821, 392.879 170.255, 370.636 167.529 C 346.958 164.626, 332.997 161.780, 328.347 158.905 C 326.571 157.808, 322.936 154.522, 320.268 151.602 L 315.417 146.295 306.958 145.572 C 300.653 145.034, 296.591 144.004, 291 141.527 C 286.875 139.700, 280.814 137.443, 277.530 136.511 C 272.176 134.991, 264 131.450, 264 130.650 C 264 130.480, 266.427 130.781, 269.393 131.318 C 280.717 133.371, 278.990 131.278, 262.503 122.970 C 246.186 114.748, 242 113.506, 242 116.890 M 14 147.141 C 7.507 150.826, 7.499 150.832, 8.254 151.587 C 9.206 152.539, 16.136 153.885, 17.463 153.376 C 19.091 152.751, 23.137 145.471, 22.314 144.648 C 21.161 143.494, 19.599 143.963, 14 147.141 M 733.656 404.652 L 741.500 413.305 737.652 412.589 C 733.570 411.829, 733.458 412.355, 736.862 416.311 C 738.157 417.816, 738.190 418.265, 737.058 418.964 C 734.923 420.284, 740.102 428.228, 748.929 437.170 C 754.658 442.974, 757.516 445.107, 760.678 445.939 C 762.977 446.544, 766.732 448.605, 769.023 450.519 C 771.587 452.662, 774.259 454, 775.972 454 C 777.503 454, 779.349 454.716, 780.075 455.590 C 783.767 460.039, 794.775 466.466, 804.772 470.011 C 810.672 472.103, 819.272 475.488, 823.881 477.533 C 829.761 480.142, 834.238 481.405, 838.881 481.766 C 845.380 482.272, 845.469 482.246, 843.771 480.335 C 842.820 479.265, 839.812 477.817, 837.087 477.119 C 831.296 475.635, 823.147 470.930, 816.153 465.032 C 813.036 462.404, 808.896 460.136, 805.008 458.925 C 796.401 456.246, 795.860 456.523, 800.959 461 C 803.412 463.153, 805.212 465.115, 804.959 465.359 C 804.032 466.256, 775.934 446.966, 771.642 442.487 C 768.656 439.371, 767.033 438.293, 766.664 439.182 C 766.016 440.739, 750.059 424.311, 750.023 422.050 C 750.005 420.922, 750.267 420.867, 751.200 421.800 C 752.789 423.389, 754 423.321, 754 421.643 C 754 419.468, 728.880 396, 726.553 396 C 726.145 396, 729.342 399.894, 733.656 404.652 M 826 465.654 C 826 467.131, 842.349 476.923, 848.321 479.022 C 854.489 481.189, 860.425 481.549, 864.495 480.002 C 868.338 478.541, 866.751 477.230, 860.234 476.482 C 856.563 476.060, 850.722 474.077, 844 470.970 C 833.672 466.197, 826 463.931, 826 465.654 M 752.167 466.978 C 752.350 467.516, 758.309 471.903, 765.409 476.728 C 777.875 485.199, 778.386 485.686, 780.296 490.931 C 782.656 497.409, 788.707 508, 790.048 508 C 791.508 508, 791.198 504.609, 788.920 495.667 C 786.283 485.310, 784.060 481.749, 777.647 477.600 C 774.816 475.770, 771.375 473.043, 770 471.541 C 768.625 470.039, 766.285 468.178, 764.800 467.405 C 761.739 465.812, 751.653 465.471, 752.167 466.978 M 655.876 485.720 C 657.095 487.491, 658.522 489.205, 659.047 489.529 C 660.291 490.298, 660.246 495.081, 658.977 497 C 658.134 498.274, 657.706 498.139, 656.126 496.101 C 654.470 493.965, 654.165 493.883, 653.338 495.360 C 652.531 496.803, 651.969 496.563, 649.009 493.509 C 645.240 489.621, 643.348 488.914, 645.007 492.013 C 645.624 493.167, 645.728 494.663, 645.250 495.517 C 644.580 496.715, 643.155 495.940, 637.983 491.562 C 634.445 488.568, 631.358 486.309, 631.123 486.544 C 630.889 486.778, 632.272 489.342, 634.196 492.240 C 641.143 502.703, 642.572 507.183, 639.357 508.417 C 638.453 508.763, 637.631 508.924, 637.531 508.774 C 637.430 508.623, 636.318 506.789, 635.060 504.697 C 633.801 502.606, 632.615 501.052, 632.423 501.244 C 632.231 501.436, 632.732 503.781, 633.537 506.456 C 635.579 513.241, 635.418 516.706, 633 518 C 631.305 518.907, 631 518.760, 631 517.035 C 631 514.267, 629.390 514.475, 627.408 517.500 C 625.183 520.896, 624.008 520.641, 623.958 516.750 L 623.916 513.500 622.208 516.648 C 619.856 520.984, 602.412 536.750, 597.411 539.061 C 594.434 540.437, 589.815 541.139, 580.419 541.641 C 568.095 542.300, 567.392 542.454, 564.758 545.088 C 563.241 546.605, 562 548.556, 562 549.423 C 562 551.727, 563.938 551.671, 608.169 548.083 L 617.838 547.299 625.178 541.775 C 634.497 534.761, 650.680 520.037, 653.064 516.402 C 654.067 514.873, 655.177 511.909, 655.531 509.816 C 656.115 506.359, 658 503.401, 658 505.941 C 658 508.184, 659.855 506.854, 660.898 503.863 C 661.499 502.138, 662.728 500.188, 663.628 499.530 C 665.016 498.515, 665.088 497.813, 664.102 494.917 C 662.776 491.025, 661.787 489.705, 657.043 485.500 L 653.659 482.500 655.876 485.720 M 242.249 486.250 C 241.500 489.238, 231.846 507.773, 227.499 514.569 C 225.600 517.537, 223.753 521.211, 223.395 522.733 C 222.524 526.424, 218.389 530.731, 214.585 531.908 C 212.888 532.433, 208.693 533.162, 205.262 533.528 C 198.845 534.213, 194.981 536.298, 192.890 540.205 C 191.390 543.009, 192.801 543.719, 201.452 544.517 C 208.440 545.162, 219.148 543.132, 224.847 540.082 C 227.317 538.760, 240.940 520.768, 245.353 513 L 248.477 507.500 249.081 510.500 C 249.743 513.785, 250.195 513.153, 251.940 506.500 C 253.392 500.961, 253.289 499.952, 251.343 500.699 C 249.875 501.262, 249.761 500.687, 250.351 495.667 C 250.718 492.550, 250.825 490, 250.589 490 C 250.353 490, 249.394 492.363, 248.457 495.250 C 245.106 505.579, 242.567 503.798, 243.468 491.750 C 244.025 484.288, 243.422 481.567, 242.249 486.250"/>
</svg>