<?xml version="1.0" encoding="utf-8"?>
<svg xmlns="http://www.w3.org/2000/svg" width="1002" height="668" viewBox="0 0 1002 668">
  <path fill-rule="evenodd" d="M 829.010 2.237 C 829.015 2.931, 830.118 5.859, 831.460 8.743 C 834.029 14.260, 834.095 14.305, 846.324 19.011 C 850.477 20.609, 852.456 20.944, 853.222 20.178 C 853.989 19.411, 853.088 18.619, 850.083 17.417 C 847.766 16.489, 846.236 15.365, 846.685 14.918 C 847.133 14.472, 851.615 13.796, 856.645 13.418 C 864.840 12.800, 866.760 13.011, 875.145 15.449 C 890.143 19.809, 900.351 25.315, 910.886 34.728 C 912.874 36.504, 915.715 38.881, 917.200 40.011 C 919.196 41.530, 920.589 44.337, 922.547 50.783 C 924.003 55.577, 926.995 63.744, 929.196 68.931 C 932.382 76.440, 933.076 79.123, 932.601 82.094 C 932.074 85.388, 932.365 86.129, 935.079 88.413 C 936.798 89.860, 939.399 91, 940.979 91 C 943.248 91, 944.046 91.640, 945.033 94.250 L 946.261 97.500 947.323 94.750 C 948.727 91.117, 949.690 91.281, 951.701 95.500 C 953.642 99.569, 954.549 99.877, 955.383 96.750 C 956.594 92.203, 957.201 91.926, 963.560 93.015 C 966.827 93.575, 970.972 94.273, 972.772 94.566 C 975.701 95.043, 975.885 95.258, 974.522 96.621 C 972.662 98.480, 972.605 101.896, 974.394 104.253 C 975.977 106.338, 980.737 105.729, 985.500 102.832 C 989.380 100.472, 992 100.477, 992 102.845 C 992 105.619, 988.648 108.103, 984.078 108.716 C 980.327 109.219, 980 109.506, 980 112.287 C 980 115.152, 979.905 115.224, 978.171 113.655 C 974.559 110.386, 974.229 111.833, 976.339 121.666 L 978.414 131.332 972.957 136.228 C 966.518 142.006, 955.642 147.605, 948.165 148.991 C 944.086 149.748, 938.554 149.504, 924.665 147.957 C 914.674 146.845, 904.925 145.690, 903 145.392 C 901.075 145.093, 898.263 145.322, 896.750 145.900 C 894.510 146.756, 894 147.569, 894 150.284 C 894 157.996, 898.465 159.064, 914.146 155.106 C 921.588 153.227, 923.677 153.066, 929.146 153.954 C 932.641 154.521, 939.957 154.988, 945.405 154.992 C 955.183 155, 955.287 155.025, 953.534 156.962 C 950.089 160.769, 942.713 161.972, 931.500 160.556 C 924.661 159.692, 913.885 162.004, 901.253 167.045 L 894.006 169.937 886.753 167.277 C 876.090 163.366, 870.703 163.585, 863.738 168.210 C 857.189 172.559, 852.839 178.435, 850.608 185.948 C 847.904 195.052, 850.531 193.688, 856.310 182.988 C 859.545 176.997, 860.622 176.975, 859.018 182.933 C 857.584 188.260, 857.549 199.684, 858.956 203.384 C 859.558 204.967, 862.108 208.551, 864.623 211.348 C 869.671 216.962, 869.213 218.169, 863.199 215.101 C 861.026 213.993, 859.014 213.319, 858.728 213.605 C 857.774 214.559, 860.770 225.214, 862.740 227.874 C 866.696 233.217, 875 237.108, 875 233.619 C 875 232.859, 873.425 231.036, 871.500 229.568 C 866.763 225.955, 866.778 223, 871.531 223 C 877.923 223, 877.434 219.666, 869.452 208.834 L 864.785 202.500 865.195 193.873 C 865.538 186.631, 866.133 184.172, 868.898 178.555 C 870.710 174.874, 872.810 171.626, 873.565 171.337 C 874.319 171.047, 879.937 172.006, 886.048 173.467 C 898.545 176.455, 899.560 176.376, 911.500 171.467 C 918.617 168.542, 921.142 168.067, 934.369 167.168 C 947.839 166.253, 949.823 165.870, 955.458 163.095 C 961.989 159.880, 972 150.428, 972 147.477 C 972 146.573, 976.648 141.259, 982.328 135.667 C 988.009 130.075, 993.835 123.475, 995.276 121 C 998.305 115.798, 1001 106.275, 1001 100.775 C 1001 97.561, 1000.496 96.659, 997.750 94.964 C 995.962 93.861, 992.250 92.330, 989.500 91.563 C 986.750 90.796, 980.225 88.939, 975 87.437 C 969.775 85.935, 962.800 84.026, 959.500 83.195 C 946.196 79.844, 933.820 66.230, 931.485 52.378 C 929.287 39.335, 928.449 38.478, 901 21.236 C 892.525 15.912, 884.254 12.534, 871 8.985 C 865.561 7.528, 853.919 7.835, 848.007 9.590 L 842.652 11.181 839.576 7.603 C 836.206 3.682, 828.993 0.019, 829.010 2.237 M 813.250 3.031 C 808.973 4.750, 811.149 7.133, 818.150 8.395 C 820.157 8.757, 822.349 9.716, 823.022 10.526 C 824.452 12.249, 827 12.491, 827 10.904 C 827 8.763, 823.633 4.154, 821.288 3.085 C 818.481 1.806, 816.333 1.792, 813.250 3.031 M 805 16.063 C 803.625 16.638, 798.811 19.585, 794.303 22.611 C 785.383 28.599, 784.803 30.120, 790.697 32.065 L 794.217 33.227 787.859 39.707 C 781.486 46.200, 771.758 54.735, 745.351 77.001 C 728.420 91.277, 726.263 93.760, 720.354 105.781 C 715.641 115.369, 714.984 116.086, 702 125.801 C 692.528 132.890, 688.135 135.479, 682.329 137.399 C 675.846 139.542, 669.262 145.266, 665.654 151.895 C 662.555 157.588, 663.015 158.318, 667.185 154.323 C 671.409 150.276, 671.606 152.178, 667.583 158.153 C 663.312 164.495, 663.193 165.241, 666.590 164.388 C 669.035 163.774, 669.105 163.859, 667.840 165.895 C 665.902 169.014, 656.142 175.602, 647.640 179.531 C 638.993 183.526, 628.616 186.444, 617.500 188.008 C 608.515 189.272, 585.454 194.838, 561.500 201.525 C 535.691 208.729, 532.240 209.303, 514.500 209.341 C 505.700 209.359, 495.125 208.844, 491 208.195 C 472.654 205.309, 450.469 202.244, 450.141 202.550 C 449.943 202.734, 450.685 204.154, 451.790 205.705 L 453.798 208.525 442.740 208.146 C 436.659 207.938, 423.253 208.289, 412.949 208.925 C 392.305 210.201, 380.657 209.382, 371.846 206.034 C 367.580 204.412, 366.801 204.354, 366.317 205.617 C 366.007 206.425, 365.921 207.214, 366.126 207.370 C 366.535 207.681, 378.858 212.765, 388.750 216.705 C 392.558 218.222, 395 219.784, 395 220.704 C 395 221.734, 394.443 221.998, 393.250 221.536 C 388.028 219.513, 373.358 215.719, 365.500 214.359 C 353.755 212.325, 318.930 212.709, 318.207 214.879 C 317.223 217.830, 313.827 219.916, 303.375 223.986 C 283.991 231.535, 251.668 245.154, 245 248.581 C 238.611 251.865, 230 259.063, 230 261.119 C 230 262.315, 229.786 262.390, 236.697 258.754 C 244.752 254.516, 243.784 257.077, 235.202 262.709 C 219.409 273.073, 190.277 302.234, 181.750 316.215 C 177.239 323.609, 176.953 326, 180.579 326 C 182.965 326, 183.107 326.244, 182.464 329.250 C 182.082 331.038, 179.542 339.250, 176.820 347.500 C 170.957 365.266, 161.852 384.752, 155.674 392.756 C 149.487 400.771, 132.745 416.756, 125.133 421.917 C 111.536 431.135, 102.890 431.962, 87.380 425.531 C 74.281 420.100, 61.806 416.112, 55.649 415.389 C 36.634 413.154, 15.974 428.374, 8.923 449.810 C 7.712 453.489, 5.660 458.623, 4.361 461.217 C 1.118 467.696, 1.312 469.597, 5.434 471.726 C 7.693 472.893, 10.655 476.236, 14.094 481.500 C 22.038 493.659, 24.749 496.786, 27.960 497.491 C 30.107 497.963, 31.033 498.872, 31.492 500.961 C 32.256 504.443, 33.699 505.701, 42.158 510.267 L 48.815 513.861 50.029 510.930 C 50.696 509.319, 51.543 508, 51.910 508 C 52.277 508, 54.040 510.413, 55.827 513.361 C 60.385 520.883, 62.508 522.583, 72.979 527.097 C 82.618 531.253, 86.382 531.488, 85.808 527.899 C 85.639 526.838, 81 520.097, 75.500 512.919 L 65.500 499.869 65 507.447 C 64.725 511.615, 64.122 515.132, 63.661 515.262 C 63.199 515.393, 61.787 513.025, 60.523 510 C 59.259 506.975, 56.782 501.012, 55.019 496.750 C 53.256 492.488, 51.458 489, 51.023 489 C 50.589 489, 49.949 490.012, 49.601 491.250 C 49.043 493.235, 48.559 492.793, 45.497 487.500 C 43.587 484.200, 42.019 481.163, 42.013 480.750 C 42.006 480.337, 41.601 480, 41.114 480 C 40.626 480, 39.925 482.015, 39.556 484.477 C 38.934 488.622, 37.554 490.888, 36.372 489.705 C 36.100 489.433, 35.201 485.009, 34.374 479.874 C 33.548 474.739, 32.651 470.318, 32.381 470.048 C 31.380 469.047, 30.133 472.542, 29.479 478.185 C 28.272 488.579, 27 484.335, 27 469.917 C 27 453.264, 26.222 452.601, 21.039 464.832 C 19.136 469.325, 17.179 473, 16.691 473 C 15.231 473, 17.056 460.969, 19.510 454.412 C 29.288 428.285, 36.288 421.560, 51.205 423.960 C 61.827 425.670, 71.164 428.678, 84.104 434.562 C 104.038 443.626, 105.944 444.267, 111.172 443.657 C 119.855 442.645, 132.041 434.681, 153.533 415.971 C 166.915 404.322, 172.309 398.107, 176.510 389.500 C 179.833 382.690, 183 370.244, 183 363.992 C 183 358.779, 187.421 351.771, 205.074 329 C 215.956 314.965, 219.996 308.530, 223.637 299.433 C 225.013 295.996, 227.002 292.403, 228.058 291.448 C 229.891 289.789, 230.157 289.837, 234.029 292.520 L 238.082 295.329 240.791 293.308 C 242.281 292.196, 245.434 288.410, 247.799 284.893 C 253.035 277.105, 259.231 270.449, 263.115 268.441 C 264.707 267.617, 269.093 266.557, 272.862 266.084 C 280.645 265.106, 283.094 264.054, 285.183 260.791 C 288.238 256.019, 288.146 255.088, 284.469 253.551 C 282.561 252.754, 281.009 251.742, 281.021 251.301 C 281.044 250.438, 295.136 242.357, 306.500 236.692 C 313.461 233.222, 316.089 230.984, 319.325 225.771 C 322.181 221.170, 326.398 219.698, 338 219.254 C 346.395 218.932, 351.507 219.400, 363.500 221.588 C 385 225.511, 388.987 225.622, 397.925 222.551 C 402.590 220.948, 407.534 220, 411.225 220 C 420.623 220, 426.934 215.349, 419.418 213.962 L 416.500 213.423 419 212.725 C 423.730 211.405, 440.824 212.003, 454.151 213.956 C 475.503 217.085, 495.886 218.338, 515.161 217.708 L 532.823 217.131 531.911 220.309 C 530.839 224.047, 530.693 232, 531.696 232 C 532.079 232, 534.059 230.845, 536.096 229.433 C 540.419 226.438, 555.329 221.738, 580.292 215.502 C 599.370 210.736, 608.009 209.214, 607.985 210.621 C 607.977 211.105, 607.276 213.496, 606.426 215.936 C 604.764 220.711, 604.219 230.927, 605.514 233.023 C 606.060 233.905, 607.049 232.850, 608.673 229.654 C 610.153 226.743, 611.705 225, 612.819 225 C 613.799 225, 615.133 224.468, 615.783 223.817 C 617.598 222.002, 618.069 223.274, 616.983 227.060 C 614.936 234.198, 616.338 251, 618.981 251 C 619.951 251, 620.935 247.496, 621.087 243.500 C 621.164 241.476, 621.650 242.554, 622.583 246.812 C 624.307 254.684, 626.169 258.656, 630.280 263.228 C 632.051 265.198, 634.414 268.315, 635.532 270.155 C 636.985 272.547, 638.292 273.500, 640.122 273.500 C 641.529 273.500, 643.330 274.036, 644.123 274.692 C 644.916 275.348, 646.765 276.340, 648.230 276.898 C 649.696 277.455, 651.666 279.168, 652.608 280.705 C 658.833 290.865, 661.216 293.184, 663.296 291.104 C 663.911 290.489, 663.500 289.180, 662.155 287.470 C 659.056 283.530, 658.586 279.106, 660.532 272.171 C 661.579 268.439, 661.989 264.757, 661.593 262.645 C 660.877 258.828, 657.538 254, 655.614 254 C 654.921 254, 653.344 257.561, 652.045 262.058 C 650.692 266.738, 649.345 269.745, 648.830 269.230 C 648.343 268.743, 647.492 265.537, 646.940 262.107 C 645.753 254.737, 644.618 252.656, 640.799 250.846 L 637.960 249.500 641.616 243.655 C 645.492 237.460, 646.316 232.328, 644.101 228.189 C 642.302 224.827, 640.239 225.553, 636.978 230.696 C 633.589 236.039, 633.400 235.951, 635.500 230 C 636.325 227.662, 637 223.692, 637 221.178 L 637 216.608 633.500 220 C 630.609 222.802, 630 223.065, 630 221.511 C 630 220.476, 632.655 217.125, 635.899 214.065 C 643.339 207.046, 644.236 205.263, 643.421 199.115 C 642.594 192.886, 644.629 190.578, 652.161 189.206 C 655.097 188.671, 660.323 187.711, 663.774 187.072 C 667.225 186.434, 670.537 186.214, 671.136 186.584 C 671.734 186.954, 673.249 189.576, 674.504 192.412 C 679.003 202.587, 700.303 219.529, 724.802 232.421 C 733.769 237.140, 741.869 241, 742.802 241 C 744.373 240.999, 744.421 242.213, 743.437 257.250 C 742.852 266.187, 742.485 273.657, 742.620 273.850 C 743.504 275.106, 750.463 271.307, 752.149 268.647 C 753.906 265.873, 754.087 264.256, 753.679 255 C 753.116 242.250, 750.789 235.379, 744.362 227.490 C 739.287 221.259, 737.402 221.067, 739.739 227.018 C 740.604 229.220, 741.035 231.298, 740.698 231.636 C 740.360 231.974, 733.080 225.585, 724.519 217.439 C 710.040 203.659, 702.918 195.733, 700.090 190.250 C 698.433 187.037, 697.191 187.465, 696.432 191.511 C 695.385 197.093, 694.338 196.478, 692.572 189.242 C 691.667 185.534, 690.043 179.800, 688.963 176.500 C 686.347 168.505, 686.485 165.787, 689.708 161.827 C 704.652 143.467, 709.406 138.897, 711.936 140.460 C 712.418 140.758, 713.130 143.364, 713.517 146.251 C 713.905 149.138, 714.809 152.926, 715.526 154.670 C 716.806 157.779, 720.507 160.736, 721.262 159.253 C 721.473 158.839, 721.231 153.100, 720.724 146.500 C 720.049 137.715, 720.118 133.696, 720.981 131.500 L 722.161 128.500 724.368 131.250 C 725.582 132.762, 727.313 134, 728.215 134 C 729.769 134, 733.354 137.706, 734.308 140.300 C 734.646 141.218, 735.043 141.224, 735.996 140.329 C 736.982 139.402, 736.457 137.265, 733.474 130.067 C 729.896 121.435, 729.736 120.586, 730.317 113.238 C 731.664 96.181, 734.007 92.637, 752.950 79 C 765.125 70.236, 778.844 58.965, 784.453 53.120 C 789.170 48.204, 791.092 47.682, 787.660 52.250 C 786.317 54.038, 783.594 58.751, 781.609 62.725 C 777.624 70.702, 776.906 75.275, 779.714 74.794 C 782.867 74.253, 782.346 78.056, 778.747 81.861 C 770.619 90.452, 767.393 97.421, 770.392 99.910 C 771.523 100.849, 772.379 100.868, 774.022 99.988 C 775.204 99.356, 776.281 98.987, 776.416 99.169 C 776.550 99.351, 777.212 102.054, 777.885 105.176 C 779.433 112.347, 783.743 118.430, 788.354 119.952 C 790.271 120.585, 792.344 121.710, 792.961 122.453 C 793.578 123.196, 795.291 124.107, 796.769 124.478 C 798.247 124.849, 801.584 127.143, 804.185 129.576 C 806.786 132.009, 809.891 134, 811.086 134 C 812.379 134, 815.973 136.562, 819.973 140.335 C 830.859 150.605, 839.823 153.790, 842.245 148.250 C 842.906 146.737, 844.770 143.815, 846.386 141.756 L 849.326 138.011 852.495 140.428 L 855.664 142.846 860.038 133.923 C 863.674 126.504, 864.803 125, 866.737 125 C 870.033 125, 870.636 122.352, 868.115 118.942 C 866.931 117.340, 865.531 114.897, 865.005 113.514 C 863.552 109.692, 862.331 110.488, 861.575 115.750 C 860.611 122.465, 855.481 134.603, 853.825 134.088 C 853.096 133.862, 847.913 132.443, 842.306 130.934 C 830.537 127.768, 830.308 127.631, 822.376 119 C 810.223 105.776, 806.850 99.762, 802.911 84.295 C 800.811 76.054, 800.311 75.060, 798.129 74.795 C 796.149 74.555, 795.351 73.469, 793.874 69 C 792.874 65.975, 792.044 62.784, 792.028 61.910 C 792.013 61.035, 794.152 56.738, 796.783 52.361 C 801.834 43.957, 805 35.683, 805 30.885 C 805 27.988, 804.409 27.624, 800.250 27.961 C 796.813 28.239, 797.554 26.336, 802.189 22.978 C 807.538 19.103, 810.455 18.401, 814.750 19.954 C 817.273 20.867, 818.496 20.904, 819.306 20.094 C 822.465 16.935, 810.784 13.645, 805 16.063 M 862.353 33.237 C 861.933 33.918, 861.455 39.120, 861.291 44.797 C 861.059 52.864, 861.518 57.455, 863.391 65.810 C 866.072 77.762, 867.538 94.549, 865.986 95.509 C 863.387 97.115, 865.727 108.333, 869.627 112.969 C 873.384 117.434, 874.089 116.684, 871.924 110.525 C 870.866 107.514, 870 103.424, 870 101.437 L 870 97.824 874.078 98.513 L 878.156 99.202 876.578 96.151 C 875.710 94.472, 875 91.736, 875 90.070 C 875 88.404, 874.361 85.344, 873.580 83.270 C 872.798 81.197, 871.866 77.700, 871.509 75.500 C 871.151 73.300, 869.769 67.708, 868.438 63.073 C 867.107 58.438, 865.723 51.121, 865.364 46.812 C 864.807 40.133, 864.971 38.689, 866.477 37.026 C 867.448 35.953, 867.977 34.383, 867.653 33.537 C 866.946 31.696, 863.429 31.497, 862.353 33.237 M 885.306 37.645 C 884.716 39.182, 886.544 41.283, 889.392 42.339 C 892.064 43.330, 887.642 45.500, 882.950 45.500 C 880.227 45.500, 878 45.837, 878 46.250 C 878 46.663, 878 47.382, 878 47.850 C 878 48.317, 880.922 49.942, 884.493 51.460 C 890.653 54.078, 894 54.288, 894 52.056 C 894 51.487, 895.218 51.294, 896.806 51.611 C 898.686 51.987, 900.043 51.653, 900.920 50.597 C 902.107 49.166, 902.492 49.177, 905.104 50.720 C 906.958 51.816, 908.324 52.076, 908.949 51.451 C 910.441 49.959, 908.988 48.507, 903 45.508 C 899.975 43.993, 895.415 41.234, 892.866 39.377 C 887.668 35.589, 886.222 35.258, 885.306 37.645 M 905.500 58.846 C 895.246 64.609, 890.639 67.584, 890.274 68.677 C 889.901 69.798, 906.822 76, 910.252 76 C 912.397 76, 912.507 74.665, 910.500 73 C 907.901 70.843, 908.585 64.042, 911.732 60.757 C 914.024 58.366, 914.225 57.754, 912.982 56.968 C 910.986 55.706, 911.170 55.660, 905.500 58.846 M 753.767 90.250 C 749.299 96.127, 748 99.667, 748 105.963 C 748 113.811, 751.326 125.962, 754.100 128.250 C 755.854 129.697, 759.046 130.678, 758.983 129.750 C 758.973 129.613, 758.081 126.125, 757 122 C 754.504 112.478, 754.489 105.281, 756.946 96.688 C 759.712 87.018, 758.338 84.236, 753.767 90.250 M 737.933 107.249 C 735.615 115.858, 740.446 132.712, 747.250 139.750 C 748.978 141.537, 750.724 143, 751.129 143 C 753.160 143, 752.776 138.350, 750.109 130.654 C 748.481 125.953, 746.455 118.435, 745.609 113.948 C 744.763 109.461, 743.549 105.162, 742.913 104.395 C 740.848 101.908, 739.102 102.909, 737.933 107.249 M 959.073 121.413 C 958.428 122.189, 954.998 124.090, 951.450 125.635 C 947.903 127.181, 945 128.852, 945 129.350 C 945 130.265, 952.404 129.720, 957 128.466 C 958.375 128.091, 956.350 129.955, 952.500 132.609 C 945.246 137.608, 945.258 139.590, 952.524 136.554 C 957.166 134.615, 959.114 134.599, 956.573 136.521 C 953.761 138.649, 955.409 139.494, 959.803 138.177 C 964.465 136.780, 967.761 133.444, 968.594 129.279 C 969.095 126.777, 968.798 125.891, 967.110 124.836 C 965.949 124.112, 965 122.727, 965 121.759 C 965 119.587, 960.792 119.341, 959.073 121.413 M 814.581 189.305 C 813.194 191.123, 811.123 194.728, 809.978 197.317 C 806.275 205.689, 807.714 218.525, 812.565 220.387 C 814.029 220.948, 814.128 220.253, 813.491 213.912 L 812.778 206.808 815.389 208.519 L 818 210.230 818 198.115 C 818 191.452, 817.798 186, 817.551 186 C 817.304 186, 815.967 187.487, 814.581 189.305 M 801.434 221.317 C 800.034 224.953, 801.726 234.857, 804.580 239.726 C 806.103 242.326, 807.533 243.901, 807.757 243.228 C 808.217 241.849, 804.209 223.316, 802.950 221 C 802.256 219.724, 802.030 219.771, 801.434 221.317 M 854.084 223.315 C 852.736 226.816, 852.718 228.605, 854.009 231.017 C 855.368 233.556, 865.878 241, 868.104 241 C 871.888 241, 870.960 238.656, 865.063 233.319 C 861.689 230.266, 858.083 226.132, 857.049 224.134 L 855.169 220.500 854.084 223.315 M 842.447 233.500 C 840.823 237.264, 840.818 238.115, 842.377 247.918 C 844.034 258.338, 845.090 261, 847.563 261 C 849.657 261, 849.883 259.857, 849.101 253.228 C 848.322 246.621, 848.692 246.097, 852.412 248.535 C 853.701 249.379, 856.186 250.480, 857.935 250.981 C 865.134 253.046, 866.434 248.357, 859.581 245.039 C 855.353 242.993, 849.379 237.325, 845.837 232 L 844.174 229.500 842.447 233.500 M 798.623 250.453 C 796.378 264.869, 796.708 278.203, 799.531 287.097 C 800.450 289.993, 797.537 289.474, 796.182 286.500 C 793.634 280.907, 793.013 283.993, 793.664 299.029 C 794.259 312.769, 794.173 314.003, 792.657 313.422 C 791.746 313.072, 790.986 312.272, 790.968 311.643 C 790.951 311.014, 790.224 311.400, 789.354 312.500 C 787.268 315.135, 780.844 329.038, 781.213 330.118 C 781.371 330.582, 783.846 329.873, 786.713 328.544 C 793.862 325.228, 800.568 318.335, 801.983 312.845 C 802.600 310.455, 804.430 304.354, 806.052 299.287 C 809.350 288.982, 809.705 284.264, 807.505 280.010 C 806.451 277.972, 805.975 273.634, 805.891 265.310 C 805.775 253.924, 803.470 242.027, 801.096 240.559 C 800.628 240.270, 799.515 244.723, 798.623 250.453 M 834.991 257.250 C 834.966 266.722, 832.699 274.942, 831.820 268.750 C 831.389 265.716, 829.575 265.888, 829.192 269 C 829.023 270.375, 828.262 272.861, 827.502 274.525 C 826.742 276.189, 825.373 281.928, 824.461 287.280 C 822.466 298.987, 823.370 304.377, 828.644 312.214 C 830.519 315, 831.831 317.502, 831.560 317.773 C 831.289 318.045, 829.476 316.676, 827.532 314.732 C 825.587 312.787, 823.758 311.583, 823.466 312.055 C 823.175 312.527, 822.223 312.639, 821.353 312.305 C 820.116 311.830, 819.904 312.168, 820.385 313.849 C 822.379 320.820, 822.450 320.341, 819.687 318.531 C 816.098 316.179, 815.661 317.541, 815.881 330.404 C 816.166 347.099, 814.051 352.243, 800.643 367.456 C 796.655 371.980, 795.671 373.866, 795.143 377.991 C 794.571 382.463, 794.117 383.208, 791.019 384.758 C 787.992 386.272, 787.258 387.414, 785.396 393.500 C 783.301 400.352, 783.232 400.440, 782.122 397.669 C 780.298 393.115, 778.571 395.036, 777.707 402.579 C 776.505 413.073, 775.738 416.845, 775.284 414.500 C 775.071 413.400, 774.418 410.038, 773.832 407.028 L 772.766 401.556 770.435 404.480 C 768.150 407.345, 768.062 407.366, 766.060 405.555 C 764.042 403.728, 763.994 403.764, 761.989 408.603 C 757.914 418.438, 756.424 420.364, 750.361 423.635 C 743.375 427.405, 740 428.532, 740 427.096 C 740 426.525, 742.984 421.687, 746.631 416.346 C 754.689 404.544, 756.959 399.735, 756.946 394.500 C 756.937 390.705, 756.858 390.603, 755.408 392.500 C 754.567 393.600, 752.553 396.975, 750.933 400 C 749.312 403.025, 743.440 410.450, 737.885 416.500 C 719.708 436.296, 712.551 444.992, 709.248 451.294 C 704.557 460.246, 698.203 480.676, 695.965 494 C 692.236 516.195, 688.655 553.761, 688.576 571.500 L 688.500 588.500 692.086 596 C 696.369 604.955, 707.949 617.797, 716.235 622.777 C 720.632 625.421, 723.399 626.249, 730.539 627.060 C 741.043 628.254, 746.002 630.656, 750.703 636.828 C 755.501 643.126, 755.171 644.269, 748.750 643.585 C 745.862 643.278, 733.600 642.553, 721.500 641.974 C 693.154 640.617, 689.860 639.525, 686.645 630.412 C 685.871 628.217, 681.214 619.915, 676.297 611.961 C 671.379 604.008, 665.630 594.350, 663.520 590.500 C 658.852 581.982, 656.745 579.542, 651.281 576.328 C 647.863 574.317, 646.947 573.149, 646.455 570.173 C 646.121 568.153, 644.473 561.550, 642.792 555.500 C 640.517 547.313, 639.645 541.814, 639.381 534 L 639.027 523.500 641.978 521.817 C 646.144 519.441, 646.691 516.030, 644.001 509.197 C 642.768 506.064, 640.743 500.575, 639.502 497 L 637.246 490.500 639.373 490.220 C 643.751 489.644, 646 488.937, 646 488.137 C 646 487.684, 644.113 484.503, 641.807 481.069 C 638.337 475.901, 637.541 473.806, 637.187 468.913 C 636.824 463.886, 637.010 463, 638.429 463 C 640.625 463, 646 460.197, 646 459.051 C 646 457.332, 639.723 451.893, 634.942 449.470 C 627.644 445.773, 616.763 441.877, 615.300 442.438 C 613.202 443.244, 613.803 444.734, 616.500 445.411 C 619.012 446.041, 619.754 447.416, 618.125 448.423 C 617.644 448.720, 609.442 445.624, 599.898 441.542 C 590.354 437.461, 582.362 434.305, 582.137 434.529 C 581.913 434.754, 583.381 437.711, 585.400 441.100 C 590.907 450.345, 589.634 450.151, 578.768 440.086 C 576.716 438.185, 574.703 436.964, 574.295 437.372 C 573.446 438.221, 574.740 440.527, 580.814 448.990 C 583.186 452.295, 584.656 455, 584.079 455 C 583.503 455, 578.259 450.613, 572.427 445.250 C 566.595 439.887, 561.186 435.354, 560.408 435.176 C 555.860 434.134, 560.322 443.816, 568.626 453.008 C 575.049 460.117, 575.891 460.323, 599.808 460.610 C 611.528 460.751, 622.448 461.159, 624.076 461.517 C 625.933 461.925, 627.587 463.234, 628.517 465.034 C 630.636 469.131, 630.359 470.887, 627.500 471.481 C 626.125 471.766, 623.875 472.234, 622.500 472.519 C 618.822 473.283, 619.436 474.752, 624.451 477.188 C 626.899 478.378, 628.706 479.667, 628.466 480.054 C 628.227 480.441, 625.942 480.522, 623.389 480.235 L 618.747 479.711 621.545 484.606 C 623.085 487.298, 624.800 490.097, 625.358 490.826 C 626.619 492.476, 624.586 493.956, 621 494 C 615.379 494.069, 615.716 495.490, 622.974 502.337 C 626.859 506.002, 629.850 509, 629.620 509 C 629.391 509, 626.637 507.650, 623.500 506 C 618.203 503.213, 615 502.278, 615 503.518 C 615 503.803, 617.185 508.416, 619.857 513.768 C 626.687 527.455, 629.122 533.996, 634.982 554.400 C 637.810 564.246, 641.407 574.844, 642.976 577.952 C 646.262 584.461, 664.189 611.768, 670.018 619.142 C 672.184 621.882, 675.605 627.262, 677.621 631.098 C 681.707 638.874, 688.404 645.543, 695.769 649.170 C 700.448 651.474, 700.884 651.500, 735.167 651.500 C 754.234 651.500, 770.077 651.258, 770.372 650.962 C 770.668 650.666, 770.295 648.641, 769.544 646.462 C 768.793 644.283, 768.386 642.290, 768.639 642.034 C 768.892 641.777, 775.265 641.267, 782.800 640.899 C 790.335 640.532, 798.341 639.731, 800.591 639.120 C 805.211 637.865, 808.524 634.809, 807.673 632.589 C 807.359 631.772, 801.031 627.040, 793.609 622.073 C 783.863 615.550, 778.920 612.859, 775.808 612.382 C 764.009 610.574, 754.958 600.516, 748.351 581.871 C 746.104 575.528, 745.553 571.501, 744.400 553 C 742.016 514.728, 741.581 494.907, 742.938 486.350 C 744.413 477.047, 748.455 466.336, 754.392 456 C 756.762 451.875, 760.219 444.677, 762.075 440.004 C 765.830 430.551, 770.072 425.163, 776.111 422.175 C 779.257 420.618, 780.839 420.380, 783.315 421.090 C 785.059 421.591, 786.887 422, 787.375 422 C 788.265 422, 787.731 416.629, 786.388 412.067 L 785.671 409.633 789.311 411.883 C 793.681 414.584, 797.475 414.840, 801.591 412.712 C 807.074 409.876, 807.590 408.490, 804.754 404.205 C 799.956 396.955, 800.131 395.604, 807.782 380.832 C 816.123 364.727, 818.941 357.426, 819.875 349.500 C 820.264 346.200, 821.014 343.555, 821.541 343.623 C 822.069 343.690, 824.413 344.033, 826.750 344.385 L 831 345.024 831 339.577 C 831 336.581, 830.561 332.976, 830.025 331.565 C 828.931 328.689, 828.966 328.662, 832.185 329.865 C 833.458 330.341, 835.400 330.402, 836.500 329.999 C 838.250 329.359, 838.030 329.070, 834.750 327.685 C 829.461 325.452, 830.066 323.912, 835.469 325.855 C 839.109 327.164, 840.176 327.224, 841.219 326.177 C 842.261 325.132, 842.108 324.575, 840.400 323.196 C 837.310 320.701, 831.178 306.458, 830.060 299.180 C 829.217 293.697, 829.386 291.910, 831.332 285.680 C 833.309 279.350, 833.887 278.463, 836.214 278.191 C 839.746 277.777, 840.505 276.591, 841.895 269.310 C 843.234 262.299, 841.856 257.064, 838.150 255.080 C 835.220 253.512, 835.001 253.663, 834.991 257.250 M 264 279.937 C 246.556 292.190, 232.667 308.099, 224.457 325.231 C 220.767 332.930, 220.251 335.529, 222.250 336.341 C 223.735 336.943, 224.319 336.447, 211.700 345.325 C 206.365 349.078, 202 352.476, 202 352.875 C 202 353.274, 202.506 354.106, 203.124 354.724 C 204.763 356.363, 203.154 360.230, 196.608 370.377 C 192.119 377.334, 191.310 379.182, 192.545 379.656 C 193.393 379.981, 194.209 380.079, 194.359 379.874 C 194.509 379.668, 196.588 376.575, 198.980 373 C 209.864 356.732, 217.206 350.007, 229.003 345.499 C 237.663 342.190, 245.374 336.422, 254.250 326.614 C 260.466 319.745, 262.179 317, 260.247 317 C 259.833 317, 255.992 320.150, 251.711 324 C 244.542 330.448, 242 332.099, 242 330.309 C 242 329.930, 246.269 325.274, 251.487 319.963 C 256.705 314.652, 261.655 308.677, 262.487 306.685 C 264.246 302.476, 264.549 292, 262.912 292 C 262.313 292, 258.832 294.700, 255.176 298 C 249.015 303.560, 246 305.249, 246 303.139 C 246 302.665, 251.963 296.997, 259.250 290.543 C 266.538 284.088, 272.500 278.295, 272.500 277.668 C 272.500 275.340, 269.345 276.183, 264 279.937 M 245 314 C 238.125 320.559, 232.950 325.938, 233.500 325.953 C 235.713 326.015, 245.602 319.493, 250.067 315.028 C 254.529 310.566, 259.967 301.955, 258.270 302.037 C 257.847 302.058, 251.875 307.441, 245 314 M 211 303.709 C 210.175 304.013, 208.645 304.990, 207.600 305.880 C 205.189 307.935, 188 333.755, 188 335.322 C 188 335.966, 195.088 329.396, 203.750 320.723 C 216.365 308.092, 219.201 304.762, 218 303.992 C 216.376 302.951, 213.390 302.831, 211 303.709 M 458.770 333.510 C 453.305 337.224, 451.079 337.858, 435.757 340.070 C 422.988 341.913, 421.575 341.952, 419.391 340.520 C 418.076 339.659, 417 338.514, 417 337.977 C 417 335.175, 404.898 339.193, 396.767 344.695 C 389.201 349.815, 386.466 352.512, 379.787 361.440 C 372.734 370.867, 369.798 376.311, 370.616 378.442 C 371.641 381.113, 372.838 380.208, 377.007 373.607 C 381.357 366.718, 387.858 360.159, 392.939 357.531 C 397.747 355.045, 404.223 354.655, 419.537 355.931 C 440.302 357.660, 449.446 361.097, 473.069 376.048 C 482.460 381.992, 489.506 384.097, 500.513 384.248 C 507.371 384.342, 509.403 384.025, 510.782 382.646 C 511.884 381.544, 512.129 380.672, 511.467 380.214 C 510.898 379.821, 509.753 377.250, 508.922 374.500 C 507.417 369.516, 507.397 369.498, 502.560 369 L 497.709 368.500 501.591 366 C 505.427 363.529, 506.988 360.588, 505.338 358.938 C 504.871 358.471, 500.441 358.690, 495.494 359.425 C 484.224 361.100, 483.228 360.142, 490.042 354.182 C 493.805 350.891, 495 349.160, 495 347.004 C 495 341.009, 494.670 340.956, 483.849 345.203 C 478.328 347.371, 473.646 348.980, 473.446 348.779 C 473.245 348.579, 475.538 345.754, 478.541 342.501 C 486.077 334.338, 485.740 333.410, 476.500 336.877 C 466.547 340.612, 466.071 340.487, 471.500 335.570 L 476.500 331.041 469.482 331.021 C 463.616 331.003, 461.858 331.412, 458.770 333.510 M 666.528 346.802 C 664.343 350.486, 660.847 356.170, 658.760 359.432 C 656.016 363.722, 655.270 365.660, 656.067 366.432 C 656.856 367.197, 658.096 366.437, 660.440 363.750 C 662.240 361.688, 664.004 360, 664.361 360 C 664.718 360, 662.944 363.821, 660.419 368.492 C 657.894 373.162, 655.996 377.488, 656.202 378.105 C 656.874 380.123, 662.815 374.078, 665.441 368.704 C 667.792 363.892, 671.549 344.729, 670.794 341.401 C 670.632 340.688, 668.712 343.118, 666.528 346.802 M 206.359 369.745 C 204.180 372.360, 201.418 376.110, 200.223 378.078 C 195.524 385.813, 182.329 439.907, 181.355 455.428 C 180.993 461.189, 180.077 466.778, 179.214 468.486 C 177.705 471.471, 166.077 485.013, 165.046 484.985 C 164.746 484.977, 162.250 480.665, 159.500 475.401 C 156.750 470.138, 154.355 466.545, 154.177 467.416 C 153.999 468.287, 154.561 472.422, 155.427 476.607 C 157.675 487.476, 157.618 487.658, 153.106 484.084 C 146.601 478.932, 146.488 479.881, 152 493.377 C 156.151 503.539, 156.551 505, 155.189 505 C 154.499 505, 143.530 488.212, 136.079 475.750 C 134.846 473.688, 133.507 472, 133.105 472 C 131.952 472, 132.996 484.024, 134.581 489 C 136.664 495.541, 140.698 502.006, 147.413 509.566 L 153.326 516.223 157.913 515.733 C 160.436 515.463, 163.287 514.915, 164.250 514.514 C 166.699 513.495, 166.528 516.058, 163.927 519.365 C 162.339 521.384, 160.968 522, 158.063 522 C 153.958 522, 151.641 520.449, 139.478 509.559 C 133.772 504.450, 132.583 503.779, 130.989 504.775 C 129.427 505.750, 128.417 505.338, 124.562 502.153 C 118.173 496.873, 115.275 492.589, 113.881 486.361 C 113.222 483.412, 112.315 481, 111.867 481 C 110.025 481, 107.790 487.399, 108.301 491.209 C 109.214 498.015, 115.289 509.166, 121.979 516.319 C 128.947 523.767, 131.143 524.451, 135.405 520.500 C 136.889 519.125, 138.547 518, 139.089 518 C 140.297 518, 152.904 525.293, 152.960 526.025 C 152.982 526.313, 149.576 529.463, 145.391 533.025 C 133.321 543.297, 133.471 542.947, 134.887 557.545 C 135.543 564.314, 137.166 575.932, 138.493 583.363 C 141.621 600.875, 142.977 616.756, 142.990 636.038 C 142.999 650.152, 143.206 651.985, 145.250 656.034 C 147.082 659.664, 148.678 661.097, 153.837 663.746 L 160.175 667 201.506 667 C 224.238 667, 243.561 666.722, 244.446 666.382 C 245.331 666.043, 246.547 664.847, 247.147 663.726 C 248.120 661.908, 247.007 660.502, 236.869 650.739 C 230.616 644.717, 223.715 638.879, 221.534 637.765 C 218.764 636.350, 214.393 635.500, 207.034 634.945 C 182.952 633.130, 179.297 630.444, 180.209 615.235 C 180.808 605.243, 182.880 601.207, 196.458 583.578 C 202.283 576.015, 208.551 567.479, 210.387 564.609 C 214.711 557.850, 219.418 553.907, 232.301 546.254 C 244.183 539.195, 247.088 537.827, 245.442 540.063 C 244.860 540.853, 241.035 545.978, 236.942 551.452 C 229.530 561.365, 229.500 561.428, 229.611 567.452 C 229.677 571.038, 231 577.774, 232.862 584 C 234.589 589.775, 237.810 603.725, 240.020 615 C 242.571 628.013, 244.956 637.385, 246.549 640.661 C 249.514 646.756, 255.449 652.420, 261.878 655.288 C 266.321 657.271, 267.986 657.341, 304.780 657.103 C 346.172 656.835, 351.228 656.305, 351.825 652.166 C 352.362 648.449, 340.873 638.015, 330.833 633.100 C 322.544 629.043, 322.414 629.016, 306.034 628.022 C 291.439 627.136, 288.955 626.723, 284.181 624.388 C 276.721 620.738, 275.464 617.616, 276.952 606.431 C 278.453 595.156, 283.346 578.187, 287.888 568.510 C 291.114 561.636, 293.775 558.230, 306.647 544.500 C 314.897 535.700, 327.464 523.020, 334.573 516.321 C 348.805 502.913, 352.363 497.932, 357.548 484.154 C 361.818 472.807, 364.479 459.780, 366.668 439.506 L 368.396 423.500 376.785 405 C 385.286 386.253, 387.240 379.078, 385.612 372.589 C 384.658 368.790, 383.492 369.405, 381.516 374.750 C 376.464 388.418, 346.466 436.033, 327.493 460.500 C 302.664 492.518, 286.996 506.164, 259.667 519.573 C 232.696 532.806, 224.297 537.881, 211.515 548.674 C 197.125 560.823, 188.807 572.402, 175.458 598.872 C 172.274 605.184, 171.722 607.270, 171.620 613.372 C 171.442 623.938, 173.417 629.532, 179.445 635.534 C 185.511 641.574, 189.615 643.011, 203.500 643.956 C 209.595 644.371, 214.711 645.273, 216.602 646.267 C 220.265 648.193, 226.275 654.746, 225.511 655.982 C 225.218 656.457, 217.445 656.594, 208.239 656.288 C 194.449 655.830, 190.119 656.041, 183.661 657.486 C 179.211 658.482, 173.887 659.022, 171.344 658.735 C 165.424 658.068, 154.666 652.523, 150.841 648.166 C 147.948 644.871, 147.815 644.353, 148.379 638.591 C 150.369 618.264, 150.243 610.284, 147.492 582.513 C 144.383 551.125, 144.632 546.192, 149.691 538.978 C 152.391 535.128, 173.207 518.473, 185.336 510.459 C 189.920 507.430, 191.792 505.374, 194.064 500.874 C 197.182 494.696, 200.117 492, 203.723 492 C 205.046 492, 206 491.392, 206 490.550 C 206 489.519, 204.263 488.903, 200 488.420 C 193.620 487.699, 192.220 486.419, 196.750 485.450 C 203.453 484.016, 204.293 483.232, 203.622 479.037 L 202.999 475.142 208.250 474.180 C 211.137 473.652, 216.875 472.780, 221 472.243 C 229.714 471.108, 243.696 465.969, 248.062 462.295 C 252.448 458.604, 257.746 447, 255.045 447 C 254.498 447, 253.402 448.238, 252.608 449.750 C 250.155 454.424, 243.806 459.746, 236.764 463.032 C 227.894 467.171, 226.195 466.398, 233.819 461.693 C 244.257 455.250, 252.896 443.419, 251.430 437.576 C 250.830 435.186, 250.270 435.554, 239.151 445.660 C 224.153 459.291, 221.727 460.855, 213.469 462.224 C 207.275 463.250, 206.091 463.144, 199.802 461.003 C 194.811 459.304, 193.067 458.268, 193.463 457.237 C 193.763 456.454, 194.298 454.619, 194.653 453.157 L 195.297 450.500 193.219 453 C 191.645 454.895, 190.858 455.221, 189.969 454.348 C 189.074 453.469, 190.269 450.674, 194.990 442.596 C 203.182 428.581, 205.236 429.763, 197.867 444.250 C 196.818 446.313, 196.388 448, 196.912 448 C 198.100 448, 201.051 443.859, 203.964 438.105 C 206.198 433.691, 211.382 415.049, 210.595 414.261 C 210.363 414.030, 206.872 416.924, 202.837 420.694 C 198.802 424.463, 194.643 428.211, 193.595 429.023 C 191.752 430.453, 191.741 430.404, 193.245 427.500 C 194.100 425.850, 198.235 418.921, 202.434 412.101 C 206.632 405.282, 209.910 399.229, 209.716 398.649 C 209.523 398.070, 206.246 401.285, 202.433 405.795 C 198.620 410.305, 194.889 413.996, 194.143 413.997 C 192.126 414.001, 192.888 412.624, 204.762 394.809 C 218.123 374.763, 217.397 375.999, 215.809 376.006 C 215.089 376.010, 211.350 379.578, 207.500 383.935 C 200.925 391.376, 198 393.509, 198 390.861 C 198 390.235, 200.974 384.359, 204.609 377.804 C 208.244 371.248, 211.016 365.683, 210.770 365.437 C 210.524 365.190, 208.539 367.129, 206.359 369.745 M 665.163 378.634 C 658.249 388.462, 646.109 397.550, 628.859 405.813 C 618.742 410.659, 610.861 418.031, 605.952 427.242 C 602.612 433.508, 602.589 434.826, 605.849 433.081 C 611.134 430.252, 617.201 432.185, 624.395 438.989 C 629.905 444.201, 633.862 445.747, 637.865 444.253 C 640.137 443.406, 639.970 443.143, 633.615 437.563 C 627.220 431.949, 625.798 430, 628.096 430 C 629.730 430, 635 426.026, 635 424.793 C 635 424.073, 632.038 423.891, 625.958 424.238 C 614.677 424.881, 614.656 423.746, 625.861 419.096 C 634.267 415.607, 635.553 413.888, 630.424 412.991 C 627.763 412.526, 628.163 412.199, 635.075 409.185 C 645.615 404.590, 650.188 401.350, 660.222 391.372 C 669.078 382.566, 671.999 377.608, 670.213 374.415 C 669.450 373.053, 668.577 373.782, 665.163 378.634 M 386.173 398.894 C 376.522 413.305, 372.231 420.525, 373.025 421.015 C 374.739 422.075, 380.819 420.474, 383.173 418.343 C 384.288 417.335, 387.050 413.695, 389.312 410.255 C 391.574 406.815, 393.784 404, 394.223 404 C 394.663 404, 393.189 407.647, 390.948 412.103 C 388.707 416.560, 387.129 420.462, 387.441 420.774 C 388.524 421.857, 393.049 416.589, 395.518 411.371 C 399.175 403.640, 401.124 393.957, 400.791 385.169 L 400.500 377.500 386.173 398.894 M 419 394.107 C 419 396.485, 418.641 397.076, 417.470 396.627 C 416.483 396.248, 415.619 396.833, 415.038 398.270 C 412.851 403.683, 406.838 427.171, 407.478 427.802 C 407.868 428.186, 409.713 426.700, 411.578 424.500 L 414.970 420.500 414.985 424.639 C 415.002 429.357, 417.796 433.676, 420.226 432.743 C 421.072 432.419, 422.326 429.809, 423.014 426.943 C 424.679 420.001, 423.850 399.861, 421.688 394.750 C 419.758 390.186, 419 390.005, 419 394.107 M 401.495 406.016 C 398.204 411.782, 393.372 420.100, 390.756 424.500 C 388.141 428.900, 386.001 432.837, 386.001 433.250 C 386 433.663, 387.585 434, 389.522 434 C 392.270 434, 394.047 433.076, 397.599 429.802 C 400.104 427.493, 402.792 424.369, 403.573 422.859 C 405.083 419.939, 408.361 400.111, 407.808 397.240 C 407.611 396.220, 405.069 399.754, 401.495 406.016 M 429.397 405.250 C 427.989 409.966, 427.568 414.323, 427.683 423 C 427.876 437.607, 428.623 440.239, 432.816 441.096 C 434.569 441.455, 437.987 443.577, 440.412 445.812 C 443.340 448.511, 446.110 450.083, 448.660 450.493 C 450.772 450.832, 453.377 451.292, 454.448 451.513 C 456.891 452.019, 459 450.335, 459 447.878 C 459 445.076, 460.746 445.609, 462.467 448.937 C 464.422 452.718, 465.508 453.334, 467.929 452.038 C 469.520 451.186, 471.183 451.688, 476.550 454.638 C 481.950 457.606, 483.367 458.031, 484.085 456.897 C 485.562 454.564, 485.189 453.557, 480.012 445.888 C 473.266 435.896, 468.194 430.149, 462.599 426.157 L 457.914 422.814 458.526 432.157 L 459.137 441.500 455.714 436.277 C 451.068 429.188, 448.589 421.013, 449.367 415.341 C 449.925 411.266, 449.811 410.925, 448.070 411.478 C 446.070 412.112, 445.772 411.592, 444.495 405.250 C 444.042 402.997, 443.276 402, 442 402 C 439.890 402, 439.748 402.540, 437.510 419 C 436.650 425.325, 435.669 431.625, 435.330 433 L 434.713 435.500 433.956 433 C 433.540 431.625, 433.155 423.413, 433.100 414.750 C 433.045 406.087, 432.609 399, 432.132 399 C 431.654 399, 430.424 401.813, 429.397 405.250 M 471 413.025 C 471 413.589, 474.213 418.325, 478.141 423.551 C 482.069 428.776, 485.074 433.259, 484.819 433.514 C 484.565 433.768, 482.839 432.857, 480.984 431.488 C 476.873 428.455, 476.839 428.453, 477.914 431.250 C 481.808 441.382, 486.558 449.392, 490.264 452.077 C 495.007 455.512, 496 455.682, 496 453.059 C 496 450.186, 497.315 449.847, 502.019 451.507 C 508.512 453.797, 509.202 453.569, 508.830 449.250 C 508.442 444.744, 509.370 444.904, 513.828 450.112 C 515.952 452.594, 518.011 454, 519.519 454 C 522.589 454, 523.138 452.967, 522.062 449.218 C 521.579 447.531, 521.391 445.943, 521.645 445.689 C 521.899 445.435, 527.983 447.225, 535.165 449.668 C 542.348 452.111, 548.440 453.894, 548.703 453.630 C 548.966 453.367, 544.300 447.380, 538.333 440.326 C 532.367 433.272, 524.577 424.012, 521.023 419.750 C 517.469 415.488, 514.210 412, 513.780 412 C 511.897 412, 513.169 422.404, 516 430.163 C 517.650 434.684, 519 438.608, 519 438.883 C 519 439.158, 516.156 436.484, 512.680 432.941 C 509.205 429.399, 503.580 425.007, 500.180 423.182 L 494 419.865 494 423.469 L 494 427.073 484.048 419.537 C 474.712 412.466, 471 410.614, 471 413.025 M 541 431.492 C 541 434.027, 542.807 436.977, 548.356 443.500 C 557.666 454.447, 562.311 459, 564.166 459 C 568.124 459, 565.718 454.650, 555.167 442.734 C 544.710 430.926, 541 427.981, 541 431.492 M 348.535 450.187 C 348.288 450.909, 347.350 454.425, 346.451 458 C 344.092 467.387, 337.283 485.605, 333.743 492 C 328.913 500.726, 326.383 503.638, 318.681 509.334 C 314.708 512.272, 309.615 516.886, 307.362 519.588 C 302.355 525.594, 295.648 535.982, 296.335 536.668 C 297.693 538.026, 304.254 533.180, 310.899 525.912 C 315.480 520.901, 321.384 515.829, 326.406 512.589 C 330.866 509.712, 336.332 505.294, 338.552 502.771 C 343.552 497.091, 348.013 484.983, 348.047 477 C 348.059 473.975, 348.720 467.900, 349.515 463.500 C 350.310 459.100, 350.970 454.289, 350.980 452.809 C 351.002 449.900, 349.271 448.043, 348.535 450.187 M 178.008 480.542 C 172.237 484.140, 167.164 487.436, 166.735 487.865 C 166.305 488.295, 167.115 491.272, 168.534 494.480 C 170.697 499.372, 171.323 500.087, 172.408 498.907 C 176.452 494.511, 191 475.775, 191 474.963 C 191 472.982, 188.217 474.177, 178.008 480.542 M 734.066 486.746 C 733.373 488.261, 732.219 494.545, 731.500 500.710 C 730.341 510.649, 729.778 512.603, 726.538 517.938 C 724.528 521.247, 722.409 524.247, 721.830 524.605 C 721.251 524.963, 719.708 527.673, 718.401 530.628 C 717.085 533.604, 715.371 536, 714.558 536 C 712.311 536, 711.562 529.569, 712.817 521.053 C 715.410 503.466, 715.349 499, 712.514 499 C 710.601 499, 709.218 503.378, 707.459 515 C 706.586 520.775, 705.016 528.875, 703.970 533 C 702.925 537.125, 701.595 546.350, 701.014 553.500 C 700.434 560.650, 699.442 570.939, 698.811 576.364 C 697.788 585.151, 697.859 586.805, 699.462 591.519 C 702.870 601.547, 711.664 610.562, 723.899 616.573 C 728.505 618.836, 731.370 619.436, 740.034 619.952 C 752.126 620.674, 754.132 621.653, 759.107 629.258 C 760.956 632.086, 763.231 634.271, 764.711 634.642 C 767.623 635.373, 790.648 633.685, 791.668 632.666 C 792.842 631.491, 786.697 623.812, 783.016 621.853 C 780.680 620.611, 777.444 620, 773.200 620 C 769.718 620, 765.886 619.492, 764.684 618.872 C 763.483 618.251, 758.900 614.297, 754.500 610.085 C 750.100 605.873, 744.608 600.842, 742.295 598.906 L 738.091 595.386 735.909 580.443 C 733.804 566.019, 733.761 564.094, 734.685 525 C 735.211 502.725, 735.570 484.386, 735.483 484.246 C 735.396 484.106, 734.758 485.231, 734.066 486.746 M 79.642 503.769 C 78.746 505.221, 83.080 514.893, 87.197 520.625 C 89.003 523.140, 92.510 526.391, 94.990 527.849 C 99.088 530.258, 100.436 530.497, 109.728 530.472 C 116.170 530.454, 120.390 530.010, 121.127 529.273 C 123.407 526.993, 119.339 523.216, 109.606 518.576 C 101.214 514.575, 97.014 511.292, 95.692 507.700 C 95.395 506.893, 94.898 506.828, 94.175 507.500 C 93.430 508.193, 93.403 509.846, 94.085 512.882 C 94.626 515.292, 94.789 517.542, 94.445 517.882 C 94.102 518.222, 91.949 516.264, 89.661 513.530 C 81.519 503.804, 80.334 502.650, 79.642 503.769 M 272.723 565.915 C 263.806 574.681, 263.601 574.982, 266.550 574.991 C 270.013 575.001, 272.096 576.587, 271.316 578.620 C 271.025 579.377, 266.898 582.852, 262.144 586.342 C 257.390 589.832, 252.825 593.509, 252 594.513 C 250.586 596.233, 250.701 596.298, 254 595.661 C 255.925 595.288, 259.471 593.606, 261.879 591.921 C 264.444 590.128, 266.628 589.228, 267.150 589.750 C 268.074 590.674, 266.208 593.661, 260.042 601.126 C 256.700 605.172, 256.667 605.295, 259.042 604.785 C 260.394 604.495, 262.288 603.926, 263.250 603.522 C 264.779 602.879, 265 603.407, 265 607.702 C 265 612.822, 267.363 617.937, 268.373 615 C 268.656 614.175, 269.378 610.125, 269.977 606 C 271.800 593.434, 276.044 577.192, 279.474 569.651 C 286.231 554.795, 284.825 554.017, 272.723 565.915 M 301.241 638.250 C 301.464 638.938, 302.739 640.023, 304.074 640.663 C 307.016 642.074, 330.296 642.872, 331 641.586 C 331.275 641.084, 329.250 639.881, 326.500 638.914 C 320.290 636.730, 300.576 636.211, 301.241 638.250"/>
</svg>