<?xml version="1.0" encoding="utf-8"?>
<svg xmlns="http://www.w3.org/2000/svg" width="1002" height="276" viewBox="0 0 1002 276">
  <path fill-rule="evenodd" d="M 71.664 3.432 C 71.299 4.384, 71 5.961, 71 6.935 C 71 8.418, 69.766 8.811, 63.416 9.348 C 59.245 9.700, 53.058 10.705, 49.666 11.581 C 42.950 13.315, 29.091 20.099, 26.731 22.808 C 25.608 24.098, 24.978 29.969, 24.085 47.500 C 22.844 71.831, 18.639 122.729, 16.896 134.500 C 16.326 138.350, 14.564 146.450, 12.981 152.500 C 8.542 169.457, 3.147 197.410, 2.173 208.500 C 1.315 218.263, 1.604 253.208, 2.580 257.816 C 4.028 264.647, 39.619 269.879, 65.478 267.062 C 71.516 266.405, 77.028 265.391, 77.728 264.811 C 78.606 264.082, 79 260.582, 79 253.514 L 79 243.273 84.250 244.208 C 115.132 249.705, 145.941 258.119, 153.123 263.017 C 158.372 266.597, 169.402 270.263, 182.148 272.666 C 194.059 274.911, 242.115 275.219, 257 273.146 C 272.981 270.921, 293.324 266.976, 294.699 265.835 C 295.501 265.169, 296 262.467, 296 258.784 C 296 253.801, 295.692 252.732, 294.137 252.326 C 292.578 251.918, 292.185 250.532, 291.725 243.815 C 291.242 236.765, 290.831 235.429, 288.337 232.800 C 282.742 226.899, 258.263 216.690, 236.155 211.037 C 209.400 204.196, 186.391 193.417, 166.309 178.319 C 155.607 170.272, 149.331 164.349, 143.885 157.155 C 139.448 151.293, 139 150.210, 139 145.338 C 139 136.923, 146.653 103.155, 159.915 53.057 L 162.944 41.615 160.383 38.258 C 152.907 28.457, 129.193 13.709, 116.116 10.727 C 111.709 9.723, 110.561 9.015, 109.796 6.830 C 109.281 5.362, 108.191 3.904, 107.374 3.590 C 106.556 3.276, 98.337 2.723, 89.108 2.360 C 73.758 1.756, 72.272 1.848, 71.664 3.432 M 78 30.352 L 78 51.705 86.679 52.372 C 92.297 52.804, 95.583 52.674, 95.998 52.004 C 96.350 51.434, 97.889 42.313, 99.419 31.734 C 100.949 21.155, 102.268 12.057, 102.350 11.516 C 102.526 10.364, 94.337 9.239, 84.750 9.099 L 78 9 78 30.352 M 354.830 10.971 C 350.370 13.395, 347.933 16.699, 343.455 26.391 L 340.029 33.806 329.265 34.653 C 309.563 36.203, 282.671 35.548, 271.870 33.254 C 259.460 30.618, 247.214 24.855, 238.731 17.659 C 231.237 11.302, 228.397 10.569, 227.354 14.725 C 226.189 19.369, 228.741 31.001, 232.547 38.391 L 236.096 45.282 229.568 44.758 C 225.977 44.469, 220.153 43.215, 216.626 41.969 C 206.012 38.222, 204.589 40.619, 210.617 52.092 C 217.842 65.841, 232.289 76.854, 248.556 81.014 C 254.931 82.645, 259.823 83.014, 275.910 83.078 C 298.441 83.168, 326.659 84.325, 327.528 85.195 C 327.854 85.521, 327.544 91.267, 326.840 97.965 L 325.559 110.143 318.530 113.425 C 306.742 118.929, 299.119 127.213, 296.912 136.916 C 296.214 139.986, 301.100 171.420, 304.852 188 C 306.775 196.499, 317.765 203.079, 338.709 208.270 L 346.919 210.305 351.182 216.903 C 356.536 225.189, 369.291 238.552, 377.913 244.908 C 391.445 254.884, 411.684 263.766, 428.500 267.109 C 438.682 269.132, 459.646 268.874, 469.500 266.603 C 479 264.414, 492.539 259.753, 499.500 256.275 C 516.055 248.005, 532.637 233.789, 543.339 218.690 C 549.752 209.644, 550.021 209.408, 555.200 208.306 C 572.419 204.642, 586.993 196.414, 588.934 189.261 C 591.488 179.846, 597.378 145.897, 597.393 140.500 C 597.422 130.173, 590.922 121.598, 577.522 114.286 L 570.543 110.478 568.939 97.989 C 568.027 90.886, 567.718 85.244, 568.223 84.907 C 569.287 84.196, 603.866 83.006, 623.590 83.003 C 644.940 82.999, 658.708 78.589, 670.913 67.846 C 679.973 59.870, 688.336 45.925, 686.667 41.575 C 685.860 39.472, 683.580 39.591, 677.040 42.076 C 674.037 43.218, 668.532 44.407, 664.808 44.719 L 658.037 45.287 660.990 39.834 C 664.743 32.906, 667.197 23.377, 666.805 17.260 C 666.362 10.351, 663.668 10.275, 656.350 16.963 C 650.062 22.710, 635.869 30.039, 626.500 32.378 C 614.945 35.262, 600.307 36.315, 582.500 35.543 C 573.150 35.138, 563.321 34.512, 560.659 34.153 L 555.817 33.500 550.659 23.502 C 544.262 11.104, 541.047 8.728, 531.374 9.249 C 526.243 9.525, 523.100 10.626, 512.023 16.027 C 503.177 20.340, 498.125 23.420, 496.766 25.329 C 494.352 28.719, 493.451 35.143, 494.711 39.982 C 495.533 43.137, 495.261 43.935, 491.819 48.482 C 489.729 51.242, 487.295 55.525, 486.409 58 C 482.909 67.778, 482.957 115.102, 486.479 126.722 C 488.299 132.731, 490.712 134.890, 501.805 140.431 C 508.271 143.661, 509.032 144.334, 508.439 146.290 C 507.084 150.758, 499.782 163.919, 496.644 167.549 L 493.412 171.288 470.346 172.326 C 454.634 173.032, 440.165 173.041, 424.957 172.354 L 402.634 171.345 399.067 167.310 C 395.371 163.130, 388.513 150.471, 387.450 145.869 C 386.884 143.414, 387.400 142.942, 395.159 138.827 C 400.421 136.038, 404.275 133.232, 405.651 131.190 C 409.282 125.801, 410.468 115.643, 410.456 90 C 410.445 63.501, 409.697 59.209, 403.489 49.983 C 400.278 45.212, 400.060 44.443, 400.981 41.129 C 402.505 35.643, 402.218 32.082, 399.862 27.214 C 397.848 23.055, 396.936 22.410, 384.277 16.190 C 372.836 10.569, 369.911 9.539, 364.665 9.280 C 359.977 9.049, 357.621 9.454, 354.830 10.971 M 57.519 17.068 C 51.214 18.122, 41.747 21.528, 36.250 24.721 L 32 27.190 32 33.631 L 32 40.072 35.736 37.533 C 41.008 33.951, 51.483 30.136, 61.736 28.066 L 70.500 26.296 70.802 21.148 L 71.105 16 66.802 16.118 C 64.436 16.182, 60.259 16.610, 57.519 17.068 M 357.225 17.505 C 351.634 21.544, 342.712 45.787, 338.581 68.166 C 335.350 85.665, 332.613 105.947, 333.379 106.713 C 333.714 107.047, 336.432 106.774, 339.420 106.105 L 344.853 104.890 345.522 98.195 C 347.126 82.145, 351.531 67.544, 355.985 63.513 C 358.521 61.219, 364.309 62.218, 367.612 65.521 C 370.396 68.305, 370.497 70.254, 368.589 84.500 C 367.853 90, 367.419 94.688, 367.626 94.918 C 367.833 95.147, 370.139 94.168, 372.751 92.742 C 377.423 90.191, 377.530 90.022, 379.329 82.325 C 382.036 70.742, 384.561 62.950, 390.229 48.684 C 397.383 30.675, 397.347 30.568, 381.500 22.665 C 368.122 15.994, 361.319 14.547, 357.225 17.505 M 517.191 21.265 C 510.971 24.144, 504.723 27.533, 503.307 28.794 C 501.006 30.844, 500.793 31.608, 501.311 35.975 C 501.629 38.664, 502.859 42.763, 504.044 45.086 C 508.711 54.234, 515.358 75.135, 517.432 87.183 C 517.960 90.254, 518.833 91.294, 522.685 93.447 C 525.225 94.867, 527.534 95.799, 527.815 95.518 C 528.096 95.237, 527.732 89.184, 527.007 82.067 C 525.514 67.425, 526.026 65.474, 532.016 62.993 C 537.143 60.870, 540.001 62.517, 543.649 69.701 C 546.598 75.508, 547.922 81.190, 550.695 99.942 L 551.500 105.384 556.869 106.740 C 559.822 107.486, 562.443 107.890, 562.695 107.638 C 563.336 106.998, 559.367 78.631, 556.869 66 C 554.126 52.128, 548.677 34.283, 544.897 26.797 C 538.453 14.031, 534.515 13.245, 517.191 21.265 M 108.690 18.639 C 108.407 19.662, 107.905 22.109, 107.575 24.076 L 106.975 27.652 117.951 31.936 C 130.608 36.875, 142.097 44.031, 147.833 50.547 C 150.030 53.044, 152.033 54.730, 152.282 54.293 C 152.532 53.857, 153.300 51.099, 153.988 48.165 L 155.240 42.830 151.375 38.872 C 143.002 30.297, 122.860 18.961, 113.275 17.428 C 109.837 16.878, 109.126 17.066, 108.690 18.639 M 63 34.670 C 53.298 36.372, 38.067 43.211, 33.691 47.831 C 31.302 50.353, 31.101 51.439, 30.046 67.500 C 29.432 76.850, 28.043 93.874, 26.960 105.332 L 24.989 126.164 28.600 137.032 C 34.630 155.187, 43.434 168.117, 55.039 175.867 C 60.349 179.413, 71.191 183.142, 72.471 181.863 C 74.558 179.776, 80.145 108.248, 81.208 70 L 81.500 59.500 77.230 58.930 C 74.882 58.617, 72.411 57.811, 71.741 57.141 C 70.935 56.335, 70.518 52.290, 70.511 45.211 L 70.500 34.500 68 34.366 C 66.625 34.292, 64.375 34.429, 63 34.670 M 105.614 37.750 C 105.314 39.263, 104.546 44.325, 103.908 49 C 103.269 53.675, 102.299 58.063, 101.751 58.750 C 101.159 59.493, 98.391 60, 94.923 60 C 89.111 60, 89.089 60.011, 88.597 63.250 C 88.326 65.037, 87.842 75.210, 87.522 85.855 C 86.703 113.099, 83.200 158.500, 80.343 178.904 L 79.727 183.307 85.480 182.631 C 93.749 181.659, 100.435 178.449, 105.007 173.254 C 107.170 170.797, 112.107 162.316, 115.978 154.407 C 121.613 142.894, 124.120 138.924, 128.556 134.487 L 134.097 128.947 137.064 115.369 C 138.697 107.902, 142.044 93.780, 144.503 83.987 C 148.795 66.895, 148.913 66.036, 147.446 62.524 C 143.831 53.872, 132.463 45.311, 115.624 38.559 C 110.743 36.602, 106.616 35, 106.454 35 C 106.292 35, 105.914 36.237, 105.614 37.750 M 54.120 63.109 C 49.092 64.620, 46.356 66.729, 44.586 70.460 C 41.965 75.983, 42.607 80.533, 47.479 90.956 C 53.301 103.409, 56.041 117.792, 54.172 126.083 C 53.500 129.062, 52.546 132.146, 52.052 132.936 C 50.736 135.036, 48.492 132.856, 46.441 127.486 C 44.494 122.387, 43.396 121.776, 38.575 123.107 C 34.581 124.210, 34.214 125.541, 36.546 130.456 C 41.241 140.349, 49.559 142.960, 56.622 136.759 C 62.069 131.977, 63.952 127.016, 63.978 117.386 C 64.007 106.841, 62.877 101.200, 58.482 89.955 C 53.966 78.397, 52.277 70.576, 53.881 68.643 C 54.514 67.881, 57.089 67.025, 59.603 66.741 C 63.840 66.264, 67 64.667, 65.896 63.562 C 64.797 62.464, 57.236 62.172, 54.120 63.109 M 100.750 68.023 C 98.215 69.582, 98.603 71, 101.566 71 C 102.977 71, 104.997 71.463, 106.055 72.030 C 108.256 73.207, 111.005 78.037, 110.990 80.700 C 110.977 83.214, 106.609 92.371, 102.023 99.500 C 96.415 108.220, 92.667 121.106, 93.167 129.954 C 93.587 137.375, 95.140 140.522, 100.276 144.357 C 104.140 147.242, 109.392 145.427, 115.226 139.189 C 122.919 130.965, 123.395 128.371, 116.976 129.655 C 114.689 130.112, 112.858 131.562, 110.698 134.627 C 107.150 139.660, 105.678 139.228, 103.900 132.634 C 101.514 123.784, 104.984 110.143, 112.924 97.150 C 119.573 86.270, 121.553 80.762, 120.614 75.756 C 119.570 70.193, 116 67.646, 108.718 67.269 C 105.298 67.092, 101.713 67.431, 100.750 68.023 M 810.500 69.470 C 795.785 73.067, 791.216 73.436, 783.350 71.658 C 768.413 68.282, 750.154 68.704, 744.268 72.560 C 741.561 74.334, 734.121 89.515, 730.576 100.500 C 729.155 104.900, 727.171 113.436, 726.166 119.469 L 724.338 130.438 708.401 132.684 C 678.060 136.958, 654.443 144.513, 640.647 154.358 C 632.720 160.015, 624.204 172.107, 619.069 185 C 616.244 192.091, 615.674 194.826, 615.630 201.500 C 615.545 214.293, 619.040 218.555, 636.500 226.954 C 665.054 240.690, 699.709 245.186, 732.792 239.445 C 741.868 237.871, 746.427 236.714, 785.500 226.071 C 807.315 220.129, 821.746 216.731, 852 210.411 C 893.622 201.718, 899.081 200.967, 931.500 199.488 C 948 198.735, 965.550 197.408, 970.500 196.539 C 992.224 192.727, 1002.963 181.626, 1000.007 166.039 C 998.773 159.528, 997.046 156.338, 992.332 151.856 C 987.869 147.612, 982.799 144.912, 974.470 142.342 C 966.510 139.886, 937.538 139.898, 925.500 142.362 C 921.100 143.263, 917.163 144, 916.750 144 C 916.337 144, 916 138.404, 916 131.565 C 916 111.104, 912.807 100.326, 903.836 90.511 C 892.263 77.849, 864.454 68.945, 832.056 67.529 C 822.083 67.094, 819.130 67.360, 810.500 69.470 M 358.013 73.258 C 355.349 79.311, 351.415 100.567, 352.816 101.342 C 353.192 101.550, 354.885 101.139, 356.577 100.428 L 359.654 99.136 361.341 85.318 C 363.357 68.810, 363.347 70.347, 361.440 69.615 C 360.311 69.182, 359.365 70.188, 358.013 73.258 M 534.132 69.901 C 532.980 70.627, 533.035 73.035, 534.480 85.132 C 535.424 93.034, 536.715 99.841, 537.348 100.259 C 538.856 101.252, 542.992 102.343, 543.455 101.870 C 544.052 101.259, 541.098 82.873, 539.539 77.500 C 537.713 71.208, 535.962 68.746, 534.132 69.901 M 820.500 74.660 C 805.464 78.835, 793.350 83.121, 783.500 87.750 C 773.956 92.235, 770.224 93.475, 765.266 93.810 C 759.235 94.217, 758.916 94.116, 755.516 90.716 C 753.276 88.476, 752 86.245, 752 84.569 C 752 81.466, 754.453 80.177, 757.152 81.863 C 758.700 82.830, 759.427 82.680, 761.196 81.032 C 762.382 79.927, 764.156 78.768, 765.139 78.456 C 766.956 77.879, 770.999 79.485, 771.001 80.785 C 771.002 81.991, 781.822 81.577, 783.077 80.323 C 785.018 78.382, 776.784 76.737, 764.500 76.612 C 749.411 76.458, 748.953 76.647, 744.740 84.736 C 737.604 98.437, 733.288 114.157, 731.038 134.641 C 730.425 140.218, 729.342 148.439, 728.631 152.908 C 727.707 158.712, 727.646 161.286, 728.419 161.912 C 732.496 165.219, 761.817 171.604, 799.920 177.483 L 815.339 179.862 819.920 177.542 C 826.229 174.345, 847.416 165.545, 858.950 161.329 C 870.575 157.080, 898.484 148.375, 903.499 147.434 C 908.320 146.530, 909 144.484, 909 130.882 C 909 105.963, 902.713 94.181, 884.882 85.685 C 877.356 82.099, 862.085 77.972, 849.500 76.122 C 840.604 74.814, 823.118 73.933, 820.500 74.660 M 397.500 84.080 C 382.002 97.071, 359.764 108.349, 340.220 113.130 C 323.512 117.216, 309.554 125.316, 305.325 133.379 C 303.223 137.387, 303.438 142.349, 306.413 158.500 C 307.831 166.200, 308.993 172.862, 308.996 173.305 C 308.998 173.748, 311.568 172.018, 314.707 169.461 C 321.386 164.021, 332.397 158.319, 351.071 150.632 C 379.478 138.938, 397.585 130.447, 399.693 127.832 C 401.793 125.226, 403.102 115.248, 403.704 97.250 C 404.039 87.213, 404.131 79.011, 403.907 79.025 C 403.683 79.039, 400.800 81.314, 397.500 84.080 M 490.721 83.709 C 489.889 90.729, 491.648 119.811, 493.187 124.500 C 494.331 127.986, 495.400 128.977, 501.500 132.210 C 505.350 134.251, 515.025 138.697, 523 142.089 C 530.975 145.482, 542.058 150.193, 547.629 152.558 C 563.783 159.416, 575.142 165.469, 580.139 169.880 L 584.779 173.975 587.358 160.238 C 588.777 152.682, 590.218 144.859, 590.561 142.852 C 591.376 138.083, 588.524 131.718, 583.373 126.808 C 578.097 121.780, 567.499 116.756, 555.500 113.596 C 531.211 107.199, 509.001 95.818, 495.397 82.799 L 491.294 78.872 490.721 83.709 M 830.064 90.024 C 823.775 93.311, 818.092 96, 817.437 96 C 816.781 96, 815.666 95.302, 814.958 94.449 C 814.242 93.587, 812.524 93.032, 811.086 93.199 C 809.074 93.433, 808.500 94.055, 808.500 96 C 808.500 101.166, 827.604 111.209, 837.500 111.245 C 842.140 111.262, 866.673 107.792, 873.500 106.153 C 877.237 105.256, 878.136 101.678, 875.040 100.021 C 873.895 99.409, 872.534 99.170, 872.016 99.490 C 871.497 99.811, 870.118 99.118, 868.950 97.950 C 867.456 96.456, 866.112 96.006, 864.413 96.432 C 862.674 96.869, 862 96.623, 862 95.554 C 862 92.774, 859.034 91.936, 848.750 91.808 C 846.138 91.775, 844 91.355, 844 90.874 C 844 90.393, 844.364 90, 844.809 90 C 845.254 90, 846.474 89.374, 847.521 88.608 C 849.138 87.426, 849.224 86.975, 848.090 85.608 C 845.819 82.872, 841.923 83.826, 830.064 90.024 M 389.627 102.529 C 389.282 103.428, 388.993 105.814, 388.985 107.832 C 388.969 111.679, 387.581 114.915, 386.438 113.772 C 386.070 113.403, 385.464 111.616, 385.093 109.801 C 384.606 107.419, 383.872 106.500, 382.459 106.500 C 380.936 106.500, 380.442 107.280, 380.240 110 C 379.834 115.445, 381.898 118.490, 386.035 118.551 C 388.091 118.582, 389.459 119.090, 389.400 119.801 C 389.345 120.461, 389.233 121.870, 389.150 122.934 C 389.048 124.252, 388.125 124.968, 386.250 125.184 C 383.133 125.542, 382.619 127.726, 385.259 129.391 C 386.597 130.235, 387.669 130.134, 389.744 128.970 C 394.180 126.481, 395.032 123.595, 394.753 112 C 394.516 102.153, 394.368 101.481, 392.377 101.197 C 391.125 101.018, 389.997 101.565, 389.627 102.529 M 510.605 106.537 C 509.722 107.420, 508.997 109.573, 508.993 111.321 C 508.989 113.070, 508.704 117.488, 508.359 121.139 C 507.758 127.498, 507.841 127.850, 510.328 129.479 C 512.507 130.907, 513.488 130.994, 516.429 130.023 C 523.805 127.589, 527.797 118.238, 524.663 110.736 C 523.400 107.714, 522.523 107.013, 519.326 106.472 C 517.222 106.116, 514.760 105.624, 513.855 105.379 C 512.951 105.133, 511.488 105.655, 510.605 106.537 M 514.607 109.827 C 513.788 111.153, 513.443 125.776, 514.213 126.547 C 516.875 129.208, 521.579 120.901, 520.542 115.370 C 519.677 110.760, 516.097 107.416, 514.607 109.827 M 370.985 111.750 C 370.976 112.162, 370.544 113.173, 370.024 113.995 C 369.210 115.283, 368.886 115.226, 367.684 113.583 C 366.823 112.405, 365.660 111.917, 364.645 112.306 C 362.836 113, 362.531 117.454, 363.654 126.802 C 364.253 131.792, 364.445 132.087, 366.895 131.802 C 369.007 131.557, 369.436 131.047, 369.164 129.111 C 368.868 127.009, 369.108 126.814, 371.164 127.489 C 374.647 128.634, 379.941 128.641, 380.084 127.500 C 380.153 126.950, 377.930 125.663, 375.144 124.639 L 370.079 122.778 372.784 117.639 C 374.271 114.813, 375.641 112.162, 375.828 111.750 C 376.014 111.338, 375.004 111, 373.583 111 C 372.163 111, 370.993 111.338, 370.985 111.750 M 531.997 118.850 C 528.521 122.325, 527.330 127.819, 528.908 133.087 C 530.207 137.424, 533.319 138.970, 536.897 137.055 C 541.166 134.770, 543.906 125.274, 541.979 119.438 C 541.022 116.537, 540.376 116, 537.846 116 C 535.881 116, 533.863 116.984, 531.997 118.850 M 349.650 118.834 C 343.171 125.993, 347.478 141.026, 354.874 137.068 C 357.754 135.526, 360.354 131.365, 359.625 129.465 C 358.845 127.431, 355.408 129.139, 354.496 132.013 C 353.364 135.580, 352 133.044, 352 127.374 C 352 122.587, 352.229 121.937, 353.750 122.410 C 356.550 123.281, 358.723 121.417, 357.399 119.278 C 355.835 116.752, 351.746 116.518, 349.650 118.834 M 534.605 121.588 C 534.272 122.454, 534 125.692, 534 128.782 C 534 136.097, 536.130 134.473, 536.778 126.664 C 537.212 121.435, 535.868 118.296, 534.605 121.588 M 337.472 123.046 C 337.116 123.621, 337.123 126.260, 337.488 128.910 C 338.203 134.115, 336.523 142.441, 334.953 141.471 C 334.429 141.147, 334 138.284, 334 135.108 C 334 128.510, 333.529 127.647, 330.742 129.138 C 328.963 130.090, 328.800 130.954, 329.238 137.089 C 329.817 145.170, 331.120 147.220, 335.415 146.801 C 340.092 146.345, 341.997 141.702, 341.998 130.750 C 342 122.755, 341.833 122, 340.059 122 C 338.991 122, 337.827 122.471, 337.472 123.046 M 554.284 123.762 C 550.908 124.323, 547.208 129.432, 546.432 134.604 C 545.593 140.200, 547.309 146.560, 550.054 148.029 C 552.648 149.417, 556.989 147.408, 558.667 144.042 C 559.340 142.690, 560.867 141.223, 562.060 140.782 C 563.829 140.128, 564.005 139.711, 563.014 138.516 C 561.282 136.430, 555.634 135.590, 552.959 137.022 C 550.745 138.207, 550.720 138.154, 551.400 133.863 C 552.132 129.250, 555 124.862, 555 128.355 C 555 131.058, 559.414 130.106, 559.811 127.318 C 560.167 124.813, 557.661 123.201, 554.284 123.762 M 313.064 135.423 C 310.961 137.957, 313.809 157.010, 316.289 156.991 C 316.955 156.985, 319.975 155.534, 323 153.764 C 327.765 150.977, 328.184 150.500, 326.135 150.189 C 324.834 149.992, 323.281 150.319, 322.685 150.915 C 319.637 153.963, 318.679 152.011, 317.454 140.250 C 316.793 133.901, 315.504 132.483, 313.064 135.423 M 705.845 140.088 C 678.614 144.198, 656.056 151.650, 643.954 160.534 C 634.154 167.728, 622.938 188.727, 622.650 200.421 C 622.442 208.842, 624.040 211.995, 630.493 215.907 C 657.959 232.552, 703.081 239.096, 737.251 231.388 C 744.185 229.824, 744.869 229.399, 753 221.603 C 757.675 217.120, 765.488 210.561, 770.363 207.027 L 779.227 200.602 767.363 198.877 C 745.631 195.717, 718.126 188.234, 713.777 184.298 C 711.654 182.377, 711.496 178.900, 713.362 175.200 C 714.111 173.715, 714.983 170.480, 715.299 168.010 C 715.681 165.028, 716.637 162.903, 718.145 161.681 C 720.015 160.167, 720.706 157.913, 722.054 148.921 L 723.692 138 721.096 138.089 C 719.668 138.138, 712.805 139.038, 705.845 140.088 M 127.464 147.650 C 125.245 151.417, 122.572 156.525, 121.525 159 C 117.928 167.505, 111.727 177.070, 107.264 180.999 C 101.920 185.703, 93.896 188.898, 85.445 189.687 L 79.257 190.265 78.629 196.279 C 77.508 206.999, 77.866 222.026, 79.250 222.401 C 79.938 222.587, 88.825 224.194, 99 225.972 C 118.471 229.376, 129.246 232.387, 145.230 238.890 C 163.884 246.480, 184.086 251.440, 207 254.054 C 220.473 255.591, 253.052 255.626, 268.500 254.121 C 286.069 252.408, 285.002 252.887, 284.986 246.731 C 284.979 243.854, 284.717 240.547, 284.404 239.381 C 283.078 234.439, 261.283 225.169, 232.730 217.403 C 201.295 208.853, 179.696 198.158, 157.011 179.911 C 140.409 166.558, 132.821 156.493, 132 146.740 L 131.500 140.800 127.464 147.650 M 19.194 156.750 C 15.128 172.993, 10.019 197.699, 10.008 201.167 C 10.002 203.320, 11.160 204.609, 16.012 207.849 C 27.715 215.664, 39.773 219.025, 61.750 220.596 L 71 221.258 71.009 210.879 C 71.013 205.171, 71.300 198.147, 71.645 195.271 C 72.126 191.269, 71.948 189.947, 70.887 189.636 C 70.124 189.412, 66.633 188.415, 63.129 187.420 C 56.023 185.401, 45.384 178.479, 40.048 172.402 C 34.954 166.600, 28.232 155.785, 25.848 149.554 C 24.679 146.500, 23.422 144, 23.054 144 C 22.686 144, 20.949 149.738, 19.194 156.750 M 374.182 148.507 C 371.332 149.828, 369 151.553, 369 152.342 C 369 156.153, 374.581 172.304, 378.535 179.938 C 384.330 191.125, 390.085 198.303, 399.132 205.627 C 408.352 213.091, 410.524 217.700, 407.372 223.113 C 406.287 224.976, 404.165 227.096, 402.658 227.825 C 394.907 231.570, 372.539 212.801, 362.349 194 C 357.443 184.949, 352.405 172.384, 350.046 163.314 L 348.958 159.129 343.229 161.657 C 340.078 163.047, 337.354 164.327, 337.176 164.500 C 336.441 165.214, 341.599 182.147, 345.186 190.793 C 355.901 216.626, 376.947 239.365, 400.312 250.353 C 415.247 257.378, 434.158 261.987, 448.074 261.996 C 462.177 262.005, 482.182 256.949, 496.500 249.758 C 517.320 239.301, 533.982 223.189, 544.855 203 C 549.733 193.942, 555.496 179.258, 557.434 170.952 L 558.854 164.866 554.469 162.987 C 546.787 159.694, 547.233 159.330, 542.923 172.404 C 538.793 184.936, 534.536 193.497, 527.405 203.612 C 517.979 216.982, 499.723 230.373, 493.936 228.161 C 489.679 226.533, 487.500 223.204, 487.500 218.328 C 487.500 214.239, 487.918 213.491, 492.500 209.377 C 507.504 195.909, 512.399 190.096, 517.879 179.240 C 521.218 172.626, 525.393 160.719, 526.400 154.938 C 527.013 151.415, 526.963 151.353, 521.741 149.188 C 515.598 146.642, 515 146.562, 515 148.278 C 515 151.038, 507.566 164.879, 502.371 171.790 C 491.535 186.208, 470.296 199.766, 454.807 202.155 C 448.761 203.087, 445.607 203.071, 440.072 202.082 C 426.023 199.572, 406.163 187.192, 395.506 174.303 C 390.253 167.949, 381 151.463, 381 148.457 C 381 146.056, 379.448 146.067, 374.182 148.507 M 932.824 148.459 C 918.523 150.509, 900.853 155.054, 878.874 162.338 C 838.916 175.581, 807.824 190.005, 781.500 207.512 C 771.126 214.411, 758.437 224.771, 759.302 225.635 C 759.518 225.852, 762.577 225.156, 766.098 224.089 C 796.574 214.855, 868.328 198.874, 898.500 194.599 C 904.550 193.742, 921.425 192.575, 936 192.005 C 970.655 190.651, 980.684 188.739, 988.140 182.069 C 996.435 174.647, 994.624 161.078, 984.404 154.075 C 975.455 147.943, 953.279 145.529, 932.824 148.459 M 360.250 162.706 C 358.947 162.957, 358.025 163.846, 358.058 164.820 C 358.169 168.008, 363.678 181.331, 364.401 180.160 C 364.795 179.522, 365.991 179, 367.059 179 C 368.127 179, 369 178.717, 369 178.371 C 369 176.817, 363.607 162.015, 363.085 162.136 C 362.763 162.211, 361.488 162.467, 360.250 162.706 M 529.625 169.420 C 526.606 177.924, 526.471 179, 528.418 179 C 529.198 179, 530.501 179.255, 531.314 179.567 C 532.429 179.995, 533.454 178.143, 535.499 172.004 C 536.988 167.532, 538.048 163.740, 537.853 163.577 C 537.659 163.415, 536.319 162.999, 534.875 162.653 C 532.374 162.054, 532.127 162.373, 529.625 169.420 M 372.723 191.976 L 369.945 193.706 374.299 199.603 C 380.199 207.595, 381.002 208.105, 383.652 205.547 L 385.804 203.469 381.311 197.484 C 375.459 189.689, 375.920 189.984, 372.723 191.976 M 517.404 193.830 C 515.913 195.848, 513.323 198.963, 511.650 200.750 C 509.977 202.537, 509.128 204, 509.765 204 C 510.401 204, 511.800 204.942, 512.873 206.094 L 514.823 208.188 519.466 202.344 C 526.249 193.805, 526.284 193.700, 522.975 191.800 C 520.132 190.169, 520.100 190.180, 517.404 193.830 M 395.027 212.421 C 395.012 213.478, 394.321 215.093, 393.492 216.009 C 392.124 217.521, 392.297 217.845, 395.361 219.495 C 398.695 221.290, 402 221.052, 402 219.017 C 402 218.441, 400.437 216.290, 398.527 214.235 C 395.713 211.209, 395.049 210.864, 395.027 212.421 M 497.118 214.370 C 491.923 219.742, 495.329 223.793, 501.107 219.115 C 502.895 217.667, 503.178 216.913, 502.325 215.865 C 501.715 215.114, 501.054 213.684, 500.858 212.686 C 500.556 211.155, 499.972 211.418, 497.118 214.370"/>
</svg>