<?xml version="1.0" encoding="utf-8"?>
<svg xmlns="http://www.w3.org/2000/svg" width="1002" height="464" viewBox="0 0 1002 464">
  <path fill-rule="evenodd" d="M 843.480 4.460 C 837.970 5.736, 831.876 7.443, 829.939 8.252 C 828.002 9.061, 820.463 11.194, 813.187 12.992 L 799.956 16.260 792.767 14.512 C 787.707 13.283, 785.468 13.096, 785.206 13.882 C 784.959 14.623, 783.061 14.790, 779.551 14.377 C 776.320 13.997, 774.021 14.157, 773.631 14.789 C 773.201 15.484, 770.970 15.349, 766.804 14.377 C 759.901 12.767, 757.715 13.094, 758.674 15.594 C 759.255 17.106, 758.502 17.195, 750.657 16.542 C 745.334 16.098, 742 16.187, 742 16.773 C 742 17.297, 737.612 18.021, 732.250 18.382 C 705.819 20.161, 677.780 22.955, 660 25.582 C 654.775 26.354, 645.550 27.443, 639.500 28.003 C 633.450 28.562, 624.675 29.467, 620 30.014 C 615.325 30.561, 603.400 31.460, 593.500 32.013 C 567.296 33.477, 562.482 33.881, 552.500 35.457 C 533.401 38.472, 512.395 38.953, 414.500 38.621 C 360.600 38.438, 310.875 38.662, 304 39.119 C 297.125 39.576, 280.700 40.162, 267.500 40.421 C 240.963 40.942, 218.245 42.860, 195.500 46.500 C 187.250 47.820, 175.100 49.618, 168.500 50.496 C 161.900 51.374, 148.607 53.186, 138.961 54.522 C 113.791 58.009, 86.755 60, 64.567 60 C 26.682 60, 1 63.798, 1 69.402 C 1 74.146, 28.826 78.277, 94.500 83.281 C 104.719 84.059, 118.630 84.272, 133 83.870 C 170.323 82.824, 204.211 82.922, 210.546 84.093 C 215.298 84.972, 221.047 87.036, 222.772 88.483 C 222.922 88.608, 217.722 94.063, 211.218 100.605 C 198.488 113.408, 187.356 126.756, 174.696 144.396 C 159.140 166.072, 151.766 178.528, 141.482 200.500 C 131.645 221.518, 123.290 234.642, 108.007 253.082 C 96.738 266.679, 83.635 278.047, 69.437 286.543 C 55.520 294.871, 50.604 298.896, 47.918 304.161 C 42.006 315.749, 37.133 350.856, 35.030 397 L 34.096 417.500 36.554 422.243 C 37.906 424.852, 40.078 429.818, 41.380 433.278 C 45.885 445.246, 48.719 449.816, 52.988 451.994 C 62.991 457.097, 85.222 459.224, 91.750 455.702 C 97.929 452.368, 96.216 447.439, 82.740 429.778 C 72.812 416.765, 72.481 415.467, 72.603 390 C 72.713 367.072, 74.114 355.026, 78.070 343.007 C 81.440 332.770, 83.416 329.668, 93.778 318.359 C 118.129 291.780, 138.109 279.238, 174.757 267.527 C 211.424 255.811, 222.251 251.920, 234.650 246.006 C 249.177 239.076, 256.965 233.941, 265.266 225.818 C 270.657 220.544, 271.582 219.985, 272.475 221.465 C 273.039 222.398, 279.029 231.563, 285.787 241.831 C 301.336 265.458, 304.192 271.274, 304.772 280.490 C 305.626 294.074, 301.385 307.832, 294.106 315.095 C 290.186 319.006, 288.580 319.868, 283.322 320.882 C 278.305 321.849, 276.574 322.721, 274.114 325.523 C 272.448 327.421, 270.562 330.892, 269.924 333.237 C 268.224 339.482, 269.442 356.546, 272.512 369.500 C 274.749 378.942, 275.161 383.190, 275.421 399.500 C 275.889 428.809, 279.058 440.686, 287.508 444.792 C 290.414 446.203, 293.193 448.671, 295.267 451.681 C 297.045 454.261, 299.673 457.720, 301.107 459.368 L 303.714 462.364 320.607 462.796 C 339.742 463.285, 345.420 462.366, 347.184 458.495 C 348.964 454.590, 346.615 450.818, 335.811 440.231 C 321.011 425.728, 309.959 413.062, 307.688 408 C 305.212 402.481, 304.160 381.807, 305.886 372.585 C 307.750 362.625, 309.482 360.290, 322.500 350.186 C 354.855 325.074, 372.733 304.608, 385.995 277.500 C 403.641 241.429, 407.474 206.483, 397.156 175.750 C 395.504 170.831, 394.678 167, 395.269 167 C 397.006 167, 424.620 181.757, 438 189.835 C 450.213 197.210, 455.953 201.041, 464.927 207.813 C 471.955 213.116, 482.289 217.865, 497.956 222.993 C 510.521 227.105, 537.726 233.996, 551.938 236.666 C 555.931 237.416, 556.464 237.852, 557.243 241 C 557.719 242.925, 560.987 253.500, 564.504 264.500 C 569.767 280.957, 571.262 287.217, 572.946 299.840 C 574.353 310.382, 575.800 317.106, 577.572 321.340 C 584.443 337.751, 584.979 340.422, 589.494 380.783 C 591.853 401.873, 594.039 413.889, 596.822 421.079 C 597.493 422.813, 600.113 424.863, 604.819 427.336 C 610.190 430.158, 612.398 432, 614.314 435.257 C 619.544 444.149, 620.092 444.375, 638.234 445.129 C 662.362 446.131, 671 444.307, 671 438.209 C 671 432.429, 666.970 428.534, 641.500 409.701 C 630.426 401.512, 626.496 396.259, 623.442 385.555 C 621.369 378.295, 621.933 358.658, 624.462 350 C 625.633 345.992, 626.006 341.109, 625.836 332 C 625.280 302.044, 626.116 296.804, 634.849 275.500 C 640.523 261.659, 638.126 262.809, 656.907 264.916 C 666.018 265.938, 669.906 265.948, 676.219 264.966 C 685.464 263.528, 696.025 264.131, 699.313 266.286 C 700.586 267.120, 705.353 268.505, 709.907 269.364 C 719.175 271.112, 723.396 273.201, 725.809 277.234 C 727.340 279.795, 727.288 281.033, 724.988 296.734 C 721.188 322.665, 721.888 337.773, 727.199 344.526 C 730.496 348.717, 745.308 355.355, 751.541 355.435 C 759.253 355.534, 761.217 353.674, 767.612 340.211 C 774.221 326.296, 778 312.621, 777.999 302.622 C 777.999 294.095, 774.494 262.480, 772.498 252.988 C 768.423 233.620, 764.557 231.091, 732.055 226.539 C 715.411 224.207, 711.017 223.204, 701.555 219.576 C 695.475 217.244, 688.250 214.745, 685.500 214.021 C 682.750 213.297, 680.107 212.356, 679.627 211.929 C 679.146 211.502, 681.538 207.295, 684.942 202.580 C 691.600 193.358, 695.412 190.471, 705.526 186.991 C 713.780 184.151, 715.420 182.849, 720.660 174.968 C 724.471 169.237, 725.548 168.210, 726.723 169.185 C 728.364 170.547, 728.664 170.216, 732.557 162.750 C 733.919 160.137, 735.682 158, 736.475 158 C 737.267 158, 739.095 155.987, 740.537 153.526 C 741.979 151.066, 743.609 149.154, 744.158 149.276 C 744.708 149.399, 745.993 146.271, 747.015 142.324 C 748.036 138.377, 749.550 133.837, 750.378 132.235 C 752.645 127.852, 763.104 118.628, 768.624 116.144 C 776.760 112.484, 776.443 112.917, 777.218 104.394 C 778.175 93.864, 782.388 80.472, 785.712 77.391 C 790.611 72.851, 791.219 74.547, 787.506 82.396 C 785.898 85.794, 784.317 92.261, 783.057 100.584 C 781.193 112.897, 781.176 114.153, 782.689 127.500 C 784.408 142.665, 786.611 148.457, 793.146 154.992 C 798.935 160.782, 802.014 158.744, 817.785 138.690 C 832.881 119.493, 837.985 112.413, 841.504 105.787 C 845.375 98.499, 846.614 97.214, 848.222 98.822 C 849.555 100.155, 847.206 106.339, 842.330 114.336 C 839.624 118.774, 839.050 120.450, 839.935 121.336 C 840.705 122.106, 848.277 122.710, 862.299 123.120 C 895.498 124.091, 900.894 125.214, 908.058 132.635 C 916 140.862, 919.627 143, 925.646 143 C 928.586 143, 933.581 142.137, 936.746 141.083 C 939.911 140.029, 946.100 138.143, 950.500 136.893 C 957.928 134.782, 958.929 134.164, 964.500 128.254 C 967.800 124.753, 975.880 118.201, 982.455 113.694 C 989.291 109.009, 995.164 104.201, 996.170 102.468 C 998.752 98.019, 1001.241 87.373, 1000.494 83.973 C 999.963 81.555, 999.111 80.844, 995.675 79.950 C 985.854 77.393, 961.295 68.765, 953.718 65.209 C 938.315 57.982, 937.556 57.277, 931.472 44.574 C 926.569 34.337, 925.578 32.946, 921.271 30.263 C 914.697 26.169, 879.230 5.615, 875.300 3.622 C 870.518 1.198, 855.905 1.583, 843.480 4.460 M 847.500 20.888 C 846.400 21.351, 843.250 21.628, 840.500 21.503 C 836.498 21.322, 834.202 21.949, 829 24.645 C 818.388 30.145, 809.458 37.397, 807.610 42.018 C 805.567 47.123, 805.478 46.636, 809.046 49.895 C 811.985 52.579, 812.039 52.780, 810.580 55.589 C 809.749 57.190, 808.814 60.155, 808.503 62.177 C 808.133 64.576, 806.441 67.531, 803.635 70.677 C 797.035 78.079, 791.921 89.198, 788.464 103.670 C 786.462 112.051, 786.664 115.157, 789.460 118.946 C 791.313 121.457, 791.683 122.724, 790.960 124.074 C 789.499 126.805, 789.814 132.601, 791.500 134 C 792.325 134.685, 793 136.554, 793 138.154 C 793 141.821, 795.064 142.664, 799.258 140.709 C 801.041 139.877, 803.399 139.034, 804.498 138.835 C 805.627 138.631, 807.257 136.859, 808.243 134.765 C 809.203 132.726, 811.230 130.415, 812.747 129.631 C 816.576 127.651, 818.541 125.169, 819.978 120.500 C 820.655 118.300, 822.962 113.548, 825.105 109.940 C 828.894 103.558, 830.080 99, 827.950 99 C 827.373 99, 825.602 99.672, 824.014 100.493 C 820.170 102.480, 818 101.514, 818 97.816 C 818 95.867, 819.005 93.842, 820.923 91.923 C 823.400 89.446, 824.635 89, 829.017 89 C 833.346 89, 834.272 89.325, 834.710 91 C 834.998 92.100, 835.764 93, 836.414 93 C 838.092 93, 844.278 86.305, 847.502 81 C 849.006 78.525, 851.474 75.150, 852.987 73.500 C 857.243 68.858, 863 59.737, 863 57.636 C 863 56.596, 864.353 52.990, 866.007 49.623 C 867.660 46.255, 869.563 40.865, 870.235 37.645 L 871.457 31.790 868.478 29.370 C 866.840 28.039, 864.983 26.537, 864.352 26.031 C 863.720 25.525, 863.038 24.613, 862.834 24.003 C 862.150 21.951, 850.567 19.598, 847.500 20.888 M 846 24.664 C 840.664 26.789, 839.212 32.370, 843.565 34.025 C 847.387 35.478, 849.384 35.223, 851.799 32.972 C 853.934 30.984, 855.723 26.390, 854.744 25.411 C 853.904 24.571, 847.588 24.031, 846 24.664 M 819.537 34.605 C 818.545 35.598, 818.165 37.029, 818.543 38.355 C 819.229 40.760, 825.378 47, 827.062 47 C 828.860 47, 834 41.295, 834 39.299 C 834 38.280, 833.299 36.445, 832.443 35.223 C 831.197 33.443, 829.916 33, 826.015 33 C 822.875 33, 820.572 33.571, 819.537 34.605 M 851.500 38.399 C 844.984 40.001, 842.590 41.363, 840.070 44.902 C 837.449 48.582, 837.389 52.603, 839.934 53.965 C 845.774 57.090, 856.352 52.500, 860.618 44.989 C 862.912 40.952, 862.914 40.914, 860.963 38.963 C 858.734 36.734, 858.363 36.712, 851.500 38.399 M 559 49.478 C 557.625 50.272, 555.600 51.377, 554.500 51.935 C 552.204 53.099, 528.982 56.897, 518.305 57.855 C 511.860 58.433, 510.735 58.863, 507.523 61.977 L 503.937 65.454 501.584 62.503 L 499.231 59.552 493.071 60.824 C 489.684 61.524, 486.260 62.347, 485.464 62.652 C 484.632 62.971, 483.729 62.458, 483.340 61.444 C 482.863 60.200, 483.524 58.991, 485.582 57.345 L 488.500 55.010 483.500 55.036 C 480.750 55.050, 475.125 55.502, 471 56.040 C 466.875 56.578, 460.216 57.083, 456.203 57.162 C 447.997 57.324, 445.760 56.216, 447.775 52.989 C 448.449 51.910, 449 50.796, 449 50.514 C 449 49.373, 443.294 50.147, 431.217 52.927 C 423.585 54.683, 414.302 56.058, 408 56.364 C 401.861 56.663, 395.956 57.524, 393.782 58.438 C 389.557 60.213, 365.611 60.672, 363.009 59.027 C 361.704 58.202, 361.735 57.719, 363.259 55.138 C 367.031 48.753, 364.813 48.464, 354.168 53.956 C 349.951 56.132, 345.038 58.436, 343.250 59.077 C 339.733 60.339, 339.130 62.033, 341.500 64 C 343.660 65.793, 343.374 66.603, 340.099 67.959 C 338.503 68.620, 336.141 70.293, 334.849 71.678 C 333.557 73.062, 330.868 75.031, 328.874 76.054 C 326.880 77.077, 324.323 79.482, 323.192 81.399 C 320.941 85.214, 317.711 86.329, 308.577 86.440 C 303.770 86.499, 303.633 86.417, 302.764 83 C 301.078 76.373, 296.726 75.407, 287 79.500 C 279.054 82.844, 275.891 82.721, 271.535 78.896 C 267.229 75.116, 267.141 73.491, 270.972 68.428 C 277.003 60.457, 274.364 58.462, 259.094 59.445 C 252.488 59.870, 245.865 59.694, 241.500 58.977 C 237.650 58.344, 229.644 57.866, 223.709 57.914 C 214.965 57.984, 212.166 58.385, 208.948 60.026 C 206.765 61.140, 201.596 62.481, 197.463 63.005 C 193.330 63.529, 189.069 64.428, 187.994 65.003 C 186.920 65.578, 184.968 65.779, 183.656 65.450 C 181.950 65.022, 181.083 65.340, 180.612 66.568 C 180.048 68.039, 179.020 68.198, 173.442 67.677 C 167.961 67.165, 166.644 67.356, 165.114 68.886 C 164.109 69.891, 161.015 71.006, 158.190 71.380 C 150.457 72.406, 150.766 74.004, 158.691 73.973 C 169.296 73.931, 182.957 72.377, 199.178 69.368 C 212.651 66.869, 214.778 66.714, 221.761 67.720 C 228.076 68.630, 230.091 68.571, 232.901 67.397 C 236.104 66.059, 236.488 66.109, 238.674 68.163 C 240.943 70.296, 241.124 70.311, 244.542 68.682 C 246.481 67.757, 249.234 67, 250.659 67 C 253.070 67, 253.198 67.225, 252.496 70.250 C 250.991 76.734, 251.298 78.476, 254 78.797 C 259.045 79.395, 262.244 81.340, 263.627 84.649 C 264.895 87.685, 264.753 88.746, 261.869 97.727 C 258.545 108.078, 255.961 122.522, 256.094 130 L 256.175 134.500 258.347 127.580 C 262.351 114.821, 265.491 119.105, 264.721 136.277 C 263.759 157.735, 267.571 167.921, 284.637 189.500 C 289.857 196.100, 296.349 204.820, 299.064 208.878 C 303.460 215.450, 304 216.848, 304 221.663 C 304 228.189, 304.595 229.179, 316.821 242.979 C 327.345 254.858, 329.404 258.136, 328.688 261.882 C 328.101 264.957, 320.809 285.440, 315.475 299 C 308.647 316.355, 299.766 329.007, 291.770 332.771 C 285.189 335.868, 283.649 338.151, 283.181 345.500 C 282.717 352.779, 285.442 366.849, 287.465 367.625 C 290.425 368.761, 295.999 364.834, 304.054 355.939 C 313.862 345.108, 320.316 338.661, 336.475 323.551 C 343.224 317.240, 351.446 308.258, 355.882 302.350 C 370.340 283.094, 382.304 256.112, 387.210 231.697 C 390.348 216.075, 390.386 187.129, 387.286 173 C 382.962 153.296, 380.210 149.301, 350.486 119.577 C 333.820 102.911, 333.994 100.624, 351.021 112.548 C 361.133 119.630, 378.653 137.845, 388.518 151.534 C 392.595 157.190, 393.481 157.829, 402.683 161.748 C 418.070 168.300, 438.478 177.267, 450.500 182.757 C 465.037 189.395, 469 191.016, 469 190.321 C 469 190.003, 467.651 187.386, 466.002 184.504 C 462.460 178.313, 460.126 171.999, 460.733 170.250 C 461.684 167.510, 464.116 169.329, 468.443 176.017 C 474.179 184.884, 480.094 190.807, 488.908 196.509 C 492.726 198.979, 496.104 201, 496.414 201 C 496.724 201, 501.530 203.520, 507.093 206.600 C 517.161 212.174, 528.987 216.133, 539.888 217.580 L 545 218.258 545 213.002 C 545 206.603, 550.146 188.584, 554.155 180.946 C 560.481 168.892, 580 147.634, 580 152.797 C 580 153.236, 577.234 158.073, 573.853 163.547 C 564.718 178.339, 556.693 196.278, 556.199 203.011 C 555.355 214.499, 557.859 218.350, 570.500 225.011 C 581.164 230.630, 588.099 232.965, 610.500 238.479 C 630.249 243.341, 634.598 244.059, 653 245.497 C 664.275 246.378, 679.125 248.195, 686 249.535 C 699.300 252.127, 714.273 254.401, 725.124 255.476 C 729.923 255.951, 732.710 255.730, 735.240 254.673 C 738.320 253.386, 739.102 253.393, 741.866 254.732 C 745.364 256.426, 745.497 256.816, 743.825 260.484 C 742.755 262.833, 742.948 263.311, 745.996 265.855 L 749.341 268.648 746.948 270.324 C 745.632 271.246, 742.871 272, 740.813 272 C 738.019 272, 736.782 272.539, 735.932 274.127 C 734.799 276.244, 735.364 277.171, 738.500 278.340 C 739.050 278.546, 738.393 280.237, 737.041 282.099 C 732.530 288.310, 730.489 313.162, 733.898 320.368 C 735.103 322.915, 735.577 325.648, 735.285 328.368 C 734.996 331.069, 735.358 333.188, 736.331 334.487 C 737.748 336.378, 737.911 336.390, 739.738 334.737 C 742.547 332.195, 744.745 332.605, 746.500 336 C 748.379 339.634, 750.201 339.739, 756.448 336.576 C 759.081 335.244, 761.814 334.375, 762.523 334.647 C 764.376 335.358, 764.919 332.138, 765.660 316.072 C 765.924 310.337, 765.637 301.860, 765.021 297.234 C 764.259 291.502, 764.227 288.431, 764.923 287.593 C 765.634 286.736, 765.475 285.695, 764.396 284.155 C 763.546 282.941, 762.969 280.497, 763.115 278.724 C 763.260 276.951, 763.053 274.375, 762.655 273 C 762.256 271.625, 761.158 263.603, 760.215 255.174 L 758.500 239.849 743.500 235.906 C 735.250 233.738, 723.100 230.598, 716.500 228.929 C 709.900 227.260, 701.800 225.032, 698.500 223.978 C 691.573 221.765, 675.967 218.455, 668.077 217.525 C 663.506 216.986, 659.765 215.815, 658.131 214.412 C 657.928 214.238, 659.278 212.324, 661.131 210.160 C 665.371 205.206, 672 194.075, 672 191.909 C 672 190.668, 671.107 190.299, 668.311 190.386 C 664.901 190.491, 664.568 190.246, 663.918 187.157 C 663.531 185.319, 662.749 183.349, 662.181 182.781 C 660.528 181.128, 656.036 182.826, 654.783 185.577 C 653.820 187.691, 653.056 188.050, 650.067 187.799 C 646.645 187.512, 646.497 187.340, 646.434 183.561 C 646.378 180.234, 645.963 179.488, 643.762 178.754 C 642.152 178.217, 640.744 176.703, 640.078 174.793 C 638.650 170.697, 638.714 170, 640.521 170 C 641.358 170, 642.555 168.877, 643.180 167.504 C 644.124 165.432, 644 164.657, 642.448 162.943 C 641.415 161.801, 639.797 161.081, 638.831 161.334 C 636.442 161.959, 629.196 158.235, 627.828 155.679 C 627.215 154.533, 625.202 152.170, 623.356 150.429 C 620.008 147.271, 619.116 144.664, 620.989 143.507 C 621.533 143.170, 624.697 143.430, 628.020 144.084 C 634.480 145.355, 636.037 144.954, 634.031 142.537 C 632.221 140.356, 633.333 138.441, 637.937 135.812 C 641.032 134.044, 641.986 132.887, 641.992 130.898 C 641.997 129.147, 643.961 126.075, 648 121.500 C 651.300 117.762, 654 114.085, 654 113.330 C 654 112.575, 652.830 111.424, 651.400 110.772 C 649.300 109.816, 647.927 109.902, 644.266 111.218 L 639.732 112.849 634.616 109.453 C 624.695 102.868, 624.988 104.392, 632.023 95.973 C 635.458 91.863, 639.216 86.548, 640.375 84.163 C 642.453 79.889, 642.455 79.806, 640.550 78.413 C 639.487 77.636, 637.727 77, 636.638 77 C 635.549 77, 633.885 76.301, 632.941 75.446 C 630.981 73.672, 628.973 73.432, 624 74.377 C 619.455 75.241, 618.295 74.360, 616.145 68.417 L 614.366 63.500 609.128 63.827 C 604.210 64.134, 603.624 63.909, 599.536 60.140 C 593.756 54.812, 588.351 53.314, 581 55.003 C 577.975 55.698, 573.592 56.477, 571.261 56.733 C 567.332 57.166, 566.893 56.967, 565.261 54.025 C 561.895 47.956, 561.781 47.873, 559 49.478 M 725.769 50.069 C 723.878 51.171, 719 58.954, 719 60.869 C 719 63.326, 722.115 63.112, 726.517 60.351 C 731.420 57.276, 732.824 54.408, 731.050 51.093 C 729.822 48.800, 728.416 48.527, 725.769 50.069 M 667.765 53.617 C 666.710 55.933, 666.845 56.456, 668.937 58.150 C 671.560 60.274, 672.853 60.180, 674.382 57.756 C 675.749 55.588, 673.323 51, 670.810 51 C 669.782 51, 668.426 52.165, 667.765 53.617 M 771.209 56.566 C 769.042 58.084, 765 64.851, 765 66.960 C 765 68.775, 769.582 68.083, 773.008 65.750 C 777.687 62.564, 778.643 60.707, 777.217 57.578 C 775.865 54.610, 774.362 54.357, 771.209 56.566 M 904.250 56.491 C 900.302 58.207, 900.101 60.365, 903.671 62.704 C 908.660 65.973, 919 63.761, 919 59.426 C 919 57.708, 913.266 54.979, 909.782 55.039 C 908.527 55.061, 906.038 55.714, 904.250 56.491 M 820.188 58.027 C 817.382 59.738, 816.924 60.538, 817.188 63.273 C 817.414 65.607, 818.053 66.579, 819.500 66.786 C 822.394 67.199, 831 61.469, 831 59.129 C 831 55.516, 825.266 54.931, 820.188 58.027 M 633.039 60.928 C 631.697 63.434, 632.535 65.467, 635.459 66.799 C 637.350 67.661, 638.120 67.525, 639.404 66.106 C 641.465 63.829, 641.416 62.687, 639.171 60.655 C 636.739 58.454, 634.305 58.562, 633.039 60.928 M 390.667 62.667 C 390.300 63.033, 390 65.273, 390 67.644 C 390 71.156, 390.470 72.262, 392.541 73.619 C 395.929 75.839, 400 74.190, 400 70.598 C 400 65.943, 393.183 60.150, 390.667 62.667 M 549.003 65.726 C 542.345 69.103, 544.975 73, 553.910 73 C 558.343 73, 561.327 70.340, 560.830 66.832 C 560.555 64.890, 559.831 64.454, 556.500 64.226 C 554.147 64.066, 551.060 64.683, 549.003 65.726 M 837.313 66.102 C 833.356 67.247, 830 71.365, 830 75.076 C 830 79.035, 831.260 79.383, 836.718 76.931 C 842.783 74.207, 846 71.262, 846 68.433 C 846 65.091, 843.307 64.368, 837.313 66.102 M 701.334 73.205 C 698.490 76.313, 695.782 81.838, 696.518 83.029 C 697.608 84.793, 700.642 84.042, 704.910 80.951 C 708.547 78.316, 709.077 77.466, 708.810 74.701 C 708.560 72.121, 708.009 71.443, 705.967 71.205 C 704.330 71.014, 702.691 71.721, 701.334 73.205 M 651.699 73.780 C 649.460 76.254, 649.543 80.215, 651.895 83.119 C 653.508 85.110, 654.202 85.313, 656.542 84.480 C 660.522 83.062, 661.569 80.877, 660.445 76.328 C 659.634 73.043, 659.067 72.458, 656.449 72.201 C 654.445 72.005, 652.814 72.548, 651.699 73.780 M 737.773 73.750 C 733.917 78.141, 734.789 82.805, 739.966 85.483 C 743.629 87.376, 745.287 86.739, 747.528 82.577 C 749.300 79.287, 749.295 79.254, 746.536 75.636 C 743.468 71.614, 740.256 70.923, 737.773 73.750 M 570.873 74.508 C 568 76.068, 566.616 80.414, 568.105 83.196 C 570.355 87.401, 579.804 85.974, 583.364 80.891 C 587.403 75.124, 578.300 70.472, 570.873 74.508 M 678.557 75.223 C 676.618 77.991, 676.619 78.476, 678.571 80.429 C 680.768 82.625, 683.723 82.386, 685.050 79.906 C 685.978 78.173, 685.781 77.396, 683.911 75.406 C 681.126 72.440, 680.520 72.420, 678.557 75.223 M 367.223 78.557 C 364.411 80.526, 364.400 83.269, 367.188 87.040 C 369.770 90.533, 371.776 90.751, 375.365 87.927 C 382.096 82.633, 374.267 73.623, 367.223 78.557 M 527.828 80.037 C 526.908 80.573, 525.163 82.618, 523.951 84.580 C 522.154 87.488, 521.946 88.586, 522.827 90.520 C 524.192 93.516, 529.785 94.746, 534.037 92.985 C 537.383 91.599, 542 86.626, 542 84.409 C 542 80.773, 531.904 77.658, 527.828 80.037 M 601.295 80.047 C 596.682 81.467, 595 84.453, 595 91.223 C 595 97.290, 597.127 101, 600.604 101 C 606.127 101, 623 88.585, 623 84.520 C 623 80.497, 609.125 77.637, 601.295 80.047 M 952.500 80.176 C 951.400 80.789, 945.325 86.319, 939 92.465 C 926.890 104.231, 916.889 111.079, 908.015 113.680 C 904.443 114.728, 903 115.659, 903 116.917 C 903 119.313, 915.034 130.719, 918.473 131.582 C 919.991 131.964, 925.909 132.037, 931.624 131.745 C 940.819 131.276, 942.850 130.816, 949.258 127.751 C 957.509 123.806, 968.004 116.208, 970.983 112.023 C 974.574 106.980, 972.872 96, 968.499 96 C 967.736 96, 965.849 94.874, 964.306 93.497 L 961.500 90.994 963.576 89.228 C 964.717 88.256, 966.429 86.275, 967.379 84.825 C 969.054 82.269, 969.037 82.139, 966.831 80.594 C 964.190 78.744, 955.521 78.491, 952.500 80.176 M 418.250 81.031 C 415.501 82.136, 415.404 84.674, 417.983 88 C 419.828 90.378, 420.058 90.426, 422.711 88.968 C 426.652 86.804, 427.092 82.366, 423.501 81 C 422.054 80.450, 420.787 80.029, 420.685 80.063 C 420.583 80.098, 419.488 80.534, 418.250 81.031 M 389.372 84.652 C 386.206 92.229, 392.370 102, 400.315 102 C 401.644 102, 403.916 101.067, 405.365 99.927 C 407.500 98.249, 408 97.018, 408 93.448 C 408 91.024, 407.314 87.325, 406.475 85.228 L 404.949 81.416 397.864 81.351 L 390.778 81.286 389.372 84.652 M 804.512 83.250 C 803.578 85.993, 804.521 89.999, 806.101 89.999 C 809.520 90.001, 814 87.768, 814 86.063 C 814 82.993, 805.461 80.461, 804.512 83.250 M 336 85.666 C 330.261 86.570, 328.948 87.149, 327.448 89.440 C 326.018 91.621, 326.016 92.130, 327.424 94.853 C 328.279 96.506, 329.927 98.160, 331.088 98.528 C 336.258 100.169, 348 95.948, 348 92.449 C 348 90.512, 346.093 86.762, 344.600 85.765 C 343.469 85.010, 340.392 84.974, 336 85.666 M 311.056 88.944 C 309.986 90.014, 308.798 92.561, 308.414 94.604 C 307.857 97.578, 308.083 98.588, 309.550 99.660 C 313.928 102.861, 317 100.527, 317 94 C 317 87.370, 314.638 85.362, 311.056 88.944 M 281.200 89.200 C 279.648 90.752, 279.648 97.248, 281.200 98.800 C 282.912 100.512, 288.573 100.284, 290.429 98.429 C 292.806 96.051, 292.344 92.416, 289.365 90.073 C 286.418 87.755, 283.010 87.390, 281.200 89.200 M 762.229 88.669 C 760.245 89.467, 757.830 94.890, 758.508 97.024 C 759.301 99.523, 763.747 103, 766.150 103 C 767.787 103, 771.986 97.818, 771.996 95.785 C 772.003 94.485, 765.816 87.998, 764.646 88.079 C 764.016 88.122, 762.928 88.388, 762.229 88.669 M 369.068 95.904 C 366.418 99.626, 366.460 101.892, 369.258 106.102 C 371.640 109.686, 378.928 114, 382.601 114 C 386.611 114, 389.483 110.654, 389.364 106.121 C 389.212 100.325, 386.938 97.495, 380.494 95.084 C 373.140 92.332, 371.529 92.448, 369.068 95.904 M 355.193 98.063 C 353.517 100.747, 354.423 103.416, 357.485 104.811 C 362.028 106.881, 364.997 101.117, 361.171 97.655 C 358.719 95.436, 356.750 95.570, 355.193 98.063 M 226.020 98.588 C 221.854 100.394, 206.985 115.480, 202.451 122.500 C 200.675 125.250, 197.839 129.227, 196.150 131.338 C 194.461 133.449, 192.808 136.030, 192.477 137.073 C 192.145 138.117, 191.028 139.990, 189.993 141.236 C 188.958 142.481, 186.813 145.075, 185.227 147 C 183.641 148.925, 180.605 153.425, 178.479 157 C 176.354 160.575, 172.901 166.139, 170.807 169.364 C 168.713 172.589, 167 175.634, 167 176.131 C 167 177.402, 157.192 194.703, 153.809 199.400 C 152.264 201.545, 151 204.157, 151 205.204 C 151 206.251, 146.050 214.360, 140 223.224 C 133.950 232.088, 129 240.109, 129 241.048 C 129 241.987, 129.674 243.314, 130.498 243.998 C 131.720 245.013, 133.025 244.720, 137.604 242.403 C 143.468 239.436, 148.853 234.043, 154.643 225.340 C 156.530 222.502, 159.576 219.036, 161.410 217.636 C 164.647 215.167, 164.739 214.898, 164.532 208.506 C 164.327 202.164, 164.462 201.757, 168.160 197.556 C 170.272 195.156, 172 192.648, 172 191.982 C 172 191.316, 174.253 188.171, 177.006 184.993 C 179.760 181.814, 182.667 177.703, 183.467 175.857 C 184.266 174.011, 188.379 168.900, 192.607 164.500 C 196.834 160.100, 201.122 154.647, 202.135 152.382 C 203.148 150.117, 204.653 147.703, 205.479 147.018 C 206.443 146.217, 206.763 144.903, 206.372 143.345 C 205.975 141.764, 206.358 140.262, 207.472 139.031 C 208.540 137.851, 208.938 136.381, 208.535 135.109 C 207.741 132.610, 208.861 130.438, 214.007 124.492 C 216.203 121.955, 218 119.247, 218 118.475 C 218 116.902, 230.761 103.443, 232.825 102.838 C 234.767 102.269, 233.234 96.989, 231.142 97.039 C 230.239 97.061, 227.934 97.757, 226.020 98.588 M 636.607 98.582 C 635.484 101.507, 635.987 103.923, 637.934 104.965 C 640.867 106.534, 641.935 106.237, 643.180 103.504 C 644.120 101.442, 644.002 100.660, 642.504 99.004 C 640.330 96.602, 637.446 96.395, 636.607 98.582 M 666.623 100.286 C 662.736 104.173, 660.782 108.574, 662.360 109.884 C 663.331 110.690, 665.015 110.298, 668.888 108.369 C 673.883 105.880, 674.094 105.612, 673.803 102.134 C 673.417 97.510, 670.222 96.687, 666.623 100.286 M 410.994 103.012 C 410.161 104.568, 410.366 106.038, 411.900 109.507 C 414.281 114.890, 417.501 116.717, 422.229 115.367 C 426.015 114.286, 426.876 111.530, 424.910 106.782 C 422.765 101.604, 413.142 98.997, 410.994 103.012 M 549.180 104.578 C 542.374 110.403, 544.162 114, 553.863 114 C 559.434 114, 562 112.271, 562 108.517 C 562 106.129, 556.953 101, 554.603 101 C 553.919 101, 551.479 102.610, 549.180 104.578 M 276.420 103.599 C 272.433 105.630, 271 107.778, 271 111.723 C 271 116.474, 273.215 121.162, 276.941 124.297 C 281.731 128.328, 286.006 127.823, 288.537 122.928 C 291.015 118.137, 290.385 113.791, 286.468 108.662 C 281.826 102.583, 280.110 101.718, 276.420 103.599 M 299.711 105.255 C 294.297 109.613, 293.190 119.238, 297.548 124.054 C 300.188 126.971, 305.629 127.646, 308.146 125.369 C 313 120.979, 316.212 109, 312.535 109 C 311.729 109, 309.532 107.650, 307.653 106 C 303.566 102.411, 303.277 102.384, 299.711 105.255 M 734.455 105.455 C 731.114 108.795, 731.190 113.218, 734.635 115.927 C 738.152 118.694, 740.431 118.539, 742.927 115.365 C 745.720 111.814, 745.539 109.789, 742.099 106.106 C 738.598 102.358, 737.633 102.276, 734.455 105.455 M 954.655 104.829 C 952.183 107.560, 952.642 109.764, 956.050 111.526 C 961.829 114.514, 965.196 110.580, 961.443 105.223 C 959.553 102.524, 956.881 102.369, 954.655 104.829 M 609.200 105.200 C 607.433 106.967, 607.740 110.454, 609.829 112.345 C 612.349 114.626, 613.676 114.424, 615.616 111.463 C 617.204 109.039, 617.175 108.815, 614.965 106.463 C 612.393 103.725, 610.984 103.416, 609.200 105.200 M 695.200 105.200 C 692.281 108.119, 695.262 114, 699.660 114 C 700.761 114, 702.235 112.930, 702.934 111.623 C 705.432 106.955, 698.883 101.517, 695.200 105.200 M 441.223 107.557 C 438.337 109.578, 438.417 111.547, 441.551 115.656 C 444.522 119.550, 445.772 119.754, 449.365 116.927 C 454.226 113.104, 451.713 106, 445.500 106 C 444.370 106, 442.445 106.701, 441.223 107.557 M 945 107.973 C 942.989 109.273, 944.858 112.375, 947.926 112.829 C 949.833 113.112, 950.102 112.759, 949.824 110.338 C 949.481 107.348, 947.482 106.368, 945 107.973 M 806.966 108.922 C 802.371 109.823, 801 110.728, 801 112.859 C 801 117.371, 805.585 118.147, 812.473 114.801 C 817.134 112.536, 817.880 111.280, 815.800 109.200 C 814.504 107.904, 812.486 107.841, 806.966 108.922 M 579 110.709 C 574.552 112.345, 571.652 118.670, 574.034 121.541 C 577.589 125.825, 590 120.791, 590 115.066 C 590 111.565, 583.584 109.024, 579 110.709 M 476.949 113.579 C 469.685 116.598, 467.497 126.651, 472.923 132.077 C 477.043 136.197, 481.565 136.076, 485.775 131.732 C 487.517 129.935, 489.432 127.059, 490.031 125.340 C 491.070 122.360, 490.885 121.980, 486.013 117.108 C 483.203 114.299, 480.814 112.023, 480.702 112.052 C 480.591 112.080, 478.902 112.767, 476.949 113.579 M 627.452 116.646 C 623.707 120.687, 624.199 129, 628.184 129 C 630.777 129, 635.713 123.990, 636.600 120.459 C 637.155 118.246, 636.830 117.280, 635.040 115.831 C 631.975 113.349, 630.345 113.524, 627.452 116.646 M 949.200 116.200 C 947.565 117.835, 947.682 121, 949.378 121 C 951.353 121, 953.325 118.290, 952.643 116.513 C 951.943 114.689, 950.814 114.586, 949.200 116.200 M 323.200 118.200 C 320.350 121.050, 322.180 127, 325.907 127 C 331.077 127, 332.953 121.482, 328.777 118.557 C 326.108 116.687, 324.797 116.603, 323.200 118.200 M 421.944 122.541 C 417.952 125.485, 417.167 127.065, 417.070 132.346 C 416.934 139.818, 422.322 145, 430.230 145 C 433.530 145, 435.191 144.426, 436.778 142.736 C 441.204 138.026, 443.516 128.435, 440.750 126.263 C 440.063 125.723, 438 124.997, 436.166 124.649 C 434.332 124.301, 431.563 123.113, 430.011 122.008 C 426.429 119.458, 426.094 119.480, 421.944 122.541 M 391.403 123.157 C 390.149 125.186, 390.891 131.222, 392.630 133.144 C 394.951 135.709, 397.010 135.472, 400.943 132.188 C 403.771 129.828, 404.202 128.939, 403.628 126.653 C 402.887 123.702, 399.728 122, 394.994 122 C 393.412 122, 391.796 122.521, 391.403 123.157 M 677.455 124.455 C 674.645 127.264, 674.356 129.220, 676.487 130.989 C 678.547 132.699, 680.604 131.666, 682.520 127.961 C 685.483 122.232, 682.052 119.857, 677.455 124.455 M 530.068 124.874 C 528.392 128.005, 528.794 129.819, 531.565 131.634 C 534.015 133.240, 534.226 133.218, 536.308 131.136 C 538.342 129.102, 538.385 128.777, 536.960 126.229 C 535.058 122.830, 531.532 122.137, 530.068 124.874 M 601.516 124.303 C 596.986 125.727, 595.037 128.663, 595.015 134.095 C 594.997 138.427, 597.086 140.568, 602.267 141.530 C 607.563 142.513, 611.414 140.600, 614.981 135.215 C 618.470 129.948, 618.827 126.513, 616.040 125.022 C 612.843 123.310, 605.785 122.961, 601.516 124.303 M 449.346 131.178 C 446.181 132.709, 445.683 136.976, 448.330 139.882 C 451.281 143.121, 457.717 145.951, 462.191 145.978 C 468.716 146.017, 468.523 142.183, 461.625 134.750 C 457.006 129.773, 454.035 128.909, 449.346 131.178 M 307.560 132.332 C 306.361 133.209, 305.571 135.405, 305.249 138.758 C 304.818 143.244, 305.066 144.157, 307.334 146.425 C 311.123 150.214, 314.741 149.863, 316.551 145.532 C 318.636 140.542, 318.414 139.464, 314.384 135.003 C 310.351 130.540, 310.130 130.453, 307.560 132.332 M 652.068 133.904 C 649.770 137.132, 649.421 141.658, 651.282 144.096 C 653.066 146.434, 658.638 149.076, 660.377 148.409 C 662.100 147.748, 664.392 144.510, 665.405 141.307 C 665.937 139.626, 665.243 138.168, 662.433 135.057 C 657.990 130.140, 654.987 129.806, 652.068 133.904 M 554.250 137.220 C 551.394 138.598, 551.405 140.092, 554.293 142.806 C 557.659 145.968, 562.380 147.402, 564.929 146.038 C 567.552 144.634, 567.688 139.932, 565.171 137.655 C 563.118 135.797, 557.653 135.579, 554.250 137.220 M 279.102 139.898 C 274.135 144.865, 276.117 152, 282.464 152 C 289.647 152, 291.673 145.778, 286.109 140.806 C 282.396 137.489, 281.613 137.387, 279.102 139.898 M 722.695 143.385 C 718.910 146.852, 718.552 147.669, 719.607 150.418 C 720.656 153.153, 724.596 152.225, 727.896 148.465 C 731.483 144.380, 731.781 142.488, 729.066 141.035 C 726.517 139.671, 726.907 139.527, 722.695 143.385 M 403.570 143.204 C 402.271 145.058, 402.236 145.723, 403.349 147.398 C 405.973 151.351, 407.759 151.696, 410.649 148.806 C 413.232 146.222, 413.264 146.053, 411.636 143.568 C 409.533 140.358, 405.685 140.184, 403.570 143.204 M 695.200 144.200 C 693.411 145.989, 693.745 148.459, 696.059 150.553 C 699.901 154.030, 703.954 148.816, 700.433 144.926 C 698.426 142.708, 696.903 142.497, 695.200 144.200 M 542.428 149.073 C 540.739 149.563, 538.743 151.111, 537.994 152.512 C 536.787 154.766, 536.882 155.576, 538.814 159.554 C 541.377 164.830, 544.584 166.433, 550.738 165.514 C 556.524 164.650, 558.343 162.654, 557.498 158.096 C 556.691 153.745, 554.568 151.176, 550.282 149.362 C 546.678 147.836, 546.683 147.837, 542.428 149.073 M 327.751 153.945 C 325.924 156.553, 326.715 162.777, 329.030 164.016 C 331.600 165.391, 336.882 164.089, 338.121 161.775 C 339.691 158.841, 338.341 155.227, 335.035 153.518 C 331.136 151.502, 329.391 151.604, 327.751 153.945 M 304.301 154.720 C 302.218 154.980, 300.039 156.331, 298.051 158.594 C 292.553 164.857, 294.667 174.716, 302.283 178.330 C 304.219 179.249, 306.315 180, 306.941 180 C 309.505 180, 316.053 175.797, 318.512 172.574 C 320.681 169.730, 320.946 168.768, 320.034 167.064 C 319.427 165.929, 318.503 165, 317.982 165 C 317.460 165, 315.922 162.806, 314.563 160.125 C 312.357 155.771, 310.127 153.691, 308.168 154.160 C 307.801 154.248, 306.061 154.500, 304.301 154.720 M 609.200 159.200 C 607.291 161.109, 607.805 164.750, 610.223 166.443 C 613.175 168.511, 613.674 168.427, 615.560 165.548 C 617.050 163.274, 617.034 162.915, 615.333 160.580 C 613.333 157.834, 611.074 157.326, 609.200 159.200 M 278.697 162.149 C 275.258 164.074, 277.423 171, 281.464 171 C 284.002 171, 287.010 168.646, 286.985 166.679 C 286.942 163.389, 281.650 160.497, 278.697 162.149 M 657.280 164.020 C 654.440 165.163, 653.497 168.946, 654.953 173.358 C 656.301 177.442, 657.838 178.262, 661.107 176.640 C 663.028 175.686, 663.559 174.545, 663.800 170.847 C 664.010 167.621, 663.614 165.757, 662.478 164.621 C 660.657 162.800, 660.389 162.769, 657.280 164.020 M 678.039 171.928 C 675.807 176.098, 680.666 180.517, 684.083 177.425 C 686.482 175.254, 686.505 173.767, 684.171 171.655 C 681.739 169.454, 679.305 169.562, 678.039 171.928 M 628.667 171.667 C 626.970 173.363, 628.097 178.017, 630.601 179.658 C 633.780 181.741, 636.351 180.535, 636.807 176.746 C 637.251 173.056, 631.109 169.224, 628.667 171.667 M 608.329 173.424 C 602.350 176.088, 602.141 181.470, 607.899 184.448 C 612.046 186.593, 615.120 186.392, 619.102 183.718 C 623.401 180.831, 624.160 176.795, 620.810 174.637 C 617.263 172.351, 611.906 171.830, 608.329 173.424 M 350.768 178.101 C 344.111 181.541, 341.969 189.528, 346.342 194.611 C 349.309 198.061, 353.104 198.148, 359.624 194.917 C 363.743 192.875, 364.452 192.112, 364.190 190 C 362.656 177.633, 362.683 177.685, 357.500 176.727 C 355.564 176.369, 353.176 176.857, 350.768 178.101 M 578.035 177.934 C 576.450 180.896, 576.786 182.736, 579.223 184.443 C 582.281 186.585, 583.446 186.403, 584.976 183.545 C 586.097 181.450, 586.045 180.718, 584.622 178.545 C 582.642 175.524, 579.482 175.231, 578.035 177.934 M 320.019 179.464 C 318.898 181.558, 318.957 182.599, 320.410 186.404 C 322.654 192.279, 327.646 197.184, 330.985 196.794 C 333.353 196.517, 333.494 196.172, 333.393 190.888 C 333.190 180.231, 331.260 177, 325.098 177 C 322.125 177, 321.062 177.516, 320.019 179.464 M 632 190.288 C 629.258 191.668, 628.418 195.083, 629.458 200.626 C 630.436 205.842, 632.282 207, 639.617 207 C 645.157 207, 646.445 206.646, 648.545 204.545 C 652.092 200.999, 651.897 195.743, 648.077 191.923 C 645.572 189.418, 644.392 189.002, 639.827 189.015 C 636.897 189.023, 633.375 189.596, 632 190.288 M 607.200 202.200 C 606.540 202.860, 606 205.094, 606 207.165 C 606 211.400, 607.879 213, 612.852 213 C 617.696 213, 619.001 212.072, 618.985 208.643 C 618.965 204.646, 618.135 203.382, 614.665 202.063 C 611.016 200.675, 608.682 200.718, 607.200 202.200 M 583 205 C 580.586 207.414, 580.370 212.656, 582.557 215.777 C 584.569 218.651, 591.691 218.881, 595.026 216.180 C 597.087 214.511, 597.173 214.055, 596.065 210.696 C 593.805 203.849, 587.082 200.918, 583 205 M 582.989 269.250 C 580.165 273.882, 580.379 282.647, 583.585 293.638 C 585.007 298.512, 586.148 304.879, 586.122 307.787 C 586.073 313.255, 586.327 313.704, 592.329 318.743 C 594.708 320.741, 595 321.682, 595 327.333 C 595 334.571, 597.873 346.870, 600.991 352.982 C 603.667 358.228, 605.977 357.988, 607.964 352.255 C 609.412 348.075, 609.385 347.944, 605.246 339.266 C 602.946 334.445, 600.174 326.892, 599.085 322.481 C 597.997 318.071, 595.282 309.371, 593.053 303.148 C 589.305 292.686, 589 291.054, 589 281.482 C 589 266.614, 587.035 262.615, 582.989 269.250 M 753.449 283.082 C 753.081 283.678, 752.818 291.637, 752.863 300.770 C 752.930 314.044, 753.245 317.673, 754.432 318.861 C 755.746 320.175, 756.038 320.030, 756.959 317.608 C 757.532 316.102, 758 313.538, 758 311.910 C 758 310.282, 758.900 306.389, 760 303.260 C 762.616 295.818, 762.556 294.986, 758.899 287.959 C 755.804 282.013, 754.713 281.037, 753.449 283.082 M 73.517 292.187 C 61.675 298.429, 52 308.888, 52 315.450 C 52 317.475, 51.598 319.889, 51.106 320.816 C 50.614 321.742, 49.263 329.974, 48.103 339.109 C 46.943 348.244, 45.548 357.019, 45.004 358.609 C 44.459 360.199, 43.429 365.812, 42.715 371.082 C 41.630 379.084, 41.642 381.555, 42.787 386.075 C 44.369 392.318, 45.501 394, 48.122 394 C 49.547 394, 50 393.267, 50 390.960 C 50 389.288, 50.984 386.026, 52.187 383.710 C 54.123 379.984, 54.455 377.279, 55.078 360.192 L 55.782 340.883 60.445 333.327 C 64.197 327.248, 64.985 325.206, 64.475 322.885 C 64.082 321.095, 64.251 320, 64.921 320 C 65.514 320, 66 319.413, 66 318.696 C 66 317.979, 67.540 315.900, 69.422 314.076 C 73.282 310.334, 74.660 306.500, 72.905 304.386 C 71.610 302.825, 72.935 300.774, 78.320 296 C 80.267 294.274, 80.930 292.958, 80.463 291.750 C 79.601 289.522, 78.436 289.595, 73.517 292.187"/>
</svg>