<?xml version="1.0" encoding="utf-8"?>
<svg xmlns="http://www.w3.org/2000/svg" width="1002" height="525" viewBox="0 0 1002 525">
  <path fill-rule="evenodd" d="M 217.667 1.667 C 217.300 2.033, 217 3.857, 217 5.719 C 217 8.583, 216.537 9.265, 213.994 10.152 C 210.075 11.518, 209.560 13.987, 211.473 22.230 C 213.772 32.140, 214.392 33.356, 220.561 40.067 C 225.329 45.253, 226.098 46.603, 225.557 48.848 C 224.473 53.355, 225.005 60.466, 226.803 65.492 C 228.582 70.463, 229.131 70.993, 235 73.401 L 238.500 74.837 233.621 74.918 L 228.742 75 229.429 80.250 C 229.807 83.138, 230.766 86.400, 231.560 87.500 C 236.255 94.002, 240.604 101.152, 242.603 105.655 C 243.861 108.490, 245.880 111.503, 247.089 112.350 C 249.286 113.888, 252.981 118.833, 252.993 120.250 C 252.997 120.662, 252.086 121, 250.969 121 C 247.819 121, 247.603 123.461, 250.337 128.183 C 251.712 130.557, 253.321 134.341, 253.914 136.591 C 254.507 138.841, 255.893 141.499, 256.996 142.496 C 259.779 145.015, 259.511 146.878, 255.819 150.686 C 253.635 152.940, 252.456 155.305, 252.057 158.234 L 251.475 162.500 245.798 162.169 L 240.121 161.839 239.453 165.397 C 238.501 170.472, 239.361 175.607, 242.317 182.500 C 244.913 188.554, 250.270 194.569, 252.073 193.455 C 252.644 193.102, 252.776 190.795, 252.392 187.901 C 251.884 184.064, 252.100 182.547, 253.356 181.159 C 255.851 178.402, 256.608 173.171, 254.622 172.408 C 251.875 171.355, 252.824 170, 256.309 170 C 261.031 170, 262.855 168.202, 263.914 162.500 C 264.685 158.351, 264.559 157.176, 263.172 155.593 C 261.574 153.770, 261.610 153.716, 264 154.367 C 272.132 156.582, 271.831 156.707, 271.265 151.353 C 270.973 148.592, 269.931 145.597, 268.848 144.405 C 267.795 143.248, 267.212 141.611, 267.544 140.746 C 267.874 139.885, 267.404 137.749, 266.500 136 C 264.684 132.489, 265.259 124.972, 267.338 125.035 C 267.977 125.054, 271.425 125.714, 275 126.500 C 285.642 128.841, 287.460 128.276, 280.195 124.886 C 276.728 123.268, 270.452 120.822, 266.249 119.450 C 262.047 118.078, 257.796 116.221, 256.804 115.323 C 254.539 113.273, 254.390 109, 256.583 109 C 260.804 109, 281.044 114.867, 300.337 121.684 C 305.748 123.595, 310.429 124.904, 310.741 124.593 C 312.093 123.241, 277.736 109.517, 260.514 104.530 C 255.572 103.099, 251.139 101.539, 250.663 101.063 C 250.187 100.587, 250.104 98.803, 250.478 97.099 C 251.011 94.675, 251.686 94, 253.579 94 C 257.159 94, 256.514 91.779, 252.271 89.500 C 248.039 87.227, 245.075 82.714, 247.468 82.187 C 248.249 82.016, 250.552 82.335, 252.587 82.896 C 254.860 83.524, 256.942 83.566, 257.989 83.006 C 259.156 82.382, 261.872 82.845, 266.597 84.474 C 270.393 85.783, 275.300 87.135, 277.500 87.478 C 281.393 88.086, 281.433 88.063, 279 86.622 C 277.625 85.808, 269.197 82.072, 260.271 78.321 L 244.043 71.500 241.876 66.500 C 237.406 56.186, 237.151 55.374, 237.961 54.064 C 238.825 52.664, 237.710 52.318, 266.500 62.923 C 282.698 68.890, 282.485 67.855, 266 60.493 C 258.025 56.932, 250.037 53.269, 248.250 52.352 C 244.805 50.585, 244.010 48.317, 246.500 47.362 C 249.207 46.323, 248.088 44.274, 241.876 38.893 C 235.371 33.257, 232.403 28.065, 231.860 21.370 L 231.546 17.500 239.329 17.741 C 243.610 17.874, 249.982 18.648, 253.490 19.461 C 256.997 20.275, 262.934 21.423, 266.684 22.012 C 277.735 23.749, 297.069 30.716, 300 34.017 C 301.661 35.888, 305.814 38.048, 312.378 40.455 C 317.810 42.448, 322.487 43.847, 322.769 43.564 C 323.052 43.281, 322.207 42.115, 320.892 40.972 L 318.500 38.894 321 39.592 C 335.072 43.519, 394.113 73.925, 433.709 97.636 C 462.773 115.040, 509.004 146.952, 534 166.865 C 543.505 174.437, 563.375 193.843, 591.519 223.042 C 599.759 231.590, 613.107 244.075, 621.182 250.785 C 635.324 262.537, 644.634 272.047, 657.618 288.002 C 668.014 300.776, 674.490 311.844, 672.647 313.686 C 671.854 314.480, 662.220 306.206, 640.559 286.129 C 591.263 240.439, 565.331 217.550, 538.857 196.364 C 524.466 184.847, 503.189 169.477, 502.539 170.129 C 502.336 170.333, 509.416 176.800, 518.273 184.500 C 579.890 238.070, 626.832 284.052, 652.153 315.642 C 660.374 325.898, 661.458 326.877, 665.792 327.963 C 671.348 329.355, 675 332.423, 675 335.699 C 675 337.474, 675.686 338.187, 677.799 338.610 C 679.344 338.919, 681.025 340.139, 681.549 341.332 C 682.420 343.311, 683.263 343.499, 691.539 343.552 L 700.578 343.611 709.539 348.949 C 720.677 355.585, 726.483 361.035, 728.397 366.651 C 729.203 369.017, 731.048 372.508, 732.497 374.407 C 734.325 376.804, 735.419 379.895, 736.073 384.509 C 736.591 388.166, 737.461 391.992, 738.006 393.012 C 738.552 394.031, 739.426 395.990, 739.948 397.364 C 740.833 399.692, 740.694 399.858, 737.913 399.778 C 736.271 399.732, 734.531 398.985, 734.046 398.119 C 733.310 396.803, 732.966 396.981, 731.956 399.198 C 729.811 403.904, 731.387 406.403, 740.245 412.344 C 744.785 415.389, 749.691 418.328, 751.147 418.876 C 752.688 419.456, 758.379 419.630, 764.772 419.293 C 773.996 418.806, 777.009 419.048, 783.625 420.806 C 787.956 421.957, 795.325 423.385, 800 423.979 C 804.675 424.574, 811.485 425.715, 815.133 426.515 C 823.647 428.383, 843.210 430.108, 847.088 429.332 C 851.430 428.464, 850.319 427.197, 842.959 424.625 C 832.866 421.098, 819.872 413.658, 803.663 402.125 C 784.383 388.407, 765.811 370.821, 699.500 303.493 C 670.900 274.455, 639.625 243.395, 630 234.471 C 542.842 153.663, 472.695 104.380, 375.909 55.954 C 350.405 43.194, 337.763 37.354, 321.500 30.820 C 296.471 20.765, 268.319 11.952, 245.500 7.029 C 237.800 5.368, 228.919 3.332, 225.765 2.505 C 219.284 0.804, 218.600 0.733, 217.667 1.667 M 274 36.909 C 274 37.356, 276.363 38.653, 279.250 39.791 C 282.137 40.928, 294.625 45.977, 307 51.010 C 319.375 56.043, 336.700 62.849, 345.500 66.134 C 354.300 69.420, 364.425 73.262, 368 74.672 C 377.071 78.251, 385 80.967, 385 80.495 C 385 79.648, 371.203 72.446, 358.655 66.743 C 335.301 56.130, 305.377 44.848, 289 40.482 C 285.975 39.675, 281.363 38.358, 278.750 37.556 C 276.137 36.753, 274 36.462, 274 36.909 M 378 131.019 C 379.375 132.068, 390.160 139.515, 401.967 147.566 C 442.623 175.293, 466.618 192.997, 509 226.538 C 532.375 245.036, 555.100 262.861, 559.500 266.148 L 567.500 272.124 557 261.983 C 537.584 243.229, 502.463 212.248, 480.939 194.885 C 457.030 175.599, 427.495 156.607, 387.214 134.616 C 376.660 128.853, 373.594 127.657, 378 131.019 M 344.500 176.513 C 347.250 177.804, 357.150 182.313, 366.500 186.534 C 420.826 211.059, 472.757 241.295, 504.393 266.821 C 508.734 270.324, 514.085 273.824, 516.283 274.600 C 523.401 277.111, 527.002 279.881, 526.985 282.832 C 526.953 288.434, 525.751 288.386, 517.415 282.448 C 513.062 279.348, 507.925 275.338, 506 273.537 C 499.335 267.303, 481 256.292, 481 258.524 C 481 260.206, 510.745 283.306, 525 292.694 C 534.625 299.033, 544.637 305.633, 547.248 307.360 C 552.343 310.729, 552.819 312.323, 548.872 312.797 C 547.073 313.013, 540.959 309.440, 526.449 299.690 C 502.460 283.572, 482.309 271.661, 461.198 261.125 C 445.826 253.453, 432.153 247.514, 431.458 248.209 C 431.266 248.401, 439.072 253.030, 448.804 258.496 C 458.537 263.962, 468.525 269.637, 471 271.107 C 473.475 272.577, 481.800 277.506, 489.500 282.059 C 519.720 299.930, 534.946 311.070, 553 328.516 C 563.426 338.590, 577 347.426, 577 344.138 C 577 343.663, 578.350 341.576, 580 339.500 C 581.755 337.291, 583 334.537, 583 332.862 C 583 329.650, 583.631 329.406, 586.441 331.532 C 588.583 333.152, 594 333.539, 594 332.072 C 594 329.961, 560.101 300.226, 538.500 283.390 C 477.109 235.541, 415.095 200.336, 352.667 177.894 C 340.618 173.563, 336.858 172.927, 344.500 176.513 M 244.750 201.080 C 243.787 201.641, 243 203.193, 243 204.529 C 243 205.865, 241.875 210.309, 240.500 214.405 C 237.263 224.047, 237.175 231.573, 240.250 235.790 C 250.391 249.696, 251.170 251.133, 252.093 257.650 C 253.088 264.680, 254.111 267.249, 257.310 270.761 L 259.370 273.023 255.978 276.522 C 254.113 278.447, 250.606 280.980, 248.186 282.152 C 243.014 284.656, 240.637 288.915, 242.167 292.939 C 242.714 294.378, 242.825 298.692, 242.424 302.964 C 241.726 310.421, 241.689 310.497, 235.861 316.566 C 232.637 319.923, 230 323.178, 230 323.800 C 230 325.660, 233.035 326.784, 253.321 332.438 C 263.985 335.410, 276.488 339.164, 281.105 340.780 C 285.722 342.397, 291.975 344.024, 295 344.396 C 301.045 345.139, 313 348.762, 313 349.850 C 313 350.727, 294.629 354.048, 290 354.007 C 285.994 353.972, 280.119 352.403, 268 348.132 C 262.119 346.060, 255.957 344.796, 248 344.031 C 241.675 343.423, 232.291 342.216, 227.147 341.348 C 218.290 339.853, 207.813 339.854, 206.318 341.349 C 205.941 341.725, 206.128 342.528, 206.732 343.132 C 207.530 343.930, 207.308 345.088, 205.919 347.365 C 203.396 351.502, 203.503 352.816, 206.469 354.168 C 209.711 355.645, 208.638 357.211, 204.651 356.823 C 202.285 356.592, 201.561 356.895, 201.743 358.037 C 201.891 358.964, 200.350 360.327, 197.792 361.529 C 195.023 362.831, 192.984 364.715, 191.790 367.078 C 190.135 370.354, 190.112 370.917, 191.516 373.731 C 192.359 375.422, 193.635 377.030, 194.351 377.305 C 195.068 377.579, 196.467 379.935, 197.462 382.539 L 199.270 387.274 195.763 390.387 C 191.551 394.126, 185.695 407.703, 187.162 410.326 C 187.897 411.639, 186.410 413.007, 179.284 417.577 C 174.453 420.676, 169.434 424.176, 168.130 425.355 C 165.907 427.368, 161 434.335, 161 435.480 C 161 435.766, 163.250 436, 166 436 C 170.988 436, 171.540 436.429, 170.393 439.418 C 169.919 440.654, 168.241 441, 162.719 441 L 155.651 441 158 438.500 L 160.349 436 153.424 436.007 C 149.616 436.010, 139.056 436.906, 129.958 437.998 C 120.859 439.089, 102.477 440.662, 89.108 441.493 C 75.740 442.325, 64.457 443.217, 64.036 443.478 C 63.615 443.738, 53.648 444.441, 41.886 445.041 C 21.207 446.096, 3.892 448.748, 2.450 451.081 C 0.993 453.438, 42.670 451.356, 62.032 448.105 C 68.342 447.045, 81.596 445.889, 91.500 445.534 C 101.400 445.180, 118.912 444.239, 130.415 443.443 C 141.919 442.648, 151.463 442.129, 151.624 442.291 C 151.786 442.453, 150.826 444.816, 149.490 447.542 C 145.040 456.631, 147.095 461.989, 155.648 463.594 C 159.955 464.402, 160.846 463.592, 158.500 461 C 157.498 459.893, 156.911 458.756, 157.194 458.472 C 157.779 457.888, 182.491 461.233, 194.338 463.500 C 203.092 465.175, 211 465.464, 211 464.108 C 211 463.618, 209.762 462.909, 208.250 462.533 C 202.474 461.097, 185.192 453.874, 180.667 451.004 C 175.963 448.020, 175.938 447.976, 176.218 443.006 L 176.500 438.009 180.720 438.004 C 184.573 438, 203.364 440.376, 208.750 441.548 C 209.988 441.818, 211 441.662, 211 441.202 C 211 440.079, 201.959 437.322, 194.304 436.110 C 187.334 435.006, 184 433.553, 184 431.620 C 184 429.920, 186.973 427.304, 189.416 426.853 C 190.470 426.659, 192.755 424.475, 194.494 422 C 197.469 417.766, 197.961 417.482, 202.828 417.198 C 205.673 417.031, 208 416.477, 208 415.965 C 208 415.453, 205.750 413.894, 203 412.500 C 198.184 410.059, 197.043 408.709, 198.853 407.591 C 199.323 407.301, 205.060 408.417, 211.603 410.071 C 227.663 414.131, 231.548 413.567, 218.641 409.049 C 208.648 405.552, 203 401.726, 203 398.456 C 203 396.870, 203.919 396.774, 213.250 397.378 C 224.966 398.137, 224.872 397.024, 213 394.410 C 208.875 393.502, 204.913 392.593, 204.195 392.390 C 203.309 392.139, 203.944 390.708, 206.168 387.941 C 209.138 384.245, 209.778 383.912, 212.973 384.396 L 216.500 384.932 213.250 383.463 C 210.717 382.318, 210 381.382, 210 379.220 C 210 377.694, 209.305 375.453, 208.455 374.240 C 206.289 371.147, 208.061 368, 211.970 368 C 216.708 368, 220 366.305, 220 363.867 L 220 361.684 239.250 362.262 C 260.629 362.904, 260.484 362.238, 238.519 358.899 C 224.278 356.735, 219.968 355.657, 220.041 354.275 C 220.063 353.849, 221.402 351.955, 223.016 350.067 L 225.952 346.634 243.726 348.278 C 257.628 349.565, 264.005 350.663, 273 353.322 C 279.325 355.192, 287.613 357.467, 291.418 358.377 C 298.125 359.983, 298.400 359.973, 300.432 358.064 C 304.262 354.466, 309.763 352.871, 317.863 353.010 C 322.063 353.082, 325.950 353.091, 326.500 353.029 C 328.377 352.817, 320.514 349.092, 312.500 346.396 C 308.100 344.916, 302.700 342.488, 300.500 341 C 296.157 338.064, 284.360 335, 277.398 335 C 275.001 335, 271.344 334.339, 269.270 333.531 C 267.197 332.723, 260.589 330.699, 254.586 329.033 C 248.583 327.368, 243.446 325.779, 243.169 325.503 C 242.893 325.226, 244.280 325, 246.252 325 C 248.224 325, 251.112 324.348, 252.669 323.551 C 254.226 322.754, 256.359 321.841, 257.409 321.522 C 259.182 320.982, 259.122 320.737, 256.569 318.072 C 254.284 315.686, 254.004 314.861, 254.910 313.167 C 255.510 312.048, 256 310.202, 256 309.066 C 256 306.546, 257.088 306.500, 268.140 308.554 C 283.778 311.461, 305.048 318.080, 354.818 335.528 C 362.143 338.096, 368.339 339.994, 368.587 339.747 C 368.834 339.499, 366.666 338.375, 363.769 337.249 C 360.871 336.123, 350.175 331.851, 340 327.755 C 307.991 314.871, 270.243 302.275, 258.500 300.560 C 253.585 299.842, 249 296.889, 249 294.441 C 249 293.775, 250.111 292.502, 251.468 291.613 C 252.916 290.664, 253.708 289.402, 253.384 288.559 C 252.802 287.041, 253.082 286.963, 266.395 284.955 C 273.756 283.845, 275.903 283.027, 277.961 280.547 C 279.076 279.203, 278.791 278.823, 275.914 277.820 L 272.571 276.655 276.035 275.493 C 281.296 273.730, 281.223 270.683, 275.883 269.083 C 273.308 268.312, 272.137 267.533, 272.869 267.081 C 273.531 266.672, 273.770 265.565, 273.404 264.610 C 272.963 263.462, 273.661 261.919, 275.479 260.022 C 278.421 256.951, 278.155 255, 274.796 255 C 273.649 255, 271.763 254.085, 270.605 252.968 C 269.447 251.850, 266.025 248.999, 263 246.633 C 258.014 242.734, 257.530 242.012, 257.817 238.916 C 257.992 237.037, 258.892 234.912, 259.817 234.192 C 261.390 232.970, 261.386 232.820, 259.750 231.893 C 257.142 230.414, 257.509 223.903, 260.538 217.926 C 263.635 211.813, 263.206 206.068, 259.639 205.898 C 257.424 205.792, 259.654 204.984, 266.500 203.411 C 269.123 202.809, 268.620 202.561, 262.500 201.440 C 253.906 199.866, 247.072 199.728, 244.750 201.080 M 332.500 269.047 C 335.250 270.121, 339.975 271.685, 343 272.522 C 351.490 274.873, 366 280.328, 366 281.170 C 366 281.585, 361.837 282.054, 356.750 282.212 L 347.500 282.500 353 285.732 C 356.025 287.509, 360.975 289.448, 364 290.042 C 395.283 296.176, 423.792 306.376, 459.203 324.101 C 469.094 329.053, 477.624 332.959, 478.157 332.781 C 479.642 332.286, 452.590 317.162, 433.133 307.609 C 421.198 301.749, 410.312 297.314, 398.327 293.430 C 388.736 290.321, 381.036 287.630, 381.217 287.450 C 381.397 287.269, 386.035 287.993, 391.522 289.058 C 408.557 292.362, 407.424 291.406, 384.276 282.937 C 371.907 278.411, 356.309 273.778, 337.500 269.044 C 327.521 266.533, 326.066 266.533, 332.500 269.047 M 575.631 300.250 C 587.925 312.711, 596.750 322.960, 601.121 329.852 C 604.542 335.247, 604.592 335.612, 602 336.290 C 599.294 336.997, 599.095 343, 601.777 343 C 604.750 343, 608 340.071, 608 337.392 C 608 335.481, 608.828 334.552, 611.540 333.419 C 615.510 331.760, 615.330 330.708, 610.687 328.406 C 608.934 327.538, 600.525 319.759, 592 311.120 C 578.021 296.955, 568.525 289, 565.595 289 C 565.011 289, 569.527 294.063, 575.631 300.250 M 610.112 307.750 C 610.858 308.712, 613.368 311.664, 615.689 314.308 C 622.192 321.716, 625.415 329.157, 625.852 337.771 C 626.159 343.818, 626.581 345.294, 628.360 346.547 C 630.376 347.966, 630.529 347.896, 631 345.340 C 631.384 343.258, 632.300 342.419, 634.937 341.736 C 637.893 340.971, 638.606 341.152, 640.025 343.033 C 641.599 345.120, 641.815 345.147, 644.754 343.627 C 646.696 342.623, 648.252 340.768, 648.965 338.606 C 649.587 336.720, 650.801 334.907, 651.661 334.577 C 652.935 334.088, 652.993 333.696, 651.974 332.469 C 651.087 331.399, 649.743 331.145, 647.351 331.594 C 643.061 332.399, 641 330.749, 641 326.512 C 641 322.998, 637.728 318, 635.427 318 C 634.531 318, 634 319.041, 634 320.800 C 634 324.010, 632.369 326.079, 630.425 325.333 C 629.693 325.052, 627.664 322.592, 625.915 319.867 C 624.055 316.970, 620.142 313.062, 616.491 310.456 C 609.862 305.726, 607.896 304.892, 610.112 307.750 M 280.750 321.973 C 283.087 323.034, 285 324.593, 285 325.437 C 285 327.553, 291.933 331.953, 296.415 332.680 C 298.554 333.027, 301.053 332.774, 302.351 332.080 C 305.384 330.457, 315.290 333.273, 328.116 339.404 C 344.122 347.055, 344.087 344.861, 328.071 336.592 C 319.837 332.341, 304.949 327.597, 300.250 327.726 C 299.012 327.760, 298 327.197, 298 326.474 C 298 325.751, 296.538 324.859, 294.750 324.493 C 292.962 324.126, 288.640 322.966, 285.145 321.913 C 277.061 319.480, 275.310 319.504, 280.750 321.973 M 530.500 339.695 C 533.250 341.126, 544.500 346.564, 555.500 351.780 C 579.335 363.083, 588.529 370.167, 577.380 368.639 C 573.505 368.108, 572.946 368.230, 573.913 369.395 C 574.547 370.159, 576.405 371.339, 578.042 372.017 C 581.495 373.448, 585 380.303, 585 385.627 C 585 388.060, 585.448 389, 586.608 389 C 587.794 389, 588.063 388.387, 587.631 386.667 C 587.291 385.313, 587.801 382.852, 588.845 380.803 C 589.954 378.629, 590.366 376.518, 589.918 375.308 C 588.749 372.148, 592.287 363.239, 595.715 360.710 C 599.526 357.899, 599.697 356.500, 596.231 356.500 C 594.358 356.500, 593.190 355.793, 592.513 354.250 C 591.092 351.010, 589.245 351.477, 587.564 355.500 C 586.760 357.425, 585.517 358.986, 584.801 358.969 C 584.085 358.952, 579.450 357.199, 574.500 355.074 C 548.982 344.117, 542.814 341.666, 535.138 339.433 C 524.755 336.412, 524.246 336.441, 530.500 339.695 M 636.798 355.238 C 630.256 358.566, 624.585 362.325, 621.250 365.545 C 616.079 370.537, 616 370.702, 616 376.534 C 616 379.790, 615.246 385.962, 614.325 390.249 C 611.968 401.220, 612.898 402.901, 626.213 411.743 C 633.768 416.760, 637.385 419.892, 639.832 423.537 C 644.041 429.805, 646.618 431.266, 651.125 429.938 C 652.981 429.391, 657.242 429.226, 660.594 429.572 C 665.676 430.095, 667.393 429.840, 670.927 428.037 C 673.318 426.817, 677.826 425.673, 681.271 425.412 C 685.692 425.077, 688.253 424.282, 690.549 422.531 C 694.628 419.419, 699.474 411.841, 701.908 404.768 C 704.401 397.522, 706.444 394.507, 710.603 391.936 C 717.119 387.909, 713.912 381.140, 701 371.660 C 697.975 369.440, 694.895 366.783, 694.155 365.757 C 689.902 359.856, 688.477 358.939, 682 357.935 C 678.414 357.379, 672.328 355.375, 668.425 353.464 C 662.367 350.498, 660.327 350, 654.223 350 C 647.604 350, 646.361 350.374, 636.798 355.238 M 292.500 366.794 C 290.748 368.512, 289.755 368.657, 284.500 367.962 C 271.773 366.279, 269.994 367.072, 280.695 369.659 C 288.060 371.438, 290.750 372.489, 290.384 373.442 C 289.718 375.177, 295.939 377.461, 297.387 376.013 C 299.093 374.307, 302.261 374.879, 304.945 377.379 C 306.877 379.178, 309.084 379.906, 314 380.365 C 319.363 380.866, 320.173 380.756, 318.631 379.736 C 314.505 377.007, 312.532 375.140, 313.134 374.535 C 313.483 374.185, 317.383 374.821, 321.801 375.949 C 332.807 378.759, 333.895 378.431, 325.072 374.963 C 320.987 373.357, 317.371 371.601, 317.037 371.060 C 315.802 369.061, 307.244 366.082, 300.970 365.466 C 295.370 364.917, 294.231 365.096, 292.500 366.794 M 551.252 380.104 C 544.030 383.679, 538.920 391.572, 535.832 403.925 C 533.700 412.452, 533.967 413.925, 538.702 419.766 C 544.016 426.321, 545.890 426.925, 561.454 427.094 C 574.427 427.235, 575.236 427.127, 577.556 424.947 C 578.900 423.684, 580 421.997, 580 421.197 C 580 420.397, 582.475 417.364, 585.500 414.457 C 590.288 409.857, 591 408.677, 591 405.345 C 591 398.680, 581.237 387, 575.665 387 C 574.786 387, 571.787 384.975, 569 382.500 C 564.697 378.679, 563.297 378, 559.717 378.001 C 557.397 378.001, 553.588 378.948, 551.252 380.104 M 238 390.866 C 242.750 393.693, 269.833 401.293, 286.500 404.475 C 307.677 408.517, 376.761 416.534, 384.228 415.815 C 386.028 415.642, 374.225 413.541, 358 411.146 C 309.606 404.002, 286.647 400.014, 239 390.473 C 237.233 390.119, 236.940 390.234, 238 390.866 M 427.597 394.020 C 433.863 396.948, 470.412 409.382, 482 412.528 C 485.822 413.565, 489.736 415.422, 491.500 417.034 C 495.835 420.997, 500.332 423, 504.891 423 C 509.797 423, 510.621 424.087, 507.719 426.732 C 505.685 428.586, 503.766 428.798, 484.649 429.279 C 471.522 429.609, 463.390 430.210, 462.699 430.901 C 461.900 431.700, 462.133 432.005, 463.550 432.020 C 468.011 432.065, 495.516 435.124, 508.870 437.060 C 519.375 438.583, 523.947 438.872, 525.870 438.133 C 527.316 437.577, 530.525 436.837, 533 436.488 C 540.744 435.397, 541 435.223, 541 431.055 C 541 427.184, 538.952 424.294, 537.044 425.473 C 536.470 425.828, 536 426.965, 536 428 C 536 430.765, 534.432 431.275, 531.151 429.578 C 527.462 427.671, 526.593 425.418, 528.497 422.700 C 529.906 420.689, 529.718 420.283, 525.315 415.812 C 520.822 411.251, 520.704 410.984, 522.365 409.149 C 523.959 407.388, 523.968 407.111, 522.476 405.619 C 520.149 403.292, 519.295 403.572, 516.759 407.496 C 515.517 409.418, 513.800 411.221, 512.944 411.501 C 509.206 412.727, 474.575 405.027, 438.420 394.932 C 430.676 392.769, 423.701 391.039, 422.920 391.086 C 422.139 391.133, 424.243 392.454, 427.597 394.020 M 364 402.916 C 367.785 405.076, 413.304 412.216, 434.304 413.946 C 449.891 415.229, 465.997 415.244, 461.500 413.970 C 457.400 412.809, 437.251 410.309, 421.500 409.008 C 407.263 407.831, 380.004 404.518, 371.873 402.976 C 365.316 401.732, 361.879 401.706, 364 402.916 M 875 425.598 C 858.816 427.547, 863.103 428.786, 890.155 429.978 C 902.445 430.519, 915.875 431.226, 920 431.549 C 928.180 432.189, 951.395 436.562, 953.821 437.920 C 955.511 438.865, 949.773 439.594, 933.500 440.499 C 928 440.805, 905.725 442.167, 884 443.526 C 851.956 445.530, 835.534 446.011, 797 446.072 C 733.487 446.174, 726.356 447.290, 765.696 450.972 C 799.423 454.128, 834.622 455.271, 881 454.716 C 934.088 454.080, 963.191 451.263, 991.419 444.026 C 1003.612 440.900, 1003.384 440.562, 987.370 438.031 C 980.842 436.999, 968.074 434.801, 958.998 433.147 C 930.356 427.926, 913.373 425.887, 895.500 425.523 C 886.150 425.333, 876.925 425.366, 875 425.598 M 203 426.717 C 203 429.066, 247.424 439.435, 270.239 442.411 C 283.367 444.124, 306.800 445.604, 305.946 444.667 C 305.308 443.967, 282.863 439.952, 266 437.522 C 255.112 435.953, 208.494 427.470, 204.750 426.376 C 203.787 426.095, 203 426.249, 203 426.717 M 484.500 448.675 C 474.466 449.306, 459.156 451.187, 444.500 453.589 C 419.449 457.695, 322.888 461.013, 284.215 459.097 C 265.634 458.177, 241.685 455.965, 234 454.459 C 231.650 453.999, 231.611 454.056, 233.357 455.423 C 237.551 458.707, 270.938 465.044, 294.500 467.030 C 311.461 468.459, 358.863 468.417, 379.196 466.955 C 391.490 466.071, 395.471 466.079, 396.352 466.988 C 399.396 470.127, 376.959 483.339, 362.470 486.939 C 343.096 491.754, 336.379 492.501, 313 492.443 C 292.476 492.392, 288.831 492.106, 271.500 489.191 C 254.015 486.250, 243.244 485.289, 206.540 483.394 C 196.079 482.854, 194.888 482.619, 197.040 481.522 C 198.393 480.832, 203.221 479.701, 207.768 479.008 C 217.229 477.568, 219.493 476, 212.110 476 C 204.458 476, 186.038 473.368, 166.436 469.473 C 156.707 467.540, 143.291 465.532, 136.623 465.010 C 110.461 462.963, 98.173 461.901, 90.500 461.023 C 76.015 459.366, 43.500 460.161, 48.600 462.048 C 51.302 463.047, 65.951 464.760, 81.500 465.895 C 88.884 466.434, 100.355 468.156, 108.052 469.880 C 119.334 472.407, 125.200 473.079, 143.060 473.889 C 162.262 474.761, 165.444 475.159, 173.362 477.681 C 178.228 479.232, 182.275 480.950, 182.355 481.500 C 182.545 482.812, 174.413 484.559, 159.106 486.495 C 152.289 487.356, 146.022 488.448, 145.179 488.920 C 144.224 489.454, 148.526 490.029, 156.573 490.442 C 178.673 491.578, 210.672 493.985, 230.500 496.004 C 240.950 497.069, 258.725 498.648, 270 499.513 C 281.275 500.379, 290.950 501.232, 291.500 501.409 C 293.514 502.056, 278.244 503.421, 269.500 503.376 C 264.550 503.350, 242.500 503.005, 220.500 502.609 C 192.960 502.114, 181.003 502.210, 182.115 502.919 C 185.648 505.171, 204.171 507.080, 238 508.680 C 267.682 510.083, 276.614 510.165, 292.500 509.180 C 309.354 508.134, 338.241 504.093, 339.767 502.567 C 340.078 502.255, 333.846 501.947, 325.917 501.882 C 317.988 501.817, 310.150 501.420, 308.500 501 C 304.580 500.003, 328.516 499.932, 340.500 500.905 C 350.346 501.705, 352.326 501.539, 394 496.402 C 409.675 494.470, 428.522 492.255, 435.883 491.479 C 443.243 490.703, 449.530 489.803, 449.854 489.480 C 450.744 488.589, 448.180 487.256, 441 484.876 C 433.609 482.427, 425.335 478.507, 422.750 476.231 C 421.788 475.383, 421 473.705, 421 472.500 C 421 471.295, 421.788 469.617, 422.750 468.769 C 425.628 466.235, 434.131 462.365, 440 460.918 C 446.009 459.437, 444.840 459.451, 525.500 459.828 C 574.950 460.059, 591.535 459.491, 587 457.722 C 586.175 457.400, 572.379 455.081, 556.342 452.569 C 528.614 448.224, 526.260 448.009, 508.342 448.180 C 497.979 448.279, 487.250 448.502, 484.500 448.675 M 650 451.065 C 636.007 453.169, 617.113 457.141, 608.917 459.700 L 603.500 461.392 610.500 462.362 C 617.785 463.370, 634.092 462.447, 661 459.501 C 668.425 458.688, 682.005 458.018, 691.178 458.012 C 708.467 458, 721.212 456.755, 726.459 454.567 C 729.311 453.378, 728.911 453.254, 720 452.575 C 714.775 452.176, 703.300 451.211, 694.500 450.429 C 674.076 448.615, 665.470 448.738, 650 451.065 M 708 469.042 C 680.644 470.287, 671.906 471.039, 672.556 472.090 C 672.865 472.591, 674.569 473, 676.342 473 C 678.115 473, 691.701 474.761, 706.533 476.913 C 721.365 479.065, 739.498 481.372, 746.828 482.041 C 765.425 483.736, 788.957 482.788, 806.500 479.639 C 814.200 478.256, 830.625 476.396, 843 475.506 C 855.375 474.616, 868.200 473.466, 871.500 472.951 C 874.800 472.436, 877.837 472.012, 878.250 472.008 C 878.663 472.003, 879 471.615, 879 471.145 C 879 469.252, 740.750 467.551, 708 469.042 M 466.619 471.999 C 467.104 472.473, 472.450 473.523, 478.500 474.332 C 484.550 475.141, 497.375 477.184, 507 478.872 C 532.066 483.268, 570.799 486.537, 595.500 486.342 C 606.500 486.255, 630.800 486.066, 649.500 485.921 C 672.285 485.744, 681.686 485.382, 678 484.824 C 674.975 484.367, 665.073 482.647, 655.995 481.004 C 632.680 476.783, 613.848 474.280, 596.486 473.096 C 577.375 471.793, 465.441 470.848, 466.619 471.999 M 491.720 504.613 C 491.383 504.950, 475.896 505.592, 457.304 506.038 C 438.712 506.485, 422.150 507.296, 420.500 507.839 C 418.348 508.549, 418.066 508.854, 419.500 508.919 C 420.600 508.969, 429.150 509.695, 438.500 510.531 C 460.176 512.471, 476.360 512.494, 491.526 510.607 C 504.840 508.950, 515.921 507.307, 520.500 506.313 L 523.500 505.661 521 504.930 C 517.938 504.035, 492.573 503.760, 491.720 504.613 M 93.996 505.330 C 93.723 505.599, 87.728 506.310, 80.674 506.911 C 73.620 507.512, 63.413 509.128, 57.993 510.502 C 52.572 511.876, 46.194 513.032, 43.819 513.070 C 41.443 513.109, 38.600 513.495, 37.500 513.929 C 33.272 515.595, 42.218 516.181, 61.309 515.490 C 83.128 514.699, 90.796 515.462, 110 520.331 C 122.035 523.382, 123.244 523.498, 142.500 523.445 C 166.792 523.377, 186.574 522.174, 185.244 520.844 C 183.370 518.970, 166.210 517.007, 151.500 516.984 C 143.250 516.971, 133.350 516.508, 129.500 515.955 C 121.239 514.769, 111 512.037, 111 511.019 C 111 510.625, 116.737 510.007, 123.750 509.647 C 130.762 509.287, 139.425 508.368, 143 507.607 C 149.419 506.239, 149.288 506.223, 132.500 506.361 C 123.150 506.437, 110.773 506.127, 104.996 505.671 C 99.219 505.214, 94.269 505.061, 93.996 505.330"/>
</svg>