<?xml version="1.0" encoding="utf-8"?>
<svg xmlns="http://www.w3.org/2000/svg" width="1002" height="454" viewBox="0 0 1002 454">
  <path fill-rule="evenodd" d="M 105.025 2.470 C 102.957 4.962, 104.376 14.989, 108.906 29.879 C 111.144 37.237, 114.619 51.412, 116.628 61.379 C 120.136 78.781, 120.311 80.650, 121.043 108.500 C 121.903 141.192, 122.400 144.248, 129.530 160.622 C 137.219 178.282, 136.974 178.620, 113 183.420 C 97.339 186.555, 91.680 188.511, 81 194.477 C 56.871 207.956, 50.718 211.082, 42 214.293 C 36.775 216.217, 28 218.807, 22.500 220.049 C 17 221.292, 10.105 223.353, 7.177 224.631 C -3.704 229.380, 2.070 233.180, 28.157 238.439 C 53.993 243.648, 85.978 244.218, 118.472 240.049 C 137.702 237.582, 142.733 237.525, 158.780 239.594 C 165.580 240.471, 171.387 240.947, 171.683 240.651 C 171.979 240.355, 168.098 236.189, 163.058 231.393 C 149.102 218.112, 148.401 215.349, 160.688 222.055 C 228.447 259.041, 291.547 294.208, 293.398 296.018 C 293.893 296.501, 288.174 294.232, 280.691 290.976 C 273.208 287.719, 261.104 283.039, 253.793 280.577 C 227.368 271.677, 193.684 264.365, 188.437 266.390 C 186.733 267.048, 186.981 267.431, 190.500 269.578 C 192.700 270.921, 201.475 274.710, 210 277.999 C 247.990 292.656, 260.287 302.011, 285.729 335.608 C 290.683 342.149, 298.183 351.325, 302.397 356 C 312.441 367.142, 316.003 374.281, 316.717 384.699 C 317.364 394.135, 315.592 401.304, 310.251 410.870 C 306.417 417.735, 296.399 431.642, 293.687 433.863 C 291.456 435.690, 292.460 437, 296.091 437 C 302.822 437, 309.458 432.693, 338.825 409.267 C 364.247 388.987, 372.919 382.741, 381.500 378.528 L 388.500 375.091 404.976 380.577 C 423.494 386.743, 448.848 392.309, 469 394.633 C 487.668 396.786, 528.547 396.765, 549.416 394.592 C 562.287 393.251, 588.909 389.197, 602.931 386.443 C 604.344 386.165, 603.248 387.003, 600.496 388.304 C 596.891 390.008, 593.884 392.660, 589.738 397.792 C 581.578 407.891, 579.699 411.352, 580.469 414.859 C 581.777 420.813, 592.262 430.431, 612.646 444.375 C 624.586 452.543, 627.478 453.510, 628.229 449.584 C 628.691 447.166, 627.617 412.527, 626.548 395.397 C 626.035 387.164, 626.182 386.039, 628.089 383.614 C 631.065 379.831, 637.772 376.708, 650.500 373.178 C 671.022 367.487, 698.382 357.630, 718.500 348.680 C 743.229 337.677, 763.467 327.192, 782.897 315.316 C 788.615 311.820, 793.479 309.146, 793.706 309.372 C 794.350 310.017, 791.112 317.214, 789.212 319.360 C 788.270 320.424, 783.450 324.630, 778.500 328.708 C 773.550 332.786, 768.487 337.545, 767.250 339.283 C 764.847 342.659, 764.377 347.232, 765.997 351.491 C 767.714 356.009, 777.012 364.857, 787.249 371.716 C 800.333 380.482, 816.780 394.665, 825.918 405.060 C 829.998 409.702, 833.920 413.642, 834.633 413.816 C 836.815 414.349, 837.326 409.323, 836.659 393.901 C 835.312 362.781, 831.278 332.769, 826.524 318.500 C 824.692 313, 822.876 305.940, 822.489 302.812 C 821.606 295.677, 821.543 295.741, 841.859 283.019 C 850.187 277.804, 857 273.259, 857 272.917 C 857 272.576, 853.288 272.022, 848.750 271.686 C 841.793 271.170, 830.872 268.810, 824.996 266.553 C 824.158 266.231, 821.058 267.582, 817.996 269.604 C 793.295 285.916, 739.570 313.102, 704 327.289 C 613.396 363.426, 524.704 377.059, 462.526 364.407 C 433.159 358.432, 396.437 342.322, 373.040 325.150 C 359.543 315.244, 353.632 308.007, 355.361 303.502 C 356.118 301.530, 358.852 301.606, 372.297 303.971 C 395.335 308.024, 422.440 308.957, 459.500 306.972 C 482.498 305.740, 498.537 303.958, 523 299.917 C 541.706 296.827, 583.555 286.845, 585.357 285.043 C 587.444 282.956, 582.330 282.769, 566.662 284.360 C 511.707 289.942, 475.518 290.199, 414 285.444 C 340.516 279.765, 279.379 265.049, 229.341 240.997 C 210.912 232.138, 197.875 223.803, 183.500 211.687 C 171.124 201.256, 163 190.754, 163 185.185 C 163 183.119, 166.582 178, 168.027 178 C 168.512 178, 173.317 180.846, 178.704 184.325 C 200.525 198.414, 226.539 211.130, 252.780 220.534 C 299.154 237.153, 358.615 248.606, 427.500 254.187 C 449.610 255.978, 589.829 255.983, 605.500 254.193 C 640.988 250.138, 692.787 237.078, 736.401 221.188 L 746.303 217.580 748.557 212.540 C 749.797 209.768, 752.316 201.200, 754.156 193.500 C 756.564 183.417, 757.573 180.479, 757.759 183 C 758.723 196.005, 760.221 202.686, 764.221 211.811 C 768.476 221.518, 779.305 239, 781.064 239 C 782.263 239, 782.321 239.530, 780.050 229.829 C 778.978 225.248, 777.199 214.726, 776.098 206.447 C 773.886 189.821, 774.286 182.636, 777.972 172.828 C 780.559 165.944, 787.101 154.781, 788.892 154.195 C 790.762 153.582, 790.098 156.152, 785.326 168 C 781.675 177.064, 781.507 177.981, 781.652 188 C 782.062 216.231, 796.174 240.156, 819.511 252.183 C 835.228 260.283, 847.274 262.466, 868.109 260.989 C 894.119 259.146, 913.128 253.002, 932.500 240.178 C 942.187 233.766, 955.579 220.607, 962.992 210.217 C 977.879 189.353, 990.359 155.228, 991.730 131.637 L 992.303 121.774 988.902 122.504 C 987.031 122.905, 985.396 123.323, 985.269 123.432 C 985.141 123.540, 984.379 127.068, 983.575 131.270 C 978.375 158.449, 963.503 190.958, 948.415 208.127 L 945.228 211.753 945.758 201.377 C 946.387 189.051, 944.614 186.881, 943.691 198.847 C 942.889 209.256, 939.772 217.606, 935.138 221.763 C 928.523 227.695, 927.987 227.608, 930.644 221.030 C 931.955 217.785, 933.471 212.789, 934.014 209.928 C 935.001 204.719, 935.387 194.280, 934.561 195.106 C 934.319 195.347, 933.461 198.685, 932.654 202.523 C 928.559 221.992, 920.528 233.950, 909.191 237.458 C 907.111 238.101, 907.250 237.692, 910.594 233.336 C 915.271 227.245, 918.747 219.740, 921.116 210.618 C 923.843 200.122, 923.451 195.593, 920.586 204.500 C 917.142 215.208, 911.643 225.191, 905.586 231.734 C 898.170 239.744, 893.582 242.673, 887.500 243.282 C 882.639 243.769, 882.569 243.740, 885 242.216 C 886.375 241.354, 890.537 237.562, 894.250 233.789 C 899.521 228.431, 902.090 224.692, 905.981 216.714 C 912.564 203.215, 914.001 196.024, 907.816 207.529 C 899.097 223.749, 889.038 234.401, 876.670 240.514 L 869.331 244.141 861.195 243.027 C 839.738 240.089, 822.837 229.901, 812.002 213.376 C 804.920 202.573, 802.495 194.035, 802.523 180 C 802.542 170.055, 802.917 167.439, 805.297 160.657 C 810.208 146.659, 820.571 132.869, 831.552 125.720 C 833.723 124.307, 836.541 123.004, 837.812 122.825 C 839.805 122.545, 840.374 123.234, 841.927 127.804 C 843.832 133.410, 847.720 138.249, 852.200 140.589 C 862.175 145.800, 877.615 136.307, 881.161 122.782 C 882.438 117.910, 881.620 115.141, 879.842 118.318 C 877.456 122.581, 872.598 126.988, 868.603 128.514 C 859.062 132.157, 849.984 125.468, 850.011 114.816 L 850.022 110.500 852.599 113.770 C 857.655 120.185, 864.227 121.670, 870.087 117.720 C 874.908 114.472, 877.963 108.585, 877.986 102.500 C 878.004 98.052, 878.340 97.279, 881.033 95.500 C 882.698 94.400, 884.308 92.375, 884.611 91 C 885.660 86.245, 887.281 82.920, 888.999 82.001 C 892.205 80.285, 893.736 82.971, 894.984 92.500 C 898.022 115.696, 905.753 136.897, 918.008 155.646 C 919.956 158.625, 919.973 158.884, 918.340 160.518 C 916.952 161.906, 915.407 162.146, 910.439 161.747 L 904.263 161.251 902.145 169.831 C 899.363 181.101, 894.419 191.265, 888.573 197.734 C 882.823 204.097, 872.357 209.572, 863 211.113 C 856.104 212.248, 844.921 211.681, 840.413 209.967 C 837.984 209.043, 837.841 209.103, 839.034 210.541 C 839.767 211.424, 842.196 213.126, 844.433 214.323 C 850.394 217.514, 866.331 217.433, 873.481 214.177 L 878.462 211.908 875.481 215.022 C 869.850 220.904, 854.630 228, 847.643 228 C 845.338 228, 844.881 228.281, 845.757 229.157 C 847.267 230.667, 861.470 228.763, 869.627 225.956 C 876.355 223.642, 886.199 217.478, 890.675 212.778 C 898.776 204.272, 906.155 190.349, 909.903 176.500 L 911.527 170.500 917.021 169.908 C 928.340 168.687, 938.340 163.578, 946.619 154.787 C 955.870 144.963, 960.390 134.697, 962.375 119 C 963.817 107.597, 964.320 107.313, 974.859 111.938 C 985.605 116.654, 992.122 115.729, 997.317 108.751 C 1000.914 103.920, 1001.368 100.620, 999.131 95.564 C 997.129 91.037, 988.762 83.480, 984.594 82.434 C 983.377 82.129, 980.029 82.806, 977.154 83.939 C 968.975 87.163, 967.641 86.828, 964.472 80.750 C 955.970 64.445, 941.655 50.881, 924.454 42.832 C 917.050 39.367, 909.248 38.786, 904.321 41.334 C 902.626 42.210, 898.336 46.431, 894.787 50.714 C 877.393 71.703, 862.287 83.031, 821 106.043 C 784.047 126.640, 765.021 134.305, 741.503 138.070 C 695.849 145.379, 682.573 148.304, 634.500 161.644 C 599.522 171.350, 575.328 177.147, 555.708 180.523 C 540.128 183.203, 539.853 183.215, 535.208 181.442 C 528.815 179, 517.931 167.909, 500.455 146.027 C 477.172 116.875, 462.554 102.948, 450.075 98.030 C 445.423 96.196, 439 95.289, 439 96.465 C 439 96.721, 440.302 98.983, 441.893 101.492 C 450.292 114.736, 458.175 141.971, 458.250 158 C 458.333 175.989, 450.627 182.922, 424.500 188.365 C 395.058 194.499, 371.771 196.326, 322.764 196.346 C 302.560 196.355, 286.157 196.490, 286.314 196.647 C 287.019 197.352, 306.745 199.999, 319 201.034 C 336.226 202.487, 390.811 202.484, 411 201.028 C 419.525 200.413, 437.468 198.336, 450.874 196.412 C 464.279 194.488, 475.486 193.152, 475.777 193.444 C 476.069 193.735, 474.674 194.656, 472.677 195.490 C 454.298 203.170, 385.201 209.874, 336.500 208.704 C 278.774 207.317, 239.689 195.680, 210.210 171.104 C 195.339 158.706, 191.859 152.539, 154.022 71.500 C 148.372 59.400, 142.168 46.575, 140.235 43 C 133.156 29.908, 127.513 20.382, 123.944 15.500 C 120.054 10.178, 111.670 2, 110.104 2 C 109.587 2, 108.524 1.755, 107.742 1.454 C 106.960 1.154, 105.737 1.612, 105.025 2.470 M 902.466 82.317 C 900.977 86.015, 902.668 102.292, 905.393 110.500 C 908.658 120.334, 919.748 142.816, 924.506 149.250 C 927.265 152.980, 928.630 154, 930.864 154 C 934.696 154, 938.610 150.161, 939.986 145.053 C 941.959 137.725, 939.549 132.308, 926.349 114.402 C 916.442 100.963, 909.737 91.205, 904.349 82.384 C 903.246 80.578, 903.168 80.575, 902.466 82.317"/>
</svg>