<svg xmlns="http://www.w3.org/2000/svg" id="Layer_1" data-name="Layer 1" version="1.1" viewBox="0.0 0.0 100.0 100.0">
  <g transform="scale(0.8)"><path d="M62.513,28.124c-.326,0-.596-.222-.661-.544-.316-1.574-.868-3.081-1.638-4.477-.844-1.528-1.934-2.898-3.239-4.069-.142-.126-.223-.306-.225-.493,0-.187.079-.37.22-.5,1.235-1.125,2.29-2.424,3.139-3.86.748-1.268,1.328-2.632,1.72-4.054.086-.311.367-.505.69-.496.321.019.58.255.629.575h0c.166,1.067,1.244,3.081,1.929,4.175.678,1.086,1.962,2.733,3.004,3.645.164.144.255.344.249.55-.004.195-.096.377-.251.501-1.362,1.091-2.483,2.41-3.331,3.918-.79,1.407-1.318,2.94-1.566,4.555-.05.33-.318.567-.65.575h-.019,0ZM62.273,27.409h0ZM57.79,18.534c1.293,1.199,2.377,2.586,3.228,4.125.633,1.147,1.127,2.364,1.472,3.63.309-1.315.797-2.57,1.457-3.745.859-1.528,1.98-2.873,3.335-4.002-1.076-.998-2.295-2.571-2.984-3.674-.537-.859-1.407-2.415-1.834-3.666-.397,1.202-.92,2.358-1.564,3.447-.85,1.437-1.895,2.743-3.11,3.886h0ZM57.588,18.349h0Z" fill="#000" stroke-width="0" data-sg-fill="sg-fill-0" />
  <path d="M38.368,84.9c-.23,0-.443-.126-.555-.344-.572-1.116-1.306-2.131-2.181-3.015-.958-.968-2.068-1.765-3.297-2.368-.159-.078-.278-.22-.327-.388-.048-.169-.022-.352.072-.503.689-1.11,1.206-2.31,1.538-3.568.292-1.111.438-2.259.432-3.412-.002-.301.201-.555.493-.62.289-.061.584.082.709.357.349.76,1.585,2.04,2.331,2.716.742.673,2.056,1.637,3.03,2.101.18.085.311.24.36.426.046.177.01.364-.099.515-.79,1.108-1.352,2.335-1.667,3.646-.295,1.223-.366,2.484-.21,3.749.038.31-.143.589-.439.68-.064.02-.127.029-.19.029h0ZM33.026,78.492c1.208.63,2.304,1.437,3.259,2.402.645.652,1.218,1.369,1.713,2.142-.013-.948.093-1.888.315-2.81.317-1.317.861-2.555,1.62-3.685-1.016-.537-2.228-1.436-2.969-2.107-.542-.491-1.421-1.366-2.025-2.174-.057.908-.203,1.809-.434,2.687-.327,1.243-.825,2.434-1.48,3.544h.001ZM40.126,76.263h0Z" fill="#000" stroke-width="0" data-sg-fill="sg-fill-0" />
  <path d="M87.491,84.9c-.063,0-.126-.009-.19-.029-.296-.091-.476-.371-.439-.679.156-1.266.085-2.527-.21-3.75-.317-1.314-.877-2.541-1.669-3.646-.108-.153-.143-.34-.096-.517.048-.184.179-.339.359-.425.974-.463,2.289-1.427,3.03-2.1.746-.676,1.983-1.957,2.33-2.716h0c.126-.275.415-.423.711-.355.291.064.493.318.492.618-.006,1.156.139,2.305.432,3.413.333,1.261.85,2.461,1.538,3.567.094.153.12.336.072.504-.048.168-.168.31-.327.388-1.23.604-2.339,1.401-3.296,2.368-.875.885-1.609,1.899-2.181,3.015-.112.218-.326.344-.555.344h0ZM85.925,76.542c.757,1.127,1.302,2.366,1.62,3.685.222.921.327,1.861.315,2.81.495-.773,1.068-1.49,1.713-2.142.955-.965,2.05-1.772,3.259-2.402-.654-1.107-1.152-2.297-1.48-3.544-.231-.877-.377-1.778-.434-2.688-.604.807-1.483,1.683-2.025,2.174-.74.671-1.953,1.571-2.969,2.107h0Z" fill="#000" stroke-width="0" data-sg-fill="sg-fill-0" />
  <path d="M28.052,58.522l-.075-.915c2.463-.204,4.714-1.53,6.892-2.813.502-.296,1.003-.591,1.506-.873.537-.301,1.116-.605,1.763-.724.671-.123,1.33-.034,1.966.053.556.076,1.083.147,1.587.075l.131.91c-.633.09-1.247.006-1.842-.075-.59-.081-1.148-.157-1.677-.06-.508.093-.99.347-1.479.621-.497.279-.992.571-1.488.863-2.266,1.335-4.61,2.716-7.283,2.937h-.001Z" fill="#000" stroke-width="0" data-sg-fill="sg-fill-0" />
  <path d="M35.164,58.213l-.28-.289c-.188-.196-.264-.48-.195-.742l.262.068-.011-.014c1.259-.932,2.937-1.984,4.773-1.823l-.079.915c-1.531-.132-3.017.81-4.146,1.646l-.324.24h0ZM35.448,57.378l.13.034c.013-.048.002-.092-.033-.128,0,0-.097.094-.097.094Z" fill="#000" stroke-width="0" data-sg-fill="sg-fill-0" />
  <path d="M41.658,49.362c-1.201-.577-2.182-1.688-2.761-3.128-.439-1.091-.66-2.366-.698-4.013-.059-2.581.3-5.14,1.068-7.605.183-.588.389-1.169.596-1.749.339-.954.69-1.94.918-2.93.415-1.795.343-3.332-.216-4.568-.613-1.356-1.898-2.467-3.527-3.047-1.385-.493-2.985-.628-4.887-.413l-.104-.912c2.045-.232,3.78-.081,5.3.46,1.861.663,3.34,1.952,4.055,3.534.644,1.424.736,3.158.275,5.153-.24,1.041-.599,2.052-.947,3.03-.202.57-.405,1.139-.584,1.716-.739,2.369-1.085,4.829-1.027,7.311.034,1.533.235,2.706.632,3.691.493,1.227,1.312,2.165,2.307,2.643l-.398.828h-.002Z" fill="#000" stroke-width="0" data-sg-fill="sg-fill-0" />
  <path d="M52.39,48.067c-7.982-3.163-5.824-9.355-3.736-15.342.266-.765.535-1.533.783-2.298.904-2.783.634-5.722-.76-8.276-1.386-2.537-3.692-4.341-6.495-5.079-10.476-2.751-13.984,4.101-17.698,11.358-2.366,4.621-4.811,9.4-9.163,11.943-.146.086-.146.242-.143.288.004.054.03.185.169.24,1.373.533,4.591-.927,5.929-1.792,2.48-1.637,4.153-4.342,5.77-6.958,2.528-4.088,5.142-8.315,10.888-8.611l.047.918c-5.264.271-7.639,4.111-10.153,8.176-1.67,2.7-3.396,5.493-6.049,7.244-.923.597-4.768,2.659-6.765,1.879-.426-.166-.714-.558-.75-1.024-.038-.475.19-.916.595-1.152,4.12-2.407,6.503-7.065,8.808-11.569,3.717-7.261,7.563-14.771,18.75-11.828,3.05.802,5.56,2.765,7.067,5.527,1.517,2.778,1.811,5.974.828,8.999-.251.772-.521,1.547-.789,2.318-2.123,6.089-3.956,11.347,3.208,14.185l-.339.854s-.002,0-.002,0Z" fill="#000" stroke-width="0" data-sg-fill="sg-fill-0" />
  <path d="M43.183,47.505l-.919-.03c.014-.429.276-.811.78-1.133,1.035-.663,2.317-.894,3.518-.631l-.196.897c-.967-.209-1.995-.026-2.828.507-.22.141-.353.287-.356.389h0Z" fill="#000" stroke-width="0" data-sg-fill="sg-fill-0" />
  <path d="M41.004,43.86l-.78-.484c.96-1.55,2.934-2.338,4.704-1.879l-.233.889c-1.356-.355-2.947.276-3.69,1.473h0Z" fill="#000" stroke-width="0" data-sg-fill="sg-fill-0" />
  <path d="M41.013,39.117l-.614-.684c1.341-1.204,3.38-1.601,5.074-.987l-.312.864c-1.386-.502-3.052-.178-4.148.806h0Z" fill="#000" stroke-width="0" data-sg-fill="sg-fill-0" />
  <path d="M42.563,33.984l-.474-.788c1.298-.78,2.973-.907,4.376-.332l-.35.85c-1.138-.468-2.499-.362-3.553.27h0Z" fill="#000" stroke-width="0" data-sg-fill="sg-fill-0" />
  <path d="M43.99,29.348l-.556-.731c1.357-1.033,3.219-1.377,4.855-.898l-.258.882c-1.358-.398-2.91-.112-4.041.747Z" fill="#000" stroke-width="0" data-sg-fill="sg-fill-0" />
  <path d="M43.995,24.941l-.737-.549c.903-1.213,2.51-1.83,3.99-1.535l-.179.901c-1.123-.224-2.389.263-3.073,1.183h-.001Z" fill="#000" stroke-width="0" data-sg-fill="sg-fill-0" />
  <path d="M41.342,21.195l-.901-.18c.2-.998.806-1.885,1.661-2.434l.495.773c-.637.409-1.107,1.097-1.256,1.841h.001Z" fill="#000" stroke-width="0" data-sg-fill="sg-fill-0" />
  <path d="M37.134,19.876c-.236-.684-.155-1.463.215-2.084l.789.471c-.231.386-.283.889-.136,1.313l-.868.3Z" fill="#000" stroke-width="0" data-sg-fill="sg-fill-0" />
  <rect x="33.42" y="18.266" width=".919" height=".885" fill="#000" stroke-width="0" data-sg-fill="sg-fill-0" />
  <path d="M31.481,25.095c-1.253-.147-2.052-1.225-2.727-2.367l.791-.467c.517.875,1.144,1.817,2.044,1.922,0,0-.108.912-.108.912Z" fill="#000" stroke-width="0" data-sg-fill="sg-fill-0" />
  <path d="M28.685,28.014c-.999-.157-1.867-.872-2.21-1.824l.865-.311c.227.631.825,1.124,1.487,1.228l-.142.908h0Z" fill="#000" stroke-width="0" data-sg-fill="sg-fill-0" />
  <path d="M26.602,31.061c-.782-.149-1.487-.684-1.841-1.399l.824-.407c.228.461.684.807,1.19.903l-.172.902h0Z" fill="#000" stroke-width="0" data-sg-fill="sg-fill-0" />
  <path d="M24.341,34.091c-.535,0-1.067-.277-1.358-.728l.772-.499c.144.222.439.349.693.299l.169.903c-.092.017-.184.025-.275.025h-.001Z" fill="#000" stroke-width="0" data-sg-fill="sg-fill-0" />
  <path d="M22.377,36.939c-.569,0-1.108-.362-1.314-.898l.858-.33c.074.191.3.331.499.307l.093.914c-.046.004-.091.007-.135.007h-.001Z" fill="#000" stroke-width="0" data-sg-fill="sg-fill-0" />
  <path d="M53.603,60.173c-.721-.928-1.466-1.888-2.353-2.661-.957-.834-1.989-1.347-2.984-1.482l.124-.911c1.173.16,2.371.747,3.463,1.7.955.832,1.728,1.827,2.475,2.79l-.725.563h0Z" fill="#000" stroke-width="0" data-sg-fill="sg-fill-0" />
  <path d="M55.535,65.572c-.534-1.184-.98-2.418-1.324-3.669l.886-.244c.331,1.205.761,2.395,1.276,3.535l-.838.379h0Z" fill="#000" stroke-width="0" data-sg-fill="sg-fill-0" />
  <path d="M49.037,77.929c-2.428-3.064-5.178-6.536-5.91-10.746-.109-.631-.171-1.269-.231-1.888-.077-.806-.15-1.566-.319-2.319-.197-.873-.724-2.445-2.035-3.164l.441-.806c1.207.662,2.09,2,2.489,3.767.183.809.262,1.634.339,2.433.057.601.117,1.223.22,1.818.693,3.98,3.367,7.355,5.725,10.334,0,0-.719.571-.719.571Z" fill="#000" stroke-width="0" data-sg-fill="sg-fill-0" />
  <path d="M61.665,104.236c-2.734-.914-5.099-3.017-6.325-5.625-.48-1.019-.793-2.104-1.096-3.152-.222-.771-.453-1.568-.745-2.316-.852-2.184-2.295-4.137-3.689-6.026-.527-.713-1.054-1.427-1.554-2.155-2.443-3.559-3.414-6.665-2.971-9.494l.908.142c-.405,2.587.517,5.476,2.82,8.832.493.719,1.015,1.425,1.535,2.13,1.431,1.937,2.91,3.939,3.806,6.238.307.788.543,1.604.772,2.394.306,1.061.596,2.063,1.044,3.017,1.122,2.385,3.285,4.309,5.785,5.144l-.291.872h.001Z" fill="#000" stroke-width="0" data-sg-fill="sg-fill-0" />
  <path d="M53.324,75.255c-.06-1.698-.177-3.2-.991-4.378-.922-1.334-2.784-2.058-4.633-1.804l-.126-.91c2.188-.301,4.399.58,5.514,2.192.955,1.381,1.091,3.09,1.155,4.868,0,0-.919.032-.919.032Z" fill="#000" stroke-width="0" data-sg-fill="sg-fill-0" />
  <path d="M51.997,73.606c-.594,0-1.183-.188-1.665-.539-.592-.433-.999-1.095-1.118-1.818-.058-.354-.047-.696-.035-1.027l.009-.309.919.013-.009.328c-.011.3-.021.582.022.846.079.479.361.937.754,1.225.392.285.914.41,1.396.343l.135.908c-.135.021-.271.031-.407.031h0Z" fill="#000" stroke-width="0" data-sg-fill="sg-fill-0" />
  <path d="M57.774,84.944c-.053-1.098-.522-2.18-1.286-2.968-.262-.27-.559-.511-.873-.767-.588-.478-1.195-.973-1.585-1.682-.513-.931-.527-2.011-.465-3.04l.917.056c-.054.891-.048,1.815.352,2.542.305.553.818.97,1.362,1.413.32.261.652.531.952.84.918.946,1.481,2.245,1.544,3.562l-.917.045h0Z" fill="#000" stroke-width="0" data-sg-fill="sg-fill-0" />
  <rect x="57.593" y="86.651" width=".919" height="3.049" fill="#000" stroke-width="0" data-sg-fill="sg-fill-0" />
  <rect x="47.215" y="94.419" width="4.141" height=".919" transform="translate(-57.63 95.129) rotate(-62.684)" fill="#000" stroke-width="0" data-sg-fill="sg-fill-0" />
  <rect x="44.87" y="101.527" width="3.432" height=".919" transform="translate(-62.558 76.313) rotate(-52.213)" fill="#000" stroke-width="0" data-sg-fill="sg-fill-0" />
  <rect x="50.02" y="100.429" width="4.071" height=".919" transform="translate(-61.116 91.913) rotate(-58.173)" fill="#000" stroke-width="0" data-sg-fill="sg-fill-0" />
  <rect x="62.03" y="54.155" width=".919" height="14.371" fill="#000" stroke-width="0" data-sg-fill="sg-fill-0" />
  <rect x="62.03" y="69.92" width=".919" height="7.186" fill="#000" stroke-width="0" data-sg-fill="sg-fill-0" />
  <rect x="58.045" y="57.012" width=".919" height="4.811" transform="translate(-10.117 12.044) rotate(-10.824)" fill="#000" stroke-width="0" data-sg-fill="sg-fill-0" />
  <path d="M28.052,58.522l-.075-.915c2.463-.204,4.714-1.53,6.892-2.813.502-.296,1.003-.591,1.506-.873.537-.301,1.116-.605,1.763-.724.671-.123,1.33-.034,1.966.053.556.076,1.083.147,1.587.075l.131.91c-.633.09-1.247.006-1.842-.075-.59-.081-1.148-.157-1.677-.06-.508.093-.99.347-1.479.621-.497.279-.992.571-1.488.863-2.266,1.335-4.61,2.716-7.283,2.937h-.001Z" fill="#000" stroke-width="0" data-sg-fill="sg-fill-0" />
  <path d="M35.164,58.213l-.28-.289c-.188-.196-.264-.48-.195-.742l.262.068-.011-.014c1.259-.932,2.937-1.984,4.773-1.823l-.079.915c-1.531-.132-3.017.81-4.146,1.646l-.324.24h0ZM35.448,57.378l.13.034c.013-.048.002-.092-.033-.128,0,0-.097.094-.097.094Z" fill="#000" stroke-width="0" data-sg-fill="sg-fill-0" />
  <path d="M43.183,47.505l-.919-.03c.014-.429.276-.811.78-1.133,1.035-.663,2.317-.894,3.518-.631l-.196.897c-.967-.209-1.995-.026-2.828.507-.22.141-.353.287-.356.389h0Z" fill="#000" stroke-width="0" data-sg-fill="sg-fill-0" />
  <path d="M41.004,43.86l-.78-.484c.96-1.55,2.934-2.338,4.704-1.879l-.233.889c-1.356-.355-2.947.276-3.69,1.473h0Z" fill="#000" stroke-width="0" data-sg-fill="sg-fill-0" />
  <path d="M41.013,39.117l-.614-.684c1.341-1.204,3.38-1.601,5.074-.987l-.312.864c-1.386-.502-3.052-.178-4.148.806h0Z" fill="#000" stroke-width="0" data-sg-fill="sg-fill-0" />
  <path d="M42.563,33.984l-.474-.788c1.298-.78,2.973-.907,4.376-.332l-.35.85c-1.138-.468-2.499-.362-3.553.27h0Z" fill="#000" stroke-width="0" data-sg-fill="sg-fill-0" />
  <path d="M43.99,29.348l-.556-.731c1.357-1.033,3.219-1.377,4.855-.898l-.258.882c-1.358-.398-2.91-.112-4.041.747Z" fill="#000" stroke-width="0" data-sg-fill="sg-fill-0" />
  <path d="M43.995,24.941l-.737-.549c.903-1.213,2.51-1.83,3.99-1.535l-.179.901c-1.123-.224-2.389.263-3.073,1.183h-.001Z" fill="#000" stroke-width="0" data-sg-fill="sg-fill-0" />
  <path d="M41.342,21.195l-.901-.18c.2-.998.806-1.885,1.661-2.434l.495.773c-.637.409-1.107,1.097-1.256,1.841h.001Z" fill="#000" stroke-width="0" data-sg-fill="sg-fill-0" />
  <path d="M37.134,19.876c-.236-.684-.155-1.463.215-2.084l.789.471c-.231.386-.283.889-.136,1.313l-.868.3Z" fill="#000" stroke-width="0" data-sg-fill="sg-fill-0" />
  <rect x="33.42" y="18.266" width=".919" height=".885" fill="#000" stroke-width="0" data-sg-fill="sg-fill-0" />
  <path d="M31.481,25.095c-1.253-.147-2.052-1.225-2.727-2.367l.791-.467c.517.875,1.144,1.817,2.044,1.922,0,0-.108.912-.108.912Z" fill="#000" stroke-width="0" data-sg-fill="sg-fill-0" />
  <path d="M28.685,28.014c-.999-.157-1.867-.872-2.21-1.824l.865-.311c.227.631.825,1.124,1.487,1.228l-.142.908h0Z" fill="#000" stroke-width="0" data-sg-fill="sg-fill-0" />
  <path d="M26.602,31.061c-.782-.149-1.487-.684-1.841-1.399l.824-.407c.228.461.684.807,1.19.903l-.172.902h0Z" fill="#000" stroke-width="0" data-sg-fill="sg-fill-0" />
  <path d="M24.341,34.091c-.535,0-1.067-.277-1.358-.728l.772-.499c.144.222.439.349.693.299l.169.903c-.092.017-.184.025-.275.025h-.001Z" fill="#000" stroke-width="0" data-sg-fill="sg-fill-0" />
  <path d="M22.377,36.939c-.569,0-1.108-.362-1.314-.898l.858-.33c.074.191.3.331.499.307l.093.914c-.046.004-.091.007-.135.007h-.001Z" fill="#000" stroke-width="0" data-sg-fill="sg-fill-0" />
  <path d="M53.603,60.173c-.721-.928-1.466-1.888-2.353-2.661-.957-.834-1.989-1.347-2.984-1.482l.124-.911c1.173.16,2.371.747,3.463,1.7.955.832,1.728,1.827,2.475,2.79l-.725.563h0Z" fill="#000" stroke-width="0" data-sg-fill="sg-fill-0" />
  <path d="M55.535,65.572c-.534-1.184-.98-2.418-1.324-3.669l.886-.244c.331,1.205.761,2.395,1.276,3.535l-.838.379h0Z" fill="#000" stroke-width="0" data-sg-fill="sg-fill-0" />
  <path d="M38.499,101.26l-.542-.741c4.955-3.623,8.226-10.224,8.786-14.597l.911.117c-.6,4.678-3.938,11.408-9.156,15.221h0Z" fill="#000" stroke-width="0" data-sg-fill="sg-fill-0" />
  <path d="M86.428,101.26c-5.218-3.814-8.556-10.544-9.156-15.221l.911-.117c.561,4.372,3.832,10.974,8.786,14.597l-.542.741h0Z" fill="#000" stroke-width="0" data-sg-fill="sg-fill-0" />
  <rect x="47.215" y="94.419" width="4.141" height=".919" transform="translate(-57.63 95.129) rotate(-62.684)" fill="#000" stroke-width="0" data-sg-fill="sg-fill-0" />
  <rect x="44.87" y="101.527" width="3.432" height=".919" transform="translate(-62.558 76.313) rotate(-52.213)" fill="#000" stroke-width="0" data-sg-fill="sg-fill-0" />
  <rect x="50.02" y="100.429" width="4.071" height=".919" transform="translate(-61.116 91.913) rotate(-58.173)" fill="#000" stroke-width="0" data-sg-fill="sg-fill-0" />
  <rect x="52.229" y="109.164" width="3.324" height=".919" transform="translate(-68.239 107.199) rotate(-62.684)" fill="#000" stroke-width="0" data-sg-fill="sg-fill-0" />
  <rect x="58.045" y="57.012" width=".919" height="4.811" transform="translate(-10.117 12.044) rotate(-10.824)" fill="#000" stroke-width="0" data-sg-fill="sg-fill-0" />
  <rect x="58.779" y="63.739" width=".919" height="8.229" transform="translate(-11.165 11.669) rotate(-10.287)" fill="#000" stroke-width="0" data-sg-fill="sg-fill-0" />
  <path d="M31.738,61.971c-.648,0-1.303-.048-1.959-.146-2.721-.404-5.464-1.61-8.155-3.584-.159-.117-.399-.293-.531-.578-.146-.314-.134-.647.035-.937.366-.632,1.345-.876,1.865-.921,2.708-.235,5.292-1.416,7.79-2.558,2.632-1.203,5.353-2.447,8.296-2.65,1.354-.091,2.72.039,4.04.169,1.705.166,3.316.322,4.913.038,1.469-.261,2.818-.874,4.247-1.523.95-.432,1.933-.878,2.951-1.208,2.444-.793,5.538-.703,7.27,1.158,1.731-1.862,4.826-1.951,7.27-1.158,1.017.33,2.001.776,2.951,1.208,1.429.649,2.778,1.262,4.247,1.523,1.599.283,3.21.127,4.913-.038,1.32-.128,2.688-.259,4.04-.169,2.943.203,5.664,1.447,8.296,2.65,2.498,1.142,5.081,2.323,7.79,2.558.52.045,1.499.289,1.865.921.169.29.181.623.036.937-.133.285-.373.462-.532.578-2.69,1.974-5.435,3.18-8.155,3.584-3.195.475-6.365-.225-8.692-1.921-.641-.467-1.22-1.008-1.781-1.531-.569-.53-1.105-1.031-1.704-1.466-.641-.466-2.307-1.49-3.882-.926l-.309-.866c1.405-.5,3.127-.118,4.73,1.049.644.468,1.226,1.012,1.79,1.537.566.528,1.101,1.026,1.696,1.461,2.133,1.555,5.052,2.194,8.016,1.754,2.57-.382,5.176-1.531,7.746-3.417.083-.061.209-.153.242-.224-.103-.273-.601-.51-1.147-.557-2.867-.248-5.523-1.463-8.093-2.637-2.557-1.169-5.201-2.377-7.977-2.568-1.28-.087-2.605.041-3.888.166-1.692.165-3.44.334-5.164.028-1.582-.281-3.047-.947-4.465-1.591-.928-.421-1.887-.857-2.855-1.171-2.304-.748-5.239-.647-6.602,1.263l-.137.193h-.474l-.159-.193c-1.363-1.91-4.298-2.011-6.602-1.263-.968.314-1.927.75-2.855,1.171-1.417.644-2.883,1.31-4.465,1.591-1.724.305-3.473.136-5.164-.028-1.282-.125-2.608-.253-3.888-.166-2.777.191-5.42,1.399-7.977,2.568-2.569,1.174-5.226,2.389-8.093,2.637-.545.047-1.043.284-1.149.467.036.161.161.253.245.314,2.568,1.885,5.175,3.035,7.746,3.417,2.965.441,5.882-.199,8.016-1.754.596-.435,1.13-.933,1.696-1.461.563-.525,1.146-1.069,1.79-1.537,1.602-1.167,3.325-1.549,4.731-1.049l-.309.866c-1.58-.565-3.242.46-3.883.926-.598.436-1.135.936-1.704,1.466-.561.523-1.14,1.064-1.781,1.531-1.849,1.348-4.23,2.067-6.733,2.067h.005Z" fill="#000" stroke-width="0" data-sg-fill="sg-fill-0" />
  <path d="M96.948,58.522c-2.672-.221-5.017-1.602-7.283-2.937-.496-.292-.991-.584-1.488-.863-.469-.263-.969-.527-1.479-.621-.529-.096-1.087-.021-1.677.06-.594.082-1.208.166-1.841.075l.131-.91c.506.072,1.031,0,1.586-.075.636-.087,1.295-.176,1.966-.053.65.119,1.227.423,1.764.724.502.282,1.003.577,1.505.873,2.177,1.282,4.429,2.609,6.892,2.813l-.075.915h0Z" fill="#000" stroke-width="0" data-sg-fill="sg-fill-0" />
  <path d="M89.838,58.214l-.325-.241c-1.201-.888-2.628-1.775-4.148-1.646l-.079-.915c1.835-.161,3.513.891,4.773,1.823l-.01.014.261-.068c.068.261-.005.545-.192.74l-.28.293ZM89.454,57.287c-.034.035-.045.078-.032.126l.128-.034-.096-.092Z" fill="#000" stroke-width="0" data-sg-fill="sg-fill-0" />
  <path d="M83.342,49.362l-.398-.828c.995-.477,1.814-1.416,2.307-2.643.397-.985.597-2.158.632-3.691.057-2.482-.288-4.942-1.027-7.311-.18-.579-.383-1.151-.587-1.723-.346-.976-.705-1.985-.945-3.024-.461-1.995-.37-3.729.274-5.153.716-1.582,2.194-2.87,4.056-3.534,1.521-.541,3.253-.692,5.301-.46l-.104.912c-1.903-.216-3.503-.081-4.888.413-1.628.58-2.914,1.691-3.527,3.047-.558,1.236-.631,2.773-.215,4.568.228.987.577,1.971.915,2.923.207.583.414,1.167.598,1.757.769,2.464,1.128,5.023,1.068,7.605-.038,1.646-.259,2.921-.698,4.012-.58,1.441-1.56,2.552-2.761,3.128v.002h-.001Z" fill="#000" stroke-width="0" data-sg-fill="sg-fill-0" />
  <path d="M72.61,48.067l-.339-.854c7.164-2.838,5.331-8.097,3.208-14.185-.268-.771-.538-1.545-.789-2.318-.983-3.025-.689-6.221.828-8.999,1.507-2.762,4.017-4.725,7.067-5.527,11.196-2.944,15.034,4.567,18.75,11.828,2.305,4.504,4.688,9.161,8.808,11.569.405.236.632.677.595,1.152-.036.466-.323.858-.749,1.024-2.001.784-5.842-1.282-6.761-1.876-2.656-1.753-4.383-4.546-6.054-7.246-2.515-4.065-4.889-7.905-10.153-8.176l.047-.918c5.746.296,8.36,4.523,10.888,8.61,1.617,2.616,3.291,5.321,5.775,6.96,1.333.863,4.546,2.328,5.925,1.79.138-.054.163-.185.168-.24.004-.046.004-.202-.143-.288-4.352-2.543-6.797-7.322-9.163-11.943-3.714-7.258-7.227-14.112-17.698-11.358-2.803.737-5.109,2.541-6.495,5.079-1.394,2.554-1.664,5.493-.76,8.276.248.766.517,1.534.783,2.298,2.088,5.988,4.246,12.179-3.736,15.342h-.002Z" fill="#000" stroke-width="0" data-sg-fill="sg-fill-0" />
  <path d="M81.817,47.505c-.003-.102-.136-.248-.356-.389-.833-.534-1.863-.717-2.827-.507l-.196-.897c1.199-.262,2.483-.033,3.518.631.503.322.765.703.78,1.133l-.919.03h0Z" fill="#000" stroke-width="0" data-sg-fill="sg-fill-0" />
  <path d="M83.996,43.861c-.742-1.196-2.333-1.827-3.691-1.473l-.233-.889c1.763-.46,3.744.328,4.704,1.878l-.78.484Z" fill="#000" stroke-width="0" data-sg-fill="sg-fill-0" />
  <path d="M83.987,39.117c-1.096-.984-2.764-1.309-4.148-.806l-.312-.864c1.694-.614,3.734-.217,5.074.987l-.614.684h0Z" fill="#000" stroke-width="0" data-sg-fill="sg-fill-0" />
  <path d="M82.437,33.984c-1.053-.633-2.414-.739-3.553-.27l-.35-.85c1.401-.576,3.077-.448,4.376.332l-.474.788h0Z" fill="#000" stroke-width="0" data-sg-fill="sg-fill-0" />
  <path d="M81.01,29.348c-1.13-.859-2.679-1.146-4.041-.747l-.258-.882c1.639-.48,3.498-.134,4.855.898,0,0-.556.731-.556.731Z" fill="#000" stroke-width="0" data-sg-fill="sg-fill-0" />
  <path d="M81.005,24.941c-.684-.92-1.95-1.408-3.073-1.183l-.179-.901c1.478-.295,3.086.322,3.99,1.535l-.737.549h0Z" fill="#000" stroke-width="0" data-sg-fill="sg-fill-0" />
  <path d="M83.658,21.195c-.148-.743-.618-1.431-1.256-1.84l.495-.773c.858.549,1.463,1.437,1.661,2.434l-.901.179h0Z" fill="#000" stroke-width="0" data-sg-fill="sg-fill-0" />
  <path d="M87.866,19.876l-.868-.3c.146-.424.094-.928-.136-1.313l.789-.471c.371.621.451,1.4.215,2.084Z" fill="#000" stroke-width="0" data-sg-fill="sg-fill-0" />
  <rect x="90.661" y="18.266" width=".919" height=".885" fill="#000" stroke-width="0" data-sg-fill="sg-fill-0" />
  <path d="M93.519,25.095l-.108-.912c.899-.105,1.527-1.048,2.045-1.923l.791.468c-.456.769-1.303,2.2-2.728,2.367Z" fill="#000" stroke-width="0" data-sg-fill="sg-fill-0" />
  <path d="M96.315,28.014l-.142-.908c.662-.104,1.26-.597,1.487-1.228l.865.311c-.344.952-1.21,1.668-2.21,1.824h0Z" fill="#000" stroke-width="0" data-sg-fill="sg-fill-0" />
  <path d="M98.398,31.061l-.172-.902c.506-.096.962-.442,1.19-.903l.824.407c-.353.714-1.059,1.25-1.841,1.399h0Z" fill="#000" stroke-width="0" data-sg-fill="sg-fill-0" />
  <path d="M100.659,34.091c-.092,0-.184-.008-.275-.025l.169-.903c.255.052.55-.076.693-.299l.772.499c-.292.452-.824.728-1.358.728h0Z" fill="#000" stroke-width="0" data-sg-fill="sg-fill-0" />
  <path d="M102.622,36.939c-.045,0-.09-.002-.135-.007l.093-.914c.2.023.427-.117.5-.308l.858.331c-.208.536-.747.898-1.316.898Z" fill="#000" stroke-width="0" data-sg-fill="sg-fill-0" />
  <path d="M71.399,60.172l-.727-.562c.746-.962,1.517-1.957,2.475-2.791,1.092-.952,2.289-1.54,3.463-1.7l.124.911c-.995.135-2.027.648-2.984,1.482-.89.776-1.633,1.734-2.351,2.661h0Z" fill="#000" stroke-width="0" data-sg-fill="sg-fill-0" />
  <path d="M69.465,65.572l-.838-.379c.515-1.14.945-2.329,1.276-3.535l.886.244c-.344,1.251-.79,2.485-1.324,3.669h0Z" fill="#000" stroke-width="0" data-sg-fill="sg-fill-0" />
  <path d="M75.964,77.929l-.719-.571c2.358-2.978,5.032-6.355,5.724-10.334.103-.595.162-1.216.22-1.818.077-.798.156-1.624.339-2.433.398-1.768,1.282-3.106,2.489-3.767l.441.806c-1.311.719-1.837,2.291-2.035,3.164-.17.753-.242,1.513-.319,2.319-.059.618-.121,1.257-.231,1.888-.731,4.208-3.483,7.682-5.909,10.746Z" fill="#000" stroke-width="0" data-sg-fill="sg-fill-0" />
  <path d="M63.335,104.236l-.291-.872c2.5-.835,4.663-2.759,5.785-5.144.449-.954.738-1.956,1.044-3.017.229-.79.465-1.607.772-2.394.896-2.298,2.376-4.301,3.806-6.238.52-.705,1.042-1.41,1.535-2.13,2.304-3.356,3.226-6.245,2.82-8.832l.908-.142c.443,2.829-.528,5.935-2.971,9.494-.5.728-1.026,1.442-1.554,2.155-1.394,1.888-2.837,3.841-3.689,6.026-.292.748-.522,1.546-.745,2.316-.303,1.049-.616,2.133-1.096,3.152-1.226,2.608-3.591,4.711-6.325,5.625h.001Z" fill="#000" stroke-width="0" data-sg-fill="sg-fill-0" />
  <path d="M62.54,100.278l-.138-.044c-2.734-.859-4.676-3.501-4.829-6.57l.917-.047c.133,2.637,1.753,4.905,4.05,5.696,2.248-.777,3.837-3.046,3.97-5.696l.917.047c-.154,3.085-2.062,5.726-4.748,6.57l-.138.044h0Z" fill="#000" stroke-width="0" data-sg-fill="sg-fill-0" />
  <path d="M62.415,107.75c-1.675-.053-2.691-1.212-3.588-2.234-.336-.384-.654-.746-.999-1.058-.371-.334-1.141-1.028-.982-1.898l.904.165c-.06.324.339.732.693,1.051.385.346.736.746,1.075,1.134.849.967,1.65,1.881,2.897,1.921,1.278-.041,2.184-1.012,3.141-2.04.323-.346.656-.703,1.001-1.015.354-.319.754-.728.694-1.051l.902-.167c.161.869-.611,1.565-.981,1.899-.321.29-.631.623-.945.959-.995,1.068-2.123,2.279-3.813,2.332v.002h.001Z" fill="#000" stroke-width="0" data-sg-fill="sg-fill-0" />
  <path d="M71.676,75.256l-.919-.034c.065-1.778.202-3.489,1.155-4.867,1.114-1.611,3.326-2.493,5.515-2.192l-.126.91c-1.849-.257-3.711.471-4.634,1.804-.813,1.175-.929,2.679-.991,4.379Z" fill="#000" stroke-width="0" data-sg-fill="sg-fill-0" />
  <path d="M73.003,73.606c-.136,0-.273-.01-.407-.031l.135-.908c.482.069,1.004-.057,1.396-.344.393-.286.675-.744.754-1.224.043-.263.033-.544.023-.841l-.009-.336.919-.009.008.313c.012.328.023.669-.035,1.021-.118.723-.526,1.385-1.118,1.818-.482.351-1.071.539-1.665.539v.002h-.001Z" fill="#000" stroke-width="0" data-sg-fill="sg-fill-0" />
  <path d="M67.226,84.944l-.917-.045c.063-1.318.626-2.616,1.545-3.563.299-.308.631-.578.951-.839.544-.443,1.057-.86,1.362-1.413.4-.727.405-1.651.352-2.542l.917-.056c.062,1.029.048,2.109-.465,3.04-.39.709-.998,1.204-1.585,1.682-.314.256-.611.497-.872.766-.765.789-1.234,1.87-1.287,2.969h0Z" fill="#000" stroke-width="0" data-sg-fill="sg-fill-0" />
  <rect x="66.489" y="86.651" width=".919" height="3.049" fill="#000" stroke-width="0" data-sg-fill="sg-fill-0" />
  <rect x="75.255" y="92.808" width=".919" height="4.141" transform="translate(-35.066 45.258) rotate(-27.281)" fill="#000" stroke-width="0" data-sg-fill="sg-fill-0" />
  <rect x="77.954" y="100.27" width=".919" height="3.432" transform="translate(-46.047 69.44) rotate(-37.79)" fill="#000" stroke-width="0" data-sg-fill="sg-fill-0" />
  <rect x="72.487" y="98.854" width=".919" height="4.071" transform="translate(-42.202 53.554) rotate(-31.785)" fill="#000" stroke-width="0" data-sg-fill="sg-fill-0" />
  <rect x="64.09" y="58.959" width="4.811" height=".919" transform="translate(-4.335 113.596) rotate(-79.195)" fill="#000" stroke-width="0" data-sg-fill="sg-fill-0" />
  <path d="M96.948,58.522c-2.672-.221-5.017-1.602-7.283-2.937-.496-.292-.991-.584-1.488-.863-.469-.263-.969-.527-1.479-.621-.529-.096-1.087-.021-1.677.06-.594.082-1.208.166-1.841.075l.131-.91c.506.072,1.031,0,1.586-.075.636-.087,1.295-.176,1.966-.053.65.119,1.227.423,1.764.724.502.282,1.003.577,1.505.873,2.177,1.282,4.429,2.609,6.892,2.813l-.075.915h0Z" fill="#000" stroke-width="0" data-sg-fill="sg-fill-0" />
  <path d="M89.838,58.214l-.325-.241c-1.201-.888-2.628-1.775-4.148-1.646l-.079-.915c1.835-.161,3.513.891,4.773,1.823l-.01.014.261-.068c.068.261-.005.545-.192.74l-.28.293ZM89.454,57.287c-.034.035-.045.078-.032.126l.128-.034-.096-.092Z" fill="#000" stroke-width="0" data-sg-fill="sg-fill-0" />
  <path d="M81.817,47.505c-.003-.102-.136-.248-.356-.389-.833-.534-1.863-.717-2.827-.507l-.196-.897c1.199-.262,2.483-.033,3.518.631.503.322.765.703.78,1.133l-.919.03h0Z" fill="#000" stroke-width="0" data-sg-fill="sg-fill-0" />
  <path d="M83.996,43.861c-.742-1.196-2.333-1.827-3.691-1.473l-.233-.889c1.763-.46,3.744.328,4.704,1.878l-.78.484Z" fill="#000" stroke-width="0" data-sg-fill="sg-fill-0" />
  <path d="M83.987,39.117c-1.096-.984-2.764-1.309-4.148-.806l-.312-.864c1.694-.614,3.734-.217,5.074.987l-.614.684h0Z" fill="#000" stroke-width="0" data-sg-fill="sg-fill-0" />
  <path d="M82.437,33.984c-1.053-.633-2.414-.739-3.553-.27l-.35-.85c1.401-.576,3.077-.448,4.376.332l-.474.788h0Z" fill="#000" stroke-width="0" data-sg-fill="sg-fill-0" />
  <path d="M81.01,29.348c-1.13-.859-2.679-1.146-4.041-.747l-.258-.882c1.639-.48,3.498-.134,4.855.898,0,0-.556.731-.556.731Z" fill="#000" stroke-width="0" data-sg-fill="sg-fill-0" />
  <path d="M81.005,24.941c-.684-.92-1.95-1.408-3.073-1.183l-.179-.901c1.478-.295,3.086.322,3.99,1.535l-.737.549h0Z" fill="#000" stroke-width="0" data-sg-fill="sg-fill-0" />
  <path d="M83.658,21.195c-.148-.743-.618-1.431-1.256-1.84l.495-.773c.858.549,1.463,1.437,1.661,2.434l-.901.179h0Z" fill="#000" stroke-width="0" data-sg-fill="sg-fill-0" />
  <path d="M87.866,19.876l-.868-.3c.146-.424.094-.928-.136-1.313l.789-.471c.371.621.451,1.4.215,2.084Z" fill="#000" stroke-width="0" data-sg-fill="sg-fill-0" />
  <rect x="90.661" y="18.266" width=".919" height=".885" fill="#000" stroke-width="0" data-sg-fill="sg-fill-0" />
  <path d="M93.519,25.095l-.108-.912c.899-.105,1.527-1.048,2.045-1.923l.791.468c-.456.769-1.303,2.2-2.728,2.367Z" fill="#000" stroke-width="0" data-sg-fill="sg-fill-0" />
  <path d="M96.315,28.014l-.142-.908c.662-.104,1.26-.597,1.487-1.228l.865.311c-.344.952-1.21,1.668-2.21,1.824h0Z" fill="#000" stroke-width="0" data-sg-fill="sg-fill-0" />
  <path d="M98.398,31.061l-.172-.902c.506-.096.962-.442,1.19-.903l.824.407c-.353.714-1.059,1.25-1.841,1.399h0Z" fill="#000" stroke-width="0" data-sg-fill="sg-fill-0" />
  <path d="M100.659,34.091c-.092,0-.184-.008-.275-.025l.169-.903c.255.052.55-.076.693-.299l.772.499c-.292.452-.824.728-1.358.728h0Z" fill="#000" stroke-width="0" data-sg-fill="sg-fill-0" />
  <path d="M102.622,36.939c-.045,0-.09-.002-.135-.007l.093-.914c.2.023.427-.117.5-.308l.858.331c-.208.536-.747.898-1.316.898Z" fill="#000" stroke-width="0" data-sg-fill="sg-fill-0" />
  <path d="M71.399,60.172l-.727-.562c.746-.962,1.517-1.957,2.475-2.791,1.092-.952,2.289-1.54,3.463-1.7l.124.911c-.995.135-2.027.648-2.984,1.482-.89.776-1.633,1.734-2.351,2.661h0Z" fill="#000" stroke-width="0" data-sg-fill="sg-fill-0" />
  <path d="M69.465,65.572l-.838-.379c.515-1.14.945-2.329,1.276-3.535l.886.244c-.344,1.251-.79,2.485-1.324,3.669h0Z" fill="#000" stroke-width="0" data-sg-fill="sg-fill-0" />
  <rect x="75.255" y="92.808" width=".919" height="4.141" transform="translate(-35.066 45.258) rotate(-27.281)" fill="#000" stroke-width="0" data-sg-fill="sg-fill-0" />
  <rect x="77.954" y="100.27" width=".919" height="3.432" transform="translate(-46.047 69.44) rotate(-37.79)" fill="#000" stroke-width="0" data-sg-fill="sg-fill-0" />
  <rect x="72.487" y="98.854" width=".919" height="4.071" transform="translate(-42.202 53.554) rotate(-31.785)" fill="#000" stroke-width="0" data-sg-fill="sg-fill-0" />
  <rect x="70.65" y="107.961" width=".919" height="3.324" transform="translate(-42.411 44.917) rotate(-27.347)" fill="#000" stroke-width="0" data-sg-fill="sg-fill-0" />
  <rect x="64.09" y="58.959" width="4.811" height=".919" transform="translate(-4.335 113.596) rotate(-79.195)" fill="#000" stroke-width="0" data-sg-fill="sg-fill-0" />
  <rect x="61.647" y="67.395" width="8.229" height=".919" transform="translate(-12.698 120.513) rotate(-79.765)" fill="#000" stroke-width="0" data-sg-fill="sg-fill-0" />
  <rect x="62.081" y="99.797" width=".919" height="3.225" fill="#000" stroke-width="0" data-sg-fill="sg-fill-0" />
  <path d="M22.739,53.311l-.915-.09c.458-4.645,1.266-9.216,2.402-13.588l.89.231c-1.126,4.325-1.926,8.849-2.377,13.446h0Z" fill="#000" stroke-width="0" data-sg-fill="sg-fill-0" />
  <path d="M62.77,125c-22.827,0-41.398-28.037-41.398-62.5,0-.466.003-.933.01-1.396l.919.014c-.007.459-.01.92-.01,1.382,0,33.955,18.159,61.581,40.479,61.581s40.479-27.625,40.479-61.581c0-.741-.008-1.48-.025-2.215l.919-.022c.017.742.025,1.487.025,2.236,0,34.462-18.571,62.5-41.398,62.5h0Z" fill="#000" stroke-width="0" data-sg-fill="sg-fill-0" />
  <path d="M102.854,53.855c-.429-4.635-1.208-9.192-2.315-13.546l.89-.227c1.12,4.4,1.907,9.005,2.341,13.688l-.915.084h0Z" fill="#000" stroke-width="0" data-sg-fill="sg-fill-0" />
  <path d="M87.798,14.113C80.599,5.481,71.945.919,62.77.919c-9.077,0-17.659,4.475-24.817,12.942l-.702-.593C44.59,4.588,53.414,0,62.77,0c9.455,0,18.354,4.677,25.733,13.524l-.705.589Z" fill="#000" stroke-width="0" data-sg-fill="sg-fill-0" />
  <path d="M27.15,52.443l-.913-.102c.971-8.629,3.229-16.949,6.532-24.06l.833.387c-3.261,7.023-5.492,15.245-6.451,23.776h-.001Z" fill="#000" stroke-width="0" data-sg-fill="sg-fill-0" />
  <path d="M62.77,120.701c-20.208,0-36.85-25.786-37.096-57.481l.919-.007c.242,31.193,16.472,56.569,36.178,56.569,19.95,0,36.18-25.697,36.18-57.282h.919c0,32.092-16.642,58.201-37.099,58.201h-.001Z" fill="#000" stroke-width="0" data-sg-fill="sg-fill-0" />
  <path d="M98.474,53.21c-.913-8.818-3.173-17.305-6.535-24.543l.833-.387c3.405,7.33,5.692,15.918,6.615,24.835,0,0-.913.095-.913.095Z" fill="#000" stroke-width="0" data-sg-fill="sg-fill-0" />
  <path d="M82.531,14.553c-5.887-6.107-12.72-9.335-19.761-9.335-6.65,0-13.159,2.903-18.824,8.395l-.639-.659c5.839-5.662,12.569-8.654,19.463-8.654,7.295,0,14.357,3.325,20.423,9.616l-.662.638h0Z" fill="#000" stroke-width="0" data-sg-fill="sg-fill-0" />
  <rect x="62.03" y="110.324" width=".919" height="5.278" fill="#000" stroke-width="0" data-sg-fill="sg-fill-0" />
</g></svg>