<svg xmlns="http://www.w3.org/2000/svg" id="Layer_1" data-name="Layer 1" version="1.1" viewBox="0.0 0.0 100.0 100.0">
  <g transform="scale(0.8)"><path d="M54.595,62.573l-.913-.108c.116-.98-.352-2.016-1.162-2.577-.615-.428-1.378-.597-2.185-.777l-.521-.118c-.902-.215-2.176-.626-2.842-1.695l.78-.486c.371.596,1.094,1.005,2.275,1.287l.507.116c.859.19,1.748.388,2.51.919,1.081.749,1.704,2.132,1.551,3.44h0Z" fill="#000" stroke-width="0" data-sg-fill="sg-fill-0" />
  <path d="M52.717,62.979c-.67,0-1.361-.341-1.937-.965-.544-.591-.924-1.351-1.26-2.021l.822-.411c.324.646.658,1.313,1.115,1.809.444.482.974.736,1.422.656l.145.908c-.101.016-.204.024-.307.024Z" fill="#000" stroke-width="0" data-sg-fill="sg-fill-0" />
  <path d="M54.794,77.528c-.284-1.807.003-3.366.281-4.874.275-1.499.536-2.914.275-4.566-.238-1.511-.596-3.178-1.842-3.847l.434-.809c1.54.825,2.023,2.657,2.315,4.512.284,1.808-.003,3.368-.28,4.876-.276,1.498-.536,2.913-.276,4.564l-.908.144h.001Z" fill="#000" stroke-width="0" data-sg-fill="sg-fill-0" />
  <path d="M57.482,89.046c-.719,0-1.443-.051-2.158-.234-1.728-.44-3.236-1.657-4.034-3.254s-.865-3.533-.18-5.18l.849.352c-.584,1.405-.527,3.056.153,4.417.681,1.362,1.966,2.399,3.44,2.775,1.039.266,2.12.215,3.262.164.843-.039,1.716-.076,2.582.018l-.102.913c-.793-.089-1.629-.05-2.437-.013-.453.021-.912.042-1.374.042h0Z" fill="#000" stroke-width="0" data-sg-fill="sg-fill-0" />
  <path d="M51.795,79.38l-.915-.084c.072-.78-.399-1.566-.76-2.088-.331-.479-.699-.935-1.092-1.354l.669-.628c.424.451.821.943,1.179,1.459.442.641,1.017,1.617.919,2.696h0Z" fill="#000" stroke-width="0" data-sg-fill="sg-fill-0" />
  <path d="M47.981,74.312c-.407-.704-.905-1.339-1.432-2.013-.283-.361-.565-.722-.833-1.094-2.074-2.876-3.251-6.414-3.314-9.961-.005-.316-.003-.634,0-.954.01-1.128.02-2.193-.33-3.178l.867-.307c.403,1.138.393,2.335.382,3.493-.003.31-.005.621,0,.929.059,3.361,1.174,6.713,3.14,9.44.261.362.536.713.811,1.064.523.668,1.064,1.359,1.504,2.12l-.795.459s0,.002,0,.002Z" fill="#000" stroke-width="0" data-sg-fill="sg-fill-0" />
  <path d="M38.37,46.924c-.324-.688-1.026-1.123-1.77-1.584-.754-.466-1.533-.949-2.013-1.748-.632-1.05-.527-2.324-.395-3.19.194-1.276.54-2.219,1.088-2.966,1.098-1.495,3.178-2.307,5.727-2.235.882.026,1.537.136,2.124.357,1.101.414,1.934,1.22,2.74,2.001.685.664,1.333,1.291,2.121,1.677l-.405.825c-.917-.45-1.648-1.158-2.354-1.843-.772-.747-1.503-1.454-2.424-1.8-.488-.183-1.052-.275-1.828-.298-1.068-.036-3.659.09-4.959,1.86-.458.623-.75,1.437-.921,2.561-.177,1.154-.09,1.973.275,2.577.365.608,1.018,1.013,1.709,1.441.825.51,1.678,1.04,2.117,1.974l-.831.391s0,0-.001,0Z" fill="#000" stroke-width="0" data-sg-fill="sg-fill-0" />
  <path d="M40.047,42.584c-.115,0-.233-.007-.353-.022-.516-.063-.944-.235-1.273-.511-.773-.65-.91-1.902-.305-2.793.511-.753,1.487-1.198,2.509-1.133.812.053,1.652.411,2.431,1.036.611.488,1.12,1.077,1.611,1.645l.118.137c.114.132.175.156.176.156-.015-.004-.059-.011-.103.011l.389.833c-.217.1-.654.183-1.157-.398l-.118-.137c-.486-.562-.945-1.094-1.49-1.53-.44-.353-1.13-.785-1.916-.836-.687-.051-1.356.242-1.689.732-.336.495-.274,1.231.135,1.574.188.157.463.262.794.303.45.052.849-.044,1.059-.266l.667.63c-.348.37-.876.57-1.484.57h0Z" fill="#000" stroke-width="0" data-sg-fill="sg-fill-0" />
  <path d="M39.117,53.692l-.915-.079c.327-3.753,2.506-7.339,5.688-9.358.405-.257.851-.496,1.368-.505l.016.919c-.275.004-.555.148-.893.362-2.944,1.87-4.962,5.188-5.264,8.662h0Z" fill="#000" stroke-width="0" data-sg-fill="sg-fill-0" />
  <path d="M47.754,34.924l-.519-.757c2.862-1.96,5.45-3.565,8.529-3.518,1.187.022,2.334.317,3.445.601l.663.168-.219.892-.672-.17c-1.108-.283-2.155-.552-3.235-.572-.048,0-.096-.002-.144-.002-2.719,0-5.166,1.522-7.848,3.359h0Z" fill="#000" stroke-width="0" data-sg-fill="sg-fill-0" />
  <path d="M49.884,37.934l-.58-.714c1.193-.968,2.469-1.853,3.792-2.629.869-.511,1.814-.965,2.827-.818l-.131.91c-.739-.109-1.505.275-2.231.701-1.283.753-2.521,1.611-3.677,2.55Z" fill="#000" stroke-width="0" data-sg-fill="sg-fill-0" />
  <path d="M27.422,61.811l-.1-.913c1.307-.144,2.28-1.298,2.754-2.33.435-.948.631-1.977.838-3.065.06-.314.119-.627.185-.938.568-2.691,1.897-6.308,5.01-8.254l.486.779c-2.838,1.775-4.067,5.148-4.598,7.666-.065.305-.123.612-.181.92-.208,1.095-.423,2.228-.906,3.278-.579,1.26-1.8,2.672-3.488,2.859v-.002Z" fill="#000" stroke-width="0" data-sg-fill="sg-fill-0" />
  <path d="M29.445,66.82l-.24-.886c1.628-.44,3.011-2,3.699-4.172.381-1.204.556-2.498.725-3.751.104-.778.213-1.582.37-2.368.53-2.659,1.603-4.549,3.19-5.619l.513.761c-1.378.93-2.322,2.626-2.803,5.038-.152.759-.257,1.548-.361,2.311-.173,1.292-.353,2.627-.759,3.907-.782,2.471-2.402,4.258-4.334,4.78h0Z" fill="#000" stroke-width="0" data-sg-fill="sg-fill-0" />
  <rect x="37.967" y="56.524" width=".919" height="3.653" fill="#000" stroke-width="0" data-sg-fill="sg-fill-0" />
  <path d="M36.139,72.256l-.773-.497c1.751-2.723,2.593-6,2.37-9.228l.917-.063c.236,3.423-.657,6.9-2.514,9.787h0Z" fill="#000" stroke-width="0" data-sg-fill="sg-fill-0" />
  <path d="M29.05,79.221l-.054-1.086.286-.016-.044-.074c1.837-1.082,3.473-2.448,4.861-4.061l.696.599c-1.454,1.69-3.167,3.121-5.09,4.253l-.655.386h0Z" fill="#000" stroke-width="0" data-sg-fill="sg-fill-0" />
  <path d="M29.798,72.58c-.136,0-.27-.044-.37-.133l-.31-.276.245-.38.743.54-.371-.27.306-.298c-.109-.098-.293-.16-.448-.016l2.829-2.621c.308-.285.357-.462.34-.493l.809-.434c.149.278.279.856-.525,1.601l-2.831,2.624c-.115.104-.267.157-.417.157h0Z" fill="#000" stroke-width="0" data-sg-fill="sg-fill-0" />
  <path d="M47.394,82.25c-1.228-.798-2.162-2.116-2.63-3.713-.382-1.304-.464-2.767-.251-4.471l.911.113c-.196,1.578-.125,2.919.221,4.1.407,1.386,1.206,2.524,2.25,3.202l-.501.77h0Z" fill="#000" stroke-width="0" data-sg-fill="sg-fill-0" />
  <path d="M40.42,77.575c-.139-.514-.162-1.032-.184-1.532-.106-2.372-.225-5.057.86-7.431l.836.382c-.994,2.172-.88,4.74-.78,7.005.022.474.041.92.153,1.337l-.886.239h0Z" fill="#000" stroke-width="0" data-sg-fill="sg-fill-0" />
  <path d="M48.964,87.392c-1.77-.621-3.776-1.324-5.334-2.664-.823-.708-1.549-1.6-2.355-2.89-.469-.753-.919-1.647-.71-2.581l.897.201c-.137.609.204,1.27.592,1.894.754,1.209,1.425,2.036,2.175,2.681,1.426,1.227,3.263,1.871,5.038,2.494l-.303.867s0-.002,0-.002Z" fill="#000" stroke-width="0" data-sg-fill="sg-fill-0" />
  <path d="M39.374,94.981l-.725-.563c1.54-1.982,1.959-4.778,1.066-7.125-.336-.882-.829-1.683-1.353-2.531-.47-.762-.956-1.549-1.316-2.402-1.166-2.764-.869-6.04.775-8.55l.768.504c-1.456,2.222-1.73,5.241-.696,7.689.332.787.779,1.511,1.251,2.276.522.847,1.063,1.723,1.43,2.687,1.004,2.639.533,5.785-1.2,8.015Z" fill="#000" stroke-width="0" data-sg-fill="sg-fill-0" />
  <path d="M35.438,89.322l-.78-.483c.561-.908.523-2.207-.113-3.861-.103-.268-.214-.536-.324-.805-.469-1.138-.955-2.314-.921-3.596.022-.857.283-1.688.515-2.422l.876.276c-.222.709-.454,1.442-.472,2.169-.029,1.088.399,2.124.851,3.222.114.275.227.551.333.825.744,1.938.756,3.509.036,4.674h0Z" fill="#000" stroke-width="0" data-sg-fill="sg-fill-0" />
  <path d="M59.448,101.313l-.915-.088c.219-2.291-1.771-4.183-2.976-5.107-.502-.385-1.028-.745-1.554-1.106-1.315-.902-2.674-1.835-3.667-3.149-.619-.82-.861-1.593-.72-2.299l.901.181c-.087.436.099.963.553,1.564.903,1.196,2.142,2.046,3.454,2.946.539.37,1.078.74,1.593,1.135,1.356,1.04,3.592,3.191,3.332,5.924h0Z" fill="#000" stroke-width="0" data-sg-fill="sg-fill-0" />
  <path d="M58.529,109.004l-.919-.025c.074-2.747-1.417-5.118-2.681-6.623-1.289-1.535-2.876-2.855-4.412-4.13-.388-.322-.774-.644-1.157-.97-1.159-.983-2.463-2.158-3.271-3.657-.828-1.539-1.095-3.399-.735-5.106l.899.19c-.317,1.497-.082,3.131.645,4.48.732,1.359,1.911,2.421,3.056,3.394.381.323.766.643,1.151.963,1.566,1.303,3.187,2.648,4.528,4.247,1.366,1.626,2.977,4.203,2.896,7.239v-.002Z" fill="#000" stroke-width="0" data-sg-fill="sg-fill-0" />
  <path d="M56.295,115.806l-.919-.004c.009-2.31-.118-4.73-1.094-6.786-1.104-2.324-3.219-4.056-5.263-5.731-2.26-1.851-4.597-3.765-5.694-6.526-.605-1.521-.775-3.245-.482-4.854l.904.165c-.264,1.442-.11,2.986.432,4.35,1.009,2.54,3.152,4.295,5.421,6.154,2.123,1.739,4.319,3.537,5.511,6.046,1.055,2.221,1.192,4.765,1.183,7.184v.002h0Z" fill="#000" stroke-width="0" data-sg-fill="sg-fill-0" />
  <path d="M57.439,60.726l-.917-.065c.116-1.624-1.273-2.965-2.612-3.523-.38-.159-.774-.279-1.192-.406-.507-.154-1.031-.314-1.533-.549-1.247-.584-2.26-1.591-2.851-2.834l.829-.395c.493,1.036,1.372,1.91,2.411,2.396.443.208.913.352,1.412.503.42.128.855.26,1.277.436,1.634.682,3.324,2.36,3.176,4.436h0Z" fill="#000" stroke-width="0" data-sg-fill="sg-fill-0" />
  <path d="M57.997,57.172c-.309-.667-.865-1.235-1.526-1.558-.256-.125-.53-.22-.803-.315-.626-.22-1.274-.446-1.761-.981-.333-.364-.521-.805-.688-1.193l.845-.362c.144.338.294.687.521.937.331.363.843.542,1.386.732.308.108.615.216.903.357.86.421,1.555,1.13,1.957,1.998l-.834.386h0Z" fill="#000" stroke-width="0" data-sg-fill="sg-fill-0" />
  <path d="M83.785,55.66l-.919-.032c.1-2.798-1.695-5.731-4.8-7.845-1.673-1.138-3.568-2-5.401-2.832-1.166-.53-2.373-1.078-3.524-1.697-2.7-1.451-4.687-3.131-5.907-4.996-.154-.236-.401-.371-.677-.371h0c-.277,0-.525.136-.679.373-1.216,1.869-3.198,3.549-5.889,4.994-1.151.619-2.357,1.166-3.522,1.696-1.833.833-3.728,1.695-5.402,2.833-3.106,2.114-4.901,5.047-4.801,7.845l-.919.032c-.11-3.115,1.835-6.343,5.203-8.636,1.739-1.183,3.671-2.062,5.539-2.91,1.152-.524,2.343-1.065,3.468-1.67,2.553-1.372,4.421-2.949,5.553-4.686.323-.495.864-.79,1.449-.79h0c.583,0,1.124.294,1.447.788,1.133,1.735,3.008,3.312,5.571,4.689,1.125.605,2.317,1.147,3.469,1.67,1.868.849,3.799,1.726,5.538,2.909,3.369,2.293,5.313,5.522,5.202,8.636h0Z" fill="#000" stroke-width="0" data-sg-fill="sg-fill-0" />
  <path d="M70.534,62.572c-.152-1.307.472-2.69,1.552-3.44.763-.53,1.652-.728,2.511-.919l.506-.115c1.182-.283,1.905-.692,2.274-1.286l.78.484c-.664,1.069-1.94,1.479-2.841,1.696l-.52.118c-.807.179-1.571.349-2.186.776-.81.562-1.277,1.599-1.163,2.579l-.913.106h0Z" fill="#000" stroke-width="0" data-sg-fill="sg-fill-0" />
  <path d="M72.412,62.979c-.102,0-.205-.008-.306-.024l.145-.908c.445.079.977-.174,1.421-.656.456-.494.791-1.163,1.115-1.809l.822.411c-.353.704-.718,1.432-1.26,2.021-.576.624-1.267.965-1.937.965Z" fill="#000" stroke-width="0" data-sg-fill="sg-fill-0" />
  <path d="M70.335,77.528l-.908-.144c.261-1.652,0-3.067-.275-4.566-.278-1.508-.565-3.067-.281-4.874.293-1.856.777-3.688,2.315-4.512l.434.809c-1.244.667-1.603,2.335-1.842,3.847-.26,1.652,0,3.066.276,4.564.277,1.508.564,3.068.28,4.876h0Z" fill="#000" stroke-width="0" data-sg-fill="sg-fill-0" />
  <path d="M63.95,86.431l-.901-.183c.237-1.163.499-2.288,1.096-3.268.723-1.189,1.849-1.93,3.012-1.983.352-.022.699.031,1.028.076.241.034.483.069.727.072h.004c.212,0,.679-.18.98-.51.207-.228.116-.484.083-.558-.072-.16-.24-.328-.5-.328h-.007l-6.883.069-6.931-.069c-.287-.038-.435.167-.508.328-.032.074-.124.33.084.558.3.33.766.51.978.51h.004c.243-.003.485-.038.727-.072.33-.046.676-.094,1.028-.076,1.163.053,2.289.794,3.012,1.983.598.982.86,2.106,1.097,3.268l-.901.183c-.228-1.12-.458-2.116-.981-2.974-.436-.716-1.26-1.496-2.27-1.543-.276-.007-.558.028-.859.069-.281.039-.562.078-.844.081-.502.02-1.181-.271-1.672-.809-.388-.427-.481-1.022-.242-1.554.245-.544.778-.875,1.356-.87l6.921.069,6.873-.069h.018c.583,0,1.094.332,1.337.87.239.532.145,1.127-.242,1.554-.487.533-1.2.809-1.661.809h-.012c-.283-.003-.563-.041-.844-.081-.3-.041-.58-.073-.859-.069-1.01.047-1.835.827-2.271,1.543-.52.855-.752,1.853-.98,2.974h.003Z" fill="#000" stroke-width="0" data-sg-fill="sg-fill-0" />
  <path d="M67.648,89.046c-.462,0-.921-.022-1.374-.042-.807-.037-1.643-.075-2.437.013l-.102-.913c.866-.095,1.738-.057,2.582-.018,1.141.051,2.221.101,3.262-.164,1.475-.376,2.76-1.414,3.44-2.775.68-1.36.737-3.012.154-4.417l.849-.352c.684,1.648.616,3.585-.181,5.18-.798,1.596-2.306,2.812-4.034,3.254-.714.183-1.438.234-2.158.234h-.001Z" fill="#000" stroke-width="0" data-sg-fill="sg-fill-0" />
  <path d="M73.334,79.379c-.098-1.079.477-2.054.92-2.694.354-.513.751-1.005,1.179-1.46l.669.628c-.397.423-.763.878-1.093,1.354-.572.829-.814,1.493-.76,2.089,0,0-.915.083-.915.083Z" fill="#000" stroke-width="0" data-sg-fill="sg-fill-0" />
  <path d="M77.148,74.313l-.795-.461c.44-.76.981-1.451,1.504-2.118.275-.352.55-.703.811-1.065,1.966-2.727,3.081-6.08,3.14-9.44.005-.308.003-.618,0-.929-.011-1.158-.021-2.356.382-3.493l.867.307c-.35.985-.34,2.05-.33,3.178.003.319.005.638,0,.954-.063,3.546-1.24,7.084-3.314,9.961-.267.371-.55.733-.833,1.094-.527.673-1.024,1.308-1.432,2.013h0Z" fill="#000" stroke-width="0" data-sg-fill="sg-fill-0" />
  <path d="M86.76,46.924l-.831-.391c.439-.935,1.292-1.463,2.117-1.975.692-.428,1.344-.832,1.71-1.44.363-.605.45-1.424.275-2.577-.172-1.125-.466-1.939-.922-2.561-1.301-1.772-3.919-1.896-4.958-1.86-.776.022-1.34.115-1.828.298-.922.346-1.652,1.053-2.424,1.801-.707.684-1.438,1.391-2.355,1.842l-.405-.825c.788-.386,1.435-1.013,2.122-1.677.806-.78,1.639-1.587,2.74-2.001.753-.283,1.53-.339,2.124-.357,2.546-.069,4.629.741,5.726,2.235.547.746.894,1.689,1.089,2.967.133.867.235,2.14-.395,3.189-.481.798-1.26,1.281-2.013,1.748-.745.461-1.447.896-1.771,1.584h0Z" fill="#000" stroke-width="0" data-sg-fill="sg-fill-0" />
  <path d="M85.082,42.584c-.608,0-1.136-.2-1.484-.57l.669-.63c.208.222.603.318,1.057.266.332-.041.606-.145.794-.303.408-.344.472-1.078.135-1.573-.333-.491-1.004-.784-1.689-.733-.787.051-1.477.483-1.917.835-.543.435-1,.964-1.484,1.524l-.125.144c-.505.582-.94.499-1.157.398l.389-.833c-.045-.022-.089-.015-.103-.011,0,0,.062-.024.177-.157l.124-.143c.49-.566.996-1.152,1.605-1.64.779-.624,1.62-.982,2.432-1.035,1.006-.065,1.997.379,2.509,1.133.604.89.467,2.143-.306,2.793-.328.276-.756.448-1.273.511-.12.014-.239.022-.353.022v.002h0Z" fill="#000" stroke-width="0" data-sg-fill="sg-fill-0" />
  <path d="M60.845,94.475c-1.347,0-2.738-.183-3.688-.854-.801-.565-1.33-1.392-1.845-2.261-.218-.368-.49-.824-.522-1.369l.917-.056c.018.299.182.597.395.956.481.809.931,1.517,1.585,1.979,1.133.8,3.305.732,4.843.611,1.609.121,3.781.189,4.915-.611.652-.461,1.103-1.169,1.584-1.979.205-.345.377-.655.395-.956l.917.056c-.032.548-.316,1.023-.522,1.37-.516.868-1.044,1.696-1.844,2.26-1.36.961-3.623.921-5.445.776-.527.044-1.102.078-1.684.078h0Z" fill="#000" stroke-width="0" data-sg-fill="sg-fill-0" />
  <path d="M77.852,44.253c-3.075-1.123-5.481-2.474-7.355-4.128-.884-.78-1.681-1.658-2.454-2.507-.602-.662-1.225-1.347-1.875-1.97-.243-.233-.508-.46-.789-.676-1.66-1.276-3.908-1.282-5.598-.017-.294.222-.571.455-.82.693-.65.623-1.271,1.306-1.872,1.967-.772.85-1.571,1.729-2.455,2.509-1.875,1.654-4.281,3.005-7.355,4.128l-.316-.863c2.966-1.084,5.276-2.376,7.063-3.954.847-.747,1.628-1.607,2.384-2.438.612-.673,1.244-1.368,1.917-2.013.276-.264.58-.521.904-.763,2.021-1.52,4.718-1.508,6.709.022.307.236.597.485.865.741.674.645,1.307,1.342,1.92,2.016.755.831,1.536,1.689,2.382,2.436,1.787,1.578,4.097,2.872,7.063,3.954l-.316.863h-.002,0Z" fill="#000" stroke-width="0" data-sg-fill="sg-fill-0" />
  <path d="M86.013,53.693c-.303-3.474-2.321-6.794-5.265-8.662-.337-.214-.618-.357-.893-.362l.016-.919c.517.009.963.248,1.368.505,3.181,2.018,5.361,5.604,5.689,9.357,0,0-.915.081-.915.081Z" fill="#000" stroke-width="0" data-sg-fill="sg-fill-0" />
  <path d="M83.354,32.758c-.897,0-1.795-.163-2.59-.442-1.355-.476-2.583-1.226-3.77-1.952-.8-.489-1.627-.995-2.472-1.401-2.01-.966-4.25-1.439-6.479-1.354-1.303.047-2.358.28-3.223.713-.478.24-.865.563-1.182.99-.508.683-1.637.684-2.145,0-.318-.427-.706-.751-1.183-.99-.865-.433-1.919-.667-3.222-.713-2.226-.087-4.469.388-6.479,1.354-.846.407-1.674.912-2.474,1.402-1.187.725-2.414,1.476-3.768,1.951-2.283.802-5.421.648-6.921-1.587l.763-.511c1.173,1.748,3.832,1.941,5.854,1.232,1.263-.444,2.395-1.136,3.594-1.869.82-.501,1.668-1.019,2.555-1.445,2.143-1.031,4.535-1.53,6.91-1.445,1.438.052,2.616.317,3.601.81.601.301,1.109.726,1.51,1.264.157.213.515.21.67,0,.4-.538.907-.963,1.509-1.265.986-.493,2.164-.758,3.602-.81,2.381-.087,4.767.414,6.91,1.445.886.426,1.734.944,2.553,1.444,1.199.733,2.332,1.426,3.596,1.87,2.02.709,4.68.515,5.854-1.232l.763.511c-.977,1.457-2.652,2.029-4.331,2.029h-.005Z" fill="#000" stroke-width="0" data-sg-fill="sg-fill-0" />
  <path d="M77.375,34.924c-2.731-1.87-5.214-3.43-7.991-3.357-1.081.021-2.128.289-3.237.572l-.671.17-.219-.892.662-.168c1.111-.284,2.26-.579,3.447-.601,3.019-.053,5.665,1.557,8.528,3.518l-.519.757h0Z" fill="#000" stroke-width="0" data-sg-fill="sg-fill-0" />
  <path d="M75.245,37.934c-1.156-.939-2.394-1.798-3.677-2.55-.727-.428-1.496-.808-2.23-.702l-.131-.91c1.005-.147,1.955.307,2.826.819,1.323.775,2.599,1.66,3.792,2.628l-.58.714h0Z" fill="#000" stroke-width="0" data-sg-fill="sg-fill-0" />
  <path d="M97.708,61.811c-1.69-.187-2.91-1.6-3.488-2.859-.483-1.049-.697-2.178-.905-3.271-.059-.31-.118-.62-.183-.927-.53-2.517-1.758-5.889-4.598-7.666l.486-.779c3.114,1.948,4.443,5.564,5.01,8.254.066.314.126.629.187.946.206,1.085.402,2.112.837,3.058.474,1.032,1.445,2.185,2.754,2.33l-.1.913h0Z" fill="#000" stroke-width="0" data-sg-fill="sg-fill-0" />
  <path d="M95.684,66.82c-1.931-.522-3.551-2.309-4.333-4.78-.405-1.279-.585-2.613-.759-3.903-.103-.764-.21-1.554-.362-2.315-.481-2.412-1.424-4.108-2.802-5.038l.513-.761c1.586,1.07,2.659,2.96,3.189,5.619.158.789.266,1.593.371,2.372.169,1.251.343,2.545.724,3.747.688,2.172,2.07,3.731,3.698,4.172l-.24.886h0Z" fill="#000" stroke-width="0" data-sg-fill="sg-fill-0" />
  <rect x="86.245" y="56.524" width=".919" height="3.653" fill="#000" stroke-width="0" data-sg-fill="sg-fill-0" />
  <path d="M88.99,72.256c-1.856-2.888-2.749-6.364-2.514-9.787l.917.063c-.222,3.228.62,6.505,2.37,9.228l-.773.497h0Z" fill="#000" stroke-width="0" data-sg-fill="sg-fill-0" />
  <path d="M96.08,79.221l-.655-.386c-1.922-1.132-3.635-2.563-5.09-4.253l.696-.599c1.389,1.613,3.024,2.979,4.861,4.061l-.043.073.285.014s-.054,1.09-.054,1.09Z" fill="#000" stroke-width="0" data-sg-fill="sg-fill-0" />
  <path d="M95.331,72.581c-.151,0-.303-.054-.416-.159l-2.832-2.622c-.805-.747-.674-1.325-.524-1.603l.809.436c-.017.031.031.207.339.493l2.832,2.622c-.159-.146-.341-.084-.448.012l.279.318.398-.284-.071.657c-.1.088-.232.131-.367.131h0Z" fill="#000" stroke-width="0" data-sg-fill="sg-fill-0" />
  <path d="M77.736,82.25l-.501-.77c1.045-.679,1.844-1.816,2.25-3.202.345-1.181.417-2.522.221-4.1l.911-.113c.213,1.705.131,3.167-.251,4.471-.466,1.596-1.401,2.915-2.63,3.713h0Z" fill="#000" stroke-width="0" data-sg-fill="sg-fill-0" />
  <path d="M84.71,77.575l-.886-.239c.113-.422.134-.886.154-1.337.1-2.265.214-4.834-.78-7.005l.836-.382c1.086,2.374.967,5.059.861,7.429-.022.5-.045,1.016-.185,1.534Z" fill="#000" stroke-width="0" data-sg-fill="sg-fill-0" />
  <path d="M76.167,87.392l-.305-.867c1.776-.623,3.614-1.269,5.038-2.494.749-.643,1.42-1.47,2.175-2.681.388-.624.729-1.286.592-1.894l.897-.201c.209.933-.241,1.828-.71,2.581-.807,1.293-1.534,2.184-2.356,2.89-1.556,1.339-3.562,2.044-5.332,2.664v.002h0Z" fill="#000" stroke-width="0" data-sg-fill="sg-fill-0" />
  <path d="M85.755,94.981c-1.733-2.229-2.204-5.375-1.2-8.015.367-.963.908-1.84,1.43-2.687.473-.765.92-1.489,1.251-2.276,1.033-2.448.76-5.467-.696-7.689l.768-.504c1.644,2.51,1.941,5.786.775,8.55-.36.852-.846,1.64-1.316,2.402-.524.848-1.017,1.649-1.353,2.531-.894,2.347-.475,5.143,1.066,7.125,0,0-.725.563-.725.563Z" fill="#000" stroke-width="0" data-sg-fill="sg-fill-0" />
  <path d="M89.691,89.322c-.72-1.164-.708-2.736.037-4.674.106-.275.22-.552.334-.829.451-1.096.878-2.132.85-3.218-.019-.728-.249-1.46-.473-2.169l.876-.276c.231.734.493,1.565.516,2.422.032,1.28-.451,2.455-.92,3.591-.111.27-.222.539-.326.808-.636,1.656-.674,2.955-.114,3.862,0,0-.78.483-.78.483Z" fill="#000" stroke-width="0" data-sg-fill="sg-fill-0" />
  <path d="M65.681,101.313c-.26-2.732,1.976-4.884,3.333-5.924.515-.395,1.053-.764,1.592-1.134,1.312-.901,2.55-1.751,3.453-2.947.456-.602.641-1.128.554-1.564l.901-.181c.142.704-.1,1.478-.721,2.299-.992,1.314-2.352,2.247-3.666,3.15-.525.361-1.051.721-1.553,1.105-1.205.925-3.195,2.817-2.977,5.107l-.915.088h-.001Z" fill="#000" stroke-width="0" data-sg-fill="sg-fill-0" />
  <path d="M66.6,109.004c-.081-3.035,1.53-5.611,2.897-7.239,1.339-1.596,2.957-2.942,4.521-4.242.387-.322.773-.643,1.155-.968,1.147-.972,2.326-2.036,3.057-3.394.726-1.348.961-2.981.645-4.48l.899-.19c.361,1.708.092,3.57-.735,5.106-.807,1.498-2.112,2.673-3.272,3.657-.385.327-.773.65-1.163.974-1.534,1.275-3.119,2.593-4.406,4.126-1.264,1.506-2.755,3.877-2.681,6.623l-.919.025.002.002Z" fill="#000" stroke-width="0" data-sg-fill="sg-fill-0" />
  <path d="M68.834,115.806c-.009-2.418.128-4.961,1.184-7.184,1.191-2.509,3.387-4.308,5.51-6.047,2.269-1.858,4.412-3.614,5.421-6.153.542-1.364.695-2.908.432-4.35l.904-.165c.293,1.609.123,3.333-.482,4.854-1.097,2.76-3.434,4.674-5.693,6.525-2.045,1.676-4.159,3.407-5.263,5.732-.977,2.057-1.103,4.477-1.094,6.786l-.919.004s0-.002,0-.002Z" fill="#000" stroke-width="0" data-sg-fill="sg-fill-0" />
  <path d="M67.69,60.726c-.147-2.076,1.544-3.754,3.177-4.436.423-.176.857-.308,1.277-.436.498-.152.968-.295,1.411-.503,1.04-.486,1.918-1.36,2.411-2.396l.829.395c-.591,1.243-1.604,2.25-2.851,2.834-.502.235-1.026.395-1.533.549-.417.127-.811.248-1.191.406-1.339.558-2.728,1.899-2.613,3.523l-.917.065h0Z" fill="#000" stroke-width="0" data-sg-fill="sg-fill-0" />
  <path d="M67.134,57.172l-.834-.386c.401-.868,1.095-1.577,1.956-1.998.288-.141.596-.249.903-.357.543-.189,1.055-.369,1.387-.732.226-.248.376-.597.52-.937l.845.362c-.167.389-.356.831-.687,1.193-.488.535-1.136.761-1.762.981-.273.095-.547.19-.803.315-.662.323-1.217.891-1.525,1.558h0Z" fill="#000" stroke-width="0" data-sg-fill="sg-fill-0" />
  <path d="M62.66,23.124c-.302,0-.559-.195-.627-.479-.266-1.111-.729-2.175-1.38-3.164-.712-1.084-1.635-2.057-2.743-2.893-.155-.118-.244-.291-.244-.476,0-.187.087-.361.24-.479,1.047-.8,1.941-1.724,2.66-2.746.632-.898,1.12-1.863,1.452-2.871.09-.273.362-.449.659-.43.3.021.536.224.589.508h0c.121.654.925,1.999,1.621,2.933.576.773,1.665,1.946,2.547,2.595.17.124.271.318.266.518-.004.194-.103.371-.272.483-1.153.775-2.101,1.711-2.818,2.783-.666.994-1.109,2.074-1.316,3.209-.055.292-.309.502-.617.51h-.018.001ZM58.788,16.107c1.049.841,1.933,1.806,2.633,2.87.513.78.92,1.604,1.216,2.46.269-.89.675-1.742,1.21-2.543.709-1.059,1.621-1.994,2.716-2.786-.885-.725-1.851-1.779-2.411-2.532-.441-.593-1.143-1.645-1.531-2.538-.337.829-.773,1.626-1.302,2.377-.698.991-1.548,1.896-2.53,2.692h0ZM66.89,16.361v.002-.002ZM66.917,15.858h0ZM62.364,10.262h0Z" fill="#000" stroke-width="0" data-sg-fill="sg-fill-0" />
  <rect x="62.105" y="97.353" width=".919" height="24.439" fill="#000" stroke-width="0" data-sg-fill="sg-fill-0" />
  <rect x="55.312" y="115.071" width="7.888" height=".919" transform="translate(-59.752 167.451) rotate(-86.417)" fill="#000" stroke-width="0" data-sg-fill="sg-fill-0" />
  <rect x="65.661" y="111.589" width=".919" height="7.888" transform="translate(-7.11 4.371) rotate(-3.593)" fill="#000" stroke-width="0" data-sg-fill="sg-fill-0" />
  <rect x="11.091" y="60.895" width="14.138" height=".919" fill="#000" stroke-width="0" data-sg-fill="sg-fill-0" />
  <rect x="20.81" y="51.284" width=".918" height="12.347" transform="translate(-38.743 69.799) rotate(-81.308)" fill="#000" stroke-width="0" data-sg-fill="sg-fill-0" />
  <rect x="14.992" y="65.137" width="12.431" height=".919" transform="translate(-8.033 3.165) rotate(-7.181)" fill="#000" stroke-width="0" data-sg-fill="sg-fill-0" />
  <rect x="24.143" y="48.624" width=".919" height="9.856" transform="translate(-33.748 61.818) rotate(-73.388)" fill="#000" stroke-width="0" data-sg-fill="sg-fill-0" />
  <rect x="19.045" y="69.63" width="8.527" height=".919" transform="translate(-20.124 10.345) rotate(-17.621)" fill="#000" stroke-width="0" data-sg-fill="sg-fill-0" />
  <rect x="99.77" y="60.895" width="14.138" height=".919" fill="#000" stroke-width="0" data-sg-fill="sg-fill-0" />
  <rect x="97.558" y="56.997" width="12.347" height=".918" transform="translate(-7.463 16.26) rotate(-8.653)" fill="#000" stroke-width="0" data-sg-fill="sg-fill-0" />
  <rect x="103.334" y="59.38" width=".919" height="12.431" transform="translate(25.677 160.325) rotate(-82.782)" fill="#000" stroke-width="0" data-sg-fill="sg-fill-0" />
  <rect x="95.469" y="53.093" width="9.856" height=".919" transform="translate(-11.099 30.836) rotate(-16.56)" fill="#000" stroke-width="0" data-sg-fill="sg-fill-0" />
  <rect x="101.233" y="65.827" width=".919" height="8.527" transform="translate(4.182 145.891) rotate(-72.436)" fill="#000" stroke-width="0" data-sg-fill="sg-fill-0" />
  <path d="M62.512,125c-20.048,0-37.18-21.577-40.736-51.305l.911-.109c3.501,29.259,20.249,50.495,39.824,50.495s36.391-21.31,39.846-50.67l.911.108c-3.509,29.831-20.65,51.481-40.757,51.481h0Z" fill="#000" stroke-width="0" data-sg-fill="sg-fill-0" />
  <path d="M102.164,50.058C98.319,21.584,81.642.919,62.512.919,43.478.919,26.819,21.461,22.9,49.762l-.91-.126C25.972,20.875,43.014,0,62.512,0c19.596,0,36.655,21,40.562,49.935l-.91.124h0Z" fill="#000" stroke-width="0" data-sg-fill="sg-fill-0" />
  <path d="M56.614,119.968c-15.632-3.925-27.952-23.007-30.656-47.485l.913-.1c2.662,24.098,14.704,42.863,29.967,46.693l-.224.892Z" fill="#000" stroke-width="0" data-sg-fill="sg-fill-0" />
  <path d="M69.151,119.77l-.251-.885c15.011-4.261,26.786-23.119,29.299-46.926l.913.097c-2.551,24.175-14.592,43.35-29.961,47.713h0Z" fill="#000" stroke-width="0" data-sg-fill="sg-fill-0" />
  <path d="M97.987,51.218c-3.382-26.655-18.302-46.001-35.475-46.001S30.463,24.513,27.053,51.096l-.911-.117C29.612,23.931,44.908,4.299,62.512,4.299s32.945,19.684,36.387,46.805l-.911.115h0Z" fill="#000" stroke-width="0" data-sg-fill="sg-fill-0" />
</g></svg>