<svg xmlns="http://www.w3.org/2000/svg" id="Layer_1" data-name="Layer 1" version="1.1" viewBox="0.0 0.0 100.0 100.0">
  <g transform="scale(0.8)"><path d="M22.337,42.428c-1.173-1.732-2.504-3.696-3.317-5.887-.899-2.424-.999-4.852-.283-6.837,1.018-2.823,3.619-4.729,5.486-5.916,6.346-4.037,13.982-6.16,21.498-5.961,1.686.043,3.64.205,5.367,1.082,1.391.706,2.467,1.86,2.951,3.165.153.414.082.873-.193,1.227-.287.371-.742.567-1.199.513-1.842-.192-3.673-.761-5.296-1.643-.185-.102-.403-.044-.54.141-.941,1.265-2.722,1.81-4.136,1.271-.116-.044-.231-.095-.348-.146-.331-.145-.647-.281-.888-.214-.216.061-.407.291-.61.536l-.17.202c-1.146,1.3-3.18,1.742-4.84,1.049-.213-.089-.432-.027-.545.154-.753,1.193-2.265,1.621-2.881,1.749-.396.083-.8.14-1.205.197-.911.129-1.772.25-2.506.665-.95.537-1.591,1.563-1.634,2.613-.015.363.114.729.345.978.127.137.346.303.665.314.52-.005.804-.334,1.264-.902.271-.335.552-.682.923-.941.871-.606,2.17-.488,3.022.275.074.068.172.097.279.093.113-.008.22-.061.292-.147.698-.819,1.354-1.357,2.065-1.694.967-.457,2.11-.477,2.984-.055.201.098.421.057.535-.096.468-.624,1.19-1.007,1.93-1.024.707-.022,1.442.316,1.938.89.151.175.412.194.592.045,1.778-1.46,4.124-2.25,6.4-2.217.756.017,1.371.636,1.371,1.381,0,.762-.354,1.56-.946,2.136-.793.773-1.845,1.137-2.774,1.457l-8.544,2.949c-2.04.704-4.149,1.431-5.862,2.759-1.828,1.416-2.885,3.441-2.759,5.286l-.917.063c-.149-2.179,1.015-4.45,3.112-6.075,1.834-1.42,4.015-2.173,6.125-2.901l8.544-2.949c.838-.289,1.787-.617,2.433-1.247.411-.401.667-.968.667-1.478,0-.24-.221-.456-.473-.462-2.03-.038-4.185.686-5.796,2.009-.571.468-1.392.401-1.871-.155-.31-.359-.754-.572-1.19-.572h-.031c-.453.01-.92.262-1.215.656-.383.51-1.07.663-1.67.373-.622-.301-1.482-.278-2.191.058-.589.279-1.148.743-1.758,1.459-.232.273-.571.443-.93.468-.341.019-.693-.091-.955-.325-.532-.478-1.36-.568-1.883-.206-.266.185-.493.466-.735.765-.483.597-1.068,1.269-2.008,1.242-.495-.016-.96-.231-1.308-.606-.401-.432-.616-1.03-.591-1.641.057-1.381.861-2.675,2.1-3.375.885-.5,1.873-.64,2.829-.775.384-.054.769-.108,1.145-.187,1.043-.218,1.9-.719,2.292-1.341.356-.565,1.048-.773,1.675-.511,1.307.546,2.905.206,3.797-.807l.153-.182c.27-.326.577-.696,1.069-.834.562-.157,1.062.063,1.504.257.103.045.205.09.306.128,1.05.399,2.368-.014,3.073-.962.41-.549,1.132-.716,1.716-.398,1.517.825,3.23,1.356,4.951,1.537.144.013.287-.046.379-.163.047-.061.117-.186.057-.345-.398-1.075-1.335-2.071-2.506-2.666-1.563-.793-3.392-.942-4.974-.982-7.345-.188-14.789,1.878-20.981,5.818-1.754,1.116-4.192,2.895-5.114,5.453-.643,1.782-.544,3.986.28,6.207.774,2.088,2.071,4.002,3.216,5.692l-.761.515s.004-.002.004-.002Z" fill="#000" stroke-width="0" data-sg-fill="sg-fill-0" />
  <path d="M28.435,44.123c-2.013,0-4.034-.075-6.033-.226l.068-.916c2.732.206,5.506.271,8.241.191l.027.919c-.765.022-1.534.033-2.303.033h0Z" fill="#000" stroke-width="0" data-sg-fill="sg-fill-0" />
  <path d="M24.828,40.944l-.881-.261c.155-.523-.076-1.107-.299-1.503-.144-.256-.312-.498-.479-.741-.203-.292-.405-.586-.572-.899-.638-1.188-.757-2.582-.852-3.703-.124-1.468-.179-2.781.403-3.989l.827.398c-.481.999-.427,2.182-.315,3.513.093,1.09.198,2.326.746,3.347.152.283.336.547.519.811.184.266.367.532.525.814.443.79.573,1.556.379,2.213h0Z" fill="#000" stroke-width="0" data-sg-fill="sg-fill-0" />
  <path d="M24.036,28.721l-.723-.567c.407-.519.947-.917,1.564-1.152l.328.858c-.454.174-.869.48-1.169.862h0Z" fill="#000" stroke-width="0" data-sg-fill="sg-fill-0" />
  <path d="M48.262,46.793c-.108-1.056-.152-2.418.468-3.585.601-1.131,2.028-2.026,3.369-1.573.286.097.507.244.657.435.362.464.257,1.096-.006,1.517-.161.258-.373.461-.56.64-.072.069-.144.137-.213.209-.572.6-.879,1.452-.822,2.279l-.917.064c-.074-1.081.327-2.193,1.075-2.977.077-.082.16-.16.241-.239.162-.155.316-.302.416-.462.104-.167.131-.375.061-.466-.021-.026-.079-.079-.229-.13-.866-.296-1.85.358-2.262,1.134-.504.948-.46,2.133-.366,3.06l-.913.093h0Z" fill="#000" stroke-width="0" data-sg-fill="sg-fill-0" />
  <path d="M37.917,52.069c-1.209-.004-2.222-.635-3.203-1.245-.887-.553-1.726-1.075-2.651-1.111-.419-.017-.841.069-1.291.159-.41.082-.834.167-1.277.179-1.278.044-2.568-.545-3.664-1.626-.939-.928-1.593-2.06-2.225-3.154l.795-.459c.602,1.042,1.225,2.119,2.076,2.96.902.89,1.989,1.414,2.995,1.361.363-.009.731-.083,1.12-.161.483-.097.989-.199,1.508-.176,1.168.045,2.15.657,3.101,1.249.911.567,1.771,1.103,2.72,1.106l-.004.919h0Z" fill="#000" stroke-width="0" data-sg-fill="sg-fill-0" />
  <path d="M41.726,49.968c-.303-.002-.591-.067-.857-.137-.908-.24-1.782-.596-2.598-.94-1.962-.827-4.207-1.84-6.013-3.399-.244-.21-.498-.445-.707-.735l.746-.536c.153.214.36.403.561.576,1.705,1.472,3.786,2.411,5.77,3.247.787.332,1.626.674,2.475.899.24.063.439.105.63.107l-.007.919h0Z" fill="#000" stroke-width="0" data-sg-fill="sg-fill-0" />
  <path d="M16.014,62.363l-.623-.676c1.318-1.214,2.733-2.345,4.207-3.362l.522.756c-1.44.992-2.821,2.096-4.107,3.281h.001Z" fill="#000" stroke-width="0" data-sg-fill="sg-fill-0" />
  <path d="M14.162,60.549c-2.685-4.943-2.555-11.256.329-16.085.266-.443.672-.613,1.029-.439.257.124.417.405.42.732.048,5.353.889,9.097,2.81,12.519l-.8.449c-1.929-3.434-2.812-7.155-2.919-12.354-2.477,4.494-2.515,10.224-.061,14.74l-.807.439h-.001Z" fill="#000" stroke-width="0" data-sg-fill="sg-fill-0" />
  <path d="M29.047,65.382c-1.409-.071-2.789-.373-4.099-.898-.756-.303-1.291-.608-1.733-.987-.471-.405-.841-.904-1.197-1.387-.508-.686-.986-1.334-1.683-1.605l.332-.857c.946.367,1.527,1.155,2.089,1.915.342.462.665.899,1.057,1.236.362.311.818.567,1.476.831,1.216.487,2.497.767,3.805.833l-.047.918h0Z" fill="#000" stroke-width="0" data-sg-fill="sg-fill-0" />
  <path d="M30.53,69.93c-2.3-.562-4.991-1.287-7.507-2.402-2.681-1.187-4.887-2.696-6.555-4.486l.673-.626c1.582,1.698,3.686,3.136,6.254,4.272,2.451,1.085,5.093,1.796,7.354,2.349l-.219.893Z" fill="#000" stroke-width="0" data-sg-fill="sg-fill-0" />
  <path d="M29.515,81.045c-3.887,0-7.763-1.713-10.262-4.747-.564-.684-.96-1.324-1.21-1.954-.148-.372-.06-.797.225-1.081.279-.28.678-.363,1.045-.217.767.305,1.481.739,2.171,1.159.307.187.614.373.924.548,2.972,1.674,6.464,2.288,9.83,1.731l.151.906c-3.571.593-7.277-.059-10.432-1.836-.319-.179-.635-.371-.951-.563-.688-.418-1.338-.814-2.034-1.091-.072.029-.094.061-.076.105.214.541.562,1.1,1.065,1.71,3.08,3.737,8.651,5.345,13.251,3.826l.289.872c-1.293.427-2.64.633-3.987.633h0Z" fill="#000" stroke-width="0" data-sg-fill="sg-fill-0" />
  <path d="M35.11,80.37c-.087,0-.184-.017-.283-.069-.179-.096-.257-.257-.292-.325-.458-.959-.827-1.961-1.1-2.98-.022-.084-.071-.262-.008-.459.1-.318.394-.436.519-.487.863-.348,1.661-.888,2.306-1.563l.664.635c-.718.75-1.601,1.356-2.56,1.753.241.872.546,1.704.913,2.501,1.481-.598,2.723-1.764,3.824-2.798l.628.67c-1.216,1.142-2.596,2.437-4.329,3.065-.047.017-.153.056-.283.056h0Z" fill="#000" stroke-width="0" data-sg-fill="sg-fill-0" />
  <path d="M40.78,100.183c-1.127,0-2.307-.08-3.48-.322-2.489-.513-4.308-1.481-5.407-2.878-.652-.83-1.359-2.951-1.382-3.541-.128-3.333,1.54-6.531,4.579-8.775l.545.739c-2.789,2.06-4.322,4.977-4.206,8.001.014.395.645,2.321,1.185,3.008.961,1.222,2.599,2.079,4.869,2.546,1.82.375,3.687.338,5.318.227-2.594-.652-7.697-2.178-7.886-5.767-.118-2.224,1.016-3.27,1.499-3.716l.108-.1c.917-.895,1.865-1.777,2.817-2.622l.61.687c-.941.835-1.879,1.707-2.786,2.592l-.126.118c-.454.419-1.299,1.199-1.205,2.993.17,3.227,5.724,4.572,7.816,5.078l.623.155.097.172c.125.223.128.479.009.702-.196.367-.692.566-1.069.594-.79.061-1.643.11-2.53.11h.002,0Z" fill="#000" stroke-width="0" data-sg-fill="sg-fill-0" />
  <path d="M41.394,87.077c-.06,0-.123-.005-.187-.017-.288-.054-.502-.231-.644-.348-.524-.431-1.146-.992-1.768-1.552-.482-.433-.963-.867-1.397-1.238-.194-.167-.297-.417-.277-.669.021-.252.155-.472.371-.604.733-.45,1.57-.894,2.379-1.324.937-.498,1.907-1.012,2.694-1.526l.502.769c-.822.537-1.81,1.061-2.766,1.569-.74.392-1.503.797-2.175,1.201.405.349.843.745,1.283,1.141.612.551,1.223,1.102,1.738,1.526.07.058.175.144.231.155.062.01.206-.044.275-.07,1.874-.715,3.823-2.369,4.819-3.292l.624.674c-1.044.968-3.098,2.707-5.117,3.477-.136.052-.346.131-.586.131v-.003h0Z" fill="#000" stroke-width="0" data-sg-fill="sg-fill-0" />
  <path d="M51.164,95.159c-.449,0-.904-.062-1.342-.187-1.449-.412-4.765-1.767-4.264-5.438.171-1.254,1.003-2.484,2.472-3.655l.572.719c-1.277,1.019-1.995,2.049-2.134,3.061-.388,2.851,2.092,3.999,3.605,4.43.859.244,1.79.193,2.554-.142l-.005-.116c-1.031-.22-1.764-.577-2.305-1.125-.587-.593-.899-1.453-.856-2.359s.435-1.732,1.076-2.267l.588.705c-.443.371-.716.956-.746,1.606-.031.65.185,1.259.591,1.67.41.414.995.691,1.844.872.424.09.728.425.772.854.045.433-.187.826-.588,1.003-.562.246-1.193.371-1.833.371v-.002h-.001Z" fill="#000" stroke-width="0" data-sg-fill="sg-fill-0" />
  <rect x="59.444" y="50.781" width=".919" height="4.356" fill="#000" stroke-width="0" data-sg-fill="sg-fill-0" />
  <rect x="55.157" y="51.122" width=".919" height="4.376" transform="translate(-4.878 5.607) rotate(-5.529)" fill="#000" stroke-width="0" data-sg-fill="sg-fill-0" />
  <rect x="50.714" y="50.713" width=".918" height="5.053" transform="translate(-10.855 13.169) rotate(-13.271)" fill="#000" stroke-width="0" data-sg-fill="sg-fill-0" />
  <rect x="46.059" y="51.444" width=".919" height="4.841" transform="translate(-16.374 20.55) rotate(-21.275)" fill="#000" stroke-width="0" data-sg-fill="sg-fill-0" />
  <rect x="42.635" y="54.396" width=".919" height="3.59" transform="translate(-22.58 29.706) rotate(-30.551)" fill="#000" stroke-width="0" data-sg-fill="sg-fill-0" />
  <rect x="38.434" y="55.689" width=".918" height="4.447" transform="translate(-27.875 37.701) rotate(-39.274)" fill="#000" stroke-width="0" data-sg-fill="sg-fill-0" />
  <rect x="35.413" y="58.523" width=".919" height="4.246" transform="translate(-33.538 48.521) rotate(-49.486)" fill="#000" stroke-width="0" data-sg-fill="sg-fill-0" />
  <rect x="34.828" y="63.081" width=".918" height="2.87" transform="translate(-31.647 94.968) rotate(-85.787)" fill="#000" stroke-width="0" data-sg-fill="sg-fill-0" />
  <rect x="35.185" y="67.782" width="2.835" height=".919" transform="translate(-22.708 18.454) rotate(-21.781)" fill="#000" stroke-width="0" data-sg-fill="sg-fill-0" />
  <path d="M45.499,69.663c-1.73-.594-3.49-1.306-4.335-2.884-.784-1.465-.532-3.476.627-5.004.884-1.165,2.19-2.065,4.11-2.832,1.481-.593,2.825-.923,4.106-1.011.721-.05,1.443-.022,2.141.005l.683.023c1.863.052,3.75-.079,5.595-.384l.149.906c-1.903.314-3.849.446-5.769.396l-.693-.024c-.675-.027-1.372-.054-2.044-.006-1.184.081-2.437.391-3.828.947-1.758.702-2.94,1.508-3.718,2.534-.788,1.038-1.262,2.682-.55,4.015.689,1.286,2.201,1.892,3.823,2.449l-.298.868v.002h.001Z" fill="#000" stroke-width="0" data-sg-fill="sg-fill-0" />
  <path d="M49.44,72.556c-.765-.691-1.607-1.296-2.503-1.798l.449-.801c.956.536,1.854,1.181,2.67,1.918l-.615.682h0Z" fill="#000" stroke-width="0" data-sg-fill="sg-fill-0" />
  <path d="M52.162,75.537c-.457-.614-.972-1.186-1.533-1.699l.621-.677c.603.553,1.158,1.168,1.65,1.828l-.737.548h0Z" fill="#000" stroke-width="0" data-sg-fill="sg-fill-0" />
  <rect x="60.607" y="61.455" width=".919" height="13.322" fill="#000" stroke-width="0" data-sg-fill="sg-fill-0" />
  <path d="M58.033,72.243l-.91-.129c.016-.112.044-.224.073-.336.037-.143.072-.277.055-.36-.458-2.205-.159-4.568.94-7.44l.858.328c-1.033,2.7-1.319,4.9-.899,6.925.061.292-.008.56-.064.776-.021.079-.042.157-.053.236Z" fill="#000" stroke-width="0" data-sg-fill="sg-fill-0" />
  <path d="M54.865,68.377l-.899-.193.384-1.793c.081-.375.164-.764.103-1.109l.904-.16c.092.522-.014,1.021-.109,1.461l-.384,1.794h0Z" fill="#000" stroke-width="0" data-sg-fill="sg-fill-0" />
  <path d="M60.419,84.971c-1.433-.013-2.864-.08-4.248-.145-.656-.03-1.399-.065-2.083-.372-.663-.298-1.155-.789-1.684-1.354-.77-.82-1.525-1.654-2.265-2.501l.693-.605c.733.839,1.479,1.665,2.242,2.477.461.491.884.916,1.391,1.145.524.236,1.146.265,1.749.292,1.375.065,2.798.131,4.214.144,0,0-.009.919-.009.919Z" fill="#000" stroke-width="0" data-sg-fill="sg-fill-0" />
  <path d="M102.663,42.428l-.761-.515c1.146-1.691,2.444-3.607,3.216-5.692.824-2.22.923-4.425.28-6.207-.922-2.558-3.361-4.337-5.114-5.453-6.192-3.94-13.642-6.014-20.981-5.818-1.583.04-3.412.189-4.975.982-1.171.594-2.107,1.591-2.506,2.666-.059.159.011.284.057.345.092.117.233.175.379.163,1.722-.18,3.434-.711,4.951-1.537.588-.317,1.307-.149,1.715.398.706.948,2.025,1.36,3.073.963.101-.039.203-.083.306-.128.443-.194.944-.414,1.504-.257.493.138.799.508,1.069.834l.154.182c.892,1.013,2.489,1.354,3.796.807.632-.263,1.321-.052,1.675.512.392.621,1.249,1.122,2.292,1.34.376.078.761.132,1.145.187.956.135,1.944.275,2.829.775,1.239.7,2.044,1.994,2.101,3.376.024.612-.191,1.21-.592,1.641-.349.375-.813.59-1.307.606h-.065c-.938,0-1.472-.66-1.944-1.243-.241-.299-.469-.58-.735-.765-.521-.362-1.348-.272-1.883.206-.262.234-.617.345-.955.325-.359-.025-.698-.195-.93-.468-.608-.715-1.167-1.178-1.758-1.458-.709-.337-1.568-.359-2.191-.058-.601.29-1.288.137-1.67-.374-.295-.394-.761-.645-1.215-.656-.451-.037-.903.203-1.221.572-.479.555-1.299.623-1.871.155-1.61-1.323-3.701-2.046-5.797-2.009-.251.005-.472.222-.472.462,0,.51.257,1.077.667,1.478.646.63,1.595.958,2.433,1.247l8.544,2.949c2.11.728,4.292,1.481,6.125,2.901,2.097,1.625,3.261,3.896,3.112,6.075l-.917-.063c.126-1.845-.93-3.87-2.759-5.286-1.713-1.328-3.822-2.055-5.862-2.759l-8.544-2.949c-.929-.321-1.981-.684-2.774-1.457-.591-.576-.945-1.374-.946-2.135,0-.745.615-1.364,1.37-1.381,2.317-.048,4.624.758,6.401,2.218.181.148.441.13.592-.045.495-.574,1.221-.916,1.938-.891.74.017,1.461.4,1.93,1.024.114.153.335.194.535.097.875-.423,2.018-.402,2.984.055.713.337,1.37.876,2.065,1.694.073.085.179.139.292.147.106.006.205-.025.279-.093.852-.762,2.152-.881,3.022-.275.371.259.652.606.923.941.46.569.77.886,1.265.902.318-.01.536-.176.664-.314.231-.249.362-.615.346-.978-.043-1.051-.684-2.076-1.635-2.613-.734-.414-1.594-.536-2.506-.665-.405-.057-.809-.114-1.205-.197-.615-.128-2.128-.557-2.881-1.749-.114-.181-.333-.243-.545-.154-1.662.692-3.695.251-4.839-1.049l-.171-.202c-.203-.244-.394-.475-.61-.536-.247-.069-.557.07-.888.214-.117.051-.232.102-.348.146-1.413.538-3.194-.006-4.137-1.272-.137-.184-.354-.241-.539-.141-1.623.883-3.454,1.451-5.296,1.643-.46.05-.912-.143-1.199-.513-.275-.354-.346-.813-.193-1.227.484-1.305,1.559-2.459,2.951-3.165,1.727-.876,3.683-1.039,5.368-1.082,7.528-.187,15.152,1.924,21.497,5.961,1.867,1.188,4.468,3.094,5.486,5.916.716,1.986.615,4.414-.283,6.837-.811,2.188-2.142,4.154-3.317,5.887,0,0,.006,0,.006,0Z" fill="#000" stroke-width="0" data-sg-fill="sg-fill-0" />
  <path d="M96.565,44.123c-.77,0-1.538-.011-2.303-.033l.027-.919c2.739.08,5.51.016,8.241-.191l.068.916c-1.999.151-4.02.226-6.033.226h0Z" fill="#000" stroke-width="0" data-sg-fill="sg-fill-0" />
  <path d="M100.172,40.944c-.195-.658-.065-1.423.378-2.213.159-.282.342-.549.526-.815.183-.265.367-.528.519-.811.548-1.021.653-2.257.746-3.347.113-1.329.167-2.511-.315-3.513l.827-.398c.631,1.309.499,2.858.403,3.989-.095,1.121-.214,2.515-.852,3.703-.168.314-.37.607-.572.899-.167.243-.336.485-.48.741-.222.396-.453.979-.298,1.503l-.881.261h-.001Z" fill="#000" stroke-width="0" data-sg-fill="sg-fill-0" />
  <path d="M100.964,28.721c-.304-.388-.709-.685-1.169-.861l.328-.859c.615.235,1.156.634,1.564,1.153,0,0-.723.567-.723.567Z" fill="#000" stroke-width="0" data-sg-fill="sg-fill-0" />
  <path d="M91.739,71.133l-.737-.548c2.01-2.705,3.031-5.745,2.874-8.561-.179-3.205-1.965-6.081-4.547-7.328-.835-.403-1.78-.655-2.692-.899-1.356-.362-2.759-.737-3.927-1.615-.486-.366-.902-.799-1.305-1.218-.248-.257-.494-.514-.757-.754-1.663-1.517-3.991-2.273-6.225-2.027-.77.085-1.554.288-2.312.484-1.114.288-2.263.581-3.466.549-.868-.027-1.722-.231-2.547-.427-1.038-.247-2.018-.481-2.971-.369-.415.048-.838.048-1.255,0-.954-.11-1.933.122-2.971.369-.825.196-1.678.399-2.547.427-1.19.04-2.351-.26-3.466-.549-.758-.196-1.542-.4-2.312-.484-2.24-.248-4.564.51-6.224,2.027-.264.24-.511.498-.759.756-.402.418-.818.851-1.304,1.217-1.168.878-2.57,1.253-3.927,1.615-.912.244-1.857.496-2.692.899-2.582,1.246-4.367,4.122-4.547,7.328-.157,2.816.864,5.856,2.874,8.561l-.737.548c-2.138-2.877-3.222-6.13-3.054-9.16.197-3.534,2.185-6.715,5.065-8.104.912-.44,1.899-.704,2.854-.959,1.33-.355,2.585-.691,3.611-1.462.428-.321.8-.709,1.195-1.119.262-.272.524-.544.802-.798,1.853-1.692,4.451-2.538,6.944-2.261.835.092,1.652.304,2.442.508,1.1.285,2.141.546,3.206.52.775-.025,1.582-.217,2.363-.402,1.069-.254,2.175-.518,3.29-.388.348.041.699.041,1.043,0,1.114-.13,2.22.133,3.29.388.78.185,1.588.377,2.363.402,1.054.033,2.105-.235,3.206-.52.789-.205,1.607-.416,2.442-.508,2.492-.274,5.091.569,6.944,2.262.278.253.539.524.8.796.395.411.768.799,1.196,1.121,1.025.771,2.281,1.107,3.611,1.462.955.255,1.941.519,2.854.959,2.88,1.389,4.868,4.57,5.065,8.104.169,3.03-.916,6.283-3.054,9.16v-.002h0Z" fill="#000" stroke-width="0" data-sg-fill="sg-fill-0" />
  <path d="M76.739,46.793l-.913-.092c.093-.928.136-2.114-.367-3.06-.412-.775-1.393-1.428-2.261-1.134-.151.051-.209.104-.231.131-.069.089-.041.298.063.465.1.159.253.306.415.462.082.078.164.157.241.239.748.784,1.149,1.896,1.075,2.977l-.917-.064c.057-.827-.249-1.679-.822-2.279-.069-.072-.141-.14-.213-.209-.187-.179-.399-.382-.56-.64-.263-.423-.367-1.055-.007-1.516.151-.192.372-.339.659-.436,1.348-.457,2.768.442,3.367,1.573.62,1.165.576,2.527.469,3.584h.002Z" fill="#000" stroke-width="0" data-sg-fill="sg-fill-0" />
  <path d="M87.083,52.069l-.004-.919c.949-.003,1.809-.539,2.72-1.106.951-.592,1.933-1.203,3.101-1.249.518-.023,1.025.079,1.508.176.388.078.756.152,1.12.161.998.05,2.092-.471,2.995-1.361.854-.843,1.476-1.919,2.077-2.96l.795.459c-.632,1.094-1.285,2.224-2.226,3.154-1.095,1.081-2.386,1.658-3.664,1.626-.443-.011-.867-.096-1.277-.179-.449-.09-.874-.176-1.291-.159-.925.036-1.764.558-2.651,1.111-.981.61-1.993,1.241-3.203,1.245h0Z" fill="#000" stroke-width="0" data-sg-fill="sg-fill-0" />
  <path d="M83.274,49.968l-.007-.919c.204,0,.423-.052.63-.107.85-.225,1.688-.567,2.475-.899,1.984-.836,4.065-1.775,5.771-3.247.2-.173.406-.363.56-.576l.746.536c-.209.291-.463.525-.706.735-1.807,1.559-4.052,2.572-6.014,3.399-.816.344-1.69.7-2.597.94-.266.07-.553.135-.858.137h0Z" fill="#000" stroke-width="0" data-sg-fill="sg-fill-0" />
  <path d="M108.986,62.363c-1.286-1.185-2.667-2.289-4.107-3.281l.522-.756c1.474,1.016,2.89,2.148,4.207,3.362l-.623.676h0Z" fill="#000" stroke-width="0" data-sg-fill="sg-fill-0" />
  <path d="M110.839,60.549l-.807-.439c2.453-4.516,2.415-10.244-.061-14.739-.109,5.204-.993,8.923-2.92,12.354l-.8-.449c1.921-3.422,2.761-7.166,2.81-12.52.003-.327.163-.607.42-.731.362-.174.764-.002,1.028.439,2.885,4.829,3.015,11.142.331,16.085h0Z" fill="#000" stroke-width="0" data-sg-fill="sg-fill-0" />
  <path d="M95.952,65.382l-.047-.918c1.309-.066,2.589-.346,3.805-.833.658-.264,1.113-.52,1.475-.832.393-.337.716-.774,1.058-1.236.562-.761,1.144-1.548,2.089-1.915l.332.857c-.697.27-1.175.919-1.683,1.605-.356.483-.726.982-1.198,1.387-.441.379-.976.684-1.732.987-1.309.525-2.689.827-4.099.898Z" fill="#000" stroke-width="0" data-sg-fill="sg-fill-0" />
  <path d="M94.47,69.93l-.219-.893c2.262-.553,4.904-1.264,7.354-2.349,2.568-1.138,4.673-2.575,6.254-4.272l.673.626c-1.667,1.789-3.872,3.298-6.555,4.486-2.516,1.114-5.207,1.839-7.507,2.402h0Z" fill="#000" stroke-width="0" data-sg-fill="sg-fill-0" />
  <path d="M65.898,87.97c-1.169,0-2.326-.009-3.405-.025-2.611.041-5.715.032-8.286-.026-.593-.013-1.33-.029-1.991-.337-.722-.335-1.228-.953-1.645-1.505-.483-.639-.936-1.299-1.389-1.96-.631-.92-1.282-1.871-2.003-2.732-3.25-3.883-8.114-6.211-12.406-8.264l.397-.829c4.376,2.094,9.336,4.467,12.715,8.503.749.894,1.413,1.864,2.056,2.802.445.65.889,1.299,1.364,1.926.35.464.769.98,1.3,1.226.486.227,1.09.24,1.623.251,2.562.057,5.65.066,8.266.026,2.629.04,5.718.031,8.279-.026.533-.012,1.137-.025,1.623-.251.531-.247.95-.763,1.301-1.226.474-.628.918-1.277,1.363-1.926.643-.938,1.307-1.908,2.056-2.802,3.378-4.037,8.339-6.409,12.715-8.503l.397.829c-4.292,2.053-9.156,4.381-12.406,8.264-.721.861-1.373,1.812-2.003,2.732-.453.661-.906,1.321-1.388,1.96-.418.553-.924,1.17-1.646,1.506-.66.307-1.398.323-1.991.336-1.515.034-3.216.051-4.895.051h-.001Z" fill="#000" stroke-width="0" data-sg-fill="sg-fill-0" />
  <path d="M95.485,81.045c-1.347,0-2.694-.205-3.987-.633l.289-.872c4.598,1.521,10.171-.088,13.251-3.826.503-.611.852-1.17,1.065-1.709.018-.045-.004-.077-.02-.092-.754.264-1.403.659-2.092,1.078-.315.192-.63.383-.948.562-3.155,1.776-6.859,2.428-10.432,1.836l.151-.906c3.368.558,6.858-.057,9.831-1.73.31-.174.615-.361.921-.547.691-.42,1.405-.854,2.174-1.16.362-.146.764-.063,1.044.217.285.284.373.709.225,1.081-.248.628-.644,1.268-1.21,1.954-2.499,3.033-6.375,4.747-10.262,4.747Z" fill="#000" stroke-width="0" data-sg-fill="sg-fill-0" />
  <path d="M89.89,80.37c-.13,0-.236-.039-.283-.056-1.732-.627-3.112-1.922-4.329-3.065l.628-.67c1.105,1.037,2.351,2.207,3.823,2.799.375-.815.68-1.651.914-2.501-.995-.423-1.858-1.019-2.56-1.754l.664-.635c.645.675,1.443,1.215,2.306,1.563.126.05.423.169.52.492.061.192.013.37-.011.455-.272,1.017-.641,2.019-1.098,2.975-.035.071-.113.232-.292.328-.099.052-.196.069-.283.069h0Z" fill="#000" stroke-width="0" data-sg-fill="sg-fill-0" />
  <path d="M84.22,100.183c-.886,0-1.739-.05-2.53-.11-.378-.029-.873-.227-1.069-.595-.119-.223-.115-.479.011-.702l.097-.171.623-.155c2.09-.506,7.643-1.85,7.814-5.077.094-1.792-.75-2.573-1.204-2.992l-.126-.119c-.911-.887-1.848-1.76-2.786-2.592l.61-.687c.948.841,1.896,1.724,2.818,2.622l.109.101c.484.447,1.615,1.493,1.497,3.715-.188,3.59-5.292,5.116-7.886,5.767,1.631.11,3.498.147,5.318-.227,2.271-.467,3.909-1.324,4.869-2.546.541-.687,1.172-2.613,1.186-3.008.117-3.025-1.417-5.941-4.206-8.001l.545-.739c3.038,2.244,4.707,5.443,4.579,8.775-.022.589-.729,2.711-1.382,3.541-1.098,1.397-2.916,2.365-5.406,2.878-1.173.241-2.353.322-3.48.322,0,0,0,0-.001,0Z" fill="#000" stroke-width="0" data-sg-fill="sg-fill-0" />
  <path d="M83.606,87.077c-.24,0-.449-.079-.586-.131-2.017-.769-4.072-2.508-5.117-3.477l.624-.674c.997.923,2.948,2.579,4.819,3.292.07.026.212.08.275.07.056-.011.161-.097.23-.154.518-.425,1.13-.977,1.742-1.529.438-.394.876-.789,1.279-1.138-.671-.403-1.434-.808-2.173-1.2-.956-.508-1.945-1.033-2.767-1.569l.502-.769c.787.514,1.757,1.029,2.695,1.527.809.429,1.645.873,2.377,1.322.216.133.351.353.371.606s-.083.502-.277.668c-.433.371-.912.803-1.392,1.235-.623.562-1.248,1.124-1.774,1.556-.141.117-.355.294-.643.348-.064.012-.126.017-.187.017h.002,0Z" fill="#000" stroke-width="0" data-sg-fill="sg-fill-0" />
  <path d="M73.836,95.159c-.64,0-1.271-.125-1.833-.371-.402-.177-.633-.57-.588-1.003.044-.428.347-.763.772-.854.848-.18,1.433-.458,1.843-.872.406-.411.623-1.02.591-1.67-.031-.65-.303-1.235-.746-1.606l.588-.705c.641.535,1.033,1.361,1.076,2.267.043.907-.269,1.766-.856,2.359-.541.548-1.274.905-2.305,1.125l-.19.537.185-.421c.765.336,1.697.387,2.555.142,1.513-.431,3.994-1.579,3.605-4.43-.139-1.013-.857-2.043-2.134-3.061l.572-.719c1.469,1.17,2.3,2.4,2.472,3.655.501,3.67-2.814,5.026-4.263,5.438-.438.125-.893.187-1.343.187v.002h0Z" fill="#000" stroke-width="0" data-sg-fill="sg-fill-0" />
  <rect x="64.637" y="50.781" width=".919" height="4.356" fill="#000" stroke-width="0" data-sg-fill="sg-fill-0" />
  <rect x="67.195" y="52.851" width="4.376" height=".919" transform="translate(9.619 117.219) rotate(-84.456)" fill="#000" stroke-width="0" data-sg-fill="sg-fill-0" />
  <rect x="71.3" y="52.782" width="5.053" height=".918" transform="translate(5.055 112.868) rotate(-76.724)" fill="#000" stroke-width="0" data-sg-fill="sg-fill-0" />
  <rect x="76.062" y="53.406" width="4.841" height=".919" transform="translate(-.215 107.416) rotate(-68.697)" fill="#000" stroke-width="0" data-sg-fill="sg-fill-0" />
  <rect x="80.111" y="55.731" width="3.59" height=".919" transform="translate(-8.131 98.134) rotate(-59.43)" fill="#000" stroke-width="0" data-sg-fill="sg-fill-0" />
  <rect x="83.882" y="57.452" width="4.448" height=".918" transform="translate(-13.24 87.883) rotate(-50.711)" fill="#000" stroke-width="0" data-sg-fill="sg-fill-0" />
  <rect x="87.007" y="60.187" width="4.245" height=".919" transform="translate(-18.018 72.537) rotate(-40.565)" fill="#000" stroke-width="0" data-sg-fill="sg-fill-0" />
  <rect x="88.279" y="64.058" width="2.869" height=".918" transform="translate(-4.542 6.837) rotate(-4.257)" fill="#000" stroke-width="0" data-sg-fill="sg-fill-0" />
  <rect x="87.938" y="66.823" width=".919" height="2.835" transform="translate(-7.816 124.932) rotate(-68.175)" fill="#000" stroke-width="0" data-sg-fill="sg-fill-0" />
  <path d="M79.501,69.663l-.298-.868c1.622-.557,3.135-1.164,3.823-2.449.713-1.333.238-2.977-.55-4.015-.779-1.026-1.96-1.832-3.718-2.534-1.391-.557-2.644-.867-3.828-.947-.674-.048-1.37-.021-2.044.006l-.693.024c-1.929.05-3.867-.082-5.769-.396l.149-.906c1.845.305,3.726.435,5.595.384l.683-.023c.698-.026,1.418-.055,2.141-.005,1.281.088,2.625.418,4.106,1.011,1.92.767,3.226,1.667,4.11,2.832,1.159,1.529,1.412,3.54.627,5.004-.844,1.578-2.604,2.29-4.335,2.884v-.002h0Z" fill="#000" stroke-width="0" data-sg-fill="sg-fill-0" />
  <path d="M75.56,72.556l-.615-.682c.815-.737,1.714-1.382,2.671-1.918l.449.801c-.896.502-1.739,1.107-2.504,1.798h0Z" fill="#000" stroke-width="0" data-sg-fill="sg-fill-0" />
  <path d="M72.838,75.537l-.737-.548c.49-.658,1.044-1.273,1.65-1.828l.621.676c-.562.517-1.078,1.089-1.533,1.7h-.001Z" fill="#000" stroke-width="0" data-sg-fill="sg-fill-0" />
  <rect x="63.475" y="61.455" width=".919" height="13.322" fill="#000" stroke-width="0" data-sg-fill="sg-fill-0" />
  <path d="M66.967,72.243c-.011-.079-.032-.157-.053-.236-.056-.215-.125-.484-.064-.776.42-2.027.135-4.227-.899-6.925l.858-.328c1.099,2.869,1.398,5.233.94,7.44-.017.083.018.217.055.36.029.112.057.225.073.336,0,0-.91.129-.91.129Z" fill="#000" stroke-width="0" data-sg-fill="sg-fill-0" />
  <path d="M70.135,68.377l-.384-1.793c-.094-.441-.201-.94-.108-1.462l.904.161c-.062.344.022.733.102,1.108l.384,1.793-.899.193s0,0,.001,0Z" fill="#000" stroke-width="0" data-sg-fill="sg-fill-0" />
  <path d="M64.581,84.971l-.009-.919c1.416-.013,2.838-.079,4.214-.144.603-.028,1.225-.057,1.749-.292.508-.228.93-.654,1.391-1.145.763-.812,1.509-1.638,2.242-2.477l.693.605c-.74.847-1.495,1.681-2.265,2.501-.529.564-1.021,1.056-1.684,1.354-.684.308-1.427.342-2.083.372-1.384.065-2.815.132-4.248.145Z" fill="#000" stroke-width="0" data-sg-fill="sg-fill-0" />
  <path d="M62.599,33.55c-.326,0-.597-.222-.66-.546-.318-1.577-.869-3.082-1.639-4.475-.844-1.53-1.934-2.899-3.239-4.069-.143-.128-.224-.309-.224-.496s.08-.369.222-.498c1.234-1.124,2.289-2.422,3.136-3.858.749-1.268,1.328-2.632,1.721-4.054.086-.311.369-.504.69-.496.321.019.58.255.629.575.166,1.064,1.244,3.08,1.928,4.175.679,1.085,1.963,2.732,3.004,3.646.162.142.254.342.249.548-.004.195-.095.378-.25.502-1.363,1.091-2.483,2.409-3.332,3.919-.79,1.407-1.318,2.939-1.566,4.555-.052.332-.32.568-.654.575h-.014v-.003h0ZM62.84,32.823h0ZM57.877,23.96c1.292,1.198,2.377,2.585,3.227,4.125.633,1.145,1.127,2.362,1.473,3.631.309-1.315.797-2.571,1.457-3.745.859-1.529,1.98-2.874,3.334-4.002-1.076-1-2.294-2.572-2.984-3.675-.536-.859-1.406-2.417-1.833-3.666-.397,1.202-.921,2.358-1.565,3.448-.849,1.437-1.894,2.743-3.109,3.885h0ZM67.561,24.144h0Z" fill="#000" stroke-width="0" data-sg-fill="sg-fill-0" />
  <path d="M62.599,112.735c-.326,0-.597-.222-.66-.546-.318-1.577-.869-3.083-1.639-4.476-.843-1.528-1.933-2.897-3.239-4.069-.143-.128-.224-.309-.224-.496s.08-.369.222-.498c1.234-1.124,2.289-2.422,3.136-3.858.749-1.267,1.328-2.631,1.721-4.054.085-.31.324-.524.69-.496.32.018.58.255.629.574h0c.166,1.065,1.244,3.08,1.928,4.175.679,1.085,1.963,2.732,3.004,3.646.162.142.254.342.249.548-.004.195-.095.378-.25.502-1.363,1.091-2.483,2.409-3.332,3.919-.79,1.407-1.318,2.939-1.566,4.555-.052.332-.32.568-.653.575h-.016ZM62.84,112.008h0ZM57.877,103.145c1.293,1.199,2.377,2.585,3.227,4.124.633,1.145,1.127,2.362,1.473,3.631.309-1.315.797-2.571,1.457-3.745.859-1.529,1.98-2.874,3.334-4.002-1.076-1-2.294-2.572-2.984-3.675-.536-.859-1.406-2.417-1.833-3.666-.397,1.203-.921,2.358-1.565,3.448-.849,1.437-1.894,2.743-3.109,3.886h0ZM67.561,103.328h0ZM62.326,94.956h0Z" fill="#000" stroke-width="0" data-sg-fill="sg-fill-0" />
  <path d="M22.411,58.306l-.919-.04c.16-3.593.526-7.18,1.089-10.663l.906.147c-.557,3.447-.92,6.998-1.077,10.556h0Z" fill="#000" stroke-width="0" data-sg-fill="sg-fill-0" />
  <path d="M22.003,73.208c-.164-1.44-.296-2.898-.392-4.334l.917-.061c.095,1.421.225,2.865.388,4.291l-.913.104Z" fill="#000" stroke-width="0" data-sg-fill="sg-fill-0" />
  <path d="M62.796,125c-18.084,0-33.931-17.448-39.435-43.417l.899-.19c5.411,25.533,20.897,42.689,38.536,42.689,17.81,0,33.342-17.371,38.648-43.225l.901.185c-5.397,26.293-21.29,43.959-39.549,43.959h0Z" fill="#000" stroke-width="0" data-sg-fill="sg-fill-0" />
  <path d="M103.641,72.757l-.913-.1c.149-1.364.269-2.756.358-4.138l.917.058c-.09,1.396-.211,2.802-.362,4.179h0Z" fill="#000" stroke-width="0" data-sg-fill="sg-fill-0" />
  <path d="M103.151,57.61c-.172-3.316-.522-6.623-1.04-9.83l.906-.146c.524,3.239.877,6.58,1.051,9.929l-.917.048h0Z" fill="#000" stroke-width="0" data-sg-fill="sg-fill-0" />
  <path d="M35.588,16.921l-.745-.538C42.486,5.818,52.413,0,62.796,0s20.265,5.791,27.898,16.306l-.743.54C82.495,6.575,72.851.919,62.796.919s-19.743,5.683-27.208,16.003h0Z" fill="#000" stroke-width="0" data-sg-fill="sg-fill-0" />
  <path d="M26.62,61.7l-.919-.008c.031-3.575.272-7.152.715-10.63l.911.117c-.439,3.442-.677,6.982-.708,10.521h.001Z" fill="#000" stroke-width="0" data-sg-fill="sg-fill-0" />
  <path d="M26.579,75.149c-.238-1.681-.43-3.398-.571-5.104l.915-.075c.14,1.688.33,3.387.565,5.05l-.91.129h0Z" fill="#000" stroke-width="0" data-sg-fill="sg-fill-0" />
  <path d="M29.712,88.836c-.69-2.125-1.301-4.336-1.815-6.57l.895-.206c.509,2.209,1.112,4.393,1.793,6.493l-.874.283s0,0,.001,0Z" fill="#000" stroke-width="0" data-sg-fill="sg-fill-0" />
  <path d="M62.796,120.701c-10.504,0-20.562-7.041-27.595-19.319l.797-.457c6.865,11.984,16.632,18.857,26.798,18.857,10.277,0,20.118-7,26.996-19.205l.8.451c-7.046,12.502-17.177,19.672-27.796,19.672h0Z" fill="#000" stroke-width="0" data-sg-fill="sg-fill-0" />
  <path d="M95.605,89.67l-.87-.293c.77-2.282,1.446-4.663,2.01-7.077l.895.209c-.571,2.443-1.256,4.852-2.036,7.162h.001Z" fill="#000" stroke-width="0" data-sg-fill="sg-fill-0" />
  <path d="M99.112,74.442l-.911-.121c.18-1.354.331-2.732.449-4.096l.915.079c-.118,1.378-.271,2.77-.452,4.138h0Z" fill="#000" stroke-width="0" data-sg-fill="sg-fill-0" />
  <path d="M98.974,61.805c-.026-3.535-.259-7.072-.693-10.514l.911-.115c.439,3.478.674,7.052.701,10.622,0,0-.919.007-.919.007Z" fill="#000" stroke-width="0" data-sg-fill="sg-fill-0" />
  <path d="M41.239,16.542l-.702-.594c6.462-7.62,14.159-11.648,22.259-11.648s15.767,4.012,22.22,11.603l-.7.595c-6.274-7.379-13.716-11.279-21.521-11.279s-15.277,3.916-21.557,11.324h0Z" fill="#000" stroke-width="0" data-sg-fill="sg-fill-0" />
</g></svg>