<svg xmlns="http://www.w3.org/2000/svg" id="Layer_1" data-name="Layer 1" version="1.1" viewBox="0.0 0.0 100.0 100.0">
  <g transform="scale(0.8)"><path d="M36.829,40.236c-.777-.952-1.798-1.645-2.879-2.378-.4-.272-.801-.543-1.188-.829-1.994-1.47-3.632-3.313-4.736-5.333-2.616-4.782-1.024-12.263,2.025-16.734.315-.46.692-1.013,1.301-1.238.593-.22,1.017.044,1.174.235.506.679.225,1.556.075,2.027-1.543,4.812-1.613,8.904-.212,12.164.65,1.509,2.004,2.855,3.324,2.507,1.169-.307,1.739-1.759,1.785-3.062.08-2.214-.838-4.44-2.456-5.954-.234-.219-.555-.518-.567-.976-.007-.301.119-.568.355-.754.416-.328,1.098-.34,1.589-.208,2.816.754,5.409,2.392,7.3,4.612,2.067,2.425,3.107,5.385,2.855,8.12-.289,3.141-2.414,5.912-5.167,6.74l-.256-.855c2.413-.726,4.278-3.18,4.534-5.967.23-2.496-.733-5.214-2.646-7.458-1.774-2.084-4.207-3.621-6.851-4.328-.383-.103-.77-.021-.819.059,0,.099.178.264.283.363,1.804,1.688,2.828,4.17,2.739,6.639-.055,1.513-.729,3.441-2.452,3.893-1.907.498-3.597-1.217-4.37-3.018-1.49-3.463-1.429-7.766.181-12.788.141-.44.275-.933.072-1.204.011.021-.054.012-.16.051-.344.127-.607.514-.863.888-2.909,4.265-4.442,11.337-1.991,15.818,1.043,1.906,2.593,3.651,4.483,5.044.378.278.768.542,1.159.808,1.086.738,2.21,1.5,3.07,2.553l-.692.565v-.002h.001Z" fill="#000" stroke-width="0" data-sg-fill="sg-fill-0" />
  <path d="M40.555,37.096l-.542-.71c1.098-.839,1.764-2.218,1.74-3.598l.893-.016c.03,1.66-.772,3.316-2.09,4.324,0,0,0,0-.001,0Z" fill="#000" stroke-width="0" data-sg-fill="sg-fill-0" />
  <path d="M42.635,30.748l-.886-.105c.08-.684-.2-1.421-.715-1.877l.593-.668c.738.654,1.124,1.669,1.008,2.65Z" fill="#000" stroke-width="0" data-sg-fill="sg-fill-0" />
  <path d="M47.034,46.514c-.733,0-1.429-.099-2.076-.299-2.132-.659-3.712-2.568-3.756-4.538-.003-.172-.006-.385-.049-.427-.003-.003-.031-.028-.156-.056-.347-.078-.741-.052-1.159-.027-.704.045-1.5.092-2.146-.41l.548-.705c.379.295.917.262,1.543.223.461-.028.937-.058,1.408.046.166.038.407.108.597.3.295.297.301.694.306.984.041,1.861,1.605,3.284,3.127,3.756,1.903.589,3.939.071,5.311-.467.191-.074.382-.153.572-.233.825-.342,1.678-.696,2.616-.734,1.226-.051,2.672.668,2.918,1.964l-.877.166c-.153-.809-1.153-1.29-2.004-1.237-.78.031-1.523.34-2.31.666-.196.081-.392.163-.589.24-1.339.523-2.631.788-3.825.788,0,0,0,0,.001,0Z" fill="#000" stroke-width="0" data-sg-fill="sg-fill-0" />
  <path d="M43.897,50.676c-.529,0-.901-.481-1.033-.651l-2.056-2.653c-1.132-1.463-2.302-2.976-3.045-4.733l.823-.347c.697,1.65,1.831,3.115,2.928,4.533l2.056,2.653c.229.297.329.305.33.305.037-.009.134-.126.188-.19.067-.08.135-.16.209-.231.347-.327.789-.428,1.212-.503,3.183-.567,6.525-.47,9.669.276l-.206.869c-3.027-.72-6.244-.81-9.307-.265-.303.054-.589.116-.757.274-.048.046-.092.099-.135.153-.146.175-.345.416-.679.49-.068.015-.134.022-.198.022v-.002h0Z" fill="#000" stroke-width="0" data-sg-fill="sg-fill-0" />
  <path d="M53.402,59.432c-1.686-1.033-3.802-1.649-6.121-1.784-1.786-.102-3.699.054-6.02.498-.255.051-.509-.021-.703-.19-.193-.168-.296-.413-.281-.67l.113-1.985c.012-.221.111-.422.276-.568.168-.148.385-.215.612-.206,1.606.117,3.248-.247,4.84-.597.456-.1.912-.2,1.368-.29,1.91-.377,4.709-.718,6.933.662l-.471.759c-1.49-.924-3.489-1.097-6.289-.545-.449.089-.899.188-1.349.286-1.634.359-3.328.726-5.031.62l-.104,1.831c2.359-.446,4.316-.605,6.16-.497,2.464.143,4.723.805,6.534,1.913l-.466.762h0Z" fill="#000" stroke-width="0" data-sg-fill="sg-fill-0" />
  <path d="M37.723,57.961c-1.471,0-3.008-.133-4.411-.779-1.391-.641-2.614-1.767-3.635-3.347-.886-1.37-1.502-2.887-2.097-4.353l-.134-.322c-.706-1.674-1.233-3.101-.518-3.617.272-.156.529-.178.778-.097.754.25,1.324,1.415,1.94,2.799.09.202.17.381.236.519.948,1.943,2.328,3.699,3.992,5.078.413.342.91.72,1.47.924.769.279,1.617.229,2.515.176.651-.038,1.325-.077,1.995.012l-.119.884c-.583-.078-1.185-.044-1.824-.004-.949.056-1.927.114-2.873-.229-.689-.25-1.264-.684-1.736-1.075-1.761-1.459-3.221-3.318-4.224-5.375-.071-.145-.155-.333-.25-.547-.628-1.413-1.084-2.186-1.357-2.302-.034.331.234,1.173.796,2.507l.14.333c.579,1.428,1.179,2.904,2.02,4.204.915,1.415,2.042,2.46,3.258,3.021,1.716.79,3.76.724,5.565.663l.03.893c-.504.017-1.026.034-1.557.034Z" fill="#000" stroke-width="0" data-sg-fill="sg-fill-0" />
  <path d="M41.95,71.177c-.18,0-.312-.074-.382-.126-.22-.162-.266-.408-.289-.527l-.356-1.972c-.087-.487.212-.958.696-1.098,1.002-.289,1.922-.792,2.896-1.326.64-.351,1.301-.713,1.988-1.007,2.094-.899,4.483-1.172,6.722-.774l-.157.879c-2.075-.37-4.279-.114-6.213.715-.647.279-1.29.631-1.911.971-.974.534-1.981,1.085-3.078,1.401-.037.01-.072.04-.065.081l.31,1.719c1.742-1.515,3.944-2.029,5.501-2.193,1.951-.203,3.86-.008,5.973.25l-.108.886c-2.058-.25-3.912-.442-5.773-.249-1.459.153-3.53.637-5.111,2.071-.251.228-.471.297-.645.297,0,0,.002.002.002.002Z" fill="#000" stroke-width="0" data-sg-fill="sg-fill-0" />
  <path d="M38.934,71.178c-1.575,0-3.139-.487-4.434-1.402-2.046-1.448-2.974-2.844-4.062-5.071-.858-1.758-1.017-2.845-.472-3.23.781-.461,1.582.614,2.813,2.438.153.225.29.429.405.59.756,1.062,1.684,1.736,2.759,2.516l.422.308c1.062.781,2.246,1.07,3.845.94l.073.89c-1.804.15-3.216-.205-4.447-1.109l-.419-.305c-1.091-.793-2.121-1.54-2.961-2.721-.119-.166-.261-.377-.418-.609-.337-.5-1.042-1.546-1.485-1.976.072.404.312,1.11.686,1.876,1.022,2.092,1.887,3.399,3.776,4.735,1.456,1.03,3.293,1.441,5.054,1.142l.152.879c-.426.074-.858.111-1.288.111v-.002h0Z" fill="#000" stroke-width="0" data-sg-fill="sg-fill-0" />
  <path d="M50.831,89.925c-.088,0-.176-.017-.259-.051-.439-.181-.821-.457-1.19-.723-.278-.201-.541-.39-.815-.531-.323-.167-.472-.543-.346-.876.234-.614.522-1.288.812-1.963.315-.734.641-1.494.88-2.15.357-.977.725-1.987,1.236-2.934.745-1.378,1.663-2.28,2.729-2.683l.316.836c-.859.324-1.62,1.088-2.259,2.271-.48.89-.837,1.869-1.183,2.815-.248.68-.578,1.451-.898,2.197-.259.604-.519,1.209-.736,1.769.278.158.536.344.787.524.276.199.54.389.811.529.588-1.714,1.79-3.232,3.324-4.188l.473.759c-1.415.881-2.512,2.302-3.01,3.898-.061.193-.2.351-.38.436-.092.043-.191.065-.29.065h-.002ZM48.977,87.825h0Z" fill="#000" stroke-width="0" data-sg-fill="sg-fill-0" />
  <path d="M34.069,99.038l-.11-.426c-.331-1.287-.673-3.724.756-5.581.572-.743,1.388-1.342,2.568-1.886,2.09-.965,4.414-1.383,6.706-1.227.202.015.406.033.609.052.629.058,1.221.113,1.797.033.617-.085,1.382-.404,1.679-1.041l.809.375c-.379.819-1.264,1.399-2.366,1.551-.679.094-1.353.032-2.002-.029-.197-.018-.393-.036-.59-.05-2.142-.153-4.314.245-6.27,1.147-1.044.481-1.754.995-2.234,1.619-.712.924-.989,2.255-.802,3.754.473-1.162,1.04-2.101,1.729-2.861.932-1.03,2.11-1.716,3.315-1.932.986-.179,1.966-.05,2.915.075.378.05.755.099,1.132.129,1.292.101,2.579-.035,3.823-.406.909-.271,2.136-.999,2.721-1.865l.74.501c-.735,1.088-2.177,1.913-3.206,2.22-1.35.402-2.744.556-4.148.44-.392-.031-.785-.081-1.178-.133-.923-.121-1.794-.234-2.642-.082-1.012.181-2.009.767-2.81,1.653-.688.758-1.246,1.729-1.709,2.967-.094.251-.29.774-.808.899l-.427.103h.003,0Z" fill="#000" stroke-width="0" data-sg-fill="sg-fill-0" />
  <path d="M87.903,40.236l-.692-.565c.86-1.053,1.984-1.815,3.07-2.553.391-.265.781-.529,1.159-.808,1.891-1.393,3.441-3.136,4.483-5.044,2.451-4.481.917-11.553-1.98-15.8-.267-.392-.53-.778-.874-.905-.106-.039-.17-.031-.195-.011-.167.231-.033.724.108,1.163,1.61,5.023,1.671,9.325.181,12.789-.774,1.802-2.462,3.519-4.37,3.018-1.722-.452-2.397-2.38-2.452-3.894-.088-2.468.936-4.949,2.738-6.638.106-.099.283-.263.284-.345-.051-.098-.44-.179-.818-.078-2.644.708-5.078,2.246-6.852,4.329-1.912,2.245-2.876,4.963-2.646,7.458.257,2.787,2.122,5.242,4.535,5.967l-.256.855c-2.753-.828-4.878-3.599-5.168-6.74-.252-2.733.788-5.692,2.855-8.12,1.891-2.22,4.484-3.858,7.301-4.613.489-.131,1.172-.119,1.587.208.236.186.362.454.355.754-.01.457-.332.758-.567.977-1.617,1.514-2.535,3.74-2.456,5.954.046,1.303.617,2.755,1.785,3.062,1.327.348,2.675-.999,3.324-2.507,1.402-3.261,1.331-7.353-.211-12.164-.151-.47-.433-1.347.061-2.01.171-.208.597-.469,1.187-.252.61.226.986.778,1.289,1.222,3.061,4.487,4.653,11.968,2.037,16.75-1.103,2.02-2.741,3.864-4.736,5.333-.387.285-.788.556-1.188.829-1.081.733-2.102,1.426-2.879,2.378h.001Z" fill="#000" stroke-width="0" data-sg-fill="sg-fill-0" />
  <path d="M84.177,37.096c-1.319-1.006-2.12-2.663-2.091-4.324l.893.016c-.024,1.381.643,2.76,1.741,3.598l-.542.71h0Z" fill="#000" stroke-width="0" data-sg-fill="sg-fill-0" />
  <path d="M82.096,30.748c-.114-.981.272-1.996,1.01-2.65l.593.668c-.515.456-.795,1.193-.715,1.877,0,0-.888.105-.888.105Z" fill="#000" stroke-width="0" data-sg-fill="sg-fill-0" />
  <path d="M77.698,46.514c-1.195,0-2.487-.264-3.826-.788-.195-.077-.391-.158-.586-.239-.788-.327-1.532-.636-2.313-.667-.832-.053-1.851.427-2.004,1.237l-.877-.166c.245-1.294,1.654-2.015,2.918-1.964.939.038,1.793.393,2.619.735.19.079.379.158.57.232,1.372.537,3.407,1.056,5.311.467,1.524-.472,3.087-1.895,3.127-3.704.006-.342.012-.739.307-1.036.19-.192.433-.263.598-.3.47-.105.947-.074,1.408-.046.624.039,1.163.072,1.543-.223l.548.705c-.646.501-1.442.455-2.145.41-.417-.025-.81-.051-1.159.027-.126.028-.154.053-.157.056-.043.043-.046.256-.048.371-.044,2.026-1.624,3.934-3.757,4.594-.646.2-1.342.299-2.075.299h-.002Z" fill="#000" stroke-width="0" data-sg-fill="sg-fill-0" />
  <path d="M80.832,50.676c-.064,0-.129-.007-.197-.022-.333-.074-.533-.315-.679-.49-.044-.053-.087-.106-.135-.153-.169-.159-.454-.22-.757-.274-3.061-.544-6.281-.454-9.307.265l-.206-.869c3.145-.747,6.488-.842,9.669-.276.423.075.865.176,1.212.504.074.07.142.15.209.23.053.064.151.181.187.189h0c.008,0,.104-.01.332-.304l2.055-2.654c1.096-1.415,2.229-2.878,2.929-4.532l.823.347c-.746,1.763-1.915,3.272-3.045,4.732l-2.056,2.654c-.133.171-.506.651-1.035.651v.002h.001Z" fill="#000" stroke-width="0" data-sg-fill="sg-fill-0" />
  <path d="M64.476,57.503c-.705,0-1.408-.036-2.111-.106-1.782.179-3.584.132-5.358-.145-.714-.112-1.337-.527-1.708-1.139-.366-.607-.445-1.341-.215-2.016.5-1.464.882-2.977,1.137-4.495l.032-.194c.125-.755.254-1.536.66-2.236.444-.764,1.391-1.488,2.434-1.281.278.057.526.174.745.276l.215.099c.654.284,3.459.284,4.113,0l.214-.098c.219-.104.467-.221.747-.277,1.043-.206,1.99.518,2.433,1.281.406.699.535,1.478.659,2.232l.033.198c.256,1.518.638,3.031,1.137,4.495.23.675.152,1.409-.215,2.016-.371.612-.993,1.027-1.708,1.139-1.075.167-2.161.251-3.247.251h.003ZM62.373,56.5c1.735.182,3.489.138,5.213-.131.454-.071.848-.332,1.081-.719.23-.38.278-.842.133-1.266-.515-1.51-.909-3.069-1.172-4.635l-.033-.201c-.117-.706-.227-1.371-.551-1.928-.297-.515-.91-.966-1.484-.855-.172.035-.351.119-.542.209l-.239.11c-.879.382-3.946.382-4.825,0l-.24-.111c-.189-.089-.369-.174-.541-.208-.575-.116-1.187.342-1.484.854-.324.559-.435,1.227-.552,1.934l-.032.196c-.263,1.565-.658,3.125-1.172,4.635-.145.425-.097.886.133,1.266.233.386.627.648,1.081.719,1.725.269,3.477.312,5.214.131l.007.065.006-.065s0,0-.001,0Z" fill="#000" stroke-width="0" data-sg-fill="sg-fill-0" />
  <path d="M66.2,45.55l-.337-.827c.385-.157.715-.518.905-.99.163-.407.234-.893.22-1.529-.002-.103-.007-.344-.087-.436-.08-.094-.335-.059-.487.067-.212.177-.344.475-.484.791l-.038.086c-.278.62-.568,1.139-.886,1.586-.147.206-.318.412-.581.529-.398.174-.853.051-1.061-.285-.133-.213-.127-.444-.125-.582l.033-1.272c.003-.126-.003-.194-.01-.232-.356-.073-1.441-.073-1.795,0-.007.038-.014.107-.01.234l.033,1.268c.003.14.008.371-.126.584-.207.336-.664.459-1.058.284-.265-.118-.437-.324-.583-.529-.32-.449-.61-.968-.885-1.587l-.037-.082c-.14-.317-.273-.617-.486-.795-.15-.125-.405-.16-.487-.066-.08.092-.085.333-.087.436-.014.636.057,1.122.221,1.529.189.472.519.833.904.99l-.337.827c-.609-.248-1.118-.788-1.396-1.483-.21-.522-.301-1.12-.285-1.881.007-.33.049-.706.305-1.003.447-.512,1.256-.432,1.736-.032.372.312.562.74.729,1.118.287.645.547,1.114.832,1.513.032.044.088.124.146.179l-.032-1.245c-.005-.224-.016-.686.343-.974.381-.307,2.534-.307,2.916,0,.358.29.348.752.343.973l-.032,1.245c.059-.056.114-.133.146-.176.283-.399.545-.867.798-1.433l.037-.084c.167-.376.356-.803.726-1.114.479-.4,1.29-.481,1.736.031.256.297.298.673.305,1.003.016.76-.074,1.359-.284,1.881-.28.695-.789,1.236-1.397,1.483,0,0,0,0-.001,0Z" fill="#000" stroke-width="0" data-sg-fill="sg-fill-0" />
  <path d="M57.604,65.861c-.665,0-1.374-.039-2.049-.253-1.038-.33-1.813-1.048-2.073-1.922-.33-1.108.193-2.221.685-3.067l.13-.222c.416-.71.846-1.443.84-2.193l.893-.007c.008.996-.508,1.876-.963,2.652l-.127.218c-.402.692-.833,1.585-.601,2.364.206.695.904,1.141,1.487,1.326.735.233,1.552.219,2.343.204l4.19-.068,4.205.068c.79.015,1.607.029,2.343-.204.583-.185,1.281-.631,1.487-1.326.232-.78-.199-1.673-.601-2.364l-.127-.218c-.455-.776-.971-1.656-.963-2.652l.893.007c-.006.75.424,1.483.84,2.193l.13.222c.492.846,1.014,1.96.685,3.067-.26.874-1.035,1.593-2.073,1.922-.876.276-1.804.26-2.629.246l-4.19-.068-4.174.068c-.188.003-.382.007-.58.007,0,0,0,0-.001,0Z" fill="#000" stroke-width="0" data-sg-fill="sg-fill-0" />
  <path d="M62.366,72.639c-.372,0-.746-.024-1.115-.071-.736-.095-1.624-.16-2.374-.175-.236-.004-.475-.003-.714-.004-1.204.015-2.455.003-3.561-.597-.222-.119-.535-.32-.695-.672-.174-.383-.092-.788-.038-1.057l.682-3.381.876.176-.682,3.381c-.033.165-.078.392-.024.512.036.078.14.164.308.256.908.492,2.005.505,3.134.488.249,0,.491,0,.733.004.781.016,1.704.084,2.47.182.665.085,1.34.085,2.004,0,.767-.099,1.69-.167,2.47-.182.242-.004.488-.005.733-.004,1.146.013,2.227.003,3.134-.488.168-.091.271-.177.308-.256.054-.119.009-.346-.024-.511l-.682-3.381.876-.176.682,3.381c.054.269.135.674-.038,1.056-.16.354-.474.554-.696.673-1.104.599-2.36.61-3.559.596-.243,0-.479,0-.715.004-.749.015-1.637.08-2.374.175-.37.047-.743.071-1.115.071h-.004Z" fill="#000" stroke-width="0" data-sg-fill="sg-fill-0" />
  <path d="M58.534,78.856c-.917,0-2.178-.111-3.144-.875-.288-.228-.473-.467-.565-.732-.106-.31-.074-.612-.048-.856l.314-2.952.888.094-.314,2.952c-.018.172-.037.349.004.47.034.097.124.202.275.322.609.481,1.479.711,2.732.682.243-.003.515-.012.801-.022.67-.024,1.429-.047,2.107-.004.522.036,1.046.035,1.562,0,.68-.044,1.44-.019,2.108.004.287.01.558.019.801.022,1.254.023,2.125-.201,2.732-.682.152-.119.242-.224.276-.323.041-.12.023-.297.004-.469l-.313-2.952.888-.094.313,2.952c.026.243.058.545-.048.854-.092.266-.276.506-.566.733-1.02.808-2.364.892-3.296.874-.249-.003-.528-.012-.822-.023-.647-.021-1.381-.047-2.019-.005-.556.037-1.12.037-1.679,0-.633-.042-1.369-.016-2.018.005-.294.01-.572.02-.822.023h-.153s.002.002.002.002Z" fill="#000" stroke-width="0" data-sg-fill="sg-fill-0" />
  <path d="M62.366,89.314l-.052-.007c-.372-.044-.995-.087-1.617-.131-.638-.044-1.277-.09-1.66-.135-.187-.022-.443-.051-.677-.198-.244-.153-.385-.385-.487-.554l-.875-1.442c-.49-.808-.996-1.642-1.311-2.578-.542-1.607-.451-3.35-.372-4.887l.891.045c-.078,1.53-.16,3.11.326,4.557.283.842.763,1.634,1.228,2.398l.875,1.443c.063.103.133.22.198.26.063.04.198.056.307.069.372.044.995.087,1.617.131.61.043,1.221.085,1.607.129.386-.044.997-.086,1.607-.129.622-.044,1.245-.087,1.617-.131.109-.013.244-.029.309-.07.062-.038.133-.156.197-.26l.874-1.441c.466-.767.946-1.56,1.229-2.399.485-1.444.404-3.026.326-4.557l.891-.045c.079,1.538.168,3.282-.372,4.887-.313.933-.821,1.769-1.311,2.578l-.875,1.442c-.11.18-.246.402-.486.553-.236.147-.492.177-.679.2-.383.044-1.021.09-1.66.134-.622.044-1.245.087-1.617.131l-.052.007h.004Z" fill="#000" stroke-width="0" data-sg-fill="sg-fill-0" />
  <path d="M71.33,59.432l-.466-.762c1.81-1.108,4.069-1.77,6.533-1.913,1.84-.108,3.802.051,6.16.497l-.103-1.831c-1.701.114-3.397-.26-5.033-.619-.449-.099-.899-.197-1.347-.286-2.8-.551-4.8-.378-6.29.545l-.471-.759c2.226-1.379,5.022-1.038,6.933-.662.455.09.911.189,1.367.29,1.593.35,3.24.709,4.839.597.239-.01.447.058.615.206.166.146.263.347.276.568l.112,1.985c.016.256-.086.5-.279.669-.194.169-.447.242-.705.191-2.321-.444-4.233-.6-6.02-.498-2.318.135-4.434.752-6.12,1.784v-.002h0Z" fill="#000" stroke-width="0" data-sg-fill="sg-fill-0" />
  <path d="M87.009,57.961c-.53,0-1.052-.017-1.556-.034l.03-.893c1.801.059,3.847.127,5.564-.663,1.217-.561,2.343-1.606,3.258-3.021.841-1.299,1.441-2.776,2.021-4.205l.136-.326c.563-1.331.831-2.173.8-2.508-.277.118-.732.89-1.358,2.297-.095.214-.18.402-.25.547-1.001,2.056-2.461,3.914-4.223,5.375-.474.392-1.049.826-1.736,1.075-.945.344-1.927.284-2.874.229-.638-.039-1.239-.073-1.824.004l-.119-.884c.671-.089,1.344-.05,1.995-.012.899.054,1.746.103,2.516-.176.558-.203,1.057-.581,1.47-.924,1.665-1.381,3.045-3.137,3.991-5.078.066-.138.147-.317.236-.519.616-1.383,1.186-2.548,1.94-2.799.25-.082.507-.058.735.069.76.543.231,1.975-.478,3.652l-.132.315c-.596,1.466-1.211,2.983-2.097,4.353-1.021,1.58-2.244,2.706-3.635,3.347-1.403.645-2.94.779-4.411.779h0Z" fill="#000" stroke-width="0" data-sg-fill="sg-fill-0" />
  <path d="M82.781,71.177c-.174,0-.393-.07-.645-.297-1.58-1.435-3.652-1.918-5.111-2.071-1.86-.194-3.714-.002-5.772.249l-.108-.886c2.114-.258,4.022-.454,5.972-.25,1.557.163,3.757.678,5.499,2.192l.311-1.718c.008-.041-.028-.071-.065-.081-1.096-.316-2.104-.867-3.078-1.401-.621-.34-1.264-.692-1.911-.971-1.934-.831-4.141-1.086-6.212-.715l-.157-.879c2.24-.399,4.628-.126,6.722.774.686.295,1.347.657,1.988,1.007.974.534,1.894,1.037,2.896,1.326.486.14.785.612.696,1.099l-.355,1.968c-.019.108-.065.364-.287.529-.072.052-.205.126-.385.126h.002Z" fill="#000" stroke-width="0" data-sg-fill="sg-fill-0" />
  <path d="M85.798,71.178c-.431,0-.863-.037-1.289-.111l.152-.879c1.758.299,3.598-.112,5.055-1.142,1.891-1.338,2.754-2.643,3.775-4.735.374-.766.615-1.472.686-1.876-.443.431-1.15,1.479-1.487,1.98-.156.231-.297.44-.415.605-.842,1.183-1.873,1.931-2.966,2.724l-.414.303c-1.231.904-2.639,1.26-4.446,1.109l.073-.89c1.598.13,2.782-.159,3.844-.94l.419-.304c1.076-.781,2.005-1.456,2.763-2.52.113-.16.25-.363.402-.587,1.231-1.826,2.032-2.908,2.784-2.462.576.406.418,1.492-.44,3.25-1.088,2.227-2.014,3.622-4.062,5.071-1.295.916-2.859,1.402-4.434,1.402,0,0,0,.002,0,.002Z" fill="#000" stroke-width="0" data-sg-fill="sg-fill-0" />
  <path d="M73.901,89.925c-.099,0-.198-.022-.29-.065-.181-.084-.32-.243-.38-.435-.499-1.598-1.596-3.019-3.011-3.899l.473-.759c1.533.955,2.735,2.472,3.324,4.188.271-.14.535-.331.811-.529.251-.181.509-.366.787-.524-.217-.56-.477-1.164-.736-1.769-.32-.746-.651-1.517-.898-2.197-.345-.946-.703-1.925-1.183-2.815-.638-1.182-1.397-1.947-2.257-2.271l.316-.836c1.067.403,1.984,1.306,2.728,2.683.511.947.879,1.957,1.236,2.934.239.656.565,1.415.88,2.15.29.675.578,1.349.812,1.963.126.332-.024.709-.348.876-.272.141-.535.331-.813.531-.37.266-.752.542-1.19.723-.082.034-.17.051-.258.051h-.003,0ZM75.753,87.825h0Z" fill="#000" stroke-width="0" data-sg-fill="sg-fill-0" />
  <path d="M90.663,99.038l-.427-.103c-.518-.125-.713-.648-.808-.899-.461-1.238-1.02-2.208-1.708-2.967-.801-.885-1.8-1.472-2.811-1.653-.847-.151-1.719-.038-2.642.082-.393.051-.786.102-1.178.133-1.401.115-2.796-.038-4.148-.44-1.029-.307-2.471-1.133-3.206-2.22l.74-.501c.585.866,1.812,1.593,2.721,1.865,1.245.372,2.532.508,3.823.406.377-.03.754-.079,1.132-.129.95-.124,1.93-.253,2.915-.075,1.204.215,2.382.901,3.316,1.932.688.76,1.256,1.699,1.729,2.861.187-1.498-.091-2.83-.802-3.754-.48-.624-1.189-1.138-2.233-1.619-1.955-.901-4.12-1.297-6.271-1.147-.196.013-.392.031-.588.05-.651.061-1.32.124-2.003.029-1.102-.152-1.987-.732-2.366-1.551l.811-.375c.295.638,1.06.956,1.677,1.041.579.08,1.172.024,1.798-.033.203-.019.406-.038.608-.052,2.291-.156,4.615.263,6.707,1.227,1.181.543,1.996,1.142,2.568,1.886,1.429,1.857,1.088,4.294.756,5.581l-.11.426h0Z" fill="#000" stroke-width="0" data-sg-fill="sg-fill-0" />
  <path d="M73.573,108.603c-.312,0-.617-.034-.909-.105-1.074-.26-1.884-.991-2.281-2.057-.759-2.037-.03-3.118.741-4.263.297-.439.602-.893.863-1.443h0c.527-1.11.715-1.9.121-2.658-.068-.087-.409-.33-.658-.506-.944-.671-2.014-1.429-1.69-2.238.072-.222.262-.398.526-.469,1.155-.31,4.164,1.742,4.912,2.409,1.519,1.358,3.062,4.065,3.073,6.613.006,1.405-.476,2.589-1.395,3.426-.904.822-2.145,1.292-3.302,1.292h-.001ZM72.795,101.118h0c-.29.611-.63,1.115-.93,1.56-.748,1.11-1.243,1.845-.645,3.451.295.792.867,1.311,1.655,1.502,1.095.269,2.462-.127,3.398-.98.738-.67,1.108-1.599,1.103-2.761-.01-2.261-1.436-4.754-2.774-5.95-1.063-.95-3.308-2.189-3.973-2.222.169.297.975.869,1.338,1.126.444.315.703.502.844.683,1.051,1.34.357,2.805-.017,3.591h0Z" fill="#000" stroke-width="0" data-sg-fill="sg-fill-0" />
  <path d="M61.801,99.835c-.622,0-1.297-.079-2.053-.237-.628-.132-1.333-.339-1.798-.889-.631-.746-.559-1.764-.443-2.661l.234-1.801c.184-1.416.374-2.881.055-4.266l.87-.201c.355,1.542.146,3.156-.039,4.581l-.234,1.801c-.097.74-.157,1.501.239,1.968.29.342.795.487,1.299.592,1.242.259,2.229.288,3.103.083,1.04-.241,1.909-.856,2.327-1.647.549-1.04.368-2.268.175-3.57-.165-1.11-.335-2.257-.058-3.371l.867.215c-.234.943-.084,1.954.075,3.025.205,1.386.417,2.82-.269,4.117-.545,1.031-1.607,1.797-2.915,2.1-.453.105-.926.158-1.436.158v.003h.001Z" fill="#000" stroke-width="0" data-sg-fill="sg-fill-0" />
  <path d="M61.927,108.026c-1.126,0-2.163-.297-2.958-.851-1.079-.752-1.699-2.005-1.579-3.193.048-.476.203-.923.354-1.355.209-.6.407-1.167.253-1.675l.855-.26c.239.787-.017,1.52-.264,2.229-.14.401-.272.781-.31,1.15-.087.871.384,1.802,1.202,2.371.731.509,1.736.751,2.823.678.588-.039,1.653-.219,2.177-.983.453-.66.392-1.596.271-2.425l-.038-.26c-.136-.906-.276-1.843.049-2.755l.841.3c-.249.701-.131,1.489-.006,2.322l.039.265c.145.999.208,2.145-.419,3.059-.547.796-1.56,1.282-2.854,1.368-.147.01-.292.015-.435.015h-.001Z" fill="#000" stroke-width="0" data-sg-fill="sg-fill-0" />
  <path d="M63.489,115.498c-1.88,0-4.076-.848-4.959-2.806-.592-1.315-.434-2.821-.307-4.03l.888.092c-.121,1.161-.26,2.475.234,3.571.747,1.659,2.771,2.352,4.37,2.274.389-.017.69-.066.945-.156.73-.258,1.32-.972,1.501-1.82.169-.789.014-1.682-.438-2.514l-.142-.253c-.274-.478-.584-1.02-.511-1.659l.888.101c-.04.349.173.72.398,1.114l.153.271c.553,1.019.74,2.13.527,3.127-.246,1.145-1.061,2.117-2.077,2.476-.341.12-.723.186-1.204.207-.087.003-.175.005-.264.005,0,0-.002,0-.002,0Z" fill="#000" stroke-width="0" data-sg-fill="sg-fill-0" />
  <path d="M64.989,121.69c-.947,0-1.895-.29-2.65-.856-1.353-1.014-2.026-2.871-1.639-4.516l.869.204c-.308,1.31.228,2.789,1.306,3.597s2.648.906,3.819.245c.307-.174.554-.378.733-.605.182-.232.324-.529.423-.883.333-1.205-.036-2.611-.917-3.498l.633-.63c1.118,1.124,1.567,2.838,1.144,4.366-.13.468-.325.871-.581,1.197-.252.319-.586.598-.995.829-.649.368-1.396.549-2.144.549h0Z" fill="#000" stroke-width="0" data-sg-fill="sg-fill-0" />
  <path d="M70.836,125c-.206,0-.405-.023-.588-.049-1.042-.153-2.077-.514-2.991-1.043-.181-.106-.732-.426-.754-1.011l.893-.031s.006.094.31.269c.816.474,1.74.795,2.671.931.273.04.587.071.845-.013.207-.065.417-.214.625-.442.665-.727.906-1.806.617-2.746-.29-.942-1.096-1.697-2.056-1.926l.208-.869c1.26.3,2.321,1.294,2.701,2.532.382,1.237.064,2.654-.81,3.611-.317.346-.658.578-1.014.691-.219.071-.441.095-.657.095h0Z" fill="#000" stroke-width="0" data-sg-fill="sg-fill-0" />
  <path d="M73.967,119.105l-.692-.563c.474-.582,1.252-.699,1.796-.737l.208-.013c.445-.026.864-.051,1.178-.241.634-.381.703-1.346.703-1.743,0-.565-.09-1.054-.269-1.456-.273-.607-.772-1.094-1.299-1.61l-.351-.346c-.589-.594-1.373-1.516-1.393-2.656l.893-.016c.014.819.654,1.558,1.135,2.043l.34.336c.564.551,1.149,1.121,1.49,1.883.231.518.348,1.13.347,1.822,0,1.159-.414,2.074-1.136,2.507-.502.302-1.078.337-1.586.366l-.201.013c-.601.041-.971.172-1.164.409v.002h0Z" fill="#000" stroke-width="0" data-sg-fill="sg-fill-0" />
  <path d="M74.263,124.055c-.083,0-.166,0-.249-.003l.019-.893c1.598.036,3.056-.294,4.241-.951,1.323-.735,2.302-1.901,2.687-3.2.375-1.264.223-2.761-.426-4.216-.653-1.459-1.725-2.722-2.585-3.659l-.162-.176c-.651-.704-1.324-1.433-1.674-2.375l.837-.312c.29.778.901,1.441,1.493,2.082l.164.178c.906.986,2.036,2.322,2.742,3.898.738,1.649.904,3.366.468,4.834-.451,1.521-1.585,2.879-3.11,3.727-1.26.699-2.793,1.065-4.445,1.065h0Z" fill="#000" stroke-width="0" data-sg-fill="sg-fill-0" />
  <path d="M60.158,55.079c-.31,0-.624-.018-.942-.085-.542-.114-.958-.364-1.201-.722-.214-.313-.304-.713-.266-1.186.059-.785.413-1.47.754-2.131.336-.651.653-1.265.657-1.911l.893.005c-.005.86-.387,1.599-.756,2.315-.314.61-.611,1.185-.657,1.79-.015.184-.007.439.113.614.141.208.43.306.647.351.406.086.859.07,1.295.052l3.212-.121.033.893-3.212.121c-.188.007-.378.014-.57.014h0Z" fill="#000" stroke-width="0" data-sg-fill="sg-fill-0" />
  <path d="M58.436,63.3c-.412,0-1.033-.069-1.38-.567-.352-.504-.256-1.198.266-1.906l.08-.108c.232-.311.473-.634.436-.91l.886-.117c.083.636-.299,1.149-.606,1.56l-.078.104c-.202.276-.391.668-.252.866.128.185.526.198.852.178l4.776-.201.038.893-4.776.201c-.066.003-.149.006-.243.006h0Z" fill="#000" stroke-width="0" data-sg-fill="sg-fill-0" />
  <path d="M58.529,70.597c-.389,0-.859-.035-1.265-.291-.199-.128-.338-.283-.417-.462-.099-.226-.086-.449-.077-.611l.107-1.73.891.056-.107,1.728c-.003.061-.01.168.003.199h0s.016.027.08.069c.236.15.589.153.989.148l3.501-.062.016.893-3.501.062c-.07,0-.144.003-.221.003v-.002h.001Z" fill="#000" stroke-width="0" data-sg-fill="sg-fill-0" />
  <path d="M61.368,76.578c-.385-.21-.871-.217-1.386-.225-.331-.005-.673-.01-1.016-.068-.581-.099-1.014-.353-1.254-.736-.289-.464-.233-1.013-.196-1.377l.888.089c-.032.322-.051.626.066.815.133.213.461.297.645.328.276.047.57.051.88.056.601.009,1.222.018,1.8.333,0,0-.427.785-.427.785Z" fill="#000" stroke-width="0" data-sg-fill="sg-fill-0" />
  <path d="M62.504,86.631c-.465,0-.929-.025-1.387-.076-.352-.038-.726-.099-1.066-.276-.343-.178-.599-.451-.761-.641-.911-1.064-1.352-2.528-1.181-3.918l.886.108c-.14,1.145.223,2.352.973,3.229.181.212.338.348.494.429.222.116.504.154.751.181.62.069,1.249.089,1.875.057l.044.891c-.209.01-.419.016-.629.016,0,0,0,0,.001,0Z" fill="#000" stroke-width="0" data-sg-fill="sg-fill-0" />
  <path d="M61.552,97.489c-.72-.274-1.298-.872-1.546-1.6-.215-.626-.174-1.257-.134-1.867.022-.338.042-.656.02-.965l.891-.063c.026.369.003.733-.02,1.085-.036.547-.069,1.063.087,1.52.162.474.553.877,1.02,1.054l-.317.836h0Z" fill="#000" stroke-width="0" data-sg-fill="sg-fill-0" />
  <path d="M61.926,105.885c-.642-.25-1.138-.6-1.476-1.04-.432-.562-.583-1.288-.393-1.897l.853.265c-.105.336-.01.753.249,1.088.237.31.604.563,1.092.753l-.324.832h0Z" fill="#000" stroke-width="0" data-sg-fill="sg-fill-0" />
  <path d="M62.779,113.081c-.533-.147-1.144-.354-1.629-.777-.573-.5-.842-1.238-.686-1.882l.869.211c-.09.367.139.766.405.998.351.305.843.469,1.279.589l-.237.862h0Z" fill="#000" stroke-width="0" data-sg-fill="sg-fill-0" />
  <path d="M64.983,119.042c-.355,0-.77-.041-1.156-.227-.552-.266-.905-.789-.899-1.333l.893.01c-.002.193.16.406.394.519.292.14.664.147.956.133l.035.893c-.071.003-.146.004-.223.004h0Z" fill="#000" stroke-width="0" data-sg-fill="sg-fill-0" />
  <path d="M70.56,122.727c-.513,0-1.03-.174-1.436-.488-.213-.163-.326-.37-.367-.669l.884-.12c.008.057.017.074.017.075.284.218.64.333.982.306l.054.891c-.045.003-.09.004-.134.004h0Z" fill="#000" stroke-width="0" data-sg-fill="sg-fill-0" />
  <path d="M76.005,121.519c-.388,0-.775-.066-1.137-.199l.309-.839c.527.194,1.131.194,1.658,0l.309.837c-.361.133-.75.201-1.138.201h0Z" fill="#000" stroke-width="0" data-sg-fill="sg-fill-0" />
  <path d="M72.921,105.935c-.47-.509-.501-1.217-.469-1.844.044-.877.433-1.174.753-1.268l.252.856c-.019.013-.097.129-.113.457-.024.462-.011.927.234,1.193l-.656.605h0Z" fill="#000" stroke-width="0" data-sg-fill="sg-fill-0" />
  <path d="M54.259,46.916c-.402-.204-.795-.386-1.177-.386h-.004c-.229,0-.461.072-.652.199l-.495-.743c.336-.224.742-.348,1.145-.349h.007c.577,0,1.097.238,1.579.482l-.403.797Z" fill="#000" stroke-width="0" data-sg-fill="sg-fill-0" />
  <path d="M70.351,47.153l-.757-.473c.263-.421.731-.729,1.285-.844.505-.108,1.002-.045,1.38.021l-.153.879c-.297-.051-.685-.102-1.044-.026-.317.066-.575.228-.71.443h0Z" fill="#000" stroke-width="0" data-sg-fill="sg-fill-0" />
  <path d="M62.474,29.329c-.317,0-.579-.215-.643-.529-.307-1.53-.843-2.994-1.593-4.353-.822-1.485-1.88-2.816-3.148-3.955-.139-.126-.218-.302-.218-.483s.078-.357.214-.482c1.203-1.097,2.228-2.359,3.051-3.751.728-1.234,1.291-2.561,1.672-3.942.084-.302.336-.506.67-.482.312.017.564.247.613.558h0c.16,1.036,1.209,2.995,1.874,4.06.658,1.054,1.906,2.654,2.921,3.543.158.14.246.333.242.533-.003.188-.092.366-.242.488-1.326,1.061-2.415,2.343-3.239,3.809-.769,1.369-1.282,2.859-1.524,4.428-.049.321-.309.551-.632.559h-.018,0ZM57.883,20.006c1.255,1.164,2.309,2.513,3.137,4.009.616,1.116,1.095,2.3,1.431,3.53.301-1.278.775-2.498,1.417-3.64.834-1.486,1.923-2.793,3.241-3.891-1.047-.972-2.232-2.501-2.901-3.572-.522-.835-1.368-2.35-1.783-3.565-.385,1.169-.895,2.293-1.52,3.352-.822,1.394-1.839,2.663-3.023,3.777h0ZM62.209,12.047h0v.002-.002Z" fill="#000" stroke-width="0" data-sg-fill="sg-fill-0" />
  <path d="M56.144,34.282l-.279-.227c-.719-.708-1.45-1.229-2.176-1.551-.649-.288-1.27-.403-1.845-.341-.235.024-.461-.118-.57-.363-.112-.253-.068-.521.113-.683.441-.393.805-.922,1.082-1.571.314-.732.513-1.6.593-2.583l.022-.276.294-.172c.179-.07.38-.032.535.105.699.623,1.41,1.106,2.113,1.438.607.288,1.201.459,1.766.508.232.019.433.197.508.454.072.244.003.481-.176.619h0c-.205.158-.606.928-.876,1.681-.205.573-.452,1.605-.508,2.387-.017.223-.14.4-.331.473l-.266.101h.001ZM52.475,31.268c.511.042,1.04.182,1.576.42.635.282,1.267.691,1.887,1.222.113-.695.3-1.416.469-1.889.074-.208.388-1.054.779-1.639-.506-.097-1.022-.269-1.542-.515-.592-.28-1.187-.654-1.773-1.115-.114.793-.31,1.513-.581,2.147-.223.521-.496.979-.815,1.369ZM57.714,29.456h.003-.003ZM57.581,28.93s-.003,0-.003.002h.004v-.002h-.001Z" fill="#000" stroke-width="0" data-sg-fill="sg-fill-0" />
  <path d="M69.253,34.254l-.342-.072c-.191-.072-.315-.249-.331-.474-.055-.779-.303-1.811-.508-2.387-.269-.754-.671-1.524-.876-1.681-.181-.138-.249-.375-.177-.619.075-.256.276-.434.511-.454.563-.049,1.156-.22,1.763-.508.7-.331,1.411-.815,2.113-1.438l.207-.183.329.078c.181.072.299.24.316.447.078.98.277,1.849.592,2.584.278.649.642,1.177,1.081,1.569.181.161.227.429.116.682-.108.247-.342.392-.57.365-.576-.059-1.197.053-1.848.341-.715.317-1.467.853-2.173,1.549l-.203.201ZM68.133,29.382c.392.585.706,1.431.78,1.639.169.474.357,1.196.469,1.888.619-.53,1.252-.939,1.886-1.221.538-.238,1.066-.379,1.578-.42-.319-.391-.593-.849-.816-1.369-.272-.637-.467-1.357-.581-2.147-.588.462-1.182.836-1.772,1.115-.52.246-1.037.419-1.543.515h0ZM67.609,29.456h-.004.004ZM67.738,28.93h0l.002.002s-.002,0-.003-.002h0Z" fill="#000" stroke-width="0" data-sg-fill="sg-fill-0" />
  <path d="M59.404,121.344c-20.832-2.389-37.149-29-37.149-60.583,0-9.514,1.414-18.623,4.201-27.073l.848.279c-2.758,8.36-4.156,17.375-4.156,26.794,0,31.137,15.97,57.358,36.357,59.696l-.101.888h0Z" fill="#000" stroke-width="0" data-sg-fill="sg-fill-0" />
  <path d="M83.098,112.983l-.598-.664c11.937-10.748,19.353-30.504,19.353-51.559,0-9.443-1.405-18.478-4.177-26.855l.848-.281c2.801,8.468,4.222,17.598,4.222,27.136,0,21.3-7.528,41.31-19.647,52.222h0Z" fill="#000" stroke-width="0" data-sg-fill="sg-fill-0" />
  <path d="M33.345,20.567l-.767-.457C40.197,7.33,51.104,0,62.5,0c11.132,0,21.865,7.045,29.449,19.33l-.76.469C83.771,7.784,73.314.893,62.5.893c-11.074,0-21.701,7.172-29.155,19.674Z" fill="#000" stroke-width="0" data-sg-fill="sg-fill-0" />
  <path d="M29.025,43.666l-.876-.18c.393-1.922.859-3.834,1.382-5.682l.86.244c-.518,1.826-.978,3.716-1.367,5.617h0Z" fill="#000" stroke-width="0" data-sg-fill="sg-fill-0" />
  <path d="M32.561,92.3c-4.008-9.342-6.128-20.248-6.128-31.54,0-2.555.11-5.126.327-7.641l.89.077c-.215,2.489-.324,5.034-.324,7.564,0,11.171,2.094,21.956,6.056,31.187l-.822.352h0Z" fill="#000" stroke-width="0" data-sg-fill="sg-fill-0" />
  <path d="M57.73,116.849c-7.966-1.654-15.454-7.57-21.086-16.658l.759-.471c5.501,8.878,12.785,14.651,20.508,16.255,0,0-.181.874-.181.874Z" fill="#000" stroke-width="0" data-sg-fill="sg-fill-0" />
  <path d="M70.133,116.069l-.286-.846c1.362-.461,2.724-1.06,4.046-1.78l.427.785c-1.368.744-2.776,1.363-4.187,1.841Z" fill="#000" stroke-width="0" data-sg-fill="sg-fill-0" />
  <path d="M80.618,109.684l-.602-.659c2.778-2.539,5.328-5.67,7.581-9.305l.759.471c-2.295,3.705-4.899,6.899-7.738,9.493Z" fill="#000" stroke-width="0" data-sg-fill="sg-fill-0" />
  <path d="M92.439,92.3l-.822-.352c3.962-9.232,6.056-20.016,6.056-31.187,0-2.865-.14-5.746-.416-8.563l.89-.087c.278,2.846.419,5.755.419,8.65,0,11.291-2.119,22.197-6.128,31.54h0Z" fill="#000" stroke-width="0" data-sg-fill="sg-fill-0" />
  <path d="M95.898,43.293c-.44-2.102-.967-4.186-1.566-6.196l.856-.255c.606,2.032,1.139,4.141,1.584,6.267l-.874.183h0Z" fill="#000" stroke-width="0" data-sg-fill="sg-fill-0" />
  <path d="M39.655,18.469l-.719-.53c6.543-8.872,14.911-13.759,23.563-13.759s17.02,4.886,23.562,13.758l-.719.53c-6.37-8.638-14.483-13.395-22.844-13.395s-16.475,4.757-22.845,13.396h.002Z" fill="#000" stroke-width="0" data-sg-fill="sg-fill-0" />
</g></svg>