<svg id="a" xmlns="http://www.w3.org/2000/svg" width="100" height="67.221" viewBox="0 0 100 67.221" xmlns:svgjs="http://svgjs.com/svgjs"><path d="M86.808,12.628l1.003-.863-.352-1.276c-.149-.54.438-.984.917-.692l1.133.689,1.105-.73c.467-.311,1.073.111.943.657l-.305,1.289,1.035.825c.435.349.222,1.054-.336,1.102l-1.321.108-.467,1.241c-.197.524-.933.54-1.149.022l-.511-1.222-1.324-.06v-.003h.003c-.559-.022-.8-.721-.375-1.086ZM95.338,41.894c.432.524.495,1.251.165,1.844-.33.597-.978.924-1.654.835l-2.524-.33-1.375,2.14c-.308.479-.829.759-1.384.759-.105,0-.213-.01-.321-.032-.667-.133-1.181-.648-1.305-1.317l-.467-2.502-2.46-.648c-.657-.171-1.136-.721-1.219-1.397-.083-.676.251-1.321.848-1.648l2.235-1.216-.146-2.54c-.038-.679.336-1.305.952-1.59.616-.286,1.333-.168,1.828.298l1.848,1.749,2.371-.924c.635-.248,1.343-.086,1.806.413.464.498.575,1.216.283,1.832l-1.092,2.298h0v.006l1.609,1.968ZM94.605,42.494l-1.803-2.203-.06-.505,1.222-2.571c.187-.397-.044-.692-.121-.775-.076-.083-.356-.333-.765-.175l-2.651,1.032-.502-.098-2.067-1.955c-.159-.149-.324-.194-.467-.194s-.257.044-.308.067c-.102.048-.429.235-.403.673l.162,2.841-.248.444-2.498,1.362c-.387.21-.371.584-.359.695.013.111.089.479.514.59l2.752.724.346.375.524,2.797c.083.432.444.533.552.556.108.022.482.06.721-.308l1.54-2.394.463-.216,2.822.368c.435.057.644-.254.698-.352v.003h.003c.054-.098.21-.441-.07-.781ZM83.516,16.282c1.635,0,2.965,1.33,2.965,2.965s-1.33,2.965-2.965,2.965-2.965-1.33-2.965-2.965,1.33-2.965,2.965-2.965ZM81.503,19.247c0,1.111.902,2.013,2.013,2.013s2.013-.902,2.013-2.013-.902-2.013-2.013-2.013-2.013.902-2.013,2.013ZM87.367,54.77c0,1.194-.971,2.165-2.165,2.165s-2.165-.971-2.165-2.165.971-2.165,2.165-2.165,2.165.971,2.165,2.165ZM86.414,54.767c0-.67-.543-1.213-1.213-1.213s-1.213.543-1.213,1.213.546,1.213,1.213,1.213,1.213-.543,1.213-1.213ZM88.855,50.11c-.466,0-.844.378-.844.844s.378.844.844.844.844-.378.844-.844-.378-.844-.844-.844ZM99.963,29.618h0l-.676-2.752c-.083-.34-.305-.629-.609-.8-.305-.168-.67-.203-1-.095l-8.076,2.648c-.581.19-.94.768-.851,1.375l.025.175c.089.616.622,1.076,1.241,1.076h.01l8.727-.07c.387,0,.743-.181.981-.486.238-.305.321-.695.229-1.07ZM91.808,19.495c.378-.006.765.14,1.035.416l1.6,1.632c.302.305.438.724.387,1.149-.051.425-.295.794-.66,1.016l-6.022,3.635c-.222.136-.473.2-.717.2-.409,0-.813-.181-1.086-.517l-.089-.111c-.429-.527-.413-1.279.035-1.79l4.511-5.152h-.004c.257-.292.622-.467,1.01-.476ZM91.846,20.444c-.124.003-.235.057-.317.149l-4.514,5.155c-.143.162-.146.4-.013.565l.089.111c.137.171.381.216.568.102l6.022-3.635c.117-.07.19-.187.21-.321.019-.133-.025-.267-.121-.362l-1.6-1.632c-.086-.086-.197-.133-.314-.133h-.01ZM54.171,12.127l.159-.044-.263-.089c-.07,0-.064.07.105.133ZM55.075,12.673c.213.041.47.067.387-.079-.232,0-.26-.057-.514-.041-.168-.063-.27-.162-.225-.184-.07,0-.244-.137-.359-.117.178.168.444.295.749.365.051.048-.019.048-.041.057h.003ZM57.339,13.558c-.057-.025-.105-.041-.152-.054.044.022.089.041.136.063.006,0,.01-.006.016-.01ZM50.526,9.816s.01-.013.01-.013M55.063,6.974c.006.079-.378-.114.076.136-.041-.057-.063-.098-.076-.136ZM57.32,13.568c-.016.006-.022.016-.006.035.029-.01.057-.006.102.013l-.095-.048ZM41.8,26.406l.044.048.032.029.064.06.124.117c.34.305.686.575,1.06.775-.01.01-.092-.029-.171-.07.14.089.311.235.33.171l-.143-.076c-.083-.114.083-.06.27.013.194.067.416.156.438.143-.34.025.695.444.194.432.102.041.238.079.235.029.089.057.133.098.105.108.108.041.213.089.318.14.108.025.175.032.454.156v.016c-.013.022-.086.006-.146.006.006.003.016.01.022.013.257.044.514.114.902.273-.022.007-.012.027-.044.023.155.052.306.098.45.139.171.035.336.07.502.102.089.019.175.038.267.057,1.346-2.216,2.632-4.13,3.921-5.622-.273-.038-.556-.054-.568-.025-.19-.06-.032-.067-.14-.13-.244-.108-.676-.111-.784-.241-.01-.01.013-.01.041,0-.229-.073-.651-.292-.546-.165-.416-.248-.844-.397-1.136-.66-.273-.054-.654-.524-.8-.467.111-.086-.594-.629-.86-.806.105.038-.168-.216-.038-.178-.105-.102-.206-.2-.298-.289-.098-.092-.187-.175-.257-.235-.143-.117-.225-.168-.19-.079-.054-.073-.111-.146-.168-.216-.302.352-.679.987-.746,1.13-.133.241-.257.451-.441.54-.54.943-1.057,1.803-1.571,2.632-.098-.108.59-.902.441-.952-.47.803-.657,1.305-1.206,2.063-.111.146-.098.102-.044-.006.048-.102.083-.181.098-.229l-.089.149-.146.229-.149.238-.073.117c.022.035.06.07.089.105.121.133.241.263.359.397ZM45.886,28.809c-.025-.008-.048-.014-.074-.023.039.016.059.021.074.023ZM42.717,8.381c-.057-.225-.025-.517-.108-.543.063-.375.089-.67.152-.981.041-.156.083-.314.127-.492.025-.086.051-.181.076-.279.038-.095.076-.197.121-.305l.038-.01c-.003-.137.086-.321.178-.489.105-.165.216-.311.229-.403.022.041-.01.133.029.127l.168-.387c-.067.194-.025.34.146.048.111-.349-.095.057-.064-.127.044-.013.098-.022.146-.035.14-.225.089-.356-.127-.098.489-.79,1.092-1.495,1.724-2.029l-.025.105c.168-.149.378-.321.571-.467.187-.156.397-.241.521-.295,0-.022.073-.111,0-.092.356-.308.175-.054.406-.206-.063.051-.114.098-.114.127.295-.216.619-.391.933-.587.038.048.686-.121,1.108-.302.01-.035-.13-.035-.244,0,.092-.044.184-.076.276-.114l.254.044.379-.221-.005-.017c.029-.006.054-.019.083-.019-.025.009-.05.028-.074.04l.03.087c.298-.092.394-.235.648-.283.473-.079.67-.051.825-.051.159.013.283.022.619.035.064-.184,1.07-.054,1.238-.162.895.143,2.197.203,3.324.565l-.098-.01c.46.213.59.025,1.098.235l-.14-.019c.311.162.755.343,1.194.533.219.092.435.2.638.286.2.095.384.184.536.257-.13-.048-.102.035.079.152.171.073-.073-.209.222.035-.086-.038-.048.035.022.086.121.044.235.098.356.149.187.159.371.34.559.53.089.102.187.19.273.298l.133.156c.019.022.048.057.083.105l.098.13.194.257.095.13c-.016.044-.063.086-.092.127-.127.156-.254.308-.381.464-.162.197-.317.397-.46.594-.14.121-.079-.003-.079-.057-.476.609-.902,1.254-1.33,1.806l-.127-.013c-.216.263-.006.27-.362.552-.073.07.181-.232.222-.356-.498.479-.175.381-.6.879l.013-.21c-.375.346-.314.486-.375.673-.013.025-.022.044-.035.067-.013.025-.044.067-.064.095-.048.063-.089.121-.13.171-.079.102-.149.178-.213.238-.124.117-.216.168-.321.232-.076-.136-.152-.273-.26-.422-.054-.076-.117-.156-.19-.244-.038-.044-.076-.089-.124-.14-.032-.029-.067-.06-.102-.092-.143-.067-.032.095-.175.029-.206-.244-.346-.356-.489-.463-.143-.111-.283-.213-.53-.41-.171-.346.263.19.06-.165.127.105.248.216.365.33-.133-.171-.054-.114.06-.032.114.083.257.206.27.143-.216-.248-.66-.482-1.035-.66.041-.073.413.251.311.054l-.2-.086c.06.01.086-.01.194.06-.025-.102-.21-.149-.394-.241-.032.032-.051.089-.022.171,0-.01-.01-.025-.032-.051-.41-.108-1.022-.435-1.394-.416.057-.01.013-.029,0-.051-.241-.06-.511-.003-.838,0-.175-.067.121-.181-.419-.168-.092.07.13.178-.295.184,0,0,.089-.016.159-.038.07-.019.117-.044.013-.07-.425.063-.136-.032-.533-.067-.206.121-.432.044-.432.21-.159-.067-.111-.038-.384-.019.07.016-.035.086-.143.162-.105.086-.213.178-.175.216-.162-.041.298-.34-.057-.27-.086.095-.206.213-.283.333-.083.111-.117.229-.083.276-.117.108-.21.143-.324.375.022-.035.022-.092.022-.121-.067.225-.14.502-.14.768-.01.133.025.251.041.356.041.098.079.178.13.225-.051-.006-.057.044-.038.124.006.041.022.089.038.136.025.048.051.095.076.143.102.187.238.333.051.238.035.041.073.083.117.127.048.041.102.079.149.114.092.07.19.114.229.127-.114.092.378.375.543.565.143.01.467.241.708.317-.105-.038-.168-.044-.152.006.27.083.181.098.359.27.356.136-.01-.127.222-.079.273.181.003.102.029.181l.502.089c.083.057.136.111.156.162.171.035.33.044.521.206l-.384-.175.114.133.495.127c.578.368.378.432.26.53.019.006.038.016.057.025,1.022.464,2.117.959,3.155,1.559l.184-.016c-.394-.248-1.092-.375-1.216-.641l.209.089c0-.035-.076-.19-.384-.263-.076-.022-.146,0-.114.035l-.146-.095c.14-.032.663.203.994.352-.117-.022-.378-.127-.327-.038.298.121.597.216.879.349-.127-.032-.219-.022-.289-.022.279.21.257.076.489.2.07.076.114.136.044.124.292.149.527.27.784.511.003-.006-.289-.14-.232-.044.057.038.114.079.171.117.194.108.34.175.489.241.184.089.365.19.654.387.181.102.327.238.47.371.073.07.14.136.203.206.06.076.117.149.171.222.108.146.213.286.314.413.092.136.184.257.289.359.051.003-.19-.387.044-.098-.098-.006.089.21.073.241.318.273.273.524.486.73-.029-.025-.022.019,0,.086.016.07.038.165.057.241-.105,0,.133.416-.213-.054.178.241.279.486.359.711.067.235.136.441.305.629l-.016-.156c.019.098.044.197.057.295l.025.298v-.025c.025.257.063.295.013.648-.041-.143-.083-.352-.127-.495-.016.162.029.317.083.479.038.165.086.333.098.508-.073-.013-.044-.362-.124-.254.003.244.063.454.095.682l-.041-.032c-.098.61.197.248.035.692.025-.01.044.048.07.022-.048.168-.171.543-.171.156-.025.21-.019.454,0,.568.092-.168.063-.219.146-.276-.025.289-.07.578-.127.867-.022.095-.019-.079.01-.2-.213.476-.327.975-.511,1.479-.022.06-.051.117-.073.178-.016-2.552-1.892-4.473-4.384-4.473-.736,0-1.444.159-2.136.454-.137-.213-.314-.416-.524-.6-.66-.575-1.492-1.009-2.317-1.362-.133-.029.054.067.054.114-.136-.076-.14-.178-.356-.216l.019.07c-.679-.479-2.232-.889-2.686-1.39-.762-.283-1.194-.67-2.098-1.086-.238-.206.359.111.01-.124-.276-.133-.536-.302-.806-.451l.044.022c-.206-.092-.409-.26-.625-.441-.213-.184-.406-.425-.616-.654-.194-.248-.384-.505-.568-.752-.162-.267-.359-.498-.521-.73l.032.038c.048,0-.025-.225-.127-.375-.057-.041-.01.073.016.184-.292-.416-.406-.705-.53-.959-.133-.254-.184-.508-.308-.889.152.317-.044-.321.051-.375-.086-.197-.063.137-.184-.317-.025-.165-.064-.327-.064-.486v-.467c.003-.152.01-.298.01-.444.016-.146.032-.286.048-.422ZM61.304,24.015c.019.019.048.019.073.019.049-.184.055-.267.036-.301-.034.093-.071.189-.109.282ZM59.253,15.25c.089.076.175.156.26.238v-.004c-.085-.077-.168-.154-.254-.232-.001,0-.005-.002-.006-.002ZM60.948,4.581c.105-.13.206-.251.289-.349-.004.004-.009.009-.013.013-.078.096-.173.209-.275.333-.021.001-.031-.01-.031-.028-.002.022.008.034.031.031ZM55.92,12.787s-.006.005-.013.008l.086.031-.073-.038ZM55.907,12.794h-.003s0,.002,0,.002c.002,0,.002-.001.003-.002ZM55.631,12.698l.184.063c-.06-.029-.133-.067-.184-.063ZM57.996,13.965c.124.013.381.352.54.4-.133-.098-.295-.308-.508-.41l-.032.01ZM82.51,1.425c-.029-.048-.089-.022-.076.111l.105.095-.029-.206ZM82.554,2.555c-.102-.156-.06-.19-.178-.359-.013-.133.035-.232.073-.21-.025-.048.022-.206-.044-.279-.083.171-.086.391-.016.619-.022.048-.051,0-.07-.01h-.003v.003c.051.156.14.337.238.235ZM82.567,4.108h.003c-.006-.044-.016-.083-.029-.117l.01.111s.01.003.016.006ZM82.519,4.114h0s-.002-.002-.003,0h.003ZM82.519,4.113s0,0,.001,0c0,0,0-.002-.001-.002v.002ZM82.557,4.181c0-.025-.003-.054-.006-.076-.011-.006-.022-.004-.031.008.021.013.034.034.037.068ZM82.579,8.498l.003-.003h-.003v.003ZM62.691,8.498c-.035-.229-.13-.343-.124-.644.006-.041.006-.076.006-.114l.006-.054v-.029c.003-.035.01-.07.01-.102.006-.063.013-.117.019-.162.016-.092.029-.152.041-.21.025-.111.057-.2.105-.444-.187-.057.006-.781-.127-.905.14-.654.054-1.603.095-2.46l.016.07c.086-.368-.143-.419-.105-.813l.029.098c.035-.175.044-.397.044-.632-.003-.149-.013-.298-.013-.451-.01-.2-.019-.397-.029-.584.162-.013.317-.025.46-.035.076-.006.149-.013.219-.019.035-.003.07-.01.105-.01.038-.003.07-.01.083-.01-.14.029-.035.089.108.083.133-.035-.127-.13.146-.095-.067.019-.016.06.048.06l.267-.092c.702.064,1.524.13,2.251.076.13.032.032.067,0,.098.575-.019,1.146-.098,1.667-.114l.054.108c.254,0,.159-.165.489-.07.073.013-.219.006-.311.054.511.083.302-.105.79-.092l-.127.121c.375.073.425-.063.562-.136.527-.143.375.235,1.089.127.114-.06-.038-.089.076-.149.502.032.562-.054,1.067-.022.267.184-.257,0,.035.171l-.384-.041c.33.098-.298.025-.248.133.251.032.625-.06.949-.095,0,.083-.375.01-.225.121l.165-.032c-.044.025-.051.054-.149.054.06.073.194,0,.352,0,.009-.042,0-.097-.044-.151,0,0,0,0,0,.001-.025-.025-.057-.054-.108-.079.398-.006.105.014.109.072.006.008.013.016.034.024.324-.121.87-.029,1.149-.121-.044.025-.006.032.01.051.197.006.397-.102.66-.133.146.06-.083.178.34.146.076-.067-.111-.181.241-.181,0,0-.308.054-.143.102.346-.048.114.022.429.098.181-.095.346.035.384-.121.114.105.083.067.302.14-.098-.083.413-.083.397-.184.092.114-.368.14-.083.26.194-.076.559-.105.587-.229.149.029.219.073.451.086-.035-.006-.083.016-.105.029.416-.083,1.025,0,1.257-.149-.083.181.876.022.562.19.173-.003.438-.078.502-.113,0,0,.003,0,.003-.001-.019.14.429.035.616.117.095-.079.406-.054.594-.098-.083.016-.127.041-.098.079.213-.057.159-.003.34.063.286-.041-.051-.105.121-.171.248.032.038.089.083.146l.368-.14c.076.016.13.041.159.079.127-.041.241-.102.419-.029h-.317l.121.073.375-.089c.505.098.39.235.34.375h.048v2.619l.108.114c.01-.34-.2-.844-.019-1.019l.019.168c.032-.013.127-.114.06-.343-.016-.073-.092-.121-.089-.022l.032-.171c.086.083.108.508.133.775-.035-.083-.063-.289-.117-.225.029.238.086.463.114.692-.035-.092-.089-.149-.124-.194-.048.257.057.194.067.387-.035.076-.06.124-.086.076.038.241.044.435,0,.692,0,0-.051-.235-.098-.162v.136c.057.381.149.502.203.968.143.59-.089,1.146.016,1.555.038.022.067-.308.092-.041-.079-.048-.048.159-.079.171.016.035.025.07.032.102.006.032.013.089.013.13.003.086,0,.165-.006.235-.013.143-.025.251.01.441-.003-.016-.01-.022-.016-.016-.064-.019-.26-.044-.387-.063-.006-.048-.114-.057-.159-.073-.051-.013-.01-.032.168-.102-.089.038-.203.054-.314.06-.121.006-.2.006-.292.006-.178,0-.34.01-.502.121l.111.029-.435-.044h.019c-.187-.016-.216.01-.47-.089.108-.022.267-.025.375-.048-.232-.086-.483.07-.74.076.013-.07.27-.022.194-.108-.181-.01-.34.041-.508.06l.025-.038c-.451-.086-.175.19-.508.06.01.022-.035.048-.013.07-.127-.041-.413-.111-.127-.159-.156,0-.336.032-.416.076.133.057.165.029.216.102l-.635.041c-.07,0,.054-.038.143-.038-.248-.07-.495-.073-.749-.057-.121.01-.279.022-.343.035-.083.013-.156.025-.229.032.006.089.006.162-.006.244-.01.054-.019.108-.029.165-.013.07-.029.14-.051.21.064-.095.054.06.098.143-.019.273-.003.683-.041.937l-.044-.079c.054.648.124,1.095.095,1.524.016.022-.063-.003-.076-.079.083.314-.168.695,0,.781l.013-.117c-.029.625.092,1.317.114,1.965-.102.149-.01-.375-.13-.241-.038.448.048.902.013,1.39-.013-.079-.025-.06-.032-.098-.063.486.102-.054.086.356-.051-.022-.064-.003-.089.133l.079.121c-.013.019-.073.016-.098-.044.105.181.035.727.133.87-.025.035-.117-.067-.156-.01-.029.216.01.368.048.511-.07.152-.057.527-.07.448-.032.39.057.06.117.359l.044-.311.022.549-.048-.219c-.041.254.044.511.044.806l.057-.133.035.336c-.121.032-.029.429-.165.244-.06.625.095,1.025.105,1.594,0-.098-.025-.06-.044-.079-.029.333.035.533.095.73-.035-.041-.048-.121-.079-.121,0,.391.07.238.105.67-.051-.121-.076-.083-.089.035.041-.016.073.083.086.162-.235-.327-.095.486-.283.279.051.022.152.695.248.502l-.019-.117c.067-.013.044.146.044.267-.01-.064-.025-.13-.038-.13.076.613.003,1.254.063,1.943-.022-.057-.067-.336-.086-.159-.035.682.086,1.079.146,1.768-.149.032-.022-.746-.165-.771.016.336.035.682.06,1.035.013.175.029.356.041.536.016.317.032.638.048.968-.076.006-.168.01-.26.016-.356-.111-.619-.089-.86-.06-.616-.775-1.505-1.238-2.511-1.238v-.01c-.994,0-1.914.467-2.549,1.241-.013-.006-.032-.016-.079-.016,0,.032-.143.067-.314.083-.098.016-.549.016-.708-.022.178.003.194-.029.302-.054-.216.013-.441.022-.676.029-.003-.194-.013-.387-.013-.584v-1.159c0-.457-.006-.914-.06-1.362l.105.181c.133-.641-.175-.422-.159-.93.051-1.387.2-2.828.133-4.184-.032-.102-.038.057-.083.073.013-.117.098-.152.044-.311l-.057.035c.152-.619-.105-1.787.136-2.244-.089-.59.067-1.006-.07-1.727.051-.229.098.263.111-.044l-.089-.667.01.035c-.171-.641.187-1.698.067-2.505l.01.035c.038.019.086-.149.073-.279-.029-.044-.041.041-.076.121-.067-.717-.07-.876-.083-1.444.06.248.051-.225.133-.251-.054-.149-.086.086-.13-.248-.006-.476.063-.911.092-1.305-.073-.159-.054-.368-.143-.378v-.238c0-.063-.006-.184-.006-.165-.003-.019-.01-.032-.016-.044-.01,0-.032.006-.032.006h-.089l-.016-.032c-.178.111-.568-.057-.692.006.016-.038.089-.054.07-.086l-.298.035c.14-.035.219-.14-.025-.152-.254.079.07.054-.054.117l-.076-.105c-.194.01-.248.127-.013.159-.657,0-1.308.048-1.892.032l.063-.067c-.324.025-.762.025-.956-.035-.01.022-.089.057-.038.079-.387.089-.041-.111-.463-.013.105-.025.235-.041.254-.079l-.79.083c-.01-.051-.489-.162-.822-.117-.013.029.083.067.168.073l-.213.025-.041-.029c-.019-.01-.044-.019-.067-.029l-.124-.057c-.168.032-.356.067-.565.102l.073-.098c-.048.003-.092.006-.136.013ZM82.3,6.263l.076-.095s0-.001,0-.002l-.075.094v.003ZM65.663,1.168s.01.002.015.003h0c.102.024.25.042.214.06.036-.018-.109-.036-.213-.06h.286c.011.015.009.03-.002.041.013-.012.015-.027.002-.044h-.302ZM62.742,8.622l.019-.025-.124.022.105.003ZM82.16,8.451s.016-.029.016-.038h-.003l-.013.038ZM82.576,2.921h.006v-.003s-.01,0-.016-.006l.01.07v-.06ZM82.557,2.844c0,.032,0,.057.01.067M82.557,2.844c0-.051,0-.111-.022-.143M82.592,4.689l-.025-.016c.048.079-.076.375-.022.492.006-.121.07-.305.048-.476ZM76.999,14.498l.048-.171-.073-.083.025.254ZM11.359,7.892h.003c.029-.013.051.035.044.073.01-.025.044.022.06-.044-.038-.083-.083-.086-.133-.016-.01-.022,0-.051,0-.07-.035.051-.073.14-.051.238.032-.102.041-.06.076-.178v-.003ZM10.978,8.06c-.006.003-.016.01-.022.01v.015s.017-.014.022-.025ZM10.956,8.086h0s-.003.003-.003.003c.003,0,.003-.003.003-.003ZM12.458,9.53c.022-.013.051-.025.076-.035-.06.019-.092-.038-.076.035ZM10.953,8.035c0,.022-.006.035-.016.038v.003s.013,0,.016-.006v-.035ZM11.448,11.876l.013-.019-.013-.003v.022ZM10.023,8.019c-.003.01-.006.038-.006.038M7.045,8.835c.016.025.01.006-.003-.01,0,0,0,.006.003.01ZM7.032,7.993c.019.006.032.01.01-.041,0,0-.003.032-.01.041ZM7.147,10.27l.003-.01h-.003v.01ZM6.991,7.993c.025.019.035.013.041,0M11.207,8.095v-.008l-.013.008h.013ZM11.255,8.054l-.032.022M10.826,8.089c-.013.048-.076-.076-.102-.022.025.006.067.07.102.048v-.025ZM7.594,8.009l-.057.025.038.051.019-.076ZM18.559,13.819c.137.076.317.149.327.01h-.003c-.175-.044-.165-.105-.368-.133-.098-.083-.133-.181-.089-.194-.048-.016-.127-.156-.222-.156.07.168.206.324.413.432.016.051-.035.035-.057.041ZM19.784,15.044h.019v-.003c-.029-.035-.057-.06-.086-.083l.067.086ZM19.083,10.362h-.016s.013.022.016,0ZM19.889,15.196c-.019-.032-.035-.063-.057-.092M19.762,15.073s.002,0,.002-.002c0,0-.001-.001-.002-.001v.003ZM19.764,15.07c.025,0,.046.009.068.037-.016-.022-.029-.041-.044-.06-.015,0-.022.008-.023.023ZM12.229,9.146c.006.018.028.008.046.006-.025,0-.046-.006-.046-.006ZM3.902,27.859l.005-.011s-.005.007-.008.011c0,0,.003,0,.003,0ZM13.21,21.641c-.021.015-.037-.053-.031-.076-.009.022-.023.04-.019.067l.051.01ZM.068,20.799c.051-1.321.2-2.689.133-3.978-.032-.095-.038.054-.083.07.013-.111.098-.143.044-.295l-.057.035c.152-.587-.105-1.698.136-2.133-.089-.565.067-.962-.07-1.644.051-.216.098.251.111-.041l-.089-.635.01.035c-.171-.609.187-1.613.067-2.381l.01.032c.038.019.086-.14.073-.263-.029-.044-.041.041-.076.114-.067-.682-.07-.835-.083-1.375.06.232.051-.219.133-.241-.054-.143-.086.083-.13-.235-.006-.451.064-.863.092-1.238-.073-.152-.054-.352-.143-.362-.006-.508-.041-.79-.041-1.416l.032-.016c-.111-.168.057-.54-.006-.657.038.016.054.083.086.067l-.035-.283c.035.133.14.21.152-.022-.079-.241-.054.067-.117-.051l.105-.073c-.01-.181-.127-.235-.159-.01,0-.622-.048-1.241-.032-1.797l.067.06c-.003-.057-.01-.086-.01-.178-.006-.098-.006-.197-.006-.298,0-.2.003-.397.01-.562.197.01.359.022.473.041.003-.022.124-.057.025-.079.327-.044.359-.016.381.01.032.019.038.044.168.019-.076.016-.146.032-.181.06l.765-.083c.006.051.464.162.781.117.013-.029-.079-.067-.159-.073l.203-.025.156.117.281-.097v-.011s.059.003.059.003l-.044.017.005.085c.216-.019.302-.146.476-.136.654.06.521.095.987.187.054-.187.743.006.86-.127.356.086.81.086,1.282.086h.276v.035c.248,0,.498,0,.743.013l-.067.016c.346.086.397-.143.771-.105l-.095.029c.483.102,1.33.01,1.787-.07-.092.029-.048.089.102.083.127-.035-.121-.13.14-.095-.067.019-.016.06.044.06l.254-.092c.667.063,1.451.13,2.14.076.124.032.032.067,0,.098.54-.022,1.14-.063,1.66.038l.029.114c.244.06.197-.114.492.079.067.038-.213-.063-.314-.044.232.121.311.117.394.108.079-.006.168-.035.39.086l-.165.054c.308.232.416.133.578.133.263.089.317.197.378.314.07.114.13.257.432.457.127.032.032-.092.159-.057.181.184.27.298.381.394.051.051.105.102.165.165.054.067.111.149.178.26.006.327-.146-.213-.117.127-.063-.111-.121-.229-.19-.336.063.159.019.098-.06.022-.079-.079-.181-.181-.203-.127.146.194.419.448.635.695-.07.044-.219-.298-.229-.117l.121.114c-.044-.022-.076-.013-.127-.092-.035.092.111.152.181.289.039-.012.082-.047.108-.114.012-.035.022-.078.012-.131.206.347.035.091-.008.131-.003.01-.005.02-.005.041.127.111.241.298.343.482.086.194.168.378.267.489-.044-.032-.032.006-.044.025.076.178.229.336.346.575-.016.152-.187-.025-.041.362.083.054.149-.156.235.184,0,0-.127-.283-.133-.111.13.321.01.114.01.432.14.149.035.336.197.343-.083.127-.048.092-.083.314.07-.108.152.381.244.356-.105.105-.187-.333-.27-.041.098.175.171.521.298.536-.01.149-.048.219-.048.444.006-.035-.022-.076-.035-.098.054.197.076.444.095.67.016.225.035.429.114.543-.095-.038-.089.175-.095.362-.006.19-.019.349-.095.19,0,.168.057.441.086.502-.137-.029-.073.419-.187.59.067.108-.013.403-.006.594,0-.086-.013-.133-.057-.111.016.216-.029.156-.133.311-.025.283.117-.025.14.156-.092.229-.095.013-.162.041.013.127.025.257.035.387-.035.067-.076.108-.121.124-.003.13.019.26-.108.403.035-.098.07-.197.102-.295l-.108.089c-.016.124-.029.251-.048.378-.283.425-.365.257-.473.159-.003.013-.01.029-.016.041.622.536,1.165,1.175,1.609,1.886l.149.035c-.162-.289-.609-.559-.571-.794l.117.114c.016-.029.032-.165-.159-.298-.057-.048-.143-.032-.083.038-.025-.048-.051-.098-.079-.146.117.003.4.308.565.511-.076-.048-.216-.194-.222-.111.156.171.333.314.473.492-.079-.06-.156-.076-.206-.092.095.232.149.124.257.279.01.076.01.133-.035.105.146.184.251.343.314.587,0,0-.146-.178-.156-.092.019.038.038.079.057.117.21.298.34.368.552.775.336.498.248,1.086.416,1.454.041.013.01-.308.083-.057-.086-.029-.019.162-.048.181.152.26.038.413.133.603-.029-.044-.044.124-.063.232-.098-.022-.016.308-.184-.083.095.2.095.384.095.556.01.171.013.327.114.486l.032-.108-.063.422v-.019c-.032.181.013.213-.127.444-.003-.105.003-.257-.016-.362-.086.216.022.467-.006.714-.067-.022.013-.257-.083-.197-.038.171-.01.327-.013.492l-.035-.029c-.175.406.149.206-.051.489.025-.003.041.041.067.029-.07.108-.203.356-.184.079-.038.146-.041.321-.032.406.102-.105.076-.146.159-.171-.035.203-.105.4-.156.6-.022.067-.019-.06.01-.143-.111.152-.175.321-.248.489-.073.168-.133.343-.194.524-.054.184-.146.352-.244.524-.105.168-.213.336-.387.463.105-.038.01.079,0,.168-.083.105-.181.238-.279.371-.105.127-.219.241-.311.324l.019-.086c-.092.13-.178.248-.257.359-.083.108-.168.2-.248.292-.162.178-.305.346-.483.457-.006.029-.038-.048.013-.105-.197.251-.629.286-.603.46.035-.019.07-.032.102-.054-.26.152-.511.356-.781.536-.279.165-.546.371-.844.482-.178-.038.337-.14.168-.203-.213.06-.409.149-.616.241-.206.092-.429.149-.66.2.073-.032.051-.038.086-.054-.448.057.029.086-.27.162-.019-.013-.038-.025-.057-.035-.003,0-.006-.006-.013-.006-.391-.219-.829-.375-1.302-.444h-.019c-.216-.029-.438-.044-.686-.044h-.025c.19-.448.286-.924.286-1.422,0-1.822-1.47-3.302-3.273-3.302-.863,0-1.686.317-2.375.921l-.025.022-.025.022c-.662.612-1.72,2.011-3.1,3.945l.005-.011c-.559.044-1.159.121-1.889.327-.41.114-.787.298-1.121.533-.06-.01-.102-.022-.044-.038-.146.025-.406.044-.673.051-.013-.432.013-.895.102-.86-.14-.095.006-.495-.092-.689.051-.286-.029-.613.013-.971-.089.124-.041-.356-.079-.489.006.038.019.114.032.095.076-.108-.067-.413-.022-.616.032-.092.083.022.089-.127-.057-.003-.133-.549-.057-.749-.003.095.029.095.054.152-.102-.952.025-1.971-.102-2.946l.105.171c.133-.609-.175-.4-.159-.883ZM20.34,16.787c.032.083.06.165.086.248l.044-.108c-.063-.092-.102-.127-.13-.14ZM20.042,23.422c.019.013.044.019.064.019.041-.127.041-.187.022-.216v.003c-.029.063-.057.13-.086.194ZM8.356,21.58c-.032,0-.06,0-.083-.003.029.025.073.044.063.064.019.003.025-.029.019-.06ZM13.581,21.51c-.016-.025-.041-.048-.064-.057,0,.038-.003.073-.01.111.025-.016.048-.035.073-.054ZM13.959,21.164l-.073-.032c-.003.041.006.07.019.089h.003c.016-.019.032-.038.051-.057ZM14.835,19.523c-.022-.006-.051-.013-.073-.013.006.041.032.057.06.07.003-.019.013-.038.013-.057ZM12.934,16.467c-.039.052-.155.133-.114.218l.032-.016c.003.067-.041.044-.073.044.016-.01.035-.025.035-.038-.168.076-.346.003-.533.063.016-.022.092-.067.044-.086-.187-.035-.298.086-.486.146-.006-.152.206-.022.213-.165-.2.032-.403.086-.625.162-.076-.222-.216.089-.352-.083.013.073-.057.102-.13.102.025-.06-.054-.06-.032-.105-.067.067-.254.095-.248-.048-.016.14-.14-.006-.194.092-.083-.051-.178.029-.279-.013.038.089-.102.041-.14.079.013-.006.035-.019.029-.032-.032-.076-.121.067-.178.022-.025-.032.006-.083-.035-.089,0,.057-.159.133-.216.057.029.003.029-.029.044-.054-.273.102-.568-.025-.848.102l.051-.105c-.175-.133-.114.175-.254.159-.381-.051-.775-.2-1.146-.133-.029.032.016.038.019.083-.032-.013-.041-.098-.086-.044l.01.057c-.07-.076-.257-.051-.229-.035-.019.013-.01.019-.124-.102.003.019,0,.029-.01.029.003.022-.06.041.041.117-.051.006-.098-.057-.111-.029.016.019.044.044.044.044l.022.016.022.044-.01-.01c.171.175-.187.464-.067.686l-.01-.01c-.038-.006-.086.041-.073.076.029.013.041-.01.076-.032.067.197.07.241.083.397-.06-.067-.051.063-.133.07.054.041.086-.025.13.067.006.127-.064.248-.092.356.073.044.054.105.143.105.006.146.041.229.041.413h-.032c.111.051-.057.156.006.19-.038-.003-.054-.025-.086-.019l.035.083c-.035-.038-.14-.06-.152.006.079.07.054-.019.117.016l-.105.022c.01.051.127.063.159,0,0,.181.048.356.032.517l-.067-.016c.025.089.025.206-.035.26.022.003.057.022.079.01.089.105-.111.013-.013.127-.025-.029-.041-.063-.079-.07l.083.216c-.051.003-.162.133-.117.225.029.006.067-.022.073-.044l.025.057-.117.044.102.086h-.098c.019.06.146.086.137.136-.06.19-.095.152-.187.286.092.003.092.067.083.108-.006.022-.022.051.044.038-.083.054-.086.133-.086.194.051-.003.095-.006.137.01l-.016.016c.032.086.098-.143.117-.105l-.01.029c0,.025.057.038.098.041.044.006.092,0,.14-.01.095-.019.187-.063.254-.102-.029.029-.013.089.029.083.038-.035-.035-.13.041-.095-.019.019.013.06.013.06l.073-.092c.19.063.416.13.616.076.035.032.01.067,0,.098.159-.019.314-.098.457-.114l.016.108c.07,0,.041-.165.133-.07.019.013-.06.006-.086.054.14.083.083-.105.216-.092l-.035.121c.105.073.117-.063.156-.136.143-.143.102.235.298.127.032-.06-.01-.089.022-.149.136.032.152-.054.292-.022.073.184-.07,0,.01.171l-.105-.041c.092.098-.079.025-.067.133.07.032.171-.06.26-.095,0,.083-.105.01-.063.121l.044-.032c-.013.025-.016.054-.041.054.016.073.051,0,.095,0,.003-.044.003-.105-.013-.162.003.01.006.019.013.029.089-.117.238-.029.314-.121-.016.025,0,.032,0,.051.054.006.108-.102.181-.133.038.06-.022.178.092.146.016-.047.011-.105.031-.142-.013.019-.023.041-.002.063.095-.048.032.022.117.098.048-.095.095.035.105-.121.032.105.022.067.083.14-.029-.083.108-.083.108-.184.025.114-.102.14-.022.26.054-.076.152-.105.162-.229.041.029.06.073.124.086-.01-.006-.022.016-.029.029.111-.083.279,0,.343-.149-.022.181.241.022.156.19.044-.003.121-.079.137-.114-.006.14.117.035.168.117.025-.079.111-.054.162-.098-.029.016-.038.041-.029.079.057-.057.041-.003.092.063.076-.041-.016-.105.032-.171.067.032.01.089.022.146l.102-.14c.022.016.035.041.044.079.035-.041.067-.102.114-.029h-.086l.032.073.102-.089c.136.098.105.235.092.375h.013c.213,0,.441-.092.663-.241l-.035-.105c-.076.035-.092.295-.219.149l.029-.035c-.015-.024-.073-.091-.098-.025.023-.047.058-.088.085-.124.003.044-.029.089.01.13.038-.048.054-.133.086-.184,0,.041.016.095.025.13.079.003.01-.076.044-.108.035.016.057.029.063.057.029-.07.06-.105.143-.111,0,0-.013.076.032.098.006-.006.016-.01.022-.016.044-.111.006-.206.054-.327-.003-.206.263-.162.248-.314-.025-.025-.102.019-.079-.048.054.057.067,0,.092.016-.048-.127.083-.073.051-.162.016.029.067.01.105,0,.073.06.079-.048.13.121-.057-.175.14-.159-.006-.343l-.038.01c.035-.022.063-.051.095-.073.035-.038.016-.054.137-.07.013.035-.006.073,0,.111.102-.016-.003-.146.019-.21.06.035-.01.076.076.095.029-.038,0-.102,0-.149l.032.022c.13-.079-.156-.117,0-.149-.022-.006-.041-.029-.063-.029.048-.016.14-.063.159.025.016-.041,0-.098-.035-.133-.067.013-.041.032-.114.019.003-.054.013-.111.013-.165.003-.019.032.022.025.044.121-.063.114-.171.089-.276-.016-.105-.041-.197.086-.298-.063.025-.054-.016-.095-.035.016-.07-.003-.178.032-.244l.044.019c-.067-.168-.149-.27-.143-.381-.019-.003.063-.013.079.006-.095-.064.127-.216-.041-.2l-.006.032c-.01-.168-.184-.302-.267-.435.076-.076.044.083.143.006-.006-.127-.14-.19-.168-.317.019.006.029,0,.038.006-.006-.143-.079.06-.121-.035.048-.022.057-.032.057-.076l-.086.019c.006-.01.06-.044.089-.044-.111.016-.133-.14-.238-.105.013-.025.102-.06.124-.095-.013-.063-.067-.073-.121-.073.025-.073-.051-.14-.029-.133-.048-.098-.051.025-.146.016.01.029.016.06.022.089-.038-.032-.076-.057-.114-.079h.073c-.022-.073-.127-.054-.181-.098l-.01.063c-.029-.01-.057-.013-.086-.019.063-.102-.067-.083.048-.168-.102-.143-.267-.057-.387-.098.022.01.022-.016.035-.032-.06-.057-.13-.01-.187.035.016-.035.038-.041.048-.07-.086-.032-.073.048-.168.063.035-.044.035-.07.01-.089-.003.044-.029.07-.048.079.107-.22-.089-.112-.032-.282ZM12.14,1.235s.01.002.014.003h.268c.025.031,0,.058-.064.06,0,0,0,0,0,0,.067.003.089-.029.067-.06,0,0,0-.003,0-.003h-.286ZM10.547,7.819c-.003.021-.014.045-.036.072v.004c.023-.029.039-.054.039-.076h-.003ZM9.058,7.819c-.003.029-.015.054-.041.071v.005c.032-.019.041-.044.044-.076h-.003ZM7.031,8.611c-.167-.032-.074.106-.246.065.051.006.152.149.248.108l-.019-.025c.067-.003.041.032.044.057-.01-.013-.025-.029-.038-.029.076.13.003.267.064.416-.022-.013-.067-.073-.086-.035-.035.149.086.232.146.381-.152.006-.022-.159-.165-.165.032.156.086.314.162.489-.222.06.089.168-.083.276.073-.01.102.044.102.102-.06-.019-.06.041-.105.025.067.051.095.2-.048.194.138.013-.001.109.09.151.011-.013.023-.026.049-.036l-.038.054s-.007-.003-.011-.005c-.035.061.027.133-.012.208.089-.029.041.083.079.111-.006-.01-.019-.022-.032-.022-.076.025.067.095.022.14-.032.022-.083-.006-.089.029.06,0,.133.124.057.168.003-.022-.029-.022-.054-.035.054.108.048.219.044.33-.003.057-.003.111.003.168.006.025.022.025.054.025-.035.01-.07.019-.105.019-.133.095.175-.035.159-.035-.013.006-.029.022-.044.044-.022.032-.022.067.003.089.016.01.019.019.057.019.057.003.114-.003.171-.016.022-.032-.013-.038-.016-.083.025.013.032.098.067.044l-.006-.057c.133.152.384-.105.483.136.127-.089.216.067.371-.07.048.051-.057.098.01.111l.143-.089-.006.01c.137-.171.362.187.536.067l-.006.01c-.003.038.032.086.06.073.01-.029-.01-.041-.025-.076.156-.067.19-.07.311-.083-.054.06.048.051.054.133.032-.054-.019-.086.054-.13.102-.006.194.063.279.092.035-.073.083-.054.083-.143.114-.006.178-.041.324-.041v.032c.038-.111.124.057.149-.006-.003.038-.016.054-.016.086l.063-.035c-.029.035-.048.14.006.152.057-.079-.013-.054.013-.117l.016.105c.038-.01.051-.127,0-.159.143,0,.279-.048.406-.032l-.013.067c.07-.025.165-.025.206.035,0-.022.019-.057.006-.079.083-.089.01.111.098.013-.022.025-.054.041-.054.079l.168-.083c.003.051.105.162.178.117.003-.029-.016-.067-.035-.073l.044-.025.035.117.067-.102v.098c.051-.019.025-.143.038-.136.044.054.048.089.162.133-.086-.162.121-.067.063-.19.178.044.257-.146.384-.241l.006.022c.111-.003-.063-.152.01-.184l.013.032c.137-.019.146-.219.111-.33.016.029.076.048.083.019-.022-.035-.13-.035-.076-.063.01.016.057.016.057.016l-.067-.083c.108-.089.219-.222.197-.368.035-.016.067.01.095.022.006-.114-.051-.235-.06-.333h.108c.006-.051-.162-.048-.057-.102.016-.013.003.041.048.063.095-.092-.098-.067-.083-.159l.121.032c.073-.07-.063-.086-.133-.114-.143-.098.241-.073.124-.209-.06-.019-.089.013-.149-.006.025-.092-.057-.095-.041-.187.175-.076.01.048.168-.032l-.029.076c.089-.073.032.054.136.035.032-.054-.076-.117-.121-.171.079-.013.019.073.124.025l-.038-.029c.025.006.057.003.057.022.073-.022-.003-.038-.01-.07-.041.003-.098.019-.156.038.01-.003.019-.006.029-.013-.121-.038-.07-.152-.168-.178.025,0,.029-.006.048-.016-.003-.038-.121-.038-.165-.07.048-.044.175-.048.117-.108-.046.009-.099.034-.138.038.02,0,.043-.002.059-.022-.067-.038.013-.025.057-.111-.102.01.003-.073-.14-.01.083-.067.051-.044.098-.114-.063.057-.111-.022-.197.032.089-.076.156-.016.232-.121-.086.006-.143-.038-.251.029.01-.038.041-.073.025-.114-.003.01.022.003.035,0-.108-.013-.117-.149-.254-.079.143-.111-.092-.124.067-.203-.025-.019-.117.003-.146.022.092-.102-.035-.079-.01-.162-.063.051-.089-.003-.143.016.022-.006.041-.022.06-.057-.063.029-.025-.01-.016-.086-.067.006-.051.095-.111.133-.016-.051.041-.079.067-.133-.044.029-.086.06-.124.092-.003-.019.003-.048.016-.083-.035.029-.067.079-.067.006l.041.013.013-.073c-.032.019-.057.038-.073.067,0-.016-.006-.032,0-.044.013-.019.029-.083.029-.111v-.01l-.044.029.019-.105c.022-.01.029.019.029.048v-.102c.003-.029.01-.054.01-.083h-.571l-.025.108c.073.01.181-.2.219-.019l-.035.019c.003.029.023.105.062.068-.036.031-.08.052-.116.068.016-.035.06-.064.048-.117-.051.029-.102.086-.149.114.019-.035.032-.089.041-.124-.054-.048-.041.057-.083.067-.016-.035-.025-.057-.016-.086-.054.038-.095.044-.149,0,0,0,.048-.051.032-.098h-.022c-.086.057-.111.149-.213.203-.127.143-.244-.089-.333.016-.003.038.067.067.01.092.01-.079-.038-.048-.038-.079-.064.111-.092-.025-.137.051.01-.025-.029-.057-.051-.083.006-.095-.067-.038.022-.175-.095.143-.165-.038-.235.184l.022.029-.092-.044h.003c-.041-.016-.048.01-.102-.089.022-.022.057-.025.079-.048-.051-.086-.105.07-.159.076.003-.07.057-.022.041-.108-.038-.01-.073.041-.108.06l.006-.038c-.095-.086-.038.19-.108.06.003.022-.003.048,0,.07-.029-.041-.089-.111-.029-.159-.032,0-.073.032-.089.076.029.057.038.029.048.102l-.137.041c-.013,0,.013-.038.032-.038-.162-.206-.324.175-.505-.073.019.063-.016.054-.032.098-.057-.019-.146-.003-.2-.041l.016-.044c-.14.054-.235.124-.327.095-.006.016,0-.064.016-.076-.07.079-.149-.171-.168-.003l.025.013c-.136-.029-.283.092-.422.114-.032-.102.079-.01.051-.13-.095-.038-.194.048-.298.013.019-.013.013-.025.022-.032-.105-.063.013.102-.076.086.006-.051,0-.063-.029-.089l-.025.079c-.003-.013-.003-.073.01-.098-.048.105-.13.035-.127.133-.013-.025-.019-.117-.038-.156-.048-.029-.063.01-.07.048-.057-.07-.127-.057-.117-.07-.095-.032.025.057.025.117l.073.044-.048.022c-.006-.016-.013-.032-.016-.048-.041-.022-.041,0-.041.022.013.025.025.06.025.06l.057.038.035.057c-.121-.092-.029.022-.165-.092-.032.025-.006.083.025.124.035.044.073.073.079.102,0-.01-.025-.01-.044-.01-.029.051.035.108.095.146-.035-.01-.048-.025-.079-.025-.003.083.067.051.102.143-.051-.025-.076-.019-.089.006.026-.002.049.01.065.021ZM10.737,21.295c-.028,0-.028.023-.036.039.015-.022.036-.039.036-.039ZM7.067,8.616c-.018-.005-.022-.002-.036-.004.01.006.02.014.02.014l.016-.01ZM11.216,7.895c.02-.003.011.056.002.08.013-.015.032-.025.036-.048l-.038-.032ZM13.179,21.564s.002-.008.004-.012c-.001.003-.003.003-.004.006,0,.001,0,.005,0,.006ZM11.219,7.975c-.005.005-.008.013-.013.017.004-.004.007-.002.011-.008,0-.001.001-.007.002-.009ZM19.137,14.079s-.01.006-.016,0v.006l.051.044-.035-.051ZM19.07,14.041l.051.044M19.073,14.041c-.035-.032-.073-.06-.108-.092M20.111,15.523h-.032c.079.048.092.362.194.438-.044-.108-.07-.298-.162-.438ZM39.447,8.454l.263-.029c.06-.029.025-.089-.143-.076l-.121.105ZM38.571,8.232c-.2.051-.429.14-.298.238.197-.102.244-.06.457-.178.168-.013.295.035.267.073.06-.025.263.022.356-.044-.219-.083-.502-.086-.79-.016-.063-.022,0-.051.013-.07l-.003-.003ZM36.298,8.463c0,.006-.003.01-.01.016v.003c.057-.006.105-.016.149-.029-.048.003-.092.006-.14.01ZM40.143,4.171h.016M33.47,1.029c.067.025.105.054.136.079-.044-.063.391-.086-.136-.079ZM36.286,8.432v.003c-.016.022-.041.035-.089.038.035,0,.067-.003.098-.006.01-.013.01-.025-.01-.035ZM23.073,18.923c.038.022.054.111.086.089l-.035-.381c.035.178.14.283.152-.032-.079-.327-.054.089-.117-.07l.105-.098c-.01-.244-.127-.314-.159-.013,0-.838-.048-1.667-.032-2.413l.067.079c-.025-.413-.025-.975.035-1.219-.022-.013-.057-.114-.079-.048-.086-.457.083-.114.029-.489.016.105.032.206.06.222l-.083-1.006c.051-.01.162-.622.117-1.048-.029-.019-.067.105-.073.213l-.025-.273.117-.21-.102-.394h.003s.003-.073.003-.073l.018.071.074-.005c-.019-.292-.146-.406-.137-.641.06-.879.095-.702.187-1.327-.187-.07.006-.994-.127-1.152.14-.835.054-2.044.095-3.14l.016.089c.086-.47-.143-.533-.105-1.038l.029.127c.102-.648.01-1.784-.07-2.4.029.124.089.06.083-.136-.035-.165-.13.165-.095-.184.019.086.06.019.06-.06-.016-.035-.032-.168-.048-.263l-.048-.33c.006-.127.01-.257.016-.397.556.025,1.152.048,1.749.073.451.016.905.016,1.33-.01.171.032.048.067.006.098.737-.019,1.467-.098,2.13-.114l.067.108c.327,0,.203-.165.625-.07.092.013-.279.006-.397.054.654.083.387-.105,1.009-.092l-.162.121c.476.073.543-.063.717-.136.673-.143.479.235,1.39.127.143-.06-.051-.089.095-.149.641.032.717-.054,1.362-.022.346.184-.327,0,.048.171l-.489-.041c.422.098-.384.025-.318.133.318.032.797-.06,1.21-.095,0,.083-.479.01-.289.121l.213-.032c-.057.025-.067.054-.19.054.076.073.248,0,.451,0,.013-.044.003-.105-.063-.162.006.01.022.019.054.029.413-.121,1.111-.029,1.467-.121-.057.025-.01.032.01.051.251.006.508-.102.844-.133.184.06-.105.178.432.146.095-.067-.143-.181.308-.181,0,0-.394.054-.184.102.441-.048.143.022.546.098.229-.095.441.035.489-.121.143.105.105.067.384.14-.124-.083.527-.083.508-.184.114.114-.473.14-.108.26.248-.076.711-.105.749-.229.051.006.095.016.136.022.07.01.137.016.21.025.143.016.298.032.543.038-.073-.006-.19.016-.244.029.108-.01.219-.016.34-.022.044,1.022-.006,1.451.127,1.759-.181-.108-.022,1.121-.19.717.003.219.079.565.114.641-.14-.025-.035.546-.117.784.079.124.054.517.098.759-.016-.108-.041-.165-.079-.127.057.27.003.203-.063.432.041.365.105-.067.171.152-.032.317-.089.048-.146.105l.14.47c-.016.095-.041.162-.079.2.041.162.102.308.029.536v-.403l-.073.156.089.479c-.098.644-.235.495-.375.432v.06h-3.343l-.146.108c.432.01,1.076-.2,1.298-.019l-.216.019c.019.032.146.127.438.06.092-.016.152-.092.029-.089l.219.032c-.105.086-.648.108-.987.133.105-.035.368-.063.289-.117-.302.029-.59.086-.883.114.121-.035.19-.089.248-.124-.327-.048-.244.057-.492.067-.095-.035-.159-.057-.095-.086-.311.038-.559.044-.886,0,0,0,.302-.051.206-.098h-.171c-.489.057-.641.149-1.238.203-.752.143-1.46-.089-1.984.016-.029.038.39.067.051.092.06-.079-.203-.048-.219-.079-.371.111-.546-.025-.806.051.029-.013-.01-.029-.073-.041-.032-.006-.07-.016-.108-.022-.014-.004-.03-.008-.046-.012l-.005.031h-.003s.005-.02.008-.032c-.008-.002-.016-.004-.024-.006.003-.048-.07-.057-.108-.073-.029-.013-.054-.032.194-.102-.178.051-.302.064-.438.064.003.13-.003.254.01.371.013.117.041.27.114.4l.029-.143-.044.556v-.022c-.016.238.01.276-.089.6-.022-.14-.025-.34-.048-.479-.044.149-.025.302.003.46.032.156.073.254.073.371-.07.048-.022-.26-.108-.143-.003.111.006.209.019.292.105-.013.206-.029.314-.041l-.041.038c.543.086.216-.19.632-.06-.016-.022.036-.047.013-.069.003.002.016.006.016.006,0,0-.013-.004-.016-.006,0,0,0,0,0,0,.162.041.527.111.162.159.203,0,.432-.032.533-.076-.171-.057-.213-.029-.276-.102l.809-.041c.089,0-.067.038-.181.038.952.206,1.927-.175,3,.073-.121-.063.076-.054.181-.098.175.013.394.013.609.013.108.003.213.01.314.01.057.003.117.01.171.01.063.006.121.013.175.013l-.146.044c.197-.01.384-.019.549-.029.022.371.041.698.057.997.013.251.019.479.006.705.016.029-.063-.003-.076-.102.079.403-.171.886-.003.997l.013-.149c-.029.8.092,1.682.114,2.508-.102.19-.01-.476-.13-.308-.019.286-.01.575.003.87.006.149.01.295.016.448v.229c0,.086-.006.175-.006.263-.013-.13-.025-.108-.032-.159-.032.368-.006.359.025.337.029-.025.067-.07.06.298-.038-.064-.054-.057-.073.044-.032-.003-.073-.01-.127-.016-.041.025-.092.054-.149.079-.041-.013-.06-.073.016-.098-.054.025-.159.041-.289.051-.057.003-.121.01-.184.01-.054.006-.111.006-.168.006-.225.006-.444.013-.536.063-.048-.025.083-.117.01-.156-.276-.029-.47.01-.654.048-.197-.07-.673-.057-.571-.07-.498-.032-.079.057-.457.117l.397.044-.702.022.279-.048c-.324-.041-.654.044-1.029.044l.171.057-.429.035c-.044-.121-.549-.029-.314-.165-.397-.032-.724-.006-1.041.025-.159.019-.317.035-.479.051l-.06.006-.032.006-.06.01c-.038.01-.076.01-.117.01.06,0,.019-.025.019-.044-.035-.006-.07-.006-.098-.006,0,.092.013.178.032.241l.016.044.019.086c.013.057.025.111.038.165-.035-.054-.048-.156-.079-.156,0,.502.07.305.105.857-.051-.152-.076-.105-.089.044.041-.022.073.105.086.206-.235-.416-.095.616-.283.356.051.025.152.883.248.638l-.019-.149c.067-.019.041.184.044.34-.01-.079-.038-.165-.038-.165l.016.181.006.044v.016l.006.032c.006.041.013.083.013.121h.511c.289,0,.584-.006.889-.025-.076.022-.429.067-.203.086.87.035,1.378-.086,2.257-.146.041.152-.949.022-.984.165.927-.032,1.879-.086,2.911-.162.359.222,1.006-.089,1.644.083-.06-.073.257-.102.603-.102-.117.06.248.06.146.105.152-.032.448-.054.702-.054.095.003.187.006.273.006.095.003.181.01.248.019.136.016.194.041.152.076.054-.032.14-.048.251-.057.016.156.003.416,0,.66v.184c0,.054.003.076.003.114.006.067.016.127.035.175-.051.381.029.822-.013,1.302.079-.156.048.365.07.594-.006-.044-.013-.083-.022-.067-.076.143.067.556.022.825-.032.121-.083-.032-.089.168.06.006.133.737.057,1.006.003-.124-.029-.127-.054-.203.032.39.044.787.044,1.19v1.613c-1.108,0-1.394.013-1.956.06l.232-.105c-.816-.133-.536.175-1.184.159-1.089-.032-2.203-.102-3.302-.133l-.032-.01c-.87-.378-1.794-.438-2.568-.438s-1.651.124-2.578.4c-.006-.003-.013-.006-.019-.006-.756.089-1.289-.067-2.206.07-.289-.051.336-.098-.054-.111l-.851.089.048-.01c-.279.057-.622.054-.994.029-.184-.016-.378-.032-.571-.048l-.073-.006-.121-.006-.238-.013-.46-.022c.013-.295.022-.591.022-.838,0-.175-.006-.346-.025-.508l.01.044c.038.022.086-.19.073-.356-.029-.06-.041.054-.076.152-.067-.917-.07-1.117-.083-1.844.06.314.051-.289.133-.321-.054-.19-.086.111-.13-.314-.006-.603.063-1.162.092-1.663-.073-.203-.054-.47-.143-.483-.006-.682-.041-1.063-.041-1.902l.032-.022c-.111-.225.057-.727-.006-.883ZM36.33,8.212l-.341.085s0,0,0,0l.343-.086h-.003ZM33.54,8.212l.121.076s.001,0,.002,0l-.12-.076h-.003ZM25.318,1.168c.006.001.013.002.019.003h.365c.015.015.013.029,0,.04.016-.012.017-.027,0-.043h-.384ZM31.298,10.432c-.01-.005-.021-.012-.048-.017M31.298,10.432s.016.006.016.006M30.581,9.168c-.019.13-.025.222-.032.298l.032-.298ZM37.816,8.479l-.086.01h.079l-.003.006s.003-.01.01-.016ZM37.905,8.47c-.041,0-.073,0-.086.01M37.905,8.47l.181-.022M34.94,8.46c.156.006.39.07.606.048l.019-.025c-.102.048-.479-.076-.625-.022ZM37.26,15.895l.051-.219-.073-.105.022.324ZM28.314,56.227h0s0-.002,0-.003v.003ZM76.773,56.703l.083.111h.019c-.035-.044-.07-.079-.102-.111ZM78.354,52.03c.003.01.013.01.013.01M76.989,57.017l-.076-.121M76.834,56.843c.029,0,.051.019.079.054-.019-.029-.038-.054-.057-.083-.016,0-.029.006-.022.025v.003ZM68.129,61.055l-.013.473c.01-.133.013-.305.013-.473ZM68.091,63.252l.038-.321c-.032.086-.051.175-.06.267.006.019.013.041.022.054ZM73.596,47.043c.006.017-.055.018-.079.011.017.009.029.023.054.024l.025-.035ZM73.517,47.054c-.006-.003-.013-.004-.018-.008.004.002.003.005.008.007.002,0,.007,0,.01.001ZM73.618,46.827l.003-.003s0-.002,0-.003h-.021c.006.002.013.004.019.006ZM76.024,54.062h-.002s-.001.001-.002.002c.001,0,.003,0,.004-.002ZM75.926,54.138c.037-.02.064-.049.094-.075-.126.068-.27.107-.405.16.13-.01.229-.044.311-.086ZM73.526,46.884c-.035,0-.092,0-.127-.006.035.032.102.06.14.102-.051.019-.086-.013-.124-.019.022.026.049.059.084.085-.045-.029.032-.057.059-.066l.025.029c.178-.063-.054-.124-.057-.187h.073c-.025-.008-.051-.018-.076-.025-.029,0-.048.013-.076.035.016.032.114,0,.079.054ZM70.656,40.067v.004s.002-.002.003-.003l-.003-.002ZM72.789,48.414c-.01.01.007.026.015.04-.01-.021-.015-.04-.015-.04ZM82.884,66.677c.019.025.01.07.016.105-.01.029-.054.019-.079.029l-.181.041c-.064.013-.121.029-.19.041l-.251.013c-.171.01-.368.01-.476.01-.257-.003-.521-.025-.787-.086.121.063-.076.054-.181.098-.349-.019-.876-.003-1.197-.041l.102-.044c-.829.054-1.4.124-1.946.095-.029.016.003-.063.102-.076-.403.083-.886-.168-.997,0l.149.013c-.375-.016-.765.006-1.162.032l-.594.041-.298.019c-.152.006-.302.01-.451.016-.041-.07-.086-.14-.127-.21-.038-.165.067.01.159.159.171-.003.321-.013.229-.07l-.184-.006-.124-.219-.114-.194c-.07-.111-.14-.225-.213-.34-.146-.229-.292-.464-.422-.717.06.083.06.057.089.095-.254-.568-.051.111-.302-.349.057,0,.054-.029-.01-.19l-.146-.092c-.003-.025.054-.054.114,0-.206-.146-.492-.784-.67-.892-.003-.054.14.013.14-.07-.111-.254-.241-.4-.368-.54-.002-.008-.007-.02-.009-.029-.039-.009-.083-.076-.137-.178.041.054.085.104.129.155-.061-.215-.265-.555-.208-.479-.222-.448-.086-.038-.33-.336l.162.365-.371-.597.181.216c-.13-.298-.368-.543-.556-.867l.035.178-.244-.352c.079-.095-.251-.486-.016-.352-.346-.717-.737-1.083-1.108-1.705.063.108.06.054.089.067-.187-.378-.368-.568-.549-.755.057.025.117.105.146.092-.248-.435-.21-.229-.517-.689.121.108.117.054.054-.083-.025.041-.117-.051-.178-.133.413.241-.225-.584.067-.451-.057,0-.575-.689-.533-.429l.092.121c-.048.048-.127-.143-.209-.273.051.063.117.124.117.124l-.162-.238-.079-.121-.038-.057-.016-.019c-.035-.054-.067-.111-.102-.168-.064-.111-.146-.26-.181-.279v.035c-.003-.019-.01-.044-.016-.079-.01-.06.013-.086-.041-.209-.013-.025-.025-.051-.035-.07-.01.159.016.394.048.565.016.089.035.165.054.222.019.073.038.032.051.305-.038.01-.057-.044-.07-.133,0-.022-.006-.048-.006-.073v-.092c-.003-.086-.006-.171-.079-.292l.029.343c.01.222.022.444.035.673.029.483.06.978.098,1.492-.222.362.089,1.006-.083,1.644.073-.06.102.257.102.603-.06-.117-.06.248-.105.146.067.305.095,1.181-.048,1.146.14.079-.006.651.092.902-.051.384.029.822-.013,1.302.079-.156.048.365.07.594-.006-.044-.013-.083-.022-.067-.076.146.067.556.022.825-.032.121-.083-.032-.089.168.01,0,.022.022.032.063.01.051.019.067.029.21.019.241.029.568.029.857-.238,0-.463-.01-.613-.032.225.003.213-.029.324-.054-.251.01-.505.019-.759.029-.162.003-.324.013-.489.013h-.994c-.663-.003-1.333-.006-1.987.057l.232-.105c-.816-.133-.536.175-1.184.159-.311-.013-.625-.022-.94-.035l-.508-.022-.873-.022.019-.809.019-.498c.01-.292.019-.581.029-.87.013-.578.013-1.149-.01-1.711-.032-.127-.038.073-.083.095.013-.149.098-.194.044-.397l-.057.044c.152-.787-.105-2.279.136-2.863-.089-.752.067-1.286-.07-2.203.051-.289.098.336.111-.054l-.089-.851.01.044c-.171-.819.187-2.168.067-3.197l.01.044c.038.022.086-.19.073-.356-.029-.06-.041.054-.076.152-.067-.917-.07-1.117-.083-1.844.06.314.051-.289.133-.321-.054-.19-.086.111-.13-.314-.006-.606.063-1.162.092-1.663-.073-.203-.054-.47-.143-.482-.006-.683-.041-1.063-.041-1.902l.032-.022c-.111-.225.057-.727-.006-.883.038.022.054.111.086.089l-.035-.381c.035.178.14.283.152-.032-.079-.327-.054.089-.117-.07l.105-.098c-.01-.244-.127-.314-.159-.013,0-.74-.032-1.47-.032-2.146.6.162,1.244.254,1.94.254,2.209,0,4.54-.844,6.746-2.448.567-.415,1.128-.878,1.651-1.365v.016c.47,2.203,2.425,3.378,4.279,3.378,1.098,0,2.308-.432,3.724-1.333.06.114.133.232.219.359.117.184.222.39.324.581-.076.029-.194-.457-.222-.232l.111.187c-.044-.048-.079-.044-.124-.162-.041.102.092.235.171.425.044,0,.098-.029.127-.114-.006.01-.006.029-.006.06.121.184.206.46.292.73.067.27.117.54.2.711-.035-.054-.032-.003-.048.019.048.254.168.505.244.851-.044.194-.171-.095-.117.454.07.095.178-.159.194.311,0,0-.073-.406-.111-.187.063.457-.013.152-.083.565.089.241-.048.451.105.511-.108.143-.07.105-.171.384.095-.121.032.546.121.546-.07.051-.083-.076-.105-.168-.025-.095-.054-.156-.137.022.032.26-.013.737.089.8-.073.187-.133.263-.222.559.022-.044.006-.111.006-.143-.057.552-.406,1.283-.413,1.622-.06-.089-.181.178-.302.4-.127.222-.232.409-.203.184-.095.206-.235.546-.251.632-.054-.048-.133.07-.241.209-.111.14-.241.311-.349.381-.029.143-.324.444-.492.638.076-.089.105-.146.048-.146-.178.229-.162.143-.387.248-.283.267.127.051-.025.238-.302.165-.092-.044-.178-.057-.114.127-.219.276-.352.39-.102.035-.178.044-.232.029-.038.031-.079.06-.116.092-.056,0-.116.006-.179,0-.152.083-.302.175-.464.254-.112.009-.198.01-.27.007.099.05.164.235.216.269-.048-.003-.019.127.083.263.216.117.206.181.397.292-.013.162-.213.013-.362-.127.025.003.079.041.067-.025-.211-.211-.358-.446-.407-.673-.056-.002-.106-.006-.142-.013l1.622,2.568.168.067c-.225-.371-.746-.806-.711-1.089l.133.171c.019-.032.032-.194-.181-.403-.06-.067-.159-.076-.089.025l-.092-.2c.13.044.438.489.641.762-.086-.07-.254-.276-.254-.181.184.241.387.454.568.686-.095-.083-.178-.114-.238-.143.137.302.181.175.321.381.022.098.038.165-.019.127.194.244.333.448.47.749,0,0-.206-.225-.194-.121l.092.146c.308.381.467.464.832.936.524.559.705,1.279,1.073,1.667.051.003-.152-.365.051-.092-.095-.01.067.197.051.229.292.251.267.473.473.651-.057-.038.032.159.086.292-.105.016.184.365-.219-.016.419.387.492.844.898,1.073l-.054-.133.257.492-.01-.022c.114.21.156.229.244.556-.092-.105-.2-.273-.295-.378.086.295.391.483.568.756-.067.025-.203-.276-.222-.149.114.203.263.346.397.517l-.048-.006c.235.536.283.089.397.517.013-.025.06.01.067-.025.051.152.187.502-.048.219.108.171.257.346.349.409-.044-.175-.092-.197-.064-.289l.467.664c.048.076-.07-.038-.13-.133.067.206.235.486.387.737.07.124.124.241.178.352ZM73.411,46.465c.035.006.06.006.083,0-.006-.016-.016-.035-.025-.051-.019.016-.038.035-.057.051ZM72.45,45.608c.029-.006.044-.032.057-.06-.013-.006-.041-.013-.041-.013-.006.025-.016.051-.016.073ZM71.551,48.976h-.06c.019.025.051.044.044.063v-.003c.016.003.022-.029.016-.06ZM73.697,47.335c0-.178-.022-.352-.064-.514h-.014c-.006-.021-.012-.039-.018-.06-.029.006-.06.022-.079.035-.051-.035-.067-.067-.038-.127,0,0,.06.029.102,0-.006-.006-.006-.013-.006-.019-.073-.054-.175-.044-.254-.102-.175-.029-.016-.225-.149-.235-.032.019-.029.083-.073.057.067-.035.025-.051.051-.07-.124.025-.025-.076-.108-.057.025-.013.032-.054.041-.086.079-.054-.01-.073.149-.095-.165.032-.073-.143-.273-.025l-.006.032-.025-.079c-.016-.035-.032-.019-.006-.124.032-.006.054.01.086.01.022-.098-.117-.006-.156-.029.044-.057.054.01.095-.067-.022-.029-.076-.01-.114-.01l.025-.029c-.029-.121-.13.143-.114,0-.01.022-.025.038-.035.06.003-.048-.016-.137.057-.152-.029-.016-.076.003-.108.035-.003.064.016.038-.01.108l-.114-.01c-.013-.003.022-.032.035-.025-.019-.117-.105-.105-.178-.076-.073.019-.13.051-.203-.076.013.035,0,.06,0,.06h-.013c-.006.01-.016.016-.025.035-.054-.022-.136-.013-.184-.054l.019-.041c-.133.044-.229.105-.311.073-.003.019.006-.06.022-.073-.07.073-.127-.184-.156-.016l.022.016c-.124-.038-.27.073-.4.086-.022-.105.076-.006.057-.127-.089-.048-.184.032-.279-.01.016-.01.013-.022.022-.029-.092-.073.003.098-.076.079.01-.048.006-.06-.019-.089l-.029.079c-.003-.013.003-.073.016-.098-.044.102-.149.025-.184.121-.006-.025.022-.117.013-.156-.041-.032-.073.006-.105.041-.029-.07-.102-.067-.086-.076-.079-.038-.016.054-.079.111l.06.051-.111.016.048-.044c-.048-.041-.108.041-.165.035l.022.06-.07.032c0-.117-.086-.032-.038-.165-.117-.067-.21.083-.324.083.019.003.013-.022.019-.041-.063-.032-.108.029-.152.086.01-.038.029-.048.029-.079-.076-.01-.051.063-.14.092.029-.048.022-.073,0-.089,0,.044-.022.073-.038.086.083-.232-.089-.102-.035-.286-.006.048-.149.14-.117.238l.025-.016c-.003.067-.032.041-.057.041.013-.013.029-.025.029-.038-.13.07-.251-.01-.394.038.013-.022.073-.06.038-.083-.136-.044-.222.073-.365.121.003-.152.149-.01.165-.152-.146.022-.302.063-.467.13-.029-.222-.197.076-.19-.095.01.073.006.102,0,.102-.013-.06-.029-.063-.038-.108.003.07.01.098-.092-.054.098.146-.044-.01.029.095-.006-.006-.013-.016-.019-.016-.022-.003.038.063,0,.051.089.06.041.044.079.07-.006-.003-.019-.013-.032-.019-.076-.032.067.044.022.029-.032-.006-.083-.025-.089-.019.032.006.067.022.083.029.016.01.016.003-.022.038.003-.019-.029-.022-.054-.029.102.194-.025.413.102.616l-.105-.035c-.133.13.175.086.159.187-.051.279-.2.568-.133.838.032.019.038-.016.083-.016-.013.025-.098.032-.044.064l.057-.006c-.152.124.105.359-.136.451.089.117-.067.203.07.346-.051.048-.098-.051-.111.01l.089.133-.01-.006c.086.063.038.149-.016.238-.029.044-.057.089-.07.133-.016.041-.016.051.016.063h-.01c-.038.003-.086.032-.073.044.029-.003.041-.016.076-.032.067.035.07.029.083.051-.06.032-.051.054-.133.133.051-.035.079-.079.121-.102.003,0,.01-.006.01-.006.025-.006,0,.064.025.092.048-.073.051-.054.079-.143.01-.003.016-.013.022-.022-.006-.006.016-.013.044-.013.025-.006.054-.006.089-.006v.032c.038-.111.114.057.14-.006-.003.038-.013.054-.013.086l.06-.035c-.025.035-.041.14.006.152.051-.079-.016-.054.01-.117l.016.105c.035-.01.048-.127,0-.159.13,0,.26-.048.378-.032l-.013.067c.063-.025.152-.025.19.035,0-.022.016-.057.006-.079.076-.089.006.111.092.013-.022.025-.051.041-.051.079l.159-.083c.003.051.098.162.165.117,0-.029-.019-.067-.035-.073l.041-.025.032.117.063-.102v.098c.048-.019.064-.146.102-.137.136.06.108.095.206.187.013-.187.156.006.181-.127.13.14.321.054.492.095l-.013.016c.073.086.083-.143.162-.105l-.019.029c.102.102.279.01.375-.07-.019.029-.01.089.022.083.029-.035-.025-.13.029-.095-.013.019.01.06.01.06l.054-.092c.14.063.305.13.451.076.025.032.006.067,0,.098.114-.019.229-.098.333-.114l.01.108c.051,0,.032-.165.098-.07.013.013-.044.006-.063.054.102.083.06-.105.159-.092l-.025.121c.076.073.073-.067.089-.14.051-.146.079.229.175.102.003-.06-.025-.086-.025-.146.073.003.054-.073.124-.073.111.152-.035.016.076.152l-.07-.013c.083.07-.035.038.006.137.051.019.076-.098.105-.149.038.073-.051.035.019.124l.013-.041c0,.022.016.051,0,.057.041.063.035-.01.057-.025-.016-.038-.048-.089-.083-.137.003.006.01.016.019.022-.013-.127.105-.095.083-.2.01.022.019.025.032.038.029-.013-.013-.117-.013-.165.057.029.114.14.14.07-.027-.038-.07-.078-.09-.112.009.018.022.038.046.045.003-.073.025.003.117.016-.054-.086.064-.022-.054-.124.089.048.057.032.137.048-.076-.038-.025-.105-.111-.159.105.054.079.13.206.162-.041-.07-.035-.136-.14-.206.035-.003.079.01.111-.016-.01,0,.006.019.016.029-.041-.098.079-.152-.048-.248.159.079.07-.124.209-.019.003-.032-.057-.098-.086-.117.133.041.057-.057.143-.07-.076-.035-.038-.079-.076-.117.013.019.035.032.073.032-.051-.048.003-.025.073-.048-.035-.057-.108-.01-.168-.048.035-.035.089.006.146.006l-.133-.079c.016-.013.044-.019.083-.019-.041-.025-.102-.048-.029-.073v.054l.073-.016-.089-.07c.102-.079.238-.067.378-.054l-.003-.003.019-.016v-.01ZM76.853,57.281s0,0,0,0l-.226-.358.254.244-.003-.003-.254-.244.229.362ZM78.113,59.138c-.098-.108-.156-.146-.187-.159.032.013.086.054.187.159ZM82.649,66.462l.105.168v.073h.003v-.079l-.095-.153s-.013-.009-.013-.009ZM82.83,66.75s-.001-.003-.001-.005c-.028-.011-.057-.025-.075-.039h-.009c.019.019.054.032.086.044ZM70.653,40.066l.003.002v-.002h-.003ZM81.751,64.712s0-.032-.016-.067M80.513,62.659l.133.267M79.818,61.535h.003c-.025-.01-.038-.006-.051-.006l.048.006ZM68.475,56.77c-.089-.117-.032-.035.035.051-.013-.019-.022-.035-.035-.051ZM72.364,63.141c-.051-.098-.108-.219-.178-.308M76.059,55.525l.048.056-.032-.056h-.016ZM76.116,55.592l-.01-.011.006.011h.003ZM76.056,55.525l-.054-.067M75.888,55.316l.117.143c-.035-.054-.073-.121-.117-.143ZM77.576,57.967c-.076-.137-.149-.365-.283-.536h-.032c.095.057.19.441.314.536ZM74.186,66.458l.117.054-.184-.267.067.213ZM15.308,59.446l.473.013c-.133-.01-.305-.013-.473-.013ZM17.083,60.728l.038-.321c-.032.086-.051.175-.06.267.006.019.013.041.022.054ZM11.216,41.945h0s0,0,0,0h0ZM11.194,41.939s.009.008.012.013c.003-.002.007-.004.01-.006l-.022-.006ZM17.108,63.322c-.032.121-.083-.032-.089.168.057.006.133.736.057,1.006.003-.124-.029-.127-.054-.203.032.39.044.787.044,1.19v1.613c-1.108,0-1.394.013-1.956.06l.232-.105c-.816-.133-.536.175-1.184.159-1.771-.051-3.609-.2-5.34-.133-.127.032.073.038.095.083-.149-.013-.194-.098-.397-.044l.044.057c-.79-.152-2.282.105-2.867-.137-.756.089-1.289-.067-2.206.07-.289-.051.336-.098-.054-.111l-.851.089.048-.01c-.279.057-.622.054-.994.029-.184-.016-.378-.032-.571-.048l-.073-.006-.121-.006-.238-.013-.46-.022c.013-.295.022-.59.022-.838,0-.175-.006-.346-.025-.508l.01.044c.038.022.086-.19.073-.356-.029-.06-.041.054-.076.152-.067-.917-.07-1.117-.083-1.844.06.314.051-.289.133-.321-.054-.19-.086.111-.13-.314-.006-.603.063-1.162.092-1.663-.073-.203-.054-.47-.143-.483-.006-.682-.041-1.063-.041-1.901l.032-.022c-.111-.225.057-.727-.006-.883.038.022.054.111.086.089l-.035-.381c.035.178.14.283.152-.032-.079-.327-.054.089-.117-.07l.105-.098c-.01-.244-.127-.314-.159-.013,0-.838-.048-1.667-.032-2.413l.067.079c-.025-.413-.025-.975.035-1.219-.022-.013-.057-.114-.079-.048-.086-.457.083-.114.029-.489.016.105.032.206.06.222l-.083-1.006c.051-.01.162-.622.117-1.048-.029-.019-.067.105-.073.213l-.025-.273.117-.21-.102-.394.098-.006c-.019-.292-.146-.406-.136-.641.06-.879.095-.702.187-1.327-.187-.07.006-.994-.127-1.152.14-.835.054-2.044.095-3.14l.016.089c.086-.47-.143-.533-.105-1.038l.029.127c.006-.032.013-.07.013-.105.886.66,2.041,1.035,3.384,1.035,2.755,0,5.54-1.427,7.657-2.873,1.07,1.217,2.706,1.927,4.705,1.927.359,0,.711-.025,1.057-.067-.003.108-.01.213-.035.286.079.124.054.517.098.759-.016-.108-.041-.165-.079-.127.057.27.003.203-.063.432.041.365.105-.067.171.152-.032.317-.089.048-.146.105l.14.47c-.016.095-.041.162-.079.2.041.162.102.308.029.536v-.403l-.073.156.089.479c-.098.644-.235.495-.375.432v.06h-3.343l-.146.108c.432.01,1.076-.2,1.298-.019l-.216.019c.019.032.146.127.438.06.092-.016.152-.089.029-.089l.219.032c-.105.086-.648.108-.987.133.105-.035.368-.063.289-.117-.302.029-.59.086-.883.114.121-.035.19-.089.248-.124-.327-.048-.244.057-.492.067-.095-.035-.159-.057-.095-.086-.311.038-.559.044-.886,0,0,0,.302-.051.206-.098h-.171c-.489.057-.641.149-1.238.203-.752.143-1.46-.089-1.984.016-.029.038.39.067.051.092.06-.079-.203-.048-.219-.079-.371.111-.546-.025-.806.051.029-.013-.01-.029-.073-.041-.032-.006-.07-.016-.108-.022-.022-.006-.048-.013-.07-.019.003-.048-.07-.057-.108-.073-.029-.013-.054-.032.194-.102-.178.051-.302.063-.438.063.003.13-.003.254.01.371.013.117.041.27.114.4l.029-.143-.044.556v-.022c-.016.238.01.276-.089.6-.022-.14-.025-.34-.048-.479-.044.149-.025.302.003.46.032.156.073.254.073.371-.07.048-.022-.26-.108-.143-.003.111.006.21.019.292.105-.013.206-.029.314-.041l-.041.038c.543.086.216-.19.632-.06-.016-.022.038-.048.013-.07.159.041.527.111.162.159.203,0,.432-.032.533-.076-.171-.057-.213-.029-.276-.102l.81-.041c.089,0-.067.038-.181.038.952.206,1.927-.175,3,.073-.121-.063.076-.054.181-.098.175.013.394.013.609.013.108.003.213.01.314.01.057.003.117.01.171.01.064.006.121.013.175.013l-.146.044c.197-.01.384-.019.549-.029.022.371.041.698.057.997.013.251.019.479.006.705.016.029-.064-.003-.076-.102.083.403-.168.886,0,.997l.013-.149c-.029.8.092,1.682.114,2.508-.102.19-.01-.476-.13-.308-.01.159-.01.295-.01.473.006.203.01.409.016.616-.178.003-.359.013-.54.013h-.244c-.073,0-.143-.006-.216-.006.102-.013.079-.025.127-.032-.619-.063.07.102-.454.086.029-.051.003-.063-.171-.089l-.152.079c-.025-.013-.019-.073.057-.098-.232.105-.927.035-1.111.133-.048-.025.083-.117.01-.156-.276-.029-.47.01-.654.048-.197-.07-.673-.057-.571-.07-.498-.032-.079.057-.457.117l.397.044-.702.022.279-.048c-.324-.041-.654.044-1.029.044l.171.057-.429.035c-.044-.121-.549-.029-.314-.165-.079-.006-.156-.013-.229-.013h-.181c-.098.003-.184.013-.257.022.01.073.019.14.029.2l.016.089c.006.025.01.051.016.108.019.194.038.391.038.61,0-.124-.025-.076-.044-.102-.029.422.035.676.095.93-.035-.054-.048-.156-.079-.156,0,.502.07.305.105.857-.051-.152-.076-.105-.089.044.041-.022.073.105.086.206-.235-.416-.095.616-.283.356.051.025.152.883.248.638l-.019-.149c.067-.019.041.184.044.34-.01-.079-.038-.165-.038-.165l.016.181.006.044v.016l.006.032c.006.041.013.083.013.121h.511c.289,0,.584-.006.889-.025-.076.022-.429.067-.203.086.87.035,1.378-.086,2.257-.146.041.152-.949.022-.984.165.927-.032,1.879-.086,2.911-.162.359.222,1.006-.089,1.644.083-.06-.073.257-.102.603-.102-.117.06.248.06.146.105.152-.032.448-.054.702-.054.095.006.187.006.273.006.098.003.181.01.248.019.137.016.194.041.152.076.054-.032.14-.048.251-.057.016.156,0,.416,0,.66v.298c.006.067.016.127.035.175-.051.381.029.822-.013,1.302.079-.156.048.365.07.594-.006-.044-.013-.083-.022-.067-.076.143.067.556.022.825ZM10.194,49.757h.295c.01-.025,0-.054-.01-.076-.187.019-.263.044-.286.076ZM12.835,47.357c-.019.029.025.064.083.086h.003l.343-.086h-.429ZM10.47,47.357l.12.076c.141-.028.204-.054.233-.076h-.352ZM7.645,59.401s-.006-.01-.013-.079c0,.022,0,.044.003.06.01.022.013.025.01.019ZM10.788,55.303c-.083.016-.162.032-.244.041.136.006.241.01.244-.041ZM10.185,55.344c.136.019.251.013.356,0M14.172,54.735l.025.45.048-.281c-.025-.06-.051-.117-.073-.168ZM14.197,55.198v-.014s-.003.014-.003.014h.003ZM55.339,59.446l.473.013c-.133-.01-.305-.013-.473-.013ZM57.11,60.728l.038-.321c-.032.086-.051.175-.06.267.006.019.013.041.022.054ZM49.145,40.726h-.019s.004.008.006.012c.004-.003.007-.005.01-.008l.003-.003ZM57.136,63.325c-.032.121-.083-.032-.089.168.057.006.133.736.057,1.006.003-.124-.029-.127-.054-.203.032.391.044.787.044,1.19v1.613c-1.108,0-1.394.013-1.956.06l.232-.105c-.816-.133-.536.175-1.184.159-1.771-.051-3.609-.2-5.34-.133-.127.032.073.038.095.083-.149-.013-.194-.098-.397-.044l.044.057c-.79-.152-2.282.105-2.867-.137-.755.089-1.289-.067-2.206.07-.289-.051.337-.098-.054-.111l-.851.089.048-.01c-.279.057-.622.054-.994.029-.184-.016-.378-.032-.571-.048l-.073-.006-.121-.006-.238-.013-.46-.022c.013-.295.022-.59.022-.838,0-.175-.006-.346-.025-.508l.01.044c.038.022.086-.19.073-.356-.029-.06-.041.054-.076.152-.067-.917-.07-1.117-.083-1.844.06.314.051-.289.133-.321-.054-.19-.086.111-.13-.314-.006-.603.064-1.162.092-1.663-.073-.203-.054-.47-.143-.483-.006-.682-.041-1.063-.041-1.902l.032-.022c-.111-.225.057-.727-.006-.883.038.022.054.111.086.089l-.035-.381c.035.178.14.283.152-.032-.079-.327-.054.089-.117-.07l.105-.098c-.01-.244-.127-.314-.159-.013,0-.838-.048-1.667-.032-2.413l.067.079c-.025-.413-.025-.975.035-1.219-.022-.013-.057-.114-.079-.048-.086-.457.083-.114.029-.489.016.105.032.206.06.222l-.083-1.006c.051-.01.162-.622.117-1.048-.029-.019-.067.105-.073.213l-.025-.273.117-.209-.102-.394.098-.006c-.019-.292-.146-.406-.137-.641.06-.879.095-.702.187-1.327-.187-.07.006-.994-.127-1.152.14-.835.054-2.044.095-3.14l.016.089c.086-.47-.143-.533-.105-1.038l.029.127c.01-.054.013-.114.019-.175.625-.162,1.235-.371,1.819-.619.59.581,1.381.933,2.26.933.749,0,1.463-.248,2.187-.752l.025-.019.025-.019c.486-.359.984-.883,1.511-1.441.311-.327.66-.695.876-.883.07-.061.146-.122.228-.185.644,1.622,2.186,2.738,4.032,2.738,1.286,0,2.603-.552,3.908-1.362-.032.292.016.854-.105.562.003.219.079.565.114.641-.14-.025-.035.546-.117.784.079.124.054.517.098.759-.016-.108-.041-.165-.079-.127.057.27.003.203-.063.432.041.365.105-.067.171.152-.032.317-.089.048-.146.105l.14.47c-.016.095-.041.162-.079.2.041.162.102.308.029.536v-.403l-.073.156.089.479c-.098.644-.235.495-.375.432v.06h-3.343l-.146.108c.432.01,1.076-.2,1.298-.019l-.216.019c.019.032.146.127.438.06.092-.016.152-.089.029-.089l.219.032c-.105.086-.648.108-.987.133.105-.035.368-.063.289-.117-.302.029-.59.086-.883.114.121-.035.19-.089.248-.124-.327-.048-.244.057-.492.067-.095-.035-.159-.057-.095-.086-.311.038-.559.044-.886,0,0,0,.302-.051.206-.098h-.171c-.489.057-.641.149-1.238.203-.752.143-1.46-.089-1.984.016-.029.038.39.067.051.092.06-.079-.203-.048-.219-.079-.371.111-.546-.025-.806.051.029-.013-.01-.029-.073-.041-.032-.006-.07-.016-.108-.022-.022-.006-.048-.013-.07-.019.003-.048-.07-.057-.108-.073-.029-.013-.054-.032.194-.102-.178.051-.302.063-.438.063.003.13-.003.254.01.371.013.117.041.27.114.4l.029-.143-.044.555v-.022c-.016.238.01.276-.089.6-.022-.14-.025-.34-.048-.479-.048.149-.029.302,0,.46.032.156.073.254.073.371-.07.048-.022-.26-.108-.143-.003.111.006.21.019.292.105-.013.206-.029.314-.041l-.041.038c.543.086.216-.19.632-.06-.016-.022.038-.048.013-.07.162.041.527.111.162.159.203,0,.432-.032.533-.076-.171-.057-.213-.029-.276-.102l.81-.041c.089,0-.067.038-.181.038.952.206,1.927-.175,3,.073-.121-.063.076-.054.181-.098.175.013.394.013.609.013.108.003.213.01.314.01.057.003.117.01.171.01.063.006.121.013.175.013l-.146.044c.197-.01.384-.019.549-.029.022.371.041.698.057.997.013.251.019.479.006.705.016.029-.063-.003-.076-.102.083.403-.168.886,0,.997l.013-.149c-.029.8.092,1.682.114,2.508-.102.19-.01-.476-.13-.308-.01.159-.01.295-.01.473.006.203.01.409.016.616-.178.003-.359.013-.54.013h-.244c-.073,0-.143-.006-.216-.006.102-.013.079-.025.127-.032-.619-.064.07.102-.454.086.029-.051.003-.063-.171-.089l-.152.079c-.025-.013-.019-.073.057-.098-.232.105-.927.035-1.111.133-.048-.025.083-.117.01-.156-.276-.029-.47.01-.654.048-.197-.07-.673-.057-.571-.07-.498-.032-.079.057-.457.117l.397.044-.702.022.279-.048c-.324-.041-.654.044-1.029.044l.171.057-.429.035c-.044-.121-.549-.029-.314-.165-.079-.006-.156-.013-.229-.013h-.181c-.098.003-.184.013-.257.022.01.073.019.14.029.2l.016.089c.006.025.01.051.016.108.019.194.038.391.038.609,0-.124-.025-.076-.044-.102-.029.422.035.676.095.93-.035-.054-.048-.156-.079-.156,0,.502.07.305.105.857-.051-.152-.076-.105-.089.044.041-.022.073.105.086.206-.235-.416-.095.616-.283.356.051.025.152.883.248.638l-.019-.149c.067-.019.044.184.044.34-.01-.079-.038-.165-.038-.165l.016.181.006.044v.016l.006.032c.006.041.013.083.013.121h.511c.289,0,.584-.006.889-.025-.076.022-.429.067-.203.086.87.035,1.378-.086,2.257-.146.041.152-.949.022-.984.165.927-.032,1.879-.086,2.911-.162.359.222,1.006-.089,1.644.083-.06-.073.257-.102.603-.102-.117.06.248.06.146.105.152-.032.448-.054.702-.054.095.006.187.006.273.006.098.003.181.01.248.019.136.016.194.041.152.076.054-.032.14-.048.251-.057.016.156,0,.416,0,.66v.298c.006.067.016.127.035.175-.051.381.029.822-.013,1.302.079-.156.048.365.07.594-.006-.044-.013-.083-.022-.067-.076.143.067.556.022.825ZM50.222,49.757h.295c.01-.025,0-.054-.01-.076-.187.019-.263.044-.286.076ZM52.863,47.357c-.019.029.025.064.083.086h.003l.343-.086h-.429ZM50.501,47.357l.12.076c.141-.028.204-.054.233-.076h-.352ZM47.669,59.401h.003s-.006-.01-.013-.079v.06c.01.022.013.025.01.019ZM50.815,55.303c-.083.016-.162.032-.244.041.137.006.241.01.244-.041ZM50.212,55.344c.136.019.251.013.356,0M54.225,55.198v-.014s-.003.014-.003.014h.003ZM54.199,54.735l.025.45.048-.281c-.025-.06-.051-.117-.073-.168ZM29.264,52.094c.038-.054.073-.083.105-.108-.07.029-.01-.368-.105.108ZM24.172,66.474l-.048-.213c.013.06.029.127.041.2.006.022.006.032.016.06l.035.102s.006.019.01.029v-.016c-.019-.06-.048-.14-.051-.162h-.003ZM24.238,66.728c0,.044.022.067.016.121.006-.048-.01-.073-.013-.111v-.01h-.003ZM23.749,64.725l.035.271c.006-.075.006-.152,0-.226-.013-.016-.022-.035-.035-.044ZM23.784,65.02h.003l-.003-.025c0,.008,0,.016,0,.025ZM38.193,44.027c-.067.27-.152.505-.076.775l.06-.117-.173.478c-.067.195-.057.241-.224.497.01-.13.057-.308.067-.438-.149.241-.073.565-.146.857-.063-.029.057-.308-.048-.244-.067.206-.063.397-.095.594l-.029-.038c-.222.492.13.251-.095.594.025-.003.035.051.063.032-.076.13-.229.438-.19.102-.051.178-.07.39-.051.492.095-.137.076-.181.162-.219l-.152.73c-.019.079-.019-.07.006-.171-.422.794-.283,1.755-.771,2.648.089-.092.035.086.054.187-.102.305-.21.778-.321,1.054l-.019-.102c-.14.752-.21,1.276-.362,1.755.013.029-.057-.019-.048-.111-.019.378-.375.746-.238.886l.048-.13c-.213.702-.302,1.517-.473,2.257-.143.146.102-.425-.054-.305-.171.498-.225,1.035-.403,1.581.013-.092-.006-.076,0-.121-.206.533.114-.035-.022.425-.041-.038-.057-.019-.124.13l.041.156c-.016.019-.076,0-.083-.076.048.232-.184.832-.13,1.019-.035.035-.095-.105-.149-.051-.092.238-.098.416-.105.59-.004.006-.008.017-.012.023.046.017.022.108-.016.227.009-.075.013-.151.016-.226-.109.169-.203.553-.19.465-.149.438.035.086.006.438l.136-.343-.143.632.019-.26c-.114.279-.108.594-.197.927l.095-.136-.067.39c-.124.01-.156.483-.232.238-.244.695-.216,1.187-.375,1.835.029-.111-.006-.073-.019-.102-.124.368-.124.609-.124.851-.022-.057-.013-.149-.041-.159-.121.444-.006.289-.102.787-.013-.146-.048-.111-.095.019.048-.01.048.111.035.203-.13-.429-.235.524-.356.244.041.038-.06.825.089.632l.019-.137c.035,0,.032.044.019.105-.022.089-.054.2-.079.298.022-.121.041-.257.025-.248-.035.194-.086.429-.14.654-.235.003-.47.01-.708.01h-.46c-.311,0-.632,0-.959.025.07-.022.394-.067.187-.086-.803-.035-1.267.086-2.076.146-.038-.152.873-.022.905-.165-.854.032-1.73.086-2.676.162-.34-.222-.908.089-1.527-.083.038.035-.035.057-.19.073-.146.013-.406.032-.632.022v-.019c.003-.076.003-.156.003-.235.025.105.044-.041.057-.178-.01-.057-.003-.114-.003-.146-.003-.032.003-.038.025-.006-.013-.025-.025-.054-.041-.086-.013-.025-.025-.054-.038-.086-.016-.044-.035-.095-.057-.149-.038-.111-.076-.229-.105-.343-.054-.225-.076-.422-.003-.422-.152-.035-.146-.581-.298-.778-.038-.356-.219-.724-.292-1.162-.044.171-.152-.413-.229-.562.019.044.054.13.06.105.041-.146-.194-.473-.213-.727,0-.117.086.006.044-.171-.064.01-.302-.619-.292-.879.029.111.06.108.102.168-.403-1.114-.594-2.362-1.022-3.492l.156.181c-.06-.759-.292-.432-.429-1.013-.365-1.587-.648-3.26-1.117-4.781-.057-.105-.019.076-.057.105-.022-.137.054-.197-.048-.365l-.044.054c-.035-.74-.632-2-.536-2.581-.263-.648-.238-1.162-.584-1.943-.019-.27.171.276.095-.076l-.286-.733.019.038c-.356-.686-.324-1.975-.682-2.86l.019.038c.044.013.038-.187-.013-.333-.038-.044-.029.057-.038.156-.044-.13-.083-.241-.117-.343,1.01-.257,1.952-.654,2.8-1.121.848.787,2,1.248,3.324,1.248.464,0,.924-.064,1.375-.171l.006.025c-.048.022-.041.594.086.968.029.01.044-.108.029-.206l.076.241-.073.213.178.333-.095.025c.076.257.219.333.257.546.111.803.044.651.073,1.232.197.022.184.895.346,1.01.022.781.34,1.848.511,2.841l-.035-.076c.006.441.241.451.302.911l-.051-.108c.029.603.337,1.603.533,2.14-.054-.108-.098-.038-.054.14.07.146.098-.175.13.146-.035-.073-.06-.006-.048.067l.156.286c.051.371.111.778.168,1.184.013.14.051.333.086.371,0,.149-.019.229-.035.305.032.114.067.171.089.178.019-.197.038-.39.057-.571l.054.267c.013-.07-.003-.187-.016-.267-.013-.086-.022-.121.022-.102.016-.003-.013.089.003.241.051-.048.048-.156.029-.229-.016-.083-.048-.146-.029-.21.035.029.07.073.098.127.029-.041.044-.086.048-.124.006-.057.006-.121,0-.165-.016-.098-.054-.162-.073-.248-.01-.635.324-.381.394-1.222-.032-.143-.095.025-.127-.117.156-.571.086-.657.241-1.229.244-.27-.063.295.175-.006l-.133.432c.175-.359-.051.352.067.314.092-.279.095-.73.14-1.108.079.019-.086.435.06.286l.01-.197c.016.057.041.073.016.184.089-.051.051-.222.089-.403-.038-.022-.098-.025-.168.022.01-.003.022-.016.038-.041-.035-.397.187-1.003.165-1.343.013.054.029.013.051,0,.054-.225-.003-.479.032-.787.092-.149.156.133.225-.356-.048-.102-.206.089-.117-.314,0,0-.019.365.067.187.038-.406.048-.124.2-.47-.051-.229.117-.391-.025-.467.127-.108.083-.079.209-.314-.105.095.019-.489-.083-.495.133-.079.048.451.235.149-.025-.238.035-.66-.079-.721.063-.165.124-.235.194-.498-.019.041-.006.098,0,.127.019-.492.251-1.175.162-1.473.156.133.238-1.003.324-.606.035-.197.029-.524.01-.6.13.048.14-.486.267-.686.756-.076,1.555-.365,2.4-.867h0l.013-.019c.965,1.044,2.362,1.654,4.013,1.654.175,0,.346-.006.521-.016ZM28.337,56.303c-.002-.01-.008-.03-.012-.045-.003-.011-.005-.016-.009-.031h.001s-.001-.006-.002-.01v.003h-.003c.013.041.019.067.025.083ZM36.867,48.716l-.07.263c.022.016.054.01.076.01.025-.171.019-.248-.006-.273ZM32.495,66.706c-.006.032-.016.067-.022.095-.044.232-.01.076.022-.095ZM34.086,59.992c-.032.098-.07.213-.086.314M34.955,56.83l.102-.181-.048-.111-.054.292ZM62.412,41.04c-2.606,0-3.543-1.552-3.543-3.308,0-.098.003-.2.01-.298-.013.013-.029.025-.041.035-1.787,1.463-3.981,3.162-5.505,3.162-.997,0-1.816-.733-1.816-1.905,0-.965.559-2.194.879-2.927-1.14.584-3.689,1.755-5.006,2.898-.673.587-1.67,1.787-2.225,2.197-.295.203-.527.292-.733.292-.498,0-.79-.556-.79-1.054,0-.263.089-.527.206-.673.302-.349.571-.702.829-1.06-2.076,1.555-4.606,2.816-6.86,2.816s-2.927-1.67-2.927-3.105c0-.057.006-.114.01-.175-.924.949-2.676,2.517-3.901,2.517-.819,0-1.463-.733-1.463-2.051-1.609,1.171-3.397,2.46-4.978,2.46-1.229,0-2.282-.79-2.282-2.343,0-.06.006-.121.01-.184-1.635,1.403-3.844,2.705-6.187,2.705-2.606,0-3.543-1.552-3.543-3.308,0-.083.01-.168.01-.254-2.53,2.289-6.028,4.501-8.854,4.501-1.435,0-2.752-.673-2.752-2.578,0-2.517,2.403-6.178,3.251-7.584-.584.057-.733.146-1.317.146-.556,0-.819-.292-.819-.673s.263-.819.79-.965c.936-.263,1.581-.232,2.578-.321.644-.908,2.692-3.838,3.454-4.54.232-.203.467-.292.702-.292.413,0,.733.324.733.762,0,.175-.029.349-.146.556-.203.352-.994,1.26-1.229,1.581l-1.375,1.873c1.375-.029,2.603,0,3.981,0,.441,0,.968-.086,1.378-.029.584.089.937.498.937.936,0,.324-.263.676-.79.733-.203.029-.381.029-.556.029l-1.289-.029-2.108-.029c-.937,0-1.873.032-2.724.089-.819,1.2-3.778,5.416-3.778,7.495,0,.73.324,1.083,1.289,1.083,2.254,0,5.768-2.286,7.086-3.368.879-.705,1.67-1.787,2.489-2.46.051-.044.102-.083.152-.114,1.502-2.521,4.228-4.628,6.114-4.628,1.229,0,2.019.879,2.019,1.816,0,2.578-4.54,5.946-7.438,6.501.292,1.057,1.14,1.378,1.755,1.378,2.987,0,5.39-2.257,7.527-4.657.073-.083.156-.149.244-.206,1.749-2.482,4.701-4.743,7.66-4.743,1.143,0,2.371.206,2.108,1.317-.117.409-.47.527-.733.527s-.997-.117-1.524-.117c-2.987,0-7.32,4.073-7.32,6.355,0,.848.381,1.083.937,1.083,2.079,0,5.006-3.251,6.412-5.33.203-.292.438-.381.673-.381.438,0,.79.352.79.851,0,.584-1.638,2.87-1.756,3.425-.117.587,0,.997.321.997.641,0,2.927-1.67,3.981-3.076.19-.21.549-.657.936-.971,1.448-2.178,3.838-4.298,6.559-4.298.702,0,1.552.467,1.552,1.082,0,.381-.206.879-1.025.879-.203,0-.644-.206-.965-.206-2.663,0-5.505,3.924-5.651,5.768-.06.644-.089,1.698,1.317,1.698,1.581,0,3.66-.79,5.184-1.873,1.403-.994,2.546-2.108,3.571-3.19.124-.124.254-.241.378-.336.66-1.225,1.321-2.451,2.054-3.648,2.546-4.216,5.241-8.022,7.73-8.022,1.171,0,1.844.879,1.844,1.962,0,.965-.527,1.844-1.289,2.781-1.317,1.609-4.889,4.244-7.876,6.06-.584.936-1.143,2.197-1.727,3.133,1.552-.762,3.689-2.019,5.213-3.016.673-.438,1.549-1.375,2.282-1.375.409,0,.819.378.819.848,0,.819-1.346,2.371-1.727,3.016-.292.498-1.171,2.197-1.171,2.752,0,.203.086.292.321.292,1.257,0,4.362-2.638,5.505-3.749.352-.352.6-.629.806-.857,1.517-2.451,4.168-4.47,6.016-4.47,1.229,0,2.019.879,2.019,1.816,0,2.578-4.54,5.946-7.438,6.501.292,1.057,1.14,1.378,1.755,1.378,1.263,0,2.419-.406,3.498-1.054,3.114-2.019,6.028-5.984,7.044-8.435.178-.441.498-.616.762-.616.352,0,.673.324.79.908.263,1.406.616,2.432,1.99,2.489.644.029,1.083.263,1.083.644,0,.235-.146.498-.41.79-1.171,1.289-1.902,2.667-2.136,3.895-.029.146-.029.178-.029.235,0,.527.117.616.352.616,1.435,0,5.155-3.543,6.238-4.568.175-.175.527-.321.79-.321v-.006c.235,0,.527.146.527.527,0,.349-.235.613-.556.965-1.613,1.698-5.273,5.184-7.263,5.184-.848,0-1.844-.584-1.844-1.873s1.14-3.486,1.873-4.774c-.79-.324-1.406-.968-1.698-1.552-.435.883-1.352,2.152-2.514,3.428-1.162,1.708-4.654,5.209-8.495,5.209ZM60.774,36.126c1.346-.324,2.987-1.317,4.216-2.46.644-.584,1.171-1.346,1.171-1.755,0-.232-.206-.321-.498-.321l.003-.003c-1.102.022-2.765,1.298-3.892,2.79-.086.197-.26.448-.495.727-.206.343-.381.686-.505,1.022ZM51.05,30.418c2.225-1.464,6.12-4.39,6.12-5.943,0-.175-.089-.263-.235-.263-1.609,0-4.422,3.924-5.886,6.206ZM14.448,36.126c1.346-.324,2.987-1.317,4.216-2.46.644-.584,1.171-1.346,1.171-1.755,0-.232-.206-.321-.498-.321v-.003c-1.521.029-4.127,2.46-4.889,4.54Z" data-sg-fill="sg-fill-0"></path></svg>