<svg xmlns="http://www.w3.org/2000/svg" id="a" version="1.1" viewBox="0.0 0.0 100.0 89.08173941036029">
    <g transform="scale(0.268261930949379)"><path d="M58.72,195.53c6.27,0,11.06-3.78,13.32-9.2,2.22-5.31,1.96-10.85,2.58-16.31.65-5.64,1.96-11.02,4.39-16.2,3.3-7.03,6.79-13.89,12.11-19.66,4.96-5.38,11.01-8.86,17.78-11.74,5.87-2.5,11.91-2.47,17.85-3.17,9.71-1.14,18.48,2.61,27.11,6.82,4.09,1.99,7.38,4.78,11.31,8.31-4.72-13.8-3.9-26.77,1.17-39.34,3.18-7.89,8.93-13.85,16.24-18.42,11.59-7.25,23.7-12.47,37.72-12.26,3.02.04,6.06-.3,9.1.1,2.1.28,3.12-.48,3-2.82-.46-9.01,3.79-15.45,11.29-20,1.58-.96,2.47-2.13,2.28-4.13-.19-2.02-.1-4.04-.61-6.05-2.07-8.16-1.32-16.63-2.68-24.88-.41-2.49,1.27-4.65,3.67-4.98,7.45-1.04,14.92-2.71,22.5-.55,3.78,1.07,5.21,2.61,4.71,6.41-1.08,8.14-2.23,16.26-3.46,24.38-.52,3.44-2.21,6.62-2.26,10.21-.02,1.35.06,2.44,1.03,3.37,3.16,3,4.41,6.99,5.8,11.33,6.17-6.47,13.29-11.5,20.77-15.9,9.31-5.47,19.56-7.4,30.29-6.02,8.62,1.11,16.44,4.7,23.53,9.48,5.89,3.98,10.31,9.54,14.34,15.51,4.16,6.17,5.81,13.04,7.55,19.99,1.24,4.97.69,10.08,1.05,15.1.98,13.65.88,27.31-1.9,40.86-.97,4.71-1.14,9.58-2.23,14.35-1.39,6.06-3.58,11.81-5.88,17.52-2.32,5.74-4.5,11.52-6.73,17.29-2.1,5.41-4.98,10.52-7.7,15.67-5.87,11.11-11.37,22.44-18.64,32.75-3.97,5.63-8.56,10.82-13.93,15.12-6.7,5.37-14.41,4.22-21.98,2.13-8.63-2.38-17.23-5.01-25.28-8.93-5.95-2.89-11.92-5.77-17.76-8.93-4.43-2.4-8.9-4.75-12.91-7.73-10.21-7.59-20-15.73-29.15-24.56-2.04-1.97-4.65-3.57-5.89-6.37-.35-.78-1.23-.92-2.28-.94.2,4.22,2.39,7.88,3.35,11.84,1.42,5.85,1.72,11.82,3,17.65,3.64,16.62,4.3,33.49,4.44,50.44.09,11.08.2,21.97-2.61,32.93-1.98,7.69-4.8,13.99-12.19,17.28-3.68,1.64-7.66,2.75-11.6,3.62-14.03,3.08-28.16,4.96-42.61,5.15-11.12.15-21.95-1.05-32.86-2.73-8.58-1.32-16.98-3.37-25.39-5.32-9.83-2.27-19.05-6.08-27.96-11.08-9.28-5.21-19.05-9.66-27.86-15.61-11.04-7.45-19.6-17.05-24.47-29.95-3.38-8.95-3.99-17.75-2.2-26.85.91-4.67,3.59-8.76,5.87-12.89,2.83-5.11,6.1-9.98,9.78-14.55,4.73-5.89,11.04-9.45,17.86-12.15,7.67-3.03,15.58-5.23,24.24-5.4h0s0,.01,0,.01ZM276.91,59.95c-1.31,1.51-2.76,2.85-4.94,2.11-2.41-.82-1.58-3.04-1.55-4.67.06-3.44-1.55-5.91-3.88-8.26-1.37,2.68-1.73,4.96-.48,7.75,1.75,3.91.26,8.22-3.04,10.8-4.39,3.43-9.02,4.62-14.48,2.35-4.57-1.89-6.41-5.57-7.17-9.85-.73-4.07.86-7.72,4.39-9.95,2.55-1.61,2.18-3.19,1.16-5.19-1.81-.06-3.04.72-4.12,1.75-5.17,4.92-7.71,10.64-5.66,17.89,1.02,3.61-.48,5.11-4.13,4.43-10.75-2.01-21.22-.42-31.54,2.63-3.47,1.02-6.52,2.98-9.75,4.57-11.23,5.56-19.98,13.03-23.62,25.78-2.27,7.97-2.73,16.01-1.26,23.78,1.63,8.64,4.3,17.23,10.13,24.4,2.52,3.1,2.04,4.11-1.43,6-3.33,1.82-6.7,3.58-8.91,6.82,3.67,4.97,7.24,9.81,10.91,14.77,3.21-2.15,6.29-3.96,9.61-5.35,1.82-.76,2.8-.5,3.86,1.23,2.04,3.34,4.17,6.66,6.6,9.71,5.19,6.49,11.39,12.03,17.33,17.82,6.14,5.98,12.88,11.17,19.45,16.6,7.96,6.58,16.98,11.38,26.21,15.87,6.17,3,12.34,6.01,18.86,8.16,6.94,2.29,13.94,4.48,21.01,6.31,4.58,1.19,9.06.17,12.66-3.08,8.34-7.53,14.55-16.77,20.48-26.18,2.25-3.58,3.59-7.74,5.88-11.3,6.41-9.99,10.9-20.89,15.88-31.58,3.07-6.58,4.53-13.65,7.07-20.38,2.28-6.03,3.38-12.37,4.19-18.66,1.17-9.14,2.06-18.33,1.67-27.63-.51-12.12.08-24.3-3.15-36.18-2.16-7.92-6.28-14.65-12.09-20.37-4.63-4.56-10.02-7.7-16.11-10.22-5.29-2.19-10.53-3.87-16.15-4.05-6.83-.22-13.24,1.26-19.55,4.32-8.95,4.33-16.61,10.24-24.31,17.08l-.03-.03h0ZM23.26,212.83c-5.24,4.34-8.3,10.29-11.92,15.87-3.5,5.37-6.14,11.1-7.15,17.29-1.48,9.11,1.23,17.76,5.27,25.78,5.75,11.41,15.46,19.11,26.16,25.55,6.63,3.99,13.51,7.56,20.27,11.32,7.48,4.16,15.3,7.79,23.48,10.01,7.77,2.11,15.62,4.12,23.62,5.53,16.03,2.84,31.89,5.17,48.37,3.42,14.07-1.49,27.82-3.84,41.38-7.71,5.35-1.53,8.4-4.96,10.15-10.2,1.2-3.61,1.47-7.27,2.04-10.93,1.15-7.48,2.45-14.92,2.38-22.55-.04-3.99-1.42-7.86-1.04-11.79,1.12-11.5-1.61-22.72-2.16-34.09-.41-8.48-3.54-16.45-4.88-24.76-1.08-6.73-4.16-12.84-7.01-18.91-1.6-3.41-1.94-7.68-5.51-10.1-.98.73-1.87,1.41-2.79,2.06-1.01.71-2.02,1.43-3.06,2.08-3.36,2.12-4.93,1.72-7.17-1.64-3.37-5.05-6.65-10.16-10.28-15.02-1.33-1.78-.77-2.58.3-3.98,2.51-3.29,6.57-4.61,9.46-7.52-3.77-6.43-8.08-12.32-13.55-17.2-6.05-5.4-13.06-8.93-21.09-10.74-11.61-2.61-22.65-1.13-33.13,4.06-10.05,4.97-16.17,13.75-20.86,23.57-1.98,4.15-3.97,8.44-4.96,12.89-1.15,5.14-1.03,10.54-1.81,15.78-.64,4.31-1.7,8.62-4.28,12.27-3.6,5.08-8.73,6.83-14.79,6.24-5.26-.52-10.39.68-15.38,1.81-7.59,1.73-13.78,6.37-20.04,11.62h-.02s0-.01,0-.01ZM252.72,53.07c.61,2.04.9,4.22,3.98,4.07,1.94-.09,3.47-.53,3.85-2.49,1.28-6.63,3.54-13.02,4.88-19.6,1.7-8.37,2.75-16.86,4.19-25.28.45-2.61-.28-4.21-2.95-4.68-5.85-1.02-11.65-.92-17.39.78-2.59.76-2.65,2.84-2.49,4.89.21,2.81.59,5.61.95,8.4,1.41,11.16,2.39,22.38,4.99,33.92,0,0,0,0,0,0ZM260.09,61.3c-3.26.59-6.43-.24-9.19-1.59-2.12-1.04-1.7-4.15-2.64-6.31-2.73,2.4-3.37,6.16-1.82,9.92,1.14,2.75,4.97,4.29,9.66,3.89,3.13-.27,5.55-2.63,6.46-6.46-.72.15-1.37.28-2.48.55h.01Z" data-sg-fill="sg-fill-0" />
  <path d="M268.14,215.86c-8.02-3.64-15.3-8.06-22.15-13.17-4.86-3.63-9.56-7.46-14.46-11.04-5.47-3.99-9.94-9.02-14.6-13.83-5.79-5.99-10.9-12.59-15.53-19.48-5.95-8.87-9.9-18.57-11.26-29.32-.66-5.16-1.39-10.01-.13-15.32,2.04-8.59,7.54-13.88,14.67-17.95,10.47-5.97,21.81-6.91,33.38-4.57,5.7,1.16,11.18,3.37,16.8,5,7.26,2.11,13.52.18,19.59-4.2,6.53-4.71,11.24-11.3,17.58-16.12,6.44-4.91,12.75-10.23,20.27-13.32,13.36-5.48,26.95.61,31.29,14.81,3.94,12.91,5.48,26.01,3.93,39.39-1.41,12.2-3.28,24.29-6.27,36.27-2.2,8.82-4.5,17.61-7.62,26.09-2.23,6.05-4.74,12.07-7.68,17.91-3.86,7.66-8.14,15.03-12.95,22.08-2.32,3.39-4.94,6.56-8.76,8.65-4.82,2.64-9.24.36-13.32-1.12-7.79-2.84-15.32-6.48-22.78-10.75h0s0,0,0,0ZM335.57,159.39c2.52-7.74,3.8-15.72,5.15-23.74,1.4-8.35,2.95-16.65,3.02-25.12.09-11.85-.11-23.67-4.96-34.88-4.37-10.1-15.35-13.14-24.59-9.39-7.19,2.92-13.28,7.79-19.28,12.63-7.05,5.69-12.65,13.04-20.52,17.87-6.14,3.77-12.4,5.71-19.53,3.57-5.27-1.58-10.55-3.15-15.85-4.63-13.97-3.91-26.7-1.35-38.18,7.47-3.89,2.99-6.7,6.91-7.21,11.8-.95,9.21.31,18.24,3.7,26.9,2.63,6.7,6.08,12.97,10.48,18.67,4.73,6.12,9.28,12.42,14.84,17.83,5.77,5.61,11.88,10.87,18.31,15.73,4.82,3.64,9.59,7.38,14.69,10.6,7.27,4.59,15.09,8.22,22.78,12.06,6.29,3.14,12.73,5.95,19.53,7.8,1.87.51,3.72.15,5.45-1.09,3.28-2.35,5.67-5.56,7.85-8.74,6.13-8.98,11.03-18.66,15.38-28.64,3.69-8.47,6.23-17.31,8.91-26.68l.03-.02h0Z" data-sg-fill="sg-fill-0" />
  <path d="M243.29,72.78c4.86,2.66,9.71,3.35,14.87,2.07,1.28-.32,3.01-.54,3.41,1.16.38,1.62-1.19,2.46-2.45,2.71-5.74,1.14-11.45,1-16.62-2.06-2.04-1.2-1.98-2.9.79-3.89h0s0,0,0,0Z" data-sg-fill="sg-fill-0" />
  <path d="M267.01,68.64c1.27-1.2,2.44-1.31,3.33-.04.86,1.22.33,2.35-.77,3.2-.53.41-1.14.7-1.68,1.09-.86.62-1.73,1.16-2.69.24-1.06-1.03-.63-2.01.22-2.92.45-.49.94-.94,1.59-1.57h0Z" data-sg-fill="sg-fill-0" />
  <path d="M128.81,308.95c-10.02-1.28-19.74-2.54-29.48-3.73-4.28-.52-8.37-1.99-12.38-3.26-11.04-3.5-22.02-7.31-31.96-13.53-3.95-2.47-7.71-5.18-10.83-8.59-4.77-5.21-10.65-9.77-13.11-16.55-2.5-6.88-3.75-13.97-.3-21.32,6.62-14.08,17.48-22.98,32.24-26.96,4.06-1.09,8.32-1.9,12.5-2.75,7.28-1.47,12.75-5.61,15.82-12.85,3.05-7.2,4.1-15.03,6.96-22.15,4.18-10.41,7.51-21.58,17.03-28.97,3.63-2.81,7.65-3.7,12.25-3.96,9.7-.55,15.83,4.83,21.88,11.24,7.88,8.35,13.7,18.01,18.68,28.18,3.2,6.53,5.83,13.38,8.23,20.25,3.67,10.51,7,21.16,9.22,32.09,3.18,15.63,5.23,31.42,4.27,47.41-.34,5.68-.49,11.58-3.53,16.7-1.71,2.88-4.47,4.26-7.85,5.2-10.23,2.83-20.82,1.99-31.17,3.61-5.91.93-12.11.06-18.46-.06h0ZM185.48,260.05c-.13-1.68-.06-3.33-.44-5.03-2.39-10.77-4.16-21.67-6.98-32.36-1.55-5.85-3.5-11.56-5.47-17.26-1.94-5.6-4.43-11.02-6.83-16.46-6.33-14.34-14.17-27.68-26.89-37.34-4.87-3.7-10.61-4.52-16.55-2.16-4.06,1.61-7.2,4.13-9.73,7.78-2.14,3.08-3.66,6.43-5.3,9.71-2.3,4.61-4.95,9.31-5.92,14.26-1.58,8.08-4.36,15.62-7.8,22.98-1.13,2.41-2.87,4.52-5.02,6.24-5.67,4.53-12.47,5.93-19.33,7.34-6.18,1.27-12.09,3.34-17.63,6.42-6.6,3.67-11.36,9.19-15.04,15.58-3.79,6.57-5.3,13.42-1.97,20.94,1.46,3.3,3.89,5.67,5.77,8.53,5.49,8.37,13.38,13.77,21.81,18.62,4.78,2.75,10.07,4.37,15.12,6.48,5.58,2.33,11.36,4.23,17.38,5.37,5.64,1.07,11.28,2.03,16.95,2.91,6.33.98,12.58,2.31,19.02,2.22,8.91-.12,17.82.29,26.73-.65,5.15-.54,10.23-1.45,15.41-1.87,8.09-.66,11.15-3.95,12.2-12.13,1.25-9.79.49-19.64.53-30.11h-.02Z" data-sg-fill="sg-fill-0" />
  <path d="M293.42,119.8c.97-.26,2-.37,2.89-.79,4.31-2.06,8.77-3.81,12.62-6.79,3.44-2.66,6.33-5.64,7.91-9.75.44-1.15,1.42-1.53,2.4-1.16.57.22,1.25,1.18,1.2,1.76-.11,1.33-.42,2.73-1.01,3.91-2.26,4.46-6.04,7.48-10.24,9.93-3.23,1.88-6.59,3.54-9.99,5.1-2.2,1.01-4.58,1.62-6.83,2.52-1.46.58-2.54,1.41-3.05,3.19-1.02,3.6-1.72,7.21-1.82,10.94-.05,1.83.14,1.95,1.97,1.54,4.03-.9,8.02-1.86,11.54-4.17.86-.56,1.79-1.04,2.72-1.49.89-.43,1.68,0,2.02.75.23.53.22,1.43-.08,1.9-1.42,2.15-3.72,3.2-6.01,4.04-3.1,1.13-6.3,2-9.47,2.94-2.25.66-2.53,1.03-2.56,3.37-.04,3.41.06,6.84-.27,10.22-.22,2.21-1.01,4.38-1.73,6.5-.67,1.98-1.43,3.97-2.41,5.81-3.75,7.05-9.51,11.49-17.55,12.31-4.42.45-8.34-1.11-10.48-5.29-1.14-2.23-1.73-4.69-.81-7.38.69-2.01,1.27-3.99,2.61-5.69,2.65-3.35,8.83-4.36,11.74-1.73.7.63,1.04,1.86,1.15,2.86.05.51-.7,1.42-1.25,1.58-.55.15-1.5-.23-1.92-.7-1.59-1.76-2.45-2.03-4.64-1.12-3.09,1.27-5.3,6.37-3.36,9.56,2.41,3.95,5.03,5.04,9.58,3.67,5.19-1.56,8.64-4.9,10.95-9.71,1.37-2.84,2.29-5.76,3.17-8.78,1.07-3.68.87-7.39,1.21-11.08.16-1.71-.51-2.1-2.04-1.25-1.93,1.08-3.78,2.3-5.68,3.44-1.87,1.12-2.28,3.17-3.14,4.92-.42.86-.94,1.43-1.94,1.28-1.07-.16-1.27-1.01-1.37-1.89-.41-3.42,1.53-5.71,4.02-7.44,2.74-1.9,5.72-3.46,8.67-5.02.96-.51,1.26-1.09,1.34-2.07.3-3.91.65-7.82.99-11.73.09-1.03-.37-1.45-1.32-1.05-5.41,2.3-10.87,4.51-16.19,7.01-2.76,1.3-5.39,3-7.23,5.55-.49.68-.7,1.77-.59,2.62.2,1.52,1.93,1.99,3.03.94.44-.42.8-.92,1.21-1.38.74-.82,2.09-.86,3.11-.13.95.69.61,1.42.18,2.23-1.56,2.98-4.84,4.37-8.03,3.5-2.45-.67-4.45-5.3-3.35-7.73,2.25-4.95,6.41-7.54,10.79-9.95,2.61-1.44,5.38-2.62,8.16-3.71,2.42-.95,4.98-1.57,7.44-2.43,1.71-.6,3.47-1.2,5.01-2.14.81-.49,1.13-1.75,1.79-2.57,1.45-1.78,2.93-3.54,4.5-5.2.59-.62,1.43-1.15,2.25-1.38.55-.16,1.48.09,1.84.51.4.46.63,1.4.44,1.97-.21.62-.95,1.09-1.51,1.57-.93.8-1.9,1.55-2.85,2.32.09.14.17.28.26.42v.02s.01,0,.01,0Z" data-sg-fill="sg-fill-0" />
  <path d="M153.4,253.44c0,4.93-.98,9.63-2.86,14.13-1.54,3.7-3.9,6.76-7.56,8.65-1.45.75-5.79.3-6.74-.73-1.08-1.17-.85-3.02.51-3.77.32-.18.84-.24,1.18-.11,3.23,1.2,5.61.28,7.3-2.75,4.16-7.49,4.71-15.41,3.02-23.65-.87-4.22-2.47-8.12-4.92-11.66-1.51-2.17-3.57-3.7-6.09-4.34-1.08-.27-2.35.27-3.54.4-2.97.34-2.92,2.48-3.14,4.75-.54,5.52-1.51,10.96-4.54,15.8-.23.36-.25,1.03-.08,1.43,1.64,3.81,3.53,7.53,4.97,11.41,1.69,4.55,3.43,9.18,2.87,14.19-.13,1.13-.59,2.31-1.22,3.27-1.05,1.6-2.61,1.7-4.28.96-2.8-1.24-5.05-3.27-7.05-5.56-4.91-5.6-8.53-11.97-11.3-18.86-1.1-2.73-2.32-5.42-3.25-8.2-.66-1.98-.68-4.19-1.42-6.13-1.13-2.97-.97-6.05-1.2-9.09-.27-3.57-.06-7.15,1.06-10.62.53-1.64.75-3.39,1.35-5,1.88-5.05,4.42-9.58,10.32-10.75,2.99-.59,5.59.46,7.82,2.43,3.65,3.24,5.3,7.5,6.09,12.18.14.84.31,1.68.39,2.53.11,1.3.95,1.73,1.96,1.32,2.46-.99,4.86-.62,7.2.18,2.56.87,4.51,2.63,6.13,4.79,3.8,5.06,5.55,10.89,6.43,17.05.27,1.91.4,3.84.59,5.77v-.02h0ZM129.09,277.37c.14-.06.29-.12.43-.17.04-.8.15-1.61.09-2.41-.52-6.99-3.06-13.32-6.36-19.4-.71-1.3-1.63-1.52-2.97-.67-1.69,1.07-3.09.34-4.48-.51-1.21-.74-1.66-1.95-1.44-3.3.31-1.9.8-3.78,1.12-5.68.09-.52,0-1.25-.31-1.62-1.71-2.02-3.57-3.91-5.27-5.94-.43-.52-.75-1.48-.57-2.08.43-1.49,2.23-1.9,3.4-.82,1.28,1.18,2.43,2.5,3.61,3.78,1.23,1.35,1.77,1.3,2.65-.29,1.91-3.46,4.23-6.59,7.18-9.24.42-.38.75-1.13.73-1.7-.07-1.69-.27-3.39-.54-5.07-.47-2.87-1.26-5.64-3.07-8-2.18-2.84-6.64-4.79-9.78-.48-.93,1.28-1.79,2.69-2.36,4.16-.99,2.55-1.9,5.15-2.51,7.81-.48,2.05-.48,4.22-.64,6.34-.06.84-.24,1.88.15,2.51.8,1.33.31,2.63.42,3.94.12,1.57.56,3.12.97,4.65.61,2.28,1.11,4.63,2.02,6.79,1.97,4.69,4.14,9.3,6.27,13.92,1.9,4.12,4.49,7.77,7.82,10.85,1.05.97,2.28,1.75,3.43,2.61v.02s.01,0,.01,0ZM126.2,235.48c-.15-.04-.31-.07-.46-.11-1.19,1.88-2.38,3.76-3.56,5.64-.37.6-.75,1.2-1.03,1.84-.45,1.05.18,2.78,1.29,3.09.39.11,1.34-.52,1.5-1,.89-2.63,1.64-5.3,2.37-7.98.12-.45-.07-1-.11-1.5,0,0,0,.02,0,.02ZM117.79,249.86c.36.43.62.74.89,1.06.28-.31.84-.66.79-.91-.07-.4-.53-.74-.83-1.1-.24.28-.49.55-.85.96h0Z" data-sg-fill="sg-fill-0" />
</g></svg>