<svg xmlns="http://www.w3.org/2000/svg" id="Layer_2" data-name="Layer 2" viewBox="0.0 0.0 100.0 128.22037037037038">
  <g transform="scale(1.8518518518518519)"><defs data-sg-fill="sg-fill-0">
    <style data-sg-fill="sg-fill-0">
      .cls-1 {
        stroke-width: 0px;
      }
    </style>
  </defs>
  <g id="Layer_1-2" data-name="Layer 1-2" data-sg-fill="sg-fill-0">
    <g id="UJ6Sz5.tif" data-sg-fill="sg-fill-0">
      <g data-sg-fill="sg-fill-0">
        <path class="cls-1" d="M53.499,37.809c-.278.421-.463.851-.296,1.379.051.162.023.366-.028.532-.352,1.152-.796,2.254-1.541,2.943-.116.625-.12,1.101-.301,1.499-.264.592-.606,1.157-.981,1.684-2.087,2.938-1.61,1.893-1.856,5.373-.176,2.476-.407,4.947-.629,7.418-.079.875-.213,1.745-.305,2.619-.065.602-.366.935-.967,1.037-1.684.278-3.369.592-5.058.851-.629.097-1.041.333-1.31.963-.324.764-.759,1.485-1.217,2.18-.444.662-1.05,1.171-1.823,1.444-.125.046-.255.157-.329.268-.37.583-.926.759-1.559.472-.606-.273-.879-.879-.676-1.513.102-.315.268-.615.305-.935.037-.305-.046-.625-.083-.99-.68.065-1.347-.005-2.059.222-1.624.528-3.29.921-4.956,1.31-2.277.532-4.567,1.013-6.858,1.509-1.444.31-2.911.315-4.373.157-1.203-.125-2.392-.361-3.591-.528-.116-.014-.25.097-.444.18-2.013-1.907-3.748-4.021-4.364-6.863-.463-2.138-.939-4.271-1.407-6.409-.046-.217-.102-.449-.083-.671.093-1.111-.236-2.138-.537-3.184-1.106-3.869-1.842-7.811-2.332-11.8-.319-2.578-.56-5.164-.495-7.765.06-2.254.227-4.507.342-6.761.065-1.24.116-2.48.171-3.721.009-.204-.019-.412.023-.606.134-.62.264-1.231,1.087-1.323.324-.037.634-.227.939-.37,1.37-.625,2.735-1.254,4.183-1.92-.019-.102-.06-.292-.088-.477-.139-.842-.171-1.647.426-2.374.676-.824,2.494-.976,3.429.093.666-.62,1.467-.949,2.383-.833.949.12,1.467.796,1.888,1.643,1.222-.268,2.443-.537,3.697-.814-.032-.176-.06-.329-.093-.477-.222-1.032-.463-2.059-.666-3.091-.134-.694.278-1.203,1-1.208.393,0,.791.12,1.249.194.379-.375.764-.879,1.268-1.208.315-.208.81-.213,1.212-.185.342.023.62.028.944-.153.717-.393,1.24-.12,1.337.699.125,1.074.18,2.156.273,3.235.023.264.069.528.111.814.708-.12,1.365-.236,2.022-.338,1.106-.176,2.207-.106,3.29.139,1.384.31,2.772.611,4.123,1.027,2.814.87,5.113,2.425,6.418,5.192.074.157.134.324.116.546-1.606-1.809-3.448-3.23-5.747-4.077.907,1.698,1.032,3.559,1.208,5.516.319-.125.574-.245.842-.319.949-.264,1.893-.56,2.855-.745.366-.069.787.111,1.175.194.148.032.278.148.426.18.657.143.75.231.838.833.467,3.124.976,6.238,1.398,9.366.319,2.346.546,4.706.787,7.062.143,1.411.227,2.827.333,4.23.384.116.611-.032.828-.31.416-.532.847-1.06,1.323-1.536.305-.31.727-.504,1.055-.791.278-.241.537-.523.745-.828.375-.555.565-.574.981-.023v.134l.019.009ZM35.771,61.789c.583-.282.87-.782,1.152-1.286,1.805-3.202,3.591-6.414,5.414-9.607.477-.838,1.111-1.583,1.601-2.411,1.078-1.823,2.115-3.674,3.147-5.521.125-.222.208-.504.194-.754-.069-1.328-.125-2.661-.278-3.984-.361-3.137-.759-6.27-1.162-9.399-.319-2.457-.699-4.91-1.004-7.372-.134-1.087-.278-1.296-1.398-1.282-.329,0-.685.06-.976.199-.727.352-1.421.773-2.138,1.148-.81.421-1.43.167-1.671-.703-.139-.495-.199-1.018-.301-1.522-.171-.814-.264-1.661-.541-2.439-.578-1.629-1.435-3.031-3.415-3.174-.134-.009-.264-.06-.393-.093-1.8-.416-3.563-.324-5.345.333.111,1.041.241,2.064.324,3.096.065.805.143,1.624.093,2.429-.065,1.064-.657,1.351-1.62.907-.194-.088-.458-.194-.629-.13-.731.282-1.435.329-2.101-.069-.106.093-.167.13-.204.185-.268.37-.583.666-1.074.495-.495-.176-.495-.629-.541-1.064-.139-1.185-.292-2.369-.458-3.549-.074-.523-.208-1.041-.329-1.615-1.291.347-2.49.652-3.674,1-.167.051-.333.273-.398.458-.333.898-.768,1.735-1.43,2.429-.685.717-1.384,1.421-2.082,2.124-.491.491-.773.518-1.259.037-.546-.537-1.055-1.111-1.564-1.684-.356-.398-.68-.824-1.06-1.286-1.87.787-3.707,1.555-5.539,2.328,0,.426.014.875,0,1.323-.093,2.457-.143,4.919-.301,7.376-.25,3.892,0,7.765.477,11.62.648,5.257,1.828,10.398,3.619,15.382.768,2.138,1.708,4.211,2.587,6.307.125.301.315.634.574.805.625.407.861.935.768,1.657-.032.245-.005.495,0,.745.005.717.449,1.305,1.162,1.435,1.754.319,3.54.574,5.308.319,2.689-.393,5.368-.907,8.029-1.462,2.397-.495,4.776-1.106,7.154-1.689.393-.097.833-.217,1.064-.731-.902-.167-.976-.814-.986-1.536-.009-.93.222-1.8.685-2.587.99-1.689,2.027-3.355,3.05-5.025.093-.153.199-.338.347-.403.199-.088.444-.074.671-.102.028.208.065.416.069.625,0,.079-.083.157-.125.236-1.009,1.786-2.008,3.577-3.022,5.359-.375.662-.546,1.356-.458,2.138l-.014-.014ZM27.659,18.595c.227-3.258-.333-6.557-.592-10.102-.56,1.12-1.143.079-1.596.236-.227.292-.361.629-.583.708-.366.125-.532.356-.708.652-.329.541-.75.634-1.319.333-.143-.074-.292-.139-.458-.213,0,.319.065.588-.014.801-.194.541.037,1.004.176,1.495.37,1.319.736,2.642,1.05,3.975.19.805.287,1.634.435,2.49.509-.268.972-.319,1.439-.005.106.069.296.056.435.028.578-.12,1.152-.259,1.735-.393v-.005ZM43.971,50.845c-.097.139-.199.282-.292.435-1.384,2.3-2.777,4.595-4.146,6.9-.578.967-1.013,2.041-1.698,2.92-.879,1.134-1.226,2.457-1.694,3.744-.18.5.185,1.277.592,1.481.333.167.87-.065,1.236-.588.389-.551.773-1.111,1.106-1.698.685-1.217,1.342-2.448,1.994-3.684,1.36-2.568,2.712-5.141,4.058-7.719.162-.31.264-.657.393-.972-.528-.282-.995-.532-1.546-.824l-.005.005ZM47.303,50.664c-1.647,3.79-4.003,7.228-5.808,11.051,1.402-.199,2.689-.375,3.975-.574.731-.116.754-.13.851-.888.282-2.189.555-4.378.796-6.571.111-1.004.125-2.022.185-3.017ZM14.142,19.766c1.347-1.092,2.254-2.379,2.809-3.91.111-.305.153-.671.111-.99-.028-.241-.185-.541-.379-.671-.514-.338-1.12-.403-1.671-.143-.486.227-.805.634-.731,1.245.037.31-.12.532-.444.569-.352.037-.541-.162-.615-.491-.051-.217-.079-.444-.157-.652-.199-.537-.528-.717-1.106-.634-.509.069-.708.264-.74.87-.019.347.014.736.153,1.05.639,1.439,1.657,2.605,2.777,3.762l-.005-.005ZM50.459,43.547c-.204-.255-.403-.551-.648-.801-.467-.481-.759-.444-1.134.097-.37.532-.768,1.05-1.111,1.606-.949,1.532-1.883,3.068-2.8,4.614-.301.504-.162.824.384,1.152.592.352.898.305,1.245-.213.949-1.421,1.897-2.841,2.832-4.271.356-.546.68-1.115,1.013-1.68.079-.134.13-.287.222-.5l-.005-.005ZM11.814,65.676c.065-.676.13-1.277.167-1.883.009-.139-.065-.31-.148-.426-1.046-1.411-2.018-2.869-2.777-4.461-.023-.046-.074-.074-.134-.125.324,2.642,1.365,5.137,2.897,6.9l-.005-.005ZM50.806,42.103c.301-.953,1.013-1.583,1.041-2.536-.541.643-1.087,1.291-1.661,1.971.194.176.366.333.62.565Z" data-sg-fill="sg-fill-0" />
        <path class="cls-1" d="M7.788,3.829c.657-.565,1.347-1.101,2.24-1.282,1.124-.227,2.096.014,2.841.944.773.963.74,1.985.19,3.036-.703,1.347-1.786,2.309-3.096,3.022-1.481.805-2.971,1.587-4.466,2.374-.565.296-.926.167-1.208-.398-.097-.199-.18-.421-.324-.588-1.111-1.351-1.897-2.897-2.689-4.442-.518-1.023-.824-2.096-.773-3.253.046-1.023.528-1.786,1.481-2.147,2.082-.787,3.276-.588,4.836.99.435.44.629,1.115.967,1.745ZM5.22,10.557c1.203-.68,2.305-1.337,3.438-1.944.967-.518,1.8-1.194,2.554-1.981.264-.273.481-.597.676-.926.268-.458.176-.912-.13-1.328-.287-.393-.694-.504-1.138-.398-.412.097-.833.217-1.212.398-.528.25-1.027.565-1.527.865-.592.356-.87.273-1.138-.37-.125-.292-.259-.578-.347-.879-.236-.847-.838-1.37-1.564-1.772-.828-.458-1.634-.217-2.379.185-.676.361-.463,1.055-.453,1.647,0,.111.023.222.046.333.463,2.351,1.768,4.257,3.184,6.164l-.009.005Z" data-sg-fill="sg-fill-0" />
        <path class="cls-1" d="M36.289,48.753c-.453.241-.819.458-1.203.629-.768.338-1.805.097-2.286-.652-.356-.555-.68-1.212-.75-1.851-.139-1.36-.13-2.739-.12-4.114,0-.69.629-1.106,1.314-.99.361.06.606.393.606.842,0,.926-.023,1.851-.009,2.777.009.541.046,1.083.102,1.62.023.217.083.453.204.634.093.148.305.324.444.31.185-.023.426-.185.504-.352.139-.301.19-.648.255-.976.25-1.305.495-2.61.389-3.952-.019-.245.014-.495.032-.745.065-.838.245-1.004,1.087-1.027.657-.019.926.204.921.861-.014,1.666-.065,3.336-.083,5.002-.005.606.037,1.217.06,1.823.019.407-.083.759-.435,1-.477.324-.777.208-.921-.352-.037-.148-.074-.301-.125-.486h.014Z" data-sg-fill="sg-fill-0" />
        <path class="cls-1" d="M26.854,44.135c.472-.032.944-.097,1.411-.088,1.365.023,2.383.851,2.605,2.203.347,2.096-.407,4.327-2.716,5.349-1.911.847-4.007-.019-4.618-2.397-.472-1.846.088-3.48,1.18-4.956.208-.282.578-.504.921-.625.671-.236.888-.111,1.212.514h.005ZM25.322,47.925c-.093.861.467,1.99.976,2.439.588.518.939.541,1.541.06,1.263-1.018,1.647-3.332.787-4.706-.282-.449-.676-.68-1.194-.578-1.634.31-1.911.685-2.078,2.101-.019.18-.019.361-.032.68v.005Z" data-sg-fill="sg-fill-0" />
        <path class="cls-1" d="M30.098,27.934c.518-.088.907-.157,1.379-.236.717,2.059,1.064,4.22,1.643,6.381.259-.847.509-1.698.782-2.541.407-1.259.828-2.517,1.259-3.771.111-.329.574-.583.888-.509.366.088.43.393.393.69-.088.666-.162,1.342-.338,1.985-.565,2.041-1.171,4.063-1.758,6.094-.023.088-.042.176-.06.264-.056.296-.014.703-.19.875-.296.282-.713.467-1.111.602-.407.134-.685-.102-.81-.504-.449-1.462-.958-2.911-1.323-4.392-.329-1.328-.514-2.698-.74-4.049-.046-.278-.005-.574-.005-.884l-.009-.005Z" data-sg-fill="sg-fill-0" />
        <path class="cls-1" d="M19.547,48.41c.602-1.323,1.157-2.55,1.717-3.776.074-.162.143-.403.273-.453.324-.116.68-.143,1.023-.208.019.222.088.453.046.662-.162.81-.333,1.624-.56,2.42-.245.865-.551,1.712-.842,2.564-.366,1.064-.213,2.129-.074,3.212.125.958.185,1.925.255,2.892.037.495-.416.565-.722.666-.324.106-.625-.074-.717-.44-.268-1.069-.569-2.129-.768-3.212-.116-.634-.042-1.305-.097-1.953-.019-.213-.125-.472-.278-.615-1.217-1.171-2.11-2.573-2.883-4.054-.097-.185-.083-.634,0-.666.329-.139.713-.241,1.055-.194.241.032.491.301.657.523.523.703,1.009,1.435,1.518,2.152.111.162.25.301.403.486l-.005-.005Z" data-sg-fill="sg-fill-0" />
        <path class="cls-1" d="M10.847,34.907c-.495.19-.902.384-1.328.495-.213.056-.491.019-.694-.069-.412-.185-.43-.495-.046-.759.278-.19.602-.305.884-.486.444-.282,1.013-.301,1.402-.727.139-.153.458-.194.694-.19.898.023,1.791.065,2.684.143.264.023.514.194.861.333-.814.68-1.745.143-2.573.588.366,2.55.976,5.076,1.61,7.705.44-.153.828-.292,1.222-.416.255-.083.514-.176.777-.217.106-.019.287.065.329.153.042.083-.023.255-.093.347-.074.106-.204.176-.319.245-.986.611-1.976,1.212-2.957,1.828-.125.079-.194.236-.31.342-.398.366-.842.597-1.402.477-.458-.097-.615-.412-.324-.777.264-.329.611-.597.953-.847.278-.204.375-.393.264-.736-.713-2.217-1.12-4.503-1.485-6.798-.032-.194-.088-.389-.143-.625l-.005-.009Z" data-sg-fill="sg-fill-0" />
        <path class="cls-1" d="M38.723,31.33c.555-.167,1.087-.342,1.629-.481.379-.093.93-.31,1.097.125.185.481-.435.588-.754.777-.523.31-1.097.523-1.62.833-.176.102-.375.361-.375.551,0,.875.06,1.749.102,2.763.287-.13.481-.199.657-.301.777-.449,1.55-.912,2.328-1.365.097-.056.204-.111.31-.13.301-.051.671-.222.856.139.176.347-.199.509-.407.676-1.05.847-2.11,1.684-3.188,2.494-.301.227-.666.379-1.023.514-.583.213-1.092-.056-1.226-.662-.106-.481-.139-.981-.19-1.472-.06-.606.046-1.277-.18-1.805-.329-.759-.065-1.467-.083-2.193-.005-.204.037-.407.032-.606-.051-2.365,1.745-3.397,3.563-3.832.171-.042.366-.051.532,0,.148.042.361.162.379.273.023.12-.116.329-.241.412-.37.245-.759.491-1.166.666-1.018.435-1.06,1.356-1.166,2.254-.009.065.014.134.032.199.009.042.042.079.102.185v-.014Z" data-sg-fill="sg-fill-0" />
        <path class="cls-1" d="M30.727,55.361c.458-.097.912-.222,1.374-.273.185-.019.495.069.555.194.143.31-.157.444-.393.495-1.162.25-2.332.472-3.494.713-.305.065-.602.194-.912.222-.171.014-.435-.069-.509-.199-.069-.12.005-.398.111-.528.153-.185.379-.315.592-.44.875-.504,1.758-.995,2.615-1.596-.208.065-.426.116-.625.199-1.55.662-3.096,1.337-4.646,2.004-.31.134-.62.264-.944.342-.301.069-.588-.014-.745-.329-.157-.319-.019-.578.217-.777.241-.199.504-.384.777-.532,3.091-1.68,6.372-2.804,9.852-3.336.352-.056.727-.069,1.074-.014.204.032.509.217.537.375.032.213-.102.514-.268.676-.199.194-.5.292-.764.421-1.485.745-2.971,1.485-4.452,2.226.014.051.032.102.046.157Z" data-sg-fill="sg-fill-0" />
        <path class="cls-1" d="M27.293,30.692c.491.083.888.148,1.286.222,1.018.18,1.62,1.138,1.643,2.031.028,1.217-.093,2.383-.888,3.383-.68.856-2.11,1.24-3.082.819-.588-.255-.879-.745-1.097-1.3-.421-1.083-.435-2.212-.245-3.327.116-.676.356-1.342.611-1.985.222-.56,1.231-.921,1.772-.666.102.046.19.236.185.361,0,.139-.106.282-.19.467l.005-.005ZM27.539,36.402c.926-1.226,1.097-2.425.81-3.725-.111-.509-.449-.75-.893-.916-.319-.12-.532-.023-.606.315-.264,1.222-.426,2.443.185,3.614.116.222.292.416.504.713Z" data-sg-fill="sg-fill-0" />
        <path class="cls-1" d="M22.823,39.169c.412-.125.773-.245,1.138-.333.194-.046.407-.069.597-.037.292.051.375.333.125.477-.782.444-1.559.916-2.392,1.222-.703.259-1.18-.106-1.333-.833-.588-2.841-.861-5.71-.694-8.612.037-.615.148-.74.74-.856.583-.111.717.042.759.657.088,1.208.19,2.42.333,3.623.153,1.319.356,2.628.546,3.943.032.241.111.472.176.745l.005.005Z" data-sg-fill="sg-fill-0" />
        <path class="cls-1" d="M14.054,25.356c.153-.366.255-.666.403-.939.43-.796,1.259-.981,1.999-.467.477.329.722.805.782,1.365.13,1.212-.194,2.318-.842,3.346-.185.292-.421.407-.74.315-1.12-.319-2.258-.602-3.355-.99-.68-.241-.958-.814-.87-1.439.079-.569.583-1.092,1.236-1.175.463-.06.935-.009,1.384-.009l.005-.005ZM16.479,25.569c-.042-.495-.222-.81-.565-.847-.44-.046-.657.199-.736.606-.032.153-.097.301-.162.44-.231.509-.403.592-.949.463-.13-.032-.255-.079-.384-.116-.537-.157-.865-.009-1,.44-.116.379.079.662.583.81.555.162,1.12.315,1.684.453.463.116.801-.019.972-.463.222-.583.375-1.194.56-1.791l-.005.005Z" data-sg-fill="sg-fill-0" />
      </g>
    </g>
  </g>
</g></svg>